<svg version="1.1" id="Layer_1" xmlns="http://www.w3.org/2000/svg" x="0" y="0" viewBox="0 0 86.3 149.5" xml:space="preserve"><style>.st109{fill:#61bfbc}</style><path class="st109" d="M46.7 125.9h.6c-.3.7.4.5.3 1.1 1.3-.5 1 1.4 1.2 1.8-.3-1.3-2-1.3-2.1-2.9z"/><path class="st109" d="M11.8 117.5c-1.6 0-2.9-2.2-4.4-2.5-.7-.2-1.8.4-2.2.1-.2-.2-.2-1.4-.1-1.6 0 0 2.4-.3 2.8-.4 2.1-.1 4.2.2 6.8 0 2.5-.2 4.8-.8 6.7-1.1 2.7-.4 6.3.5 9.6.5 2.4 0 4.8-.4 7-.3 1.1 0 2.2.4 3.2.3.4 0 .9-.4 1.3-.4 3.4-.1 6.5.6 9.4.5 4.8-.2 10.8-.6 15.2-.8 2.7-.1 6.4-.2 9.4.4 3.1.6 4.8-1.2 8.5-2.3.3-.1 1.1.3 1.2.5.4 1-1.1 1.9-.8 1.7-.4.4-1 .5-1.4.9-1.7 1.5-4.2 5.2-6 7-.3.4-1.1.5-1.6 1-.4.4-.6 1.2-1 1.5-.3.3-.9.4-1.3.7-3 2.5-5.3 5.2-7.9 8.4-2 2.4-5.1 4.9-7.4 7.4-1 1.2-1.8 2.6-2.8 3.6-.6.6-1.7 1.1-2.2 1.9-.4.5-.6 1.1-1 1.7-.4.5-1.1 1-1.3 1.3-.6 1-.6 2.2-2.7 1.7-.8-.2-2.5-1.7-3.8-2.8-2.2-1.8-3.2-3.2-5.4-4.9-2.1-1.6-4.2-3.5-6.4-5.2-1.5-1.2-3-2.2-4.4-3.4-1.4-1.3-2.8-2.6-4-3.7-1.3-1.1-3-2-4.1-3-1.8-1.6-3.2-3.7-5.5-5.3-.4-.3-1-.7-1.5-1-1.3-.5-2.6-.6-1.9-2.4zm58.5-.4c-.4-1-1.5-2-.3-3-1.9 0-3.1-.1-4.7.1 0 .4.2.5.3.8 2.3-1.3 3.1 1.5 4.7 2.1zm-10.4-2.9c-.6-.4-2.1.2-2.6.2-.3 0-.7-.3-1.1-.4-1.4-.2-4.1.5-5.3.6-1.1.1-2.5-.6-3.3.2 2.1 1 4.3 2.8 7 2.1-1.1-2.9 2.1-.7 2.8.1.1-.9-.8-1.1-.2-1.7 1.2-1.4 2.5 1.9 3.7 1.4-.6-.4-.3-2-1-2.5zm3.5 2c-.2-.9-.7-2.3-1.9-1.8.8.5 1.2 1.3 1.9 1.8zm-17 .3c.8-.9-.5-1.2-1.3-1.4.1.6.8.8 1.3 1.4zm28.9 3.2c-2.2.1-1.9-2.1-3.8-2.3-.2 1.7 2.9 5.1 3.8 2.3zM43.2 117c-.4-.3-1.2-1-1.8-.5.3.3 1.2 1.3 1.8.5zm-11.1-.7c.5 2 3 2.1 4.4 3.3-1.6-1-1.5-3.8-4.4-3.3zm40.5 6.3c-.3-1.8-2.3-4-4-4.5.9 1.9 2.4 3.3 4 4.5zm-42.2-5.5c-.5-.8-1.6-.3-2.8-.3 1 .9 2.2 2.3 3.3 2.6-1.2-.3-.2-1.8-.5-2.3zm38.7 4.5c-.7-.8-2-3.8-3-3.2-1.2.7 1.2 1.9 1.5 2.1.7.6 1 1.6 1.5 2.1.1.1.5-.1.6 0 .7.4 1 1.2 1 1.7 1.3-.6-1.2-2.2-1.6-2.7zm-23.4 3c.3.3 1.7.4.9 1.1-1.3-1-2.4-3-3.9-4.3-.7-.6-2.1-1.7-2.4-2.4 0-.1 0-1-.1-1.1-.6-.7-2.4-.3-3.4-.3 4.4 3.5 8 7.8 12.1 11.5-.1-.3.3-.7.3-.3-.3.5 0 1 .4 1.3-.4-1.1 1.4-.7 1 .8 1.3-.4.7 1.1 1.2 1.6.3.3 1 .2 1.4.5.9.7 1 2.2 1.7 3.2.4.6 1.7.8 1.3 1.9 2.7-.8-.2-4-1.5-5.3-2.2-2.2-5.3-4.8-6.8-7.1-.4-.6-.3-.4-.9-.8-.8-.6-1.1-1.9-1.9-1.6.8.1.2.8.6 1.3zm-23.6-6s.6.1.6.2c.1.1.7 1.6 1.4 1 .3-.7-1-1-.7-1.7.4-1 1.5.4 1.9-.9-1.7-.2-3.4.1-3.2 1.4zm28.4-.3c1.1.6 1.5 2.2 2.5 3 .5.5 1.3.5 1.8 1 .2.2.1.6.3.8.6.8 1.7 1.2 2.2 1.9.5.6.6 1.3 1 1.7.7.8 1.6 1.1 2.5 2.3.6.8 1.3 2.2 1.9 2.1.2 0 .8-.5.8-1.1 0-.1-2.1-2.8-2.2-2.9-.4-.5-1-.6-1.2-1-.2-.3-.4-1.1-.6-1.3-.7-.9-2-1.5-2.8-2.3-.8-.8-1.3-1.7-2.1-2.3 0 .4 0 .9-.3.9-.8-1.1-1.8-3-3.8-2.8zm5.4.3c-2.3-.4-.1 1.2.1 1.4 1.1 1 2.1 3.4 3.7 3.3-1.1-1.1-2.9-4.6-3.8-4.7zm7.1 3.7c.3.4.4 1 .7 1.3.2.2.7.3.9.5 1.6 1.9.6 4.3-1.2 2-.8-1-1.6-2.6-2.7-3.2.5 1.5 2.5 2.7 2.9 4.5 0 .1-.1.5 0 .6.1.1 1.8 1.2 1.5 1.1.6 0 .8-.8 1.4-1.3.2-.2.9-.4 1-.6.1-.4-1.2-2.1-2-3.2-.9-1.1-2.4-1.8-3-2.8-.5-.8-1.1-2.1-1.9-1.8.6 1.1 1.7 2 2.4 2.9zm-12.4-.1c.9.9 2.2 2.4 2.8 3.2.4.6 1.5 1.3 1.8 1.8.4.7 1.1.8 1.8 1.5.5.5.8 1.5 1.5 2.2.5.5 1.3 1.2 1.8 1.9.5.8 1.2.5 1.2-.3.1-.6-2.4-3.4-3.1-4-.8-.7-1.3-2-2.1-2.9-.7-.7-1.5-1.2-1.9-1.9-.4-.7-.2-.3-.9-.7-1-.4-1.1-1.5-1.6-1.5-.3 0-.5.5-.9.4-1.4-.4-2.5-3-3.9-2.8 1 1.3 2.4 2.1 3.5 3.1zm18.1 3.8c.5-.1 1.1-.7 1-1.2-.1-.4-.2.1-.8-.3-1-.8-2.7-3.9-3.9-4.2.4 2.7 3.3 3.1 3.7 5.7zm-22 4.7c-.6-.4-.4-1.2-.7-1.6-.7-.9-1.4-.3-1.5-1.5-.1-.8.4-1.5-.5-1.7-.1.3.1 1-.2 1.1-.6-.6-.6-.7-.6-1.4-.6.5-1.5-.2-.7-1.3-1.2.4-1.1-.4-1.8-1-1.1-.9-2.6-1.2-3.6-2 2.3 2.8 4.8 5.4 7.4 8 .9.9 1.5 2.3 2.5 3.2.6.6 1.4.7 1.8 1.3.3.4.3 1.1.7 1.6.2.2.5 0 .8.2.8.5 1.3 2.5 2.5 2.3-.1-.9-1-1-1.6-1.8-.5-.7-.6-1.8-1.1-2.4-.4-.4-1.1-.4-1.5-.8-.7-.8-.7-1.7-1.3-2.7.4.1 1.2.8 1.6 1.6.6 1.2 1.2 1.1 2.4 2.4.6.7 1.4 1.9 2.2 2.9.8 1 1.9 3.5 2.6 1.2-1.9-.3-2.3-2.3-3.6-3.7-1.1-1.2-2.5-2.2-3.6-3.2-.8-.8-1.1-1.9-1.8-2.6-.1-.1-.5.1-.6 0-.5-.4-.7-1.3-1.3-1.4 0 1.4 2.2 1.7 1.5 3.3zm-19.5-7.4c.7.7 1 1.6 1.6 2.2.5.5 1.3.7 1.7 1.3.1.2.1.8.3.9.4.4 1.4.5 1.8 1 .3.3.2.9.4 1.3.8 1.2 2.8 2.2 4 3.7.7.8 1 1.8 1.6 2.4.3.3.9.5 1.2.8.5.5.8 1.4 1.3 1.9.4.4 1.1.5 1.5.8.1.1.2.6.3.8 1 1.4 4.2 3.7 4.8 4.2-.5-1.6-1.5-2.2-3-3.5-.8-.8-1.9-2.6-2.8-3.4-.7-.6-1.5-1.2-2.2-1.9-.7-.8-1.2-1.7-1.9-2.4-.2-.2-.6-.1-.8-.3-.2-.2-.2-.7-.4-.9-.5-.5-1.2-.7-1.7-1.2-1-1.1-1.8-2.6-2.9-3.8-.2-.2-.6-.3-.9-.5-1.7-1.5-3.3-5.1-5.7-5.3.2.8 1.1 1.2 1.8 1.9zm23.3 1.9c.9.7 1.1 2.2 1.9 3 .7.7 1.4.7 1.8 1.6.4.8.6.8 1.2 1.4.7.8 4.5 6.3 4.2 3 0-.4-1.3-1.6-2.1-2.6-2.7-3.4-6-6.6-9.1-9.4.2 1.4 1.2 2.2 2.1 3zm-14.9-3c.3.8 1.1.8.9 1.9-.3 1.3.3 1 1.5 2.2.5.5.7 1.3 1.2 1.8.7.7 1.7 1 2.1 1.8.1.2 0 .6.1.8.2.2.5 0 .8.2.3.2.7 1 1.3 1.6 1 1 2.6 2 3 3.1.3.9.6.6 1.2 1.1.6.5.6 1.2 1.3 1.4-.8-1.4-1.8-2.6-2-4.6-.4.2.4 1.3-.4 1.4-.2-.9-.9-1.4-1.5-2.1-.1-.1-.1-.5-.1-.6-.2-.4-.8-.4-1.1-.7-.4-.5-.3-1.7-1.2-1.6.1.2.5.9.3.9-1.9-3.3-4.7-5.9-7.4-8.6zm-.6 6.2c-1.5-1.9-3.1-3.6-4.6-5.1 1.2 2 2.8 3.7 4.6 5.1zm1.5 1.8c.7.7 1 1.6 1.8 2.2.5.4 1.2.5 1.7 1 .9.9 1 2.4 2.4 2.7-.3-1.3-1.3-1.8-2.1-2.4-.3-.3-.4-.8-.7-1.1-.6-.7-1.9-1.5-2.5-2.3-.6-.8-.6-1.5-1.6-1.6-.5 1.1.6 1 1 1.5zM52.3 142c.4.1 1.1-.4 1.1-1 0-.8-4.1-4.1-4.3-4 .6.6.8 1.7 1.6 2.1-.1.2-.5.2-.5.6 1.1-.4 1.8 2.2 2.1 2.3zM41.7 16h.6c-.3.7.4.5.3 1.1 1.3-.5 1 1.4 1.2 1.8-.4-1.4-2-1.4-2.1-2.9z"/><path class="st109" d="M6.7 7.6c-1.6 0-2.9-2.2-4.4-2.5-.6-.2-1.7.4-2.1 0C0 4.9 0 3.8.1 3.6c0 0 2.4-.3 2.8-.4 2.1-.1 4.2.1 6.8 0 2.5-.2 4.8-.8 6.7-1.1 2.7-.4 6.3.5 9.6.5 2.4 0 4.8-.4 7-.3 1.1 0 2.2.4 3.2.3.4 0 .9-.4 1.3-.4 3.4-.1 6.5.7 9.4.5 4.8-.2 10.8-.6 15.2-.8 2.7-.1 6.4-.2 9.4.4 3.1.6 4.8-1.2 8.5-2.3.3-.1 1.1.3 1.2.5.4 1-1.1 1.9-.8 1.7-.4.4-1 .5-1.4.9-1.7 1.5-4.2 5.2-6 7-.3.4-1.1.5-1.6 1-.4.4-.6 1.2-1 1.5-.3.3-.9.4-1.3.7-3 2.5-5.3 5.2-7.9 8.4-2 2.4-5.1 4.9-7.4 7.4-1.1 1.2-1.8 2.6-2.8 3.6-.6.6-1.7 1.1-2.2 1.9-.4.5-.6 1.1-1 1.7-.4.5-1.1 1-1.3 1.3-.6 1-.6 2.2-2.7 1.7-.8-.2-2.5-1.7-3.8-2.8-2.2-1.8-3.2-3.2-5.4-4.9-2.1-1.6-4.2-3.5-6.4-5.2-1.5-1.2-3-2.2-4.4-3.4-1.4-1.3-2.8-2.7-4-3.7-1.3-1.1-3-2-4.1-3-1.8-1.6-3.2-3.7-5.5-5.3-.4-.3-1-.7-1.5-1-1.4-.6-2.6-.7-2-2.4zm58.6-.4c-.4-1-1.5-2-.3-3-1.9 0-3.1-.1-4.6.1 0 .4.2.5.3.8 2.1-1.3 3 1.4 4.6 2.1zM54.9 4.3c-.6-.4-2.1.2-2.6.2-.3 0-.7-.3-1.1-.4-1.4-.2-4.1.5-5.3.6-1.1.1-2.5-.6-3.3.2 2.1 1 4.3 2.8 7 2.1-1.1-2.9 2.1-.7 2.8.1.1-.9-.8-1.1-.2-1.7 1.2-1.4 2.5 1.9 3.7 1.4-.6-.5-.4-2.1-1-2.5zm3.5 2c-.2-.9-.7-2.3-1.9-1.8.7.4 1.2 1.2 1.9 1.8zm-17.1.2c.8-.9-.5-1.2-1.3-1.4.2.7.9.9 1.3 1.4zm29 3.2c-2.2 0-1.9-2.1-3.8-2.3-.2 1.7 2.8 5.2 3.8 2.3zM38.2 7c-.4-.3-1.2-1-1.8-.5.3.3 1.2 1.3 1.8.5zm-11.1-.6c.5 2 3 2.1 4.4 3.3-1.7-1.1-1.5-3.9-4.4-3.3zm40.4 6.3c-.3-1.8-2.3-4-4-4.5 1 1.9 2.5 3.2 4 4.5zM25.3 7.1c-.5-.8-1.6-.3-2.8-.3 1 .9 2.2 2.3 3.3 2.6-1.2-.3-.1-1.8-.5-2.3zM64 11.6c-.7-.8-2-3.8-3-3.2-1.2.7 1.2 1.9 1.5 2.1.7.6 1 1.6 1.5 2.1.1.1.5-.1.6 0 .7.4 1 1.2 1 1.7 1.4-.5-1.1-2.1-1.6-2.7zm-23.3 3.1c.3.3 1.7.4.9 1.1-1.3-1-2.4-3-3.8-4.3-.8-.7-2.1-1.7-2.5-2.5 0-.1 0-1-.1-1.1-.6-.7-2.4-.3-3.4-.3 4.4 3.5 8 7.8 12.1 11.5-.1-.3.3-.7.3-.3-.3.5 0 1 .4 1.3-.4-1.1 1.4-.7 1 .8 1.3-.4.7 1.1 1.2 1.6.3.3 1 .2 1.4.5.9.7 1 2.2 1.7 3.2.4.6 1.7.8 1.3 1.9 2.7-.8-.2-4-1.5-5.3-2.2-2.3-5.3-4.8-6.8-7.1-.4-.6-.3-.4-.9-.8-.8-.6-1.1-1.9-1.9-1.6.7.1.1.9.6 1.4zM17.1 8.6s.6.1.6.2c.1.1.7 1.6 1.4 1 .3-.7-1-1-.7-1.7.4-1 1.5.4 1.9-.9-1.8-.2-3.4.1-3.2 1.4zm28.3-.2c1.1.6 1.5 2.2 2.5 3 .5.5 1.3.5 1.8 1 .2.2.1.6.3.8.6.8 1.7 1.2 2.2 1.9.5.6.6 1.3 1 1.7.7.8 1.6 1.1 2.5 2.3.6.8 1.3 2.2 1.9 2.1.2 0 .8-.5.8-1.1 0-.1-2.1-2.8-2.2-2.9-.4-.5-1-.6-1.2-1-.2-.3-.4-1.1-.6-1.3-.7-.9-2-1.5-2.8-2.3-.8-.8-1.3-1.7-2.1-2.3 0 .4 0 .9-.3.9-.7-1.1-1.7-3-3.8-2.8zm5.4.2c-2.3-.4-.1 1.2.1 1.4 1.1 1 2.1 3.4 3.7 3.2-1-1-2.8-4.5-3.8-4.6zm7.2 3.7c.3.4.4 1 .7 1.3.2.2.7.3.9.5 1.6 1.9.6 4.3-1.2 2-.8-1-1.6-2.6-2.7-3.2.5 1.5 2.5 2.7 2.9 4.5 0 .1-.1.5 0 .6.1.1 1.8 1.2 1.5 1.1.6 0 .8-.8 1.4-1.3.2-.2.9-.3 1-.6.1-.4-1.2-2.1-2-3.2-.9-1.1-2.4-1.8-3-2.8-.5-.8-1.1-2.1-1.9-1.8.5 1.1 1.6 2 2.4 2.9zm-12.4-.1c.9.9 2.2 2.4 2.8 3.2.4.6 1.5 1.3 1.8 1.8.4.7 1.1.8 1.8 1.5.5.5.8 1.5 1.5 2.2.5.5 1.3 1.2 1.8 1.9.5.8 1.2.5 1.2-.3.1-.6-2.4-3.4-3.1-4-.8-.7-1.3-2-2.1-2.9-.7-.7-1.5-1.2-1.9-1.9-.4-.7-.2-.3-.9-.7-1-.4-1.1-1.5-1.6-1.5-.3 0-.5.5-.9.4-1.5-.4-2.5-3-3.9-2.8 1 1.4 2.3 2.1 3.5 3.1zm18.1 3.9c.5-.1 1.1-.7 1-1.2-.1-.4-.2.1-.8-.3-1-.8-2.7-3.9-3.9-4.2.4 2.7 3.2 3.1 3.7 5.7zm-22 4.7c-.6-.4-.4-1.2-.7-1.6-.7-.9-1.4-.3-1.5-1.5-.1-.8.4-1.5-.5-1.7-.1.3.1 1-.2 1.1-.6-.6-.6-.7-.6-1.4-.6.5-1.5-.2-.7-1.3-1.2.4-1.1-.4-1.8-1-1.1-.9-2.5-1.2-3.6-2 2.3 2.8 4.8 5.4 7.4 8 .9.9 1.5 2.3 2.5 3.2.6.6 1.4.7 1.8 1.3.3.4.3 1.1.7 1.6.2.2.5 0 .8.2.8.5 1.3 2.5 2.5 2.3-.1-.9-1-1-1.6-1.8-.5-.7-.6-1.8-1.1-2.4-.4-.4-1.1-.4-1.5-.8-.7-.8-.7-1.7-1.3-2.7.4.1 1.2.8 1.6 1.6.6 1.2 1.2 1.1 2.4 2.4.6.7 1.4 1.9 2.2 2.9.8 1 1.9 3.5 2.6 1.2-1.9-.3-2.3-2.3-3.6-3.7-1.1-1.2-2.5-2.2-3.6-3.2-.7-.8-1.1-1.9-1.8-2.5-.1-.1-.5.1-.6 0-.5-.4-.7-1.3-1.3-1.4 0 1.3 2.2 1.5 1.5 3.2zm-19.6-7.5c.7.7 1 1.6 1.6 2.2.5.5 1.3.7 1.7 1.3.1.2.1.8.3.9.4.4 1.4.5 1.8 1 .3.3.2.9.4 1.3.8 1.2 2.8 2.2 4 3.7.7.8 1 1.8 1.6 2.4.3.3.9.5 1.2.8.5.5.8 1.4 1.3 1.9.4.4 1.1.5 1.5.8.1.1.2.6.3.8 1 1.4 4.2 3.7 4.8 4.2-.5-1.6-1.5-2.2-3-3.5-.8-.8-1.9-2.6-2.8-3.4-.7-.6-1.5-1.2-2.2-1.9-.7-.7-1.2-1.7-1.9-2.4-.2-.2-.6-.1-.8-.3-.2-.2-.2-.7-.4-.9-.5-.5-1.2-.7-1.7-1.2-1-1.1-1.8-2.6-2.9-3.8-.1-.2-.6-.2-.9-.5-1.7-1.5-3.3-5.1-5.7-5.3.3.9 1.2 1.2 1.8 1.9zm23.4 1.9c.9.7 1.1 2.2 1.9 3 .7.7 1.4.7 1.8 1.6.4.8.6.8 1.2 1.4.7.8 4.5 6.3 4.2 3 0-.4-1.3-1.6-2.1-2.6-2.7-3.4-6-6.6-9.1-9.4.2 1.4 1.2 2.3 2.1 3zm-14.9-2.9c.3.7 1.1.8.9 1.9-.3 1.3.3 1 1.5 2.2.5.5.7 1.3 1.2 1.8.7.7 1.7 1 2.1 1.8.1.2 0 .6.1.8.2.2.5 0 .8.2.3.2.7 1 1.3 1.6 1 1 2.6 2 3 3.1.3.9.6.6 1.2 1.1.6.5.6 1.2 1.3 1.4-.8-1.4-1.8-2.6-2-4.6-.4.2.4 1.3-.4 1.4-.2-.9-.9-1.4-1.5-2.1-.1-.1-.1-.5-.1-.6-.2-.4-.8-.4-1.1-.7-.4-.5-.3-1.7-1.2-1.6.1.2.5.9.3.9-1.9-3.4-4.7-6-7.4-8.6zm-.6 6.1c-1.5-1.9-3.1-3.6-4.6-5.1 1.2 2 2.7 3.7 4.6 5.1zm1.5 1.8c.7.7 1 1.6 1.8 2.2.5.4 1.2.5 1.7 1 .9.9 1 2.4 2.4 2.7-.3-1.3-1.3-1.8-2.1-2.4-.3-.3-.4-.8-.7-1.1-.6-.7-1.9-1.5-2.5-2.3-.6-.8-.6-1.5-1.6-1.6-.6 1.1.5 1 1 1.5zM47.3 32c.4.1 1.1-.4 1.1-1 0-.8-4.1-4.1-4.3-4 .6.6.8 1.7 1.6 2.1-.1.2-.5.2-.5.6 1.1-.4 1.7 2.2 2.1 2.3z"/><g><path class="st109" d="M44.1 52.5c-.2 0-.4.1-.6.1.3.7-.4.5-.1 1.1-1.4-.4-.8 1.5-1 1.9.1-1.3 1.8-1.6 1.7-3.1z"/><path class="st109" d="M76.4 43.2c-.5.3-1 .8-1.4 1.1-2.1 1.9-3.3 4.1-4.9 5.9-1 1.1-2.6 2.1-3.7 3.4-1.1 1.2-2.3 2.6-3.6 4.1-1.2 1.4-2.6 2.6-4 3.9-2 1.9-3.9 4-5.9 5.9-2 1.8-2.8 3.4-4.8 5.4-1.2 1.2-2.7 2.9-3.4 3.2-2.1.7-2.2-.6-2.9-1.5-.3-.3-1-.7-1.4-1.2-.5-.5-.7-1-1.2-1.5-.7-.8-1.7-1.1-2.4-1.7-1.1-.9-2-2.3-3.1-3.3-2.5-2.3-5.9-4.5-8.2-6.6-3-2.8-5.5-5.3-8.8-7.5-.4-.2-1-.3-1.3-.6-.4-.3-.7-1-1.1-1.4-.5-.4-1.3-.5-1.7-.8-2-1.7-4.9-5.1-6.7-6.4-.5-.4-1.1-.4-1.5-.7.3.2-1.3-.6-1-1.6.1-.2.8-.7 1.2-.6C8.1 41.4 10 43 13 42c3-.9 6.7-1.2 9.3-1.4 4.4-.3 10.4-.5 15.2-.8 2.9-.2 6-1.3 9.3-1.5.3 0 .9.3 1.3.3 1 0 2.1-.5 3.2-.6 2.1-.2 4.6-.1 7-.4 3.2-.4 6.7-1.6 9.5-1.5 1.9.1 4.3.5 6.8.4 2.6-.1 4.6-.5 6.8-.7.4 0 2.8 0 2.8.1.1.2.3 1.3.1 1.6-.4.4-1.5-.1-2.2.2-1.4.5-2.6 2.8-4.1 2.9.8 1.6-.4 1.8-1.6 2.6zm-52.2.5c0-.3.3-.4.2-.8-1.5 0-2.7.1-4.6.4 1.3.9.3 1.9 0 3 1.4-.9 2-3.7 4.4-2.6zm4.9 1.2c1.2.4 2.2-3.1 3.5-1.8.6.6-.2.8-.1 1.7.6-.8 3.5-3.4 2.8-.4 2.8.3 4.8-1.7 6.8-2.9-.9-.6-2.1.1-3.3.2-1.2 0-3.9-.3-5.3 0-.3.1-.7.4-1 .5-.6.1-2.1-.4-2.6.1-.7.5-.3 2-.8 2.6zm-.8-2.3c-1.2-.4-1.6 1.1-1.7 2 .6-.6.9-1.4 1.7-2zm16.4-1.1c-.8.3-2.1.8-1.2 1.6.3-.6 1.1-.9 1.2-1.6zm-26.2 5.1c-1.8.4-1.4 2.5-3.5 2.7 1.3 2.7 4-1 3.5-2.7zm29.9-4.1c-.7-.3-1.4.4-1.8.7.7.8 1.5-.3 1.8-.7zm5.3 2.7c1.2-1.3 3.7-1.7 4-3.7-3-.3-2.6 2.4-4 3.7zM21.6 47c-1.6.7-3.4 3.1-3.5 4.9 1.4-1.4 2.8-2.9 3.5-4.9zm37.6-2.7c1.1-.4 2.1-2 3-2.9-1.2.1-2.4-.3-2.7.6-.3.5.9 1.9-.3 2.3zm-39.1 9.1c0-.5.2-1.4.8-1.8.1-.1.5 0 .6-.1.4-.5.6-1.5 1.2-2.2.2-.2 2.5-1.6 1.2-2.2-1-.5-2 2.6-2.6 3.5-.3.5-2.6 2.4-1.2 2.8zm25.3-3.7c-.9-.2-1 1.2-1.8 1.8-.5.5-.5.3-.8.9-1.3 2.4-4.1 5.3-6.1 7.8-1.2 1.5-3.6 5-.9 5.5-.5-1.1.7-1.4 1.1-2 .6-1 .6-2.5 1.4-3.3.3-.3 1.1-.3 1.3-.7.4-.6-.3-2 1-1.7-.5-1.4 1.2-2.1 1-.9.4-.3.6-.8.3-1.3 0-.4.4 0 .4.3 3.7-4.1 6.8-8.7 10.8-12.7-1 .1-2.8-.1-3.3.6-.1.1 0 1 0 1.1-.2.8-1.5 1.9-2.1 2.7-1.3 1.5-2.2 3.6-3.4 4.7-.9-.6.5-.9.8-1.2.3-.7-.4-1.4.3-1.6zm19.1-8.2c.5 1.2 1.5-.3 2 .6.4.7-.9 1.2-.5 1.8.7.6 1.1-1 1.2-1.1 0-.1.6-.2.6-.2.1-1.3-1.6-1.4-3.3-1.1zm-28.4 7.3c-.4 0-.4-.5-.4-.9-.7.6-1.1 1.6-1.8 2.5-.7.9-1.9 1.6-2.6 2.6-.1.2-.2 1-.4 1.3-.2.4-.7.6-1.1 1.1-.1.1-1.9 3-1.9 3.1 0 .6.7 1 .9 1 .6 0 1.1-1.4 1.7-2.3.8-1.2 1.6-1.7 2.3-2.5.4-.5.4-1.2.8-1.8.5-.8 1.5-1.3 2-2.2.1-.2 0-.6.2-.8.5-.6 1.2-.7 1.7-1.2.9-1 1.2-2.6 2.2-3.3-2.1 0-2.9 2-3.6 3.4zm-5.2 2.3c1.7 0 2.4-2.5 3.4-3.6.2-.2 2.2-2 0-1.4-1 .3-2.4 3.9-3.4 5zm-1.3-3.7c-.9-.2-1.4 1.2-1.7 2-.4 1-1.9 1.8-2.7 3.1-.8 1.1-1.8 3-1.7 3.4.1.2.7.3 1 .5.7.4 1 1.3 1.6 1.2-.3 0 1.3-1.1 1.4-1.3.1-.1-.1-.5-.1-.6.2-1.8 2.1-3.2 2.4-4.7-1 .7-1.6 2.4-2.3 3.5-1.5 2.5-2.7.2-1.4-1.8.1-.2.7-.4.9-.6.3-.3.3-.9.6-1.3.6-1.2 1.6-2.2 2-3.4zm13.5-1.5c-1.5 0-2.2 2.6-3.6 3.2-.4.2-.7-.4-1-.3-.5.1-.5 1.1-1.5 1.6-.7.4-.5 0-.8.7-.3.8-1.1 1.3-1.7 2.1-.7.9-1.1 2.3-1.7 3.1-.6.7-2.8 3.7-2.7 4.3.2.8.9.9 1.3.1s1.2-1.5 1.6-2.1c.6-.8.8-1.9 1.2-2.4.6-.7 1.3-.9 1.6-1.6.2-.5 1.2-1.3 1.6-2 .5-.9 1.6-2.5 2.5-3.5 1-1 2.3-1.9 3.2-3.2zm-17.8 3c-1.2.4-2.4 3.6-3.4 4.6-.5.5-.7 0-.7.4-.1.5.6 1.1 1.1 1.1.1-2.7 2.9-3.4 3-6.1zm20.6 4.9c-.6.2-.7 1.1-1.2 1.6-.1.1-.5 0-.6.1-.6.7-.8 1.9-1.5 2.7-.9 1.2-2.2 2.3-3.2 3.6-1.1 1.5-1.3 3.6-3.2 4.1.9 2.2 1.8-.4 2.4-1.5.7-1.1 1.4-2.4 1.9-3.1 1-1.4 1.6-1.4 2.1-2.7.3-.9 1-1.6 1.5-1.8-.5 1-.4 1.9-1 2.8-.4.5-1.1.5-1.4 1-.5.6-.4 1.8-.9 2.5-.5.8-1.4 1-1.4 1.9 1.3.1 1.5-1.9 2.3-2.5.2-.2.6-.1.7-.3.3-.5.3-1.2.5-1.6.4-.6 1.1-.9 1.7-1.5.9-1 1.3-2.4 2.2-3.4 2.3-2.9 4.5-5.8 6.5-8.8-1 .9-2.4 1.4-3.4 2.4-.7.6-.5 1.4-1.7 1.2.8 1 0 1.7-.6 1.3.1.7.1.8-.4 1.5-.4 0-.2-.7-.3-1-.9.4-.4 1-.4 1.8 0 1.1-.7.6-1.3 1.6-.2.4.1 1.2-.5 1.6-.9-1.6 1.3-2.1 1.2-3.5zm18.9-8.1c-2.3.5-3.6 4.2-5.1 5.9-.2.3-.7.4-.9.6-1 1.4-1.6 2.9-2.5 4.1-.4.5-1.1.8-1.5 1.3-.2.2-.2.7-.3 1-.1.2-.5.2-.7.4-.6.7-1.1 1.8-1.7 2.6-.6.9-1.4 1.5-2 2.2-.8.9-1.7 2.8-2.4 3.6-1.3 1.4-2.3 2.1-2.6 3.8.5-.5 3.5-3.3 4.3-4.7.1-.2.1-.7.2-.8.3-.4 1.1-.6 1.4-1 .5-.5.6-1.4 1.1-2 .3-.4.8-.6 1.1-.9.6-.7.8-1.6 1.3-2.5 1.1-1.6 3-2.8 3.6-4.1.2-.4 0-.9.3-1.3.4-.5 1.3-.7 1.7-1.2.2-.2 0-.7.2-1 .3-.6 1.1-.9 1.5-1.5.5-.7.8-1.7 1.4-2.4.7-.7 1.5-1.2 1.6-2.1zM42 49.1c-2.8 3-5.7 6.6-8 10.3-.7 1.1-1.8 2.3-1.8 2.8.1 3.4 3.3-2.5 3.9-3.4.5-.7.8-.8 1-1.6.3-.9 1-1 1.6-1.8.7-.9.8-2.4 1.6-3.2.8-.9 1.7-1.8 1.7-3.1zm6.4 7.9c-.2 0 .1-.7.2-1-.9 0-.6 1.1-1 1.7-.2.3-.8.4-1 .8-.1.1 0 .5-.1.6-.5.7-1.1 1.3-1.2 2.2-.8.1 0-1.2-.5-1.3 0 2-.8 3.3-1.5 4.8.7-.3.6-1 1.2-1.6.5-.6.8-.3 1.1-1.3.3-1.1 1.7-2.2 2.6-3.4.5-.7.8-1.5 1.2-1.7.2-.2.6 0 .7-.3.1-.2 0-.6 0-.8.3-.8 1.3-1.2 1.9-2 .4-.5.5-1.3 1-1.9 1-1.3 1.7-1.1 1.2-2.4-.4-1 .5-1.2.6-2-2.4 3.2-4.9 6-6.4 9.6zM60 48.1c-1.3 1.7-2.7 3.6-4 5.6 1.7-1.6 3.1-3.4 4-5.6zm-4.2 6c-1 .2-.9.9-1.5 1.8s-1.7 1.8-2.3 2.5c-.3.4-.3.9-.6 1.2-.7.7-1.7 1.3-1.8 2.6 1.3-.5 1.3-1.9 2.1-3 .4-.5 1.1-.7 1.5-1.2.7-.7.9-1.7 1.5-2.4.4-.5 1.5-.5 1.1-1.5zM42.1 66.4c0-.4-.4-.3-.5-.5.8-.5.8-1.6 1.4-2.2-.2-.1-4 3.6-3.9 4.5.1.6.8 1.1 1.2.9.3-.2.6-2.8 1.8-2.7z"/></g><g><path class="st109" d="M81.4 77.3c.7.3 1.4-.8 2 .1 1.1 1.6-4.6 2.9-4.3 4.9-1.6-.6-1.6.7-2.6 1.4-.4.3-1 .3-1.2.5-1.1.8-2.1 1.9-3.2 2.9-2.7 2.5-5.3 4.8-8 7.8-.8.9-1.4 1.8-2.3 2.6-4.2 4.1-9.6 8-13.6 12.4-.6.7-1.2 1.3-1.6 2.1-.3.7-.1 1.6-.8 1.8-1.1.4-2.1-1.8-3.1-2-1.1-.2-1.1 1.1-2.1.3 1.2-2.2-.7-2.4-2.1-3.7-.9-.8-1.6-1.9-2.6-2.8-1.9-1.7-3.8-3.5-5.7-5.3-1-1-2.1-1.7-3.1-2.5-.4-.4-1-1.5-1.6-2.1-1-1-2.3-2-3.4-3-2.2-2-4.4-4.1-6.7-6.2-1.1-1-2-2.3-3.1-3.2-.8-.7-2-1-2.8-1.6-.7-.5-1-1.3-1.6-1.8-.9-.6-1.8-.5-2-1.1-.4-1 .7-2.5 1.3-2.7 1.4-.5 4.3.3 5.9.4 9.9.7 20.9-.2 32.1-.2 3.6 0 7.2.2 10.5-.1 4.6-.3 9.1-1.3 14.7-1.1 2.3.1 5 .4 7.1.6 2 .3 4.6-.3 3.9 1.6zm-5 .7c-.2-1.3-.3-.8-1.7-.9-2.8-.2-8.8-.7-11.4-.1-.1 1.1 1.7 1.8 2.6 2.5-.7-1.9 1.2-2.1 2.1-1.1 1.3-1.6 3.1.7 4.4 1.2-1.1-4.2 3.7-1.1 4.7.2.4-.6-.6-1.2-.7-1.8zm3.4.6c-.1-.3-1.5-.5-1.8-.9-.7 2.3 2.2 2.4 1.8.9zm-18 0c1-.8-.5-2.1-1.5-1.3 0 .6 1.1 1.6 1.5 1.3zm-27.9.3c.6-.3 3.4 1.1 3.7 1.3.1.1.2.8.3.9.7.4 2.3.1 2.4.6-.4-.4-1.2-1-.8-1.7.7-1.3 3.3 1.2 3.5 1.3.2.2.7.1 1 .2 1.1.6 2.9 2 3.8 2.7 1 .8 1.5 2.1 2.3 1.5-1.5-.7-1.8-1.7-2.8-2.8-.9-1-3.8-3.1-3.2-3.9.9-1.2 2.1.9 2.7 1.3.5.4 1.3.5 1.7.7.5.4.4 1.6 1.3 1.2 0-1-1.7-1-1.3-2.1.6-1.4 2.7.3 3.7.8-.3-.7-1.7-2-.6-2.6 1.4-.8 3.6 2.7 5 2.6 0-.9-1.6-1.7-2.1-2.5-.3-.4 0-.7-.3-.9-1.2-.3-4.5.5-6.5.5-5.6 0-12.7-.6-17.9.3 1 .8 2.4 1.2 3.5 1.8.3-.4.1-.9.6-1.2zm43.2 2.5c-1-.9-1.8-2-3.3-2.3.1 1.9 1.7 3.5 3.3 2.3zM62 81.3c.6.4 1.3 1.5 1.8 1.9.5.4 1.3.6 1.7.9.1.1 0 .5.1.7.6.8 3.5 2.9 3.6 2.9.7-.3.1-.7-.1-1-2.2-3.3-6.4-5.9-9.2-7.9.3 1.2 1.3 1.9 2.1 2.5zm-37.5-.9c.7-.1-.9-.9-.6-1.4 1.1-1.7 5.4 2.6 6.2 2-.5-.8-2-1.2-2.5-2-.1-.2-.1-.8-.3-.9-1.3-.7-4.6.3-6.5.2 1.1.9 2.6 1.3 3.7 2.1zm49.7 2.9c.2-1.6-2.3-2.1-3.1-3.4.7 1.5 2.1 2.2 3.1 3.4zm-43.8 6c-.2.3-2.1-1.2-2.5-1.5-.5-.3-1.1-1.4-2-2.1-.7-.5-1.6-.7-2.2-1.1-.4-.3-.4-.9-.8-1.2-.6-.5-1.6-.5-2.2-.9-.2-.2-.2-.8-.5-1-.3-.2-.9-.2-1.2-.4-.2-.1-.1-.5-.3-.7-.3-.3-.9-.2-1.5-.6-1.8-1-2.5-2.3-4.7-1.7 2.3 1.8 5 3.3 7.3 4.9 1.5 1 3.2 1.8 4.6 2.9 1.9 1.5 3.8 3.1 5.9 4.3.4-1.3.3-2.2-1.3-2.6-.2.5 1.8 1 1.4 1.7zm30.3-5.5c.2.3.3 1.1.6 1.4.1.1.8-.1 1 0 .4.3.6 1.6 1.3 2.1.3.2 1 .3 1.3.6 1.1.9 1 1.9 1.8 1.8 2.5-.2-1.2-2.8-1.7-3.5-.7-.9-.6-.6-1.3-1.1-2-1.3-3.8-4.6-6.2-5.4.6 1.5 2.2 2.5 3.2 4.1zm11.2 1.3c1.9-1.1-2.2-3.7-3-4.5 0-.2-.3-.2-.3 0 .7 1.8 3.1 2.1 3.3 4.5zm-3.7-1.7c1.1 1 1.7 3 3 2.3-1.3-1.6-3.5-4.6-5.9-5.2.2 1.4 2.2 2.3 2.9 2.9zm-55.8-2.1c.6-2.1-1.6-2.3-3.1-2.8.6 1.3 2.1 1.8 3.1 2.8zm19.9.1c.6.6.6 1.8 1.3 2.3.3.2 1 0 1.4.2.6.4.9 1.4 1.4 1.9 1.3 1.1 2.4 1.5 3.8 2.5.8.6 2.1 1.5 2.5 2 .1.2.1.7.3.9.3.2.7 0 1 .2.8.5 1.6 1.8 2.4 2.5 1.5 1.3 3.1 2.2 4.3 3.4.8.8 1 2.2 2.5 2-2.8-3.7-6.3-6.9-9.8-9.9-.9-.8-1.6-1.8-2.4-2.5-.9-.7-2.2-1.1-3.2-1.8-1.5-1.1-2.7-2.6-4.1-3.6-1-.7-2.1-1.1-3.2-1.8-.1-.1-.3 0-.3 0 0 1.1 1.2.9 2.1 1.7zm25.3 3.8c.3.5.5 1.3.9 1.7.1.1.7-.1.8 0 .6.3 1.2 2 2.3 3 .8.8 2.3 1.2 1.6 2.1 2.9-.8 1.3-2.1 0-3.4-1.3-1.2-3.9-4.3-5.4-5.3-.4-.3-1-.1-1.3-.4-1.1-.7-.9-1.7-2.1-1.6.8 1.4 2.2 2.4 3.2 3.9zm-27.2-.8c.3.2.9.3 1.3.6.5.4.9 1.3 1.5 1.8.8.6 1.9.9 2.8 1.6.8.6 1.3 1.6 2.1 2.3 2.4 2 5.1 4.2 7.2 6.2 1 1 3.9 2.4 4.6 3.2.6.6-.2.5.5.7.4.1.8.2 1-.3-7.8-7.2-15.1-14.8-25-20.1 1.4 1.2 2.5 2.9 4 4zm19.9 7.8c-3.9-4.3-9.1-8.7-14-11.1 0 1.2.8.5 1.3.9.2.2.3.9.5 1 .8.8 2.6 1.9 3.8 3 .3.3.4.9.8 1.2.4.4 1.1.6 1.3.9.3.4 0 .6.3.9 1.1.9 2.6.9 2.4 2.6.1-.3.1-.7.5-.7 2.4 2 4.6 5 7.2 6.2-.1-2.3-2.6-3.3-4.1-4.9zm-8.9-10.6c.4.7 2.4 2.6 3.3 3.2.5.3.8 1.1 1.1 1.4.4.3.8.1 1.2.4.6.4 2 1.7 2.5 2.3.5.7.4.6 1.1 1.1.7.5 2 1.7 2.6 2.3.4.4 2.2 3.4 3.1 3 .7-.3-.4-2-.3-1.9-.5-.8-2.1-2.4-2.8-3-1-1-2.6-1.7-3.3-2.5-.2-.2.1-.5-.1-.7-.3-.3-1-.3-1.3-.6-.7-.5-1.1-1.5-1.8-1.9-1.8-1.3-3.8-2.5-5.6-3.3.1.1.3.2.3.2zm11.8 3.7c1.4-.2 1 .7 1.6 1.4.9.9 1.1.8 1.6 1.6 1.6 2.2 5.1 3.4 5.1 4.6 0 1-1.4.9-1.9.8.1 1-.5 1.1-.7 1.7 1.6-.8 3.1-1.9 4.2-3.2-1.2.4-2.9-1.6-3.8-2.9-.6-.9-.7-.8-1.5-1.4-.9-.7-1.4-2-2.3-2.8-.4-.4-1.2-.5-1.7-.9-.9-.8-1.4-2.1-2.6-1.8.8.9 2.1 1.3 2 2.9zm-2.7-.1c.3.3 0 .8.1 1 .3.5 1.2.4.8 1.1 3.2.7 4 5.6 7.8 5.8-.8-1.7-2.6-2.7-4.1-4.1-.8-.8-1.8-2.3-2.4-3-.5-.5-1.5-.6-2-1.1-.7-.6-.9-2.2-2.3-2-.1 1.4 1.4 1.6 2.1 2.3zm-16.2 4.1c-1.2-2.1-4.4-3.8-6.7-5.4 2.1 1.9 4.1 3.9 6.7 5.4zm2 12.9c-.7-.9-1.5-2.2-2.6-3-.4-.3-1-.3-1.3-.6-.9-.9-1.2-2.2-2.4-3-.1-.1-.5.1-.7 0-.4-.4-.5-1.2-1-1.6-.6-.6-1.5-.6-2-1.3-.8-1.2-1.7-1.4-3-2.5-1.2-1-2.3-2.4-3.4-3.4-.8-.6-3.1-2.5-3.6-2.4 6 6.6 12.7 12.5 20 17.8zM23.5 88.7c.2.3.2.8.5 1 .2.2.6 0 .8.2.3.2.2.6.5.9.3.3 1 .3 1.3.6 1.2 1 2.3 2.5 3.4 3.5.1.1.5-.1.7 0 1.1.7 1.7 2 2.6 2.8 1.1 1 2.8 1.9 3.6 3 .5.7.6.5 1.3 1.1.2.2 0 .5.3.9 1 1.4 5.9 4.5 2.8 5.6 1.2 2.3 2.9-.7 3.3-1.7-1.4.6-1.4-.4-1.8-.9-3.7-4.6-10.3-9.4-14.7-13.9-1.9-1.9-4.7-2.6-5.9-4.7-.4.9.9 1.2 1.3 1.6zm8.3 4.4c-.4-.9-1.2-1.3-2-1.8.3 1 .9 1.7 2 1.8zm24.9 5.1c-.4.4-.5 1.3-.9 1.8-.7.8-2.2 1.1-2.3 2.3 2.7-2.2 5.6-4.1 7.4-7.2-1.3 1.2-3.2 1.9-4.2 3.1zM44 101.5c.6.7 2.2 2.8 2.8 2.8.2 0 .7-.6.7-.5 0-.1-2.4-2.9-2.8-3.3-.6-.7-1.8-1.2-2.6-2-1.2-1.1-2.1-2.8-3.1-2.5 1.9 1.4 3.4 3.7 5 5.5zm-5.5-2.6l-3-2.7c.1 1 2 2.5 3 2.7z"/></g></svg>