<svg version="1.1" id="Layer_1" xmlns="http://www.w3.org/2000/svg" x="0" y="0" viewBox="0 0 102.8 231.1" xml:space="preserve"><style>.st446{fill-rule:evenodd;clip-rule:evenodd;fill:#00a59b}</style><path class="st446" d="M0 95.3c0 .3.3.2.4.3v-.4c-.2 0-.3 0-.4.1zM1 92.7v.3c.3-.1.2.2.5.1 0-.5-.1-.5-.5-.4zM1.9 93c.3.3.1.7.1 1.1.2 0 .4.1.5.2.1 0 .1-.3.1-.4-.1-.1-.1-.1-.3-.1.1-.5.1-.8-.4-.8zM3 94.4c-.2 0-.1.5.1.3v-.2c-.1 0-.1-.1-.1-.1zM3.6 85.8c.2 0 .2.1.3.1-.2-.2 0-.3 0-.6-.2 0-.3.1-.3.5zM3.8 88.4c0 .2 0 .3.2.3v-.3h-.2zM4.5 85.2c-.2 0-.1.5.2.3 0 .3 0 .7.3.6 0-.2-.1-.2-.1-.4 0-.3.3-.1.3-.4-.3-.2-.5.2-.7-.1zM4.9 82.8c.2.1.4.2.8.2.1-.2.1-.8 0-1-.2.1-.3 0-.4 0 0 0 0 .1-.1.1s-.1 0-.1-.1c-.2.2-.1.6-.2.8zM5.9 82.8s-.2.2-.1.3c.1.1.3-.4.1-.3zM7.7 74.5c0 .2.1.2.1.3.1 0 .1-.1.2-.1v-.2h-.3zM13.4 56.7c.1.2.1.3.3.3 0-.3-.2-.3-.3-.3zM23.8 112.4c0 .3.4.1.3.5.2-.2.4-.5.4-.8h-.2s.1-.3 0-.3c-.2.2-.2.5-.5.6zM25.1 110.4c0 .4.2-.2.1-.3 0-.1-.1.3-.1.3zM29 165.1c0 .1.1.1.1.2.2 0 .1-.5-.1-.2zM30.1 147.2c0 .2 0 .4.3.4 0-.2 0-.5-.3-.4zM30.5 225.4v.2h.2v-.2h-.2zM31.2 110.2c.1 0 .2-.1.2-.3-.1.1-.2.1-.2.3zM31.9 190.8v-.2h-.2v.2h.2zM32.4 219.9c-.1.3.4.3.3 0h-.3zM32.5 201.4c.1.4.1-.3.4-.1 0-.1-.2-.1-.2-.2-.1 0 0 .3-.2.3zM32.7 202.3c.3 0 .5-.7.1-.7-.2.2 0 .4-.1.7zM32.7 202.9c.1 0 .2-.1.2-.3-.2 0-.2.2-.2.3zM32.8 218.6c.3-.3-.3-.4 0 0zM32.9 208.6c0 .3 0 .4.3.4 0-.3 0-.4-.3-.4zM33.1 204.8v.2h.2v-.2h-.2zM33.1 227.4c0 .1.1.1.1.2.2 0 .1-.5-.1-.2zM34.2 6.6v.2h.2v-.2h-.2zM35.1 225.2c0 .2.1.4.2.6.2 0 .2-.3.4-.3 0-.2-.1-.1-.3-.2-.1-.1-.2-.3-.3-.1zM39.2 223.2c.2-.1.2-.3.3-.5-.3 0-.2.3-.3.5zM39.9 225.4c.1-.1.1-.2.3-.2v-.2c-.1 0-.1 0-.1-.1-.2 0-.2.2-.2.5zM40 1.6v.2h.2v-.2H40zM40.2 220.2v.2c.2.1 0-.7 0-.2zM43.5.8c0 .3.1.4.3.4.2-.2 0-.4-.3-.4zM44.4.9c.3-.2 0-.5.2-.9-.4 0-.2.6-.2.9zM47.4 3.6v.2h.2v-.2h-.2zM53.3 3.5c.2 0 .3-.1.3-.4-.2 0-.3.1-.3.4zM55.3 229.7c.3-.1.1-.3.1-.5-.3.1-.1.3-.1.5z"/><circle class="st446" cx="56.1" cy="224.6" r=".1"/><path class="st446" d="M57.1 229.1c0-.3-.1-.6-.4-.6-.3.3 0 .6.4.6zM56.6 225.6c.2 0 .3 0 .3-.2.3-.1.1.4.4.2-.1 0 0-.3-.1-.4-.1-.2-.4.1-.4-.3-.1.1-.1.4-.2.7zM56.9 224.4c-.2 0 0 .4.2.3 0-.3-.2-.2-.2-.3zM58.4 227.2c.3-.1.1.3.3.2 0-.2.1-.7.3-.4.3-.1-.1-.2 0-.4 0 .1-.2 0-.3.1l-.1.2s-.2-.2-.3 0c-.1 0-.8-.2-1 0v.3c-.2 0-.2-.1-.2-.3-.1 0-.2.1-.3.2.2.2.3.5.6.5.1 0 .1.2.1.3.1-.2.3.1.5 0v-.3c.1-.1.4.2.4 0 .3-.3-.1 0 0-.4zM57.1 228.2c-.2 0-.1.5.1.3v-.2l-.1-.1zM57.2 228.8c.1.5.5-.1 0 0zM57.8 225.2c-.1-.1-.1-.3-.1-.5l.2-.2c.1-.1.3-.3.3-.6s-.1-.4-.3-.4c.1.5-.1 1-.4 1.2 0 .2.1.4.3.5z"/><path class="st446" d="M57.6 226.5c.1 0 .1.2.3.2.2.1.2-.2.3-.2h.7c0-.2.2-.3.1-.5-.1.1-.3 0-.3.3-.1.1-.1-.1-.2-.1s-.1.1-.2.1-.4-.2-.5 0c-.1 0-.1-.3-.1-.4-.1.1-.1.4-.1.6zM57.9 225.1c0 .2.1.2.2.2 0-.2.4.1.6 0 .1-.3-.1-.5-.2-.6-.1-.1-.1-.4-.3-.3-.2.1 0 .7-.3.7zM58 228.8c.1.2.3.1.4.2 0-.4.1 0 .3-.1 0-.2-.2-.1-.2-.3-.2.2-.3.1-.5.2zM58.2 223c-.2 0-.1.5.1.3v-.2s-.1 0-.1-.1z"/><path class="st446" d="M58.2 226c.2 0 .3-.2.4-.2 0-.4-.5-.2-.4.2zM58.7 227.6c0 .1.1.2.3.2 0-.1-.1-.2-.3-.2zM58.9 8c-.1 0-.2.7.1.5 0-.2 0-.4-.1-.5zM60.6 226.5c.2 0 .2.1.3.1 0 .3-.2.3 0 .5-.2-.1-.2.2-.3.2 0-.2-.2 0-.3-.1-.1-.1-.1-.4-.3-.3 0 .2 0 .4-.2.4-.1-.1 0-.4-.3-.3 0-.5.1-.6 0-1 .1-.1.3 0 .3-.3-.3.1-.1-.3-.3-.3-.1 0-.2 0-.2-.2.2 0 .3.2.3-.1.1-.3-.2-.2-.3-.4.3-.2.1-.3.2-.7-.1 0-.2 0-.2-.2.3.1.3-.2.3-.5.3 0 .4.2.6.3.3 0 .3.3.6.3 0 .2.1.3.1.6-.3.2 0-.4-.3-.4-.4.3-.3-.3-.7-.3 0 .1-.1.1-.1.3.1 0 .2-.2.3 0 0 .1.1 0 .1.1.1.2.2.3.3.5 0 .1.1.1.1.3h-.2c-.1 0 0-.1-.1-.2s-.3-.1-.3-.2c-.1-.1 0-.3-.1-.3 0 .1-.1.2-.2.3.1.2.2.5.3.7-.1 0-.2 0-.2.1.1.1.1.3.3.3.1.3-.2.2-.2.5.1 0 .3 0 .3.1 0-.2-.2-.1-.2-.4.5 0 .3.6.6.6zm-.8-.2c-.1.3.1.3.2.4 0 .1 0-.5-.2-.4zM60 222.1c-.2 0-.1.6.2.4-.1-.2-.1-.3-.2-.4zM60.7 230.9v.2h.2v-.2h-.2zM61 224.8c0 .1.2.1.2 0 0-.3.4-.1.3-.5-.3-.1-.3.2-.4.2-.1.1.1.2-.1.3zM61.1 226.3c-.2.1 0 .6.2.5.1-.3-.1-.3-.2-.5zM61.4 221.3c-.1 0-.1.2-.1.3h.3c-.1-.2-.2-.2-.2-.3zM61.5 224.7c-.1.3 0 .4.3.3-.2-.1-.1-.4-.3-.3zM61.8 222.4v-.4c-.3-.1-.3.5 0 .4z"/><path class="st446" d="M61.8 221.5h-.2c-.1.5.5.2.2 0zM62.2 224.9c.1.1.2-.1.3-.1.1 0 .2.1.2.1.1 0 .1-.3.3-.2-.1-.3.1-.4.2-.6 0-.2-.2-.4 0-.6-.2-.4-.2.3-.4.2-.4-.2.1-.3 0-.7-.3-.1-.3.1-.4.2 0 .3 0 .6.2.6l-.2.2c-.2.2-.2.5-.2.9z"/><path class="st446" d="M63.1 224.4c0 .1.1.2.1.3.2-.1.2-.2.1-.3h-.2zM63.7 224.8c.1.3.2-.3.5-.1 0-.2-.1-.3-.2-.4-.2 0-.1.3-.3.5zM64 226.4v.2h.2v-.2H64zM64.4 227.3c.2 0 .1-.3.1-.2.1-.2.2-.2.3-.5-.4-.1-.4.4-.4.7zM64.9 226.6c.1.2.2 0 .3 0-.1-.2-.2 0-.3 0zM65.1 219.6c.3 0 .3-.4.3-.6-.4-.1-.4.3-.3.6zM65.1 225.4c.3-.3.5.2.3.4.2.3.4-.2.5-.2.1-.2-.2-.1-.3-.3 0-.1-.1-.1-.2-.1-.2-.1-.1-.2-.3-.5-.2 0-.1.3 0 .4.1.1 0 .1 0 .3zM65.3 226.5v.2c.1 0 .1-.1.3-.1v-.2c-.2 0-.2.1-.3.1zM65.5 149.4v.3c.2-.1.2.1.4.1 0-.2-.1-.2-.3-.2.1-.1 0-.2-.1-.2zM65.7 226v.2h.2v-.2h-.2zM66.2 143.5v.2h.2v-.2h-.2zM66.2 146.1h.3c-.2-.2 0-.3 0-.5-.3 0-.2.4-.3.5zM66.5 163.8c0-.3-.1-.4-.2-.6-.2.1 0 .7.2.6zM66.3 125.1v.2h.2v-.2h-.2zM66.7 131.8c.1.3.3.4.3.7.3-.2.1-.4.2-.9-.3 0-.2.3-.5.2zM67.2 121.5c0-.3-.2-.5-.2-.8-.2-.1-.4.3-.2.4.2.2.1.5.4.4zM67 122.9c.1-.1.2-.1.3-.2.2 0 .2.3.2.6.3 0 .4-.2.4.2.4-.1-.1-.3 0-.7-.1 0-.2.1-.2.2-.2-.1.1-.3 0-.5-.4 0-.4-.5-.8-.5-.1.1 0 .6.1.9zM66.8 214.9c.1.2.1.6.1.9.4-.1.1-.5.3-.9h-.4zM66.9 118.7c0 .2.4-.1.3.3.3.1.2-.4.5-.3 0-.3-.2-.3-.4-.3 0 .5-.3 0-.4.3zM66.9 180.9c.1-.1.2-.2.2-.4.4.1.5-.2.8 0 .1-.3-.1-.4-.1-.6-.4 0-.4.5-.8.5-.1.2-.1.4-.1.5zM67 216c-.2 0-.1.5.1.3v-.2c-.1 0-.1 0-.1-.1zM66.9 217.7c.2 0 .2.2.3 0 .2 0 .1.5.4.4.1-.5-.3-.4-.3-.7-.1 0-.1.1-.3.1.1 0 0-.3.1-.3s.2.1.3 0c.1-.1-.1-.3.3-.1.1-.3-.1-.3-.1-.5s.2-.1.3-.3c0-.3-.1-.3-.3-.3.1.3-.2.6-.3.3-.2.1.1.4.2.4-.1.1-.3.2-.4.3-.1.3-.2.4-.2.7zM67.2 152.4v-.4c-.3-.1-.3.4 0 .4zM67 159.5c0 .3.2.3.3.3.1-.1.1-.3.1-.5-.3-.1-.2.3-.4.2zM67 160.1c0 .2.1.3.3.3-.1-.2-.2-.3-.3-.3zM67.2 220.8c.4 0-.2-.5.3-.4.1-.3-.1-.4-.3-.4.1.4-.3.3-.2.7.1-.1.2 0 .2.1z"/><path class="st446" d="M67.3 121.4c0-.3-.3-.6-.1-.8.1.1.1.3.3.3-.1-.3.2-.6.3-.3-.1 0-.2.1-.2.3.2 0 .3.1.3.3-.1 0-.2 0-.2.2s.3.1.3.4c-.2 0-.2-.1-.3-.2 0 .1-.1.1-.2.2s-.1.2-.2.2c0-.1-.1-.2-.3-.2.2-.1.3-.3.3-.4zm.2-.3c0 .2 0 .4.1.5.2 0 .2-.6-.1-.5zM67.1 149c0 .3.3 0 .3-.2.3.1.3.4.7.3 0 .3-.1.8.3.7 0-.2-.1-.2-.2-.2 0-.5 0-1-.2-1.2-.4.1-.4 0-.6-.3-.2.2.1.8-.3.9zM67.1 154.9c0 .1.1.2.3.2 0 .2.1.2.2.2-.2-.1-.1-.6-.3-.6-.1.1-.1.2-.2.2zM67.2 163.2c-.1.3.2.2.2.4.2-.1.1-.2.1-.4h-.3zM67.2 220.9v.2h.2v-.2h-.2zM67.3 223.4c-.2 0-.1.5.1.3v-.2c-.1.1-.1 0-.1-.1zM67.3 128.4v.2h.2v-.2h-.2zM67.4 114.5c.1.4.4.5.5.9.2-.2.3.1.4.2.1-.1.1-.2-.1-.2.1-.3-.1-.3-.1-.6-.1 0-.2.1-.2.2-.2 0-.2-.4-.4-.3.1-.1 0-.1-.1-.2zM67.4 126.3v.2h.2v-.2h-.2zM67.4 219.2c.1.3.2-.1.3 0-.1-.1 0-.4-.3-.3.1.1.1.3 0 .3zM67.6 127.1c-.1 0-.1.6.1.3-.1 0-.2-.3-.1-.3zM67.5 165.4v.3c.3-.1.1.3.3.3 0 .2 0 .3.2.3-.1-.4 0-1-.5-.9zM67.5 218.4c0 .1 0 .1.1.1.2.1.2.5.5.4.1-.2-.2-.2-.2-.3 0-.1.2-.5 0-.6-.2.1-.2.4-.4.4zM67.6 131.5c-.2.1.1.5.1.6 0 .2 0 .3.2.3-.1.4.1.6.3.8 0 .3 0 .7.1.9 0 0 .1 0 .1.1s.1.6.3.6c0-.5 0-.9-.3-1 0-.5-.2-.7-.2-1.2-.2 0-.2-.3-.3-.3v-.6c-.1-.1-.2 0-.3-.2zM67.6 146.7v.2h.2v-.2h-.2zM67.6 155.3c.1-.2.4-.5.2-.7-.2 0-.1.4-.2.7zM67.7 118.5c0 .1.1.2.3.2 0-.2-.1-.2-.1-.3-.1 0-.1.1-.2.1zM67.8 172.8s-.1.1-.1.2c.2.2.4-.6.1-.2zM67.8 131.6c.1 0 .1-.1.3-.1.1-.3-.1-.3-.2-.5-.2 0 0 .4-.1.6zM67.9 216.9c-.2.2 0 .7.1.9.2-.1 0-.6.2-.8-.2.2-.3.2-.3-.1zM67.9 216.6c0 .1.1.2.2.3.2-.2.1-.5.1-.7-.3 0-.1.4-.3.4zM68.1 120.6c.2 0 0-.3 0-.4-.1 0-.3.3-.1.3.1 0 .1.1.1.1zM68 124.8c.1.3.5.1.7.1-.1-.2-.5 0-.7-.1zM68.3 180.3c0-.3-.1-.3-.2-.5-.3.1-.1.5.2.5zM68 191.9c-.1.3.1.4.1.6.1.1.1-.7-.1-.6zM68.1 219.2c-.2 0 0 .2 0 .2 0 .2-.1.4 0 .5.1-.1.1-.3.2-.5-.1 0-.2-.1-.2-.2zM68.1 126.2c.3-.3-.3-.4 0 0zM68.1 198.8c.2.1.1-.2.3-.2.1-.3-.1-.3-.1-.5-.3.1-.1.3-.2.7zM68.1 213.9c-.3.3.3.3 0 0zM68.1 117.8c0 .2.1.2.2.2 0-.1 0-.1.1-.1 0-.1-.2 0-.3-.1zM68.2 113.7c0 .3.3.2.3.5.3-.1 0-.6-.3-.5zM68.2 131.5v.2h.2v-.2h-.2zM68.6 141.9c-.1-.4-.1-.8-.2-1.2-.1 0-.2.1-.2.3 0 .1 0 .5.1.6.1.2.1.4.3.3zM68.2 199.5v.4c.3.1.1-.2.2-.4h-.2zM68.3 216.2c.2-.1.4-.7 0-.6.1.3-.2.4 0 .6zM68.2 220.8v.2h.2v-.2h-.2zM68.3 115.2c.1 0 .2-.1.2-.3-.2-.1-.2.1-.2.3zM68.4 121.1c-.3.1.1.4.1.5.1 0 .1-.1.2-.1l.1.1c.2 0 .3-.3.4-.1.2-.2-.1-.6-.3-.5 0 .4-.5.4-.5.1zM68.3 175.2c.1-.1.2-.4.3-.6-.2 0-.3.2-.3.6z"/><path class="st446" d="M68.5 215.6c.2 0 0-.4-.2-.3 0 .1.2.2.2.3zM68.3 220.3c.2 0 .2-.2.3-.4-.3 0-.3.2-.3.4zM69.8 153.4c0-.2.1-.2 0-.3 0 0-.1.1-.2 0-.1-.4.2-.2.2-.5-.1-.3-.2-.5-.3-.7 0-.1-.1-.1-.1-.1-.1-.3-.1-.7-.3-.8 0 .3 0 .5-.2.6 0-.5-.2-.7-.3-1.1.2-.3.4-.5.5-.9-.2-.2-.2-.6-.4-.7-.1 0-.2.1-.3.1-.1-.3.1-.3.1-.5-.2 0 0-.1 0-.2s-.2-.1-.2-.2c0-.2.1-.3.2-.3.2.4.5.6.5 1.1.1-.1.2-.1.3 0 .1.3-.1.4-.1.6.1 0 .1.1.1.2s.1.1.1.1c0 .2-.1.2 0 .3.1.1 0 .3 0 .4.3.3.3 1.1.6 1.4 0 .2-.1.4-.1.7.2.3.1.7.1.9 0 0 .1.1.1.2l-.2.1c.2-.3 0-.3-.1-.4zm-.4-2.9c-.1-.1-.1-.4-.1-.6-.2 0-.2.6.1.6zM68.4 219.3c0 .2 0 .3.2.3v-.3h-.2zM68.6 170.2c-.1 0-.1.6.1.4 0-.2-.1-.2-.1-.4zM68.6 140.5c0 .3.1.3.2.5.1-.1 0-.6-.2-.5zM68.7 114.5c.2.2.2.5.6.5-.1-.2-.1-.4-.1-.7 0-.4.3-.9-.2-1 .1.5 0 .8-.1 1.3-.1 0-.1-.1-.2-.1zM68.7 143c-.2 0 0 .5.2.4 0-.2-.1-.3-.2-.4z"/><path class="st446" d="M68.7 151.5c.1 0 .2-.2.2-.4-.3-.1-.2.2-.2.4zM68.7 173.8c0 .4.2 0 .3.2.1 0 .1 0 .1-.1v-.2c-.2.1-.3.1-.4.1zM68.7 222c0 .2.1.2.1.3.1 0 .1-.5-.1-.3zM68.8 127.6c-.2 0 0 .5.2.4.1-.3-.2-.2-.2-.4zM68.7 149.6v.2h.2v-.2h-.2zM68.7 159.7c0 .2.1.3.1.4.3 0 .2-.5-.1-.4zM68.8 181.2c-.3.3.1.7.2 1 .2-.1 0-.6.2-.8-.1-.1-.4 0-.4-.2zM68.8 125.7c.1 0 .2-.2.2-.4-.2 0-.2.1-.2.4zM68.8 137.4c0 .2.1.2.3.2 0-.1-.1-.1-.1-.2h-.2zM69 146.2c.2-.1 0-.5-.2-.4 0 .3.2.2.2.4zM68.8 175.7v.2c.2 0 .2-.1.2-.3-.1 0-.1.1-.2.1zM68.9 117.8c-.1.4.5 0 .4.4.3-.1-.2-.7-.4-.4zM68.9 128.1c0 .2.1.4.1.7.3 0 .2-.7-.1-.7zM68.9 145c0 .1.2.2.2.3.2 0 0-.4-.2-.3zM69.2 177.3c-.2-.2.1-.4 0-.7-.3-.1-.4.9 0 .7zM68.9 191.8c0 .2.1.3.3.3-.1-.1-.1-.3-.3-.3zM68.9 213.2c.1.1 0 .4.3.3-.1 0-.1-.3-.3-.3zM69 125.7c.1.2.2.4.4.3 0-.2-.2-.3-.4-.3zM69 134v.2h.2v-.2H69zM69 153.1c0 .4.4.3.3.7.3-.2-.1-.5-.1-.6 0-.1-.1 0-.2-.1zM69.1 170.2c.1 0 .2-.2.2-.4-.3 0-.4.3-.2.4zM69 178c0 .2.1.5.1.8.1-.1.3-.8-.1-.8zM69 179.6c0 .2.1.2.1.3.1 0 .1-.5-.1-.3zM69.1 198c-.3.3.2.7 0 0zM69.3 214.2c-.1-.1-.1-.3-.1-.5-.2.1-.3.6.1.5zM69.1 221.3c.2 0 .2-.3.3-.5-.4 0-.4.2-.3.5zM69.2 112.9c-.2 0 0 .4.2.3-.1-.1-.2-.2-.2-.3zM69.2 148.5c.2.1.3-.6 0-.5-.2.2 0 .3 0 .5zM69.1 171.1c0 .2 0 .4.3.4-.1-.1-.1-.4-.3-.4zM69.1 172.4c.2.3-.1.4 0 .8h.3c-.2-.6.2-.9.4-.5.3-.1.3-.5.2-.8-.2 0-.1.4-.3.5-.2 0 0-.4-.1-.5-.2.1-.3.4-.5.5zM69.1 220.3c.1.4.3.1.3-.3-.1 0-.1-.1-.1-.2-.3 0 0 .6-.2.5zM69.4 175.8v-.4l.2-.1c.1-.4 0-.9.3-1 0-.1 0-.3.1-.3 0-.2-.1-.3-.1-.4-.1-.4.3-.4.1-.7-.3 0-.4.4-.3.6-.1.2-.1.5-.3.6 0 .5-.1 1-.3 1.2.1.1.1.5.3.5zM69.2 183.9v.2h.2v-.2h-.2zM69.2 112.4c0 .3 0 .4.3.4 0-.3 0-.4-.3-.4zM69.2 141.1c.1-.1.3 0 .3-.3-.2 0-.3.1-.3.3zM69.3 146c-.2.2 0 .8.3.7 0-.3-.3-.3-.3-.7zM69.2 179.9c-.1.2.1.1.2.2 0 .1 0 .2.1.2v.6c.4-.3.2.3.6.3.1-.2-.1-.2-.2-.3v-.4h-.2c-.1-.2 0-.5-.1-.6h-.4zM69.3 216.7c0 .1.2.1.3.1v-.3c-.1.1-.2.2-.3.2zM69.4 159.4v.4c.1.1.3.1.4.2.2 0 .1.4.3.3 0-.4-.1-.5-.4-.5.1-.3 0-.4-.3-.4zM69.4 187.3v.2h.2v-.2h-.2zM69.5 190c.3-.3-.2-.5 0 0zM69.5 147.7c.1-.1.2-.3.2-.5-.3-.1-.2.3-.2.5zM69.5 154.6c0 .2.1.2.2.2 0-.1 0-.1.1-.1-.1-.1-.2-.1-.3-.1zM69.6 163.3c-.3.1.1.2 0 .4.2 0 0-.3 0-.4zM69.5 165.1c0 .2.1.3.3.3v-.3h-.3zM69.5 217.9c.3 0 .2-.6.3-.8-.2-.1-.1.2-.2.3 0 .1-.2.3-.1.5zM69.6 203.7c.3-.1.5-.3.4-.7-.2-.1-.2.2-.3.3 0 0-.2.1-.1.4zM69.8 167c-.1-.1-.1.5-.1.5.1.1-.1.3.3.3 0-.4 0-.6.1-.8-.2.1-.3.2-.3 0zM69.8 135c-.2.1 0 .6.2.5-.1-.1-.1-.3-.2-.5zM69.9 162.2c.3 0 .2-.4.5-.4 0-.3-.1-.3-.2-.5-.3 0-.2.4-.5.4-.1.4.3.2.2.5zM69.8 171.3c0 .1.1.2.3.2 0-.4-.2-.4-.3-.2zM69.9 170c-.2 0 0 .4-.1.5.2-.1.3-.3.1-.5zM69.9 176.9c-.2.1 0 .6 0 .8.3-.2-.1-.5 0-.8zM69.8 179.6c0 .2 0 .4.1.5.2-.1.3-.6-.1-.5zM69.8 204c.1 0 .2-.1.2-.2.2-.1-.1.5.2.4 0 .3-.4.4-.2.7.3.1.1-.3.3-.3-.1-.3-.1-.3 0-.6 0-.1.2-.1.3-.1v-.4c-.3-.2-.4.5-.4 0-.2.1-.4.2-.4.5zM69.9 154.7c0 .2.4.2.3-.1H70c0 .1 0 .1-.1.1zM70 177.9c-.1 0-.1.6.1.3 0 .1-.1-.3-.1-.3zM69.9 178.9c0 .2 0 .3.2.3v-.3h-.2zM70 183.4c0 .3.1.4.2.6.3-.1 0-.4.1-.8-.1.1-.1.2-.3.2zM70.1 184.3c-.1 0-.1.6 0 .6.4.1.1-.5 0-.6zM70.1 186.7c.3-.2.2-.6.2-1-.3-.1-.1.3-.2.4H70c0 .2 0 .4.1.6zM70.3 215.8c0-.2-.2-.2-.1-.5-.3 0-.2.6.1.5zM70.1 167.9c0 .2.3.1.3.4.2-.1.1-.3.1-.5s.1-.3.1-.5c0-.3-.3-.6-.2-1-.3.2 0 .6-.1 1.1 0 .1-.1.1-.2.1-.1.1.2.3 0 .4zM70.1 170.3c0 .3.1.3.2.5.2 0 0-.6-.2-.5zM70.1 211.1v.2c.2 0 .2-.1.2-.3-.1 0-.1.1-.2.1zM70.1 215.1c0 .1.2.1.2 0 .1.1.1.2.3.2 0-.2 0-.3-.2-.3 0-.1.1-.2.1-.3.1 0 .2 0 .2.1.2-.3-.1-.5-.3-.3-.3.3-.1.4-.3.6zM70.1 216.1v.2h.2v-.2h-.2zM70.5 169.6c0-.3-.1-.3-.2-.5-.3.1-.1.5.2.5zM70.3 172.6c.3-.3-.3-.4 0 0zM70.2 182.1c0 .2.1.3.3.3-.1-.3-.1-.4-.3-.3zM70.3 143.3c-.3.1.1.2 0 .4.3 0 .1-.4 0-.4zM70.3 165.9c.3-.2-.3-.4 0 0zM70.3 136.5c0 .2.1.2.1.3.2 0 .2-.5-.1-.3zM70.3 154.7c-.1.3.1.3.2.4.2-.1.1-.5-.2-.4zM70.4 206.6c.1 0 .2-.1.2-.3-.2-.1-.2.1-.2.3zM70.4 211.2h.3c0-.2.1-.5-.2-.4-.1.1-.1.2-.1.4zM70.5 141v.2c.3 0 0-.8 0-.2zM70.6 161.5c-.1 0-.1.3-.1.3h.1c0 .1-.2.3-.1.5.2.1.1.5.4.4 0-.2 0-.4-.3-.4.2-.3.2-.6 0-.8zM70.6 171.1c-.1 0-.2.6.1.4 0-.2-.1-.2-.1-.4zM70.5 182.4c0 .1.1.2.3.2-.1-.2-.1-.2-.3-.2zM70.5 209.5v.2h.2v-.2h-.2zM70.6 202.6c0 .4 0 .6.3.5.1-.3-.1-.4-.3-.5zM70.8 156.2c-.3.1.1.2 0 .4.2 0 0-.3 0-.4zM70.8 163.5c0 .4.2.6.2 1 .1.1.3-.3.2-.4h-.1c0-.1.1-.2.1-.2-.1-.2-.2-.4-.4-.4zM70.9 147.5c-.1 0-.1.6.1.4.1-.2 0-.3-.1-.4zM70.9 210.1c0 .3.1.5.2.7.1 0 .2-.2.2-.4.2 0 .4 0 .5-.1 0-.1-.2-.1-.3-.1-.2-.1-.1-.2-.3-.3 0-.1.2-.3.2-.1.3-.1-.1-.2 0-.4-.1 0-.2 0-.3-.1-.1 0-.1.2 0 .2 0 .3-.1.2 0 .4-.1 0-.1.1-.2.2zM71 164.7c-.1.1 0 .5 0 .6 0 .2.1.4.2.6v.3l.1.1c0 .1-.1.2-.1.3 0 0 .1 0 .1.1s.1.3.2.5c.2-.2 0-.7-.1-.8.1-.2.1-.4.2-.6-.3-.3-.4-.8-.6-1.1zM71.1 136.3c-.3.3.3.3 0 0zM71.1 203.7v.2h.2v-.2h-.2zM71.2 177.1v.2h.2v-.2h-.2zM71.4 212.4c.2 0 .3-.1.3-.4-.1.1-.3.2-.3.4zM71.6 208.9c-.2 0-.1.5.1.3v-.2c-.1 0-.1 0-.1-.1zM71.7 211c0 .2.1.2.1.3.1 0 .1-.2.2-.2-.1-.1-.2-.1-.3-.1zM72.2 206.6c-.3.1.1.3.1.4.3-.1-.1-.3-.1-.4zM72.1 209.4v.3c.3-.1.1.3.3.2.1-.3 0-.4-.3-.5zM72.3 210.6c.2 0 .4-.2.3-.4-.1 0-.1.2-.2.2s-.1.1-.1.2zM73.3 202.5c-.1-.2.1-.7-.1-.7-.1 0-.1 0-.2.1 0 .2.1.1.1.2.1.2 0 .6.2.4zM73.3 208.6c-.1-.5.1-.1.2-.3 0-.3-.2-.3-.3-.3-.2.1-.2.7.1.6zM73.2 200.4c-.2.3.1.7 0 1.2.1 0 .2-.2.2-.5l-.1-.1c0-.3.2-.4-.1-.6zM73.2 209.8c.1-.1.3-.2.3-.5-.1.2-.3.3-.3.5zM73.4 197.6c-.2 0-.1.5.1.3v-.2c-.1 0-.1 0-.1-.1zM73.7 113.6c0 .2 0 .4.3.4 0-.2 0-.4-.3-.4zM74.2 115.2c.3-.3 0-.6-.1-.9-.4.1 0 .6.1.9zM73.9 189.4c.1.2.5 0 .4-.3-.2 0-.2.2-.4.3zM79.4 114v.2h.2v-.2h-.2zM80.8 114.2c.1.1.4-.1.4.1s.4 0 .7.2c0-.1-.1-.3-.1-.3s-.4.2-.4-.1c0-.2-.4.1-.4-.4-.2.1-.3.3-.2.5zM98.1 97.2c-.2 0 0 .5.2.4.1-.4-.2-.3-.2-.4zM98.4 110.5c0-.2.2-.4 0-.6-.3.1-.4.6 0 .6zM98.3 98.7c.3-.3-.3-.4 0 0zM101.1 107c0 .3.4.1.3.5.1-.1.4-.2.4.1 0 .1-.2.1-.3.1 0 .4 0 .7-.1.9.2.1.1-.2.2-.2 0 0 .2.2.3.1l.1-.2c.1 0 .2.2.3 0 .2.2-.1.3.1.5.3 0 .1-.3.4-.1.1-.7-.3-.7-.3-1.2 0-.1-.2 0-.2 0-.1-.1-.2-.3-.3-.5-.1 0-.1.2-.3.2-.1 0-.1-.1-.1-.2-.1.3-.3-.3-.5 0zM102.6 106.2c0 .2.1.2.1.3.1.1.1-.4-.1-.3z"/><path class="st446" d="M8.9 70.3c.2 0 .2-.1.3-.2-.1-.6.3-.8.2-1.4.4 0 .2-.6.3-.8 0-.1.2-.1.3-.2v-.1c0-.1.2-.2.2-.3.1-.1.4.1.4-.1.2-.2-.1-.3-.2-.6.1-.1.2-.4.1-.5.1-.1.3-.1.4-.3 0-.3-.1-.4-.3-.6-.1 0-.2.4-.3.1.1-.1.3-.2.4-.4.1-.1 0-.3.1-.4.1-.1.2-.1.3-.2-.2-.2 0-.4 0-.6.4.1.3-.2.4-.3.2-.2.4.1.4-.2 0-.2-.2-.1-.2-.3 0-.4.2-.5.3-.8 0-.8.1-1.1 0-1.8.1 0 .1-.2.2-.2.1-.1.2 0 .3-.1.1-.1.2-.4.3-.4.2 0 .2-.2.3-.3 0 0 0 .2.1.1l.2-.3s-.1 0-.1-.1c.1-.1.3 0 .3-.2-.2-.2-.2-.6.1-.7.1.2-.2.4 0 .4.2-.1.2-.6.2-.9.2-.2.4-.4.4-.8.2-.2.3.1.3-.2 0-.3-.3-.1-.3-.4.4-.1.3-.6.5-.9-.2 0-.3-.1-.3-.3.1 0 .2 0 .3.1 0-.3 0-.5.2-.6 0 0 .1.2.1 0 0-.4.1-.5.1-1h.3v-.2c0-.1.2 0 .2-.1 0-.2.1-.3.1-.6.1 0 .1-.1.1-.2.1-.1.3-.2.3-.4.1-.2 0-.1.2-.2l.1-.2c.2-.4.1-.8.1-1.2.4-.1-.1.4.2.4.1-.4.3-.6.3-1-.1 0-.2.2-.3 0 .2-.3.3 0 .4-.3 0-.1-.1-.1-.2-.2.1 0 .1-.2 0-.3.3-.2 0 .4.3.3-.1-.7.5-.7.4-1.3-.1 0-.2 0-.3-.1.1 0 .1-.1.2 0 .1 0 .1.2.2 0-.1-.1-.1-.5.1-.5 0 .2-.1.3 0 .3.2-.1.1-.6 0-.7.2 0 .3-.2.4-.4 0-.3.1-.5.2-.5l.1-.3c0-.1 0-.2.1-.3.1-.1.1-.2.2-.3.1-.2.2-.5.1-.7.2-.1.3-.3.3-.5 0-.1-.2-.4.1-.4 0 .1 0 .2.1.2 0-.3.2-.8 0-1.1.1-.1.2-.1.3-.2.2-.2.1-.3.1-.6.2-.2.3-.6.4-.8 0-.1 0-.2-.1-.3.3.1.2-.2.2-.4.1 0 .2 0 .3-.1.2-.3-.2-.7.2-.8 0 .1 0 .2.1.2 0-.4.2-.5.1-.9-.1 0-.2 0-.2-.1.1 0 .1-.2.2-.2 0 .2 0 .4.2.3v-.2c0-.1.1-.1.1-.1.1-.2.1-.3.2-.4.1-.3.1-.2.2-.4 0-.2-.2-.2-.3-.4.1 0 .3 0 .3-.1 0-.2.1-.4.1-.7.2-.1.3-.3.3-.6.3-.1.1-.4.1-.6.1 0 .1-.1.1-.2.3.1.3-.3.4-.4 0-.1-.1-.1-.1-.3.1-.1.2-.3.3-.3.1-.1 0-.4.2-.4.1 0 0-.3.2-.3-.2-.3 0 0 .1-.2v-.1c0-.2.1-.3.2-.4.1-.2.2-.3.2-.4 0 0-.1 0-.1-.1 0 0 .1-.1.2-.1.1-.2 0-.2.1-.3v-.2h.1v-.2l.3-.3c.1-.2.1-.4.2-.5 0-.1 0-.2.1-.3 0-.1.1-.1.2-.2.1-.2.1-.3.2-.5 0-.1 0-.2.1-.3 0-.1.1-.1.2-.2.1-.3.3-.7.4-1 0-.1 0-.2.1-.3 0-.1.1-.1.2-.2 0-.1 0-.2.1-.3.1-.3.2-.4.3-.7 0-.1 0-.2.1-.3 0-.1.1-.1.2-.2s.1-.4.2-.5c0-.1.1-.1.2-.2s0-.2.1-.3c.1-.2.1-.4.2-.5 0-.1.1-.1.2-.2s0-.2.1-.3c0-.1.1-.1.2-.2.1-.3.1-.4.2-.6 0-.1.1-.1.2-.2.1-.2.1-.4.2-.5 0-.1.1-.1.2-.2 0-.1 0-.2.1-.3.1-.3.3-.7.4-1h.1v-.2c0-.1.1-.1.2-.2.1-.2.1-.4.2-.6 0-.1.1-.1.2-.2 0-.1 0-.2.1-.3 0-.1.1-.1.2-.2 0-.1 0-.2.1-.3.2-.4.3-1 .5-1.2 0-.1.1-.1.2-.2.1-.2.1-.4.2-.6h.1v-.2c0-.1.1-.1.2-.2s0-.2.1-.3c0-.1.1-.1.2-.2 0-.1 0-.2.1-.3 0-.1.1-.1.2-.2.1-.2.1-.5.2-.6l.3-.3c.1-.1 0-.3.1-.4.1-.2.3-.2.3-.4 0-.1.1-.3.2-.3s.2-.4.3-.5h.1V13c.1-.1.3-.2.2-.4.1 0 .2-.3.3-.4.1-.1 0-.2.1-.3 0-.1.2-.1.2-.2 0 0-.2-.2-.1-.3-1.5-1.6-1.5-1.8-1.4-2h.1v-.2c0-.1.1-.1.2-.2.1-.3 0-.1 0-.4h.3c0-.3.3-.3.2-.7.1 0 .1-.3.1-.4l.3-.3V7c.1-.2.2-.2.3-.3 0-.1.1-.2.2-.3.1-.3.1-.3.2-.4 0-.1.1 0 .1-.1.1-.2 0-.2.2-.1 0-.2.2-.5.3-.5.1 0 0-.1.1-.1.3-.2.4-.6.8-.6-.1-.4.3-.1.3-.5.4.1.5-.1.8-.1 0-.3.3-.1.4-.2l.1-.2c.1-.1.3 0 .4-.1.1 0 .1-.2.1-.3.3 0 .5 0 .6-.3.2 0 .2.1.3.1 0-.2.2-.2.3-.3.1.3.2-.1.4 0 .1-.3.3-.3.3-.7.2 0 .2.1.3.2.1.1.1.2.3.3-.1 0-.1.2-.1.4-.3.1-.1-.4-.4-.2 0 .2-.1.2-.1.4.1 0 .1.1.2.1.4 0 .6-.2.9-.3.1 0 .1.2.2.2 0-.2.3-.1.3-.3-.1-.1-.2-.3-.2-.5.1-.2.2-.3.2-.6.3.1.4-.2.7-.1-.4-.6.1-.8.2-.5-.2.2.1.6.2.7.1 0 .1-.2.2-.3.3.2.3-.1.7-.1.1.4-.4.1-.3.5.1-.2.5.1.4-.3.4 0 .3.6.7.6.1-.4-.4-.5-.1-.7 0 .3.2.1.3.2.1.1.1.3.2.3 0-.3-.2-.4.1-.5 0 .3.2.4.5.4 0 .2-.1.3-.1.6-.2-.1-.4-.1-.7-.1-.1.1-.1.4-.1.6.1 0 .2 0 .3.1-.2.1 0 .4-.1.6h-.1c-.1.1-.1.6 0 .4.1-.2.4 0 .4-.2s0-.4.1-.5c.1-.1.2 0 .3-.1 0-.1-.1-.1-.1-.2.3-.1.4-.1.7 0 .1-.3-.1-.3-.1-.5.4-.1-.1.2.2.2.3 0 0-.5.2-.5.2.4.2-.2.4-.1-.2.5.3.3.3.6-.3 0-.5 0-.4.4.1 0 .2-.2.3 0-.2.1 0 .4 0 .6-.1 0-.1.2-.2.3-.2 0-.2-.1-.3-.2-.1.1-.1.4-.1.6-.3-.1-.3.2-.4 0 .1.3-.4.4-.1.6.3-.1-.1-.5.3-.4.1.2-.3.3 0 .4.1 0 0-.3.2-.3.1.1.2.2.3.2.2-.2-.3-.4.1-.6.1.4.2 0 .2-.3.1.2 0-.1.3-.1 0 .1 0 .2.2.2-.1-.3.2-.2.1-.5.1-.3-.2-.2-.2-.4.1 0 .2-.1.3-.2.3-.1.1.3.3.2.2 0 .3-.4.5-.2s-.3.5.1.6c.3.1.1-.3.3-.3 0 .4.3-.1.3.2-.2.3-.4 0-.5.3.3.2.5.5 1 .3.4.6-.1.8-.2 1.4.2 0 .1.3.3.3 0-.2.4-.1.3-.4.2 0 .3 0 .4.1 0-.2.1-.3.2-.3.1.2-.3.3 0 .4.3-.1 0-.5.2-.6.4-.1.3.3.5.4.1-.3.2.1.3 0 0 0 0-.2.1-.2.1.1.2.3.3.4.1-.2.2-.5.4-.5 0 .4.2.5.3.8 0 .2-.2.3-.2.5.3-.1.2.4.4.4 0-.1.1-.1.2-.1 0-.2-.2-.2-.2-.5.1 0 .2-.1.2-.3.2 0 .4 0 .5.1 0 .2-.2.5 0 .6.4.1.3-.3.4-.4.1.3.1.1.3 0 0 .1.1.1.2.2s.1.2.2.2c0-.1.1-.2.2-.3.1.4-.4.4-.1.6.1 0 0-.1.1-.2h.2c.1-.1.1-.2.2-.3.3.1.6-.1.8.3-.1 0-.2.2-.2.4-.5-.2-.4.4-.5.7.1 0 .1.1.3.1 0-.3-.2-.4.1-.5 0 .2.2.2.4.2 0-.2.1-.3.2-.4.2.3-.1.4-.1.6-.1.3-.1.2-.2.4 0 .2-.2.2-.1.5.1 0 .1.2.2.2 0-.5.1.1.3 0 0-.2-.1-.2-.1-.4.2 0 .2.1.3.2.1.1.2 0 .3.1-.1-.2-.2-.3-.2-.7-.2 0-.4-.1-.5-.2.1 0 0-.1.1-.2 0-.1.2 0 .2-.2-.2-.2-.1-.6-.3-.8 0-.1-.3-.4-.3-.4-.1 0 0-.1-.1-.2h-.2v-.3s-.1-.2-.2-.2c-.1-.1-.2-.1-.2-.3.1-.2.1-.4.2-.5.1.3.3.3.5.5.1.1 0 .3.1.4 0 .1.2.1.3.2.1.1 0 .3.1.4.1.2.3.3.3.5 0 .1.1 0 .1.1.1.2.1.3.3.4.1.1.2 0 .3.1-.2.6.1 1.1.5 1.3 0-.2-.3-.4-.1-.5 0 .3.3.2.3.6.3-.1.1.3.3.2 0-.4-.2-.5.2-.6.2.4-.1.5-.1.9.2 0 .3 0 .4-.1 0 .1.1.2.3.2.1.3.3.8.6.5.1.3 0 .3.1.4 0-.1.1-.1.3-.1 0-.3.2-.3.3-.4.1.4 0 .5.1.8.3-.3.2.2.3.3.1 0 .1-.1.2-.2h.2c.1-.1.1-.4.3-.3 0 .1.1.2.1.4.1 0 .2.1.3.2-.2.1-.1.4-.2.5h-.1v.2c0 .1-.2.1-.2.2.1 0 .1.2 0 .3-.1.1 0 .6 0 .6 0 .1-.2.1-.2.2s.1.1.1.2c-.1.1-.3.1-.3.3 0 .2.1.2.1.4-.3 0 0 .3-.2.5.3.1.2.3.3.5l.2.2c.1.2.2.5.2.8.4 0 .3 1.1.7.8v.4h.2c.1.1 0 .4.1.5 0 0 .1.1.2.1v.2c.1.1.3.3.4.2 0 .4.3.3.3.6-.2.1-.2-.5-.3-.2.1.4.4.5.4 1h.3c.1.3.1.2 0 .5.3-.1.2.2.2.4.3 0 .1.3.2.4 0 0 .1.1.2.1.1.1.1.6.2.7h.1v.2c0 .1.2.1.2.2 0 .2.2.2.3.3v.2c.1.1.3.1.2.4.1.1.3.2.3.3.1.1 0 .3.1.5s.4.2.3.5c.1.1.2.2.3.2 0 .6.4.7.4 1.3.2 0 .1.2.2.3.1.1.2.1.3.2v.3c0 .1.2.1.2.2s.1.1.1.1c0 .1-.1.2-.1.2s.1.2.2.2c.2.2.4.3.3.7.3.1.3.6.4.9h.2v.4c0 .1.3.2.2.4.1 0 .1.1.3.1 0 .8.5.9.5 1.8.1 0 .1.1.2.2 0 .1.1.2.2.2.1.2 0 .4.1.5 0 .1.2.1.3.2.1.1 0 .4.1.5 0 .1.2.1.2.2s.1.1.1.1v.3h.1v.2s.1 0 .2.1v.3c0 .1.2.1.3.2v.1c0 .2.2.4.2.7.2-.1.1.2.2.3h.2c.1.1 0 .3.1.4 0 0 .1.1.2.1.2.2-.1.2 0 .4h.1v.2c0 .1.1 0 .2.1s0 .4.1.5c0 .1.2.1.3.2.1.1 0 .3.1.4 0 0 .1 0 .1.1.1.2.2.6.3.7.1.2.2.7.3.7.1.1.1.2.2.3.1.2.2.5.3.6v.2c0 .1.1.1.2.2 0 .1.1.1.1.2s.1.1.2.2c.1.2 0 .4.1.5h.1v.2c0 .1.2.1.1.3.1 0 .2 0 .2.1s.1.1.1.1c.1.2 0 .3.1.4.1.4.4.8.4 1.2.2 0 .2.3.3.3 0 .2 0 .4.2.4v.7c.2 0 .2.3.3.3-.1.2.1.3.2.4.1.3 0 .3.1.5l.2.1c.1.2 0 .5.1.6 0 .1.2.1.3.2.1.1 0 .3.1.4.1.2.3.3.4.4 0 .5.3.6.4 1 .1 0 .1-.1.2-.1-.1.3 0 .5 0 .8.2.1.3.3.3.5.1.1.1.2.2.3.1.2.1.3.2.5 0 0 .1.1.2.1.1.1 0 .2.1.3l.1.1c.1.1.1.2.2.3.1.2.2.5.3.6v.2c.1.1.2.1.3.2v.3l.3.3c-.1.4.2.4.2.8.3.2.5.7.6 1.1h.3c-.1.4.1.4.2.5.1.1 0 .2.1.3.1.2.2.4.3.4 0 .4.1.3 0 .6.2.2.6.5.4.8.1.1.2 0 .3.1.1.1 0 .5.3.3 0 .4.2.6.3.9.1 0 .1-.1.2-.1 0 .2 0 .3.1.4v.2s.1 0 .2.1v.3c0 .1.2.1.3.2v.1c0 .1.1.2.2.3.2.3.5.6.4.9.1 0 .2.1.3.1-.1.4.1.4.1.7.3 0 .2.3.3.5l.2.1v.3c0 .1.2 0 .3.1 0 .5 0 .9.3 1 .1 0 .2-.2.3 0v.5c.3 0 .3.4.3.6.2.1.3.2.4.3-.1.4.2.2.2.4 0 .3.3.6.3.8.2 0 .2.3.3.3 0 .3.2.4.2.7.1 0 .1.1.3.1-.1.6.2.6.3 1 .2-.1.1.2.3.3.1.1.2 0 .3.1.1.1 0 .3.1.4.1.2.2.2.3.3 0 .2.3.4.2.7.3.3.5.7.7 1.2.2.1.2.4.4.4-.1.4.1.5.2.6.1.1 0 .2 0 .3 0 0 .2.1.1.2.3 0 .3.3.5.4 0 .2 0 .3-.1.4.2 0 .2.4.4.3-.1.3.1.4.1.6.1 0 .1.1.2.2h.2c.1.1 0 .5.3.3.1.3-.1.3-.1.5 0 .1.3 0 .3.1l.2.6c.1.2.1.5.1.7.3.1.3.2.3.4 0 .1.2.1.2.2s.1.1.1.1c.1.2 0 .5.1.7 0 .1.2.1.3.2v.4c.2 0 .1.3.3.2 0 .4.3.4.2.9.2 0 .2.3.4.4.1.3-.1.3-.1.5.4 0 .1.7.3.9 0-.2.1-.3.2-.3.2.2 0 .3-.1.5.2.1.2.4.2.7.1 0 .1.1.3.1 0 .3-.2.3 0 .5-.1 0-.2.1-.3.2 0 .1-.1.5.1.5 0-.1 0-.2.2-.2.3 0 .2.5.3.7 0 0 .1.1.2.1 0 .1 0 .2.1.2 0 .3-.2.3-.2.6.2 0 .1.5.2.7 0 0 .2 0 .2.1-.1 0-.1.3-.1.4.2.2 0 .2 0 .4s.1.5.2.6c0 .1 0 .2.1.2 0-.2.1-.3.2-.3 0 .2-.1.3-.1.6.2-.1.2.2.3.4.1.4.2.3.1.7.1.2.3.4.3.8.2.2.4.3.3.7.2 0 .2.4.4.3 0 .3.1.5.3.6 0 .5 0 .8.1 1.1.4.3.6.7.6 1.3 0 .2-.2.1-.2.3.2.2 0 .7.4.6.1.5.1.8 0 1.3.3.1.3-.2.4 0 0 .2-.1.2-.2.3.1 0 .1.3.2.3.1.1 0 .4.3.3v.5c.2.3.6.6.7.9 0 0-.1.4.1.3 0-.1.1-.2.2-.3 0 .1.1.1.2.1v.3h.2v.4c.1 0 .2 0 .2.2-.3-.1-.5-.4-.7 0 .2.3-.3.4-.3.8.2.1.4.3.6.3 0 .4.2.6.3.8.1 0 .2.1.3.1 0 .1.1.2.1.4.3 0 .2.4.4.4h.2c.1.2-.2.2-.3.3-.2.3-.2.5-.1.8-.1 0-.2 0-.3.1 0 .3.3.2.5.2 0 .3-.2.4-.3.5.2 0 .3.1.3.3-.3 0-.3-.3-.7-.2-.2.2-.2.1-.5.2 0-.1-.1-.1-.2-.1-.1-.1 0-.3-.2-.2-.1.3.3.1.2.4-.4-.3-1.1.2-1.5.1-.1 0-.1-.2-.2-.2-.2.2.3.8.1 1-.1-.4-.4-.6-.8-.6 0-.2 0-.4-.2-.4-.4-.2-.6.1-.8.5-.3.1-.3-.1-.5-.1-.1.3-.2.1-.4.1 0 .2 0 .4-.2.3-.3-.2.1-.5-.1-.6-.2.1 0 .5-.3.4-.2 0-.2-.3-.3-.4-.1.3-.3.1-.6.2-.2-.3.2-.8-.2-.9 0 .1-.1.1-.2 0 .1.4-.2.7 0 .9-.2.1-.2.1-.4 0-.1.4-.2.9-.5 1.3 0 0 0-.2-.1-.1s-.4.4-.4.5v.2c0 .1-.2.1-.3.1v.2h-.2c-.1 0 0 .1-.1.1-.1.1-.2.2-.4.2-.2.1-.6.2-.8.1v-.1c-.1-.1-.3 0-.3-.1-.1 0-.1.2-.3.2-.1-.3-.3-.4-.5-.5 0-.4-.3-.6-.4-.8h-.3c-.1.2-.2.3-.3.5.1.4-.1.6-.1.9-.3 0-.4.3-.5.5-.4 0-.8.2-.9.5 0 .1 0 .2-.1.2.1-.3-.1-.4-.3-.4-.2.3-.8.2-1 .5-.1 0-.1.1-.3.1-.1 0-.2-.1-.3-.1 0 .1-.1.1-.2.1-.1.2 0 .9-.3.8.1-.3-.1-.3-.3-.4-.4.1-.4.6-.8.7.1-.2-.2-.3-.3-.4-.1-.2-.1-.5-.2-.6 0-.1-.1-.1-.2-.2s-.1-.2-.2-.2c-.4 0-.7-.3-1.1-.2-.2 0-.3.5-.5.2 0 .4-.2.4-.3.6 0 0 .1 0 .1.1 0 0-.1.1-.1.2H83c-.1-.3-.3-.5-.6-.5-.1-.3-.2-.5-.5-.6-.2.1-.4.1-.4.2v.2c0 .1.1.1.1.1 0 .1 0 .3.1.3.1.1.2 0 .3.1 0 .1.1.2.1.3 0 0 .1 0 .1.1s0 .2-.1.2c-.1-.3-.3.1-.1.2-.2 0-.2-.2-.3-.2-.1 0-.3.2-.3-.1.4 0 .1-.6-.2-.5.1-.3 0-.9-.3-1 0 .2-.2.1-.3.1-.1 0-.2.2-.3.2 0 0-.1-.3-.3-.3-.1 0-.2.2-.3 0-.2-.1.2-.3-.1-.4-.3-.1-.2 0-.4.1 0-.2-.1-.3-.2-.3-.1.2-.3.2-.3.4 0 .1 0 .3-.1.3 0-.4-.3-.4-.4-.4-.2 0 0-.2-.1-.2-.4 0-.3.1-.7.2 0-.5-.6 0-.6 0s-.1-.3-.3-.2c0 .1 0 .2-.1.2-.1-.3-.3 0-.3.1 0 0 .3.1.2.3-.3-.1-.2.2-.3.2-.2-.1-.1-.5-.3-.6-.2.2-.4-.1-.7-.1-.1 0-.1.1-.3.1-.1 0-.2-.1-.3-.1v.1c-.1.1-.2-.2-.3-.1.1.3-.2.2-.3.1-.1.1-.1.4-.3.4-.1-.1-.1-.4-.3-.4-.1.2-.3 0-.3 0-.2 0-.2.1-.3 0-.1-.2-.2.2-.3 0-.1-.2-.4.1-.4.1 0-.5-.3 0-.4 0 0 0-.2-.2-.2 0-.1.3.2.4 0 .5 0-.1 0-.2-.2-.2 0-.1.1-.5-.1-.5 0 .1-.1.2-.1.3 0 .1.1.3.1.3 0 .1-.3.2-.2.4 0 .2.2.1.2.3-.2 0-.4.1-.5.3-.1.2.1.7-.1.7-.1-.3-.2-.3-.4-.2 0-.1 0-.2.1-.3-.2-.2 0-.3-.2-.5-.1 0-.1.1-.3.1 0-.5.1-.5 0-.8-.2.3-.1-.2-.3-.2-.1.3-.2.3-.1.5 0 .1.2.1.2.2 0 0-.1.1-.1.2v.3c.1 0 .2 0 .2.2-.1 0-.3 0-.3.1.2.1-.1.3 0 .5.2.3.3 0 .5.2.1.3-.1.3-.2.5-.2 0-.2-.1-.3 0-.1.1-.2-.2-.2-.2 0-.1-.2 0-.3-.1 0-.1 0-.3-.1-.3h-.3c0 .5-.4.6-.4 1 .2-.3.5-.2.6.1-.1.2-.4 0-.3.3.2-.1.3-.1.5 0 0-.2.1-.3.3-.3.2.3.4.1.6.2.1.6-.4.6-.2 1.1-.2-.1-.4 0-.6 0-.1 0-.3-.3-.3 0 0 .5.4.7.8.5 0 .2 0 .3.1.4-.3 0 0 .5-.3.4 0-.3.2-.3-.1-.4-.1 0-.2 0-.3.1.1.1.1.4.1.6.1.1.3.2.3.4-.2.2-.2.5-.6.4 0-.4 0-.7-.2-.8.1.5-.1.6-.2.9.1.2.2.3.3.4.3.2.2-.1.5-.1-.1.3.1.3.1.5-.2 0-.5-.4-.6-.1 0 .3.5 0 .3.5-.3.1-.1-.3-.3-.2 0 .1.1.2.2.3 0 .1 0 .2.2.2-.1.4.1.7.2 1v.5c0 .1.1.1.2.2.1.2-.1.5.1.6.2.1.2-.1.4-.1 0 .2-.1.2-.3.2.1.4-.2.2-.3.5v.5c.1 0 .3 0 .3.1-.1.3 0 .3.1.5-.1 0-.3 0-.3.2 0 .3.3.1.3.4-.3.1-.1.4-.3.5 0-.1-.1-.1-.2-.1 0-.3 0-.5-.2-.5.2-.4.1-1-.3-1-.1 0-.1.2-.3.2-.1-.3-.1-.9-.3-1-.1.3-.1.7-.3.8 0-.3-.3-.2-.4-.3 0 .1-.1.1-.1.2.1.4.7.2.7.7-.2.1-.4-.4-.4-.1 0 .3.3.2.4.3.1.1.2.4.3.4 0-.2.1-.2.1-.4h.4c0 .1-.1.4 0 .5 0 .1.2 0 .3.1 0 .2-.1.2-.1.4.3-.1.1.3.3.3-.1.4.3.5.1.7-.2.1-.1-.1-.2-.2s-.2-.1-.3-.2l.2-.2c0-.1-.3-.3-.3-.2 0 .3.1.4 0 .5-.1.1.1.3.1.3.1.4-.1.4-.2.6.1 0 .2.1.3.1 0 .4.3 1.1-.1 1.3-.1-.1 0-.4-.3-.3 0 .1.2.4 0 .4-.2-.1 0-.6-.2-.6-.1 0-.1.2-.2.2-.1-.2-.1-.4-.3-.5 0 .1-.1.1-.2 0 .2-.3.3-.1.3 0 .1.1.5 0 .4-.1 0-.4-.3-.4-.4-.5 0-.4.2-1-.3-1.1 0-.3 0-.5-.2-.5 0 .1-.1.2-.2.3 0 .2.2.1.2.4-.1 0-.2-.2-.3 0 0 .4.4.4.4.7-.1 0-.1 0-.2.1-.1.2 0 .7 0 .8-.1 0-.2.1-.3.2.2.1.3.3.4.4-.2.1-.3.4-.4.6.1 0 .1-.1.3-.1.1.1 0 .3.1.4 0 .1.2 0 .3.1l.1.3h-.1c0 .1-.1.2 0 .2.2 0 .2-.1.3-.1-.1.3.3.5.1.7 0-.1-.1-.2-.3-.2.1.2.2.5.3.6-.1 0-.2 0-.3-.1 0 .4-.3-.2-.3.1v.3c.4-.1.4.3.4.7-.2-.1-.4-.4-.6 0 0 .3.1.3.3.4.2 0 .2-.2.4-.1 0 .3 0 .5.2.5.2-.1.4.3.5 0 0-.2-.3-.1-.3-.3.4-.1 0-.6.3-.8.1.1 0 .2.1.3.1.3.2.3.4.4 0 .3.3 1-.1 1.1 0-.1-.1-.2-.1-.3 0-.1-.1-.1-.1-.1 0-.2.1-.4 0-.4-.3.1-.1.4-.1.7-.3.1-.1-.5-.3-.4-.1.1-.3.1-.4 0 .1.1.1.4-.1.4 0-.2 0-.4-.2-.4-.1.1 0 .5-.3.5 0-.4-.2-.6-.3-.7 0 .2-.2.1-.3 0v.4c-.2 0-.2-.1-.3-.2 0 .2-.1.2-.2.3.1.4-.4.5-.1.7 0-.5.1.1.3 0 0-.1.1-.2 0-.3.3 0 .2.5.6.3.1.2.2.4.3.5.1-.3-.1-.4-.1-.6.2 0 .2-.2.4-.2.1.2-.2.4 0 .4.3-.1.3.2.4.3.1.1.2.1.3.1 0-.2 0-.4.1-.4.1.2.1.4.2.6-.5 0-.6.4-.9.5-.2-.1 0-.6-.2-.6-.1 0-.1.2-.1.4h-.4c.1-.4 0-.5-.3-.7-.1.2.3.3 0 .4 0-.1-.1-.1-.2 0 0 .3.2.3.3.5-.2.1-.2.4-.3.5.1.2.3.1.5.2.3.1.1.3.3 0l.2-.2c0-.3-.2-.3.1-.4.1.2.1.4.3.5.4-.3.5.3.8.4-.1-.4.2 0 .3 0l.1-.2h.2c.1-.1.1-.3.2-.3.2.2-.1.5.2.6 0-.1 0-.2-.1-.3.3-.1.3.4.2.5-.3.1-.3-.2-.5-.2-.2.3-.4.5-.4.8.2 0 .1.3.3.3 0-.2 0-.4.3-.4.2 0 0 .5.3.4 0-.2.2-.1.3-.1 0 .5-.4 0-.4.4 0 .2.2.4 0 .5-.2-.2.1-.8-.3-.7-.1.3 0 .7-.1 1.1 0 .2.3.2.3.5-.1 0-.2 0-.3.1.1.2.3.3.3.7-.1 0-.2 0-.2.2-.1.2-.2-.1-.3.1-.2.3-.1 1 .2 1 0-.1 0-.2.1-.2 0 .2.1.2.3.2 0 .2.1.3.2.4-.3 0-.5-.3-.6.1.2 0 .1.3.2.4.2.1-.1.3 0 .5-.2 0-.5-.2-.5.1 0 .1.1.1.2.2 0 .2 0 .4-.1.4 0-.1-.1-.1-.1 0-.1.2.2.2.3.3.1.1 0 .4.3.3.3-.4-.4-.8.1-1 .1.1.1.4.3.4 0-.3.2-.3.3-.3-.1.4.2.5.2.8-.3.1-.3 0-.4.1.1.2.3.4.3.7.1.4-.1.5-.3.6-.1-.3.1-.4.1-.6 0-.1-.1-.1-.2-.2s.1-.4-.1-.4c-.3.2-.5.2-.7-.1 0 .2 0 .3.1.4-.4.1-.1-.3-.3-.5-.1-.1-.3 0-.3-.1 0-.2 0-.4-.1-.4s-.1.1-.2.2c.3.1.2.9.2 1.1 0 .2.1.5-.2.4 0 0-.1-.1 0-.1v-.3c-.2.2-.3-.1-.3-.3.2 0 .4-.1.4-.3-.1 0 0-.3-.1-.4 0-.2-.2 0-.3 0-.1-.1 0-.5-.2-.4 0 .1 0 .3-.1.3 0-.1-.1-.1-.1-.1-.2-.1 0-.5-.4-.4-.1.3.2.4.1.6 0 .1-.2 0-.2.1 0 .2.2.2.3.4-.2.3-.4-.2-.4.2.1.4 0 .3-.1.7.4.1.4-.4.6-.1.1.3-.2.2-.2.5 0 .2.1.7-.1.7-.1-.2-.1-.5-.3-.6-.1 0-.2 0-.3.1 0 .4.3.4.2.9.2.1.4.3.4.5-.3 0-.2-.4-.4-.1 0 .1.1.2.1.4.1.2.5 0 .4.4-.4-.1-.6-.5-.8-.8 0 .4-.2.7-.3 1 .1.1.2.3.2.5.3-.1.2.2.3.2 0-.3.1-.3.3-.4.1.1 0 .5.3.5.2.1.2-.2.3-.2.1 0 .2.1.3.1.1 0 .1-.1.3-.1-.1.6.7.3.7 0 .3-.1.2.3.4.2 0-.1.2-.1.3-.2.2.2-.1.2 0 .5.2.4.2.5.3 1 .4.2.1 1.2.5 1.4-.1.3-.1.8-.1 1.2 0 .2.2.1.2.4.1.3-.2.2-.2.5 0 .4.3.6.3 1-.3.1-.5-.1-.6-.2.2.5-.3.3-.3.6.1 0 .4-.1.3.2 0 .1-.1.1-.2.2 0 .1 0 .3-.1.3-.1-.4-.2-.8-.3-1.3-.2.3-.3-.1-.5-.1 0 .5-.1.6 0 1 .1-.1.3-.1.3.2H69c0-.1-.1-.2-.2-.3v-.4c-.3-.1.1-.3-.3-.4 0 .3.2.9-.2.9-.2-.2.1-.2.1-.5 0-.1-.1-.2-.2-.3-.1-.2 0-.5-.2-.5 0 .1 0 .2-.2.2-.1-.1-.3-.2-.3-.4.2-.3.3-.1.6-.2-.1.3.3.1.2.5.1 0 .3 0 .3.1 0 .2 0 .4.1.4.2 0 .2-.3.2-.6.1 0 .2-.1.3-.1 0-.1 0-.2.2-.2s.1.4.3.4c0-.2.2-.3.2-.6-.1-.1-.2-.1-.3 0 0-.2.1-.3.1-.6.3-.1.1.3.3.2.2-.3 0-.5.2-.9-.2 0-.2-.3-.4-.3-.1-.2.2-.2.2-.4 0 0-.2-.1-.2-.2s-.1 0-.1-.1c-.1-.1-.1-.4-.3-.4.1.3.1.6-.3.6-.2-.5 0-1.5-.4-1.8 0 .1 0 .2-.2.2-.1-.3.1-.3.2-.4-.1-.2-.1-.4-.3-.5-.1.3.1.3.1.6-.1 0-.2.1-.3.2.1.2.2.3.3.5-.3 0-.3-.3-.5-.4-.1.4-.1.4 0 .8-.2 0-.2-.1-.3-.2 0 .2-.1.2-.1.4.1.1.1.3.3.4.1 0 0-.3.2-.3.1.1.2.5-.1.4v.2c-.2 0-.2-.1-.3-.1.1.1 0 .4.2.4.1 0 .2-.1.3-.1.2.2.1.6 0 .8.1 0 .1.1.1.2.3-.1.3.2.3.3-.3 0-.2.3-.4.3.1-.4-.3-.2-.4-.3-.1-.1 0-.3-.1-.4-.1-.2-.3-.1-.3-.3.2 0 .3 0 .3-.2-.2-.1-.3-.3-.3-.5 0-.1-.1-.1-.1-.1v-.5h-.2v-.7c.3-.1 0 .6.3.5 0-.5 0-.7-.3-.9-.1-.1-.4 0-.4-.1 0 0 0-.2-.1-.2 0 .3.1.4.2.6 0 .1-.1.2-.1.4s.1.4.1.6c-.3.1-.2-.2-.3-.2-.1.6.1.8.2 1.2.3.1.4.4.4.8-.3-.1-.4.1-.4.4 0 .3.2.1.3.2.1.1 0 .3.2.4 0 0 .2-.1.3 0 .1.4-.4.2-.3.6.1-.3.5.3.3.4 0-.1-.3-.3-.3-.1.1.2.2.5.1.6.2.1.4.1.4.3 0 .1 0 0 .1.1s.3.3.1.3c0-.3-.3 0-.3.1 0 .2.2.2.1.5 0 .1-.1.1-.2.2 0 .1.2.4.3.5.1 0 .1-.2.2-.3.3.1.2 0 .4.1-.1.2 0 .8-.3.7.1-.5-.5-.5-.7-.3.1.5 0 .5 0 1 .3-.2.3.2.7.2 0 .2 0 .4.2.4-.1-.4-.2-.7.2-.8.1.3.1.7.2 1 .3 0 .1.8.4.8-.1.2-.1.6-.3.6-.1-.2-.1-.5-.3-.4 0 .1-.1.1-.1.2s.1.2 0 .2c-.1-.3-.3-.3-.6-.2 0-.1-.1-.2-.2-.2 0-.2 0-.4-.2-.3.1.3-.1.4-.1.6.1.3.3.5.4.7 0 .2-.1.4-.1.5 0 .1.2.2.2.3 0 0-.1.1-.1.2v.3h.3c0 .3 0 .5-.1.6.3.2.3 1.3.2 1.7.3-.2.4.1.7.2-.1.2.3.3 0 .4-.1-.3-.4 0-.4.2.2 0 .1.4.3.4 0-.1.1-.2.2-.3l.3-.3c0 .1.1.1.2.1 0 .1 0 .2-.1.2s-.1.2-.3.2c-.1 0 0 .1-.1.1-.2.1-.3 0-.3.1s-.1.5.1.5c0-.1.1-.1.2-.2l.2-.2c0 .1.1.2.2.3 0-.3.2-.3.3-.4.1.2.3.5.4.6.1-.2.1-.5.1-.8.1 0 .1-.2.1-.3.1 0 .2-.1.2-.3 0-.4-.1-.6-.2-.9.3-.1.2.2.3.2 0 .5-.1.8-.1 1.5.2.1.4.2.3.6-.4.1-.1-.5-.4-.5 0 .3.1.4.1.6 0 .3-.3.1-.1.3.1.1 0 .3 0 .4-.3.1-.2-.3-.4-.3v.6c-.3 0-.2-.4-.2-.6 0-.1-.2 0-.3-.1-.1-.2.1-.5-.1-.5-.2.2-.4-.2-.5-.1l-.1.2c-.1.2-.2.2-.3.4.1.1.2.2.2.4s-.1.2 0 .3c.1.1-.2.9.1.9 0-.1.1-.2.2-.3 0-.3-.2-.4.1-.5.1.1 0 .6.3.6.1-.1 0-.4.3-.3 0 .3-.2.4-.3.6v.4c.2 0 .2.1.3.2 0-.2.3-.1.3-.3 0-.3 0-.4.1-.5.1-.2.2-.4.3-.4-.1.3.1.3.2.5-.2.1-.2.4-.3.6.3 0 .2.3.4.3 0 .2-.1.2-.1.4-.1 0 0 .3-.2.3 0-.1-.1-.1-.1 0s.1.1.3.1c.1.4.1.8-.3.8-.2-.1.1-.3.1-.4h-.2c-.1-.1.1-.5-.2-.4 0-.4-.1-.5-.3-.7-.1 0-.2.1-.2.3-.3 0-.3.1-.5-.1-.2.2-.1.8.3.6 0 .3-.3.5-.3.8.1.1 0 .5.3.5-.1-.3.1-.2.2-.4.1-.4-.1-.4-.1-.8.1 0 .1-.1.3 0 0-.1.1-.2.2-.1-.2 0-.1.4-.3.5.2.3.1.2.1.6h.3c.1.6 0 .7.1 1.3-.2 0-.3.1-.3.4.3-.1.2.3.5.2 0 .3 0 .7.3.6 0 .4-.3.5-.3.9 0 .2.1.3.2.4-.2 0-.3-.2-.5-.1 0-.2 0-.4-.2-.4.1.6-.2.3-.5.3 0 .2-.1.3-.1.6.1 0 .1.1.2.1.4.1.5-.2.8-.2-.1.2.3.3 0 .4-.2-.3-.3.3-.3.5-.3.1-.3.1-.7.1-.1-.3.2-.2.2-.5-.4 0-.2-.8-.5-.9-.1 0-.3 0-.4.1-.1.1 0 .2-.1.3-.1.1-.2.1-.3.2-.1.2 0 .6-.2.8.1.2.1.2.3.3.1 0 .1-.1.2-.1 0 0 .1.2.1.3-.1.3-.1-.2-.3-.1-.1.1-.1.3-.1.5h.3c0 .3.2.3 0 .5.1 0 .2.1.1.2 0-.1-.1-.1-.1 0s0 .3.1.3c-.1-.3.2-.1.3-.2.1-.1 0-.3.1-.3.2 0 .2.2.5.1 0-.2-.1-.5.2-.4.1.5 0 .5-.1.8.4.1.3-.4.6-.4 0 .1.1.1.2.1.1.3-.1.2-.2.4.1.1.1.4.1.6-.2 0-.2-.2-.4-.1 0-.2-.2-.1-.3-.2-.1-.1-.1-.4-.3-.3-.1 0-.1.3-.3.2-.1 0-.1-.2-.2-.2s0 .1-.1.1h-.3s-.1.2-.2.2c-.1.1-.1.2-.2.3.2.2.3 0 .5 0 0 .1.1.2.2.3 0 .1-.1.2 0 .3.2 0 0-.4.1-.6.3 0 .2.5.5.4-.1-.3 0-.4.3-.3.2 0 0 .5.3.4.1-.3.2.1.3 0 .1.4-.3.8 0 1 .1 0 .1.1.2.1.1-.3.3-.6.5-.7 0 .9-.1 1.7-.3 2.4 0 .1.1.1.1.3 0 0-.1 0-.1.1v.2c0 .1-.2 0-.2.1.3.1-.1.2 0 .4s.1.4.2.6c-.2.1-.2.5-.3.7.1.3.3.5.3.8 0 .2-.1.2 0 .3v.2c0 .3.1.4.1.5.1.3.1.2.3.4.1.2 0 .3.2.4h.3c0 .2-.2.2-.1.5-.3.1-.1-.3-.3-.3.1.3-.2.2-.2.5-.2-.1-.5-.1-.4-.5.2-.1.4.3.4 0 0-.4-.5-.1-.5-.5 0-.2.2-.1.2-.3 0-.1-.4-.2-.1-.3 0 .1.1.1.1 0 .1-.4-.1-.4-.2-.6.2-.2 0-.7-.3-.7-.1 0-.1.1-.2.2.2.2 0 .6 0 .7v.5c.1.3 0 .2 0 .5v1c-.3.1-.1-.4-.4-.3 0 .3 0 .5.1.6-.1 0-.2.1-.3.2.2.2.2.6.2 1 .1 0 .2.1.3.1.1.2-.3.3 0 .4 0-.2.1-.4.4-.3 0 .3.2.3-.1.4.1-.2-.2-.4-.2-.2.1.1-.1.4 0 .5h.2v.6l.2.1c.1.2-.1.4.1.5-.1 0-.2.1-.3.2 0 .2-.1.6.1.6.1 0 0-.3.2-.3 0 .4.1.7.2.9 0 .1-.1.1-.1.2 0 0 .1.1.1.2.3-.1.1.3.3.3 0-.1-.1-.1-.1-.2.2-.1.2.2.3.3h.1c.1.2 0 .3.1.4v.2c0 .1.1.1 0 .2s.1.5 0 .6c-.1 0-.2 0-.2-.2 0-.1-.1-.1-.1-.1-.1-.3 0-.5-.2-.7-.1-.1-.3.1-.3 0 0-.2.1-.5-.1-.5-.2.1-.2.6-.4.3-.1-.3.2-.2.2-.4-.2-.1-.2-.4-.3-.5.1-.1.1-.9 0-1 0 .2-.1.3-.2.4.1.4 0 .7-.1 1.1.2.1.2.5.3.7-.1.2-.2-.1-.3.1.1.1.2.5 0 .5 0-.1-.1-.1-.2 0-.2.1-.3-.3-.3 0 .1 0 .1.2.2.3.1.1.2.1.3.2v.3c.1.1.2 0 .3.1.1.1 0 .3.1.3-.3.2-.4-.3-.5-.1 0 .1.1.1.2.1 0 .4-.1.6.2.8 0-.3.3-.1.3-.4.3.1.4.1.5 0 .2-.3-.2-.5-.2-.9.3 0 .4.4.5.7 0 .1-.1.2-.1.3 0 .1.1.2.1.3 0 .3.1.8-.2.8 0-.2-.3-.1-.3-.2 0 0 0-.2-.1-.2-.2 0-.2-.1-.3-.1.2.2.1.3.1.7.2.2.5.3.8.4.2.2.2.6.4.7 0-.3 0-.5.2-.5 0 .4.3.3.3.6 0 .4-.2.5-.5.5 0 .3-.3.8-.1 1.1.1.1.3-.3.4 0-.2 0 0 .4-.1.5-.1 0-.2.1-.2.3-.2-.2-.5.1-.3.3.3.1.2-.3.4-.2.1-.1 0-.4.3-.3v.3c-.2-.3-.2.4-.3.5.1.3.1.4-.1.6 0-.2 0-.4-.1-.4-.1.3-.5.2-.5.5.2.1 0 .7.3.7.1 0 .3-.1.3-.2.1-.1.2-.3.3-.3.1-.2.1-.6.3-.6.2.3.1.7.1.9 0 .2 0 .6-.3.5 0-.2 0-.4-.1-.4 0 .2-.1.4-.2.6.3.1.3.5.5.6.2 0 .1-.3.3-.3.1.3.2.1.3 0-.1.3.2.2.2.5-.3 0-.2-.3-.5-.1 0 .3-.2.4-.3.5-.1-.3-.2.1-.3 0-.2-.1-.4-.3-.8-.3 0 .1-.1.1-.1.3.3-.1.2.3.4.2.2 0 .1-.3.3-.2 0 .7.6-.1.8.3l-.3.3c.3 0 .4.2.4.6-.1.2-.5.1-.6.3 0 .2.1.5-.1.5-.1-.2 0-.6-.3-.6-.2.2-.3 0-.3.3 0 0 .2.2.1.3-.1 0-.3 0-.3.2h.7c0 .2.1.3.2.4.1-.1.2-.2.3-.2 0 .2-.1.2-.2.3-.1.1-.1.2-.3.2-.1 0-.1-.2-.2-.2 0 .2-.3.1-.3.3.1.1.2.1.3 0 0 .3 0 .6.2.7.1 0 .1-.1.2-.2 0-.1.1-.1.2-.2-.1-.5.1-.5.2-.8.2 0 .5-.1.5.2-.1 0-.1.1-.1.2-.2.1-.3-.3-.4 0-.1.3.2.2.3.3 0-.4.6-.1.5-.6-.2 0-.2-.1-.2-.3.3.1.3-.2.4 0 .1.3-.1.5-.2.8 0 .1.2.3 0 .4 0-.1-.2-.4-.3-.1.2.3 0 .8-.3.8.1-.3-.1-.3-.2-.4-.1-.1.1-.4-.2-.4-.1 0 0 .3-.1.4h-.2c-.2.1-.1.4-.3.5-.2-.2-.1-.8-.3-.9-.2 0 0 .5-.3.3-.2-.2-.1-.1-.3-.1-.3 0-.4 0-.4.2-.1.4.4.6.1.8-.1-.3-.2-.2-.3-.3 0 0 .1-.1.1-.2l-.2-.1s-.1-.2-.2-.1c0-.2.1-.4.2-.6-.2.2-.2 0-.3-.1.1.4-.2.2-.3.4.2.1 0 .6.2.6.1 0 .1-.3.3-.2.1.5 0 .7-.1 1.1 0 .2.2.2.3.3 0 .1 0 .3.1.3s.1-.3.1-.4c.2 0 .2.2.3.4-.2 0-.3 0-.3.2-.2.4 0 .4.1.7h-.5c0-.5-.4-.6-.3-1.2-.3 0-.1-.6-.4-.6-.2.2 0 .3 0 .5-.2.1-.3-.3-.3 0 0 .1 0 .3-.1.3 0-.2-.1-.3-.2-.4 0 .4.1.7.3.8-.2.3.1.6-.2.7 0-.1 0-.2-.1-.2-.1.4-.4.8-.4 1.2 0 .1.1.1.1.1 0 .1-.1.5.1.5 0-.4 0-.4.2-.4.2-.1.2-.4.2-.6.3-.1.1.3.3.2-.1.5 0 .7 0 1.2.4-.2.2.4.5.4 0 .2-.1.2-.2.3 0 .2.2.2.1.5-.2.2-.3-.3-.6-.2.2.2 0 .4.1.9-.4-.1-.1-.3-.1-.6-.2 0 0-.5-.3-.3.1.2-.1.3-.1.5 0 .1.1.1.1.2h-.1c-.1.1.2.9-.3.8.1-.4-.3-.2-.2-.6-.1 0-.1-.1-.3-.1-.1-.5.4-.3.6-.5v-.3c-.2.3-.4 0-.6.3 0 .1 0 .2-.1.2.1-.3-.1-.3-.1-.6.1-.1.4 0 .5-.2-.3.1-.1-.4 0-.5 0 .1.1.2.3.2.1-.2.4.2.4-.2-.1-.2-.3 0-.4-.1-.1-.1 0-.2-.1-.2 0 0-.1.2-.3.1 0-.1-.1-.2-.2-.3-.2-.1-.2.2-.3.2 0-.2 0-.4-.2-.3-.1 0-.1.2-.1.3-.3.2-.1-.3-.3-.3-.1.3.1.4.1.6 0 .2-.1.3 0 .3.2 0-.1-.6.3-.4-.1.5 0 .2.3.2 0 .1.1.5-.1.5-.1-.5-.9-.1-.6.3-.3.1-.2-.3-.3-.3 0 .2 0 .4.3.4-.1.5.4.7.6.5 0 .3.2.5.3.6.1.1.2 0 .2.2-.1.2-.5-.4-.5.2.4-.1.4.3.6.4 0 0 .1-.2.2-.1.1 0 0 .2.1.2 0 0 .1-.1.2-.1 0 0 .1.2.2.1-.1-.2-.2-.3-.2-.6.1-.1.1-.4.3-.5.1.1.2.2.3.4 0 .1.3.4.1.4 0-.1 0-.2-.2-.2 0 .4 0 .6-.1.8.1-.1.2-.1.4-.1 0 .2.1.2.1.4-.1.1-.2.2-.2.5-.1.1-.2.1-.4.1 0 .1 0 .2-.1.2.1-.6-.2-.8-.5-.9-.1.3.1.3.1.5-.2.3-.6.3-.6.7.3-.1.2.3.4.2.1-.2.2-.5.5-.5v.4c.2.1.2.2.4.3-.1.4.2.3.2.6-.4 0-.3-.6-.7-.6-.1.3.2.2.2.5-.3-.1-.2-.2-.2.2-.1 0-.3 0-.3-.1.3.3-.3.9-.5.5.3-.1.3-.4.3-.8-.3.1-.2-.2-.3-.2-.2 0-.5 0-.6.1 0-.3-.4 0-.3-.4.1-.2.3.2.4.2 0-.1.1-.1.1-.3-.2-.3-.6-.3-.9-.4v-.3c-.2.2-.3-.1-.4-.2.1 0 .1-.2 0-.2-.3-.1-.1.4-.2.6h-.1c-.1.1 0 .3 0 .4-.2 0-.2-.1-.3-.2-.1-.1-.3 0-.3-.1-.1-.1 0-.3-.1-.3-.3.1-.4-.1-.5-.3.3 0 .6 0 .8-.1 0 .2-.1.2-.1.4.2 0 .1-.3.3-.2 0 .1 0 .2.1.2 0-.1.1-.1.1-.2-.2-.3-.2-.4-.2-.9-.1.1-.2.3-.4.1 0 .4-.3.4-.5.5-.2-.2-.5-.1-.6-.3.2 0 .2-.2.3-.3 0 .1.2.4.3.2 0-.2-.1-.3-.3-.3 0-.3 0-.5-.2-.5 0 .2-.2.1-.2.4-.3.1-.2-.3-.4-.2 0 .2-.2.1-.3.1 0 .1 0 .2-.1.2 0-.3 0-.4-.3-.4v.2c-.3-.1-.5.2-.6 0 .2-.5-.1-.8-.1-1.3.1 0 .2 0 .3.1.1-.1.1-.5.2-.6-.2 0-.1-.5-.3-.4.1.5-.2.6-.3.8.2.2-.1.5-.2.2.1 0 .1-.1.1-.2-.2.1-.4-.3-.4 0 0 .1.1.1.2.1-.1.6.2.4.4.5 0 .2 0 .3.1.4-.3 0-.5-.2-.8-.2-.2 0-.2.1-.3.1-.1 0-.5-.3-.5 0 .2.3.2.1.6.1.1.2-.2.2-.2.4 0 .1.2.1.3.1.2.4-.4.3 0 .5-.1-.4.3-.1.3-.5 0-.2-.1-.3-.2-.4.4-.1.3.4.5.5 0-.1 0-.2.1-.2 0 .1.1.1.2.1 0 .1 0 .3.1.3.3 0 .4.1.5.3-.2.2-.2-.1-.3.1-.1-.1 0-.4-.3-.3 0 .1 0 .3-.1.3 0-.1-.1-.1-.2 0 0-.1-.1-.2-.2-.3-.1.2 0 .8-.3.8 0-.2.1-.2.1-.4l-.6-.3c.1-.3 0-.3-.1-.5 0-.1-.1 0-.1-.1-.1-.3-.1-.2-.3-.4-.1-.1 0-.2-.2-.3 0 0-.1.2-.2.2 0 0-.1-.2-.3-.1.1.3-.2.2-.3.1.1.1.1.3.3.4 0-.1 0-.2.2-.2.1.4-.1.4-.1.7-.3.2-.1-.4-.3-.3-.1.3 0 .4-.1.9-.3-.2 0 .4-.3.4-.1-.2-.1-.5-.4-.4-.1.6.2.7.3.9-.1 0-.2.2-.2.4.2-.1.6.2.3.3-.3-.6-.3.6-.7.5 0-.4-.2-.3-.4-.2 0-.4.2-.6.3-.9.1-.1.4.1.4-.1-.1-.2-.2-.4-.4-.3.1-.3.1-.4-.1-.6.1.3-.1.4-.2.6-.1.2 0 .5-.2.6.1.3.2.2.1.3-.2.2 0 .6-.3.6-.1-.1-.1-.4-.3-.4v.4c.1 0 .1-.1.3-.1v.7c.2.2.5.1.5.5-.2.1-.5 0-.5.3.3.1.3-.1.5-.1-.1.5.2.3.3.4.1.1.1.4.1.5.1.1.5.4.2.6-.1-.1 0-.4-.3-.3-.2.1 0 .4-.1.6 0 .1-.2 0-.2.1s.2.1.3.2c0 .3 0 .6-.2.7-.1-.1-.2-.2-.3-.2 0 .3-.2.3-.2.6.3-.1.3.3.3.6-.6 0-.3-.7-.5-.9-.2.3-.8.4-.6.9-.4 0-.1-.8-.6-.7.1.3-.1.4-.1.6-.3.1-.3-.1-.4-.2-.2 0-.2.2-.5.1 0-.3 0-.6-.2-.7-.1.3-.2.4-.3.6-.2-.1-.5 0-.7.2-.3.1-.2-.3-.4-.2v.3c-.4-.2-.4.1-.7.3-.1-.2-.1-.4-.3-.5-.3 0-.4-.7-.6-.6l-.1.2c0 .1-.1.1-.2.2 0-.2-.2-.1-.3-.1-.2.1 0 .7-.3.7-.1-.2-.3-.3-.4-.4 0-.3 0-.7-.3-.7 0 .4-.2.6-.4.6-.1-.3-.3-.4-.6-.5-.2 0-.3.2-.5.2-.3.1-.3-.2-.4 0-.1.1-.3 0-.3.1-.1-.1-.4-.1-.4-.2l-.2-.2c0-.1-.3-.2-.3-.3v-.3c0-.1-.1-.1-.2-.2-.1-.3-.1-.5-.3-.6-.1-.2-.2-.3-.2-.5-.3-.2-.6-.3-.4-.7.2-.1.2.2.3.2-.1-.3.2-.2.2-.5-.3.1-.2 0-.5.1 0-.2-.2-.4-.2-.2s-.3.1-.3-.4c.2.1.4.2.4-.2-.2.2-.2-.1-.3.1 0-.3.2-.7 0-.9-.2.3-.7.2-.7.7-.3 0-.3.1-.4.3 0 .2.1.2.1.4-.2.2-.2.7-.6.6.1-.5-.2-.6-.2-.9h.1c.1-.1-.1-.5 0-.6 0-.1.1-.1.1-.3-.1 0-.1-.2 0-.2 0 .1 0 .2.1.2.1-.3.3-.3.4-.5-.1-.2.2-.4 0-.4-.1 0 0 .2-.1.3h-.2c-.1 0-.1.3-.3.2 0-.2-.2-.4 0-.6 0-.2.4-.3.2-.4-.3 0-.2.3-.4.3-.1-.2 0-.6-.2-.7-.1.1-.2.5-.2.5v.3c-.1.2-.5.2-.5.6.5.2.3-.5.8-.5 0 .3-.2.3-.2.5l.1.1c.1.2 0 .4 0 .6-.1.1-.3 0-.3.3.1.1.2.3.3.6-.4.1-.6-.1-.8-.3 0-.2 0-.4-.1-.4-.2 0-.2.2-.3.3 0-.1-.1-.1-.1 0 .1.1.1.5-.2.5-.1-.2.3-.3 0-.4 0 .2-.2.1-.3.2 0 .2.2.2.2.5-.1 0-.1.3-.3.2v-.8c.1-.1.4-.7.2-.9-.1 0-.1.2-.2.2s-.1-.3-.3-.2c-.1 0-.1.2-.2.2.1-.2-.3-.3 0-.4 0-.2.3-.1.3-.3-.2-.3.2-1-.3-1 0-.5-.1-.8-.2-1.2.2-.1.3-.3.4-.5-.1-.1-.2-.1-.3 0 .1-.5-.3-.3-.3-.7.1-.1.3 0 .3-.2-.1 0-.2-.1-.2-.3.2 0 .5-.4.3-.5-.2 0-.1.3-.3.3 0-.1 0-.3-.1-.3-.3 0-.5.6-.3.8 0-.2.1-.7.2-.4-.1.3-.1.7-.2.8-.3.4.2.8 0 1.2.1 0 .1-.2.3-.2 0 .3-.2.4-.3.6.2.3-.1.8-.1 1.1.3-.1.2.3.4.3.1.5-.1.6-.2.9-.1.4.1.4.1.7-.3 0-.2.4-.4.4-.1-.2-.1-.4-.3-.5 0 .2-.2.1-.2.4-.4 0-.3-.7-.8-.7-.2.2 0 .3 0 .6-.2-.2-.2 0-.3 0 0 0 0-.1-.1-.1-.2-.1-.2-.2-.3-.2 0 0-.1.2-.2.1 0 0 0-.2-.1-.2-.1-.1-.1.2-.1.2-.2 0-.3-.4-.6 0 0-.3-.3-.4-.4-.2v-.7c-.1 0-.1.1-.2.1 0-.1-.1-.2-.2-.3-.3.1-.1-.3-.3-.2.1.3.4.8.1 1-.1-.1 0-.6-.3-.6 0 .2.1.3 0 .3-.3-.3 0-.6-.3-.9 0 .1 0 .2-.1.3l-.4.1s0 .1-.1 0c0-.1 0-.2-.1-.2.1-.2.4.2.4-.2-.1-.4 0-.1.1-.3 0-.2-.2-.2-.1-.5-.2.3-.2-.1-.3-.4h-.1v-.2s-.2-.2 0-.2c.1.3.2-.2.3-.3 0-.1.1-.1.1-.3.1 0 .2 0 .3.1 0-.2.2-.6 0-.7-.1 0 0 .3-.2.3-.1-.2-.3-.4-.1-.6-.1-.1-.3-.2-.3-.4.3-.3.1-.4.1-.6 0-.1.1-.1.1-.2-.2.4.3.1.2-.2-.2.2-.2 0-.4 0-.2.4-.4 1-.1 1.3-.3.1-.1.4-.1.7 0 .2-.1.3-.1.4 0 .1.1.1.1.3 0 .2-.1.2 0 .3v.2h.1c.1.1-.1.5-.1.5l.1.1c.1.2 0 .4 0 .6-.1 0-.2 0-.2.1 0 .4.1.7.2 1-.2 0-.1-.1-.2-.2-.2-.3-.2-.7-.4-.9-.2.2-.2-.1-.4 0-.1.1-.1.5.1.5 0-.1 0-.3.1-.3.2.1-.2.3.1.4.1 0 .1-.3.3-.2-.1.4.1.6-.2.7 0-.2-.1.1-.2.1l-.1-.2c-.1 0-.2.2-.3.1 0-.3 0-.5-.2-.5-.1-.3.2-.2.2-.5-.1-.1-.2-.3-.2-.5.1 0 .2.2.3 0 0-.1-.1-.1-.2-.2.1 0 .1-.1.1-.2.1 0 .2 0 .3-.1-.1-.2-.5 0-.4-.4.1-.2.2.1.3-.1 0-.3.1-.3.3-.3.1.2-.1.6.1.6 0-.3.1-.4.2-.6-.1 0-.3 0-.3-.2.1-.3.3.2.3-.2-.1 0-.2 0-.3-.1.1-.2.2-.3.3-.5.1-.3-.1-.3-.1-.6.2-.3.1-.5.2-.9 0-.1.1-.2 0-.3.1.4-.3.1-.3.3.1.2.1.3 0 .4-.3.1-.2-.2-.3-.2 0 .3-.1-.2-.2-.2.3-.2.6-.2.7-.7-.2 0-.4 0-.4-.2.1 0 .2-.1.2-.3.3-.1.1.3.3.2.1-.4.1-.7-.3-.7 0 .2-.1.3-.2.4 0-.1-.2-.2-.2-.3 0 0 .1 0 .1-.1h-.2c0-.1.1-.3-.1-.5.4 0 .5.5.8.1 0 .3.2.4.3.5.1 0 .1-.1.2-.2 0-.2-.3-.1-.2-.4-.4 0-.3-.6-.7-.6-.1-.4.1-.4.1-.7-.1-.1-.1-.4-.3-.5-.1 0-.1.1-.2.1-.1-.4.2-.3.3-.5l-.3-.3c0-.3.1-.3.2-.5 0-.2-.1-.1 0-.3.1-.1-.1-.3-.1-.4 0 0 .3 0 .2-.2-.1.1-.2.1-.3-.1.1 0 .2-.2.3 0 .1 0 .1.3.2.1-.1-.2-.3-.3-.3-.6.1 0 .1-.3.3-.2-.2.4 0 .5.3.2 0 .4-.1.4 0 .5.1.1-.1.3-.1.3 0 .1 0 .2.1.2 0-.2 0-.4.2-.5.1.7-.5.7-.3 1.4.2 0 .1.3.3.2 0-.2.2-.1.2-.3.1 0 .1-.2.3-.2 0 .2.1.2.2.3.1.1.1.2.2.3v-.5c-.4.1-.2-.4-.3-.5-.2 0-.3.1-.3.2 0 .2 0 .4-.2.4.1-.3.1-.3 0-.6.2-.3.4.2.3-.3.3-.1.2.3.4.2-.1-.2-.2-.3-.2-.6-.1-.2-.4-.1-.3-.4.1 0 .2 0 .3-.1-.1-.1-.1-.4-.3-.4 0 .4-.1 0-.3 0 .1.2-.1.5-.2.2.1 0 .1 0 .1-.1-.1 0-.1-.1-.2-.2s-.2-.1-.2-.3c0-.1.1-.1.2-.2 0-.2-.1-.2-.1-.4 0-.1.3 0 .3-.2 0-.1.1-.1.1-.2-.3-.1 0-.3-.1-.5 0-.1-.2-.1-.1-.2v-.2c0-.1.2 0 .2-.1h-.3c-.1-.3.2-.2.2-.4-.2 0 .1-.3.1-.4-.1-.1 0-.5-.2-.5-.1-.3.2-.2.2-.5 0-.2-.3-.2-.3-.5.3-.1.2.3.3.4 0-.2 0-.4-.1-.4 0-.3.1-.5-.1-.5 0 0 0 .3-.2.2-.1-.3.3-.5 0-.6-.2 0 0 .5-.3.4.1-.4 0-.5.1-.8.3 0 .2.5.6.5-.1-.3-.1-.6-.4-.5-.1-.6.1-1 .1-1.3 0-.1-.2-.2-.2-.3 0 0 .1-.1.1-.2v-.3c-.1 0-.1.1-.3.1v-.6c.1 0 .2 0 .2-.1 0-.4-.1-.7-.2-1.1.1 0 .2 0 .3-.1-.1 0 0-.1 0-.3-.1 0-.2 0-.3.1.1-.2-.1-.7.1-.7 0 .1.1.1.2.1v-.2c.1-.1.2.2.3 0-.2-.3-.6.2-.8 0 0-.4.3.1.3-.5-.1 0-.2 0-.3.1 0-.4-.3-.4-.3-.7 0-.2.4-.3.2-.4-.2 0-.3.5-.5.2.2-.1.4-.3.3-.8-.2.3-.5-.4-.2-.4 0 .1.1.2.2.3v-.3c.3.1.3-.2.3-.3-.4-.2-.3-1-.3-1.3.1 0 .2.2.3 0-.1-.1-.2-.2-.3-.2 0 .1-.1.1-.2.1 0 .3-.1.3-.3.3.1-.4.3-.7.3-1.3-.1 0-.2 0-.3-.1.1 0 .1-.1 0-.2.3.1.2-.3.3-.3 0 .6 0 1.3.4 1.3 0-.5-.4-.7-.2-1.2-.2 0-.1 0-.2-.2-.1-.3-.2-.8-.2-1.1.2-.1.3-.2.3-.5-.2 0-.1.3-.3.2 0-.6-.1-.8-.3-1.2.1 0 .3 0 .3-.1s-.1-.2-.2-.2-.1.2-.3.2c0-.3.3-.2.2-.6 0-.3-.3-.1-.3-.4 0-.2.2-.1.2-.4-.1-.6-.2-1.2-.4-1.6.1 0 .2-.2.2-.3 0-.2-.1-.1 0-.2.2-.2-.1-1.2-.1-1.1 0-.4.1-.4.1-.6v-.8c-.1 0-.1-.2-.1-.3-.2-.2-.4-.4-.4-.7 0-.3.2-.4.3-.6-.2-.3-.4-.6-.3-1.1-.1.1-.2.1-.3-.1.2 0 .2-.4.2-.5l-.1-.1c0-.1.2-.6 0-.6-.1 0-.1-.2-.1-.3 0-.2.2-.1.3-.2-.4 0-.2-.5-.3-.6v-.2c0-.6 0-1.3-.1-1.5.1 0 .1-.1.1-.2.1 0 .2-.1.3-.2-.2-.3-.3-.6-.4-1 0-.1.1-.1.2-.2-.1-.3-.1-.7-.3-.9 0-.3.2-.3.3-.5-.3-.2 0-.6 0-.6 0-.1-.1-.1-.1-.2l.1-.1v-.3c-.1-.2-.2-.5-.3-.8.4-.5.1-1.6 0-2.2-.1 0-.2 0-.3-.1.1-.5 0-1 .1-1.3-.2 0 0-.6-.3-.5.2-.6.1-1.5-.1-2.1.4-.4 0-.9.1-1.4.1-.3 0-.3 0-.6 0-.2.1-.2 0-.3v-.5c0-.2-.2-.8-.2-.9h.1s.1-.3.1-.4c0-.2-.2-.3-.1-.5 0-.2.3-.1.2-.4-.3.2-.1-.3-.3-.4-.1-.1.1-1 .1-.9 0-.1-.1-.1-.1-.3 0-.1.1-.1.1-.3 0-.1-.1-.1-.1-.3 0-.2 0-.3-.1-.4l-.3-.6c.1 0 .2-.1.3-.2-.3-.5.2-.9 0-1v-.2c0-.3 0-.4-.1-.5v-.1c0-.1-.1-.1-.1-.1 0-.2.1-.3.1-.5s-.1-.2-.1-.4l.1-.2c-.1-.2 0-.1 0-.3 0-.2-.1-.2-.1-.4 0-.1.1-.1.1-.3 0-.2-.1-.4-.1-.4 0-.1.3-.2.2-.4.1-.1-.2-.1-.2-.1 0-.2.1-.3.1-.4 0-.4-.1-.8.1-.9-.1-.1-.1-.3-.2-.5.3-.3.1-.9.1-1.3.2-.5.4-1 .3-1.5 0 0-.1 0-.2-.1v-.3c.3-.1.2.3.3.3 0-.5.2-.7.4-.9 0 .1.1.2.3.2 0-.1.1-.1.1-.2-.1-.3-.1-.6-.1-1-.2 0-.1.3-.3.3-.2-.3-.4-.9 0-1 .1.1.1.4.3.4-.1-.3.2-.5 0-.6 0 .4-.1 0-.3.1 0-.3.2-.3.3-.4.1-.1.3-.1.3-.4 0-.2-.2-.1-.2-.4 0-.3.3-.2.3-.6-.1-.1-.2-.3-.4-.3 0-.2.1-.4.2-.5v-.4s.1 0 .1-.1c0-.2.1-.2.2-.3l.1-.3v-.6c-.1-.2-.3.2-.3-.2.2 0 .2.2.4.1.2-.2 0-.3 0-.6.4.3.4-.5.4-.9 0-.2.2-.2.3-.4-.1 0-.2.1-.3.1-.1-.2-.3-.5-.1-.7.2 0 .2.1.3.2 0-.4-.1-.9.1-1.1-.1 0-.2-.1-.3-.2.2 0 .2-.3.3-.4 0-.1.2 0 .2-.1v-.8c0-.1.2-.2.2-.3 0 0-.2-.2-.1-.3.1 0 .2 0 .3-.1.1-.4-.2-.7-.2-.8 0-.1.3-.3.2-.5h-.3c0-.4.1-.7.2-.8 0-.1 0-.2.1-.3.1-.1.2-.1.3-.2v-.2s.1-.1.2-.1c.1-.1 0-.3.1-.3v-.6c-.1.1-.4-.2-.2-.2 0 .1.1.1.2.1.2-.2-.1-.3 0-.6h-.3c-.1-.5.2-.5.3-.9-.1-.2-.1-.3 0-.4-.2 0-.3 0-.3-.2.2 0 .4-.1.4-.2-.1-.3 0-.5.1-.5v-.2c0-.1.2-.1.2-.2s-.1-.1-.1-.1c-.1-.3.1-.8.1-.8.1-.5-.2-.4-.2-.7.2 0 0-.5.2-.5-.1-.1-.1-.4-.2-.5.3-.3 0-.5.1-1-.1-.1-.2-.1-.3-.2.1 0 .3-.8.2-1 0 0-.2 0-.2-.1.3-.2.1-.9-.1-1.1.2-.4 0-.8 0-1 0-.1-.1-.1-.1-.1-.1-.3 0-.6-.1-.7-.1-.2-.1-.3-.1-.5 0-.1-.1-.1-.1-.1 0-.2.3.2.2-.2 0-.1-.1-.1-.3-.1.1-.6-.1-.8-.1-1.3-.1 0-.2 0-.2-.1s-.1-.2 0-.2c0 .1.1.1.1 0 0-.6-.1-1.4-.2-1.7-.1-.5.1-.7.1-1 0-.1-.1-.1-.1-.2s-.1-.1-.1-.1v-.5H33c-.1-.2-.1-.6 0-.7h-.3c0-.2.1-.2.2-.3.1-.5-.2-1.2 0-1.7-.1-.2-.2 0-.4.1-.1-.4.3-.2.3-.4.2-.4 0-.9 0-1.2 0-.3.2-.3 0-.4-.1-.1.1-.6-.1-.5-.2.2-.5-.2-.6.2-.2-.1-.4-.1-.6-.2-.1.2-.2.2-.3.4-.1.1 0 .5-.3.4 0-.3.3-.2.2-.6-.2-.2-.2 0-.4 0 0-.4-.3-.1-.4-.1-.1 0-.3-.1-.3-.1-.1 0 0 .3-.2.1 0 0-.6.2-.5.2 0 0 0-.2-.1-.1 0 .1-.1.1-.1.2-.3.1-.2-.3-.4-.2-.2 0-.3.2-.4.2-.1-.3-.3-.1-.3-.1-.4.1-.3-.2-.5 0h-.2c-.4.1-.8 0-1 .1.1.2-.1.6-.2.3.1 0 .1-.1.1-.2-.2 0-.2-.1-.3-.1-.2.2-.1.7-.3.8-.1.1 0 .4 0 .5 0 0-.1 0-.1.1-.1.4 0 .6-.1.8-.4 0-.2-.4-.2-.6-.1 0-.1-.1-.1-.2-.3.1-.1-.4-.3-.4-.1 0-.1.2-.3.2-.2-.2-.1-.5-.4-.5-.1-.3.1-.4.1-.6-.1 0-.1.1-.3.1 0-.3.2-.3-.1-.4-.2-.1-.3.1-.3.2.1-.1 0 .3 0 .2h.1v.2c0 .1 0 .1.1.2-.2 0-.2.4-.3.5 0 .1-.2 0-.2.2s.2.1.3.2c.1.1 0 .3.1.3.1-.2.2-.2.3-.3.1-.1-.1-.4.2-.3.3.2-.1.5-.1.7 0 0 .1.1.1.2l-.1.1c0 .1 0 .1-.1.2 0 .2-.1.3 0 .3.1-.1.2 0 .3-.1.2-.2.1-.6.3-.6.2 0 0-.8.4-.6 0 .1.2.4 0 .4 0 .4-.2 0-.3.2.1.5-.2.6-.3.9.2.2 0 .7 0 .9h-.4c0-.2.4-.5.1-.7-.3.2-.5-.2-.9-.1-.1-.5-.1-.6.2-.9-.2 0-.2-.2-.4-.2v.2c-.1-.1-.4 0-.5-.1-.1-.1 0-.4-.2-.3 0 .2-.1.2-.3.2-.1-.1 0-.4-.2-.4-.5 0-.6-.3-.9-.5 0 .2.1.6-.2.5 0-.1 0-.2.1-.3-.1-.1-.4 0-.3-.4-.1 0-.1.1-.3.1-.1-.1-.1-.3-.1-.5-.4.1-.3-.3-.5-.4.2.1-.4 0-.3-.1-.1.1-.3.2-.4.2 0 0-.1-.1-.2-.1v.1c-.1.1-.4-.1-.4-.1s-.1.1-.2.1-.1-.1-.2-.1-.1.3-.3.2c0-.1-.2-.1-.3-.2-.2.2-.6 0-.7.1-.2.2-.2-.1-.3.1H16c-.4.1-.6 0-.8.1-.3.1-.3 0-.4 0-.3-.1-.2.2-.3 0 0-.1-.1.1-.1.1-.2 0-.3-.2-.4-.2-.4 0-.3.2-.5 0s-.3.1-.4-.1c-.1-.2-.6.1-.8 0 0-.3-.2-.1-.3-.2-.1-.1-.2-.5-.5-.3 0-.1-.1-.2-.2-.3-.1 0 0-.3-.2-.3-.2.3-.4 0-.5-.1 0 0 0 .1-.1.1 0 0-.1-.2-.2-.1-.2.3-.2.1-.4.1v.1s-.6.1-.5.1c0 0 0-.1-.2-.1-.1 0-.2.2-.3.2 0-.5-.6-.2-.8-.4-.3.4-.8.3-1.1.2-.1.4-.5.1-.8.2-.1 0-.2.1-.3.1-.2 0-.3-.2-.4-.2v-.6c.1-.1.2 0 .3-.1v-.2H6c.1-.2.7-.1 1.1-.1.1 0 .1-.1.3-.1.4 0 .9 0 1-.4-.1-.2.1-.6-.1-.9.1 0 .1-.2.1-.3.1-.1.5 0 .6-.2 0-.2-.1-.3 0-.3.4.5 1.3-.1 1.7.1 0-.1-.1-.1-.1-.3 0-.1.2-.2 0-.3-.3-.1-.2.3-.4.2 0-.1-.1-.2-.3-.2-.2.1-.3-.1-.3.1v.4c-.3.1-.1-.5-.3-.4-.2 0-.3-.2-.4-.2 0-.4.2-.5.3-.7-.3-.3-.5-.1-1-.2-.1-.2.2-.4 0-.5-.2 0-.3.3-.5.3-.1-.3-.2-.5-.5-.3-.1-.2-.1-.5-.3-.6-.3.1-.2-.3-.4-.2 0 .2 0 .4-.2.3.1-.5-.1-.4-.3-.3-.1-.3-.2-.5-.3-.6 0 .4-.2.1-.3 0-.2.2 0 .8-.3.7v-.4c-.2.3-.2-.3-.6-.2-.1-.2-.1-.4-.3-.3 0-.3 0-.5-.2-.5-.1.1-.2.2-.3.2.3-.6-.4-.8 0-1.1 0 .1.1.1.2.1 0-.2.2-.3.3-.4 0-.2.1-.6-.1-.6-.1 0-.1.2-.3.2 0-.4 0-.4-.3-.3 0-.4-.1-.5-.3-.6.1 0 .2.2.3 0 0-.4-.1 0-.3-.2v-.4c-.2.1-.2-.2-.3-.2-.1-.1-.1.1-.1.1-.1 0-.1-.1-.1-.1-.1 0-.2.1-.3.1-.1 0-.1-.2-.2-.2s-.1.2-.3.1c0 0 0-.1-.1-.1 0 0-.1.2-.3.1-.1-.4.4 0 .3-.4h-.3c.1-.3 0-.6.2-.8.1.1 0 .5.2.5-.8 2.7-1.2 2.2-.9 2.1.1.3.2-.1.3 0-.1-.4.3-.1.3-.5-.2 0-.3-.2-.5 0 .1-.6-.5-.4-.3-1 .3-.2 0 .4.3.3.3.1.3.1.6-.1.1.3.3 0 .5.2 0 .2.1.2.1.4-.3.2-.2.1-.2.3.1.4-.3.1-.2.4.1 0 .1-.1.3 0 .1-.2 0-.3.1-.4v-.2c0-.1.2-.1.1-.3.1 0 .2 0 .3-.1 0-.3-.4-.1-.3-.5.3.2.6.4.9.2.2.1.2.3.5.2-.1-.3 0-.2 0-.4 0-.1-.1-.4.1-.5 0 .1.1.2.2.2-.1-.3.1-.3.2-.4-.2-.1-.1-.2-.1-.4-.2.3-.2-.3-.4 0 0-.3 0-.6-.2-.6.1.4-.4.1-.3.5-.4 0-.3-.5-.4-.6 0 0-.1-.1-.2-.1v-.2h-.2c-.1-.1 0-.3-.1-.3 0 .1-.1.2-.2.3-.2-.4 0-.6-.2-.9-.1 0-.1.2-.2.3-.4 0-.4-.4-.8-.3.1.4 0 .3-.2.6-.1.1 0 .4-.3.3-.2-.2.1-.4.3-.6-.1-.4.1-.4.1-.8.4-.1.2.4.5.4 0-.3.2-.3.2-.6.3 0 .4-.2.7-.1-.1.5.2.5.4.6.1.3-.3.3-.1.4 0-.1 0-.1.1-.1.1-.1 0-.1.1-.2 0-.1.2-.2.2-.4v-.7c.3.1.4-.1.6-.1 0 .3-.2.9.2.9 0 .3-.2.3-.2.6.1 0 .3 0 .3-.1h-.2c0-.2.1-.3.1-.6.2-.1.2-.3.3-.5.2-.1.3-.3.4-.4 0-.1-.1-.1-.2-.2.1 0 0-.1.1-.2 0-.1.2-.1.2-.2s-.2-.1-.2-.2c0 0 .3 0 .2-.2-.1 0-.1-.1-.2-.1-.2.2-.5.4-.5.7 0 .1.1.1.2.2-.2 0-.1.3-.3.2-.1-.1 0-.5-.2-.5-.1 0-.3.1-.5 0 .1-.2-.1-.2-.1-.5.2 0 .2.1.3.1 0-.2.1-.7-.1-.7 0 .1-.1.1-.2.2v.2c-.1.1-.2-.1-.3.1 0 .2-.3.1-.3.3 0 .5-.2.6-.2 1.1-.3.1-.2-.4-.5-.3 0 .1 0 .2-.2.2-.1-.3.2-.4 0-.5 0 .1-.1.2-.2.3 0-.4.1-1-.1-1.2.3.1.2-.4.3-.5.1 0 .2 0 .3-.1.3-.4.1-1.4.8-1.4.2.3.4.2.4.4-.1.1-.3 0-.3.3 0 .2.1.3.2.4.1-.2.3.1.3-.2V88c0-.1-.1 0-.2-.1 0-.1-.1-.4-.1-.5 0-.1.1-.3.1-.5s-.1-.3-.1-.4c0-.1.1-.1.2-.2s0-.3.2-.3c.2.2.3.6.7.5 0 .3-.1.3-.2.5-.2.1-.5 0-.7.2.1.2.2.3.3.5 0 .2-.4.7-.1.9.1-.1 0-.4.2-.4 0 .3-.1.9.2.9.1-.2.3-.4.4-.5v-.2c.1-.1.3.1.3-.2.2 0 .4 0 .5.1-.1-.4.3-.1.3-.3 0-.2-.4 0-.3-.3.1 0 .2 0 .2-.2s-.2-.1-.3-.2c0-.1 0-.2-.1-.2 0-.1-.1-.5.1-.5 0 .2.1.3.3.3.1-.1.3-.1.4-.2 0 .1.1.2.3.2v-.4c-.3.1-.1-.3-.3-.2.2-.5-.1-.4 0-.7.2 0 .3.2.5.2-.2-.2 0-.4 0-.6h-.1c-.2-.2.1-.6 0-.6-.1-.1-.2-.1-.4-.1 0 .3-.2.3 0 .5-.3.1-.3-.2-.4-.2 0 0-.1.1-.2.1h-.3c0-.1-.1-.2-.2-.3-.1 0-.1.1-.2.2s-.2 0-.3.1c-.2-.4 0-1 .2-1.1.4 0 .6.1.8.2.2.1-.2.5.2.6 0-.1 0-.2.1-.3.2 0 .2-.1.3-.2 0 .2.1.3.2.3l.3-.3v-.3c0-.1.3 0 .2-.2.2 0 .2.1.3.2 0-.2.3-.4.1-.5-.1 0-.1.3-.3.2-.1-.4-.2-.6-.3-1 .3.2.2 0 .3-.1.1-.1.3 0 .3-.1-.1-.2-.2-.3-.3-.5.1 0 .2-.1.2-.3-.2.2-.2.2-.3.1-.1 0-.2.1-.3.1 0 0 0-.2-.1-.1-.1-.3.2-.2.3-.4 0-.4.2-.5.3-.6-.1.3-.1.4.1.6.3-.1 0-.2.1-.5.4-.2.4.1.5-.2-.2.3-.2-.1-.3-.1-.1 0-.1.1-.2.1-.1-.1 0-.3-.2-.3l-.1.2c-.2.1-.3-.3-.4-.1.1.4-.2.2-.3.4-.1.4.2.3.2.6-.3-.1-.2.3-.4.2-.1-.2-.1-.5-.3-.6.1 0 .2-.1.3-.2-.1-.6.2-.9.2-1.4H6c-.1-.3.2-.4.2-.6 0-.1-.2-.1-.2-.3.1-.2.4 0 .4-.2 0-.4.2-.6.1-1 .1 0 .3 0 .3.1.1-.2.3-.3.3-.5 0-.1-.1-.2-.1-.3.1-.3.2-.4.3-.6 0-.1 0-.2.1-.3.1-.1.2-.1.3-.2.1-.1.2-.4.3-.5v.1s.2-.2.3-.2v-.2c.1-.1.4-.1.3-.3h-.5c-.1-.3.1-.3.1-.5 0-.1-.2-.1-.2-.3 0-.1.1-.2.2-.4-.2-.3.1-.7.1-1.1h.5c.1-.3.2-.5.3-.8-.2-.4-.2-.6-.2-.9 0 0-.1-.1 0-.1v.1zm25 137.1c.3-.1-.1-.3-.1-.4-.3.1.1.2.1.4zm-.9 7.5v.4c.3 0 .3.4.5.5 0 .1-.2.1-.3.1 0 .3 0 .6.1.7.1-.1.3-.2.3-.5s.1.1.3 0c0-.5-.2 0-.3-.2.1-.3.2-.4.3-.7-.1 0-.2.1-.2.2-.3-.1 0-.9-.4-.8-.2.2.1.2.1.5-.3.1-.1-.3-.4-.2zm9.8 9.6c0 .2.1-.1.3 0l.1.2c.1-.1.1-.2.2-.4-.2 0-.3 0-.3-.2-.2-.1-.1.3-.3.4zm22.7-1.8c-.3.1-.3.3-.1.5.2-.1.2-.4.1-.5zm1-2.1v.2h.2v-.2h-.2zm-1-91.5c0-.5-.2-.1-.4-.3-.1 0 0-.2-.1-.2-.1-.1-.3 0-.3-.2-.3.2.2.5.2.7 0 .1.1.3.3.3 0-.5 0-.5.3-.3zm.7-1c0 .2.1.2.2.2 0-.1 0-.1.1-.1-.1-.1-.2-.1-.3-.1zM2.1 96.7v.4c.3.1.3-.4 0-.4zm.3-.7c0 .2.1.2.3.2 0-.1 0-.2.1-.2-.1-.3-.3-.1-.4 0zm1.7-3.3c.3 0 .3-.3.2-.4-.2 0-.3.2-.2.4zm.4-3.7c.4 0 .2-.4.2-.7-.2.2-.2.5-.2.7zm.6 1.7c-.1 0-.1.1-.1.2v.3c.2 0 0-.4.1-.5zm.2-2.9v.2c.3 0 0-.8 0-.2zm.3.3c.2 0 .2-.2.3-.4-.2.1-.3.1-.3.4zm1-8.9c.4.1.4-.2.5-.4.1.1.2.1.4.1-.3-.5.5-1-.2-1.1 0 .2.1.2.1.4-.1.1-.2.2-.3.2-.1 0-.1-.3-.1-.4 0 .1 0 .2-.1.3 0 .1-.2.1-.3.2 0 .2.1.5 0 .7zm1.2-1.6c0-.4-.2-.8.2-.9-.1-.3-.2-.4-.5-.4.1.5-.3 1 .2 1-.1.2-.1.3.1.3zm.3 26.7c0 .1.1.1.1.2h.2c0-.2 0-.3.2-.3-.1-.3-.3.1-.5.1zm.3.3c.1.4.3.1.4 0 0-.3-.4-.1-.4 0zm.5-.2c-.1.4.4.1.6.2.1 0 0 .2.1.2.1.1.1-.1.2-.1s.1.3.3.2c0-.5-.5-.3-.5-.7-.4-.1-.4.2-.7.2zm1.6 4.3c.3-.3-.3-.4 0 0zm.2-.2c0 .3.4.1.4.3.3-.2-.4-.5-.4-.3zm10.4.4v.3c.2 0 .4 0 .3-.3h-.3zm.4 1.5c.2 0 .2-.3.3-.4.3.1.3-.2.4-.2-.1-.4.2-.6-.1-.7-.3 0-.3.4-.3.7 0 .2-.1 0-.2 0 0-.2-.1 0-.2 0 .1.1.1.4.1.6zm2.7-.4c-.2 0-.1.5.1.3v-.2c-.1 0-.1 0-.1-.1zm.3.2c.1 0 .2-.1.2-.3-.2.1-.2.1-.2.3zm3-15.2c0 .2 0 .3.2.3V95h-.2zm.3.4c0-.1.2-.2.3-.2-.1-.1-.4-.1-.3.2zm.6.4c.2 0 .2-.4.2-.7-.3.1-.5.5-.2.7zm.6-.1c.2-.3 0-.3.1-.6-.4-.1-.6.7-.1.6zm2.5 46.8v.2c.2 0 .2-.1.2-.3-.1.1-.1.1-.2.1zm.8 43.6c-.2.1 0 .4 0 .6.2-.1.1-.6 0-.6zm.5 9.2c.1-.1.2-.1.3-.1 0-.5-.4-.2-.3.1zm.5-64.5c0 .4.2-.2.1-.3-.1-.1-.1.3-.1.3zm.1-.7c.3-.3-.3-.4 0 0zm.2 81.7c.1 0 .1-.2.1-.3 0-.2.2-.3.1-.4-.3 0-.4.5-.2.7zm-.1 6.7c0 .2.1.2.1.1.2.1.1.5.4.4 0-.1.1-.1.2-.1 0-.1-.1-.2-.1-.3-.3.2-.3 0-.6-.1zm.3-3.9v.2h.2v-.2h-.2zm0 3.3v.5c.3.1.1-.3.2-.5h-.2zm.2-7.2c.1.4.5-.1 0 0zm.1-1.2c0 .1.1.2.3.2 0-.3.2-.3 0-.5-.2 0 0 .5-.3.3zm.2 1.1c.1-.1.2-.2.2-.4-.3-.2-.2.2-.2.4zm.2-2.5c-.2 0-.1.5.1.3v-.2c-.1 0-.1 0-.1-.1zm-.1 12.1c-.1.3.2.2.2.4.1 0 0-.5-.2-.4zm.1 2.5c.2-.2-.3-.4 0 0zm0-.6v.2h.2v-.2h-.2zm.4-2.7c.2.3.3.5.4.8.1-.1.1-.4.3-.4.1 0 .1.2.1.3.2.1.3-.5 0-.4.1-.1.2-.1.2-.3h-.4c0 .2 0 .4-.1.4-.2 0 0-.4-.1-.6-.2.1-.2.2-.4.2zm.5-.6v-.6c-.3-.1-.1.2-.2.4-.2 0 0 .3.2.2zm.2-.2c-.1.3.4.3.3 0h-.3zm.5-.4c-.4.3.2.3 0 0zm-.1 1c0 .2.1.2.3.2-.1-.2-.2-.4-.3-.2zm.4-4c0 .2.1.2.3.2.1-.3-.1-.2-.3-.2zm1.4 3.3c.2 0 0-.6.3-.5 0-.3-.3-.2-.3-.6-.3 0-.5.1-.5.4-.1.3.3.1.3.4 0 .1-.2.1-.3.2 0 .1.1.1.1.1-.1.1-.1.2-.3.2 0 .2 0 .4.2.4-.2.3-.2.7.1.9 0 .2-.1.2-.1.3-.1.1-.2.1-.2.3.2 0 .2-.4.4-.5-.1-.4-.2-.9-.2-1.4 0-.1.1-.1.1-.2.2.1.3-.3.4 0zm-.6 3c.1.2.3-.2.4-.2v-.4c-.1 0-.2 0-.3-.1-.2.1-.2.4-.3.6h.2c.1.1 0 .1 0 .1zm0 .6c0 .3.2.3.2.6.3-.1 0-.4.2-.7.1.1.2.1.2-.2-.4-.1-.3.3-.6.3zm.3 1.3c.4-.3.2.4.3.6.3 0 .5-.6.6 0 .3-.1.4-.3.3-.8-.5.1-.2-.5-.3-.6-.2.2-.1.5-.1.8 0 .2-.2.2-.3.3-.3-.2.1-.5 0-.7-.2-.2-.6 0-.5.4zm.3-6c.3-.3-.1-.7 0 0zm.2 1.3c.1-.1.2-.2.2-.4-.3-.1-.2.2-.2.4zm.3-1s-.1.1-.1.2c.1.2.3-.6.1-.2zm0 2.8c.3.2.1-.4.3-.3-.1-.2-.4.1-.3.3zm.1 1.9c.1-.1.2-.3.2-.5-.4-.1-.4.3-.2.5zm0-1.4c.1 0 .1 0 .2.1.3-.1.1-.3.1-.5-.1 0-.3.1-.3.4zm2.1.1c-.1.1-.2.1-.2.3.3-.3 0 .3.3.2 0 .3-.1.6-.3.6 0 .3 0 .6-.2.7 0 .2.2-.1.3-.2.1 0 .1.3.1.4 0-.1.2.3.1.5.2 0 .2.4.3.5.3.1.2-.2.2-.4h-.3c.1-.2.1-.5-.1-.6 0-.1.1-.1.2-.1.1.2-.1.5.3.5.1-.2.2-.5.2-.9.2 0 .3 0 .3.2.2-.1-.1-.3 0-.5-.3 0-.5 0-.6-.2-.2.2.1.3-.1.5-.1-.1-.1-.2-.3-.2.2-.3.2-.8.3-1.1 0-.2-.1-.3-.2-.4.1-.1.2-.2.2-.6.1 0 .2.1.2.3.2.1.2-.2.3-.2 0-.2-.1 0-.2 0 0-.2-.1-.4-.2-.6-.2.4-.4-.2-.6.1-.1 0-.1-.3-.1-.4-.3.1-.1.3-.1.5-.1-.1-.1-.2-.3-.2-.1.2 0 .5-.3.6.1 0-.2-.1-.2 0 0 .3.2.2.4.5.1 0 0-.1 0-.1.4-.3.7 0 .6.3zm-.5-1.7c.1-.1 0-.2 0-.3-.2.1 0 .6.2.5 0-.2-.1-.2-.2-.2zm0-4.2c.1 0 .2-.2.2-.4-.1 0-.1.2-.2.4zm.6 1.1c0 .2 0 .3.2.3v-.3h-.2zm.8 4.9v.2c.1 0 .1-.1.3-.1v-.2c-.2-.1-.2.1-.3.1zm.1-217.3c.2-.1.3-.4.7-.3-.1-.2-.3-.5-.3-.1-.3 0-.4.1-.4.4zm0 215.8c0 .1.1.2.3.2 0-.3-.2-.3-.3-.2zM42.7 3.2v.3h.3c-.1-.2-.1-.3-.3-.3zm.3 219.5c0 .1.1.1.1.2.2 0 .1-.5-.1-.2zm0 1c.2.3.5-.2.4-.5-.4-.1-.2.4-.4.5zM44.4 2.2c-.1-.2-.1.1 0 .1-.1.1-.1.4-.2.5-.1-.1-.1-.2-.3-.2-.1 0-.1-.1-.1-.2-.2.1-.1.6-.2.6 0 .2.7 0 .8-.2.2-.2.1-.4 0-.6zM44.3 4v.2c.2 0 .2-.1.2-.3-.1 0-.1.1-.2.1zm3.5.7c-.3-.2-.1.4-.3.3 0 .1.3 0 .3.2.2 0-.1-.2 0-.5zm.6 1v.2h.2v-.2h-.2zm.2-.1c.2 0 .1-.4.3-.4-.2-.3-.4.1-.3.4zm.5-.5c0 .5.3 0 .5.1 0-.3-.2-.3-.3-.3 0 .2-.1.2-.2.2zm1.7 217.1v.4c.3.1.2-.2.2-.4h-.2zm2.8 1c.1 0 0-.3.2-.3-.1-.2-.3.1-.2.3zm.2-215.9c.2-.1.4-.4.2-.6-.3 0-.2.3-.2.6zm0 215.2c-.1.3.1.4.2.5.1.1.1-.6-.2-.5zm.7 1.8c.3-.3-.3-.5 0 0zm.1-.9c.3 0 .1-.3.1-.4.1-.3.2-.4.3-.7-.3.2-.6.7-.4 1.1zm.1 1.2c.1 0 .1-.1.3-.1.1 0 .1.1.1.2.2 0 .3-.1.4-.2.1-.3-.3-.1-.2-.4-.1-.1-.3.1-.3.2-.2 0-.4 0-.3.3zm0 2.2c0 .3.3 0 .3 0 0-.3-.1-.3-.2-.5-.2 0 .1.6-.1.5zm.3-1.3c0 .1.2.1.3.1.1-.1.1-.3.1-.5-.4-.2 0 .5-.4.4zm.5-2.9c0 .2.1.2.1.3 0 .3-.2.7.2.6-.1-.3.2-1-.3-.9zm1 .8c-.1.3.1.3.1.5.2.1.3-.7-.1-.5zm.2-1.9v.2h.2v-.2h-.2zm.4-.3v.2c.2 0 .2-.1.2-.3-.1 0-.2.1-.2.1zm0 .3c0 .2.1.3.3.3v-.3h-.3zm.2-2.3c0 .2.1.2.2.2 0-.1 0-.1.1-.1-.1-.1-.2-.1-.3-.1zm.2-.5c0 .2.1.2.3.2 0-.3-.2-.3-.3-.2zm.3.8c.2 0 .3-.1.3-.4 0 .2-.3.1-.3.4zm.4-1c0 .2.1.2.1.3.2 0 .4-.1.5-.2-.2-.2-.4.1-.6-.1zm0 1.1c0 .1.1.1.2.1.1-.1 0-.2 0-.3-.2 0-.1.2-.2.2zm.3-1.9c0 .2.5.2.3-.1-.1-.1-.2 0-.3.1zm.3.8c0 .1.3 0 .3.2.2-.1 0-.5-.2-.4 0 .1 0 .2-.1.2zm.1-.8c.1.2.2.4.4.3 0-.2-.2-.3-.4-.3zm.2 1.4c0 .2.4.1.3-.1h-.2c0 .1-.1.1-.1.1zm.2-1.7c-.1.3.2.2.3.2 0-.2-.2-.3-.3-.2zm.1.8c-.1 0-.1.3 0 .3.2.1.2-.4 0-.3zm.7-.1c-.2 0 0 .4-.1.5.2-.1.5-.1.6-.3.2.1.2.2.4.3.3-.1-.3-.1-.2-.4-.1 0-.1-.1-.3-.1-.1 0-.3.5-.4 0zm.3 2.1v.5c.3.1.4-.6 0-.5zm.4-209.1v.7c.1-.1.1-.3.2-.1.1-.1.1-.7-.2-.6zm0 209.3c.3.1.3-.1.5-.1 0-.2-.4.1-.3-.3.1-.3.2.1.3 0 0-.2.1-.3.2-.3-.2-.3-.4.3-.7 0 .2.4 0 .4 0 .7zm1 0c-.1.1-.1.4-.1.5l.2-.2s-.1-.1-.1-.3zm.4-75.4s.1.3.2.3.1-.3-.2-.3zm.4 2.9v.2h.2v-.2h-.2zm.7-1.3c-.2 0 0 .3 0 .4.1 0 .1-.1.2-.1v-.2c-.1 0-.2-.1-.2-.1zm.2 1.7c.2-.1.2.1.4.1-.1-.2-.2-.3-.3-.5-.1.1-.1.2-.1.4zm.1 1.5c-.1 0 0 .1 0 .1.1.2-.1.7.2.6 0-.3-.1-.5-.2-.7zm0 64.9c-.2.1.1.4.1.6.2-.1.3-.3.3-.6-.2.1-.3.3-.4 0zm.2 5.5c-.2.1.1.5.3.4.1-.3-.3-.1-.3-.4zm.1-70.9c-.2 0-.1.5.1.3v-.2c-.1.1-.1 0-.1-.1zm.6 67.7c-.1.1-.5.7-.5.1-.3.1 0 .5.3.5.1-.1 0-.3.2-.3.3.2-.2.3-.1.6.2 0 .2-.3.3-.4-.1-.1-.3-.1-.2-.5zm-.3 1.2c.1.2.1.5.4.4v-.3c-.2-.1-.2 0-.4-.1zm.1-84.6c.2 0 .4 0 .4-.3-.3 0-.5 0-.4.3zm0 14.8c0 .2.2.1.3.3 0 .2-.1.2-.2.2.1.4.5-.2.5.1.1-.1.2-.4.2-.6-.2 0-.3 0-.4.1-.3-.1-.3-.3-.4-.1zm0 1.2c-.3.1.1.2.1.3.3 0-.1-.1-.1-.3zm.1.6c0 .3 0 .5.1.6.1-.1.4-.8-.1-.6zm.1-19c0 .5.5-.1 0 0zm0 27.4c0 .1 0 .2.1.3l.2.2c.1 0 .3-.3.4-.1 0-.1.1-.1.1-.2.2 0 .1.3.2.4.2 0 .2-.6-.2-.5-.1-.3.2-.2.2-.5-.1 0-.2-.1-.2-.2-.2.1-.2.3-.3.5-.1-.1-.3-.2-.3-.3-.3-.1 0 .5-.2.4zm.2-29.2c-.2 0-.1.5.1.3v-.2c-.1 0-.1-.1-.1-.1zm.1.4c-.1 0 0 .1 0 .1 0 .1-.1.3-.1.4 0 0 .3 0 .2.2 0 .3-.3 0-.3-.1-.3.3.1.4.3.5.1.1.2.3.3.3 0 .1-.1.1-.1.2 0 .2.1.1.1.2 0 .2-.1.6.2.4-.2-.2.1-.3-.1-.5 0-.2.2-.1.2-.4-.2-.1-.1-.6-.3-.6.1-.3-.1-.4-.1-.6-.1 0-.2 0-.3-.1zm-.2 15.6c.1.2.6.2.5-.2h-.3v-.3c-.2.1-.2.3-.2.5zm0 75.6c0 .3.3.2.5.2-.1-.4-.3-.1-.5-.2zm.2-2.6c-.2-.2 0-.5 0-.4-.1-.4-.3.4 0 .4zm0-84.8c.2 0 .2-.3.2-.6-.2.1-.3.3-.2.6zm0 12.3c-.1 0-.1.3-.1.4.2 0 .4 0 .3-.3 0-.2-.1.2-.2-.1zm.1-18.1c-.1 0-.1.3 0 .3.2.1.2-.3 0-.3zm-.1 6.2c0 .3.3 0 .3-.2-.1 0-.1.2-.3.2zm0 2.3c0 .3 0 .4.3.4 0-.3 0-.5-.3-.4zm.6 6.5c0 .2-.1 0-.2 0s-.1.1-.2.1l.2.2c.1 0 .1-.1.2-.1s.1.2.1.2c.1 0 .2-.1.2-.1.2.2.1.3.2.5 0 .1.1.1.2.1.1.1 0 .4.1.5.3-.2.5-.1.5.3.3.1.2-.3.5-.2v-.2c.2.1 0 .6.2.7.3-.1.1-.6 0-.9-.2.1-.5 0-.6.2-.1-.1.1-.2-.1-.4v-.7c-.1.1-.1-.1-.2-.1s-.2.1-.2.1c-.3-.1-.4-.4-.6-.2-.1 0-.2-.1-.2-.3 0-.3.1.1.3 0 .1-.4-.2-.5-.3-.2-.2-.1-.2-.4-.2-.7-.3.1-.3-.2-.5 0 0 .2.1.3.2.4.2-.1.3 0 .3.3-.2 0-.4 0-.3-.3-.1.1-.2.2-.2.4.1.1.3.1.5.1 0 .2 0 .3.1.3zm-.6 71.5c0 .2 0 .4.3.4-.1-.4.1-.4.1-.7-.2 0-.1.4-.4.3zm.1-99.1v.2h.2v-.2h-.2zm.1 25.9s-.1 0 0 0c-.1.4.3 0 .2-.1l-.2.1zm0-19.1c0 .1.1.1.1.2.2 0 .1-.5-.1-.2zm0 18.2c0 .2.1.2.1.4.2 0 .2-.5-.1-.4zm.1 10.1c-.1 0 0 .1 0 .1v.6c.1.1.3.2.3.4.3-.1 0-.4.1-.7-.1 0-.1.1-.2.2-.1-.2-.1-.5-.2-.6zm.1-30.5c.3-.3-.3-.5 0 0zm0 2.9c-.3.2.2.2.1.5.1 0 .1-.2.2-.2.2 0 .5.3.4-.2-.4-.1-.6.3-.7-.1zm0-3.5c0 .1.1.2.3.2 0-.2-.1-.2-.1-.3-.1 0-.1.1-.2.1zm0 1.6c.1-.1.2-.3.2-.5-.2.1-.2.3-.2.5zm0 13.1v.2h.2v-.2h-.2zm0 10.1c.1.2.3-.2.3.4.1-.1.1-.1.3-.1 0-.4-.2-.6-.4-.6-.1.1-.1.3-.2.3zm0 1.3c-.1.3.4-.1.3.2.1 0 .1-.3.1-.4-.3-.1-.3.2-.4.2zm.1-30c.1.6.4-.4 0 0zm0 8.1v.3h.4c-.1-.2-.2-.3-.4-.3zm0 .6c0 .3.2.4.3.2-.1-.1-.2-.2-.3-.2zm0 2.9c.1-.1.1-.1.3-.1 0-.1-.1-.2-.2-.3 0-.1.1-.1.1-.2-.2-.3-.3.3-.2.6zm0 9.4v.2h.2v-.2h-.2zm0 23.5v.2c.2 0 .2-.1.2-.3-.1 0-.1.1-.2.1zm0 61.7v.2h.2v-.2h-.2zm.1-100.3c0 .2.1.3.3.3-.2-.1-.1-.3-.3-.3zm0 39c-.2 0 0 .5.2.4 0-.1-.1-.2-.2-.4zm.1 62.2c.2.1.1-.2.3-.2.1 0 .1.2.1.3.1 0 .1-.2.2-.2 0-.4-.3-.4-.4-.6-.3 0-.5.6-.2.7zm0-60.2c.1.1.2-.4.3-.1.2-.2 0-.6-.3-.5-.1.3-.1.3 0 .6zm0 52.3c.3-.3-.3-.4 0 0zm-.1 1v.2h.2v-.2h-.2zm.1-97.1c-.1.3.2.2.3.2 0-.2-.1-.3-.3-.2zm.1 1.5c-.2 0 0 .5 0 .5.3-.1 0-.3 0-.5zm-.1 12.3c0 .2.1.3.3.3v-.3h-.3zm0 84.8c0 .4.2.3.4.2 0-.2-.2-.3-.2 0 0 0 0-.2-.2-.2zm.3-99.6c-.1.3.2.2.2.4.1 0 .1-.3.1-.4h-.3zm0 6.1c0 .1.2.1.3.1 0-.2-.2-.2-.3-.1zm.2 49.2c0-.2-.2-.2-.1-.5-.2 0-.1.5.1.5zm-.1-35.1c0 .1-.1.5.1.5.3.1.1-.7-.1-.5zm0 30.3c0 .2 0 .4.1.5.2 0 .1-.6-.1-.5zm0 7.4c-.1 0-.1 0-.1.1v2c.1 0 .1-.1.1-.2s.1-.2.1-.3v-.6c-.1-.3.3-.1.2-.4 0-.4-.2-.5-.3-.6zm0 38.6v.2h.2v-.2h-.2zm.1-101.1c-.2.1 0 .2 0 .3.2-.1 0-.2 0-.3zm-.1 9.2c.1.4.5-.2 0 0zm0 29.1c-.1.3.2.2.2.5.2.1.2-.4.3-.5.1 0 .2.1.2.1.1-.2.2-.2.2-.5-.1 0-.1.1-.3.1-.1 0-.1-.3-.3-.2.2.4-.1.4-.3.5zm.1 23.7c.1-.1.2-.4.1-.5-.3 0-.1.2-.1.5zm.1-32.7c-.3.3.3.4 0 0zm0 19.2c-.2.1.1.3 0 .5.2 0 .1-.5 0-.5zm-.1 16c.1.5.5-.1 0 0zm.1-60.5c0 .3.3 0 .3-.2-.2-.1-.2.2-.3.2zm0 98.7v.2h.2v-.2h-.2zm.1-102.1c.3.2.4.1.7.2 0-.2-.2-.1-.2-.4-.2.1-.4.4-.3-.2-.1.1-.2.2-.2.4zm0 24.6v.2h.2v-.2h-.2zm0 45.6c0 .1.1.2.3.2 0-.4-.2-.3-.3-.2zm1.1-45.3c-.3-.1-.1-.6-.3-.8-.1 0-.1-.1-.3-.1-.3-.1-.1.4-.5.3 0 .3.2.3.3.3.2.1.3.4.4.6.1 0 .3 0 .3.1 0 .2-.2 0-.2 0-.1.1-.1.7-.2.2-.2 0 0 .5 0 .5.3-.1.3-.3.6-.1 0-.3-.1-.3-.2-.5.1-.3.1-.2 0-.5 0-.1 0-.1.1-.1.3-.2 0 0 0 .1zm-1 .2c.1.3.3.5.6.3 0-.3-.5-.4-.6-.3zm0 23.5c0 .3.1.5.3.5-.1-.1.1-.7-.3-.5zm.1 11.7c-.2.1-.1.9 0 1 .1-.1.2-.4.2-.5 0-.1-.1-.1-.2-.1-.1-.1.4.1.1-.3-.1 0-.2 0-.1-.1zm0-50.4c-.1.1 0 .2 0 .3.2-.1.1-.2 0-.3zm0 90.1c.1.1.1.3.1.5.1 0 .2-.1.2-.2.1-.1.2-.2.3-.2 0-.1-.1-.2-.2-.2-.3.1-.1.3-.4.1zm0-89.5v.6c.5 0 .4-.6 0-.6zm.5 52.6c.2-.2-.1-.4-.1-.8-.4-.2-.3.8.1.8zm-.3 36.7c.3-.2-.3-.4 0 0zm0-96.6c0 .2.4.1.2-.1-.1 0-.1.1-.2.1zm.2 45.8c.2-.1 0-.6 0-.8-.4.1 0 .5 0 .8zm-.2 9.4v.2h.2v-.2h-.2zm.4-32c-.1 0-.1.2-.1.3.2 0 .4 0 .3-.3-.1 0-.2.1-.2 0zm0 34.2c-.2 0 0 .5-.1.7 0 .3.2.4.3.5 0 .2-.3.1-.2.4.2.2.4 0 .4-.2.2 0 .2.1.3.1.1-.3-.1-.2-.3-.3v-.2c-.1-.1-.2 0-.3-.1-.1-.1-.1-.2-.2-.2 0-.2.1-.3.1-.6v-.1zm0-2.2v.2h.2v-.2H67zm.4 31.8c.2-.3-.3-.6-.1-.9-.3-.1-.1.3-.2.5.1.1.2.2.3.4zm-.2 9.8c-.1 0 0 .1 0 .1-.1.5.1.7.2 1 .4-.2.1-.5.3-1-.2.3-.4.3-.5-.1zm0-11.3c.1.2.2.4.4.4 0-.3-.2-.3-.4-.4zm.1-62.6c0 .2 0 .3.2.3v-.3h-.2zm.1.5c-.2 0 0 .3 0 .4.2 0 0-.4 0-.4zm.2 37.3c.3-.4-.2-.5-.2-1-.1 0-.1.3-.1.4 0 .3-.1.7.3.6zm-.2-36.6c0 .3.1.5.3.5.2-.3 0-.4.1-.8-.3-.1-.1.4-.4.3zm0 10.6c0 .3 0 .4.3.4-.2-.1 0-.5-.3-.4zm.1 44.9v.2c.2 0 .2-.1.2-.3-.1 0-.1.1-.2.1zm.1-56.6c0 .2.1.2.2.2 0-.1 0-.1.1-.1-.1-.2-.2-.1-.3-.1zm.1 12.2c-.1 0 0 .1 0 .1v.2c.1 0 .1-.1.1-.2.3-.1.1.3.3.2 0-.1.1-.2.1-.3 0-.1-.1-.1-.2-.2s0-.5-.2-.4c.1-.4-.1-.4-.2-.6-.1-.1-.3.3-.2.4h.2c.2.2.1.6.1.8.1.1 0 .1 0 0zm-.1 27.4v.2h.2v-.2h-.2zm0 36.2c.2.1.2-.2.3-.2-.2-.1.1-.6-.3-.5.1.2 0 .4 0 .7zm.1-102.4c.1 0 .2.1.3.2.3-.1.1-.2 0-.4 0-.2.2-.1.2-.4-.3 0-.5.2-.5.6zm.2 93.3v.2c.1 0 .1-.1.3-.1v-.2c-.2 0-.2.1-.3.1zm.1-29.8v.9c.1-.1.1-.2.3-.2-.1-.3 0-.7-.3-.7zm0 31.5c-.1.3.1.3.1.5.1 0 .2.1.2.2.2 0-.1-.4-.1-.5-.1-.2-.1-.2-.2-.2zm0 .8c0 .3 0 .5.1.6.2 0 .2-.7-.1-.6zm.6-4.9c0-.3 0-.5-.3-.5-.1.1-.1.3 0 .3s.1.2.3.2zm-.3-7.1c0 .1.1.2.3.2 0-.2-.1-.2-.1-.3-.1 0-.1.1-.2.1zm0 7.5v.2h.2v-.2h-.2zm.1 3.8v.2h.2v-.2h-.2zm.3.6c.1-.2.5-.3.5.1.1-.2.3-.3.3-.7-.1.1-.2-.2-.3-.1v.2c-.2 0-.2-.1-.2-.2-.2.1-.5.4-.3.7zm0 .9v.2h.2v-.2h-.2zm.3 1.9v.4c0 .2-.3.1-.3.4.3-.1.3.2.4 0v-.7c.1.1.1.2.2.3.3-.2-.1-.5-.3-.4zm-.1-.7c.3-.3-.3-.4 0 0zm.9-.7c0 .1.1.2.3.2 0-.2-.1-.2-.1-.3-.1 0-.2.1-.2.1zm.8 2.5v.4c.3.1.1-.2.2-.4h-.2zm8.1-98.6c.1 0 .2-.1.2-.3-.2 0-.2.2-.2.3zm.2-2.3c0 .3.3.2.2.6.1 0 .2.1.3.2.1 0 0-.3.2-.3.1.2.1.5.2.7.3-.3.4.3.7.3 0-.1.1-.1.2-.1.1-.5-.3-.3-.3-.8-.1 0-.2-.1-.3-.1 0 0-.4-.1-.4-.2v-.2s-.1.1-.2.1c-.3 0-.4-.3-.6-.2zm15.9-3.3v.2h.2v-.2h-.2zm1.2-.1c-.1 0-.1.3-.1.4.2 0 .2-.3.1-.4zm3.3-4.9c0 .1.1.2.3.2-.1-.1-.2-.2-.3-.2z"/><path class="st446" d="M93.1 82.1l.2.1c.1-.1 0-.1 0-.1v-.3l-.2.3zM68.4 166.2c0-.3-.2-.3-.3-.4v-.2c0-.1-.4-.3-.1-.4.1.1 0 .4.3.3.1-.3 0-.5-.1-.7.1-.1.4 0 .4-.3 0-.2 0-.3.1-.4-.1-.2-.2-.3-.2-.6-.2 0-.4.1-.3-.2 0-.2.2-.1.3 0 0-.6.3-.1.3-.1s.1-.5.3-.3c0 .4.6.8.2 1 0-.2-.1-.3-.2-.3-.1.4-.1.7-.1 1.2.1 0 .1-.1.3-.1 0 .4.2.8.3 1.2 0 .2-.1.3-.1.4 0 .1.1.2.1.4s-.1.3-.2.3c0-.2-.1-.3-.2-.4 0 .1-.1.1-.1.3 0 .1.1.1.1.1 0 .2 0 .5.1.6h.2s0 .2.1.2v.7c.2.2.2.7.5.7.1.3-.1.3-.1.5-.1 0-.2.1-.3.1 0 .1 0 .2-.1.2-.2-.3.1-1-.2-.9-.1.1 0 .2-.2.4 0-.4 0-.9-.2-1 .3-.2.3.5.4.2-.1-.3 0-.8-.3-.8 0-.4 0-.7-.3-.8.1-.3.1-.8-.1-1-.1.1-.2.1-.3.1zm0-.1c.1 0 .1-.1.3-.1 0-.1-.2-.1-.2-.2-.1 0-.1.2-.1.3zm.5-1c-.1.3.2.2.2.4.2 0 0-.5-.2-.4zM67.1 221.4c.3 0 .3.4.7.3 0 .1 0 .2.1.2 0 .2-.2.2-.1.5-.1 0 0 .2-.1.2-.1.1-.4.1-.3.3.1 0 .2 0 .2.1-.2 0-.1.4-.3.3 0-.4.1-.9.2-1 .1-.3.2-.3.2-.6-.3.2-.5-.2-.6-.3zm.4.7c0 .2.1.2.3.2 0-.1-.1-.1-.1-.2h-.2zM16.8 110c0 .3.2-.3.3.1.1 0 .1 0 .1-.1v-.2c-.2-.1-.2.2-.4.2zM32.3 131.6c.1.3.1-.2.3-.1v-.3c-.1 0-.1 0-.2-.1-.2.1.1.4-.1.5zM43.4 226c0 .2.1 0 .3 0 .2-.3.2-.6.2-.9h-.2c-.1-.2.2-.2 0-.5-.3.2-.1.6.1.8-.1.2-.1.3-.3.3 0 .1.1.3-.1.3zM62.8 225.3s-.1-.3-.2-.3-.1.3.2.3zM64.3 224.8c0 .2.3.1.3.3 0 .4-.3.4-.5.6.2.2.5.4.8.5.1-.4-.2-.4-.3-.6 0-.1.3 0 .3-.2.1-.1 0-.1 0 0h-.2c0-.4.3-.5.4-.7-.1-.2-.1-.3-.3-.3-.1.1-.1.4 0 .5 0 .1 0 .1-.1.1-.2-.1-.1-.4-.4-.2zM64.5 224.5c.1 0 .1-.2.2-.2h.2s.1-.3.1-.2c0-.1-.2-.3-.3-.1-.2.1-.1.3-.2.5zM65.9 148.2c-.2.1 0 .1.1.2 0 .1 0 .2.1.3.1.2.3.3.3.4.2-.1-.3-.3-.2-.7.2 0 0 .5.3.3.1-.3-.1-.3-.1-.5-.2-.1-.2.1-.4.1 0 0-.1 0-.1-.1zM66.5 130.2c.2-.1.2.2.3.2-.1.2-.1.4-.2.6.4 0 .2.6.7.5-.1-.2.1-.5.2-.2.2 0 0-.5 0-.5-.2-.1-.1.2-.3.2-.2-.1 0-.4-.1-.6 0-.1-.1-.1-.2-.1-.1-.1 0-.3-.1-.4 0 0-.2.1-.3.3-.2-.2-.3-.4-.4-.7-.4.3.3.6.1.8 0 .3.2-.3.3.1v-.2zM66.9 167.1h.3c-.1-.1-.1-.4.1-.4 0-.1-.1-.1-.1-.2v-.2c-.1-.1.2-.3-.2-.4 0-.4.3-.5.3-.8h.3c-.3-.3-.1-.6-.2-1.2-.3 0-.3-.3-.7-.2v.4c.2 0 .5-.1.5.2-.1.3-.3-.2-.4.1.2.1.3.9 0 1-.3 0-.2-.4-.3-.5-.2.3.1.7.2.9.1.4-.1.4-.1.8.2.1.2 0 .4.1.1.2-.2.1-.1.4zM67 115.7s-.1 0-.1.1c.1.1.4-.9.1-.1zM68.4 157.6c0 .3.2.3.3.4 0 .3-.2.3-.2.6-.2-.2-.4-.3-.5-.6-.2-.1-.1.2-.2.2 0 0-.1-.1-.2-.1s-.2.2-.3-.1c-.2 0 0 .4-.1.5.4-.1.4.2.4.5s-.3.2-.2.6c.4.2.5-.5.6 0 .2-.1-.1-.3 0-.5 0-.1.1-.1.1-.2.2 0 .2.1.3.1.2 0 .1.3.2.4.1-.1.2-.1.3-.1-.1-.3.1-.3.2-.5.2 0 0 .5.3.3.2-.2 0-.3-.1-.5-.2 0-.3 0-.3.2-.3-.3-.3-.7-.1-1 .5.2.4-.4.8-.3.3-.1.1.4.4.2.1-.4-.3-.4-.5-.4.2-.6.2-1.1 0-1.6-.1.2-.4.2-.4.5.1-.1.1.1.2.1l.2.1c.1.3-.1.8-.3.9-.2 0-.2-.1-.3-.1 0 .1-.1.1-.1 0-.1 0-.2.2-.2.4 0 .1-.1.2-.2.3 0 0 .2-.4-.1-.3zM67.6 124.6c-.1.3.6.3.2.2 0-.1-.1-.2-.2-.2zM68.5 133.9c.1 0 .2-.2.3 0 .2 0-.1-.3 0-.6-.3-.1-.2.4-.3.6zM67.6 136.7c.1-.1.2-.3.3-.3.1.1.1.4.3.5.3 0 .1-.3 0-.5s-.1-.5-.4-.4c0 .4-.3.4-.2.7zM68.5 118c.1 0 .1 0 .2.1.2-.2-.1-.5.2-.7.3-.1.2.4.4.1.1-.2-.1-.2-.2-.3-.1-.1.1-.4-.2-.3 0 .1.1.1.1.2 0 .2-.2 0-.3.1v.2c0 .2-.3.4-.2.6z"/><path class="st446" d="M68.7 117.2c.1-.3.3-.6.3-1 0-.1-.3-.2-.3-.4-.1 0 0 .2-.1.2-.2.1-.2-.3-.5-.2.2.3-.3.5-.3.1-.1.1-.3.2-.3.4.1 0 .2 0 .2-.1.1 0 .2.1.2.3.1-.1.1.1.2.1.3.3-.2.2.2.6 0 .1-.1.1-.1.2 0 .2.1 0 .1-.1.1 0 .2-.1.2-.2.1.1.1.1.2.1zM68.2 221.4c-.2 0 .1.4.3.3.1-.4-.3-.1-.3-.3zM68.8 135.4h-.4c0 .4.3.4.4.6.2 0-.1-.3 0-.6zM68.7 180c-.2-.2 0 .1 0 .1 0 .2-.1.2 0 .3 0 0-.1.6.2.5-.3-.3 0-.6-.2-.9zM68.7 214.1c-.2.1.1.4.1.6l-.3.3c0 .2.3.1.3.3.2 0 .1-.4.3-.3-.1-.1 0-.3-.1-.5h-.2v-.2c0-.1-.1-.1-.1-.2zM69.9 187.4c-.1 0 0 .1 0 .1.1.1 0 .3.2.3-.1.1.1.7 0 .9H70s.1.2.1.3c0 .1 0 .2.2.2 0-.7.1-1.5-.1-2-.1.1-.2.6-.3.2zM70.2 164.7c-.3.1.1.4 0 .6.1 0 .1-.2.1-.3h-.1c0-.2.1-.2 0-.3zM71.6 211.7c0 .1.1.2.2.3.2-.1.4-.3.7-.4 0-.3-.3 0-.3.1-.3-.1-.2 0-.6 0zM73.5 112.9c0 .1 0 .2.1.2-.1.4.1.4.1 0-.1 0-.1-.2-.2-.2zM67.7 162.5c.1-.2.4-.2.5-.4.2 0 .2.1.2.3.2-.1.4-.1.7 0 .1-.3-.2-.2-.3-.3v-.5c-.2 0-.2.1-.2.3-.2 0-.4-.3-.3.1-.3-.1-.2-.8-.3-1-.1-.1 0-.7 0-.9-.5-.2-.2.8-.2 1.1-.1.2 0 .7-.3.6 0 .4.2.5.2.7z"/></svg>