<svg version="1.1" id="Layer_1" xmlns="http://www.w3.org/2000/svg" x="0" y="0" viewBox="0 0 145.2 117.8" xml:space="preserve"><style></style><path d="M94.4 91.4c-7.8-.2-15.4-1.8-21.8-4.6-7 3-15.3 4.6-23.9 4.6C24.7 91.4 6 79.2 6 63.6v-.7C2.1 58 0 52 0 45.7c0-9.3 4.8-18.1 12.4-23.2C14.9 9.6 26.2 0 39.7 0c3.1 0 6.1.5 9 1.5 2.9-1 5.9-1.5 9-1.5 4.2 0 8.2.9 12 2.7C73.4.9 77.5 0 81.7 0s8.2.9 12 2.7c3.7-1.8 7.8-2.7 12-2.7 13.5 0 24.8 9.6 27.3 22.5 7.7 5.1 12.4 13.8 12.4 23.2 0 6.3-2.1 12.3-6 17.2v.7c0 11.9-9 21.5-23.6 25.6l-18.4 28.6-3-26.4z" fill="#f1dc25"/></svg>