<svg version="1.1" id="Layer_1" xmlns="http://www.w3.org/2000/svg" x="0" y="0" viewBox="0 0 113.4 113.4" xml:space="preserve"><style></style><circle transform="matrix(.9999 -.01582 .01582 .9999 -.89 .904)" cx="56.7" cy="56.7" fill="#e8408e" r="56.7"/><path d="M78.1 40.3c0-1.5-.7-3-1.7-4-.5-.5-1.2-.9-1.9-1.2-2.1-.8-4.6-.3-6.2 1.3l-3.9 4.1-12.2-11.8c-2.2-2.2-5.8-2.1-8 .1L28.4 45.1c-2.2 2.2-2.1 5.8.1 8L40.8 65l-4 4c-1.6 1.6-2 4.1-1.1 6.2.3.7.7 1.3 1.3 1.8 1.1 1 2.5 1.6 4 1.6l32.1-.5c1.5 0 2.9-.6 4-1.7 1-1.1 1.6-2.5 1.6-4l-.6-32.1z" fill="#fff"/></svg>