<svg version="1.1" id="Layer_1" xmlns="http://www.w3.org/2000/svg" x="0" y="0" viewBox="0 0 113.4 113.4" xml:space="preserve"><style></style><circle transform="rotate(-28.042 56.69 56.693)" cx="56.7" cy="56.7" fill="#903b8d" r="56.7"/><path d="M59.6 19.5c-1.6-1.6-4.1-1.6-5.7 0-1.6 1.6-1.6 4.1 0 5.7 1.6 1.6 4.1 1.6 5.7 0 1.5-1.6 1.5-4.1 0-5.7zm8.5 8.6c-1.6-1.6-4.1-1.6-5.7 0s-1.6 4.1 0 5.7 4.1 1.6 5.7 0c1.6-1.6 1.6-4.2 0-5.7zm8.6 8.5c-1.6-1.6-4.1-1.6-5.7 0-1.6 1.6-1.6 4.1 0 5.7 1.6 1.6 4.1 1.6 5.7 0s1.6-4.1 0-5.7zm-17.1 0c-1.6-1.6-4.1-1.6-5.7 0-1.6 1.6-1.6 4.1 0 5.7s4.1 1.6 5.7 0c1.5-1.5 1.5-4.1 0-5.7zm8.5 8.6c-1.6-1.6-4.1-1.6-5.7 0-1.6 1.6-1.6 4.1 0 5.7 1.6 1.6 4.1 1.6 5.7 0s1.6-4.1 0-5.7zm8.6 8.6c-1.6-1.6-4.1-1.6-5.7 0-1.6 1.6-1.6 4.1 0 5.7 1.6 1.6 4.1 1.6 5.7 0s1.6-4.1 0-5.7zm-17.1 0c-1.6-1.6-4.1-1.6-5.7 0-1.6 1.6-1.6 4.1 0 5.7s4.1 1.6 5.7 0c1.5-1.5 1.5-4.1 0-5.7zm8.5 8.6c-1.6-1.6-4.1-1.6-5.7 0-1.6 1.6-1.6 4.1 0 5.7 1.6 1.6 4.1 1.6 5.7 0 1.6-1.5 1.6-4.1 0-5.7zm8.6 8.6c-1.6-1.6-4.1-1.6-5.7 0-1.6 1.6-1.6 4.1 0 5.7 1.6 1.6 4.1 1.6 5.7 0 1.6-1.5 1.6-4.1 0-5.7zM42.4 53.8c-1.6-1.6-4.1-1.6-5.7 0-1.6 1.6-1.6 4.1 0 5.7s4.1 1.6 5.7 0c1.6-1.5 1.6-4.1 0-5.7zm8.6 8.6c-1.6-1.6-4.1-1.6-5.7 0-1.6 1.6-1.6 4.1 0 5.7 1.6 1.6 4.1 1.6 5.7 0 1.5-1.5 1.5-4.1 0-5.7zm8.6 8.6c-1.6-1.6-4.1-1.6-5.7 0-1.6 1.6-1.6 4.1 0 5.7 1.6 1.6 4.1 1.6 5.7 0 1.5-1.5 1.5-4.1 0-5.7zM25.2 53.8c-1.6-1.6-4.1-1.6-5.7 0s-1.6 4.1 0 5.7c1.6 1.6 4.1 1.6 5.7 0 1.6-1.5 1.6-4.1 0-5.7zm8.6 8.6c-1.6-1.6-4.1-1.6-5.7 0-1.6 1.6-1.6 4.1 0 5.7 1.6 1.6 4.1 1.6 5.7 0 1.6-1.5 1.6-4.1 0-5.7zm8.6 8.6c-1.6-1.6-4.1-1.6-5.7 0-1.6 1.6-1.6 4.1 0 5.7 1.6 1.6 4.1 1.6 5.7 0 1.6-1.5 1.6-4.1 0-5.7z" fill="#fff"/></svg>