<svg version="1.1" id="Layer_1" xmlns="http://www.w3.org/2000/svg" x="0" y="0" viewBox="0 0 113.4 113.4" xml:space="preserve"><style></style><circle transform="rotate(-28.042 56.69 56.693)" cx="56.7" cy="56.7" fill="#e5e5e5" r="56.7"/><path d="M71.8 69V44.4c0-1.6-1.3-2.8-2.8-2.8-1.6 0-2.8 1.3-2.8 2.8v17.8L46.4 42.4c-1.1-1.1-2.9-1.1-4 0s-1.1 2.9 0 4l19.8 19.8H44.4c-1.6 0-2.8 1.3-2.8 2.8 0 1.6 1.3 2.8 2.8 2.8H69c1.6 0 2.8-1.2 2.8-2.8zm8.9-36.4c-13.3-13.3-34.8-13.3-48.1 0-13.3 13.3-13.3 34.8 0 48.1s34.8 13.3 48.1 0C94 67.5 94 45.9 80.7 32.6zM36.6 76.7c-11.1-11.1-11.1-29 0-40.1 11.1-11.1 29-11.1 40.1 0 11.1 11.1 11.1 29 0 40.1-11 11.1-29 11.1-40.1 0z" fill="#e73c3b"/></svg>