<svg version="1.1" id="Layer_1" xmlns="http://www.w3.org/2000/svg" x="0" y="0" viewBox="0 0 113.4 113.4" xml:space="preserve"><style></style><circle transform="rotate(-73.04 56.693 56.693)" cx="56.7" cy="56.7" fill="#f39639" r="56.7"/><path d="M85 32.4c0-2.2-1.8-4-4-4s-4 1.8-4 4 1.8 4 4 4 4-1.8 4-4zm0 12.1c0-2.2-1.8-4-4-4s-4 1.8-4 4 1.8 4 4 4c2.2.1 4-1.7 4-4zm0 12.2c0-2.2-1.8-4-4-4s-4 1.8-4 4 1.8 4 4 4 4-1.8 4-4zM72.9 32.4c0-2.2-1.8-4-4-4s-4 1.8-4 4 1.8 4 4 4 4-1.8 4-4zm0 12.1c0-2.2-1.8-4-4-4s-4 1.8-4 4 1.8 4 4 4c2.2.1 4-1.7 4-4zm0 12.2c0-2.2-1.8-4-4-4s-4 1.8-4 4 1.8 4 4 4 4-1.8 4-4zm0 12.1c0-2.2-1.8-4-4-4s-4 1.8-4 4 1.8 4 4 4c2.2.1 4-1.7 4-4zM60.7 32.4c0-2.2-1.8-4-4-4s-4 1.8-4 4 1.8 4 4 4 4-1.8 4-4zm0 12.1c0-2.2-1.8-4-4-4s-4 1.8-4 4 1.8 4 4 4c2.2.1 4-1.7 4-4zm0 12.2c0-2.2-1.8-4-4-4s-4 1.8-4 4 1.8 4 4 4 4-1.8 4-4zm0 12.1c0-2.2-1.8-4-4-4s-4 1.8-4 4 1.8 4 4 4c2.2.1 4-1.7 4-4zm0 12.2c0-2.2-1.8-4-4-4s-4 1.8-4 4 1.8 4 4 4 4-1.8 4-4zM48.6 32.4c0-2.2-1.8-4-4-4s-4 1.8-4 4 1.8 4 4 4 4-1.8 4-4zm0 12.1c0-2.2-1.8-4-4-4s-4 1.8-4 4 1.8 4 4 4c2.2.1 4-1.7 4-4zm0 12.2c0-2.2-1.8-4-4-4s-4 1.8-4 4 1.8 4 4 4 4-1.8 4-4zm0 12.1c0-2.2-1.8-4-4-4s-4 1.8-4 4 1.8 4 4 4c2.2.1 4-1.7 4-4zM36.4 32.4c0-2.2-1.8-4-4-4s-4 1.8-4 4 1.8 4 4 4 4-1.8 4-4zm0 12.1c0-2.2-1.8-4-4-4s-4 1.8-4 4 1.8 4 4 4c2.2.1 4-1.7 4-4zm0 12.2c0-2.2-1.8-4-4-4s-4 1.8-4 4 1.8 4 4 4 4-1.8 4-4z" fill="#fff"/></svg>