<svg version="1.1" id="Layer_1" xmlns="http://www.w3.org/2000/svg" x="0" y="0" viewBox="0 0 92.8 131.8" xml:space="preserve"><style>.st26{fill:#fff}</style><path d="M80 .6L12 0C5.2.2-.2 5.9 0 12.8l14.9 80.8c.2 6.9 5.9 12.2 12.8 12l26.5-.1-2.7 26.3 18.9-26.4h7.1c6.9-.2 12.2-5.9 12-12.8l3.2-80C92.6 5.8 86.8.4 80 .6z" fill="#221e20"/><path class="st26" d="M35.2 128.5c0 1.8-1.5 3.3-3.3 3.3-1.8 0-3.3-1.5-3.3-3.3 0-1.8 1.5-3.3 3.3-3.3 1.8 0 3.3 1.5 3.3 3.3zM48.5 128.5c0 1.8-1.5 3.3-3.3 3.3-1.8 0-3.3-1.5-3.3-3.3 0-1.8 1.5-3.3 3.3-3.3 1.8 0 3.3 1.5 3.3 3.3zM61.8 128.5c0 1.8-1.5 3.3-3.3 3.3s-3.3-1.5-3.3-3.3c0-1.8 1.5-3.3 3.3-3.3s3.3 1.5 3.3 3.3z"/></svg>