<svg version="1.1" id="Layer_1" xmlns="http://www.w3.org/2000/svg" x="0" y="0" viewBox="0 0 129.1 183.2" xml:space="preserve"><style>.st396{fill:#373a1a}</style><path class="st396" d="M0 128.4c12.1-1.3 21-6.2 21-12V2h83.3v114.4c0 5.8 9 10.6 21 12L62 183.2 0 128.4z"/><path d="M3.7 126.4c12.1-1.3 21-6.2 21-12L24.8 0h83.3v114.4c0 5.8 9 10.6 21 12l-63.3 54.8-62.1-54.8z" fill="#ffd902"/><path d="M13.9 129.2c9.5-2.9 15.2-8.3 15.2-14.8V4.8h74.7v109.6c0 6.5 5.7 11.9 15.1 14.8L66 175.1l-52.1-45.9h0z" fill="none" stroke="#fff" stroke-width=".97" stroke-dasharray="2.586"/><path class="st396" d="M102.2 23h-.1s.1.1.2.1c0 0 0-.1-.1-.1zm-14-1.5s0 .1 0 0zm-9.6-3.8zm3.2.2c-.1.4-.2.8-.3 1.3l.4.4c.3-.8.2-1.3-.1-1.7zm18 3.1c.1-.1.3-.5.3-.6 0 0-.1 0-.1-.1 0 0 .1 0 .1-.1.1-.1.1-.2.1-.3-.2.3-.4.6-.5.9-.1.1 0 .2.1.2zm-4.6-.2c-.1-.1-.2 0-.2.2 0-.1.1-.2.2-.2zm0 .2v0c.1-.2 0-.2 0 0zm-7.4.7c.2-.1.3-.2.3-.2.1-.2-.1-.2-.3.2zm-16.5-18c-.4 0-.8.1-1.2.1 0 .1.1.2.2.3.3 0 .7-.1 1-.4 0 .1 0 0 0 0zm9.2 1.7c0 .2.1.2 0 0zM67.2 6.9c0 .1 0 .1 0 0zm13.2-1.7c.1-.1 0-.2-.1-.4-.1 0-.1 0-.2-.1-.2.2-.4.4-.3.5 0 .3.5.5.7.2 0 0-.1-.1-.1-.2zM47.7 125.5c0-.1-.2-.4-.2-.5v.4c-.1 0-.2.1-.1.1 0 0 .1.1.3.1.1-.1.2-.1.2-.2-.1.1-.1.1-.2.1zm6-.7c-.1 0-.1.1 0 .1s.2-.1.3-.1c-.1 0-.2-.1-.3 0zm-17.3-.2c-.1.1-.1.1 0 0-.1.1 0 .1 0 0zm8.8.1s.1 0 0 0c.1 0 .1 0 0 0zM81.9 7.3c.2 0 .3.1.5.1-.2-.1-.4-.2-.5-.1zM55.5 124.8s-.1.1-.1.2l.2.2c0-.2-.1-.4-.1-.4zm-10.3-.1s-.1 0 0 0c-.1.1-.1.1 0 0-.1.1 0 .1 0 0zM84.7 11.5c.1.3.1.2.2-.1 0-.1-.2-.3-.3-.4 0 0-.1.1-.1.2.1.1.2.2.2.3zm-27.4-2c0-.1 0-.1 0 0h-.1l-.2.2c.1-.1.2-.1.3-.2-.1.2-.1.3-.1.4.2-.1.2-.3.1-.4.1 0 .1 0 0 0zm9.8 0c-.1 0-.1.1 0 .2l.1-.1c-.1 0-.1 0-.1-.1zm-23.6 5.8c0-.1.1-.1 0 0 0-.2-.1-.3-.2-.4v.2l.2.2zm24-6c-.2-.3-.6-.3-.4-.1 0 0 0 .2.1.4l.3-.3zm-10.9.7c0 .1-.1.1-.1.2.1.1.1.3.2.4.3 0 .1-.3-.1-.6zm8.6.3c-.1.3-.8 1.1-.7 1.4.1-.3.7-1.1.7-1.4zm16.7.7c.1.1.3.3.4.5.1-.1.1-.2.2-.3-.4-.2-.8-.3-.6-.2zm-16.7-.7c.1-.4 0-.4 0 0zm1.5 7.1c0 .1.1.2.1.2.2.1.2 0-.1-.2zM59 9.9c-.2-.2-.9-.3-1.1-.2-.2.2 0 .6.3.8.2-.2.5-.4.8-.6zm3.9.6c.4-.3-.2-.2-1.2-.1.2-.3.1-.5-.2-.2-.6.2-1.5.5-1.9.7h2.1c.6-.1 1-.2 1.2-.4zm9.9-4.3c0 .1 0 .1 0 0s0-.1 0 0zm-15.1.7c-.2 0-.2 0 0 0zm.3.1h-.4c-.5.1-.4.3.1.3.3-.2.7-.3 1.1-.5-.3 0-.6.1-.8.2zm-.3 4.9c.3.3.1.1 0-.3 0-.4.1-.9-.3-1.1-.3-.4-1-.3-1 .1-.3.3.4 1.1.7 1.3.1.5.3.5.6 0zm28.1-3.3c-.1-.1-.4 0-.5.1 0 .1.3.3.4.3.1-.1.2-.3.1-.4zM63.6 3.1c0-.2 0-.4.2-.6.1-.2-.5.1-.2.6zm37.9.3c.1.4 0 .3.1-.1.1-.3 1.4-1 1.2-1.3 0-.3-.1-.2-.2.2-.1.3-1.1.9-1.1 1.2zm-21.3 7.3c0 .2.1.2 0 0zM51 2c.3 0 .3-.1 0 0zm54.4 2.5c-.6 0-1.2.1-1.5.3-.1.1 0 .2.1.4.6-.1 1.1-.2 1.7-.3-.1-.2-.2-.3-.3-.4zM72.8 6.2c-.4-.5 0 .5.4 1.5.1.1.2.2.3.4-.1-.1-.2-.2-.2-.3-.2-.7-.4-1.3-.5-1.6zm-2.2-3c-.2 0-.6-.1-1-.3l.1.1c.3.5.6.8.9 1 .1-.1.2-.3.3-.4-.1-.1-.2-.3-.3-.4zM33.5 15.3l-.3-.3-.1-.1c-.1-.1-.3-.2-.4-.4-.1 0-.1.1-.2.1h-.1c-.1-.1-.3-.1-.4-.1 0 0 .2.1.3.2h.1s0 .1.1.1c.1.2.5.5.7.6v.1c.1.2 0 .3.1.1.1 0 .2-.1.2-.3zm60.7.2l-.3-.6v.2c-.1.1 0 .3.3.4zm-24.5-.4c-.1-.1-.1-.2-.2-.3-.1.1-.2.1-.3.1.1.1.4.3.5.2zm25.7-.5l.3-.3c-.2.1-.3.2-.3.3zM67 15c-.1-.1-.2-.1-.2-.2-.2 0-.1.2.1.4 0 0 0 .1.1.1-.2.2-.3.5-.1.7.2.1.6 0 .8-.1h.5s0-.1.1-.1c-.1-.1-.2-.2-.2-.3-.1-.1-.2-.1-.4-.2-.1-.2-.1-.4-.2-.6-.2-.3-.7-.4-.5-.2-.2 0-.1.3 0 .5zm13.4-5.5c.1-.2-.7-.2-.7.1.1.1.1.2.2.3.2-.2.4-.3.5-.4zM97.7 11c.1-.3.2-.6.2-.9-.3.3-.5.6-.5.6l.3.3zm-15.4 2.3c-.1-.7-.7-1-.9-.6-.2.5-.7 1.6-.6 2.3.5-.4 1.4-1.1 1.5-1.7zm-2.1-2.6c0-.1 0-.2-.1-.3.1-.1 0-.3-.2-.5-.2.2-.5.5-.4.6 0 .3.5.5.7.2zm.6 4.6v-.2c-.1.1-.2.2-.3.2-.2.7.2.7.3 0zM65.4 3.1c.2.1.3.2.3.3 0-.1-.1-.2-.3-.3zm-5.7 120.3h-.3.6c.6.1.5 0-.3 0zM70.9 9.7c.1 0 .5-.1.6-.2-.1-.1-.3-.1-.5-.1-.1.1-.1.2-.1.3-.1 0-.1 0 0 0zm13.7 131c-.1-.7-.7-1-.9-.6-.2.5-.7 1.6-.6 2.3.4-.4 1.4-1.1 1.5-1.7zm-1.6 2v-.2c-.1.1-.2.2-.3.2-.2.8.2.7.3 0zm14.6-.7l.3-.3c-.2.1-.3.2-.3.3zm-50.2-.5s-.1 0 0 0c-.1 0-.1 0 0 0zm49 1.4l-.3-.6v.2c-.1.1.1.3.3.4zm-62.8-2h-.1c.1 0 .1.1.1.1h.1c0-.1-.1-.1-.1-.1zm53 3.3c.1.3.1.2.2-.1-.1-.3-.8-.9-.9-1.1-.1.3.6 1 .7 1.2zM43 140.5c.4.3.8.7 1.2 1 .1-.1.2-.2.2-.3 0-.4-.7-.7-1.4-.7zm-7.3 2.2l-.3-.3-.1-.1-.4-.4c-.1 0-.1.1-.2.1h-.1c-.1-.1-.3-.1-.4-.1 0 0 .2.1.3.2h.1s0 .1.1.1c.1.2.5.5.7.6v.1c.1.2 0 .3.1.1.1 0 .2-.1.2-.3zm-7.1-1.2zm1.8-.2s.1 0 0 0c-.1-.1-.2-.1 0 0zm36.7 1.7c.1-.4 0-.3 0 0zm0 0c-.1.3-.7 1.1-.7 1.4.1-.3.7-1.1.7-1.4zm15.3-4.9c0 .2.1.2 0 0zm0 0c0-.1 0-.2-.1-.3.1-.1 0-.3-.2-.5-.2.2-.5.5-.4.6 0 .3.5.5.7.2zm-4.3 11.3c-.7-.6-1.4-1.2-2-1.7-.1.5 1.1 1.5 1.6 2 .4.1.4 0 .4-.3zm4.5-12.5c.1-.2-.7-.2-.7.1.1.1.1.2.2.3.2-.2.4-.3.5-.4zm-23.4 5.3c0 .1 0 .1 0 0 0 .1.1.2.1.2 0-.1.1-.2.1-.2h-.2c-.1-.2-.2-.3-.4-.4.1.2.2.3.4.4-.1.1-.1 0 0 0zm-13.5.5c.1 0 .1-.1 0 0 0-.2-.1-.3-.2-.4v.2l.2.2zm26.2-.2c-.1-.1-.1-.2-.2-.3-.1.1-.2.1-.3.1.1.1.4.3.5.2zm-2.7-.1c-.1-.1-.2-.1-.2-.2-.2 0-.1.2.1.4 0 0 0 .1.1.1-.2.2-.3.5-.1.7.2.1.6 0 .8-.2h.5s0-.1.1-.1c-.1-.1-.2-.2-.2-.3-.1-.1-.2-.1-.4-.2-.1-.2-.1-.4-.2-.6-.2-.3-.7-.4-.5-.2-.1.2-.1.4 0 .6zm-20.2.7c-.1-.1.1-.5.1-.6 0-.1-.4 0-.3.2 0 .1.2.4.2.4zm-.2-.7c.1-.1 0-.2-.2-.3-.2.1-.3.2-.4.3h.6zm5.2 4.8c.5-.8-1.7-.9-2.6-.6.9.6 1.8 1.1 2.7 1.6.2-.4.2-.8-.1-1zm-3 18.7zm10.5-4.4l1 1c.2-.2.4-.3.5-.5-.4-.2-.9-.4-1.5-.5zm-6.3 3.9c-.1.1-.2.6-.1.7.1 0 .2-.1.3-.1-.1-.2-.1-.5-.2-.6zm-11.5-6c-.3 0-.4.6-.4 1.4.1.1.2.1.3.2.4-.9.7-1.6.1-1.6zm20.1 4.4c-.1-.3-.6-.8-1.2-1.3-.7.5-1.4 1-1.6 1.4 0 .2 0 .3.1.4 1-.2 1.9-.3 2.7-.4v-.1zm7.5-16.4c0 .1 0 .3-.1.4.3-.3.3-.4.1-.4zm-5 21.5c-.3 0-.7-.1-1.2-.2-.6.1-1.3.2-1.9.3 1.4.2 3.2 0 3.1-.1zm-5.8-45.6h-.3 1.1-.8zm-9.4 43.1c0-.2-.1-.1 0 0 0 .1 0 .1 0 0zm24.6-5.6c0-.1 0-.1 0 0zm-24.6 6.5zm-.2-1.4s0 .1 0 0c.1.1.1 0 0 0zm41-14.9c-.5-.7-.7-.5-.5.4h.5v-.4zm-31.8 4.4v.7c.7.1 1.4.2 2 .3.1-.1.1-.2.1-.3-.7-.3-1.4-.5-2.1-.7zM33 146.7c-.1-.1-.5-.2-.6-.2 0 .1.1.3.2.3.2 0 .4-.1.4-.1zm18.1-.3c-.3-.3-.6-.5-1-.6.4.2.7.4 1 .6zm38.1.6l1.5-.6.6-.3c-.5 0-1.2.2-1.4.5-.5-.3-1.2-.1-.7.4zm10.7-8.6c.1-.3.2-.6.2-.9-.3.3-.5.6-.5.6l.3.3zm-19.3 17.8c.1-.3.3-.5.5-.7-.2 0-.3-.1-.5-.1v.1c-.1.2-.1.4 0 .7zm-20.8-1c-.4.3-.4.3.2.1 0 0-.1 0-.2-.1zm-6.4-2.4c-.2-.1-.4-.2-.6-.2-.1 0-.2.1-.2.1-.9.3-.7.6.2.4.1-.1.3-.2.6-.3zm9.2-.2c.6.3 1.2.5 1.7.8-.2-.6-.9-.9-1.7-.8zM51 167.3c.1 0 0 0 0 0zm26.7-49.9c0 .2.2.4.4.6l.1.1c-.2-1-.8-1.3-.5-.7zm31 11.2c0-.1-.1-.1-.1-.1s.1.1.1.2v-.1zm-18.4-10c0 .1-.1.1-.1.2s.2.1.2 0c0 0-.1-.1-.1-.2zm-12.2-.8zm24.5 0v-.3l-.2.2c0 .1.2.1.2.1zm-1.4 1.4c.5 0 .2-.6.1-1.2.3-.1.7-.2.8-.2.2-.2-.4-.2-.9 0 0-.2.1-.4.2-.5-.5.1-1.2.5-1.1 1 .1.6.5 1 .9.9zm-50.8 7.3s-.1 0-.1.1c.5.1.7.1.1-.1zm65.7 2.5c.1 0 .1 0 0 0 0-.1-.1-.1-.1-.2 0 .1 0 .2.1.2zm-13.4-10.1c.2.2.3.3.4.1-.1-.2-.5-.5-.7-.6-.1.1.2.3.3.5zm-1.3-1.4h.1c.4-.3.1-.3-.1 0zm.7.4s-.1 0-.1.1c.2-.1.2-.1.1-.1zm-6.1-.4c0 .1.1.1.1.1-.1 0-.1 0-.1-.1zM33.6 119c-.1.3-.2.5-.2.8 0 .1.1.1.2.1.1-.1.1-.2.2-.3-.1-.3-.1-.4-.2-.6zm16.2 1.5c-.5-.2-1.3 0-1.7.4-.8-.1-1-.1-.4.1-.8.3-1.1.6-.2.7.6-.2 1.9-.7 2.5-1 .6-.5.7-.5-.2-.2zm-16.2-.6c-.1.2-.2.3-.3.4.1-.1.2-.3.3-.4zm48.6 1.8c-.1-.1-.2-.3-.3-.2 0 .1-.1.4 0 .5 0-.1.3-.2.3-.3zm-19.7-5l.6.3c0-.5-.2-.6-.6-.3zm15.1 3.7c.1 0 .1 0 0 0 .4.4 1.6.8 2 .9-.3-.3-1.4-.8-1.8-1.1-.2-.1-.3-.1-.4-.1-.1-.1-.1-.2-.3-.2-.2-.1-.3-.1-.5-.2l-.1.3c.6.3 1 .5 1.1.4zm-6.5-3.4c.1 0 .1 0 0 0 .1-.1 0-.2 0-.3v.3zm29.6-.4s0-.1-.1-.1l.1.1zm-66.9 3.1s0-.1 0 0c-.1 0-.2.1-.2.2.1-.1.2-.1.2-.2zm70.7-4.6h-.1s.1.1.2.1c-.1 0-.1-.1-.1-.1zm-53 13c-.1 0 0 0 0 0zm1.7 1.3c.3 0 .3 0 0 0zm19.6 1.2c-.2 0-.6-.1-1-.3l.1.1c.3.5.6.8.9 1 .1-.1.2-.3.3-.4-.1-.1-.2-.3-.3-.4zm31 .2c.1.4 0 .3.1-.1.1-.3 1.4-1 1.2-1.3 0-.3-.1-.2-.2.2-.2.3-1.1.9-1.1 1.2zm-36.2-.3l.3.3c0-.1-.1-.2-.3-.3zm-1.8 0c0-.2 0-.4.2-.6.1-.2-.4.1-.2.6zm41.9 1.4c-.6 0-1.2.1-1.5.3-.1.1 0 .2.1.4.6-.1 1.1-.2 1.7-.3-.2-.2-.2-.3-.3-.4zM88 136c-.1-.1-.4 0-.5.1 0 .1.3.3.4.3.1-.1.2-.3.1-.4zm-12.9-2.3c-.4-.5 0 .5.4 1.5.1.1.2.2.3.4-.1-.1-.2-.2-.2-.3-.3-.8-.5-1.4-.5-1.6zm-14.8.7h-.4c-.5.1-.4.3.1.3.2-.1.7-.3 1.1-.4-.3-.1-.7 0-.8.1zm-.4-.1c-.2 0-.2 0 0 0zm15.2-.6c-.1-.2-.1-.2 0 0zm-15.2 5.7c.3.3.1.1 0-.3 0-.4.1-.9-.3-1.1-.3-.4-1-.3-1 .1-.3.3.4 1.1.7 1.3.1.4.3.4.6 0zm38.8-11.8c-.1.7 0 .7 0 .2v-.2zm17.1-.2c-.6.1-.3.5.1.7-.1.1-.2.2-.3.2.4.2 1 .2 1.3-.2.6 0 1-.2.5-.4.3-.4-.2-.8-.7-.7-.3-.2-.7 0-.9.4zm-63.1.6c-.1 0-.1 0 0 0 0 .1 0 .1 0 0 0 .1.1.1.1 0 0 .1-.1 0-.1 0zm-2.4.5c.1-.1.1-.2 0-.2h.4c.1-.1-.4 0-1.8.2h-.6c.3.2.6.4.9.5.6-.1 1-.4 1.1-.5zm65.3-.2c-.5.2-.3.2 0 0zm-62.5-.2H53c.1 0 .2.1.3.1-.1 0-.1-.1-.2-.1zm39.2-.7c.1 0 .1.1.2.1.2-.1.4-.1.6-.2-.5-.3-1.3-.2-.8.1zm6.4 1.5c0-.1-.2-.2-.2-.2v.1c.1.1.2.3.3.4-.1 0-.1-.2-.1-.3zm-17.9-1.6c0 .9 0 .9.1.1 0-.1-.1-.1-.1-.1zm-4.4-.3s-.1 0 0 0v0zm-8.6-90.4c.4-.3-.2-.2-1.2-.1.2-.3.1-.5-.2-.2-.6.2-1.5.5-1.9.7h2.1c.6-.1 1-.2 1.2-.4zM51.5 76.4c.1-.1 0-.2-.2-.3-.2.1-.3.2-.4.3h.6zm.2.7c-.1-.1.1-.5.1-.6 0-.1-.4 0-.3.2 0 .1.2.4.2.4zm10.1-.9c0 .1 0 .1 0 0 0 .1.1.2.1.2 0-.1.1-.2.1-.2h-.2c.1-.1.1-.1 0 0-.1-.2-.2-.3-.4-.4.1.2.2.3.4.4 0 .1 0 0 0 0zm8 .8c-.1.3-.7 1.1-.7 1.4 0-.3.7-1.1.7-1.4zm30.5-1l.3-.3c-.2.1-.3.2-.3.3zm-25.7.5c-.1-.1-.1-.2-.2-.3-.1.1-.2.1-.3.1 0 .1.3.3.5.2zm-36.2.2l-.3-.3-.1-.1c-.2-.1-.3-.3-.4-.4-.1 0-.1.1-.2.1h-.1c-.1-.1-.3-.1-.4-.1 0 0 .2.1.3.2h.1s0 .1.1.1c.1.2.5.5.7.6v.1c.1.2 0 .3.1.1.1 0 .1-.1.2-.3zm10 0s0-.1 0 0c0-.2-.1-.3-.2-.4v.2c0 .1.1.1.2.2zm50.6.2l-.3-.6v.2c0 .1.1.3.3.4zm-27.1-.5c-.1-.1-.2-.1-.2-.2-.2 0-.1.2.1.4 0 0 0 .1.1.1-.2.2-.3.5-.1.7.2.1.6 0 .8-.2h.5s0-.1.1-.1c-.1-.1-.2-.2-.2-.3-.1-.1-.2-.1-.4-.2-.1-.2-.1-.4-.2-.6-.2-.3-.7-.4-.5-.2-.2.2-.1.4 0 .6zm17.4 1.8c.1.2.1.2.2-.1-.1-.3-.8-.9-.9-1.1-.2.3.6 1 .7 1.2zM69.8 77c.1-.4 0-.4 0 0zm-13.1 4.2c.5-.8-1.7-.9-2.6-.6.9.6 1.8 1.1 2.7 1.6.2-.4.2-.8-.1-1zm-21.1-.5c-.1-.1-.5-.2-.6-.2 0 .1.1.3.2.3.2 0 .5-.1.4-.1zm18.2-.3c-.3-.3-.6-.5-1-.6.3.2.7.4 1 .6zm38.1.6l1.5-.6.6-.3c-.5 0-1.2.2-1.4.5-.5-.3-1.3-.1-.7.4zm-46.3-6.5c.4.3.8.7 1.2 1 .1-.1.2-.2.2-.3.1-.4-.6-.7-1.4-.7zm35.1 8.9c-.7-.6-1.4-1.2-2-1.7-.1.5 1.1 1.5 1.6 2 .5.1.5 0 .4-.3zm-47.6-8.1c-.2-.1-.3-.1 0 0zm-1.9.2s.1 0 0 0c.1 0 0 0 0 0zm5-.6h-.1c.1 0 .1.1.1.1h.1c0-.1 0-.1-.1-.1zm13.8.6zm23.9 5.9c0 .1 0 .3-.1.4.4-.3.3-.4.1-.4zm-21-18.9c.1 0 .1 0 0 0 .1-.1.1-.2 0-.2h.4c.1-.1-.4 0-1.8.2h-.6c.3.2.6.4.9.5.7-.1 1.1-.4 1.1-.5.1 0 .1 0 0 0zm15.5 2s.1 0 0 0c0-.2 0-.4.2-.6.2-.2-.4.1-.2.6zm7 .1c-.2 0-.6-.1-1-.3l.1.1c.3.5.6.8.9 1 .1-.1.2-.3.3-.4 0-.1-.1-.3-.3-.4zm-19.5-1.2c.3 0 .2 0 0 0zm50.5 1.4c.1.4 0 .3.1-.1.1-.3 1.4-1 1.2-1.3 0-.3-.1-.2-.2.2-.1.3-1.1.9-1.1 1.2zm-36.1-.3l.3.3c0-.1-.1-.2-.3-.3zm7.4 3.2c-.4-.5 0 .5.4 1.5.1.1.2.2.3.4-.1-.1-.2-.2-.2-.3-.2-.8-.4-1.4-.5-1.6zm5.8-6.4c0 .9 0 .9.1.1l-.1-.1zm3.7 13.4c-.1-.7-.7-1-.9-.6-.2.5-.7 1.6-.6 2.3.5-.4 1.4-1.1 1.5-1.7zM79 61v.1s.1-.1 0-.1zm22.3 1.9c0-.1-.2-.2-.2-.2v.1c.1.1.2.3.3.4 0-.1 0-.2-.1-.3zM94.6 85c-.5-.7-.7-.5-.5.4h.5c-.1-.2-.1-.4 0-.4zm.3-23.6c.1 0 .1.1.2.1.2-.1.4-.1.6-.2-.5-.3-1.2-.2-.8.1zM85 72.1c0-.1 0-.2-.1-.3.1-.1 0-.3-.2-.5-.3.2-.5.5-.4.6.1.3.6.5.7.2zm.3-1.2c.1-.3-.7-.2-.7.1.1.1.1.2.2.3.2-.2.4-.3.5-.4zm17.3 1.5c.1-.3.2-.6.2-.9-.3.3-.5.6-.5.6l.3.3zm-16.9 4.3v-.2c-.1.1-.2.2-.3.2-.3.8.1.7.3 0zm-.6-4.6c0 .2 0 .2 0 0zm-22.5 1.3c.3.3.1.1 0-.3.1-.4.1-.9-.3-1.1-.3-.4-1-.3-1 .1-.3.3.4 1.1.7 1.3 0 .4.3.4.6 0zm-.1-5.1c.1 0 .1 0 0 0s-.1 0 0 0zm.4.1h-.4c-.5.1-.4.3.1.3.2-.1.7-.3 1.1-.4-.3-.1-.6 0-.8.1zm14.8-.7c0-.2 0-.2 0 0zm13 2.3c-.1-.1-.4 0-.5.1 0 .1.3.3.4.3.1-.1.2-.3.1-.4zm-6.6 33.1c.1.1.3.3.4.5.1-.1.1-.2.2-.3-.3-.2-.8-.3-.6-.2zm-14.3-1.7c-.2-.2-.6-.3-.4-.1 0 0 0 .2.1.4.1-.2.2-.2.3-.3zm-16.1-.1zm0 0zm11.5-14.7c.6.3 1.2.5 1.7.8-.1-.6-.9-.9-1.7-.8zm3.7 22.9c0 .1.1.2.1.3.2 0 .3-.1-.1-.3zm-7.7-7.5c-.2-.2-.9-.3-1.1-.2-.2.2 0 .6.3.8.3-.2.5-.4.8-.6zm11.9-.2c.1 0 .5-.1.6-.2-.1-.1-.3-.1-.5-.1 0 .1-.1.2-.1.3zm7.8 8s-.1 0 0 0c-.1 0 0 0 0 0zm-22.1-7.7c0 .1-.1.1-.1.2.1.1.1.3.2.4.3 0 .1-.3-.1-.6zm6.3.5c.4-.3-.2-.2-1.2-.1.2-.3.1-.5-.2-.2-.6.2-1.5.5-1.9.7h2.1c.6-.1 1.1-.2 1.2-.4zm-5.5-1.1s-.1 0 0 0h-.1l-.2.2s.1-.1.3-.2c-.1.2-.1.3-.1.4.1 0 .1-.2.1-.4 0 .1 0 0 0 0zm9.7.1c-.1 0-.1.1 0 .2l.1-.1-.1-.1zm-15.4 10zm30.3 0c.3-.7.2-1.3-.1-1.7-.1.4-.2.8-.3 1.3.1.1.2.3.4.4zm6.2 2zm-.3.2c.2-.1.3-.2.3-.2 0-.3-.2-.2-.3.2zm-36-1.9l.1.1s0-.1-.1-.1zm43.3 1.2v0c.1-.2 0-.2 0 0zm-39.9 0v-.1c-.1.1-.3 0-.5-.1 0 .1 0 .1-.1.1v.1c.1.1.2.2.3.2v-.1c0-.1.2-.2.3-.1zm21.7-2.1s-.1 0-.2.1c.4.4.7.9.8 1.1.1-.1.3-.2.5-.3-.2-.3-.7-.6-1.1-.9zm18.1 2.1c0-.1.1-.2.2-.2-.2-.1-.3 0-.2.2zm4.7 0c.1-.1.3-.5.3-.6 0 0-.1 0-.1-.1 0 0 .1 0 .1-.1.1-.1.1-.2.1-.3-.2.3-.3.6-.5.9-.1.1 0 .2.1.2zM87.4 105c.2-.1.1-.1 0 0zm-23.2-9.5l1 1c.2-.2.4-.3.5-.5-.5-.2-1-.4-1.5-.5zm2.2 2.3c-.1-.3-.6-.8-1.2-1.3-.7.5-1.4 1-1.6 1.4 0 .2 0 .3.1.4 1-.2 1.9-.3 2.7-.4v-.1zm30.7-1.6c.5-1.3.3-1.8-.1-1-.2.1-.2.6-.3 1.1.1-.1.3-.1.4-.1zm-24.8-.3c0 .1.1.2.2.3.3 0 .7-.1 1-.3l.1-.1c-.4 0-.9.1-1.3.1zm9.7 1.4c0 .3.5.5.7.2 0-.1 0-.2-.1-.3.1-.1 0-.2-.1-.4-.1 0-.1 0-.2-.1-.1.3-.3.5-.3.6zM56 86.8c-.2-.1-.4-.2-.6-.2-.1 0-.2.1-.2.1-.9.3-.7.6.2.4l.6-.3zm26.7 10.7c0 .1.1.2 0 0zm-19.9-8.1v.7c.7.1 1.4.2 2 .3.1-.1.1-.2.1-.3-.7-.3-1.4-.5-2.1-.7zm38.6-27.6v-.2c-.1.6-.1.6 0 .2zM83.2 90.2c.1-.3.3-.5.5-.7-.2 0-.3-.1-.5-.1V90.2zm-20.7-.9c-.4.3-.4.3.2.1-.1-.1-.2-.1-.2-.1zm15.9 5.5c0-.1 0-.1 0 0zm-10.9 7.6c0-.4-.1-.4 0 0zm17.1-2.9c-.2-.2-.4-.3-.5-.1.2 0 .3.1.5.1zm-30.8.9c0-.2-.1-.1 0 0 0 .1 0 .1 0 0zm-7.4-7c-.3 0-.4.6-.4 1.4.1.1.2.1.3.2.4-.9.6-1.6.1-1.6zm40.5 10.2c.1.2.1.2.2-.1 0-.1-.2-.3-.3-.4l-.1.1c.1.2.2.3.2.4zm-17.9-.7c-.3 0-.7-.1-1.2-.2-.2 0-.4.1-.5.1.1-.2.2-.3.2-.4 0 .1-.1.3-.2.4-.5.1-.9.1-1.4.2.4 0 .8.1 1.2.1-.2.3-.3.6-.3.7 0-.1.2-.4.4-.7.9 0 1.8-.1 1.8-.2zm-15.4-3s-.1 0 0 0c0 0 0 .1 0 0 0 .1 0 0 0 0zm15.8-.9c0 .1.1 0 0 0zm-11.6.4c-.1.1-.2.6-.1.7.1 0 .2-.1.3-.1 0-.2-.1-.5-.2-.6zm-4.1.5c-.1 0-.1 0 0 0zm36-76.3c-.5-.7-.7-.5-.5.4h.5c0-.2-.1-.4 0-.4zM70.1 36.4c-.1.3-.7 1.1-.7 1.4 0-.3.7-1.1.7-1.4zm0 0c.1-.4 0-.4 0 0zm-7.9-.5c.1 0 .1-.2.2-.3 0-.1-.1-.1-.1-.1h-.1l-.2.2c.1 0 .2-.1.3-.1-.2.1-.2.2-.1.3zm24.5 1.2c.1.1.3.3.4.5.1-.1.1-.2.2-.3-.3-.2-.7-.3-.6-.2zM63 36.6c.3-.2.6-.4.8-.6-.2-.2-.9-.3-1.1-.2-.1.2.1.6.3.8zM41.5 32c-.3 0-.4.6-.4 1.4.1.1.2.1.3.2.4-.9.7-1.6.1-1.6zm48.1 5.6c.1.2.1.2.2-.1 0-.1-.2-.3-.3-.4l-.1.1c0 .1.2.3.2.4zm-4.3-6.4c.1-.1 0-.2-.1-.4-.1 0-.1 0-.2-.1-.2.2-.4.4-.3.5 0 .3.5.5.7.2-.1 0-.1-.1-.1-.2zm.1.3c0 .1.1.2 0 0zM72 35.6c-.1 0-.1.1 0 .2l.1-.1c-.1 0-.1-.1-.1-.1zm-23.1 4.3zm-.1-1.4c-.1 0-.1 0 0 0zm27.4-8.7c-.4 0-.8.1-1.2.1 0 .1.1.2.2.3.3 0 .7-.2 1-.4zm-2.7 3.6c0-.1 0-.1 0 0zm2.2 2.4c.1 0 .5-.1.6-.2-.1-.1-.3-.1-.5-.1 0 .1 0 .2-.1.3zM52.9 38c-.1.1-.2.6-.1.7.1 0 .2-.1.3-.1 0-.2-.1-.5-.2-.6zm-4 1c0-.2-.1-.1 0 0 0 .1 0 .1 0 0zm-.2-.5s0 .1 0 0c.1.1 0 0 0 0zm38.6-5c-.2-.2-.4-.3-.5-.1.1 0 .3.1.5.1zm-25.7 3.1c.3 0 .1-.2-.1-.5l-.1.1c-.2-.3-.6-.7-1.1-1.1-.7.5-1.4 1-1.6 1.4 0 .2 0 .3.1.4 1-.2 1.9-.3 2.7-.4 0 .1 0 .1.1.1zM72 35.3s0 .2.1.4c.1-.1.2-.2.3-.2-.2-.4-.6-.4-.4-.2zm20.2-.5c.5-1.3.3-1.8-.1-1-.2.1-.2.6-.3 1.1.1-.1.3-.1.4-.1zM55.3 62c0 .1 0 .1 0 0 0 .1.1.1.1 0 0 .1 0 0-.1 0 .1 0 0 0 0 0zm16.8-29.1c0 .1 0 .1 0 0 0 .2 0 .1 0 0zm-43.9-19c-.1-.1-.2-.1 0 0zm-1.8.2zm14.4-1c.4.3.8.7 1.2 1 .1-.1.2-.2.2-.3 0-.4-.7-.7-1.4-.7zm-9.4.4s-.1 0-.1.1c.1 0 .1.1.1.1h.1l-.1-.2zm13.7.6zm1.7 1.6c-.1-.1.1-.5.1-.6 0-.1-.4 0-.3.2 0 .1.2.3.2.4zm10.1-.9c0 .1 0 .1 0 0l.1.2c0-.1.1-.1.1-.2h-.2c.1-.1.1-.1 0 0-.1-.2-.2-.3-.4-.4l.4.4zM69 20c0 .1 0 .3-.1.4.4-.3.3-.4.1-.4zm-4.1-4.4c-.1.3-.7 1.1-.7 1.4 0-.3.7-1.1.7-1.4zm19.5 1.2c.1.2.1.2.2-.1-.1-.3-.8-.9-.9-1.1-.1.3.6 1 .7 1.2zm-19.5-1.2c.1-.4 0-.4 0 0zm-13.1 4.1c.5-.8-1.7-.9-2.6-.6.9.6 1.8 1.1 2.7 1.6.2-.3.2-.7-.1-1zM46.6 15c.1-.1 0-.2-.2-.3-.2.1-.3.2-.4.3h.6zm4.6 10.4c-.2-.1-.4-.2-.6-.2-.1 0-.2.1-.2.1-.9.3-.7.6.2.4.1-.1.3-.2.6-.3zm9.2-.2c.6.3 1.2.5 1.7.8-.2-.6-1-.9-1.7-.8zM57.9 28v.7c.7.1 1.4.2 2 .3.1-.1.1-.2.1-.3-.7-.3-1.4-.5-2.1-.7zm18-6c-.7-.6-1.4-1.2-2-1.7-.1.5 1.1 1.5 1.6 2 .4.1.4 0 .4-.3zm2.4 6.8c.1-.3.3-.5.5-.7-.2 0-.3-.1-.5-.1V28.8zm-20.7-1c-.4.3-.4.3.2.1-.1 0-.1 0-.2-.1zm-26.9-8.5c-.1-.1-.5-.2-.6-.2 0 .1.1.3.2.3.2 0 .5-.1.4-.1zm56.3.3l1.5-.6.6-.3c-.5 0-1.2.2-1.4.5-.5-.3-1.3-.1-.7.4zM48.9 19c-.3-.3-.6-.5-1-.6.4.2.7.4 1 .6zm10.4 15.1l1 1c.2-.2.4-.3.5-.5-.4-.2-1-.4-1.5-.5zm39.3 17.4c0 .1.1.1.1.1l-.1-.1zm-17.8.3zm-28.1-.1v-.1c-.1.1-.3 0-.5-.1 0 .1 0 .1-.1.1v.1c.1.1.2.2.3.2v-.1c0-.1.1-.2.3-.1zm40.2.9c0 .1-.1.1-.1.2s.2.1.2 0c0 0 0-.1-.1-.2zm-12.5-1.2c0 .2.2.4.4.6 0 0 .1 0 .1.1-.2-1-.9-1.3-.5-.7zM36.3 53c-.1.3-.2.5-.2.7 0 .1.1.1.2.1.1-.1.1-.2.2-.3-.1-.2-.2-.3-.2-.5zm44 1.4c.4.4 1.6.8 2 .9-.3-.3-1.4-.8-1.8-1.1-.2-.1-.3-.1-.4-.1-.1-.1-.1-.2-.3-.2-.2-.1-.3-.1-.5-.2l-.1.3c.6.3 1 .4 1.1.4zm-17.1 2.9h-.3H64h-.8zm-26.7-3.6s0-.1 0 0c-.1 0-.2.1-.2.2 0-.1.1-.1.2-.2zm16 .8c-.5-.2-1.3 0-1.7.4-.8-.1-1-.1-.4.1-.8.3-1.1.6-.2.7.6-.2 1.9-.7 2.5-1 .6-.5.6-.5-.2-.2zm32.3 1.2c-.1-.1-.2-.3-.3-.2 0 .1-.1.4 0 .5.1-.1.4-.2.3-.3zm-48.6-1.9c-.1.2-.2.3-.2.4l.2-.4c.1.1 0 .1 0 0zm16.9 6.7s-.1 0-.1.1c.4.1.6.1.1-.1zm-5.3-1.8c-.1.1-.1.1 0 0 0 .1 0 .1 0 0zm8.6.1c-.1 0-.1.1 0 .1s.2-.1.3-.1c-.1 0-.3-.1-.3 0zm5.9-1.4H62h.6c.7.1.6 0-.3 0zm-8.2 4.7s.1 0 0 0c.1 0 0 0 0 0zm1.6 0h-.1c.1 0 .2.1.3.1 0 0-.1-.1-.2-.1zm-5.4-2.6c.1 0 .1 0 0 0 0-.1-.2-.4-.2-.5v.4c-.1 0-.2.1-.1.2 0 0 .1.1.3.1.1-.1.2-.1.2-.2h-.2zm-2.4-.8zm-8.9-.1c0 .1 0 .1 0 0 0 .1 0 .1 0 0 .1 0 0 0 0 0zm19.1.2s-.1.1-.1.2l.2.2c0-.2 0-.4-.1-.4zm45.3-8.2s0-.1-.1-.1c0 .1.1.1.1.1zm-3.3-3.5v0c.1-.2-.1-.2 0 0zm7 2h-.1s.1.1.2.1c0 0 0-.1-.1-.1zm-7-2.2c-.1 0-.2 0-.2.2 0-.1.1-.2.2-.2zm5.3 6c.2.2.3.3.4.1-.1-.2-.5-.5-.7-.6-.2.1.1.3.3.5zm-12.7-5.1c.2-.1.3-.2.3-.2.1-.3-.2-.2-.3.2zm11.9-.7c.1-.1.3-.5.3-.6 0 0-.1 0-.1-.1l.1-.1c.1-.1.1-.2.1-.3-.2.3-.3.6-.5.9 0 .1.1.2.1.2zm-33-3.6c0 .1.1.2.1.2.2.1.2 0-.1-.2zm15.1.4c-.1.4-.2.8-.3 1.3l.4.4c.3-.7.2-1.2-.1-1.7zm-23.8-2.6c-.6.1-1.3.2-1.9.3 1.4.1 3.1 0 3.1-.2-.3 0-.7 0-1.2-.1zm20.6 2.4c0 .1 0 .1 0 0 0 .1 0 .1 0 0zm-1-.1c.2-.1.1-.1 0 0zm10.6 4zm11.7 4.3s-.1 0-.1.1c.2-.1.2-.1.1-.1zm-1 1.3c.5 0 .2-.6.1-1.2.3-.1.7-.2.8-.2.2-.2-.4-.2-.9 0 0-.2.1-.4.2-.5-.5.1-1.2.5-1.1 1 .2.6.6 1 .9.9zm.3-1.8h.1c.3-.2.1-.2-.1 0zm1.2.4v-.3l-.2.2c-.1.1.1.1.2.1zM49 50.1zm24.8.9s.1 0 0 0c.1-.1 0-.2 0-.3-.1 0 0 .1 0 .3zm-8.6-.3l.6.3c0-.5-.3-.6-.6-.3zM48.8 39.9c.1 0 0 0 0 0zm.4 10.6l.1.1s0-.1-.1-.1zm26.2-.1c-.1-.2-.6-.5-1.1-.9 0 0-.1 0-.2.1.4.4.7.9.8 1.1.2-.1.3-.2.5-.3z"/></svg>