<svg xmlns="http://www.w3.org/2000/svg" xmlns:xlink="http://www.w3.org/1999/xlink" viewBox="0 0 110.9 97.6"><style>.st186,.st313,.st314{fill-rule:evenodd;clip-rule:evenodd;fill:#fff}.st313,.st314{fill:#231f20}.st314{fill:#ffca05}</style><g id="Layer_1"><path d="M0 86.5L83.9 82l.3.3 9 10.1.6-10.8v-.1l7.2-.4L111 15 8.2 24.7 0 86.5z" fill="#231f20"/><path class="st313" d="M72.6 63.1c-1.6.6-3.1 1.1-4.7 1.8-.7.3-1.4.6-2 .9-.3.2-.8.4-1.1.6l-1.6 1.2.4-1.9c.6-2.6 1.3-5.2 2.2-7.8l.1-.3.3-.1c1.7-.9 3.5-1.7 5.3-2.5 2.3-1 4.6-1.9 6.9-2.8 2.4-.9 4.9-1.8 7.3-2.7 1.9-.6 3.8-1.3 5.7-1.8l1.2-.3-.3 1.2c-.7 2.8-1 5.8-1.8 8.6l-.1.5-.4-.2c-.4.1-.7.2-1.1.2-.6.2-1.3.3-1.9.5-1.6.5-3.3 1-4.9 1.5-2.4 9.2-4.4 18.8-5.1 28.3v.5l-.5.1c-1.1.3-2.1.7-3.1 1.2-1.1.5-2.1 1.2-3.1 1.8l-1.3 1 .1-1.4c.8-9.4 1.6-18.9 3.5-28.1z"/><path class="st313" d="M74.1 64.6c-3.4 1.2-6.5 2.3-9.4 4.4l.4-1.9c.6-2.6 1.3-5.2 2.2-7.8l.1-.3.3-.1c1.7-.9 3.5-1.7 5.3-2.5 2.3-1 4.6-1.9 6.9-2.8 2.4-.9 4.9-1.8 7.3-2.7 1.9-.6 3.8-1.3 5.7-1.8l1.2-.3c-.8 3.2-1.2 6.6-2.1 9.8l-.1.4-.5.1c-.4.1-.7.2-1.1.2-.6.2-1.3.3-1.9.5-1.6.5-3.3 1-4.9 1.5-2.4 9.2-4.4 18.8-5.1 28.3v.5c-2.9.9-5.3 2.4-7.9 3.9l.1-1.4c.7-9.3 1.5-18.7 3.5-28z"/><path class="st314" d="M81.5 59.3C79 69 77 79 76.2 88.1c-2.8.9-3.8 1.6-6.4 3.1.8-9.8 1.7-19.7 3.8-29.3-4.5 1.6-8.3 3.1-9.2 3.8.6-2.5 1.2-5.1 2.1-7.7 5.3-2.9 19.7-8.3 25.1-9.7-.6 2.2-1.2 6.4-1.7 8.6-1 0-4.4 1.1-8.4 2.4z"/><defs><path id="SVGID_101_" d="M81.5 59.3C79 69 77 79 76.2 88.1c-2.8.9-3.8 1.6-6.4 3.1.8-9.8 1.7-19.7 3.8-29.3-4.5 1.6-8.3 3.1-9.2 3.8.6-2.5 1.2-5.1 2.1-7.7 5.3-2.9 19.7-8.3 25.1-9.7-.6 2.2-1.2 6.4-1.7 8.6-1 0-4.4 1.1-8.4 2.4z"/></defs><clipPath id="SVGID_2_"><use xlink:href="#SVGID_101_" overflow="visible"/></clipPath><path d="M65.7 84.8c-2.3.8-4.7 1.6-7 2.4-.6 2-1.2 4.1-1.7 6.1l-.2.7-.7-.2c-2.1-.5-4.2-.6-6.4-.7h-1l.3-.9c3.4-10.3 7.1-20.5 11.3-30.5l.1-.3 4.4-1.8 7-3v1.1c-.2 10.3.4 20.7 2.8 30.7l.2.6-.6.2C72 90 69.8 91 67.7 92l-.9.4-.2-1c-.3-2-.6-4.3-.9-6.6zm-1.1-15.6c-1.2 3.3-2.3 6.6-3.4 10 1.3-.4 2.6-.9 3.9-1.3-.3-2.9-.4-5.8-.5-8.7z" clip-path="url(#SVGID_2_)" fill-rule="evenodd" clip-rule="evenodd" fill="#d1a51e"/><path class="st313" d="M62.5 81.8c-2.3.8-4.7 1.6-7 2.4-.6 2-1.2 4.1-1.7 6.1l-.2.7-.7-.2c-2.1-.5-4.2-.6-6.4-.7h-1l.3-.9c3.4-10.3 7.1-20.5 11.3-30.5l.1-.3 4.4-1.8 7-3v1.1c-.2 10.3.4 20.7 2.8 30.7l.2.6-.6.2c-2.2.8-4.4 1.8-6.5 2.8l-.9.4-.2-1c-.4-2-.7-4.3-.9-6.6zm-1.2-15.7c-1.2 3.3-2.3 6.6-3.4 10 1.3-.4 2.6-.9 3.9-1.3-.2-2.9-.4-5.8-.5-8.7z"/><path class="st313" d="M64.2 83.6c-2.3.8-4.7 1.6-7 2.4-.6 2-1.2 4.1-1.7 6.1l-.2.7-.7-.2c-2.1-.5-4.2-.6-6.4-.7h-1l.3-.9c3.4-10.3 7.1-20.5 11.3-30.5l.1-.3 4.4-1.8 7-3v1.1c-.2 10.3.4 20.7 2.8 30.7l.2.6-.6.2c-2.2.8-4.4 1.8-6.5 2.8l-.9.4-.2-1c-.4-2-.7-4.3-.9-6.6zM63 68c-1.2 3.3-2.3 6.6-3.4 10 1.3-.4 2.6-.9 3.9-1.3-.2-2.9-.4-5.8-.5-8.7z"/><path class="st314" d="M46.6 89.5c3.3-10 6.9-20.1 11.2-30.5l4.1-1.7 5.9-2.5c-.2 10.6.5 21 2.8 30.9-2.2.8-4.4 1.8-6.6 2.8-.4-2.6-.7-5.2-1-7.8-2.3.8-5.8 2-8.2 2.9-.6 2.2-1.2 4.4-1.8 6.5-2-.4-4.2-.5-6.4-.6zm16-14.1c-.3-4.3-.5-8.7-.6-13.2-1.9 5.1-3.6 10.1-5.2 15.1 1.7-.6 4-1.4 5.8-1.9z"/><defs><path id="SVGID_103_" d="M46.6 89.5c3.3-10 6.9-20.1 11.2-30.5l4.1-1.7 5.9-2.5c-.2 10.6.5 21 2.8 30.9-2.2.8-4.4 1.8-6.6 2.8-.4-2.6-.7-5.2-1-7.8-2.3.8-5.8 2-8.2 2.9-.6 2.2-1.2 4.4-1.8 6.5-2-.4-4.2-.5-6.4-.6zm16-14.1c-.3-4.3-.5-8.7-.6-13.2-1.9 5.1-3.6 10.1-5.2 15.1 1.7-.6 4-1.4 5.8-1.9z"/></defs><clipPath id="SVGID_4_"><use xlink:href="#SVGID_103_" overflow="visible"/></clipPath><path d="M44.7 80.6c-1.4.4-2.8.8-4.1 1.3-.7 3.6-1.3 7.2-1.7 10.9l-.1.5c-3.1 1-5.9 2.7-8.7 4.3l.2-1.7c1.3-10.4 3.5-20.7 6.9-30.6l.1-.3.3-.2c2.2-1.3 4.5-1.8 6.9-2.5l1.6-.5-.5 1.5c-1.1 3.3-2.1 6.7-3 10.1 1.4-.5 2.8-.9 4.2-1.3 1-3.7 2.1-7.4 3.4-11l.1-.3.3-.2c2.2-1.3 4.5-1.8 6.9-2.5l1.6-.5-.5 1.5c-2.1 6.3-3.9 12.6-5.1 19.1-.6 3.2-1.1 6.5-1.5 9.8l-.1.5c-3.1 1-6 2-8.9 3.7l.2-1.7c.3-3.1.8-6.5 1.5-9.9z" clip-path="url(#SVGID_4_)" fill-rule="evenodd" clip-rule="evenodd" fill="#d1a51e"/><path class="st313" d="M41.3 78.4c-1.4.4-2.8.8-4.1 1.3-.7 3.6-1.3 7.2-1.7 10.9l-.1.5-.5.2c-2.4.7-4.6 2.1-6.7 3.3l-1.5.8.2-1.7c1.3-10.4 3.5-20.7 6.9-30.6l.1-.3.3-.2c2.6-1.5 5.6-2.2 8.5-3l-.5 1.5c-1.1 3.3-2.1 6.7-3 10.1 1.4-.5 2.8-.9 4.2-1.3 1-3.7 2.1-7.4 3.4-11l.1-.3c2.8-1.6 5.8-2.3 8.8-3.2l-.7 1.7c-2.1 6.3-3.9 12.6-5.1 19.1-.6 3.2-1.1 6.5-1.5 9.8l-.1.5-.5.2c-2.4.7-4.7 1.4-6.9 2.7l-1.5.8.2-1.7c.4-3.3 1-6.7 1.7-10.1z"/><path class="st313" d="M42.9 80.2c-1.4.4-2.8.8-4.1 1.3-.7 3.6-1.3 7.2-1.7 10.9l-.1.5c-3.1 1-5.9 2.7-8.7 4.3l.2-1.7c1.3-10.4 3.5-20.7 6.9-30.6l.1-.3.3-.2c2.2-1.3 4.5-1.8 6.9-2.5l1.6-.5-.6 1.6c-1.1 3.3-2.1 6.7-3 10.1 1.4-.5 2.8-.9 4.2-1.3 1-3.7 2.1-7.4 3.4-11l.1-.3.3-.2c2.2-1.3 4.5-1.8 6.9-2.5l1.6-.5-.5 1.5c-2.1 6.3-3.9 12.6-5.1 19.1-.6 3.2-1.1 6.5-1.5 9.8l-.1.5c-3.1 1-6 2-8.9 3.7l.2-1.7c.4-3.2.9-6.6 1.6-10z"/><defs><path id="SVGID_105_" d="M47.4 59.3c2.2-1.3 4.2-1.7 6.7-2.5C50.6 67 48.7 76 47.4 85.9c-2.4.7-4.8 1.5-7 2.7.5-4 1.1-7.8 1.9-11.5-1.7.5-4 1.2-6 1.9-.7 3.8-1.3 7.6-1.8 11.4-2.4.7-4.7 2.1-6.9 3.4 1.3-10.4 3.5-20.5 6.8-30.4 2.2-1.3 4.2-1.7 6.7-2.5-1.4 4-2.5 7.9-3.4 11.7 2-.7 4-1.3 6.1-1.9 1.1-3.7 2.3-7.5 3.6-11.4z"/></defs><use xlink:href="#SVGID_105_" overflow="visible" fill-rule="evenodd" clip-rule="evenodd" fill="#ffca05"/><clipPath id="SVGID_6_"><use xlink:href="#SVGID_105_" overflow="visible"/></clipPath><path d="M27 62.2c4.1.2 6.8 3.3 8 7.1l.2.6-7.7 4.5-.2-1.2c-.1-.8-.6-2.8-1.6-2.8s-2.1 1.4-2.6 2.1c-1.1 1.7-1.9 4-2.3 6-.4 1.8-.5 3.9-.2 5.7.1.7.5 2.1 1.3 2.4h.2c.9 0 1.9-1.1 2.4-1.8 1.1-1.5 1.8-3.4 2.3-5.2l.2-.7 8.2.7-.3 1c-1 3.7-2.9 7.4-5.6 10.1-2.2 2.3-5.3 4.1-8.6 4-1.1 0-2.2-.3-3.1-.8-2.5-1.2-4-3.6-4.8-6.2-1-3.2-.9-6.7-.3-9.9.8-4.1 2.7-8.1 5.5-11.2 2.2-2.4 5.4-4.5 9-4.4z" clip-path="url(#SVGID_6_)" fill-rule="evenodd" clip-rule="evenodd" fill="#d1a51e"/><path class="st313" d="M79.4 38.3c9.6 5.5 13.1-2.4 6.3-5.1-8.2-3.4-9-12.6-3.7-19 .5-.6 1-1.1 1.6-1.6 2-1.7 4.5-2.8 7.1-3.4 3.9-.9 8.9-.8 12.6.8l.8.3-.3.8c-1.1 2.7-2.1 5.5-3.2 8.2l-.5 1.2-.9-.9c-1.6-1.6-3.8-2.1-6-1.7-1.7.3-3.7 1.3-4.3 3-.1.4-.2.8-.2 1.2 0 .4.1.7.3 1.1.6 1.1 2.7 2.1 3.8 2.8 2.4 1.6 4.2 3.4 5.6 5.9 2.4 4.2.5 9.8-2.6 13.1-4.7 5-11.6 5.3-17.8 3l-.6-.2v-.6c.1-2.7.3-5.4.4-8.1l.1-1.4 1.5.6z"/><path class="st313" d="M80.9 40.2c9.6 5.5 13.1-2.4 6.3-5.1-8.2-3.4-9-12.6-3.7-19 .5-.6 1-1.1 1.6-1.6 2-1.7 4.5-2.8 7.1-3.4 3.9-.9 8.9-.8 12.6.8l.8.3-.3.8c-1.1 2.7-2.1 5.5-3.2 8.2l-.5 1.2-.9-.9c-1.6-1.6-3.8-2.1-6-1.7-1.7.3-3.7 1.3-4.3 3-.1.4-.2.8-.2 1.2 0 .4.1.7.3 1.1.6 1.1 2.7 2.1 3.8 2.8 2.4 1.6 4.2 3.4 5.6 5.9 2.4 4.2.5 9.8-2.6 13.1-4.7 5-11.6 5.3-17.8 3l-.6-.2v-.6c.1-2.7.3-5.4.4-8.1l.1-1.4 1.5.6z"/><defs><path id="SVGID_107_" d="M78.9 39.1c-.1 2.7-.3 5.4-.4 8.1 15.4 5.7 23.1-8.1 19.3-14.9C94 25.5 88.2 26 88 22.1c-.3-4.6 7.7-7.3 11.9-3.1 1.1-2.7 2.1-5.5 3.2-8.2-5.3-2.3-15.5-1.9-20.4 4-4.9 5.9-4.5 14.4 3.3 17.6 7.8 3.2 3.7 12.9-7.1 6.7z"/></defs><use xlink:href="#SVGID_107_" overflow="visible" fill-rule="evenodd" clip-rule="evenodd" fill="#ffca05"/><clipPath id="SVGID_8_"><use xlink:href="#SVGID_107_" overflow="visible"/></clipPath><path d="M91 4c.1-.2.1-.3.2-.5-1.9-1-3.8-2-5.8-3-.7 1.9-.6 1.9-1.3 3.9-.7 1.9-1.3 3.8-1.8 5.7-.3 1-.7 2.4-.6 3.4v.3l.3.2c.9.8 1.7 1.6 2.8 2.2l1.5.9.3-1.2v-.1c.3.2.5.4.9.6l1.5.9.3-1.2c1.3-4.4 2.1-6.7 3.9-11-.7-.3-1.5-.7-2.2-1.1z" clip-path="url(#SVGID_8_)" fill-rule="evenodd" clip-rule="evenodd" fill="#d1a51e"/><path class="st313" d="M84 1.9s-.6 1.9-1.3 3.9c-.7 1.9-.4 1-.9 2.9-.3 1-.7 2.4-.6 3.4v.3l.3.2c.9.8 1.7 1.6 2.8 2.2l1.5.9.3-1.2C87.6 9.7 91.8 0 91.8 0L84 1.9z"/><path class="st313" d="M86.8 2.5S86 4.6 85.5 6c-.7 1.9-.4 1-.9 2.9-.3 1-.7 2.4-.6 3.4v.3l.3.2c.9.8 1.7 1.6 2.8 2.2l1.5.9.3-1.2C90.2 10.3 93.8.8 93.8.8l-7 1.7z"/><path class="st314" d="M84.8 3.2s-2.5 7.4-2.4 9c.6.5 1.7 1.5 2.6 2.1 1.4-4.6 4.9-12.7 4.9-12.7l-5.1 1.6z"/><path class="st313" d="M59.8 21c-1.8.7-3.5 1.5-5.2 2.2-.8.3-1.5.7-2.3 1.1-.4.2-.9.4-1.2.7l-1.8 1.4.4-2.2c.5-3 1.2-6 2.1-9l.1-.3.3-.2c1.9-1.1 3.9-2.1 5.9-3.1 2.6-1.2 5.2-2.4 7.8-3.5 2.7-1.2 5.5-2.3 8.2-3.4 2.1-.8 4.2-1.6 6.4-2.3l1.4-.4-.3 1.4c-.7 3.2-.9 6.6-1.6 9.8l-.1.6-.6.1-1.2.3c-.7.2-1.4.4-2.1.7-1.8.6-3.7 1.3-5.5 2-2.3 10.6-4.1 21.7-4.6 32.5v.6l-.5.2c-1.2.4-2.4.9-3.5 1.6-1.2.7-2.3 1.5-3.5 2.2l-1.4.8.1-1.6c.4-10.8.9-21.6 2.7-32.2z"/><path class="st313" d="M61.5 22.7c-3.8 1.5-7.3 2.9-10.5 5.4l.4-2.2c.5-3 1.2-6 2.1-9l.1-.3.3-.2c1.9-1.1 3.9-2.1 5.9-3.1 2.6-1.2 5.2-2.4 7.8-3.5 2.7-1.2 5.5-2.3 8.2-3.4 2.1-.8 4.2-1.6 6.4-2.3l1.4-.4c-.8 3.7-1.1 7.5-1.9 11.3l-.1.6H81l-1.2.3c-.7.2-1.4.4-2.1.7-1.8.6-3.7 1.3-5.5 2-2.3 10.6-4.1 21.7-4.6 32.5v.6c-3.3 1.2-6 3-8.9 4.8l.1-1.6c.4-10.8.9-21.6 2.7-32.2z"/><path class="st314" d="M69.7 16.2c-2.4 11.2-4.2 22.7-4.7 33.1-3.2 1.1-4.3 2-7.1 3.8.4-11.2 1-22.5 3-33.6-5 2-9.4 3.9-10.4 4.7.5-2.9 1.2-5.9 2.1-8.9C58.5 11.9 74.7 5 80.7 3.2c-.5 2.5-1.1 7.4-1.6 9.8-1.1.2-4.9 1.5-9.4 3.2z"/><g><defs><path id="SVGID_109_" d="M69.7 16.2c-2.4 11.2-4.2 22.7-4.7 33.1-3.2 1.1-4.3 2-7.1 3.8.4-11.2 1-22.5 3-33.6-5 2-9.4 3.9-10.4 4.7.5-2.9 1.2-5.9 2.1-8.9C58.5 11.9 74.7 5 80.7 3.2c-.5 2.5-1.1 7.4-1.6 9.8-1.1.2-4.9 1.5-9.4 3.2z"/></defs><clipPath id="SVGID_10_"><use xlink:href="#SVGID_109_" overflow="visible"/></clipPath><path d="M47.9 28.2c-.3 1.4-.6 2.8-.9 4.3 2.7-1.1 5.4-2.1 8.1-3.1l1.4-.5-.3 1.4c-.4 2.5-.9 5-1.3 7.5l-.1.5-.5.2c-2.9 1-5.9 2.1-8.7 3.3-.1 1.2-.3 2.3-.4 3.5 3.4-1.6 6.8-2.9 10.3-4.1l1.4-.5-.3 1.4c-.4 2.5-.9 5-1.3 7.5l-.1.6-.6.1c-1.1.3-2.6.9-3.7 1.4-1.8.8-3.7 1.7-5.5 2.5-2.3 1.1-4.6 2.3-6.7 3.6-.7.5-1.4.9-2 1.4l-1.4.9.1-1.7c.6-11.8 2.2-23.4 5.1-34.9l.1-.3.3-.2c.6-.4 1.2-.8 1.9-1.1 5.2-2.8 10.5-5.3 16.1-7.3l1.4-.5-.3 1.5c-.4 2.4-.9 4.9-1.3 7.3l-.1.5-.6.3c-2.3.9-4.5 1.8-6.8 2.8-1.1.6-2.2 1.1-3.3 1.7z" clip-path="url(#SVGID_10_)" fill-rule="evenodd" clip-rule="evenodd" fill="#d1a51e"/></g><path class="st313" d="M45.1 25.8c-.3 1.4-.6 2.8-.9 4.3 2.7-1.1 5.4-2.1 8.1-3.1l1.4-.5-.3 1.4c-.4 2.5-.9 5-1.3 7.5l-.1.5-.5.2c-2.9 1-5.9 2.1-8.7 3.3-.1 1.2-.3 2.3-.4 3.5 3.4-1.6 6.8-2.9 10.3-4.1l1.4-.5-.3 1.4c-.4 2.5-.9 5-1.3 7.5l-.1.6-.6.2c-1.1.3-2.6.9-3.7 1.4-1.9.8-3.7 1.7-5.5 2.5-2.3 1.1-4.6 2.3-6.7 3.6-.7.5-1.4.9-2 1.4l-1.4.9.1-1.7c.6-11.8 2.2-23.4 5.1-34.9l.1-.3.3-.2c.6-.4 1.2-.8 1.9-1.1 5.2-2.8 10.5-5.3 16.1-7.3l1.4-.5-.3 1.5c-.4 2.4-.9 4.9-1.3 7.3l-.1.5-.4.2c-2.3.9-4.5 1.8-6.8 2.8-1.2.6-2.4 1.1-3.5 1.7z"/><path class="st313" d="M46.8 27.4c-.3 1.4-.6 2.8-.9 4.3 2.7-1.1 5.4-2.1 8.1-3.1l1.4-.5-.3 1.4c-.4 2.5-.9 5-1.3 7.5l-.1.5-.5.2c-2.9 1-5.9 2.1-8.7 3.3-.1 1.2-.3 2.3-.4 3.5 3.4-1.6 6.8-2.9 10.3-4.1l1.4-.5-.3 1.4c-.4 2.5-.9 5-1.3 7.5l-.1.6-.6.1c-1.1.3-2.6.9-3.7 1.4-1.8.8-3.7 1.7-5.5 2.5-2.3 1.1-4.6 2.3-6.7 3.6-.7.5-1.4.9-2 1.4l-1.4.9.1-1.7c.6-11.8 2.2-23.4 5.1-34.9l.1-.3.3-.2c.6-.4 1.2-.8 1.9-1.1 5.2-2.8 10.5-5.3 16.1-7.3l1.4-.5-.3 1.7c-.4 2.4-.9 4.9-1.3 7.3l-.1.5-.5.2c-2.3.9-4.5 1.8-6.8 2.8-1.1.5-2.2 1-3.4 1.6z"/><g><defs><path id="SVGID_111_" d="M38.5 21.4c.6-.4 1.2-.7 1.8-1 5.7-3.1 11-5.4 16-7.2-.4 2.5-.9 4.8-1.3 7.3 0 0-6.8 2.6-10.6 4.7-.5 2.1-.9 4.2-1.2 6.2 3-1.3 6.2-2.5 9.5-3.7-.4 2.5-.9 5-1.3 7.5 0 0-5.4 1.8-9.2 3.5-.2 1.8-.4 3.7-.6 5.5 3.8-1.9 7.7-3.4 11.6-4.7-.4 2.5-.9 5-1.3 7.5-2.6.6-11.7 5-16.1 7.6-.7.5-1.4.9-2.1 1.4.3-11.6 1.9-23.1 4.8-34.6z"/></defs><use xlink:href="#SVGID_111_" overflow="visible" fill-rule="evenodd" clip-rule="evenodd" fill="#ffca05"/><clipPath id="SVGID_12_"><use xlink:href="#SVGID_111_" overflow="visible"/></clipPath><path d="M28.7 47.4c3.4-1.5 6.9-2.7 10.5-3.8l1.4-.4-.3 1.4c-.5 2.5-1.1 5-1.6 7.5l-.1.6-.6.1c-1.2.2-2.6.8-3.7 1.2-1.9.7-3.7 1.5-5.6 2.4-2.3 1-4.6 2.1-6.8 3.4-.7.4-1.4.9-2.1 1.3l-1.4.9.1-1.7c1-11.8 3-23.3 6.3-34.7l.1-.4.3-.2c2.3-1.2 5.1-2.1 7.7-2.6l1.4-.3-.4 1.4c-2.4 7.8-4.1 15.7-5.2 23.9z" clip-path="url(#SVGID_12_)" fill-rule="evenodd" clip-rule="evenodd" fill="#d1a51e"/></g><path class="st313" d="M22.9 61.4c4.1.2 6.8 3.3 8 7.1l.2.6-7.7 4.5-.2-1.2c-.1-.8-.6-2.8-1.6-2.8S19.5 71 19 71.7c-1.1 1.7-1.9 4-2.3 6-.4 1.8-.5 3.9-.2 5.7.1.7.5 2.1 1.3 2.4h.2c.9 0 1.9-1.1 2.4-1.8 1.1-1.5 1.8-3.4 2.3-5.2l.2-.7 8.2.7-.3 1c-1 3.7-2.9 7.4-5.6 10.1-2.2 2.3-5.3 4.1-8.6 4-1.1 0-2.2-.3-3.1-.8-2.5-1.2-4-3.6-4.8-6.2-1-3.2-.9-6.7-.3-9.9.8-4.1 2.7-8.1 5.5-11.2 2.3-2.4 5.5-4.5 9-4.4z"/><path class="st313" d="M24.6 63.2c4.1.2 6.8 3.3 8 7.1l.2.6-7.8 4.5-.2-1.2c-.1-.8-.6-2.8-1.6-2.8s-2.1 1.4-2.6 2.1c-1.1 1.7-1.9 4-2.3 6-.4 1.8-.5 3.9-.2 5.7.1.7.5 2.1 1.3 2.4h.2c.9 0 1.9-1.1 2.4-1.8 1.1-1.5 1.8-3.4 2.3-5.2l.2-.7 8.2.7-.3 1c-1 3.7-2.9 7.4-5.6 10.1-2.2 2.3-5.3 4.1-8.6 4-1.1 0-2.2-.3-3.1-.8-2.5-1.2-4-3.6-4.8-6.2-1-3.2-.9-6.7-.3-9.9.8-4.1 2.7-8.1 5.5-11.2 2.3-2.4 5.5-4.5 9.1-4.4z"/><g><defs><path id="SVGID_113_" d="M22.9 62.3c3.4.1 6 2.7 7.2 6.5l-6 3.5c-.3-2.1-1.2-3.5-2.5-3.6-2.2-.1-4.8 3.9-5.8 8.8-1 5 0 9.1 2.2 9.1 2 .1 4.4-3.2 5.5-7.6l6.5.5c-2.1 7.8-7.9 13.7-13.4 13.5-5.8-.2-9.1-7.3-7.4-15.8 1.7-8.4 7.9-15.1 13.7-14.9z"/></defs><use xlink:href="#SVGID_113_" overflow="visible" fill-rule="evenodd" clip-rule="evenodd" fill="#ffca05"/><clipPath id="SVGID_14_"><use xlink:href="#SVGID_113_" overflow="visible"/></clipPath></g><g><path class="st313" d="M25.6 44.2c3.4-1.5 6.9-2.7 10.5-3.8l1.4-.4-.3 1.4c-.5 2.5-1.1 5-1.6 7.5l-.1.6-.6.1c-1.2.2-2.6.8-3.7 1.2-1.9.7-3.7 1.5-5.6 2.4-2.3 1-4.6 2.1-6.8 3.4-.7.4-1.4.9-2.1 1.3l-1.4.9.1-1.7c1-11.8 3-23.3 6.3-34.7l.1-.4c3-1.5 6.1-2.4 9.4-3.1l-.4 1.4c-2.4 7.9-4.1 15.8-5.2 23.9z"/><path class="st313" d="M27.3 45.9c3.4-1.5 6.9-2.7 10.5-3.8l1.4-.4-.3 1.4c-.5 2.5-1.1 5-1.6 7.5l-.1.6-.6.1c-1.2.2-2.6.8-3.7 1.2-1.9.7-3.7 1.5-5.6 2.4-2.3 1-4.6 2.1-6.8 3.4-.7.4-1.4.9-2.1 1.3l-1.4.9.1-1.7c1-11.8 3-23.3 6.3-34.7l.1-.4.3-.2c2.3-1.2 5.1-2.1 7.7-2.6l1.4-.3-.5 1.4c-2.3 7.9-4 15.8-5.1 23.9z"/><defs><path id="SVGID_115_" d="M34.7 48.8c.5-2.5 1.1-5 1.6-7.5-3.9 1.2-7.9 2.6-11.7 4.3 1.1-8.4 2.7-16.5 5.4-25.6-2.4.5-5.2 1.4-7.5 2.6-3.4 11.3-5.3 22.8-6.3 34.5.7-.4 1.4-.9 2.1-1.3"/></defs><use xlink:href="#SVGID_115_" overflow="visible" fill-rule="evenodd" clip-rule="evenodd" fill="#ffca05"/><clipPath id="SVGID_16_"><use xlink:href="#SVGID_115_" overflow="visible"/></clipPath></g><path class="st186" d="M23.1 23.9c-.2 2-1 4.1-1.5 6-.6 2-1.1 4-1.7 6-.1.4.5.5.6.2.6-2.2 1.2-4.4 1.9-6.6.5-1.8 1.2-3.7 1.4-5.7-.1-.3-.7-.3-.7.1zM39.3 22.4c-1.5 4.5-2.2 9.2-3.1 13.9-.1.4.5.5.6.2.9-4.6 1.6-9.4 3.1-13.9.1-.5-.5-.6-.6-.2zM61.4 26.6c0-.4-.6-.4-.6 0 .1 6.2-1.5 12.3-1.3 18.5 0 .4.6.4.6 0-.2-6.2 1.4-12.3 1.3-18.5zM20.7 64c-3 .7-4.9 1.9-6.4 4.6-.9 1.5-1.7 3.1-2.5 4.7-.7 1.4-1.5 2.6-1.7 4.2 0 .4.6.4.6 0 .2-1.6 1.1-3 1.9-4.4.7-1.2 1.3-2.5 2-3.7.7-1.3 1.4-2.6 2.6-3.4 1.1-.8 2.4-1.1 3.7-1.4.3-.1.1-.7-.2-.6zM22 85.3c0 .3-.6.6-.8.8-.3.2-.5.4-.8.6-.6.5-1.1.9-1.8 1-.4.1-.2.7.2.6.9-.2 1.5-.7 2.2-1.3.5-.4 1.6-1 1.6-1.8 0-.3-.6-.3-.6.1zM74.7 62.3c-1.2 1.6-.9 3.3-1.1 5.2-.2 2.6-1.1 5.3-1.7 7.9-.1.4.5.5.6.2.5-2.2 1-4.4 1.5-6.5.4-2-.3-4.6 1.1-6.3.2-.4-.2-.8-.4-.5zM59 59.1c-1.8 3.2-2.6 6.9-3.6 10.4-.1.4.5.5.6.2 1-3.4 1.8-7.1 3.5-10.2.2-.4-.3-.7-.5-.4zM34.6 64.3c-1 3.3-2 6.7-2.5 10.2-.1.4.6.4.6 0 .4-3.4 1.5-6.8 2.5-10 0-.5-.5-.6-.6-.2zM47.8 60.4c-.1 1.6-1.1 3.3-1.6 4.8-.5 1.6-.9 3.3-1.2 4.9-.1.4.5.5.6.2.4-1.8.8-3.7 1.4-5.4.5-1.4 1.3-2.9 1.4-4.4 0-.4-.6-.4-.6-.1zM84.2 29.7c-.8-1.2-1.7-2.3-2.2-3.7-.4-1.3-1.1-3.1-.3-4.3.2-.3-.3-.6-.5-.3-.8 1.2-.3 2.6 0 3.9.5 1.8 1.4 3.1 2.5 4.7.2.3.8 0 .5-.3zM90.9 39.7c-.1.8-.7 1.3-1.3 1.8-.6.4-1.4 1.1-2.2.7-.4-.1-.5.4-.2.6 1 .4 2-.3 2.8-.9.7-.6 1.3-1.2 1.4-2.1.2-.5-.4-.5-.5-.1z"/></g></svg>