<svg xmlns="http://www.w3.org/2000/svg" xmlns:xlink="http://www.w3.org/1999/xlink" viewBox="0 0 89.7 84.5"><style>.st69{fill:none}.st214{enable-background:new}.st215{fill:#d8d8ad}.st216{fill:#2f6257}.st217{fill:#afaf8c}.st218{fill:#408677}.st219{fill:#808066}.st221{fill:#31665a}.st223{fill:#85856a}.st224{fill:#8a8a6e}.st225{fill:#8f8f72}.st226{fill:#949476}.st227{fill:#99997a}.st228{fill:#9e9e7e}.st229{fill:#a3a383}.st230{fill:#a8a887}.st231{fill:#adad8b}.st235{fill:#336a5e}.st236{fill:#356e61}.st237{fill:#377265}.st238{fill:#387668}.st239{fill:#3a7a6c}.st240{fill:#3c7d6f}.st241{fill:#3e8173}.st242{fill:#408576}.st246{fill:#2f6358}.st253{fill:#a6a685}.st254{fill:#418878}.st259{fill:#418778}</style><g id="Layer_1"><path d="M80.3 0H9.4C4.2 0 0 4.2 0 9.4v58.4c0 5.2 4.2 9.4 9.4 9.4h67.2l13.1 7.3V9.4c0-5.2-4.2-9.4-9.4-9.4z" fill="#21363d"/><g class="st214"><path class="st215" d="M16.6 19.3V36l.6-.1 6.9-1.2v3.9l-12 2-.1-20.5z"/><path class="st216" d="M16.6 19.3l1.9 1.9-4.6.7-1.9-1.8z"/><path class="st217" d="M16.6 19.3l1.9 1.9v16l-1.9-1.8z"/><path class="st218" d="M12 20.1l1.9 1.8.1 20.5-1.9-1.8zM17.1 18.7l1.9 1.8.1 16.7-1.9-1.9z"/><path class="st217" d="M16.6 35.4l1.9 1.8.1.6-2-1.8z"/><path class="st216" d="M17.2 35.9l2 1.8-.6.1-2-1.8z"/><path class="st216" d="M24.1 34.7l1.9 1.9-6.8 1.1-2-1.8z"/><path class="st219" d="M24.1 38.6l2 1.8-12.1 2-1.9-1.8z"/><path class="st217" d="M24.1 34.7l1.9 1.9.1 3.8-2-1.8z"/><path class="st215" d="M17.2 35.3l7.5-1.2v5l-13.1 2.1-.1-21.6 5.6-.9.1 16.6zm6.9 3.3v-3.9l-6.9 1.1-.6.2v-.6l-.1-16-4.5.7.1 20.5 12-2"/><path class="st218" d="M24.7 34.1l1.9 1.8v5l-1.9-1.8z"/><path class="st216" d="M24.7 39.1l1.9 1.8L13.5 43l-1.9-1.8z"/></g><g class="st214"><path class="st215" d="M38.9 15.7v3.8l-7.5 1.2-.4.1v4.3l.6-.1 6.9-1.2v3.9l-7.1 1.2-.4.1v4.8l.6-.1 7.7-1.3v3.8l-12.8 2.1-.1-20.5z"/><path class="st219" d="M31.4 20.7l1.9 1.8-.4.1-1.9-1.8z"/><path class="st217" d="M31 20.8l1.9 1.8v.4L31 21.2z"/><path class="st216" d="M38.9 15.7l1.9 1.8-12.5 2.1-1.9-1.8z"/><path class="st217" d="M31 21.2l1.9 1.8v3.3L31 24.5z"/><path class="st218" d="M31.5 21.2l1.9 1.8v3.3l-1.9-1.9z"/><path class="st217" d="M31 24.5l1.9 1.8v.6L31 25.1z"/><path class="st216" d="M31.6 25l1.9 1.8-.6.1-1.9-1.8z"/><path class="st217" d="M38.9 15.7l1.9 1.8v3.8l-1.9-1.8z"/><path class="st219" d="M38.9 19.5l1.9 1.8-7.5 1.2-1.9-1.8z"/><path class="st216" d="M39.4 19.9l1.9 1.8-7.9 1.3-1.9-1.8z"/><path class="st218" d="M39.4 15.1l1.9 1.8v4.8l-1.9-1.8z"/><path class="st219" d="M31.4 28.9l2 1.8-.5.1L31 29z"/><path class="st217" d="M31 29l1.9 1.8v.4L31 29.4z"/><path class="st216" d="M38.5 23.8l1.9 1.8-6.9 1.2-1.9-1.8z"/><path class="st217" d="M31 29.4l1.9 1.8V35L31 33.2z"/><path class="st218" d="M26.4 17.8l1.9 1.8.1 20.5-1.9-1.8zM31.5 29.4l1.9 1.8V35l-1.9-1.9z"/><path class="st217" d="M31 33.2l1.9 1.8v.6L31 33.8z"/><path class="st216" d="M31.6 33.7l1.9 1.8-.6.1-1.9-1.8z"/><path class="st217" d="M38.5 23.8l1.9 1.8v3.9l-1.9-1.8z"/><path class="st219" d="M38.5 27.7l1.9 1.8-7 1.2-2-1.8z"/><path class="st218" d="M39 23.2l1.9 1.8.1 5-2-1.8z"/><path class="st216" d="M39 28.2l2 1.8-7.6 1.2-1.9-1.8zM39.3 32.4l1.9 1.8-7.7 1.3-1.9-1.8z"/><path class="st219" d="M39.3 36.2l1.9 1.8-12.8 2.1-1.9-1.8z"/><path class="st217" d="M39.3 32.4l1.9 1.8V38l-1.9-1.8z"/><path class="st218" d="M39.8 31.8l1.9 1.8v4.8l-1.9-1.8z"/><path class="st215" d="M31.5 33.1l8.3-1.4v4.8L26 38.9l-.1-21.6 13.6-2.2v4.8l-7.9 1.3v3.2l7.5-1.2v5l-7.5 1.2-.1 3.7zm7.8 3.1v-3.8l-7.7 1.3-.6.1V29l.5-.1 7.1-1.2v-3.9l-7 1.2-.6.1V20.8l.5-.1 7.5-1.2v-3.8l-12.5 2 .1 20.5 12.7-2"/><path class="st216" d="M39.8 36.6l1.9 1.8-13.8 2.3-1.9-1.8z"/></g><g class="st214"><path class="st215" d="M54.6 13.1V17l-4 .6-.5.1v.5l.1 16.1-4.6.8-.1-16.1v-.6l-.5.1-3.9.7-.1-3.9z"/><path class="st218" d="M41 15.3l2 1.8V21l-1.9-1.8z"/><path class="st219" d="M45 18.5l1.9 1.8-3.9.7-1.9-1.8z"/><path class="st219" d="M45.5 18.4l2 1.8-.6.1-1.9-1.8z"/><path class="st216" d="M45 19.1l1.9 1.8-4.5.7-1.9-1.8z"/><path class="st218" d="M45.5 18.4l2 1.8v.7l-2-1.9z"/><path class="st216" d="M54.6 13.1l1.9 1.8L43 17.1l-2-1.8z"/><path class="st219" d="M50.6 17.6l1.9 1.8-.5.1-1.9-1.8z"/><path class="st217" d="M50.1 17.7l1.9 1.8v.5l-1.9-1.8z"/><path class="st219" d="M54.6 17l1.9 1.8-4 .6-1.9-1.8z"/><path class="st217" d="M54.6 13.1l1.9 1.8v3.9L54.6 17z"/><path class="st218" d="M55.1 12.4l1.9 1.9v4.9l-1.9-1.8z"/><path class="st216" d="M55.1 17.4l1.9 1.8-4.5.8-1.9-1.9z"/><path class="st218" d="M45.5 19l2 1.9v16l-1.9-1.8z"/><path class="st217" d="M50.1 18.2L52 20l.1 16.1-1.9-1.8z"/><path class="st219" d="M50.2 34.3l1.9 1.8-4.6.8-1.9-1.8z"/><path class="st215" d="M40.5 14.8l14.6-2.4v5l-4.5.7.1 16.6-5.6.9-.1-16.5-4.5.7v-5zM54.6 17v-3.9L41 15.3v3.9l3.9-.6.6-.1v.6l.1 16 4.6-.7-.1-16.1v-.5l.5-.1 4-.7"/><path class="st218" d="M50.6 18.1l1.9 1.9.1 16.6-1.9-1.8z"/><path class="st216" d="M50.7 34.8l1.9 1.8-5.6.9-1.9-1.8z"/></g><g class="st214"><path class="st215" d="M22.2 43.3h2c.2 0 .5 0 .7.1l1.2.2v4.2l-.7-.3-1.5-.3c-.6 0-1.1-.1-1.6 0h-.1c-.4 0-.9.1-1.3.1-1.7.3-3.1 1.2-4.2 2.6-1 1.4-1.6 3.1-1.6 5.1 0 2 .6 3.5 1.7 4.6 1 .8 2.1 1.2 3.5 1.1.3 0 .6 0 1-.1l.5-.1.4-.1h.1l.3-.1c.5-.1.9-.2 1.3-.4.7-.2 1.4-.5 2.1-.9v3.9l-2.6 1-1.2.3-1.6.4c-.6.1-1.2.2-1.8.2-2 .1-3.8-.4-5.2-1.3-2.3-1.5-3.4-4-3.4-7.6 0-3.5 1-6.4 2.9-8.6 1.8-2.1 4.3-3.4 7.6-3.9.6 0 1-.1 1.5-.1z"/><path class="st216" d="M23.7 43.4l1.9 1.8h-.3l-1.9-1.9zM24.1 43.4l1.9 1.8h-.4l-1.9-1.8z"/><g class="st214"><defs><path id="SVGID_245_" class="st214" d="M24.8 43.5l1.9 1.8c-.2 0-.4 0-.7-.1l-1.9-1.8c.2 0 .5.1.7.1z"/></defs><clipPath id="SVGID_2_"><use xlink:href="#SVGID_245_" overflow="visible"/></clipPath><g clip-path="url(#SVGID_2_)"><path class="st221" d="M24.8 43.5l1.9 1.8c-.2 0-.4 0-.7-.1l-1.9-1.8c.2 0 .5.1.7.1"/></g></g><path class="st219" d="M22.2 47.2l2 1.8H24l-1.9-1.8z"/><path class="st216" d="M26 43.7l1.9 1.8-1.2-.2-1.9-1.8z"/><g class="st214"><defs><path id="SVGID_247_" class="st214" d="M22.1 47.2L24 49c-.4 0-.9.1-1.3.1-1.7.3-3.1 1.2-4.2 2.6-1 1.4-1.6 3.1-1.6 5.1 0 2 .6 3.5 1.7 4.6l-1.9-1.8C15.5 58.5 15 57 15 55c0-1.9.5-3.6 1.6-5.1 1.1-1.5 2.5-2.3 4.2-2.6.5 0 .9-.1 1.3-.1z"/></defs><clipPath id="SVGID_4_"><use xlink:href="#SVGID_247_" overflow="visible"/></clipPath><g clip-path="url(#SVGID_4_)"><path class="st223" d="M22.1 47.2L24 49c-.4 0-.9.1-1.3.1-1.1.2-2.1.6-3 1.3l-1.9-1.8c.9-.7 1.8-1.2 3-1.3.5 0 .9-.1 1.3-.1"/><path class="st224" d="M17.9 48.7l1.9 1.8c-.3.2-.5.5-.7.7l-1.9-1.8c.2-.3.4-.5.7-.7"/><path class="st225" d="M17.2 49.4l1.9 1.8c-.2.2-.3.4-.4.6-.1.1-.1.2-.2.2l-1.9-1.8c.1-.1.1-.2.2-.2.1-.2.2-.4.4-.6"/><path class="st226" d="M16.6 50.2l1.9 1.8c-.2.3-.3.5-.5.8L16.1 51c.1-.3.3-.5.5-.8"/><path class="st227" d="M16.1 51l1.9 1.8c-.1.3-.3.6-.4.9l-1.9-1.8c.1-.3.2-.6.4-.9"/><path class="st228" d="M15.7 51.9l1.9 1.8c-.1.3-.2.6-.3 1l-1.9-1.8c.1-.4.2-.7.3-1"/><path class="st229" d="M15.4 52.8l1.9 1.8c-.1.4-.2.8-.2 1.3l-1.9-1.8c0-.4.1-.8.2-1.3"/><path class="st230" d="M15.2 54.1l1.9 1.8v.9c0 .4 0 .8.1 1.1l-1.9-1.8c0-.4-.1-.7-.1-1.1v-.9"/><path class="st231" d="M15.2 56.2l1.9 1.8c.1.9.4 1.6.7 2.3L16 58.4c-.4-.6-.6-1.4-.8-2.2"/><path class="st230" d="M16 58.4l1.9 1.8c.2.3.4.6.7.9l-1.9-1.8c-.3-.3-.5-.6-.7-.9"/><path class="st229" d="M16.6 59.3l1.9 1.8.3.3-1.9-1.8-.3-.3"/></g></g><path class="st216" d="M22.2 47.7l1.9 1.9-2-1.9z"/><g class="st214"><defs><path id="SVGID_249_" class="st214" d="M24.2 49c-.1 0-.2-.2-.2-.2-.1-.1-.2-.2-.4-.3-.4-.4-.9-.8-1.3-1.3h1.6l1.9 1.8h-1.6z"/></defs><clipPath id="SVGID_6_"><use xlink:href="#SVGID_249_" overflow="visible"/></clipPath><g clip-path="url(#SVGID_6_)"><path class="st223" d="M23.8 47.3l1.9 1.8c-.6 0-1.1-.1-1.6 0l-1.9-1.8c.5-.1 1-.1 1.6 0"/></g></g><g class="st214"><defs><path id="SVGID_251_" class="st214" d="M23.7 47.8l1.9 1.8h-1.5l-1.9-1.8c.5-.1 1-.1 1.5 0z"/></defs><clipPath id="SVGID_8_"><use xlink:href="#SVGID_251_" overflow="visible"/></clipPath><g clip-path="url(#SVGID_8_)"><path class="st221" d="M23.7 47.8l1.9 1.8h-1.5l-1.9-1.8c.5-.1 1-.1 1.5 0"/></g></g><path class="st219" d="M25.4 47.6l1.9 1.8-1.6-.3-1.9-1.8z"/><path class="st216" d="M25.2 48.1l1.9 1.8-1.5-.3-1.9-1.8z"/><path class="st217" d="M26 43.7l1.9 1.8v4.1L26 47.8z"/><path class="st219" d="M26 47.8l1.9 1.8-.6-.2-1.9-1.8z"/><g class="st214"><defs><path id="SVGID_253_" class="st214" d="M14.6 64.6l-1.9-1.8c-1.6-1.5-2.4-3.8-2.4-6.8 0-3.5 1-6.4 2.9-8.6 1.8-2.1 4.3-3.4 7.6-3.9.5-.1 1-.1 1.4-.1h1.2l1.9 1.8h-1.2c-.5 0-.9.1-1.4.1-3.2.5-5.8 1.9-7.6 3.9-2 2.3-2.9 5.1-2.9 8.6 0 3 .8 5.3 2.4 6.8z"/></defs><clipPath id="SVGID_10_"><use xlink:href="#SVGID_253_" overflow="visible"/></clipPath><g clip-path="url(#SVGID_10_)"><path class="st221" d="M23.4 43.3l1.9 1.8h-1.2c-.5 0-.9.1-1.4.1-2.5.4-4.7 1.3-6.3 2.7l-1.9-1.8c1.7-1.4 3.8-2.3 6.3-2.7.5-.1 1-.1 1.4-.1h1.2"/><path class="st235" d="M14.4 46.2l1.9 1.8c-.4.3-.8.7-1.2 1.1l-1.9-1.8c.4-.4.8-.8 1.2-1.1"/><path class="st236" d="M13.3 47.3l1.9 1.8-.1.1c-.3.3-.6.7-.8 1.1l-1.9-1.8c.2-.4.5-.8.9-1.2-.1.1-.1 0 0 0"/><path class="st237" d="M12.4 48.5l1.9 1.8c-.3.4-.5.8-.7 1.2l-1.9-1.8c.2-.5.4-.9.7-1.2"/><path class="st238" d="M11.7 49.6l1.9 1.8c-.2.4-.4.8-.6 1.3l-1.9-1.8c.2-.5.4-.9.6-1.3"/><path class="st239" d="M11.1 50.9l1.9 1.8c-.2.5-.3 1-.5 1.5l-1.9-1.8c.2-.5.3-1 .5-1.5"/><path class="st240" d="M10.7 52.4l1.9 1.8c-.2.7-.3 1.4-.3 2.1l-1.9-1.8c0-.7.1-1.4.3-2.1"/><path class="st241" d="M10.3 54.5l1.9 1.8c0 .5-.1 1-.1 1.5 0 .7 0 1.3.1 1.9l-1.9-1.8c-.1-.6-.1-1.2-.1-1.9.1-.5.1-1 .1-1.5"/><path class="st242" d="M10.4 57.9l1.9 1.8c.2 1.3.5 2.4 1 3.3l-1.9-1.8c-.5-.9-.8-2-1-3.3"/><path class="st241" d="M11.5 61.2l1.9 1.8c.3.4.6.9.9 1.2l-1.9-1.8c-.4-.4-.7-.8-.9-1.2"/><path class="st240" d="M12.4 62.4l1.9 1.8.3.3-1.9-1.8c-.1 0-.2-.2-.3-.3"/></g></g><path class="st218" d="M26.6 43.2l1.9 1.8v5.4l-1.9-1.8z"/><path class="st216" d="M26.6 48.6l1.9 1.8-1.4-.5-1.9-1.8z"/><g class="st214"><defs><path id="SVGID_255_" class="st214" d="M19.1 61l-1.9-1.8c-1-.9-1.5-2.3-1.5-4.1 0-1.8.5-3.4 1.5-4.7 1-1.3 2.3-2.1 3.8-2.4.4-.1.8-.1 1.2-.1l1.9 1.8c-.4 0-.8 0-1.2.1-1.6.3-2.8 1.1-3.8 2.4-1 1.3-1.5 2.9-1.5 4.7 0 1.7.5 3.1 1.5 4.1z"/></defs><clipPath id="SVGID_12_"><use xlink:href="#SVGID_255_" overflow="visible"/></clipPath><g clip-path="url(#SVGID_12_)"><path class="st221" d="M22.1 47.7l1.9 1.8c-.4 0-.8 0-1.2.1-1 .2-1.9.6-2.7 1.2L18.2 49c.8-.7 1.7-1.1 2.7-1.2.4 0 .8 0 1.2-.1"/><path class="st235" d="M18.2 49.1l1.9 1.8c-.2.2-.5.4-.7.7l-1.9-1.8.7-.7"/><path class="st236" d="M17.6 49.7l1.9 1.8c-.1.2-.3.3-.4.5 0 .1-.1.1-.1.2l-2-1.7c0-.1.1-.1.1-.2.2-.2.3-.4.5-.6"/><path class="st237" d="M17 50.5l1.9 1.8c-.2.2-.3.5-.5.8l-1.9-1.8c.2-.3.3-.6.5-.8"/><path class="st238" d="M16.5 51.2l1.9 1.8c-.1.3-.3.5-.4.8L16.2 52c.1-.2.2-.5.3-.8"/><path class="st239" d="M16.2 52l1.9 1.8-.3.9-1.9-1.7c.1-.4.2-.7.3-1"/><path class="st240" d="M15.9 53l1.9 1.8c-.1.4-.2.8-.2 1.2l-1.9-1.8c.1-.4.1-.8.2-1.2"/><path class="st241" d="M15.7 54.2l1.9 1.8v.8c0 .4 0 .7.1 1.1l-1.9-1.8c0-.3-.1-.7-.1-1.1v-.8"/><path class="st242" d="M15.8 56.1l1.9 1.8c.1.8.3 1.5.7 2l-1.9-1.8c-.4-.6-.6-1.2-.7-2"/><path class="st241" d="M16.4 58.1l1.9 1.8c.2.3.4.6.6.8L17 58.9c-.2-.2-.4-.5-.6-.8"/><path class="st240" d="M17 58.9l1.9 1.8.2.2-1.9-1.8c-.1 0-.1-.1-.2-.2"/></g></g><g class="st214"><defs><path id="SVGID_257_" class="st214" d="M14.3 65l-1.9-1.8c.3.3.7.6 1.1.8l1.9 1.8c-.5-.2-.8-.5-1.1-.8z"/></defs><clipPath id="SVGID_14_"><use xlink:href="#SVGID_257_" overflow="visible"/></clipPath><g clip-path="url(#SVGID_14_)"><path class="st221" d="M13.4 64l1.9 1.8c-.4-.2-.7-.5-1.1-.8l-1.9-1.8c.4.3.7.6 1.1.8"/></g></g><g class="st214"><defs><path id="SVGID_259_" class="st214" d="M21.4 60.6l1.9 1.8c-.3.1-.7.1-1 .1-1.4 0-2.6-.3-3.5-1.1l-1.9-1.8c1 .8 2.1 1.2 3.5 1.1.4 0 .7 0 1-.1z"/></defs><clipPath id="SVGID_16_"><use xlink:href="#SVGID_259_" overflow="visible"/></clipPath><g clip-path="url(#SVGID_16_)"><path class="st221" d="M21.4 60.6l1.9 1.8c-.3.1-.7.1-1 .1-1.4 0-2.6-.3-3.5-1.1l-1.9-1.8c1 .8 2.1 1.2 3.5 1.1.4 0 .7 0 1-.1"/></g></g><path class="st216" d="M22 60.6l1.9 1.8h-.5l-2-1.8z"/><path class="st216" d="M22.4 60.5l1.9 1.8-.4.1-1.9-1.8z"/><path class="st246" d="M22.5 60.5l1.9 1.8h-.1l-1.9-1.8z"/><path class="st216" d="M22.7 60.4l1.9 1.8-.2.1-1.9-1.8z"/><g class="st214"><defs><path id="SVGID_261_" class="st214" d="M15.6 65.4c-.4-.2-.7-.5-1-.8l-1.9-1.8c.3.3.6.6 1 .8.6.6 1.3 1.2 1.9 1.8-.6-.6-1.3-1.2-1.9-1.8 1.5.9 3.2 1.4 5.2 1.3.6.6 1.3 1.2 1.9 1.8-2 0-3.7-.4-5.2-1.3z"/></defs><clipPath id="SVGID_18_"><use xlink:href="#SVGID_261_" overflow="visible"/></clipPath><g clip-path="url(#SVGID_18_)"><path class="st223" d="M20.7 64.6l1.9 1.8c-.6.1-1.2.2-1.8.2-2 .1-3.8-.4-5.2-1.3-.4-.2-.7-.5-1-.8l-1.9-1.8c.3.3.6.6 1 .8 1.5.9 3.2 1.4 5.2 1.3.6 0 1.2 0 1.8-.2"/></g></g><g class="st214"><defs><path id="SVGID_263_" class="st214" d="M24 60l1.9 1.8c-.4.2-.9.3-1.3.4l-1.9-1.8c.5-.1.9-.2 1.3-.4z"/></defs><clipPath id="SVGID_20_"><use xlink:href="#SVGID_263_" overflow="visible"/></clipPath><g clip-path="url(#SVGID_20_)"><path class="st221" d="M24 60l1.9 1.8c-.4.2-.9.3-1.3.4l-1.9-1.8c.5-.1.9-.2 1.3-.4"/></g></g><g class="st214"><defs><path id="SVGID_265_" class="st214" d="M22.6 66.5c-.6.1-1.2.2-1.8.2-.6-.6-1.3-1.2-1.9-1.8.6 0 1.2-.1 1.8-.2.6.5 1.1 1.1 1.7 1.6.1 0 .2.1.2.2z"/></defs><clipPath id="SVGID_22_"><use xlink:href="#SVGID_265_" overflow="visible"/></clipPath><g clip-path="url(#SVGID_22_)"><path class="st223" d="M20.7 64.6l1.9 1.8c-.6.1-1.2.2-1.8.2-2 .1-3.8-.4-5.2-1.3-.4-.2-.7-.5-1-.8l-1.9-1.8c.3.3.6.6 1 .8 1.5.9 3.2 1.4 5.2 1.3.6 0 1.2 0 1.8-.2"/></g></g><g class="st214"><defs><path id="SVGID_267_" class="st214" d="M26.1 59l1.9 1.8c-.7.4-1.4.7-2.1.9L24 60c.7-.3 1.4-.6 2.1-1z"/></defs><clipPath id="SVGID_24_"><use xlink:href="#SVGID_267_" overflow="visible"/></clipPath><g clip-path="url(#SVGID_24_)"><path class="st221" d="M26.1 59l1.9 1.8c-.7.4-1.4.7-2.1.9L24 60c.7-.3 1.4-.6 2.1-1"/></g></g><g class="st214"><defs><path id="SVGID_269_" class="st214" d="M20.8 65.2l1.9 1.8c-.6.1-1.3.2-1.9.2-2.1.1-4-.4-5.5-1.4L13.4 64c1.6 1 3.4 1.4 5.5 1.4.6 0 1.2-.1 1.9-.2z"/></defs><clipPath id="SVGID_26_"><use xlink:href="#SVGID_269_" overflow="visible"/></clipPath><g clip-path="url(#SVGID_26_)"><path class="st221" d="M20.8 65.2l1.9 1.8c-.6.1-1.3.2-1.9.2-2.1.1-4-.4-5.5-1.4L13.4 64c1.6 1 3.4 1.4 5.5 1.4.6 0 1.2-.1 1.9-.2"/></g></g><path class="st219" d="M22.3 64.3l1.9 1.8-1.6.4-1.9-1.9z"/><path class="st216" d="M22.4 64.8l1.9 1.8-1.6.4-1.9-1.8z"/><path class="st219" d="M23.5 64l1.9 1.8-1.2.3-1.9-1.8z"/><path class="st216" d="M23.6 64.5l2 1.8-1.3.3-1.9-1.8z"/><path fill="#818167" d="M26.1 63l2 1.8-2.7 1-1.9-1.8z"/><path class="st217" d="M26.1 59l1.9 1.9.1 3.9-2-1.8z"/><path class="st215" d="M23.9 59.5c.9-.3 1.9-.8 2.8-1.3v5.2l-3 1.2-1.2.3-1.6.4c-.6.1-1.3.2-1.9.2-2.1.1-4-.4-5.5-1.4-2.4-1.6-3.6-4.2-3.6-8 0-3.6 1-6.6 3-9 1.9-2.2 4.5-3.5 7.9-4.1.5-.1 1-.1 1.5-.2h1.2c.2 0 .5 0 .7.1.2 0 .5.1.7.1l1.7.2v5.4l-1.4-.5-1.5-.3h-1.6c-.4 0-.8 0-1.2.1-1.6.3-2.8 1.1-3.8 2.4-1 1.3-1.5 2.9-1.5 4.7 0 1.8.5 3.2 1.6 4.2.9.7 1.9 1.1 3.2 1 .3 0 .6 0 .9-.1l.5-.1.4-.1c.1-.1.2-.1.4-.1.5 0 .9-.1 1.3-.3zm2.2 3.5v-3.9c-.7.4-1.4.7-2.1.9-.4.2-.9.3-1.3.4l-.3.1h-.1l-.3.1-.5.1c-.3.1-.7.1-1 .1-1.4 0-2.6-.3-3.5-1.1-1.2-1.1-1.7-2.6-1.7-4.6 0-1.9.5-3.6 1.6-5.1 1.1-1.5 2.5-2.3 4.2-2.6.4-.1.8-.1 1.3-.1H24l1.5.3.8.3v-4.2l-1.2-.2c-.2 0-.4-.1-.7-.1h-2c-.5 0-.9.1-1.4.1-3.2.5-5.8 1.8-7.6 3.9-2 2.3-2.9 5.1-2.9 8.6 0 3.6 1.1 6.1 3.4 7.6 1.5.9 3.2 1.4 5.2 1.3.6 0 1.2-.1 1.8-.2l1.6-.4 1.2-.3 2.4-1"/><path class="st218" d="M26.7 58.1l1.9 1.8v5.2l-1.9-1.8z"/><path class="st246" d="M26.7 63.3l1.9 1.8-3 1.2-2-1.8z"/></g><g class="st214"><path class="st215" d="M43.8 40.4l.1 20.5-4.8.7V52.8l-.6.1-4.9.8-.5.1v.4l.1 8.4-4.7.8-.1-20.5 4.7-.8v8l.6-.1 4.9-.8.5-.1v-.5l-.1-7.5z"/><path class="st216" d="M33.1 42.1l1.9 1.8-4.7.8-1.9-1.8z"/><path class="st217" d="M33.1 42.1l1.9 1.8v7.4l-1.9-1.8z"/><path class="st218" d="M33.6 41.5l1.9 1.8v8l-1.9-1.9z"/><path class="st217" d="M33.1 49.5l1.9 1.8v.6l-1.9-1.8z"/><path class="st216" d="M33.7 50l1.9 1.8-.6.1-1.9-1.8zM43.8 40.4l1.9 1.8-4.7.7-2-1.8z"/><path class="st219" d="M33.6 53.7l1.9 1.8-.5.1-1.9-1.8z"/><path class="st217" d="M33.1 53.8l1.9 1.8v.5l-1.9-1.9z"/><path class="st218" d="M39 41.1l2 1.8v7.5l-1.9-1.8z"/><path class="st216" d="M38.6 49.2l1.9 1.8-4.9.8-1.9-1.8z"/><path class="st218" d="M39.1 48.6l1.9 1.8v.5l-1.9-1.8z"/><path class="st216" d="M39.1 49.1l1.9 1.8-.5.1-1.9-1.8z"/><path class="st218" d="M28.4 42.9l1.9 1.8.1 20.5-1.9-1.8z"/><path class="st219" d="M38.5 52.9l1.9 1.8-4.9.8-1.9-1.8z"/><path class="st219" d="M39.1 52.8l1.9 1.8-.6.1-1.9-1.8z"/><path class="st216" d="M38.6 53.4l1.9 1.8-4.9.8-1.9-1.8z"/><path class="st218" d="M39.1 52.8l1.9 1.8v.6l-1.9-1.8z"/><path class="st219" d="M33.2 62.6l1.9 1.8-4.7.8-1.9-1.8z"/><path class="st217" d="M33.1 54.2l1.9 1.9.1 8.3-1.9-1.8z"/><path class="st218" d="M33.7 54.2l1.9 1.8v8.9l-1.9-1.8z"/><path class="st216" d="M33.7 63.1l1.9 1.8-5.7.9-2-1.8z"/><path class="st218" d="M39.1 53.4l1.9 1.8v8.3l-1.9-1.9z"/><path class="st217" d="M43.8 40.4l1.9 1.8.1 20.5-1.9-1.8z"/><path class="st219" d="M43.9 60.9l1.9 1.8-4.8.8-1.9-1.9z"/><path class="st215" d="M38.5 40.7l5.8-1 .1 21.6-5.8.9v-8.9l-4.9.8v8.8L27.9 64l-.1-21.6 5.7-.9v8l4.9-.8.1-8zm5.4 20.2l-.1-20.5-4.8.7v8l-.5.1-4.8.8-.6.1v-8l-4.7.8.1 20.5 4.7-.8v-8.9l.5-.1 4.9-.8.6-.1V61.5l4.7-.6"/><path class="st218" d="M44.3 39.7l1.9 1.8.1 21.6-1.9-1.8z"/><path class="st216" d="M44.4 61.3l1.9 1.8-5.8 1-1.9-1.8z"/></g><g class="st214"><path class="st215" d="M59 38l7 19.4-5.1.8-1.3-3.8-.2-.4-.4.1-6.2 1-.3.1-.1.3-1.3 4.3-4.8.8L53.1 39l5.9-1zm-1.3 12.6l.6-.1-.2-.6-1.6-5.7-.5-1.8-.5 1.8-1.8 6.2-.2.8.8-.1 3.4-.5"/><path class="st216" d="M59 38l1.9 1.8-5.9.9-1.9-1.8z"/><path class="st253" d="M56 42.4l1.9 1.8-.5 1.9-1.9-1.9z"/><path class="st254" d="M56 42.4l1.9 1.8.5 1.8-1.9-1.8z"/><path class="st253" d="M55.5 44.2l1.9 1.9-1.8 6.2-1.9-1.8z"/><path class="st253" d="M53.7 50.5l1.9 1.8-.2.8-1.9-1.8z"/><path fill="#3d8071" d="M56 44.4l1.9 1.8-1.7 6.2-2-1.8z"/><path class="st216" d="M54.3 51.1l1.9 1.8-.8.2-1.9-1.8z"/><path fill="#3d7f70" d="M53.1 38.9l1.9 1.8-6.8 21.7-1.9-1.8z"/><path class="st253" d="M52.5 55.1l1.9 1.9-.1.3-1.9-1.8z"/><path class="st219" d="M52.8 55.1l1.9 1.8-.3.1-1.9-1.9z"/><path class="st254" d="M56.5 44.2l1.9 1.8 1.6 5.7-1.9-1.8z"/><path class="st216" d="M57.7 50.6l1.9 1.8-3.4.5-1.9-1.8z"/><path class="st254" d="M58.1 49.9l1.9 1.8.2.6-1.9-1.8z"/><path class="st216" d="M58.3 50.5l1.9 1.8-.6.1-1.9-1.8z"/><path class="st215" d="M56.5 44.2l1.6 5.7.2.6-.6.1-3.4.5-.8.1.2-.8 1.8-6.2.5-1.8.5 1.8zm-2.3 6.4l3.4-.6-1.6-5.6-1.8 6.2"/><path class="st219" d="M51.1 59.8l1.9 1.8-4.8.8-1.9-1.8z"/><path fill="#a5a584" d="M52.4 55.5l1.9 1.8-1.3 4.3-1.9-1.8z"/><path class="st216" d="M51.5 60.2l1.9 1.8-5.9 1-2-1.8z"/><path fill="#3d7f71" d="M52.9 55.6l1.9 1.8-1.4 4.6-1.9-1.8z"/><path class="st219" d="M59 54.1l1.9 1.8-6.2 1-1.9-1.8z"/><path class="st219" d="M59.4 54l1.9 1.8-.4.1-1.9-1.8z"/><path class="st216" d="M59 54.6l1.9 1.8-6.1 1-1.9-1.8z"/><path class="st259" d="M59.4 54l1.9 1.8.2.4-2-1.8z"/><path class="st259" d="M59.5 54.4l2 1.8 1.3 3.8-1.9-1.8z"/><path fill="#b0b08d" d="M59 38l1.9 1.8 7 19.3-1.9-1.8z"/><path class="st219" d="M66 57.3l1.9 1.8-5.1.9-1.9-1.8z"/><path class="st215" d="M59.3 37.4l7.4 20.4-6.2 1-1.5-4.2-6.2 1-1.4 4.6-5.9 1 7.2-22.8 6.6-1zm.2 17l1.3 3.8 5.1-.8L59 38l-5.9 1-6.8 21.6 4.8-.8 1.3-4.3.1-.3.3-.1 6.2-1 .4-.1.1.4"/><path class="st259" d="M59.3 37.4l1.9 1.8 7.4 20.4-1.9-1.8z"/><path class="st216" d="M66.7 57.8l1.9 1.8-6.2 1-1.9-1.8z"/></g><g class="st214"><path class="st215" d="M77.4 34.9l.1 3.9-4.1.7-.4.1V56.2l-4.5.7-.1-16v-.6l-.6.1-3.9.6v-3.8z"/><path class="st218" d="M63.9 37.2l1.9 1.8v3.9L63.9 41z"/><path class="st219" d="M67.8 40.4l1.9 1.8-3.9.7-1.9-1.9zM68.4 40.3l1.9 1.8-.6.1-1.9-1.8z"/><path class="st216" d="M67.9 40.9l1.9 1.8-4.5.8-1.9-1.8z"/><path class="st218" d="M68.4 40.3l1.9 1.8v.6l-1.9-1.8z"/><path class="st216" d="M77.4 34.9l1.9 1.9L65.8 39l-1.9-1.8z"/><path class="st219" d="M73.4 39.5l1.9 1.8-.4.1-1.9-1.8z"/><path class="st217" d="M73 39.6l1.9 1.8v.5L73 40z"/><path class="st219" d="M77.5 38.8l1.9 1.8-4.1.7-1.9-1.8z"/><path class="st217" d="M77.4 34.9l1.9 1.9.1 3.8-1.9-1.8z"/><path class="st218" d="M78 34.3l1.9 1.8v5L78 39.3z"/><path class="st216" d="M78 39.3l1.9 1.8-4.5.7-1.9-1.8z"/><path class="st218" d="M68.4 40.9l1.9 1.8.1 16-1.9-1.8z"/><path class="st217" d="M73 40l1.9 1.9V58L73 56.2z"/><path class="st219" d="M73 56.2l1.9 1.8-4.5.7-1.9-1.8z"/><path class="st215" d="M63.4 36.7L78 34.3v5l-4.5.7.1 16.6-5.6 1-.1-16.6-4.5.7v-5zm14.1 2.1v-3.9L64 37.1V41l3.9-.6.6-.1v.6l.1 16 4.6-.7L73 40v-.5l.5-.1 4-.6"/><path class="st218" d="M73.5 40l1.9 1.8.1 16.7-1.9-1.9z"/><path class="st216" d="M73.6 56.6l1.9 1.9-5.6.9-1.9-1.8z"/></g><g><g class="st214"><path class="st215" d="M60 12.3l-3.2.5.1 5.1 3.1-.6z"/><path class="st216" d="M60 12.3l1.9 1.8-3.1.5-2-1.8z"/><path class="st217" d="M61.9 14.1L60 12.3v4.5l1.9-.3z"/><path class="st218" d="M58.8 14.6l-2-1.8.1 4.5 1.9-.3zM62.5 19.1v-5.6l-1.9-1.8v7.5c.6-.2 1.9-.1 1.9-.1z"/><path class="st215" d="M60.5 11.6l-4.2.8V18l.6-.1-.1-5.1 3.2-.5v5l.6-.1z"/></g><path class="st216" d="M60.6 17.2l1.9 1.9-4.3.7-1.9-1.8z"/></g><g class="st214"><path class="st215" d="M71.6 10.5c.9 0 1.8 0 2.6.2v4.1c-.2 0-.4-.1-.6-.1l-1.2-.2h-.9c-.5 0-1.1.1-1.7.2l-1 .3c-.3.1-.7.2-1.1.4-1 .5-1.2 1.2-1.2 1.8 0 1 1.4 1.7 4.7 2.5 2.7.6 4 2.1 4 4.7 0 2.5-.8 4.4-2.4 5.8-1.3 1.1-3.1 1.9-5.6 2.3l-.6.1-.5.1h-.5c-.2 0-.4.1-.6.1h-1c-.7 0-1.4 0-2.2-.2v-4.3c.2.1.4.1.6.2.5.1 1 .2 1.6.3h1.7l1.6-.2.4-.1h.5l.1-.1c.4-.1.7-.2 1-.4.7-.4 1-1.1 1-1.9 0-1.2-1.5-2.1-4.7-2.8-2.6-.6-3.9-2.2-3.9-4.7 0-2.2.8-4 2.5-5.4.6-.5 1.5-1 2.4-1.4 1-.4 2-.7 3-.9.8-.3 1.4-.4 2-.4z"/><g class="st214"><defs><path id="SVGID_271_" class="st214" d="M69.7 17.1c-1 .5-1.2 1.2-1.2 1.8-.6-.6-1.3-1.2-1.9-1.8 0-.5.2-1.3 1.2-1.8.6.5 1.3 1.3 1.9 1.8z"/></defs><clipPath id="SVGID_28_"><use xlink:href="#SVGID_271_" overflow="visible"/></clipPath><g clip-path="url(#SVGID_28_)"><path class="st223" d="M67.8 15.3l1.9 1.8c-.2.1-.3.2-.5.3l-1.9-1.8c.2-.1.3-.2.5-.3"/><path class="st224" d="M67.3 15.6l1.9 1.8c-.1.1-.2.1-.2.2l-1.9-1.8c.1 0 .1-.1.2-.2"/><path class="st225" d="M67.1 15.8l1.9 1.8c-.1.1-.1.1-.1.2L67 16c0-.1.1-.1.1-.2"/><path class="st226" d="M67 16l1.9 1.8c0 .1-.1.1-.1.2l-1.9-1.8c0-.1 0-.1.1-.2"/><path class="st227" d="M66.9 16.2l1.9 1.8c0 .1-.1.1-.1.2l-1.9-1.8c0-.1 0-.1.1-.2"/><path class="st228" d="M66.8 16.4l1.9 1.8c0 .1 0 .1-.1.2l-1.9-1.8c0-.1 0-.1.1-.2"/><path class="st229" d="M66.7 16.6l1.9 1.8v.3l-1.9-1.8v-.3"/><path class="st230" d="M66.7 16.9l1.9 1.8V19l-1.9-1.8v-.1-.2"/></g></g><g class="st214"><defs><path id="SVGID_273_" class="st214" d="M68.9 14.9l1.9 1.8c-.3 0-.7.2-1.1.4l-1.9-1.8c.4-.2.8-.4 1.1-.4z"/></defs><clipPath id="SVGID_30_"><use xlink:href="#SVGID_273_" overflow="visible"/></clipPath><g clip-path="url(#SVGID_30_)"><path class="st223" d="M68.9 14.9l1.9 1.8c-.3 0-.7.2-1.1.4l-1.9-1.8c.4-.2.8-.4 1.1-.4"/></g></g><g class="st214"><defs><path id="SVGID_275_" class="st214" d="M69 15.4l1.9 1.8c-.2 0-.6.2-.9.4l-2-1.8c.4-.2.7-.4 1-.4z"/></defs><clipPath id="SVGID_32_"><use xlink:href="#SVGID_275_" overflow="visible"/></clipPath><g clip-path="url(#SVGID_32_)"><path class="st221" d="M69 15.4l1.9 1.8c-.2 0-.6.2-.9.4l-2-1.8c.4-.2.7-.4 1-.4"/></g></g><path class="st219" d="M69.9 14.6l1.9 1.8-1 .3-1.9-1.8z"/><g class="st214"><defs><path id="SVGID_277_" class="st214" d="M65 23.6l-1.9-1.8c-.9-.8-1.3-2-1.3-3.5 0-2.2.8-4 2.5-5.4l1.9 1.8c-1.7 1.4-2.5 3.2-2.5 5.4.1 1.6.5 2.7 1.3 3.5z"/></defs><clipPath id="SVGID_34_"><use xlink:href="#SVGID_277_" overflow="visible"/></clipPath><g clip-path="url(#SVGID_34_)"><path class="st218" d="M64.3 13l1.9 1.8c-.3.3-.6.5-.8.8l-1.9-1.8c.2-.3.5-.6.8-.8M63.5 13.8l1.9 1.8c-.2.2-.4.4-.5.7L63 14.5c.1-.3.3-.5.5-.7M62.9 14.5l1.9 1.8c-.1.2-.3.4-.4.6l-1.9-1.8c.2-.2.3-.4.4-.6"/><path class="st218" d="M62.6 15.1l1.9 1.8c-.1.2-.2.4-.3.7l-1.9-1.8c.1-.3.2-.5.3-.7M62.3 15.8l1.9 1.8c-.1.3-.2.5-.2.8l-2-1.8c.1-.3.2-.6.3-.8M62 16.6l1.9 1.8c-.1.3-.1.7-.2 1.1l-1.9-1.8c.1-.5.2-.8.2-1.1"/><path class="st218" d="M61.9 17.6l1.9 1.8v.8c0 .3 0 .6.1.9L62 19.3c0-.3-.1-.6-.1-.9-.1-.3-.1-.5 0-.8"/><path class="st218" d="M61.9 19.2l1.9 1.8c.1.6.3 1.2.5 1.7l-1.9-1.8c-.2-.5-.4-1-.5-1.7"/><path class="st218" d="M62.4 20.9l1.9 1.8c.1.2.3.5.5.7l-1.9-1.8c-.2-.2-.3-.4-.5-.7"/><path class="st240" d="M62.9 21.6l1.9 1.8.2.2-1.9-1.8-.2-.2"/></g></g><g class="st214"><defs><path id="SVGID_279_" class="st214" d="M68.9 19.6c-.6-.6-1.3-1.2-1.9-1.8-.2-.2-.3-.5-.3-.8.6.6 1.3 1.2 1.9 1.8 0 .3.1.6.3.8z"/></defs><clipPath id="SVGID_36_"><use xlink:href="#SVGID_279_" overflow="visible"/></clipPath><g clip-path="url(#SVGID_36_)"><path class="st230" d="M66.7 16.9l1.9 1.8V19l-1.9-1.8v-.1-.2"/><path class="st231" d="M66.7 17.2l1.9 1.8c0 .1.1.3.1.4l-1.9-1.8c-.1-.1-.1-.3-.1-.4"/><path class="st230" d="M66.8 17.6l1.9 1.8c0 .1.1.2.2.3L67 17.8c-.1-.1-.2-.1-.2-.2"/></g></g><g class="st214"><defs><path id="SVGID_281_" class="st214" d="M68.9 19.6c-.6-.6-1.3-1.2-1.9-1.8l.1.1 1.9 1.8c-.1 0-.1 0-.1-.1z"/></defs><clipPath id="SVGID_38_"><use xlink:href="#SVGID_281_" overflow="visible"/></clipPath><g clip-path="url(#SVGID_38_)"><path class="st230" d="M66.8 17.6l1.9 1.8c0 .1.1.2.2.3L67 17.8c-.1-.1-.2-.1-.2-.2"/><path class="st229" d="M67 17.8l1.9 1.8.1.1-2-1.9c0 .1 0 .1 0 0"/></g></g><g class="st214"><defs><path id="SVGID_283_" class="st214" d="M69.4 19.4l-1.9-1.8c-.2-.2-.3-.3-.3-.5 0-.6.3-1 .8-1.3l1.9 1.8c-.6.3-.8.7-.8 1.3 0 .1.1.3.3.5z"/></defs><clipPath id="SVGID_40_"><use xlink:href="#SVGID_283_" overflow="visible"/></clipPath><g clip-path="url(#SVGID_40_)"><path class="st221" d="M68 15.8l1.9 1.8c-.1.1-.3.1-.4.2L67.7 16c.1-.1.2-.1.3-.2"/><path class="st235" d="M67.7 16l1.9 1.8c-.1 0-.1.1-.2.1l-1.9-1.8s.1 0 .2-.1"/><path class="st236" d="M67.5 16.2l1.9 1.8-.1.1-1.9-1.8.1-.1"/><path class="st237" d="M67.4 16.3l1.9 1.8-.1.1-1.9-1.8c.1 0 .1-.1.1-.1"/><path class="st238" d="M67.3 16.4l1.9 1.8s0 .1-.1.1l-1.9-1.8c.1 0 .1 0 .1-.1"/><path class="st239" d="M67.3 16.6l1.9 1.8v.2l-1.9-1.8c-.1-.1 0-.2 0-.2"/><path class="st240" d="M67.2 16.7l1.9 1.8v.2l-1.9-1.8v-.2"/><path class="st241" d="M67.2 16.9l1.9 1.8v.2l-1.9-1.8V17v-.1"/><path class="st242" d="M67.2 17.1l1.9 1.8c0 .1 0 .1.1.2l-1.9-1.8c-.1-.1-.1-.1-.1-.2"/><path class="st241" d="M67.3 17.3l1.9 1.8c0 .1.1.1.1.2l-1.9-1.8c-.1-.1-.1-.1-.1-.2"/><path class="st240" d="M67.4 17.5l1.9 1.8.1.1-2-1.9"/></g></g><path class="st216" d="M70 15.1l1.9 1.8-1 .3-1.9-1.8z"/><g class="st214"><defs><path id="SVGID_285_" class="st214" d="M74.2 10.7l1.9 1.8c-.8-.2-1.7-.2-2.6-.2-.6 0-1.2.1-1.9.2-1 .2-2 .5-3 .9-.9.4-1.7.9-2.4 1.4L64.3 13c.6-.5 1.5-1 2.4-1.4 1-.4 2-.7 3-.9.7-.1 1.3-.2 1.9-.2.9 0 1.8.1 2.6.2z"/></defs><clipPath id="SVGID_42_"><use xlink:href="#SVGID_285_" overflow="visible"/></clipPath><g clip-path="url(#SVGID_42_)"><path class="st221" d="M74.2 10.7l1.9 1.8c-.8-.2-1.7-.2-2.6-.2-.6 0-1.2.1-1.9.2-1 .2-2 .5-3 .9-.9.4-1.7.9-2.4 1.4L64.3 13c.6-.5 1.5-1 2.4-1.4 1-.4 2-.7 3-.9.7-.1 1.3-.2 1.9-.2.9 0 1.8.1 2.6.2"/></g></g><g class="st214"><defs><path id="SVGID_287_" class="st214" d="M72.5 14.5l1.9 1.8h-.9c-.5 0-1.1.1-1.7.2l-1.9-1.8c.6-.1 1.1-.2 1.7-.2.2-.1.5-.1.9 0z"/></defs><clipPath id="SVGID_44_"><use xlink:href="#SVGID_287_" overflow="visible"/></clipPath><g clip-path="url(#SVGID_44_)"><path class="st223" d="M72.5 14.5l1.9 1.8h-.9c-.5 0-1.1.1-1.7.2l-1.9-1.8c.6-.1 1.1-.2 1.7-.2.2-.1.5-.1.9 0"/></g></g><g class="st214"><defs><path id="SVGID_289_" class="st214" d="M72.4 15l1.9 1.8h-.8c-.5 0-1 .1-1.6.2L70 15.1c.5-.1 1-.1 1.6-.1h.8z"/></defs><clipPath id="SVGID_46_"><use xlink:href="#SVGID_289_" overflow="visible"/></clipPath><g clip-path="url(#SVGID_46_)"><path class="st221" d="M72.4 15l1.9 1.8h-.8c-.5 0-1 .1-1.6.2L70 15.1c.5-.1 1-.1 1.6-.1h.8"/></g></g><path class="st219" d="M73.6 14.6l2 1.8-1.2-.1-1.9-1.8z"/><g class="st214"><defs><path id="SVGID_291_" class="st214" d="M67.7 24.9c-1.1-.3-2-.7-2.6-1.3l-1.9-1.8c.6.6 1.5 1 2.6 1.3.6.6 1.2 1.2 1.9 1.8z"/></defs><clipPath id="SVGID_48_"><use xlink:href="#SVGID_291_" overflow="visible"/></clipPath><g clip-path="url(#SVGID_48_)"><path class="st223" d="M69.9 24.8l1.9 1.8c-.7-.7-2.1-1.2-4.2-1.7-1.1-.3-2-.7-2.6-1.3l-1.9-1.8c.6.6 1.5 1 2.6 1.3 2.2.5 3.5 1 4.2 1.7"/></g></g><path class="st216" d="M73.5 15.2l2 1.8-1.2-.2-1.9-1.8z"/><g class="st214"><defs><path id="SVGID_293_" class="st214" d="M74.2 14.8l1.9 1.8c-.2 0-.4-.1-.6-.1l-1.9-1.8c.3 0 .4 0 .6.1z"/></defs><clipPath id="SVGID_50_"><use xlink:href="#SVGID_293_" overflow="visible"/></clipPath><g clip-path="url(#SVGID_50_)"><path class="st223" d="M74.2 14.8l1.9 1.8c-.2 0-.4-.1-.6-.1l-1.9-1.8c.3 0 .4 0 .6.1"/></g></g><path class="st217" d="M74.2 10.7l1.9 1.8v4.1l-1.9-1.8z"/><g class="st214"><defs><path id="SVGID_295_" class="st214" d="M74.3 15.3l1.9 1.8c-.2-.1-.5-.1-.7-.2l-1.9-1.8c.2.1.4.2.7.2z"/></defs><clipPath id="SVGID_52_"><use xlink:href="#SVGID_295_" overflow="visible"/></clipPath><g clip-path="url(#SVGID_52_)"><path class="st221" d="M74.3 15.3l1.9 1.8c-.2-.1-.5-.1-.7-.2l-1.9-1.8c.2.1.4.2.7.2"/></g></g><g class="st214"><defs><path id="SVGID_297_" class="st214" d="M74.8 15.5l1.9 1.8c-.1 0-.3-.1-.5-.1l-1.9-1.8c.2 0 .4 0 .5.1z"/></defs><clipPath id="SVGID_54_"><use xlink:href="#SVGID_297_" overflow="visible"/></clipPath><g clip-path="url(#SVGID_54_)"><path class="st221" d="M74.8 15.5l1.9 1.8c-.1 0-.3-.1-.5-.1l-1.9-1.8c.2 0 .4 0 .5.1"/></g></g><path class="st218" d="M74.7 10.3l2 1.8v5.2l-1.9-1.8z"/><g class="st214"><defs><path id="SVGID_299_" class="st214" d="M70.6 25.8c-.7-.3-1.7-.6-2.9-.9-.6-.6-1.3-1.2-1.9-1.8 1.2.3 2.2.6 2.9.9.6.6 1.3 1.2 1.9 1.8z"/></defs><clipPath id="SVGID_56_"><use xlink:href="#SVGID_299_" overflow="visible"/></clipPath><g clip-path="url(#SVGID_56_)"><path class="st223" d="M69.9 24.8l1.9 1.8c-.7-.7-2.1-1.2-4.2-1.7-1.1-.3-2-.7-2.6-1.3l-1.9-1.8c.6.6 1.5 1 2.6 1.3 2.2.5 3.5 1 4.2 1.7"/></g></g><g class="st214"><defs><path id="SVGID_301_" class="st214" d="M64.3 28.6l1.9 1.8c-.6-.1-1.2-.2-1.6-.3-.2-.1-.4-.1-.6-.2l-1.9-1.8c.2.1.4.1.6.2.5.1 1 .2 1.6.3z"/></defs><clipPath id="SVGID_58_"><use xlink:href="#SVGID_301_" overflow="visible"/></clipPath><g clip-path="url(#SVGID_58_)"><path class="st221" d="M64.3 28.6l1.9 1.8c-.6-.1-1.2-.2-1.6-.3-.2-.1-.4-.1-.6-.2l-1.9-1.8c.2.1.4.1.6.2.5.1 1 .2 1.6.3"/></g></g><g class="st214"><defs><path id="SVGID_303_" class="st214" d="M70.9 26c-.1-.1-.2-.1-.3-.2-.6-.6-1.3-1.2-1.9-1.8.1.1.2.1.3.2.7.5 1.3 1.2 1.9 1.8z"/></defs><clipPath id="SVGID_60_"><use xlink:href="#SVGID_303_" overflow="visible"/></clipPath><g clip-path="url(#SVGID_60_)"><path class="st223" d="M69.9 24.8l1.9 1.8c-.7-.7-2.1-1.2-4.2-1.7-1.1-.3-2-.7-2.6-1.3l-1.9-1.8c.6.6 1.5 1 2.6 1.3 2.2.5 3.5 1 4.2 1.7"/></g></g><path class="st218" d="M62.1 28.1l1.9 1.8v4.3l-1.9-1.9z"/><path class="st216" d="M65.9 28.6l1.9 1.8h-1.6l-1.9-1.8z"/><g class="st214"><defs><path id="SVGID_305_" class="st214" d="M69.6 25.1l1.9 1.8c-.6-.6-1.9-1.1-3.9-1.5-1.2-.3-2.2-.7-2.9-1.4l-1.9-1.8c.7.7 1.7 1.1 2.9 1.4 1.9.5 3.2 1 3.9 1.5z"/></defs><clipPath id="SVGID_62_"><use xlink:href="#SVGID_305_" overflow="visible"/></clipPath><g clip-path="url(#SVGID_62_)"><path class="st221" d="M69.6 25.1l1.9 1.8c-.6-.6-1.9-1.1-3.9-1.5-1.2-.3-2.2-.7-2.9-1.4l-1.9-1.8c.7.7 1.7 1.1 2.9 1.4 1.9.5 3.2 1 3.9 1.5"/></g></g><g class="st214"><defs><path id="SVGID_307_" class="st214" d="M70.9 26c0-.1 0-.1 0 0l-.3-.3-.3-.3c-.4-.4-.9-.8-1.3-1.2.4.2.7.4.9.6l1.9 1.8c-.2-.2-.5-.5-.9-.6z"/></defs><clipPath id="SVGID_64_"><use xlink:href="#SVGID_307_" overflow="visible"/></clipPath><g clip-path="url(#SVGID_64_)"><path class="st223" d="M69.9 24.8l1.9 1.8c-.7-.7-2.1-1.2-4.2-1.7-1.1-.3-2-.7-2.6-1.3l-1.9-1.8c.6.6 1.5 1 2.6 1.3 2.2.5 3.5 1 4.2 1.7"/></g></g><g class="st214"><defs><path id="SVGID_309_" class="st214" d="M74.1 20.8l1.9 1.8c-.6-.6-1.5-1-2.7-1.3-2.3-.5-3.7-1-4.3-1.6l-1.9-1.8c.6.6 2 1.1 4.3 1.6 1.1.3 2 .7 2.7 1.3z"/></defs><clipPath id="SVGID_66_"><use xlink:href="#SVGID_309_" overflow="visible"/></clipPath><g clip-path="url(#SVGID_66_)"><path class="st221" d="M74.1 20.8l1.9 1.8c-.6-.6-1.5-1-2.7-1.3-2.3-.5-3.7-1-4.3-1.6l-1.9-1.8c.6.6 2 1.1 4.3 1.6 1.1.3 2 .7 2.7 1.3"/></g></g><path class="st216" d="M67.5 28.4l1.9 1.8-1.6.2-1.9-1.8z"/><path class="st216" d="M67.9 28.3l1.9 1.8-.4.1-1.9-1.8z"/><path class="st216" d="M68.2 28.3l2 1.8h-.4l-1.9-1.8z"/><path class="st216" d="M68.3 28.3l1.9 1.8-2-1.8z"/><path fill="#306459" d="M68.4 28.2l1.9 1.8-.1.1-1.9-1.8z"/><g class="st214"><defs><path id="SVGID_311_" class="st214" d="M64.3 32.6l1.9 1.8c-.7 0-1.4 0-2.2-.2l-1.9-1.8c.8.1 1.5.2 2.2.2z"/></defs><clipPath id="SVGID_68_"><use xlink:href="#SVGID_311_" overflow="visible"/></clipPath><g clip-path="url(#SVGID_68_)"><path class="st223" d="M64.3 32.6l1.9 1.8c-.7 0-1.4 0-2.2-.2l-1.9-1.8c.8.1 1.5.2 2.2.2"/></g></g><path class="st246" d="M68.5 28.2l1.9 1.8h-.1l-1.9-1.8z"/><path class="st219" d="M64.6 32.6l1.9 1.8h-.3l-1.9-1.8z"/><path class="st69" d="M64.3 33.1l1.9 1.8c-.9 0-1.8-.1-2.7-.3l-1.9-1.8c1 .2 1.9.3 2.7.3z"/><g class="st214"><defs><path id="SVGID_313_" class="st214" d="M69.5 27.8l1.9 1.8c-.2.2-.6.3-1 .4l-1.9-1.8c.4-.1.7-.2 1-.4z"/></defs><clipPath id="SVGID_70_"><use xlink:href="#SVGID_313_" overflow="visible"/></clipPath><g clip-path="url(#SVGID_70_)"><path class="st235" d="M69.5 27.8l1.9 1.8-1.9-1.8"/><path class="st221" d="M69.4 27.8l1.9 1.8c-.2.2-.5.3-.9.4l-1.9-1.8c.4-.1.7-.2.9-.4"/></g></g><g class="st214"><defs><path id="SVGID_315_" class="st214" d="M69.9 24.8l1.9 1.8c.4.3.5.7.5 1.1 0 .8-.3 1.4-1 1.9l-1.9-1.8c.7-.4 1-1.1 1-1.9.1-.4-.1-.8-.5-1.1z"/></defs><clipPath id="SVGID_72_"><use xlink:href="#SVGID_315_" overflow="visible"/></clipPath><g clip-path="url(#SVGID_72_)"><path class="st240" d="M69.9 24.8l1.9 1.8.1.1-1.9-1.8c0-.1 0-.1-.1-.1"/><path class="st241" d="M70 24.9l1.9 1.8c.1.1.2.2.2.3l-1.9-1.8c0-.1-.1-.2-.2-.3"/><path class="st242" d="M70.3 25.2l1.9 1.8c.1.2.2.3.2.5l-1.9-1.8c-.1-.2-.1-.3-.2-.5"/><path class="st241" d="M70.5 25.7l1.9 1.8v.4l-1.9-1.8v-.2-.2"/><path class="st240" d="M70.5 26.1l1.9 1.8c0 .1 0 .2-.1.3l-1.9-1.8s.1-.2.1-.3"/><path class="st239" d="M70.4 26.5l1.9 1.8c0 .1 0 .2-.1.3l-1.9-1.8c.1-.2.1-.2.1-.3"/><path class="st238" d="M70.3 26.7l1.9 1.8c0 .1-.1.2-.1.2l-1.9-1.8c.1 0 .1-.1.1-.2"/><path class="st237" d="M70.2 26.9l1.9 1.8c0 .1-.1.1-.1.2l-1.9-1.8c.1 0 .1-.1.1-.2"/><path class="st236" d="M70.1 27.2L72 29l-.2.2-1.9-1.8.2-.2"/><path class="st235" d="M69.9 27.4l1.9 1.8-.2.2-1.9-1.8c.1-.1.2-.1.2-.2"/><path class="st221" d="M69.7 27.6l1.9 1.8-.2.2-1.9-1.8.2-.2"/></g></g><g class="st214"><defs><path id="SVGID_317_" class="st214" d="M65.8 32.5l1.9 1.8c-.2 0-.4.1-.6.1h-.7l-1.9-1.8h.7c.2 0 .4 0 .6-.1z"/></defs><clipPath id="SVGID_74_"><use xlink:href="#SVGID_317_" overflow="visible"/></clipPath><g clip-path="url(#SVGID_74_)"><path class="st223" d="M65.8 32.5l1.9 1.8c-.2 0-.4.1-.6.1h-.7l-1.9-1.8h.7c.2 0 .4 0 .6-.1"/></g></g><g class="st214"><defs><path id="SVGID_319_" class="st214" d="M66.1 32.5l1.9 1.8h-.3l-1.9-1.8h.3z"/></defs><clipPath id="SVGID_76_"><use xlink:href="#SVGID_319_" overflow="visible"/></clipPath><g clip-path="url(#SVGID_76_)"><path class="st223" d="M66.1 32.5l1.9 1.8h-.3l-1.9-1.8h.3"/></g></g><path class="st219" d="M66.3 32.5l1.9 1.8H68l-1.9-1.8z"/><path class="st69" d="M65.9 33l1.9 1.8c-.2 0-.5.1-.7.1h-.7l-1.9-1.8h.7c.3 0 .5 0 .7-.1z"/><path class="st219" d="M66.8 32.4l1.9 1.8-.5.1-1.9-1.8zM67.4 32.3l1.9 1.8-.6.1-1.9-1.8z"/><g class="st214"><defs><path id="SVGID_321_" class="st214" d="M77.3 26.1c-.6-.6-1.3-1.2-1.9-1.8 0-1.5-.4-2.6-1.3-3.5l1.9 1.8c.8.8 1.3 2 1.3 3.5z"/></defs><clipPath id="SVGID_78_"><use xlink:href="#SVGID_321_" overflow="visible"/></clipPath><g clip-path="url(#SVGID_78_)"><path class="st229" d="M74.1 20.8l1.9 1.8.2.2-1.9-1.8c-.1-.1-.2-.1-.2-.2"/><path class="st230" d="M74.3 21l1.9 1.8c.2.2.4.4.5.7l-1.9-1.8c-.2-.3-.4-.5-.5-.7"/><path class="st231" d="M74.7 21.7l1.9 1.8c.3.5.5 1 .5 1.7l-1.9-1.8c0-.7-.2-1.2-.5-1.7"/><path class="st230" d="M75.3 23.4l1.9 1.8c0 .3.1.6.1.9v.9l-1.9-1.8v-.9c-.1-.3-.1-.6-.1-.9"/></g></g><g class="st214"><defs><path id="SVGID_323_" class="st214" d="M77.3 26.1c0 2.5-.8 4.4-2.4 5.8-.6-.6-1.3-1.2-1.9-1.8 1.6-1.4 2.4-3.3 2.4-5.8.6.6 1.2 1.2 1.9 1.8z"/></defs><clipPath id="SVGID_80_"><use xlink:href="#SVGID_323_" overflow="visible"/></clipPath><g clip-path="url(#SVGID_80_)"><path class="st230" d="M75.3 23.4l1.9 1.8c0 .3.1.6.1.9v.9l-1.9-1.8v-.9c-.1-.3-.1-.6-.1-.9"/><path class="st229" d="M75.3 25.2l1.9 1.8c0 .4-.1.9-.2 1.2l-1.9-1.8c.1-.3.2-.8.2-1.2"/><path class="st228" d="M75.1 26.5l1.9 1.8-.3.9-1.9-1.8c.2-.3.2-.6.3-.9"/><path class="st227" d="M74.9 27.3l1.9 1.8c-.1.2-.2.5-.3.7l-2-1.8c.2-.2.3-.4.4-.7"/><path class="st226" d="M74.5 28l1.9 1.8c-.1.2-.2.4-.4.6l-1.9-1.8c.2-.1.3-.3.4-.6"/><path class="st225" d="M74.2 28.7l1.9 1.8c-.2.2-.3.4-.5.7l-1.9-1.8c.1-.3.3-.5.5-.7"/><path class="st224" d="M73.7 29.3l1.9 1.8-.7.7-.1.1-1.9-1.8.1-.1.7-.7"/></g></g><g class="st214"><g class="st214"><path class="st240" d="M74.4 20.4l1.9 1.8c.1.1.2.1.2.2l-1.9-1.8-.2-.2"/><path class="st241" d="M74.6 20.6l1.9 1.8c.2.2.4.5.6.8l-1.9-1.8c-.2-.3-.3-.5-.6-.8"/></g><path class="st218" d="M77.7 27v-1c0-.3 0-.7-.1-1v-.1c0-.2-.1-.3-.1-.4 0-.2-.1-.4-.2-.6 0-.1-.1-.3-.2-.4-.1-.1-.1-.3-.2-.4h-.1c-.2-.3-.4-.7-.7-.9l-1.9-1.8c.4.4.7.8.9 1.4.1.1.1.3.2.4.1.2.1.4.2.6 0 .1.1.3.1.4.1.3.1.7.1 1.1 0 .6-.1 1.1-.1 1.6 0 .2 0 .3-.1.5-.1.5-.2 1-.4 1.4 0 .1-.1.1-.1.2-.2.4-.4.9-.7 1.3 0 .1-.1.1-.1.2-.3.4-.7.8-1.1 1.1-1.4 1.2-3.3 2-5.8 2.4l1.9 1.8c2.5-.4 4.4-1.2 5.8-2.3l.1-.1c.3-.2.5-.5.8-.7.1-.1.2-.3.3-.4 0-.1.1-.1.1-.2s.1-.1.1-.2c.2-.2.3-.5.4-.7.1-.1.1-.3.2-.4 0-.1.1-.1.1-.2s.1-.1.1-.2l.3-.9v-.3c0-.2 0-.3.1-.5.1-.3.1-.5.1-.7z"/></g><path class="st215" d="M71.5 19c2.9.6 4.4 2.4 4.4 5.2 0 2.7-.9 4.7-2.6 6.2-1.4 1.2-3.3 2-5.8 2.4l-.6.1-.6.1h-.4c-.2 0-.4.1-.7.1H64.3c-.9 0-1.8-.1-2.7-.3v-5.5c.4.2.8.3 1.3.5.5.1.9.2 1.5.3h1.5l1.5-.2.4-.1h.3l.3-.1c.3-.1.5-.1.7-.3.5-.3.8-.8.8-1.4 0-.9-1.4-1.7-4.3-2.3-2.9-.7-4.3-2.4-4.3-5.2 0-2.4.9-4.3 2.7-5.8.7-.6 1.5-1 2.5-1.5 1-.4 2-.7 3.1-.9.7-.1 1.3-.2 2-.2 1.1 0 2.2.1 3.1.3v5.2c-.1 0-.3-.1-.5-.1-.2-.1-.5-.1-.7-.2l-1.1-.3h-.8c-.5 0-1 .1-1.6.2l-1 .3c-.2 0-.6.2-.9.4-.6.3-.8.7-.8 1.3-.1.5 1.3 1.2 4.2 1.8zm1.4 11c1.6-1.4 2.4-3.3 2.4-5.8 0-2.6-1.3-4.2-4-4.7-3.3-.7-4.7-1.5-4.7-2.5 0-.5.2-1.3 1.2-1.8.4-.2.8-.4 1.1-.4l1-.3c.6-.1 1.1-.2 1.7-.2h.9l1.2.2c.2 0 .4.1.6.1v-4.1c-.8-.2-1.7-.2-2.6-.2-.6 0-1.2.1-1.9.2-1 .2-2 .5-3 .9-1 .6-1.8 1-2.5 1.6-1.7 1.4-2.5 3.2-2.5 5.4 0 2.6 1.3 4.1 3.9 4.7 3.2.7 4.7 1.6 4.7 2.8 0 .8-.3 1.4-1 1.9-.2.2-.6.3-1 .4l-.1.1h-.5l-.4.1-1.6.2h-1.6c-.6-.1-1.2-.2-1.6-.3-.2-.1-.4-.1-.6-.2v4.3c.8.2 1.5.2 2.2.2H65.1c.2 0 .4 0 .6-.1h.5l.5-.1.6-.1c2.5-.4 4.4-1.1 5.6-2.3"/></g><path class="st221" d="M73.2 30.5c-1.4 1.2-3.3 1.9-5.8 2.3l-.6.1-.5.1h-.4c-.2 0-.5.1-.7.1H64.3c-.9 0-1.8-.1-2.7-.3l1.9 1.8c1 .3 1.9.4 2.7.3H67.1c.2 0 .4 0 .7-.1h.4l.6-.1.6-.1c2.5-.4 4.4-1.2 5.8-2.3l-2-1.8z"/></g></svg>