<svg xmlns="http://www.w3.org/2000/svg" viewBox="0 0 111.4 79.3"><style>.st186{fill-rule:evenodd;clip-rule:evenodd;fill:#fff}</style><g id="Layer_1"><path d="M104.9 0l-96 2.1c-3.3.1-6.1 2.7-6.2 6L0 61c-.2 3.6 2.6 6.6 6.2 6.7l84.1 1.8.3.3 6 8.1c.8 1 1.6 1.4 2.4 1.4.9 0 1.7-.7 1.7-1.4v-8.1-.1h1.4c3.4.1 6.3-2.6 6.5-6l2.9-57c.1-3.7-2.9-6.8-6.6-6.7z" fill-rule="evenodd" clip-rule="evenodd" fill="#333"/><path class="st186" d="M32.4 11.6c-3 5.2-6.4 13.2-7.1 17 2.8-.2 7.6-2.4 8.6-2.7 1.5-.3 3 .7 3.2 2.3.3 1.5-1.1 3-2.3 3.2-3.8 1.4-9.6 4-13.9 3.4-.8-.1-1.5-.9-1.6-1.7-1.2-7 5.1-19 8.6-25 1-1.2 2.7-1.4 3.9-.4 1.4 1 1.5 2.8.6 3.9zM91.7 16.4l1.4-3.7c-2.9.4-7.9 3-8.9 6.1 2.1 1.1 5.8 1 8.1.8-.8-.7-1.1-2-.6-3.2zm3.8 3.8c.3.1.5.2.8.3 1.2.7 2.2 1.7 2.4 3.1.5 3.9-3.4 6.7-6.4 8.3-3.1 1.7-6.9 3-10.4 2.9-2.1-.1-4.4-.8-5.5-2.8-.7-1.2-.8-2.8-.4-4.2.6-1.9 1.7-3.5 2.9-5.1.2-.3.5-.5.8-.7-.2-.3-.4-.6-.6-1-.7-1.6-.6-3.7.3-5.3 1.9-3.4 5.5-5.8 9-7.4 2.5-1.1 5.7-2.1 8.2-.4 1.7 1.2 2.5 3.4 2.1 5.4-.3 2-1.2 3.7-1.9 5.5-.3.7-.8 1.1-1.3 1.4zm-11.6 4.4c0 .6-.2 1.1-.6 1.6L81.5 29c-.6 1.7 9.3-1.6 10.6-3.8h-.4c-2.7 0-5.3.1-7.8-.6zM70.9 14c-3.5 4.6-6.4 9.8-8.8 15.5-.4 1.5-2 2.3-3.5 1.9-1.5-.4-2.3-2-1.9-3.5 2.8-6.3 6.1-12.2 10-17.6 1-1.1 2.8-1.2 4-.2 1.1 1 1.2 2.8.2 3.9z"/><path class="st186" d="M59.6 8.7c8-1.1 14.2-1.7 18.9-1.4 1.5-.2 2.9 1 3.1 2.5.2 1.5-1 2.9-2.5 3.1-6.2-.3-12.3.5-18.7 1.4-1.5.2-2.9-.9-3.1-2.4-.3-1.6.7-3 2.3-3.2zM46.2 14.6c-2.1 3.8-3.8 7.9-5 12.5 3.2-1.8 6.4-3.1 9.6-4 1.5-.5 3.1.2 3.6 1.7s-.2 3.1-1.7 3.6c-4.2 1-8.2 2.8-12.2 4.8-1.4.7-3.2.4-4.4-.7-3.7-3.5 3.7-16.8 5.1-20.3.7-1.4 2.4-2 3.7-1.3 1.5.6 2 2.3 1.3 3.7z"/><path class="st186" d="M39.6 19.1c4.1-1.6 8.2-2.7 12.3-3.3 1.5-.2 2.9.9 3.1 2.4.2 1.5-.9 2.9-2.4 3.1-3.7.5-7.3 1.4-10.9 3-1.4.6-3.1-.1-3.6-1.6-.6-1.4 0-3 1.5-3.6zM79.5 10.4c1.3-1.9 2.8-3.5 4.5-4.9.7-.5 1.8-.4 2.5.2.7.6.8 1.6.1 2.1-1.6 1.2-2.9 2.7-4 4.4-.5.7-1.5.8-2.4.3-.8-.5-1.2-1.4-.7-2.1zM42 10.7c4.5-1.5 9.2-2.5 14-2.9 1.5-.3 3 .7 3.3 2.2.3 1.5-.7 3-2.2 3.3-4.5.5-8.9 1.4-13.3 2.8-1.5.5-3.1-.3-3.5-1.8-.5-1.5.3-3.1 1.7-3.6zM38.9 30.7c.5 0 .9.4.9.9v5.5c0 .5-.4.9-.9.9s-.9-.4-.9-.9v-5.5c0-.4.4-.9.9-.9z"/><g><path class="st186" d="M86 44.3c-3.5 4.6-6.4 9.8-8.8 15.5-.4 1.5-2 2.3-3.5 1.9-1.5-.4-2.3-2-1.9-3.5 2.8-6.3 6.1-12.2 10-17.6 1-1.1 2.8-1.2 4-.2 1.2 1 1.3 2.7.2 3.9z"/><path class="st186" d="M74.7 39c8-1.1 14.2-1.7 18.9-1.4 1.5-.2 2.9 1 3.1 2.5.2 1.5-1 2.9-2.5 3.1-6.2-.3-12.3.5-18.7 1.4-1.5.2-2.9-.9-3.1-2.4-.3-1.6.8-3 2.3-3.2zM41.8 40c-3.5 5.1-6.2 11.1-8.9 19.6-.4 1.5-1.9 2.4-3.4 2-1.5-.4-2.4-1.9-2-3.4 2.4-7.4 5.2-14.6 9.5-21.1.8-1.3 2.5-1.8 3.8-1 1.3.9 1.8 2.6 1 3.9z"/><path class="st186" d="M34 48.7c4-1.6 8-2.5 12-3.1 1.5-.1 2.9 1.1 2.9 2.7.1 1.5-1.1 2.9-2.7 2.9-3.4.4-6.9 1.3-10.4 2.8-1.5.5-3.1-.3-3.6-1.7-.4-1.4.4-3 1.8-3.6z"/><path class="st186" d="M54.2 40.3c-3.1 5.9-5.9 10.9-7.5 17.4 0 1.5-1.3 2.8-2.8 2.8-1.5 0-2.8-1.3-2.8-2.8 1.7-7.7 4.6-13.2 8.2-20.2.8-1.3 2.5-1.8 3.8-1 1.5.7 1.9 2.5 1.1 3.8z"/><path class="st186" d="M43.9 57.3c.5 0 .9.4.9.9V62c0 .5-.4.9-.9.9s-.9-.4-.9-.9v-3.8c-.1-.5.3-.9.9-.9z"/><g><path class="st186" d="M46.7 59.4c2-7.4 12-20.7 20-23.3 1.8-.6 4 0 4.8 1.8.4 1 .6 2.2.3 3.2-1.9 6.6-3.4 13.1-4 19.4-.1 1.5-1.2 2.8-2.8 2.8-1.5 0-3-1.2-2.8-2.8.4-5.8 1.7-11.4 3.5-17.2-4 2.4-12.2 12.7-13.5 17-.5 1.5-1.7 2.6-3.2 2.3-1.5-.2-2.7-1.7-2.3-3.2z"/><path class="st186" d="M52.6 52c4.4-1.8 8.2-2.8 12.9-3.7 1.5 0 2.8 1.3 2.8 2.8 0 1.5-1.3 2.8-2.8 2.8-4 .8-7.1 1.8-10.9 3.3-1.4.6-3.1-.2-3.6-1.6-.6-1.5.2-3.1 1.6-3.6zM49.1 58.9c.5 0 .9.4.9.9v3.8c0 .5-.4.9-.9.9s-.9-.4-.9-.9v-3.8c-.1-.5.3-.9.9-.9z"/></g><g><path class="st186" d="M29.4 41.4c-4.9.4-11.6 7.9-12.1 12.5.2 1.8 7.3-1.4 8.1-1.8 1.9-1 3-.4 3.9.9.8 1.3.4 3-.9 3.9-4.5 2.6-17 6.7-16.6-2.8.4-8.6 9.5-17 17.8-18.3 1.5 0 2.8 1.3 2.8 2.8-.2 1.6-.9 2.7-3 2.8z"/><path class="st186" d="M17.5 56.9c.5 0 .9.4.9.9v3.8c0 .5-.4.9-.9.9s-.9-.4-.9-.9v-3.8c-.1-.4.3-.9.9-.9z"/></g></g></g></svg>