<svg xmlns="http://www.w3.org/2000/svg" viewBox="0 0 183 67.5"><style>.st0{fill:#fff}.st33{fill:#e2e2e2}.st300{fill:#c2c4c6}</style><g id="Layer_1"><path class="st33" d="M18.3 0h8.4v67.5h-8.4zM156.4 0h8.4v67.5h-8.4z"/><path d="M174.6 61H8.5C3.8 61 0 57.2 0 52.5V19.1c0-4.7 3.8-8.5 8.5-8.5h166.1c4.7 0 8.5 3.8 8.5 8.5v33.4c-.1 4.7-3.8 8.5-8.5 8.5z" fill="#1d9947"/><path class="st0" d="M36.1 32.3v2c0 2.6-.7 5-2 7.3l-1.9 3.2h-3.5l-1.9-3.2c-.1-.1-.1-.1-.1-.2s-.1-.1-.1-.2c0 .1-.1.1-.1.2s-.1.1-.1.2l-1.9 3.2h-3.6L19 41.5c-1.3-2.3-2-4.7-2-7.3v-7.3h3.5v7.3c0 .9.1 1.9.4 2.8.3.9.6 1.8 1.2 2.6l.6 1 .6-1c.5-.8.9-1.7 1.1-2.6.3-.9.4-1.9.4-2.8v-7.3h3.5v7.3c0 .9.1 1.9.4 2.8.3.9.6 1.8 1.1 2.6l.6 1 .6-1c.5-.8.9-1.7 1.1-2.6.3-.9.4-1.9.4-2.8v-7.3H36v5.4zM48.8 44.7H38.5V27h10.3v3.6H42v3.5h5.1v3.6H42v3.5h6.8v3.5zM65.5 26.9c.7 0 1.4.1 2.1.4.6.3 1.2.7 1.7 1.1.5.5.9 1 1.1 1.7.3.6.4 1.3.4 2.1V44.6h-3.5v-5h-4.2v5h-3.5V32.2c0-.7.1-1.4.4-2.1.3-.6.7-1.2 1.1-1.7.5-.5 1-.9 1.7-1.1.6-.3 1.3-.4 2.1-.4h.6zm-.6 3.6c-.5 0-.9.2-1.2.5-.4.3-.5.8-.5 1.2v4.1h4.2v-4.1c0-.5-.2-.9-.5-1.2-.3-.3-.8-.5-1.3-.5h-.7zM85.1 41.1v3.6h-3.5v-3.6c0-.5-.2-.9-.5-1.3-.3-.3-.8-.5-1.3-.5h-2.9v5.4h-3.5V26.9h6.4c.7 0 1.4.1 2.1.4.7.3 1.2.7 1.7 1.1.5.5.9 1 1.1 1.7.3.7.4 1.3.4 2.1V34c0 .7-.1 1.3-.4 1.9-.2.6-.6 1.2-1 1.6.4.5.8 1 1 1.6.3.7.4 1.3.4 2zM81.6 34v-1.7c0-.5-.2-.9-.5-1.3-.3-.3-.8-.5-1.3-.5h-2.9v5.2h2.9c.5 0 .9-.2 1.3-.5.3-.3.5-.7.5-1.2zM97.9 44.7H87.6V27h10.3v3.6h-6.8v3.5h5.1v3.6h-5.1v3.5h6.8v3.5zM112.2 44.7h-3.5V27h3.5v7h4.4v-7h3.5v17.7h-3.5v-7.1h-4.4v7.1zM133.2 44.7h-10.3V27h10.3v3.6h-6.8v3.5h5.1v3.6h-5.1v3.5h6.8v3.5zM147.2 41.1v3.6h-3.5v-3.6c0-.5-.2-.9-.5-1.3-.3-.3-.8-.5-1.3-.5H139v5.4h-3.5V26.9h6.4c.7 0 1.4.1 2.1.4.7.3 1.2.7 1.7 1.1.5.5.9 1 1.1 1.7.3.7.4 1.3.4 2.1V34c0 .7-.1 1.3-.4 1.9-.2.6-.6 1.2-1 1.6.4.5.8 1 1 1.6.3.7.4 1.3.4 2zm-3.5-7.1v-1.7c0-.5-.2-.9-.5-1.3-.3-.3-.8-.5-1.3-.5H139v5.2h2.9c.5 0 .9-.2 1.3-.5.3-.3.5-.7.5-1.2zM160 44.7h-10.3V27H160v3.6h-6.8v3.5h5.1v3.6h-5.1v3.5h6.8v3.5zM166 39.8h-3.5V27h3.6v12.8zm0 4.9h-3.5v-3.6h3.5v3.6z"/><path class="st300" d="M26.6 5.2h-8.3c-1.2 0-2.2-1-2.2-2.2v-.8c0-1.2 1-2.2 2.2-2.2h8.3c1.2 0 2.2 1 2.2 2.2V3c0 1.2-1 2.2-2.2 2.2zM164.7 5.2h-8.3c-1.2 0-2.2-1-2.2-2.2v-.8c0-1.2 1-2.2 2.2-2.2h8.3c1.2 0 2.2 1 2.2 2.2V3c0 1.2-1 2.2-2.2 2.2z"/></g></svg>