<svg xmlns="http://www.w3.org/2000/svg" viewBox="0 0 163.7 77.1"><style>.st142{fill:#50dd99}.st143{fill:#43bf8d}.st144{fill:#314d84}.st146{fill:#6bce8f}</style><g id="Layer_1"><path class="st142" d="M16.5 15c-3.3 2.3-3 8.4.7 13.7s9.3 7.7 12.6 5.4c.2-.1.4-.3.5-.4l.1-.1 16.4-15.1.3-.3c1.5-1.7.9-5.6-1.6-9.2C42.8 5.2 39 3.2 37 4.6l-18.7 9.5-1.1.5-.2.1c-.2.1-.3.2-.5.3z"/><path class="st143" d="M30.7 33.9l1-.9c.2-.2.1-.5-.2-.5-3.1.1-7.2-2.5-10.1-6.7-3-4.3-4-9-2.8-11.9.1-.2-.1-.4-.4-.3l-1.2.6-.2.1c-.2.1-.3.2-.5.3-3.4 2.4-3.1 8.7.7 14.2s9.6 8 13 5.6c.3-.2.5-.3.7-.5z"/><ellipse transform="rotate(-34.765 41.83 11.56)" class="st143" cx="41.8" cy="11.6" rx="4.5" ry="8.5"/><path class="st144" d="M78.1 44.7c-4.8 0-9.2-4.4-13.1-8.3l-.4-.4c-.4-.4-.8-.8-1.2-1.1-.7-.7-1.4-1.4-2.1-2l-.3.3c-1.7 2-4.1 3.1-6.6 3.1-3.3-.2-5-1.8-5-4.6.2-3.1 2.3-5.3 5.3-5.3 1.8 0 3.9 1 6.2 2.9.6-1 1.1-2.1 1.7-3.5.8-2.1 1.5-4 3.3-9.9.7-2.4 1.6-5.3 2.6-7.9l-.3-.3-.2-.2-.4.1.1-.4c.1-.3.2-.4.2-.6.1-.1.2-.2.2-.6v-.2l1.2-.2C70.4 2.9 72.4 0 74.8 0c1.7 0 2.9 1.1 2.9 2.7 0 2.3-3.4 4.1-6.6 4.9-.9 2.2-1.8 5.1-3 9-1.5 4.7-2.5 7.8-3.4 10-.7 1.7-1.3 3-2.1 4.1.8.7 1.6 1.5 2.4 2.3l1.2 1.2.6.6c3.7 3.7 7.4 7.5 11.3 7.5 2.3 0 4.3-.9 4.9-2.4.2-.4.6-.7 1.1-.7.8 0 1.2.7 1.2 1.2 0 .1 0 .3-.1.4-1.2 2.9-4.6 3.9-7.1 3.9zM54.7 28.8c-1.6 0-2.8 1.2-2.8 2.9 0 1.9 1.6 2.2 2.6 2.2 1.7 0 3.6-.9 4.8-2.3.1-.1.2-.2.3-.4-2.2-1.7-3.7-2.4-4.9-2.4zM74.8 2.3c-.7 0-1.7 1-2.5 2.6 1.6-.5 2.9-1.6 2.9-2.1 0-.4-.2-.5-.4-.5z"/><path class="st144" d="M78.9 36c-1.9 0-3.4-.6-4.6-1.7-1.1-1.2-1.7-2.8-1.7-4.8C73 23.4 77.9 14 83.4 14c2.5 0 4.1 1.4 4.1 3.6 0 5.8-9 8.5-11.9 9.2-.3 1.1-.4 1.9-.5 2.8 0 1.2.3 2.2.9 2.9.7.7 1.7 1.1 3 1.2h.2c3.6 0 6.4-2.6 8.9-8.3.2-.4.7-.7 1.1-.7.1 0 .3 0 .4.1.5.2.7.7.7 1.1 0 .1 0 .3-.1.4v.1c-3 6.5-6.6 9.6-11.3 9.6zm4.5-19.7c-3.1 0-5.7 5.1-6.9 7.7 4-1.3 8.6-3.5 8.6-6.5 0-.8-.5-1.2-1.7-1.2z"/><path class="st144" d="M90.1 36c-2.2 0-3.6-1.6-3.6-4.1 0-1.6 1.1-5.5 2.6-9.5l2.2-6.2h-2.6c-.7 0-1.2-.5-1.2-1.2s.5-1.2 1.2-1.2h3.4c.3-.9 2.2-6.4 2.3-6.7.2-.5.6-.8 1.1-.8.4 0 .8.2 1 .5.2.3.3.7.1 1.1-.1.3-.3.9-.9 2.8-.4 1.2-.9 2.5-1.1 3.1h2.8c.7 0 1.2.5 1.2 1.2s-.5 1.2-1.2 1.2h-3.6c-.2.6-.5 1.5-1.1 3-.4 1.1-.9 2.4-1.4 4-1.9 5.3-2.5 7.4-2.5 8.7 0 .6.2 1.7 1.2 1.7 3 0 5.1-3.4 7.4-8.4.2-.4.7-.7 1.1-.7.2 0 .3.1.5.1.4.3.7.7.7 1.1 0 .2-.1.3-.1.5-2.7 6.1-5.3 9.8-9.5 9.8zM104.2 12.3c-.1 0-.3 0-.4-.1-.2-.1-.4-.2-.4-.5-.1-.2 0-.5.1-.8l.7-1.2c-.6-.3-.9-.9-.8-1.7.1-.9.8-1.6 1.7-1.6h.2c.5 0 .9.3 1.2.7.3.4.5.8.4 1.3-.1.3-.1.5-.3.7l-1.6 2.6c-.3.5-.6.6-.8.6zM110.4 36c-3.9 0-7.1-3.1-7.1-6.9.3-4.3 2.8-7 6.4-7 2.4 0 4.5 2.2 4.6 4.8 0 .7-.5 1.2-1.2 1.2s-1.2-.5-1.2-1.2c-.1-1.4-1.1-2.5-2.2-2.5-2.3 0-3.9 1.9-4.1 4.7 0 2.5 2.1 4.5 4.8 4.5 3.6 0 6.1-2.4 6.2-6 0-1.9-.8-3.3-3-7.2-.2.3-.5.5-.7.8-.2.3-.6.5-.9.5-.4 0-.6-.1-.8-.3-.2-.2-.4-.5-.4-.9 0-.2.1-.5.3-.7.6-.7 1-1.1 1.5-1.6-.4-1.1-.6-2-.6-3 0-2.5 1.6-4.6 3.6-4.6 1.4 0 2.3 1 2.4 2.6 0 1.7-.9 3.6-2.5 5.5.4.7.7 1.3 1 1.9 1.6 2.9 2.5 4.6 2.6 7.2-.2 4.8-3.8 8.2-8.7 8.2zm5-23c-.1 0-.3.1-.5.3-.5.5-.6 1.3-.6 1.9 0 .3 0 .6.1.9.6-.9 1.1-2.1 1.1-2.9-.1-.1-.1-.2-.1-.2zM46.3 77.1c-5.8 0-9.3-3.6-9.3-9.6 0-2.9.9-6.3 1.9-9.2-4.9-1.2-7.6-4.5-7.6-9.1 0-3.1 1.3-6.5 3.3-9.1.2-.3.5-.4.9-.4.7 0 1.2.5 1.2 1.2 0 .3-.1.6-.3.8-1.6 1.8-2.8 4.9-2.8 7.4 0 3.6 2.2 6 6.1 6.9.9-2.5 2.7-7 5.6-10.7 2.8-3.6 5.7-5.5 8.7-5.5h.2c3.6.1 5.9 2.6 5.9 6.6 0 7.6-8.8 12.3-17 12.3-.7 0-1.2 0-1.9-.1-1 3.3-1.9 6.2-1.9 8.8 0 4.7 2.5 7.2 6.9 7.2 5.7 0 9.7-3.5 12.9-11.4.2-.4.6-.7 1.1-.7.1 0 .3 0 .4.1.6.3.9.9.7 1.6-3.6 8.8-8.4 12.9-15 12.9zm-4.2-20.7h.9c9.1 0 14.7-5.2 14.7-10 0-2.7-1.3-4.3-3.5-4.3-4.8.1-9.6 7.4-12.1 14.3z"/><path class="st144" d="M71 74c-2.2 0-3.5-1.5-3.5-4.1 0-2.2 1-4.9 1.9-7.5.8-2.3 1.7-4.5 1.7-6.1 0-1.4-.7-2.2-2.2-2.2-1 0-2.2.8-3.4 2.4-2.5 3.2-3.1 5-5.9 12.6-.4 1.2-.9 2.5-1.4 3.9-.2.6-.7 1-1.2 1h-.3c-.3-.1-.6-.3-.7-.6-.1-.3-.2-.6 0-.9l1.8-5c3.6-10 6.7-18.6 8-22.5.2-.5.6-.7 1.1-.7.4 0 .8.2 1 .5.2.3.3.7.1 1.1-.3.7-1.2 3.3-2.7 7.6 1.2-1.1 2.5-1.6 3.7-1.6 3 0 4.5 1.6 4.5 4.5 0 1.8-.9 4.5-1.8 7-.9 2.4-1.7 5-1.7 6.6 0 1.5.6 1.7 1.2 1.7 2 0 3.7-2.3 6.4-8.3.2-.5.6-.7 1.1-.7.2 0 .3.1.5.1.5.2.7.6.7 1.1 0 .1 0 .3-.1.4-3 6.2-5.2 9.7-8.8 9.7z"/><path class="st144" d="M89.5 74c-2 0-3.3-1.3-3.5-3.4-1.8 2.3-3.6 3.4-5.5 3.4-2.4 0-4-2-4-5.2 0-6.4 4.8-16.9 10.3-16.9 1.9 0 3.3.7 4.1 2.1.2-.4.3-.8.5-1.2l.2-.4c.2-.4.6-.7 1.1-.7.4 0 .7.2 1 .5.2.3.3.7.1 1.1l-2.3 6.1-.5 1.4c-1.4 4-2.6 7.4-2.6 9.1 0 1.4.4 1.7 1.2 1.7 2.7 0 4.9-4.9 6.3-8.2l.1-.1c.2-.5.6-.7 1.1-.7.2 0 .3.1.5.1.5.2.7.6.7 1.1 0 .2-.1.3-.1.5v.1l-.1.2c-2 3.9-4.4 9.4-8.6 9.4zm-2.7-19.8c-1.8 0-3.7 2-5.4 5.4-1.4 2.9-2.5 6.5-2.5 8.8 0 2.2.5 3.1 1.6 3.1 3.6 0 6.3-6.9 8-11.4l1.1-2.9c-.2-1.8-1.2-3-2.8-3z"/><path class="st144" d="M97.1 73.9c-1.7-.4-2.8-1.9-2.8-4 0-1.6 1.1-5.5 2.6-9.5l2.2-6.2h-2.6c-.7 0-1.2-.5-1.2-1.2s.5-1.2 1.2-1.2h3.4c.3-.9 2.2-6.4 2.3-6.7.2-.5.6-.8 1.1-.8.4 0 .8.2 1 .5.2.3.3.7.1 1.1-.2.9-1.5 4.4-2 5.9h2.8c.7 0 1.2.5 1.2 1.2s-.5 1.2-1.2 1.2h-3.6c-.2.6-.5 1.5-1.1 3-.4 1.1-.9 2.4-1.4 4-1.9 5.3-2.5 7.4-2.5 8.7 0 .7.5 1.5.9 1.7l.1.1v.1c0 .4-.1.7-.2 1-.1.3-.1.5-.1.9v.3l-.2-.1z"/><g><path class="st144" d="M42.3 12.3h-.1c-.3 0-.5-.2-.7-.3-.2-.2-.3-.5-.3-.8 0-.3.1-.6.4-.8 2.5-2.4 5.7-4.7 12.8-4.7.8 0 1.7 0 2.5.1 2.5.2 4.8.3 6.8.3 4 0 5.7-.3 5.8-.3h.2c.6 0 1 .4 1.2 1 .1.6-.3 1.3-.9 1.4-.1 0-1.9.4-6.2.4-2.1 0-4.5-.1-7-.3-.9-.3-1.7-.3-2.4-.3-7.1 0-9.8 2.6-11.2 4-.3.2-.6.3-.9.3z"/></g><g><path class="st144" d="M99.9 74.6c-2.6 0-4-1.2-4.1-1.3-.2-.2-.4-.5-.4-.8 0-.3.1-.6.3-.8.2-.2.5-.4.9-.4.3 0 .6.1.8.3 0 0 .9.7 2.5.7 1.4 0 2.9-.5 4.5-1.4 3.1-1.8 5.4-5 7.8-8.5 3.7-5.3 7.9-11.2 16.3-14.2.1 0 .3-.1.4-.1.5 0 .9.3 1.1.8.1.3.1.6-.1.9-.1.3-.4.5-.7.6-7.7 2.7-11.5 8.1-15.2 13.3-2.6 3.7-5 7.1-8.6 9.2-1.8 1.1-3.7 1.7-5.5 1.7z"/></g><g><path class="st142" d="M134.2 27.5c3.3-2.3 8.9.1 12.6 5.4s4 11.4.7 13.7l-.6.3-.1.1L127 57.1c-.1.1-.2.1-.3.2-2.1.8-5.6-1.1-8.1-4.7-2.7-3.9-3.2-8.1-1.2-9.5l15.4-14.2.9-.8.1-.1c.1-.3.3-.4.4-.5z"/></g><g><path class="st143" d="M147.1 32.8c-3.7-5.9-9-9.2-11.8-7.4-.2.1-.3.2-.5.4l-2.7 2.7c-2.3 1.9-1.6 7.5 1.8 12.8 3.4 5.3 8.1 8.3 10.8 7.1l3.6-1.6c.2-.1.3-.2.5-.3 2.8-1.7 2-7.9-1.7-13.7z"/></g><g><path d="M134.8 28c-.8 2.4.3 6.6 2.9 10.8 2.7 4.2 6.1 7 8.7 7.2.8-2.4-.3-6.6-2.9-10.8-2.7-4.2-6.1-7-8.7-7.2z" fill="#32a573"/></g><g><path class="st146" d="M134.3 21c-.4 0-.7-.2-.8-.6l-2-5.3c-.2-.5.1-1 .5-1.1.5-.2 1 .1 1.1.5l2 5.3c.2.5-.1 1-.5 1.1 0 0-.1.1-.3.1zM142.5 21.1h-.2c-.5-.1-.8-.6-.7-1l1.2-5.5c.1-.5.6-.8 1-.7.5.1.8.6.7 1l-1.2 5.5c0 .4-.3.7-.8.7zM152.4 27.7c-.2 0-.4-.1-.6-.3-.3-.3-.3-.9 0-1.2l4-4c.3-.3.9-.3 1.2 0 .3.3.3.9 0 1.2l-4 4c-.2.3-.4.3-.6.3zM157.2 38.8c-.5 0-.9-.4-.9-.9s.4-.9.9-.9l5.6-.1c.5 0 .9.4.9.9s-.4.9-.9.9l-5.6.1zM157.7 53.5c-.2 0-.3 0-.5-.1l-4.7-3.1c-.4-.3-.5-.8-.3-1.2.3-.4.8-.5 1.2-.3l4.7 3.1c.4.3.5.8.3 1.2-.1.3-.4.4-.7.4z"/><g><path class="st146" d="M22.4 47.1h-.1c-.5-.1-.8-.5-.7-1l.8-5.8c.1-.5.5-.8 1-.7.5.1.8.5.7 1l-.8 5.8c-.1.4-.5.7-.9.7zM8.7 39.6c-.2 0-.4-.1-.6-.2-.4-.3-.4-.9-.1-1.2l3.8-4.4c.3-.4.9-.4 1.2-.1.4.3.4.9.1 1.2l-3.8 4.4c-.1.2-.3.3-.6.3zM.9 24.5c-.5 0-.8-.3-.9-.8 0-.5.3-.9.8-.9l5.8-.5c.5 0 .9.3.9.8s-.3.9-.8.9l-5.8.5zM10.2 11.7c-.1 0-.3 0-.4-.1L4.7 8.8c-.5-.2-.6-.8-.4-1.2.2-.4.8-.6 1.2-.3l5.1 2.8c.4.2.6.8.3 1.2-.1.3-.4.4-.7.4z"/></g></g></g></svg>