<svg xmlns="http://www.w3.org/2000/svg" viewBox="0 0 142.6 39.4"><style>.st0{fill:#fff}.st171{fill:#f35850}</style><g id="Layer_1"><path class="st171" d="M8.1 38.2c-3.6-.7-6.4-3.9-6.3-7.3.1-2.9 1.2-4.4 2.1-5.2 1.3-1 3-1.4 5-1 .7.1 1.5.4 2.2.7.2-1 .3-2.1.5-3.2.4-2.5.7-5.2 1.3-7.7.9-4.1 1.9-6.9 3-8.9 1.5-2.6 4-3.8 6.8-3.3 1.1.2 2.1.6 3.2 1.3.9.6 1.4 1.4 1.4 2.4s-.5 1.8-1.5 2.2c-3 1.3-4.4 7.5-5.7 13.4-.6 2.7-1.2 5.5-2 8 1 .5 1.9.8 2.8 1 2.3.4 4.6-.1 6.6-1.6.9-.7 1.8-.7 2.3-.6.9.2 2 .9 2.4 2.5.4 1.5.3 3.9-1.2 5.8-1.1 1.4-3.2 3-7.4 2.7-.4 0-.9-.1-1.3-.2-2.9-.5-5.2-2.1-7.1-3.8-1.8 2.3-4.4 3.4-7.1 2.8z"/><path class="st171" d="M7.9 38c-3.6-.7-6.4-3.9-6.3-7.3.1-2.9 1.2-4.4 2.1-5.2 1.3-1 3-1.4 5-1 .7.1 1.5.4 2.2.7.2-1 .3-2.1.5-3.2.4-2.5.7-5.2 1.3-7.7.9-4.1 1.9-6.9 3-8.9 1.5-2.6 4-3.8 6.8-3.3 1.1.2 2.1.6 3.2 1.3.8.6 1.3 1.5 1.3 2.4 0 1-.5 1.8-1.5 2.2-3 1.3-4.4 7.5-5.7 13.4-.6 2.7-1.2 5.5-2 8 1 .5 1.9.8 2.8 1 2.3.4 4.6-.1 6.6-1.6.9-.7 1.8-.7 2.3-.6.9.2 2 .9 2.4 2.5.4 1.5.3 3.9-1.2 5.8-1.1 1.4-3.2 3-7.4 2.7-.4 0-.9-.1-1.3-.2-2.9-.5-5.2-2.1-7.1-3.8-1.7 2.3-4.2 3.3-7 2.8z"/><path class="st171" d="M7.8 37.8c-3.6-.7-6.4-3.9-6.3-7.3.1-2.9 1.2-4.4 2.1-5.2 1.3-1 3-1.4 5-1 .7.1 1.5.4 2.2.7.2-1 .3-2.1.5-3.2.4-2.5.7-5.2 1.3-7.7.9-4.1 1.9-6.9 3-8.9 1.5-2.6 4-3.8 6.8-3.3 1.1.2 2.1.6 3.2 1.3.9.6 1.4 1.4 1.4 2.4s-.5 1.8-1.5 2.2c-3 1.3-4.4 7.5-5.7 13.4-.6 2.7-1.2 5.5-2 8 1 .5 1.9.8 2.8 1 2.3.4 4.6-.1 6.6-1.6.9-.7 1.8-.7 2.3-.6.9.2 2 .9 2.4 2.5.4 1.5.3 3.9-1.2 5.8-1.1 1.4-3.2 3-7.4 2.7-.4 0-.9-.1-1.3-.2-2.9-.5-5.2-2.1-7.1-3.8-1.8 2.3-4.4 3.3-7.1 2.8z"/><path class="st171" d="M7.6 37.6C4 37 1.2 33.7 1.3 30.3c.1-2.9 1.2-4.4 2.1-5.2 1.3-1 3-1.4 5-1 .7.1 1.5.4 2.2.7.2-1 .3-2.1.5-3.2.4-2.5.7-5.2 1.3-7.7.9-4.1 1.9-6.9 3-8.9 1.5-2.6 4-3.8 6.8-3.3 1.1.2 2.1.6 3.2 1.3.9.6 1.4 1.4 1.4 2.4s-.5 1.8-1.5 2.2c-3 1.3-4.4 7.5-5.7 13.4-.6 2.7-1.2 5.5-2 8 1 .5 1.9.8 2.8 1 2.3.4 4.6-.1 6.6-1.6.9-.7 1.8-.7 2.3-.6.9.2 2 .9 2.4 2.5.4 1.5.3 3.9-1.2 5.8-1.1 1.4-3.2 3-7.4 2.7-.4 0-.9-.1-1.3-.2-2.9-.5-5.2-2.1-7.1-3.8-1.8 2.3-4.4 3.3-7.1 2.8z"/><path class="st171" d="M7.4 37.4c-3.6-.7-6.4-3.9-6.3-7.3.1-2.9 1.2-4.4 2.1-5.2 1.3-1 3-1.4 5-1 .7.1 1.5.4 2.2.7.2-1 .3-2.1.5-3.2.4-2.5.7-5.2 1.3-7.7.9-4.1 1.9-6.9 3-8.9 1.5-2.6 4-3.8 6.8-3.3 1.1.2 2.1.6 3.2 1.3.9.6 1.4 1.4 1.4 2.4s-.5 1.8-1.5 2.2c-3 1.3-4.4 7.5-5.7 13.4-.6 2.7-1.2 5.5-2 8 1 .5 1.9.8 2.8 1 2.3.4 4.6-.1 6.6-1.6.9-.7 1.8-.7 2.3-.6.9.2 2 .9 2.4 2.5.4 1.5.3 3.9-1.2 5.8-1.1 1.4-3.2 3-7.4 2.7-.4 0-.9-.1-1.3-.2-2.9-.5-5.2-2.1-7.1-3.8-1.7 2.3-4.3 3.3-7.1 2.8z"/><path class="st171" d="M7.3 37.2C3.7 36.5.9 33.3 1 29.9c0-2.9 1.1-4.4 2.1-5.2 1.3-1 3-1.4 5-1 .7.1 1.5.4 2.2.7.2-1 .3-2.1.5-3.2.4-2.5.7-5.2 1.3-7.7.9-4.1 1.9-6.9 3-8.9 1.5-2.6 4-3.8 6.8-3.3 1 .2 2.1.7 3.1 1.4.9.6 1.4 1.4 1.4 2.4s-.5 1.8-1.5 2.2c-3 1.3-4.4 7.5-5.7 13.4-.6 2.7-1.2 5.5-2 8 1 .5 1.9.8 2.8 1 2.3.4 4.6-.1 6.6-1.6.9-.7 1.8-.7 2.3-.6.9.2 2 .9 2.4 2.5.4 1.5.3 3.9-1.2 5.8-1.1 1.4-3.2 3-7.4 2.7-.4 0-.9-.1-1.3-.2-2.9-.5-5.2-2.1-7.1-3.8-1.7 2.2-4.3 3.2-7 2.7z"/><path class="st171" d="M7.1 37C3.5 36.3.7 33.1.8 29.7c.1-2.9 1.2-4.4 2.1-5.2 1.3-1 3-1.4 5-1 .7.1 1.5.4 2.2.7.2-1 .3-2.1.5-3.2.4-2.5.7-5.2 1.3-7.7.9-4.1 1.9-6.9 3-8.9 1.5-2.6 4-3.8 6.8-3.3 1.1.2 2.1.6 3.2 1.3.9.6 1.4 1.4 1.4 2.4s-.5 1.8-1.5 2.2c-3 1.3-4.4 7.5-5.7 13.4-.6 2.7-1.2 5.5-2 8 1 .5 1.9.8 2.8 1 2.3.4 4.6-.1 6.6-1.6.9-.7 1.8-.7 2.3-.6.9.2 2 .9 2.4 2.5.4 1.5.3 3.9-1.2 5.8-1.1 1.4-3.2 3-7.4 2.7-.4 0-.9-.1-1.3-.2-2.9-.5-5.2-2.1-7.1-3.8-1.8 2.3-4.3 3.3-7.1 2.8z"/><path class="st171" d="M7 36.8C3.4 36.1.6 32.9.7 29.5c.1-2.9 1.2-4.4 2.1-5.2 1.3-1 3-1.4 5-1 .7.1 1.5.4 2.2.7.2-1 .3-2.1.5-3.2.4-2.5.7-5.2 1.3-7.7.9-4.1 1.9-6.9 3-8.9 1.5-2.6 4-3.8 6.8-3.3 1.1.2 2.1.6 3.2 1.3.9.6 1.4 1.4 1.4 2.4s-.5 1.8-1.5 2.2c-3 1.3-4.4 7.5-5.7 13.4-.6 2.7-1.2 5.5-2 8 1 .5 1.9.8 2.8 1 2.3.4 4.6-.1 6.6-1.6.9-.7 1.8-.7 2.3-.6.9.2 2 .9 2.4 2.5.4 1.5.3 3.9-1.2 5.8-1.1 1.4-3.2 3-7.4 2.7-.4 0-.9-.1-1.3-.2-2.9-.5-5.2-2.1-7.1-3.8-1.8 2.3-4.4 3.3-7.1 2.8z"/><path class="st171" d="M6.8 36.6C3.2 35.9.4 32.7.5 29.3c.1-2.9 1.2-4.4 2.1-5.2 1.3-1 3-1.4 5-1 .7.1 1.5.4 2.2.7.2-1 .3-2.1.5-3.2.4-2.5.7-5.2 1.3-7.7.9-4.1 1.9-6.9 3-8.9 1.5-2.6 4-3.8 6.8-3.3 1.1.2 2.1.6 3.2 1.3.9.6 1.4 1.4 1.4 2.4s-.5 1.8-1.5 2.2c-3 1.3-4.4 7.5-5.7 13.4-.6 2.7-1.2 5.5-2 8 1 .5 1.9.8 2.8 1 2.3.4 4.6-.1 6.6-1.6.9-.7 1.8-.7 2.3-.6.9.2 2 .9 2.4 2.5.4 1.5.3 3.9-1.2 5.8-1.1 1.4-3.2 3-7.4 2.7-.4 0-.9-.1-1.3-.2-2.9-.5-5.2-2.1-7.1-3.8-1.8 2.3-4.4 3.3-7.1 2.8z"/><path class="st171" d="M6.6 36.4C3 35.7.2 32.5.3 29.1c.1-2.9 1.2-4.4 2.1-5.2 1.3-1 3-1.4 5-1 .7.1 1.5.4 2.2.7.2-1 .3-2.1.5-3.2.4-2.5.7-5.2 1.3-7.7.9-4.1 1.9-6.9 3-8.9 1.5-2.6 4-3.8 6.8-3.3 1.1.2 2.1.6 3.2 1.3.9.6 1.4 1.4 1.4 2.4s-.5 1.8-1.5 2.2c-3 1.3-4.4 7.5-5.7 13.4-.6 2.7-1.2 5.5-2 8 1 .5 1.9.8 2.8 1 2.3.4 4.6-.1 6.6-1.6.9-.7 1.8-.7 2.3-.6.9.2 2 .9 2.4 2.5.4 1.5.3 3.9-1.2 5.8-1.1 1.4-3.2 3-7.4 2.7-.4 0-.9-.1-1.3-.2-2.9-.5-5.2-2.1-7.1-3.8-1.7 2.3-4.3 3.3-7.1 2.8z"/><path class="st171" d="M6.5 36.2C2.9 35.5.1 32.3.2 28.9c.1-2.9 1.2-4.4 2.1-5.2 1.3-1 3-1.4 5-1 .7.1 1.5.4 2.2.7.2-1 .3-2.1.5-3.2.4-2.5.7-5.2 1.3-7.7.9-4.1 1.9-6.9 3-8.9 1.5-2.6 4-3.8 6.8-3.3 1.1.2 2.1.6 3.2 1.3.9.6 1.4 1.4 1.4 2.4s-.5 1.8-1.5 2.2c-3 1.3-4.4 7.5-5.7 13.4-.6 2.7-1.2 5.5-2 8 1 .5 1.9.8 2.8 1 2.3.4 4.6-.1 6.6-1.6.9-.7 1.8-.7 2.3-.6.9.2 2 .9 2.4 2.5.4 1.5.3 3.9-1.2 5.8-1.1 1.4-3.2 3-7.4 2.7-.4 0-.9-.1-1.3-.2-2.9-.5-5.2-2.1-7.1-3.8-1.8 2.3-4.4 3.3-7.1 2.8z"/><path class="st171" d="M6.3 36c-3.6-.7-6.4-3.9-6.3-7.3.1-2.9 1.2-4.4 2.1-5.2 1.3-1 3-1.4 5-1 .7.1 1.5.4 2.2.7.2-1 .3-2.1.5-3.2.4-2.5.7-5.2 1.3-7.7.9-4.1 1.9-6.9 3-8.9 1.5-2.6 4-3.8 6.8-3.3 1 .2 2.1.7 3.1 1.3.9.6 1.4 1.4 1.4 2.4s-.5 1.8-1.5 2.2c-3 1.3-4.4 7.5-5.7 13.4-.6 2.7-1.2 5.5-2 8 1 .5 1.9.8 2.8 1 2.3.4 4.6-.1 6.6-1.6.9-.7 1.8-.7 2.3-.6.9.2 2 .9 2.4 2.5.4 1.5.3 3.9-1.2 5.8-1.1 1.4-3.2 3-7.4 2.7-.4 0-.9-.1-1.3-.2-2.9-.5-5.2-2.1-7.1-3.8-1.7 2.3-4.3 3.3-7 2.8z"/><g><path class="st171" d="M35.1 33.6c-.1 0-.2 0-.3-.1-1.7-.5-3-1.6-3.8-3.3-1.9-4.1-.5-10.5.8-13 2.2-4 5.2-4.3 7.4-3.9.6.1 1.2.3 1.7.5 2.3.9 3.5 3 3.2 5.5-.3 2.3-1.9 4.8-4.2 6.2.2.2.5.5.7.8.5.7.9 2 .5 3.1-1 2.9-4 4.5-6 4.2z"/><path class="st171" d="M34.9 33.4c-.1 0-.2 0-.3-.1-1.7-.5-3-1.6-3.8-3.3-1.9-4.1-.5-10.5.8-13 2.2-4 5.2-4.3 7.4-3.9.6.1 1.2.3 1.7.5 2.3.9 3.5 3 3.2 5.5-.3 2.3-1.9 4.8-4.2 6.2.2.2.5.5.7.8.5.7.9 2 .5 3.1-.9 2.9-3.9 4.5-6 4.2z"/><path class="st171" d="M34.7 33.1c-.1 0-.2 0-.3-.1-1.7-.5-3-1.6-3.8-3.3-1.9-4.1-.5-10.5.8-13 2.2-4 5.2-4.3 7.4-3.9.6.1 1.2.3 1.7.5 2.3.9 3.5 3 3.2 5.5-.3 2.3-1.9 4.8-4.2 6.2.2.2.5.5.7.8.5.7.9 2 .5 3.1-.9 3-3.9 4.6-6 4.2z"/><path class="st171" d="M34.6 32.9c-.1 0-.2 0-.3-.1-1.7-.5-3-1.6-3.8-3.3-1.9-4.1-.5-10.5.8-13 2.2-4 5.2-4.3 7.4-3.9.6.1 1.2.3 1.7.5 2.3.9 3.5 3 3.2 5.5-.3 2.3-1.9 4.8-4.2 6.2.2.2.5.5.7.8.5.7.9 2 .5 3.1-.9 3-4 4.6-6 4.2z"/><path class="st171" d="M34.4 32.7c-.1 0-.2 0-.3-.1-1.7-.5-3-1.6-3.8-3.3-1.9-4.1-.5-10.5.8-13 2.2-4 5.2-4.3 7.4-3.9.6.1 1.2.3 1.7.5 2.3.9 3.5 3 3.2 5.5-.3 2.3-1.9 4.8-4.2 6.2.2.2.5.5.7.8.5.7.9 2 .5 3.1-.9 3-3.9 4.6-6 4.2z"/><path class="st171" d="M34.2 32.5c-.1 0-.2 0-.3-.1-1.7-.5-3-1.6-3.8-3.3-1.9-4.1-.5-10.5.8-13 2.2-4 5.2-4.3 7.4-3.9.6.1 1.2.3 1.7.5 2.3.9 3.5 3 3.2 5.5-.3 2.3-1.9 4.8-4.2 6.2.2.2.5.5.7.8.5.7.9 2 .5 3.1-.9 2.9-3.9 4.6-6 4.2z"/><path class="st171" d="M34.1 32.3c-.1 0-.2 0-.3-.1-1.7-.5-3-1.6-3.8-3.3-1.9-4.1-.5-10.5.8-13 2.2-4 5.2-4.3 7.4-3.9.6.1 1.2.3 1.7.5 2.3.9 3.5 3 3.2 5.5-.3 2.3-1.9 4.8-4.2 6.2.2.2.5.5.7.8.5.7.9 2 .5 3.1-.9 2.9-3.9 4.6-6 4.2z"/><path class="st171" d="M33.9 32.1c-.1 0-.2 0-.3-.1-1.7-.5-3-1.6-3.8-3.3-1.9-4.1-.5-10.5.8-13 2.2-4 5.2-4.3 7.4-3.9.6.1 1.2.3 1.7.5 2.3.9 3.5 3 3.2 5.5-.3 2.3-1.9 4.8-4.2 6.2.2.2.5.5.7.8.5.7.9 2 .5 3.1-.9 2.9-3.9 4.6-6 4.2z"/><path class="st171" d="M33.8 31.9c-.1 0-.2 0-.3-.1-1.7-.5-3-1.6-3.8-3.3-1.9-4.1-.5-10.5.8-13 2.2-4 5.2-4.3 7.4-3.9.6.1 1.2.3 1.7.5 2.3.9 3.5 3 3.2 5.5-.3 2.3-1.9 4.8-4.2 6.2.2.2.5.5.7.8.5.7.9 2 .5 3.1-.9 2.9-4 4.6-6 4.2z"/><path class="st171" d="M33.6 31.7c-.1 0-.2 0-.3-.1-1.7-.5-3-1.6-3.8-3.3-1.9-4.1-.5-10.5.8-13 2.2-4 5.2-4.3 7.4-3.9.6.1 1.2.3 1.7.5 2.3.9 3.5 3 3.2 5.5-.3 2.3-1.9 4.8-4.2 6.2.2.2.5.5.7.8.5.7.9 2 .5 3.1-.9 2.9-3.9 4.6-6 4.2z"/><path class="st171" d="M33.4 31.5c-.1 0-.2 0-.3-.1-1.7-.5-3-1.6-3.8-3.3-1.9-4.1-.5-10.5.8-13 2.2-4 5.2-4.3 7.4-3.9.6.1 1.2.3 1.7.5 2.3.9 3.5 3 3.2 5.5-.3 2.3-1.9 4.8-4.2 6.2.2.2.5.5.7.8.5.7.9 2 .5 3.1-.9 2.9-3.9 4.6-6 4.2z"/><path class="st171" d="M33.3 31.3c-.1 0-.2 0-.3-.1-1.7-.5-3-1.6-3.8-3.3-1.9-4.1-.5-10.5.8-13 2.2-4 5.2-4.3 7.4-3.9.6.1 1.2.3 1.7.5 2.3.9 3.5 3 3.2 5.5-.3 2.3-1.9 4.8-4.2 6.2.2.2.5.5.7.8.5.7.9 2 .5 3.1-.9 2.9-3.9 4.6-6 4.2z"/></g><g><path class="st171" d="M62.8 11c-.3-1-1.2-1.7-2.1-1.9-.5-.1-1.4-.1-2.1.8-.6.7-2.1.7-3.8.6-.8-2.3-2.6-3.7-4.4-4-.8-.2-1.7-.1-2.4.2-.7.2-1.2.8-1.4 1.5-.2.5-.1 1 0 1.6h-.9c-3 .3-4.8 2.1-4.5 4.6.2 1.6 1.2 2.4 2.2 2.6.6.1 1.2 0 1.7-.4.3-.2.8-.3 1.4-.3-.4 1.5-1 3.1-1.5 4.4-.8 2.3-1.6 4.6-1.8 6.4-.3 2.8.5 4.6 1.3 5.7 1 1.3 2.4 2.2 4.1 2.5 1 .2 1.9-.2 2.3-1 .4-.8.3-1.7-.3-2.5-.4-.6-.6-2.5.5-5.2.4-.9.8-1.8 1.2-2.6.9-1.9 1.8-3.8 2.4-6.2 1.5.3 2.7.3 3.8.3 2.2-.1 3.3-1.2 3.9-2.1 1-2 .7-4.1.4-5z"/><path class="st171" d="M62.7 10.8c-.3-1-1.2-1.7-2.1-1.9-.5-.1-1.4-.1-2.1.8-.6.7-2.1.7-3.8.6-.8-2.3-2.6-3.7-4.4-4-.8-.2-1.7-.1-2.4.2-.7.2-1.2.8-1.4 1.5-.2.5-.1 1 0 1.6h-.9c-3 .3-4.8 2.1-4.5 4.6.2 1.6 1.2 2.4 2.2 2.6.6.1 1.2 0 1.7-.4.3-.2.8-.3 1.4-.3-.4 1.5-1 3.1-1.5 4.4-.9 2.2-1.7 4.5-1.9 6.3-.3 2.8.5 4.6 1.3 5.7 1 1.3 2.4 2.2 4.1 2.5 1 .2 1.9-.2 2.3-1 .4-.8.3-1.7-.3-2.5-.4-.6-.6-2.5.5-5.2.4-.9.8-1.8 1.2-2.6.9-1.9 1.8-3.8 2.4-6.2 1.5.3 2.7.3 3.8.3 2.2-.1 3.3-1.2 3.9-2.1 1-1.9.8-4 .5-4.9z"/><path class="st171" d="M62.5 10.6c-.3-1-1.2-1.7-2.1-1.9-.5-.1-1.4-.1-2.1.8-.6.7-2.1.7-3.8.6-.8-2.3-2.6-3.7-4.4-4-.8-.2-1.7-.1-2.4.2-.7.2-1.2.7-1.5 1.4-.2.5-.1 1 0 1.6h-.9c-3 .3-4.8 2.1-4.5 4.6.2 1.6 1.2 2.4 2.2 2.6.6.1 1.2 0 1.7-.4.3-.2.8-.3 1.4-.3-.4 1.5-1 3.1-1.5 4.4-.8 2.3-1.6 4.6-1.8 6.4-.3 2.8.5 4.6 1.3 5.7 1 1.3 2.4 2.2 4.1 2.5 1 .2 1.9-.2 2.3-1 .4-.8.3-1.7-.3-2.5-.4-.6-.6-2.5.5-5.2.4-.9.8-1.8 1.2-2.6.9-1.9 1.8-3.8 2.4-6.2 1.5.3 2.7.3 3.8.3 2.2-.1 3.3-1.2 3.9-2.1 1.1-1.9.8-4 .5-4.9z"/><path class="st171" d="M62.3 10.4c-.3-1-1.2-1.7-2.1-1.9-.5-.1-1.4-.1-2.1.8-.6.6-2.1.7-3.8.6-.8-2.3-2.6-3.7-4.4-4-.9-.2-1.7-.1-2.4.1s-1.2.8-1.4 1.5c-.2.5-.1 1 0 1.6h-.9c-3 .3-4.8 2.1-4.5 4.6.2 1.6 1.2 2.4 2.2 2.6.6.1 1.2 0 1.7-.4.3-.2.8-.3 1.4-.3-.4 1.5-1 3.1-1.5 4.4-.8 2.3-1.6 4.6-1.8 6.4-.3 2.7.5 4.6 1.3 5.6 1 1.3 2.4 2.2 4.1 2.5 1 .2 1.9-.2 2.3-1 .4-.8.3-1.7-.3-2.5-.4-.6-.6-2.5.5-5.2.4-.9.8-1.8 1.2-2.6.9-1.9 1.8-3.8 2.4-6.2 1.5.3 2.7.3 3.8.3 2.2-.1 3.3-1.2 3.9-2.1 1-1.8.7-3.9.4-4.8z"/><path class="st171" d="M62.2 10.2c-.3-1-1.2-1.7-2.1-1.9-.5-.1-1.4-.1-2.1.7-.6.7-2.1.7-3.8.6-.8-2.3-2.6-3.7-4.4-4-.8-.2-1.7-.1-2.4.2-.7.2-1.2.8-1.4 1.5-.2.5-.1 1 0 1.6h-.9c-3 .3-4.8 2.1-4.5 4.6.2 1.6 1.2 2.4 2.2 2.6.6.1 1.2 0 1.7-.4.3-.2.8-.3 1.4-.3-.4 1.5-1 3.1-1.5 4.4-.8 2.3-1.6 4.6-1.8 6.4-.3 2.8.5 4.6 1.3 5.7 1 1.3 2.4 2.2 4.1 2.5 1 .2 1.9-.2 2.3-1 .4-.8.3-1.7-.3-2.5-.4-.6-.6-2.5.5-5.2.4-.9.8-1.8 1.2-2.6.9-1.9 1.8-3.8 2.4-6.2 1.5.3 2.7.3 3.8.3 2.2-.1 3.3-1.2 3.9-2.1 1-2 .7-4.1.4-4.9z"/><path class="st171" d="M62 10c-.3-1-1.2-1.7-2.1-1.9-.5-.1-1.4-.1-2.1.7-.6.7-2.1.7-3.8.6-.8-2.3-2.6-3.7-4.4-4-.8-.2-1.7-.1-2.4.2-.7.2-1.2.8-1.4 1.5-.2.5-.1 1 0 1.6h-.9c-3 .3-4.8 2.1-4.5 4.6.2 1.6 1.2 2.4 2.2 2.6.6.1 1.2 0 1.7-.4.3-.2.8-.3 1.4-.3-.4 1.5-1 3.1-1.5 4.4-.8 2.3-1.6 4.6-1.8 6.4-.3 2.8.5 4.6 1.3 5.7 1 1.3 2.4 2.2 4.1 2.5 1 .2 1.9-.2 2.3-1 .4-.8.3-1.7-.3-2.5-.4-.6-.6-2.5.5-5.2.4-.9.8-1.8 1.2-2.6.9-1.9 1.8-3.8 2.4-6.2 1.5.3 2.7.3 3.8.3 2.2-.1 3.3-1.2 3.9-2.1 1-2 .7-4.1.4-4.9z"/><path class="st171" d="M61.8 9.8c-.3-1-1.2-1.7-2.1-1.9-.5-.1-1.4-.1-2.1.8-.6.7-2.1.7-3.8.6-.8-2.3-2.6-3.7-4.4-4-.8-.2-1.7-.1-2.4.2-.7.2-1.2.8-1.4 1.5-.2.5-.1 1 0 1.6h-.9c-3 .3-4.8 2.1-4.5 4.6.2 1.6 1.2 2.4 2.2 2.6.6.1 1.2 0 1.7-.4.3-.2.8-.3 1.4-.3-.4 1.5-1 3.1-1.5 4.4-.8 2.3-1.6 4.6-1.8 6.4-.3 2.8.5 4.6 1.3 5.7 1 1.3 2.4 2.2 4.1 2.5 1 .2 1.9-.2 2.3-1 .4-.8.3-1.7-.3-2.5-.4-.6-.6-2.5.5-5.2.4-.9.8-1.8 1.2-2.6.9-1.9 1.8-3.8 2.4-6.2 1.5.3 2.7.3 3.8.3 2.2-.1 3.3-1.2 3.9-2.1 1-2.1.7-4.2.4-5z"/><path class="st171" d="M61.7 9.6c-.3-1-1.2-1.7-2.1-1.9-.5-.1-1.4-.1-2.1.8-.6.7-2.1.7-3.8.6-.8-2.3-2.6-3.7-4.4-4-.8-.2-1.7-.1-2.4.2-.7.2-1.2.8-1.4 1.5-.2.5-.1 1 0 1.6h-.9c-3 .3-4.8 2.1-4.5 4.6.2 1.6 1.2 2.4 2.2 2.6.6.1 1.2 0 1.7-.4.3-.2.8-.3 1.4-.3-.4 1.5-1 3.1-1.5 4.4-.8 2.3-1.6 4.6-1.8 6.4-.3 2.8.5 4.6 1.3 5.7 1 1.3 2.4 2.2 4.1 2.5 1 .2 1.9-.2 2.3-1 .4-.8.3-1.7-.3-2.5-.4-.6-.6-2.5.5-5.2.4-.9.8-1.8 1.2-2.6.9-1.9 1.8-3.8 2.4-6.2 1.5.3 2.7.3 3.8.3 2.2-.1 3.3-1.2 3.9-2.1 1-2.1.7-4.2.4-5z"/><path class="st171" d="M61.5 9.4c-.3-1-1.2-1.7-2.1-1.9-.5-.1-1.4-.1-2.1.8-.6.7-2.1.7-3.8.6-.8-2.3-2.6-3.7-4.4-4-.8-.2-1.7-.1-2.4.2-.7.2-1.2.8-1.4 1.5-.2.5-.1 1 0 1.6h-.9c-3 .3-4.8 2.1-4.5 4.6.2 1.6 1.2 2.4 2.2 2.6.6.1 1.2 0 1.7-.4.3-.2.8-.3 1.4-.3-.4 1.5-1 3.1-1.5 4.4-.8 2.3-1.6 4.6-1.8 6.4-.3 2.8.5 4.6 1.3 5.7 1 1.3 2.4 2.2 4.1 2.5 1 .2 1.9-.2 2.3-1 .4-.8.3-1.7-.3-2.5-.4-.6-.6-2.5.5-5.2.4-.9.8-1.8 1.2-2.6.9-1.9 1.8-3.8 2.4-6.2 1.5.3 2.7.3 3.8.3 2.2-.1 3.3-1.2 3.9-2.1 1-2.1.7-4.2.4-5z"/><path class="st171" d="M61.4 9.1c-.3-1-1.2-1.7-2.1-1.9-.5-.1-1.4-.1-2.1.8-.6.7-2.1.7-3.8.6-.8-2.3-2.6-3.7-4.4-4-.8-.2-1.7-.1-2.4.2-.7.2-1.2.8-1.4 1.5-.2.5-.1 1 0 1.6h-.9c-3 .3-4.8 2.1-4.5 4.6.2 1.6 1.2 2.4 2.2 2.6.6.1 1.2 0 1.7-.4.3-.2.8-.3 1.4-.3-.4 1.5-1 3.1-1.5 4.4-.8 2.3-1.6 4.6-1.8 6.4-.3 2.8.5 4.6 1.3 5.7 1 1.3 2.4 2.2 4.1 2.5 1 .2 1.9-.2 2.3-1 .4-.8.3-1.7-.3-2.5-.4-.6-.6-2.5.5-5.2.4-.9.8-1.8 1.2-2.6.9-1.9 1.8-3.8 2.4-6.2 1.5.1 2.7.2 3.7.1 2.2-.1 3.3-1.2 3.9-2.1 1-1.8.8-3.9.5-4.8z"/><path class="st171" d="M61.2 8.9C60.9 8 60 7.2 59.1 7c-.5 0-1.4-.1-2.1.8-.6.7-2.1.7-3.8.6-.8-2.3-2.6-3.7-4.4-4-.8-.2-1.7-.1-2.4.2-.7.2-1.2.8-1.4 1.5-.2.5-.1 1 0 1.6h-.9c-3 .3-4.8 2.1-4.5 4.6.2 1.6 1.2 2.4 2.2 2.6.6.1 1.2 0 1.7-.4.3-.2.8-.3 1.4-.3-.4 1.5-1 3.1-1.5 4.4-.8 2.3-1.6 4.6-1.8 6.4-.3 2.8.5 4.6 1.3 5.7 1 1.3 2.4 2.2 4.1 2.5 1 .2 1.9-.2 2.3-1 .4-.8.3-1.7-.3-2.5-.4-.6-.6-2.5.5-5.2.4-.9.8-1.8 1.2-2.6.9-1.9 1.8-3.8 2.4-6.2 1.5.3 2.7.3 3.8.3 2.2-.1 3.3-1.2 3.9-2.1 1-2 .7-4.1.4-5z"/><path class="st171" d="M61 8.7c-.3-1-1.2-1.7-2.1-1.9-.5-.1-1.4-.1-2.1.8-.6.7-2.1.7-3.8.6-.8-2.3-2.6-3.7-4.4-4-.8-.2-1.7-.1-2.4.2-.7.2-1.2.8-1.4 1.5-.2.5-.1 1 0 1.6h-.9c-3 .3-4.8 2.1-4.5 4.6.2 1.6 1.2 2.4 2.2 2.6.6.1 1.2 0 1.7-.4.3-.2.8-.3 1.4-.3-.4 1.5-1 3.1-1.5 4.4-.8 2.3-1.6 4.6-1.8 6.4-.3 2.8.5 4.6 1.3 5.7 1 1.3 2.4 2.2 4.1 2.5 1 .2 1.9-.2 2.3-1 .4-.8.3-1.7-.3-2.5-.4-.6-.6-2.5.5-5.2.4-.9.8-1.8 1.2-2.6.9-1.9 1.8-3.8 2.4-6.2 1.5.3 2.7.3 3.8.3 2.2-.1 3.3-1.2 3.9-2.1 1-2 .7-4.1.4-5z"/></g><g><path class="st171" d="M56.1 13.7c-1.1-.1-1.9 1.1-2.5 2.3-.9 1.8-.8 3.2-.5 4.1.4 1.1 1.2 2.1 2.3 2.7.7.4 1.4.4 1.9 0s.6-1.1.4-1.7c-.2-.5.1-2 1.7-3.3 2.6-2.2-1.5-4-3.3-4.1z"/><path class="st171" d="M57.7 14.2c-1.1-.1-2 3.2-2.6 4.3-.9 1.8-.8 3.2-.5 4.1.4 1.1 1.2 2.1 2.3 2.7.7.4 1.4.4 1.9 0s.6-1.1.4-1.7c-.2-.5.1-2 1.7-3.3 2.6-2-1.3-6-3.2-6.1z"/></g><g><path class="st171" d="M60.7 38c-.6-.1-1.2-.3-1.9-.6-2.5-1-3.8-3-3.5-5.2.4-2.5 2.8-4.9 5.2-5.2-.1-1.2-.1-2.4 0-3.4.1-1.5.6-3.5 2.3-4.8 1.2-.8 2.7-1.1 4.6-.7h.2c2.9.6 3.6 2.4 3.7 3.1.4 1.9-1 3.8-2.4 4.7-.2.1-.5.2-.8.3 0 .2.1.4.1.6.2 1.6.4 3.4.2 5.1-.1.8-.6 3.6-3 5.1-1.3 1-2.9 1.3-4.7 1z"/><path class="st171" d="M60.6 37.8c-.6-.1-1.2-.3-1.9-.6-2.5-1-3.8-3-3.5-5.2.4-2.5 2.8-4.9 5.2-5.2-.1-1.2-.1-2.4 0-3.4.1-1.5.6-3.5 2.3-4.8 1.2-.8 2.7-1.1 4.6-.7h.2c2.9.6 3.6 2.4 3.7 3.1.4 1.9-1 3.8-2.4 4.7-.2.1-.5.2-.8.3 0 .2.1.4.1.6.2 1.6.4 3.4.2 5.1-.1.8-.6 3.6-3 5.1-1.3 1-3 1.3-4.7 1z"/><path class="st171" d="M60.4 37.6c-.6-.1-1.2-.3-1.9-.6-2.5-1-3.8-3-3.5-5.2.4-2.5 2.8-4.9 5.2-5.2-.1-1.2-.1-2.4 0-3.4.1-1.5.6-3.5 2.3-4.8 1.2-.8 2.7-1.1 4.6-.7h.2c2.9.6 3.6 2.4 3.7 3.1.4 1.9-1 3.8-2.4 4.7-.2.1-.5.2-.8.3 0 .2.1.4.1.6.2 1.6.4 3.4.2 5.1-.1.8-.6 3.6-3 5.1-1.3 1-2.9 1.3-4.7 1z"/><path class="st171" d="M60.3 37.4c-.6-.1-1.2-.3-1.9-.6-2.5-1-3.8-3-3.5-5.2.4-2.5 2.8-4.9 5.2-5.2-.1-1.2-.1-2.4 0-3.4.1-1.5.6-3.5 2.3-4.8 1.2-.8 2.7-1.1 4.6-.7h.2c2.9.6 3.6 2.4 3.7 3.1.4 1.9-1 3.8-2.4 4.7-.2.1-.5.2-.8.3 0 .2.1.4.1.6.2 1.6.4 3.4.2 5.1-.1.8-.6 3.6-3 5.1-1.3 1.1-2.9 1.4-4.7 1z"/><path class="st171" d="M60.2 37.2c-.6-.1-1.2-.3-1.9-.6-2.5-1-3.8-3-3.5-5.2.4-2.5 2.8-4.9 5.2-5.2-.1-1.2-.1-2.4 0-3.4.1-1.5.6-3.5 2.3-4.8 1.2-.8 2.7-1.1 4.6-.7h.2c2.9.6 3.6 2.4 3.7 3.1.4 1.9-1 3.8-2.4 4.7-.2.1-.5.2-.8.3 0 .2.1.4.1.6.2 1.6.4 3.4.2 5.1-.1.8-.6 3.6-3 5.1-1.4 1.1-3 1.4-4.7 1z"/><path class="st171" d="M60 37c-.6-.1-1.2-.3-1.9-.6-2.5-1-3.8-3-3.5-5.2.4-2.5 2.8-4.9 5.2-5.2-.1-1.2-.1-2.4 0-3.4.1-1.5.6-3.5 2.3-4.8 1.2-.8 2.7-1.1 4.6-.7h.2c2.9.6 3.6 2.4 3.7 3.1.4 1.9-1 3.8-2.4 4.7-.2.1-.5.2-.8.3 0 .2.1.4.1.6.2 1.6.4 3.4.2 5.1-.1.8-.6 3.6-3 5.1-1.3 1.1-2.9 1.4-4.7 1z"/><path class="st171" d="M59.9 36.9c-.6-.1-1.2-.3-1.9-.6-2.5-1-3.8-3-3.5-5.2.4-2.5 2.8-4.9 5.2-5.2-.1-1.2-.1-2.4 0-3.4.1-1.5.6-3.5 2.3-4.8 1.2-.8 2.7-1.1 4.6-.7h.2c2.9.6 3.6 2.4 3.7 3.1.4 1.9-1 3.8-2.4 4.7-.2.1-.5.2-.8.3 0 .2.1.4.1.6.2 1.6.4 3.4.2 5.1-.1.8-.6 3.6-3 5.1-1.3 1-2.9 1.3-4.7 1z"/><path class="st171" d="M59.8 36.7c-.6-.1-1.2-.3-1.9-.6-2.5-1-3.8-3-3.5-5.2.4-2.5 2.8-4.9 5.2-5.2-.1-1.2-.1-2.4 0-3.4.1-1.5.6-3.5 2.3-4.8 1.2-.8 2.7-1.1 4.6-.7h.2c2.9.6 3.6 2.4 3.7 3.1.4 1.9-1 3.8-2.4 4.7-.2.1-.5.2-.8.3 0 .2.1.4.1.6.2 1.6.4 3.4.2 5.1-.1.8-.6 3.6-3 5.1-1.4 1-3 1.3-4.7 1z"/><path class="st171" d="M59.6 36.5c-.6-.1-1.2-.3-1.9-.6-2.5-1-3.8-3-3.5-5.2.4-2.5 2.8-4.9 5.2-5.2-.1-1.2-.1-2.4 0-3.4.1-1.5.6-3.5 2.3-4.8 1.2-.8 2.7-1.1 4.6-.7h.2c2.9.6 3.6 2.4 3.7 3.1.4 1.9-1 3.8-2.4 4.7-.2.1-.5.2-.8.3 0 .2.1.4.1.6.2 1.6.4 3.4.2 5.1-.1.8-.6 3.6-3 5.1-1.3 1-2.9 1.3-4.7 1z"/><path class="st171" d="M59.5 36.3c-.6-.1-1.2-.3-1.9-.6-2.5-1-3.8-3-3.5-5.2.4-2.5 2.8-4.9 5.2-5.2-.1-1.2-.1-2.4 0-3.4.1-1.5.6-3.5 2.3-4.8 1.2-.8 2.7-1.1 4.6-.7h.2c2.9.6 3.6 2.4 3.7 3.1.4 1.9-1 3.8-2.4 4.7-.2.1-.5.2-.8.3 0 .2.1.4.1.6.2 1.6.4 3.4.2 5.1-.1.8-.6 3.6-3 5.1-1.3 1-3 1.3-4.7 1z"/><path class="st171" d="M59.4 36.1c-.6-.1-1.2-.3-1.9-.6-2.5-1-3.8-3-3.5-5.2.4-2.5 2.8-4.9 5.2-5.2-.1-1.2-.1-2.4 0-3.4.1-1.5.6-3.5 2.3-4.8 1.2-.8 2.7-1.1 4.6-.7h.2c2.9.6 3.6 2.4 3.7 3.1.4 1.9-1 3.8-2.4 4.7-.2.1-.5.2-.8.3 0 .2.1.4.1.6.2 1.6.4 3.4.2 5.1-.1.8-.6 3.6-3 5.1-1.4 1-3 1.3-4.7 1z"/><path class="st171" d="M59.2 35.9c-.6-.1-1.2-.3-1.9-.6-2.5-1-3.8-3-3.5-5.2.4-2.5 2.8-4.9 5.2-5.2-.1-1.2-.1-2.4 0-3.4.1-1.5.6-3.5 2.3-4.8 1.2-.8 2.7-1.1 4.6-.7h.2c2.9.6 3.6 2.4 3.7 3.1.4 1.9-1 3.8-2.4 4.7-.2.1-.5.2-.8.3 0 .2.1.4.1.6.2 1.6.4 3.4.2 5.1-.1.8-.6 3.6-3 5.1-1.3 1-2.9 1.3-4.7 1z"/></g><path class="st0" d="M28.6 28.9c-.2-.9-.9-.9-1.6-.4-4.2 3.1-8.9 2.6-13.2-.2C17 20.1 17.2 6.6 23 4.1c.5-.2.6-.7.1-1-2.9-1.9-5.7-1.3-7.3 1.5-1.1 1.9-2 4.8-2.8 8.4-1 4.5-1.4 9.5-2.2 13.1C6.4 23.4 2.1 23.6 2 29c-.1 4.6 7.3 8.2 11 1.2 2.4 2.2 5.1 4.7 8.8 4.9 6.2.4 7.4-3.9 6.8-6.2zM7.3 31.4c-2.6-.4-1.2-5.2.9-4.6.8.2 1.5.6 2.2 1.1-.7 2.3-1.6 3.7-3.1 3.5zM36.7 24.8c-.6 1.6-2.1 3.2-3.1 3.4-.5-.9-.6-3.4-.1-6 5.2.5 9.5-7.1 5.2-8.8-2.8-1.1-5.2-.4-6.9 2.7-1.7 3.1-3 12 1.5 13.2 1 .3 3.4-.7 4.2-3.2.2-.6-.5-2.1-.8-1.3zm1.7-9.9c.4 2.1-2.4 6.2-4.6 6.2.6-2.7 2.1-5.3 4.6-6.2zM59.2 9.2c-.1-.3-.4-.6-.8-.2-1.3 1.5-4.1 1.4-7 1-.1-3.2-2.7-4.3-4.3-3.8-.3.1-.5.5-.3.9.4.7.6 1.5.6 2.3-1.1-.1-2.1-.2-3-.1-1.5.1-3.2.8-3 2.6.1.5.3.7.5.5 1.1-.9 3-.9 5.3-.5-.8 4.4-3.5 9.8-3.8 13-.4 3.2 1.1 5.2 3.5 5.7.5.1.5-.3.4-.5-1-1.4-1.2-4 .2-7.3 1.5-3.5 3.2-5.9 3.7-10.1 1.8.4 3.6.7 5.1.6 3.4.1 3.2-3.2 2.9-4.1z"/><path class="st0" d="M58 16.8c.4-.4-.9-1-1.6-1.1-.2 0-.4.1-.6.3-.3.4-.5.7-.7 1-.9 1.6-.4 3 .9 3.7.3.2.4 0 .3-.2-.2-.9.2-2.3 1.7-3.7zM66.3 22.3c1.5-.9 2.9-3.7-.6-4.4-3.5-.7-4.3 1.5-4.6 3.8-.3 2.3.6 6.3-.1 8.8-.7 2.5-1.8 2.3-2.5 2.2-1.2-.2-1.9-3.9 1.3-4.9.3-.1.2-1.1-.3-1-2.6.4-5.9 5-1.3 6.9 4.7 1.9 6.4-1.8 6.7-3.9.4-3.2-1-7.1-.2-8.9.5-1.2 1.2-1.4 1.4-1.4.2.8 0 1.7-.4 2.2-.5.3.3.7.6.6z"/><g><path class="st171" d="M81.3 38.4c-2.4-.4-4.5-1.8-5.8-4-2.2-3.7-2.1-9 .5-16C79.5 8.7 85.4 6 89.7 6.8l1.2.3c2.1.7 3.7 2.3 4.5 4.3.9 2.4.6 5.1-.7 7.3-1.8 2.7-4.7 4.1-7.5 3.6-.8-.1-1.6-.4-2.2-.9-.2-.1-.4-.3-.6-.4 0 .1-.1.2-.1.3-1.3 2.9-2.3 9-1.1 11 .1.1.1.2.2.2.5-.6 1.1-2.8.7-4.9-.2-.8 0-1.6.5-2.1.6-.6 1.4-.8 2.4-.7 1.3.2 2.7 1.1 3.6 2.3.8 1.1 1.2 2.4 1.1 3.7-.5 4.9-5 8.3-9.9 7.7-.3-.1-.4-.1-.5-.1z"/><path class="st171" d="M81.1 38.2c-2.4-.4-4.5-1.8-5.8-4-2.2-3.7-2.1-9 .5-16 3.6-9.7 9.4-12.4 13.8-11.6l1.2.3c2.1.7 3.7 2.3 4.5 4.3.9 2.4.6 5.1-.7 7.3-1.8 2.7-4.7 4.1-7.5 3.6-.8-.1-1.6-.4-2.2-.9-.2-.1-.4-.3-.6-.4 0 .1-.1.2-.1.3-1.3 2.9-2.3 9-1.1 11 .1.1.1.2.2.2.5-.6 1.1-2.8.7-4.9-.2-.8 0-1.6.5-2.1.6-.6 1.4-.8 2.4-.7 1.3.2 2.7 1.1 3.6 2.3.8 1.1 1.2 2.4 1.1 3.7-.5 4.9-5 8.3-9.9 7.7-.4-.1-.5-.1-.6-.1z"/><path class="st171" d="M80.9 38c-2.4-.4-4.5-1.8-5.8-4-2.2-3.7-2.1-9 .5-16C79.2 8.3 85 5.6 89.4 6.4l1.2.3c2.1.7 3.7 2.3 4.5 4.3.9 2.4.6 5.1-.7 7.3-1.8 2.7-4.7 4.1-7.5 3.6-.8-.1-1.6-.4-2.2-.9-.2-.1-.4-.3-.6-.4 0 .1-.1.2-.1.3-1.3 2.9-2.3 9-1.1 11 .1.1.1.2.2.2.5-.6 1.1-2.8.7-4.9-.2-.8 0-1.6.5-2.1.6-.6 1.4-.8 2.4-.7 1.3.2 2.7 1.1 3.6 2.3.8 1.1 1.2 2.4 1.1 3.7-.5 4.9-5 8.3-9.9 7.7-.3-.1-.4-.1-.6-.1z"/><path class="st171" d="M80.8 37.8c-2.4-.4-4.5-1.8-5.8-4-2.2-3.7-2.1-9 .5-16C79 8.1 84.9 5.4 89.2 6.2l1.2.3c2.1.7 3.7 2.3 4.5 4.3.9 2.4.6 5.1-.7 7.3-1.8 2.7-4.7 4.1-7.5 3.6-.8-.1-1.6-.4-2.2-.9-.2-.1-.4-.3-.6-.4 0 .1-.1.2-.1.3-1.3 2.9-2.3 9-1.1 11 .1.1.1.2.2.2.5-.6 1.1-2.8.7-4.9-.2-.8 0-1.6.5-2.1.6-.6 1.4-.8 2.4-.7 1.3.2 2.7 1.1 3.6 2.3.8 1.1 1.2 2.4 1.1 3.7-.5 4.9-5 8.3-9.9 7.7-.3-.1-.4-.1-.5-.1z"/><path class="st171" d="M80.6 37.6c-2.4-.4-4.5-1.8-5.8-4-2.2-3.7-2.1-9 .5-16C78.9 7.9 84.8 5.2 89.1 6l1.2.3c2.1.7 3.7 2.3 4.5 4.3.9 2.4.6 5.1-.7 7.3-1.8 2.7-4.7 4.1-7.5 3.6-.8-.1-1.6-.4-2.2-.9-.2-.1-.4-.3-.6-.4 0 .1-.1.2-.1.3-1.3 2.9-2.3 9-1.1 11 .1.1.1.2.2.2.5-.6 1.1-2.8.7-4.9-.2-.8 0-1.6.5-2.1.6-.6 1.4-.8 2.4-.7 1.3.2 2.7 1.1 3.6 2.3.8 1.1 1.2 2.4 1.1 3.7-.5 4.9-5 8.3-9.9 7.7-.3-.1-.5-.1-.6-.1z"/><path class="st171" d="M80.5 37.4c-2.4-.4-4.5-1.8-5.8-4-2.2-3.7-2.1-9 .5-16C78.7 7.7 84.6 5 88.9 5.8l1.2.3c2.1.7 3.7 2.3 4.5 4.3.9 2.4.6 5.1-.7 7.3-1.8 2.7-4.7 4.1-7.5 3.6-.8-.1-1.6-.4-2.2-.9-.2-.1-.4-.3-.6-.4 0 .1-.1.2-.1.3-1.3 2.9-2.3 9-1.1 11 .1.1.1.2.2.2.5-.6 1.1-2.8.7-4.9-.2-.8 0-1.6.5-2.1.6-.6 1.4-.8 2.4-.7 1.3.2 2.7 1.1 3.6 2.3.8 1.1 1.2 2.4 1.1 3.7-.5 4.9-5 8.3-9.9 7.7-.3-.1-.4-.1-.5-.1z"/><path class="st171" d="M80.3 37.2c-2.4-.4-4.5-1.8-5.8-4-2.2-3.7-2.1-9 .5-16 3.6-9.7 9.4-12.4 13.8-11.6l1.2.3c2.1.7 3.7 2.3 4.5 4.3.9 2.4.6 5.1-.7 7.3-1.8 2.7-4.7 4.1-7.5 3.6-.8-.1-1.6-.4-2.2-.9-.2-.1-.4-.3-.6-.4 0 .1-.1.2-.1.3-1.3 2.9-2.3 9-1.1 11 .1.1.1.2.2.2.5-.6 1.1-2.8.7-4.9-.2-.8 0-1.6.5-2.1.6-.6 1.4-.8 2.4-.7 1.3.2 2.7 1.1 3.6 2.3.8 1.1 1.2 2.4 1.1 3.7-.5 4.9-5 8.3-9.9 7.7-.4-.1-.5-.1-.6-.1z"/><path class="st171" d="M80.1 37c-2.4-.4-4.5-1.8-5.8-4-2.2-3.7-2.1-9 .5-16 3.6-9.7 9.4-12.4 13.8-11.6l1.2.3c2.1.7 3.7 2.3 4.5 4.3.9 2.4.6 5.1-.7 7.3-1.8 2.7-4.7 4.1-7.5 3.6-.8-.1-1.6-.4-2.2-.9-.2-.1-.4-.3-.6-.4 0 .1-.1.2-.1.3-1.3 2.9-2.3 9-1.1 11 .1.1.1.2.2.2.5-.6 1.1-2.8.7-4.9-.2-.8 0-1.6.5-2.1.6-.6 1.4-.8 2.4-.7 1.3.2 2.7 1.1 3.6 2.3.8 1.1 1.2 2.4 1.1 3.7-.5 4.9-5 8.3-9.9 7.7-.3-.1-.4-.1-.6-.1z"/><path class="st171" d="M80 36.8c-2.4-.4-4.5-1.8-5.8-4-2.2-3.7-2.1-9 .5-16 3.6-9.7 9.4-12.4 13.8-11.6l1.2.3c2.1.7 3.7 2.3 4.5 4.3.9 2.4.6 5.1-.7 7.3-1.8 2.7-4.7 4.1-7.5 3.6-.8-.1-1.6-.4-2.2-.9-.2-.1-.4-.3-.6-.4 0 .1-.1.2-.1.3-1.3 2.9-2.3 9-1.1 11 .1.1.1.2.2.2.5-.6 1.1-2.8.7-4.9-.2-.8 0-1.6.5-2.1.6-.6 1.4-.8 2.4-.7 1.3.2 2.7 1.1 3.6 2.3.8 1.1 1.2 2.4 1.1 3.7-.5 4.9-5 8.3-9.9 7.7-.4-.1-.5-.1-.6-.1z"/><path class="st171" d="M79.8 36.6c-2.4-.4-4.5-1.8-5.8-4-2.2-3.7-2.1-9 .5-16C78.1 6.8 84 4.2 88.3 5l1.2.3c2.1.7 3.7 2.3 4.5 4.3.9 2.4.6 5.1-.7 7.3-1.8 2.7-4.7 4.1-7.5 3.6-.8-.1-1.6-.4-2.2-.9-.2-.1-.4-.3-.6-.4 0 .1-.1.2-.1.3-1.3 2.9-2.3 9-1.1 11 .1.1.1.2.2.2.5-.6 1.1-2.8.7-4.9-.2-.8 0-1.6.5-2.1.6-.6 1.4-.8 2.4-.7 1.3.2 2.7 1.1 3.6 2.3.8 1.1 1.2 2.4 1.1 3.7-.5 4.9-5 8.3-9.9 7.7-.3-.1-.5-.1-.6-.1z"/><path class="st171" d="M79.7 36.3c-2.4-.4-4.5-1.8-5.8-4-2.2-3.7-2.1-9 .5-16C77.9 6.6 83.8 4 88.1 4.7l1.2.3c2.1.7 3.7 2.3 4.5 4.3.9 2.4.6 5.1-.7 7.3-1.8 2.7-4.7 4.1-7.5 3.6-.8-.1-1.6-.4-2.2-.9-.2-.1-.4-.3-.6-.4 0 .1-.1.2-.1.3-1.3 2.9-2.3 9-1.1 11 .1.1.1.2.2.2.5-.6 1.1-2.8.7-4.9-.2-.8 0-1.6.5-2.1.6-.6 1.4-.8 2.4-.7 1.3.2 2.7 1.1 3.6 2.3.8 1.1 1.2 2.4 1.1 3.7-.5 4.9-5 8.3-9.9 7.7-.3 0-.4 0-.5-.1z"/><path class="st171" d="M79.5 36.1c-2.4-.4-4.5-1.8-5.8-4-2.2-3.7-2.1-9 .5-16C77.8 6.4 83.6 3.7 88 4.5l1.2.3c2.1.7 3.7 2.3 4.5 4.3.9 2.4.6 5.1-.7 7.3-1.8 2.7-4.7 4.1-7.5 3.6-.8-.1-1.6-.4-2.2-.9-.2-.1-.4-.3-.6-.4 0 .1-.1.2-.1.3-1.3 2.9-2.3 9-1.1 11 .1.1.1.2.2.2.5-.6 1.1-2.8.7-4.9-.2-.8 0-1.6.5-2.1.6-.6 1.4-.8 2.4-.7 1.3.2 2.7 1.1 3.6 2.3.8 1.1 1.2 2.4 1.1 3.7-.5 4.9-5 8.3-9.9 7.7-.4 0-.5 0-.6-.1z"/><g><path class="st171" d="M103 36.3c-1.3 0-2.4-.4-3.3-1.1-.1.1-.2.2-.2.3-.4.4-1 .9-2.2 1-1.7.1-3-.4-4.1-1.4-1.4-1.3-2-3.4-1.9-6.3.1-2.2.9-5.4 1.8-8.9 1.2-4.4 2.7-10.4 1.9-12.3-.6-1.3-.1-2.7 1.2-3.4.8-.4 1.8-.4 2.3-.5 2.8-.1 5.1 1.4 5.8 3.8.5 1.7 0 4-.9 6.6.5-.1 1-.2 1.5-.2h.9c2.5.3 3.5 1.4 3.9 2.3.4.9.3 1.9-.3 2.7-.7.9-1.9 2.7-2.9 5.8-1.1 3.4-1.2 6.6-.7 7.9.3.9.2 1.8-.3 2.5s-1.3 1.1-2.3 1.1l-.2.1z"/><path class="st171" d="M102.9 36.1c-1.3 0-2.4-.4-3.3-1.1-.1.1-.2.2-.2.3-.4.4-1 .9-2.2 1-1.7.1-3-.4-4.1-1.4-1.4-1.3-2-3.4-1.9-6.3.1-2.2.9-5.4 1.8-8.9 1.2-4.4 2.7-10.4 1.9-12.3-.6-1.3-.1-2.7 1.2-3.4.8-.4 1.8-.5 2.2-.5 2.8-.1 5.1 1.4 5.8 3.8.5 1.7 0 4-.9 6.6.5-.1 1-.2 1.5-.2h.9c2.5.3 3.5 1.4 3.9 2.3.4.9.3 1.9-.3 2.7-.7.9-1.9 2.7-2.9 5.8-1.1 3.4-1.2 6.6-.7 7.9.3.9.2 1.8-.3 2.5S104 36 103 36l-.1.1z"/><path class="st171" d="M102.7 36c-1.3 0-2.4-.4-3.3-1.1-.1.1-.2.2-.2.3-.4.4-1 .9-2.2 1-1.7.1-3-.4-4.1-1.4-1.4-1.3-2-3.4-1.9-6.3.1-2.2.9-5.4 1.8-8.9 1.2-4.4 2.7-10.4 1.9-12.3-.7-1.3-.2-2.7 1.1-3.4.8-.4 1.8-.5 2.2-.5 2.8-.1 5.1 1.4 5.8 3.8.5 1.7 0 4-.9 6.6.5-.1 1-.2 1.5-.2h.9c2.5.3 3.5 1.4 3.9 2.3.4.9.3 1.9-.3 2.7-.7.9-1.9 2.7-2.9 5.8-1.1 3.4-1.2 6.6-.7 7.9.3.9.2 1.8-.3 2.5s-1.3 1.1-2.3 1.1v.1z"/><path class="st171" d="M102.5 35.8c-1.3 0-2.4-.4-3.3-1.1-.1.1-.2.2-.2.3-.4.4-1 .9-2.2 1-1.7.1-3-.4-4.1-1.4-1.4-1.3-2-3.4-1.9-6.3.1-2.2.9-5.4 1.8-8.9C93.7 15 95.3 9 94.4 7.1c-.6-1.3-.1-2.7 1.2-3.4.8-.4 1.8-.5 2.2-.5 2.8-.1 5.1 1.4 5.8 3.8.5 1.7 0 4-.9 6.6.5-.1 1-.2 1.5-.2h.9c2.5.3 3.5 1.4 3.9 2.3.4.9.3 1.9-.3 2.7-.7.9-1.9 2.7-2.9 5.8-1.1 3.4-1.2 6.6-.7 7.9.3.9.2 1.8-.3 2.5s-1.3 1.1-2.3 1.1v.1z"/><path class="st171" d="M102.3 35.6c-1.3 0-2.4-.4-3.3-1.1-.1.1-.2.2-.2.3-.4.4-1 .9-2.2 1-1.7.1-3-.4-4.1-1.4-1.4-1.3-2-3.4-1.9-6.3.1-2.2.9-5.4 1.8-8.9 1.2-4.4 2.7-10.4 1.9-12.3-.6-1.3-.1-2.7 1.2-3.4.8-.4 1.8-.5 2.2-.5 2.8-.1 5.1 1.4 5.8 3.8.5 1.7 0 4-.9 6.6.5-.1 1-.2 1.5-.2h.9c2.5.3 3.5 1.4 3.9 2.3.4.9.3 1.9-.3 2.7-.7.9-1.9 2.7-2.9 5.8-1.1 3.4-1.2 6.6-.7 7.9.3.9.2 1.8-.3 2.5s-1.3 1.1-2.3 1.1l-.1.1z"/><path class="st171" d="M102.1 35.5c-1.3 0-2.4-.4-3.3-1.1-.1.1-.2.2-.2.3-.4.4-1 .9-2.2 1-1.7.1-3-.4-4.1-1.4-1.4-1.3-2-3.4-1.9-6.3.1-2.2.9-5.4 1.8-8.9 1.2-4.4 2.7-10.4 1.9-12.3-.6-1.3-.1-2.7 1.2-3.4.7-.4 1.8-.5 2.2-.5 2.8-.1 5.1 1.4 5.8 3.8.5 1.7 0 4-.9 6.6.5-.1 1-.2 1.5-.2h.9c2.5.3 3.5 1.4 3.9 2.3.4.9.3 1.9-.3 2.7-.7.9-1.9 2.7-2.9 5.8-1.1 3.4-1.2 6.6-.7 7.9.3.9.2 1.8-.3 2.5s-1.3 1.1-2.3 1.1l-.1.1z"/><path class="st171" d="M101.9 35.3c-1.3 0-2.4-.4-3.3-1.1-.1.1-.2.2-.2.3-.4.4-1 .9-2.2 1-1.7.1-3-.4-4.1-1.4-1.4-1.3-2-3.4-1.9-6.3.1-2.2.9-5.4 1.8-8.9 1.2-4.4 2.7-10.4 1.9-12.3-.6-1.3-.1-2.7 1.2-3.4.8-.4 1.8-.5 2.2-.5 2.8-.1 5.1 1.4 5.8 3.8.5 1.7 0 4-.9 6.6.5-.1 1-.2 1.5-.2h.9c2.5.3 3.5 1.4 3.9 2.3.4.9.3 1.9-.3 2.7-.7.9-1.9 2.7-2.9 5.8-1.1 3.4-1.2 6.6-.7 7.9.3.9.2 1.8-.3 2.5s-1.3 1.1-2.3 1.1l-.1.1z"/><path class="st171" d="M101.7 35.1c-1.3 0-2.4-.4-3.3-1.1-.1.1-.2.2-.2.3-.4.4-1 .9-2.2 1-1.7.1-3-.4-4.1-1.4-1.4-1.3-2-3.4-1.9-6.3.1-2.2.9-5.4 1.8-8.9 1.2-4.4 2.7-10.4 1.9-12.3-.6-1.3-.1-2.7 1.2-3.4.8-.4 1.8-.5 2.2-.5 2.8-.1 5.1 1.4 5.8 3.8.5 1.7 0 4-.9 6.6.5-.1 1-.2 1.5-.2h.9c2.5.3 3.5 1.4 3.9 2.3.4.9.3 1.9-.3 2.7-.7.9-1.9 2.7-2.9 5.8-1.1 3.4-1.2 6.6-.7 7.9.3.9.2 1.8-.3 2.5s-1.3 1.1-2.3 1.1l-.1.1z"/><path class="st171" d="M101.5 35c-1.3 0-2.4-.4-3.3-1.1-.1.1-.2.2-.2.3-.4.4-1 .9-2.2 1-1.7.1-3-.4-4.1-1.4-1.4-1.3-2-3.4-1.9-6.3.1-2.2.9-5.4 1.8-8.9 1.2-4.4 2.7-10.4 1.9-12.3-.6-1.3-.1-2.7 1.2-3.4.8-.4 1.8-.5 2.2-.5 2.8-.1 5.1 1.4 5.8 3.8.5 1.7 0 4-.9 6.6.5-.1 1-.2 1.5-.2h.9c2.5.3 3.5 1.4 3.9 2.3.4.9.3 1.9-.3 2.7-.7.9-1.9 2.7-2.9 5.8-1.1 3.4-1.2 6.6-.7 7.9.3.9.2 1.8-.3 2.5s-1.3 1.1-2.3 1.1l-.1.1z"/><path class="st171" d="M101.3 34.8c-1.3 0-2.4-.4-3.3-1.1-.1.1-.2.2-.2.3-.4.4-1 .9-2.2 1-1.7.1-3-.4-4.1-1.4-1.4-1.3-2-3.4-1.9-6.3.1-2.2.9-5.4 1.8-8.9C92.5 14 94.1 8 93.3 6.1c-.6-1.3-.1-2.7 1.2-3.4.8-.4 1.8-.5 2.2-.5 2.8-.1 5.1 1.4 5.8 3.8.5 1.7 0 4-.9 6.6.5-.1 1-.2 1.5-.2h.9c2.5.3 3.5 1.4 3.9 2.3.4.9.3 1.9-.3 2.7-.7.9-1.9 2.7-2.9 5.8-1.1 3.4-1.2 6.6-.7 7.9.3.9.2 1.8-.3 2.5s-1.3 1.1-2.3 1.1l-.1.1z"/><path class="st171" d="M101.1 34.6c-1.3 0-2.4-.4-3.3-1.1-.1.1-.2.2-.2.3-.4.4-1 .9-2.2 1-1.7.1-3-.4-4.1-1.4-1.4-1.3-2-3.4-1.9-6.3.1-2.2.9-5.4 1.8-8.9 1.2-4.4 2.7-10.4 1.9-12.3-.6-1.3-.1-2.7 1.2-3.4.8-.4 1.8-.5 2.2-.5 2.8-.1 5.1 1.4 5.8 3.8.5 1.7 0 4-.9 6.6.5-.1 1-.2 1.5-.2h.9c2.5.3 3.5 1.4 3.9 2.3.4.9.3 1.9-.3 2.7-.7.9-1.9 2.7-2.9 5.8-1.1 3.4-1.2 6.6-.7 7.9.3.9.2 1.8-.3 2.5s-1.3 1.1-2.3 1.1l-.1.1z"/><path class="st171" d="M100.9 34.4c-1.3 0-2.4-.4-3.3-1.1-.1.1-.2.2-.2.3-.4.4-1 .9-2.2 1-1.7.1-3-.4-4.1-1.4-1.4-1.3-2-3.4-1.9-6.3.1-2.2.9-5.4 1.8-8.9 1.2-4.4 2.7-10.4 1.9-12.3-.6-1.3-.1-2.7 1.2-3.4.8-.4 1.8-.5 2.2-.5 2.8-.1 5.1 1.4 5.8 3.8.5 1.7 0 4-.9 6.6.5-.1 1-.2 1.5-.2h.9c2.5.3 3.5 1.4 3.9 2.3.4.9.3 1.9-.3 2.7-.7.9-1.9 2.7-2.9 5.8-1.1 3.4-1.2 6.6-.7 7.9.3.9.2 1.8-.3 2.5s-1.3 1.1-2.3 1.1l-.1.1z"/></g><g><path class="st171" d="M112.9 35.1c-2.1-.4-3.3-1.6-4-2.5-1.5-2.3-1.7-5.7-.4-10.4 2-7.9 6.3-8.2 8.1-7.9.1 0 .2 0 .3.1 2.1.4 3.7 1.6 4.3 3.3 1.2.7 2.5 2.2 2.2 5.2-.1 1.4-.5 2.7-1 3.9-.5 1.5-1.1 3.1-1 4.8 0 .5.1.9.1 1.2.1.4.1.7.1 1.1 0 .7-.3 1.3-.8 1.6-.5.4-1.2.6-2 .4-.2 0-.3-.1-.5-.1-1-.3-1.9-.9-2.6-1.6-1.1 1-2.2 1-2.8.9z"/><path class="st171" d="M112.7 34.9c-2.1-.4-3.3-1.6-4-2.5-1.5-2.3-1.7-5.7-.4-10.4 2-7.9 6.3-8.2 8.1-7.9.1 0 .2 0 .3.1 2.1.4 3.7 1.6 4.3 3.3 1.2.7 2.5 2.2 2.2 5.2-.1 1.4-.5 2.7-1 3.9-.5 1.5-1.1 3.1-1 4.8 0 .5.1.9.1 1.2.1.4.1.7.1 1.1 0 .7-.3 1.3-.8 1.6-.5.4-1.2.6-2 .4-.2 0-.3-.1-.5-.1-1-.3-1.9-.9-2.6-1.6-1.1 1-2.2 1-2.8.9z"/><path class="st171" d="M112.5 34.7c-2.1-.4-3.3-1.6-4-2.5-1.5-2.3-1.7-5.7-.4-10.4 2-7.9 6.3-8.2 8.1-7.9.1 0 .2 0 .3.1 2.1.4 3.7 1.6 4.3 3.3 1.2.7 2.5 2.2 2.2 5.2-.1 1.4-.5 2.7-1 3.9-.5 1.5-1.1 3.1-1 4.8 0 .5.1.9.1 1.2.1.4.1.7.1 1.1 0 .7-.3 1.3-.8 1.6-.5.4-1.2.6-2 .4-.2 0-.3-.1-.5-.1-1-.3-1.9-.9-2.6-1.6-1 1-2.2 1-2.8.9z"/><path class="st171" d="M112.4 34.5c-2.1-.4-3.3-1.6-4-2.5-1.5-2.3-1.7-5.7-.4-10.4 2-7.9 6.3-8.2 8.1-7.9.1 0 .2 0 .3.1 2.1.4 3.7 1.6 4.3 3.3 1.2.7 2.5 2.2 2.2 5.2-.1 1.4-.5 2.7-1 3.9-.5 1.5-1.1 3.1-1 4.8 0 .5.1.9.1 1.2.1.4.1.7.1 1.1 0 .7-.3 1.3-.8 1.6-.5.4-1.2.6-2 .4-.2 0-.3-.1-.5-.1-1-.3-1.9-.9-2.6-1.6-1.1 1-2.2 1-2.8.9z"/><path class="st171" d="M112.2 34.3c-2.1-.4-3.3-1.6-4-2.5-1.5-2.3-1.7-5.7-.4-10.4 2-7.9 6.3-8.2 8.1-7.9.1 0 .2 0 .3.1 2.1.4 3.7 1.6 4.3 3.3 1.2.7 2.5 2.2 2.2 5.2-.1 1.4-.5 2.7-1 3.9-.5 1.5-1.1 3.1-1 4.8 0 .5.1.9.1 1.2.1.4.1.7.1 1.1 0 .7-.3 1.3-.8 1.6-.5.4-1.2.6-2 .4-.2 0-.3-.1-.5-.1-1-.3-1.9-.9-2.6-1.6-1 1-2.2 1-2.8.9z"/><path class="st171" d="M112.1 34.1c-2.1-.4-3.3-1.6-4-2.5-1.5-2.3-1.7-5.7-.4-10.4 2-7.9 6.3-8.2 8.1-7.9.1 0 .2 0 .3.1 2.1.4 3.7 1.6 4.3 3.3 1.2.7 2.5 2.2 2.2 5.2-.1 1.4-.5 2.7-1 3.9-.5 1.5-1.1 3.1-1 4.8 0 .5.1.9.1 1.2.1.4.1.7.1 1.1 0 .7-.3 1.3-.8 1.6-.5.4-1.2.6-2 .4-.2 0-.3-.1-.5-.1-1-.3-1.9-.9-2.6-1.6-1.1 1-2.3 1-2.8.9z"/><path class="st171" d="M111.9 33.9c-2.1-.4-3.3-1.6-4-2.5-1.5-2.3-1.7-5.7-.4-10.4 2-7.9 6.3-8.2 8.1-7.9.1 0 .2 0 .3.1 2.1.4 3.7 1.6 4.3 3.3 1.2.7 2.5 2.2 2.2 5.2-.1 1.4-.5 2.7-1 3.9-.5 1.5-1.1 3.1-1 4.8 0 .5.1.9.1 1.2.1.4.1.7.1 1.1 0 .7-.3 1.3-.8 1.6-.5.4-1.2.6-2 .4-.2 0-.3-.1-.5-.1-1-.3-1.9-.9-2.6-1.6-1.1 1-2.2 1-2.8.9z"/><path class="st171" d="M111.7 33.7c-2.1-.4-3.3-1.6-4-2.5-1.5-2.3-1.7-5.7-.4-10.4 2-7.9 6.3-8.2 8.1-7.9.1 0 .2 0 .3.1 2.1.4 3.7 1.6 4.3 3.3 1.2.7 2.5 2.2 2.2 5.2-.1 1.4-.5 2.7-1 3.9-.5 1.5-1.1 3.1-1 4.8 0 .5.1.9.1 1.2.1.4.1.7.1 1.1 0 .7-.3 1.3-.8 1.6-.5.4-1.2.6-2 .4-.2 0-.3-.1-.5-.1-1-.3-1.9-.9-2.6-1.6-1 1-2.2 1-2.8.9z"/><path class="st171" d="M111.6 33.5c-2.1-.4-3.3-1.6-4-2.5-1.5-2.3-1.7-5.7-.4-10.4 2-7.9 6.3-8.2 8.1-7.9.1 0 .2 0 .3.1 2.1.4 3.7 1.6 4.3 3.3 1.2.7 2.5 2.2 2.2 5.2-.1 1.4-.5 2.7-1 3.9-.5 1.5-1.1 3.1-1 4.8 0 .5.1.9.1 1.2.1.4.1.7.1 1.1 0 .7-.3 1.3-.8 1.6-.5.4-1.2.6-2 .4-.2 0-.3-.1-.5-.1-1-.3-1.9-.9-2.6-1.6-1.1 1-2.2 1-2.8.9z"/><path class="st171" d="M111.4 33.3c-2.1-.4-3.3-1.6-4-2.5-1.5-2.3-1.7-5.7-.4-10.4 2-7.9 6.3-8.2 8.1-7.9.1 0 .2 0 .3.1 2.1.4 3.7 1.6 4.3 3.3 1.2.7 2.5 2.2 2.2 5.2-.1 1.4-.5 2.7-1 3.9-.5 1.5-1.1 3.1-1 4.8 0 .5.1.9.1 1.2.1.4.1.7.1 1.1 0 .7-.3 1.3-.8 1.6-.5.4-1.2.6-2 .4-.2 0-.3-.1-.5-.1-1-.3-1.9-.9-2.6-1.6-1 1-2.2 1-2.8.9z"/><path class="st171" d="M111.3 33.1c-2.1-.4-3.3-1.6-4-2.5-1.5-2.3-1.7-5.7-.4-10.4 2-7.9 6.3-8.2 8.1-7.9.1 0 .2 0 .3.1 2.1.4 3.7 1.6 4.3 3.3 1.2.7 2.5 2.2 2.2 5.2-.1 1.4-.5 2.7-1 3.9-.5 1.5-1.1 3.1-1 4.8 0 .5.1.9.1 1.2.1.4.1.7.1 1.1 0 .7-.3 1.3-.8 1.6-.5.4-1.2.6-2 .4-.2 0-.3-.1-.5-.1-1-.3-1.9-.9-2.6-1.6-1.1 1-2.3 1-2.8.9z"/><path class="st171" d="M111.1 32.9c-2.1-.4-3.3-1.6-4-2.5-1.5-2.3-1.7-5.7-.4-10.4 2-7.9 6.3-8.2 8.1-7.9.1 0 .2 0 .3.1 2.1.4 3.7 1.6 4.3 3.3 1.2.7 2.5 2.2 2.2 5.2-.1 1.4-.5 2.7-1 3.9-.5 1.5-1.1 3.1-1 4.8 0 .5.1.9.1 1.2.1.4.1.7.1 1.1 0 .7-.3 1.3-.8 1.6-.5.4-1.2.6-2 .4-.2 0-.3-.1-.5-.1-1-.3-1.9-.9-2.6-1.6-1.1 1-2.2 1-2.8.9z"/></g><g><path class="st171" d="M142.4 10c-.3-1.1-1.2-1.9-2.1-2-.5-.1-1.4-.1-2.1.9-.6.7-2.1.9-3.9.8-.8-2.5-2.6-4-4.4-4.3-.8-.1-1.7-.1-2.4.2-.7.3-1.2.9-1.4 1.7-.2.6-.1 1.2 0 1.7-.3 0-.6 0-.9.1-3.1.4-4.9 2.5-4.6 5.2.2 1.7 1.2 2.6 2.2 2.8.6.1 1.2-.1 1.7-.5.3-.3.8-.4 1.4-.4-.4 1.7-1 3.4-1.5 4.9-.9 2.6-1.7 5.1-1.9 7.1-.3 3.1.5 5.1 1.3 6.2 1 1.4 2.4 2.3 4.1 2.6 1 .2 1.9-.3 2.3-1.2.4-.9.3-1.9-.3-2.8-.4-.7-.6-2.7.6-5.8.4-1 .8-2 1.2-2.9 1-2.2 1.9-4.2 2.4-6.9 1.6.2 2.7.3 3.8.2 2.2-.2 3.4-1.5 3.9-2.5 1.1-1.8.8-4.1.6-5.1z"/><path class="st171" d="M142.2 9.8c-.3-1.1-1.2-1.9-2.1-2-.5-.1-1.4-.1-2.1.9-.6.7-2.1.9-3.9.8-.8-2.5-2.6-4-4.4-4.3-.8-.1-1.7-.1-2.4.2-.7.3-1.2.9-1.4 1.7-.2.6-.1 1.2 0 1.7-.3 0-.6 0-.9.1-3.1.4-4.9 2.5-4.6 5.2.2 1.7 1.2 2.6 2.2 2.8.6.1 1.2-.1 1.7-.5.3-.3.8-.4 1.4-.4-.4 1.7-1 3.4-1.5 4.9-.9 2.6-1.7 5.1-1.9 7.1-.3 3.1.5 5.1 1.3 6.2 1 1.4 2.4 2.3 4.1 2.6 1 .2 1.9-.3 2.3-1.2.4-.9.3-1.9-.3-2.8-.4-.7-.6-2.7.6-5.8.4-1 .8-2 1.2-2.9 1-2.2 1.9-4.2 2.4-6.9 1.6.2 2.7.3 3.8.2 2.2-.2 3.4-1.5 3.9-2.5 1.2-1.8.9-4.2.6-5.1z"/><path class="st171" d="M142 9.6c-.3-1.1-1.2-1.9-2.1-2-.5-.1-1.4-.1-2.1.9-.6.7-2.1.9-3.9.8-.8-2.5-2.6-4-4.4-4.3-.8-.1-1.7-.1-2.4.2-.7.3-1.2.9-1.4 1.7-.2.6-.1 1.2 0 1.7-.3 0-.6 0-.9.1-3.1.4-4.9 2.5-4.6 5.2.2 1.7 1.2 2.6 2.2 2.8.6.1 1.2-.1 1.7-.5.3-.3.8-.4 1.4-.4-.4 1.7-1 3.4-1.5 4.9-.9 2.6-1.7 5.1-1.9 7.1-.3 3.1.5 5.1 1.3 6.2 1 1.4 2.4 2.3 4.1 2.6 1 .2 1.9-.3 2.3-1.2.4-.9.3-1.9-.3-2.8-.4-.7-.6-2.7.6-5.8.4-1 .8-2 1.2-2.9 1-2.2 1.9-4.2 2.4-6.9 1.6.2 2.7.3 3.8.2 2.2-.2 3.4-1.5 3.9-2.5 1.2-1.9.9-4.2.6-5.1z"/><path class="st171" d="M141.9 9.3c-.3-1.1-1.2-1.9-2.1-2-.5-.1-1.4-.1-2.1.9-.6.7-2.1.9-3.9.8-.8-2.5-2.6-4-4.4-4.3-.8-.1-1.7-.1-2.4.2-.7.3-1.2.9-1.4 1.7-.2.6-.1 1.2 0 1.7-.3 0-.6 0-.9.1-3.1.4-4.9 2.5-4.6 5.2.2 1.7 1.2 2.6 2.2 2.8.6.1 1.2-.1 1.7-.5.3-.3.8-.4 1.4-.4-.4 1.7-1 3.4-1.5 4.9-.9 2.6-1.7 5.1-1.9 7.1-.3 3.1.5 5.1 1.3 6.2 1 1.4 2.4 2.3 4.1 2.6 1 .2 1.9-.3 2.3-1.2.4-.9.3-1.9-.3-2.8-.4-.7-.6-2.7.6-5.8.4-1 .8-2 1.2-2.9 1-2.2 1.9-4.2 2.4-6.9 1.6.2 2.7.3 3.8.2 2.2-.2 3.4-1.5 3.9-2.5 1.1-1.8.9-4.1.6-5.1z"/><path class="st171" d="M141.7 9.1c-.3-1.1-1.2-1.9-2.1-2-.5-.1-1.4-.1-2.1.9-.6.7-2.1.9-3.9.8-.8-2.5-2.6-4-4.4-4.3-.8-.1-1.7-.1-2.4.2-.7.3-1.2.9-1.4 1.7-.2.6-.1 1.2 0 1.7-.3 0-.6 0-.9.1-3.1.4-4.9 2.5-4.6 5.2.2 1.7 1.2 2.6 2.2 2.8.6.1 1.2-.1 1.7-.5.3-.3.8-.4 1.4-.4-.4 1.7-1 3.4-1.5 4.9-.9 2.6-1.7 5.1-1.9 7.1-.3 3.1.5 5.1 1.3 6.2 1 1.4 2.4 2.3 4.1 2.6 1 .2 1.9-.3 2.3-1.2.4-.9.3-1.9-.3-2.8-.4-.7-.6-2.7.6-5.8.4-1 .8-2 1.2-2.9 1-2.2 1.9-4.2 2.4-6.9 1.6.2 2.7.3 3.8.2 2.2-.2 3.4-1.5 3.9-2.5 1.2-1.8.9-4.1.6-5.1z"/><path class="st171" d="M141.5 8.9c-.3-1.1-1.2-1.9-2.1-2-.5-.1-1.4-.1-2.1.9-.6.7-2.1.9-3.9.8-.8-2.5-2.6-4-4.4-4.3-.8-.1-1.7-.1-2.4.2-.7.3-1.2.9-1.4 1.7-.2.6-.1 1.2 0 1.7-.3 0-.6 0-.9.1-3.1.4-4.9 2.5-4.6 5.2.2 1.7 1.2 2.6 2.2 2.8.6.1 1.2-.1 1.7-.5.3-.3.8-.4 1.4-.4-.4 1.7-1 3.4-1.5 4.9-.9 2.6-1.7 5.1-1.9 7.1-.3 3.1.5 5.1 1.3 6.2 1 1.4 2.4 2.3 4.1 2.6 1 .2 1.9-.3 2.3-1.2.4-.9.3-1.9-.3-2.8-.4-.7-.6-2.7.6-5.8.4-1 .8-2 1.2-2.9 1-2.2 1.9-4.2 2.4-6.9 1.6.2 2.7.3 3.8.2 2.2-.2 3.4-1.5 3.9-2.5 1.2-1.8.9-4.1.6-5.1z"/><path class="st171" d="M141.4 8.7c-.3-1.1-1.2-1.9-2.1-2-.5-.1-1.4-.1-2.1.9-.6.7-2.1.9-3.9.8-.8-2.5-2.6-4-4.4-4.3-.8-.1-1.7-.1-2.4.2-.7.3-1.2.9-1.4 1.7-.2.6-.1 1.2 0 1.7-.3 0-.6 0-.9.1-3.1.4-4.9 2.5-4.6 5.2.2 1.7 1.2 2.6 2.2 2.8.6.1 1.2-.1 1.7-.5.3-.3.8-.4 1.4-.4-.4 1.7-1 3.4-1.5 4.9-.9 2.6-1.7 5.1-1.9 7.1-.3 3.1.5 5.1 1.3 6.2 1 1.4 2.4 2.3 4.1 2.6 1 .2 1.9-.3 2.3-1.2.4-.9.3-1.9-.3-2.8-.4-.7-.6-2.7.6-5.8.4-1 .8-2 1.2-2.9 1-2.2 1.9-4.2 2.4-6.9 1.6.2 2.7.3 3.8.2 2.2-.2 3.4-1.5 3.9-2.5 1.2-1.9.9-4.2.6-5.1z"/><path class="st171" d="M141.2 8.5c-.3-1.1-1.2-1.9-2.1-2-.5-.1-1.4-.1-2.1.9-.6.7-2.1.9-3.9.8-.8-2.5-2.6-4-4.4-4.3-.8-.1-1.7-.1-2.4.2-.7.3-1.2.9-1.4 1.7-.2.6-.1 1.2 0 1.7-.3 0-.6 0-.9.1-3.1.4-4.9 2.5-4.6 5.2.2 1.7 1.2 2.6 2.2 2.8.6.1 1.2-.1 1.7-.5.3-.3.8-.4 1.4-.4-.4 1.7-1 3.4-1.5 4.9-.9 2.6-1.7 5.1-1.9 7.1-.3 3.1.5 5.1 1.3 6.2 1 1.4 2.4 2.3 4.1 2.6 1 .2 1.9-.3 2.3-1.2.4-.9.3-1.9-.3-2.8-.4-.7-.6-2.7.6-5.8.4-1 .8-2 1.2-2.9 1-2.2 1.9-4.2 2.4-6.9 1.6.2 2.7.3 3.8.2 2.2-.2 3.4-1.5 3.9-2.5 1.2-1.9.9-4.2.6-5.1z"/><path class="st171" d="M141.1 8.2c-.3-1.1-1.2-1.9-2.1-2-.5-.1-1.4-.1-2.1.9-.6.7-2.1.9-3.9.8-.8-2.5-2.6-4-4.4-4.3-.8-.1-1.7-.1-2.4.2-.7.3-1.2.9-1.4 1.7-.2.6-.1 1.2 0 1.7-.3 0-.6 0-.9.1-3.1.4-4.9 2.5-4.6 5.2.2 1.7 1.2 2.6 2.2 2.8.6.1 1.2-.1 1.7-.5.3-.3.8-.4 1.4-.4-.4 1.7-1 3.4-1.5 4.9-.9 2.6-1.7 5.1-1.9 7.1-.3 3.1.5 5.1 1.3 6.2 1 1.4 2.4 2.3 4.1 2.6 1 .2 1.9-.3 2.3-1.2.4-.9.3-1.9-.3-2.8-.4-.7-.6-2.7.6-5.8.4-1 .8-2 1.2-2.9 1-2.2 1.9-4.2 2.4-6.9 1.6.2 2.7.3 3.8.2 2.2-.2 3.4-1.5 3.9-2.5 1.1-1.8.9-4.1.6-5.1z"/><path class="st171" d="M140.9 8c-.3-1.1-1.2-1.9-2.1-2-.5-.1-1.4-.1-2.1.9-.6.7-2.1.9-3.9.8-.8-2.5-2.6-4-4.4-4.3-.8-.1-1.7-.1-2.4.2-.7.3-1.2.9-1.4 1.7-.2.6-.1 1.2 0 1.7-.3 0-.6 0-.9.1-3.1.4-4.9 2.5-4.6 5.2.2 1.7 1.2 2.6 2.2 2.8.6.1 1.2-.1 1.7-.5.3-.3.8-.4 1.4-.4-.4 1.7-1 3.4-1.5 4.9-.9 2.6-1.7 5.1-1.9 7.1-.3 3.1.5 5.1 1.3 6.2 1 1.4 2.4 2.3 4.1 2.6 1 .2 1.9-.3 2.3-1.2.4-.9.3-1.9-.3-2.8-.4-.7-.6-2.7.6-5.8.4-1 .8-2 1.2-2.9 1-2.2 1.9-4.2 2.4-6.9 1.6.2 2.7.3 3.8.2 2.2-.2 3.4-1.5 3.9-2.5 1.2-1.8.9-4.1.6-5.1z"/><path class="st171" d="M140.7 7.8c-.3-1.1-1.2-1.9-2.1-2-.5-.1-1.4-.1-2.1.9-.6.7-2.1.9-3.9.8-.8-2.5-2.6-4-4.4-4.3-.8-.1-1.7-.1-2.4.2-.7.3-1.2.9-1.4 1.7-.2.6-.1 1.2 0 1.7-.3 0-.6 0-.9.1-3.1.4-4.9 2.5-4.6 5.2.2 1.7 1.2 2.6 2.2 2.8.6.1 1.2-.1 1.7-.5.3-.3.8-.4 1.4-.4-.4 1.7-1 3.4-1.5 4.9-.9 2.6-1.7 5.1-1.9 7.1-.3 3.1.5 5.1 1.3 6.2 1 1.4 2.4 2.3 4.1 2.6 1 .2 1.9-.3 2.3-1.2.4-.9.3-1.9-.3-2.8-.4-.7-.6-2.7.6-5.8.4-1 .8-2 1.2-2.9 1-2.2 1.9-4.2 2.4-6.9 1.6.2 2.7.3 3.8.2 2.2-.2 3.4-1.5 3.9-2.5 1.2-1.8.9-4.2.6-5.1z"/><path class="st171" d="M140.6 7.6c-.3-1.1-1.2-1.9-2.1-2-.5-.1-1.4-.1-2.1.9-.6.7-2.1.9-3.9.8-.8-2.5-2.6-4-4.4-4.3-.8-.1-1.7-.1-2.4.2-.7.3-1.2.9-1.4 1.7-.2.6-.1 1.2 0 1.7-.3 0-.6 0-.9.1-3.1.4-4.9 2.5-4.6 5.2.2 1.7 1.2 2.6 2.2 2.8.6.1 1.2-.1 1.7-.5.3-.3.8-.4 1.4-.4-.4 1.7-1 3.4-1.5 4.9-.9 2.6-1.7 5.1-1.9 7.1-.3 3.1.5 5.1 1.3 6.2 1 1.4 2.4 2.3 4.1 2.6 1 .2 1.9-.3 2.3-1.2.4-.9.3-1.9-.3-2.8-.4-.7-.6-2.7.6-5.8.4-1 .8-2 1.2-2.9 1-2.2 1.9-4.2 2.4-6.9 1.6.2 2.7.3 3.8.2 2.2-.2 3.4-1.5 3.9-2.5 1.2-1.9.9-4.2.6-5.1z"/></g><path class="st0" d="M84.2 16.6c2.2-1.3 5-5.6 4.1-8-3.6 1.2-6.1 5.9-7.7 9.4-1.6 3.6-3.5 13.7 1.1 14.3 2 .2 3.1-4 2.4-7.2-.3-1.5 4-.1 3.7 2.9-.4 4-4.2 6.6-7.9 6.1-3.9-.5-8.4-4.7-3.8-17.1 3.6-9.9 9.5-11.4 12.6-10.3 3.7 1.3 4.4 5.6 2.5 8.4-1.8 2.8-5 3.7-7.2 2.3-.6-.3-.1-.6.2-.8zM101 32.4c.7 0 .8-.4.6-.9-.7-1.8-.5-5.5.7-9.1 1.2-3.6 2.7-5.8 3.2-6.4.5-.6 0-1.6-2.1-1.9-2.8-.4-6.7 3.1-7.9 8.7.9-5 5.7-13.6 4.7-16.6-1-3-4.4-2.5-4.9-2.2-.5.3-.4.7-.3.8 1.9 4.1-3.4 16.9-3.5 22-.2 5.1 2 5.7 3.8 5.7.4 0 .7-.1.6-.7-.8-3.7 1.3-12.2 5.4-15.9-3 4.1-6.4 16.5-.3 16.5zM117.8 17c-.1-1.4-.9-2.7-3.1-3-2.2-.3-4.8 1.3-6.1 6.7-1.4 5.3-1.1 9.6 2.6 10.2.8.1 2-.5 3-2.8-.1 1.5 1.3 3.2 2.8 3.7.5.2.9.1 1-.4 0-.4-.2-1.1-.2-2.2-.1-3.7 1.8-6.3 2-9 .2-2.7-.9-3.6-3-3.5-.4 0-.4.2-.4.4.2 1.6-.7 4.5-1.4 6.3-.8 1.7-1.9 4.7-3 5.5-.8-1.9-.4-5.2.8-8.5 1.2-3.4 2.2-4.5 3-4.3.4.1.9 1.6 1 1.9-.1.4 1.1-.2 1-1zM138.7 8.1c-.1-.3-.4-.7-.8-.1-1.3 1.7-4.1 1.6-7.1 1.3-.1-3.6-2.7-4.7-4.3-4-.3.1-.5.6-.3 1 .4.7.5 1.6.6 2.6-1.1-.1-2.1-.1-3 0-1.5.2-3.2 1-3 3 .1.5.3.8.5.6 1.1-1.1 3.1-1.1 5.3-.7-.8 4.9-3.5 11-3.9 14.5-.4 3.5 1.1 5.7 3.5 6.2.5.1.5-.3.4-.5-1-1.5-1.2-4.4.3-8.1 1.5-3.9 3.3-6.7 3.8-11.3 1.8.4 3.6.6 5.1.5 3.4-.4 3.2-4 2.9-5z"/></g></g></svg>