<svg xmlns="http://www.w3.org/2000/svg" viewBox="0 0 91.5 91.4"><style>.st162{fill:#4c3020}</style><g id="Layer_1"><path d="M2.4 83.3s.9 4.5 2.8 7.4c0 0 46.7 2.4 83.4-2 0 0-1-4.3-1.5-16.2L2.4 83.3z" opacity=".15"/><path d="M90 87.3c-29.7 2-67.2 1.8-82.8-.1-2.6-.3-4.6-2.3-5-4.9C-.6 62.2-.5 27.1 1.1 0h86.4c-2 53.5-.6 78.9 2.5 87.3z" fill="#ffde55"/><path class="st162" d="M16.6 24.9c1.1-.1 1.8.4 2.3 1.4-.4 6.5-.5 11.7-.4 15.6 0 .6 1.2 1.2 3.6 1.9l.3.6.1 1.6c0 .3-.4.8-1.2 1.4l-2.3.2c-3.4.3-5.1-1.6-5.3-5.9-.4-11 .3-16.6 2.2-16.7l.7-.1zM31.6 27c3.2.4 4.8 1.8 4.9 4.3.2 4.7-2.7 7.7-8.5 9.1v.6c.1.4.3.6.6.6.7-.1 3-1.1 6.9-3.2 1.5-.1 2.2.5 2.3 2 .1 2.3-3 4.3-9.3 6h-.3c-3.4-.4-5.2-2.5-5.3-6.5-.2-5 1.8-9 5.9-12 1.6-.5 2.5-.8 2.8-.9zm-3.7 7.7v.4c0 .2.2.4.6.5l.8-.1c.9-.1 1.6-.7 2.3-1.8v-1.2c-.1-.4-.6-.5-1.6-.4l-.8.1c-.9 1-1.3 1.8-1.3 2.5zM46 21.2c1.3.4 1.9 1.1 2 2-.1 2.1-.2 3.7-.1 4.8 2.9-.3 4.4.5 4.5 2.4.1 1.5-1.1 2.3-3.4 2.6l-1.3.1c.1 2.7.6 4.1 1.4 4 2.1-.2 3.2.4 3.2 1.9.1 1.9-1.3 3-4 3.2-3.3-.2-5.1-2.9-5.3-8v-.3l-2.2.2c-1.1.1-2-.3-2.6-1.4l-.1-1.6c0-.9 1.5-1.7 4.7-2.3.1-4.9 1-7.4 2.9-7.6h.3zM55.8 18.2c1.6-.1 2.6 1.5 3 4.8-.5 3.9-1.7 5.9-3.6 6.1-1.1-.2-1.9-.9-2.3-2 .8-2.3 1.1-3.6 1.1-3.9-.5-1.3-.7-2.3-.7-2.8v-.3c.5-1.2 1.4-1.8 2.5-1.9zM67.1 21.8c2.8.4 4.2 1.7 4.3 3.7-.2 1.7-1.2 2.7-2.7 2.8-.2 0-1-.4-2.3-1.4-.3 0-.6.4-.9 1v.3c3.7 1.9 5.5 4.1 5.6 6.8-.6 3.9-3.1 6-7.4 6.4-2.3-.2-3.5-1.1-3.6-2.8.4-1.3 1.2-2 2.5-2.1 1.1.1 1.7.2 1.9.1 1-.4 1.6-.7 1.5-1.1v-1c0-.3-1.6-1.3-4.9-3.1l-.7-2.2v-.6c.6-4.1 2.9-6.4 6.7-6.8zM20.9 49.7c.9.2 1.5.7 2 1.4l.1 1.6c0 .4-2.4 2.1-7.1 5.1-1 2-1.5 3.5-1.4 4.6v1.3c.1 2.4 1.2 3.7 3.3 3.8.4 0 1.7-.8 3.7-2.3l1.3-.1c.4 0 .9.6 1.7 1.8-1.2 3.3-3.1 5.1-5.8 5.3l-1.3.1c-3.9.4-6.5-2.4-7.6-8.2v-1c-.2-5.9 3.1-10.2 10-13 .2-.2.6-.3 1.1-.4zM27.2 49.1c.9-.1 1.7.6 2.3 2-.1 2.2-.2 4-.1 5.4.2.4.4.7.4.9h.3c1.5-1.4 2.8-2.2 3.7-2.3l.6-.1c3.2-.3 5.2 2 6 6.8l.1 3.5c.1 1.6-.4 2.7-1.5 3.3l-1.6.1c-1.1-.4-1.6-1.2-1.7-2.4l-.1-3.8c0-1.1-.4-2-1.1-2.8-1.6.6-3.4 3.4-5.4 8.5l-.6.4-.9.1c-1.5.1-2.2-.4-2.3-1.7-.1-1.7-.3-5.5-.7-11.4-.1-4.1.7-6.3 2.6-6.5zM48.9 51.3c3.4 0 5.1 1 5.2 3l2 10v1c0 .3-.5.9-1.5 1.7h-.3c-1.1.1-2.1-.7-3.2-2.2-1.1 1-2 1.5-2.8 1.5l-.9.1c-3 .3-5.1-2-6.3-6.7-.3-3.6 2.4-6.4 7.8-8.4zm-3.2 7.9c.3 1.4.8 2.1 1.4 2.1l.6-.1c.6-2 .8-3.3.8-3.9v-.6c-1.3.1-2.2 1-2.8 2.5zM64.2 44.4c1.3.4 1.9 1.1 2 2-.1 2.1-.2 3.7-.1 4.8 2.9-.3 4.4.5 4.5 2.4.1 1.5-1.1 2.3-3.4 2.5l-1.3.1c.1 2.7.6 4.1 1.4 4 2.1-.2 3.2.4 3.2 1.9.1 1.9-1.3 3-4 3.2-3.4-.4-5.2-3.1-5.4-8.1v-.3l-2.1.4c-1.1.1-2-.3-2.6-1.4l-.1-1.6c0-.9 1.5-1.7 4.7-2.3.1-4.9 1-7.4 2.9-7.6h.3zM75 43.4c1.3.3 1.9 1.1 2 2.4-.6 1.4-.9 5.6-.8 12.5-.6 1.1-1.5 1.7-2.5 1.8-.9.1-1.7-.6-2.3-2l.2-2.2-.1-3.5c-.2-5.8 1-8.7 3.5-9zm-.9 19.5c1.5.4 2.3 1.2 2.3 2.3-.3 1.3-1 2-2.1 2.1-1.3.1-2.1-.4-2.6-1.7.1-1.6 1-2.5 2.4-2.7z"/><path d="M7.2 87.2s2.8.3 4.6-3.5c1.4-2.9.5-7.7.5-7.7s32.1 4.8 79.2 8.1c0 0 .3 2.4-1.5 3.1 0 .1-40.8 4.9-82.8 0z" fill="#e0be2d"/><path fill="#f4d451" d="M1.1 0L.7 8.9l86.5 1 .3-9.9z"/></g></svg>