<svg xmlns="http://www.w3.org/2000/svg" viewBox="0 0 211.2 30.2"><style>.st170{fill:#00cbbe}.st172{fill:#ffb800}.st176{fill:#35516d}</style><g id="Layer_1"><path class="st172" d="M12.8 13.1S-.3 10.9 0 13.2c0 0 .3 2.8 1 3.4.7.7 15.4-2.7 11.8-3.5z"/><path class="st170" d="M17.6 7.1s-6.9-7.5-7.8-6c0 0-1.2 1.8-1 2.5s10.6 5.7 8.8 3.5zM17 18.7S4.4 22.6 5.6 24.2c0 0 1.5 2 2.4 2.2s12.5-8.7 9-7.7z"/><g><path class="st172" d="M198.6 17.6s12 5.6 12.4 3.4c0 0 .5-2.8 0-3.6-.5-.8-15.7-1.6-12.4.2z"/><path class="st170" d="M192.4 22.2s4.6 9.1 5.9 7.9c0 0 1.6-1.5 1.7-2.2.1-.7-8.7-8.3-7.6-5.7zM196.1 11.2s13.2-.4 12.5-2.2c0 0-.9-2.3-1.7-2.7-.8-.5-14.5 4.8-10.8 4.9z"/></g><g><path class="st170" d="M40.5 28.2c-.2.2-.5.4-.9.4-.9 0-3.9-2.4-3.9-3.5 0-2.4.4-5.9.9-8.4.1-.5-.2-.7-.4-.1-1.9 3.4-2.5 4.5-3.8 7-1.3 2.5-2.7 4.5-3.7 4.5-1.1 0-4.1-2.4-4.1-3.4 0-2.6 2-16.3 3.1-21.2.1-.6 1.4-1 2.3-1 1.2 0 4.2 1.5 3.7 2.8-1.4 3.5-2.7 9.3-2.9 11.7-.1.7.2.8.9-.3.8-1.3 4.6-9 5.1-10.9.1-.3.5-2.5 1.3-2.5.9 0 4.1 1.9 4.1 3 0 1.3-.5 3-.7 4.3-.6 3.3-.8 5.6-.8 5.6-.2 1.2.3 1.3.9.1 2.2-4.7 3.2-7.3 4.5-12.4.2-.6.7-.9 1.8-.9 1.2 0 4 2.1 4 3.3 0 2-9.9 20.4-11.4 21.9zM57.7 21.6c-2.2 0-2.3-1.1-2.8-1.1-.4 0-.5 1-.5 1.2 0 1.1.4 2.2 1.6 2.2 1.2 0 2.3-.8 3.4-.8.9 0 1.5.8 1.5 1.7 0 .5-.4 1.7-1.1 2.3-.7.6-3.8 1.5-5.5 1.5-3.5 0-5.9-3.5-5.9-6.8 0-6 6.5-12.3 10.9-12.3 2.3 0 5 2.4 5 5-.2 3.8-3.3 7.1-6.6 7.1zm1.4-7.8c-.7 0-3.4 2.3-3.4 4 0 .3.3.5.6.5 1.7 0 3.2-2 3.2-3.7 0-.5-.1-.8-.4-.8zM83.9 25.1c-.2.5-.6 2-1 2.8-.3.7-1.1 1-1.8 1-1.1 0-4.2-1.9-4.2-2.9 0-.8 1.5-3.6 1.5-4.2 0-.5-.3-.6-.7-.6-.8 0-1.5.1-2.2.4-1.5.7-1.7 6.4-3.5 6.4-1.2 0-2.2-.5-3.4-2-.3-.3-.9-1.1-.9-1.8 0-1 1.5-3.7 1.5-4.1s-.3-1.1-.3-2c.2-.8 1-1.2 1.7-1.3.7-.5 3.9-6.2 5-7.8 1.3-2 2.8-4.2 4.3-5.8.9-1 1.3-1.2 2-1.2.9 0 4.2 2.3 4.2 3 0 .5-.3.8-.6 1.2-.2.3-.2.4 0 .7.7.7 1.6.8 1.6 2 0 5.3-1.9 11.7-3.2 16.2zm-2.6-14.8c-.8 0-3.4 4.4-3.9 5.7-.1.2-.1.3.1.3s.5.1 1 .1c.4 0 .8 0 1.3-.2 1.2-.3 1.8-4.4 1.8-5.6 0-.3-.2-.3-.3-.3zM98.8 16.8c-.7 0-1.7-.8-2.2-.8-.5 0-1 .2-1.2.6-2.2 2.9-4 12-5.3 12-1.2 0-1.5-1.1-2.1-1.1-1.2 0-2.5-.8-2.5-2.5 0-2.3 3.8-8.5 4.7-12.5.2-.9.7-2.7 1-3.1.3-.3.7-.4 1.3-.4 1.3 0 2.3 1.2 3.2 2 .2.2.3.3.7 0 .6-.4 1.7-1.2 2.3-1.2 1.2 0 2 1.9 2 2.9-.1 1.7-1.2 4.1-1.9 4.1zM107.9 21.6c-2.2 0-2.3-1.1-2.8-1.1-.4 0-.5 1-.5 1.2 0 1.1.4 2.2 1.6 2.2 1.2 0 2.3-.8 3.4-.8.9 0 1.5.8 1.5 1.7 0 .5-.4 1.7-1.1 2.3-.7.6-3.8 1.5-5.5 1.5-3.5 0-5.9-3.5-5.9-6.8 0-6 6.5-12.3 10.9-12.3 2.3 0 5 2.4 5 5-.2 3.8-3.3 7.1-6.6 7.1zm1.3-7.8c-.7 0-3.4 2.3-3.4 4 0 .3.3.5.6.5 1.7 0 3.2-2 3.2-3.7 0-.5-.1-.8-.4-.8z"/><path class="st176" d="M38.4 26c-.2.2-.5.4-.9.4-.9 0-3.9-2.4-3.9-3.5 0-2.4.4-5.9.9-8.4.1-.5-.2-.7-.4-.1-1.9 3.4-2.5 4.5-3.8 7-1.3 2.5-2.7 4.5-3.7 4.5-1.1 0-4.1-2.4-4.1-3.4 0-2.6 2-16.3 3.1-21.2.1-.6 1.4-1 2.3-1 1.2 0 4.2 1.5 3.7 2.8-1.3 3.6-2.7 9.3-2.8 11.7-.1.7.2.8.9-.3.8-1.3 4.6-9 5.1-10.9 0-.3.4-2.6 1.2-2.6.9 0 4.1 1.9 4.1 3 0 1.3-.5 3-.7 4.3-.6 3.3-.8 5.6-.8 5.6-.2 1.2.3 1.3.9.1 2.2-4.7 3.2-7.3 4.5-12.4.2-.6.7-.9 1.8-.9 1.2 0 4 2.1 4 3.3 0 2.2-9.9 20.5-11.4 22zM55.6 19.4c-2.2 0-2.3-1.1-2.8-1.1-.4 0-.5 1-.5 1.2 0 1.1.4 2.2 1.6 2.2 1.2 0 2.3-.8 3.4-.8.9 0 1.5.8 1.5 1.7 0 .5-.4 1.7-1.1 2.3-.7.6-3.8 1.5-5.5 1.5-3.5 0-5.9-3.5-5.9-6.8 0-6 6.5-12.3 10.9-12.3 2.3 0 5 2.4 5 5-.2 3.8-3.3 7.1-6.6 7.1zm1.3-7.8c-.7 0-3.4 2.3-3.4 4 0 .3.3.5.6.5 1.7 0 3.2-2 3.2-3.7 0-.4-.1-.8-.4-.8zM81.7 23c-.2.5-.6 2-1 2.8-.3.7-1.1 1-1.8 1-1.1 0-4.2-1.9-4.2-2.9 0-.8 1.5-3.6 1.5-4.2 0-.5-.3-.6-.7-.6-.8 0-1.5.1-2.2.4-1.5.7-1.7 6.4-3.5 6.4-1.2 0-2.2-.5-3.4-2-.3-.3-.9-1.1-.9-1.8 0-1 1.5-3.7 1.5-4.1s-.3-1.1-.3-2c.2-.8 1-1.2 1.7-1.3.7-.5 3.9-6.2 5-7.8 1.3-2 2.8-4.2 4.3-5.8.9-1 1.3-1.2 2-1.2.9 0 4.2 2.3 4.2 3 0 .5-.3.8-.6 1.2-.2.3-.2.4 0 .7.7.7 1.6.8 1.6 2 0 5.2-1.8 11.6-3.2 16.2zM79.2 8.1c-.8 0-3.4 4.4-3.9 5.7-.1.2-.1.3.1.3s.5.1 1 .1c.4 0 .8 0 1.3-.2 1.2-.3 1.8-4.4 1.8-5.6-.1-.3-.3-.3-.3-.3zM96.6 14.6c-.7 0-1.7-.8-2.2-.8-.5 0-1 .2-1.2.6-2.2 2.9-4 12-5.3 12-1.2 0-1.5-1.1-2.1-1.1-1.2 0-2.5-.8-2.5-2.5 0-2.3 3.8-8.5 4.7-12.5.2-.9.7-2.7 1-3.1.3-.4.8-.5 1.3-.5 1.3 0 2.3 1.2 3.2 2 .2.2.3.3.7 0 .6-.4 1.7-1.2 2.3-1.2 1.2 0 2 1.9 2 2.9-.1 1.8-1.2 4.2-1.9 4.2zM105.7 19.4c-2.2 0-2.3-1.1-2.8-1.1-.4 0-.5 1-.5 1.2 0 1.1.4 2.2 1.6 2.2 1.2 0 2.3-.8 3.4-.8.9 0 1.5.8 1.5 1.7 0 .5-.4 1.7-1.1 2.3-.7.6-3.8 1.5-5.5 1.5-3.5 0-5.9-3.5-5.9-6.8 0-6 6.5-12.3 10.9-12.3 2.3 0 5 2.4 5 5-.2 3.8-3.2 7.1-6.6 7.1zm1.4-7.8c-.7 0-3.4 2.3-3.4 4 0 .3.3.5.6.5 1.7 0 3.2-2 3.2-3.7 0-.4-.1-.8-.4-.8z"/><g><path class="st170" d="M135.5 17.4c-1.2 3.2-2 6.1-2.6 9.4-.2.9-.8 1.5-1.8 1.5s-1.3-1-2.4-1.2c-.9-.1-2-.7-2-1.9 0-1 1.8-5.7 2.3-7.1.1-.2.1-.4-.5-.3-.7.2-1.5.2-2.2.4-.1 0-.2.1-.3.2-1.5 4-2.2 8.5-2.8 9-.3.3-.8.4-1.1.4-.4 0-.8-.1-1.3-.3-1.2-.5-1.7-.9-2.6-2.7-.1-.3-.3-.8-.3-1.2 0-1.4 2.6-6.7 2.6-7.3 0-.6-.4-1.3-.4-1.9 0-1.4 1.4-.5 2.2-2.4.6-1.7 3.3-8.5 4.5-9.3.3-.2.5-.3.9-.3 1.2 0 3.8 2.3 3.8 3.4 0 1.8-2 4.7-2.9 6.2-.2.3-.2.4 0 .4.6 0 1.6 0 2.2-.1.4 0 .6-.2.7-.5.6-1.9 2.8-6.4 4.1-8.6.2-.3.4-.4.7-.4 1.6 0 3.4 3.2 3.4 4.4-.1 1.9-2.9 6.9-4.2 10.2zM146.1 21.3c-2.1 0-2.2-1.1-2.8-1.1-.4 0-.5.9-.5 1.2 0 1 .4 2.2 1.6 2.2 1.1 0 2.2-.8 3.3-.8.9 0 1.4.8 1.4 1.6 0 .5-.4 1.6-1 2.3-.7.6-3.7 1.5-5.4 1.5-3.4 0-5.8-3.4-5.8-6.6 0-5.9 6.3-12 10.6-12 2.3 0 4.8 2.3 4.8 4.9.1 3.7-2.9 6.8-6.2 6.8zm1.4-7.5c-.7 0-3.3 2.3-3.3 3.9 0 .3.3.4.6.4 1.6 0 3.1-1.9 3.1-3.6 0-.4-.1-.7-.4-.7zM163.5 16.7c-.7 0-1.6-.8-2.1-.8s-.9.2-1.2.6c-2.1 2.8-3.9 11.7-5.2 11.7-1.2 0-1.5-1-2-1-1.2 0-2.4-.8-2.4-2.4 0-2.2 3.7-8.2 4.6-12.1.2-.9.6-2.6 1-3 .3-.4.7-.5 1.3-.5 1.2 0 2.3 1.2 3.1 2 .2.2.3.3.7 0 .6-.4 1.6-1.2 2.2-1.2 1.2 0 1.9 1.9 1.9 2.8-.1 1.5-1.2 3.9-1.9 3.9zM172.4 21.3c-2.1 0-2.2-1.1-2.8-1.1-.4 0-.5.9-.5 1.2 0 1 .4 2.2 1.6 2.2 1.1 0 2.2-.8 3.3-.8.9 0 1.4.8 1.4 1.6 0 .5-.4 1.6-1 2.3-.7.6-3.7 1.5-5.4 1.5-3.4 0-5.8-3.4-5.8-6.6 0-5.9 6.3-12 10.6-12 2.3 0 4.8 2.3 4.8 4.9.1 3.7-2.9 6.8-6.2 6.8zm1.3-7.5c-.7 0-3.3 2.3-3.3 3.9 0 .3.3.4.6.4 1.6 0 3.1-1.9 3.1-3.6 0-.4-.1-.7-.4-.7zM183 27.6c-.1.4-.5.5-.9.5-.8 0-3.6-1.5-3.6-2.6 0-1.2.7-5.2 2.2-5.2 1 0 3.8 1.8 3.9 3-.1.5-1.5 3.2-1.6 4.3zm3.1-9c-.2 1.2-.7 1.4-1.5 1.4h-.1c-.9-.6-3-2.2-3-3.3.8-3.3 3-9.9 4.7-13.3.3-.7.5-1 1.1-1.1 1.3 0 4.4 2.4 4.4 3.5.1.7-4.4 7.1-5.6 12.8z"/><g><path class="st176" d="M133.5 15.3c-1.2 3.2-2 6.1-2.6 9.4-.2.9-.8 1.5-1.8 1.5s-1.3-1-2.4-1.2c-.9-.1-2-.7-2-1.9 0-1 1.8-5.7 2.3-7.1.1-.2.1-.4-.5-.3-.7.2-1.5.2-2.2.4-.1 0-.2.1-.3.2-1.5 4-2.2 8.5-2.8 9-.3.3-.8.4-1.1.4-.4 0-.8-.1-1.3-.3-1.2-.5-1.7-.9-2.6-2.7-.1-.3-.3-.8-.3-1.2 0-1.4 2.6-6.7 2.6-7.3 0-.6-.4-1.3-.4-1.9 0-1.4 1.4-.5 2.2-2.4.6-1.7 3.3-8.5 4.5-9.3.3-.2.5-.3.9-.3 1.2 0 3.8 2.3 3.8 3.4 0 1.8-2 4.7-2.9 6.2-.2.3-.2.4 0 .4.6 0 1.6 0 2.2-.1.4 0 .6-.2.7-.5.6-1.9 2.8-6.4 4.1-8.6.2-.3.4-.4.7-.4 1.6 0 3.4 3.2 3.4 4.4-.2 1.9-3 6.9-4.2 10.2zM144 19.2c-2.1 0-2.2-1.1-2.8-1.1-.4 0-.5.9-.5 1.2 0 1 .4 2.2 1.6 2.2 1.1 0 2.2-.8 3.3-.8.9 0 1.4.8 1.4 1.6 0 .5-.4 1.6-1 2.3-.7.6-3.7 1.5-5.4 1.5-3.4 0-5.8-3.4-5.8-6.6 0-5.9 6.3-12 10.6-12 2.3 0 4.8 2.3 4.8 4.9.1 3.7-2.9 6.8-6.2 6.8zm1.4-7.5c-.7 0-3.3 2.3-3.3 3.9 0 .3.3.4.6.4 1.6 0 3.1-1.9 3.1-3.6 0-.4-.1-.7-.4-.7zM161.4 14.6c-.7 0-1.6-.8-2.1-.8s-.9.2-1.2.6c-2.1 2.8-3.9 11.7-5.2 11.7-1.2 0-1.5-1-2-1-1.2 0-2.4-.8-2.4-2.4 0-2.2 3.7-8.2 4.6-12.1.2-.9.6-2.6 1-3 .3-.4.7-.5 1.3-.5 1.2 0 2.3 1.2 3.1 2 .2.2.3.3.7 0 .6-.4 1.6-1.2 2.2-1.2 1.2 0 1.9 1.9 1.9 2.8-.1 1.5-1.2 3.9-1.9 3.9zM170.3 19.2c-2.1 0-2.2-1.1-2.8-1.1-.4 0-.5.9-.5 1.2 0 1 .4 2.2 1.6 2.2 1.1 0 2.2-.8 3.3-.8.9 0 1.4.8 1.4 1.6 0 .5-.4 1.6-1 2.3-.7.6-3.7 1.5-5.4 1.5-3.4 0-5.8-3.4-5.8-6.6 0-5.9 6.3-12 10.6-12 2.3 0 4.8 2.3 4.8 4.9.1 3.7-2.9 6.8-6.2 6.8zm1.3-7.5c-.7 0-3.3 2.3-3.3 3.9 0 .3.3.4.6.4 1.6 0 3.1-1.9 3.1-3.6 0-.4-.1-.7-.4-.7zM180.9 25.5c-.1.4-.5.5-.9.5-.8 0-3.6-1.5-3.6-2.6 0-1.2.7-5.2 2.2-5.2 1 0 3.8 1.8 3.9 3-.1.5-1.5 3.2-1.6 4.3zm3.2-9c-.2 1.2-.7 1.4-1.5 1.4h-.1c-.9-.6-3-2.2-3-3.3.8-3.3 3-9.9 4.7-13.3.3-.7.5-1 1.1-1.1 1.3 0 4.4 2.4 4.4 3.5 0 .7-4.5 7.1-5.6 12.8z"/></g></g></g></g></svg>