<svg xmlns="http://www.w3.org/2000/svg" viewBox="0 0 164.1 55.5"><style>.st172{fill:#ffb800}.st289{fill:#2f2a4c}.st290{fill:#e8a000}.st291{fill:#ffde94}.st296{fill:#2e2459}.st297{fill:#51e0e0}</style><g id="Layer_1"><path class="st289" d="M14.2 14.4s-2.8-7-1-14.4l3.2 7-2.2 7.4z"/><path class="st172" d="M5.7 3.8h155.5v6.1H5.7z"/><path class="st290" d="M5.7 9.9h3.7c.7-.8 1-1.9 1-3s-.4-2.2-1-3H5.7v6z"/><circle class="st172" cx="4.9" cy="6.8" r="4.9"/><circle class="st291" cx="2.7" cy="4.4" r="1"/><path d="M149.8 0H13.3c2.7 6.8 1 14.4 1 14.4.6 2.8 2.4-2.5 1.2 27.1 14.4 5 46.9 6 67.6 14.1 20-6.9 55.4-10.8 67.4-14.8 1.6-13.5 1.4-13.8-.7-40.8z" fill="#4c417a"/><path d="M15.4 41.5l135.4-25.7H14.3c.8 9.9 2.3 7.6 1.1 25.7z" fill="#574e87"/><path class="st289" d="M149.8 0H13.3c2.3 6.2 1.3 12.3 1 14.4-.1.4.1 1.4.1 1.4h136.5c.7-6.2 0-11.2-1.1-15.8z"/><path d="M149.8 0H13.3c2.7 6.8 1 14.4 1 14.4h136.6c.7-5.6 0-10.2-1.1-14.4z" fill="#8680bc"/><path d="M149.8 1.6h-136c2.7 6 .4 12.8.4 12.8h136.6c.8-5 .1-9-1-12.8z" fill="#564d87"/><path fill="none" stroke="#ffb800" stroke-width="2" stroke-linejoin="round" stroke-miterlimit="10" d="M75.8 45.9h15.6"/><g><path class="st296" d="M31.6 21.4c.1 2.9.1 5.8.1 8.7 0 .9 0 1.5.1 2s.3 1 .6 1.5c.3.6.5.9.6.9.1 0 .3-.3.7-.9.3-.6.5-1.1.7-1.5.1-.5.2-1.1.2-2v-2.5c0-1.3-.1-2.2-.3-2.7-.2-.5-.6-1.1-1.2-1.9.9-.6 1.9-1.3 2.8-1.9.5.3 1 1 1.3 1.9.4.9.6 2 .6 3.3v3.8c0 1.2-.1 2.2-.4 3-.2.8-.9 1.8-2 2.9-1.1 1.2-1.9 1.8-2.5 1.8-.3 0-.8-.3-1.4-.9-.6-.6-1.1-1.3-1.6-2.1-.6.8-1.2 1.5-1.8 2.1-.6.6-1.1.9-1.4.9-.5 0-1.3-.6-2.4-1.8-1-1.2-1.7-2.2-1.9-2.9-.2-.8-.3-1.8-.3-3 0-2.9 0-5.8-.1-8.7h3.3c.1 2.9.1 5.8.1 8.7 0 1 0 1.7.1 2.1.1.4.3.9.6 1.4.3.6.5.9.6.9.1 0 .3-.3.7-.9.3-.6.5-1.1.7-1.5.1-.5.2-1.1.2-2 0-2.9 0-5.8-.1-8.7h3.4zM43.4 27.7h4.2v2.8h-4.2c0 1.4 0 2.8-.1 4.3H49c0 .9 0 1.9-.1 2.8H40c.1-4.7.2-9.5.1-14.2 1.1-.7 2.1-1.5 3.2-2.2h5.3c0 .9 0 1.9.1 2.8h-4.4l-.9.6c-.1 1 0 2.1 0 3.1zM99.7 36.7c.1-2.5.1-4.9.1-7.4h-3.3c0 2.5 0 4.9-.1 7.4h-3.3c.1-3.3.1-6.6.1-9.9 0-1.3-.1-2.2-.3-2.7-.2-.5-.6-1.1-1.2-1.9.9-.6 1.9-1.3 2.8-1.9.5.3 1 .9 1.4 1.8.4.9.6 1.9.6 3.2v1.3h3.3c0-2-.1-4-.1-6h3.3c.2 5.4.2 10.8.1 16.2-1.3-.1-2.4-.1-3.4-.1zM108.9 26.9h4.2v2.8h-4.2v4.2h5.7c0 .9 0 1.9-.1 2.8h-8.9c.1-4.7.1-9.5 0-14.2 1.1-.7 2.1-1.5 3.2-2.2h5.3c0 .9.1 1.9.1 2.8h-4.4l-.9.6v3.2zM119.6 21.6c1.2-.8 2.1-1.3 2.5-1.3.5 0 1.2.4 2.2 1.2 1 .8 1.6 1.4 1.8 1.7.2.3.4.8.4 1.3 0 1-.1 1.7-.2 1.9-.3.5-.8 1.1-1.5 1.7 1 .9 1.6 1.6 1.8 2.1.1.3.3 1.3.4 2.9.1 1.6.2 2.8.2 3.6h-3.5c0-.7 0-1.8-.1-3.3-.1-1.5-.2-2.4-.4-2.7-.1-.3-.3-.6-.5-.8h-2.1c0 2.2 0 4.5-.1 6.7h-3.3c.1-3.4.1-6.7.1-10.1 0-1.2-.1-2.1-.3-2.6-.2-.5-.6-1.1-1.2-1.8.9-.6 1.9-1.3 2.8-1.9.3.4.7.8 1 1.4zm.7 3.9v1.8h.9c.2 0 .5-.2.8-.5.3-.3.6-.6.7-.9.1-.2.1-.5.1-.8 0-.3-.1-.5-.2-.7-.1-.2-.3-.4-.5-.7-.2-.3-.4-.4-.5-.4-.4 0-1 .1-1.6.3.3.7.3 1.3.3 1.9zM132.2 26.9h4.2v2.8h-4.2v4.2h5.7c0 .9 0 1.9-.1 2.8h-8.9c.1-4.7.1-9.5 0-14.2 1.1-.7 2.1-1.5 3.2-2.2h5.3c0 .9.1 1.9.1 2.8h-4.4l-.9.6v3.2zM143.7 20.3v8.3c0 .9.1 1.6.4 2.2-.8.5-1.5 1-2.3 1.5-.5-.6-.8-1.8-.9-3.8-.1-2.8-.3-5.5-.5-8.3 1.1.1 2.2.1 3.3.1zm-1.4 12.9c.2 0 .6.3 1.2.8s1 .9 1 1.1c0 .2-.3.6-1 1.1-.7.5-1.1.8-1.3.8-.2 0-.6-.3-1.2-.8s-1-.9-.9-1.1c0-.2.3-.6 1-1.1.6-.5 1-.8 1.2-.8z"/><g><path class="st297" d="M32.4 20.4c.1 2.9.1 5.8.1 8.7 0 .9 0 1.5.1 2s.3 1 .6 1.5c.3.6.5.9.6.9.1 0 .3-.3.7-.9.3-.6.5-1.1.7-1.5.1-.5.2-1.1.2-2v-2.5c0-1.3-.1-2.2-.3-2.7-.2-.5-.6-1.1-1.2-1.9.9-.6 1.9-1.3 2.8-1.9.5.3 1 1 1.3 1.9.4.9.6 2 .6 3.3v3.8c0 1.2-.1 2.2-.4 3-.2.8-.9 1.8-2 2.9-1.1 1.2-1.9 1.8-2.5 1.8-.3 0-.8-.3-1.4-.9-.6-.6-1.1-1.3-1.6-2.1-.6.8-1.2 1.5-1.8 2.1-.6.6-1.1.9-1.4.9-.5 0-1.3-.6-2.4-1.8-1-1.2-1.7-2.2-1.9-2.9-.2-.8-.3-1.8-.3-3 0-2.9 0-5.8-.1-8.7h3.3c.1 2.9.1 5.8.1 8.7 0 1 0 1.7.1 2.1.1.4.3.9.6 1.4.3.6.5.9.6.9.1 0 .3-.3.7-.9.3-.6.5-1.1.7-1.5.1-.5.2-1.1.2-2 0-2.9 0-5.8-.1-8.7h3.4zM44.2 26.7h4.2v2.8h-4.2c0 1.4 0 2.8-.1 4.3h5.7c0 .9 0 1.9-.1 2.8h-8.9c.1-4.7.2-9.5.1-14.2 1.1-.7 2.1-1.5 3.2-2.2h5.3c0 .9 0 1.9.1 2.8h-4.4l-.9.6c-.1 1 0 2 0 3.1zM100.3 35.7c.1-2.5.1-4.9.1-7.4h-3.3c0 2.5 0 4.9-.1 7.4h-3.3c.1-3.3.1-6.6.1-9.9 0-1.3-.1-2.2-.3-2.7-.2-.5-.6-1.1-1.2-1.9.9-.6 1.9-1.3 2.8-1.9.5.3 1 .9 1.4 1.8.4.9.6 1.9.6 3.2v1.3h3.3c0-2-.1-4-.1-6h3.3c.2 5.4.2 10.8.1 16.2-1.2-.1-2.3-.1-3.4-.1zM109.5 25.8h4.2v2.8h-4.2v4.2h5.7c0 .9 0 1.9-.1 2.8h-8.9c.1-4.7.1-9.5 0-14.2 1.1-.7 2.1-1.5 3.2-2.2h5.3c0 .9.1 1.9.1 2.8h-4.4l-.9.6v3.2zM120.2 20.5c1.2-.8 2.1-1.3 2.5-1.3.5 0 1.2.4 2.2 1.2 1 .8 1.6 1.4 1.8 1.7.2.3.4.8.4 1.3 0 1-.1 1.7-.2 1.9-.3.5-.8 1.1-1.5 1.7 1 .9 1.6 1.6 1.8 2.1.1.3.3 1.3.4 2.9.1 1.6.2 2.8.2 3.6h-3.5c0-.7 0-1.8-.1-3.3-.1-1.5-.2-2.4-.4-2.7-.1-.3-.3-.6-.5-.8h-2.1c0 2.2 0 4.5-.1 6.7h-3.3c.1-3.4.1-6.7.1-10.1 0-1.2-.1-2.1-.3-2.6-.2-.5-.6-1.1-1.2-1.8.9-.6 1.9-1.3 2.8-1.9.3.5.7.9 1 1.4zm.8 4v1.8h.9c.2 0 .5-.2.8-.5.3-.3.6-.6.7-.9.1-.2.1-.5.1-.8 0-.3-.1-.5-.2-.7-.1-.2-.3-.4-.5-.7-.2-.3-.4-.4-.5-.4-.4 0-1 .1-1.6.3.2.6.2 1.2.3 1.9zM132.8 25.8h4.2v2.8h-4.2v4.2h5.7c0 .9 0 1.9-.1 2.8h-8.9c.1-4.7.1-9.5 0-14.2 1.1-.7 2.1-1.5 3.2-2.2h5.3c0 .9.1 1.9.1 2.8h-4.4l-.9.6v3.2zM144.3 19.2v8.3c0 .9.1 1.6.4 2.2-.8.5-1.5 1-2.3 1.5-.5-.6-.8-1.8-.9-3.8-.1-2.8-.3-5.5-.5-8.3 1.2.1 2.2.1 3.3.1zm-1.4 12.9c.2 0 .6.3 1.2.8s1 .9 1 1.1c0 .2-.3.6-1 1.1-.7.5-1.1.8-1.3.8-.2 0-.6-.3-1.2-.8s-1-.9-.9-1.1c0-.2.3-.6 1-1.1.6-.5 1-.8 1.2-.8z"/></g><g><path class="st296" d="M55.4 22.4c1.1-1 1.9-1.5 2.5-1.5.6 0 1.5.5 2.6 1.5 1.2 1 1.9 1.8 2.2 2.5.2.4.3 1.5.4 3 .1 3.2.1 6.3.1 9.5h-3.3v-3.5h-3.3v3.5h-3.3c0-3.2 0-6.3-.1-9.5 0-1.6 0-2.6.2-3 .3-.6.9-1.5 2-2.5zm1.1 5.5c0 1.1.1 2.1.1 3.2h3.3c0-1.1 0-2.1-.1-3.2 0-1.3-.1-2-.3-2.3-.1-.3-.4-.6-.7-.9-.3-.3-.6-.5-.8-.5-.2 0-.5.2-.8.5-.3.3-.5.6-.6.9-.1.3-.1 1.1-.1 2.3zM68.6 22.2c1.2-.8 2.1-1.3 2.5-1.3.5 0 1.2.4 2.2 1.2 1 .8 1.6 1.4 1.9 1.7.3.3.4.8.4 1.3 0 1 0 1.7-.2 1.9-.3.5-.8 1.1-1.5 1.7 1 .9 1.6 1.6 1.8 2.1.1.3.3 1.3.4 3 .2 1.6.2 2.9.2 3.6h-3.6c0-.7-.1-1.8-.2-3.3-.1-1.5-.3-2.4-.4-2.7-.2-.3-.3-.6-.5-.8h-2.1c0 2.3.1 4.5.1 6.8h-3.3c0-3.4 0-6.8-.1-10.1 0-1.3-.2-2.1-.4-2.6s-.6-1.1-1.2-1.8c.9-.6 1.8-1.3 2.7-1.9.5.2.9.7 1.3 1.2zm.8 4c0 .6 0 1.2.1 1.8h.9c.2 0 .5-.2.8-.5.3-.3.6-.6.6-.9.1-.2.1-.5.1-.8 0-.3-.1-.5-.2-.7-.1-.2-.3-.4-.5-.7-.1-.3-.2-.4-.4-.4-.4 0-1 .1-1.6.3.1.6.2 1.2.2 1.9zM81.9 27.5h4.2c0 .9.1 1.9.1 2.8H82c0 1.4 0 2.8.1 4.3h5.7v2.8h-8.9c0-4.8-.1-9.5-.3-14.3 1.1-.7 2.1-1.5 3.2-2.2h5.3c0 .9.1 1.9.1 2.8h-4.4l-.9.6c-.1 1.1-.1 2.2 0 3.2z"/><path class="st297" d="M56.1 21.4c1.1-1 1.9-1.5 2.5-1.5.6 0 1.5.5 2.6 1.5 1.2 1 1.9 1.8 2.2 2.5.2.4.3 1.5.4 3 .1 3.2.1 6.3.1 9.5h-3.3v-3.5h-3.3v3.5H54c0-3.2 0-6.3-.1-9.5 0-1.6 0-2.6.2-3 .2-.7.9-1.5 2-2.5zm1.1 5.5c0 1.1.1 2.1.1 3.2h3.3c0-1.1 0-2.1-.1-3.2 0-1.3-.1-2-.3-2.3-.1-.3-.4-.6-.7-.9-.3-.3-.6-.5-.8-.5-.2 0-.5.2-.8.5-.3.3-.5.6-.6.9-.1.3-.1 1-.1 2.3zM69.2 21.2c1.2-.8 2.1-1.3 2.5-1.3.5 0 1.2.4 2.2 1.2 1 .8 1.6 1.4 1.9 1.7.3.3.4.8.4 1.3 0 1 0 1.7-.2 1.9-.3.5-.8 1.1-1.5 1.7 1 .9 1.6 1.6 1.8 2.1.1.3.3 1.3.4 3 .2 1.6.2 2.9.2 3.6h-3.6c0-.7-.1-1.8-.2-3.3-.1-1.5-.3-2.4-.4-2.7-.2-.3-.3-.6-.5-.8h-2.1c0 2.3.1 4.5.1 6.8h-3.3c0-3.4 0-6.8-.1-10.1 0-1.3-.2-2.1-.4-2.6s-.6-1.1-1.2-1.8c.9-.6 1.8-1.3 2.7-1.9.6.2 1 .6 1.3 1.2zm.9 3.9c0 .6 0 1.2.1 1.8h.9c.2 0 .5-.2.8-.5.3-.3.6-.6.6-.9.1-.2.1-.5.1-.8 0-.3-.1-.5-.2-.7-.1-.2-.3-.4-.5-.7-.2-.3-.4-.4-.5-.4-.4 0-1 .1-1.6.3.2.7.2 1.3.3 1.9zM82.6 26.5h4.2c0 .9.1 1.9.1 2.8h-4.2c0 1.4 0 2.8.1 4.3h5.7v2.8h-8.9c0-4.8-.1-9.5-.3-14.3 1.1-.7 2.1-1.5 3.2-2.2h5.3c0 .9.1 1.9.1 2.8h-4.4l-.9.6c-.1 1.1-.1 2.1 0 3.2z"/></g></g><path class="st290" d="M158.5 9.9h-3.7c-.7-.8-1-1.9-1-3s.4-2.2 1-3h3.7v6z"/><circle class="st172" cx="159.2" cy="6.8" r="4.9"/><circle class="st291" cx="161.5" cy="4.4" r="1"/></g></svg>