<svg xmlns="http://www.w3.org/2000/svg" viewBox="0 0 152.7 65.3"><style>.st0{fill:#fff}.st464{fill:#cfb394}.st465{fill:#0b0a06}</style><g id="Layer_1"><path class="st464" d="M150.1 14.3L76.3 0 2.5 14.3v51h147.6z"/><path class="st465" d="M146.5 50.8V16.1L76.3 3.3 6.2 16.1v34.7z"/><path class="st464" d="M152.7 65.3v-8.4c0-1.8-1.5-3.3-3.3-3.3H3.3C1.5 53.5 0 55 0 56.8v8.4h152.7z"/><circle class="st465" cx="144.9" cy="57.1" r="1.6"/><circle class="st465" cx="7.8" cy="57.1" r="1.6"/><g><path class="st0" d="M17.1 21.5h3.4v18.7h5.6v3.1H17V21.5zM29.6 21.5H39v3.1h-6v5.8h4.7v3.1H33v6.7h6v3.1h-9.3V21.5zM45.5 24.6h-3.6v-3.1h10.6v3.1h-3.6v18.7h-3.4V24.6zM56.2 21.5h3.5l-.8 7H57l-.8-7zM64.7 42.2c-.9-.9-1.3-2.3-1.3-4.1v-1.2h3.2v1.5c0 1.4.6 2.1 1.8 2.1.6 0 1-.2 1.3-.5.3-.3.5-.9.5-1.7 0-.9-.2-1.7-.6-2.4-.4-.7-1.2-1.5-2.3-2.5-1.4-1.2-2.4-2.4-3-3.4-.6-1-.8-2.1-.8-3.4 0-1.7.4-3.1 1.3-4 .9-.9 2.1-1.4 3.8-1.4 1.6 0 2.9.5 3.7 1.4.8.9 1.3 2.3 1.3 4.1v.9h-3.2v-1.1c0-.7-.1-1.3-.4-1.6-.3-.3-.7-.5-1.3-.5-1.1 0-1.7.7-1.7 2.1 0 .8.2 1.5.6 2.2.4.7 1.2 1.5 2.3 2.5 1.4 1.2 2.4 2.4 3 3.4.5 1 .8 2.2.8 3.6 0 1.8-.4 3.2-1.3 4.1-.9 1-2.2 1.4-3.8 1.4-1.8-.1-3.1-.6-3.9-1.5zM85.4 42.2c-.9-.9-1.3-2.2-1.3-4V26.6c0-1.7.4-3 1.3-4 .9-.9 2.1-1.4 3.7-1.4s2.9.5 3.7 1.4c.9.9 1.3 2.3 1.3 4v2.3h-3.2v-2.5c0-1.3-.6-2-1.7-2s-1.7.7-1.7 2v12.2c0 1.3.6 2 1.7 2s1.7-.7 1.7-2v-3.3h3.2v3.1c0 1.7-.4 3-1.3 4-.9.9-2.1 1.4-3.7 1.4-1.6-.2-2.9-.7-3.7-1.6zM98.1 21.5h3.4v8.9h3.7v-8.9h3.4v21.8h-3.4v-9.8h-3.7v9.8h-3.4V21.5zM115.7 21.5h4.6l3.5 21.8h-3.4l-.6-4.3h-3.9l-.6 4.3h-3.2l3.6-21.8zm3.7 14.6l-1.5-10.8h-.1l-1.5 10.8h3.1zM128.6 24.6H125v-3.1h10.6v3.1H132v18.7h-3.4V24.6z"/></g></g></svg>