<svg xmlns="http://www.w3.org/2000/svg" viewBox="0 0 180.3 59.3"><style>.st206{fill:#c1bca4}.st207{fill:#ddd9c3}.st208{fill:#21363d}.st209{fill:#f2d3a5}.st210{fill:#ffb444}.st211{fill:#591c1c}.st212{fill:#ffe6c5}.st213{fill:#933434}</style><g id="Layer_1"><path class="st207" d="M167.6 59.3l.1-21.5-7.4-.2-.1 21.7z"/><path class="st206" d="M167.6 54.7l.1-16.9-7.4-.2-.1 16.9z"/><path class="st207" d="M112.1 59.3l.1-21.5-7.4-.2-.1 21.7z"/><path class="st206" d="M112.1 54.7l.1-16.9-7.4-.2-.1 16.9z"/><path class="st207" d="M29.1 59.3V37.8l-7.4-.2-.1 21.7z"/><path class="st206" d="M19.6 59.3V37.8l2.3-.2v21.7zM54.5 59.3V37.8l2.3-.2.1 21.7zM102.7 59.3l-.1-21.5 2.3-.2.1 21.7zM157.9 59.3V37.8l2.3-.2v21.7z"/><path class="st206" d="M29.1 54.7V37.8l-7.4-.2-.1 16.9z"/><path class="st207" d="M64.3 59.3V37.8l-7.4-.2-.1 21.7z"/><path class="st206" d="M64.3 54.7V37.8l-7.4-.2v16.9z"/><path class="st208" d="M91.1 2l81.9 8.7 7.3 31.4-4.6 5.7-87.5-1.2"/><path class="st209" d="M91.1 2l88.1 1.2 1.1 38.9-86.6-1.3L91.1 2"/><path class="st208" d="M178.1 39.7l-82.7-1.4-1.3-34 82.7 1.5z"/><path class="st210" d="M178.1 39.7l-81.6-1.5-1.1-32.9 81.5 1.5z"/><path class="st212" d="M91.1 2l-5.6 7.4 2.7 37.2 5.5-5.8z"/><path class="st211" d="M111.1 34.1c-2.7-.1-4.7-.7-6-2-.9-.9-1.5-2.2-1.9-3.8-.1-.7-.2-1.4-.3-2.2l-.3-7c-.2-5.1 2.3-7.6 7.5-7.5 2.2 0 3.9.6 5.3 1.6s2.2 2.4 2.6 4.2c.2.8.2 1.6.2 2.4 0 .8-.1 1.4-.3 1.8l-.2.6-5-.1c.5-.8.5-1.8.2-3.3-.2-.8-.5-1.3-.9-1.8-.4-.4-1-.7-1.7-.7-1.9 0-2.8 1.1-2.7 3.3l.3 6.1c0 .5.1 1 .2 1.5.3 1.3 1.2 2 2.6 2 1.8 0 2.6-1 2.5-3.2l5.1.1v.9c.4 4.8-2 7.1-7.2 7.1zM135.4 12.1l1.1 21.8-5.1-.1-.4-7.8-5.5-.1.4 7.9-5.1-.1-1-21.8 5.1.1.4 9.2 5.5.1-.4-9.2h5zM149.2 34.3l-.8-4.8-4.7-.1-.4 4.7-5.4-.1 2.6-21.8 9.3.2 4.7 21.9h-5.3zm-4.6-16.6l-.6 7.7 3.7.1-1.3-7.7-1.8-.1zM172 17.5l-6.9-.1.8 17.1-5.1-.1-.8-17.1-6.9-.1-.2-4.7 19 .4.1 4.6z"/><g><path class="st213" d="M111.8 33.2c-2.7-.1-4.7-.7-6-2-.9-.9-1.5-2.2-1.9-3.8-.1-.7-.2-1.4-.3-2.2l-.3-7c-.2-5.1 2.3-7.6 7.5-7.5 2.2 0 3.9.6 5.3 1.6s2.2 2.4 2.6 4.2c.2.8.2 1.6.2 2.4 0 .8-.1 1.4-.3 1.8l-.2.6-5-.1c.5-.8.5-1.8.2-3.3-.2-.8-.5-1.3-.9-1.8-.4-.4-1-.7-1.7-.7-1.9 0-2.8 1.1-2.7 3.3l.3 6.1c0 .5.1 1 .2 1.5.3 1.3 1.2 2 2.6 2.1 1.8 0 2.6-1 2.5-3.2l5.1.1v.9c.5 4.8-2 7.1-7.2 7zM136.2 11.2l1.1 21.8-5.1-.1-.4-7.9-5.5-.1.4 7.9-5.1-.1-1-21.8 5.1.1.4 9.2 5.5.1-.4-9.2 5 .1zM150 33.4l-.8-4.8-4.7-.1-.4 4.7-5.4-.1 2.6-21.8 9.3.2 4.7 21.9H150zm-4.6-16.6l-.6 7.7 3.7.1-1.3-7.7-1.8-.1zM172.8 16.6l-6.9-.1.8 17.1-5.1-.1-.8-17.1-6.9-.1-.2-4.7 19 .4.1 4.6z"/></g><g><path class="st208" d="M71.7 57.4l8.5-5.3-4.2-7.9-9.6 4.2 2.4 7.4z"/><path class="st208" d="M78.1 48.5l6.4-4.6-1.7-2.7-3.8 2.7z"/><path class="st212" d="M11.6 6.4c-.4-1.5-.9-3.5-.9-3.5L4 7.6c-2.5 1.6-4.1 4.6-4 8.1l.4 23.9c.1 4.1 2.5 7.6 5.8 8.9l13.1-10.3 28-30.9-35.7-.9z"/><path class="st208" d="M81.1 40.7l-1.5-24.3c-.3-5.2-4.4-9.3-9.1-9.3l-23.2.2-28 30.9-13 10.3c.9.4 1.9.6 2.9.6l51.5 1.3c1 2.7 3.7 7.1 11.1 7 0 0-2.2-3.2-3.5-7h4.9c4.7 0 8.3-4.4 7.9-9.7z"/><path class="st209" d="M88.6 35.3L87 11.1c-.4-5.1-4.5-9.3-9.2-9.2l-62.4-.7c-4.6 0-8.2 4.2-8 9.2l.5 23.8c.1 5.2 4 9.5 8.7 9.4L68.1 45c1 2.7 3.7 7 11.1 6.9 0 0-2.2-3.2-3.5-7h4.9c4.8 0 8.4-4.3 8-9.6z"/><path class="st208" d="M77.1 34.7c2.2-1.9 4.3-4 5.9-6.4.8-1.1 1.8-1.9 2.9-2.2l-1-14.4c-.4-4.6-4.3-8.3-8.7-8.2L17 3.1c-4.4.1-7.8 3.8-7.6 8.3l.6 21.3c.2 4.6 3.9 8.4 8.3 8.4l30.2 1.1c9.5-2.8 19.1-6.4 28.6-7.5z"/><path class="st210" d="M87.2 34.2l-1.5-21.6C85.3 8 81.4 4.3 77 4.4l-59.2-.5c-4.4.1-7.8 3.8-7.7 8.4l.6 21.3c.2 4.7 3.9 8.4 8.3 8.4l49.4 1c1 2.4 2 7.1 8.5 7.6 0 0-2.1-4.5-3.3-7.9l6 .1c4.6 0 8-3.9 7.6-8.6z"/><g><path class="st211" d="M34.2 12.6c-.6.7-1.2 1.4-1.8 2.3-.6.8-1.1 1.7-1.7 2.6-.6.9-1.1 1.8-1.7 2.6-.5.9-1.1 1.7-1.6 2.4-.6.9-1.3 1.9-2 2.8-.7.9-1.4 1.8-2.1 2.6 1.4.2 2.7.2 3.9.2 1.3 0 2.5-.4 3.8-.9 1-.5 2-1 2.9-1.6.9-.6 1.7-1.2 2.4-1.9.3-.3.5-.4.7-.4.2 0 .4 0 .5.1.1.1.2.3.2.5s-.1.5-.3.8c-.9 1.4-1.9 2.6-3.2 3.8-1.2 1.1-2.6 2-4 2.7-.9.4-1.9.7-2.9.9-1 .2-2 .3-3 .2-.8 0-1.5-.1-2.3-.3-.8-.2-1.5-.3-2.2-.3-.3.2-.6.3-1 .4-.3.1-.7.1-1 .1-.3 0-.7-.1-1-.2-.3-.1-.5-.3-.7-.5-.3-.4-.5-.9-.4-1.3.1-.4.3-.8.6-1.2.4-.4.8-.7 1.4-.9.6-.2 1.1-.4 1.7-.4.8-1.1 1.5-2.4 2.2-3.8.7-1.4 1.5-2.7 2.3-4 .5-.7 1-1.6 1.6-2.4.6-.9 1.2-1.7 1.9-2.5s1.4-1.6 2.2-2.2c.8-.7 1.5-1.2 2.4-1.5.3-.1.7-.2 1-.2.4 0 .7 0 .9.1.3.1.4.3.5.5.3.3.2.5-.2.9z"/><path class="st211" d="M39.9 28.7c.5.4 1 .6 1.6.6.6 0 1.3-.1 1.9-.3.7-.2 1.4-.5 2.1-.9.7-.4 1.4-.8 2-1.2.6-.4 1.2-.9 1.7-1.3s.9-.8 1.2-1.1c.2-.2.4-.4.6-.4.2 0 .4 0 .5.1.1.1.2.3.2.5s0 .5-.2.7c-1.2 2.2-2.8 4-4.6 5.4-.6.4-1.2.8-1.9 1.2-.7.3-1.4.6-2.1.8-.7.2-1.4.3-2.2.3-.7 0-1.5-.2-2.2-.4-.9-.3-1.5-.8-2-1.4-.5-.6-.8-1.2-1-1.9-.2-.7-.2-1.4-.2-2.2.1-.8.2-1.6.5-2.3.3-.8.6-1.5 1-2.2.4-.7.8-1.4 1.2-1.9.4-.5.9-1.1 1.4-1.6.5-.5 1.1-1 1.7-1.4.6-.4 1.2-.8 1.9-1.1.7-.3 1.4-.5 2.1-.5.8-.1 1.7.1 2.4.5.8.4 1.4 1 1.8 1.8.4.7.5 1.5.5 2.3-.1.8-.3 1.5-.7 2.2-.4.7-.8 1.3-1.4 1.9-.6.6-1.2 1-1.9 1.4-1.1.6-2.1.9-3.1.9s-2-.1-3.1-.5c-.2.5-.3.9-.3 1.3.2.1.3.5.6.7zm3.1-4.8c.8-.3 1.5-.7 2.1-1.4.1-.2.3-.4.6-.7.2-.3.4-.6.4-.9.1-.3.1-.5-.1-.6-.2-.1-.4-.1-.6 0-.3.1-.7.3-1 .5-.3.2-.6.5-.9.7-.4.4-.9.8-1.2 1.3-.4.5-.7.9-1.1 1.4.6-.1 1.2-.1 1.8-.3z"/><path class="st211" d="M62.9 17.9c-.2.4-.6.7-.9.9-.4.2-.8.4-1.3.5-.5.1-.9.2-1.4.2-.5 0-.9 0-1.4-.1-.3.4-.7 1-1.1 1.8-.5.8-.9 1.6-1.4 2.4-.5.9-.9 1.7-1.3 2.6-.4.9-.7 1.6-.9 2.2-.2.6-.2 1.1 0 1.3.2.2.6.1 1.2-.2.5-.3.9-.6 1.4-1 .5-.4.9-.8 1.3-1.3.4-.4.8-.9 1.2-1.3.4-.4.7-.8 1-1.2.2-.3.4-.4.6-.5.2-.1.4 0 .5.1.1.1.2.3.2.5s0 .5-.2.8c-.4.7-.7 1.4-1.1 2.1-.4.7-.8 1.4-1.2 2-.4.6-.9 1.2-1.3 1.8-.5.5-1 1-1.6 1.4-.7.5-1.5.7-2.4.8-.9.1-1.6-.2-2.3-.7-.5-.4-.9-1-1.1-1.6-.2-.6-.3-1.3-.2-1.9 0-.7.1-1.3.3-2 .2-.7.4-1.3.6-1.8l.6-1.5c.2-.5.5-1 .8-1.6l.9-1.8c.3-.6.7-1.4 1.2-2.1-.3-.1-.5-.1-.8-.2-.2-.1-.5-.2-.6-.4-.2-.3-.3-.6-.1-.9.2-.3.4-.7.8-1 .4-.3.8-.5 1.4-.7.5-.2 1-.2 1.5-.1.3-.4.6-.8 1-1.1.4-.4.7-.7 1.1-1 .3-.2.7-.4 1.1-.5.4-.1.9-.2 1.3-.1.4 0 .8.2 1.1.4.3.2.5.6.6 1.1.1.5 0 .9-.3 1.4-.2.4-.5.8-.8 1.1.2.1.4.2.7.2.2.1.5.1.7.1.3 0 .6.2.7.4.1 0 .1.3-.1.5zM65.3 15.4c-.4-.6-.4-1.2-.2-1.8.3-.6.6-1 1.1-1.3.5-.3 1.1-.4 1.7-.3.6.1 1.1.4 1.5 1 .4.7.5 1.3.3 2s-.6 1.2-1.1 1.8c-.5.5-1.1 1-1.8 1.4-.7.4-1.3.7-1.8.9-.2.1-.5.1-.7-.1-.2-.2-.3-.4-.3-.6 0-.2.1-.4.2-.6.2-.2.3-.4.4-.5.1-.2.3-.5.4-.7.2-.3.3-.5.5-.8 0-.1-.1-.2-.2-.4zM72.7 22.8c.3-.5.6-.9.6-1.2.1-.3 0-.5-.1-.6-.1-.1-.3-.1-.6-.1-.3.1-.6.1-.9.3-.3.1-.6.3-1 .5-.3.2-.6.3-.8.5-.8.5-1.3.9-1.5 1.3-.2.4-.3.6-.2.8.1.1.2.2.4.2h1.9c.7 0 1.3.1 1.8.3.5.2 1 .5 1.3.9.3.4.6.9.7 1.4.1.5.1 1.1 0 1.8-.2.9-.6 1.7-1.2 2.4-.6.8-1.3 1.4-2.1 1.9s-1.8.8-2.8 1c-1 .2-2.1.1-3.2-.2-.3-.1-.6-.2-.9-.4-.3-.2-.5-.4-.8-.7-.2-.3-.4-.5-.5-.9-.1-.3-.2-.6-.2-1s.2-.8.4-1.1c.2-.3.5-.5.9-.7.3-.1.7-.1 1 0 .3.1.6.3.7.7.2.4.5.7.8.7.3.1.8 0 1.2-.2.3-.1.7-.3 1.1-.6.4-.3.8-.6 1.1-.9.4-.3.6-.6.8-.9.2-.3.2-.5.2-.7-.1-.1-.2-.2-.4-.2s-.4 0-.5.1c-.5.1-1 .1-1.5.1s-1-.2-1.5-.3c-.5-.2-.9-.5-1.2-.8-.3-.4-.6-.8-.7-1.4-.2-.6-.2-1.3 0-1.9.1-.6.4-1.2.7-1.8.3-.6.8-1.1 1.2-1.5l1.5-1.2c.5-.3 1.1-.6 1.7-.8.7-.2 1.3-.4 2-.4.7-.1 1.3 0 1.9.2.6.2 1.1.6 1.6 1.2.4.5.6 1 .6 1.6 0 .6-.1 1.1-.3 1.6-.2.5-.6.9-1 1.3s-.9.7-1.5.9c-.4.1-.7 0-.9-.2-.1-.4-.1-.7.2-1z"/></g><g><path class="st213" d="M34.9 12.2c-.6.7-1.2 1.4-1.8 2.3-.6.8-1.1 1.7-1.7 2.6-.6.9-1.1 1.8-1.7 2.6-.5.9-1.1 1.7-1.6 2.4-.6.9-1.3 1.9-2 2.8-.7.9-1.4 1.8-2.1 2.6 1.4.2 2.7.2 3.9.2 1.3 0 2.5-.4 3.8-.9 1-.5 2-1 2.9-1.6.9-.6 1.7-1.2 2.4-1.9.3-.3.5-.4.7-.4.2 0 .4 0 .5.1.1.1.2.3.2.5s-.1.5-.3.8c-.9 1.4-1.9 2.6-3.2 3.8-1.2 1.1-2.6 2-4 2.7-.9.4-1.9.7-2.9.9-1 .2-2 .3-3 .2-.8 0-1.5-.1-2.3-.3-.8-.2-1.5-.3-2.2-.3-.3.2-.6.3-1 .4-.3.1-.7.1-1 .1-.3 0-.7-.1-1-.2-.3-.1-.5-.3-.7-.5-.3-.4-.5-.9-.4-1.3.1-.4.3-.8.6-1.2.4-.4.8-.7 1.4-.9.6-.2 1.1-.4 1.7-.4.8-1.1 1.5-2.4 2.2-3.8.7-1.4 1.5-2.7 2.3-4 .5-.7 1-1.6 1.6-2.4.6-.9 1.2-1.7 1.9-2.5s1.4-1.6 2.2-2.2c.8-.7 1.5-1.2 2.4-1.5.3-.1.7-.2 1-.2.4 0 .7 0 .9.1.3.1.4.3.5.5.2.2.1.5-.2.9z"/><path class="st213" d="M40.5 28.3c.5.4 1 .6 1.6.6.6 0 1.3-.1 1.9-.3.7-.2 1.4-.5 2.1-.9.7-.4 1.4-.8 2-1.2.6-.4 1.2-.9 1.7-1.3s.9-.8 1.2-1.1c.2-.2.4-.4.6-.4.2 0 .4 0 .5.1.1.1.2.3.2.5s0 .5-.2.7c-1.2 2.2-2.8 4-4.6 5.4-.6.4-1.2.8-1.9 1.2-.7.3-1.4.6-2.1.8-.7.2-1.4.3-2.2.3-.7 0-1.5-.2-2.2-.4-.9-.3-1.5-.8-2-1.4-.5-.6-.8-1.2-1-1.9-.2-.7-.2-1.4-.2-2.2.1-.8.2-1.6.5-2.3.3-.8.6-1.5 1-2.2.4-.7.8-1.4 1.2-1.9.4-.5.9-1.1 1.4-1.6.5-.5 1.1-1 1.7-1.4.6-.4 1.2-.8 1.9-1.1.7-.3 1.4-.5 2.1-.5.8-.1 1.7.1 2.4.5.8.4 1.4 1 1.8 1.8.4.7.5 1.5.5 2.3-.1.8-.3 1.5-.7 2.2-.4.7-.8 1.3-1.4 1.9-.6.6-1.2 1-1.9 1.4-1.1.6-2.1.9-3.1.9s-2-.1-3.1-.5c-.2.5-.3.9-.3 1.3.2.1.4.4.6.7zm3.1-4.9c.8-.3 1.5-.7 2.1-1.4.1-.2.3-.4.6-.7.2-.3.4-.6.4-.9.1-.3.1-.5-.1-.6-.2-.1-.4-.1-.6 0-.3.1-.7.3-1 .5-.3.2-.6.5-.9.7-.4.4-.9.8-1.2 1.3-.4.5-.7.9-1.1 1.4.6 0 1.2-.1 1.8-.3z"/><path class="st213" d="M63.6 17.5c-.2.4-.6.7-.9.9-.4.2-.8.4-1.3.5-.5.1-.9.1-1.4.1-.5 0-.9 0-1.4-.1-.3.4-.7 1-1.1 1.8-.5.8-.9 1.6-1.4 2.4-.5.9-.9 1.7-1.3 2.6-.4.9-.7 1.6-.9 2.2-.2.6-.2 1.1 0 1.3.2.2.6.1 1.2-.2.5-.3.9-.6 1.4-1 .5-.4.9-.8 1.3-1.3.4-.4.8-.9 1.2-1.3.4-.4.7-.8 1-1.2.2-.3.4-.4.6-.5.2-.1.4 0 .5.1.1.1.2.3.2.5s0 .5-.2.8c-.4.7-.7 1.4-1.1 2.1-.4.7-.8 1.4-1.2 2-.4.6-.9 1.2-1.3 1.8-.5.5-1 1-1.6 1.4-.7.5-1.5.7-2.4.8-.9.1-1.6-.2-2.3-.7-.5-.4-.9-1-1.1-1.6-.2-.6-.3-1.3-.2-1.9 0-.7.1-1.3.3-2 .2-.7.4-1.3.6-1.8l.6-1.5c.2-.5.5-1 .8-1.6l.9-1.8c.3-.6.7-1.4 1.2-2.1-.3-.1-.5-.1-.8-.2-.2-.1-.5-.2-.6-.4-.2-.3-.3-.6-.1-.9.2-.3.4-.7.8-1 .4-.3.8-.5 1.4-.7.5-.2 1-.2 1.5-.1.3-.4.6-.8 1-1.1.4-.4.7-.7 1.1-1 .3-.2.7-.4 1.1-.5.4-.1.9-.2 1.3-.1.4 0 .8.2 1.1.4.3.2.5.6.6 1.1.1.5 0 .9-.3 1.4-.2.4-.5.8-.8 1.1.2.1.4.2.7.2.2.1.5.1.7.1.3 0 .6.2.7.4 0 .1 0 .3-.1.6zM66 15c-.4-.6-.4-1.2-.2-1.8.3-.6.6-1 1.1-1.3.5-.3 1.1-.4 1.7-.3.6.1 1.1.4 1.5 1 .4.7.5 1.3.3 2s-.6 1.2-1.1 1.8c-.5.5-1.1 1-1.8 1.4-.7.4-1.3.7-1.8.9-.2.1-.5.1-.7-.1-.2-.2-.3-.4-.3-.6 0-.2.1-.4.2-.6.2-.2.3-.4.4-.5.1-.2.3-.5.4-.7.2-.3.3-.5.5-.8 0-.2-.1-.3-.2-.4zM73.3 22.3c.3-.5.6-.9.6-1.2.1-.3 0-.5-.1-.6-.1-.1-.3-.1-.6-.1-.3.1-.6.1-.9.3-.3.1-.6.3-1 .5-.3.2-.6.3-.8.5-.8.5-1.2.9-1.5 1.3-.2.4-.3.6-.2.8.1.1.2.2.4.2h1.9c.7 0 1.3.1 1.8.3.5.2 1 .5 1.3.9.3.4.6.9.7 1.4.1.5.1 1.1 0 1.8-.2.9-.6 1.7-1.2 2.4-.6.8-1.3 1.4-2.1 1.9s-1.8.8-2.8 1c-1 .2-2.1.1-3.2-.2-.3-.1-.6-.2-.9-.4-.3-.2-.5-.4-.8-.7-.2-.3-.4-.5-.5-.9-.1-.3-.2-.6-.2-1s.2-.8.4-1.1c.2-.3.5-.5.9-.7.3-.1.7-.1 1 0 .3.1.6.3.7.7.2.4.5.7.8.7.3.1.8 0 1.2-.2.3-.1.7-.3 1.1-.6.4-.3.8-.6 1.1-.9.4-.3.6-.6.8-.9.2-.3.2-.5.2-.7-.1-.1-.2-.2-.4-.2s-.4 0-.5.1c-.5.1-1 .1-1.5.1s-1-.2-1.5-.3c-.5-.2-.9-.5-1.2-.8-.3-.4-.6-.8-.7-1.4-.2-.6-.2-1.3 0-1.9.1-.6.4-1.2.7-1.8.3-.6.8-1.1 1.2-1.5l1.5-1.2c.5-.3 1.1-.6 1.7-.8.7-.2 1.3-.4 2-.4.7-.1 1.3 0 1.9.2.6.2 1.1.6 1.6 1.2.4.5.6 1 .6 1.6 0 .6-.1 1.1-.3 1.6-.2.5-.6.9-1 1.3s-.9.7-1.5.9c-.4.1-.7 0-.9-.2 0-.3 0-.6.2-1z"/></g></g></g></svg>