<svg xmlns="http://www.w3.org/2000/svg" viewBox="0 0 141.4 26"><style>.st0{fill:#fff}.st132{fill:#231f20}.st199{fill:#5fd37d}.st200{fill:#ee4d7a}</style><g id="Layer_1"><path class="st199" d="M9.4 20.7l1.5-3.7 4.3 4.3c.4.4.7 1 .7 1.7s-.2 1.2-.7 1.7c-.4.5-1 .7-1.7.7H7.2c-.7 0-1.3-.2-1.8-.6-.5-.4-4.3-4.3-4.3-4.3L4.8 7.2c0-.7-1.7-1.7-1.3-2.1.4-.4.9-3.9.9-3.9l4.4 4.4c.5.4.7 1 .7 1.7v13.4z"/><path class="st132" d="M13.5 25.8H7.2c-.8 0-1.5-.2-2-.7L.9 20.8c-.1-.1-.1-.3-.1-.4L4.3 7.2s0-.1-.1-.1c0-.1-.1-.2-.2-.4L3.3 6c-.2-.2-.3-.4-.3-.7 0-.2 0-.4.2-.5 0 0 0-.1.1-.1 0-.1.1-.3.1-.5.1-.4.2-.8.3-1.3l.2-1.8c0-.2.1-.3.3-.4.2-.1.3 0 .4.1L9 5.2c.5.5.8 1.2.8 2v11.2l.6-1.6.3-.3c.1 0 .3 0 .4.1l4.3 4.3c.5.5.8 1.2.8 2 0 .7-.3 1.4-.8 2-.4.6-1.1.9-1.9.9zM3.4 22.1l2.3 2.3c.4.4.9.5 1.5.5h6.3c.6 0 1-.2 1.4-.6.4-.4.5-.8.5-1.4 0-.6-.2-1-.5-1.4L11 17.6l-1.2 3.1-.4-.2.4.2c-.1.2-.3.3-.5.3s-.4-.2-.4-.4V7.2c0-.6-.2-1-.5-1.4L4.7 2.1c-.1.7-.3 1.6-.5 2.3-.1.4-.2.6-.3.9l.1.1c0 .1.2.3.4.5.3.4.8.7.8 1.3v.1l-3.6 13c.4.3 1.1 1 1.8 1.8z"/><path class="st0" d="M5.1 16.3h4.1c.7 0 1.2.2 1.7.7.4.4.7 1 .7 1.7s-.2 1.2-.7 1.7c-.4.5-1 .7-1.7.7H2.9c-.7 0-1.3-.2-1.8-.6-.5-.4-.7-1-.7-1.6v-16c0-.7.2-1.2.7-1.7.4-.4 1-.6 1.7-.6s1.2.2 1.7.6c.5.4.7 1 .7 1.7v13.4z"/><path class="st132" d="M9.2 21.5H2.9c-.8 0-1.5-.2-2-.7-.6-.5-.9-1.2-.9-2V2.9c0-.8.3-1.5.8-2S2 .1 2.8.1c.7 0 1.4.3 1.9.8s.8 1.2.8 2v13h3.7c.8 0 1.5.3 2 .8s.8 1.2.8 2c0 .7-.3 1.4-.8 2-.5.5-1.2.8-2 .8zm-7.8-20c-.4.4-.5.8-.5 1.4v15.9c0 .6.2 1 .6 1.3.4.4.9.5 1.5.5h6.3c.6 0 1-.2 1.4-.6.4-.4.5-.8.5-1.4 0-.6-.2-1-.5-1.4-.4-.3-.8-.5-1.4-.5H5.1c-.1 0-.2 0-.3-.1-.1-.1-.1-.2-.1-.3V2.9c0-.6-.2-1-.5-1.4-.4-.3-.9-.5-1.4-.5-.6 0-1 .2-1.4.5z"/><path class="st200" d="M14.3 25.2L10 20.9"/><path class="st132" d="M14 25.5l-4.3-4.3c-.2-.2-.2-.4 0-.6.2-.2.4-.2.6 0l4.3 4.3c.2.2.2.4 0 .6-.1.1-.2.1-.3.1-.1.1-.2 0-.3-.1z"/><path class="st199" d="M22 17.5v3.2l2-3.6 4.3 4.3c.4.5.7 1 .7 1.7s-.2 1.2-.7 1.7c-.4.5-1 .7-1.7.7h-7c-.7 0-1.2-.2-1.7-.7l-4.3-4.3 3.6-13c0-.7-.9-2.8-.5-3.2.6-.6 2.2.7 2.9.7l4.3-3.6 4.3 4.3c.4.5.7 1 .7 1.7s-.2 1.2-.7 1.7c-.4.5-1 .7-1.7.7H22v3.1l2-3.6 4.3 4.3c.4.5.7 1 .7 1.7s-.2 1.2-.7 1.7c-.4.5-1 .7-1.7.7H22z"/><path class="st132" d="M26.6 25.8h-7c-.8 0-1.4-.3-2-.8l-4.3-4.3c-.1-.1-.2-.3-.1-.4l3.6-12.9c0-.2-.1-.7-.3-1.1-.1-.5-.3-1.1-.3-1.6 0-.2 0-.5.3-.7.2-.2.4-.2.6-.2.5 0 1 .3 1.5.5.3.2.7.4.9.4l4.2-3.5c.2-.1.4-.1.6 0l4.3 4.3c.5.5.8 1.2.8 2 0 .7-.3 1.4-.8 2-.5.5-1.2.8-2 .8h-1l3 3c.5.5.8 1.2.8 2s-.3 1.5-.8 2-1.2.8-2 .8h-1.2l3.2 3.2c.5.5.8 1.2.8 2 0 .7-.3 1.4-.8 2-.6.2-1.3.5-2 .5zM17.1 4.6c0 .3.1.9.3 1.4.1.5.3 1 .3 1.4v.1l-3.6 12.7 4.1 4.1c.4.4.8.6 1.3.6h7c.6 0 1-.2 1.4-.5.4-.4.5-.8.5-1.4 0-.6-.2-1-.5-1.4l-3.8-3.8h-.2l-1.6 3c-.1.2-.3.3-.5.2-.2 0-.3-.2-.3-.4v-3.2c0-.1 0-.2.1-.3.1-.1.2-.1.3-.1h1.5l.1-.2c.1-.1.2-.2.3-.2.1 0 .3 0 .4.1l.3.3h2c.6 0 1-.2 1.4-.5.4-.4.5-.8.5-1.4 0-.6-.2-1-.5-1.3l-3.6-3.6h-.5L22.3 13c-.1.2-.3.3-.5.2-.2 0-.3-.2-.3-.4V9.7c0-.1 0-.2.1-.3.1-.1.2-.1.3-.1h1.4l.2-.3c.1-.1.2-.2.3-.2.1 0 .3 0 .4.1l.5.5h1.9c.6 0 1-.2 1.4-.6.4-.4.5-.8.5-1.4 0-.6-.2-1-.5-1.3l-4-4-4 3.4c-.1.1-.2.1-.3.1-.5 0-.9-.3-1.4-.5-.4-.2-.9-.4-1.1-.4-.1-.2-.1-.2-.1-.1zM22.4 19l.6-1.1h-.6V19zm-.4-1.1v-.4.4zm.4-6.8l.5-.9h-.5v.9z"/><path class="st0" d="M17.6 13.1v3.2h4.6c.7 0 1.2.2 1.7.7.4.5.7 1 .7 1.7s-.2 1.2-.7 1.7c-.4.5-1 .7-1.7.7h-7c-.7 0-1.2-.2-1.7-.7-.5-.5-.7-1-.7-1.7V3.1c0-.7.2-1.2.7-1.7.5-.5 1-.7 1.7-.7h7c.7 0 1.2.2 1.7.7.4.5.7 1 .7 1.7s-.2 1.2-.7 1.7c-.4.5-1 .7-1.7.7h-4.6v3.1h4.6c.7 0 1.2.2 1.7.7.4.5.7 1 .7 1.7s-.2 1.2-.7 1.7c-.4.5-1 .7-1.7.7h-4.6z"/><path class="st132" d="M22.2 21.5h-7c-.8 0-1.4-.3-2-.8-.5-.5-.8-1.2-.8-2V3.1c0-.8.3-1.5.8-2s1.2-.8 2-.8h7c.8 0 1.5.3 2 .8S25 2.3 25 3s-.3 1.4-.8 2c-.5.5-1.2.8-2 .8H18V8h4.2c.8 0 1.5.3 2 .8s.8 1.2.8 2-.3 1.5-.8 2-1.2.8-2 .8H18v2.3h4.2c.8 0 1.5.3 2 .8s.8 1.2.8 2c0 .7-.3 1.4-.8 2-.5.5-1.2.8-2 .8.1 0 .1 0 0 0zM13.9 1.7c-.4.4-.5.8-.6 1.4v15.6c0 .6.2 1 .6 1.4.4.4.8.6 1.3.6h7c.6 0 1-.2 1.4-.5.4-.4.5-.8.5-1.4 0-.6-.2-1-.5-1.4-.4-.4-.8-.6-1.4-.6h-4.6c-.1 0-.2 0-.3-.1-.1-.1-.1-.2-.1-.3v-3.2c0-.1 0-.2.1-.3.1-.1.2-.1.3-.1h4.6c.6 0 1-.2 1.4-.5.4-.4.5-.8.5-1.4 0-.6-.2-1-.5-1.4-.4-.4-.8-.5-1.4-.5h-4.6c-.1 0-.2 0-.3-.1-.1-.1-.1-.2-.1-.3V5.4c0-.1 0-.2.1-.3.1-.1.2-.1.3-.1h4.6c.6 0 1-.2 1.4-.6.4-.4.5-.8.5-1.4 0-.6-.2-1-.5-1.4-.4-.4-.8-.5-1.4-.5h-7c-.5 0-.9.2-1.3.6zm3.7 11.9v-.4.4z"/><path class="st200" d="M27.9 25l-4.3-4.3"/><path class="st132" d="M27.6 25.3L23.3 21c-.2-.2-.2-.4 0-.6.2-.2.4-.2.6 0l4.3 4.3c.2.2.2.4 0 .6-.1.1-.2.1-.3.1-.1 0-.2 0-.3-.1z"/><path class="st200" d="M28.2 16.8l-4.3-4.3"/><path class="st132" d="M27.9 17.1l-4.3-4.3c-.2-.2-.2-.4 0-.6.2-.2.4-.2.6 0l4.3 4.3c.2.2.2.4 0 .6-.1.1-.2.1-.3.1-.1 0-.2 0-.3-.1z"/><g><path class="st200" d="M28.2 9l-4.3-4.3"/><path class="st132" d="M27.9 9.3L23.6 5c-.2-.2-.2-.4 0-.6.2-.2.4-.2.6 0l4.3 4.3c.2.2.2.4 0 .6-.1.1-.2.1-.3.1-.1.1-.2 0-.3-.1z"/></g><g><path class="st200" d="M20.7 8.5l-3.1-3.1"/><path class="st132" d="M20.4 8.8l-3.1-3.1c-.2-.2-.2-.4 0-.6.2-.2.4-.2.6 0L21 8.2c.2.2.2.4 0 .6-.1.1-.2.1-.3.1-.1 0-.2-.1-.3-.1z"/></g><g><path class="st200" d="M20.8 16.3l-3.2-3.2"/><path class="st132" d="M20.5 16.7l-3.2-3.2c-.2-.2-.2-.4 0-.6.2-.2.4-.2.6 0l3.2 3.2c.2.2.2.4 0 .6-.1.1-.2.1-.3.1-.1 0-.2-.1-.3-.1z"/></g><g><path class="st199" d="M83.7 10.8c-.5-.4-1-.7-1.6-.9-.6-.2-1.2-.4-1.9-.4-.8 0-1.6.2-2.3.5-.7.3-1.3.7-1.8 1.2s-.9 1.1-1.2 1.8c-.3.7-.4 1.4-.4 2.2 0 .8.2 1.5.5 2.1.3.7.8 1.2 1.3 1.7s1.1.9 1.8 1.2c.7.3-.5-1.8.2-1.7.6 0 1.2-.1 1.9-.4.6-.2 1.2-.5 1.6-.9.5-.4.2-2 .9-2l4.3 4.3c.5.4.7 1 .7 1.7 0 .5-.1.9-.4 1.3-.3.3-.5.6-.7.8-.1.1-.3.3-.6.5s-.7.5-1.3.8c-.5.3-1.2.5-2 .7-.8.2-1.6.3-2.6.3-1.4 0-2.8-.3-4-.8-1.3-.6-2.3-1.3-3.3-2.2-.9-.9-5.4-5.6-5.4-5.6-.5-1.3 2.4-.3 2.4-1.7s-1.8-4.9-1.3-6.1c.5-1.3 1.3-2.4 2.2-3.3.9-.9 2-1.7 3.3-2.2 1.3-.5 4.7 1.3 6.1 1.3 1 0 1.9.1 2.6.3.8.2-.9-2.5-.3-2.2 0 0 4.1 4.1 4.1 4.2.2.2.5.5.7.8.3.3.4.7.4 1.3 0 .7-.2 1.2-.7 1.7-.5.5-1 .7-1.7.7-.4-.4-1-.6-1.5-1z"/><path class="st132" d="M76 25.1c-1.3-.6-2.4-1.3-3.4-2.3-.9-.9-5.4-5.6-5.4-5.6l-.1-.1c-.1-.2-.1-.3-.1-.5 0-.3.2-.6.5-.7.2-.1.5-.2.7-.2.5-.1.9-.1 1.1-.3.1-.1.2-.1.2-.3 0-.5-.3-1.5-.7-2.5-.3-1-.7-2.1-.7-3 0-.3 0-.5.1-.8.6-1.3 1.3-2.4 2.3-3.4 1-1 2.1-1.8 3.4-2.3.2-.1.5-.1.8-.1.9 0 2 .4 3 .7 1 .3 2 .7 2.5.7.8 0 1.6.1 2.3.2-.1-.2-.1-.4-.2-.6-.2-.4-.3-.7-.4-1.1 0-.1 0-.2.1-.3.1-.1.3-.2.4-.2.1 0 .2 0 .3.1l.1.1s3.9 4 4.1 4.1l-.2.2.2-.2.8.8c.3.4.5 1 .5 1.6 0 .8-.3 1.4-.8 2-.5.5-1.2.8-2 .8-.7 0-1.4-.3-2-.7-.4-.3-.9-.6-1.5-.8-.6-.2-1.1-.3-1.7-.4-.8 0-1.4.2-2.1.5-.6.3-1.2.7-1.7 1.1-.5.5-.8 1-1.1 1.6-.3.6-.4 1.3-.4 2s.1 1.3.4 1.9c.3.6.7 1.2 1.2 1.6l1.2.9c-.1-.2-.1-.5-.1-.8 0-.1 0-.3.1-.4.1-.2.3-.3.5-.3h.1c.6 0 1.1-.1 1.7-.3.6-.2 1.1-.5 1.5-.8l.2-.6c.1-.3.1-.7.2-1 .1-.2.4-.5.7-.5.1 0 .2 0 .3.1l4.3 4.3c.5.5.8 1.2.8 2 0 .6-.2 1.1-.5 1.5-.3.3-.5.6-.7.8-.1.1-.3.3-.7.5-.1.3-.6.6-1.1.9-.6.3-1.3.5-2 .7-.8.2-1.7.3-2.7.3-1.6 0-3-.3-4.3-.9zm-2.8-2.9c.9.9 1.9 1.6 3.1 2.1 1.2.5 2.5.8 3.9.8 1 0 1.8-.1 2.5-.3.7-.2 1.4-.4 1.9-.7.5-.3.9-.5 1.2-.7.3-.2.5-.4.6-.5.2-.2.4-.4.6-.7.2-.2.3-.5.3-1 0-.6-.2-1-.6-1.4l-4-4c0 .1 0 .2-.1.3-.1.4-.1 1-.5 1.4-.5.4-1.1.7-1.8 1-.6.2-1.2.4-1.8.4 0 .3.2.8.2 1.1 0 .1 0 .2-.1.3-.1.1-.3.3-.5.3-.1 0-.2 0-.3-.1-.7-.3-1.4-.8-1.9-1.3-.6-.5-1-1.2-1.4-1.9-.4-.7-.5-1.5-.5-2.3 0-.8.2-1.6.5-2.4.3-.7.7-1.4 1.3-1.9.5-.5 1.2-1 1.9-1.3.7-.3 1.5-.5 2.4-.6.7 0 1.4.2 2 .4.6.2 1.2.6 1.7 1l-.3.3.3-.3c.4.4.9.5 1.4.5.6 0 1-.2 1.4-.6.4-.4.6-.8.6-1.3s-.1-.8-.3-1l-.7-.7-.2-.2c0 .1-.2 0-.3-.2l-1.4-1.4-.9-.9c.1.2.1.4.1.6 0 .1 0 .2-.1.4s-.3.2-.5.2h-.2c-.7-.2-1.6-.3-2.5-.3-.8 0-1.8-.4-2.8-.7-1-.3-2.1-.7-2.7-.7-.2 0-.3 0-.4.1-1.3.5-2.3 1.2-3.2 2.1-.9.9-1.6 1.9-2.1 3.1 0 .1-.1.2-.1.4 0 .6.3 1.7.7 2.7.3 1 .7 2 .7 2.8 0 .4-.1.7-.4.9-.2.2-.5.3-.7.4-.5.1-1 .1-1.3.2.5.6 4.4 4.7 5.3 5.6z"/><path class="st0" d="M79.4 6.5c-.5-.4-1-.7-1.6-.9-.6-.2-1.2-.4-1.9-.4-.8 0-1.6.2-2.3.5-.6.3-1.2.7-1.7 1.2S71 8 70.7 8.7c-.3.7-.4 1.4-.4 2.2 0 .8.2 1.5.5 2.1.3.7.8 1.2 1.3 1.7s1.1.9 1.8 1.2c.7.3 1.4.5 2.1.6.6 0 1.2-.1 1.9-.4.6-.2 1.2-.5 1.6-.9.5-.4 1-.7 1.7-.7s1.2.2 1.7.7c.5.4.7 1 .7 1.7 0 .5-.1.9-.4 1.3-.3.3-.5.6-.7.8-.1.1-.3.3-.6.5s-.7.5-1.3.8c-.5.3-1.2.5-2 .7-.8.2-1.6.3-2.6.3-1.4 0-2.8-.3-4-.8-1.3-.6-2.4-1.3-3.3-2.2-.9-.9-1.7-2-2.2-3.3-.5-1.3-.8-2.6-.8-4s.3-2.8.8-4c.5-1.3 1.3-2.4 2.2-3.3.9-.9 2-1.7 3.3-2.2 1.3-.5 2.6-.8 4-.8 1 0 1.9.1 2.6.3.8.2 1.4.4 2 .7.5.3 1 .5 1.3.8.3.2.5.4.6.5.2.2.5.5.7.8.3.3.4.7.4 1.3 0 .7-.2 1.2-.7 1.7-.5.5-1 .7-1.7.7-.8-.4-1.3-.6-1.8-1z"/><path class="st132" d="M71.7 20.8c-1.3-.6-2.4-1.3-3.4-2.3-1-1-1.7-2.1-2.3-3.4-.6-1.3-.8-2.7-.8-4.2s.3-2.9.8-4.2c.6-1.3 1.3-2.4 2.3-3.4 1-1 2.1-1.8 3.4-2.3C73 .4 74.4.2 75.9.2c1 0 1.9.1 2.7.3.8.2 1.5.4 2 .7.6.3 1 .5 1.4.8.3.2.5.4.6.5l.8.8c.3.4.5 1 .5 1.6 0 .8-.3 1.4-.8 2-.5.5-1.2.8-2 .8-.7 0-1.4-.3-2-.7-.4-.3-.9-.6-1.5-.8-.6-.2-1.1-.3-1.7-.4-.8 0-1.4.2-2.1.5-.6.3-1.2.7-1.7 1.1-.5.5-.8 1-1.1 1.6-.3.6-.4 1.3-.4 2s.1 1.3.4 1.9c.3.6.7 1.2 1.2 1.6.5.5 1.1.9 1.7 1.2.6.3 1.3.5 1.9.5.6 0 1.1-.1 1.7-.3.6-.2 1.1-.5 1.5-.8.6-.5 1.2-.8 2-.8.7 0 1.4.3 2 .8.5.5.8 1.2.8 2 0 .6-.2 1.1-.5 1.5-.3.3-.5.6-.7.8-.1.1-.3.3-.7.5-.4.3-.8.5-1.4.8-.6.3-1.3.5-2 .7-.8.2-1.7.3-2.7.3-1.4 0-2.8-.3-4.1-.9zM75.9.9c-1.4 0-2.7.3-3.9.8-1.2.5-2.3 1.2-3.1 2.1-.9.9-1.6 2-2.1 3.2-.6 1.2-.8 2.5-.8 3.8 0 1.4.3 2.7.8 3.9.5 1.2 1.2 2.3 2.1 3.2.9.9 1.9 1.6 3.1 2.1 1.2.5 2.5.8 3.9.8 1 0 1.8-.1 2.5-.3.7-.2 1.4-.4 1.9-.7.5-.3.9-.5 1.2-.7.3-.2.5-.4.6-.5.2-.2.4-.4.6-.7.2-.2.3-.5.3-1 0-.6-.2-1-.6-1.4-.4-.4-.8-.5-1.4-.5-.5 0-1 .2-1.4.6-.5.4-1.1.7-1.8 1-.7.3-1.3.4-2 .4-.8-.1-1.5-.3-2.2-.6-.7-.3-1.4-.8-1.9-1.3-.6-.5-1-1.2-1.4-1.9-.4-.7-.5-1.5-.5-2.3 0-.8.2-1.6.5-2.4.3-.7.7-1.4 1.3-1.9.5-.5 1.2-1 1.9-1.3.7-.3 1.5-.5 2.4-.6.7 0 1.4.2 2 .4.6.2 1.2.6 1.7 1l-.3.3.3-.3c.4.4.9.5 1.4.5.6 0 1-.2 1.4-.6.4-.3.6-.7.6-1.2s-.1-.8-.3-1l-.7-.7c0-.1-.2-.3-.5-.5s-.7-.5-1.2-.7c-.5-.2-1.1-.5-1.9-.7-.7-.2-1.6-.3-2.5-.3z"/><g><path class="st200" d="M87 23l-4.3-4.3"/><path class="st132" d="M86.7 23.3L82.4 19c-.2-.2-.2-.4 0-.6.2-.2.4-.2.6 0l4.3 4.3c.2.2.2.4 0 .6-.1.1-.2.1-.3.1-.1 0-.2 0-.3-.1z"/></g><g><path class="st200" d="M83.9 10.9l-4.3-4.3"/><path class="st132" d="M83.6 11.2l-4.3-4.3c-.2-.2-.2-.4 0-.6.2-.2.4-.2.6 0l4.3 4.3c.2.2.2.4 0 .6-.1.1-.2.1-.3.1-.1.1-.2 0-.3-.1z"/></g></g><g><path class="st199" d="M34.5 9.6h-2c-.3 0-.6-.1-.8-.2-.3-.1-.5-.3-.7-.5l-4-4s2.9-3.5 3.5-.6c.1.3-.1 2.4 0 2.1.1-.3.3-.6.5-.8.2-.2.5-.4.7-.5.3-.1.6-.2.8-.2l3.7-1.8c.3 0 2.2-1.8 2.2-1.8l4.3 4.3c.2.2.4.5.5.8.1.3.2.6.2.9 0 .3-.1.5-.2.8-.1.3-.3.5-.5.7-.2.2-.5.4-.7.5-.3.1-.6.2-.9.2h-2V23c0 .7-.2 1.2-.7 1.6-.5.4-1 .6-1.7.6s-1.2-.2-1.7-.6c-.5-.4-4.3-4.3-4.3-4.3l3.8-10.7z"/><path class="st132" d="M36.8 25.8c-.7 0-1.4-.2-1.9-.7-.5-.4-4.3-4.3-4.3-4.3-.1-.1-.2-.3-.1-.4L33.9 10h-1.4c-.4 0-.7-.1-1-.2-.3-.2-.6-.4-.8-.6l-4-4c-.2-.2-.2-.4 0-.6 0 0 .4-.5.9-.9.5-.5 1.2-1 1.9-1s1.2.6 1.4 1.5V5.1c.1-.1.3-.3.6-.4.3-.1.6-.2.9-.2L36 2.7h.2c.1 0 .2-.1.3-.2.2-.2.5-.4.7-.6.5-.4 1-.9 1-.9.2-.2.4-.2.6 0l4.3 4.3c.3.3.5.6.6.9.1.3.2.7.2 1.1 0 .3-.1.7-.2 1-.1.3-.3.6-.6.9-.3.3-.5.5-.9.6-.3.2-.7.2-1 .2h-1.6v13.1c0 .8-.3 1.5-.8 2-.6.5-1.2.7-2 .7zm-3.7-3.7l2.3 2.3c.4.3.8.5 1.4.5.6 0 1-.2 1.4-.5.4-.3.5-.7.5-1.3V9.6c0-.1 0-.2.1-.3.1-.1.2-.1.3-.1h2c.2 0 .4-.1.7-.2.2-.1.4-.3.6-.4.2-.2.3-.4.4-.6.2-.3.2-.5.2-.7 0-.3-.1-.5-.2-.8-.1-.3-.2-.5-.4-.6l-4-4c-.5.4-1.3 1.2-1.8 1.5-.1 0-.1.1-.3.1l-3.7 1.8h-.2c-.2 0-.4 0-.7.1-.2.1-.4.2-.6.4-.2.2-.3.4-.4.6 0 0 0 .1-.1.1 0 0-.1.2-.3.2-.2 0-.3-.1-.4-.2.1.1.1.1.1 0v-.1-.2c0-.4.1-1.3.1-1.7v-.2c-.2-.8-.3-.8-.5-.8-.3 0-.9.3-1.4.8-.2.2-.4.4-.6.5.9.9 3.5 3.6 3.7 3.7.2.2.4.3.6.4.2.1.4.2.6.2h2v.4-.3c.1 0 .3.1.4.2.1.1.1.3.1.4l-3.5 10.6c.2.3.9 1 1.6 1.7z"/><path class="st0" d="M30.2 5.3h-2c-.3 0-.6-.1-.8-.2-.3-.1-.5-.3-.7-.5-.2-.2-.4-.5-.5-.7-.2-.3-.3-.6-.3-.9 0-.3.1-.6.2-.9.1-.3.3-.6.5-.8.2-.2.5-.4.7-.5.3-.1.6-.2.8-.2h8.7c.3 0 .6.1.9.2.3.1.5.3.7.5.2.2.4.5.5.8.1.3.2.6.2.9 0 .3-.1.5-.2.8-.1.3-.3.5-.5.7-.2.2-.5.4-.7.5-.3.1-.6.2-.9.2h-2v13.5c0 .7-.2 1.2-.7 1.6-.5.4-1 .6-1.7.6s-1.2-.2-1.7-.6c-.5-.4-.7-.9-.7-1.6V5.3z"/><path class="st132" d="M32.5 21.5c-.7 0-1.4-.2-2-.7-.6-.5-.8-1.2-.8-2V5.7h-1.5c-.4 0-.7-.1-1-.2-.3-.2-.6-.4-.8-.6-.4-.3-.6-.6-.7-.9-.2-.3-.2-.7-.2-1 0-.4.1-.8.2-1.1.1-.3.3-.6.6-.9.3-.3.5-.5.9-.6.3-.2.7-.2 1-.2h8.7c.4 0 .7.1 1 .2.3.1.6.4.9.6.3.3.5.6.6.9.1.3.2.7.2 1.1 0 .3-.1.7-.2 1-.1.3-.3.6-.6.9-.2.3-.5.5-.9.6-.3.2-.7.2-1 .2h-1.6v13.1c0 .8-.3 1.5-.8 2-.6.4-1.2.7-2 .7zM30.5 5c.1.1.1.2.1.3v13.5c0 .6.2 1 .5 1.3.4.3.8.5 1.4.5.6 0 1-.2 1.4-.5.4-.3.5-.7.5-1.3V5.3c0-.1 0-.2.1-.3.1-.1.2-.1.3-.1h2c.2 0 .4-.1.7-.2.2-.1.4-.3.6-.4.2-.2.3-.4.4-.6.1-.2.1-.4.1-.6 0-.3-.1-.5-.2-.8-.1-.3-.2-.5-.4-.6-.2-.2-.4-.3-.6-.4-.1-.2-.3-.3-.6-.3h-8.7c-.2 0-.4 0-.7.1-.2.1-.4.2-.6.4-.2.2-.3.4-.4.6-.1.2-.2.5-.2.8 0 .2 0 .4.1.6.1.2.2.4.4.6.2.2.4.3.6.4.2.1.4.2.6.2h2v.4-.2c.4 0 .5 0 .6.1z"/><g><path class="st200" d="M39.2 9.6l-4.4-4.3"/><path class="st132" d="M38.9 9.9l-4.3-4.3c-.2-.2-.2-.4 0-.6.2-.2.4-.2.6 0l4.3 4.3c.2.2.2.4 0 .6-.1.1-.2.1-.3.1-.2 0-.3 0-.3-.1z"/></g><g><path class="st200" d="M39.1 23.8l-4.3-4.3"/><path class="st132" d="M38.8 24.1l-4.3-4.3c-.2-.2-.2-.4 0-.6.2-.2.4-.2.6 0l4.3 4.3c.2.2.2.4 0 .6-.1.1-.2.1-.3.1-.1 0-.2 0-.3-.1z"/></g></g><g><path class="st199" d="M43.7 5.1c.5-.4.3-3.8.9-3.8l4.3 4.3c.4.4.7 1 .7 1.6v4.2c0 .7-.2 1.2-.7 1.6-.4.4-1 .7-1.7.7-.6 0-1.2-.2-1.7-.7L41 8.5l3.9-3.4c0-.7-1.7.5-1.2 0z"/><path class="st132" d="M47.3 14.2c-.7 0-1.4-.3-2-.8l-4.6-4.6c-.1-.1-.2-.3-.1-.4L44.5 5v-.1c-.1-.1-.1-.2-.3-.3-.2-.2-.5 1.7-.7 1.4-.1-.2-.3-.4-.3-.7 0-.2.1-.4.2-.5v-.1c0-.1.1-.2.1-.3.1-.3.1-.7.1-1.1.1-.8.1-1.6.4-2.1.1-.1.3-.3.6-.3.1 0 .2 0 .3.1l4.3 4.3c.6.5.8 1.2.8 2v4.2c0 .8-.3 1.4-.8 1.9s-1.2.8-1.9.8zm-3.1-8.7c.1.1.3.3.4.5.3.4.7-1.5.8-.9v.1l-3.8 3.2 4.4 4.4c.4.4.8.5 1.4.5.6 0 1-.2 1.4-.5.4-.4.5-.8.5-1.3V7.3c0-.6-.2-1-.5-1.3l-4-4c0 .1-.1.3-.1.5-.1.6-.1 1.3-.2 1.9-.1.4-.1.7-.3.9-.1.1-.1.1 0 .2zm-.3-.2l-.2-.2.2.2z"/><path class="st0" d="M41.3 1.3c.5-.4 1-.7 1.7-.7s1.2.2 1.7.7c.4.4.7 1 .7 1.6v4.2c0 .7-.2 1.2-.7 1.6-.4.4-1 .7-1.7.7-.6 0-1.2-.2-1.7-.7-.5-.4-.7-1-.7-1.6V2.9c0-.6.2-1.2.7-1.6z"/><path class="st132" d="M42.9 9.9c-.7 0-1.4-.3-2-.8-.5-.5-.8-1.2-.8-2V2.9c0-.8.3-1.4.8-2 .5-.5 1.2-.8 2-.8s1.5.3 2 .8.8 1.2.8 1.9V7c0 .7-.3 1.4-.8 1.9-.5.7-1.2 1-2 1 .1 0 .1 0 0 0zm-1.9-7v4.2c0 .5.2 1 .6 1.3.4.4.8.6 1.3.6.6 0 1-.2 1.4-.5.4-.4.5-.8.5-1.3V2.9c0-.6-.2-1-.5-1.3-.4-.4-.8-.5-1.4-.5-.6 0-1 .2-1.4.5-.3.4-.5.8-.5 1.3z"/><g><path class="st200" d="M49.6 11.9l-4.4-4.3"/><path class="st132" d="M49.3 12.3L45 8c-.2-.2-.2-.4 0-.6.2-.2.4-.2.6 0l4.3 4.3c.2.2.2.4 0 .6-.1.1-.2.1-.3.1-.1 0-.3-.1-.3-.1z"/></g></g><g><path class="st199" d="M49.7 17.8c0-.7 1.4 1.8 1.9 1.4.4-.4.9-.6 1.5-.6.5 0 .9.1 1.3.4.3.3.6.5.9.8.2.3-1.5-1.4-1.2-1.2.3.2.6.3 1 .3s.7-.1 1-.4c.3-.3.4-.6.4-1s-.1-.7-.2-.9c-.1-.3 1.6 1.4 1.4 1.3-.2-.2-.4-.3-.7-.4l-.9-.3c-.7-.2-1.4-.5-2-.9-.6-.4-1.1-.8-1.6-1.3-.4-.5-4.1-4.1-4.1-4.1s2.7 1 2.7.3c0-.9.1-1.8.4-2.6.3-.8-1.4-3.5-.8-4 .5-.5 3.2 1.1 4 .8.7-.3 1.6-.4 2.5-.4.5 0 .1-2.3.1-2.3L61.6 7c.4.4.7 1 .9 1.5.1.3.2.6.2.8 0 .7-.2 1.2-.7 1.7-.5.5-1 .7-1.7.7-.4 0-.8-.1-1.2-.3-.3-.2-1.8-1.7-1.8-1.7-.1-.1-.3-.1-.3-.1-.3 0-.6.1-.9.4-.2.3-.4.6-.4.9 0 .3.1.5.2.7.1.2.3.3.5.5s.4.3.7.4c.2.1.5.2.7.3l.4.2c.8.4-.6-1.8-.6-1.8s3.9 3.8 4.3 4.3c.4.5.7 1.1.9 1.7.2.6.3 1.4.3 2.2 0 .9-.2 1.6-.5 2.4-.3.7-.7 1.4-1.3 2-.5.6-1.2 1-1.9 1.3-.7.3-1.5.5-2.3.5-.7 0-1.4-.1-2.2-.3-.7-.2-1.4-.5-2-.9-.6-.4-5-4.8-5-4.8s1.8-1 1.8-1.8z"/><path class="st132" d="M54.8 25.6c-.8-.2-1.5-.5-2.1-.9-.2-.2-.6-.5-1.1-1L49.9 22l-2.3-2.3c-.1-.1-.1-.2-.1-.4 0-.1.1-.3.2-.3 0 0 .4-.2.8-.5s.8-.7.7-.8c0-.1 0-.2.1-.3 0-.1.3-.3.4-.3.2 0 .3.1.4.2l.2.2c.1.1.3.3.4.5.2.3.5.5.6.7.5-.4 1.1-.6 1.7-.6.2 0 .4 0 .6.1.1 0 .2-.1.2-.1.2 0 .2 0 .2.1h.1c.2.1.4.2.7.2.3 0 .5-.1.6-.3.2-.2.3-.4.3-.6h-.1c-.7-.2-1.4-.6-2.1-1-.6-.4-1.2-.9-1.7-1.4-.2-.2-1.2-1.3-2.2-2.2L47.7 11c-.1-.1-.2-.4-.1-.5.1-.2.3-.2.5-.2 0 0 .4.1.8.3.4.1 1 .3 1.3.3 0-.9.2-1.8.5-2.6v-.1c0-.3-.2-.9-.5-1.6.1-.6-.2-1.3-.2-1.8 0-.2 0-.4.2-.7.2-.2.5-.2.7-.2.6 0 1.2.3 1.9.5.6.2 1.3.5 1.5.4h.1c.8-.3 1.6-.5 2.5-.5V4c0-.6-.2-1.5-.2-1.5 0-.2.1-.4.2-.5.2 0 .4 0 .5.1l4.3 4.3c.4.5.7 1 .9 1.7.1.3.2.7.2 1 0 .8-.3 1.4-.8 2-.5.5-1.2.8-2 .8-.5 0-.9-.1-1.4-.4-.3-.2-.7-.6-1.1-1l-.7-.7h-.1c-.2 0-.4.1-.5.3-.2.2-.2.4-.3.7 0 .2 0 .3.1.4.1.1.2.3.4.4l.6.3c.2.1.3.1.5.2 0-.1-.1-.1-.1-.2-.2-.4-.4-.7-.4-.7-.1-.2-.1-.4.1-.6.2-.1.4-.1.6 0l2 2c1 1 2.1 2.1 2.3 2.4.4.6.8 1.2 1 1.9.2.7.3 1.5.3 2.4 0 .9-.2 1.8-.5 2.6s-.8 1.5-1.3 2.1c-.6.6-1.2 1.1-2 1.4-.8.3-1.6.5-2.5.5-.7 0-1.5-.1-2.2-.3zm-2.6-2.5c.5.5.9.8 1 .9.5.4 1.2.6 1.8.8.7.2 1.4.3 2.1.3.8 0 1.5-.1 2.1-.4.7-.3 1.2-.7 1.7-1.2s.9-1.1 1.2-1.8c.3-.7.4-1.4.4-2.2 0-.8-.1-1.5-.3-2.1-.2-.6-.4-1.1-.8-1.6-.1-.2-1.3-1.3-2.3-2.3-.2-.1-.3-.3-.4-.4 0 .1 0 .1-.1.2s-.3.2-.4.2c-.1 0-.2 0-.3-.1l-.4-.4c-.2-.1-.5-.2-.7-.3-.3-.1-.5-.3-.8-.4l-.6-.6c-.2-.3-.3-.6-.3-.9 0-.4.2-.9.5-1.2.3-.4.8-.6 1.2-.6h.1c.1 0 .3 0 .5.1l.8.8c.4.4.9.8.9.9.4.2.7.3 1 .3.5 0 1-.2 1.3-.6.4-.4.6-.8.6-1.4 0-.2 0-.5-.1-.7-.2-.5-.4-1-.8-1.4l-2.3-2.3-1.1-1.1V4c0 .3 0 .6-.2.9-.1.1-.3.2-.4.2-.9 0-1.7.1-2.4.4-.1.1-.3.1-.4.1-.6 0-1.2-.3-1.8-.5-.6-.2-1.3-.5-1.6-.4 0 .3.2.9.5 1.6.2.7.5 1.3.5 1.9 0 .1 0 .2-.1.4-.3.7-.4 1.5-.4 2.4 0 .2-.2.5-.4.6-.2.1-.4.1-.5.1-.2 0-.4 0-.7-.1l2.9 2.9c.4.5.9.9 1.5 1.3.5.3 1 .6 1.6.8v-.1c0-.1 0-.2.1-.3.1-.1.2-.2.3-.2.2 0 .2.1.2.1s.1 0 .1.1c.1 0 .1.1.2.1.1.1.3.2.4.4.3.3.6.6.8.7l.1.1.1.2v.1c0 .1-.2.3-.4.3h-.2c-.1-.1-.3-.2-.6-.3-.1.4-.2.7-.5.9-.3.3-.6.5-.9.5.1.1.2.2.2.3v.1l.1.2c0 .1-.1.3-.2.3-.1.1-.1.1-.2.1h-.1c-.2 0-.2-.1-.2-.1L55 20l-.3-.3-.5-.5c-.2-.1-.5-.2-.9-.2-.5 0-.9.2-1.3.5-.1.1-.3.2-.4.2-.3 0-.5-.2-.6-.3-.2-.1-.3-.3-.5-.5-.1-.2-.3-.3-.4-.5-.2.3-.6.6-.9.8-.2.1-.3.2-.4.3.6.8 2.3 2.5 3.4 3.6z"/><path class="st0" d="M46.6 16.6c0-.7.2-1.2.7-1.7.4-.4.9-.6 1.5-.6.5 0 .9.1 1.3.4.3.3.6.5.9.8.2.3.4.5.7.7.3.2.6.3 1 .3s.7-.1 1-.4c.3-.3.4-.6.4-1s-.1-.7-.2-.9c-.1-.3-.3-.5-.5-.6-.2-.2-.4-.3-.7-.4l-.9-.3c-.7-.2-1.4-.5-2-.9-.8-.5-1.3-1-1.8-1.5-.4-.5-.8-1.1-1-1.7-.3-.6-.4-1.3-.4-2.1 0-.9.1-1.8.4-2.6.3-.8.7-1.4 1.2-2 .5-.5 1.2-1 1.9-1.3.7-.3 1.6-.4 2.5-.4.5 0 1 .1 1.6.2.5.2 1 .4 1.5.7.5.3.9.7 1.3 1.1.4.4.7 1 .9 1.5.1.3.2.6.2.8 0 .7-.2 1.2-.7 1.7-.5.5-1 .7-1.7.7-.4 0-.8-.1-1.2-.3-.4-.2-.7-.5-.9-1-.1-.3-.3-.5-.6-.6-.2-.1-.5-.2-.6-.2-.3 0-.6.1-.9.4-.2.3-.4.6-.4.9 0 .3.1.5.2.7.1.2.3.3.5.5s.4.3.7.4c.2.1.5.2.7.3l.4.2c.8.4 1.6.8 2.2 1.2.6.4 1.1.9 1.5 1.4.4.5.7 1.1.9 1.7.2.6.3 1.4.3 2.2 0 .9-.2 1.6-.5 2.4-.3.7-.7 1.4-1.3 2-.5.6-1.2 1-1.9 1.3-.7.3-1.5.5-2.3.5-.7 0-1.4-.1-2.2-.3-.7-.2-1.4-.5-2-.9-.6-.4-1.1-.9-1.4-1.4-.1-.5-.3-1.2-.3-1.9z"/><path class="st132" d="M50.4 21.3c-.8-.2-1.5-.5-2.1-.9-.6-.4-1.2-.9-1.6-1.6-.4-.7-.6-1.4-.6-2.2 0-.8.3-1.5.8-2s1.1-.7 1.8-.7c.6 0 1.1.1 1.5.5l.9.9.6.6c.2.1.4.2.7.2.3 0 .5-.1.6-.3.2-.2.3-.4.3-.7 0-.3-.1-.6-.2-.8-.1-.2-.2-.4-.4-.5l-.6-.3-.9-.3c-.7-.2-1.4-.6-2.1-1-.6-.4-1.2-.9-1.7-1.4-.5-.6-.8-1.2-1.1-1.9-.3-.7-.4-1.5-.4-2.3 0-1 .2-1.9.5-2.7.6-.8 1-1.5 1.6-2.1.6-.6 1.3-1 2.1-1.4.8-.2 1.7-.4 2.6-.4.6 0 1.1.1 1.7.2.6.2 1.1.5 1.7.8.5.3 1 .7 1.4 1.2.4.5.7 1 .9 1.7.1.3.2.7.2 1 0 .8-.3 1.4-.8 2-.5.5-1.2.8-2 .8-.5 0-.9-.1-1.4-.4-.4-.3-.8-.7-1-1.2-.1-.2-.2-.4-.4-.4-.2-.1-.4-.1-.5-.1-.2 0-.4.1-.5.3-.2.2-.2.4-.3.7 0 .2 0 .3.1.4.2 0 .3.2.5.3l.6.3c.2.1.5.2.7.3l.3.2c.9.4 1.6.8 2.3 1.2.7.4 1.2.9 1.6 1.5.4.6.8 1.2 1 1.9.2.7.3 1.5.3 2.4 0 .9-.2 1.8-.5 2.6s-.8 1.5-1.3 2.1c-.6.6-1.2 1.1-2 1.4-.8.3-1.6.5-2.5.5-.8-.1-1.6-.2-2.4-.4zM47 16.6c0 .7.2 1.3.5 1.8s.8 1 1.3 1.3c.5.4 1.2.6 1.8.8.7.2 1.4.3 2.1.3.8 0 1.5-.1 2.1-.4.7-.3 1.2-.7 1.7-1.2s.9-1.1 1.2-1.8c.3-.7.4-1.4.4-2.2 0-.8-.1-1.5-.3-2.1-.2-.6-.4-1.1-.8-1.6s-.8-.9-1.4-1.3c-.6-.4-1.3-.8-2.2-1.2l-.3-.2c-.2-.1-.5-.2-.7-.3-.2-.2-.4-.3-.7-.5l-.6-.6c-.2-.3-.3-.6-.3-.9 0-.4.2-.9.5-1.2.3-.4.7-.6 1.2-.6.3 0 .5.1.8.2.4.2.6.5.8.8.2.3.4.6.7.8.4.2.7.3 1 .3.5 0 1-.2 1.3-.6.4-.4.6-.8.6-1.4 0-.2 0-.5-.1-.7-.2-.5-.4-1-.8-1.4-.4-.4-.7-.7-1.2-1-.5-.3-.9-.5-1.4-.6-.5-.1-1-.2-1.4-.2-.9 0-1.7.1-2.4.4-.7.3-1.3.7-1.8 1.2s-.9 1.1-1.1 1.8c-.3.7-.5 1.5-.5 2.4 0 .7.1 1.4.3 1.9.2.6.6 1.1 1 1.6s.9.9 1.5 1.3 1.2.7 1.9.9c.4.1.7.2 1 .3.3.1.6.3.8.5.3.2.5.5.6.8.1.3.2.7.2 1.1 0 .5-.2.9-.5 1.3s-.8.6-1.3.6-.9-.1-1.2-.4c-.3-.2-.5-.5-.8-.7-.2-.3-.5-.5-.8-.8-.2-.2-.5-.3-1-.3s-.9.2-1.2.5c-.3.3-.5.7-.5 1.3z"/><g><path class="st200" d="M57.8 25.4l-4.4-4.3"/><path class="st132" d="M57.5 25.7l-4.3-4.3c-.2-.2-.2-.4 0-.6.2-.2.4-.2.6 0l4.3 4.3c.2.2.2.4 0 .6-.1.1-.2.1-.3.1-.1.1-.3 0-.3-.1z"/></g><g><path class="st200" d="M58.5 10.8l-4.3-4.3"/><path class="st132" d="M58.2 11.2l-4.3-4.3c-.2-.2-.2-.4 0-.6.2-.2.4-.2.6 0l4.3 4.3c.2.2.2.4 0 .6-.1.1-.2.1-.3.1-.1 0-.2-.1-.3-.1z"/></g></g><g><path class="st199" d="M93.8 12.8h5.5V7.2c0-.7-1.5-1.7-1.1-2.1.5-.4-.1-4.1.5-4.1l4.6 4.5c.4.4.7 1 .7 1.6V23c0 .7-.2 1.2-.7 1.6-.4.4-1 .7-1.7.7s-1.2-.2-1.7-.7c-.5-.4-4.7-4.8-4.7-4.8l4-2.5h-5.5v5.6c0 .7-.2 1.2-.7 1.6-.5.4-1 .7-1.7.7s-1.2-.2-1.7-.7c-.5-.4-4.7-4.7-4.7-4.7l4-12.9c0-.7-2-1.7-1.6-2.1.5-.4.6-3.8 1.2-3.8l4.3 4.3c.3.3.7 1 .7 1.6v5.9z"/><path class="st132" d="M101.6 25.9c-.7 0-1.4-.3-2-.8-.5-.5-4.7-4.8-4.7-4.8-.1-.1-.1-.2-.1-.4 0-.1.1-.2.2-.3l2.7-1.7h-3.6v5.2c0 .7-.3 1.4-.8 1.9s-1.2.8-2 .8c-.7 0-1.4-.3-2-.8l-4.7-4.7c-.1-.1-.2-.3-.1-.4l4-12.8s0-.1-.1-.1l-.3-.3c-.1-.2-.5-.5-.7-.7-.2-.2-.4-.4-.4-.8 0-.2.1-.4.2-.5v-.1c0-.1.1-.2.1-.3.1-.3.1-.7.2-1.1.2-.8.3-1.6.6-2.1.1-.1.3-.3.6-.3.1 0 .2 0 .3.1l4.3 4.3c.4.4.8 1.1.8 1.9v5.2h4.7V7.2s0-.1-.1-.2-.2-.3-.4-.5c-.3-.4-.6-.6-.7-1.2 0-.2.1-.4.2-.5v-.3-1-.8c0-.7 0-1.3.2-1.8.1-.2.3-.4.6-.4.1 0 .2 0 .3.1l4.6 4.5c.5.5.8 1.2.8 1.9v15.9c0 .7-.3 1.4-.8 1.9-.4.8-1.1 1.1-1.9 1.1.1 0 .1 0 0 0zm-1.3-1.4c.4.4.8.5 1.4.5.6 0 1-.2 1.4-.5.4-.4.5-.8.5-1.3v-16c0-.6-.2-1-.5-1.3L99 1.8v2.8c0 .3 0 .5-.2.8 0 0 0 .1.1.1-.1.1 0 .3.1.5.3.4.6.7.7 1.3v5.6c0 .1 0 .2-.1.3-.1.1-.2.1-.3.1h-5.5c-.1 0-.2 0-.3-.1-.1-.1-.1-.2-.1-.3V7.3c0-.5-.3-1.1-.6-1.3l-4-4c-.1.1-.1.3-.2.6-.1.6-.3 1.3-.4 1.9-.1.3-.1.6-.3.9l.3.3c.3.3.6.5.9.8.2.2.3.4.4.8v.1L85.6 20l4.5 4.5c.4.4.8.5 1.4.5.6 0 1-.2 1.4-.5.4-.4.5-.8.5-1.3v-5.6c0-.1 0-.2.1-.3.1-.1.2-.1.3-.1h5.5c.2 0 .4.1.4.3.1.2 0 .4-.2.5L96 20.1c1 1.1 3.9 4 4.3 4.4z"/><path class="st0" d="M89.4 8.5H95V2.9c0-.7.2-1.2.7-1.6.5-.4 1-.7 1.7-.7s1.2.2 1.7.7c.4.4.7 1 .7 1.6v15.9c0 .7-.2 1.2-.7 1.6-.4.4-1 .7-1.7.7s-1.2-.2-1.7-.7c-.5-.4-.7-1-.7-1.6v-5.6h-5.5v5.6c0 .7-.2 1.2-.7 1.6-.5.4-1 .7-1.7.7s-1.2-.2-1.7-.7c-.5-.4-.7-1-.7-1.6V2.9c0-.7.2-1.2.7-1.6.5-.4 1-.7 1.7-.7s1.2.2 1.7.7c.5.4.7 1 .7 1.6v5.6z"/><path class="st132" d="M97.3 21.6c-.7 0-1.4-.3-2-.8-.5-.5-.8-1.2-.8-2v-5.2h-4.7v5.2c0 .7-.3 1.4-.8 1.9s-1.2.8-2 .8c-.7 0-1.4-.3-2-.8-.5-.5-.8-1.2-.8-2V2.9c0-.8.3-1.4.8-2 .5-.5 1.2-.8 2-.8.7 0 1.4.3 2 .8.5.5.8 1.2.8 1.9V8h4.7V2.9c0-.8.3-1.4.8-2 .5-.5 1.2-.8 2-.8s1.5.3 2 .8.8 1.2.8 1.9v15.9c0 .7-.3 1.4-.8 1.9-.5.7-1.2 1-2 1zM95 12.8c.1 0 .2 0 .3.1.1.1.1.2.1.3v5.6c0 .5.2 1 .6 1.3.4.4.8.5 1.4.5.6 0 1-.2 1.4-.5.4-.4.5-.8.5-1.3V2.9c0-.6-.2-1-.5-1.3-.5-.4-.9-.6-1.5-.6s-1 .2-1.4.5c-.4.4-.6.8-.6 1.3v5.6c0 .1 0 .2-.1.3-.1.1-.2.1-.3.1h-5.5c-.1 0-.2 0-.3-.1 0 0-.1-.1-.1-.2V2.9c0-.6-.2-1-.5-1.3-.4-.4-.8-.6-1.4-.6-.6 0-1 .2-1.4.5-.4.4-.6.8-.6 1.3v15.9c0 .5.2 1 .6 1.3.4.4.8.5 1.4.5.6 0 1-.2 1.4-.5.4-.4.5-.8.5-1.3v-5.6c0-.1 0-.2.1-.3.1-.1.2-.1.3-.1H95v.1z"/><path class="st200" d="M93.8 17.5l-4.4-4.3"/><path class="st132" d="M93.5 17.8l-4.3-4.3c-.2-.2-.2-.4 0-.6.2-.2.4-.2.6 0l4.3 4.3c.2.2.2.4 0 .6-.1.1-.2.2-.3.2-.2 0-.3-.1-.3-.2z"/><g><path class="st200" d="M103.9 23.7l-4.3-4.4"/><path class="st132" d="M103.6 24l-4.3-4.3c-.2-.2-.2-.4 0-.6.2-.2.4-.2.6 0l4.3 4.3c.2.2.2.4 0 .6-.1.1-.2.1-.3.1-.1 0-.2-.1-.3-.1z"/></g><g><path class="st200" d="M93.7 23.7l-4.3-4.4"/><path class="st132" d="M93.4 24l-4.3-4.3c-.2-.2-.2-.4 0-.6.2-.2.4-.2.6 0l4.3 4.3c.2.2.2.4 0 .6-.1.1-.2.1-.3.1-.1 0-.2-.1-.3-.1z"/></g></g><g><path class="st199" d="M120.4 23.2c0 .7-.2 1.2-.7 1.7-.5.4-1 .6-1.7.6-.6 0-1.1-.2-1.5-.5-.2-.2-4.5-4.4-4.5-4.4l-.9 1.2c-.4.7-.8 1.3-1.1 1.8-.3.5-.6.8-.9 1.1-.3.3-.5.5-.8.6-.3.1-.5.2-.8.2-.7 0-1.2-.2-1.7-.6-.4-.4-.7-1-.7-1.7 0-.2.1-.4.2-.7.1-.3.2-.5.3-.6l3.7-12.5c.3-.5 4.9-4.4 5.4-4.7.5-.3 0-3.8.6-3.8 0 0 4.2 4.1 4.5 4.5.3.4.5.8.5 1.4v16.4zm-7-5.9h2.3v-3.4l-2.3 3.4z"/><path class="st132" d="M105.6 25.1c-.5-.5-.8-1.2-.8-2 0-.3.1-.6.2-.9l.3-.6L109 9.3l.1-.1c.1-.2.3-.4.6-.7.3-.3.7-.6 1.2-1 .9-.8 1.9-1.7 2.7-2.3.5-.4.8-.6 1-.8 0-.1 0-.2.1-.3 0-.3 0-.6.1-1 0-.8 0-1.6.2-2.1.1-.1.2-.4.6-.4.1 0 .2 0 .3.1 0 0 4.2 4.1 4.5 4.5.4.5.6 1.1.6 1.7v16.3c0 .8-.3 1.5-.8 2s-1.2.8-2 .8c-.6 0-1.3-.2-1.8-.6-.1-.1-.2-.1-.3-.3l-.5-.5-1.5-1.5-1.8-1.8-.6.8c-.4.7-.8 1.3-1.1 1.8-.3.5-.6.9-.9 1.2-.3.3-.6.5-.9.7-.3.1-.6.2-1 .2-1-.1-1.7-.4-2.2-.9zM118 25c.6 0 1-.2 1.4-.5.4-.3.5-.8.5-1.4V6.9c0-.5-.1-.8-.4-1.1l-4-4v.7c0 .8 0 1.6-.1 2.2-.1.2-.1.3-.3.5-.1 0-.9.7-1.8 1.4-.9.8-1.9 1.6-2.6 2.3-.4.3-.7.7-.8.8L106.1 22l-.1.1c0 .1-.1.2-.2.5-.1.2-.1.4-.1.5 0 .6.2 1 .5 1.4.4.3.8.5 1.4.5.2 0 .4 0 .6-.1.2-.1.4-.2.6-.5.2-.3.5-.6.8-1.1.3-.5.7-1.1 1.1-1.8l.9-1.2c.1-.1.2-.2.3-.2.1 0 .3 0 .3.1l2.1 2.1c1.1 1 2.2 2.2 2.4 2.3.4.3.8.4 1.3.4zm-4.6-7.2c-.2 0-.3-.1-.4-.2-.1-.1-.1-.3 0-.4l2.3-3.4c.1-.2.3-.2.5-.2.2.1.3.2.3.4v3.4c0 .1 0 .2-.1.3-.1.1-.2.1-.3.1h-2.3zm1.8-.9v-1.6l-1.1 1.6h1.1z"/><path class="st199" d="M105.9 24.8l-4.3-4.3 5.2-3.1 4.3 4.3c-.4.7-.8 1.3-1.1 1.8-.3.5-.6.8-.9 1.1-.3.3-.5.5-.8.6-.3.1-.5.2-.8.2-.6.1-1.2-.1-1.6-.6"/><path class="st132" d="M105.6 25.2c0-.1 0-.1 0 0l-4.3-4.3c-.1-.1-.1-.2-.1-.4 0-.1.1-.3.2-.3l5.2-3.1c.2-.1.4-.1.5.1l4.3 4.3c.1.1.2.4.1.5-.4.7-.8 1.3-1.1 1.8-.3.5-.6.9-.9 1.2-.3.3-.6.5-.9.7-.3.1-.6.2-1 .2-.8 0-1.5-.3-2-.7zm2-.2c.2 0 .4 0 .6-.1.2-.1.4-.2.6-.5.2-.3.5-.6.8-1.1.3-.4.6-.9.9-1.5l-3.8-3.8-4.5 2.6 3.9 3.9c.5.4.9.5 1.5.5z"/><path class="st199" d="M111.1 21.8h2.2l-2-4.3h-4.5z"/><path class="st132" d="M111.1 22.2v-.4l.3-.3-.3.3v.4c-.1 0-.2 0-.3-.1l-4.3-4.3c-.1-.1-.2-.3-.1-.5s.2-.3.4-.3h4.5c.2 0 .3.1.4.3l1.9 4.3c.1.1 0 .3 0 .4-.1.1-.2.2-.4.2h-2.1zm.2-.9h1.3l-1.6-3.5h-3.2l3.5 3.5z"/><g><path class="st0" d="M116.1 18.8c0 .7-.2 1.2-.7 1.7-.5.4-1 .6-1.7.6-.6 0-1.1-.2-1.5-.5-.5-.3-.7-.8-.7-1.3l-.1-1.9h-4.5c-.4.7-.8 1.3-1.1 1.8-.3.5-.6.8-.9 1.1-.3.3-.5.5-.8.6-.3.1-.5.2-.8.2-.7 0-1.2-.2-1.7-.6-.4-.4-.7-1-.7-1.7 0-.2.1-.4.2-.7.1-.3.2-.5.3-.6l10.1-15.4c.3-.5.7-.8 1.2-1.1.5-.3 1-.4 1.6-.4.5 0 1 .2 1.3.6.3.4.5.8.5 1.4v16.2zM109 13h2.3V9.6L109 13z"/><path class="st132" d="M101.3 20.8c-.5-.5-.8-1.2-.8-2 0-.3.1-.6.2-.9.1-.3.2-.5.3-.6l10.1-15.4c.3-.5.8-.9 1.3-1.3.5-.3 1.1-.5 1.8-.5.6 0 1.2.2 1.6.7.4.5.6 1.1.6 1.7v16.3c0 .8-.3 1.5-.8 2s-1.2.8-2 .8c-.6 0-1.3-.2-1.8-.6-.5-.4-.9-1-.9-1.6l-.1-1.5h-3.9c-.4.6-.7 1.2-1 1.6-.3.5-.6.9-.9 1.2-.3.3-.6.5-.9.7-.3.1-.6.2-1 .2-.6 0-1.3-.3-1.8-.8zm10-3.8c.2 0 .4.2.4.4l.1 1.9c0 .4.2.7.6 1 .4.3.8.4 1.3.4.6 0 1-.2 1.4-.5.4-.3.5-.8.5-1.4V2.6c0-.5-.1-.8-.4-1.1-.3-.3-.6-.4-1-.4-.5 0-.9.1-1.3.4-.4.2-.8.6-1 1l-10.1 15.4c0 .1-.1.2-.2.5-.1.2-.1.4-.1.5 0 .6.2 1 .5 1.4.4.3.8.5 1.4.5.2 0 .4 0 .6-.1.2-.1.4-.2.6-.5.2-.3.5-.6.8-1.1.3-.5.7-1.1 1.1-1.8.1-.1.2-.2.4-.2h4.4V17zm-2.3-3.6c-.2 0-.3-.1-.4-.2-.1-.1-.1-.3 0-.4l2.3-3.4c.1-.2.3-.2.5-.2.2.1.3.2.3.4V13c0 .1 0 .2-.1.3-.1.1-.2.1-.3.1H109zm1.9-.8V11l-1.1 1.6h1.1z"/></g><g><path class="st200" d="M120.1 24.3l-4.3-4.3"/><path class="st132" d="M119.8 24.6l-4.3-4.3c-.2-.2-.2-.4 0-.6.2-.2.4-.2.6 0l4.3 4.3c.2.2.2.4 0 .6-.1.1-.2.1-.3.1-.1 0-.2 0-.3-.1z"/></g></g><g><path class="st199" d="M126 9.6h-2c-.3 0-.6-.1-.8-.2-.3-.1-.5-.3-.7-.5l-4-4s2.9-3.5 3.5-.6c.1.3-.1 2.4 0 2.1.1-.3.3-.6.5-.8.2-.2.5-.4.7-.5.3-.1.6-.2.8-.2l3.7-1.8c.3 0 2.2-1.8 2.2-1.8l4.3 4.3c.2.2.4.5.5.8.1.3.2.6.2.9 0 .3-.1.5-.2.8-.1.3-.3.5-.5.7-.2.2-.5.4-.7.5-.3.1-.6.2-.9.2h-2V23c0 .7-.2 1.2-.7 1.6-.5.4-1 .6-1.7.6s-1.2-.2-1.7-.6c-.5-.4-4.3-4.3-4.3-4.3L126 9.6z"/><path class="st132" d="M128.3 25.8c-.7 0-1.4-.2-1.9-.7-.5-.4-4.3-4.3-4.3-4.3-.1-.1-.2-.3-.1-.4l3.4-10.3H124c-.4 0-.7-.1-1-.2-.3-.2-.6-.4-.8-.6l-4-4c-.2-.2-.2-.4 0-.6 0 0 .4-.5.9-.9.5-.5 1.2-1 1.9-1s1.2.6 1.4 1.5V5.2c.2-.2.4-.3.6-.4.3-.1.6-.2.9-.2l3.7-1.8h.2c.1 0 .2-.1.3-.2.2-.2.5-.4.7-.6.5-.4 1-.9 1-.9.2-.2.4-.2.6 0l4.3 4.3c.3.3.5.6.6.9.1.3.2.7.2 1.1 0 .3-.1.7-.2 1-.1.3-.3.6-.6.9-.3.3-.5.5-.9.6-.3.2-.7.2-1 .2h-1.6v13.1c0 .8-.3 1.5-.8 2-.7.4-1.3.6-2.1.6zm-3.7-3.7l2.3 2.3c.4.3.8.5 1.4.5.6 0 1-.2 1.4-.5.4-.3.5-.7.5-1.3V9.6c0-.1 0-.2.1-.3.1-.1.2-.1.3-.1h2c.2 0 .4-.1.7-.2.2-.1.4-.3.6-.4.2-.2.3-.4.4-.6.1-.2.1-.4.2-.6 0-.3-.1-.5-.2-.8-.1-.3-.2-.5-.4-.6l-4-4c-.5.4-1.3 1.2-1.8 1.5-.1 0-.1.1-.3.1l-3.7 1.8h-.2c-.2 0-.4 0-.7.1-.2.1-.4.2-.6.4-.2.2-.3.4-.4.6 0 0 0 .1-.1.1 0 0-.1.2-.3.2-.2 0-.3-.1-.4-.2 0-.1-.1-.1-.1-.1v-.1-.2c0-.4.1-1.3.1-1.7v-.2c-.2-.8-.3-.8-.5-.8-.3 0-.9.3-1.4.8-.2.2-.4.4-.6.5.9.9 3.5 3.6 3.7 3.7.2.2.4.3.6.4.2.1.4.2.6.2h2v.4-.3c.1 0 .3.1.4.2.1.1.1.3.1.4l-3.5 10.6c.3.3 1.1 1 1.8 1.7z"/><path class="st0" d="M121.6 5.3h-2c-.3 0-.6-.1-.8-.2-.3-.1-.5-.3-.7-.5-.2-.2-.4-.5-.5-.7-.1-.3-.2-.5-.2-.8 0-.3.1-.6.2-.9.1-.3.3-.6.5-.8.2-.2.5-.4.7-.5.3-.1.6-.2.8-.2h8.7c.3 0 .6.1.9.2.3.1.5.3.7.5.2.2.4.5.5.8.1.3.2.6.2.9 0 .3-.1.5-.2.8-.1.3-.3.5-.5.7-.2.2-.5.4-.7.5-.3.1-.6.2-.9.2h-2v13.5c0 .7-.2 1.2-.7 1.6-.5.4-1 .6-1.7.6s-1.2-.2-1.7-.6c-.5-.4-.7-.9-.7-1.6V5.3z"/><path class="st132" d="M124 21.5c-.7 0-1.4-.2-2-.7-.6-.5-.8-1.2-.8-2V5.7h-1.5c-.4 0-.7-.1-1-.2-.3-.2-.6-.4-.8-.6-.3-.2-.5-.5-.6-.9-.2-.3-.2-.7-.2-1 0-.4.1-.8.2-1.1.1-.3.3-.7.6-.9.3-.3.5-.5.9-.6.3-.2.7-.2 1-.2h8.7c.4 0 .7.1 1 .2.3.1.6.4.9.6.3.3.5.6.6.9.1.3.2.7.2 1.1 0 .3-.1.7-.2 1-.1.3-.3.6-.6.9-.2.3-.5.5-.9.6-.3.2-.7.2-1 .2h-1.6v13.1c0 .8-.3 1.5-.8 2-.7.4-1.4.7-2.1.7zM121.9 5c.1.1.1.2.1.3v13.5c0 .6.2 1 .5 1.3.4.3.8.5 1.4.5.6 0 1-.2 1.4-.5.4-.3.5-.7.5-1.3V5.3c0-.1 0-.2.1-.3.1-.1.2-.1.3-.1h2c.2 0 .4-.1.7-.2.2-.1.4-.3.6-.4.2-.2.3-.4.4-.6.1-.2.1-.4.1-.6 0-.3-.1-.5-.2-.8-.1-.3-.2-.5-.4-.6-.2-.2-.4-.3-.6-.4-.2-.1-.5-.2-.7-.2h-8.7c-.2 0-.4 0-.7.1-.2.1-.4.2-.6.4-.2.2-.3.4-.4.6-.1.2-.2.5-.2.8 0 .2 0 .4.1.6.1.2.2.4.4.6.2.2.4.3.6.4.2.1.4.2.6.2h2v.4-.3c.5 0 .7 0 .7.1z"/><g><path class="st200" d="M130.6 9.6l-4.3-4.3"/><path class="st132" d="M130.3 9.9L126 5.6c-.2-.2-.2-.4 0-.6.2-.2.4-.2.6 0l4.3 4.3c.2.2.2.4 0 .6-.1.1-.2.1-.3.1-.1 0-.2 0-.3-.1z"/></g><g><path class="st200" d="M130.6 23.8l-4.4-4.3"/><path class="st132" d="M130.3 24.1l-4.3-4.3c-.2-.2-.2-.4 0-.6.2-.2.4-.2.6 0l4.3 4.3c.2.2.2.4 0 .6-.1.1-.2.1-.3.1-.2 0-.3 0-.3-.1z"/></g></g><g><path class="st199" d="M135 5.1c.5-.4.3-3.8.9-3.8l4.3 4.3c.4.4.7 1 .7 1.6v9.5c0 .7-.2 1.2-.7 1.6-.4.4-1 .7-1.7.7-.6 0-1.2-.2-1.7-.7l-4.6-4.6 3.9-6.5c.2-.6-1.5-1.6-1.1-2.1z"/><path class="st132" d="M138.6 19.5c-.7 0-1.4-.3-2-.8l-4.6-4.6c-.1-.1-.2-.3-.1-.4l3.8-6.4v-.1c-.1-.1-.1-.2-.3-.3-.2-.2-.5-.5-.7-.8-.1-.2-.3-.4-.3-.7 0-.2.1-.4.2-.5v-.1c0-.1.1-.2.1-.3.1-.3.1-.7.1-1.1.1-.8.1-1.6.4-2.1.1-.1.3-.3.6-.3.1 0 .2 0 .3.1l4.3 4.3c.5.5.8 1.2.8 1.9v9.5c0 .8-.3 1.4-.8 1.9-.3.5-1 .8-1.8.8zm-3.1-14c.1.1.3.3.4.5.3.4.7.7.8 1.3v.1l-3.8 6.3 4.4 4.4c.4.4.8.5 1.4.5.6 0 1-.2 1.4-.5.4-.4.5-.8.5-1.3V7.3c0-.6-.2-1-.5-1.3l-4-4c0 .1-.1.3-.1.5-.1.6-.1 1.3-.2 1.9-.1.4-.1.7-.3.9-.1.1 0 .1 0 .2zm-.3-.2l-.2-.2.2.2z"/><path class="st0" d="M132.6 1.3c.5-.4 1-.7 1.7-.7s1.2.2 1.7.7c.4.4.7 1 .7 1.6v9.5c0 .7-.2 1.2-.7 1.6-.4.4-1 .7-1.7.7-.6 0-1.2-.2-1.7-.7-.5-.4-.7-1-.7-1.6V2.9c0-.6.3-1.2.7-1.6z"/><path class="st132" d="M134.3 15.1c-.7 0-1.4-.3-2-.8-.5-.5-.8-1.2-.8-2V2.9c0-.8.3-1.4.8-2 .5-.5 1.2-.8 2-.8s1.5.3 2 .8.8 1.2.8 1.9v9.5c0 .7-.3 1.4-.8 1.9-.6.7-1.2.9-2 .9zm-1.9-12.2v9.5c0 .5.2 1 .6 1.3.4.4.8.5 1.4.5.6 0 1-.2 1.4-.5.4-.4.5-.8.5-1.3V2.9c0-.6-.2-1-.5-1.3-.4-.4-.8-.5-1.4-.5-.6 0-1 .2-1.4.5-.4.4-.6.8-.6 1.3z"/><g><path class="st200" d="M140.9 17.2l-4.3-4.3"/><path class="st132" d="M140.6 17.5l-4.3-4.3c-.2-.2-.2-.4 0-.6.2-.2.4-.2.6 0l4.3 4.3c.2.2.2.4 0 .6-.1.1-.2.1-.3.1-.1 0-.2 0-.3-.1z"/></g><g><path class="st199" d="M136 16.9l4.3 4.3c.4.4.7 1 .7 1.6v.2c0 .7-.2 1.2-.7 1.6-.4.4-1 .7-1.7.7-.6 0-1.2-.2-1.7-.7l-4.6-4.6c.1.1 3-3.1 3.7-3.1z"/><path class="st132" d="M138.6 25.8c-.7 0-1.4-.3-2-.8l-4.6-4.6c-.1-.1-.2-.3-.1-.4 0 0 3.1-2.6 3.4-3.2.1-.1.3-.3.6-.3.1 0 .2 0 .3.1l4.3 4.3c.5.5.8 1.2.8 1.9v.2c0 .8-.3 1.4-.8 1.9-.4.6-1.1.9-1.9.9zm-5.7-5.8l4.4 4.4c.4.4.8.5 1.4.5.6 0 1-.2 1.4-.5.4-.4.5-.8.5-1.3v-.2c0-.6-.2-1-.5-1.3l-4-4c0 .1-.1.3-.1.5-.1.6-.1 1.3-.2 1.9-.2.4-2.9 0-2.9 0z"/><path class="st0" d="M132.6 16.9c.5-.4 1-.7 1.7-.7s1.2.2 1.7.7c.4.4.7 1 .7 1.6v.2c0 .7-.2 1.2-.7 1.6-.4.4-1 .7-1.7.7-.6 0-1.2-.2-1.7-.7-.5-.4-.7-1-.7-1.6v-.2c0-.6.3-1.2.7-1.6z"/><path class="st132" d="M134.3 21.5c-.7 0-1.4-.3-2-.8-.5-.5-.8-1.2-.8-2v-.2c0-.8.3-1.4.8-2 .5-.5 1.2-.8 2-.8s1.5.3 2 .8.8 1.2.8 1.9v.2c0 .7-.3 1.4-.8 1.9-.6.7-1.2 1-2 1zm-1.9-3v.2c0 .5.2 1 .6 1.3.4.4.8.5 1.4.5.6 0 1-.2 1.4-.5.4-.4.5-.8.5-1.3v-.2c0-.6-.2-1-.5-1.3-.4-.4-.8-.5-1.4-.5-.6 0-1 .2-1.4.5-.4.4-.6.8-.6 1.3z"/><g><path class="st200" d="M140.9 23.5l-4.3-4.3"/><path class="st132" d="M140.6 23.8l-4.3-4.3c-.2-.2-.2-.4 0-.6.2-.2.4-.2.6 0l4.3 4.3c.2.2.2.4 0 .6-.1.1-.2.1-.3.1-.1.1-.2 0-.3-.1z"/></g></g></g></g></svg>