<svg xmlns="http://www.w3.org/2000/svg" xmlns:xlink="http://www.w3.org/1999/xlink" viewBox="0 0 105.5 110.1"><style>.st1{fill:none;stroke:#146bad;stroke-width:1.5;stroke-dasharray:1.5,1}.st140{fill:#9cdbb0}</style><pattern x="-5422.7" y="862" width="72" height="72" patternUnits="userSpaceOnUse" id="USGS_7_Vineyard" viewBox="71.5 -72 72 72" overflow="visible"><path fill="none" d="M71.5-72h72V0h-72z"/><path class="st1" d="M72-1.5h72M72-4.5h72M72-7.5h72M72-10.5h72M72-13.5h72M72-16.5h72M72-19.5h72M72-22.5h72M72-25.5h72M72-28.5h72M72-31.5h72M72-34.5h72M72-37.5h72M72-40.5h72M72-43.5h72M72-46.5h72M72-49.5h72M72-52.5h72M72-55.5h72M72-58.5h72M72-61.5h72M72-64.5h72M72-67.5h72M72-70.5h72"/><g><path class="st1" d="M0-1.5h72M0-4.5h72M0-7.5h72M0-10.5h72M0-13.5h72M0-16.5h72M0-19.5h72M0-22.5h72M0-25.5h72M0-28.5h72M0-31.5h72M0-34.5h72M0-37.5h72M0-40.5h72M0-43.5h72M0-46.5h72M0-49.5h72M0-52.5h72M0-55.5h72M0-58.5h72M0-61.5h72M0-64.5h72M0-67.5h72M0-70.5h72"/></g></pattern><g id="Layer_1"><path class="st140" d="M104.8 106.2c-.2 0-.3 0-.4-.1l-11.2-8.8H10.4c-3.4 0-6.2-2.8-6.2-6.2V6.2C4.2 2.8 7 0 10.4 0h89c3.4 0 6.2 2.8 6.2 6.2v99.3c0 .3-.1.5-.4.6-.2.1-.3.1-.4.1zM10.4 1.4c-2.6 0-4.8 2.2-4.8 4.8v84.9c0 2.6 2.2 4.8 4.8 4.8h83.1c.2 0 .3.1.4.1l10.2 8.1V6.2c0-2.6-2.2-4.8-4.8-4.8H10.4z"/><path d="M100.6 110.1c-.2 0-.3 0-.4-.1l-11.1-8.8H6.2C2.8 101.1 0 98.4 0 95V10.1c0-3.4 2.8-6.2 6.2-6.2h89c3.4 0 6.2 2.8 6.2 6.2v99.3c0 .3-.1.5-.4.6-.2.1-.3.1-.4.1zM6.2 5.3c-2.6 0-4.8 2.2-4.8 4.8V95c0 2.6 2.2 4.8 4.8 4.8h83.1c.2 0 .3.1.4.1l10.2 8.1V10.1c0-2.6-2.2-4.8-4.8-4.8H6.2z" fill="#146bad"/><path class="st140" d="M14.2 18.8c1.4 0 2.5 1.1 2.5 2.5v25h6c1.3 0 2.3 1 2.3 2.3 0 1.3-1 2.3-2.3 2.3h-8.5c-1.4 0-2.5-1.1-2.5-2.5V21.3c0-1.4 1.1-2.5 2.5-2.5zM36 32.3h4.6c1.3 0 2.3 1 2.3 2.3 0 1.3-1 2.3-2.3 2.3H36v9.4h6.4c1.3 0 2.3 1 2.3 2.3 0 1.3-1 2.3-2.3 2.3h-9.2c-1.3 0-2.3-1-2.3-2.3V21.1c0-1.3 1-2.3 2.3-2.3h9.2c1.3 0 2.3 1 2.3 2.3 0 1.3-1 2.3-2.3 2.3H36v8.9zM51.7 18.8h11c1.3 0 2.3 1 2.3 2.3 0 1.3-1 2.3-2.3 2.3h-3v25c0 1.4-1.1 2.5-2.5 2.5s-2.5-1.1-2.5-2.5v-25h-3c-1.3 0-2.3-1-2.3-2.3 0-1.3 1-2.3 2.3-2.3zM86.8 18.4c4.9 0 7.4 2.9 7.4 8.1v.1c0 1.3-1.1 2.4-2.4 2.4-1.3 0-2.4-1.1-2.4-2.4v-.4c0-2.3-.9-3.2-2.5-3.2s-2.5.9-2.5 3.2c0 2.3 1 4.1 4.3 7 4.2 3.7 5.6 6.4 5.6 10.1 0 5.1-2.6 8.1-7.5 8.1-5 0-7.5-2.9-7.5-8.1v-.6c0-1.3 1.1-2.4 2.4-2.4 1.3 0 2.4 1.1 2.4 2.4v.9c0 2.3 1 3.1 2.6 3.1s2.6-.8 2.6-3.1-1-4.1-4.3-7c-4.2-3.7-5.6-6.4-5.6-10.1 0-5.1 2.5-8.1 7.4-8.1zM24.4 78c1.3 0 2.4 1.1 2.4 2.4v1.9c0 5.1-2.6 8.1-7.5 8.1s-7.5-2.9-7.5-8.1V65.5c0-5.1 2.6-8.1 7.5-8.1s7.5 2.9 7.5 8.1v.7c0 1.3-1.1 2.4-2.4 2.4-1.3 0-2.4-1.1-2.4-2.4v-1.1c0-2.3-1-3.2-2.6-3.2s-2.6.9-2.6 3.2v17.3c0 2.3 1 3.1 2.6 3.1s2.6-.8 2.6-3.1v-2.2c0-1.1 1.1-2.2 2.4-2.2zM37 90c-1.4 0-2.5-1.1-2.5-2.5V60.4c0-1.4 1.1-2.5 2.5-2.5s2.5 1.1 2.5 2.5v11.2h5.7V60.4c0-1.4 1.1-2.5 2.5-2.5h.1c1.4 0 2.5 1.1 2.5 2.5v27.1c0 1.4-1.1 2.5-2.5 2.5h-.1c-1.4 0-2.5-1.1-2.5-2.5V76.2h-5.7v11.2c0 1.4-1.1 2.6-2.5 2.6zM72 90c-1.2 0-2.3-.9-2.5-2.1l-.5-3.7h-6.2l-.6 3.9c-.1 1.1-1.1 1.9-2.2 1.9-1.4 0-2.5-1.3-2.2-2.6l4.4-27.6c.2-1.1 1.1-1.9 2.2-1.9h3.5c1.1 0 2.1.8 2.2 1.9l4.4 27.3c.2 1.5-.9 2.9-2.5 2.9zm-8.5-10.2h4.9L66 63.6h-.1l-2.4 16.2zM72.7 28.7c-1.4 0-2.5-1.1-2.5-2.5V21c0-1.4 1.1-2.5 2.5-2.5s2.5 1.1 2.5 2.5v5.2c0 1.3-1.1 2.5-2.5 2.5zM81 57.9h11c1.3 0 2.3 1 2.3 2.3 0 1.3-1 2.3-2.3 2.3h-3v25c0 1.4-1.1 2.5-2.5 2.5S84 88.9 84 87.5v-25h-3c-1.3 0-2.3-1-2.3-2.3 0-1.3 1-2.3 2.3-2.3z"/><g><pattern id="SVGID_2_" xlink:href="#USGS_7_Vineyard" patternTransform="matrix(.7479 .0649 0 .7479 -704.668 -1890.038)"/><path d="M11.9 16.9h0c1.4 0 2.5 1.1 2.5 2.5v25h6c1.3 0 2.3 1 2.3 2.3v0c0 1.3-1 2.3-2.3 2.3h-8.5c-1.4 0-2.5-1.1-2.5-2.5V19.4c0-1.4 1.1-2.5 2.5-2.5z" fill="url(#SVGID_2_)" stroke="#146bad" stroke-linejoin="round"/><pattern id="SVGID_4_" xlink:href="#USGS_7_Vineyard" patternTransform="matrix(.7479 .0649 0 .7479 -705.602 -1890.038)"/><path d="M33.7 30.4h4.6c1.3 0 2.3 1 2.3 2.3v0c0 1.3-1 2.3-2.3 2.3h-4.6v9.4h6.4c1.3 0 2.3 1 2.3 2.3v0c0 1.3-1 2.3-2.3 2.3h-9.2c-1.3 0-2.3-1-2.3-2.3V19.2c0-1.3 1-2.3 2.3-2.3h9.2c1.3 0 2.3 1 2.3 2.3v0c0 1.3-1 2.3-2.3 2.3h-6.4v8.9z" fill="url(#SVGID_4_)" stroke="#146bad" stroke-linejoin="round"/><pattern id="SVGID_6_" xlink:href="#USGS_7_Vineyard" patternTransform="matrix(.7479 .0649 0 .7479 -707.153 -1890.038)"/><path d="M49.4 16.9h11c1.3 0 2.3 1 2.3 2.3v0c0 1.3-1 2.3-2.3 2.3h-3v25c0 1.4-1.1 2.5-2.5 2.5h0c-1.4 0-2.5-1.1-2.5-2.5v-25h-3c-1.3 0-2.3-1-2.3-2.3v0c0-1.3 1-2.3 2.3-2.3z" fill="url(#SVGID_6_)" stroke="#146bad" stroke-linejoin="round"/><pattern id="SVGID_8_" xlink:href="#USGS_7_Vineyard" patternTransform="matrix(.7479 .0649 0 .7479 -711.796 -1890.038)"/><path d="M84.5 16.5c4.9 0 7.4 2.9 7.4 8.1v.1c0 1.3-1.1 2.4-2.4 2.4h0c-1.3 0-2.4-1.1-2.4-2.4v-.4c0-2.3-.9-3.2-2.5-3.2s-2.5.9-2.5 3.2c0 2.3 1 4.1 4.3 7 4.3 3.7 5.6 6.4 5.6 10 0 5.1-2.6 8.1-7.5 8.1-5 0-7.5-2.9-7.5-8.1v-.6c0-1.3 1.1-2.4 2.4-2.4h0c1.3 0 2.4 1.1 2.4 2.4v.9c0 2.3 1 3.1 2.6 3.1s2.6-.8 2.6-3.1-1-4.1-4.3-7c-4.2-3.7-5.6-6.4-5.6-10.1 0-5 2.5-8 7.4-8z" fill="url(#SVGID_8_)" stroke="#146bad" stroke-linejoin="round"/><pattern id="SVGID_10_" xlink:href="#USGS_7_Vineyard" patternTransform="matrix(.7479 .0649 0 .7479 -705.42 -1841.687)"/><path d="M22.1 76.1c1.3 0 2.4 1.1 2.4 2.4v1.9c0 5.1-2.6 8.1-7.5 8.1s-7.5-2.9-7.5-8.1V63.6c0-5.1 2.6-8.1 7.5-8.1s7.5 2.9 7.5 8.1v.7c0 1.3-1.1 2.4-2.4 2.4h0c-1.3 0-2.4-1.1-2.4-2.4v-1.1c0-2.3-1-3.2-2.6-3.2s-2.6.9-2.6 3.2v17.3c0 2.3 1 3.1 2.6 3.1s2.6-.8 2.6-3.1v-2.2c0-1.1 1.1-2.2 2.4-2.2h0z" fill="url(#SVGID_10_)" stroke="#146bad" stroke-linejoin="round"/><pattern id="SVGID_12_" xlink:href="#USGS_7_Vineyard" patternTransform="matrix(.7479 .0649 0 .7479 -705.42 -1841.687)"/><path d="M34.7 88.1h0c-1.4 0-2.5-1.1-2.5-2.5V58.5c0-1.4 1.1-2.5 2.5-2.5h0c1.4 0 2.5 1.1 2.5 2.5v11.2h5.7V58.5c0-1.4 1.1-2.5 2.5-2.5h.1c1.4 0 2.5 1.1 2.5 2.5v27.1c0 1.4-1.1 2.5-2.5 2.5h-.1c-1.4 0-2.5-1.1-2.5-2.5V74.3h-5.7v11.2c0 1.4-1.1 2.6-2.5 2.6z" fill="url(#SVGID_12_)" stroke="#146bad" stroke-linejoin="round"/><pattern id="SVGID_14_" xlink:href="#USGS_7_Vineyard" patternTransform="matrix(.7479 .0649 0 .7479 -705.42 -1841.687)"/><path d="M69.7 88.1h0c-1.2 0-2.3-.9-2.5-2.1l-.6-3.7h-6.2l-.6 3.9c-.2 1.1-1.1 1.9-2.3 1.9h0c-1.4 0-2.5-1.3-2.2-2.6l4.4-27.6C60 56.8 61 56 62.1 56h3.5c1.1 0 2.1.8 2.2 1.9l4.4 27.3c.2 1.5-.9 2.9-2.5 2.9zm-8.6-10.2H66l-2.4-16.2h-.1l-2.4 16.2z" fill="url(#SVGID_14_)" stroke="#146bad" stroke-linejoin="round"/><pattern id="SVGID_16_" xlink:href="#USGS_7_Vineyard" patternTransform="matrix(.7479 .0649 0 .7479 -709.033 -1890.038)"/><path d="M70.4 26.8h0c-1.4 0-2.5-1.1-2.5-2.5V19c0-1.4 1.1-2.5 2.5-2.5h0c1.4 0 2.5 1.1 2.5 2.5v5.2c0 1.4-1.1 2.6-2.5 2.6z" fill="url(#SVGID_16_)" stroke="#146bad" stroke-linejoin="round"/><pattern id="SVGID_18_" xlink:href="#USGS_7_Vineyard" patternTransform="matrix(.7479 .0649 0 .7479 -705.42 -1841.687)"/><path d="M78.7 56h11c1.3 0 2.3 1 2.3 2.3v0c0 1.3-1 2.3-2.3 2.3h-3v25c0 1.4-1.1 2.5-2.5 2.5h0c-1.4 0-2.5-1.1-2.5-2.5v-25h-3c-1.3 0-2.3-1-2.3-2.3v0c0-1.3 1-2.3 2.3-2.3z" fill="url(#SVGID_18_)" stroke="#146bad" stroke-linejoin="round"/></g></g></svg>