<svg xmlns="http://www.w3.org/2000/svg" viewBox="0 0 92.4 69.2"><style>.st0{fill:#fff}.st461{fill:#ff9100}.st462{fill:#fff8e5}</style><g id="Layer_1"><path d="M74.4 69.2V68H73v-1.1h-1.5v-1.2h-.9v-1.2h-1.5v-1.2H68v-1.1h-1.1V61h-1v-.5H5v-4.2H3.5v-1.7H2V5.9h1.5V4.2H5V2.5h84.3v1.6h1.5v1.7h1.6v51.3h-1.6v1.8h-1.5v1.6h-8.6v8.7z"/><path d="M72.4 66.8v-1.2H71v-1.2h-1.5v-1.2h-.9v-1.1h-1.5v-1.2H66v-1.2h-1.1v-1.2h-1v-.4H3v-1.8H1.5v-1.7H0V3.5h1.5V1.7H3V0h84.3v1.6h1.5v1.8h1.6v51.3h-1.6v1.7h-1.5v1.7h-8.6v8.7z"/><path fill="#ffc200" d="M86.8 5.4V3.6h-1.5V2H5v1.7H3.5v1.8H2v47.1h1.5v1.7H5v1.8h60.9v.4h1v1.2H68v1.2h1.1v1.2H71v1.1h1v1.2h1v1.2h2.1v1.2h1.6v-8.7h8.6v-1.7h1.5v-1.7h1.6V5.4z"/><path class="st461" d="M36.3 10.8H23.7v17.6h6.5V25h6.1v-1.8h1.5V12.4h-1.5zM78.7 10.8v1.6h-1.3v-1.6H71v17.6h14.1V21.1h-1.5V18h1.5v-7.2zM8 33.5V39h3.1v10.3h6.4V38.9h3V31.6H8zM34.9 31.6h-11v1.7h-1.5v14.3H24v1.6h11v-1.7h1.5V33.3H35v-1.7zM30.1 39v3h-1.2v-3h1.2zM49.7 34.1V42h-1.3V31.6h-6.3V48.2h1.5v1.7h11.1v-1.8h1.5V31.6h-6.5zM20.5 14.3v-1.9H19v-1.6H9.4v1.7H8v14.3h1.5v1.6h11.1v-1.7h1.5v-9.1h-1.6zM53.8 26.5V21h-3.1v-3.1h3.1v-7.3H39.6v17.7h14.2zM61.7 26.6V25h1.2V28.4h6.4V14.1h-1.5v-1.7h-1.6v-1.6h-7.9v1.7h-1.6v1.7h-1.4V28.4h6.4zM70.4 35.2v-1.9h-1.6v-1.7h-9.5v1.8h-1.5v14.3h1.6v1.6h11v-1.7h1.5v-9.1h-1.5zM77.2 33.5v1.6h-1.6V42h-1.5V49.3H79v-3.5h1.5v-1.7h1.6v-1.7h1.5v-1.8h1.5v-9h-7.9z"/><path d="M8.4 25.3v-1.6H6.9V11.3h1.4V9.5h9.6v1.7h1.5v5.2H21v7.2h-1.5v1.7zM22.6 25.3V9.5h12.5v1.6h1.5V20h-1.5v1.7h-6.2v3.5h-6.3zm7.7-8.9V15h-1.2v1.4h1.2zM38.5 25.2V9.3h14.2v5.5h-3.1v5h3.1v5.4zM61.8 25.3v-3.4h-1.2v3.4h-6.4V13h1.4v-1.7h1.6V9.5h8v1.7h1.5v1.7h1.5v12.4zM69.9 25.3V9.5h6.4v1.7h1.3V9.5H84v5.4h-1.5v1.8H81v1.4h1.5v1.8H84v5.4zM10 46.2V35.9H6.9v-5.5h12.5v5.4h-3v10.4zM22.9 46.2v-1.6h-1.6V32.2h1.5v-1.7h11.1v1.6h1.5v12.4h-1.5v1.7h-11zm6.1-5.5v-4.8h-1.2v4.8H29zM42.5 46.2v-1.6H41V30.4h6.4v10.3h1.2V30.4h6.5v14.1h-1.5v1.7zM58.3 46.2v-1.6h-1.6V32.2h1.5v-1.8h9.5v1.7h1.6v5.2h1.5v7.2h-1.4v1.7z"/><g><path d="M8.4 27.2v-1.6H6.9V13.2h1.4v-1.8h9.6v1.7h1.5v5.2H21v7.2h-1.5v1.7zM22.6 27.2V11.4h12.5V13h1.5v9h-1.5v1.7h-6.2v3.5h-6.3zm7.7-8.9v-1.4h-1.2v1.4h1.2zM38.5 27.1V11.2h14.2v5.4h-3.1v5h3.1v5.5zM61.8 27.2v-3.4h-1.2v3.4h-6.4V14.9h1.4v-1.7h1.6v-1.8h8v1.7h1.5v1.7h1.5v12.4zM69.9 27.2V11.4h6.4v1.7h1.3v-1.7H84v5.4h-1.5v1.7H81V20h1.5v1.7H84v5.5zM10 48.1V37.8H6.9v-5.5h12.5v5.4h-3v10.4zM22.9 48.1v-1.6h-1.6V34h1.5v-1.7h11.1v1.6h1.5v12.4h-1.5V48h-11zm6.1-5.5v-4.8h-1.2v4.8H29zM42.5 48.6V47H41V32.8h6.4v10.3h1.2V32.8h6.5v14.1h-1.5v1.7zM58.3 48.1v-1.7h-1.6V34h1.5v-1.7h9.5v1.6h1.6v5.2h1.5v7.2h-1.4v1.8z"/></g><g><path class="st0" d="M19.3 21.7h-1.5v1.7h-7.7v-1.6H8.5v-1.7h3.1v1.6h4.6v-3.4h-6.1v-1.7H8.5v-3.5H10v-1.7h6.2V13h1.6v1.7h-3v-1.6h-3.1v3.3h6.1v1.8h1.5v3.5zM35.1 18.3h-1.5V20h-6.2v3.5h-3.1V11.4h9.2V13H35v5.3zm-3.1 0v-5.1h-4.6v5.1H32zM51 23.4H40.1V11.2H51v1.7h-7.8v3.5h4.6v1.8h-4.6v3.5H51v1.7zM66.6 23.5h-3.1V20h-4.6v3.4h-3.1v-8.6h1.5v-1.7h1.6v-1.7h4.6V13H65v1.7h1.5v8.8zm-3.1-5.2v-3.5H62v-1.6h-1.6v1.7h-1.5v3.4h4.6zM82.3 23.5h-4.6v-1.7h-1.5V20h-1.5v3.5h-3.1V11.4h3v5.1h1.5v-1.7h1.5v-1.7h1.6v-1.7h3.1v1.7h-1.5v1.7h-1.5v1.7h-1.6v1.7h1.5V20h1.6v1.8h1.5v1.7zM17.8 34h-3v10.4h-3.1V34H8.5v-1.7h9.2V34zM33.7 42.6h-1.5v1.7h-7.7v-1.6H23V34h1.5v-1.7h7.8v1.6h1.5v8.7zm-3.1 0V34H26v8.6h4.6zM53.4 42.6h-1.5v1.7h-7.7v-1.6h-1.6V32.3h3v10.3h4.6V32.3h3.1v10.3zM69.2 42.6h-1.5v1.7H60v-1.6h-1.6V41h3.1v1.6h4.6v-3.4H60v-1.7h-1.6V34h1.5v-1.7h6.2v1.6h1.6v1.7h-3V34h-3.1v3.3h6.1v1.8h1.5v3.5z"/></g><g><path d="M73 46.2v-5.4h1.5v-6.9h1.6v-3.5H84v7.1h-1.5v1.8H81V41h-1.6v1.7h-1.5v3.5z"/></g><g><path d="M73 48.1v-5.5h1.5v-6.9h1.6v-3.4H84v7.1h-1.5v1.8H81v1.7h-1.6v1.7h-1.5v3.5z"/></g><g><path class="st0" d="M76.2 44.3h-1.5v-1.7h1.5v1.7zm6.1-8.6h-1.5v1.7h-1.6v1.7h-1.6v1.7h-1.5v-5.1h1.5v-3.5h4.6v3.5z"/></g><path class="st461" d="M2 5.5h1.5v47.1H2zM5 54.3h60.9V56H5z"/><path class="st462" d="M2 5.5h1.5v1.6H2zM3.5 3.7H5v1.6H3.5zM5 2h80.3v1.6H5z"/><path class="st461" d="M65.9 55.3h1.6v1.2h-1.6zM66.9 56.5h1.7v1.2h-1.7zM68 57.7h1.9v1.2H68z"/><path class="st461" d="M69.1 58.9H71v1.2h-1.9z"/><path class="st461" d="M70.6 60h2v1.2h-2zM71.5 61.2h1.9v1.2h-1.9z"/><path class="st461" d="M73 62.4h2.1v1.2H73zM74.4 63.6h2.3v1.2h-2.3zM76.7 54.4h8.6V56h-8.6z"/></g></svg>