<svg xmlns="http://www.w3.org/2000/svg" viewBox="0 0 110.1 74.6"><style>.st187{fill:#2b7882}.st189{fill:#f77d66}</style><g id="Layer_1"><path class="st187" d="M106.4 74.6l3.7-4.7L99.9 9.3 3.7 0 0 4.7l6.4 55.7 85 3.9z"/><path fill="#94dbe0" d="M110.1 69.9l-6.4-65.3L3.7 0l6.4 55.7 85 3.9z"/><path class="st187" d="M105.8 56.5l-93.1-4.2L8.4 5l93.1 4.2z"/><path fill="#fff" d="M105.8 56.5l-92.1-4.1L9.5 5.8l92 4.2z"/><path class="st189" d="M17.6 27.1c-.1-.9 0-1.9.3-3 .3-1 .7-2.1 1.3-3.1.5-1 1.1-1.9 1.7-2.8.6-.9 1.2-1.6 1.7-2.2.2-.3.5-.7.9-1.1.3-.4.7-.8 1.1-1.1.4-.3.8-.5 1.3-.6.4-.1.9-.1 1.4.2.4.2.7.5.8.9.1.4.2.8.2 1.2 0 .4-.1.9-.2 1.3s-.2.8-.3 1.1l-.6 3c-.2 1-.3 2-.4 2.9 0 .4 0 .7.1.8.1.1.2.1.3.1.1-.1.3-.2.4-.4.2-.2.3-.4.5-.6.4-.5.8-1.2 1.3-1.9s.9-1.5 1.3-2.3c.4-.8.8-1.6 1.2-2.5.4-.8.6-1.6.9-2.3 0-.1.1-.3.1-.4 0-.1.1-.3.2-.4.1-.1.2-.2.3-.2.1 0 .3-.1.4 0 .1 0 .3.1.4.2l.3.3c.1.2.2.5.2.8v.8c-.1.7-.2 1.5-.4 2.3-.2.8-.5 1.6-.8 2.3-.3.8-.7 1.5-1.1 2.2-.4.7-.8 1.4-1.2 2-.2.3-.5.6-.7 1-.3.3-.6.7-.9 1-.3.3-.7.6-1 .8-.4.2-.7.4-1.1.5-.5.1-1 .1-1.5-.1s-.9-.6-1.1-1.1c-.2-.5-.4-1-.5-1.6-.1-.6-.1-1.3 0-2s.2-1.5.4-2.2c.2-.8.4-1.5.6-2.3.2-.7.3-1.1.2-1.2-.1-.1-.4.2-.9.8-.4.5-.8 1.1-1.3 1.9-.5.7-1 1.5-1.4 2.3-.5.8-.9 1.6-1.3 2.4-.4.8-.7 1.5-.8 2.1-.1.2-.1.4-.1.6 0 .2-.1.4-.4.5-.2.1-.3.1-.5.1s-.3-.1-.4-.2c-.1-.1-.3-.2-.3-.4-.5 0-.6-.2-.6-.4zM36.4 25c.3.2.6.4 1 .3.4 0 .8-.1 1.2-.3l1.2-.6c.4-.3.8-.6 1.1-.9.4-.3.7-.6 1-.9l.7-.7c.1-.2.2-.2.4-.3.1 0 .2 0 .3.1.1.1.1.2.1.3 0 .2 0 .3-.1.5-.6 1.4-1.5 2.6-2.5 3.6-.3.3-.7.6-1.1.8-.4.3-.8.5-1.2.6-.4.2-.9.2-1.3.3-.4 0-.9 0-1.4-.2-.5-.2-1-.5-1.3-.8-.3-.4-.6-.8-.7-1.2-.1-.5-.2-.9-.2-1.5 0-.5.1-1 .2-1.6.1-.5.3-1 .5-1.5s.4-.9.7-1.3c.2-.4.5-.7.8-1.1.3-.4.6-.7 1-1 .4-.3.7-.5 1.1-.7.4-.2.8-.3 1.2-.3.5 0 1 0 1.5.3.5.2.8.6 1.1 1.1.3.5.4 1 .4 1.5s-.1 1-.3 1.4c-.2.5-.4.9-.8 1.3-.3.4-.7.7-1.1.9-.6.4-1.2.6-1.8.7-.6 0-1.2 0-1.9-.2-.1.3-.1.6-.1.9.1.1.2.3.3.5zm1.7-3.2c.5-.2.9-.5 1.2-1 .1-.1.2-.3.3-.5.1-.2.2-.4.2-.6.1-.2 0-.4-.1-.4h-.4l-.6.3c-.2.2-.4.3-.5.5-.3.3-.5.5-.7.8l-.6.9c.5.1.9.1 1.2 0z"/><path class="st189" d="M44.9 25c.3.2.6.3 1 .3s.7-.1 1.1-.2c.4-.2.8-.4 1.1-.6.4-.3.7-.5 1.1-.8l.9-.9c.3-.3.5-.5.6-.7l.3-.3c.1 0 .2 0 .3.1.1.1.1.2.1.3 0 .1 0 .3-.1.5-.5 1.3-1.3 2.5-2.3 3.4-.3.3-.6.5-1 .8-.4.2-.7.4-1.1.6l-1.2.3c-.4 0-.8 0-1.3-.2s-.9-.5-1.2-.8c-.3-.4-.5-.7-.7-1.2-.1-.4-.2-.9-.2-1.4 0-.5.1-1 .2-1.5s.3-1 .5-1.5.4-.9.6-1.3c.2-.4.5-.7.8-1.1.3-.3.6-.7.9-.9.3-.3.7-.5 1-.7.4-.2.8-.3 1.2-.3.5 0 .9 0 1.4.3.4.2.8.6 1.1 1.1.2.5.4.9.4 1.4 0 .5-.1.9-.3 1.4-.2.4-.4.8-.7 1.2-.3.4-.6.7-1 .9-.6.4-1.1.6-1.7.6-.6 0-1.2 0-1.8-.2-.1.3-.1.6-.1.8-.1.2 0 .4.1.6zm1.6-3.1c.4-.2.8-.5 1.1-.9.1-.1.2-.3.3-.5.1-.2.2-.4.2-.6.1-.2 0-.3-.1-.4h-.4c-.2.1-.4.2-.5.3-.2.2-.3.3-.5.4-.2.3-.5.5-.7.8l-.6.9c.5.1.9.1 1.2 0z"/><path class="st189" d="M59.3 22.3s.1-.1.1-.2.1-.1.2-.2c.1 0 .1-.1.2-.1s.1 0 .2.1.1.1.1.2v.3c0 .1-.1.2-.1.3 0 .1-.1.2-.1.2-.3.8-.6 1.6-1.1 2.3-.5.8-1 1.4-1.5 1.8l-.6.3c-.2.1-.5.1-.7 0-.3-.1-.6-.3-.7-.5-.2-.3-.3-.6-.3-.9-.1-.3-.1-.7 0-1.1.1-.4.1-.7.3-.9-.1.2-.3.5-.4.8-.2.3-.3.6-.5.9l-.6.9c-.2.3-.4.5-.7.7-.2.2-.5.3-.7.3-.3 0-.5 0-.8-.2-.4-.2-.7-.5-.9-.9-.2-.4-.3-.8-.4-1.2 0-.4 0-.9.1-1.4.1-.5.2-1 .4-1.4.2-.5.3-.9.5-1.3s.4-.7.5-1c.3-.5.7-1.1 1.2-1.5.4-.5.9-.9 1.4-1.2l.6-.3c.2-.1.5-.1.7-.1.2 0 .5 0 .7.1.2.1.4.2.6.4.1.1.2.3.2.4.1-.2.1-.4.2-.7.1-.3.2-.6.4-.9.1-.3.3-.6.5-1 .2-.3.4-.6.5-.8l.6-.6c.2-.1.4-.2.6-.2.2 0 .4.1.5.2.2.1.3.3.3.5.1.2.1.4.1.6 0 .2 0 .4-.1.6-.1.3-.2.5-.3.8-.1.2-.3.5-.4.7-.1.2-.3.5-.4.7-.2.2-.3.5-.4.7-.4.9-.7 1.7-1.1 2.6-.4.9-.7 1.8-.9 2.7-.1.2 0 .4.1.5.1.1.3 0 .5-.3.2-.2.4-.4.6-.7.2-.2.5-.5.8-1zm-3.9-2.7c-.3.2-.6.5-.9.9l-.9 1.2c-.3.4-.5.9-.7 1.4-.2.5-.3.9-.4 1.3-.1.3-.1.5.1.6.1.1.3 0 .5-.2s.5-.4.7-.7c.3-.3.5-.6.8-1 .3-.4.5-.7.8-1.1.3-.4.5-.7.7-1 .1-.3.2-.6.3-1 .1-.3.2-.6.3-1-.2 0-.4 0-.5.1-.3.1-.5.3-.8.5zM70.7 16.3c-.3.6-.6 1.2-1 1.7-.3.6-.7 1.1-1 1.7.4.1.7.3 1.1.5.4.2.7.5.9.9.2-.5.5-1.1.8-1.7.3-.6.6-1.2 1-1.7.3-.5.7-1 1-1.4.3-.4.7-.7 1-.8.2-.1.4-.1.5-.1.2.1.3.2.3.3.1.1.1.3.1.5s-.1.4-.2.5c-.3.4-.6.9-1 1.6-.3.7-.7 1.4-1 2.1-.3.7-.6 1.5-.8 2.2-.2.7-.4 1.4-.6 2-.1.4-.1.7 0 .7.1.1.3 0 .6-.2l.4-.4c.1-.1.3-.3.4-.6.2-.2.4-.5.6-.8.2-.3.5-.6.8-1l.3-.3h.2c.1.1.1.2.1.3 0 .1 0 .3-.1.4-.1.4-.3.7-.4 1.1-.1.4-.3.7-.4 1.1-.2.4-.3.7-.5 1-.2.3-.4.6-.7.8-.2.2-.5.4-.7.5-.3.1-.6.1-.8.1-.3 0-.5-.1-.8-.3-.2-.2-.4-.4-.6-.8-.2-.5-.3-1.2-.3-1.8.1-.7.2-1.3.4-1.9-.1-.2-.2-.4-.4-.5-.2-.1-.4-.2-.7-.2h-.8c-.3 0-.5.1-.7.1-.1.3-.3.6-.4 1-.1.3-.2.7-.3 1-.1.3-.2.7-.2 1v1c0 .1 0 .3.1.4 0 .1.1.3 0 .4 0 .2-.1.4-.2.5-.1.1-.3.2-.5.1-.2 0-.3-.1-.5-.3-.1-.2-.2-.3-.3-.6-.1-.2-.2-.4-.2-.7-.1-.2-.1-.4-.1-.6-.1-.5-.1-1 0-1.6l.3-1.5c-.2 0-.4.1-.6.1-.2 0-.4.1-.5.1h-.4c-.1 0-.2-.1-.2-.2v-.4c0-.1.1-.3.2-.4.1-.1.2-.2.2-.4l.2-.2c.2-.2.5-.5.8-.6.3-.2.7-.3 1.2-.5.2-.4.5-.9.7-1.4.3-.5.5-.9.8-1.3.3-.4.6-.8 1-1.2.4-.3.7-.6 1.1-.8.2-.1.3-.1.5-.1.1 0 .3.1.3.2.1.1.1.3.1.4.1.6 0 .8-.1 1z"/><path class="st189" d="M76.4 25c.2.2.5.3.7.3.3 0 .5-.1.8-.2.3-.1.6-.3.9-.5.3-.2.5-.5.8-.7.2-.3.5-.5.7-.8.2-.2.3-.5.5-.6l.2-.2c.1 0 .2 0 .2.1.1.1.1.2.1.3v.4c-.4 1.2-1 2.3-1.7 3.1-.2.2-.5.5-.8.7-.3.2-.6.4-.9.5-.3.1-.6.2-.9.2-.3 0-.6 0-1-.2s-.7-.4-1-.7c-.2-.3-.4-.7-.5-1-.1-.4-.2-.8-.2-1.2 0-.4 0-.9.1-1.3s.2-.9.3-1.3c.1-.4.3-.8.5-1.1l.6-.9c.2-.3.4-.6.7-.8.2-.2.5-.5.8-.6.3-.2.6-.3.9-.3.4 0 .7 0 1.1.2.4.2.6.5.8.9.2.4.3.8.3 1.2 0 .4-.1.8-.2 1.2-.1.4-.3.7-.5 1.1-.2.3-.5.6-.7.8-.4.3-.9.5-1.3.6-.4 0-.9 0-1.4-.2-.1.3-.1.5-.1.7 0 0 .1.1.2.3zm1.1-2.8c.3-.2.6-.4.8-.8.1-.1.1-.2.2-.4s.1-.3.1-.5 0-.3-.1-.3h-.3c-.1.1-.3.1-.4.3-.1.1-.2.3-.3.4-.2.2-.3.5-.5.7-.1.3-.3.5-.4.8.4 0 .7-.1.9-.2z"/><path class="st189" d="M83.3 20.5c-.3.9-.6 1.6-.8 2.3-.2.6-.4 1.2-.5 1.8-.1.4 0 .6.1.6.1.1.3 0 .4-.2.4-.4.7-.9 1-1.4.3-.5.6-1 .8-1.5.1-.2.2-.2.3-.2.1.1.2.2.2.4 0 .1 0 .2-.1.4 0 .2-.1.4-.2.6-.1.2-.1.4-.2.6-.1.2-.1.3-.1.4-.2.6-.5 1.2-.7 1.6-.3.4-.5.7-.8 1-.3.2-.6.3-.8.3-.3 0-.5-.1-.8-.3-.2-.2-.4-.4-.5-.7-.1-.3-.2-.6-.2-.9v-1c0-.3.1-.6.1-.9.1-.7.3-1.3.4-1.9l.6-1.8c.1-.2.2-.5.3-.8.1-.4.3-.8.5-1.2l.6-1.2c.2-.4.4-.7.7-1 .2-.3.5-.4.7-.5.2-.1.5 0 .7.3.2.2.3.5.3.8 0 .3 0 .6-.1 1s-.2.7-.4 1.1c-.2.4-.4.7-.6 1-.2.3-.4.6-.6.8 0 .3-.1.4-.3.5z"/><path class="st189" d="M86.9 19.6v.4c.1-.3.3-.6.4-.8.1-.3.3-.5.5-.7.2-.2.4-.2.6-.3.2 0 .4 0 .6.1.2.1.3.2.5.4.1.2.3.4.4.7.1.4.2.7.2 1.1v1.2c0 .4-.1.8-.2 1.1-.1.4-.2.7-.3 1-.2.4-.3.8-.5 1.2-.2.4-.4.7-.7 1-.2.3-.5.5-.7.7-.3.2-.5.3-.8.4-.3.1-.6 0-1-.1-.3-.1-.6-.4-.8-.7-.1.4-.3.8-.4 1.3-.1.4-.2.9-.3 1.4 0 .1-.1.3-.1.4 0 .1 0 .3-.1.4 0 .1-.1.3-.1.4-.1.1-.1.2-.2.3-.1.1-.2.1-.4.1-.1 0-.3 0-.4-.1l-.3-.3c-.1-.1-.1-.3-.2-.5V29c0-.3.1-.5.1-.8.1-.3.1-.5.2-.8.1-.2.1-.4.2-.6.1-.3.2-.6.3-1 .1-.4.3-.8.4-1.2.2-.4.3-.9.5-1.4.2-.5.3-.9.5-1.4.1-.4.3-.9.4-1.2.1-.4.2-.7.3-1 0-.2 0-.4.1-.6.1-.2.2-.3.3-.3.1-.1.2-.1.4-.1.1 0 .3 0 .4.1l.3.3c-.1.2-.1.4-.1.6zm-.3 5.3c.1-.1.3-.3.4-.5.1-.2.3-.4.4-.6.1-.2.2-.5.3-.7.1-.3.2-.5.3-.7.1-.1.1-.3.2-.6.1-.2.1-.5.2-.7 0-.2.1-.5.1-.7 0-.2 0-.3-.1-.4-.1-.1-.2 0-.4.1s-.4.4-.7.8l-.6.9c-.2.3-.3.6-.5 1 0 .1-.1.1-.1.2s-.1.2-.1.3c0 .1-.1.3-.2.4-.1.2-.2.4-.2.7 0 .1.1.2.1.3.1.1.2.2.2.3h.4c.1 0 .2 0 .3-.1zM92.9 26.5c-.1.2-.2.3-.3.5-.1.1-.3.2-.5.2s-.3 0-.5-.1-.3-.3-.4-.6c-.1-.2-.1-.3-.1-.5s0-.4.1-.6c0-.2.1-.3.2-.5.1-.1.2-.3.3-.3.2-.1.4-.2.6-.1.2.1.3.2.5.4.1.2.2.4.2.7 0 .3 0 .6-.1.9zm-.1-6.7c-.1-.2-.2-.4-.2-.6v-.7c0-.2.1-.4.2-.6.1-.2.2-.4.2-.5.2-.4.5-.6.8-.9.3-.2.6-.4 1-.4h.7c.2.1.5.2.7.4l.6.6c.2.3.3.6.4.9.1.4.1.7 0 1 0 .3-.1.6-.3.8-.1.2-.3.5-.5.7-.2.2-.4.4-.6.5-.2.2-.5.3-.7.4-.2.1-.4.3-.6.4l-.9.6c-.3.2-.5.5-.8.9-.1.1-.1.2-.2.2-.1.1-.2 0-.3-.2 0-.1-.1-.2-.1-.3v-.3c0-.1 0-.2.1-.3 0-.1.1-.2.1-.2.1-.3.2-.5.4-.7.1-.2.3-.4.5-.6l.5-.5c.2-.1.4-.3.5-.4.1-.1.2-.2.4-.3.2-.1.4-.3.5-.5.2-.2.3-.3.4-.5.1-.2.2-.3.1-.4 0-.1-.1-.2-.2-.2h-.4c-.2 0-.3.1-.4.2-.1.1-.2.1-.3.1-.1 0-.2.1-.3.2-.1.1-.2.2-.3.2l-.3.3c-.1.1-.1.3-.1.4 0 .1-.1.2-.2.3-.3.2-.4.1-.4 0z"/><g><path class="st187" d="M19.6 46l-.9-12.7 3.1.1.7 10 4.8.1.2 2.7-7.9-.2zM29 46.2l-1-12.5 8 .4.2 2.5-5.2-.3.2 2.3 4.9.2.2 2.4-5-.1.2 2.6 5.5.1.2 2.5-8.2-.1zM43.3 36.8l.9 9.6h-2.8l-.8-9.6-3.3-.1-.2-2.5 9.2.4.2 2.4-3.2-.2zM49.4 39.1l-2-.1.7-4.5 2.2.1-.9 4.5zM58 38c-.5-.6-1.3-1-2-1.1-.7 0-1.5.2-1.4 1.1.1.8.7 1 1.8 1.4 1.5.6 3.4 1.3 3.6 3.6.3 2.7-1.5 3.8-3.6 3.8-1.5 0-3.2-.7-4.2-1.8l1.5-1.9c.6.7 1.6 1.3 2.4 1.3.8 0 1.4-.3 1.3-1.2-.1-.9-.9-1.2-2.4-1.7-1.4-.5-2.9-1.3-3.1-3.4-.3-2.6 1.8-3.6 3.8-3.5 1.2.1 2.6.6 3.6 1.6L58 38zM70.8 47.1c-3.1 0-5.7-2.5-6.1-6.1-.4-3.6 1.7-5.8 4.8-5.7 1.4.1 2.9.7 3.8 1.8l-1.4 1.8c-.5-.7-1.3-1.1-2.1-1.1-1.7-.1-2.7 1.3-2.5 3.3.2 2.1 1.6 3.5 3.2 3.5.9 0 1.6-.4 2-1.1l1.8 1.8c-.7 1.1-1.9 1.8-3.5 1.8zM81.5 46.9l-.5-4.6-3.7-.1.6 4.6h-2.3l-1.3-11.1 2.3.1.4 4.2 3.7.1-.5-4.1 2.2.1L83.8 47l-2.3-.1zM91.7 47.1l-1-2.1-3.5-.1-.3 2.1h-2.4L87 36.3l2.1.1 5 10.7h-2.4zm-3.4-7.9l-.7 3.6 2.2.1-1.5-3.7zM96.6 38.9l1.1 8.3h-2.1l-1.1-8.3-2.4-.1-.3-2.2 6.9.3.3 2.1-2.4-.1z"/></g></g></svg>