<svg xmlns="http://www.w3.org/2000/svg" viewBox="0 0 97.3 76.8"><style>.st0{fill:#fff}</style><g id="Layer_1"><path d="M90.4 0H6.9C3.1 0 0 3.1 0 6.9v54.8c0 3.8 3.1 6.9 6.9 6.9h78.2l9.6 8c1 .8 2.6.1 2.6-1.2V6.9c0-3.8-3.1-6.9-6.9-6.9z" fill="#ff3131"/><path class="st0" d="M30.8 48.1v.2c.1 0 .2.1.3.3.1.1.2.2.4.3.1-.2.1-.4-.1-.6-.2-.3-.4-.3-.6-.2zM29.3 40c.1.1.1.2.2.2h.2c0-.4-.3-.8-.8-1-.1.1-.1.2-.1.3l.4.4.1.1zM30.2 48.5c-.1.1-.1.2 0 .3.1.1.2.1.4.1 0-.1 0-.2-.2-.3 0-.2-.1-.2-.2-.1zM28.8 50.9v.3l.2.2.1.1.1.2.2.2h.2c0-.2-.1-.4-.4-.6-.1-.3-.3-.4-.4-.4zM29.6 37.6c0-.1 0-.1-.1-.2 0-.1-.1-.1-.1-.2l-.2-.2-.1-.1s-.1-.1-.2-.1c-.1-.1-.2-.1-.2-.1 0 .2.3.6.9.9zM29.6 48c-.1.1-.1.2 0 .3.1.1.2.1.2 0 0 0 0-.1-.1-.2 0 0 0-.1-.1-.1zM36.7 37.7v-.2c0-.1-.1-.1-.1-.2h-.4c.1.3.3.4.5.4zM29.4 42.2l-.4-.4h-.1-.1c-.1.2-.1.3 0 .4.1.1.2.2.4.2 0 .1 0 .2.1.3.1.1.2.1.3.1.1-.3 0-.4-.2-.6zM29.3 43.8c.1-.1.1-.2.1-.3H29c0 .2.1.3.3.3zM33.3 57c-.1 0-.2 0-.2.1.1 0 .1 0 .1.1v.4c.1.2.2.3.4.3h.2c0-.2-.1-.3-.3-.5 0-.3-.1-.4-.2-.4zM28.9 40.9c.1-.1.1-.1.1-.2v-.2c0-.1-.1-.1-.2-.1-.1.1-.1.1-.1.3 0 .1.1.2.2.2zM29.6 41.3l-.2-.1s0 .1-.1.1v.1c.1 0 .1 0 .1.1h.1c0-.1 0-.1.1-.1v-.1zM29.6 55.5c0-.1-.1-.3-.3-.4-.2-.1-.2-.2-.3-.3h-.1-.1c-.1.2-.1.4.1.6.3.1.5.2.7.1zM28.8 53.5v.3l.2.2.1.1s.1.1.1.2c.1.1.1.2.2.2s.1.1.2.1c0-.2-.1-.4-.3-.6-.2-.4-.4-.5-.5-.5zM29.2 49.8H29l-.1.3.2.2.3.3c.1.1.2.1.3.1 0-.2.1-.3 0-.4 0-.1-.1-.2-.2-.3-.2 0-.3-.1-.3-.2zM34.9 57.2l-.2-.2c-.1-.1-.2-.2-.3-.2-.1 0-.2 0-.2.1s0 .1.1.2c0 0 .2.1.4.3.2.2.4.3.7.3 0-.1 0-.2-.1-.3-.3 0-.4-.1-.4-.2zM29.6 53.2c.1-.2 0-.3-.2-.6s-.5-.4-.6-.4c0 .2.1.4.3.6.1.2.3.4.5.4zM28.9 38.4l.2.1.1.2c.1.1.1.2.2.2s.1.1.2.1c0-.2-.1-.4-.3-.6l-.1-.1c0-.1-.1-.1-.1-.1s-.1-.1-.2-.1h-.2v.3c.1-.2.1-.1.2 0zM26.2 57.1h-.1-.1c0 .1 0 .1-.1.2 0 0-.1.1 0 .2.2.3.5.4.7.4 0-.1-.1-.3-.2-.4-.1-.2-.2-.3-.2-.4zM27.6 57.2l-.2-.2c-.1-.1-.2-.2-.3-.2-.1 0-.2 0-.2.1s0 .1.1.2l.3.3c.2.2.4.3.7.3 0-.1 0-.2-.1-.3-.2 0-.3-.1-.3-.2zM29.6 56.6c-.1 0-.1 0 0 0-.1-.1-.1-.2-.1-.2-.1 0-.1-.1-.1-.1-.4-.3-.6-.4-.7-.3 0 .1.1.3.2.6.2.2.4.3.6.4l.1-.1v-.1-.2zM28.9 57.2c-.1-.1-.1-.1-.2-.1-.2-.3-.4-.4-.6-.3v.2c0 .1.1.1.2.2s.2.1.2.1c.1.1.1.2.3.3.1.1.2.1.4 0 0-.1 0-.2-.1-.2-.1-.1-.2-.1-.2-.2zM29 48.6c0-.1 0-.2-.1-.2 0-.1-.1-.1-.2-.1v.3h.3c0 .1.1.2.3.4l.3.3c0-.2 0-.3-.1-.5-.1 0-.3-.1-.5-.2zM36 48.1h-.2v.3c.1.2.2.3.3.5.2.2.4.3.5.3 0-.2-.1-.5-.3-.7-.1-.2-.2-.3-.3-.4zM36.1 41.8c-.1-.1-.2-.1-.2-.1v.1c0 .1-.1.1 0 .2.1.2.2.3.3.5.2.2.4.3.5.3 0-.2-.1-.4-.2-.6-.2-.3-.4-.4-.4-.4zM36.7 45.4c0-.2-.1-.4-.3-.6-.2-.2-.3-.3-.3-.4H36h-.1c-.1.1-.1.2-.1.3.1.2.2.3.3.5.3 0 .5.2.6.2zM36.2 46.3c.2.2.4.3.5.3 0-.3-.1-.5-.3-.7-.2-.2-.3-.3-.3-.4H36l-.1-.1V45.7c-.1.2.1.3.3.6zM36.3 50.3l.2.2c.1 0 .1.1.2.1 0-.2-.1-.5-.3-.7-.2-.2-.3-.3-.3-.4H36h-.1l-.1.3s.1.2.4.5c0-.1 0-.1.1 0zM36.7 44.1c0-.2-.1-.4-.3-.6-.2-.2-.3-.3-.3-.4H36h-.1V43.4s.1.2.3.5c.2.1.4.2.5.2zM36.5 47.3l-.4-.4H36h-.1c-.1.1-.1.2-.1.3 0 .1.1.2.3.5.3.2.4.3.6.3.1-.3 0-.5-.2-.7zM36.5 56.3c-.2-.3-.4-.5-.5-.5-.1.1-.1.1-.1.2s0 .1.1.2l.1.1c0 .1.1.1.1.1l.1.1c.1.1.1.1.1.2l.1.1c.1 0 .1.1.2.1.1-.1.1-.2.1-.3 0 0 0-.1-.1-.2-.2 0-.2-.1-.2-.1zM35.8 50.7v.3l.2.2c.1.1.1.1.2.1 0 0 .1.1.1.2.1.1.1.2.2.2s.1.1.2.1c.1-.2-.1-.4-.3-.6-.2-.4-.4-.5-.6-.5zM36.7 54.3c0-.2-.1-.4-.3-.6-.2-.2-.3-.3-.3-.4H36h-.1v.1c-.1.1-.1.1 0 .2.1.2.2.3.3.5.2.1.4.2.5.2zM36 52.5c.1.1.1.1.2.1l.1.1c0 .1.1.1.1.1l.1.1h.2c0-.1.1-.1 0-.2 0-.1-.1-.1-.1-.2l-.1-.1-.1-.1c-.3-.3-.4-.4-.6-.3v.2c.1.2.2.2.2.3zM36.1 54.6h-.2v.3c0 .1.2.3.4.5s.3.3.6.3c0-.2-.1-.5-.3-.7-.3-.2-.4-.3-.5-.4z"/><path class="st0" d="M35.5 54.7V54v-.5-.5c0-.3 0-.9.1-1.9v-1.2c0-.2 0-.5-.1-1s-.1-.9-.1-1.1c0-.1 0-.2.1-.4 0-.2.1-.3.1-.4v-2.2-1.2-1c0-2.4 0-4 .1-4.8h-.1c0 .1-.1.1-.2.2 0 .1-.1 0-.2-.1l-.2.1c-.1 0-.1-.1-.1-.2v-.1-.2h.4s.1 0 .1.1c.1 0 .1.1.1.1v-.1c-.1-.8-.1-1.2-.3-1.4h-.4c-.3-.1-.5 0-.6.1 0-.1-.2-.2-.4-.3-.1 0-.4 0-.7.1-.4.1-.6.1-.7 0 0 .1-.1.1-.2.2l-.1.1c0 .1-.1.2-.1.4v5c0 .1 0 .3-.1.4 0 .2-.1.3-.1.4v.4c0 .2 0 .3.1.4 0 .1 0 .3-.1.5 0 .2-.1.4-.1.5-.2.2-.6.3-1.2.4-1 .1-1.7 0-2.1-.3-.1-.1-.2-.1-.2-.1-.1-.3-.1-.6-.1-.7v-.6-.7-.4-.4c0-.1 0-.2.1-.4 0-.2 0-.3.1-.4v-.1-.1-.1-.1-.2-.2c0-.1 0-.2.1-.4 0-.2.1-.3.1-.4 0-.1 0-.2-.1-.3 0-.2-.1-.3 0-.4v-.7-.7c0-.1 0-.3-.1-.4 0 0-.1-.1-.1-.3 0-.1 0-.2-.1-.2-.2-.1-.4-.1-.7-.2h-.6c-.2 0-.4 0-.7.1h-.7v.2l-.1.1c-.1 0-.1 0-.1.1-.1.2-.1.4 0 .7 0 .3.1.5.1.5 0 .1 0 .3-.1.5 0 .2-.1.4-.1.5v.5c.1.3.1.5.1.6 0 .1 0 .2-.1.3v.3l-.1.6c0 .2 0 .5-.1 1.1v4c-.1 1.2-.1 2.9 0 5v3.2c.1.3.1.5.1.6 0 .1 0 .3-.1.5v.6l.1.1s0 .1.1.3c1.5.1 2.5.1 3.1-.1 0-.1.1-.4.1-1V54v-.3-.3c0-.1 0-.2.1-.4 0-.2.1-.3.1-.3v-.6-.5-.9c-.1-.3-.1-.8 0-1.5 0-.7 0-1.1.1-1.2 0-.1 0-.1-.1-.1l-.1-.1v-.1c.1 0 .2 0 .2-.1s.1-.2.2-.2h.1c0-.1.1-.1.4-.1.7.1 1 .1 1 .1 0-.1.1-.1.1-.1s.1 0 .1.1h1.2c.2 0 .3.1.4.1 0 0 0 .1.1.2s.1.2.1.2v3.2l-.1-.1v.3c0 .1 0 .1.1.1v.2l-.1.1v2.4c0 .1 0 .4-.1.9v1s0 .1.1.1.1.1.1.2h2.6c.2 0 .3-.1.4-.1.1-.2.1-.5.1-.7.1-.2.1-.5.1-.8zM25.4 38.5v.1h-.1v-.1h.1zm.4 11c-.1 0-.1-.1-.1-.1s.1-.1.1-.2v-.1.4zm5.2-2.9zm1.9-3.1s0-.1.1-.1c0 0 .1 0 .1.1v.1h.4v.1c-.1 0-.2 0-.3.1-.1.1-.2.1-.3.1-.1 0-.1-.1-.1-.2.1-.1.1-.1.1-.2zm-.1-1.2c0-.1 0-.1 0 0l-.1-.2v-.2-.1-.9c.1.4.1.9.1 1.4zM34.4 55c0 .1-.1.1-.1.2v-.4s.1-.1 0-.1c.1 0 .1.1.1.3zM36.2 38.7c.1 0 .1.1.2.2s.2.2.3.1c.1-.2 0-.4-.2-.5-.1-.1-.1-.1-.2-.3-.1-.1-.1-.2-.2-.2H36h-.1V38.3c0 .1.1.2.2.3 0-.1 0 0 .1.1zM36.2 39.8c0-.4-.1-.6-.4-.6 0 .3.2.5.4.6zM36.3 39.9c0 .2.2.3.4.3 0-.2 0-.3-.1-.4-.1 0-.2 0-.3.1zM35.4 56.7c0 .1 0 .1.1.2.1 0 .2 0 .2.1 0-.1 0-.2-.1-.3-.1-.1-.2 0-.2 0zM35.9 40.9l.1.1.1.1.1.1c0 .1.1.1.1.1l.1.1h.2c0-.1.1-.1 0-.2 0-.1-.1-.1-.1-.2l-.1-.1-.1-.1c-.2-.3-.4-.4-.5-.4v.2c.1.2.1.2.1.3z"/><g><path class="st0" d="M39.8 57.5c0-.1-.1-.1 0 0l-.2-.2-.1-.1-.1-.1c0-.1-.1-.1-.1-.1s-.1 0-.2-.1h-.2v.2c0 .1.1.1.1.1l.1.1c.1 0 .1.1.1.1l.1.1s0 .1.1.1c0 0 .1 0 .1.1l.1.1H39.9v-.1c0-.2-.1-.2-.1-.2zM41 57.4l-.1-.1c-.1 0-.1-.1-.1-.1l-.1-.1s0-.1-.1-.1c0 0-.1 0-.1-.1l-.1-.1H40.1v.2c0 .1.1.1.1.1s.1.1.2.1.1.1.1.1l.1.1c0 .1.1.1.1.1s.1 0 .2.1h.2v-.2c0 .1 0 0-.1 0zM42.2 57.4c-.1 0-.1-.1-.1-.1v-.1c-.2-.2-.4-.3-.6-.3-.1 0-.1 0-.2.1 0 .1 0 .2.1.2s.2.1.3.2l.3.3c.1.1.3.1.5.1v-.2c-.1-.1-.2-.1-.3-.2zM42 52.7c0 .2 0 .3.1.4.1.1.2.1.4.1 0-.3-.2-.5-.5-.5zM43.4 57.2l-.2-.2c-.1-.1-.2-.2-.3-.2-.1 0-.1 0-.2.1 0 .1.1.2.3.4.2.1.3.2.3.4h.5c0-.1-.1-.2-.2-.3-.2-.1-.2-.1-.2-.2zM42.3 51.9c0-.3-.1-.4-.2-.4-.1.1-.1.2-.1.3.1.1.2.2.3.1zM42.9 51.3v-.2-.1s0-.1-.1-.1-.1-.1-.1-.1l-.1-.1c-.1 0-.1-.1-.1-.1s-.1 0-.1-.1h-.1c0-.1 0-.2-.1-.2 0 0-.1-.1-.1 0-.1.1-.1.2-.1.3.1.1.1.1.2.3l.3.3c.1 0 .2.1.4.1zM42.3 49.6h.2v.3c0 .1.1.1.3.1 0-.1 0-.3-.1-.4l-.2-.2s-.1-.1-.1-.2c-.1-.1-.1-.2-.2-.2H42c-.1.3 0 .5.3.6zM42.9 52.5c0-.3-.1-.5-.4-.6-.1.1-.1.3 0 .4.1.2.2.2.4.2zM42.1 48.3c.1.1.2.2.3.2v-.3c0-.1-.1-.1-.3-.1v.2zM42.1 44c-.1.1-.1.2 0 .3.1.1.2.2.3.2.1-.1.1-.2 0-.3-.1-.2-.2-.2-.3-.2zM42.5 43.6c.1.1.2.1.3.2.1-.2 0-.4-.3-.7-.3-.2-.4-.4-.4-.4H42V43c.1.1.1.1.2.3l.3.3zM44.6 57.2s-.1-.1-.1-.2l-.2-.2H44c0 .1.1.3.3.5.2.2.4.3.5.3 0 0 0-.1-.1-.3-.1 0-.1-.1-.1-.1zM42.2 41.5s-.1 0 0 0c-.1-.1-.2-.1-.2-.1 0 .3.1.5.3.7.2.2.4.3.5.3 0-.2-.1-.4-.3-.6-.2-.1-.3-.2-.3-.3zM42.2 40.8l.3.3c.1.1.2.1.3.1.1-.2 0-.4-.2-.6-.2-.2-.4-.3-.4-.4H42v.3c0 .1.1.2.2.3zM43.2 48c0 .1 0 .2.1.2s.2.1.3.3c.1.1.2.2.4.3.1.1.3.1.4 0 0-.1-.2-.3-.4-.4-.1-.3-.3-.4-.5-.4-.2-.1-.2-.1-.3 0zM43.3 40.6c.2.1.3.1.4 0l-.3-.3c-.2-.2-.3-.3-.5-.3v.3c.1 0 .1.1.2.2.1 0 .1 0 .2.1zM45.9 57.2l-.2-.2c-.1-.1-.3-.2-.4-.1h-.1c0 .1 0 .2.1.3.1 0 .2.1.4.3.2.2.4.3.6.3 0-.1-.1-.2-.2-.3-.1-.2-.2-.2-.2-.3zM45.2 48.3c-.1-.1-.3-.1-.5-.1.1.3.3.4.5.4.1-.1.1-.2 0-.3zM43.9 40s.2.1.4.4c.2.2.5.3.7.2 0-.1 0-.1-.1-.2 0-.1-.1-.1-.2-.2l-.1-.1c-.2-.2-.4-.4-.5-.4 0 0-.1 0-.2.1s-.1.1 0 .2c-.1 0-.1 0 0 0zM47.4 57.5c-.1 0-.2-.1-.2-.1 0-.1 0-.2-.1-.2-.1-.2-.2-.2-.2-.3-.1 0-.1 0-.1-.1h-.3c0 .3.2.5.6.6 0 .1.1.2.2.2.1.1.2.1.3 0-.1 0-.1-.1-.2-.1zM46 47.9c0-.2-.1-.2-.3-.2-.1 0-.1 0-.2.1v.2s.1 0 .2.1c.1 0 .1.1.2.1.1.2.1.3.3.4.1.1.3.1.4 0-.1-.3-.2-.5-.6-.7zM45.2 40l.2.2c.1.1.1.2.2.2l.2.2c.1.1.2.1.2.1h.2c0-.1-.2-.2-.4-.5s-.4-.4-.7-.4c-.1.1-.1.1 0 .2h.1zM46.5 47.6c.2.1.3.2.3.1 0-.2 0-.3-.2-.5s-.4-.3-.5-.3v.4c.1 0 .2.1.4.3zM45.9 45.4v.5s.1.1.2.1c.1.1.2.1.2.1 0 .3.1.4.3.4v-.4c0-.1-.1-.2-.3-.3-.2-.1-.3-.2-.3-.3h-.1zM48.1 56.9c-.1-.1-.1-.1-.2-.1 0 0 0-.1-.1-.1 0-.1-.1-.1-.1-.1s-.1-.1-.2-.1h-.2c0 .2.1.4.3.6.2.2.4.3.6.3v-.2c0-.2 0-.3-.1-.3zM47.6 55.7c0 .1.1.1.3.1.1-.3 0-.4-.2-.4-.2.1-.2.2-.1.3zM48.1 54.5l-.1-.1c0-.1-.1-.1-.1-.1s-.1-.1-.2-.1h-.2c-.1.1-.1.1 0 .2 0 .1.1.1.1.2l.1.1.1.1.1.1.1.1s.1 0 .1.1h.2v-.2c0-.1-.1-.1-.1-.1.1-.1.1-.2-.1-.3.1.1 0 0 0 0zM48.1 55.8c-.1.1-.1.2 0 .4.1.1.2.2.3.2 0-.4-.1-.6-.3-.6zM46.7 40.4c.3.2.5.3.7.2-.1-.2-.2-.4-.4-.5-.3-.2-.5-.3-.7-.2.1.1.2.3.4.5zM47.7 39.8c.1-.1.1-.3 0-.4-.1-.1-.3-.2-.4-.2-.1.1 0 .3.1.4 0 .1.1.2.3.2zM47.7 38.8c.1.2.1.2.2.2l.1.1.1.1h.2V39c0-.1-.2-.2-.5-.3 0 0 0-.1-.1-.2 0-.1-.1-.2-.1-.2s-.1-.1-.2-.1v.2c-.1 0 .1.1.3.4zM47.6 37.3c.1 0 .1-.1.1-.2h-.1-.1v.2h.1zM48.1 39.8c-.1 0-.2 0-.3.1 0 .1.1.2.2.2s.1-.1.1-.3zM48.1 37.8c0-.2 0-.3-.1-.4-.1 0-.2 0-.2.1s.1.2.3.3z"/><path class="st0" d="M47.3 55.6s-.1-.1-.1-.2v-.2-.2-.1-.1-.2c0-.5-.1-.7-.1-.8v-.1c0-.1-.1-.1-.1-.1s-.1 0-.1-.1c0 0-.1 0-.1-.1v-.1h-.1c0-.1-.1-.1-.2 0-.1 0-.1.1-.2.1h-.6-.1-.1c-.9.1-1.8.1-2.7 0H42c-.1 0-.2-.1-.3-.2l-.2-.2c0-.1 0-.3.1-.7.1-.3.2-.6.1-1 0-.7-.1-1.1-.2-1.2.1-.1.1-.2.1-.3v-.3s0-.1.1-.1c0-.1.1-.1.1-.2v-.3c-.1-.5-.1-.9-.1-1.1v-.1c0-.1.1-.1.2-.1 0 0 .2 0 .7-.1h2.7s0-.1.1-.2c0-.1.1-.2.1-.2s0-.1-.1-.2c.2-.2.3-.6.2-1 0-.5-.1-.8-.3-1-.8-.1-1.2-.1-1.4-.1v.1c-.1-.1-.4-.1-.9-.1h-.9s-.1 0-.1-.1l-.1-.1h-.1-.1c-.1-.1-.1-.2-.1-.3v-.6-.6s-.1 0-.1-.1v-.7s.1.1.2.1v-.5-.5c0-.1 0-.1-.1-.3 0-.1-.1-.2-.1-.3v-.7c.1-.3.1-.6.1-.8h.3v-.2h-.1-.1V39H42v-.1h.6c-.1 0-.1.1-.1.1.2.1.2.2.1.3 0-.1-.1-.1-.1-.1h-.1-.2s0 .1-.1.1-.1.1-.1.1l.1.1s.2-.1.5-.1h1.8c0-.1 0-.2-.1-.2h.2v.1h.4c.1 0 .2-.1.3-.1.2.1.4.2.7.1h.5v-.1-.1h.2c0-.1.1-.2.2-.3l.1-.1v-.1-.1-.2-.3-.3-.2c.1-.3 0-.6-.1-.8 0-.1-.1-.3-.2-.3h-.2c-.4-.2-1-.3-1.4-.3-2.1 0-4.2-.1-6.3-.2-.2 0-.3 0-.4.1-.3.1-.5.3-.5.7 0 2.8.1 5.5.4 8.2v4.2c0 .1 0 .1-.1.2 0 .1-.1.1-.1.2v.4l.1.1c.1 0 .1.1 0 .1 0 1 0 2-.1 2.9 0 0 0 .1.1.1s.1.1 0 .1v2.1s0 .1.1.1v.2l.1.1h.1v.2h.1s.1 0 .1.1v.1s.1 0 .2.1l.2.1h.2s.1 0 .1.1h.8c.7.1 1.5.1 2.3-.1h.9c.1 0 .1 0 .2-.1.1 0 .2-.1.2-.1h.6c.1 0 .2 0 .5-.1h.5c0 .1.1.1.3.1.1 0 .2 0 .3.1h.2l.1.1h.6c.1-.1.2-.1.3-.1.1-.1.2-.2.1-.2v-.1c0-.1-.1-.2 0-.2 0 0 0-.1.1-.1 0 .1 0 0 0 0zm-2.6-10c.1 0 .1-.1 0 0 .2-.1.2 0 0 0 0 .1 0 .1 0 0zm-1 .7V46c.1 0 .1 0 .2-.1 0-.1.1-.1.2-.1v.6s-.1.1-.2.1-.1.1-.1.2c-.1-.1-.1-.2-.1-.3v-.1zm-.3 8s-.1.1 0 0l-.1.1c0-.1 0-.1.1-.1zm-3.8-11.7h.1v.2h-.1-.1l.1-.2zm.2 2.7c0 .1 0 .2.1.2s.1.1.1.2c-.1 0-.1 0-.1.1l-.1-.1v-.4zm.7 9.4h.3v.3c0 .1-.1.1-.2.1v-.2c-.1-.1-.1-.1-.1-.2zm.1-.6V54v.1zm-.8-15l-.1.3c-.1-.1-.2-.2-.2-.3H39.8zm1.8 2.6s0 .1-.1.1l-.1.1v-.2h.2z"/></g><g><path class="st0" d="M63.8 57.5c0-.1 0-.1 0 0l-.2-.2-.1-.1-.1-.1c0-.1-.1-.1-.1-.1s-.1 0-.2-.1h-.2v.2c0 .1.1.1.1.1l.1.1c.1 0 .1.1.1.1l.1.1s0 .1.1.1c0 0 .1 0 .1.1l.1.1H63.9v-.1c0-.2-.1-.2-.1-.2zM65 57.4l-.1-.1c-.1 0-.1-.1-.1-.1l-.1-.1s0-.1-.1-.1c0 0-.1 0-.1-.1l-.1-.1H64.1v.2c0 .1.1.1.1.1s.1.1.2.1.1.1.1.1l.1.1c0 .1.1.1.1.1s.1 0 .2.1h.2v-.2c0 .1 0 0-.1 0zM66.3 57.4c-.1 0-.1-.1-.1-.1v-.1c-.2-.2-.4-.3-.6-.3-.1 0-.1 0-.2.1 0 .1 0 .2.1.2s.2.1.3.2l.3.3c.1.1.3.1.5.1v-.2c-.2-.1-.3-.1-.3-.2zM66 52.7c0 .2 0 .3.1.4.1.1.2.1.4.1 0-.3-.2-.5-.5-.5zM67.4 57.2l-.2-.2c-.1-.1-.2-.2-.3-.2-.1 0-.1 0-.2.1 0 .1.1.2.3.4.2.1.3.2.3.4h.5c0-.1-.1-.2-.2-.3-.2-.1-.2-.1-.2-.2zM66.4 51.9c0-.3-.1-.4-.2-.4-.1.1-.1.2-.1.3 0 .1.1.2.3.1zM66.9 51.3v-.2-.1s0-.1-.1-.1-.1-.1-.1-.1l-.1-.1c-.1 0-.1-.1-.1-.1s-.1 0-.1-.1h-.1c0-.1 0-.2-.1-.2 0 0-.1-.1-.1 0-.1.1-.1.2-.1.3.1.1.1.1.2.3l.3.3c.2 0 .3.1.4.1zM66.4 49.6h.2v.3c0 .1.1.1.3.1 0-.1 0-.3-.1-.4l-.2-.2s-.1-.1-.1-.2c-.1-.1-.1-.2-.2-.2H66c-.1.3.1.5.4.6zM66.9 52.5c0-.3-.1-.5-.4-.6-.1.1-.1.3 0 .4.1.2.2.2.4.2zM66.2 48.3c.1.1.2.2.3.2v-.3c0-.1-.1-.1-.3-.1-.1 0-.1.1 0 .2zM66.1 44c-.1.1-.1.2 0 .3.1.1.2.2.3.2.1-.1.1-.2 0-.3-.1-.2-.2-.2-.3-.2zM66.5 43.6c.1.1.2.1.3.2.1-.2 0-.4-.3-.7-.3-.2-.4-.4-.4-.4H66V43c.1.1.1.1.2.3l.3.3zM68.6 57.2s-.1-.1-.1-.2l-.2-.2H68c0 .1.1.3.3.5.2.2.4.3.5.3 0 0 0-.1-.1-.3l-.1-.1zM66.2 41.5c-.1-.1-.2-.1-.2-.1 0 .3.1.5.3.7.2.2.4.3.5.3 0-.2-.1-.4-.3-.6-.1-.1-.3-.2-.3-.3zM66.2 40.8l.3.3c.1.1.2.1.3.1.1-.2 0-.4-.2-.6-.2-.2-.4-.3-.4-.4H66v.3c0 .1.1.2.2.3zM67.2 48c0 .1 0 .2.1.2s.2.1.3.3c.1.1.2.2.4.3.1.1.3.1.4 0 0-.1-.2-.3-.4-.4-.1-.3-.3-.4-.5-.4-.2-.1-.2-.1-.3 0zM67.3 40.6c.2.1.3.1.4 0l-.3-.3c-.2-.2-.3-.3-.5-.3v.3c.1 0 .1.1.2.2.1 0 .2 0 .2.1zM69.9 57.2l-.2-.2c-.1-.1-.3-.2-.4-.1h-.1c0 .1 0 .2.1.3.1 0 .2.1.4.3.2.2.4.3.6.3 0-.1-.1-.2-.2-.3-.1-.2-.2-.2-.2-.3zM69.2 48.3c-.1-.1-.3-.1-.5-.1.1.3.3.4.5.4.1-.1.1-.2 0-.3zM67.9 40s.2.1.4.4c.2.2.5.3.7.2 0-.1 0-.1-.1-.2 0-.1-.1-.1-.2-.2l-.1-.1c-.2-.2-.4-.4-.5-.4 0 0-.1 0-.2.1s-.1.1 0 .2zM71.4 57.5c-.1 0-.2-.1-.2-.1 0-.1 0-.2-.1-.2-.1-.2-.2-.2-.2-.3-.1 0-.1 0-.1-.1h-.3c0 .3.2.5.6.6 0 .1.1.2.2.2.1.1.2.1.3 0-.1 0-.1-.1-.2-.1zM70 47.9c0-.2-.1-.2-.3-.2-.1 0-.1 0-.2.1v.2s.1 0 .2.1c.1 0 .1.1.2.1.1.2.1.3.3.4.1.1.3.1.4 0 0-.3-.2-.5-.6-.7zM69.3 40l.2.2c.1.1.1.2.2.2l.2.2c.1.1.2.1.2.1h.2c0-.1-.2-.2-.4-.5s-.4-.4-.7-.4c-.1.1-.1.1 0 .2h.1zM70.5 47.6c.2.1.3.2.3.1 0-.2 0-.3-.2-.5s-.4-.3-.5-.3v.4c.1 0 .2.1.4.3zM70 45.4v.5s.1.1.2.1c.1.1.2.1.2.1 0 .3.1.4.3.4v-.4c0-.1-.1-.2-.3-.3-.2-.1-.3-.2-.3-.3H70zM72.1 56.9c-.1-.1-.1-.1-.2-.1 0 0 0-.1-.1-.1 0-.1-.1-.1-.1-.1s-.1-.1-.2-.1h-.2c0 .2.1.4.3.6.2.2.4.3.6.3v-.2c0-.2 0-.3-.1-.3zM71.6 55.7c0 .1.1.1.3.1.1-.3 0-.4-.2-.4-.1.1-.1.2-.1.3zM72.1 54.5l-.1-.1c0-.1-.1-.1-.1-.1s-.1-.1-.2-.1h-.2c-.1.1-.1.1 0 .2 0 .1.1.1.1.2l.1.1.1.1.1.1.1.1s.1 0 .1.1h.2v-.2c0-.1-.1-.1-.1-.1.1-.1.1-.2-.1-.3.1.1.1 0 0 0zM72.1 55.8c-.1.1-.1.2 0 .4.1.1.2.2.3.2.1-.4 0-.6-.3-.6zM70.8 40.4c.3.2.5.3.7.2-.1-.2-.2-.4-.4-.5-.3-.2-.5-.3-.7-.2 0 .1.2.3.4.5zM71.7 39.8c.1-.1.1-.3 0-.4-.1-.1-.3-.2-.4-.2-.1.1 0 .3.1.4 0 .1.1.2.3.2zM71.8 38.8c.1.2.1.2.2.2l.1.1.1.1h.2V39c0-.1-.2-.2-.5-.3 0 0 0-.1-.1-.2 0-.1-.1-.2-.1-.2s-.1-.1-.2-.1v.2c-.1 0 0 .1.3.4zM71.6 37.3c.1 0 .1-.1.1-.2h-.1-.1v.2h.1zM72.1 39.8c-.1 0-.2 0-.3.1 0 .1.1.2.2.2s.1-.1.1-.3zM72.1 37.8c0-.2 0-.3-.1-.4-.1 0-.2 0-.2.1s.1.2.3.3z"/><path class="st0" d="M71.3 55.6s-.1-.1-.1-.2v-.2-.2-.1-.1-.2c0-.5-.1-.7-.1-.8v-.1c0-.1-.1-.1-.1-.1s-.1 0-.1-.1c0 0-.1 0-.1-.1v-.1h-.1c0-.1-.1-.1-.2 0-.1 0-.1.1-.2.1h-.6-.1-.1c-.9.1-1.8.1-2.7 0H66c-.1 0-.2-.1-.3-.2l-.2-.2c0-.1 0-.3.1-.7.1-.3.2-.6.1-1 0-.7-.1-1.1-.2-1.2.1-.1.1-.2.1-.3v-.3s0-.1.1-.1c0-.1.1-.1.1-.2v-.3c-.1-.5-.1-.9-.1-1.1v-.1c0-.1.1-.1.2-.1 0 0 .2 0 .7-.1h2.7s0-.1.1-.2c0-.1.1-.2.1-.2s0-.1-.1-.2c.2-.2.3-.6.2-1 0-.5-.1-.8-.3-1-.8-.1-1.2-.1-1.4-.1v.1c-.1-.1-.4-.1-.9-.1h-.9s-.1 0-.1-.1l-.1-.1h-.1-.1c-.1-.1-.1-.2-.1-.3v-.6-.6s-.1 0-.1-.1v-.7s.1.1.2.1v-.5-.5c0-.1 0-.1-.1-.3 0-.1-.1-.2-.1-.3v-.7c.1-.3.1-.6.1-.8h.3v-.2h-.1-.1V39H66v-.1h.6c-.1 0-.1.1-.1.1.2.1.2.2.1.3 0-.1-.1-.1-.1-.1h-.1-.2s0 .1-.1.1-.1.1-.1.1l.1.1s.2-.1.5-.1h1.8c0-.1 0-.2-.1-.2h.2v.1h.4c.1 0 .2-.1.3-.1.2.1.4.2.7.1h.5v-.1-.1h.2c0-.1.1-.2.2-.3l.1-.1v-.1-.1-.2-.3-.3-.2c.1-.3 0-.6-.1-.8 0-.1-.1-.3-.2-.3h-.2c-.4-.2-1-.3-1.4-.3-2.1 0-4.2-.1-6.3-.2-.2 0-.3 0-.4.1-.3.1-.5.3-.5.7 0 2.8.1 5.5.4 8.2v4.2c0 .1 0 .1-.1.2 0 .1-.1.1-.1.2v.4l.1.1c.1 0 .1.1 0 .1 0 1 0 2-.1 2.9 0 0 0 .1.1.1s.1.1 0 .1v2.1s0 .1.1.1v.2l.1.1h.1v.2h.1s.1 0 .1.1v.1s.1 0 .2.1l.2.1h.2s.1 0 .1.1h.8c.7.1 1.5.1 2.3-.1h.9c.1 0 .1 0 .2-.1.1 0 .2-.1.2-.1h.6c.1 0 .2 0 .5-.1h.5c0 .1.1.1.3.1.1 0 .2 0 .3.1h.2l.1.1h.6c.1-.1.2-.1.3-.1.1-.1.2-.2.1-.2v-.1c0-.1-.1-.2 0-.2 0 0 0-.1.1-.1 0 .1 0 0 0 0zm-2.5-10s0-.1 0 0c.1-.1.1 0 0 0 0 .1-.1.1 0 0-.1 0-.1 0 0 0zm-1.1.7V46c.1 0 .1 0 .2-.1 0-.1.1-.1.2-.1v.6s-.1.1-.2.1-.1.1-.1.2c-.1-.1-.1-.2-.1-.3v-.1zm-.3 8s-.1.1 0 0l-.1.1c0-.1.1-.1.1-.1zm-3.8-11.7h.1v.2h-.1-.1l.1-.2zm.2 2.7c0 .1 0 .2.1.2s.1.1.1.2c-.1 0-.1 0-.1.1l-.1-.1v-.4zm.7 9.4h.3v.3c0 .1-.1.1-.2.1v-.2c-.1-.1-.1-.1-.1-.2zm.2-.6v.1c-.1 0-.1 0 0-.1V54v.1zm-.8-15l-.1.3c-.1-.1-.2-.2-.2-.3H63.9zm1.7 2.6s0 .1-.1.1l-.1.1v-.2h.2z"/></g><g><path class="st0" d="M50.8 57.2s.1 0 .1.1c.1 0 .1.1.2.1l.1.1v.2c-.2 0-.3 0-.4-.1l-.3-.3c-.1-.1-.2-.2-.3-.2 0 0-.1-.1-.1-.3h.1c.4 0 .5.2.6.4zM52.2 57.2c0 .1.1.1.2.2s.2.2.1.3c-.2 0-.3 0-.4-.1l-.3-.3c-.1-.1-.2-.2-.3-.2 0 0 0-.1-.1-.3h.1c.1 0 .3 0 .4.2.2.1.3.2.3.2zM53.3 57s.1 0 .1.1c.1 0 .1.1.1.1l.1.1v.2c-.1.1-.2.1-.3 0l-.3-.3-.2-.1c-.1-.1-.2-.1-.2-.2v-.2c.3-.1.5 0 .7.3zM53.8 56.3l.1.1.1.1.1.1v.2h-.2s-.1 0-.2-.1l-.1-.1-.1-.1s-.1-.1-.1-.2l-.1-.1V56c.1-.1.2 0 .3.1l.2.2zM53.8 55l.1.1.2.2c.1.1.1.2.1.2v.2H54c-.1 0-.1-.1-.2-.1l-.1-.1-.1-.1c-.2-.2-.4-.4-.3-.5.1-.1.1-.1.2 0 .1 0 .1.1.1.1.1-.1.1 0 .2 0zM53.4 53.8v-.3h.2c0 .1.2.2.4.4s.3.4.3.6l-.1.1c-.1 0-.1 0-.1-.1l-.1-.1c0-.1-.1-.1-.1-.1-.4-.3-.5-.5-.5-.5zM53.3 52.5v-.3h.2c0 .1.2.2.4.4s.3.4.3.6c0 .1-.1.1-.1.1-.1 0-.1 0-.1-.1l-.1-.1c0-.1-.1-.1-.1-.1l-.5-.5zM53.4 51.2v-.3h.2c0 .1.2.2.4.4s.3.4.3.6c-.2.1-.2.1-.3.1 0 0-.1 0-.1-.1-.1-.1-.1-.1-.1-.2-.3-.2-.4-.4-.4-.5zM53.4 49.9c.2.1.3.3.3.4-.1 0-.2-.1-.2-.2-.2-.1-.2-.2-.1-.2zM54.2 50.7c-.1 0-.2-.1-.3-.2-.1-.1-.1-.2 0-.3.1 0 .3 0 .3.2v.3zM54.2 49.2s-.1 0-.1.1-.1.1-.2.1-.1-.1-.1-.2 0-.2.1-.3c.1-.1.2.1.3.3zM53.4 44.3c.1 0 .1 0 .1.1V44.7c-.2-.1-.2-.3-.1-.4zM53.4 43c.1 0 .3.2.6.4l.1.1.1.1.1.1v.1s0 .1-.1.2c-.2 0-.3-.2-.5-.5l-.1-.1-.1-.1v-.2c-.2.1-.1 0-.1-.1zM53.7 42.5c-.3-.2-.4-.4-.4-.5v-.3h.2c0 .1.2.2.4.4s.3.4.3.6H54s-.1 0-.1-.1c-.1 0-.1-.1-.2-.1zM53.4 40.5c.2 0 .4.2.6.5 0 0 0 .1.1.1l.1.1s.1.1 0 .2c0 .1 0 .1-.1.2-.2 0-.3-.2-.5-.5l-.1-.1c0-.1-.1-.1-.1-.1v-.2c-.1-.1-.1-.2 0-.2zM53.7 39.4s.1.2.3.3c.2.2.3.4.2.5-.1 0-.3-.1-.4-.1l-.3-.3-.2-.2v-.1-.1c0-.1.1-.1.1 0h.3zM55 39.4c.1 0 .3.2.5.4.1.2.2.3.2.4-.2 0-.5 0-.7-.3-.2-.2-.3-.3-.4-.3-.1-.1-.1-.2-.1-.2.2-.1.3-.1.5 0zM58.1 57.1c.2.2.4.3.4.5-.1 0-.1.1-.2.1h-.1l-.1-.1-.1-.1-.1-.1c-.3-.2-.5-.4-.4-.5.1-.1.3 0 .6.2zM58.7 56.8c.2.1.4.2.5.3.1.1.2.3.1.5l-.2-.2c-.1-.1-.2-.2-.4-.1 0 0 0-.1-.1-.2s-.1-.1-.1-.2h.2zM57.9 48.3h.2l.4.4c.2.2.3.5.3.7l-.1-.1c-.1 0-.1-.1-.1-.1l-.1-.1c-.1 0-.1-.1-.1-.1l-.1-.1c0-.1-.1-.1-.1-.2 0 0 0-.1-.1-.2-.2-.1-.2-.2-.2-.2zM59.3 50.9c-.2-.1-.4-.2-.5-.4-.2-.3-.3-.5-.3-.7.3.1.4.3.5.4.2.3.3.5.3.7zM58.1 47.4c.1-.1.2-.1.4 0l.3.3c.1.1.2.1.3.3.1.1.1.2 0 .3-.1 0-.2 0-.3-.1l-.2-.2-.2-.2c-.2-.1-.3-.2-.3-.4zM59.8 52.4c-.1 0-.3-.1-.3-.1l-.3-.3c-.1-.1-.2-.2-.2-.3v-.2h.2c0 .1.2.2.4.3.1.2.2.4.2.6zM60.3 57.1c.3.2.3.4.3.5-.2 0-.3-.1-.4-.3H60c-.1 0-.1 0-.2-.1 0 0-.1 0-.1-.1-.1 0-.1-.1-.1-.1v-.2c.1 0 .1-.1.2-.1s.1 0 .2.1l.1.1.1.1.1.1zM60.2 54.1s-.1 0-.1-.1l-.1-.1s-.1 0-.1-.1l-.1-.1-.1-.1-.1-.1v-.2c.2 0 .4 0 .5.2 0 .1.1.3.1.6zM58.8 46.9c.1-.1.2-.1.3-.1.1 0 .1.1.2.2l.2.2c0 .1.1.1.2.2l.2.2v.2c-.2 0-.3 0-.4-.1l-.2-.2c0-.1-.1-.1-.2-.2-.2-.2-.3-.3-.3-.4zM60.6 55.4c-.1 0-.2 0-.3-.1-.1-.1-.2-.1-.3-.3-.1-.1-.1-.2-.2-.2v-.3h.2c0 .1.1.2.3.3.3.3.3.5.3.6zM60.7 56.4c.2.1.4.3.4.5 0 .1-.1.1-.2 0-.1 0-.1-.1-.2-.1l-.1-.1-.1-.1-.2-.2c-.1-.1-.1-.2-.2-.2v-.3c.1 0 .2 0 .2.1.1 0 .1.1.2.2l.2.2zM60.3 46.8c-.1.1-.2.1-.3 0-.1-.1-.2-.1-.2-.2l-.2-.2c-.1-.1-.1-.2-.2-.2s-.1-.1 0-.1v-.2h.1c.1 0 .2.1.3.2.1.1.2.1.2.2s.1.1.2.2.2.2.1.3zM60.5 45.5l.1.1c0 .1.1.1.1.2v.4c-.2 0-.4-.2-.6-.4l-.1-.1-.1-.1v-.1-.2c.1-.2.3-.1.6.2zM61 45c0 .1-.1.1-.2 0-.1 0-.1-.1-.2-.1 0 0-.1-.1-.1-.2l-.1-.1c-.3-.2-.4-.4-.3-.6.1 0 .2 0 .2.1.1 0 .1.1.2.2s.1.1.1.2c.2.1.4.3.4.5zM60.7 43.3c.2.1.3.3.4.5-.1.1-.3 0-.5-.3-.3-.2-.4-.4-.4-.6.1 0 .2 0 .2.1.1 0 .1.1.2.2l.1.1zM60.1 39.4s-.1 0-.1-.1c-.1 0-.1-.1-.1-.1l-.1-.1-.1-.1s0-.1-.1-.1c0-.1 0-.1-.1-.2v-.2c.2 0 .3.2.5.3.2.2.4.5.4.9h-.1l-.1-.1-.1-.1c.1 0 .1-.1 0-.1zM60.1 40.3c.2 0 .3.1.3.4.5.2.7.4.6.7-.1 0-.2-.1-.4-.3l-.4-.3v-.1s-.1-.1-.1-.2c-.1-.1-.1-.2 0-.2zM60.8 42.2c-.2.1-.3.1-.5-.1-.1-.2-.1-.3 0-.4.1 0 .1 0 .2.1.1 0 .1.1.1.1l.1.1c0 .1.1.1.1.2zM61 42.6h-.1v-.1s0-.1.1-.1c0 0 .1.1 0 .2z"/><path class="st0" d="M59.7 55.9c-.1-.1-.1-.1-.1-.2v-.2-.2l-.1-.1v-.1c0-.1-.1-.3-.1-.4 0-.2-.1-.3-.1-.4l-.1-.1v-.3-.2c-.2 0-.2-.1-.2-.1v-.1-.1c0-.1-.1-.2-.1-.4-.1-.2-.1-.3-.1-.3s0-.1-.1-.2c0-.1-.1-.1 0-.2 0-.1 0-.2-.1-.3-.1-.1-.1-.2-.1-.3v-.1-.1l-.2-.5c0-.1-.1-.1-.1-.2l-.1-.2c0-.1 0-.2-.1-.4 0-.2-.1-.3-.1-.4v-.1l-.1-.3c-.3-.8-.4-1.4-.4-1.8.1-.1.2-.2.4-.2.2-.1.3-.1.3-.2.1-.1.2-.2.4-.5s.3-.4.4-.5l.3-.3c.1-.1.1-.4.2-.8.1-.1.1-.2.1-.3.1-.2.1-.4.2-.5v-.8c0-.4 0-.7.1-.8V41.8l-.2-1.2v-.1s.1-.1 0-.2V40v-.1.1c-.1.1-.2.1-.2 0v-.3c.1-.1.1-.2.1-.2-.1-.1-.1-.2-.2-.5-.1-.2-.1-.3-.1-.3 0-.1 0-.1-.1-.2v-.2l-.2-.1c0-.2 0-.2-.1-.3-.1-.1-.1-.2-.3-.2v-.1s-.2-.1-.4-.1v-.1-.1l-.2-.1c-.1-.2-.4-.3-.7-.4-.1 0-.2-.1-.2-.1 0-.1-.1-.2-.2-.2s-.3-.1-.6-.2h-.1-.1l-.2-.1c-.3 0-.5-.1-.6-.1H55V36h-1.2c-.3 0-.5 0-.6.1 0 .1.1.1.1.1v.1H53c0-.1.1-.2.1-.2h-1.2c-1.3-.1-2 0-2.1.1l-.1.2-.2.2c0 .1 0 .6.1 1.5 0 .2 0 .6-.1 1-.1.5-.1.8 0 1 0 .1.1.4.1.9V44.2c0 .1 0 .2-.1.3 0 .1-.1.3-.1.4 0 .1 0 .3.1.4v.4c0 .1 0 .2-.1.4v2.4c0 .1 0 .3.1.5s.1.4.1.5v2.4c0 .1 0 .3.1.5 0 .2.1.3.1.4v.2c0 .1 0 .1-.1.2v.1c-.1.2-.1.6-.1 1.2l.1.1h.1v.2s-.1 0-.1-.1h-.1l-.1.1c.1.2.2.2.2.3h-.1s-.1 0 0 .1c0 .1.1.3.1.5s.1.4.1.4c.1.1.3.1.4.1.3.1.8.1 1.4.1.7 0 1.1 0 1.2-.1v-.1s0-.1.1-.1c0-.1.1-.3.1-.4v-.5-.5-.3c0-.1 0-.2.1-.2v-1.5-1.7-1.3c0-.7 0-1.2.1-1.5.1 0 .3-.1.8-.2 0 .1.1.1.2.2l.2.2s.1.1.1.3l.1.2v.2s0 .1.1.1l.1.1c.1.3.2.6.2.9v.5l-.1.1v.1l.1.1c0 .2.1.3.1.4 0 .1.1.2.2.4l.1.2c0 .1.1.1.1.3 0 .1.1.5.3 1.1.3.8.4 1.1.4 1.2 0 .6.2 1.2.5 1.9.5.3 1.2.4 2.1.3H59.4c.1 0 .1 0 .1-.1 0 0 0-.1.1-.1l.1-.1c.1-.4.1-.5 0-.5zm-3.6-15.7c0 .1 0 .1 0 0 .1.2.1.5.2 1.1 0 .6.1.9.1 1.1v1.1c0 .2-.1.4-.1.7-.1.3-.1.5-.1.6-.1 0-.2.1-.5.3-.1.1-.2.1-.3.1l-.1.1h-.1-.1l-.1.1c-.8.1-1.2.1-1.2.1H53.5v-.1-.1h-.1l-.1-.1c0-.1-.1-.2-.1-.3 0-.1-.1-.2-.1-.3 0-.1 0-.2.1-.5 0-.2.1-.4.1-.5v-.7c0-.1 0-.2-.1-.4V42v-.1c.2-.7.2-1.2.1-1.9 0 0 0-.1-.1-.1 0-.3.1-.5.1-.6.3-.1.7-.2 1.2-.2.1 0 .3 0 .6.1s.5.1.7.1c0 .1.1.2.3.3.1.1.2.3.2.6h-.2z"/></g><g><path class="st0" d="M34.8 31.7c-.1 0-.1 0 0 0l-.2-.2-.1-.1-.1-.1c0-.1-.1-.1-.1-.1s-.1 0-.2-.1h-.2v.2c0 .1.1.1.1.1l.1.1c.1 0 .1.1.1.1l.1.1s0 .1.1.1c0 0 .1 0 .1.1l.1.1H34.9v-.1c-.1-.1-.1-.1-.1-.2zM36 31.7l-.1-.1c-.1 0-.1-.1-.1-.1l-.1-.1s0-.1-.1-.1c0 0-.1 0-.1-.1l-.1-.1H35.1v.2c0 .1.1.1.1.1s.1.1.2.1.1.1.1.1l.1.1c0 .1.1.1.1.1s.1 0 .2.1h.2v-.2c0 .1-.1 0-.1 0zM37.2 31.7c-.1 0-.1-.1-.1-.1v-.1c-.2-.2-.4-.3-.6-.3-.1 0-.1 0-.2.1 0 .1 0 .2.1.2s.2.1.3.2l.3.3c.1.1.3.1.5.1v-.2c-.2-.1-.2-.2-.3-.2zM37 27c0 .2 0 .3.1.4.1.1.2.1.4.1-.1-.3-.2-.5-.5-.5zM38.3 31.5l-.2-.2c-.1-.1-.2-.2-.3-.2-.1 0-.1 0-.2.1 0 .1.1.2.3.4.2.1.3.2.3.4h.5c0-.1-.1-.2-.2-.3l-.2-.2zM37.3 26.2c0-.3-.1-.4-.2-.4-.1.1-.1.2-.1.3.1.1.1.2.3.1zM37.8 25.6v-.2-.1s0-.1-.1-.1-.1-.1-.1-.1l-.1-.1c-.1 0-.1-.1-.1-.1s-.1 0-.1-.1h-.1c0-.1 0-.2-.1-.2 0 0-.1-.1-.1 0v.2c.1.1.1.1.2.3l.3.3c.1.1.2.1.3.2zM37.3 23.8h.2v.3c0 .1.1.1.3.1 0-.1 0-.3-.1-.4l-.2-.2s-.1-.1-.1-.2c-.1-.1-.1-.2-.2-.2s-.1-.1-.2-.1c-.1.5 0 .7.3.7zM37.8 26.8c0-.3-.1-.5-.4-.6-.1.1-.1.3 0 .4.1.1.3.2.4.2zM37.1 22.6c.1.1.2.2.3.2v-.3c0-.1-.1-.1-.3-.1-.1 0-.1.1 0 .2zM37 18.2c-.1.1-.1.2 0 .3.1.1.2.2.3.2.1-.1.1-.2 0-.3 0-.1-.1-.1-.3-.2zM37.4 17.8c.1.1.2.1.3.2.1-.2 0-.4-.3-.7-.3-.2-.4-.4-.4-.4h-.2V17.2c.1.1.1.1.2.3.2.2.3.3.4.3zM39.5 31.5s-.1-.1-.1-.2l-.2-.2h-.3c0 .1.1.3.3.5.2.2.4.3.5.3 0 0 0-.1-.1-.3 0 0 0-.1-.1-.1zM37.2 15.8c-.1 0-.1 0 0 0l-.2-.1c0 .3.1.5.3.7.2.2.4.3.5.3 0-.2-.1-.4-.3-.6-.2-.1-.3-.2-.3-.3zM37.2 15.1l.3.3c.1.1.2.1.3.1.1-.2 0-.4-.2-.6-.2-.2-.4-.3-.4-.4H37v.3c0 .1.1.1.2.3zM38.2 22.3c0 .1 0 .2.1.2s.2.1.3.3c.1.1.2.2.4.3.1.1.3.1.4 0 0-.1-.2-.3-.4-.4-.1-.3-.3-.4-.5-.4-.2-.1-.3-.1-.3 0zM38.2 14.8c.2.1.3.1.4 0l-.3-.3c-.2-.2-.3-.3-.5-.3v.3c.1 0 .1.1.2.2.1 0 .2.1.2.1zM40.9 31.5l-.2-.2c-.1-.1-.3-.2-.4-.1h-.1c0 .1 0 .2.1.3.1 0 .2.1.4.3.1.2.3.2.5.2 0-.1-.1-.2-.2-.3-.1-.1-.1-.2-.1-.2zM40.1 22.6c-.1-.1-.3-.1-.5-.1.1.3.3.4.5.4.2-.1.2-.2 0-.3zM38.8 14.3s.2.1.4.4c.2.2.5.3.7.2 0-.1 0-.1-.1-.2 0-.1-.1-.1-.2-.2l-.1-.1c-.2-.2-.4-.4-.5-.4 0 0-.1 0-.2.1v.2zM42.3 31.7c-.1 0-.2-.1-.2-.1 0-.1 0-.2-.1-.2-.1-.1-.1-.1-.1-.2-.1 0-.1 0-.1-.1h-.3c0 .3.2.5.6.6 0 .1.1.2.2.2.1.1.2.1.3 0-.1-.1-.2-.1-.3-.2zM41 22.2c0-.2-.1-.2-.3-.2-.1 0-.1 0-.2.1v.2s.1 0 .2.1c.1 0 .1.1.2.1.1.2.1.3.3.4.1.1.3.1.4 0-.1-.3-.3-.5-.6-.7zM40.2 14.3l.2.2c.1.1.1.2.2.2l.2.2c.1.1.2.1.2.1h.2c0-.1-.2-.2-.4-.5s-.4-.4-.7-.4c-.1.1-.1.1 0 .2.1-.1.1 0 .1 0zM41.4 21.8c.2.1.3.2.3.1 0-.2 0-.3-.2-.5s-.4-.3-.5-.3v.4c.1.1.3.2.4.3zM40.9 19.7v.5s.1.1.2.1c.1.1.2.1.2.1 0 .3.1.4.3.4v-.4c0-.1-.1-.2-.3-.3-.2-.1-.3-.2-.3-.3h-.1zM43 31.1c-.1-.1-.1-.1-.2-.1 0 0 0-.1-.1-.1 0-.1-.1-.1-.1-.1s-.1-.1-.2-.1h-.2c0 .2.1.4.3.6.2.2.4.3.6.3v-.2c.1-.1 0-.2-.1-.3zM42.6 29.9c0 .1.1.1.3.1.1-.3 0-.4-.2-.4-.2.1-.2.2-.1.3zM43.1 28.8l-.1-.1c0-.1-.1-.1-.1-.1s-.1-.1-.2-.1h-.2c-.1.1-.1.1 0 .2 0 .1.1.1.1.2l.1.1.1.1.1.1.1.1s.1 0 .1.1h.2v-.2c0-.1-.1-.1-.1-.1.1-.1 0-.2-.1-.3zM43.1 30.1c-.1.1-.1.2 0 .4.1.1.2.2.3.2 0-.4-.1-.6-.3-.6zM41.7 14.6c.3.2.5.3.7.2-.1-.2-.2-.4-.4-.5-.3-.2-.5-.3-.7-.2.1.2.2.4.4.5zM42.6 14.1c.1-.1.1-.3 0-.4-.1-.1-.3-.2-.4-.2-.1.1 0 .3.1.4 0 .1.2.2.3.2zM42.7 13c.1.2.1.2.2.2l.1.1.1.1h.2v-.2c0-.1-.2-.2-.5-.3 0 0 0-.1-.1-.2 0-.1-.1-.2-.1-.2s-.1-.1-.2-.1v.2c-.1 0 0 .2.3.4zM42.5 11.6c.1 0 .1-.1.1-.2h-.1-.1v.2h.1zM43 14.1c-.1 0-.2 0-.3.1 0 .1.1.2.2.2.1-.1.2-.2.1-.3zM43 12c0-.2 0-.3-.1-.4-.1 0-.2 0-.2.1 0 .2.1.3.3.3z"/><path class="st0" d="M42.3 29.8s-.1-.1-.1-.2v-.2-.2-.1-.1-.2c0-.5-.1-.7-.1-.8v-.1c0-.1-.1-.1-.1-.1s-.1 0-.1-.1c0 0-.1 0-.1-.1v-.1h-.1c0-.1-.1-.1-.2 0-.1 0-.1.1-.2.1h-.6-.1-.1c-.9.1-1.8.1-2.7 0H37c-.1 0-.2-.1-.3-.2l-.2-.2c0-.1 0-.3.1-.7.1-.3.2-.6.1-1 0-.7-.1-1.1-.2-1.2.1-.1.1-.2.1-.3v-.3s0-.1.1-.1c0-.1.1-.1.1-.2v-.3c-.1-.5-.1-.9-.1-1.1v-.1c0-.1.1-.1.2-.1 0 0 .2 0 .7-.1h2.7s0-.1.1-.2c0-.1.1-.2.1-.2s0-.1-.1-.2c.2-.2.3-.6.2-1 0-.5-.1-.8-.3-1-.8-.1-1.2-.1-1.4-.1v.1c-.1-.1-.4-.1-.9-.1h-.9s-.1 0-.1-.1l-.1-.1h-.1-.1c-.1-.1-.1-.2-.1-.3v-.6-.6s-.1 0-.1-.1v-.7s.1.1.2.1v-.5-.5c0-.1 0-.1-.1-.3 0-.1-.1-.2-.1-.3v-.7c.1-.3.1-.6.1-.8h.3v-.2h-.1-.1v-.1H37v-.1h.6c-.1 0-.1.1-.1.1.2.1.2.2.1.3 0-.1-.1-.1-.1-.1h-.1-.2s0 .1-.1.1-.1.1-.1.1l.1.1s.2-.1.5-.1h1.8c0-.1 0-.2-.1-.2h.2v.1h.4c.1 0 .2-.1.3-.1.2.1.4.2.7.1h.5v-.1-.1h.2c0-.1.1-.2.2-.3l.1-.1v-.1-.1-.2-.3-.3-.2c.1-.3 0-.6-.1-.8 0-.1-.1-.3-.2-.3h-.2c-.4-.2-1-.3-1.4-.3-2.1 0-4.2-.1-6.3-.2-.2 0-.3 0-.4.1-.3.1-.5.3-.5.7 0 2.8.1 5.5.4 8.2v4.2c0 .1 0 .1-.1.2 0 .1-.1.1-.1.2v.4l.1.1c.1 0 .1.1 0 .1 0 1 0 2-.1 2.9 0 0 0 .1.1.1s.1.1 0 .1v2.1s0 .1.1.1v.2l.1.1h.1v.2h.1s.1 0 .1.1v.1s.1 0 .2.1l.2.1h.2s.1 0 .1.1h.8c.7.1 1.5.1 2.3-.1h.9c.1 0 .1 0 .2-.1.1 0 .2-.1.2-.1h.6c.1 0 .2 0 .5-.1h.5c0 .1.1.1.3.1.1 0 .2 0 .3.1h.2l.1.1h.6c.1-.1.2-.1.3-.1.1-.1.2-.2.1-.2v-.1c0-.1-.1-.2 0-.2 0 0 0-.1.1-.1-.1.2 0 .1 0 0zm-2.6-10s.1 0 0 0c.1 0 .2 0 0 0 0 .2-.1.2 0 0-.1.1-.1.1 0 0zm-1 .7v-.3c.1 0 .1 0 .2-.1 0-.1.1-.1.2-.1v.6s-.1.1-.2.1-.1.1-.1.2c-.1-.1-.1-.2-.1-.3-.1.2 0 .1 0-.1zm-.4 8.1l-.1.1.1-.1zm-3.8-11.7h.1v.2h-.1-.1l.1-.2zm.2 2.7s.1 0 0 0c0 .1 0 .2.1.2s.1.1.1.2c-.1 0-.1 0-.1.1l-.1-.1c.1-.2 0-.3 0-.4zm.7 9.4h.3v.3c0 .1-.1.1-.2.1v-.2c-.1-.1-.1-.2-.1-.2zm.2-.6v.1c-.1 0-.1 0 0-.1v-.1.1zm-.8-15l-.1.3c-.1-.1-.2-.2-.2-.3H34.8zm1.8 2.6s0 .1-.1.1l-.1.1V16h.2z"/><g><path class="st0" d="M17.7 31.1c.2 0 .4 0 .5.1.1.1.2.2.1.3-.3.1-.5-.1-.6-.4zM18.6 31.7c.1 0 .2 0 .3.1.1.1.1.1.1.2-.1.1-.2.1-.3 0-.1-.1-.2-.2-.1-.3zM19.9 31.5c.1.1.2.1.2.2.1.1.1.2.1.3-.2 0-.4-.1-.7-.3-.2-.2-.3-.3-.4-.3 0 0 0-.1-.1-.3h.1c.2 0 .3 0 .4.1h.1l.1.1.2.2zM16.9 12.4c0 .1.2.2.3.3.2.2.3.3.3.5-.1 0-.3 0-.4-.1l-.3-.3-.2-.2v-.3h.3zM17.7 16.3c.1 0 .2.2.3.4.3.1.4.2.4.5-.2 0-.4-.1-.6-.4l-.2-.3c-.1-.1-.2-.2 0-.4-.1.1 0 .2.1.2zM17.2 13.6l.4.4c.2.2.3.4.3.7-.1 0-.4-.2-.7-.5h-.1-.1v-.3c-.1-.1-.1-.2-.1-.4h.1c0 .1.1.1.2.1-.1 0-.1 0 0 0zM17 11.8l-.1-.1-.2-.2c-.1-.1-.1-.2-.1-.2V11c.1 0 .1 0 .2.1.1 0 .1.1.1.1l.1.1.1.1c.3.2.4.4.4.5 0 .1-.1.1-.2 0-.1 0-.1-.1-.2-.1 0 .1-.1.1-.1 0zM17.4 15c0 .1.1.2.3.3l.3.3v.1c.1.1.1.2 0 .4V16l-.1-.1c-.1 0-.2-.1-.3-.3-.1-.1-.3-.2-.3-.3 0-.1 0-.1-.1-.3v-.2c0 .1.1.1.2.2zM18.3 20.5c-.1 0-.2-.1-.2-.2V20c.1 0 .2 0 .2.2.1.2.1.3 0 .3zM17.9 17.7l.2.2.2.2c.2.2.4.3.4.5l-.1.1c-.1 0-.3-.1-.5-.4l-.2-.2c-.1-.1-.2-.1-.2-.2V17.6c.1-.1.2 0 .2.1zM17.9 18.8c.5.3.7.5.6.8-.4-.1-.6-.3-.6-.8zM20.6 31c.1.1.1.1 0 0 .1.1.2.1.2.2l.1.1v.2c-.2 0-.4-.1-.6-.3-.2-.2-.3-.3-.4-.3v-.2c.1-.1.2-.1.2 0h.2l.1.1.2.2zM20.5 29.8s.1 0 .1.1c.1.1.1.1.2.1l.1.1.1.1s.1.1.1.2 0 .1.1.2c-.2 0-.4-.2-.6-.4l-.1-.1c-.1-.1 0-.2 0-.3zM20.7 28.7c.2 0 .2.1.2.2s-.1.1-.2.1c-.1-.1-.1-.2 0-.3zM20.8 27.6c.2.1.4.2.6.4.2.3.3.5.2.6-.2 0-.4-.1-.6-.4-.2-.3-.2-.5-.2-.6zM21.1 29.2c.2 0 .3 0 .4.2.1.1.1.3 0 .3-.2 0-.3-.1-.3-.2-.1 0-.1-.2-.1-.3zM20.8 26.5c.2-.1.4 0 .6.3l.1.1.1.1s0 .1.1.1c0 0 0 .1.1.1v.1s0 .1-.1.1c-.2-.1-.4-.2-.6-.4-.2-.1-.3-.3-.3-.5zM21.6 25.8l.1.1.1.1.1.1v.2c0 .1-.1.1-.2.1s-.1 0-.1-.1c0 0-.1-.1-.1-.2l-.1-.1c-.3-.2-.4-.4-.4-.6.1 0 .3.1.6.4zM21.5 24.5c.1 0 .2.1.3.3.3.3.3.5.2.6-.2 0-.4-.1-.7-.4-.1-.1-.1-.1-.1-.2-.1-.1-.2-.3-.1-.5.2 0 .3.1.4.2zM21.5 23.3c.1.1.1.2.3.3l.2.2c.1.1.2.2.2.3v.2c-.1 0-.3 0-.3-.1l-.1-.2h-.1s-.1-.1-.1-.2c-.1-.1-.2-.2-.2-.3v-.3l.1.1zM21.6 22.5c.3 0 .5 0 .6.2.1.1.2.3.1.5-.1 0-.1 0-.2-.1l-.2-.2-.1-.1s-.1 0-.1-.1c-.1 0-.1-.1-.1-.1v-.1zM21.6 21.2c.1 0 .3 0 .4.2.1.1.1.2 0 .4-.3-.2-.4-.3-.4-.6zM25 31.1c0 .1.1.2.3.3.2.1.2.2.2.4-.5 0-.7-.3-.7-.7h.2zM26.6 31.4c.3.2.4.3.5.5-.2.1-.5 0-.7-.2l-.4-.4c-.1 0-.1-.1-.1-.2.1 0 .1-.1.2-.1.2.1.4.2.5.4zM23.9 11.8l-.1-.1-.2-.2c-.1-.1-.1-.2-.2-.2V11c.2 0 .4.1.6.4 0 0 .1 0 .1.1.1 0 .1.1.1.1s0 .1.1.1v.2c-.1.1-.1.1-.2 0-.1 0-.1-.1-.1-.1 0 .1-.1.1-.1 0zM23.7 12.4c.1 0 .1 0 .2.1.1 0 .1.1.2.2l.2.2.2.2.2.2v.3c-.2 0-.4-.1-.6-.4l-.1-.1-.1-.1s0-.1-.1-.2c-.2-.3-.2-.4-.1-.4zM24.5 14.2c-.2.1-.3.1-.4 0-.1-.1-.2-.3-.1-.5.3 0 .4.2.5.5zM24.2 15.1h.2c.1 0 .1.1.1.1l.1.1c0 .1.1.1.1.1l.2.2c.1.1.2.1.2.2v.3H25s-.1 0-.1-.1l-.1-.1-.1-.1c0-.1-.1-.1-.1-.1l-.2-.2-.2-.2v-.2zM24.8 16.7c-.1 0-.2 0-.3-.1 0-.1-.1-.2-.1-.3.1 0 .2 0 .3.1.2.2.2.2.1.3zM24.7 17.7c.2 0 .3.1.6.4.3.2.4.4.4.6h-.2c-.1 0-.1-.1-.1-.1l-.1-.1c0-.1-.1-.1-.1-.1l-.2-.1-.2-.2c-.1-.2-.1-.3-.1-.4zM25 19c.2.1.3.1.4.3.1.1.1.3 0 .4-.1 0-.3-.1-.4-.2V19zM25.4 20.5c-.1 0-.1-.1-.1-.3.1.1.2.2.1.3zM27.5 31c0 .1.1.2.3.4.2.1.3.3.3.4-.1 0-.3 0-.4-.1-.1-.1-.2-.2-.4-.3l-.3-.3c0-.1 0-.1.1-.1 0-.1 0-.1.1 0h.3zM25.3 17.3c-.3-.1-.4-.2-.4-.5.1 0 .3 0 .4.2.1.1.1.2 0 .3zM28.2 30.4l.3.3c.2.2.3.3.2.5h-.2c-.1 0-.1-.1-.2-.1l-.1-.1s-.1-.1-.1-.2 0-.1-.1-.2l-.1-.1c-.1 0-.1-.1-.1-.1h.4zM28.5 29.6c.4.2.5.4.4.6-.1 0-.3-.2-.5-.3-.2-.2-.3-.3-.4-.3v-.3h.2l.2.2c0-.1.1 0 .1.1zM28.7 28.4l.2.2c.1.1.1.2.1.4-.1.1-.3 0-.6-.3-.3-.2-.4-.4-.4-.6.1-.1.2-.1.3.1.2.1.3.1.4.2zM28.5 27c0 .1.2.2.4.4s.4.4.4.6c-.1 0-.2 0-.3-.1l-.3-.3c-.1-.1-.2-.2-.2-.3V27zM28.4 25.9c.2 0 .4.1.7.4l.1.1c.1.1.1.1.1.2v.4c-.2 0-.4-.2-.7-.4-.2-.4-.2-.6-.2-.7zM29.2 25.2l.2.1c.1.1.1.2.1.2s0 .1-.1.3c-.2 0-.4-.2-.6-.4l-.1-.1-.1-.1-.1-.1V25s0-.1.1-.2c.2 0 .4.1.6.4zM28.8 23.7c.2 0 .3.2.6.5l.1.1.1.1v.1c0 .1 0 .1-.1.2-.2 0-.3-.2-.6-.5l-.1-.1-.1-.1v-.1c0-.1 0-.1.1-.2zM28.9 22.6c.2 0 .4.1.6.4.2.3.3.5.3.6-.2 0-.4-.2-.6-.4-.3-.2-.4-.4-.3-.6zM29.5 22c.3.2.4.4.4.6-.1 0-.2 0-.2-.1-.1 0-.1-.1-.2-.2s-.1-.1-.1-.2c0 0-.1-.1-.2-.1s-.2-.1-.2-.1v-.2c.1-.2.3-.1.5.3zM29.6 20.8c0 .1.1.1.1.1l.1.1.1.1s.1.1.1.2v.2h-.2c-.1 0-.1-.1-.1-.1l-.1-.1-.1-.1s0-.1-.1-.1c-.1-.1-.2-.1-.2-.2s-.1-.1 0-.2H29.5c.1 0 .1.1.1.1 0-.1 0-.1 0 0zM29.9 19.8c.2.2.3.4.4.6 0 .1-.1.1-.2 0-.1 0-.1-.1-.2-.1 0 0-.1-.1-.1-.2l-.1-.1c-.3-.2-.4-.4-.4-.6.1 0 .2 0 .3.1.1 0 .1.1.2.2l.1.1zM29.5 18.4c.1 0 .3 0 .4.2.1.1.2.2.3.2l.2.2c.1.1.1.2.1.2s0 .1-.1.2c-.2 0-.4-.1-.6-.4-.3-.3-.4-.5-.3-.6zM29.6 17.3c.1-.1.3 0 .6.3s.3.5.2.7c-.2-.1-.4-.2-.6-.4-.1-.2-.2-.4-.2-.6zM29.8 16.3c.2 0 .4.2.6.4.2.2.3.4.3.6-.1.1-.3 0-.7-.3-.2-.4-.3-.6-.2-.7zM30 15.2h.1v.2c-.1.1-.2 0-.1-.2zM30.1 14c.2 0 .4.1.6.4.2.3.3.5.3.6-.1 0-.2 0-.2-.1-.1 0-.2-.1-.2-.2l-.2-.2-.1-.1c-.1-.1-.1-.1-.1-.2-.1.1-.1 0-.1-.2zM30.3 12.9c.2 0 .4.2.6.5l.1.1c.1.1.1.2.1.2s0 .1-.1.3c-.1 0-.3-.2-.6-.4l-.1-.1-.1-.1-.1-.1v-.1c.1-.2.1-.2.2-.3zM30.6 12c0 .1.1.2.4.3.2.2.3.3.3.5-.1 0-.2 0-.3-.1l-.3-.3-.3-.3V12c0-.1.1-.1.1 0h.1zM30.6 11.1c.1-.1.2-.1.4-.1.2.1.3.2.3.3.1.1.1.3 0 .4-.1 0-.2-.1-.3-.1-.1-.1-.2-.2-.2-.3l-.2-.2z"/><path class="st0" d="M30 10.7c-.2-.1-.6-.2-1.2-.3h-1.2c-.2 0-.3.1-.4.1-.1.1-.2.2-.2.3-.1.2-.2.4-.2.7v1.8l-.1.1c-.1 0-.1.1-.1.1v.7c-.1 0-.1.1-.1.1.1.4.1.7 0 1 0 0 0 .1-.1.1 0 .1-.1.1-.1.1V16.8c-.1.9-.1 1.4-.1 1.6h.1c0 .2-.1.4-.1.6h-.1c0 .1 0 .2-.1.5 0 .3-.1.4-.1.6 0 0 0 .1-.1.1 0 0 0 .1.1.2v.2c0 .2-.1.4-.1.6 0 .1-.1.2-.1.4s0 .3-.1.5c0 .1-.1.2-.3.2-.1-.2-.3-.5-.3-1-.1-.5-.2-.8-.2-.9h-.1v-.1c0-.1 0-.3-.1-.4l.1.1c.1 0 .1 0 0-.1 0-.1 0-.2-.1-.2s-.1-.1-.1-.1c-.1-.4-.1-.6 0-.8 0 0-.1-.1-.1-.3 0-.1-.1-.2-.2-.3-.1-.9-.2-1.3-.2-1.4v-.2-.2-.2c0-.1-.1-.1-.2-.3v-.3l-.1-.4v-.6-.6s0-.1-.1-.2l-.1-.1c-.1-.1-.1-.3-.1-.4l-.2-.8v-.1-.1-.1-.1-.2-.2l-.1-.1s0-.1.1-.1c0-.2 0-.3-.1-.5-.1 0-.1-.1-.1-.2-.1 0-.2-.1-.3-.2-.1 0-.3 0-.7-.1-.4 0-.7-.1-1 0-.3 0-.5 0-.7.1-.2.2-.3.3-.3.4h.2l.1-.1h.1c-.1 0-.1.1-.1.1l-.1.1V11v.1c-.2.2-.2.4-.2.7 0 .2.1.4.1.6H20v.1c0 .1 0 .2-.1.4 0 .2 0 .3-.1.4v.7c0 .3 0 .6-.1.6 0 .1-.1.2-.1.4s-.1.3-.1.4c0 .2-.1.3 0 .5V16.6c0 .1-.1.3-.1.7l-.4 1.5V20c0 .2 0 .3-.1.5v1.1c-.1.1-.1.2-.1.3v.2c0 .1 0 .2-.1.2-.1-1-.3-1.9-.8-2.8-.1-.1-.1-.2-.2-.3 0-.1-.1-.2-.1-.4v-.3-.1c0-.2-.1-.3-.1-.3v-.2-.2l-.1-.3v-.2s0-.1-.1-.1-.1-.1 0-.1v-.5c-.1-.3-.1-.5-.1-.6-.2-.1-.2-.4-.3-.9v-.3-.1-.1l-.1-.1c0-.1 0-.2-.1-.3 0-.1-.1-.2-.1-.3 0-.1 0-.2-.1-.2v-.2V13.1c0-.1-.1-.3-.1-.5s-.1-.4-.1-.5c-.1-.6-.2-1-.4-1.4-.2-.1-.5-.1-1.1-.1h-.5c-.3-.2-.6-.2-.8 0-.2 0-.4 0-.5.1 0 .1 0 .2-.1.2 0 .1 0 .3.1.5v.6l.1.1c-.1-.1-.1-.1-.1 0s0 .2.1.3v.4l.2.2c0 .1.1.3.1.6s0 .5.1.6c0 0 0 .1.1.1.1.1.1.1.1.2.1.1.1.3.2.7 0 .4.1.6.1.7l.1.1s.1 0 .1.1c0 .2.1.5.2.9s.2.6.2.7c0 .1.1.2.1.3V18.3c0 .2.1.5.2.9s.2.8.2 1.1c0 0 0 .1.1.1 0 0 .1 0 .1.1.1.5.2.8.1 1.1h.4c0 .1 0 .2.1.4 0 .1-.1.1-.1.1-.1 0-.1.1-.1.1v.2h.1c-.1.1 0 .3 0 .6l.2.9s0 .1.1.1l.1.1c.1.1.1.2.1.4v.4s0 .1.1.2c0 .1.1.1.1.2V25.6l.1.1c0 .2.1.6.3 1.4 0 .1.1.2.1.3.1.1.1.2.1.3 0 .1.1.2.1.4s.1.3.1.3v.2c0 .1.1.2.1.3v.4c.1.3.1.4.1.4 0-.1 0-.1.1-.1s.1 0 .1-.1c0 .1 0 .1-.1.2l-.1.1.1.1.1.1v.1h.3v.1c.1.3.3.4.5.5v.1c.3.1 1 .1 2-.1.1-.4.1-.6.1-.7.1-.1.1-.1.1-.2v-.3-.3-.3c0-.1 0-.2.1-.3v-.7l.1-.1c.1 0 .1-.1.1-.1v-.6-.4c0-.1 0-.2.1-.3 0-.1.1-.2.1-.3l.2-1.2c0-.1 0-.2.1-.3v-.3-.1c.1 0 .1-.1.1-.1V24s0-.1-.1-.1c0-.1 0-.2.1-.4V23h.1v-.2-.2h.2s-.1 0-.1-.1l.1-.2v-.2-.2l-.1-.1c0-.2 0-.3.1-.5.1-.1.1-.2.1-.4v-.5-.4l.1-.1s.1-.1.1-.2.1-.1.2-.1l.1-.1c0-.1.1-.1.1-.1.1.2.2.5.3.9.2.6.2 1 .2 1.2l.1.1v.2l.1.1v.2c.1.4.2.7.2.9 0 0 0 .1.1.1h.1V23.4s0 .1.1.1c0 0 .1 0 .1.1s-.1.2-.1.3c0 .1 0 .2.1.3.1.1.1.2.1.3v.7c.1.1.1.2.1.3-.1.1-.1.3-.1.5.3 1.2.4 2.4.9 3.4.2.6.3 1 .3 1.1 0 .1.1.1.2.2.1 0 .2.1.2.2.1 0 .2-.1.3-.1h1.8s.1 0 .2-.1c.1 0 .1-.1.1-.1h.2s.1-.1.1-.3c.1-.2.1-.5.1-.8 0-.2 0-.4-.1-.4l-.3.3h-.1v.1h-.1-.1s.1-.1.1-.2h.1l.2-.2c.1-.1.2-.2.4-.1v-.5c0-.2.1-.3 0-.4V28c.1-.1.1-.2 0-.3 0 .1-.1.1-.1.1l-.1-.1v-.2c.1 0 .2.1.3 0 .1-.3.1-.6.1-1.1v-.8s0-.1.1-.2c0-.1.1-.1.1-.2s0-.2.1-.4v-.3l.1-.1H29v-.1c0-.6.1-1.1.2-1.3H29c0-.2.1-.4.2-.5v-.1h.1c0-.3 0-.7.1-1.1v-.2-.2c.1-.6.2-1.1.2-1.4v-.2-.2-.4h.1c.1-.6.2-1.4.3-2.3 0-.1 0-.4.1-.7 0-.3.1-.5.1-.7.2-1 .3-1.6.3-1.9 0 0 0-.1.1-.1-.6-.8-.6-1.5-.6-2.3z"/></g><g><path class="st0" d="M59 29.3V29v-.3l-.1-.1-.1-.1c0-.1 0-.2-.1-.3 0-.1 0-.1-.1-.2 0-.1-.1-.1-.1-.2s-.1-.3-.1-.6v-.5c0-.1 0-.2-.1-.4 0-.2-.1-.3-.1-.4v-.4s0-.1-.1-.1v-.1-.1l-.1-.7v-.2c0-.1 0-.2-.1-.4.1 0 .1-.1.1-.2v-.3-.4c0-.1 0-.2-.1-.3 0-.1-.1-.2-.1-.3l-.1-.1-.1-.4c0-.2 0-.4.1-.5 0 0-.1 0-.1-.1v-.1c0-.1 0-.2-.1-.6-.1-.3-.1-.6-.1-.7v-.1-.1l-.1-.1c0-.1 0-.2-.1-.2v-.1c0-.1-.1-.1-.1-.2S57 19 57 19c0-.1 0-.3-.1-.5 0-.2 0-.4-.1-.6-.1-.6-.2-.9-.2-.9v-.2-.2c0-.1 0-.1-.1-.2v0l-.1-.5c.1 0 .1.1.2.1v-.1-.2s0-.1-.1-.1c0 0 0 .1-.1.1l-.1-.6h.2c0-.2-.1-.4-.2-.6-.1-.1-.1-.1-.1-.2l-.1-.5h.2c.1-.1.1-.2 0-.3 0 0 0 .1-.1.1 0 0 0 .1-.1.1L56 13c.1.1.2.2.3.2 0-.1 0-.2-.1-.5 0-.2 0-.4-.1-.4 0 .1 0 .1-.1.2h-.1l-.4-2.2c-.2 0-.5 0-1-.1-.5 0-.8-.1-1.1-.1h-1.3c-.1.1-.1.1-.1 0l-.2.2c-.1.1-.1.2-.1.4-.1.1-.2.2-.2.3 0 .1 0 .3-.1.5 0 .2-.1.4-.1.5l-.2 1.2c0 .1 0 .1-.1.2V13.7s0 .1-.1.2c0 .1-.1.1-.1.2V14.7c0 .1-.1.2-.1.5v.5c0-.1.1-.1.2-.1v.2h-.2v.1c0 .1-.1.2-.2.2 0 .3 0 .7-.1.9 0 0 0 .1-.1.1 0 .1-.1.1 0 .1v.6s0 .1-.1.1v.2c0 .1.1.1.1.1 0 .1-.1.3-.2.4-.1.2-.2.3-.2.4.1 0 .1.2.1.4s0 .4.1.5c-.1.1-.2.1-.3 0v.4c0 .2-.1.3-.1.5-.1.2-.1.4-.1.5v.3c0 .1 0 .2-.1.3 0 .1-.1.2 0 .3v.4c0 .1 0 .1-.1.2 0 .1-.1.1-.1.1s0 .1.1.1l-.1.1v1.2s0 .1-.1.3c-.1 0-.1 0-.1.1s0 .2-.1.2v1.2h-.1V26.4h-.1c0 .1 0 .3-.1.6 0 .3-.1.6-.1.8V28.6c0 .2 0 .4-.1.7-.1.2-.1.5-.1.6v.4s.1.1.2.1.1.1.1.1h1.5c.1 0 .4 0 .9-.1.1-.1.2-.2.3-.4.1-.2.1-.4.2-.7 0-.3.1-.5.1-.6-.1 0-.2-.1-.2-.1.1 0 .2-.1.2-.2s.1-.2.1-.3v-.2h.1c.1 0 .1-.1.1-.1V27v-.1s.1-.1 0-.1v-.1s-.1-.1 0-.1.1-.1.1-.1v-.1c-.1 0-.1 0-.1-.1s-.1-.1-.1-.1V26c0-.1.2-.2.4-.4.1.1.1.2.2.2.2.1.3.2.3.3H54.5c.3 0 .5.1.6.2v-.2c-.1 0-.1-.1-.1-.1-.1 0-.1-.1.1-.2 0 .1 0 .2.1.2s.2.1.2.2v.2c.2.2.2.6.2 1v.4c0 .1.1.2.1.3.1.1.1.2.1.3 0 .1 0 .3.1.5v.5c0 .2.2.5.4.9.2.1.4.1.6.1 0-.1 0-.1-.1-.2l-.1-.1s.1 0 .1-.1l.1-.1c.1.1.1.3 0 .5.3-.1.6-.1.9 0 .3.1.6.1.9.1.3 0 .5-.1.7-.3-.2 0-.2-.4-.4-.9zm-4.8-11.2c-.1 0-.2-.1-.2-.2.1.1.2.1.2.2zM51.8 22c-.1-.1-.1-.3-.1-.4H52s.1 0 .1.1c0 0-.1.1-.1.2-.1 0-.2.1-.2.1zm1.1-5.1c.1 0 .1 0 .1.1s-.1.1-.2.1l.1-.2zm-.1-1.3h-.2c.1-.2.3-.2.4-.3-.1.2-.1.2-.2.3zm4 1.8c0 .1-.1.2-.1.4l-.1-.4h.2zM50.7 16v0zm3.4 9.4l-.1.1h-.3c0-.1 0-.2.2-.3.2 0 .3-.1.3-.2 0 .1.1.1 0 .1-.1.1-.1.2-.1.3zm-.6-1.4V23.7s.1 0 .1.1l.1.1h.1c0 .1 0 .1-.1.1h-.2c.1 0 0 0 0 0zm.1-.4c-.6 0-1 0-1.1-.1-.1-.3-.1-.6-.1-.7 0-.1 0-.4.1-.7.1-.3.1-.5.2-.7v-.2-.2l.1-.1c0-.3 0-.4.1-.5l.1-.3c0-.1 0-.3.1-.7 0-.4.1-.7.2-.9-.1-.3 0-.7.1-1.1-.1 0-.1 0-.1-.1s-.1-.1-.1-.1h.1c.2 0 .3 0 .3-.1l.1-.1.1-.1v-.2c0-.1 0-.1.1-.2l.1.1h.1s.1.1.2.3v.2c0 .1 0 .2.1.3v1.2c0 .1.1.1.1.2v.2c0 .1.1.1.1.2l.1.1c0 .1 0 .1-.1.1v.1s0 .1.1.1c0 0 .1.1 0 .1v1c0 .1.1.4.2.8s.1.6.1.8v.1l-.1.1v.2c-.1.2-.1.3-.1.3 0 .1 0 .2.1.4v.3c-.4-.1-.7-.1-1.3-.1zm1.8 1.8c0 .1 0 .1.1.1-.1 0-.2-.1-.1-.1zm.2.7V26l.1.1h-.1zm.5.6l.1.1c0-.1 0-.1-.1-.1zm.4 2.2c-.1 0-.1-.1-.1-.2s0-.2.1-.3c.1.2.1.3 0 .5zM56.9 14.3c.3.2.5.3.6.3 0-.2-.1-.5-.3-.7-.2-.2-.4-.3-.4-.4h-.2v.3c.1.2.2.3.3.5zM51.5 31.3s-.1-.1-.2-.1c-.1-.1-.1-.1-.2-.1h-.3c-.1 0-.1.1 0 .2 0 .1.1.1.1.1l.1.1.1.1.1.1.1.1.1.1h.1s.1 0 .1-.1 0-.2-.1-.3v-.2zM50.1 31.2s-.1 0 0 0c-.1-.1-.2-.1-.2-.1-.1.2-.1.4.1.6.2.2.4.2.7.2 0-.2-.1-.3-.3-.5-.2 0-.3-.1-.3-.2z"/><path class="st0" d="M55.7 12c.1 0 .1.1 0 .1v.1h.1c.1 0 .1-.1.1-.3-.1 0-.1 0-.2.1zM52.1 30.8c-.2-.3-.4-.5-.5-.5-.1.1-.1.2-.1.3 0 0 0 .1.1.2s.1.2.2.2l.2.2c.1.1.1.2.2.2s.1.1.2.1c.1-.1.1-.2.1-.3 0 0 0-.1-.1-.2-.2-.2-.2-.2-.3-.2zM48.7 31.3c-.1.1-.1.2-.1.3l.3.3c.2.1.3.1.4 0-.1-.3-.3-.5-.6-.6zM59 25.9h-.2v.3c0 .1.1.2.3.5.3.2.5.3.6.3 0-.2-.1-.5-.3-.7l-.4-.4zM59.4 25.5c0-.2 0-.3-.1-.5l-.3-.3-.3-.3h-.1-.1V24.7c.3.3.4.5.5.6.2.1.3.2.4.2zM59.1 24c0-.2 0-.4-.1-.5l-.3-.3c-.1-.1-.2-.2-.2-.3h-.1-.1c-.1.1-.1.3 0 .4 0 .1.1.1.1.1l.3.3c.2.2.4.3.4.3zM59.3 27.5h-.2v.3c.1.2.2.4.3.5.2.2.4.3.5.3 0-.2-.1-.5-.3-.7-.2-.2-.3-.3-.3-.4zM58.1 20.1c0-.1-.1-.1-.1-.1l-.1-.1h-.2v.3l.2.2c.1.1.2.1.2.1.2.3.4.4.5.4 0-.2-.1-.4-.3-.6-.1-.1-.1-.2-.2-.2zM58.1 21.7c0 .1.1.2.1.3l.2.2.2.2c.1.1.2.1.2.2 0-.2-.1-.4-.3-.7-.1-.1-.3-.3-.5-.4 0 0 .1.1.1.2zM58.3 19.2c0-.4-.2-.6-.5-.6 0 .4.2.6.5.6zM57.6 15.9s0 .1 0 0c-.1.1-.1.2-.1.3h.2c.1-.2 0-.3-.1-.3zM58 17.5c0-.3-.2-.5-.4-.5v.4h.2c0 .2.1.2.2.1zM59.4 30.6c.1.2.1.3.2.3 0-.1 0-.2-.2-.3zM53.5 18.2c-.1 0-.1.1 0 .1l.1.1-.1-.2zM59.3 31.4c-.2-.2-.3-.3-.4-.3h-.1c0 .2.1.4.4.6l.1.1.1.1s.1 0 .2-.1c0-.1-.1-.2-.3-.4zM53.8 20c0-.4-.2-.7-.6-.7-.1.2 0 .3.1.5.2.1.3.1.5.2zM53.4 20.9c.3.3.5.4.5.5 0-.1.1-.1.1-.2V21l-.1-.1-.1-.1c-.2-.3-.4-.4-.5-.5-.1.1-.1.2-.1.3 0 0 0 .1.1.2 0 .1 0 .1.1.1zM51.8 29.2c-.1.1-.1.2-.1.3.3.1.5.1.5.1 0-.2-.1-.3-.4-.4zM52.9 23v.1c.3 0 .5.1.5.1 0-.1-.1-.3-.2-.4-.1-.1-.2-.1-.3-.1 0 0 .1 0 .1.1-.1 0-.1.1-.1.2zM53.5 22.3c0 .1.1.1.1.1h.2c.1-.2 0-.4-.2-.6-.2-.2-.4-.3-.4-.4-.1 0-.2 0-.2-.1V21.6l.5.5v.2zM52.6 27.6c0 .3.1.4.4.5.1-.1.1-.2 0-.3-.2-.2-.3-.3-.4-.2zM52.6 27.4l-.1-.1c0-.1-.1-.1-.1-.2-.1 0-.1-.1-.2-.1-.1.2 0 .4.1.4 0 .1.2.1.3 0zM52.1 28.1c-.1 0-.2 0-.2-.1 0 .2-.1.2-.1.3 0 0 0 .1.1.3l.2.2c.1 0 .1.1.2.2s.2.2.3.1c.1-.2 0-.4-.3-.7 0-.1-.2-.3-.2-.3zM60 29.5c-.2-.2-.4-.3-.4-.4-.1 0-.2 0-.2-.1 0 .2 0 .4.1.5h.2c.3.4.6.6.7.5-.1-.1-.2-.3-.4-.5zM53.6 27h-.2c0 .2 0 .4.2.5.2.1.3.2.5.1 0-.1-.1-.2-.2-.3-.2-.1-.3-.2-.3-.3zM58.1 31.6s-.1-.1-.1-.2l-.2-.2s-.1-.1-.2-.1h-.3c0 .1.1.3.4.5.3.2.5.3.6.3 0 0-.1-.1-.1-.2 0 0 0-.1-.1-.1zM56.8 31.6c-.2-.1-.3-.2-.3-.3 0 0-.1 0-.1-.1h-.1c-.1.2 0 .4.2.6.2.2.4.2.6.2 0-.2-.1-.3-.3-.4z"/><g><path class="st0" d="M75.9 31.7c-.1 0-.1 0 0 0l-.2-.2-.1-.1-.1-.1c0-.1-.1-.1-.1-.1s-.1 0-.2-.1H75v.2c0 .1.1.1.1.1l.1.1c.1 0 .1.1.1.1l.1.1s0 .1.1.1c0 0 .1 0 .1.1l.1.1H76v-.1c-.1-.1-.1-.1-.1-.2zM77.1 31.7l-.1-.1c-.1 0-.1-.1-.1-.1l-.1-.1s0-.1-.1-.1c0 0-.1 0-.1-.1l-.1-.1H76.2v.2c0 .1.1.1.1.1s.1.1.2.1.1.1.1.1l.1.1c0 .1.1.1.1.1s.1 0 .2.1h.2v-.2c0 .1-.1 0-.1 0zM78.3 31.7c-.1 0-.1-.1-.1-.1v-.1c-.2-.2-.4-.3-.6-.3-.1 0-.1 0-.2.1 0 .1 0 .2.1.2s.2.1.3.2l.3.3c.1.1.3.1.5.1v-.2c-.1-.1-.2-.2-.3-.2zM78.1 27c0 .2 0 .3.1.4.1.1.2.1.4.1-.1-.3-.2-.5-.5-.5zM79.4 31.5l-.2-.2c-.1-.1-.2-.2-.3-.2-.1 0-.1 0-.2.1 0 .1.1.2.3.4.2.1.3.2.3.4h.5c0-.1-.1-.2-.2-.3-.1-.1-.1-.2-.2-.2zM78.4 26.2c0-.3-.1-.4-.2-.4-.1.1-.1.2-.1.3.1.1.2.2.3.1zM79 25.6v-.2-.1s0-.1-.1-.1-.1-.1-.1-.1l-.1-.1c-.1 0-.1-.1-.1-.1s-.1 0-.1-.1h-.1c0-.1 0-.2-.1-.2 0 0-.1-.1-.1 0-.1.1-.1.2-.1.3.1.1.1.1.2.3l.3.3c.1 0 .2 0 .4.1zM78.4 23.8h.2v.3c0 .1.1.1.3.1 0-.1 0-.3-.1-.4l-.2-.2s-.1-.1-.1-.2c-.1-.1-.1-.2-.2-.2s-.1-.1-.2-.1c-.1.5 0 .7.3.7zM79 26.8c0-.3-.1-.5-.4-.6-.1.1-.1.3 0 .4.1.1.2.2.4.2zM78.2 22.6c.1.1.2.2.3.2v-.3c0-.1-.1-.1-.3-.1-.1 0-.1.1 0 .2zM78.2 18.2c-.1.1-.1.2 0 .3.1.1.2.2.3.2.1-.1.1-.2 0-.3-.1-.1-.2-.1-.3-.2zM78.6 17.8c.1.1.2.1.3.2.1-.2 0-.4-.3-.7-.3-.2-.4-.4-.4-.4H78V17.2c.1.1.1.1.2.3.2.2.3.3.4.3zM80.7 31.5s-.1-.1-.1-.2l-.2-.2h-.3c0 .1.1.3.3.5.2.2.4.3.5.3 0 0 0-.1-.1-.3-.1 0-.1-.1-.1-.1zM78.3 15.8s-.1 0 0 0c-.1-.1-.2-.1-.2-.1 0 .3.1.5.3.7.2.2.4.3.5.3 0-.2-.1-.4-.3-.6-.2-.1-.3-.2-.3-.3zM78.3 15.1l.3.3c.1.1.2.1.3.1.1-.2 0-.4-.2-.6-.2-.2-.4-.3-.4-.4h-.2v.3c0 .1.1.1.2.3zM79.3 22.3c0 .1 0 .2.1.2s.2.1.3.3c.1.1.2.2.4.3.1.1.3.1.4 0 0-.1-.2-.3-.4-.4-.1-.3-.3-.4-.5-.4-.2-.1-.3-.1-.3 0zM79.4 14.8c.2.1.3.1.4 0l-.3-.3c-.2-.2-.3-.3-.5-.3v.3c.1 0 .1.1.2.2 0 0 .1.1.2.1zM82 31.5l-.2-.2c-.1-.1-.3-.2-.4-.1h-.1c0 .1 0 .2.1.3.1 0 .2.1.4.3.2.2.4.3.6.3 0-.1-.1-.2-.2-.3-.1-.2-.2-.3-.2-.3zM81.3 22.6c-.1-.1-.3-.1-.5-.1.1.3.3.4.5.4.1-.1.1-.2 0-.3zM79.9 14.3s.2.1.4.4c.2.2.5.3.7.2 0-.1 0-.1-.1-.2 0-.1-.1-.1-.2-.2l-.1-.1c-.2-.2-.4-.4-.5-.4 0 0-.1 0-.2.1v.2zM83.4 31.7c-.1 0-.2-.1-.2-.1 0-.1 0-.2-.1-.2-.1-.1-.1-.1-.1-.2-.1 0-.1 0-.1-.1h-.3c0 .3.2.5.6.6 0 .1.1.2.2.2.1.1.2.1.3 0-.1-.1-.2-.1-.3-.2zM82.1 22.2c0-.2-.1-.2-.3-.2-.1 0-.1 0-.2.1v.2s.1 0 .2.1c.1 0 .1.1.2.1.1.2.1.3.3.4.1.1.3.1.4 0-.1-.3-.3-.5-.6-.7zM81.3 14.3l.2.2c.1.1.1.2.2.2l.2.2c.1.1.2.1.2.1h.2c0-.1-.2-.2-.4-.5s-.4-.4-.7-.4c-.1.1-.1.1 0 .2.1-.1.1 0 .1 0zM82.6 21.8c.2.1.3.2.3.1 0-.2 0-.3-.2-.5s-.4-.3-.5-.3v.4c.1.1.2.2.4.3zM82 19.7v.5s.1.1.2.1c.1.1.2.1.2.1 0 .3.1.4.3.4v-.4c0-.1-.1-.2-.3-.3-.2-.1-.3-.2-.3-.3H82zM84.1 31.1L84 31s0-.1-.1-.1c0-.1-.1-.1-.1-.1s-.1-.1-.2-.1h-.2c0 .2.1.4.3.6.2.2.4.3.6.3v-.2c0-.1-.1-.2-.2-.3zM83.7 29.9c0 .1.1.1.3.1.1-.3 0-.4-.2-.4-.2.1-.2.2-.1.3zM84.2 28.8l-.1-.1c0-.1-.1-.1-.1-.1s-.1-.1-.2-.1h-.2c-.1.1-.1.1 0 .2 0 .1.1.1.1.2l.1.1c.1-.1.2 0 .2 0l.1.1.1.1s.1 0 .1.1h.2v-.2c0-.1-.1-.1-.1-.1l-.2-.2c.1 0 0 0 0 0zM84.2 30.1c-.1.1-.1.2 0 .4.1.1.2.2.3.2 0-.4-.1-.6-.3-.6zM82.8 14.6c.3.2.5.3.7.2-.1-.2-.2-.4-.4-.5-.3-.2-.5-.3-.7-.2.1.2.2.4.4.5zM83.7 14.1c.1-.1.1-.3 0-.4-.1-.1-.3-.2-.4-.2-.1.1 0 .3.1.4.1.1.2.2.3.2zM83.8 13c.1.2.1.2.2.2l.1.1.1.1h.2v-.2c0-.1-.2-.2-.5-.3 0 0 0-.1-.1-.2 0-.1-.1-.2-.1-.2s-.1-.1-.2-.1v.2c-.1 0 .1.2.3.4zM83.7 11.6c.1 0 .1-.1.1-.2h-.1-.1v.2h.1zM84.2 14.1c-.1 0-.2 0-.3.1 0 .1.1.2.2.2.1-.1.1-.2.1-.3zM84.2 12c0-.2 0-.3-.1-.4-.1 0-.2 0-.2.1 0 .2.1.3.3.3z"/><path class="st0" d="M83.4 29.8s-.1-.1-.1-.2v-.2-.2-.1-.1-.2c0-.5-.1-.7-.1-.8v-.1c-.1.1-.2.1-.2.1s-.1 0-.1-.1c0 0-.1 0-.1-.1v-.1h-.1c0-.1-.1-.1-.2 0-.1 0-.1.1-.2.1h-.6-.1-.1c-.9.1-1.8.1-2.7 0H78c-.1 0-.2-.1-.3-.2l-.2-.2c0-.1 0-.3.1-.7.1-.3.2-.6.1-1 0-.7-.1-1.1-.2-1.2.1-.1.1-.2.1-.3v-.3s0-.1.1-.1c0-.1.1-.1.1-.2v-.3c-.1-.5-.1-.9-.1-1.1v-.1c0-.1.1-.1.2-.1 0 0 .2 0 .7-.1h2.7s0-.1.1-.2c0-.1.1-.2.1-.2s0-.1-.1-.2c.2-.2.3-.6.2-1 0-.5-.1-.8-.3-1-.8-.1-1.2-.1-1.4-.1v.1c-.1-.1-.4-.1-.9-.1h-.9s-.1 0-.1-.1l-.1-.1h-.1-.1c-.1-.1-.1-.2-.1-.3v-.6-.6s-.1 0-.1-.1v-.7s.1.1.2.1v-.5-.5c0-.1 0-.1-.1-.3 0-.1-.1-.2-.1-.3v-.7c.1-.3.1-.6.1-.8h.3v-.2h-.1-.1v-.1H78v-.1h.6c-.1 0-.1.1-.1.1.2.1.2.2.1.3 0-.1-.1-.1-.1-.1h-.1-.2s0 .1-.1.1-.1.1-.1.1l.1.1s.2-.1.5-.1h1.8c0-.1 0-.2-.1-.2h.2v.1h.4c.1 0 .2-.1.3-.1.2.1.4.2.7.1h.5v-.1-.1h.2c0-.1.1-.2.2-.3l.1-.1V13v-.1-.2-.3-.3-.2c.1-.3 0-.6-.1-.8 0-.1-.1-.3-.2-.3h-.2c-.4-.2-1-.3-1.4-.3-2.1 0-4.2-.1-6.3-.2-.2 0-.3 0-.4.1-.3.1-.5.3-.5.7 0 2.8.1 5.5.4 8.2v4.2c0 .1 0 .1-.1.2 0 .1-.1.1-.1.2v.4l.1.1c.1 0 .1.1 0 .1 0 1 0 2-.1 2.9 0 0 0 .1.1.1s.1.1 0 .1v2.1s0 .1.1.1v.2l.1.1h.1v.2h.1s.1 0 .1.1v.1s.1 0 .2.1l.2.1h.2s.1 0 .1.1h.8c.7.1 1.5.1 2.3-.1h.9c.1 0 .1 0 .2-.1.1 0 .2-.1.2-.1h.6c.1 0 .2 0 .5-.1h.5c0 .1.1.1.3.1.1 0 .2 0 .3.1h.2l.1.1h.6c.1-.1.2-.1.3-.1.1-.1.2-.2.1-.2v-.1c0-.1-.1-.2 0-.2 0 0 0-.1.1-.1s.1-.1.1-.2zm-2.6-10c.1 0 .1 0 0 0 .2 0 .2 0 0 0 0 .2 0 .2 0 0-.1.1 0 .1 0 0zm-1 .7v-.3c.1 0 .1 0 .2-.1 0-.1.1-.1.2-.1v.6s-.1.1-.2.1-.1.1-.1.2c-.1-.1-.1-.2-.1-.3v-.1zm-.3 8.1c-.1 0-.1 0 0 0l-.1.1c0-.1 0-.1.1-.1zm-3.8-11.7h.1v.2h-.1-.1l.1-.2zm.1 2.7c.1 0 .1 0 0 0 0 .1 0 .2.1.2s.1.1.1.2c0 0-.1 0 0 0l-.1-.1c0-.1 0-.2-.1-.3zm.8 9.4h.3v.3c0 .1-.1.1-.2.1v-.2c-.1-.1-.2-.2-.1-.2zm.1-.6v-.1.1zm-.8-15l-.1.3c-.1-.1-.2-.2-.2-.3H75.9zm1.8 2.6s0 .1-.1.1l-.1.1V16h.2z"/></g><g><path class="st0" d="M62.8 31.5s.1 0 .1.1c.1 0 .1.1.2.1l.1.1v.2c-.2 0-.3 0-.4-.1l-.3-.3c-.1-.1-.2-.2-.3-.2 0 0-.1-.1-.1-.3h.1c.4 0 .6.1.6.4zM64.3 31.4c0 .1.1.1.2.2s.2.2.1.3c-.2 0-.3 0-.4-.1l-.3-.3c-.1-.1-.2-.2-.3-.2 0 0 0-.1-.1-.3h.1c.1 0 .3 0 .4.2.2.2.3.2.3.2zM65.3 31.3l.1.1c.1 0 .1.1.1.1l.1.1v.2c-.1.1-.2.1-.3 0l-.3-.3v-.1c-.1-.1-.2-.1-.2-.2V31c.2-.1.4 0 .5.3zM65.9 30.6l.1.1.1.1.1.1v.2H66s-.1-.1-.2-.1l-.1-.1-.1-.1s-.1-.1-.1-.2l-.1-.1v-.2c.1-.1.2 0 .3.1.1.1.1.2.2.2zM65.9 29.3l.1.1.2.2c.1.1.1.2.1.2v.2h-.2c-.1 0-.1-.1-.2-.1l-.1-.1-.1-.1c-.2-.2-.4-.4-.3-.5.1-.1.1-.1.2 0 .1 0 .1.1.1.1.1-.1.1-.1.2 0zM65.4 28v-.3h.2c0 .1.2.2.4.4s.3.4.3.6l-.1.1c-.1 0-.1 0-.1-.1l-.1-.1c0-.1-.1-.1-.1-.1-.3-.3-.5-.4-.5-.5zM65.4 26.7v-.3h.2c0 .1.2.2.4.4s.3.4.3.6c0 .1-.1.1-.1.1-.1 0-.1 0-.1-.1l-.1-.1c0-.1-.1-.1-.1-.1-.3-.3-.5-.4-.5-.5zM65.4 25.4v-.3h.2c0 .1.2.2.4.4s.3.4.3.6c-.1 0-.2.1-.2.1s-.1 0-.1-.1c-.1-.1-.1-.2-.1-.2-.3-.2-.5-.4-.5-.5zM65.5 24c.2.1.3.3.3.4-.1 0-.2-.1-.2-.2-.2 0-.2-.1-.1-.2zM66.2 24.9c-.1 0-.2-.1-.3-.2-.1-.1-.1-.2 0-.3.1 0 .3 0 .3.2.1.1.1.2 0 .3zM66.2 23.4s-.1 0-.1.1-.1.1-.2.1-.1-.1-.1-.2 0-.2.1-.3c.2-.1.3 0 .3.3zM65.5 18.4c.1 0 .1 0 .1.1V18.8c-.3-.1-.3-.2-.1-.4zM65.5 17.1c.1 0 .3.2.6.5l.1.1.1.1.1.1v.1s0 .1-.1.2c-.2 0-.3-.2-.5-.5l-.1-.1-.1-.1v-.2c-.2 0-.2-.1-.1-.2zM65.8 16.6c-.3-.2-.4-.4-.4-.5v-.3h.2c0 .1.2.2.4.4s.3.4.3.6h-.2s-.1 0-.1-.1c-.1 0-.2-.1-.2-.1zM65.5 14.6c.2 0 .4.2.6.5 0 0 0 .1.1.1l.1.1s.1.1 0 .2c0 .1 0 .1-.1.2-.2 0-.3-.2-.5-.5l-.1-.1c0-.1-.1-.1-.1-.1v-.2c-.1-.1-.1-.2 0-.2zM65.8 13.5s.1.2.3.3c.2.2.3.4.2.5-.1 0-.3-.1-.4-.1l-.3-.3-.2-.2v-.1-.1c0-.1.1-.1.1 0h.3zM67 13.5c.1 0 .3.2.5.4.1.2.2.3.2.4-.2 0-.5 0-.7-.3-.2-.2-.3-.3-.4-.3-.1-.1-.1-.2-.1-.2.2-.1.4-.1.5 0zM70.1 31.4c.2.2.4.3.4.5-.1 0-.1.1-.2.1h-.1l-.1-.1-.1-.1-.1-.1c-.3-.2-.5-.4-.4-.5.2-.1.4-.1.6.2zM70.8 31.1c.2.1.4.2.5.3.1.1.2.3.1.5l-.2-.2c-.1-.1-.2-.2-.4-.1 0 0 0-.1-.1-.2s-.1-.1-.1-.2h.2zM69.9 22.4h.2l.4.4c.2.2.3.5.3.7l-.1-.1c-.1 0-.1-.1-.1-.1l-.1-.1-.1-.1-.1-.1c0-.1-.1-.1-.1-.2 0 0 0-.1-.1-.2-.1 0-.2-.1-.2-.2zM71.3 25.1c-.2-.1-.4-.2-.5-.4-.2-.3-.3-.5-.3-.7.3.1.4.3.5.4.3.3.3.5.3.7zM70.2 21.6c.1-.1.2-.1.4 0l.3.3c.1.1.2.1.3.3.1.1.1.2 0 .3-.1 0-.2 0-.3-.1l-.2-.2-.2-.2c-.3-.2-.3-.3-.3-.4zM71.8 26.6c-.1 0-.3-.1-.3-.1l-.3-.3c-.1-.1-.2-.2-.2-.3v-.3h.2c0 .1.2.2.4.4.1.3.2.4.2.6zM72.4 31.4c.3.2.3.4.3.5-.2 0-.3-.1-.4-.3h-.2c-.1 0-.1 0-.2-.1 0 0-.1 0-.1-.1-.1 0-.1-.1-.1-.1v-.2c.1 0 .1-.1.2-.1s.1 0 .2.1l.1.1.1.1.1.1zM72.3 28.3s-.1 0-.1-.1l-.1-.1s-.1 0-.1-.1l-.1-.1-.1-.1-.1-.1v-.2c.2 0 .4 0 .5.2 0 .2 0 .4.1.6zM70.9 21c.1-.1.2-.1.3-.1.1 0 .1.1.2.2l.2.2c0 .1.1.1.2.2l.2.2v.2c-.2 0-.3 0-.4-.1l-.2-.2c0-.1-.1-.1-.2-.2-.3-.2-.3-.3-.3-.4zM72.7 29.7c-.1 0-.2 0-.3-.1-.1-.1-.2-.1-.3-.3-.1-.1-.1-.2-.2-.2v-.3h.2c0 .1.1.2.3.3.2.3.3.4.3.6zM72.8 30.7c.2.1.4.3.4.5 0 .1-.1.1-.2 0-.1 0-.1-.1-.2-.1l-.1-.1-.1-.1-.2-.2c-.1-.1-.1-.2-.2-.2v-.3c.1 0 .2 0 .2.1.1 0 .1.1.2.2l.2.2zM72.4 21c-.1.1-.2.1-.3 0-.1-.1-.2-.1-.2-.2l-.2-.2c-.1-.1-.1-.2-.2-.2s-.1-.1 0-.1v-.2h.1c.1 0 .2.1.3.2l.2.2c0 .1.1.1.2.2s.1.2.1.3zM72.6 19.6l.1.1c0 .1.1.1.1.2v.4c-.2 0-.4-.2-.6-.4l-.1-.1-.1-.1v-.1-.2c.1-.2.3 0 .6.2zM73 19.2c0 .1-.1.1-.2 0-.1 0-.1-.1-.2-.1 0 0-.1-.1-.1-.2l-.1-.1c-.3-.2-.4-.4-.3-.6.1 0 .2 0 .2.1.1 0 .1.1.2.2s.1.1.1.2c.3 0 .4.2.4.5zM72.7 17.4c.2.1.3.3.4.5-.1.1-.3 0-.5-.3-.3-.2-.4-.4-.4-.6.1 0 .2 0 .2.1.1 0 .1.1.2.2l.1.1zM72.2 13.5s-.1 0-.1-.1c-.1 0-.1-.1-.1-.1l-.1-.1-.1-.1s0-.1-.1-.1c0-.1 0-.1-.1-.2v-.2c.2 0 .3.2.5.3.2.2.4.5.4.9h-.1l-.1-.1-.1-.1c.1-.1 0-.1 0-.1zM72.1 14.4c.2 0 .3.1.3.4.5.2.7.4.6.7-.1 0-.2-.1-.4-.3l-.4-.3v-.1s-.1-.1-.1-.2v-.2zM72.9 16.3c-.2.1-.3.1-.5-.1-.1-.2-.1-.3 0-.4.1 0 .1 0 .2.1.1 0 .1.1.1.1l.1.1c0 .1 0 .1.1.2zM73 16.7h-.1v-.1s0-.1.1-.1.1.1 0 .2z"/><path class="st0" d="M71.8 30.1c-.1-.1-.1-.1-.1-.2v-.2-.2l-.1-.1v-.1c0-.1-.1-.3-.1-.4 0-.2-.1-.3-.1-.4l-.1-.1v-.3-.2l-.2-.2v-.1-.1c0-.1-.1-.2-.1-.4-.1-.2-.1-.3-.1-.3s0-.1-.1-.2c0-.1-.1-.1 0-.2 0-.1 0-.2-.1-.3-.1-.1-.1-.2-.1-.3v-.1-.1l-.1-.7c0-.1-.1-.1-.1-.2l-.1-.2c0-.1 0-.2-.1-.4 0-.2-.1-.3-.1-.4v-.1l-.1-.3c-.3-.8-.4-1.4-.4-1.8.1-.1.2-.2.4-.2.2-.1.3-.1.3-.2.1-.1.2-.2.4-.5s.3-.4.4-.5l.3-.3c.1-.1.1-.4.2-.8.1-.1.1-.2.1-.3.1-.2.1-.4.2-.5v-.8c0-.4 0-.7.1-.9V15.6l-.2-1.2v-.1s.1-.1 0-.2l-.2-.1v-.1.1c-.1.1-.2.1-.2 0v-.3c.1-.1.1-.2.1-.2-.1-.1-.1-.3-.2-.5s-.1-.3-.1-.4c0-.1 0-.1-.1-.2v-.2l-.2-.1c0-.2 0-.2-.1-.3-.1-.1-.1-.2-.3-.2v-.1s-.2-.1-.4-.1v-.1-.1l-.2-.1c-.1-.2-.4-.4-.7-.4-.1 0-.2-.1-.2-.1 0-.1-.1-.2-.2-.2s-.3-.1-.6-.2h-.1-.1l-.2-.1c-.3 0-.5-.1-.6-.1H67v-.1h-1c-.3 0-.5 0-.6.1 0 .1.1.1.1.1v.1h-.3c0-.1.1-.2.1-.2h-1.2c-1.3-.1-2 0-2.1.1l-.1.2-.2.2c0 .1 0 .6.1 1.5 0 .2 0 .6-.1 1-.1.5-.1.8 0 1 0 .1.1.5.1.9V18.1c0 .1 0 .2-.1.3 0 .1-.1.3-.1.4 0 .1 0 .3.1.4v.4c0 .1 0 .2-.1.5v2.4c0 .1 0 .3.1.5s.1.4.1.5v2.4c0 .1 0 .3.1.5 0 .2.1.3.1.4v.2c0 .1 0 .1-.1.2v.1c-.1.2-.1.6-.1 1.2l.1.1h.1v.2s-.1 0-.1-.1h-.1l-.1.1c.1.2.2.2.2.3h-.1s-.1 0 0 .1c0 .1.1.3.1.5s.1.4.1.4c.1.1.3.1.4.1.3.1.8.1 1.4.1.7 0 1.1 0 1.2-.1v-.1s0-.1.1-.1c0-.1.1-.3.1-.4v-.5-.5-.3c0-.1 0-.2.1-.2v-1.5-1.7-1.3c0-.7 0-1.2.1-1.5.1 0 .3-.1.8-.2 0 .1.1.1.2.2l.2.2s.1.1.1.3l.1.2v.2s0 .1.1.1l.1.1c.1.3.2.6.2 1v.5l-.2.1v.1l.1.1c0 .2.1.4.1.4 0 .1.1.2.2.4l.1.2c0 .1.1.1.1.3 0 .1.1.5.3 1.1.3.8.4 1.1.4 1.2 0 .6.2 1.2.5 1.9.5.3 1.2.4 2.1.3H71.5c.1 0 .1 0 .1-.1 0 0 0-.1.1-.1l.1-.1v-.4zm-3.7-15.8c.1 0 .1.1 0 0 .1.2.1.5.2 1.1 0 .6.1.9.1 1.1v1.1c0 .2-.1.4-.1.7-.1.3-.1.5-.1.6-.1 0-.2.1-.5.3-.1.1-.2.1-.3.1l-.1.1h-.1-.1l-.1.1c-.8.1-1.2.1-1.2.1H65.5v-.1-.1h-.1l-.1-.1c0-.1-.1-.2-.1-.3 0-.1-.1-.2-.1-.3 0-.1 0-.2.1-.5 0-.2.1-.4.1-.5V17c0-.1 0-.2-.1-.4v-.5-.1c.2-.7.2-1.2.1-1.9 0 0 0-.1-.1-.1 0-.3.1-.5.1-.6.3-.1.7-.2 1.2-.2.1 0 .3 0 .6.1s.5.1.7.1c0 .1.1.2.3.3.1.1.2.3.2.6-.2-.1-.2 0-.2 0z"/></g></g></g></g></svg>