<svg xmlns="http://www.w3.org/2000/svg" viewBox="0 0 126.2 40.9"><style>.st466{fill:#5552db}</style><g id="Layer_1"><path class="st466" d="M72.8 19.4c-.4.9-.7 1.7-1 2.6-.2.5-.3 1.1-.4 1.6-.1.4-.1.8-.3 1.2-.1.4-.1.7-.2 1.1-.1.1-.1.3-.1.5 0 .8.1 1.6.2 2.4 0 .4.3.6.5.8.1.1.2.1.3.1.7.1 1.3-.2 1.9-.5 1-.5 1.9-1.1 2.6-1.9l.3-.3c.8-.6 1.4-1.4 2-2.2.8-1 1.7-2.5 2.1-3.7.2-.5.3-1 .3-1.5 0-.1 0-.2.1-.2.1-.2.4-.4.6-.2.1.1.2.1.3.2.4.5.8.9 1 1.5.1.3.1.6.2 1-.2.5-.1 1-.3 1.4l-.3.9c-.2.6-.5 1.1-.9 1.6-.2.3-.4.5-.6.8-.1.2-.3.4-.5.6-.2.2-.5.4-.7.7-.5.5-1.1.9-1.6 1.4-.2.2-.4.3-.6.4-.3.2-.7.4-1 .7-.4.3-.9.5-1.3.7-.2.1-.4.3-.7.3l-.9.3c-.2.1-.5.1-.7.1H73c-.8.2-2.2-.2-2.8-.5-.4-.2-.7-.5-1-.9-.5-.6-.8-1.2-1.1-1.9 0-.1-.1-.3-.1-.5-.1-.6-.2-1.3-.2-1.9 0-.7-.1-1.2-.1-1.8 0-.2 0-.5.1-.7 0-.1.1-.2 0-.4 0-.7.1-1.3.3-1.9l.3-1.5c.3-1 .7-2 1.1-3 .6-1.4 1.3-2.8 2.1-4.2.4-.7.9-1.3 1.4-1.9.3-.4.7-.8.9-1.3.1-.1.2-.3.3-.4.8-.9 1.5-1.8 2.3-2.7.4-.4.8-.9 1.2-1.2.3-.2.5-.5.7-.7.4-.4.8-.8 1.3-1.2 1.1-.9 2.2-1.7 3.5-2.4l.6-.3c.5-.2 1.1-.5 1.7-.5.3 0 .7 0 1-.1.5 0 1 .1 1.4.4.4.3.7.6 1 .9.2.1.2.1.4 0 .4-.3.7-.6 1.1-.9.7-.5 1.5-.5 2.2-.1.6.3 1.1.8 1.4 1.5 0 .3 0 .5-.1.7-.1.1-.2.3-.3.4-.4.3-.8.5-1.1.8-.8.5-1.6 1.1-2.3 1.8-.5.5-1 .9-1.6 1.4-.3.2-.6.4-.7.7-.3.5-.7 1-1 1.6-.1.3-.3.6-.3.9 0 .2-.1.4-.1.6 0 .2-.3.4-.6.2-.1 0-.2-.1-.3-.2-.3-.5-.5-.9-.5-1.5 0-.3.1-1 .2-1.4.3-.8.6-1.5 1-2.3.3-.5.6-1.1 1-1.6.1-.1.1-.2 0-.2h-.1c-.7.3-1.4.6-2 1-1.2.8-2.4 1.6-3.5 2.6-.5.3-.8.7-1.2 1.1-.1.1-.2.3-.3.4-.7.5-1.2 1.2-1.7 1.8-.2.3-.5.6-.7.9-.6.7-1.1 1.3-1.7 2-.5.7-.9 1.4-1.3 2.1M69 22.1c0 .1.1.1.1.2l.1-.1c-.1 0-.1-.1-.2-.1-.1-.1-.1-.2-.2-.1v.1h.2zM87.3 2.9c-.3.1-.3.1-.2.3l.1.1.1-.1c-.1-.1-.1-.2 0-.3.1 0 .1 0 .2-.1v-.1c-.1-.1-.2 0-.2.2zm-1.7-1.3c0-.2-.2-.3-.3-.4-.1-.1-.2-.1-.2 0v.1c0 .1.1.2.1.2.2 0 .3 0 .4.1 0 .1-.1.2-.1.3V2h.2c.1-.1.2-.2.3-.2 0 0 .1-.1 0-.1 0-.1-.1-.1-.2-.1 0-.1-.1-.1-.2 0zm2.6 2.7c0 .1.1.1.1.2 0 0 .1-.1 0-.1 0-.1-.1-.1-.1-.1 0-.1-.1-.2-.2-.2s-.3.1-.3.2v.2c0 .1.1.1.1.2 0-.1.1-.1.1-.2s.1-.2.3-.2zm-5-1.1c0 .1 0 .2.2.2v-.1c0-.1-.1-.1-.2-.1 0-.1 0-.3-.1-.4 0-.1-.2-.2-.3-.1-.1.1-.2.2-.4.3-.1.1-.1.2-.1.3 0 .2 0 .3.1.5l.1.1c.1 0 .2 0 .2-.1.1-.1.1-.2.1-.3-.1-.2 0-.2.1-.3h.3zm-12 15.3c-.4 0-.7.1-1.1.1l-.1.1c0 .2 0 .3.1.5.1.1.2 0 .3-.1.2-.1.4 0 .4.3 0 .1-.1.2-.1.3-.1.2 0 .3.1.4h.2l.1-.1c0-.3-.1-.6.1-1 .1-.1 0-.3 0-.5.1 0 .1-.1.2-.1l-.1-.1c-.1.1-.1.1-.1.2zm2.2-4c.1.1.2.1.2 0s.1-.2.1-.3c0-.1 0-.2-.2-.2-.3 0-.6.2-.8.4v.1c0 .3 0 .4.3.6.1.1.2 0 .2-.1v-.4c-.1-.1 0-.1.2-.1zm1-3.3s-.1 0-.1.1c-.2.2-.2.3 0 .4.2.1.3.1.5.2.1 0 .2 0 .2-.1v-.1c-.2-.1-.3-.3-.5-.4 0-.1 0-.1-.1-.1zm4.7-3.5c-.1 0 0 0 0 0h.1v-.1c-.2-.2-.4-.4-.7-.3-.1 0-.1.1-.2.1l.1.1c.2.1.4.1.7.2zm-7.2 9.5c-.1 0-.3.1-.4.1 0 0-.1 0-.1.1v.2c0 .1.1.1.2 0s.3-.2.4-.2c.2-.1.3-.2.2-.2h-.3zm-1.8 8.7c0-.1-.1-.2-.3-.1-.2 0-.2.1-.2.2s.1.2.3.2c.1-.1.2-.2.2-.3zM73 15.7h-.2c-.1 0-.1.1-.2.1.1 0 .2 0 .2.1h.4c.1 0 .1-.1.2-.1l-.1-.1H73zm4.8-5.9s.1-.1 0 0c.1-.2 0-.3-.1-.3s-.1 0-.1.1 0 .2.2.2zm1.7-2.9c0-.1-.1-.2-.1-.2h-.1l-.1.1v.1c0 .1 0 .2.1.3.1-.2.2-.3.2-.3zm-9.9 16.6c-.1-.2-.1-.2-.2-.1s-.1.1-.1.2c-.1.1-.1.1 0 .2h.1c.1-.1.2-.1.2-.3zm7.5-15.1c0 .1 0 .2.1.3 0 0 0 .1.1.1 0-.1.1-.1.1-.2s0-.2-.1-.3h-.1l-.1.1zm-8 16.3c.1-.2.1-.3.1-.4 0 0 0-.1-.1-.1s-.1 0-.1.1c-.1.2 0 .4.1.4zm1.6-7.1c-.1 0-.1 0-.2.1-.1 0-.1.1 0 .3 0 .1.1.1.2 0s.2-.1.2-.3c-.1-.1-.2-.1-.2-.1zm.2 4.1c-.1-.2-.1-.1-.2-.1-.1.1-.2.1-.1.3h.1c.1 0 .2 0 .2-.1v-.1zm4.7-10.5c.1 0 .1 0 0 0 .2-.1.2-.2.2-.2s0-.1-.1-.1-.1 0-.2.1c0 .1-.1.1-.1.2h.2zM71 20.5c0 .1 0 .1 0 0-.1.1 0 .2 0 .3.1.1.3.1.3 0s0-.2-.1-.2c0-.1-.1-.1-.2-.1zm-1 .2s0-.1 0 0c-.3 0-.4 0-.4.2l.1.1c.1 0 .1-.1.2-.1.1-.1.1-.2.1-.2zM88.6 3.5h-.1s-.1 0-.1.1.2.3.4.3c0 0 .1-.1.1-.2-.1-.2-.1-.2-.3-.2zm1.5-.7c.1 0 .1 0 0 0 .1-.1.2-.1.2-.2 0 0 .1-.1 0-.1 0-.1-.1-.1-.2-.1v.4c0-.1 0-.1 0 0zm-.3.4v-.1c0-.1-.1-.1-.3.1-.1.1-.1.1 0 .2h.1c.1-.1.2-.1.2-.2zm-.1-1.3c-.1-.1-.1-.1 0 0-.1-.1-.2 0-.3 0 0 .1-.1.1-.1.2l.1.1c.1 0 .2 0 .3-.2 0-.1-.1-.1 0-.1zm-8.3 1.6c-.1-.1-.1-.1 0 0-.3-.1-.4 0-.5.1l.1.1h.3c0-.1 0-.1.1-.2zm6-1.8c0-.1-.1-.2-.2-.2s-.2 0-.2.1c0 0 0 .1.1.1.1.1.2.2.3.1-.1 0-.1-.1 0-.1zM72.6 18.3c-.1-.1-.1-.1-.2-.1l-.1.1c0 .1.1.1.3 0-.1 0 0 0 0 0zm5.6-11.7c.1 0 .1-.1.2-.1-.1-.1-.1-.1-.2-.1s-.2.1 0 .2c-.1 0-.1 0 0 0zm7-2.9c0 .1.1.1.2.1 0 0 .1 0 .1-.1 0 0 0-.1-.1-.1s-.1 0-.2.1c0-.1 0 0 0 0zm-4.4 1v-.1l-.1-.1c-.1 0-.1.1-.1.2s.1.1.2 0c0 .1 0 0 0 0zM84 4c-.1-.1-.1-.1-.2-.1l-.1.1c0 .1.1.1.2 0 0 .1 0 0 .1 0zm-6.3 3.6c0-.1 0-.1 0 0 0-.1-.1-.1-.1-.1-.1 0-.2 0-.2.1s0 .1.1.1.1-.1.2-.1zM86.2.9s.1 0 0 0c.1.1.2.1.2.1l.1-.1c0-.1-.1-.1-.1-.1-.2 0-.2 0-.2.1zm6.7 1.3c0 .1-.1.1 0 0-.1.2-.1.2 0 .3l.1-.1c0-.1 0-.1-.1-.2zm-8 .1c.1 0 .1-.1.2-.1-.1 0-.1-.1-.2-.1s-.1.1-.2.1c.1 0 .2.1.2.1zm-.8 0l-.1-.1c-.1 0-.2 0-.2.1l.1.1c.1 0 .1 0 .2-.1zm-9.2 10.3c0-.1-.1-.1-.1-.2l-.1.1v.1c.1 0 .1.1.2 0 0 .1 0 0 0 0zm-1.2-1.1c-.1-.1-.2-.1-.2-.1s-.1 0-.1.1 0 .1.1.1.2 0 .2-.1zm.6 1.2zm2-3.4s-.1 0 0 0v.2l.1-.1c0-.1-.1-.1-.1-.1zm2.6-.6c0-.1 0-.1-.1-.1l-.1.1h.2c-.1 0-.1 0 0 0zm-2.7 1.8zm1-.7c-.1-.1-.1-.1 0 0-.1-.1-.1 0-.1 0-.1 0 0 .1.1 0zm-6.6 6.6zm1.3.2zm-.8.3zm1.3-3.1s-.1 0 0 0c0 .2.1.2 0 0 .1 0 .1 0 0 0zm2-.2zm6.1-7.3zm-1-.9zm2.7-.3zm-1.6.4s-.1 0 0 0h-.2c.1.1.1.1.2 0 0 .1 0 0 0 0zM78 8.2zm8.8-1.3c0-.1-.1-.1-.1 0s0 .1.1 0c0 .1 0 .1 0 0zm4.6-4.6zm-7 .9zm2.1.3s-.1 0 0 0c-.1-.1-.2 0-.2 0 .1.1.1.1.2 0 0 .1 0 .1 0 0zm-4.2-1.1h-.1c0 .1.1.1.1 0 0 .1 0 0 0 0zm4.1-.3c0-.1-.1-.1 0 0-.1-.1-.1 0-.2 0v.1c.1 0 .2-.1.2-.1zm4.7-.4zM79.3 4.9s-.1-.1 0 0c-.2 0-.2 0 0 0-.1.1 0 0 0 0zm2.1 0s0 .1 0 0c0 .1 0 .1.1.2l.1-.1c0-.1-.1-.1-.2-.1zm9.5-1.8zm-6.1 1.1s-.1-.1 0 0c-.1-.1-.2 0-.2 0s.1.1.2 0c-.1.1 0 0 0 0zM70.1 24.6zm11.3-.7zm-12 1.2zm-.3-5.5zm.2 1.7zm1.6-.2zm9.2 4.9zm-3.3 2.9zm-7.8-.8c-.1 0-.1 0 0 0-.2 0-.2.1 0 0-.1.1-.1.1 0 0zm.8.7zM6.9 16.1c0 .2 0 .5-.1.7 0 .4-.7.8-1.1.5-.3-.2-.6-.4-.9-.7-.2-.2-.4-.4-.5-.7l-.3-.6c-.2-.3-.3-.7-.2-1.1 0-.4.1-.7-.1-1.1-.1-.2 0-.4 0-.6.2-.6.3-1.3.7-1.8.8-1.4 1.4-2.2 2.9-3.5.1-.1.3-.2.4-.3 1.2-1.1 2.6-1.9 4-2.7.6-.3 3.8-1.5 4.5-1.7 1-.3 1.9-.5 2.9-.7.3-.1.6-.2 1-.2.2 0 .4 0 .6-.1.3-.1.7-.1 1-.1.6 0 1.2.1 1.9 0 .2.1.3.1.5 0 .1 0 .3-.1.4 0 .6.3 1.3.3 2 .4.4 0 .7.2 1.1.4.9.3 1.2.5 1.9 1 .2.2.4.4.5.7.1.3.2.5.2.8 0 .2 0 .4-.1.6 0 .2-.1.4-.2.5-.4.6-.8 1.1-1.3 1.5-.3.3-.6.5-.8.8-.2.2-.4.6-.7.6-1.1 1.2-2.4 2.3-3.4 3.6-.1.1-.2.3-.4.4-.9.8-1.6 1.8-2.4 2.8-.3.5-.7.9-1.1 1.3-.4.6-.9 1.1-1.3 1.7-.4.6-.9 1.2-1.3 1.8-.4.6-.8 1.3-1.3 1.9-.4.6-.8 1.2-1.1 1.8-.5.8-1.1 1.7-1.6 2.5-.7 1.1-1.3 2.3-1.9 3.5-.3.3-.2.7-.4 1-.2.3-.1.5-.2.8-.1.2 0 .4-.1.6-.1.2-.2.6-.2.8 0 .1.1.3.3.3.4-.1.5-.2.9-.2.6 0 1.2-.2 1.9-.2.4-.2.8-.1 1.3-.1.4 0 .8 0 1.1-.1.3-.1.6 0 .9 0 .5 0 1 .1 1.4-.1.2-.1.4 0 .6 0 1.3 0 2.7.2 4 .3.3 0 .6.1.8.2.1.1.3.1.4.1.9.2 1.9.6 2.6 1.1.8.6 1.4 1.3 1.7 2.2 0 .1 0 .3-.1.4-.3.3-.6.4-.9.2-.2-.1-.3-.2-.5-.3-.3-.2-.6-.3-.9-.3-.2 0-.5-.1-.7-.2-.3-.1-.6-.1-.8-.2-.6-.1-1.2-.1-1.7-.1-.4 0-.9-.1-1.3.1-.3.1-.6 0-.9 0-.7 0-1.4-.1-2.2.1-.3.1-.6 0-.9 0-.3 0-.7 0-1 .1h-.3c-.5 0-1-.1-1.4.1-.4.2-.9 0-1.3.2-.1.1-.3.1-.4 0-.7 0-1.3.2-2 .2-.4.2-.9 0-1.3.2-.3.2-.7.2-1.1.3-2.6.5-4.2 1.2-5.7 1.9-.7.3-1.2.7-1.8 1.1-.2.1-.3.2-.5.3-.2.1-.7 0-.7-.2.2-.3.1-.6.1-.9v-.6c0-.6.3-1.2.5-1.7.2-.4.4-.7.8-1 .5-.4 1-.7 1.6-1 .4-.2.8-.4 1.1-.5.5-.2 1-.4 1.5-.5.5-.1.4-.2.9-.3.1 0 .2-.1.3-.1.1-.1.1-.2.1-.3 0-.2 0-.4.1-.5.1-.4.1-.7.2-1.1.1-.3.2-.4.2-.8.1-.4.4-1 .4-1.4 0-.4.3-.8.4-1.2.1-.4.3-.9.5-1.3.5-.8.8-1.7 1.2-2.5.1-.1.1-.3.2-.4.5-.8.9-1.7 1.3-2.5l1.5-2.4c1.1-1.7 2.2-3.3 3.5-4.9.6-1.1 1.5-1.9 2.3-2.9 1.2-1.5 2.5-2.8 3.8-4.2.7-.8 1.5-1.6 2.3-2.4.2-.2.3-.5.3-.8 0-.2-.1-.3-.2-.3-.9-.4-1.9-.6-2.9-.4-.2 0-.4.1-.6.1-.6 0-1.2.2-1.8.4-.8.2-1.6.6-2.4.9-.7.3-1.4.8-2.1 1.2-.4.2-.7.5-1.1.7-.3.1-.5.3-.7.5-.5.4-.9.8-1.4 1.2-.4.3-.7.6-1 1-.4.5-.9 1-1.3 1.5-.7.9-1.4 1.8-1.9 2.8-.2.3-.4.7-.5 1-.2.4-.2.7-.2 1.1zM8.4 33c.1 0 .2 0 .2-.1 0 0 0-.1-.1-.1 0 .1-.1.2-.1.2-.1.1-.2 0-.2.2h.1s.1-.1.1-.2zm-.9 3.3c0 .1 0 .1.1.2h.1c0-.2-.1-.1-.2-.2-.1 0-.1-.1-.1-.2l-.1.1c.1 0 .2.1.2.1zm-1.4-.1c0 .1 0 .2.1.2l.1-.1c-.1-.1-.1-.1-.2-.1 0-.1 0-.1-.1-.2l-.1.1c0 .1.1.1.2.1zm15.7-1.3c0-.1 0-.1-.1-.2h-.1c0 .1.1.1.2.2 0 .1 0 .1.1.2 0 0 .1 0 .1-.1 0 0-.1 0-.2-.1zm-6.6-.2c.1 0 .2 0 .2-.1s0-.1-.1-.1-.1.1-.1.2c-.2 0-.2 0-.3.3h-.4l-.1.1c0 .1.1.1.2.1s.2-.1.2-.2c.3-.1.3-.1.4-.3zm-.7-13c0 .1 0 .2.1.2 0 0 .1 0 .1-.1s-.1-.1-.2-.1-.1-.1-.1-.2l-.1.1c.1 0 .1.1.2.1zM5.8 10.9c0-.1 0-.2-.1-.2s-.1 0-.1.1c.1.1.1.1.2.1s.1.1.1.2c.1 0 .1-.1.1-.1 0-.1-.1-.1-.2-.1zm2.4-.7c0 .1-.1.3.2.2l-.2-.2c0-.1 0-.1-.1-.2l-.1.1c0 .1.1.1.2.1zm18.1-5.6h.3c.1 0 .2-.1.2-.1l-.1-.1h-.3s0 .1-.1.2c-.1 0-.2 0-.2.1 0 0 0 .1.1.1s.2-.1.1-.2zM9.3 35c.2 0 .2-.1.3-.2 0-.1 0-.2-.1-.2l-.1.1c0 .1 0 .2-.1.3-.1 0-.2 0-.2.1l.1.1c.1 0 .2-.1.1-.2zm4.2-.2c0 .1 0 .2.1.2s.1 0 .1-.1c-.1-.1-.2-.1-.2-.1v-.6c0-.1-.1-.1-.2-.1s-.2 0-.2.1-.1.3-.1.4c0 .1.1.2.2.3.1-.1.2-.1.3-.1zm-8.4 2.7h.1c.1-.1.3-.2.4-.4v-.2c0-.1-.2-.1-.2-.1-.2 0-.3.1-.4.3v.3c-.1 0 0 .1.1.1zM27.5 6l-.1-.1c-.4.1-.8.2-.8.3l.1.1c.3.1.6 0 .8-.3.1 0 0 0 0 0zm-7 7l-.2-.2c-.2 0-.3.1-.3.2-.1.2 0 .3.1.4.1.1.2.1.2.1.1 0 .1-.1.1-.2 0 0 0-.1.1-.3zm1.2-1.2v-.1c-.3 0-.5.1-.7.3v.1c0 .1.1.2.2.1.2-.1.4-.1.5-.2-.1 0-.1-.1 0-.2zm-1.9 22.4c-.2 0-.4 0-.4.1l.2.2c.1.1.2.1.2.2.1.1.2.1.2-.1v-.2c0-.1-.1-.1-.2-.2zM13.4 23c0-.1-.1-.3-.1-.4l-.1-.1-.2.2v.1c0 .1 0 .2.1.3 0 .1.1.1.2.1s.1 0 .1-.2zM7.3 9.5l-.1-.1c-.2-.1-.2-.1-.3.1v.3H7l.3-.3zm.7-.9c0-.1 0-.2-.1-.2s-.2-.1-.2 0c-.1 0-.1.1 0 .2s.1.2.3.2v-.2zm-1.5 3.5l-.3-.3h-.1c-.1.1-.1.2-.1.3.1.2.1.2.3.2.1 0 .2-.1.2-.2zm2.5-4l.1.1c.1 0 .2-.1.2-.1.2-.1.2-.3 0-.3-.1 0-.2 0-.3.1v.2zM11.6 36l-.1-.1c-.1 0-.2.1-.3.1-.1.1-.1.1-.1.2l.1.1c.2 0 .3 0 .3-.2.1 0 .1-.1.1-.1zm12.3-1.2h-.1l-.1.1c.1.1.1.1.2.1 0 0 .1 0 .1-.1l-.1-.1zM9.2 36.7c.1 0 .2-.1.2-.1 0-.1-.1-.2-.2-.1-.1 0-.2.1-.2.1.1 0 .2.1.2.1zm4.3-15.6h-.1l-.1.1c0 .1.1.1.2.1v-.2c.1.1 0 0 0 0zm-1.1 2.6s.1 0 .1-.1l-.1-.1h-.3v.1c.1.1.2.1.3.1zm4.5-5.3s.1 0 .1-.1l-.1-.1h-.1l-.1.1c0 .1.1.2.2.1zm-7.6 9.9c0-.1-.1-.2-.1-.2-.1.1-.1.1-.1.2s.1.2.1.2c.1 0 .2-.1.1-.2zm8.2-11.2c.1 0 .2-.1.2-.1-.1 0-.1-.1-.2-.1s-.2.1-.2.1c.1 0 .1.1.2.1zm-1 .1s-.1 0 0 0l-.2.2c0 .1.1.1.2.1s.1-.1.1-.2l-.1-.1zM13.7 4.6s0-.1 0 0c-.2-.1-.3-.1-.3 0v.1c.1 0 .2 0 .3-.1 0 .1 0 0 0 0zm2.2-1c-.1 0-.1 0 0 0-.1-.1-.2-.1-.2-.1s-.1 0-.1.1 0 .1.1.1c.1.1.1 0 .2-.1zm6.8 5.1l.1.1h.2c-.1 0-.1-.1-.2-.1 0-.1-.1 0-.1 0zm.7 2.4h.1l.1-.1c0-.1-.1-.1-.2-.1 0 0-.1 0 0 .2-.1-.1 0 0 0 0zm3.3-3.7c.1 0 .2 0 .2-.1 0 0 0-.1-.1-.1h-.2s0 .1.1.2c-.1-.1-.1 0 0 0zm-1.3.9s-.1-.1 0 0c-.2-.1-.2 0-.1.1 0 0 .1 0 .1-.1zm-1.1 1.3zM9.4 8.7c-.1 0-.1 0 0 0-.1.2 0 .2 0 0 0 .1 0 0 0 0zm-.7.2V9v-.1zm15.2-.2c-.1 0-.2.1 0 .2 0 0 .1 0 .1-.1l-.1-.1zm.9.2zm-9.5-4.4l-.1-.1s-.1 0-.1.1c0 0 0 .1.1.1 0-.1 0-.1.1-.1zm10.9.8c0-.1-.1-.1-.2 0 .1 0 .1.1.2 0 0 .1 0 .1 0 0zm1.2.1s0-.1 0 0c-.2-.1-.2 0-.1.1l.1-.1zm-16 .7zm7.8 7.9c-.1 0-.1-.1 0 0-.1-.1-.2 0-.2 0v.1c.1 0 .1 0 .2-.1zm0-1s.1 0 0 0c.1-.1 0-.2 0-.2h-.1c0 .1 0 .2.1.2zM6.3 14.4s0-.1 0 0c-.1 0-.2 0 0 0 0 .1 0 0 0 0zm12.7.1zm3.2-3.7l-.1.1c.1.1.1.1.1-.1.1.1.1.1 0 0zm2.1-.6zm-17.5.9zm1.2.1s0-.1 0 0c-.1-.1-.2-.1-.2 0 .1 0 .1.1.2 0 0 .1 0 0 0 0zM25.6 3c-.1-.1-.1-.1 0 0-.1-.1-.2 0-.2 0s0 .1.2 0c-.1 0-.1 0 0 0zm1.7 1.3zM16.2 21.1zm-1.4-.1s0-.1 0 0c-.1-.1-.1 0-.2 0 .1 0 .1.1.2 0-.1.1 0 0 0 0zm1.6-4.7c-.1 0-.1 0 0 0-.2-.1-.2 0-.1.1l.1-.1zm.4.1zm-.5 2.8zm-.9.4zm-.8.3c0-.1 0-.1 0 0-.1-.1-.2-.1-.2 0h.2c-.1 0 0 0 0 0zM9 30.4zm.8.1zm.3-2.7l-.1.1c0 .1.1.2.2 0 0 0-.1 0-.1-.1zm-1.6 6.1zm9.8.9c0-.1 0-.1 0 0-.2-.1-.2 0-.1.1 0-.1.1-.1.1-.1zm-7.1.3h.1-.1zm-4.4.7c0 .1 0 .1 0 0 .1 0 .1 0 0 0zm2.1.2zm1-3.2v-.1.1zm6.7.9zm2 .3zm-9.1-.1zm1.7-8.9zm1.1 0z"/><path class="st466" d="M23.4 31c-1.6 0-1.6-.1-2.8-.7-.5-.3-.9-.7-1.2-1.2-.2-.3-.4-.7-.4-1-.1-.5-.3-1-.2-1.5 0-.2 0-.5.1-.7 0-.1.1-.2.1-.2 0-.8.4-1.4.6-2.1.3-.7.7-1.4 1.1-2.1l.9-1.2c.7-.7 1.4-1.4 2.3-2 .3-.2.5-.4.8-.6.7-.5 1.5-.8 2.3-1.1.6-.2 1.1-.4 1.7-.3.5 0 .9 0 1.4.1.7.1 1.2.5 1.6 1.2.1.3.2.5.2.8v1.1c-.2.3-.2.7-.3 1.1-.1.3-.3.6-.4.9-.2.4-.5.7-.7 1-.1.2-.4.4-.6.7-.8.8-1.7 1.4-2.8 1.7-.2.1-.3.1-.5.1h-.8c-.7.1-1.3-.1-1.8-.7-.1-.1-.2 0-.3.1 0 .1-.1.1-.1.2-.2.4-.3.9-.4 1.3-.2.5-.2 1-.1 1.5 0 .5.6 1 1.1 1h1.2c.4-.2.8-.1 1.1-.2.2-.1.5-.1.7-.2 1.1-.4 2.1-.9 3.1-1.4.5-.4 1.1-.8 1.6-1.2.5-.4 1-.8 1.4-1.2.3-.3.6-.5.9-.7.2-.1.4-.2.6-.1.2.1.3.1.4.3.1.1.1.2.2.3v.4c0 .2-.1.4-.2.5l-.2.2c-.8.5-1.4 1.1-2.1 1.6-.3.1-.5.3-.7.5l-1.2.9c-1.2.8-2.4 1.5-3.7 2.2-.8.4-1.7.7-2.6.9-.2 0-.3.1-.5.1-.4-.3-.7-.3-.8-.3zm-.2-9.7c0 .1 0 .2.1.2l.1-.1c0-.1-.1-.1-.2-.1 0-.1 0-.1-.1-.2l-.1.1c.1.1.1.1.2.1zM20 25.6c0 .1.1.1.1.2l.1-.1c-.1 0-.1 0-.2-.1v-.3l-.1-.1c-.1 0-.1.1-.1.2s.1.2.2.2zm4.9-2.3h.6c1-.2 2-.7 2.8-1.3.6-.5 1.1-1.1 1.5-1.8 0-.1.1-.2.1-.2.1-.4 0-.7-.5-.7-.3 0-.6 0-.9.1-.4.1-.9.3-1.2.6-.6.5-1.2 1-1.7 1.6-.2.3-.5.6-.7.8-.2.1-.3.6-.3.8 0 0 0 .1.1.1h.2zm-1.9.1c-.1-.2-.1-.5-.2-.7 0 0 0-.1-.1-.1s-.2.1-.2.1c-.2.2-.2.3 0 .5.1.1.2.2.3.2 0 .1.1.1.2 0 0 .1 0 0 0 0zm-.4.6c0-.2-.1-.3-.2-.4-.1-.1-.1-.1-.2 0v.1c0 .2.1.3.3.3 0 .2.1.1.1 0zm5-6.5c-.1 0-.2-.1-.3-.1-.1 0-.1.1-.2.1.1 0 .1.1.2.1 0 .1.1.1.3-.1-.1.1-.1.1 0 0zm-5.3 7.3c0-.1-.1-.2-.2-.3h-.2v.1c0 .1.1.2.2.2.1.1.2.1.2 0zm-1.6 2.7c0-.1 0-.3-.1-.3h-.2s-.1 0-.1.1.2.3.4.2c-.1.1 0 0 0 0zm-.4-2.3l.1.1c.1 0 .2-.1.3-.2 0-.1 0-.1-.1-.1-.2 0-.3.1-.3.2zm3.6-3.1V22l-.1-.1c-.1-.1-.3 0-.3.1s.1.1.1.2c.2.1.3 0 .3-.1zm-2.7 2.5c0-.1 0-.1 0 0h-.3s0 .1.1.1c.1-.1.1-.1.2-.1zm2.2 4c-.2-.1-.2 0-.3 0l.1.1c.1 0 .2 0 .2-.1zm-3.1-.1H20s0 .1.1.1c.1.1.2.1.2-.1 0 .1 0 0 0 0zm2.1-.7c0-.1-.1-.1-.2-.1s-.1.1-.1.1c0 .1.1.1.2.1l.1-.1zm-.5-5.7c-.1 0-.1 0 0 0-.1-.1-.1 0-.2 0 0 0 .1.1.2 0-.1.1-.1.1 0 0zm1.3 2.3zm-1.5 1.7zm-2.2.9zm.8-.3s0 .1 0 0v.1s.1 0 .1-.1h-.1zm1.7.1s-.1 0 0 0h-.2c0 .1.1.1.2 0 0 .1 0 .1 0 0zm-.6-1.8s0 .1 0 0c0 .2.1.2 0 0 .1.1.1.1 0 0zm6-6.7c-.1 0-.1-.1 0 0-.1-.1-.1 0-.2 0 0 0 0 .1.2 0-.1.1-.1 0 0 0zm3.2.1zm-4.3-.4c-.1-.1-.1 0-.1 0s0 .1.1 0c0 .1 0 0 0 0zm.2.7l-.1.1c0 .1.1.1.1-.1.1.1 0 0 0 0zm2.2-1.8zM92.8 27.1c0-.3.1-.7.1-1v-.2c.2-.5.3-1 .5-1.5.3-.6.5-1.2.7-1.8.2-.6.5-1.2.7-1.7.1-.2.2-.3.2-.5s.1-.3.2-.5c.2-.4.3-.8.5-1.2 0-.1-.1-.2-.2-.2h-.3c-.6.3-1.3.6-1.8 1-.4.4-.9.6-1.4 1-.5.4-1 .9-1.5 1.3-1.2 1.1-2.2 2.4-3.1 3.7l-.6.9c-.2.4-.4.8-.4 1.2v.3c0 .1-.2.3-.3.3-.5.1-.9 0-1.2-.3-.4-.5-.8-.9-.8-1.6-.2-.6-.2-1.2-.2-1.8 0-.2 0-.5.2-.7.1-.7.3-1.5.6-2.2 0-.4.2-.7.3-1 .1-.4.3-.8.4-1.2.3-.6.5-1.1.8-1.7.2-.5.5-1.1.7-1.6.4-.9.9-1.7 1.3-2.6.4-.9.9-1.7 1.4-2.6.2-.4.5-.8.8-1.2.3-.4.5-.8.8-1.2.4-.6.7-1.1 1.1-1.7.6-.8 1.1-1.5 1.8-2.1.1-.1.3-.2.4-.3.2-.1.4-.2.6 0 .5.1.9.3 1.3.6s.7.6.8 1c0 .1.1.2 0 .3-.2.4-.5.9-.7 1.3-.4.6-.9 1.2-1.3 1.9-.6 1-1.4 1.9-1.9 2.9-.7 1-1.3 2-1.9 3-.3.5-.6 1-.9 1.6-.2.4-.5.9-.7 1.3l-.6 1.2c-.2.5-.5.9-.6 1.4 0 0 0 .1.1.1.4-.3.8-.7 1.1-1 .1-.1.2-.3.3-.3.5-.3.9-.7 1.3-1.1.7-.6 1.4-1.1 2.2-1.6l.9-.6c.9-.6 1.8-1 2.7-1.3.7-.3 1.4-.3 2.2-.2.1 0 .2.1.3.1l.6.3c.4.2.6.5.7.9.1.2.1.3 0 .5-.2.5-.4 1-.7 1.4l-.6.9c-.5.7-.9 1.4-1.3 2.1-.4.5-.7 1.1-1 1.7-.2.3-.3.6-.5.8-.3.4-.4.8-.6 1.2-.1.2-.1.4-.1.6 0 .1.1.2.2.2l.6-.3c.5-.4 1-.9 1.5-1.3l.9-.9.9-.9c.6-.6 1.2-1.1 1.6-1.8.1-.1.1-.2.2-.2.2-.2.5-.2.7 0 .1.1.1.2.2.2v.2c-.1.1-.1.3-.2.4-.5.6-1 1.3-1.4 1.9-.1.2-.3.4-.4.6-.7 1-1.3 1.7-1.9 2.4-.2.2-.3.4-.5.6 0 .1-.1.1-.1.2-.4.5-2.2 2.1-2.9 2.5-.3.2-.6.3-.9.3h-.3c-.5.1-.9-.1-1.2-.5-.1-.2-.2-.3-.2-.5-.2-.8-.2-1.1-.2-1.4zm-2.6-12.5h.2c0-.1 0-.1-.1-.1s-.1.1-.1.1c0 .1-.1.1-.1.1l.1.1v-.2zm9.3 2.1c.1 0 .1 0 .2-.1 0 0 0-.1-.1-.1-.1.1-.1.2-.1.2s-.1 0-.1.1v.1c0-.1.1-.1.1-.2zm-2.9 4.8c-.1 0-.3 0-.4.1 0 0-.1.1 0 .2 0 .1.1.1.2 0s.2-.2.2-.3c.1 0 .2-.1.2-.2s0-.1-.1-.2c0 0-.1 0-.1.1v.3zm1.7-5.9c-.1 0-.1 0 0 0-.2.1-.3.2-.4.2v.1c0 .1.1.1.2.1.1-.1.1-.2.2-.4.1 0 .1 0 .1-.1l-.1-.1c-.1.1-.1.1 0 .2zm-2.7 9.8c0-.1 0-.1-.1-.2l-.1.1c.1 0 .2.1.2.1v.5c-.2.3-.1.5.1.7h.1s.1 0 .1-.1c.1-.4.1-.7 0-1-.2-.1-.3-.1-.3-.1zm2.4-8.1h.2c.1 0 .2-.1.1-.2s-.1-.2-.2-.4c.1-.1.1-.2 0-.4-.1-.1-.2-.1-.2 0-.1.1-.1.2-.2.4 0 .1 0 .2.1.3 0 .1.1.2.2.3 0 0-.1 0-.1.1v.1c0-.1 0-.1.1-.2zm-8.3-.6v-.1-.1c-.1-.4-.4-.6-.8-.3-.1.1-.2.2-.1.3.1.1.1.3.2.4 0 .1.1.1.2.1s.2-.1.3-.1c.1-.1.1-.2.2-.2zm-3 6.2c-.1 0-.2-.1-.2-.1-.3.1-.4.3-.6.6 0 0 0 .1.1.1.2.2.3.2.5 0 .1-.1.2-.3.2-.6.1.1 0 .1 0 0zm8.1 3.2c-.2 0-.3.1-.3.3 0 .2 0 .3.2.5l.1.1c.1 0 .1-.1.1-.2s-.1-.2-.1-.3c-.1-.2 0-.3 0-.4.1 0 0 0 0 0zm-.7-17.7h-.2c-.1 0-.2.1-.2.2v.2c0 .1 0 .1.1.2h.1c.1-.1.3-.2.4-.4 0-.1 0-.2-.2-.2.1 0 0 0 0 0zM90.9 12h-.3c-.2 0-.2.1-.1.2s.1.2.3.2h.1c.1 0 .3-.1.4-.1l.1-.1-.1-.1c-.2-.1-.3-.1-.4-.1zm.1-.8c.1 0 .2-.1.3-.1.1 0 .1-.1.1-.2 0 0-.2-.1-.3-.1-.1 0-.2 0-.3.1v.1c.1.1.1.2.2.2zm-3.6 11.4s-.1 0-.1.1v.1c.1.1.2.2.3.2.1 0 .2-.1.2-.2s-.1-.1-.1-.2h-.3zm11.1-4.2h-.1c-.1 0-.1 0-.2.1l.1.1c.1.1.2.1.3.2h.1c.1-.1.1-.2.2-.2-.1 0-.1-.1-.2-.1 0-.1-.1 0-.2-.1zm-7.4-3.3s0-.1 0 0c-.2 0-.4.1-.4.3v.1c0 .1.1.1.2 0s.2-.3.2-.4zm3.5-9.8c-.1 0-.1 0 0 0-.1.1 0 .2 0 .3.1.1.1.1.2 0v-.1c0-.1-.1-.2-.2-.2zm-8.7 19.3v.3c0 .1.1.1.1.2 0-.1.1-.1.1-.2s0-.2-.2-.3c.1 0 .1 0 0 0zm4.6-13.3c-.1 0-.1 0 0 0-.3-.1-.4 0-.4.2 0 0 0 .1.1.1s.2-.1.3-.3c-.1.1-.1.1 0 0zm1-2.2c-.1 0-.1 0-.2.1 0 .1 0 .2.1.2 0 0 .1 0 .2-.1s.1-.1 0-.2h-.1zm2.9 16.3c0-.1 0-.2-.2-.2-.1 0-.2 0-.2.1s.1.1.1.2c.2 0 .2 0 .3-.1 0 .1 0 .1 0 0zm.8-2.5s-.1-.1 0 0c-.1 0-.2 0-.3.1l-.1.1c0 .1.1.1.1.1.2 0 .3-.1.3-.3zm1.8-5.5c-.2-.1-.3-.1-.4-.1 0 0-.1 0-.1.1v.1c.2.1.3.1.5-.1 0 .1 0 0 0 0zm.4 3.5c-.1 0-.1 0 0 0-.1.1-.1.2-.1.2 0 .1.1.1.2.1h.1V21c-.1 0-.2-.1-.2-.1zm.4-1.8l.1.1c.1 0 .1 0 .2-.1 0 0 0-.1-.1-.1-.1.1-.2.1-.2.1zM92.7 8.5v-.1l-.1-.1c-.1 0-.1.1-.1.2 0 0 .1.1.2 0-.1.1-.1 0 0 0zm-6.1 12.6c-.1 0-.1-.1-.2-.1s-.1 0-.2.1v.1c0 .1.1.1.2.1.1-.1.2-.1.2-.2zM96.9 20c0-.1-.1-.1-.2 0 0 0-.1 0-.1.1 0 0 0 .1.1.1.1-.1.2-.1.2-.2 0 0 .1 0 0 0zM95.4 6.4c0-.1 0-.2-.1-.2 0 0-.1 0-.1.1v.2c.1-.1.1-.1.2-.1zM97.1 18c-.1 0-.1 0-.2.1l.1.1c.1 0 .1 0 .2-.1V18s0-.1-.1 0zm-.5.7c0-.1 0-.1-.1-.2h-.1v.2h.2zm-.4 7.6c0-.1-.1-.1-.1-.2 0 .1-.1.1-.1.2l.1.1c.1 0 .1-.1.1-.1zm-8-9.8c0 .1-.1.1-.1.2s.1.1.1.2c0-.1.1-.1.1-.2-.1-.1-.1-.2-.1-.2zm3.4-5.1s-.1 0-.1.1 0 .1.1.2c.1 0 .1 0 .1-.1s0-.1-.1-.2zm1.5-1.9s0-.1 0 0c-.2-.2-.3-.2-.3-.1v.1c0 .1.1.1.2.1 0 0 0-.1.1-.1zm.6 1c.1 0 .1 0 .2-.1v-.1c0-.1-.1-.1-.2-.1s-.1.1-.2.1c.1.2.2.2.2.2zm-2.6 3.2s0-.1 0 0l-.1-.1c-.1 0-.2 0-.2.1 0 0 0 .1.1.1s.2-.1.2-.1zm-.1-.6c.1 0 .1 0 .2-.1-.1 0-.1-.1-.2-.1s-.1 0-.2.1c.1 0 .1.1.2.1zm7.4 4.8zm-10.5-.5s-.1 0 0 0c0 .1 0 .1 0 0 .1 0 0 0 0 0zm.4 1.8zm-1.5 5.7c0-.1-.1-.1-.1 0h.1c-.1 0-.1 0 0 0zm7.4 2.4c-.1 0-.1-.1 0 0h-.1c0 .1 0 .1.1 0zm.6 0zm.6-5.7c0-.1 0-.1 0 0-.1-.1-.1 0 0 0zm-.3 2.2zm-10.1.8zm10.5-.5c-.1 0-.1.1 0 .1 0 .1.1 0 0-.1.1.1.1 0 0 0zm-8.4-.7c-.1 0-.1 0 0 0-.1-.1-.1 0-.1 0-.1 0 0 .1.1 0-.1.1-.1 0 0 0zm8-16zm-1.6 0c-.1 0-.1.1 0 .1 0 .1.1 0 0-.1.1.1.1.1 0 0zm-.2.5s-.1 0 0 0c0 .2 0 .2 0 0 .1.1 0 0 0 0zm.5-1.6c0-.1.1-.1 0 0 .1-.1 0-.1 0-.1s-.1 0 0 .1c-.1-.1 0-.1 0 0zm-2.6 3.9zm1.2.6c0-.1 0-.1-.1-.1 0 0-.1 0-.1.1h.2c-.1.1-.1 0 0 0zm-.3-2.1zm2.1.4zm-1.9.5zm2-3.8zm-2.4 6.8c-.1 0-.1-.1 0 0-.1-.1-.1 0-.1 0h.1c-.1 0-.1 0 0 0zm5.2 3.3s0-.1 0 0c-.1 0-.1 0 0 0 0 .1 0 0 0 0zm2.3.1zm-10.5-1.5zm1.2.7c-.1 0-.1.1 0 .1 0 0 .1 0 .1-.1h-.1z"/><path class="st466" d="M99.6 24.4v-.5c0-.4.1-.8.3-1.3.3-.9.7-1.7 1.2-2.5.3-.4.6-.9 1-1.2 1.1-1.2 2-1.9 3.3-2.8.6-.4 1.3-.7 2-.8.3-.1.7-.1 1-.1.3 0 .5.1.7.2.1.1.2.2.3.4.1.3.2.5.3.8 0 .1.1.1.1.1s.1 0 .1-.1c.2-.4.6-.8.9-1.1.1-.1.2-.1.2-.1.5-.1.9.1 1.3.3.3.1.6.4.8.7v.1c0 .1.1.2 0 .3l-.9 1.8c-.3.6-.6 1.1-.9 1.7-.2.3-.3.6-.5.8-.4.6-.7 1.3-1.1 2-.1.2-.2.5-.3.7v.2c0 .1.1.2.2.1s.3-.1.4-.2c.3-.3.7-.5 1-.8.9-.9 1.8-1.8 2.6-2.7.1-.1.2-.2.3-.2.3-.2.7-.1.9.3 0 .1 0 .1.1.2.1.2.1.3 0 .5s-.1.3-.3.5c-.2.3-.5.6-.7.9-.2.3-.5.5-.7.7-.6.7-1.2 1.3-1.9 2-.4.5-.9.8-1.3 1.2-.1.1-.3.2-.4.3-.3.3-.7.5-1 .7-.1 0-.2.1-.3.1h-.6c-.4 0-.8-.2-1-.6-.2-.4-.3-.9-.3-1.3v-.9-.1h-.1l-.4.4c-.5.5-1 1.1-1.5 1.7-.4.4-.8.7-1.3 1-.2.1-.3.1-.5.2h-.4c-.6.1-1.2-.2-1.6-.6-.6-.5-.9-1.1-1.1-1.8 0-.5.1-1 .1-1.2zm11.8-8.2c0 .1 0 .1.1.2.1 0 .1 0 .1-.1-.1-.1-.2-.1-.2-.1s0-.1-.1-.1h-.1c0 .1.1 0 .2.1zm-7 2c.2 0 .2-.1.2-.1h-.1c-.1 0-.1 0-.1.1-.1.1-.2.1-.1.1h.1v-.1zm1.2-.4c-.1 0-.1 0-.2.1v.1c.2-.1.2-.1.2-.2s.1-.1.1-.1v-.1c-.1.1-.1.2-.1.2zm5.2.9h-.2-.1l.1.1c.1.1.1 0 .2-.1 0-.1.1-.1.1-.1v-.1c-.1.1-.1.2-.1.2zm-8.5 5.3v.1s.1 0 .1-.1.1-.2.2-.2h.2c.1 0 .1.1.2.1.1.1.2.2.4.2s.3-.1.5-.2c.4-.3.8-.6 1.1-1 .4-.4.8-.9 1.2-1.4.2-.3.4-.5.6-.7.1-.1.2-.2.3-.4.7-.9 1.3-1.8 2-2.7v-.3l-.2-.2c-.2 0-.4 0-.6.1-.6.2-1.1.6-1.6 1.1l-1.2 1.2c-.1.1-.3.3-.4.5-.4.6-.9 1.1-1.2 1.8-.2.4-.5.8-.6 1.2 0 .1-.1.2-.2.3 0 .1-.2.1-.3 0 0 0-.1-.1-.1-.2-.1-.1-.1-.1-.2 0-.2.3-.2.5-.2.8zm-.3-1.1s0-.1 0 0c-.2-.2-.3-.3-.6-.3h-.4-.1v.1c.1.1.2.1.3.3 0 .1.1.1.2 0 .2 0 .4 0 .6-.1 0 .1 0 0 0 0zm.3 1.8h-.3-.1c-.1 0-.2.3-.1.3l.1.1c.1 0 .1.1.2.1 0-.1.1-.1.1-.2.1-.1.1-.1.2-.1s.1.1.2 0v-.1c0-.1 0-.1-.1-.2 0 .1-.1.1-.2.1zm6.7-3.2c0-.1 0-.2-.1-.3h-.2c-.1 0-.1.1 0 .1v.2s-.1.1-.2.1l-.1.1.1.1c.4 0 .5-.1.5-.3zm-.8 3.8c0-.1-.1-.1 0 0-.2-.3-.3-.3-.3-.1 0 .1-.1.1-.1.2s0 .2.1.2.2-.1.3-.3zm-6.8-.5v-.1c0-.1-.1-.2-.2-.1-.1 0-.2.1-.2.2v.2c0 .1.1.1.1.1.1 0 .2-.1.2-.1.1-.1.1-.1.1-.2zm1.2-3.6c-.2.2-.1.4-.1.6 0 0 0 .1.1.1h.2c.1-.1.1-.2.1-.3-.1-.2-.2-.3-.3-.4zm-.9.8c0 .1 0 .1.1.2 0 .1.2.1.2.1v-.2c-.1-.1-.1-.2-.1-.3 0-.1-.2-.1-.3-.1-.1.1-.1.2.1.3-.1 0-.1 0 0 0zm.5 5c0-.1-.1-.2-.2-.1-.1 0-.2.1-.2.2s.1.2.2.1.2-.1.2-.2zm4.8-10.4c.1 0 .1 0 0 0 0-.1 0-.2-.1-.3-.1-.1-.1 0-.1 0v.1c.1.2.1.2.2.2zm.1 6.9s0-.1 0 0c-.1-.1-.1-.1-.2-.1s-.1.1-.1.2 0 .1.1.1h.1c0-.1 0-.2.1-.2zm.6-.3c-.1 0-.1 0-.2.1 0 .1 0 .1.1.2s.2.1.2 0v-.2c.1-.1 0-.1-.1-.1zm-4.2 3.8c0-.1 0-.1-.1-.2s-.2-.1-.2 0v.2l.1.1c.2 0 .2 0 .2-.1zm4.8-6.8c-.1 0-.1.1 0 .2s.1.1.1 0v-.1c.1-.1 0-.1-.1-.1zm-4.8 4.9s0 .1 0 0h.2c.1-.1.1-.2 0-.2s-.2 0-.2.2zm-3-.6c-.1 0-.1.1-.2.1.1 0 .2.1.3.1h.1c.1 0 .1-.1.2-.1 0 0-.1-.1-.2-.1h-.2zm3.6-4.5s0-.1 0 0c-.1-.1-.2 0-.2 0s0 .1-.1.2c.1 0 .1.1.2.1s.1-.1.1-.3c0 .1 0 .1 0 0zm-3.2 1.9c0 .2 0 .3.2.2 0 0 .1 0 .1-.1s-.1-.1-.3-.1c.1-.1 0 0 0 0zm10.7-3c0-.1 0-.1 0 0 .2-.2.2-.2.1-.3h-.1c-.1 0-.1.1 0 .3-.1-.1-.1-.1 0 0zm-3.7 2.9c-.1 0-.1 0-.1.1s0 .2.2.2c.1 0 .1 0 .1-.1v-.1c-.1 0-.2-.1-.2-.1zm3-2.4c0-.1-.1-.2-.1-.2 0-.1-.1-.1-.1 0 0 0-.1.1 0 .2-.1.1 0 .1.2 0-.1.1-.1.1 0 0zm-1.2 1.2s0-.1 0 0c-.1-.1-.2-.1-.2 0v.1c.1 0 .2 0 .2-.1zm-.8 3.8s-.1-.1-.1 0l-.1.1s0 .1.1.1c0-.1 0-.1.1-.2 0 .1 0 0 0 0zm-1.4-.2c-.1 0-.2 0-.2.1 0 0 0 .1.1.1s.2-.1.1-.2c.1 0 .1 0 0 0zm.4-2.8s-.1-.1 0 0c-.1-.1-.2-.1-.2 0v.1s.1 0 .2-.1c-.1.1 0 0 0 0zm-1.6 2.1c0-.1 0-.1 0 0-.1-.1-.2-.1-.2 0l.1.1.1-.1zm-5.5-.4s-.1 0 0 0c-.1 0-.1.1-.1.1 0 .1 0 .1.1.2.1 0 .1 0 .1-.1s-.1-.2-.1-.2zm8.5-.3s-.1 0 0 0c-.1-.1-.2-.1-.2 0v.1s.1 0 .2-.1c0 .1 0 0 0 0zm.9-5s0 .1 0 0l.1.1h.1s0-.1-.1-.1h-.1zm-.4 1.8s-.1 0 0 0c-.1.1-.1.2-.1.3h.1v-.3zm-.8.2c.1 0 .1-.1.1-.2l-.1-.1c-.1.1-.1.2 0 .3-.1 0 0 0 0 0zm-5.2-1.1c0-.1 0-.1-.1-.2 0 0-.1 0-.1.1v.2c.1-.1.1-.1.2-.1zm1.7.2c-.1.1-.1.1 0 0-.1.1-.1.2 0 .3 0 0 .1 0 .1-.1-.1-.1-.1-.1-.1-.2zm-1 .3c.1 0 .1-.1.1-.2s-.1-.1-.1-.1-.1.1-.1.2.1.1.1.1zm.5-.9s.1 0 0 0c.1.1.1 0 .1 0v-.2h-.1v.2zm4.2 1.9s-.1 0 0 0c-.1.2-.1.2 0 .2l.1-.1c0-.1 0-.1-.1-.1zm-6.7 5.4c0 .1 0 .1 0 0 .1.1.1.1.2 0l.1-.1c-.1.1-.2.1-.3.1 0-.1 0 0 0 0zm-1.3.3l-.1-.1c-.1 0-.1 0-.2.1v.1c0 .1.1.1.2.1 0-.1 0-.2.1-.2zm6.9.1c0 .1-.1.1 0 0-.1.1-.1.1-.1.2 0 0 0 .1.1.1s.1-.1.1-.1c0-.1-.1-.2-.1-.2zm-5.7-5.9c0-.1 0-.1-.1-.2 0 0-.1 0-.1.1s0 .1.1.2c0 0 0-.1.1-.1zm6.8 5.9c.1-.1.1-.2 0-.2h-.1s0 .1.1.2zm.2-7s-.1 0 0 0c0 .1 0 .1 0 0zm-6.1.4v-.1s-.1 0 0 .1c-.1 0 0 0 0 0zm-1.9 1zm1.7-.7s-.1 0 0 0c0 .1 0 .1 0 0zm1-.2zm7.1-.3zm-7.9 1.8h-.1s0 .1.1 0c-.1.1 0 0 0 0zm7.3-.8zm-8.8 5.6s-.1 0 0 0c-.1-.1-.1 0-.1 0-.1.1 0 .1.1 0 0 .1 0 .1 0 0zm.7.7c0-.1 0-.1 0 0-.1-.1-.1 0 0 0zm3.4-3.4zm.7-.1zm2.8-1.4s-.1 0 0 0c-.1-.1-.1 0-.1 0s0 .1.1 0c-.1.1 0 0 0 0zm-3.1.8zm.8-.1zm2.2-.2c0 .1 0 .1 0 0 0 .2 0 .2 0 0 .1.1 0 .1 0 0zm-1.6 2.5zm1 .8c-.1-.1-.1 0-.1 0s0 .1.1 0c0 .1 0 .1 0 0zm1.4 0zm-8.3-1.4v-.1c-.1 0-.1 0 0 .1-.1 0 0 0 0 0zm6.4-.4s0-.1 0 0h-.1l.1.1v-.1zm-2.5.7c0-.1 0-.1 0 0h-.1.1zm-.6-.2zm6.1-5.6zm1.1-1.2c0-.1-.1-.1-.1 0h.1zm-.9.2zm-.4.1c0 .1.1.1 0 0 .1 0 .1 0 0 0zm1.2-1.1s-.1-.1 0 0h-.1.1c0 .1 0 0 0 0zm-.8.4z"/><path class="st466" d="M121.5 11.5c0 .1.1.2.2.2.3-.1.6-.1 1-.1h.1c.5-.2.9-.1 1.4-.1.2 0 .4.1.6-.1h.4c.1 0 .2.1.3.1.2 0 .3.2.5.4.1.2.2.5.2.7v.5c0 .3 0 .6-.1.9v.3c0 .2-.1.3-.3.4-.1 0-.1 0-.2-.1 0-.1-.1-.2-.1-.2v-.3c-.1-.4-.4-.6-.7-.7-.5-.1-1-.1-1.5.1-.4 0-.8.2-1.2.2-.1 0-.3.1-.4.1-.1 0-.3 0-.5.1s-.5.1-.7.1h-.2c-.1.1-.3.1-.4.3-.2.5-.5 1-.8 1.4-.3.4-.5.9-.8 1.3 0 .1-.1.1-.1.2-.7 1.5-1.5 3-2.2 4.6-.2.6-.4 1.1-.6 1.7v.4c0 .2.1.3.3.3.1 0 .2 0 .3-.1.3-.1.5-.3.7-.5.4-.4.9-.7 1.3-1.2.2-.2.4-.4.5-.6.1-.1.3-.2.4-.3h.2c.2.1.4.2.4.5 0 .1 0 .3-.1.4-.2.3-.3.6-.6.8-.3.4-.7.8-1 1.3-.4.5-.8 1-1.3 1.5-.2.1-.3.4-.5.5-.4.4-.8.7-1.2 1-.5.3-.9.3-1.4.2-.2 0-.4-.1-.5-.3-.3-.2-.5-.4-.5-.8-.1-.3-.1-.5-.1-.8v-.1c0-.3 0-.5.1-.8.1-.3.1-.7.2-1l.3-1.2c.2-.4.3-.8.4-1.2.1-.4.3-.7.4-1.1.4-.9.7-1.8 1.1-2.6.4-.9.9-1.7 1.3-2.6 0-.1.1-.2.1-.3 0-.1 0-.2-.1-.3 0 0-.1-.1-.2 0-.3.1-.5.1-.8.1-.2 0-.5 0-.7-.1-.1-.1-.2-.1-.3-.1-.7-.2-1.3-.6-1.8-1.2-.2-.3-.3-.7-.4-1.1V12v-.5c-.1-.4.1-.8.3-1.1.1-.3.3-.6.5-.8l.1-.1c.3-.3.6-.5.9-.7.1-.1.3-.1.4-.2h.2l.1.1v.2c-.4.4-.7.9-.9 1.4-.1.2-.1.5-.1.8 0 .1 0 .1.1.2.3.5.6.8 1.1.9.2 0 .4.2.6.2.3 0 .7.1 1 .1h.3c.2-.1.4-.1.6-.1.1 0 .3 0 .4-.1.1 0 .3 0 .4-.1l.3-.3c.2-.3.4-.6.6-1 .2-.2.3-.5.5-.7.2-.3.4-.5.6-.7.1-.2.3-.3.5-.4.1-.1.3-.1.4 0 .1.1.2.1.4.2.4.1.7.3.9.6.1.1.1.2.2.3 0 .1.1.2 0 .3-.2.4-.3.7-.5 1.1-.1-.2-.2-.1-.3-.1 0 0 0-.1-.1-.1h-.1c.1 0 .1 0 .2.1zm-4.6 2.5s0 .1.1.1c-.1 0-.1-.1-.1-.1-.1 0-.1-.1 0 0-.1-.1-.1-.1 0 0-.1-.1-.1 0 0 0zm-2.1 8.7c.2-.1.2-.1.2-.2 0 0 0-.1-.1-.1l-.1.1v.2s-.1 0-.1.1v.1s.1-.1.1-.2zm-1.4 1h.2c.1 0 .1 0 .2-.1 0-.1-.1-.1-.1-.2l-.1-.1h-.2v.1c-.1.2 0 .3 0 .3 0 .1-.1.1-.1.1l.1-.1zm.9 1.6c.2 0 .3 0 .4.3l.1.1.1-.1c0-.1 0-.2-.1-.2-.1-.1-.3-.2-.4-.3-.1 0-.1 0-.1.1v.1c0-.2 0-.1 0 0h-.1-.1c-.1 0-.1.1-.1.1 0 .1.1.2.2.2.2-.1.1-.2.1-.3zm4.2-11.1v.2c0 .1 0 .1.1.2 0 0 .1 0 .1-.1l.1-.1s-.1 0-.1-.1c-.2 0-.2 0-.2-.1v-.1c.1-.2.1-.2-.1-.2s-.4-.2-.6-.2c-.1 0-.1 0-.1.1v.2c.1.1.1.3.3.3.2-.1.3-.1.5-.1zm.7-2.1c-.2-.1-.3.1-.4.1 0 0-.1 0-.1.1v.2c0 .1.1.1.2.2s.1-.1.1-.1c.1-.1.1-.2.2-.3v-.2zm2.1.2s0-.1 0 0c-.1-.1-.2-.1-.2-.1-.1 0-.4.2-.5.2v.2c0 .1.1.1.1.1.1 0 .1 0 .2-.1.1-.2.2-.2.4-.3zm-1.1-1.4c-.2 0-.3.1-.4.1-.1 0-.1.1-.1.1l.1.1h.1c.3.2.4.2.3-.3.1 0 .1 0 0 0zm-1.2 3.7s0 .1 0 0c.1.2.2.3.2.2l.1-.1v-.1c-.1 0-.1-.1-.2-.1s-.1 0-.1.1zM113.1 26c.1 0 .1 0 .1-.1v-.2c-.1 0-.2 0-.2.1s0 .2.1.2zm.8-3.1h.1v-.1c-.1-.1-.2-.1-.3 0l-.1.1h.3c-.1 0-.1 0 0 0zm3.3-9.3s0-.1-.1-.1h-.1c-.1 0 0 .1.1.2h.1c-.1 0-.1 0 0-.1zm4.2-.3c0-.1 0-.1 0 0-.1-.1-.1 0-.2 0l-.1.1v.1h.2c.1-.1.1-.2.1-.2zm-5.9 7.6c0-.2 0-.2-.2-.2h-.1c0 .1.1.3.3.2-.1.1 0 0 0 0zm8.2-8.1s0-.1-.1-.1c0 0-.1 0-.1.1 0 0 0 .1.1.1 0 0 .1 0 .1-.1zm-8.4 11.7c0 .1 0 .1 0 0 .1.1.2.1.2 0v-.1c0 .1-.1.1-.2.1zm-1-1.3h-.1l-.1.1s0 .1.1.1c0-.1.1-.1.1-.2 0 .1 0 0 0 0zm2.9-5.4c0-.1 0-.2-.1-.2s-.1.1-.1.1c.1.2.1.2.2.1 0 .1 0 .1 0 0zm.2-2.6c-.1-.1-.2-.1-.2 0v.1c.1 0 .1 0 .2-.1 0 .1 0 .1 0 0zm-3.5-2.4c0-.1 0-.1 0 0-.1-.1-.1 0-.2 0v.1c.1-.1.2-.1.2-.1s.1 0 0 0zm5.7.1c-.1 0-.2 0-.1.1 0 .1.1.1.1.1.1-.1.1-.2 0-.2.1 0 .1 0 0 0zm-4.2 12.4l-.1.1s0 .1.1.1l.1-.1s0-.1-.1-.1zm3.9-11.6s0-.1-.1-.1l-.1.1s0 .1.1.1l.1-.1zm-3.4 6.7l.1.1c.1 0 .1 0 .1-.1v-.1c0-.1-.1-.1-.1-.1 0 .1-.1.1-.1.2zm.8-3.4c0-.1 0-.1 0 0 0-.1-.1-.1-.1-.1-.1 0-.1.1-.1.1h.2zm.4-.2c0-.1 0-.1-.1-.2l-.1.1c0 .1 0 .1.1.2s.1 0 .1-.1zm-3.3 4.5zm1.7-1.7zm-.5.2s0-.1 0 0c-.1-.1-.1 0-.1 0h.1zm-.6 6.1zm-1.3-.9h-.1s.1.1.1 0c0 .1 0 0 0 0zm.7 0c0-.1-.1 0 0 0-.1 0-.1 0 0 0zm.3-.8zm.6.2c0-.1-.1-.1 0 0-.1 0-.1 0 0 0-.1 0 0 0 0 0zm3.4-11.4zm2.9.2s-.1-.1 0 0c-.1-.1-.1 0 0 0-.1 0-.1 0 0 0-.1 0 0 0 0 0zm-6 0c0-.1-.1-.1-.1 0 0 0 0 .1.1 0 0 .1 0 0 0 0zm-.8.2zm6.3-1.3s0-.1 0 0c-.1-.1-.1 0-.1 0h.1zm2.2.7c0-.1-.1-.1 0 0-.1-.1-.1 0 0 0-.1 0 0 0 0 0zm-.7.1zm-1.5 0zm-.4-2.9zm-4.8 8.6zm1.3-.3zm-.4.5zm.3 0c-.1 0-.1 0 0 0 0 .1 0 .1 0 0zm1.6-2.9zm-.5.7zm-1.3-2.6s-.1 0 0 0c-.1.1 0 .1 0 0zm-.5 3.2c0 .1 0 .1 0 0 0 .2 0 .2 0 0 .1.1.1.1 0 0zm1.1.3c-.1 0-.1 0 0 0-.1 0-.1 0 0 0-.1.1 0 0 0 0zM44.7 9.7c.1.2.2.3.4.2.5-.2 1-.3 1.5-.3h.2c.7-.3 1.5-.6 2.3-.7.4 0 .7 0 1.1-.2h.6c.2 0 .3.1.5.1.4 0 .6.2.8.4.2.3.4.6.5.9v.7c0 .4 0 .8-.1 1.2v.4c0 .3-.2.4-.4.5-.1.1-.2 0-.3-.1-.1-.1-.1-.2-.2-.3 0-.1-.1-.2-.1-.3-.3-.5-.7-.8-1.3-.7-.8 0-1.7.4-2.5.7-.7 0-1.2.3-1.9.4-.2 0-.4.2-.7.2-.2.1-.5 0-.7.1-.4.1-.8.1-1.1.2-.1 0-.2 0-.2.1-.2.1-.4.2-.5.4-.3.6-.6 1.3-1 1.9-.4.6-.7 1.2-1 1.7 0 .1-.1.1-.1.2-.9 2-1.9 3.9-2.7 5.9-.3.7-.5 1.4-.7 2.1v.5c0 .2.2.4.4.3.2 0 .3 0 .5-.1.4-.2.7-.4 1-.6.6-.5 1.3-1 1.8-1.6.2-.3.5-.5.7-.8.2-.2.4-.3.6-.4.1 0 .2-.1.2 0 .3.1.6.3.7.6.1.2 0 .3 0 .5-.3.4-.5.7-.7 1.1-.5.5-1 1.1-1.3 1.7-.6.6-1.1 1.3-1.8 1.9-.3.2-.4.5-.7.7-.5.5-1 .9-1.6 1.2-.6.3-1.3.4-2 .3-.3 0-.5-.2-.8-.3-.4-.2-.7-.5-.8-1-.2-.3-.3-.7-.3-1v-.1c0-.3-.1-.6 0-.9.1-.4.1-.8.2-1.3l.3-1.5c.2-.5.3-1 .5-1.5.1-.5.3-.9.5-1.3.5-1.1.8-2.2 1.3-3.3.5-1.1 1-2.2 1.6-3.3.1-.1.1-.2.1-.3 0-.1 0-.3-.1-.3s-.2-.1-.2 0c-.4.2-.8.2-1.2.3-.4 0-.7.1-1.1-.1-.1-.1-.3 0-.5 0-1-.1-1.9-.5-2.7-1.2-.3-.3-.5-.8-.7-1.2v-.2-.6c-.1-.5.1-.9.2-1.4.1-.4.3-.7.6-1L32 9c.3-.4.7-.7 1.2-1 .2-.1.4-.2.5-.3h.2c.1 0 .2 0 .2.1V8c-.6.5-.9 1.2-1.2 1.9-.1.3-.1.6 0 .9 0 .1.1.1.1.2.4.5 1 .8 1.6.9.3 0 .6.1.8.1.5 0 1 0 1.5-.1.2 0 .3 0 .5-.1.3-.1.6-.2.9-.2.2 0 .4-.1.6-.1.2-.1.4-.1.6-.2.1-.1.2-.3.3-.5.3-.4.5-.9.8-1.3.2-.3.4-.7.6-1 .2-.4.5-.7.8-1.1.2-.3.4-.5.7-.6.2-.1.4-.2.7-.1.2 0 .4.1.6.1.6.1 1.1.3 1.6.6l.3.3c.1.1.1.2.1.3-.2.5-.5 1-.7 1.5-.4 0-.5.2-.6.2 0 0 0-.1-.1-.1h-.1c-.1 0 0 0 .2.1zm-6.8 3.9c0 .1.1.1.1.2l.1-.1c-.1 0-.2 0-.2-.1-.1 0-.1 0 0 0-.1-.1-.1-.1-.2-.1 0 .1.1.1.2.1zm-2 11c.3-.1.3-.1.2-.3 0-.1-.1-.1-.1-.2l-.1.1c-.1.3 0 .4 0 .4-.1 0-.1 0-.1.1l.1.1c-.1 0 0-.1 0-.2zM34 25.9h.2c.1 0 .1-.1.2-.1 0-.1-.1-.1-.1-.2-.1-.1-.1-.1-.2-.1s-.1 0-.2.1v.1c0 .1.1.2.1.2 0 .1-.1.1-.1.1l.1.1c-.1 0 0-.1 0-.2zm1.6 1.8c.3 0 .5 0 .6.3 0 0 .1 0 .1.1 0-.1.1-.1.1-.2s0-.2-.1-.3l-.6-.3c-.1 0-.2 0-.2.1v.1c0 .1 0 .2.1.2h-.2-.1c-.1 0-.1.1-.1.2.1.2.2.3.3.2.1-.1.1-.2.1-.3v-.1zm4.7-14v.2c0 .1 0 .2.1.2s.1-.1.2-.1c0 0 .1-.1.1-.2-.1 0-.1 0-.2-.1-.1.1-.1.1-.2 0v-.2c.1-.2.1-.3-.1-.2-.3.1-.6-.1-.9-.2-.1 0-.2 0-.2.1v.2c.1.2.2.3.5.3.3.1.5 0 .7 0zm.9-2.8c-.3-.1-.4.1-.6.2-.1 0-.1.1-.2.1v.2c.1.1.2.2.3.2.2.1.1-.1.2-.2s.2-.3.3-.4v-.1zm3.2-.1l-.1-.1h-.2c-.1 0-.6.3-.7.4v.2c0 .1.1.1.2.1s.2-.1.3-.2c.1-.2.3-.3.5-.4zm-1.8-1.6c-.3.1-.5.1-.6.2-.1 0-.1.1-.1.1s.1 0 .1.1h.1c.5.3.6.2.5-.4.1.1.1 0 0 0zm-1.5 4.9v.1c.1.2.3.2.4.1.1-.1.1-.1.1-.2V14c-.1 0-.2-.1-.3-.1-.1 0-.2.1-.2.2zm-7.2 14.6c.1 0 .2 0 .2-.1s0-.3-.1-.3-.2.1-.3.1c0 .2.1.3.2.3zm.7-3.8c.1 0 .2 0 .2-.1 0 0 0-.1-.1-.2-.2-.1-.3-.1-.4 0 0 .1-.1.1-.1.2.1 0 .1 0 .2.1s.1.1.2 0zm3.7-11.8c0-.1-.1-.1-.1-.2H38c-.1 0 0 .2.1.2h.1c0 .2.1.1.1 0zm6.5-1.1c0-.1-.1-.1 0 0-.1-.1-.2 0-.3 0-.1 0-.1.1-.1.2 0 0 0 .1.1.1.2 0 .3 0 .3-.1V12zm-8.1 10.3c0-.2-.1-.3-.3-.3 0 0-.1 0-.1.1 0 .2.2.3.4.2-.1.1 0 .1 0 0zM48.4 11l-.1-.1c-.1 0-.2 0-.2.1s0 .1.1.1.1 0 .2-.1zM36.9 26.8s0 .1 0 0c.1.2.3.1.3 0v-.1c-.1 0-.3 0-.3.1zm-1.6-1.5h-.2s-.1 0-.1.1l.1.1c0-.1.1-.2.2-.2zm3.6-6.9v-.1l-.1-.1c-.1 0-.1.1-.1.2 0 0 0 .1.1.1 0 0 .1 0 .1-.1zm-.1-3.3c-.2-.1-.2 0-.3 0 0 0 0 .1.1.1s.1 0 .2-.1c0 .1 0 0 0 0zm-5.3-2.5h-.3v.1c.2 0 .2 0 .3-.1 0 .1 0 0 0 0zm8.4-.8h-.1c-.1 0-.1.1-.1.1 0 .1.1.1.2.1.1-.1.1-.1 0-.2.1 0 .1 0 0 0zm-4.7 15.9c0 .1-.1.1-.1.2s.1.1.1.2c0-.1.1-.1.1-.2s-.1-.2-.1-.2zm4.3-14.8c0-.1-.1-.1-.1-.2 0 .1-.1.1-.1.2s.1.1.1.2c0 0 0-.1.1-.2zm-4.3 8.7c.1 0 .1.1.2.1s.1 0 .2-.1v-.1c0-.1-.1-.1-.2-.1-.1.1-.1.2-.2.2zm.8-4.3c-.1-.1-.2-.2-.2-.1-.1 0-.1.1-.1.2.1 0 .1.1.3-.1-.1.1 0 .1 0 0zm.6-.2c0-.1-.1-.1-.1-.2 0 .1-.1.1-.1.2s.1.1.1.2c0 0 .1-.1.1-.2zM34.4 23zm2.1-2.3zm-.7.3s0-.1 0 0c-.1-.1-.1 0-.1 0s0 .1.1 0c0 .1 0 0 0 0zm-.1 7.6zm-1.9-1.1h-.2c.1 0 .1.1.2 0 0 .1 0 0 0 0zm.9 0c.1 0 .1-.1 0-.1v.1zm.4-1zm.8.2c0-.1-.1-.1-.1 0h.1zm3.8-14.4zM44 12s0-.1 0 0c-.1-.1-.1 0-.1 0h.1zm-8.9 1c-.1-.1-.1-.1-.2 0 0 0 .1.1.2 0-.1.1 0 0 0 0zm-1.1.3zm9.2-2.7c-.1-.1-.1 0-.2 0 .1.1.1.1.2 0 0 .1 0 .1 0 0zm3.5.5c0-.1-.1-.1-.1 0h.1c-.1.1 0 0 0 0zm-1.1.3zm-2.4.3zm-1-3.6zm-6 11.4zM38 19zm-.6.7zm.6 0c-.1 0-.1-.1 0 0-.2 0-.2 0 0 0-.1 0-.1 0 0 0zm1.9-3.9zm-.6.9zm-2.3-3c0 .1-.1.1 0 0 0 .2.1.2 0 0 .1.1.1.1 0 0zm-.2 4.1s-.1 0 0 0c-.1.1 0 .1 0 0 .1.1 0 0 0 0zm1.5.2c-.1-.1-.1 0-.1 0s0 .1.1 0c0 .1 0 0 0 0zM55.2 19.9v-1.6c0-.3-.1-.5-.2-.7l-.1-.1s-.1 0-.1.1c-.6.5-1.2 1-1.7 1.5-.4.4-.9.8-1.3 1.2-.1 0-.1.1-.2.1-.6.6-1.1 1.1-1.7 1.6-.2.1-.3.2-.5.3-.3.1-.6 0-.7-.3 0-.3 0-.6.2-.8.1-.1.3-.2.4-.4.9-.9 1.9-1.7 2.8-2.6.8-.9 1.7-1.6 2.5-2.5.3-.3.5-.6.8-.9.2-.2.5-.4.5-.8.3-.6.6-1.1 1.1-1.5.2-.2.4-.4.7-.5.4-.1.7-.2 1.2-.2.6 0 1.2.3 1.7.7.1 0 .1.1.1.2.2.2.2.5.1.8-.1.2-.2.4-.4.6-.5.6-1 1.1-1.6 1.5-.4.1-.4.4-.3.7.1.4.1.8.1 1.2v2.4c0 .1.2.2.3.1h.1c.1-.1.3-.1.4-.2.8-.6 1.8-1.2 2.6-1.9.5-.3.8-.6 1.2-1 .1-.1.2-.1.3-.2.3-.2.7 0 .8.3.1.2.1.5-.1.7-.5.5-1 1-1.6 1.4-.1.1-.3.2-.4.3-.7.6-1.5 1.2-2.2 1.8-.2.1-.4.2-.5.4-.2.1-.4.3-.6.4-.1.1-.2.3-.2.5v.8c0 .3 0 .6-.2.8 0 .1 0 .2-.1.3 0 .2 0 .4-.1.6-.1.3-.2.6-.2.9-.1.3-.2.5-.3.8-.2.7-.7 1.3-1.3 1.8-.4.3-.8.5-1.3.5h-.1c-.9 0-1.6-.3-2.2-1-.4-.5-.8-1-1.1-1.5-.4-.6-.8-1.2-1.3-1.6-.2-.2-.4-.4-.7-.5-.1 0-.1-.1-.2-.1-.2-.1-.1-.5.1-.5.3-.1.5-.2.8-.3.1 0 .1-.1.1-.3 0-.1-.1-.2-.1-.3-.1-.3.1-.5.4-.4h.2l.6.3c.3.1.5.2.8.2.4 0 .9.1 1.3 0l.9-.3c.5-.1.6-.5.7-.9v-.7c-.2-.5-.2-.8-.2-1.2zm1.1 7.5c.1 0 .1 0 .2-.1v-.1c-.1.1-.1.2-.2.2 0 .1-.1.1-.1.1.1 0 .1-.1.1-.1zm1.9-13.7c-.1 0-.2.1-.2.2s0 .1.1.1c0 0 .1 0 .1-.1v-.2h.2c.1 0 .1 0 .2-.1 0 0 0-.1-.1-.1h-.2c0 .1 0 .1-.1.2zm-2.9 2.8h.3c.1 0 .1-.1 0-.1h-.1c-.1 0-.1 0-.2.1 0 .1-.1.1-.1.1l.1.1v-.2zm.8 5.1c-.2 0-.2.1-.3.2-.1.1-.1.1 0 .2h.2s.1 0 .1-.1c-.1-.2-.1-.3 0-.3s.1 0 .2-.1c0-.1 0-.1-.1-.1s-.2.1-.1.2zm.3 3.5h-.2V25v-.1c0-.1-.1-.2-.2-.2s-.2 0-.2.1 0 .1.1.2.1.2.3.1c0 .3.1.6.2.9 0 0 0 .1.1.1 0-.1.1-.1.1-.2v-.3c-.2-.2-.2-.3-.2-.5 0 0 .1-.1.2-.1s.1-.1 0-.2c0 0 0-.1-.1-.1 0 .1-.1.1-.1.2v.2zm-.2-2.1v-.5l-.1-.1H56c-.1 0-.1.1-.1.1.1.2.1.4.3.5v.2c-.1.2-.1.2.1.3.2 0 .3.1.4.3 0 .1.2.1.3.1 0 0 .1-.1.1-.2 0-.2 0-.3-.2-.3-.2-.1-.4-.3-.7-.4zm-1.3 1.6c0-.2-.1-.3-.2-.3-.3.1-.7.3-1 .3-.4.1-.8 0-1.2 0-.1 0-.1.1-.1.1v.1c.4.5.8.9 1.3 1.2.2.1.3.1.5.1.1 0 .2 0 .2-.1.1-.2.3-.4.3-.7 0-.2.1-.4.2-.6v-.1zm2.4-3.1c-.1-.2-.2-.3-.3-.4-.1-.1-.3 0-.3.1v.1c0 .2.3.3.6.2-.1 0-.1 0 0 0zm.7-.7c-.1-.2-.3-.3-.5-.2-.1 0-.1.1-.1.2.1.2.3.3.5.2.1-.1.1-.2.1-.2zm-1.5 1h-.1c-.1 0-.1.1 0 .2l.3.3c.1.1.1.1.2 0 0-.1.1-.1 0-.2s-.2-.3-.4-.3zm.4-2.1l-.1.1.3.3h.1s.1 0 .1-.1v-.1c-.1-.1-.2-.2-.4-.2zm-.7 4.4c-.1 0-.1 0 0 0-.2-.1-.3-.1-.4-.1-.1 0-.1.1-.2.1l.1.1h.3c.1.1.1 0 .2-.1-.1.1-.1.1 0 0zm-.8-.5c.1 0 .2-.1.2-.1.1-.1.1-.1 0-.2s-.2-.1-.3 0v.2c.1 0 .1 0 .1.1zm1.2-4.7c0-.1 0-.2-.2-.2h-.2v.1c0 .1.1.2.2.2s.1 0 .2-.1zm.3-1.9c0 .1 0 .1 0 0-.1.1-.1.2-.1.2 0 .1.1.1.3.1 0 0 .1 0 .1-.1 0 0-.2-.2-.3-.2zM55 28v-.1c0-.1-.1-.1-.2-.1h-.1c0 .1 0 .1.1.2 0 .1.1.1.2 0-.1.1 0 .1 0 0zm.6-.9c0-.1 0-.1 0 0h-.3s0 .1.1.1c.1-.1.1-.1.2-.1zm2.2-7.9c-.1-.1-.1-.1 0 0-.1-.1-.2-.1-.2-.1s-.1 0-.1.1.1.1.1.1c.1 0 .2-.1.2-.1zm.1-2.9c0-.1 0-.2-.1-.2 0 0-.1 0-.1.1v.2c.1-.1.1-.1.2-.1zm-1 2.1c0-.1 0-.1 0 0-.1-.1-.1-.1-.2-.1s-.1.1-.1.1h.3c-.1 0 0 0 0 0zM55.4 25c0 .1-.1.1-.1.2 0 0 0 .1.1.1h.1c0-.2 0-.2-.1-.3.1 0 0 0 0 0zm.4 1.5c.1 0 .1-.1.1-.2 0 0 0-.1-.1-.1 0 0-.1.1 0 .3-.1-.1 0-.1 0 0zM58 14.8c0-.1 0-.1 0 0 0-.1-.1-.2-.1-.2-.1 0-.1.1-.1.2 0 0 0 .1.1.1 0 0 0-.1.1-.1zm-.8-.2c0-.1-.1-.1-.2-.1s-.1.1-.1.1c0 .1.1.1.2.1s.2-.1.1-.1zm1.2-.1c0-.1-.1-.2-.1-.2-.1 0-.1.1-.1.2s.1.1.2 0c0 .1 0 .1 0 0zm-2.6 5.8zm.4-.1zm-.2-1zM54.7 27zm2.5-1.6c-.1-.1-.1 0-.1 0 0 .1 0 .1.1 0 0 .1 0 .1 0 0zm-3.1 2.5zm2.1-10zm.1-2.9zm1.3.2c0 .1 0 .1 0 0 .1 0 .1 0 0 0zm-1.5.3c0 .1 0 .1 0 0 0 .2 0 .2 0 0 .1.1 0 .1 0 0zm.7.1zm1.5-2.7v.1c.1 0 .1 0 0-.1.1 0 .1 0 0 0zm-.6.4zm-1.4 3.6zM53.8 10c0-.3.1-.6.2-.9.2-.6.4-1.2.7-1.7.3-.6.9-1 1.5-1.3.8-.3 1.6-.3 2.4.1.1.1.2.1.3.2.4.3.4.9.1 1.2l-.6.6c-.8.7-1.4 1.5-2.1 2.3-.2.2-.3.5-.3.8v.1c-.1.2-.4.4-.6.3-.3-.1-.7-.2-1-.3-.3-.1-.5-.4-.7-.7 0-.1-.1-.1-.1-.2.2-.2.2-.4.2-.5zm2.8-3c0-.1 0-.2-.1-.2 0 0-.1 0-.1.1s.1.1.2.1v.2c0 .1.1.1.1.2l.1-.1v-.2c-.1 0-.1-.1-.2-.1zM117.6 32c-.2-.5-.7-.8-1.3-.8-13.1-.7-26.8-.6-39.3-.2-.4.3-.9.4-1.3.7-.2.1-.5.3-.7.4.1.1.1.2.1.3 0 .1 0 .1-.1.1s-.2-.1-.3-.1c-.1 0-.2 0-.2.1s0 .1-.1.1-.2 0-.3-.1c-.1 0-.1 0-.1-.1-.3.1-.5.1-.8.1h-.1c-.3.1-.7.1-1.2 0 0 .1 0 .1-.1.2 0 .1-.1.1-.2.1h-.1c0-.1 0-.2-.1-.3-.6-.1-1.2-.4-1.6-.6-.3-.2-.6-.4-.8-.6-18.5.9-35.3 3-38.5 3.3-.4 0-.6.1-.6.5s1 1.1 1.4 1c5.7-.3 49.7-3.2 86.2-1.2.4 0 .7-.3.7-.6-.1-.8-.3-1.6-.6-2.3zm-60.9 1c0 .1-.1.2-.2.2h-.1-.1v-.1c.1-.1.2-.2.4-.1 0-.1 0 0 0 0zm1 .3c-.1 0-.1 0 0 0-.1 0-.2 0-.2-.1v-.1h.2v.2zm.6.2c0-.1 0-.1 0 0 0-.1 0-.1.1-.1 0 .1 0 .1-.1.1zm1.5-.2c0-.1-.1-.1-.1-.2V33h.2c.1 0 .1.1.2.2-.1.1-.2.1-.3.1zm.4-1s-.1.1-.2.1v-.2c.1 0 .2 0 .2.1zm.5 1c-.1.1-.1.1 0 0-.1.1-.2.1-.2 0-.1-.2-.1-.4.1-.6 0 0 .1 0 .2-.1v.1c0 .3-.1.4-.1.6zm.6-1c0 .1-.1.1-.1.1v-.1c0-.1.1-.1.1-.1v.1zm.2 1.2c-.1 0-.1-.1 0-.1h.1s0 .1-.1.1c.1 0 0 0 0 0zm.7-.9c-.1 0-.1-.1-.2-.2v-.1h.1c.1.1.2.1.2.2v.1h-.1zm.6.7s-.1 0 0 0c-.2 0-.2-.1-.2-.2s.1-.1.2 0c.1 0 .1.1 0 .2zm.4-.4c-.1 0-.1 0 0 0-.1-.1-.1-.1 0 0-.1-.1-.1-.1 0 0 0-.1 0-.1 0 0zm-.1-.7c-.1 0-.1-.1 0-.1s.1 0 0 .1c.1-.1.1 0 0 0 .1 0 .1 0 0 0zm7.8.9s-.1 0 0 0c-.1.1-.2.1-.3 0V33s0-.1.1-.1h.2v.2zm1.4.1l-.1-.1h.1v.1c.1-.1.1 0 .1 0h-.1zm3.4-.6c-.1.1-.1.2-.2.2 0 0-.1 0-.2.1v-.1c0-.1.1-.1.1-.2h.3c0-.1 0-.1.1-.2 0 .1-.1.2-.1.2zm1.4.2c0-.1 0-.1.1-.2s.2-.2.3-.2h.1c.1 0 .1 0 .2.1s0 .1-.1.1-.3.1-.4.2h-.2zm.6.3h-.1c0-.1 0-.1.1-.2h.1c0 .1 0 .1-.1.2zm2.7.1l-.1-.1s0-.1.1-.2h.1s.1.1.1.2c-.1 0-.1.1-.2.1zm.6-.6c-.1 0-.1.1-.2.1h-.2v-.1c.2-.2.3-.2.4 0 0-.1 0 0 0 0zm.7.5c0 .1-.1.1-.2.1h-.1l-.1-.1c0-.1 0-.1.1-.1s.2 0 .3.1zm1.4-1.1c-.1.1-.2.1-.3.1h-.1c-.1-.1 0-.1 0-.1.1 0 .1 0 .2-.1.1 0 .2 0 .2.1zm.7 0c-.1 0-.2 0-.3-.1v-.1s0-.1.1-.1c.2.2.4.3.2.3.1 0 .1 0 0 0zm1.2.9c-.1.1-.2.1-.3.1-.1 0-.1-.1-.1-.2.1-.1.1-.1.2-.1.2 0 .3.1.2.2zm2.4-.4c-.1.1-.1.2-.2.2h-.1-.1v-.1c.1 0 .2-.1.4-.1zm.8 1.1c-.1 0-.1-.1 0-.1h.1v.1c0-.1-.1 0-.1 0zm.3-.7h-.1s-.1 0-.1-.1v-.1h.2v.2zm.7.2c-.1 0-.1 0 0 0-.1 0-.1 0 0 0 0-.1.1-.1.1-.1 0 .1-.1.1-.1.1zm.2-1.1h-.1v-.1c.1-.1.1 0 .1.1zm1.3 1c0-.1-.1-.1-.1-.2v-.1h.2c.2.1.2.2.2.3h-.3zm.5-1H91v-.2c.1 0 .2 0 .2.2 0-.1 0-.1 0 0zm.6.5c0 .2-.1.3-.2.5h-.1-.1c-.1-.2-.1-.4.1-.6.2.1.3.1.3.1zm.6-.5c0 .1-.1.1-.2.1h-.1V32c0-.1.1-.1.2-.1.1-.1.1 0 .1.1zm.2 1.3c-.1 0-.2 0-.1-.1 0 0 .1 0 .1.1 0-.1 0 0 0 0zm.7-1c-.1-.1-.2-.1-.2-.2V32h.1c.1.1.2.1.2.2v.1h-.1zm.7.8h-.1c-.1 0-.1-.2-.1-.3 0-.1.1-.1.2 0s.1.2 0 .3zm.4-.4c-.1 0-.1 0 0 0-.1-.1-.1-.1 0 0-.1-.1 0-.1 0-.1v.1zm0-.7c-.1 0-.1-.1 0-.1v.1c.1-.1.1 0 .1 0h-.1zm5.6-.5c.1.1 0 .1-.1.1v-.1h.1zM96.2 33c-.2.1-.2.1-.3 0v-.1c0-.1 0-.1.1-.1h.2c.1.1.1.1 0 .2zm1-.7c0 .1-.1.3-.1.4 0 .1-.1.1-.2.1 0 0-.1 0-.1-.1 0-.2-.1-.3-.1-.5v-.1h.1c.4 0 .5.1.4.2zm.3-.5c0-.1 0-.1 0 0 .1-.1.1-.1.2-.1s.1.1 0 .1-.2.1-.2 0c0 0-.1 0 0 0zm.2 1.3l-.1-.1h.1s.1 0 .1.1v.1c0-.1 0-.1-.1-.1zm2.9-.6c-.1 0-.2-.1-.3-.1-.1 0-.2 0-.2.1s0 .1-.1.1-.2 0-.3-.1c-.1 0-.1-.1-.1-.2.2-.2.5-.3.8-.4h.1c.2.1.3.2.3.5-.1.1-.1.1-.2.1zm.8.2c-.1.1-.1.2-.2.2 0 0-.1 0-.2.1v-.1c0-.1.1-.1.1-.2s.1-.1.1-.2c0 0 .1-.1.2-.1.1.2.1.2 0 .3zm1.5.2c0-.1.1-.1.1-.2l.3-.3h.1c.1 0 .1 0 .2.1s0 .1-.1.1c-.2 0-.3.1-.4.2-.1.1-.3.2-.2.1zm.7.3h-.1c0-.1 0-.1.1-.2h.1c0 .1-.1.2-.1.2zm.3-1.1c-.1 0-.1-.1 0-.1s.1-.1.2-.1.2 0 .3.1c.1.1 0 .1-.1.1-.2 0-.3.1-.4 0zm.3.7s0-.1 0 0c.1-.1.1-.1.2-.1-.1.1-.1.1-.2.1zm1.6.5h-.1c-.3-.1-.5-.3-.8-.3-.2 0-.3-.1-.5-.2l.7-.7h.1c.1 0 .3.1.3.2s-.1.1-.2.2c-.2.1-.2.3 0 .4.1 0 .2.1.3.1.2 0 .2.1.2.3.1-.1 0 0 0 0zm.6.2l-.1-.1c0-.1 0-.1.1-.2h.1c0 .1.1.1.1.2 0 0-.1.1-.2.1zm.7-.7c-.1 0-.1.1-.2.1h-.2v-.1c.2-.1.3-.1.4 0zm.7.7c0 .1-.1.1-.2.1h-.1l-.1-.1c0-.1 0-.1.1-.1s.3-.1.3.1c0-.1 0 0 0 0zm1.5-1.1c-.1.1-.2.1-.3.1h-.1c-.1-.1 0-.1.1-.1s.1 0 .2-.1.2-.1.1.1c.1-.1 0-.1 0 0zm.9 0c-.1 0-.2 0-.3-.1v-.1l.1-.1c.2 0 .4.1.3.2l-.1.1zm1.2.9c-.1.1-.2.1-.3.1-.1 0-.1-.1-.1-.2.1-.1.1-.1.3-.1.1.1.1.1.1.2zM124.8 26.7l-.1-.1v.1z"/></g></svg>