<svg xmlns="http://www.w3.org/2000/svg" viewBox="0 0 155.6 34.5"><style>.st0{fill:#fff}.st469{fill:#12b5db}.st470{fill:#ff2c6d}</style><g id="Layer_1"><g opacity=".15"><path d="M13 29.6H7.1V14.1h.1c.5 0 .7-.4.6-1.2v-8c0-1.8-1.4-3.2-3.2-3.2-1.8 0-3.2 1.4-3.2 3.2v9.3s0 .8.7 1.2v16.3c0 1.4 1.1 2.5 2.5 2.5H13c1.2 0 2.3-1 2.3-2.3s-1-2.3-2.3-2.3zM135.7 15.1c.4-.1.7-.4.6-.8l-1.6-9.9c-.2-1.5-1.5-2.5-2.9-2.5h-3.5c-1.5 0-2.7 1.1-2.9 2.5l-1.6 9.8c-.1.3.1.7.5.8 0 0 .1 0 .1.1l-2.7 16.6c-.2 1.4.8 2.6 2.2 2.6 1.1 0 2.1-.8 2.2-1.9l.6-3.8h6.1l.5 3.6c.2 1.2 1.2 2.1 2.4 2.1 1.5 0 2.7-1.4 2.4-2.9l-2.4-16.3zm-8.3 9.1l1.3-8.9c.1 0 .2 0 .3-.1.3-.1.5-.3.5-.6l.1-.7c0-.2.3-.2.3 0v.2c.1.4.4.7.8.6l1.4 9.5h-4.7zM23.4 11.4c.3-.1.4-.4.4-.7V8.5c0-.4.3-.7.7-.7h4.9c.8 0 1.6-.3 2.1-.9.6-.6.9-1.3.9-2.1 0-1.7-1.3-3-3-3h-9.1c-1.7 0-3 1.3-3 3v5.9c0 .4.3.7.7.7V32c0 1.2 1 2.3 2.3 2.3h9c1.2 0 2.3-1 2.3-2.3 0-1.2-1-2.3-2.3-2.3H23v-9.3h4.6c1.2 0 2.3-1 2.3-2.3s-1-2.3-2.3-2.3H23v-4.2c.2-.1.3-.1.4-.2zM48 1.7H37.1c-1.7 0-3 1.3-3 3s1.3 3 3 3h1.5c.4 0 .7.3.7.7v3.3c0 .3.2.5.4.7.1.1.2.1.3.2v19c0 1.4 1.1 2.5 2.5 2.5S45 33 45 31.6V11.3c.1 0 .2-.1.3-.1.3-.1.5-.4.5-.7v-2c0-.4.3-.7.7-.7H48c.8 0 1.6-.3 2.1-.9.6-.6.9-1.4.9-2.2 0-1.6-1.4-3-3-3zM68.8 1.4c-5 0-7.9 2.9-8 8.2 0 .3.1.5.4.7h.1c.1 0 .2.1.3.1.1 3.4 1.5 6 5.5 9.5 3.3 2.9 4.3 4.6 4.3 6.9 0 2.3-1 3.1-2.6 3.1s-2.6-.8-2.6-3.1V26c0-1.3-1.1-2.4-2.4-2.4-1.3 0-2.4 1.1-2.4 2.4v.6c0 5.1 2.5 8 7.4 8s7.4-2.9 7.4-8c0-3.6-1.3-6.2-5.5-9.9-2.6-2.2-3.7-3.8-4.1-5.5.4-.1.6-.4.6-.8v-.6c0-2.2.9-2.4 1.8-2.4.8 0 1.8.2 1.8 2.4v.4c0 1.7 1.4 3.1 3.1 3.1 1.7 0 3.1-1.4 3.1-3.1v-.1c-.1-5.5-3-8.7-8.2-8.7zM92.6 1.4c-5.2 0-8.1 3.2-8.1 8.7v1.4c0 .3.2.6.5.7h.2v14.3c0 5.1 2.5 8 7.4 8s7.4-2.9 7.4-8v-1.9c0-1.3-1.1-2.4-2.4-2.4-1.3 0-2.4 1.1-2.4 2.4v2.2c0 2.3-1 3.1-2.6 3.1s-2.6-.8-2.6-3.1V11.3c.4 0 .7-.3.7-.7v-.8c0-2.1.9-2.4 1.8-2.4 1 0 1.8.3 1.8 2.4v1c0 1.7 1.4 3.1 3.1 3.1 1.7 0 3.1-1.4 3.1-3.1v-.7c.3-5.5-2.7-8.7-7.9-8.7zM116.4 1.8c-1.9 0-3.3 1.4-3.3 3.2v4.9c0 .4.3.7.7.7v5.5h-5.7v-5c.1 0 .1-.1.2-.1.3-.1.5-.4.5-.7V5c0-1.8-1.4-3.2-3.2-3.2-1.8 0-3.2 1.4-3.2 3.2v7.4c0 .4.3.7.7.7v18.6c0 1.4 1.1 2.5 2.5 2.5s2.5-1.1 2.5-2.5V20.6h5.7v11.1c0 1.4 1.1 2.5 2.5 2.5h.1c1.4 0 2.5-1.1 2.5-2.5V11.3c.4 0 .7-.3.7-.7V5c0-1.8-1.4-3.2-3.2-3.2zM55.7 1.4c-1.8 0-3.2 1.4-3.2 3.2v.5c0 .3.2.6.5.7.1 0 .2.1.2.1v3.8c0 1.4 1.1 2.5 2.5 2.5s2.5-1.1 2.5-2.5V6.6c.1 0 .1-.1.2-.1.3-.1.5-.4.5-.7V4.6c0-1.8-1.5-3.2-3.2-3.2zM152.6 1.8h-10.9c-1.7 0-3 1.3-3 3s1.3 3 3 3h1.4c.5 0 .8.4.8.8v2.8c0 .3.2.6.5.7.1 0 .2.1.3.1v19.5c0 1.4 1.1 2.5 2.5 2.5s2.5-1.1 2.5-2.5V12.9c.1-.1.3-.1.4-.2.2-.1.3-.4.3-.6V8.7c0-.5.4-.8.8-.8h1.4c1.1 0 2.1-.6 2.7-1.6.1-.1.1-.3.2-.4.6-2.2-1-4.1-2.9-4.1z"/></g><path class="st469" d="M3.2 1.1c1.4 0 2.5 1.1 2.5 2.5v24.7h5.9c1.2 0 2.3 1 2.3 2.3 0 1.2-1 2.3-2.3 2.3H3.2c-1.4 0-2.5-1.1-2.5-2.5V3.6c0-1.4 1.2-2.5 2.5-2.5zM21.7 14.5h4.6c1.2 0 2.3 1 2.3 2.3 0 1.2-1 2.3-2.3 2.3h-4.6v9.3H28c1.2 0 2.3 1 2.3 2.3 0 1.2-1 2.3-2.3 2.3h-9c-1.2 0-2.3-1-2.3-2.3V3.4c0-1.2 1-2.3 2.3-2.3h9c1.2 0 2.3 1 2.3 2.3 0 1.2-1 2.3-2.3 2.3h-6.3v8.8zM35.7 1.1h10.9c1.2 0 2.3 1 2.3 2.3 0 1.2-1 2.3-2.3 2.3h-2.9v24.7c0 1.4-1.1 2.5-2.5 2.5s-2.5-1.1-2.5-2.5V5.6h-2.9c-1.2 0-2.3-1-2.3-2.3 0-1.2 1-2.2 2.2-2.2zM67.4.8c4.8 0 7.3 2.9 7.3 8v.1c0 1.3-1.1 2.4-2.4 2.4-1.3 0-2.4-1.1-2.4-2.4v-.5c0-2.3-.9-3.1-2.5-3.1s-2.5.9-2.5 3.1c0 2.3 1 4 4.3 6.9 4.2 3.7 5.5 6.3 5.5 9.9 0 5.1-2.5 8-7.4 8s-7.4-2.9-7.4-8v-.6c0-1.3 1.1-2.4 2.4-2.4 1.3 0 2.4 1.1 2.4 2.4v.9c0 2.3 1 3.1 2.6 3.1s2.6-.8 2.6-3.1-1-4-4.3-6.9c-4.2-3.7-5.5-6.3-5.5-9.9 0-5 2.5-7.9 7.3-7.9zM96.3 21c1.3 0 2.4 1.1 2.4 2.4v1.9c0 5.1-2.5 8-7.4 8s-7.4-2.9-7.4-8V8.7c0-5.1 2.5-8 7.4-8s7.4 2.9 7.4 8v.7c0 1.3-1.1 2.4-2.4 2.4-1.3 0-2.4-1.1-2.4-2.4v-1c0-2.3-1-3.1-2.6-3.1s-2.6.9-2.6 3.1v17.1c0 2.3 1 3.1 2.6 3.1s2.6-.8 2.6-3.1v-2.2c0-1.2 1.1-2.3 2.4-2.3zM104.3 32.8c-1.4 0-2.5-1.1-2.5-2.5V3.6c0-1.4 1.1-2.5 2.5-2.5s2.5 1.1 2.5 2.5v11.1h5.7V3.6c0-1.4 1.1-2.5 2.5-2.5h.1c1.4 0 2.5 1.1 2.5 2.5v26.7c0 1.4-1.1 2.5-2.5 2.5h-.1c-1.4 0-2.5-1.1-2.5-2.5v-11h-5.7v11.1c0 1.3-1.2 2.4-2.5 2.4zM134.4 32.9c-1.2 0-2.3-.9-2.4-2.1l-.5-3.6h-6.1l-.6 3.8c-.2 1.1-1.1 1.9-2.2 1.9-1.4 0-2.4-1.2-2.2-2.6l4.3-27.2c.2-1.1 1.1-1.9 2.2-1.9h3.5c1.1 0 2 .8 2.2 1.9l4.3 26.9c.2 1.5-1 2.9-2.5 2.9zM126 22.8h4.8l-2.4-16h-.1l-2.3 16zM54.3 10.8c-1.4 0-2.5-1.1-2.5-2.5V3.2c0-1.4 1.1-2.5 2.5-2.5s2.5 1.1 2.5 2.5v5.1c-.1 1.4-1.2 2.5-2.5 2.5zM140.3 1.2h10.9c1.2 0 2.3 1 2.3 2.3 0 1.2-1 2.3-2.3 2.3h-2.9v24.7c0 1.4-1.1 2.5-2.5 2.5s-2.5-1.1-2.5-2.5V5.7h-2.9c-1.2 0-2.3-1-2.3-2.3-.1-1.2.9-2.2 2.2-2.2z"/><path class="st470" d="M1.5 14.2C0 14.2 0 12.9 0 12.9V3.6C0 1.8 1.4.4 3.2.4 5 .4 6.4 1.8 6.4 3.6v8c.1.7-.1 1.2-.6 1.2-.7.1-1.7.6-2.8 1.1-.5.1-1 .3-1.5.3zM20 10.7c-.2 0-.5 0-.7-.1l-.9-.3c-.5-.2-.9-.3-1.3-.3h-.2c-.5 0-.9-.3-.9-.8V3.4c0-1.7 1.3-3 3-3h9.1c1.7 0 3 1.3 3 3 0 .8-.3 1.6-.9 2.1-.6.6-1.3.9-2.1.9h-4.9c-.4 0-.7.3-.7.7v2.3c0 .3-.2.6-.4.7-.1 0-.2.1-.3.1-.6.3-1.1.5-1.8.5zM40 11.5c-.5 0-1.1-.1-1.7-.4-.2-.1-.4-.4-.4-.7V7.1c0-.4-.3-.7-.7-.7h-1.5c-1.7 0-3-1.3-3-3s1.3-3 3-3h10.9c1.7 0 3 1.3 3 3 0 .8-.3 1.6-.9 2.1-.6.6-1.3.9-2.1.9h-1.5c-.4 0-.7.3-.7.7v2c0 .3-.2.6-.5.7-.6.2-1.3.6-2.1 1.1-.6.4-1.2.6-1.8.6zM72.4 12c-1.7 0-3.1-1.4-3.1-3.1v-.5c0-2.2-.9-2.4-1.8-2.4-.8 0-1.8.2-1.8 2.4V9c.1.6-.6 1-1.1.7-.2-.1-.4-.3-.9-.3-.2 0-.5 0-.8.1-.3.1-.7.1-1 .1-1 0-1.6-.4-2.2-.6h-.1c-.2-.1-.4-.4-.4-.7.2-5.3 3-8.2 8-8.2 5.1 0 8.1 3.2 8.1 8.7v.1c.2 1.7-1.2 3.1-2.9 3.1zM84.9 11c-.4 0-.9-.1-1.3-.2-.3-.1-.5-.4-.5-.7V8.7c0-5.5 3-8.7 8.1-8.7 5.2 0 8.2 3.2 8.2 8.7v.7c0 1.7-1.4 3.1-3.1 3.1-1.7 0-3.1-1.4-3.1-3.1v-1c0-2.1-.9-2.4-1.8-2.4-1 0-1.8.3-1.8 2.4v.8c0 .4-.4.8-.8.7h-.2c-.5 0-1.1.2-1.6.5-.7.4-1.3.6-2.1.6zM117.4 9.9c-1.6 0-2.5-1.7-4.7-.7-.5.2-1-.2-1-.7V3.6c0-1.8 1.4-3.2 3.2-3.2h.1c1.8 0 3.2 1.4 3.2 3.2v5.5c0 .4-.3.7-.7.7l-.1.1zM101 3.6c0-1.8 1.4-3.2 3.2-3.2 1.8 0 3.2 1.4 3.2 3.2v5.2c0 .3-.2.6-.5.7-.3.1-.5.3-.8.6-.9 1-1.4 1.3-2.1 1.3h-.6c-.3 0-.7 0-1.5.3-.5.2-1-.2-1-.7V3.6zM125.5 14.1c-1.1 0-1.9-.3-2.6-.5-.3-.1-.5-.5-.5-.8L124 3c.2-1.5 1.5-2.5 2.9-2.5h3.5c1.5 0 2.7 1.1 2.9 2.5l1.6 9.9c.1.4-.2.8-.6.8h-.3c-.5 0-.8-.2-1.2-.3-.4-.2-.9-.4-1.7-.4-.5 0-1 .1-1.6.2-.4.1-.9-.2-.9-.6v-.2c0-.2-.3-.2-.3 0l-.1.7c0 .3-.3.5-.5.6-.9.3-1.6.4-2.2.4zM54.5 5.8c-1 0-1.7-.5-2.2-.9-.3-.2-.5-.4-.8-.5-.3 0-.5-.3-.5-.6v-.6C51 1.4 52.5 0 54.3 0c1.8 0 3.2 1.4 3.2 3.2v1.2c0 .3-.2.6-.5.7-.2.1-.4.1-.6.2-.7.4-1.3.5-1.9.5zM146.8 11.8c-1.2 0-2.5-.5-3.8-1-.3-.1-.5-.4-.5-.7V7.3c0-.5-.4-.8-.8-.8h-1.4c-1.7 0-3-1.3-3-3s1.3-3 3-3h10.9c2 0 3.5 1.9 2.8 4 0 .1-.1.3-.2.4-.6 1-1.6 1.6-2.7 1.6h-1.4c-.5 0-.8.4-.8.8v3.4c0 .3-.1.5-.3.6-.5.3-1.1.5-1.8.5z"/><path class="st0" d="M2.5 1.3C.9 1.3.4 3 .5 4.4c0 .2.4.2.4 0-.1-1.1.2-2.7 1.6-2.7.3 0 .3-.4 0-.4zM19 1.4c-1.6.2-2.4 1.7-2.2 3.2 0 .2.4.1.4-.1-.2-1.2.4-2.5 1.8-2.7.2 0 .2-.4 0-.4zM37 1.4c-1-.1-2.3.4-2.6 1.5-.1.2.3.3.4.1.2-1 1.4-1.3 2.2-1.3.3 0 .3-.3 0-.3zM54.3 1.1c-.4 0-.9 0-1.2.2-.4.2-.6.6-.9.9-.1.2.2.4.3.2.2-.3.4-.6.7-.8.3-.2.7-.1 1-.2.3.1.3-.3.1-.3zM65.9 1.1c-1 .2-2.1.3-3 .8-.8.4-1.3 1.2-1.7 2-.1.2.2.4.3.2.4-1 1-1.8 2.1-2.1.8-.2 1.6-.4 2.4-.5.2-.1.1-.5-.1-.4zM89.4 1.4c-.6.1-1.3.1-1.9.4-.5.2-1.1.7-1.6 1.2-.9.9-1.4 1.6-1.3 2.9 0 .2.4.2.4 0 0-.6 0-1.1.4-1.7.3-.4.7-.9 1.1-1.2 1-.9 1.8-1.1 3.1-1.3.2 0 .1-.4-.2-.3zM103.8 1.4c-.4.1-.8.3-1 .6-.3.4-.4 1-.5 1.5 0 .2.3.3.4.1.1-.4.1-.9.3-1.2.2-.4.6-.6 1-.7.1 0 0-.4-.2-.3zM114.1 1.5c-.7.5-1.8 1-1.6 2 0 .2.4.1.4-.1-.2-.8.8-1.3 1.4-1.6.2-.1.1-.5-.2-.3zM126.7 1.7c-.3.2-.6.1-.8.3-.2.1-.3.3-.5.5-.3.5-.7.9-.6 1.5 0 .2.4.1.4-.1-.1-.4.4-1 .6-1.3.2-.3.3-.3.6-.3.2 0 .3-.1.5-.2.2-.2 0-.5-.2-.4zM140.6 1.7c-1 0-2.3.9-2.1 2 0 .2.4.1.4-.1-.2-.9 1-1.5 1.8-1.6.2 0 .2-.3-.1-.3zM1.5 14.8v13.6c0 .2.4.2.4 0V14.8c0-.3-.4-.3-.4 0zM17.5 11.5v16.4c0 .2.4.2.4 0V11.5c0-.2-.4-.2-.4 0zM39.4 12.6v16.7c0 .2.4.2.4 0V12.6c0-.3-.4-.3-.4 0zM84.4 14.1v10.8c0 .2.4.2.4 0V14.1c0-.3-.4-.3-.4 0zM102.6 12.5v13.1c0 .2.4.2.4 0V12.5c0-.2-.4-.2-.4 0zM113.3 15.1v10.8c0 .2.4.2.4 0V15.1c0-.3-.4-.3-.4 0zM144 12.6V26c0 .2.4.2.4 0V12.6c-.1-.3-.4-.3-.4 0zM65.9 17.5c-1.8-1.5-3.3-3.4-4.3-5.6-.1-.2-.4 0-.3.2 1.1 2.2 2.5 4.1 4.4 5.7.1.1.4-.2.2-.3zM69.9 27.7c-.1.3-.2.6-.5.8-.2.3-.5.3-.8.4-.2 0-.1.4.1.4.4-.1.7-.2 1-.5.3-.3.5-.6.6-1 0-.2-.4-.3-.4-.1zM94.5 27.3c-.2.2-.1.6-.2.8-.2.4-.6.7-1 .9-.2.1 0 .4.2.3.4-.2.8-.4 1-.8.1-.2.2-.3.2-.5 0-.1 0-.4.1-.5.2-.2-.1-.4-.3-.2zM123.8 15.2c0-.2-.4-.2-.4 0 .1 1-.2 1.9-.4 2.8-.3 1-.5 1.9-.6 2.9-.3 1.8-.5 3.6-.7 5.4 0 .2.3.2.4 0 .2-2 .4-4 .8-6 .2-1.6 1.1-3.4.9-5.1z"/></g></svg>