<svg xmlns="http://www.w3.org/2000/svg" viewBox="0 0 188.6 109.4"><style>.st0{fill:#fff}.st110{fill:#48b586}.st111{fill:#ffcc4d}</style><g id="Layer_1"><path class="st110" d="M16.2 77.4l-3.5-3.5-3.9 1.3v-22c0-.6-.2-1.2-.6-1.6l-.1-.1-4-3.9-1.4 4.1 1.6.7c-.2.4-.3.8-.3 1.3v23.1l-2.9 1 3.6 3.6c.4.4 1 .6 1.7.6l8.2-.7c1.2-.1 2.2-1.2 2.2-2.4.1-.6-.2-1.2-.6-1.5z"/><path d="M6.2 82.3c-.7 0-1.3-.2-1.8-.7h-.1L.8 78c-.1-.1-.1-.2-.1-.3s.1-.2.2-.3l2.7-.9V53.7c0-.3.1-.7.2-1l-1.3-.6c-.2-.1-.3-.3-.2-.4l1.4-4.1c0-.1.1-.2.3-.2.1 0 .2 0 .3.1l4.1 4 .1.1c.4.5.7 1.1.7 1.8v21.4l3.4-1.1c.1 0 .3 0 .4.1l3.5 3.5c.5.5.8 1.1.8 1.8 0 1.4-1.1 2.6-2.5 2.8l-8.2.7c-.2-.3-.3-.3-.4-.3zM4.8 81c.1.1.1.1 0 0 .4.4 1 .6 1.6.6l8.2-.7c1-.1 1.9-1 1.9-2 0-.5-.2-.9-.5-1.2l-3.3-3.3L9 75.5c-.1 0-.2 0-.3-.1-.1-.1-.1-.2-.1-.3V53.2c0-.5-.2-1-.5-1.3l-3.7-3.6-1.1 3.3 1.3.6c.1 0 .2.1.2.2v.3c-.2.3-.3.7-.3 1v23.1c0 .2-.1.3-.2.3l-2.4.8L4.8 81z"/><path class="st110" d="M36 75.6l-3.5-3.5-4.3 1.4v-6.9l4.5-.4C34 66.1 35 65 35 63.8c0-.6-.3-1.2-.7-1.5l-3.5-3.5-2.5.8v-6.1l6.2-.5c1.2-.1 2.2-1.2 2.2-2.4 0-.6-.2-1.1-.6-1.4l-3.4-3.4-2.7.7c.1.8.4 1.6.7 2.4l-5.1.4c-1.2.1-2.2 1.2-2.2 2.4V75l-3.1 1 3.4 3.4c.4.6 1.1.9 1.9.8l8.8-.8c1.2-.1 2.2-1.2 2.2-2.4.1-.5-.2-1-.6-1.4zm-7-13.5l-.7.1v-2.1c.1.7.3 1.4.7 2z"/><path d="M25.4 80.7c-.8 0-1.5-.4-2-1L20 76.3V76c0-.1.1-.2.2-.3l2.8-.9v-23c0-1.4 1.1-2.6 2.5-2.8l4.6-.4c-.3-.7-.5-1.4-.5-2 0-.2.1-.3.2-.4l2.6-.8c.1 0 .3 0 .4.1l3.4 3.4.1.1c.5.4.7 1.1.7 1.7 0 1.4-1.1 2.6-2.5 2.8l-5.9.5v5.3l2.1-.7c.1 0 .3 0 .4.1l3.5 3.5c.5.4.7 1.1.7 1.8 0 1.4-1.1 2.6-2.5 2.8l-4.1.4V73l3.8-1.2c.1 0 .3 0 .4.1l3.5 3.5c.5.5.8 1.1.8 1.8 0 1.4-1.1 2.6-2.5 2.8l-8.8.8c-.3-.1-.4-.1-.5-.1zM21 76.2l3 3c.4.5.9.8 1.6.7l8.8-.8c1-.1 1.9-1 1.9-2 0-.5-.2-.9-.6-1.3l-3.3-3.3-4 1.3c-.1 0-.2 0-.3-.1-.1-.1-.1-.2-.1-.3v-6.9c0-.2.1-.3.3-.4l4.5-.4c1-.1 1.9-1 1.9-2 0-.5-.2-.9-.5-1.3l-3.3-3.3-2.1.7v.1c.1.7.3 1.3.7 2 .1.1.1.2 0 .3-.1.1-.2.2-.3.2l-.7.1c-.1 0-.2 0-.3-.1-.1-.1-.1-.2-.1-.3V60c0-.1 0-.1.1-.2 0-.1-.1-.1-.1-.2v-6.1c0-.2.1-.3.3-.4l6.2-.5c1-.1 1.9-1 1.9-2 0-.5-.2-.9-.5-1.2l-3.3-3.3-2.1.7c.1.6.3 1.3.6 2 .1.1 0 .2 0 .3-.1.1-.2.2-.3.2l-5.1.4c-1 .1-1.9 1-1.9 2V75c0 .2-.1.3-.3.3l-2.6.9z"/><path class="st110" d="M57 47.2l-3.4-3.4-3.9 2.2 1.1 1.2-5.8.5c-.3 0-.6.1-.8.2L42 47l-.9-.3-1.5 1.1 3.7 3.7c.4.4 1 .6 1.6.6l2.9-.2v21.9L46 72.5l-1.1 1.4 3.6 3.6c.4.5 1.1.8 1.8.7 1.3-.1 2.4-1.3 2.4-2.6V51.5l2.9-.2c1.2-.1 2.2-1.2 2.2-2.4 0-.8-.3-1.3-.8-1.7z"/><path d="M50 78.6c-.7 0-1.3-.3-1.8-.8h-.1l-3.6-3.6c-.1-.1-.1-.3 0-.5l1.1-1.4c.1-.1.3-.2.5-.1l1.3.9V52.3l-2.4.2c-.7.1-1.4-.2-1.9-.6H43l-3.7-3.7c-.1-.1-.1-.2-.1-.3 0-.1.1-.2.1-.3l1.5-1.1c.1-.1.2-.1.3 0l.9.3 2 .8c.3-.1.5-.2.8-.2l5.1-.4-.6-.6c-.1-.1-.1-.2-.1-.3 0-.1.1-.2.2-.3l3.9-2.3c.1-.1.3-.1.4.1l3.4 3.4c.5.4.8 1.1.8 1.8 0 1.4-1.1 2.6-2.5 2.8l-2.4.2v23.8c0 1.5-1.2 2.9-2.8 3H50zm-1.4-1.4c.5.5 1 .7 1.6.6 1.2-.1 2.1-1.1 2.1-2.3v-24c0-.2.1-.3.3-.4l2.9-.2c1-.1 1.9-1 1.9-2 0-.5-.2-1-.6-1.3l-.1-.1-3.2-3.2-3.3 1.9.8.8c.1.1.1.2.1.4-.1.1-.2.2-.3.2l-5.8.5c-.2 0-.5.1-.7.2H44l-2.1-.9-.7-.2-1 .8 3.3 3.3h.1c.4.4.8.5 1.3.5l2.9-.2c.1 0 .2 0 .3.1s.1.2.1.3v21.9c0 .1-.1.3-.2.3-.1.1-.3.1-.4 0L46 73l-.7.9 3.3 3.3z"/><path class="st110" d="M85.1 58.1C82 55.6 81 54 81 51.7c0-2.2.9-3.1 2.4-3.3.3 0 .6 0 .9.1l-1.5 1.1 3.6 3.6c.4.5 1 .7 1.7.7 1.3-.1 2.3-1.2 2.3-2.5v-.1c0-2.3-.6-4.2-1.6-5.4l-.1-.1-.3-.3-4-4-.5 1.1.4 1.5h-1.1c-4.7.4-8 .5-8 5.5 0 3.5 2.2 8.9 6.2 12.1 3.2 2.5 4.2 4.1 4.2 6.4 0 2.2-3.1 2.5-3.1 2.5-1.5.1-1.9.1-1.9-2.1v-.9c0-.6-.2-1.1-.6-1.5l-3.8-3.8-2.2 4.1v4l3.7 3.7c1.2 1.2 3 1.8 5.4 1.6 4.4-.5 7.3-3.5 7.3-8.4.1-3.5-1.2-6-5.3-9.2z"/><path d="M82.2 76.1c-1.9 0-3.5-.6-4.7-1.8l-3.7-3.7c-.1-.1-.1-.2-.1-.3v-4-.2l2.1-4.1c.1-.1.2-.2.3-.2.1 0 .2 0 .3.1l3.8 3.8v.1c.4.5.7 1.1.7 1.7v.9c0 .7 0 1.5.3 1.7.2.2.6.1 1.3.1 0 0 2.8-.3 2.8-2.2 0-2.2-1-3.7-4-6.1-4.2-3.3-6.4-8.8-6.4-12.4 0-5.1 3.5-5.4 7.9-5.8h1l-.3-1v-.3l.5-1.1c.1-.1.1-.2.3-.2.1 0 .2 0 .3.1l4 4 .3.3.1.1s0 .1.1.1c1.1 1.3 1.7 3.2 1.7 5.6v.1c0 1.5-1.2 2.7-2.6 2.9-.7.1-1.5-.2-2-.7h-.1L82.5 50c-.1-.1-.1-.2-.1-.3 0-.1.1-.2.1-.3l.6-.5c-.9.1-1.9.6-1.9 2.9 0 2.2 1 3.7 4 6.1 4 3.2 5.5 5.8 5.5 9.5 0 5-2.8 8.3-7.6 8.8-.2-.1-.5-.1-.9-.1zm-7.8-5.9l3.6 3.6c1.2 1.2 3 1.7 5.1 1.5 4.3-.5 6.9-3.5 6.9-8.1 0-3.5-1.4-5.9-5.2-8.9-3.2-2.5-4.3-4.2-4.3-6.6 0-2.3.9-3.5 2.8-3.6.4 0 .7 0 1 .1.1 0 .2.1.3.3 0 .1 0 .3-.1.4l-1.1.8 3.2 3.2s.1 0 .1.1c.4.4.9.6 1.4.5 1.1-.1 2-1.1 2-2.1v-.1c0-2.3-.5-4-1.5-5.1l-.3-.3-3.7-3.6-.2.5.4 1.3c0 .1 0 .2-.1.3-.1.1-.2.1-.3.1H83c-4.5.4-7.3.6-7.3 5.1 0 3.4 2.1 8.7 6.1 11.9 3.2 2.5 4.3 4.2 4.3 6.6 0 2.5-3.3 2.9-3.5 2.9-.8.1-1.4.1-1.8-.3-.4-.4-.5-1.1-.5-2.2v-.9c0-.5-.2-.9-.5-1.2v-.1l-3.4-3.4-1.9 3.6-.1 3.7z"/><path class="st110" d="M115.5 47.4l3.4 3.3c.4.6 1.1.9 1.9.8 1.3-.1 2.3-1.2 2.3-2.5v-.7c0-2.5-.6-4.4-1.8-5.6l-3.7-3.7-1 2.1h-.7c-4.8.4-7.4-1.7-7.4 3.3l.2 21.3v1l-1.9 1 3.6 3.6.1.1.1.1c1.2 1.1 3 1.6 5.3 1.4 4.8-.4 7.3-3.5 7.3-8.4v-1.8c0-.7-.3-1.3-.8-1.6l-3.6-3.6-1.5 1.4 1.5 3.3c-.1.3-.2.6-.2.9l-1.6 2.1c0 2.2-1.3 2.4-2.9 2.6-1.5.1-.5.1-.5-2.1V48.9c0-2.2 1-3.1 2.5-3.3.8-.1 1.5.1 1.9.7-.6-.1-1.7-.2-1.7-.2l-.8 1.3z"/><path d="M114.9 73.3c-1.9 0-3.4-.5-4.5-1.5 0 0-.1 0-.1-.1l-3.8-3.8c-.1-.1-.1-.2-.1-.3 0-.1.1-.2.2-.3l1.6-.9v-.8l-.2-21.3c0-1.6.3-2.6.9-3.1.8-.7 1.9-.6 3.4-.5 1 .1 2.1.1 3.4 0h.5l.9-1.9c.1-.1.2-.2.3-.2.1 0 .2 0 .3.1l3.7 3.7c1.3 1.3 1.9 3.3 1.9 5.9v.7c0 1.5-1.2 2.7-2.6 2.9-.9.1-1.7-.3-2.2-1l-3.3-3.3c-.1-.1-.1-.3-.1-.4l.7-1.2c-.9.1-2 .6-2 2.9v16.7c0 .9-.2 1.4-.3 1.7h.4c1.6-.1 2.6-.4 2.6-2.2 0-.1 0-.2.1-.2l1.6-2c0-.3.1-.5.1-.8l-1.4-3.2c-.1-.1 0-.3.1-.4l1.5-1.4c.1-.1.4-.1.5 0l3.6 3.6c.5.5.8 1.1.8 1.9v1.8c0 5.2-2.7 8.3-7.6 8.8-.3.1-.6.1-.9.1zm-4.1-2.1c1.2 1.1 2.9 1.6 5 1.4 4.5-.4 6.9-3.2 6.9-8.1v-1.8c0-.5-.2-1-.6-1.4 0 0-.1 0-.1-.1l-3.3-3.3-1.1 1L119 62v.3c-.1.2-.2.5-.2.8 0 .1 0 .2-.1.2l-1.6 2c-.1 2.5-1.9 2.7-3.2 2.8h-.2c-.5 0-.8.1-1-.1-.2-.2-.1-.4 0-.7.1-.3.3-.8.3-1.6V48.9c0-2.2 1-3.5 2.9-3.6 1-.1 1.7.2 2.2.8.1.1.1.3 0 .4-.1.1-.2.2-.4.2-.4 0-1.1-.1-1.5-.1l-.4.8 3.2 3.2c.4.5 1 .8 1.6.7 1.1-.1 2-1.1 2-2.1v-.7c0-2.4-.6-4.2-1.7-5.3l-3.3-3.3-.8 1.6c-.1.1-.2.2-.3.2h-.7c-1.4.1-2.6 0-3.6 0-1.4-.1-2.4-.2-2.9.3-.4.4-.6 1.2-.6 2.6l.2 21.3v.9c0 .1-.1.3-.2.3l-1.4.7 3.5 3.4z"/><path class="st110" d="M145.2 39.8l-3.6-3.6-1.8 1.2 1.2 4.3v11l-5.5.5V42.3c0-.7-.3-1.2-.7-1.6l-3.9-3.8-1.5 1.8 1.2 4.3v22.5l-1.9.1-1.2 1.1 3.8 3.8c.4.4 1.1.7 1.8.6 1.3-.1 2.4-1.3 2.4-2.6V57.6l5.5-.5v7.4l-1.9.1-1.2 1.1 3.8 3.8c.4.4 1 .6 1.7.6h.1c1.3-.1 2.4-1.3 2.4-2.6V41.4c0-.6-.3-1.2-.7-1.6z"/><path d="M132.7 71.5c-.7 0-1.3-.2-1.8-.7h-.1L127 67c-.1-.1-.1-.2-.1-.3 0-.1 0-.2.1-.3l1.2-1.1c.1-.1.1-.1.2-.1l1.6-.1V43l-1.2-4.2c0-.1 0-.2.1-.3l1.5-1.8c.1-.1.2-.1.3-.1.1 0 .2 0 .3.1l3.9 3.8c.5.5.8 1.2.8 1.9v10.4l4.8-.4V41.9v-.1l-1.2-4.2c0-.2 0-.3.1-.4l1.8-1.2c.1-.1.3-.1.5 0l3.6 3.6v.1c.5.5.7 1.1.7 1.8v26.1c0 1.5-1.2 2.9-2.8 3h-.1c-.8.1-1.5-.2-2-.7l-3.8-3.8c-.1-.1-.1-.2-.1-.3 0-.1 0-.2.1-.3l1.2-1.1c.1-.1.1-.1.2-.1l1.5-.1v-6.7l-4.8.4v10.5c0 1.5-1.2 2.9-2.8 3 .3.1.2.1.1.1zm-1.3-1.3c.4.4 1 .6 1.5.6 1.2-.1 2.1-1.1 2.1-2.3V57.6c0-.2.1-.3.3-.4l5.5-.5c.1 0 .2 0 .3.1.1.1.1.2.1.3v7.4c0 .2-.1.3-.3.4l-1.8.1-.8.8 3.5 3.5c.4.3.9.5 1.4.5h.1c1.2-.1 2.1-1.1 2.1-2.3V41.4c0-.5-.2-1-.6-1.3V40l-3.4-3.4-1.4.9 1.1 4v11.1c0 .2-.1.3-.3.4l-5.5.5c-.1 0-.2 0-.3-.1-.1-.1-.1-.2-.1-.3V42.3c0-.5-.2-1-.6-1.4l-3.5-3.5-1.1 1.3 1.1 4.1v22.6c0 .2-.1.3-.3.4l-1.8.1-.8.8 3.5 3.5z"/><path class="st110" d="M169.1 65.2l-4.2-26c-.1-.6-.4-1.1-.9-1.3l-3.5-3.5-1.1 2.5.8.9-.9.1c-1.1.1-2 1-2.2 2l-3.5 22.3H151l-1.3 2.7 3.6 3.6.1.1c.4.4.9.6 1.5.5 1.1-.1 2-1 2.2-2.1l.6-3.8 6-.5-2.4 1.2 3.5 3.5c.4.5 1.1.8 1.9.7 1.5 0 2.7-1.5 2.4-2.9zm-10.6-6.1l2.3-15.9h.1l2.3 15.5-4.7.4z"/><path d="M154.9 69.5c-.6 0-1.1-.2-1.5-.5 0 0-.1 0-.1-.1l-3.8-3.8c-.1-.1-.1-.3-.1-.4l1.3-2.7c.1-.1.2-.2.3-.2h2.3l3.5-22c.2-1.2 1.2-2.2 2.5-2.3h.2l-.3-.4c-.1-.1-.1-.2-.1-.4l1.1-2.5c0-.1.1-.2.3-.2.1 0 .2 0 .3.1l3.4 3.5c.5.4.9.9 1 1.6l4.2 26c.1.8-.1 1.6-.6 2.3-.5.7-1.3 1.1-2.1 1.2-.8.1-1.6-.2-2.2-.8l-3.5-3.5c-.1-.1-.1-.2-.1-.3 0-.1.1-.2.2-.3l.6-.3-3.7.3-.5 3.5c-.2 1.3-1.2 2.3-2.5 2.4.1-.2 0-.2-.1-.2zm-1.1-1.1c.4.3.9.5 1.3.5.9-.1 1.7-.8 1.8-1.8l.6-3.8c0-.2.2-.3.3-.3l6-.5c.2 0 .3.1.4.3 0 .2 0 .3-.2.4l-2 .9 3.1 3.1c.4.4 1 .7 1.6.6.6-.1 1.2-.4 1.6-.9.4-.5.6-1.1.5-1.7l-4.2-26c-.1-.5-.3-.9-.7-1.1l-.1-.1-3-3.1-.8 1.8.6.8c.1.1.1.2.1.4-.1.1-.2.2-.3.2l-.9.1c-.9.1-1.7.8-1.8 1.7L154 62.2c0 .2-.2.3-.4.3h-2.3l-1.1 2.3 3.6 3.6zm4.7-9c-.1 0-.2 0-.3-.1-.1-.1-.1-.2-.1-.3l2.3-15.9c0-.2.2-.3.3-.3h.1c.2 0 .4.1.4.3l2.3 15.5c0 .1 0 .2-.1.3-.1.1-.2.1-.3.1l-4.6.4zm2.3-14l-1.9 13.3 3.9-.3-2-13z"/><path class="st110" d="M68.8 46l-3.7-3.7-1 2.5 1 1.7c-.3.4-.6 1-.6 1.6v.8c-1.1.4-2.5 1-2.5 1l-.6 1 3.8 3.8c.4.4 1.1.7 1.8.6 1.3-.1 2.4-1.3 2.4-2.6v-5c.1-.7-.2-1.3-.6-1.7z"/><path d="M66.8 55.7c-.7 0-1.3-.2-1.8-.7h-.1l-3.8-3.8c-.1-.1-.1-.3-.1-.4l.6-1c0-.1.1-.1.2-.2 0 0 1.3-.5 2.3-.9v-.6c0-.6.2-1.1.5-1.6l-.8-1.5c-.1-.1-.1-.2 0-.3l1-2.5c0-.1.1-.2.3-.2.1 0 .2 0 .3.1l3.7 3.7v.1c.5.5.7 1.1.7 1.8v5c0 1.5-1.2 2.9-2.8 3h-.2zm-1.3-1.3c.4.4 1 .6 1.5.5 1.2-.1 2.1-1.1 2.1-2.3v-5c0-.5-.2-1-.5-1.3v-.1l-3.3-3.3-.7 1.8.9 1.5c.1.1.1.3 0 .4-.3.4-.5.9-.5 1.4v.8c0 .1-.1.3-.2.3-.9.4-2 .8-2.4 1l-.4.7 3.5 3.6z"/><path class="st111" d="M2.8 47.4c1.3-.1 2.4.9 2.4 2.2v24.1l5.8-.5c1.2-.1 2.2.8 2.2 2s-1 2.3-2.2 2.4l-8.2.7c-1.3.1-2.4-.9-2.4-2.2V50c0-1.3 1-2.5 2.4-2.6z"/><path d="M2.6 78.7c-.7 0-1.3-.2-1.8-.7-.5-.5-.8-1.1-.8-1.9V50c0-1.5 1.2-2.9 2.8-3 .8-.1 1.5.2 2 .7.5.5.8 1.2.8 1.9v23.7l5.4-.5c.7-.1 1.3.2 1.8.6.5.5.8 1.1.8 1.8 0 1.4-1.1 2.6-2.5 2.8l-8.2.7h-.3zm.2-31C1.6 47.8.7 48.8.7 50v26.1c0 .5.2 1 .6 1.4.4.4.9.5 1.5.5l8.2-.7c1-.1 1.9-1 1.9-2 0-.5-.2-.9-.5-1.2-.3-.3-.8-.5-1.3-.4l-5.8.5c-.1 0-.2 0-.3-.1-.1-.1-.1-.2-.1-.3V49.6c0-.5-.2-1-.6-1.4-.4-.3-.9-.5-1.5-.5z"/><path class="st111" d="M24.7 58.5l4.5-.4c1.2-.1 2.2.8 2.2 2s-1 2.3-2.2 2.4l-4.5.5v9l6.2-.5c1.2-.1 2.2.8 2.2 2s-1 2.3-2.2 2.4l-8.9.8c-1.2.1-2.2-.8-2.2-2V48.1c0-1.2 1-2.3 2.2-2.4l8.8-.8c1.2-.1 2.2.8 2.2 2s-1 2.3-2.2 2.4l-6.2.5v8.7z"/><path d="M21.8 77.1c-.6 0-1.2-.2-1.6-.6-.5-.5-.8-1.1-.8-1.8V48.1c0-1.4 1.1-2.6 2.5-2.8l8.8-.8c.7-.1 1.3.2 1.8.6.5.5.8 1.1.8 1.8 0 1.4-1.1 2.6-2.5 2.8l-5.8.5v7.9l4.1-.4c.7-.1 1.3.2 1.8.6.5.5.8 1.1.8 1.8 0 1.4-1.1 2.6-2.5 2.8l-4.2.4v8.3l5.8-.5c.7-.1 1.3.2 1.8.6.5.5.8 1.1.8 1.8 0 1.4-1.1 2.6-2.5 2.8L22 77c0 .1-.1.1-.2.1zM31 45.3h-.2l-8.8.8c-1 .1-1.9 1-1.9 2v26.5c0 .5.2.9.5 1.2.3.3.8.5 1.3.4l8.8-.8c1-.1 1.9-1 1.9-2 0-.5-.2-.9-.5-1.2-.3-.3-.8-.5-1.3-.4l-6.2.5c-.1 0-.2 0-.3-.1-.1-.1-.1-.2-.1-.3V63c0-.2.1-.3.3-.4l4.5-.4c1-.1 1.9-1 1.9-2 0-.5-.2-.9-.5-1.2-.3-.3-.8-.5-1.3-.4l-4.5.4c-.1 0-.2 0-.3-.1-.1-.1-.1-.2-.1-.3V50c0-.2.1-.3.3-.4l6.2-.5c1-.1 1.9-1 1.9-2 0-.5-.2-.9-.5-1.2-.2-.4-.6-.6-1.1-.6z"/><path class="st111" d="M41.3 44.1l10.6-.9c1.2-.1 2.2.8 2.2 2s-1 2.3-2.2 2.4l-2.9.2v24.1c0 1.3-1.1 2.5-2.4 2.6-1.3.1-2.4-.9-2.4-2.2V48.2l-2.9.2c-1.2.1-2.2-.8-2.2-2s1-2.2 2.2-2.3z"/><path d="M46.4 74.9c-.7 0-1.3-.2-1.8-.7-.5-.5-.8-1.2-.8-1.9V48.6l-2.5.2c-.7.1-1.3-.2-1.8-.6-.5-.5-.8-1.1-.8-1.8 0-1.4 1.1-2.6 2.5-2.8l10.6-.9c.7-.1 1.3.2 1.8.6.5.5.8 1.1.8 1.8 0 1.4-1.1 2.6-2.5 2.8l-2.5.2v23.8c0 1.5-1.2 2.9-2.8 3h-.2zm-2.2-27c.1 0 .2 0 .2.1.1.1.1.2.1.3v24.1c0 .5.2 1 .6 1.4.4.4.9.5 1.4.5 1.2-.1 2.1-1.1 2.1-2.3V47.8c0-.2.1-.3.3-.4l2.9-.2c1-.1 1.9-1 1.9-2 0-.5-.2-.9-.5-1.2-.3-.3-.8-.5-1.3-.4l-10.6.9c-1 .1-1.9 1-1.9 2 0 .5.2.9.5 1.2.3.3.8.5 1.3.4l3-.2c-.1 0 0 0 0 0z"/><path class="st111" d="M79.7 40.4c4.7-.4 7.2 2.2 7.2 7.2v.1c0 1.3-1 2.4-2.3 2.5-1.3.1-2.3-.8-2.3-2.1v-.4c0-2.2-.9-3-2.4-2.8-1.5.1-2.4 1-2.4 3.3s1 3.9 4.2 6.4c4.1 3.2 5.4 5.7 5.4 9.2 0 5-2.5 8-7.3 8.4-4.8.4-7.3-2.2-7.3-7.2v-.6c0-1.3 1-2.4 2.3-2.5 1.3-.1 2.3.8 2.3 2.1v.9c0 2.2 1 2.9 2.5 2.8 1.5-.1 2.5-1 2.5-3.2 0-2.3-1-3.9-4.2-6.4-4.1-3.2-5.4-5.7-5.4-9.2 0-5 2.4-8.1 7.2-8.5z"/><path d="M78.7 72.5c-1.9 0-3.4-.5-4.5-1.6-1.4-1.3-2.1-3.3-2.1-6v-.6c0-1.5 1.2-2.7 2.6-2.9.7-.1 1.4.2 1.9.6.5.5.8 1.1.8 1.8v.9c0 1 .2 1.7.6 2.1.3.3.8.4 1.5.4 1.5-.1 2.2-1 2.2-2.9 0-2.2-1-3.7-4-6.1-4-3.2-5.5-5.8-5.5-9.5 0-5.2 2.7-8.3 7.5-8.8 2.3-.2 4.2.3 5.4 1.5 1.4 1.3 2.1 3.3 2.1 6v.1c0 1.5-1.2 2.7-2.6 2.9-.7.1-1.4-.2-1.9-.6-.5-.5-.8-1.1-.8-1.8v-.4c0-1-.2-1.8-.6-2.1-.3-.3-.8-.4-1.4-.4-1 .1-2.1.5-2.1 2.9 0 2.2 1 3.7 4 6.1 4 3.2 5.5 5.8 5.5 9.5 0 5.2-2.7 8.3-7.6 8.8-.4.1-.7.1-1 .1zm-3.8-10.3h-.2c-1.1.1-2 1.1-2 2.1v.6c0 2.5.6 4.3 1.9 5.5 1.2 1.1 2.8 1.5 5 1.3 4.5-.4 6.9-3.2 6.9-8.1 0-3.5-1.4-5.9-5.2-8.9-3.2-2.5-4.3-4.2-4.3-6.6 0-2.3.9-3.5 2.8-3.6.8-.1 1.5.1 2 .5.6.5.8 1.4.8 2.7v.4c0 .5.2 1 .6 1.3.4.3.8.5 1.4.4 1.1-.1 2-1.1 2-2.1v-.1c0-2.5-.6-4.4-1.9-5.5-1.1-1-2.8-1.5-4.9-1.3-4.5.4-6.8 3.2-6.8 8 0 3.5 1.4 5.9 5.2 8.9 3.2 2.5 4.3 4.2 4.3 6.6 0 2.2-1 3.4-2.9 3.6-.9.1-1.6-.1-2.1-.6-.6-.5-.9-1.4-.9-2.6v-.9c0-.5-.2-1-.6-1.3-.3-.2-.7-.3-1.1-.3z"/><g><path class="st111" d="M117.2 56.9c1.3-.1 2.3.8 2.3 2.1v1.8c0 5-2.5 8-7.3 8.4-4.8.4-7.3-2.2-7.3-7.2V46c0-5 2.5-8 7.3-8.4 4.8-.4 7.3 2.2 7.3 7.2v.7c0 1.3-1 2.4-2.3 2.5-1.3.1-2.3-.8-2.3-2.1v-1c0-2.2-1-3-2.5-2.8-1.5.1-2.5 1.1-2.5 3.3V62c0 2.2 1 2.9 2.5 2.8 1.5-.1 2.5-1 2.5-3.2v-2.1c0-1.3 1-2.4 2.3-2.6z"/><path d="M111.3 69.7c-1.9 0-3.4-.5-4.5-1.6-1.4-1.3-2.1-3.3-2.1-6V46c0-5.2 2.7-8.3 7.6-8.8 2.4-.2 4.2.3 5.5 1.5 1.4 1.3 2.1 3.3 2.1 6v.7c0 1.5-1.2 2.7-2.6 2.9-.7.1-1.4-.2-1.9-.6-.5-.5-.8-1.1-.8-1.8v-1c0-1-.2-1.7-.6-2.1-.3-.3-.8-.4-1.5-.4-.9.1-2.2.5-2.2 2.9V62c0 1 .2 1.7.6 2.1.3.3.8.4 1.5.4 1.5-.1 2.2-1 2.2-2.9v-2.1c0-1.5 1.2-2.7 2.6-2.9.7-.1 1.4.2 1.9.6.5.5.8 1.1.8 1.8v1.8c0 5.2-2.7 8.3-7.6 8.8-.4.1-.7.1-1 .1zm1.9-31.8h-.9c-4.5.4-6.9 3.2-6.9 8.1v16.1c0 2.5.6 4.3 1.9 5.5 1.2 1.1 2.8 1.5 5 1.3 4.5-.4 6.9-3.2 6.9-8.1V59c0-.5-.2-1-.6-1.3-.4-.3-.8-.5-1.4-.4-1.1.1-2 1.1-2 2.1v2.1c0 2.2-1 3.4-2.9 3.6-.9.1-1.6-.1-2.1-.6-.6-.5-.9-1.4-.9-2.6V45.3c0-2.2 1-3.5 2.9-3.6.9-.1 1.6.1 2 .6.6.5.9 1.4.9 2.6v1c0 .5.2 1 .6 1.3.4.3.8.5 1.4.4 1.1-.1 2-1.1 2-2.1v-.7c0-2.5-.6-4.3-1.9-5.5-1-.9-2.3-1.4-4-1.4z"/></g><g><path class="st111" d="M129.3 67.5c-1.3.1-2.4-.9-2.4-2.2V39.1c0-1.3 1.1-2.5 2.4-2.6 1.3-.1 2.4.9 2.4 2.2v10.8l5.5-.5V38.2c0-1.3 1.1-2.5 2.4-2.6h.1c1.3-.1 2.4.9 2.4 2.2v26.1c0 1.3-1.1 2.5-2.4 2.6h-.1c-1.3.1-2.4-.9-2.4-2.2V53.5l-5.5.5v10.8c0 1.4-1.1 2.5-2.4 2.7z"/><path d="M129.1 67.8c-.7 0-1.3-.2-1.8-.7-.5-.5-.8-1.2-.8-1.9V39.1c0-1.5 1.2-2.9 2.8-3 .8-.1 1.5.2 2 .7.5.5.8 1.2.8 1.9v10.4l4.8-.4V38.2c0-1.5 1.2-2.9 2.8-3h.1c.8-.1 1.5.2 2 .7.5.5.8 1.2.8 1.9v26.1c0 1.5-1.2 2.9-2.8 3h-.1c-.8.1-1.5-.2-2-.7-.5-.5-.8-1.2-.8-1.9V53.9l-4.8.4v10.5c0 1.5-1.2 2.9-2.8 3h-.2zm.4-31h-.2c-1.2.1-2.1 1.1-2.1 2.3v26.1c0 .5.2 1 .6 1.4.4.4.9.5 1.4.5 1.2-.1 2.1-1.1 2.1-2.3V54c0-.2.1-.3.3-.4l5.5-.5c.1 0 .2 0 .3.1s.1.2.1.3v10.8c0 .5.2 1 .6 1.4.4.4.9.5 1.4.5h.1c1.2-.1 2.1-1.1 2.1-2.3V37.8c0-.5-.2-1-.6-1.4-.4-.4-.9-.5-1.4-.5h-.1c-1.2.1-2.1 1.1-2.1 2.3V49c0 .2-.1.3-.3.4l-5.5.5c-.1 0-.2 0-.3-.1-.1-.1-.1-.2-.1-.3V38.7c0-.5-.2-1-.6-1.4-.3-.3-.7-.5-1.2-.5z"/></g><g><path class="st111" d="M163.1 64.5c-1.2.1-2.2-.7-2.4-1.9l-.5-3.5-6 .5-.6 3.8c-.2 1.1-1.1 2-2.2 2.1-1.4.1-2.4-1-2.2-2.4l4.3-26.9c.2-1.1 1.1-1.9 2.2-2l3.4-.3c1.1-.1 2 .6 2.2 1.7l4.2 26c.2 1.4-.9 2.8-2.4 2.9zm-8.3-9.1l4.7-.4-2.3-15.5h-.1l-2.3 15.9z"/><path d="M151.3 65.9c-.7 0-1.3-.3-1.7-.7-.5-.5-.7-1.3-.6-2l4.3-26.9c.2-1.2 1.2-2.2 2.5-2.3l3.4-.3c1.3-.1 2.4.7 2.6 2l4.2 26c.1.8-.1 1.6-.6 2.3-.5.7-1.3 1.1-2.1 1.2-1.4.1-2.6-.8-2.8-2.2l-.5-3.2-5.4.5-.5 3.5c-.2 1.3-1.2 2.3-2.5 2.4-.2-.3-.2-.3-.3-.3zm8-31.6h-.2l-3.4.3c-.9.1-1.7.8-1.8 1.7l-4.3 26.9c-.1.5.1 1.1.4 1.4.3.4.8.6 1.4.5.9-.1 1.7-.8 1.8-1.8l.6-3.8c0-.2.2-.3.3-.3l6-.5c.2 0 .4.1.4.3l.5 3.5c.1 1 1 1.6 2 1.5.6-.1 1.2-.4 1.6-.9.4-.5.6-1.1.5-1.7l-4.2-26c-.1-.6-.8-1.1-1.6-1.1zm-4.5 21.5c-.1 0-.2 0-.3-.1-.1-.1-.1-.2-.1-.3l2.3-15.9c0-.2.2-.3.3-.3h.1c.2 0 .4.1.4.3l2.3 15.5c0 .1 0 .2-.1.3-.1.1-.2.1-.3.1l-4.6.4zm2.4-14.1l-2 13.3 3.9-.3-1.9-13z"/></g><g><path class="st111" d="M63.4 51.7c-1.4.1-2.4-.9-2.4-2.3v-5c0-1.3 1.1-2.5 2.4-2.6 1.3-.1 2.4.9 2.4 2.2v5c0 1.4-1.1 2.5-2.4 2.7z"/><path d="M63.2 52c-.7 0-1.3-.2-1.8-.7-.5-.5-.8-1.2-.8-1.9v-5c0-1.5 1.2-2.9 2.8-3 .8-.1 1.5.2 2 .7.5.5.8 1.2.8 1.9v5c0 1.5-1.2 2.9-2.8 3h-.2zm.4-9.9h-.2c-1.2.1-2.1 1.1-2.1 2.3v5c0 .5.2 1 .6 1.4.4.4.9.5 1.4.5 1.2-.1 2.1-1.1 2.1-2.3v-5c0-.5-.2-1-.6-1.4-.3-.3-.7-.5-1.2-.5z"/></g><g><path class="st110" d="M187.4 36l-3.4-3.4-3.9 2.3 1.1 1.2-5.8.5c-.3 0-.6.1-.8.2l-2.1-.9-.9-.3-1.5 1.1 3.7 3.7c.4.4 1 .6 1.6.6l2.9-.2v21.9l-1.9-1.3-1.1 1.4 3.6 3.6c.4.5 1.1.8 1.8.7 1.3-.1 2.4-1.3 2.4-2.6V40.2l2.9-.2c1.2-.1 2.2-1.2 2.2-2.4 0-.7-.3-1.2-.8-1.6z"/><path d="M180.5 67.3c-.7 0-1.4-.3-1.8-.8h-.1L175 63c-.1-.1-.1-.3 0-.5l1.1-1.4c.1-.1.3-.2.5-.1l1.3.9V41l-2.5.2c-.7.1-1.4-.2-1.9-.6h-.1l-3.7-3.7c-.1-.1-.1-.2-.1-.3 0-.1.1-.2.1-.3l1.5-1.1c.1-.1.2-.1.3 0l.9.3 2 .8c.3-.1.5-.2.8-.2l5.1-.4-.6-.6c-.1-.1-.1-.2-.1-.3 0-.1.1-.2.2-.3l3.9-2.3c.1-.1.3-.1.4.1l3.4 3.4c.5.5.8 1.1.8 1.8 0 1.4-1.1 2.6-2.5 2.8l-2.5.2v23.8c0 1.5-1.2 2.9-2.8 3 .1 0 .1 0 0 0zM179 66c.1 0 .1 0 0 0 .5.5 1 .7 1.6.6 1.2-.1 2.1-1.1 2.1-2.3V40.2c0-.2.1-.3.3-.4l2.9-.2c1-.1 1.9-1 1.9-2 0-.5-.2-1-.6-1.3l-.1-.1L184 33l-3.3 1.9.8.8c.1.1.1.2.1.4 0 .1-.2.2-.3.2l-5.8.5c-.2 0-.5.1-.7.2h-.3l-2.1-.9-.7-.2-1 .8L174 40h.1c.4.4.8.5 1.3.5l2.9-.2c.1 0 .2 0 .3.1.1.1.1.2.1.3v21.9c0 .1-.1.3-.2.3-.1.1-.3.1-.4 0l-1.6-1.1-.7.9L179 66z"/></g><g><path class="st111" d="M171.7 32.8l10.6-.9c1.2-.1 2.2.8 2.2 2s-1 2.3-2.2 2.4l-2.9.2v24.1c0 1.3-1.1 2.5-2.4 2.6-1.3.1-2.4-.9-2.4-2.2V37l-2.9.2c-1.2.1-2.2-.8-2.2-2s1-2.3 2.2-2.4z"/><path d="M176.8 63.7c-.7 0-1.3-.2-1.8-.7-.5-.5-.8-1.2-.8-1.9V37.4l-2.5.2c-.7.1-1.3-.2-1.8-.6-.5-.5-.8-1.1-.8-1.8 0-1.4 1.1-2.6 2.5-2.8l10.6-.9c.7-.1 1.3.2 1.8.6.5.5.8 1.1.8 1.8 0 1.4-1.1 2.6-2.5 2.8l-2.5.2v23.8c0 1.5-1.2 2.9-2.8 3h-.2zm-2.2-27.1c.1 0 .2 0 .2.1.1.1.1.2.1.3v24.1c0 .5.2 1 .6 1.4.4.4.9.5 1.4.5 1.2-.1 2.1-1.1 2.1-2.3V36.6c0-.2.1-.3.3-.4l2.9-.2c1-.1 1.9-1 1.9-2 0-.5-.2-.9-.5-1.2-.3-.3-.8-.5-1.3-.4l-10.6.9c-1 .1-1.9 1-1.9 2 0 .5.2.9.5 1.2.3.3.8.5 1.3.4l3-.3z"/></g><g><path class="st0" d="M24.7 63l3.6 3.6"/><path transform="rotate(-45.009 26.467 64.781)" d="M26.1 62.2h.7v5.1h-.7z"/></g><g><path class="st0" d="M28.3 53.6l-3.6-3.7"/><path transform="rotate(-45.001 26.47 51.733)" d="M26.1 49.2h.7v5.1h-.7z"/></g><g><path class="st0" d="M49 47.8l3.7 3.7"/><path transform="rotate(-45.001 50.85 49.635)" d="M50.5 47.1h.7v5.1h-.7z"/></g><g><path class="st0" d="M131.7 54l3.7 3.6"/><path transform="rotate(-45.009 133.54 55.79)" d="M133.2 53.2h.7v5.1h-.7z"/></g><g><path class="st0" d="M154.2 59.7l3.6 3.6"/><path transform="rotate(-45.001 156.026 61.51)" d="M155.7 58.9h.7V64h-.7z"/></g><g><path class="st0" d="M179.5 36.6l3.6 3.6"/><path transform="rotate(-45.001 181.292 38.41)" d="M180.9 35.8h.7v5.1h-.7z"/></g><g><path class="st0" d="M11 77.6l3.9 3.6"/><path transform="rotate(-46.976 12.955 79.432)" d="M12.6 76.8h.7v5.3h-.7z"/></g><g><path class="st0" d="M30.8 75.9l3.9 3.6"/><path transform="rotate(-47.18 32.79 77.727)" d="M32.4 75.1h.7v5.3h-.7z"/></g><g><path class="st0" d="M49 71.9l3.7 3.7"/><path transform="rotate(-44.992 50.854 73.75)" d="M50.5 71.2h.7v5.1h-.7z"/></g><g><path class="st0" d="M65.8 49l3.7 3.7"/><path transform="rotate(-45.001 67.638 50.834)" d="M67.3 48.3h.7v5.1h-.7z"/></g><g><path class="st0" d="M117.8 66.6l3.9 3.3"/><path transform="rotate(-49.413 119.747 68.223)" d="M119.4 65.7h.7v5.1h-.7z"/></g><g><path class="st0" d="M131.7 64.8l3.7 3.6"/><path transform="rotate(-45.009 133.54 66.63)" d="M133.2 64.1h.7v5.1h-.7z"/></g><g><path class="st0" d="M142.2 63.9l3.7 3.6"/><path transform="rotate(-45.001 144.033 65.727)" d="M143.7 63.2h.7v5.1h-.7z"/></g><g><path class="st0" d="M165.5 61.5l3.6 3.7"/><path transform="rotate(-44.992 167.313 63.362)" d="M166.9 60.8h.7v5.1h-.7z"/></g><g><path class="st0" d="M153.6 63.5l3.7 3.6"/><path transform="rotate(-45.001 155.466 65.305)" d="M155.1 62.7h.7v5.1h-.7z"/></g><g><path class="st0" d="M179.5 60.7l3.6 3.6"/><path transform="rotate(-45.001 181.292 62.521)" d="M180.9 59.9h.7V65h-.7z"/></g><g><path class="st0" d="M85.2 69.3l3.5 3.7"/><path d="M88.5 73.2l-3.6-3.6.5-.5 3.6 3.6z"/></g><g><path d="M99.3 108c-.2 0-.3-.1-.4-.3l-1.6-19.8c0-.2.1-.4.3-.4.2 0 .4.1.4.3l1.6 19.8c.1.2-.1.4-.3.4zM97.4 85.1c-.2 0-.3-.1-.4-.3L96 72c0-.2.1-.4.3-.4.2 0 .4.1.4.3l1 12.8c.1.2 0 .4-.3.4.1 0 0 0 0 0zM94 41.8c-.2 0-.3-.1-.4-.3L92 21.8c0-.2.1-.4.3-.4.2 0 .4.1.4.3l1.6 19.7c0 .2-.1.4-.3.4zM92.2 20.1c-.2 0-.3-.1-.4-.3L90.5 3.2c0-.2.1-.4.3-.4.2 0 .4.1.4.3l1.3 16.6c.1.2-.1.4-.3.4zM113.4 95.3c-.1 0-.3-.1-.3-.2l-10.6-22.8c-.1-.2 0-.4.2-.5.2-.1.4 0 .5.2l10.6 22.8c.1.2 0 .4-.2.5h-.2zM87.2 38.7c-.1 0-.3-.1-.3-.2L76.6 16.4c-.1-.2 0-.4.2-.5.2-.1.4 0 .5.2l10.2 22.1c.1.2 0 .4-.2.5h-.1zM86.2 97.3s-.1 0 0 0c-.3 0-.4-.2-.4-.4l3.7-17.4c0-.2.2-.3.4-.3s.3.2.3.4L86.5 97c0 .2-.1.3-.3.3zM97.5 44.1c-.3 0-.4-.2-.4-.4l6.5-30.4c0-.2.2-.3.4-.3s.3.2.3.4l-6.5 30.4c0 .2-.1.3-.3.3zM61.2 90.9c-.1 0-.2 0-.3-.1-.1-.1-.1-.4 0-.5l13.3-13.8c.1-.1.4-.1.5 0 .1.1.1.4 0 .5L61.5 90.8c-.1 0-.2.1-.3.1zM114.7 35.3c-.1 0-.2 0-.3-.1-.1-.1-.1-.4 0-.5L129.6 19c.1-.1.4-.1.5 0 .1.1.1.4 0 .5L115 35.2c-.1 0-.2.1-.3.1zM137.7 84.2c-.1 0-.1 0-.2-.1l-15.4-10.3c-.2-.1-.2-.3-.1-.5s.3-.2.5-.1l15.4 10.3c.2.1.2.3.1.5s-.2.2-.3.2zM71.3 39.7c-.1 0-.1 0-.2-.1l-7.3-4.9c-.2-.1-.2-.3-.1-.5s.3-.2.5-.1l7.3 4.9c.2.1.2.3.1.5s-.2.2-.3.2zM62.5 33.9c-.1 0-.1 0-.2-.1l-8.7-5.9c-.2-.1-.2-.3-.1-.5s.3-.2.5-.1l8.7 5.9c.2.1.2.3.1.5 0 .1-.1.2-.3.2zM64.4 109.4h-.2c-.2-.1-.2-.3-.1-.5l7.6-13.3c.1-.2.3-.2.5-.1s.2.3.1.5l-7.6 13.3c-.1 0-.2.1-.3.1zM73.6 93.2h-.2c-.2-.1-.2-.3-.1-.5l7.4-12.9c.1-.2.3-.2.5-.1s.2.3.1.5L73.9 93c0 .1-.1.2-.3.2zM105.2 37.9h-.2c-.2-.1-.2-.3-.1-.5l8.5-14.9c.1-.2.3-.2.5-.1s.2.3.1.5l-8.5 14.9c0 .1-.1.1-.3.1zM114.9 20.9h-.2c-.2-.1-.2-.3-.1-.5L126.2.2c.1-.2.3-.2.5-.1s.2.3.1.5l-11.6 20.2c0 .1-.1.1-.3.1zM135.5 100.3c-.1 0-.2 0-.3-.1l-9.7-10.7c-.1-.1-.1-.4 0-.5.1-.1.4-.1.5 0l9.7 10.7c.1.1.1.4 0 .5 0 .1-.1.1-.2.1zM124.5 88.1c-.1 0-.2 0-.3-.1l-10.1-11.1c-.1-.1-.1-.4 0-.5.1-.1.4-.1.5 0l10.1 11.1c.1.1.1.4 0 .5 0 .1-.1.1-.2.1zM79 37.9c-.1 0-.2 0-.3-.1l-11-12.1c-.1-.1-.1-.4 0-.5.1-.1.4-.1.5 0l11 12.1c.1.1.1.4 0 .5-.1.1-.1.1-.2.1zM66.8 24.5c-.1 0-.2 0-.3-.1l-11-12.1c-.1-.1-.1-.4 0-.5.1-.1.4-.1.5 0l11 12.1c.1.1.1.4 0 .5 0 .1-.1.1-.2.1zM169.3 87.1h-.1l-13.3-5.6c-.2-.1-.3-.3-.2-.5.1-.2.3-.3.5-.2l13.3 5.6c.2.1.3.3.2.5-.1.1-.3.2-.4.2zM153.3 80.3h-.1L137 73.5c-.2-.1-.3-.3-.2-.5.1-.2.3-.3.5-.2l16.1 6.8c.2.1.3.3.2.5-.1.1-.2.2-.3.2zM58.5 40.2h-.1L30.7 28.5c-.2-.1-.3-.3-.2-.5.1-.2.3-.3.5-.2l27.6 11.7c.2.1.3.3.2.5-.1.1-.2.2-.3.2zM31.4 96.3c-.1 0-.2-.1-.3-.2-.1-.2-.1-.4.1-.5l12.4-7.9c.2-.1.4-.1.5.1.1.2.1.4-.1.5l-12.4 7.9c0 .1-.1.1-.2.1zM46.4 86.7c-.1 0-.2-.1-.3-.2-.1-.2-.1-.4.1-.5l20.1-12.8c.2-.1.4-.1.5.1.1.2.1.4-.1.5L46.6 86.7h-.2zM125.4 36.4c-.1 0-.2-.1-.3-.2-.1-.2-.1-.4.1-.5l36.6-23.3c.2-.1.4-.1.5.1.1.2.1.4-.1.5l-36.6 23.3c-.1 0-.2.1-.2.1z"/></g></g></svg>