<svg xmlns="http://www.w3.org/2000/svg" viewBox="0 0 187.1 153.4"><style>.st182{fill:#382d63}.st183{fill:#ea1818}.st184{fill:#fd0}</style><g id="Layer_1"><path class="st182" d="M150.1 69.2l-7.1-5.4 11.9-37.7 11.8-9.9 18.9-2.1L173 29.7l-9.7 2.3-1.1 9.4 2.1-7.6 18.9-2.5L170.6 47l-9.2 2.2-1.1 9.4 2.6-7.7 18.8-1.8L169 64.8l-18.9 4.4z"/><path class="st182" d="M150.1 69.8v-.5l.4-.4-.4.4v.5l-.4-.1-7.1-5.4c-.1-.1-.2-.3-.1-.5l12-37.8.2-.3 11.8-9.9.3-.1 18.9-2.1c.2 0 .4.1.4.2.1.2 0 .4-.1.6L173.3 30l-.4.2-9.3 2.2-.4 3.2.5-1.8c.1-.3.3-.5.5-.5l18.9-2.5c.2 0 .4.1.4.2.1.2 0 .4-.1.6L171 47.3l-.4.2-8.8 2.1-.5 4.6 1.1-3.4c.1-.2.3-.4.5-.5l18.8-1.8c.2 0 .4.1.4.2.1.2 0 .4-.1.6L169.4 65l-.4.2-18.9 4.6zm18.8-5.5l11.8-14.6-17.4 1.7-2.5 7.3c-.1.3-.3.5-.6.5-.2 0-.4-.2-.4-.5l1.1-9.4c0-.3.2-.5.5-.6l9-2.1L182.2 32l-17.4 2.3-2 7.2c-.1.3-.3.5-.6.5s-.4-.2-.4-.5l1.1-9.4c0-.3.2-.5.5-.6l9.5-2.2 11.8-14.6-17.7 2-11.5 9.7-11.8 37.2 6.7 5.1 18.5-4.4z"/><path class="st182" d="M143 63.8l4.8-43.2 19-4.5-.9 8.1-9.7 2.3-1.1 9.4 9.2-2.2-.9 7.7-9.2 2.2-1.1 9.4 9.7-2.3-.9 8.4-18.9 4.7z"/><path class="st182" d="M143 64.3v-.5l.5-.1-.5.1v.5c-.1 0-.3 0-.4-.1-.1-.1-.1-.2-.1-.4l4.8-43.2c0-.3.2-.5.5-.6l19-4.5c.1 0 .3 0 .4.1.1.1.1.2.1.4l-.9 8.1c0 .3-.2.5-.5.6l-9.3 2.2-.9 8.4 8.7-2.1c.1 0 .3 0 .4.1.1.1.1.2.1.4l-.9 7.7c0 .3-.2.5-.5.6l-8.8 2.1-.9 8.4 9.1-2.2c.1 0 .3 0 .4.1.1.1.1.2.1.4l-.9 8.4c0 .3-.2.5-.5.6l-19 4.5zm18.5-5.4l.8-7.4-9.1 2.2c-.1 0-.3 0-.4-.1-.1-.1-.1-.2-.1-.4l1.1-9.4c0-.3.2-.5.5-.6l8.8-2.1.7-6.7-8.7 2c-.1 0-.3 0-.4-.1-.1-.1-.1-.2-.1-.4l1.1-9.4c0-.3.2-.5.5-.6l9.3-2.2.8-7.1-17.9 4.2-4.7 42.1 17.8-4z"/><path class="st182" d="M144.7 70.8l-9.9 2.3-7.1-5.4 2.4-6.4 10.2-2.1-12.7 15.7-9 2.1-7.1-5.4 11.9-37.7c.6-.1 1.3-.4 2.3-.7 1-.3 1.9-.7 3-1 1-.4 2-.7 3-1 1-.3 1.8-.6 2.5-.7 1.3-.3 2.8-.6 4.3-.8 1.5-.2-3.5-5.3-2.2-4.8 2.1.6 10.1 7.3 11 9.6.9 2.3 10.7-1.5 10.1 3.1 0 0-11.5 13.9-12.9 16.1-1.4 2.2 13 1.7 13 1.7l-12.8 15.4z"/><path class="st182" d="M134.8 73.6l-.4-.1-3.2-2.5-3.2 4-.4.2-9 2.1-.4-.1-7.1-5.4c-.1-.1-.2-.3-.1-.5l12-37.6c.1-.2.3-.4.5-.5.6-.1 1.3-.4 2.2-.7 1-.3 1.9-.7 3-1 1-.4 2-.7 3-1 1-.3 1.8-.6 2.5-.7 1.3-.3 2.6-.5 4-.7-.2-.4-.7-1.2-1.2-1.9-.7-1-1.3-1.6-1.4-2.3 0-.1 0-.2.1-.4s.3-.3.4-.3h.4c2.4.8 10.1 7.3 11.2 9.9.1.7 2.5.7 5 .5 2.4-.1 5-.1 5.1 2.3v.5l-.2.3s-11.4 13.7-12.8 16c.1.1.2.1.3.2.3.1.8.3 1.4.4 1.2.2 2.8.3 4.4.4 3.2.1 6.5 0 6.5 0 .2 0 .3.1.4.3.1.2 0 .4-.1.5L145.1 71l-.4.2-9.9 2.4zm9.9-2.8v-.5.5zm-32.6.4l6.7 5.2 8.6-2 3.1-3.8-3.2-2.4c-.1-.1-.2-.3-.1-.5l2.4-6.4c.1-.2.3-.4.5-.4l10.2-2.1c.2 0 .4 0 .5.2.1.2 0 .4-.1.6L132 70.2l3.1 2.4 9.5-2.2 11.9-14.7c-2.1 0-7.2.1-10.2-.4-1.2-.3-2.2-.4-2.3-1.4 0-.2.1-.4.2-.6 1.4-2.2 11.6-14.4 12.8-16v-.2c.1-1.4-1.9-1.7-4.3-1.5-2.4 0-5 .6-5.8-1-.6-1.7-6.3-6.7-9.3-8.7.1.2.2.3.4.5.7 1 1.4 1.8 1.4 2.6 0 .1 0 .3-.2.6-.1.2-.4.3-.6.4h-.1c-1.5.2-2.9.5-4.2.8-.6.2-1.4.4-2.4.7-1 .3-2 .7-3 1-1 .4-2 .7-3 1-.8.3-1.4.5-2 .6l-11.8 37.1zm16.2-3.8l2.9 2.2 7.9-9.7-8.7 1.8-2.1 5.7z"/><path class="st182" d="M137.6 65.3l-9.9 2.3-4.7-11.8-1 .2-1.5 13.3-9 2.1 4.8-43.2c.6-.1 1.3-.4 2.3-.7 1-.3 1.9-.7 3-1 1-.4 2-.7 3-1 1-.3 1.8-.6 2.5-.7 1.3-.3 2.8-.6 4.3-.8 1.5-.2 2.9-.1 4.2.3 2.1.7 3.7 2.1 4.6 4.5.9 2.3 1 5.8.4 10.3-.7 3.7-1.8 6.7-3.2 8.9-1.4 2.2-3.1 3.9-5.1 5l5.3 12.3zM122.8 49c1.3.2 2.5.1 3.5-.4s1.9-1.2 2.7-2.1c.8-.9 1.4-2 1.8-3.3.4-1.3.7-2.6.9-3.9.1-.9.1-1.8 0-2.7-.1-.9-.3-1.6-.6-2.3-.3-.6-.8-1.1-1.4-1.4-.6-.3-1.4-.3-2.3-.1-1 .2-2 .6-3 1L122.8 49z"/><path class="st182" d="M127.7 68.2c-.2 0-.4 0-.5-.2l-4.6-11.5h-.2L121 69.3c0 .3-.2.5-.5.6l-9 2.1c-.1 0-.3 0-.4-.1-.1-.1-.1-.2-.1-.4l4.8-43.2c0-.3.2-.5.5-.6.6-.1 1.3-.4 2.2-.7 1-.3 1.9-.7 2.9-1 1-.4 2-.7 3-1 1-.3 1.8-.6 2.5-.7 1.4-.3 2.8-.6 4.3-.8 1.6-.2 3-.1 4.4.3 2.3.7 3.9 2.3 4.8 4.7.5 1.4.8 3.2.8 5.3 0 1.5-.1 3.3-.4 5.2-.7 3.8-1.8 6.8-3.3 9.1-1.4 2.1-3 3.7-4.9 5l5.2 11.9-.5.3v-.5.5l.5-.3c.1.1 0 .3 0 .5-.1.2-.3.3-.4.3l-9.7 2.4zM123 55.3c.2 0 .4 0 .5.2l4.6 11.5 8.8-2.1-5.2-11.7c-.1-.1 0-.3 0-.4.1-.1.2-.3.3-.3 1.9-1.1 3.5-2.7 4.9-4.8 1.4-2.1 2.4-5 3.1-8.6.3-1.9.4-3.6.4-5 0-2-.3-3.7-.8-5-.9-2.2-2.3-3.6-4.3-4.3-1.2-.4-2.6-.5-4-.3-1.5.2-2.9.5-4.2.8-.6.1-1.4.4-2.4.7-1 .3-2 .7-3 1-1 .4-2 .7-3 1-.7.2-1.4.4-1.9.6l-4.7 42.1 8-1.9 1.4-12.8c0-.3.2-.5.5-.6l1-.1zm-.4-5.8c-.2 0-.3-.2-.3-.5l1.7-15.2c0-.2.2-.4.4-.5 1-.4 2-.8 3.1-1 1-.2 1.9-.2 2.6.1.7.3 1.2.9 1.5 1.6.3.7.6 1.5.6 2.4v1.1c0 .5 0 1.1-.1 1.6-.2 1.4-.5 2.7-.9 4-.5 1.3-1.1 2.5-1.9 3.5-.8 1-1.8 1.8-2.9 2.3-.4.2-.7.3-1.1.4-.8.4-1.7.4-2.7.2zm2.7-1l.9-.3c.9-.5 1.8-1.1 2.5-2 .7-.9 1.3-1.9 1.7-3.1.4-1.2.7-2.5.9-3.8.1-.5.1-1 .1-1.5v-1.1c-.1-.8-.3-1.5-.5-2.1-.3-.6-.7-1-1.2-1.2-.5-.2-1.1-.3-2-.1-.9.2-1.7.5-2.5.8l-1.6 14.4c.5.1 1.1.1 1.7 0z"/><path class="st182" d="M97 74.3l7-2.5 2.5-5.3-12.6 15.7-9.8 2.3-7.1-5.4 19.4-39.5 7.6-8.9 7.1 5.4 15.3 25.7-12.7 15.7-9.5 2.3-7.2-5.5zm6.6-28.5l-1.4.3-4.4 19.5 6.2-1.5-.4-18.3z"/><path class="st182" d="M104.1 80.3l-.4-.1-4.7-3.6-4.8 5.9-.4.2-9.7 2.3-.4-.1-7.1-5.4c-.2-.1-.2-.4-.1-.6L96 39.3l7.6-8.9c.2-.2.5-.3.7-.2l7.2 5.5 15.3 25.7c.1.2.1.4-.1.6L114 77.8l-.4.2-9.5 2.3zm.3-1.1l9.1-2.2 12.3-15.1-15-25.3-6.8-5.2-7.1 8.3-19.3 39.1 6.7 5.1 9.4-2.2 4.6-5.7-1.6-1.3.4-.4.1.5-.2-.5-.4.4c-.1-.1-.2-.3-.1-.5s.2-.4.4-.4l4.4-1.6 4.9-6c.2-.2.5-.3.7-.2.2.1.3.4.1.6l-2.5 5.3c-.1.2-.2.3-.4.4l-2.3.8-2.1 2.6 4.7 3.5zM99 75.1l1.2-1.4-2.1.7.9.7zm4-3.4l.8-.3.8-1.6-1.6 1.9zm-5.3-5.5c-.2 0-.3 0-.4-.1-.1-.1-.1-.3-.1-.4l4.4-19.5c.1-.2.3-.4.5-.5l1.4-.3v.5l-.5.1.5-.1v-.5c.3-.1.5.1.5.4l.3 18.4c0 .1-.1.3-.1.4-.1.1-.2.2-.4.2l-6.1 1.4zm.7-1.2l5-1.2-.3-17.4-.5.1L98.4 65z"/><g><path class="st182" d="M97 66.4l-8.4 2-1.8 8.4-9.8 2.3 12.3-44.9 14.7-3.5 2.6 41.4-9.6 2.2v-7.9zm-.5-26l-1.5.3-4.4 19.5 6.2-1.5-.3-18.3z"/><path class="st182" d="M97 74.8c-.3.1-.5-.1-.5-.4V67L89 68.7l-1.7 8c-.1.2-.3.5-.5.5L77 79.6c-.2 0-.3 0-.4-.1-.1-.1-.1-.3-.1-.4l12.3-44.9c.1-.2.3-.4.5-.5l14.7-3.5c.3-.1.5.1.5.4l2.6 41.4c0 .1 0 .3-.1.4-.1.1-.2.2-.4.2L97 74.8zm.5-8.6l.1 7.5 8.5-2-2.6-40.4-13.8 3.3-12 43.8 8.7-2.1 1.7-8c.1-.2.3-.5.5-.5l8.4-2v.5l-.5.1.5-.1v-.5c.2 0 .5.2.5.4zm-6.9-5.5c-.2 0-.3 0-.4-.1-.1-.1-.1-.2-.1-.4l4.4-19.5c.1-.2.3-.4.5-.5l1.4-.3v.5l-.4.1.5-.1v-.5c.3-.1.5.1.5.4l.3 18.4c0 .1-.1.3-.1.4-.1.1-.2.2-.4.2l-6.2 1.4zm.6-1.1l5-1.2L96 41l-.5.1-4.3 18.5z"/></g><g><path class="st182" d="M49.3 92.7l-7.1-5.4 11.9-37.7L66 39.7l18.9-2.1-12.7 15.6-9.7 2.3-1.1 9.5 2.1-7.6 18.9-2.5-12.6 15.6-9.2 2.2-1.1 9.4 2.6-7.7 18.8-1.8-12.6 15.7-19 4.4z"/><path class="st182" d="M49.3 93.2v-.5l.4-.4-.4.4v.5H49l-7.1-5.4c-.1-.1-.2-.3-.1-.5l11.9-37.7.2-.3 11.8-9.9.3-.1 18.9-2.1c.2 0 .4.1.4.2.1.2 0 .4-.1.6L72.5 53.5l-.4.2-9.3 2.2-.4 3.2.5-1.8c.1-.3.3-.5.5-.5l18.9-2.5c.2 0 .4.1.4.2.1.2 0 .4-.1.6L70.2 70.8l-.4.2-8.8 2.1-.5 4.6 1.1-3.4c.1-.2.3-.4.5-.5L81 72.1c.2 0 .4.1.4.2.1.2 0 .4-.1.6L68.6 88.5l-.4.2-18.9 4.5zm18.8-5.4l11.8-14.6-17.4 1.7-2.5 7.3c-.1.3-.3.5-.6.5-.2 0-.4-.2-.4-.5l1.1-9.4c0-.3.2-.5.5-.6l9-2.1 11.8-14.5L64 57.9l-2 7.2c-.1.3-.3.5-.6.5s-.4-.2-.4-.5l1.1-9.4c0-.3.2-.5.5-.6l9.5-2.2 11.8-14.6-17.7 2L54.7 50 42.8 87l6.7 5.1 18.6-4.3z"/><g><path class="st182" d="M42.2 87.3L47 44.1l19-4.5-.9 8.1-9.7 2.3-1.1 9.4 9.2-2.2-.9 7.7-9.2 2.2-1.1 9.4 9.7-2.3-.9 8.4-18.9 4.7z"/><path class="st182" d="M42.2 87.8v-.5l.5-.1-.5.1v.5c-.1 0-.3 0-.4-.1-.1-.1-.1-.2-.1-.4l4.8-43.2c0-.3.2-.5.5-.6L66 39c.1 0 .3 0 .4.1.1.1.1.2.1.4l-.9 8.1c0 .3-.2.5-.5.6l-9.3 2.2-.9 8.4 8.7-2.1c.1 0 .3 0 .4.1.1.1.1.2.1.4l-.9 7.8c0 .3-.2.5-.5.6l-8.8 2.1-.9 8.4 9.1-2.2c.1 0 .3 0 .4.1.1.1.1.2.1.4l-.9 8.4c0 .3-.2.5-.5.6l-19 4.4zm18.5-5.4l.8-7.4-9.1 2.2c-.1 0-.3 0-.4-.1-.1-.1-.1-.2-.1-.4l1.1-9.4c0-.3.2-.5.5-.6l8.8-2.1.7-6.6-8.7 2c-.1 0-.3 0-.4-.1-.1-.1-.1-.2-.1-.4l1.1-9.4c0-.3.2-.5.5-.6l9.3-2.2.8-7.1-17.9 4.2-4.7 42.1 17.8-4.1z"/></g></g><g><path class="st182" d="M31 55.1l.5 10.1 8.9-19.5 7.1 5.4.2 29.3-12.6 15.8-8.6 2-7.1-5.4 12.4-8.5L19.1 100l-8.7 2-7.1-5.4L10 53l7.1 5.4 2.1 8.1 4.7-16.8 7.1 5.4z"/><path class="st182" d="M26.4 98.7l-.4-.1-3.3-2.5-3.3 4.1-.4.2-8.7 2-.4-.1L3 97c-.1-.1-.2-.2-.1-.4L9.5 53c0-.2.2-.4.3-.5.2-.1.4-.1.5 0l7.1 5.4.1.2 1.6 6.3 4.2-14.8c0-.2.2-.3.4-.4.2-.1.4-.1.5 0l7.1 5.4-.3.5.4-.4.1.3.4 8.3 8-17.6c.1-.2.2-.3.4-.4.2-.1.3-.1.4 0l7.1 5.4.1.3.2 29.3-.1.4-12.6 15.8-.4.2-8.6 2zM3.9 96.3l6.8 5.2 8.2-1.9 3.2-3.9-3.1-2.5c-.1-.1-.2-.3-.1-.4 0-.2.1-.3.3-.4l12.4-8.5c.2-.2.5-.1.6 0 .1.2.1.4-.1.7l-8.6 10.7 3.2 2.4 8.2-1.9 12.4-15.3-.2-28.9-6.5-4.9L32 65.4c-.1.2-.3.4-.6.4-.2 0-.4-.1-.4-.4l-.5-9.9-6.4-4.9-4.5 15.9c-.1.2-.3.4-.5.5-.2 0-.4-.1-.5-.3l-2-7.9-6.3-4.8-6.4 42.3zm16.3-3.6l2.6 2 6.7-8.3-9.3 6.3z"/><g><path class="st182" d="M23.9 49.7l1.3 24.7 5.6-26.3 9.7-2.3-12.5 45-8.6 2-1-23L12 94.5l-8.7 2L.5 55.2l25.9-6.1L10 78l7-26.7 6.9-1.6z"/><path class="st182" d="M19.3 93.3c-.3.1-.5-.1-.5-.4l-.9-19.8-5.5 21.4c0 .3-.2.5-.4.5l-8.7 2c-.3.1-.5 0-.5-.3L0 55.4c0-.1 0-.3.1-.4.1-.1.2-.2.4-.2l16.5-4 6.9-1.6 2.5-.6c.2 0 .4 0 .4.2.1.1.1.3 0 .5l-2.3 3.9.9 17.3L30.2 48c.1-.2.3-.5.5-.5l9.7-2.3c.2 0 .3 0 .4.1.1.1.1.3.1.4l-12.5 45c-.1.2-.3.4-.5.5l-8.6 2.1zm-.9-24.1c.2 0 .4.1.5.4l1 22.6 7.8-1.8 12.2-43.9-8.6 2-5.5 25.9c-.1.3-.3.5-.5.5-.3 0-.5-.1-.5-.4l-1-19.6-13.4 23.2c-.1.2-.4.4-.6.3-.2 0-.3-.3-.3-.5l6.9-26L1 55.6 3.8 96l7.8-1.8 6.2-24.4c.1-.3.3-.5.6-.6-.1 0-.1 0 0 0zm-7.1 5.4l12.2-21.4-.2-2.9-6 1.4-6 22.9zm13.2-23.1l1-1.7-1.1.2.1 1.5z"/></g></g><g><path class="st182" d="M124.5 130.3l-7.1-5.4 11.9-37.7 11.8-9.9 18.9-2.1-12.7 15.7-9.7 2.3-1.1 9.4 2.1-7.6 18.9-2.5-12.6 15.5-9.2 2.2-1.1 9.4 2.6-7.7 18.8-1.8-12.7 15.7-18.8 4.5z"/><path class="st182" d="M124.5 130.8v-.5l.4-.4-.4.4v.5l-.4-.1-7.1-5.4c-.1-.1-.2-.3-.1-.5l11.9-37.7.2-.3 11.8-9.9.3-.1 18.9-2.1c.2 0 .4.1.4.2.1.2 0 .4-.1.6L147.7 91l-.4.2-9.3 2.2-.4 3.2.5-1.8c.1-.3.3-.5.5-.5l18.9-2.5c.2 0 .4.1.4.2.1.2 0 .4-.1.6l-12.7 15.7-.4.2-8.8 2.1-.5 4.6 1.1-3.4c.1-.2.3-.4.5-.5l18.8-1.8c.2 0 .4.1.4.2.1.2 0 .4-.1.6L143.4 126l-.4.2-18.5 4.6zm18.7-5.5l11.8-14.6-17.4 1.7-2.5 7.3c-.1.3-.3.5-.6.5-.2 0-.4-.2-.4-.5l1.1-9.4c0-.3.2-.5.5-.6l9-2.1L156.5 93l-17.4 2.3-2 7.2c-.1.3-.3.5-.6.5s-.4-.2-.4-.5l1.1-9.4c0-.3.2-.5.5-.6l9.5-2.2L159 75.7l-17.7 2-11.5 9.7-11.8 37.2 6.7 5.1 18.5-4.4z"/><g><path class="st182" d="M117.3 124.8l4.8-43.2 19-4.5-.9 8.1-9.7 2.3-1.1 9.4 9.2-2.2-.9 7.7-9.2 2.2-1.1 9.4 9.7-2.3-.9 8.4-18.9 4.7z"/><path class="st182" d="M117.3 125.3v-.5l.5-.1-.5.1v.5c-.1 0-.3 0-.4-.1-.1-.1-.1-.2-.1-.4l4.8-43.2c0-.3.2-.5.5-.6l19-4.5c.1 0 .3 0 .4.1.1.1.1.2.1.4l-.9 8.1c0 .3-.2.5-.5.6L131 88l-.9 8.4 8.7-2.1c.1 0 .3 0 .4.1.1.1.1.2.1.4l-.9 7.7c0 .3-.2.5-.5.6l-8.8 2.1-.9 8.4 9.1-2.2c.1 0 .3 0 .4.1.1.1.1.2.1.4l-.9 8.4c0 .3-.2.5-.5.6l-19.1 4.4zm18.5-5.3l.8-7.4-9.1 2.2c-.1 0-.3 0-.4-.1-.1-.1-.1-.2-.1-.4l1.1-9.4c0-.3.2-.5.5-.6l8.8-2.1.7-6.7-8.7 2c-.1 0-.3 0-.4-.1-.1-.1-.1-.2-.1-.4l1.1-9.4c0-.3.2-.5.5-.6l9.3-2.2.8-7.1-17.9 4.2L118 124l17.8-4z"/></g></g><g><path class="st182" d="M119.1 132.4l-9.9 2.3-7.1-5.4 2.4-6.4 10.2-2.1-12.7 15.7-9 2.1-7.1-5.4 11.9-37.7c.6-.1 1.3-.4 2.3-.7 1-.3 1.9-.7 3-1 1-.4 2-.7 3-1 1-.3 1.8-.6 2.5-.7 1.3-.3 2.8-.6 4.3-.8 1.5-.2-3.5-5.3-2.2-4.8 2.1.6 10.1 7.3 11 9.6.9 2.3 10.7-1.5 10.1 3.1 0 0-11.5 13.9-12.9 16.1-1.4 2.2 13 1.7 13 1.7l-12.8 15.4z"/><path class="st182" d="M109.2 135.3l-.4-.1-3.2-2.5-3.2 4-.4.3-9 2.1-.4-.1-7.1-5.4c-.1-.1-.2-.3-.1-.5l11.9-37.7c.1-.2.3-.4.5-.5.6-.1 1.3-.4 2.2-.7 1-.3 1.9-.7 3-1 1-.4 2-.7 3-1 1-.3 1.8-.6 2.5-.7 1.3-.3 2.6-.5 4-.7-.2-.4-.7-1.2-1.2-1.9-.7-1-1.3-1.6-1.4-2.3 0-.1 0-.2.1-.4s.3-.3.4-.3h.4c2.4.8 10.1 7.3 11.2 9.9.1.7 2.5.7 5 .5 2.4-.1 5-.1 5.1 2.3v.5l-.2.3s-11.4 13.7-12.8 16c.1.1.2.1.3.2.3.1.8.3 1.4.4 1.2.2 2.8.3 4.4.4 3.2.1 6.5 0 6.5 0 .2 0 .3.1.4.3.1.2 0 .4-.1.5l-12.7 15.7-.4.2-9.7 2.2zm9.9-2.9v-.5.5zm-32.6.5l6.7 5.2 8.6-2 3.1-3.8-3.2-2.4c-.1-.1-.2-.3-.1-.5l2.4-6.4c.1-.2.3-.4.5-.4l10.2-2.1c.2 0 .4 0 .5.2.1.2 0 .4-.1.6l-8.7 10.8 3.1 2.4 9.5-2.2 11.9-14.7c-2.1 0-7.2.1-10.2-.4-1.2-.3-2.2-.4-2.3-1.4 0-.2.1-.4.2-.6 1.4-2.2 11.6-14.4 12.8-16V99c.1-1.4-1.9-1.7-4.3-1.5-2.4 0-5 .6-5.8-1-.6-1.7-6.3-6.7-9.3-8.7.1.2.2.3.4.5.7 1 1.4 1.8 1.4 2.6 0 .1 0 .3-.2.6-.1.2-.4.3-.6.4h-.1c-1.5.2-2.9.5-4.2.8-.6.2-1.4.4-2.4.7-1 .3-2 .7-3 1-1 .4-2 .7-3 1-.8.3-1.4.5-2 .6l-11.8 36.9zm16.2-3.8l2.9 2.2 7.9-9.7-8.7 1.8-2.1 5.7z"/><g><path class="st182" d="M111.9 127l-9.9 2.3-4.7-11.8-1 .2-1.4 13.3-9 2.1L90.7 90c.6-.1 1.3-.4 2.3-.7 1-.3 1.9-.7 3-1 1-.4 2-.7 3-1 1-.3 1.8-.6 2.5-.7 1.3-.3 2.8-.6 4.3-.8 1.5-.2 2.9-.1 4.2.3 2.1.7 3.7 2.1 4.6 4.5.9 2.3 1 5.8.4 10.3-.7 3.7-1.8 6.7-3.2 8.9-1.4 2.2-3.1 3.9-5.1 5l5.2 12.2zm-14.7-16.3c1.3.2 2.5.1 3.5-.4s1.9-1.2 2.7-2.1c.8-.9 1.4-2 1.8-3.3.4-1.3.7-2.6.9-3.9.1-.9.1-1.8 0-2.7-.1-.9-.3-1.6-.6-2.3-.3-.6-.8-1.1-1.4-1.4-.6-.3-1.4-.3-2.3-.1-1 .2-2 .6-3 1l-1.6 15.2z"/><path class="st182" d="M102.1 129.8c-.2 0-.4 0-.5-.2L97 118.1h-.2L95.4 131c0 .3-.2.5-.5.6l-9 2.1c-.1 0-.3 0-.4-.1-.1-.1-.1-.2-.1-.4L90.2 90c0-.3.2-.5.5-.6.6-.1 1.3-.4 2.2-.7 1-.3 1.9-.7 2.9-1 1-.4 2-.7 3-1 1-.3 1.8-.6 2.5-.7 1.4-.3 2.8-.6 4.3-.8 1.6-.2 3-.1 4.4.3 2.3.7 3.9 2.3 4.8 4.7.5 1.4.8 3.2.8 5.3 0 1.5-.1 3.3-.4 5.2-.7 3.8-1.8 6.8-3.3 9.1-1.4 2.1-3 3.7-4.9 5l5.2 11.9-.5.3v-.5.5l.5-.3c.1.1 0 .3 0 .5-.1.2-.3.3-.4.3l-9.7 2.3zM97.4 117c.2 0 .4 0 .5.2l4.6 11.5 8.8-2.1L106 115c-.1-.1 0-.3 0-.4.1-.1.2-.3.3-.3 1.9-1.1 3.5-2.7 4.9-4.8 1.4-2.1 2.4-5 3.1-8.6.3-1.9.4-3.6.4-5 0-2-.3-3.7-.8-5-.9-2.2-2.3-3.6-4.3-4.3-1.2-.4-2.6-.5-4-.3-1.5.2-2.9.5-4.2.8-.6.1-1.4.4-2.4.7-1 .3-2 .7-3 1-1 .4-2 .7-3 1-.7.2-1.4.4-1.9.6l-4.7 42.1 8-1.9 1.4-12.8c0-.3.2-.5.5-.6l1.1-.2zm-.4-5.8c-.2 0-.3-.2-.3-.5l1.7-15.2c0-.2.2-.4.4-.5 1-.4 2-.8 3.1-1 1-.2 1.9-.2 2.6.1.7.3 1.2.9 1.5 1.6.3.7.6 1.5.6 2.4v1.1c0 .5 0 1.1-.1 1.6-.2 1.4-.5 2.7-.9 4-.5 1.3-1.1 2.5-1.9 3.5-.8 1-1.8 1.8-2.9 2.3-.4.2-.7.3-1.1.4-.9.3-1.8.3-2.7.2zm2.7-1.1l.9-.3c.9-.5 1.8-1.1 2.5-2 .7-.9 1.3-1.9 1.7-3.1.4-1.2.7-2.5.9-3.8.1-.5.1-1 .1-1.5v-1.1c-.1-.8-.3-1.5-.5-2.1-.3-.6-.7-1-1.2-1.2-.5-.2-1.1-.3-2-.1-.9.2-1.7.5-2.5.8L98 110.1c.4.2 1.1.2 1.7 0z"/></g></g><g><path class="st182" d="M67.8 144.7l-7.1-5.4 11.9-37.7 11.8-9.9 18.9-2.1-12.7 15.7-9.7 2.3-1.1 9.4 2.1-7.6 18.9-2.5-12.7 15.7-9.2 2.2-1.1 9.4 2.6-7.7 18.8-1.8-12.7 15.7-18.7 4.3z"/><path class="st182" d="M67.8 145.2v-.5l.4-.4-.4.4v.5l-.4-.1-7.1-5.4c-.1-.1-.2-.3-.1-.5l11.9-37.7.2-.3 11.8-9.9.3-.1 18.9-2.1c.2 0 .4.1.4.2.1.2 0 .4-.1.6L91 105.5l-.4.2-9.3 2.2-.3 3.1.5-1.8c.1-.3.3-.5.5-.5l18.9-2.5c.2 0 .4.1.4.2.1.2 0 .4-.1.6l-12.7 15.7-.4.2-8.8 2.1-.5 4.6 1.1-3.4c.1-.2.3-.4.5-.5l18.8-1.8c.2 0 .4.1.4.2.1.2 0 .4-.1.6l-12.7 15.7-.4.2-18.6 4.6zm18.7-5.5l11.8-14.6-17.4 1.7-2.5 7.3c-.1.3-.3.5-.6.5-.2 0-.4-.2-.4-.5l1.1-9.4c0-.3.2-.5.5-.6l9-2.1 11.8-14.5-17.4 2.3-2 7.2c-.1.3-.3.5-.6.5s-.4-.2-.4-.5l1.1-9.4c0-.3.2-.5.5-.6l9.5-2.2 11.8-14.6-17.7 2-11.6 9.6L61.2 139l6.7 5.1 18.6-4.4z"/><g><path class="st182" d="M60.6 139.3l4.8-43.2 19-4.5-.9 8.1-9.7 2.3-1.1 9.4 9.2-2.2-.9 7.7-9.2 2.2-1.1 9.4 9.7-2.3-.9 8.4-18.9 4.7z"/><path class="st182" d="M60.6 139.8v-.5l.5-.1-.5.1v.5c-.1 0-.3 0-.4-.1-.1-.1-.1-.2-.1-.4L65 96.2c0-.3.2-.5.5-.6l19-4.5c.1 0 .3 0 .4.1.1.1.1.2.1.4l-1 8.1c0 .3-.2.5-.5.6l-9.3 2.2-.9 8.4 8.7-2.1c.1 0 .3 0 .4.1.1.1.1.2.1.4l-.9 7.7c0 .3-.2.5-.5.6l-8.8 2.1-.9 8.4 9.1-2.2c.1 0 .3 0 .4.1.1.1.1.2.1.4l-.9 8.4c0 .3-.2.5-.5.6l-19 4.4zm18.5-5.4l.9-7.4-9.1 2.2c-.1 0-.3 0-.4-.1-.1-.1-.1-.2-.1-.4l1.1-9.4c0-.3.2-.5.5-.6l8.8-2.1.7-6.7-8.7 2c-.1 0-.3 0-.4-.1-.1-.1-.1-.2-.1-.4l1.1-9.4c0-.3.2-.5.5-.6l9.3-2.2.8-7.1-17.9 4.2-4.7 42.1 17.7-4z"/></g></g><g><path class="st182" d="M26.5 147.4L40.7 102l7.1 5.4-1.9 17.3 7.6-1.8L57.7 98l15 32.9L60 146.6l-9.4 2.2-6.8-5.5 8.8-12.7 3 4.3L43 150.6l-9.4 2.2-7.1-5.4z"/><path class="st182" d="M50.6 149.3l-.4-.1-3.4-2.7-3.5 4.4-.4.2-9.4 2.2-.4-.1-7.1-5.4.4-.4h.5-.5l-.4.4c-.1-.1-.2-.3-.1-.5L40.2 102c.1-.2.2-.3.4-.4.2-.1.4-.1.5 0l7.1 5.4.1.4-1.9 16.7 6.6-1.6L57.1 98c0-.2.2-.4.4-.5.2-.1.4 0 .5.2l15 32.9c.1.2 0 .4-.1.6l-12.7 15.7-.4.2-9.2 2.2zm.2-1l8.9-2.1L72 131 57.9 99.8 54 122.9c0 .3-.3.5-.5.5l-7.6 1.8c-.1 0-.3 0-.4-.1-.1-.1-.1-.2-.1-.4l1.9-17-6.4-4.9L27.1 147l6.7 5.2 8.9-2.1 3.4-4.2-2.7-2.2c-.2-.1-.2-.4 0-.7l8.8-12.7c.1-.2.3-.3.4-.3.2 0 .3 0 .4.2l3 4.3c.1.2.1.4-.1.6l-8.4 10.4 3.3 2.8zm-6.3-5.2l2.4 1.9 8.1-10-2.4-3.5-8.1 11.6z"/><g><path class="st182" d="M31.3 104.3l12.5-3-5.1 18 7.6-1.8 1.9-17.3 9.4-2.2-4.8 43.2-9.4 2.2 2-18.2-7.6 1.8-2 18.2-9.4 2.2 4.9-43.1z"/><path class="st182" d="M43.5 143.9c-.1 0-.3 0-.4-.1-.1-.1-.1-.2-.1-.4l2-17.6-6.6 1.6-2 17.7c0 .3-.2.5-.5.6l-9.4 2.2c-.1 0-.3 0-.4-.1-.1-.1-.1-.2-.1-.4l4.8-43.2c0-.3.2-.5.5-.6l12.5-3c.2 0 .3 0 .4.1.1.1.1.3.1.4l-4.9 17.3 6.5-1.5 1.9-16.8c0-.3.2-.5.5-.6l9.4-2.2c.1 0 .3 0 .4.1.1.1.1.2.1.4L53.4 141c0 .3-.2.5-.5.6l-9.4 2.3zm2-19.2c.1 0 .3 0 .4.1.1.1.1.2.1.4l-2 17.6 8.3-2L57 98.7l-8.3 2-1.9 16.8c0 .3-.2.5-.5.6l-7.6 1.8c-.2 0-.3 0-.4-.1-.1-.1-.1-.3-.1-.4l4.9-17.3-11.4 2.7-4.7 42.1 8.3-2 2-17.7c0-.3.2-.5.5-.6l7.7-1.9z"/></g></g><g><path class="st183" d="M109.7 58.7l7-2.5-8.4 2-1.8 8.4-9.8 2.3-7.1-5.4L109 23.9l7.6-8.9 7.1 5.4 2.6 41.4-9.5 2.3-7.1-5.4zm6.6-28.5l-1.4.3-4.5 19.5 6.2-1.5-.3-18.3z"/><path class="st183" d="M116.8 64.6l-.4-.1-7.1-5.4.4-.4.1.5-.1-.5-.4.4c-.1-.1-.2-.3-.1-.5 0-.1.1-.2.1-.2l-.6.1-1.7 8c-.1.2-.3.5-.5.5l-9.8 2.3-.4-.1-7.1-5.4c-.2-.1-.2-.4-.1-.6l19.5-39.6 7.6-8.9c.2-.2.5-.3.7-.2l7.1 5.4.1.3 2.6 41.4c0 .1 0 .3-.1.4-.1.1-.2.2-.4.2l-9.4 2.4zm.2-1.1l8.8-2.1-2.6-40.7-6.6-5.1-7.1 8.3-19.2 39.3 6.7 5.1 9.2-2.2 1.7-8c.1-.2.3-.5.5-.5l8.4-2c.3-.1.5.1.5.4 0 .3-.2.5-.4.6l-6 2.2 6.1 4.7zm-6.6-13c-.2 0-.3 0-.4-.1-.1-.1-.1-.3-.1-.4l4.4-19.5c.1-.2.3-.4.5-.5l1.4-.3v.5l-.5.1.5-.1v-.5c.3-.1.5.1.5.4l.3 18.4c0 .1-.1.3-.1.4-.1.1-.2.2-.4.2l-6.1 1.4zm.6-1.2l5-1.2-.3-17.4-.5.1-4.2 18.5z"/><path class="st184" d="M109.6 50.7l-8.4 2-1.8 8.4-9.8 2.3 12.3-44.9 14.7-3.5 2.6 41.4-9.5 2.3-.1-8zm-.5-26l-1.4.3-4.4 19.5 6.2-1.5-.4-18.3z"/><path class="st183" d="M109.7 59.2c-.3.1-.5-.1-.5-.4l-.1-7.5-7.5 1.8-1.7 8c-.1.2-.3.5-.5.5l-9.8 2.3c-.2 0-.3 0-.4-.1-.1-.1-.1-.3-.1-.4l12.3-44.9c.1-.2.3-.4.5-.5l14.7-3.5c.3-.1.5.1.5.4l2.6 41.4c0 .1 0 .3-.1.4-.1.1-.2.2-.4.2l-9.5 2.3zm.4-8.6l.1 7.5 8.5-2-2.6-40.4-13.8 3.3-12 43.8 8.7-2.1 1.7-8c.1-.2.3-.5.5-.5l8.4-2v.5l-.5.1.5-.1v-.5c.3-.1.5.1.5.4zm-6.8-5.5c-.2 0-.3 0-.4-.1-.1-.1-.1-.2-.1-.4l4.4-19.5c.1-.2.3-.5.5-.5l1.4-.3v.5l-.5.1.5-.1v-.5c.3-.1.5.1.5.4L110 43c0 .1-.1.3-.1.4-.1.1-.2.2-.4.2l-6.2 1.5zm.6-1.2l5-1.2-.3-17.4-.5.1-4.2 18.5zM43.7 39.5l.5 10.1 8.9-19.5 7.1 5.4-12.5 45-8.6 2-7.1-5.4 6.1-17.6-6.3 24.8-8.7 2-7.1-5.4 6.7-43.6 7.1 5.4 2.1 8.1L36.6 34l7.1 5.5z"/><path class="st183" d="M39.1 83.1l-.4-.1-5.2-3.9-1.3 5.2c-.1.2-.3.4-.5.5l-8.7 2-.4-.1-7.1-5.4c-.1-.1-.2-.2-.1-.4l6.7-43.6c0-.2.2-.4.3-.5.2-.1.4-.1.5 0l7.1 5.4.1.2 1.6 6.3L36.1 34c.1-.2.2-.4.4-.4.2-.1.4-.1.5 0l7.1 5.4-.4.4.4-.4.1.3.4 8.3 8-17.6c.1-.2.2-.3.4-.4.2-.1.3-.1.4 0l7.1 5.4c.1.1.2.3.1.5l-12.5 45c-.1.2-.3.4-.5.5l-8.5 2.1zm.2-1.1l8-1.9 12.3-44.3-6.4-4.9-8.6 18.8c-.1.2-.3.4-.6.4-.2 0-.4-.1-.4-.4l-.5-9.9-6.4-4.9-4.5 15.9c-.1.2-.3.4-.5.5-.2 0-.4-.1-.5-.3l-2-7.9-6.3-4.8-6.5 42.3 6.8 5.2 8.1-1.9 1.4-5.4-1.1-.9c-.1-.1-.2-.3-.1-.5l6.1-17.6c.1-.3.4-.5.6-.4.3 0 .4.3.3.5l-4.7 18.3 5.5 4.1zm-6.7-5.1l.5.4 1.7-6.8-2.2 6.4z"/><path class="st184" d="M36.6 34l1.3 24.7 5.6-26.3 9.7-2.3-12.5 45-8.6 2-1-23.1-6.3 24.8-8.7 2-2.8-41.4 9.5-2.3-.1 25 7.1-26.6 6.8-1.5z"/><path class="st183" d="M32 77.6c-.3.1-.5-.1-.5-.4l-.9-19.8-5.5 21.4c-.1.2-.3.4-.5.5l-8.7 2c-.3.1-.5-.1-.5-.4l-2.8-41.4c0-.1 0-.3.1-.4.1-.1.2-.2.4-.2l9.5-2.3c.1 0 .3 0 .4.1.1.1.1.2.1.3L23 58.3l6.1-22.9c.1-.2.3-.4.5-.5l6.9-1.6v.7-.5c.3-.1.5.1.5.4l1.1 21L43 32.4c.1-.2.3-.5.5-.5l9.7-2.3c.2 0 .3 0 .4.1.1.1.1.3.1.4l-12.5 45c-.1.2-.3.4-.5.5l-8.7 2zm-1-24c.2 0 .4.1.5.4l1 22.6 7.7-1.8 12.2-43.9-8.6 2-5.5 25.9c-.1.3-.3.5-.5.5-.3 0-.5-.1-.5-.4L36 34.7l-6 1.4-7 26.3c-.1.3-.3.5-.6.5s-.4-.1-.4-.4l.1-24.5-8.5 2 2.7 40.4 7.8-1.8 6.2-24.4c.2-.4.4-.6.7-.6zM157.4 55.1l-9.9 2.3-7.1-5.4 2.4-6.4-1 .2-1.5 13.3-9 2.1-7.1-5.4 11.9-37.7c.6-.1 1.3-.4 2.3-.7 1-.3 1.9-.7 3-1 1-.4 2-.7 3-1 1-.3 1.8-.6 2.5-.7 1.3-.3 2.8-.6 4.3-.8 1.5-.2-3.5-5.3-2.2-4.8 2.1.6 10.1 7.3 11 9.6.9 2.3 1 5.8.4 10.3-.7 3.7-1.8 6.7-3.2 8.8-1.4 2.2-3.1 3.9-5.1 5l5.3 12.3z"/><path class="st183" d="M147.5 58l-.4-.1-5.7-4.3-.6 5.5c0 .3-.2.5-.5.6l-9 2.1-.4-.1-7.1-5.4c-.1-.1-.2-.3-.1-.5l11.9-37.7c.1-.2.3-.4.5-.5.6-.1 1.3-.4 2.2-.7 1-.3 1.9-.7 2.9-1 1-.4 2-.7 3-1 1-.3 1.8-.6 2.5-.7 1.3-.3 2.6-.6 4-.7-.2-.4-.7-1.2-1.2-1.9-.7-1-1.3-1.6-1.4-2.3 0-.2.2-.6.6-.7h.4c2.4.8 10.1 7.3 11.2 9.9.5 1.4.8 3.2.8 5.3 0 1.5-.1 3.3-.4 5.2-.7 3.8-1.8 6.8-3.3 9.1-1.4 2.1-3 3.7-4.9 5l5.2 11.9-.5.3v-.5.5l.5-.3c.1.1 0 .3 0 .5-.1.2-.3.3-.4.3l-9.8 2.2zm.2-1.1l8.9-2.1-5.2-11.7c-.1-.1 0-.3 0-.4.1-.1.2-.3.3-.3 1.9-1.1 3.5-2.7 4.9-4.8 1.4-2.1 2.4-5 3.1-8.6.3-1.9.4-3.6.4-5 0-2-.3-3.7-.8-5-.6-1.7-6.3-6.7-9.3-8.7.1.2.2.3.4.5.7 1 1.4 1.8 1.4 2.6 0 .1 0 .3-.2.6-.2.2-.4.3-.6.4h-.1c-1.5.2-2.9.5-4.2.8-.6.1-1.4.4-2.4.7-1 .3-2 .7-3 1-1 .4-2 .7-3 1-.8.3-1.4.5-2 .6l-11.7 37 6.7 5.2 8.3-2 .7-5.9-.5-.4c-.1-.1-.2-.3-.1-.5l1-2.7.4-3.3c0-.3.2-.5.5-.6l1-.2c.2 0 .3 0 .4.1.1.1.1.3 0 .5l-1.3 3.5-.3 3 6.3 4.7z"/><g><path class="st184" d="M150.3 49.7l-9.9 2.3-4.7-11.8-1 .2-1.5 13.3-9 2.1 4.8-43.2c.6-.1 1.3-.4 2.3-.7 1-.3 1.9-.7 3-1 1-.4 2-.7 3-1 1-.3 1.8-.6 2.5-.7 1.3-.3 2.8-.6 4.3-.8 1.5-.2 2.9-.1 4.2.3 2.1.7 3.7 2.1 4.6 4.5.9 2.3 1 5.7.4 10.3-.7 3.7-1.8 6.7-3.2 8.9-1.4 2.2-3.1 3.9-5.1 5l5.3 12.3zm-14.8-16.4c1.3.2 2.5.1 3.5-.4s1.9-1.2 2.7-2.1c.8-.9 1.4-2 1.8-3.3.4-1.3.7-2.6.9-3.9.1-.9.1-1.8 0-2.7-.1-.9-.3-1.6-.6-2.3-.3-.6-.8-1.1-1.4-1.4-.6-.3-1.4-.3-2.3-.1-1 .2-2 .6-3 1l-1.6 15.2z"/><path class="st183" d="M140.4 52.5c-.2 0-.4 0-.5-.2l-4.6-11.5h-.2l-1.4 12.8c0 .3-.2.5-.5.6l-9 2.1c-.1 0-.3 0-.4-.1-.1-.1-.1-.2-.1-.4l4.8-43.2c0-.3.2-.5.5-.6.6-.1 1.3-.4 2.3-.7 1-.3 1.9-.7 2.9-1 1-.4 2-.7 3-1 1-.3 1.8-.6 2.5-.7 1.4-.3 2.8-.6 4.3-.8 1.6-.2 3-.1 4.4.3 2.3.7 3.9 2.3 4.8 4.7.5 1.4.8 3.2.8 5.3 0 1.5-.1 3.3-.4 5.2-.7 3.8-1.8 6.8-3.3 9.1-1.4 2.1-3 3.7-4.9 5l5.2 11.9-.5.3v-.5.5l.5-.3c.1.1 0 .3-.1.5s-.2.3-.4.3l-9.7 2.4zm-4.7-12.8c.2 0 .4 0 .5.2l4.6 11.5 8.8-2.1-5.2-11.7c-.1-.1 0-.3 0-.4.1-.1.2-.3.3-.3 1.9-1.1 3.5-2.7 4.9-4.8 1.4-2.1 2.4-5 3.1-8.6.3-1.9.4-3.6.4-5 0-2-.3-3.7-.8-5-.9-2.2-2.3-3.6-4.3-4.2-1.2-.4-2.6-.5-4-.3-1.5.2-2.9.5-4.2.8-.6.1-1.4.4-2.4.7-1 .3-2 .7-3 1-1 .4-2 .7-3 1-.7.2-1.4.4-1.9.6l-4.7 42.1 8-1.9 1.4-12.8c0-.3.2-.5.5-.6l1-.2zm-.4-5.8c-.2 0-.3-.2-.3-.4l1.7-15.2c0-.2.2-.4.4-.5 1-.4 2-.8 3.1-1 1-.2 1.9-.2 2.6.1.7.3 1.2.9 1.5 1.6.3.7.6 1.5.6 2.4V22c0 .5 0 1.1-.1 1.6-.1 1.4-.5 2.7-.9 4-.5 1.3-1.1 2.5-1.9 3.5-.8 1-1.8 1.8-2.9 2.3-.4.2-.7.3-1.1.4-.8.2-1.7.2-2.7.1zm2.7-1.1l.9-.3c.9-.5 1.7-1.1 2.5-1.9.7-.9 1.3-1.9 1.7-3.1.4-1.2.7-2.5.9-3.8.1-.5.1-1 .1-1.5v-1.1c-.1-.8-.2-1.5-.5-2.1-.3-.6-.7-1-1.2-1.3-.5-.2-1.1-.3-2-.1-.8.2-1.7.5-2.5.8L136 32.9c.8.1 1.4 0 2-.1z"/></g><g><path class="st183" d="M162.8 53.6l-7.1-5.4 11.9-37.7L179.4.6l7.1 5.4-.9 8.1-9.7 2.3-1.1 9.4 2.1-7.6 7.1 5.4-.9 7.7-9.2 2.2-.9 9.5 2.6-7.7 7.1 5.4-.9 8.4-19 4.5z"/><path class="st183" d="M162.8 54.1v-.5l.4-.4-.4.4v.5l-.4-.1-7.1-5.4c-.1-.1-.2-.3-.1-.5l11.9-37.7.2-.3L179.1.2c.2-.2.5-.2.6-.1l7.1 5.4.1.4-.9 8.1c0 .3-.2.5-.5.6l-9.3 2.2-.4 3.2.5-1.8c.1-.2.2-.3.4-.4.2-.1.4-.1.5 0l7.1 5.4.1.4-.9 7.7c0 .3-.2.5-.5.6l-8.8 2.1-.5 4.6 1.1-3.4c.1-.2.2-.3.4-.4.2-.1.3-.1.5 0l7.1 5.4.1.4-.9 8.4c0 .3-.2.5-.5.6l-18.7 4.5zm18.5-5.4l.9-7.7-6.4-4.9-2.3 6.9c-.1.3-.3.5-.6.5-.2 0-.4-.2-.4-.5l1.1-9.4c0-.3.2-.5.5-.6l8.8-2.1.8-7-6.3-4.8-1.9 6.7c-.1.3-.3.5-.6.5s-.4-.2-.4-.5l1.1-9.4c0-.3.2-.5.5-.6l9.3-2.2.8-7.4-6.7-5.1-11.5 9.6-11.8 37.2L163 53l18.3-4.3z"/><g><path class="st184" d="M155.7 48.2L160.5 5l19-4.5-.9 8.1-9.7 2.3-1.1 9.4 9.2-2.2-.9 7.7-9.2 2.2-1.1 9.4 9.7-2.3-.9 8.4-18.9 4.7z"/><path class="st183" d="M155.7 48.7v-.5l.5-.1-.5.1v.5c-.1 0-.3 0-.4-.1-.1-.1-.1-.2-.1-.4L160 5.1c0-.3.2-.5.5-.6l19-4.5c.1 0 .3 0 .4.1.1.1.1.2.1.4l-1 8.1c0 .3-.2.5-.5.6l-9.3 2.2-.9 8.4 8.7-2.1c.1 0 .3 0 .4.1.1.1.1.2.1.4l-.9 7.7c0 .3-.2.5-.5.6l-8.8 2.1-.9 8.4 9.1-2.2c.1 0 .3 0 .4.1.1.1.1.2.1.4l-.9 8.4c0 .3-.2.5-.5.6l-18.9 4.4zm18.5-5.4l.8-7.4-9.1 2.2c-.1 0-.3 0-.4-.1-.1-.1-.1-.2-.1-.4l1.1-9.4c0-.3.2-.5.5-.6l8.8-2.1.7-6.7-8.7 2c-.1 0-.3 0-.4-.1-.1-.1-.1-.2-.1-.4l1.1-9.4c0-.3.2-.5.5-.6l9.3-2.2.8-7.1-17.9 4.2-4.7 42.1 17.8-4z"/></g></g><g><path class="st183" d="M62 77.1l-7.1-5.4L66.8 34l11.8-10 7.1 5.4-.9 8.1-9.7 2.3-1.1 9.4 2.1-7.6 7.1 5.4-.9 7.7-9.1 2.3-1.1 9.4 2.6-7.7 7.1 5.4-.9 8.4L62 77.1z"/><path class="st183" d="M62 77.6v-.5l.4-.4-.4.4v.5l-.4-.1-7.1-5.4c-.1-.1-.2-.3-.1-.5l11.9-37.7.2-.3 11.8-9.9c.2-.2.5-.2.6-.1L86 29l.1.4-.9 8.1c0 .3-.2.5-.5.6l-9.3 2.2-.4 3.2.5-1.8c.1-.2.2-.3.4-.4.2-.1.4-.1.5 0l7.1 5.4.1.4-.6 7.7c0 .3-.2.5-.5.6l-8.8 2.1-.5 4.6 1.1-3.4c.1-.2.2-.3.4-.4.2-.1.3-.1.5 0l7.1 5.4.1.4-.9 8.4c0 .3-.2.5-.5.6l-19 4.5zm18.5-5.4l.9-7.7-6.4-4.9-2.3 6.9c-.1.3-.3.5-.6.5-.2 0-.4-.2-.4-.5l1.1-9.4c0-.3.2-.5.5-.6l8.8-2.1.8-7-6.3-4.8-1.9 6.7c-.1.3-.3.5-.6.5s-.4-.2-.4-.5l1.1-9.4c0-.3.2-.5.5-.6l9.3-2.2.8-7.4-6.7-5.1-11.3 9.5-11.9 37.3 6.7 5.1 18.3-4.3z"/><g><path class="st184" d="M54.9 71.7l4.8-43.2 19-4.5-.9 8.1-9.8 2.3-1 9.5 9.2-2.2-.9 7.7-9.2 2.2-1 9.4 9.7-2.3-.9 8.4-19 4.6z"/><path class="st183" d="M54.9 72.2v-.5l.5-.1-.5.1v.5c-.1 0-.3 0-.4-.1-.1-.1-.1-.2-.1-.4l4.8-43.2c0-.3.2-.5.5-.6l19-4.5c.1 0 .3 0 .4.1.1.1.1.2.1.4l-.9 8.1c0 .3-.2.5-.5.6l-9.3 2.2-.9 8.4 8.7-2.1c.1 0 .3 0 .4.1.1.1.1.2.1.4l-.9 7.7c0 .3-.2.5-.5.6L66.6 52l-.9 8.4 9.1-2.2c.1 0 .3 0 .4.1.1.1.1.2.1.4l-.9 8.4c0 .3-.2.5-.5.6l-19 4.5zm18.5-5.4l.8-7.4-9.1 2.2c-.1 0-.3 0-.4-.1-.1-.1-.1-.2-.1-.4l1.1-9.4c0-.3.2-.5.5-.6L75 49l.7-6.7-8.7 2c-.1 0-.3 0-.4-.1-.1-.1-.1-.2-.1-.4l1.1-9.4c0-.3.2-.5.5-.6l9.3-2.2.8-7.1-17.9 4.2L55.4 71l18-4.2z"/></g></g><g><path class="st183" d="M80.4 129l-7.1-5.4 11.9-37.7L97.1 76l7.1 5.4-.9 8.1-9.7 2.3-1.1 9.4 2.1-7.6 7.1 5.4-.9 7.7-9.2 2.2-1.1 9.4 2.6-7.7 7.1 5.4-.9 8.4-18.9 4.6z"/><path class="st183" d="M80.4 129.5v-.5l.4-.4-.4.4v.5l-.4-.1-7.1-5.4c-.1-.1-.2-.3-.1-.5l11.9-37.7.2-.3 11.8-9.9c.2-.2.5-.2.6-.1l7.1 5.4.1.4-.9 8.1c0 .3-.2.5-.5.6L94 92.2l-.4 3.2.5-1.8c.1-.2.2-.3.4-.4.2-.1.4-.1.5 0l7.1 5.4.1.4-.9 7.7c0 .3-.2.5-.5.6l-8.8 2.1-.5 4.6 1.1-3.4c.1-.2.2-.3.4-.4.2-.1.3-.1.5 0l7.1 5.4.1.4-.9 8.4c0 .3-.2.5-.5.6l-18.9 4.5zm18.5-5.3l.9-7.7-6.4-4.9-2.3 6.9c-.1.3-.3.5-.6.5-.2 0-.4-.2-.4-.5l1.1-9.4c0-.3.2-.5.5-.6l8.8-2.1.8-7-6.3-4.8-1.9 6.7c-.1.3-.3.5-.6.5s-.4-.2-.4-.5l1.1-9.4c0-.3.2-.5.5-.6l9.3-2.2.8-7.4-6.8-5.1-11.3 9.5-11.8 37.2 6.7 5.1 18.3-4.2z"/><g><path class="st184" d="M73.3 123.6l4.8-43.2 19-4.5-.9 8.1-9.7 2.3-1.1 9.4 9.2-2.2-.9 7.7-9.2 2.2-1.1 9.4 9.7-2.3-.9 8.4-18.9 4.7z"/><path class="st183" d="M73.3 124.1v-.5l.5-.1-.5.1v.5c-.1 0-.3 0-.4-.1-.1-.1-.1-.2-.1-.4l4.8-43.2c0-.3.2-.5.5-.6l19-4.5c.1 0 .3 0 .4.1.1.1.1.2.1.4l-.9 8.2c0 .3-.2.5-.5.6l-9.3 2.2-.9 8.4 8.7-2.1c.1 0 .3 0 .4.1.1.1.1.2.1.4l-.9 7.7c0 .3-.2.5-.5.6L85 104l-.9 8.4 9.1-2.2c.1 0 .3 0 .4.1.1.1.1.2.1.4l-.9 8.4c0 .3-.2.5-.5.6l-19 4.4zm18.5-5.4l.8-7.4-9.1 2.2c-.1 0-.3 0-.4-.1-.1-.1-.1-.2-.1-.4l1.1-9.4c0-.3.2-.5.5-.6l8.8-2.1.7-6.7-8.7 2c-.1 0-.3 0-.4-.1-.1-.1-.1-.2-.1-.4l1.1-9.4c0-.3.2-.5.5-.6l9.3-2.2.8-7.1-17.9 4.2-4.8 42.4 17.9-4.3z"/></g></g><g><path class="st183" d="M39.2 131.8l14.2-45.4 7.1 5.4-1.9 17.3 7.6-1.8 4.2-24.9 7.1 5.4-4.9 43.2-9.4 2.2-6.8-5.5 8.8-12.7-7.6 1.8-2 18.2-9.4 2.2-7-5.4z"/><path class="st183" d="M63.3 133.7l-.4-.1-6.1-4.9-.7 6.2c0 .3-.2.5-.5.6l-9.4 2.2-.4-.1-7.1-5.4.4-.4h.5-.5l-.4.4c-.1-.1-.2-.3-.1-.5l14.2-45.4c.1-.2.2-.3.4-.4.2-.1.4-.1.5 0l7.1 5.4.1.4-1.9 16.7 6.6-1.6 4.1-24.5c0-.2.2-.4.3-.5.2-.1.4-.1.5 0l7.1 5.4.1.4-4.8 43.2c0 .3-.2.5-.5.6l-9.1 2.3zm2-19.2c.2 0 .4 0 .5.2.1.2.1.4-.1.6l-8.5 12.2 6.4 5.1 8.7-2.1L77 88.1l-6.3-4.8-4 23.9c0 .3-.3.5-.5.5l-7.6 1.8c-.1 0-.3 0-.4-.1-.1-.1-.1-.2-.1-.4L60 92l-6.4-4.9-13.8 44.2 6.7 5.1 8.7-2.1.8-6.8v-.1l1.2-10.8c0-.3.2-.5.5-.6l7.6-1.5zm-8.1 11.4l7.1-10.1-6.1 1.4-1 8.7z"/><g><path class="st184" d="M44 88.6l9.4-2.2-1.9 17.3 7.6-1.8L61 84.6l9.4-2.2-4.8 43.2-9.4 2.2 2-18.2-7.6 1.8-2 18.2-9.4 2.2L44 88.6z"/><path class="st183" d="M56.2 128.3c-.1 0-.3 0-.4-.1-.1-.1-.1-.2-.1-.4l2-17.6-6.6 1.6-2 17.7c0 .3-.2.5-.5.6l-9.4 2.2c-.1 0-.3 0-.4-.1-.1-.1-.1-.2-.1-.4l4.8-43.2c0-.3.2-.5.5-.6l9.4-2.2c.1 0 .3 0 .4.1.1.1.1.2.1.4L52 103l6.6-1.6 1.9-16.8c0-.3.2-.5.5-.6l9.4-2.2c.1 0 .3 0 .4.1.1.1.1.2.1.4L66 125.5c0 .3-.2.5-.5.6l-9.3 2.2zm2-19.2c.1 0 .3 0 .4.1.1.1.1.2.1.4l-2 17.6 8.3-2L69.8 83l-8.3 2-1.9 16.8c0 .3-.2.5-.5.6l-7.6 1.8c-.1 0-.3 0-.4-.1-.1-.1-.1-.2-.1-.4L52.8 87l-8.3 2-4.7 42.1 8.3-2 2-17.7c0-.3.2-.5.5-.6l7.6-1.7z"/></g></g><g><path class="st183" d="M131.7 116.8l-9.9 2.3-7.1-5.4 2.4-6.4-1 .2-1.5 13.3-9 2.1-7.1-5.4 11.9-37.7c.6-.1 1.3-.4 2.3-.7 1-.3 1.9-.7 3-1 1-.4 2-.7 3-1 1-.3 1.8-.6 2.5-.7 1.3-.3 2.8-.6 4.3-.8 1.5-.2-3.5-5.3-2.2-4.8 2.1.6 10.1 7.3 11 9.6.9 2.3 1 5.8.4 10.3-.7 3.7-1.8 6.7-3.2 8.8-1.4 2.2-3.1 3.9-5.1 5l5.3 12.3z"/><path class="st183" d="M121.8 119.6l-.4-.1-5.7-4.3-.6 5.5c0 .3-.2.5-.5.6l-9 2.1-.4-.1-7.1-5.4c-.1-.1-.2-.3-.1-.5l12-37.7c.1-.2.3-.4.5-.5.6-.1 1.3-.4 2.2-.7 1-.3 1.9-.7 2.9-1 1-.4 2-.7 3-1 1-.3 1.8-.6 2.5-.7 1.3-.3 2.6-.6 4-.7-.2-.4-.7-1.2-1.2-1.9-.7-1-1.3-1.6-1.4-2.3 0-.2.2-.6.6-.7h.4c2.4.8 10.1 7.3 11.2 9.9.5 1.4.8 3.2.8 5.3 0 1.5-.1 3.3-.4 5.2-.7 3.8-1.8 6.8-3.3 9.1-1.4 2.1-3 3.7-4.9 5l5.2 11.9-.5.3v-.5.5l.5-.3c.1.1 0 .3 0 .5-.1.2-.3.3-.4.3l-9.9 2.2zm.3-1l8.9-2.1-5.2-11.7c-.1-.1 0-.3 0-.4.1-.1.2-.3.3-.3 1.9-1.1 3.5-2.7 4.9-4.8 1.4-2.1 2.4-5 3.1-8.6.3-1.9.4-3.6.4-5 0-2-.3-3.7-.8-5-.6-1.7-6.3-6.7-9.3-8.7.1.2.2.3.4.5.7 1 1.4 1.8 1.4 2.6 0 .1 0 .3-.2.6-.2.2-.4.3-.6.4h-.1c-1.5.2-2.9.5-4.2.8-.6.1-1.4.4-2.4.7-1 .3-2 .7-3 1-1 .4-2 .7-3 1-.8.3-1.4.5-2 .6l-11.7 37 6.7 5.2 8.3-2 .7-5.9-.5-.4c-.1-.1-.2-.3-.1-.5l1-2.7.4-3.3c0-.3.2-.5.5-.6l1-.2c.2 0 .3 0 .4.1.1.1.1.3 0 .5l-1.3 3.5-.3 3 6.3 4.7z"/><g><path class="st184" d="M124.6 111.3l-9.9 2.3-4.7-11.8-1 .2-1.5 13.3-9 2.1 4.8-43.2c.6-.1 1.3-.4 2.3-.7 1-.3 1.9-.7 3-1 1-.4 2-.7 3-1 1-.3 1.8-.6 2.5-.7 1.3-.3 2.8-.6 4.3-.8 1.5-.2 2.9-.1 4.2.3 2.1.7 3.7 2.1 4.6 4.5.9 2.3 1 5.7.4 10.3-.7 3.7-1.8 6.7-3.2 8.9-1.4 2.2-3.1 3.9-5.1 5l5.3 12.3zM109.8 95c1.3.2 2.5.1 3.5-.4s1.9-1.2 2.7-2.1c.8-.9 1.4-2 1.8-3.3.4-1.3.7-2.6.9-3.9.1-.9.1-1.8 0-2.7-.1-.9-.3-1.6-.6-2.3-.3-.6-.8-1.1-1.4-1.4-.6-.3-1.4-.3-2.3-.1-1 .2-2 .6-3 1L109.8 95z"/><path class="st183" d="M114.7 114.2c-.2 0-.4 0-.5-.2l-4.6-11.5h-.2l-1.4 12.8c0 .3-.2.5-.5.6l-9 2.1c-.1 0-.3 0-.4-.1-.1-.1-.1-.2-.1-.4l4.8-43.2c0-.3.2-.5.5-.6.6-.1 1.3-.4 2.3-.7 1-.3 1.9-.7 2.9-1 1-.4 2-.7 3-1 1-.3 1.8-.6 2.5-.7 1.4-.3 2.8-.6 4.3-.8 1.6-.2 3-.1 4.4.3 2.3.7 3.9 2.3 4.8 4.7.5 1.4.8 3.2.8 5.3 0 1.5-.1 3.3-.4 5.2-.7 3.8-1.8 6.8-3.3 9.1-1.4 2.1-3 3.7-4.9 5l5.2 11.9-.5.3v-.5.5l.5-.3c.1.1 0 .3-.1.5s-.2.3-.4.3l-9.7 2.4zm-4.7-12.9c.2 0 .4 0 .5.2l4.6 11.5 8.8-2.1-5.2-11.7c-.1-.1 0-.3 0-.4.1-.1.2-.3.3-.3 1.9-1.1 3.5-2.7 4.9-4.8 1.4-2.1 2.4-5 3.1-8.6.3-1.9.4-3.6.4-5 0-2-.3-3.7-.8-5-.9-2.2-2.3-3.6-4.3-4.2-1.2-.4-2.6-.5-4-.3-1.5.2-2.9.5-4.2.8-.6.1-1.4.4-2.4.7-1 .3-2 .7-3 1-1 .4-2 .7-3 1-.7.2-1.4.4-1.9.6l-4.7 42.1 8-1.9 1.4-12.8c0-.3.2-.5.5-.6l1-.2zm-.4-5.8c-.2 0-.3-.2-.3-.4l1.7-15.2c0-.2.2-.4.4-.5 1-.4 2-.8 3.1-1 1-.2 1.9-.2 2.6.1.7.3 1.2.9 1.5 1.6.3.7.6 1.5.6 2.4v1.1c0 .5 0 1.1-.1 1.6-.1 1.4-.5 2.7-.9 4-.5 1.3-1.1 2.5-1.9 3.5-.8 1-1.8 1.8-2.9 2.3-.4.2-.7.3-1.1.4-.8.3-1.7.3-2.7.1zm2.7-1l.9-.3c.9-.5 1.7-1.1 2.5-1.9.7-.9 1.3-1.9 1.7-3.1.4-1.2.7-2.5.9-3.8.1-.5.1-1 .1-1.5v-1.1c-.1-.8-.2-1.5-.5-2.1-.3-.6-.7-1-1.2-1.3-.5-.2-1.1-.3-2-.1-.8.2-1.7.5-2.5.8l-1.6 14.4c.5.1 1.1.1 1.7 0z"/></g></g><g><path class="st183" d="M137.1 114.6l-7.1-5.4 11.9-37.7 11.8-9.9 7.1 5.4-.9 8.1-9.7 2.3-1.1 9.4 2.1-7.6 7.1 5.4-.9 7.7-9.2 2.2-1.1 9.4 2.6-7.7 7.1 5.4-.9 8.4-18.8 4.6z"/><path class="st183" d="M137.1 115.1v-.5l.4-.4-.4.4v.5l-.4-.1-7.1-5.4c-.1-.1-.2-.3-.1-.5l11.9-37.7.2-.3 11.8-9.9c.2-.2.5-.2.6-.1l7.1 5.4.1.4-.9 8.1c0 .3-.2.5-.5.6l-9.3 2.2-.4 3.2.5-1.8c.1-.2.2-.3.4-.4.2-.1.4-.1.5 0l7.1 5.4.1.4-.9 7.7c0 .3-.2.5-.5.6l-8.8 2.1-.5 4.6 1.1-3.4c.1-.2.2-.3.4-.4.2-.1.3-.1.5 0l7.1 5.4.1.4-.9 8.4c0 .3-.2.5-.5.6l-18.7 4.5zm18.5-5.4l.9-7.7-6.4-4.9-2.3 6.9c-.1.3-.3.5-.6.5-.2 0-.4-.2-.4-.5l1.1-9.4c0-.3.2-.5.5-.6l8.8-2.1.8-7-6.3-4.8-1.9 6.7c-.1.3-.3.5-.6.5s-.4-.2-.4-.5l1.1-9.4c0-.3.2-.5.5-.6l9.3-2.2.8-7.4-6.7-5.1-11.3 9.5-11.8 37.2 6.7 5.1 18.2-4.2z"/><g><path class="st184" d="M130 109.2l4.8-43.2 19-4.5-.9 8.1-9.7 2.3-1.1 9.4 9.2-2.2-.9 7.7-9.2 2.2-1.1 9.4 9.7-2.3-.9 8.4-18.9 4.7z"/><path class="st183" d="M130 109.7v-.5l.5-.1-.5.1v.5c-.1 0-.3 0-.4-.1-.1-.1-.1-.2-.1-.4l4.8-43.2c0-.3.2-.5.5-.6l19-4.5c.1 0 .3 0 .4.1.1.1.1.2.1.4l-.9 8.1c0 .3-.2.5-.5.6l-9.3 2.2-.9 8.4 8.7-2.1c.1 0 .3 0 .4.1.1.1.1.2.1.4l-.9 7.7c0 .3-.2.5-.5.6l-8.8 2.1-.9 8.4 9.1-2.2c.1 0 .3 0 .4.1.1.1.1.2.1.4l-.9 8.4c0 .3-.2.5-.5.6l-19 4.5zm18.5-5.4l.8-7.4-9.1 2.2c-.1 0-.3 0-.4-.1-.1-.1-.1-.2-.1-.4l1.1-9.4c0-.3.2-.5.5-.6l8.8-2.1.7-6.7-8.7 2c-.1 0-.3 0-.4-.1-.1-.1-.1-.2-.1-.4l1.1-9.4c0-.3.2-.5.5-.6l9.3-2.2.8-7.1-17.9 4.2-4.7 42.1 17.8-4z"/></g></g></g></g></svg>