<svg xmlns="http://www.w3.org/2000/svg" viewBox="0 0 203.5 119.8"><style>.st79{fill:#fbb040}.st81{fill:#272223}.st305{fill:#ae8162}.st306{fill:#9b6b4b}.st307{fill:#414042}.st308{fill:#58595b}.st309{fill:#bcbec0}.st310{fill:#dd4a4a}.st311{fill:#9b6c4c}.st312{fill:#e6e7e8}</style><g id="Layer_1"><path class="st305" d="M152.5 90.2v-9.5l-13.3 9.5-13.2-9.5v9.5c0 4.1-4.2 4.1-4.2 4.1l17.4 17.4 17.4-17.4c.1 0-4.1 0-4.1-4.1z"/><path class="st306" d="M152.5 81l-13.3 9.5L126 81v9.9c7.3 3.3 13.3 3.5 13.3 3.5s6-.3 13.3-3.5V81z"/><path class="st307" d="M126.6 119.8l-29.7-15.1c-3 1.3-10 4.8-13.6 7.7-2.7 2.2-5.6 4.9-8.2 7.4h51.5zM203.5 119.8c-2.5-2.5-5.5-5.2-8.2-7.4-3.7-3-10.7-6.4-13.6-7.7L152 119.8h51.5z"/><path class="st307" d="M114.1 119.8h50.3c6.8-3.8 12.8-8.9 17.3-15.1l-22.9-9.6h-2.1l-5.6 6.4c-6.3 7.1-17.3 7.1-23.6 0l-5.6-6.4h-2.1l-22.9 9.6c4.5 6.2 10.4 11.4 17.2 15.1z"/><path class="st308" d="M109.8 109l18.4 10.8h11.1v-17.2l-22.1-6.4-13 5.4 10.3 1.8z"/><path class="st309" d="M139.1 119.8l-.5-16.8-11.3 6.6 7.3 10.2z"/><path class="st308" d="M150.3 119.8l18.5-10.8-4.7-5.6 10.3-1.8-13-5.4-22.1 6.4v17.2z"/><path class="st309" d="M143.9 119.8l7.3-10.2L140 103l-.5 16.8z"/><path class="st310" d="M135.8 119.8h6.9l-1.1-12.9-2.3-2.1v-.1h-.1v.1l-2.2 2.1z"/><path class="st310" d="M139.3 102.6h-4.9l2.6 5.8h4.6l2.4-5.8z"/><g><ellipse class="st311" cx="106" cy="48.1" rx="9.1" ry="10.5"/><ellipse class="st311" cx="173.1" cy="48.1" rx="9.1" ry="10.5"/><path class="st305" d="M139.5 0C121 0 106 15 106 33.5v26.6c0 18.5 21.2 32.7 33 32.7 11.5 0 34.1-14.2 34.1-32.7V33.5C173.1 15 158 0 139.5 0z"/><path class="st81" d="M166.3 62.9c-2.3 4.9-6.5 9.7-12.5 9.4-3-.2.6-4.5-2.4-6.3-2.2-1.4-21.6-1.4-23.8 0-3 1.8.5 6.1-2.4 6.3-5.9.3-10.1-4.5-12.5-9.4-2.2-4.7-6.7-6.3-6.7-6.3s-1.2 10.4 3.6 17.8c7.2 11 17.9 16.1 24.1 19.1.6.3 1.2.5 1.8.7 1.3.4 2.7.6 4 .6 1.4 0 2.7-.2 4-.6.6-.2 1.2-.4 1.8-.7 6.2-2.9 16.9-8.5 24.1-19.5 4.8-7.4 3.6-17.3 3.6-17.3s-4.4 1.6-6.7 6.2zm-16.7 14.3c0 .8-3.8 3.6-7.6 3.7 0 0-.2-.5-.5-2-.1-.6-.4-.9-.8-1.1-1.3-.4-3.2-.2-3.4 1.1-.2 1.6-.5 2-.5 2-3.8-.1-7.6-2.8-7.6-3.7 0-.8-.2-7 0-8.8.1-1.1 9-.1 10.1-.3 1.2.1 10-.8 10.1.3.4 1.8.2 8 .2 8.8zM130.5 49.3c-.6 0-1.1-.4-1.2-1-.2-1.2-1.5-3.4-5-3.4-4.5 0-5.4 3.1-5.4 3.2-.2.6-.8 1-1.5.8-.6-.2-1-.8-.8-1.4.4-1.7 2.6-5 7.7-5 4.4 0 6.9 2.8 7.4 5.4.1.6-.3 1.3-1 1.4h-.2zM149 49.3h-.2c-.6-.1-1.1-.7-1-1.4.5-2.6 3-5.4 7.4-5.4 5.1 0 7.3 3.3 7.7 5 .2.6-.2 1.3-.9 1.5-.6.2-1.3-.2-1.4-.8 0-.2-1-3.2-5.4-3.2-3.5 0-4.8 2.2-5 3.4-.1.5-.6.9-1.2.9z"/><path class="st306" d="M148 58.1c0-.9-1.3-1.8-2.7-2.4-1.8-.8-3.3-2.1-4.6-3.5-.9-1.1-1.8-.9-2.7.2-1.2 1.5-2.8 2.6-4.5 3.4-1.3.6-2.5 1.4-2.5 2.3 0 1.9 1.5 3.4 3.3 3.5.9 2 2.9 3.4 5.2 3.4 2.3 0 4.3-1.4 5.2-3.4 1.9-.2 3.3-1.7 3.3-3.5z"/><g><path d="M139.7 74.5c-5.3 0-9.2-2.8-9.2-2.8-.5-.4-.6-1.1-.3-1.7.4-.5 1.1-.6 1.7-.3.3.2 7.4 5.2 15.4 0 .6-.4 1.3-.2 1.7.3.4.6.2 1.3-.3 1.7-3.3 2.1-6.4 2.8-9 2.8z" fill="#dc9b80"/></g><path class="st306" d="M140.8 59h-2.5c-1.6 0-3-1.3-3-3v-9.5c0-1.6 1.3-3 3-3h2.5c1.6 0 3 1.3 3 3V56c0 1.6-1.4 3-3 3z"/><g><path class="st79" d="M106.8 41.2L112 39l-.8 4.8-5.7 1.1-.2-1c-.2-1.1.4-2.2 1.5-2.7zM172.3 41.2L167 39l.7 4.5 5.7 1.5.2-1c.3-1.2-.3-2.3-1.3-2.8zM134.2 42c.2 1 .2 2 .1 3.1 2-.3 6.5-.8 10.6.2 0-1 .1-1.9.5-2.8-2-1-5.9-2-11.2-.5z"/><path class="st79" d="M135.5 43.7V43c0-.2-.5-4.9-8.3-5.4-7-.5-14.9.3-15.3.4-.3 0-.6.2-.8.5-.1.1-.5 1-.7 3h-.1v.8s.1 0 .1-.1l1.1 8.4c.4 2.8 3 5 6.1 5h9.9c2.8 0 5.3-1.8 6-4.3l2.2-7.6h-.2zm-4.2 7.1c-.4 1.6-2 2.6-3.7 2.6h-9.9c-1.9 0-3.6-1.3-3.8-3.1l-1.3-9.1h-.1c.1-.6.2-1 .3-1.3 2-.2 8.6-.7 14.3-.3 5.7.4 6.3 3.2 6.4 3.5v.2l-2.2 7.5zM143.3 43.7l2.2 7.6c.7 2.5 3.2 4.3 6 4.3h9.9c3.1 0 5.7-2.1 6.1-5l1.1-8.4s.1 0 .1.1v-.8h-.1c-.2-2-.7-2.9-.7-3-.2-.3-.5-.5-.8-.5-.3 0-8.3-.9-15.3-.4-7.8.5-8.3 5.2-8.3 5.4v.7h-.2zm2.3-.4v-.2c.1-.3.7-3.1 6.4-3.5 5.7-.4 12.2.1 14.3.3.1.3.2.7.3 1.3h-.1l-1.3 9.1c-.2 1.8-1.9 3.1-3.8 3.1h-9.9c-1.7 0-3.3-1.1-3.7-2.6l-2.2-7.5z"/></g></g><path class="st312" d="M139.3 102.6l-15.7 7.9-6.4-14.3 4.6-4.9zM139.3 102.6l15.6 7.9 6.5-14.3-4.7-4.9z"/><g><path class="st310" d="M27.2 57.2c-2.1.3-3.9.4-5.4.3-1.5-.1-2.9-.4-4-.7-1.1-.4-2.1-.9-3-1.4-.6-.4-1.2-.8-1.8-1.3l-.4.4c-.4.4-.8.7-1.3.9-1.4.9-2.6 1.5-3.7 1.9-.8.3-1.5.4-2.1.5-.3 0-.5.1-.8.1-.8 0-1.5-.1-2.1-.3-.5-.2-.9-.4-1.2-.7-.7-.6-1.1-1.4-1.3-2.3-.2-.9 0-1.9.4-2.8.5-1 1.2-1.9 2.3-2.7.8-.6 1.9-1.1 3.1-1.2.4-.1.7-.1 1.1-.1 1.5 0 2.7.2 3.7.6.6.3 1.3.6 1.8.9.7-1.1 1.3-2.3 1.9-3.7.8-1.8 1.5-3.8 2.1-5.9.6-2.1 1.2-4.3 1.7-6.5.5-2.1 1-4.1 1.4-6-.3.1-.5.2-.7.2-.7.2-1.4.3-1.9.4-.3 0-.5.1-.7.1-.2 0-.4.1-.6.1h-.4c-.4 0-.8-.1-1.1-.4-.4-.3-.5-.8-.5-1.3.1-.5.3-.9.6-1.3.3-.3.8-.5 1.2-.6h.7c.1 0 .3 0 .5-.1.2 0 .4-.1.7-.1.5-.1 1.1-.3 1.8-.5.5-.1 1-.3 1.6-.6.4-1.7.8-3.3 1.2-4.7.4-1.6.9-3 1.3-4.1.5-1.2 1-2.1 1.6-2.8.7-.8 1.5-1.3 2.4-1.5h.2c2.2-.3 3.8.1 4.8 1.3.4.5.6 1 .8 1.5.1.5.2 1 .2 1.4 0 .5 0 .9-.1 1.2 0 .1-.1.2-.1.3 0 .2-.1.4-.2.6-1.2 2.4-2.7 4.5-4.4 6-1.5 1.4-3.1 2.4-4.6 3.2 0 .2-.1.3-.1.5-.1.3-.2.7-.3 1-.5 2.1-1 4.4-1.5 6.7s-1.2 4.6-1.8 6.8c-.7 2.2-1.5 4.3-2.3 6.3-.7 1.6-1.5 3.1-2.3 4.4.5.4 1 .7 1.6 1.1.7.4 1.4.8 2.3 1.1.9.3 2 .5 3.2.6 1.3.1 2.8 0 4.6-.2 2.4-.3 4.5-.8 6.1-1.2 1.7-.5 3-1 4-1.4 1-.4 2-1 2.9-1.6.2-.2.5-.3.9-.4h.4c.4 0 .8.2 1.1.5.5.7.4 1.7-.4 2.4-.1.1-.2.2-1 .7-.6.4-1.5.9-2.7 1.4-1.2.5-2.7 1.1-4.6 1.6-1.9.6-4.2 1-6.8 1.4zm-21-5.8c-.6.1-1.1.3-1.5.5-.4.2-.6.5-.8.9-.3.6-.1.9.2 1.2.3.3.8.4 1.5.3.1 0 .3 0 .4-.1 1.1-.2 2.4-.8 3.8-1.8.1-.1.3-.2.4-.3-.3-.2-.6-.3-1-.4-.7-.2-1.5-.4-2.4-.4h-.2l-.4.1zm21.3-37.9c-.1.1-.2.2-.3.4-.3.5-.6 1.3-.9 2.2-.3.9-.7 2-1 3.2-.1.5-.3 1.1-.4 1.6.6-.4 1.2-.9 1.7-1.5 1.2-1.1 2.2-2.5 3-4.2 0-.1 0-.3.1-.7 0-.3-.1-.5-.2-.7-.4-.4-1.2-.4-2-.3z"/><path class="st310" d="M33.2 51.3c-2 .3-3.5-.2-4.5-1.4-.9-1-1.3-2.5-1.3-4.3 0-1.1.2-2.3.5-3.6.3-1.2.7-2.5 1.2-3.8 0-.2.1-.4.2-.6.6-1.3 1.3-2.7 2.1-3.9.8-1.3 1.7-2.6 2.7-3.7 1-1.1 2.1-2.1 3.2-2.8 1.2-.8 2.4-1.3 3.6-1.4 1.2-.2 2.1.1 2.9.7.8.7 1.2 1.9 1.2 3.4 0 1.9-.6 3.6-1.7 5.2-.3.4-.6.8-1 1.3s-.9.9-1.5 1.4c-.6.4-1.2.9-1.9 1.3s-1.6.8-2.5 1.1c-.8.3-1.6.5-2.2.6-.5.1-.9.1-1.3.1s-.8-.1-1.1-.1c-.2.6-.4 1.2-.5 1.8-.2.9-.3 1.7-.3 2.5 0 1.1.2 1.8.6 2.2.2.2.5.6 1.7.5 1.3-.2 2.4-.5 3.5-1.1 1.1-.6 2.1-1.2 3.1-2s1.8-1.6 2.6-2.5c.8-.9 1.5-1.9 2.1-2.8.6-.9 1.2-1.8 1.6-2.6.5-.8.9-1.6 1.2-2.2.2-.4.6-.8 1.1-1 .2-.1.3-.1.5-.1.3 0 .6 0 .9.2.4.2.7.5.8.9.1.4.1.9-.2 1.4-.3.7-.8 1.4-1.3 2.4-.5.9-1.2 1.9-1.9 3-.7 1-1.5 2.1-2.5 3.2-.9 1.1-2 2.1-3.1 3-1.2.9-2.4 1.7-3.8 2.4-1.6.6-3.1 1-4.7 1.3zm.1-14h.6c.4-.1 1-.2 1.6-.4 1.4-.5 2.4-1 3.2-1.7.8-.7 1.4-1.3 1.8-1.9.7-.9 1-1.8 1-2.9 0-.6-.1-.9-.2-1-.1 0-.2-.1-.4 0-.7.1-1.4.4-2.1.9-.8.5-1.6 1.2-2.3 2-.8.7-1.5 1.6-2.1 2.7-.5.7-.9 1.5-1.3 2.3h.2z"/><path class="st310" d="M49.5 49.1c-.8.2-1.5.2-2 0-.4-.2-.8-.5-1.1-.8-.5-.6-.8-1.5-.8-2.8 0-1.1.1-2.3.4-3.8.2-1.4.6-3 1.1-4.7.5-1.7 1-3.4 1.6-5.2.6-1.8 1.2-3.6 1.9-5.4.5-1.4 1.1-2.9 1.6-4.3-.1 0-.1 0-.2-.1-.3-.2-.7-.3-1.2-.5l-2-.9c-.9-.4-1.5-.4-1.8-.4-.2 0-.4.1-.6.1-.2.1-.4.1-.5.2-.4.2-.5.4-.6.5-.2.2-.3.4-.3.5-.2.4-.6.7-1 .9-.1 0-.2.1-.2.1-.4.1-.8.1-1.2-.2-.3-.2-.6-.5-.7-.9-.1-.5 0-1 .3-1.5.7-1 1.4-1.7 2.1-2.2.5-.3 1.1-.6 1.8-.8.3-.1.6-.1.9-.2 1.1-.2 2.2 0 3.6.6.4.2.8.3 1.1.5.3.1.6.3.9.5.4.2.7.3 1 .4.7-1.7 1.3-3.2 1.8-4.6.7-1.6 1.2-2.9 1.6-3.7.2-.5.5-.8 1-1 .1-.1.2-.1.4-.1.3-.1.6-.1.9 0h.2c.4.2.6.5.8.9.2.4.1.9-.1 1.4-.5 1.2-1.1 2.5-1.6 3.8l-1.2 3c.2.1.3.3.4.5.3.5.2 1 .1 1.4-.1.5-.4.9-.8 1.2-.5.3-.9.6-1.3.8-.7 1.7-1.3 3.4-1.9 5.1-.7 1.9-1.3 3.7-1.8 5.4-.6 1.7-1.1 3.4-1.5 4.9-.4 1.5-.8 2.9-1 4.1-.2 1.2-.4 2.2-.4 3 0 .5 0 .8.1.9.2-.1.6-.4 1.3-1.3.8-1 1.5-2.2 2.3-3.5.8-1.4 1.6-2.9 2.3-4.5.8-1.6 1.4-3.1 1.9-4.4.2-.5.5-.9.9-1.1.1-.1.3-.2.5-.2.3-.1.6-.1.9 0 .4.2.7.5.9.8.2.4.2 1 0 1.4-.2.4-.4 1-.8 1.9-.4.9-.8 1.9-1.4 3-.5 1.1-1.1 2.3-1.8 3.5-.7 1.2-1.3 2.3-2 3.4s-1.5 2-2.2 2.8c-1 .8-1.8 1.4-2.6 1.6z"/><path class="st310" d="M59.9 26.4c-.6.1-1.1-.1-1.5-.5-.3-.4-.3-.9-.2-1.4.1-.4.4-.8.7-1.1.8-.6 1.3-1.2 1.7-1.8.3-.6.6-1.1.6-1.6.1-.4.1-1 0-1.6-.1-.5 0-1 .2-1.3.2-.3.5-.7 1.1-1 .2-.1.4-.1.5-.1.3 0 .5 0 .8.1.5.1.8.5.9 1 .1.4.2 1 .2 1.7s-.1 1.4-.4 2.3c-.3.8-.7 1.7-1.3 2.5-.6.9-1.4 1.7-2.4 2.5-.3.1-.6.3-.9.3zM65 48.7c-1 .1-1.8.1-2.4-.2-.5-.3-1-.6-1.3-1-.6-.9-.8-1.9-.6-3.2.2-1.2.6-2.4 1.4-3.7.9-1.6 2.2-3.1 3.9-4.6 1.4-1.2 3-2.3 4.8-3-.2-.6-.4-1.1-.6-1.5-.5-.9-.8-1.8-.8-2.6-.7.7-1.3 1.5-1.8 2.3-.5.8-1 1.6-1.4 2.4-.4.8-.7 1.5-1 2-.2.4-.5.8-1 1-.2.1-.4.2-.6.2H62.8c-.4-.2-.7-.5-.8-.8-.2-.4-.1-1 .1-1.4l.4-.8c.2-.5.6-1.2 1-1.9.4-.8.9-1.6 1.5-2.4.6-.9 1.3-1.7 2-2.5.8-.8 1.6-1.5 2.5-2.1.9-.6 2-1 3-1.2l.4-.1h.1c.8 0 1.3.4 1.5 1 .2.7 0 1.4-.5 1.9l-.4.4c-.1.1-.2.3-.4.6-.2.1-.2.5-.3.8 0 .3.1.6.3.9.3.5.5 1 .8 1.7.1.3.2.6.3 1l1.2-.3c.2 0 .4-.1.6-.1.6-.1 1.2-.1 1.8-.1h.1c.4 0 .8.2 1.1.5.3.4.4.9.3 1.4 0 .4-.3.8-.6 1.1-.3.3-.7.5-1.1.5h-.2c-.5 0-.9 0-1.3.1-.2 0-.3 0-.4.1-.3.1-.6.1-.9.2 0 .9 0 1.9-.2 2.9-.2 1.3-.6 2.6-1.1 3.9-1.5 3.2-3.9 5.4-7.3 6.4-.2.1-.4.1-.6.2H65zm6.2-12.1c-1.2.6-2.2 1.3-3.2 2.1-1.3 1.1-2.2 2.3-2.9 3.5-.4.8-.7 1.5-.9 2.1-.1.4-.1.7 0 .8.1.1.1.1.3.1h.4c.3 0 .5-.1.7-.2 2.2-.6 3.7-1.9 4.6-4 .4-.9.7-1.8.8-2.8.2-.5.2-1.1.2-1.6zM8.8 108.2c-1 .1-1.9.2-2.9.1s-1.9-.4-2.7-.8c-2.2-1.3-3.2-3.6-3.2-7 0-.3.1-1 .6-3.1.4-1.6 1-3.6 2-6.1.9-2.4 2.3-5.2 3.9-8.3 1.6-3.1 3.8-6.4 6.4-9.9 1.3-1.7 2.7-3.3 4.2-4.9 1.5-1.6 3.1-2.9 4.8-4.1 1.7-1.2 3.3-2 4.9-2.6.6-.2 1.3-.4 1.9-.5 1-.1 2-.1 2.9.1 1.7.4 2.9 1.4 3.4 2.9.3.9.4 1.9.3 3-.1 1-.3 1.9-.5 2.8s-.5 1.6-.8 2.2c-.3.6-.4.9-.5 1-.2.4-.6.7-1 .9-.2.1-.3.1-.5.1-.3 0-.6 0-.9-.1-.4-.2-.7-.5-.8-1-.1-.4-.1-.9.1-1.3.4-.9.8-1.7 1-2.4.2-.6.4-1.3.4-2 .1-.6 0-1.2-.1-1.7-.2-.6-.7-.9-1.4-1.1-.5-.1-1-.1-1.6 0-.4.1-.8.1-1.2.3-1.1.4-2.4 1-3.7 1.9-1.3.9-2.7 2.1-4.1 3.5-1.4 1.4-2.8 3-4.1 4.8-2.4 3.2-4.5 6.4-6 9.3C8 87.1 6.8 89.7 5.9 92 5 94.3 4.4 96.2 4 97.6c-.5 1.9-.5 2.4-.5 2.4 0 2.2.6 3.6 1.7 4.3.6.4 1.3.5 2.1.5.5 0 1 0 1.5-.1.4-.1.8-.1 1.2-.2.9-.2 1.8-.5 2.6-.8.8-.3 1.5-.6 2-.9 1.7-.8 3.3-1.7 4.7-2.8 1.5-1 2.8-2.1 4.1-3.2 1.2-1.1 2.4-2.1 3.3-3.2 1-1 1.8-2 2.5-2.8.7-.8 1.2-1.5 1.6-1.9.4-.6.6-.9.7-.9.2-.3.6-.6 1-.7.1 0 .2-.1.3-.1.4-.1.8 0 1.1.2.4.2.6.6.7 1 .1.5-.1.9-.3 1.3-.1.1-.2.4-.7 1-.4.6-1 1.3-1.8 2.2-.8.9-1.7 1.9-2.7 3-1.1 1.1-2.3 2.3-3.6 3.4-1.3 1.2-2.8 2.3-4.4 3.4-1.6 1.1-3.3 2.1-5.2 3-.9.4-1.9.9-3.1 1.3-1.3.7-2.6 1-4 1.2z"/><path class="st310" d="M43.1 101c-.7.1-1.3 0-1.7-.2-.4-.2-.6-.4-.8-.7-1-1.5-.5-4 1.6-7.9 1.1-2.1 2-3.9 2.5-5.3s.9-2.6 1-3.4c.2-1 .1-1.5.1-1.8-.1-.5-.3-.7-.3-.8-.2-.2-.4-.3-.7-.3h-.6c-.2 0-.3.1-.5.1-.7.3-1.5.8-2.3 1.5-.9.8-1.7 1.7-2.6 2.7-.9 1-1.7 2.2-2.5 3.4-.8 1.2-1.6 2.5-2.4 3.7-.8 1.2-1.5 2.4-2.1 3.6-.6 1.2-1.2 2.2-1.7 3.2l-1.6 3.3c-.3.5-.6.8-1 1-.2.1-.3.1-.5.1-.3 0-.6 0-.8-.1-.4-.1-.8-.5-.9-.9-.1-.4-.1-.8.1-1.3v-.1l.1-.1c.1-.1.2-.4.5-1 .3-.7.7-1.5 1.3-2.6L44 63c.3-.5.6-.8 1.1-1 .2-.1.3-.1.5-.1.3 0 .6 0 .8.1.4.1.7.4.9.8.2.5.1 1-.1 1.5l-7.4 15c1-.8 2.1-1.5 3.1-1.9.4-.2.9-.3 1.4-.4.4-.1.9-.1 1.4 0 1.1.1 2 .5 2.7 1.3 2.1 2.5 1.1 7.5-3 15.3-.5 1-.9 1.8-1.1 2.4-.2.6-.3 1-.4 1.4.3-.1.6-.3 1.1-.7.8-.5 1.6-1.3 2.5-2.3.9-1 1.9-2.3 2.9-3.8s1.8-3.2 2.6-5.2c.2-.5.5-1 1-1.2.2-.1.4-.2.6-.2h.7c.4.1.8.4.9.8.2.4.2.9 0 1.4-.9 2.2-1.9 4.3-3 6-1.1 1.7-2.3 3.3-3.4 4.5-1.1 1.3-2.3 2.3-3.3 3-1.1.8-2.1 1.2-2.9 1.4l-.5-.1z"/><path class="st310" d="M64.2 98c-1 .1-1.8 0-2.4-.3-.5-.3-.9-.7-1.1-1.1-.2-.3-.3-.6-.4-.9-.5.6-1.1 1.2-1.6 1.7-1.3 1.2-2.5 1.8-3.8 2-.8.1-1.5.1-2.1-.1-.7-.2-1.2-.6-1.7-1.2-.7-.8-1.1-2-1.1-3.6 0-1.2.2-2.5.5-3.9.4-1.4.9-2.9 1.5-4.3a30 30 0 012.3-4.3c.9-1.4 1.8-2.7 2.9-3.9 1.1-1.2 2.2-2.1 3.3-2.9 1.2-.8 2.5-1.3 3.8-1.5.8-.1 1.5 0 2.1.2.5.2.9.5 1.1.9.1.1.2.3.3.5.3-.6.8-1.3.8-1.3v-.1c.3-.4.6-.6 1-.8.2-.1.3-.1.4-.1.3 0 .7 0 1 .2.4.2.7.5.8 1 .1.4 0 .9-.2 1.3-.8 1.3-1.6 2.8-2.5 4.3-.8 1.5-1.6 3.1-2.4 4.8-.2.5-.5 1.1-.7 1.7-.3.6-.5 1.2-.8 1.8-.7 1.6-1.2 3.1-1.4 4.4-.3 1.4-.2 2-.1 2.2h.4c.1 0 .6-.2 1.6-1.2.9-.9 1.8-2 2.8-3.3 1-1.3 2-2.8 2.9-4.2.9-1.5 1.8-2.9 2.5-4.1.2-.5.6-.8 1.1-1 .1 0 .2-.1.4-.1.3 0 .6 0 .9.1.4.2.7.5.8.9.1.4.1.9-.2 1.4-.3.4-.6 1-1.1 1.9-.5.9-1.1 1.8-1.8 2.9-.7 1-1.4 2.1-2.2 3.3-.8 1.1-1.6 2.2-2.5 3.2-.8 1-1.7 1.8-2.6 2.5-.6.4-1.6.9-2.5 1zm.2-20.9c-.8.1-1.6.4-2.4 1-.9.6-1.7 1.4-2.5 2.3-.8 1-1.6 2-2.3 3.2-.7 1.2-1.4 2.4-1.9 3.7-.5 1.2-1 2.4-1.3 3.6-.3 1.1-.4 2.1-.4 3 0 .8.1 1.4.4 1.7.1.1.3.3.9.2.2 0 .6-.2 1.3-.7.6-.5 1.3-1.2 1.9-2 .7-.8 1.4-1.8 2.1-2.9.7-1.1 1.3-2.2 1.9-3.3.3-.7.6-1.4.9-2 .3-.7.6-1.4 1-2.1.3-.8.6-1.7.8-2.5.2-.8.3-1.5.3-2.1 0-.7-.2-.9-.2-1-.2-.1-.3-.1-.5-.1z"/><path class="st310" d="M73.5 96.7c-.8.1-1.5 0-2-.3-.4-.3-.7-.6-.9-.9-.4-.7-.6-1.6-.4-2.9.1-1.1.4-2.3.9-3.7.4-1.4 1-2.9 1.7-4.5s1.4-3.3 2.2-5c.8-1.7 1.7-3.4 2.6-5.1.7-1.4 1.4-2.7 2.2-4-.1 0-.1-.1-.2-.1-.3-.2-.7-.4-1.1-.7l-1.8-1.2c-.8-.5-1.4-.6-1.7-.6h-.6c-.2 0-.4.1-.5.1-.4.2-.6.3-.6.4-.2.2-.3.4-.4.4-.2.3-.7.6-1.1.7h-.2c-.4.1-.8 0-1.1-.3-.3-.2-.5-.6-.6-1-.1-.5.1-1 .5-1.4.8-.9 1.6-1.5 2.4-1.9.5-.3 1.2-.5 1.9-.6.3 0 .6-.1.9-.1 1.1 0 2.2.3 3.5 1.1.4.2.8.4 1.1.6.3.2.6.4.8.6.4.2.7.4 1 .5.9-1.6 1.7-3 2.4-4.3.9-1.5 1.6-2.7 2-3.4.3-.4.6-.7 1.1-.9.1 0 .2-.1.4-.1.3 0 .6 0 .9.1h.2c.3.2.6.6.7 1 .1.4 0 .9-.3 1.4-.7 1.1-1.4 2.3-2.1 3.6-.5.9-1.1 1.8-1.6 2.8.2.2.3.3.4.6.2.5.1 1 0 1.4-.2.4-.5.8-.9 1-.5.3-1 .4-1.3.6-.9 1.6-1.7 3.2-2.6 4.8-.9 1.7-1.8 3.5-2.5 5.1-.8 1.6-1.5 3.2-2.1 4.7-.6 1.5-1.2 2.8-1.6 4-.4 1.1-.7 2.1-.8 2.9-.1.5-.1.8-.1.9.2-.1.7-.3 1.5-1.1.9-.9 1.8-1.9 2.7-3.2 1-1.3 1.9-2.7 2.9-4.1 1-1.5 1.8-2.8 2.5-4.1.2-.4.6-.8 1.1-1 .2-.1.3-.1.5-.1.3 0 .6 0 .9.2.4.2.7.6.8 1 .1.5.1 1-.2 1.4-.2.4-.6 1-1 1.8-.5.8-1.1 1.8-1.7 2.8-.7 1-1.4 2.1-2.2 3.2-.8 1.1-1.6 2.1-2.5 3.1-.8 1-1.7 1.8-2.6 2.5-1.6.7-2.5 1.2-3.4 1.3z"/></g></g></svg>