<svg xmlns="http://www.w3.org/2000/svg" viewBox="0 0 193.9 110.8"><style>.st0{fill:#fff}.st12{fill:#647b91}</style><g id="Layer_1"><path fill="#c65c5c" d="M92.2 59.8l.9-26.1 11 12.1L99 58.4z"/><path d="M193.9 26.5C139.7 7.2 100.6 16 100.6 16L97 51.6c.4 1.8-1.5 3.9-1.9 4.3-1.2 1.3-3.2 2.5-2.8 4.2.5 1.9 4.7 3.3 19.2 0 54.9-12.3 80.2 6.8 80.2 6.8l2.2-40.4z" fill="#ed7272"/><path class="st12" d="M2.4 10.4l19.7 100.4H30L5.2 9.6s-2-3.2-2.8.8z"/><path fill="#86a6bf" d="M19.2 90.3l-5-24.3 7.1 25.8z"/><path d="M3.1 17.2c-4.8 8 1.5 14.3 4 24.7 2.2 9 1.6 24.5 5.6 24.5.5-.9-5.3-5.6 42.9-16.4 37.9-8.5 40.6-1.7 41.3 1.6l3.6-35.6c.7-6.6.6-12.3-6.9-14.6-19.8-6-67.4 8.6-86.7 14.2-4.2 1.2-3.8 1.6-3.8 1.6z" fill="#ff7d7d"/><g><path class="st0" d="M18.8 45.4V26.2c1.6-.6 3.2-1.3 4.8-1.9v15.2c2.5-1 5.1-1.8 7.6-2.7v4.1c-4.2 1.3-8.3 2.8-12.4 4.5zM33.4 40.2V21c4.4-1.4 8.9-2.5 13.3-3.5v3.9c-2.9.6-5.8 1.4-8.7 2.2v3.6c2.7-.8 5.5-1.5 8.3-2.1v3.7c-2.8.6-5.5 1.3-8.3 2.1v4c3.1-.9 6.2-1.6 9.2-2.3v4c-4.6.9-9.2 2.1-13.8 3.6zM59 19.1v15.3c-1.6.2-3.2.5-4.8.8V19.9c-1.9.3-3.8.7-5.6 1.1v-4c5.4-1.1 10.7-2 16.1-2.5v4c-2 .2-3.9.4-5.7.6zM69.4 21.4c-1.2.1-2.4.2-3.5.3.7-2.5 1.3-5 2-7.5 1.4-.1 2.7-.2 4.1-.3-.9 2.5-1.7 5-2.6 7.5zM85.6 18.8c-.4-.5-.9-.9-1.6-1.3-.7-.3-1.3-.5-1.9-.5-.3 0-.6 0-1 .1l-.9.3c-.3.2-.5.4-.7.6-.2.2-.3.6-.3.9 0 .3.1.6.2.8.1.2.3.4.6.6.3.2.6.3 1 .5.4.1.8.3 1.2.4.7.2 1.4.5 2.1.8.7.3 1.4.7 2 1.1.6.5 1.1 1 1.5 1.7.4.7.6 1.5.6 2.4 0 1.1-.2 2.1-.6 2.8-.4.8-1 1.4-1.7 1.9s-1.5.9-2.4 1.1c-.9.2-1.8.3-2.8.3-1.4 0-2.8-.2-4.1-.7-1.3-.4-2.4-1.1-3.3-1.9 1-1.1 2.1-2.1 3.1-3.2.5.6 1.1 1 1.9 1.4.8.4 1.6.6 2.4.6.4 0 .7 0 1-.1l.9-.3.6-.6c.1-.3.2-.6.2-1s-.1-.7-.3-.9c-.2-.3-.4-.5-.8-.7-.3-.2-.8-.4-1.3-.6-.5-.2-1.1-.4-1.7-.6-.6-.2-1.2-.4-1.9-.7-.6-.3-1.1-.6-1.6-1s-.9-.9-1.1-1.5c-.3-.6-.4-1.3-.4-2.2 0-1.1.2-2 .7-2.8.4-.8 1-1.4 1.8-1.9.7-.5 1.5-.9 2.5-1.1.9-.2 1.8-.3 2.8-.3 1.1 0 2.2.2 3.4.7 1.2.4 2.2 1.1 3 1.9-1.1 1-2.1 2-3.1 3z"/></g><g><path class="st0" d="M119.9 44.9c-1.2.7-2.5 1.2-4 1.4-1.4.2-2.6.2-3.8 0-1.2-.2-2.2-.7-3-1.3-.8-.6-1.5-1.5-2-2.5s-.7-2.3-.7-3.7c0-1.4.2-2.8.7-4.1.5-1.3 1.2-2.4 2-3.4.9-1 1.9-1.8 3-2.5 1.2-.7 2.4-1.1 3.8-1.3 1.3-.2 2.5-.2 3.7.1 1.2.3 2.2.8 3 1.6-1 1.1-2 2.2-2.9 3.3-.4-.5-.9-.8-1.6-1-.7-.2-1.3-.2-2-.1-.8.1-1.4.4-2.1.8-.6.4-1.2.9-1.6 1.5-.4.6-.8 1.2-1.1 1.9-.3.7-.4 1.5-.4 2.3 0 .8.1 1.5.4 2.1.3.6.6 1.1 1 1.5.4.4 1 .7 1.6.8.6.2 1.3.2 2 0 .9-.1 1.6-.4 2.2-.9.6-.4 1.1-.9 1.5-1.5l3 2.4c-.6 1.1-1.6 1.9-2.7 2.6zM135.9 43.9v-7.5c-2.3.1-4.7.2-7 .4v7.5c-1.4.1-2.9.2-4.3.4V26.9c1.4-.2 2.9-.3 4.3-.4v6.8c2.3-.2 4.7-.3 7-.4v-6.8c1.4 0 2.9-.1 4.3-.1v17.8c-1.4 0-2.8.1-4.3.1zM156.2 44.8c-.5-1.2-.9-2.4-1.4-3.7l-6.9-.6c-.4 1.1-.9 2.3-1.3 3.4-1.6-.1-3.1-.1-4.7-.1 2.5-5.9 5-11.8 7.5-17.6l4.2.3c2.5 6.2 5 12.4 7.4 18.7-1.7 0-3.2-.3-4.8-.4zm-4.9-13.6c-.8 2-1.5 4-2.3 6 1.5.1 3 .2 4.5.4-.7-2.2-1.4-4.3-2.2-6.4zM168.5 32.6v14.2c-1.4-.3-2.9-.6-4.3-.8V31.8c-1.7-.3-3.4-.5-5-.8v-3.7c4.8.6 9.6 1.5 14.3 2.7v3.7c-1.7-.4-3.3-.8-5-1.1z"/></g><g><path class="st0" d="M179.1 48.2c0 .4-.1.7-.3.9-.2.3-.4.5-.6.7-.2.2-.5.3-.8.3-.3.1-.6.1-1 0s-.6-.2-.9-.4c-.3-.2-.5-.4-.7-.7-.2-.3-.3-.6-.4-.9-.1-.3-.1-.7-.1-1 0-.3.1-.6.3-.9.2-.3.4-.5.6-.7.2-.2.5-.3.8-.4.3-.1.6-.1 1 0s.6.2.9.4c.3.2.5.4.7.7.2.3.3.6.4.9.2.5.2.8.1 1.1zm-4-5.1l1.5-12.5 4.1 1-1.5 12.5-4.1-1z"/></g><circle class="st12" cx="3.5" cy="9.1" r="3.5"/></g></svg>