<svg xmlns="http://www.w3.org/2000/svg" xmlns:xlink="http://www.w3.org/1999/xlink" viewBox="0 0 194.9 131.3"><style>.st0{fill:#fff}.st35{fill:#ffb48f}.st36{fill:#80b24d}.st38{fill:#ffe6d2}.st42{fill:#b77f51}</style><g id="Layer_1"><path class="st35" d="M50.2 131.3c-18.9-46-4.3-93.6-4.3-93.6h-4.7C25 72.1 25.3 108.4 27.9 131.3h22.3z"/><path class="st36" d="M42.1 37.1l6.2 12 3.7-.7-2.7 2.7 2.5 4.8 2.9-.6-2.2 2.2 2.6 5h2.8l-1.8 1.9 5.7 11c0-.1 11.9-33.7-19.7-38.3z"/><path class="st36" d="M59.1 33.1l.9 5.6 6.3.1 2.5-4.5 1.1 4.5 8.3.1.7-4 1.6 4.1 12.5.2s-28.2-30.9-50.5-.8l15.5.3 1.1-5.6z"/><path class="st36" d="M51.7 20.1h3.7l2.3-3.9-2.7-3.7 4.3 1.1 2.5-4.3-2.1-2h3.2L67.1 0S29.6 8.6 43.7 40.1l10.2-17.4-2.2-2.6z"/><path class="st36" d="M12.4 25.9l-1 3.1 6.8 1.9 3.6-3.1-1.3 3.8 6.5 1.9 4.5-1.9s-.5 1.5-1 2.8l13.4 3.8C33.9 9.7 0 25.8 0 25.8l9 2.6 3.4-2.5z"/><path class="st36" d="M12.7 53.5l4.2 2.9 4.6-3.1-2.2-5 4.9 3.2 4.3-2.9-1.9-4.9 4 3.4 14.3-9.5c-35-13.1-41.8 28-41.8 28l11.7-7.8-2.1-4.3z"/><defs><path id="SVGID_1_" d="M27.9 131.3c-2.6-22.9-2.9-59.2 13.3-93.6h4.7s-14.6 47.6 4.3 93.6H27.9z"/></defs><clipPath id="SVGID_2_"><use xlink:href="#SVGID_1_" overflow="visible"/></clipPath><g clip-path="url(#SVGID_2_)"><path class="st38" d="M33.1 114.6H32c-4.7-.2-7.3-1.5-7.4-1.5l.3-.6c.1.1 10.6 5 26.7-3.7l.3.6c-7.9 4.2-14.4 5.2-18.8 5.2zM23.1 109.2l-.6-.3c7.1-16.4 23.9-11.2 24.1-11.1l-.2.6c-.7-.1-16.4-5.1-23.3 10.8zM43.2 91.2c-3.2-9-16.4-6.1-16.6-6.1l-.1-.6c.1 0 13.9-3 17.3 6.5l-.6.2zM27.3 77.4l-.3-.5c.5-.2 12.4-5.6 15.9-1.3l-.5.4c-3.2-3.9-15 1.4-15.1 1.4zM43.4 70.2c-.1 0-11.8-4.3-16-.1l-.5-.4c4.4-4.6 16.2-.3 16.7-.1l-.2.6zM45.2 62.8c-1.6-3.3-8.9-2.5-13.3-2.1-1.2.1-2.1.2-2.7.2v-.6c.6 0 1.5-.1 2.6-.2 4.6-.5 12.2-1.3 14 2.4l-.6.3z"/></g><g><path class="st35" d="M155 131.3h20.1c2.6-19.2 3.7-52.2-10.9-83.4h-4c-.1.1 13.1 43.1-5.2 83.4z"/><path class="st36" d="M163.8 47.9l-4.2 8.1-2.5-.5 1.8 1.9-1.7 3.2-2-.4 1.5 1.5L155 65h-1.9l1.2 1.3-3.8 7.4s-8-22.6 13.3-25.8z"/><path class="st36" d="M152.3 45.2l-.6 3.6-4 .1-1.6-2.9-.7 2.9-5.3.1-.5-2.6-1 2.6-7.9.1s18.1-19.8 32.4-.5l-9.9.2-.9-3.6z"/><path class="st36" d="M157.8 36.9h-2.3l-1.4-2.4 1.7-2.3-2.6.7-1.5-2.7L153 29h-2l-2.6-4.5s23.3 5.4 14.5 24.9l-6.3-10.8 1.2-1.7z"/><path class="st36" d="M182.1 38.9l.7 2.2-4.1 1.6-2.3-2.1.9 2.6-4 1.5-2.8-1.2s.4 1.1.7 2l-8.2 3.1c5.4-20.6 26.8-10.2 26.8-10.2l-5.5 2.1-2.2-1.6z"/><path class="st36" d="M183 58.2l-2.6 1.8-2.9-1.9 1.4-3.1-3 2-2.7-1.8 1.1-3-2.5 2.2-8.9-5.8c21.6-8.4 26.1 17.1 26.1 17.1l-7.3-4.8 1.3-2.7z"/><defs><path id="SVGID_3_" d="M175.1 131.3c2.6-19.2 3.7-52.2-10.9-83.4h-4s13.2 43-5.1 83.4h20z"/></defs><clipPath id="SVGID_4_"><use xlink:href="#SVGID_3_" overflow="visible"/></clipPath><g clip-path="url(#SVGID_4_)"><path class="st38" d="M171 113.7h.9c4-.2 6.3-1.3 6.4-1.3l-.2-.5c-.1 0-9 4.3-22.8-3.2l-.3.5c6.7 3.6 12.3 4.5 16 4.5zM179.6 109.1l.5-.2c-6.1-14-20.4-9.5-20.6-9.5l.2.5c.6-.2 14-4.4 19.9 9.2zM162.4 93.6c2.7-7.7 14-5.2 14.2-5.2l.1-.5c-.1 0-11.9-2.6-14.8 5.5l.5.2zM176 81.9l.2-.5c-.4-.2-10.6-4.8-13.6-1.1l.4.3c2.8-3.3 12.9 1.3 13 1.3zM162.3 75.8c.1 0 10.1-3.7 13.7-.1l.4-.4c-3.8-3.9-13.8-.2-14.2-.1l.1.6zM160.7 69.4c1.4-2.9 7.6-2.2 11.4-1.8 1 .1 1.8.2 2.3.2v-.5c-.5 0-1.3-.1-2.3-.2-3.9-.4-10.4-1.1-12 2.1l.6.2z"/></g></g><path d="M194.9 131.3c-105.8-18.5-185.9-1-190.7 0h190.7z" fill="#ffdec0"/><path fill="#dda373" d="M98.2 125.8l4.1-1.4 4.2-50.7-2.4-1.2z"/><path class="st42" d="M100.6 72.8l-10.2 53h7.8l5.9-53.3z"/><path opacity=".5" fill="#9e6e4a" d="M92 117.2l11-.7.2-3.7H92.9z"/><path class="st42" d="M156 110.5L46.3 119c-2.6.2-4.8-1.4-4.9-3.5L40 82.3c-.1-2.1 2-3.9 4.6-3.9l110-1.2c1.7 0 3.2 1.4 3.3 3.1l1.2 27c0 1.6-1.4 3.1-3.1 3.2z"/><path d="M156.1 110.5l-105.8 8.3c-2.5.2-4.6-1.4-4.7-3.5l-1.5-33.2c-.1-2.1 1.9-3.9 4.4-3.9l106.1-1.1c1.7 0 3.1 1.4 3.2 3.1l1.2 27c.1 1.7-1.2 3.2-2.9 3.3z" fill="#e29b61"/><g><path class="st0" d="M66.1 89.5c-.5.7-.9 1.4-1.3 2.2-.4.8-.8 1.6-1.1 2.5-.4.8-.7 1.7-1.1 2.5-.4.8-.7 1.6-1.1 2.4-.4.9-.9 1.8-1.3 2.7-.5.9-1 1.8-1.6 2.7 1.4 0 2.7-.1 3.8-.3 1.2-.2 2.3-.6 3.4-1.3.9-.5 1.7-1.1 2.4-1.7.7-.6 1.3-1.2 1.8-1.9.2-.2.4-.4.6-.4.2-.1.4 0 .5 0 .1.1.2.2.3.4.1.2 0 .5-.1.8-.5 1.3-1.3 2.5-2.2 3.7-.9 1.1-2 2.1-3.2 2.9-.8.5-1.6.9-2.5 1.2-.9.3-1.8.5-2.8.6-.7.1-1.5.1-2.3 0-.8-.1-1.5-.1-2.3 0-.3.2-.6.4-.9.5-.3.1-.7.2-1 .2h-1c-.3-.1-.6-.2-.8-.3-.4-.4-.7-.7-.7-1.2 0-.4.1-.8.4-1.2.3-.4.7-.7 1.2-1 .5-.3 1.1-.5 1.7-.6.5-1.1 1-2.4 1.4-3.7.4-1.4.9-2.7 1.4-3.9.3-.7.7-1.5 1.1-2.4.4-.9.8-1.7 1.3-2.5s1-1.5 1.6-2.2c.6-.7 1.3-1.2 2-1.5l.9-.3c.3 0 .6 0 .9.1.3.1.4.2.5.4.4 0 .3.3.1.6z"/><path class="st0" d="M74.1 103.1c.5.3 1 .4 1.5.3.5-.1 1.1-.2 1.6-.5s1.1-.6 1.6-1 1-.8 1.5-1.3c.5-.4.9-.9 1.2-1.3.3-.4.6-.8.8-1.1.1-.2.3-.3.5-.4.2 0 .3 0 .4.1.1.1.2.2.3.4.1.2 0 .4 0 .6-.6 2-1.6 3.6-2.9 5-.4.4-.9.8-1.4 1.2-.5.4-1.1.7-1.6.9-.6.3-1.2.4-1.8.5-.6.1-1.3.1-2-.1-.8-.2-1.5-.5-2-.9s-.9-.9-1.2-1.5c-.3-.6-.5-1.2-.5-1.9-.1-.7-.1-1.4 0-2.1.1-.7.2-1.4.5-2 .2-.7.5-1.3.8-1.8.3-.5.6-1 1-1.6.4-.5.8-1 1.2-1.4.5-.4 1-.8 1.5-1.1.5-.3 1.1-.5 1.7-.6.7-.1 1.4-.1 2.2.2.7.3 1.3.7 1.8 1.3.4.6.7 1.2.8 1.9.1.7 0 1.3-.2 1.9-.2.6-.5 1.2-.9 1.7s-.8 1-1.3 1.3c-.8.6-1.6 1-2.5 1.1-.9.1-1.8.1-2.7-.1-.1.4-.1.8-.1 1.2-.2.7 0 .9.2 1.1zm1.9-4.5c.6-.3 1.2-.8 1.6-1.4.1-.1.2-.4.3-.7.1-.3.2-.6.2-.8 0-.3 0-.5-.2-.5-.2-.1-.3 0-.5 0-.3.1-.5.3-.8.5-.2.2-.4.5-.6.7l-.9 1.2c-.3.4-.5.9-.7 1.3.6.1 1.1 0 1.6-.3z"/><path class="st0" d="M91.3 91.9c-.1.3-.3.6-.6.8-.3.2-.6.4-.9.5-.3.1-.7.2-1.1.2-.4 0-.7.1-1.1.1-.2.4-.4.9-.6 1.6-.2.7-.5 1.4-.7 2.1-.2.8-.5 1.5-.6 2.3-.2.8-.3 1.4-.4 1.9-.1.6 0 .9.2 1 .2.1.5 0 .9-.3.3-.3.6-.6.9-1 .3-.4.6-.8.8-1.2.3-.4.5-.8.7-1.2.2-.4.4-.7.6-1 .1-.2.3-.4.4-.5.2-.1.3-.1.4 0 .1.1.2.2.2.4v.6c-.2.6-.3 1.2-.5 1.8-.2.6-.4 1.2-.6 1.7-.2.6-.5 1.1-.8 1.6-.3.5-.6.9-1 1.3-.5.5-1.1.8-1.8.9-.7.2-1.3 0-2-.3-.5-.3-.9-.7-1.1-1.2-.3-.5-.4-1-.5-1.6-.1-.6-.1-1.1-.1-1.7 0-.6.1-1.1.2-1.6.1-.4.1-.9.2-1.3s.2-.9.4-1.4c.1-.5.3-1 .5-1.6.2-.6.4-1.2.6-1.9-.2 0-.5-.1-.7-.1-.2-.1-.4-.1-.6-.3-.2-.2-.3-.5-.2-.8.1-.3.2-.6.5-.9.3-.3.6-.5 1-.7.4-.2.8-.3 1.2-.2.2-.3.4-.7.6-1 .2-.3.5-.6.7-.9.2-.2.5-.4.8-.5.3-.1.7-.2 1-.2.3 0 .6.1.9.3.3.2.5.5.6.9.1.4.1.8 0 1.1-.1.4-.3.7-.4 1 .2.1.4.1.6.1h.6c.3 0 .5.1.6.3.2.5.2.7.2.9z"/><path class="st0" d="M91 90.2c-.4-.5-.5-1-.4-1.5.1-.5.3-.8.7-1.1.3-.3.8-.4 1.2-.4.5 0 .9.3 1.3.8s.6 1.1.5 1.6c-.1.5-.2 1-.5 1.5s-.7.9-1.2 1.3-.9.7-1.3.9c-.2.1-.4.1-.5 0-.2-.1-.3-.3-.3-.5 0-.1 0-.3.1-.5s.2-.3.2-.5c.1-.2.1-.4.2-.6.1-.2.2-.5.3-.7l-.3-.3zM99.2 95c.2-.4.3-.8.3-1 0-.2 0-.4-.1-.4-.1-.1-.3-.1-.4 0l-.6.3c-.2.1-.4.3-.6.4-.2.2-.4.3-.5.4-.5.5-.8.8-.9 1.2-.1.3-.1.5 0 .7.1.1.2.1.3.1h.5c.2 0 .4-.1.5-.1.2 0 .3-.1.4-.1.5-.1 1-.1 1.4.1.4.1.8.3 1.1.6.3.3.5.6.7 1 .2.4.2.9.2 1.4 0 .7-.2 1.3-.5 2-.3.6-.7 1.2-1.2 1.7s-1.2.8-1.9 1.1c-.7.3-1.5.3-2.3.2-.2 0-.5-.1-.7-.2-.2-.1-.5-.3-.7-.4-.2-.2-.4-.4-.5-.6-.2-.2-.2-.5-.3-.8 0-.3 0-.7.1-.9.1-.3.3-.5.6-.6.2-.1.5-.2.7-.1.3 0 .5.2.7.5.2.3.4.5.7.5.3 0 .6-.1.9-.3.2-.1.5-.3.7-.6.3-.3.5-.5.7-.8.2-.3.4-.5.5-.8.1-.3.1-.4 0-.6-.1-.1-.2-.1-.3-.1-.1 0-.3.1-.3.1-.3.1-.7.2-1.1.2-.4 0-.8 0-1.1-.1-.4-.1-.7-.3-1-.5-.3-.2-.5-.6-.7-1-.2-.5-.3-1-.3-1.5s.1-1 .3-1.5c.2-.5.4-.9.7-1.3.3-.4.6-.7.9-1 .3-.3.7-.5 1.2-.8.4-.2.9-.4 1.4-.5.5-.1.9-.1 1.4 0 .5.1.9.4 1.3.8.3.4.5.8.6 1.2.1.4.1.9 0 1.3s-.3.8-.5 1.1c-.3.3-.6.6-.9.8-.3.1-.5.1-.7-.1-.8-.5-.8-.7-.7-1zM116.3 92.8c.1-.2.3-.5.4-.9.1-.3.2-.6.2-.9v-.9c0-.3-.1-.5-.3-.6-.1-.1-.3-.2-.6-.1s-.6.2-1 .6c-.4.4-.8.8-1.2 1.3-.3.5-.6 1-.9 1.6-.2.4-.4.9-.6 1.5-.2.6-.4 1.2-.5 1.8-.1.6-.1 1.3 0 1.9.1.6.4 1.1.8 1.5.2.2.5.3.8.3.3 0 .7 0 1-.1.3-.1.7-.2 1-.4.3-.2.6-.3.8-.5.7-.5 1.3-1 1.9-1.7.5-.6 1-1.3 1.4-2 .1-.1.2-.2.3-.2.1 0 .2 0 .3.1.1.1.2.2.2.3v.5c-.2.5-.4 1-.6 1.6-.2.6-.5 1-.7 1.5-.5.8-1.1 1.5-1.7 2.1-.7.6-1.4 1.1-2.3 1.4-.6.2-1.3.3-2 .2-.7-.1-1.4-.3-2-.8-.4-.4-.8-.8-1.1-1.3-.3-.5-.5-1-.7-1.5-.2-.5-.3-1.1-.3-1.7v-1.7c.1-.6.2-1.3.4-2s.4-1.4.7-2.1c.3-.7.6-1.3 1-1.9.4-.6.8-1.1 1.3-1.6s1-.8 1.5-1.1c.5-.3 1.1-.5 1.7-.5.3 0 .7 0 1 .1.3.1.7.2 1 .4.3.2.6.4.8.7.3.3.4.6.6 1.1.2.5.3 1 .3 1.5s-.1 1-.2 1.5-.3 1-.6 1.4c-.2.4-.5.8-.9 1-.2.2-.5.3-.7.3-.2 0-.4-.1-.6-.2-.1-.1-.2-.3-.3-.6.1-.4.2-.6.4-.9z"/><path class="st0" d="M122.8 93.2l-.4 1.1c.2-.3.3-.6.5-.9.2-.3.3-.6.5-.9.2-.4.4-.8.7-1.2.3-.5.6-.9.9-1.2.3-.3.7-.6 1.1-.7.4-.1.8-.1 1.3.2.3.1.5.3.7.6.2.2.3.5.4.8.1.3.1.6.2.9v.9c-.1.9-.4 1.8-.7 2.6l-.9 2.4c-.1.4-.2.7-.2.9 0 .2 0 .3.1.3s.2 0 .4-.1.3-.3.5-.6.4-.5.6-.8c.2-.3.3-.6.5-.9.2-.3.4-.6.6-1 .2-.3.4-.7.6-1l.3-.3h.3c.1.1.1.1.2.3v.4c-.1.2-.2.5-.3.8-.1.3-.2.6-.4.9-.1.3-.3.6-.4.9-.1.3-.3.5-.3.7-.2.4-.3.7-.6 1.2-.2.4-.5.8-.7 1.1-.3.3-.6.6-.9.7-.4.2-.7.2-1.2 0-.4-.1-.7-.3-.9-.6-.2-.3-.4-.6-.5-.9-.1-.4-.2-.7-.2-1.1 0-.4 0-.8.1-1.2.1-.5.2-1 .4-1.4.2-.5.3-.9.5-1.3s.4-.8.6-1.3c.2-.4.4-.8.5-1.3.1-.3.1-.4.1-.5-.1-.1-.1 0-.3.1-.1.1-.3.3-.6.5-.2.2-.5.6-.8.9-.3.4-.6.9-.9 1.3-.3.5-.5.9-.8 1.4l-.6 1.2c-.2.4-.4.8-.5 1.2-.2.4-.3.8-.4 1.3-.1.4-.2.9-.2 1.4 0 .3-.1.5-.2.7-.1.2-.3.3-.4.4-.2.1-.3.1-.5.1s-.4-.1-.5-.2c-.2-.2-.4-.4-.5-.7-.1-.3-.2-.7-.2-1.1V99c0-.4.1-.8.1-1.2.1-.4.1-.8.2-1.1.1-.3.1-.6.2-.8.2-1.1.5-2.1.9-3.1.3-1 .7-2 1.1-3 .1-.2.2-.5.3-.8.1-.3.3-.7.5-1.1.2-.4.4-.7.6-1.1.2-.4.4-.6.7-.9.2-.2.5-.4.8-.4.3-.1.6 0 .9.2.3.2.5.5.6.9.1.4.1.7 0 1.1-.1.4-.2.7-.4 1.1-.2.4-.4.7-.6 1.1-.2.4-.5.8-.8 1.3-.3.5-.6 1-1 1.6l-.7.4z"/><path class="st0" d="M136.8 91.1c-.6 0-1.1.1-1.6.3-.5.3-.9.6-1.3 1s-.7.9-1 1.5c-.3.5-.5 1.1-.7 1.7-.3 1-.5 1.6-.4 1.9.1.3.2.3.5.1.3-.2.6-.7 1-1.3.4-.6.7-1.4 1.1-2.3l.3-.6.3-.6c.1-.2.3-.3.4-.5l.6-.3c.3 0 .5 0 .7.1.2.1.3.2.5.4.1.2.2.4.2.7 0 .3 0 .6-.1.9 0 .2-.1.3-.2.5s-.2.4-.2.7c-.1.2-.2.5-.2.7-.1.2-.1.5-.2.7 0 .3 0 .4.1.4s.3-.2.5-.4c.4-.5.7-1 .9-1.5.3-.5.5-1 .8-1.5l.2-.2h.2c.1 0 .1.1.2.2 0 .1.1.2.1.3 0 .5-.1 1-.3 1.7-.2.7-.4 1.3-.7 1.9-.3.6-.6 1.2-1 1.7s-.7.8-1.1.9c-.3.1-.5.1-.7 0-.2-.1-.5-.2-.7-.4-.2-.2-.4-.4-.5-.7l-.3-.9c0-.3-.1-.5 0-.8 0-.3 0-.5.1-.8-.1.4-.3.9-.4 1.4-.1.5-.3.9-.5 1.4-.2.4-.5.7-.8 1-.3.2-.7.3-1.1.2-.5-.1-.9-.3-1.2-.7-.3-.4-.4-.8-.5-1.4-.1-.5-.1-1-.1-1.6 0-.6.1-1 .2-1.5.2-1.1.6-2.1 1.1-3 .5-.9 1.1-1.7 1.7-2.4.3-.3.7-.6 1.1-.8.4-.3.8-.4 1.2-.5.4-.1.9-.1 1.3 0s.9.3 1.3.6c.2.1.3.3.3.5.1.2.1.4 0 .6 0 .2-.1.3-.2.5-.6.2-.7.2-.9.2z"/><path class="st0" d="M144.1 89c-.1.3-.2.5-.4.6-.2.2-.4.3-.6.4-.2.1-.4.2-.7.2h-.7c-.1.3-.2.7-.4 1.2-.1.5-.3 1.1-.4 1.7-.1.6-.3 1.2-.4 1.8-.1.6-.2 1.1-.2 1.5 0 .4 0 .7.1.8.1.1.3 0 .6-.2.2-.2.4-.5.6-.8.2-.3.4-.6.5-.9.2-.3.3-.6.5-.9.1-.3.3-.6.4-.8.1-.2.2-.3.3-.4h.3c.1.1.1.2.2.3v.5c-.1.5-.2.9-.3 1.4-.1.5-.2.9-.4 1.4-.1.4-.3.9-.5 1.2-.2.4-.4.7-.7 1-.3.4-.7.6-1.1.7-.4.1-.9 0-1.3-.3-.3-.2-.6-.6-.7-.9-.2-.4-.3-.8-.3-1.3-.1-.4-.1-.9-.1-1.4 0-.5 0-.9.1-1.3 0-.3.1-.7.1-1 .1-.4.1-.7.2-1.1.1-.4.2-.8.3-1.3.1-.4.2-.9.4-1.5-.2 0-.3-.1-.4-.1-.1 0-.3-.1-.4-.2-.2-.2-.2-.4-.2-.6 0-.2.1-.5.3-.7.2-.2.4-.4.6-.5.3-.1.5-.2.8-.2.1-.3.2-.5.4-.8.1-.3.3-.5.5-.7.1-.2.3-.3.5-.4.2-.1.4-.1.6-.1.2 0 .4.1.6.2.2.1.3.4.4.7.1.3.1.6 0 .9-.1.3-.2.5-.3.8.1 0 .2.1.4.1h.4c.2 0 .3.1.4.2.1.5.1.6 0 .8zM145.9 98.5c-.1.2-.2.4-.4.6-.2.2-.4.3-.6.3-.2 0-.4 0-.6-.1-.2-.1-.4-.3-.6-.7-.1-.2-.2-.4-.2-.6 0-.2 0-.5.1-.7 0-.2.1-.4.2-.6.1-.2.2-.3.3-.4.2-.2.5-.3.7-.2.3.1.5.2.6.4.2.2.3.5.4.9.2.4.2.8.1 1.1zm4-11.7c-.4.4-.8 1-1.2 1.5-.4.6-.8 1.2-1.1 1.8-.4.6-.7 1.3-1 2-.3.7-.6 1.3-.9 2 0 .1-.1.1-.1.2s-.1.2-.2.3c-.1.1-.1.2-.2.2-.1.1-.2.1-.2 0-.1-.1-.2-.2-.2-.4v-.6c.2-1.2.4-2.3.7-3.4.3-1.1.6-2.1 1.1-3 .1-.3.3-.6.5-.9.2-.3.4-.6.7-.9.3-.3.5-.5.8-.6.3-.1.6-.1.9 0 .1.1.3.2.4.3.1.1.2.3.2.5v.5c0 .2-.1.4-.2.5z"/></g></g></svg>