<svg xmlns="http://www.w3.org/2000/svg" viewBox="0 0 134.4 134.4"><style>.st194{fill:#ff5800}.st203{fill:#3d1e27}.st205{fill:#fdfcea}</style><g id="Layer_1"><path class="st203" d="M127.3 57.3c.3-.6.5-1.1.7-1.5.4-.9.3-1.9-.2-2.8-.6-1.1-2.5-2-2.5-2s-1.5-.8-2.9-.2c-1.3-2.6-4.2-4.4-6.5-4.9L71.9 2C69.3-.6 65-.6 62.4 2L44.1 20.3c-.7-.2-1.5-.4-2-.3-.9.1-1.6.5-2 1.2-.4.7-.4 1.4-.3 2v.6c0 .3-.1.7-.1 1L35.5 29c0-1.1-.4-2.3-1.1-3.4-1.3-1.8-3.3-3-5.4-3.3-.9-.1-2.1.1-3 .8-.7-2.8-8-5.2-9.3-5.4-2.4-.3-3.7 2.2-5 6.3-1.1 3.4-2 7.7-2.7 12.2-1 6.8-1.8 13.9-1.8 21L2 62.5C-.6 65.1-.6 69.4 2 72l21.1 21.1v.4c0 .1.5 5.6 2.8 6.7 0 0 .1 0 .1.1-.7 5.5-1.1 9.4-1 12 0 1.2.6 2.3 1.6 3.2 1.1 1 2.7 1.5 4.1 1.5h.7c1.3-.2 2.6-1.1 2.6-3.1 0-1.7.3-4.8.9-8.8l4.3 4.3v1c0 1.1.6 2.2 1.6 3 1.1.9 2.6 1.5 4 1.5l17.7 17.7c2.6 2.6 6.9 2.6 9.5 0l30.6-30.6c-.1 1.1.1 2.3.8 3.3.7 1.1 1.9 1.7 3.3 1.7h.5c3.9-.3 5.9-4.2 5.9-6.1 0-1.1-.3-2.1-1-2.8 1.3-.6 1.5-1.9 1.5-2.3 0-.2.2-.9.3-1.4.4-1.6.8-3.1 1.2-4.6l17.5-17.5c2.6-2.6 2.6-6.9 0-9.5l-5.3-5.5z"/><path d="M50.5 61.1c.8 0 2.5-1.2 4.5-4.7-1.7 1.4-3.8 2.3-5.7 2.7.1 1 .4 1.6.7 1.9.1 0 .2.1.5.1z" fill="#f0637a"/><path class="st194" d="M42.7 65.2c-2.4-3.5-2.5-9.3-1.3-14.4-2.2 4.6-4.7 9.2-7.6 13.6-1.6 2.5-4.1 4.1-6.4 4.1-2.3 0-5.4-2-6.8-4.3-1.4 2.2-3 4.3-5.6 4.3-2.3 0-4.5-1.5-5.9-3.2l-1.9 1.9 20.7 20.7c1.7-10.6 3.1-17.6 6.4-19.6 0 0 .1 0 .2-.1s.2-.1.3-.2h.4c1.2-.2 2.8.3 5 1.6 1.2.7 2.6 1.7 2.6 3.3 0 .6-.2 1.3-.6 1.7-.1.2-.2.3-.2.4-.1.2-.2.3-.3.5-1.1 2.3-2.5 7.2-3.9 13.5 1.5-.3 2.9-.7 4.1-.8 1.6-9.5 3-16.5 5.9-19.2.1-.1.2-.3.3-.4-2.2-.3-4.1-1.5-5.4-3.4zM123.6 63.6c-1.7 2.3-3.8 4.5-6.3 5.8.2.1.3.3.3.4v.1c1.8.6 3.6 1.7 3.7 3.4l6-6-3.7-3.7zM103.4 61.7c-1.8.1-3.6-.6-4.9-1.5-.9-.6-1.6-1.4-2.1-2.2-1.8 3.5-3.2 7.1-3.4 8.7 0 1-.5 1.6-.8 1.9-.6.5-1.3.8-2.2.8-.3 0-.5 0-.8-.1-.8-.2-1.5-.5-1.6-.6-.8-.4-1.7-1.1-2.3-1.8-1.5 1.4-3.1 2.2-4.8 2.2h-.1c-1.5 0-2.8-.7-3.9-1.9-.2-.2-.3-.4-.5-.6-1.6 1.7-3.2 2.4-5 2.4-3.3-.1-5.7-2.4-6-5.9-.7-7.7 1.9-17.3 9.3-21.6l.1-.1c2.3-1.1 4.4-.1 6.3 1 .8-.6 1.7-.6 2-.6 1.9.2 4.4 2.1 4.9 2.6.4.3.8.9.9 1.7.2-.4.4-.9.6-1.3.6-1.3 1.8-2.1 3.1-1.9 1.9.2 4.2 1.9 5 2.6.1.1.3.3.4.5.5-.5 1-.9 1.6-1.3.7-.5 1.7-.7 2.7-.6.9.1 2.9.9 4.2 1.9l-39-39-17.3 17.6c.2 1.1 0 2.6-.6 4.8-1 4.2-2.4 8.5-4 12.8 1.8-2.4 4-3.8 6.4-3.9 2-.1 4 1.5 5.1 2.5.9.8 2.7 2.8 3.2 5.1.4-.4.9-.7 1.5-.8 1.1-.2 2.2.2 2.9 1.1.7.9.9 2 .5 3.1-2.5 7.4-6.5 17-13.3 18.9 1.1.3 2.3.9 3.1 1.4 1.1.7 2.4 1.6 2.4 3.2 0 .7-.3 1.3-.7 1.8-.1.1-.1.2-.2.3 0 .1-.1.1-.1.2l-.1.2c-1.4 2.7-3.2 9.1-4.7 16.6.4-1.1.9-2.1 1.4-2.9 1.6-3.7 3.9-6.6 6.4-7.1 1.2-.2 3.3.8 4.6 2.3.7.4 1.2.9 1.5 1.1 1.2 1 2 2.1 2.5 3.2.3-.8.5-1.5.8-2.3.5-1.4 1-2.8 1.5-4.1.2-.5.5-.8.8-.8 1.1-.1 3 .9 3.7 1.4.2.2.2.4.2.7.7.3 1.3.7 1.8 1 .9-1.3 1.9-2.4 2.8-3.2.3-.3.7-.4 1.1-.4.6 0 2.7.4 3.5 1.2.4.3.4.7.3 1 .9.3 1.8.8 2.4 1.4.4.3.6.7.8 1 1.6-2.8 3.8-5 6.1-5.4 1.5-.2 4.4 1.3 5.5 3.1.5.3 1 .7 1.4 1 .8.7 1.4 1.4 1.9 2.2.3-.6.5-1.2.8-1.8.3-.9 1.8-.4 1.4.4-.2.5-.4 1-.6 1.6.3-.1.5-.2.8-.2.4-.1.9 0 1.3.1.5-2.3 1.1-4.7 1.7-7 1-3.8 2.2-7.1 3.2-9.2-4.2-1-6.9-4.1-7.4-8.5zM85.6 106.2c-1.3-1.5-1.8-3.5-2-5.6-1.6.4-3.6.1-5.2-.8-.9-.5-1.7-1.2-2.2-2-1.7 3.6-2.9 7.2-3.5 10.8-.1 1.5-1.1 2.5-2.6 2.7h-.6c-1.6 0-3.1-.8-4-1.6-.3-.3-.6-.5-.8-.8-1.8 2-3.9 3.4-6.5 4-.7.2-1.4.2-2 .2-2 0-3.7-.7-5-2.2-1.5-1.7-2.2-4.1-2.4-6.8-.2 1.6-.4 3-.6 4.3L67 127.2l20-19.8c-.5-.4-1-.8-1.4-1.2zM30.8 43.6c-.1.2-.1.4-.2.6-.7 2.5-.9 5.7-1 8.7 2.4-4.5 4.8-9.5 6.6-14.7l-5.4 5.4z"/><path class="st203" d="M26.9 65.9c2 0 4.3-1.5 5.7-3.7 7.1-10.7 12.3-22.1 15.1-33.1.9-3.6.7-4.8 0-5.5-.9-.9-4.3-2.6-6-2.6-1 0-1.5.6-1.7.8-.3.5-.3 1.1-.3 1.5v.6C38.5 35 33.1 46 28.2 54.6c.1-3.6.3-8 1.1-11.2.5-1.7 1.2-3.7 2-5.7 1-2.6 2-5.2 2.7-7.8.3-1.2 0-2.4-.8-3.6-1.1-1.6-3-2.7-5-2.9h-.4c-1.4 0-2.6.9-3.1 2.4-1.3 3.6-2 7.9-2.7 12-.5 2.7-.9 5.2-1.4 7.2-.7 2.7-2.6 6-4.4 8.9-.1.2-.3.5-.4.7.5-11.4 2.3-20.7 5.4-28.6.1-.2.2-.3.3-.5.2-.3.6-.8.6-1.4.1-2.4-5.1-4.7-6.2-4.8h-.2c-1.2 0-2.4 1-3.9 5.7-1 3.2-2 7.3-2.6 11.4C8 44.2 7 52.6 7.6 60.6c.1 2.1 3.5 5.6 6.7 5.6h.1c2.2-.1 3.7-2 5-4 .2-.3.4-.6.6-1 1 2.2 4.1 4.7 6.9 4.7z"/><path class="st203" d="M40.7 56.1c.2 6 2.9 9.6 7.4 9.6h.8c7.4-.7 11.7-10.5 14.3-17.9.3-.7.2-1.5-.2-2.1-.4-.7-1.2-1.1-2-1.1-.9 0-1.7.6-2 1.4-.4 1.1-.8 2.1-1.2 3.1.4-1 .6-2.1.6-3.1 0-3.4-4.6-7.6-7.4-7.6h-.2c-6.5.2-10.3 10.6-10.1 17.7zm10.7-11c-.2 2.8-1.6 5.2-3.1 6.5.6-2.7 1.8-5.1 3.1-6.5zm2.8 8.7c1.4-1.1 2.4-2.4 3.1-3.9-3.2 7.2-6 9.8-7.7 9.8-.5 0-.8-.1-1.1-.4-.5-.5-.8-1.4-.9-2.6 2.4-.2 4.7-1.3 6.6-2.9zM125.4 50.6c-.5-.4-1.1-.7-1.7-.7-.8 0-1.6.5-1.9 1.1l-.1.2-.9 1.8c.2-.6.3-1.3.3-1.9 0-3-4.9-6.5-7.5-6.5h-.1c-3.6 0-7.1 2.7-9.1 7.2-.2.3-.5.5-.7.8l-.1.1c-.7.7-1.2 1-1.5 1.1v-.2c0-.9.4-1.9.9-2.7.2-.2.3-.4.4-.6.3-.3.6-.6.9-.8.4-.2 1.3-.7 1.4-1.8.1-.5 0-1.3-.8-2-1.1-1.1-3.5-2-4.4-2.1h-.4c-.6 0-1.2.2-1.7.5-.8.5-1.5 1.1-2.2 1.9-.1-.5-.4-.9-.7-1.1-.8-.7-3-2.1-4.5-2.2h-.2c-.9 0-1.7.6-2.1 1.4-1.2 2.5-2.4 5.6-3.3 9.1-.8 1.7-1.6 3.1-2.4 4.3.7-3 1.8-7 3.1-10.2 0-.1.1-.1.1-.2 1-1.6.4-2.6-.2-3.2-.5-.4-2.8-2.1-4.5-2.3h-.2c-.4 0-1 .1-1.6.7-1.4-.8-2.8-1.5-4.2-1.5-.6 0-1.2.1-1.7.4h-.1c-5.1 2.8-9.8 10-8.9 19.8.3 3 2.3 4.9 5.3 4.9h.1c1.7 0 3.3-.9 4.9-2.7.2.4.5.8.8 1.2.9 1 2.1 1.6 3.4 1.6 1.6 0 3.3-.9 4.9-2.6.9 1.5 3.1 2.7 4.7 2.7 1.4 0 2.1-1 2.1-2 .2-1.8 1.9-6.1 4.2-9.8.7 2.6 4.2 4.3 6.4 4.3.4 0 .8 0 1.1-.1.1 0 .1 0 .2-.1.1 2.1.7 4 1.9 5.4 1 1.2 3 2.7 6.5 2.7h.6c-1.1.4-1.9 1.7-2.6 3.1-1 2.1-2.2 5.5-3.3 9.5-.3 1.3-.7 2.7-1 4-.4-.3-.9-.5-1.4-.5-.9 0-1.8.5-2.1 1.4-.2.5-.5 1.1-.8 1.7v.1c.1-.4.1-.9.1-1.3 0-.7-.2-1.5-.7-2.2-1.3-2-4.3-3.8-6.4-3.8h-.5c-2.6.4-5.2 2.6-7.2 6.1-.3.5-.6 1-.8 1.5-1.6 2.6-2.6 3.7-3.2 4.1v-.1c.1-1.6 1-3.9 2.5-5.3.5-.4.9-.8 1.1-1.3.4-.9.1-1.9-.7-2.7-1.2-1-3.5-1.6-4.5-1.6h-.1c-.8 0-1.5.3-2 .8-.7.6-1.4 1.4-2.1 2.3-.1-.4-.4-.7-.7-.9-.8-.6-2.9-1.7-4.5-1.7h-.2c-.9.1-1.7.7-2.1 1.7-.5 1.2-1 2.6-1.6 4.2-.2.7-.4 1.4-.6 2v-.8c0-1.2-.6-2.6-1.8-3.8-1.3-1.4-3.5-2.8-5.4-2.8-.2 0-.4 0-.6.1-3.8.7-6.3 5.3-7.5 7.9-2.3 5.2-3.5 12.6-.9 16.6 1.1 1.7 2.8 2.6 5 2.6.6 0 1.2-.1 1.9-.2.5-.1 1.1-.3 1.6-.5.8-.3 1.5-.7 2.2-1.2 1-.7 2-1.6 2.9-2.7.7 1.7 3 2.7 4.6 2.7h.5c.2 0 .6-.1.9-.3.6-.4 1-1 1-1.8 0-.2 0-.4.1-.6.1-.7.4-1.7.7-2.7.8-2.4 2-5.4 3.4-8.2.8 2.2 3.4 3.5 5.7 3.5.8 0 1.4-.1 2-.4.1 0 .1-.1.2-.1 0 2.3.6 4.2 1.7 5.5 1.1 1.4 2.8 2.1 4.8 2.1.6 0 1.3-.1 2.1-.2.4-.1.8-.2 1.3-.4 1-.3 1.9-.8 2.8-1.4 3.8-2.5 6.5-7.1 8.4-11.1.1.4.3.7.6 1 .4.5 1 .9 1.7 1.2h-.8c-2.3.2-3.7 3.3-3.6 5.4.1 2 1.4 3.3 3.3 3.3h.5c3.3-.4 5.2-3.6 5.2-5.2 0-1.1-.5-2.3-1.7-2.9h.2c1.7-.2 2-1.3 2.1-1.9 0-.2.2-.8.3-1.4.5-2.1 1.1-4.1 1.7-6.1 1-3.2 2.1-6 3.2-8.6.5-1.2 1-2.1 1.4-2.9l.2-.2c.1-.1.2-.2.3-.2.2-.2.3-.4.4-.6.1-.2.2-.5.2-.7 0-.6-.3-1.1-.9-1.6-1.1-.8-4.1-1.8-5.5-1.9 5.8-1 10.2-7.6 13-13.2.4-.7.2-1.7-.5-2.3zm-47.7-4.1l-.3.7c-2.5 7.4-4.1 10.5-5 11.7v-.2c.4-5.7 3.3-11.8 5.3-12.4v.2zM59.5 87.2c-.3 2.4-1.5 4.7-2.9 6.2.7-2.4 1.8-4.7 2.9-6.2zm-1.8 14.3h-.3c-.4 0-.6-.1-.7-.3-.4-.4-.6-1.2-.7-2.3 3-.8 6.6-3.1 8.7-6.3-3.5 7.5-6 8.7-7 8.9zM94 84.8c-.3 2-1.5 3.9-2.8 5.1.6-2.1 1.7-4 2.8-5.1zm-1.8 12h-.3c-.5 0-.7-.2-.8-.3-.3-.3-.5-.9-.6-1.6 2.9-.7 6.2-2.6 8.4-5.1-2.5 4.3-4.8 6.8-6.7 7zM114 50.5c-.2 1.8-1.5 3.5-2.9 4.4.7-1.9 1.8-3.6 2.9-4.4zm-1.5 10.7h-.1c-.6 0-1.1-.2-1.4-.5-.3-.3-.4-.7-.6-1.3 3.1-.3 6.8-1.7 8.8-4.1-2.3 3.8-4.7 5.9-6.7 5.9z"/><path class="st203" d="M49.8 91.5c.5-.8.3-1.7.2-2-.1-.3-.2-.7-.4-1 1.6-7.4 3.4-13.6 4.8-16.3V72c0-.1.1-.2.2-.3.1-.1.1-.2.2-.3.3-.3.5-.8.5-1.3 0-2.4-5.5-3.9-6.3-3.9-.3 0-.7.1-.9.2-.4.3-.9.6-1.3 1.1-.1.1-.2.3-.4.5-2.3 3.4-3.7 11.4-4.8 17.8l-.1.8c-1.1.2-2.5.5-4.1.9 0 0-1.4.3-1.6.4 1.5-7.1 3.2-12.7 4.4-15.2.1-.2.2-.3.3-.5.1-.1.1-.2.2-.3.3-.3.5-.8.5-1.3 0-2.5-5.8-3.9-5.9-3.9h-.5c-.3 0-.7.1-.9.2-.2.1-.3.2-.4.3-3 2.4-4.5 10.6-6.1 20.4 0 .3-.1.5-.1.8-.6-.1-1.1-.3-1.6-.5h-.2c-.2-.1-.4-.1-.5-.1-.4 0-1 .1-1.5.9-.4.6-.4 1.4-.4 1.6 0 .6.7 5 2.4 5.8.2.1.4.1.6.2-.8 5.4-1.1 9.2-1.1 11.8 0 2 2.2 3.4 4.2 3.7h.7c.2 0 .4 0 .6-.1 1.2-.2 1.9-1.1 1.9-2.4 0-2.2.7-7.3 1.7-13.4 1.9-.4 4-1 6-1.6-.8 5.2-1.1 8.9-1.1 11.5 0 2.3 2.9 3.6 4.9 3.6h.6c1.2-.2 1.9-1.1 1.9-2.3 0-2.4.9-8.4 2.1-14.7.7-.3 1-.5 1.3-.9z"/><path class="st205" d="M105.7 93.3c-2 .2-3.7 6.1-.1 5.7 2.6-.3 3.8-2.9 3.8-3.7 0-1.6-1.5-2.2-3.7-2zM14.5 64.7c1.4 0 2.6-1.4 3.8-3.3 1-1.6 2.1-3.3 3.1-5.1 0 1.5 0 2.8.1 4 .1 1.3 2.9 4.2 5.3 4.1 1.4 0 3.3-1.1 4.5-3 6.6-9.9 12-21.1 14.9-32.6.6-2.2.7-3.7.4-4.1-.7-.8-4.9-2.7-5.4-2-.1.2.1.8 0 1.5-1.4 11.7-7.1 23.1-13 33-1.5 2.7-1.8 1.4-1.7-.8.1-4.1.1-9.6 1.3-13.6 1.1-4 3.5-8.9 4.7-13.5.5-2-1.8-4.3-4.5-4.6-.6-.1-1.5.2-1.9 1.4-2.1 5.9-2.7 14-4.1 19.1-1 3.7-4 8.3-6 11.9-1.5 2.8-1.8 1.4-1.7-.8.3-10.4 1.7-21.3 5.6-31.1.3-.7.8-1.1.9-1.4 0-1-3.8-3.2-4.8-3.3-1.3-.1-3.8 7-5.1 15.8-1.2 7.8-2.2 16-1.6 23.9 0 1.6 2.7 4.5 5.2 4.5zM50.8 39.8c-8.6.5-13.4 25.4-2.1 24.4 6.7-.6 10.8-10.5 13.1-16.9.4-1-1.1-1.7-1.4-.7-1.9 5.2-6.1 14.8-10.7 14.8-2.6 0-3.5-2.7-3.4-5.9 4.4.1 10.6-4 10.6-9.5-.1-2.7-4.2-6.3-6.1-6.2zM46.3 54c.5-4.2 2.4-8.9 4.7-10.6.9-.7 1.8-.2 1.8 1.1 0 4.8-3.4 9.6-6.5 9.5zM112.3 62.7c-2.6-.1-3.5-2.2-3.4-4.7 4.4.3 10.6-2.6 10.6-6.9 0-2-4-5-6-5-3.4-.1-6.3 2.9-7.9 6.5-.3.3-.6.7-.9 1l-.1.1c-.9.9-1.9 1.6-3 1.5-.6 0-1.2-.6-1.1-1.9.1-1 .4-2.3 1.2-3.5.2-.3.4-.5.6-.8.4-.4.8-.8 1.3-1.1.6-.3 1.1-.8.3-1.5-.9-.8-2.9-1.6-3.5-1.7-.4 0-.8 0-1.1.2-2.7 1.7-5.8 6.3-7.8 10.1.7-2.7 1.8-5.6 2.8-8 .2-.5.8-1.1.3-1.6-.7-.6-2.6-1.8-3.7-1.9-.3 0-.6.2-.8.6-1.3 2.5-2.4 5.7-3.2 8.9-1.4 2.9-3.1 6-5.3 8-.5.4-1 .4-.8-.4.7-3.9 2.2-10.1 4.1-14.6.2-.5.9-1.1.3-1.6-.7-.6-2.6-1.8-3.7-1.9-.3 0-.6.2-.9.6-.1.2-.2.5-.3.7-2.1-1.2-4.1-2.7-5.9-1.9-6.3 3.5-8.7 11.7-8.1 18.4.2 2 1.5 3.5 3.8 3.6h.1c2.5-.1 4.7-2.9 6.3-6.2 0 .2 0 .3-.1.4l-.3 2.1c-.2 1.7 1.1 3.8 3.1 3.8 2.3 0 4.5-2.5 6.4-5.5-.2 1.1-.3 2.1-.4 3.1 0 1.1 2.2 2.6 3.6 2.6.3 0 .7 0 .7-.6.3-3.4 4.7-12.2 8.4-15.8.2-.2.4-.3.2.1-.9 1.4-1.7 3.8-1.5 5.3.3 2.2 3.9 4 5.8 3.5.8-.2 1.6-.7 2.3-1.3-.9 4.7.8 9.3 6.7 9.3 6.2 0 11-8.4 13.1-12.5.1-.3 0-.5-.1-.7-.4-.3-1.1-.4-1.3 0 0 .1-.1.1-.1.2-2.1 4.2-6.2 11.2-10.7 11zM79.1 46.9c-.9 2.5-4.6 14.4-7.4 14.3-.9 0-.8-2-.7-2.7.3-4.8 3.4-14.2 7.3-13.9.6.1 1.1.4 1.4.8-.3.6-.5 1.1-.6 1.5zm34.6 2c.9-.5 1.8 0 1.8.9 0 3.7-3.4 7.3-6.5 7.1.5-3.3 2.4-6.9 4.7-8zM33 94.6c2.7-.6 6.3-1.6 9.1-2.4-.9 5.3-1.5 10.3-1.4 13.5 0 1.3 2.4 2.4 3.8 2.1.5-.1.7-.4.7-.9 0-2.7 1-9.2 2.3-16h.3c.8-.1.9-.4.7-1.1-.1-.4-.3-.8-.6-1 1.5-7.2 3.4-14.2 5.1-17.4.2-.4.5-.7.7-1 .1-.1.2-.2.2-.3 0-.9-4.5-2.7-5-2.4-.3.2-.6.4-.8.7-.1.1-.2.2-.3.4-2.4 3.5-3.9 13.1-4.9 19-.3 0-.6.1-.9.1-1.2.2-2.6.5-4.1.8-1.3.3-2.7.6-3.9.9 1.5-7.4 3.4-14.6 5-17.8.2-.4.5-.7.7-1.1.1-.1.2-.2.2-.3 0-.8-3.4-2.3-4.6-2.5h-.4c-.1.1-.2.1-.3.2-3.1 2.4-4.7 14.6-5.9 21.7-1.1-.1-2.3-.4-3.4-.8-.2 0-.3 0-.4.2-.1.1-.2.5-.2.8 0 .9.9 4.1 1.5 4.4.5.2 1 .3 1.7.4-.7 5-1.3 9.8-1.3 12.9 0 1.1 1.6 2.1 2.9 2.3H30.4c.5-.1.7-.4.7-.9 0-2.4.8-8.2 1.9-14.5zM103 84.5c-.2.5-.5 1.1-.8 1.8-2.2 4.8-5.9 11.6-10 12.1-2.6.3-3.5-1.8-3.4-4.6 4.4-.5 10.6-4.7 10.6-9.3 0-.5-.2-.9-.5-1.4-1.1-1.8-4-3.3-5.5-3.1-2.3.4-4.5 2.5-6.1 5.4-.3.5-.5 1-.8 1.5-1.2 2-3.1 4.9-5 5.1-.6.1-1.2-.5-1.1-1.8.1-1.9 1.1-4.7 3-6.4.3-.2.5-.5.7-.7.1-.3.1-.6-.3-1-.9-.7-2.9-1.2-3.5-1.2-.4 0-.8.2-1.1.4-.9.8-1.8 1.9-2.8 3.2-1.9 2.7-3.7 6.1-5.1 9.1.3-1.4.7-2.9 1.2-4.3.2-.5.3-1.1.5-1.6.4-1.1.7-2.2 1.1-3.2.1-.3.4-.7.5-1 .1-.3.1-.5-.2-.7-.7-.5-2.6-1.5-3.7-1.4-.3 0-.6.3-.8.8-.5 1.2-1 2.6-1.5 4.1-.4 1.2-.8 2.5-1.1 3.8-2.2 5.4-5.7 12.4-9.6 12.9-2.6.4-3.5-2.1-3.4-5.2 4.5-.6 10.7-5.5 10.7-10.9 0-.9-.6-1.9-1.4-2.8-1.4-1.5-3.5-2.5-4.6-2.3-2.5.5-4.8 3.4-6.4 7.1-3.4 7.7-3.7 18.7 4.3 16.9.5-.1.9-.2 1.3-.4.7-.3 1.3-.6 1.9-1.1 2.2-1.6 4.1-4.1 5.6-6.9-.2 1.5-.4 3-.6 4.4 0 1.2 2.1 2.4 3.5 2.2h.1c.1 0 .3-.1.4-.1.2-.1.3-.3.3-.6 0-.2.1-.5.1-.7.1-.8.4-1.8.8-2.9 1.5-4.7 4.7-11.5 7.5-14.9.2-.3.4-.4.2.1-.9 1.7-1.7 4.4-1.5 6 .3 2.4 3.9 3.7 5.8 2.8.7-.3 1.4-.9 2.1-1.6l.2-.2.4-.4c-1.1 5.5.2 10.6 6.4 9.4.4-.1.7-.2 1.1-.3.9-.3 1.7-.7 2.4-1.2 4.1-2.7 6.9-8.1 8.9-12.9.2-.5.4-1.1.6-1.6.4-.8-1-1.3-1.4-.4zM54.5 96.3c.5-4.1 2.4-9 4.7-10.9.9-.8 1.8-.4 1.8.8 0 4.6-3.4 9.7-6.5 10.1zM89 92.5c.5-3.6 2.4-7.9 4.7-9.5.9-.7 1.8-.4 1.8.7 0 4.1-3.4 8.5-6.5 8.8zM105.9 86.3c-.2.7-.3 1.5-.4 2.2-.2 1.5 2.4 2.5 3.7 2.3.5 0 .7-.1.7-.5s.2-1 .3-1.7c.5-2 1.1-4.1 1.7-6.2.9-3 2-6 3.3-8.7.5-1 1-2.1 1.5-3 .2-.3.5-.5.7-.8l.1-.1v-.1c0-.1-.1-.2-.3-.4-.9-.7-3.7-1.6-4.7-1.6-.5 0-1.2.9-1.9 2.4-1 2.1-2.2 5.5-3.2 9.2-.4 2.3-1 4.7-1.5 7z"/></g></svg>