<svg xmlns="http://www.w3.org/2000/svg" viewBox="0 0 114.3 94.8"><style>.st95{fill:#c4c4c4}.st96{fill:#a5a5a5}.st98{fill:#f2b19e}.st100{fill:#65c8d0}.st102{fill:#e6e6e6}</style><g id="Layer_1"><path d="M78.1 51.2s-.1 0-.1-.1c-.5-.2-2.4-1.4-3.7-3.8h-43c-1.4 2.5-3.3 3.6-3.7 3.8 0 0-.1 0-.1.1-.7.4-1.1.7-1.1 1.1 0 2.2 11.8 4 26.4 4s26.4-1.8 26.4-4c0-.4-.3-.8-1.1-1.1z" fill="#4f4f4f"/><ellipse cx="52.8" cy="47.3" rx="21.5" ry="2.7" fill="#323232"/><path d="M52.8 56.3c-14.6 0-26.4-1.8-26.4-4v3.2c0 2.2 11.8 4 26.4 4s26.4-1.8 26.4-4v-3.2c0 2.2-11.8 4-26.4 4z" fill="#343434"/><path class="st95" d="M74.6 40.9c0-.3-.3-.6-.8-.9-.5-.4-.9-1-1-1.6-.8-4.7-5.5-12-20-12s-19.2 7.3-20 12c-.1.6-.5 1.2-1 1.6-.5.3-.7.7-.8.9v-.1 3.5c0 1.6 9.7 2.9 21.8 2.9s21.8-1.3 21.8-2.9v-3.4z"/><path class="st96" d="M52.8 43.8c-12 0-21.8-1.3-21.8-2.9v3.5c0 1.6 9.7 2.9 21.8 2.9s21.8-1.3 21.8-2.9v-3.5c0 1.6-9.8 2.9-21.8 2.9z"/><path d="M55.5 26.6h-5.8c-.2 0-.4-.2-.4-.4s.2-.4.4-.4h5.8c.2 0 .4.2.4.4.1.2-.1.4-.4.4z" fill="#999"/><path class="st95" d="M51.6 24.1h2.1v1.6h-2.1z"/><path class="st96" d="M54.4 24.1h-3.5c-.7 0-1.2-.5-1.2-1.2s.5-1.2 1.2-1.2h3.5c.7 0 1.2.5 1.2 1.2 0 .6-.6 1.2-1.2 1.2z"/><path class="st98" d="M95.7 62.7c-3.9-2.6-15.3-11-23.3-10.5S62 56.4 57.8 56.3c-4.2-.1-9.7-1.5-11.2-2.5-1.4-.9-7.5-2.1-11.2 2.3 0 0-.4.6-.2 1.4 0 0-15.7-4.7-19.3-5.2-3.6-.5-7.5 1.6-4.9 3.9 2.6 2.3 14.6 6.7 16.2 7.5 1.5.9 18.8 11.6 22.8 12.7 3.9 1.1 24.7-1.9 27.4-1.5 2.7.3 4.8 7.2 4.8 7.2h23.3s-5.9-16.8-9.8-19.4z"/><path d="M46.3 54.7c-1.4-.9-7.4-1.6-11.1 2.7 0 0 .2 1.6 1.8 2.5 2 1 3.7.5 5.1 1.6 1.4 1.2 9.7 4 14.1 4.4l3-9c-.6.1-1.2.2-1.9.2-4 0-9.6-1.4-11-2.4z" fill="#de866f"/><path class="st98" d="M46.7 53.9c-1.4-.9-7.5-2.1-11.2 2.3 0 0-1 1.6.9 2.8 1.9 1.2 4.8.7 6.2 1.8 1.4 1.2 9.3 4.9 13.7 5.3l3.4-9.9c-.6.1-1.2.2-1.9.2-4.1-.2-9.7-1.6-11.1-2.5z"/><path class="st100" d="M81.7 80.6s.1.3.3.6c.4.5 1.8.8 7.4-.6 11.4-2.8 13.6-4.7 12.9-6.7 0 0 .7-.3 1.2.2.8.6 4 5.8 2.6 7.6-1.5 1.8-23.2 9.1-24.6 5.5-1.3-3.1-1.4-6.9.2-6.6z"/><path d="M81.5 87.2v7.6h32.8s-4.3-11.3-7.9-15.5c0 0-8.1 9.1-24.9 7.9z" fill="#29abe2"/><g><path d="M36.2 37.5H36c-.4-.1-.5-.5-.4-.9.1-.3 2.6-7.3 12.1-8.2.4 0 .7.2.7.6 0 .4-.2.7-.6.7-8.6.8-11 7.3-11 7.3-.1.3-.3.5-.6.5z" fill="#f2f2f2"/></g><g><path class="st102" d="M76.6 36c-.1 0-.2.1-.2.1-.3 0-.5-.2-.5-.4-.3-5.5-4.4-6.6-4.5-6.6-.3-.1-.4-.3-.3-.6.1-.3.3-.4.6-.3 0 0 4.8 1.3 5.2 7.5-.1 0-.1.2-.3.3zM80.2 34.9c-.1 0-.1.1-.2.1-.3 0-.5-.1-.5-.4-1-6.5-5.7-8.4-5.7-8.4-.2-.1-.4-.4-.3-.6.1-.2.4-.4.6-.3.2.1 5.3 2.1 6.3 9.2 0 .1-.1.3-.2.4z"/></g><g><path class="st102" d="M29 36c.1 0 .2.1.2.1.3 0 .5-.2.5-.4.3-5.5 4.4-6.6 4.5-6.6.3-.1.4-.3.3-.6-.1-.3-.3-.4-.6-.3 0 0-4.8 1.3-5.2 7.5.1 0 .2.2.3.3zM25.4 34.9c.1 0 .1.1.2.1.3 0 .5-.1.5-.4 1-6.5 5.7-8.4 5.7-8.4.2-.1.4-.4.3-.6-.1-.2-.4-.4-.6-.3-.2.1-5.3 2.1-6.3 9.2 0 .1.1.3.2.4z"/></g><g><path class="st100" d="M14 18.2c-.2-.6-.3-1.2-.4-1.6-.1-.5-.2-.9-.3-1.3l-.3-1.2c-.1-.4-.2-.8-.4-1.3-.1-.5-.3-1-.5-1.6-.2-.6-.4-1.4-.7-2.2-.1-.2-.1-.4 0-.5 0-.1.2-.2.5-.4.1-.1.3-.1.5-.2s.5-.2.8-.2c.3 0 .5 0 .8.1.2.1.4.3.6.6.1.2.2.5.3.8.1.4.2.8.3 1.4.1.5.2 1.1.3 1.7s.2 1.2.4 1.9c.1.6.2 1.2.3 1.9.1.6.2 1.1.3 1.6.1.5.1.9.2 1.2v.7c0 .2-.1.3-.2.4-.1.1-.2.2-.3.2l-1.5.7c-.3.1-.5.2-.8.2-.2 0-.4-.1-.6-.2-.2-.1-.4-.3-.6-.4-.2-.2-.3-.4-.4-.6L8.1 13c.2.5.3 1.1.5 1.7.2.6.4 1.3.6 1.9.2.7.4 1.3.6 1.9.2.6.4 1.2.5 1.7.1.5.3 1 .4 1.4.1.4.1.6.1.8 0 .1 0 .3-.1.4-.1.1-.2.2-.3.2l-1.5.7c-.3.2-.5.3-.8.3-.2 0-.4-.1-.6-.2-.2-.1-.4-.3-.6-.4-.2-.2-.3-.4-.5-.6-1.2-1.6-2.2-2.8-3-3.8-.8-1-1.4-1.8-1.9-2.4-.5-.6-.8-1-1-1.3-.2-.3-.3-.5-.4-.6-.1-.2-.1-.3 0-.4.1-.1.3-.3.7-.4.4-.2.8-.4 1.1-.5.3-.1.6-.1.9-.1.2 0 .5.1.7.3.2.2.4.4.6.7 0 0 .1.1.1.2s.1.2.2.4.2.4.4.7c.2.3.4.7.7 1.2.3.5.7 1.1 1.1 1.8.5.7 1 1.6 1.6 2.6-.2-.7-.4-1.3-.5-1.7l-.3-1.2c-.1-.3-.2-.7-.3-1-.1-.3-.2-.7-.4-1.1-.1-.5-.3-1-.6-1.7-.2-.7-.5-1.6-.9-2.7v-.2c.1-.1.1-.2.2-.2.1-.1.2-.2.4-.2.1-.1.3-.1.4-.2.4-.2.8-.4 1.1-.5.3-.1.6-.1.8-.1.2 0 .5.1.7.2.2.1.4.3.6.6.1.1.2.3.4.5s.4.6.7 1.1c.3.5.7 1.2 1.2 2.1.8.8 1.5 1.9 2.3 3.3zM23.5 17.6c-.5.2-1 .3-1.5.3s-1 0-1.5-.2-.9-.5-1.3-.9-.7-1-1-1.8c-.1-.3-.2-.6-.3-1-.1-.4-.1-.8-.1-1.3s0-.9.1-1.4c.1-.5.3-1 .5-1.4.3-.5.6-.9 1.1-1.3.4-.4 1-.7 1.7-.9.6-.2 1.1-.3 1.5-.3.4 0 .8.1 1.1.2.3.1.6.4.8.6.2.3.4.6.5.9.2.5.2 1 .1 1.4-.1.4-.3.8-.5 1.2s-.5.7-.9.9c-.3.3-.7.5-1.1.7-.4.2-.7.4-1 .5-.3.1-.6.2-.7.3l.3.6c.1.2.3.3.4.5.2.1.4.2.6.2.2 0 .5 0 .8-.1.3-.1.5-.2.6-.4.1-.2.2-.3.3-.5.1-.2.1-.3.2-.4 0-.1.1-.2.2-.2s.2 0 .3-.1h.5c.2 0 .3.1.5.2s.3.3.4.6c.1.3.1.6 0 1-.1.3-.3.6-.6.8-.3.3-.6.5-.9.7-.4.3-.8.5-1.1.6zm-2.1-7.5c-.2.1-.4.2-.5.4-.1.2-.2.4-.3.7 0 .3-.1.5 0 .8 0 .3.1.5.1.8.7-.2 1.2-.6 1.5-.9.3-.4.5-.8.3-1.2-.1-.2-.2-.4-.4-.5-.2-.2-.4-.2-.7-.1zM34.3 1.3c.3-.1.5-.1.7 0l.6.3c.1.2.3.4.4.6s.2.4.3.7c.8 1.8 1.5 3.3 2.1 4.4.5 1.2 1 2.1 1.3 2.8.3.7.6 1.3.7 1.6.1.3.2.6.3.7v.4c-.1.1-.2.1-.3.2l-.9.2c-.5.1-.9.1-1.2.1-.3-.1-.6-.2-.8-.4-.2-.2-.4-.5-.5-.8-.1-.3-.3-.7-.4-1.1l-2.9.6-.1 2.5c0 .2-.1.3-.3.4l-.9.2c-.2 0-.4.1-.6.1-.2 0-.4 0-.6-.1-.2-.1-.3-.2-.5-.3-.1-.1-.2-.3-.3-.5-.1-.3-.1-.7 0-1.3 0-.6.1-1.3.2-2.1s.2-1.6.4-2.5c.1-.9.3-1.7.4-2.5.1-.8.3-1.5.4-2.1.1-.6.2-1 .3-1.3.1-.2.1-.3.2-.3s.2-.1.4-.1l1.6-.4zM33.7 9l1.9-.4L34 4.1 33.7 9zM46.5 6.6h-.7c-.1 0-.1-.1-.1-.1v-.4-.4c0-.3-.1-.5-.2-.6-.1-.2-.2-.2-.4-.2-.3 0-.6.3-.7.7-.2.5-.2 1.1-.2 2V12.2c0 .1 0 .2-.1.3-.1.1-.2.1-.2.1l-.6.1h-.9c-.2-.1-.4-.1-.6-.3-.1-.1-.3-.3-.3-.5-.1-.2-.1-.4-.2-.7 0-.2 0-.4-.1-.8V9c0-.6 0-1.3-.1-2.2 0-.9-.1-2-.1-3.3 0-.3.1-.5.3-.6l.7-.1h.8c.2 0 .4.1.6.2.2.1.3.2.3.4s.1.3.2.5c.1-.3.2-.5.4-.8l.5-.5c.2-.1.4-.3.6-.3.2-.1.4-.1.6-.1.2 0 .4 0 .7.1l.6.3c.2.1.4.3.5.6.1.2.2.6.3.9V5c-.1.3-.2.6-.3.8-.1.2-.3.4-.6.6-.2.1-.4.2-.7.2zM53.4 12.2c-.5 0-1-.1-1.5-.2s-.9-.4-1.3-.7c-.4-.3-.7-.8-1-1.3-.3-.5-.4-1.2-.4-2 0-.3 0-.7.1-1.1 0-.4.1-.8.3-1.3.1-.4.3-.9.6-1.3.2-.4.6-.8.9-1.2.4-.3.8-.6 1.4-.8.5-.2 1.1-.3 1.9-.3.6 0 1.1.1 1.5.2.4.1.7.3 1 .6.3.2.4.5.5.9.1.3.2.7.2 1 0 .5-.1 1-.3 1.4-.2.4-.5.7-.8 1-.3.3-.7.5-1.1.6l-1.2.3c-.4.1-.8.1-1.1.1h-.8c0 .2 0 .5.1.7l.3.6c.1.2.3.3.5.4.2.1.5.2.8.2.3 0 .5 0 .7-.1.2-.1.3-.2.4-.3l.3-.3c-.2-.3-.1-.3.1-.3h.3c.1 0 .3.1.4.2.1.1.3.2.4.4.1.2.2.4.2.6 0 .3-.1.6-.3.9-.2.2-.5.5-.8.6-.3.2-.7.3-1.1.3-.5.2-.8.2-1.2.2zm.4-7.8c-.3 0-.5.1-.6.2-.2.1-.3.3-.5.6-.1.2-.2.5-.3.8-.1.3-.1.5-.2.8.7 0 1.3-.1 1.7-.4.4-.2.7-.6.7-1 0-.2-.1-.5-.2-.6-.1-.3-.3-.4-.6-.4zM69.9 13.7c-.6-.1-1.1-.3-1.3-.6-.2-.3-.3-.7-.2-1.2 0-.3.1-.7.3-1.4.1-.7.3-1.4.5-2.2l-3-.5-1.2 4.8c0 .1-.1.2-.1.2h-.2l-.9-.2c-.6-.1-1.1-.3-1.3-.6-.2-.3-.3-.7-.2-1.2 0-.2.1-.6.2-1.2s.3-1.2.4-1.9c.2-.7.3-1.5.5-2.3.2-.8.4-1.6.5-2.3.2-.7.3-1.3.4-1.9.1-.5.2-.9.2-1.1.2-.1.3-.1.5-.1l.9.2c.7.1 1.1.3 1.3.7.2.3.2.8.1 1.4 0 .1-.1.4-.2 1s-.3 1.2-.5 2l3.1.5.3-1.5c.1-.5.2-.9.3-1.3.1-.4.2-.8.2-1.1.1-.3.1-.5.1-.7 0-.2.1-.3.3-.2l1.1.2c.7.1 1.1.3 1.3.7.2.3.2.8.1 1.4 0 .1 0 .2-.1.6-.1.3-.2.7-.3 1.2-.1.5-.2 1-.4 1.6-.1.6-.3 1.2-.4 1.8-.1.6-.3 1.2-.4 1.8-.1.6-.3 1.1-.4 1.6-.1.5-.2.9-.3 1.2-.1.3-.1.5-.1.6 0 .1-.1.2-.1.2h-.2l-.8-.2zM76.8 15.6c-.5-.1-1-.3-1.4-.6-.5-.3-.8-.6-1.1-1-.3-.4-.5-.9-.6-1.5-.1-.6-.1-1.3.1-2.1.1-.3.2-.6.3-1 .2-.4.3-.8.6-1.2.2-.4.5-.8.9-1.1.3-.4.7-.6 1.2-.9.5-.2 1-.4 1.5-.4.6-.1 1.2 0 1.9.2.6.2 1 .4 1.4.6.4.3.6.5.8.8.2.3.3.6.3 1 0 .3 0 .7-.1 1-.1.5-.4 1-.7 1.3-.3.3-.7.5-1 .7-.4.2-.8.2-1.2.3h-1.3c-.4 0-.8-.1-1.1-.2-.3-.1-.6-.1-.8-.2-.1.2-.1.4-.1.7 0 .2 0 .4.1.6.1.2.2.4.4.5.2.2.4.3.7.4.3.1.5.1.7 0 .2-.1.3-.1.5-.2l.3-.3c.1-.1.2-.1.3-.1.1 0 .1.1.3.1.1.1.3.2.4.3.1.1.2.3.3.5s.1.4 0 .7c-.1.3-.3.6-.5.8-.3.2-.6.3-.9.4-.4.1-.7.1-1.1 0-.4.1-.8 0-1.1-.1zm2.3-7.5c-.2-.1-.5-.1-.7 0-.2.1-.4.2-.6.4-.2.2-.3.4-.5.7-.1.3-.2.5-.3.8.7.2 1.3.2 1.8.1s.8-.4.9-.8c.1-.2 0-.5 0-.7-.2-.2-.4-.4-.6-.5zM88.7 13.7c-.1 0-.1-.1-.2-.1s-.2-.1-.2-.1c-.1 0-.1-.1-.2-.1 0 0-.1-.1 0-.1.1-.1.1-.3.2-.4.1-.1.1-.2.2-.4s.1-.5.1-.6c0-.2-.1-.3-.3-.4-.3-.1-.6 0-1 .3-.3.3-.7.9-1 1.7-.2.3-.3.7-.5 1.2-.2.4-.4.9-.6 1.3-.2.4-.3.8-.5 1.1-.1.3-.2.5-.3.6 0 .1-.1.2-.2.2h-.3l-.6-.2c-.3-.1-.6-.3-.8-.4-.2-.2-.3-.3-.4-.5-.1-.4-.2-.6-.1-.8 0-.2.1-.5.2-.7.1-.2.2-.4.3-.7.1-.3.3-.7.6-1.2.2-.5.5-1.2.9-2s.8-1.8 1.3-3c.1-.3.3-.4.5-.4l.6.2c.3.1.5.2.7.4.2.1.3.3.4.5.1.2.1.3.1.5s0 .4-.1.5c.2-.2.5-.4.7-.5.2-.1.5-.2.7-.2h.7c.2 0 .4.1.6.1.2.1.4.2.6.4.2.2.3.4.4.6.1.2.2.5.2.8 0 .3 0 .6-.2.9-.1.3-.3.6-.4.8l-.6.6c-.2.1-.5.2-.8.3-.2-.1-.5-.1-.7-.2zM92.5 21.8c-.5-.2-.9-.5-1.3-.9s-.7-.8-.9-1.2-.3-1-.3-1.6c0-.6.2-1.3.5-2 .1-.3.3-.6.5-.9.2-.4.5-.7.8-1 .3-.3.7-.6 1.1-.9.4-.3.8-.5 1.3-.6.5-.1 1-.2 1.6-.1.6.1 1.2.3 1.9.6.5.3 1 .6 1.3.9.3.3.5.6.6 1 .1.3.2.7.1 1 0 .3-.1.7-.3 1-.2.5-.5.9-.9 1.1-.4.2-.7.4-1.2.5-.4.1-.8.1-1.3 0l-1.2-.3c-.4-.1-.7-.2-1.1-.4-.3-.1-.6-.3-.7-.3 0 .1 0 .3-.1.5v.7c0 .2.1.4.3.6.1.2.3.4.6.5.3.1.5.2.7.2.2 0 .4-.1.5-.1.1-.1.3-.1.4-.2.1-.1.2-.1.3 0 .1 0 .1.1.3.2.1.1.2.2.3.4.1.2.2.3.2.5s0 .4-.1.7c-.2.3-.4.5-.7.7-.3.1-.6.2-1 .2s-.7-.1-1.1-.2c-.4-.3-.8-.4-1.1-.6zm3.7-6.9c-.2-.1-.5-.2-.7-.1-.2.1-.4.1-.6.3-.2.1-.4.3-.6.5-.2.2-.3.4-.5.6.6.3 1.2.5 1.7.5s.8-.2 1-.6c.1-.2.1-.4.1-.7 0-.1-.2-.3-.4-.5zM99.8 22.2c.4.3.6.6.7.9 0 .3 0 .7-.3 1-.1.2-.2.3-.4.5s-.3.3-.5.4c-.2.1-.4.1-.7.1-.3 0-.5-.1-.8-.3-.4-.3-.7-.6-.7-.9 0-.3.1-.7.3-1 .1-.2.3-.4.4-.5.2-.2.3-.3.5-.4.2-.1.4-.1.7-.1.3 0 .5.1.8.3zm1-.9c-.2-.2-.4-.3-.5-.5-.1-.2-.2-.3-.2-.5s0-.4.1-.6c.1-.2.2-.4.3-.7.1-.1.1-.2.2-.3.1-.1.2-.2.3-.4.1-.2.3-.3.4-.6.2-.2.4-.5.6-.9.3-.4.6-.8.9-1.3.4-.5.8-1.1 1.3-1.8.1-.2.2-.3.3-.3 0 0 .1 0 .3.1l.9.6c.5.3.9.7 1 1.1.1.4.1.7-.1 1-.1.2-.3.4-.5.7-.2.3-.5.6-.7.9-.3.3-.6.7-.9 1-.3.4-.6.7-.9 1-.3.3-.6.7-.9 1-.3.3-.5.6-.7.8l-.2.2c-.1 0-.2 0-.3-.1l-.7-.4z"/></g></g></svg>