<svg xmlns="http://www.w3.org/2000/svg" viewBox="0 0 231.8 38.5"><style>.st101{fill:#29abe2}</style><g id="Layer_1"><path class="st101" d="M0 36.9v-31h2v29h16.7v2z"/><path class="st101" d="M5.5 30.5V6.1h2v22.4h11.2v2zM25.4 37.4V6.7h17.3v1.9H27.4v26.8h15.3v2z"/><path class="st101" d="M31.3 20.2v-7.8h11.4v2h-9.4v3.9h6.5v1.9zM31.3 31v-7.8h8.5v2h-6.5V29h9.4v2zM191.9 6.9h22.9v2h-22.9zM199.7 37.8V14.3h-7.8v-2h9.8v25.5zM205.1 37.8V12.9h9.7v2h-7.7v22.9zM48.1 7.3H71v2H48.1zM55.9 38.1V14.7h-7.8v-2h9.8v25.4zM61.3 38.1V13.3H71v2h-7.7v22.8zM89.5 31.9c-4.6 0-7.3-2.8-7.4-2.9l-.5-.5 1.4-1.4.5.5s2.3 2.3 6 2.3c.7 0 1.4-.1 2.1-.2.9-.2 1.7-.8 1.7-1.2 0-.2-.4-.7-1.3-1.1-2.4-1.1-8.7-5-9.6-9.9-.4-2.3.3-4.4 2.3-6.4 0 0 2.9-3.5 8-3.5 1.9 0 3.8.5 5.7 1.4l.6.3-.9 1.8-.6-.3c-1.6-.8-3.3-1.2-4.8-1.2-4.1 0-6.5 2.8-6.6 2.8-1.5 1.5-2.1 3.1-1.8 4.7.7 4 6.5 7.5 8.5 8.4 2.2 1 2.6 2.3 2.5 3.2-.2 1.5-1.8 2.6-3.3 2.9-.8.2-1.6.3-2.5.3z"/><path class="st101" d="M90.8 37.6c-4.7 0-8.9-2.4-9.1-2.5l-.6-.3 1-1.7.6.3s3.9 2.2 8 2.2c2.9 0 5.3-1.1 7-3.3.3-.5 1.8-3.3 1.1-6-.5-1.8-1.9-3.4-4.2-4.5-1.4-.7-6.1-3.1-6.4-5.6-.1-.8.2-1.5.8-2 0 0 1.3-1.3 3.7-1.3 1.8 0 3.8.7 5.9 2.2l.5.4L98 17l-.5-.4c-1.7-1.2-3.3-1.8-4.7-1.8-1.5 0-2.3.7-2.3.7-.2.2-.2.3-.2.3.2 1.1 3.2 3.1 5.4 4.1 2.9 1.4 4.6 3.4 5.3 5.8 1 3.9-1.3 7.5-1.4 7.7-2.3 2.8-5.2 4.2-8.8 4.2zM125.8 31.8c-5.4 0-9.8-4.4-9.8-9.8s4.4-9.8 9.8-9.8c3.4 0 6.5 1.7 8.3 4.6l.4.6-1.7 1.1-.3-.6c-1.4-2.3-3.9-3.7-6.6-3.7-4.3 0-7.8 3.5-7.8 7.8s3.5 7.8 7.8 7.8c2.7 0 5.2-1.4 6.6-3.7l.3-.6 1.7 1.1-.4.6c-1.8 2.9-4.9 4.6-8.3 4.6z"/><path class="st101" d="M125.8 37.5c-8.6 0-15.5-7-15.5-15.5s7-15.5 15.5-15.5c2.8 0 5.6.8 8 2.2l.6.3-1 1.7-.6-.3c-2.1-1.3-4.5-1.9-6.9-1.9-7.5 0-13.6 6.1-13.6 13.6s6.1 13.6 13.6 13.6c2.5 0 4.9-.7 6.9-1.9l.6-.3 1 1.7-.6.3c-2.4 1.3-5.2 2-8 2z"/><path class="st101" d="M125.8 31.9c-5.4 0-9.8-4.4-9.8-9.8s4.4-9.8 9.8-9.8c3.4 0 6.5 1.7 8.3 4.6l.4.6-1.7 1.1-.3-.6c-1.4-2.3-3.9-3.7-6.6-3.7-4.3 0-7.8 3.5-7.8 7.8s3.5 7.8 7.8 7.8c2.7 0 5.2-1.4 6.6-3.7l.3-.6 1.7 1-.4.6c-1.8 2.9-4.9 4.7-8.3 4.7zM163.8 37.3l13.5-33 13.3 33-1.9.8-11.4-28.5-11.7 28.5z"/><path class="st101" d="M173.6 29.5v-2h5l-2.6-5.1 1.8-.9 4.1 8zM170 37.2l2.4-4.4h9.9l2.3 4.4-1.8.9-1.7-3.3h-7.5l-1.9 3.3z"/><g><path class="st101" d="M143.9 20.6V6.2h2v12.4h7.6V6.2h2v14.4zM153.5 37.4V25h-7.6v12.4h-2V23h11.6v14.4zM138.6 6.2h2v31.7h-2zM158.4 6.2h2v31.7h-2z"/></g><g><path class="st101" d="M227.2 38.5c-2.6 0-4.6-2.1-4.6-4.6s2.1-4.6 4.6-4.6c2.6 0 4.6 2.1 4.6 4.6s-2 4.6-4.6 4.6zm0-7.3c-1.5 0-2.7 1.2-2.7 2.7s1.2 2.7 2.7 2.7c1.5 0 2.7-1.2 2.7-2.7s-1.2-2.7-2.7-2.7zM223 7.2h2v19.2h-2zM228.8 7.2h2v19.2h-2z"/></g><g><path class="st101" d="M80 9.8V0h2v9.8h-2zm-5 0V0h2v9.8h-2z"/></g></g></svg>