<svg xmlns="http://www.w3.org/2000/svg" viewBox="0 0 192.6 133.2"><style>.st0{fill:#fff}.st122{fill:#68cbfc}.st123{fill:#7d9daf}.st127{fill:#d38e50}.st128{fill:#ba7a45}.st129{fill:#3a5460}</style><g id="Layer_1"><path class="st122" d="M175 114.6c-.2 0-14.6-1.2-33-.6.1.7.3 1.4.4 2.1 18-.5 32.1.6 32.3.6.6 0 1.1-.4 1.1-.9.2-.7-.2-1.2-.8-1.2z"/><path class="st123" d="M168.9 123.2L94.2 45.6c-6.2-6.2-14.7-9.4-23.4-8.8-8.7.6-17.3-2.7-23.4-8.8l-14-13.3-18.8 18.6 14 13.3c6.2 6.2 9.4 14.7 8.8 23.4-.6 8.7 2.7 17.3 8.8 23.4L85 132c9-.2 20.6-1.3 33.9-4.2 16.6-3.7 35.6-4.6 50-4.6z"/><path d="M49.8 82.9s-4.2-18.3 18.1-26.8l12.9 13-19.6 22.4-11.4-8.6z" fill="#7cbebf"/><path d="M81 49.3S72.6 87 55.8 84.6c0 0-3.7-.2-6-1.7 0 0 27.5 21.7 55.9 47.4 4.2-.6 8.6-1.4 13.2-2.4 13.8-3.1 29.1-4.2 42.1-4.5 0-.1-68.6-67.5-80-74.1z" fill="#a5dee5"/><path class="st123" d="M24.9 8.2L8.2 24.9c-1.6 1.6-1.6 4.2 0 5.8l5.8 5.8c1.6 1.6 4.2 1.6 5.8 0l16.7-16.7c1.6-1.6 1.6-4.2 0-5.8l-5.8-5.8c-1.6-1.6-4.2-1.6-5.8 0z"/><path d="M17.5 1.1c-1-1.2-2.7-1.5-4.1-.8-2 1-4.9 2.8-7.6 5.5S1.4 11.4.3 13.4c-.7 1.4-.4 3.1.8 4.1l7.7 6.8c6.4-3.6 11.6-8.8 15.5-15.5l-6.8-7.7z" fill="#e5c45a"/><path class="st127" d="M8.8 24.3l16.4 14.6c1.4 1.2 3.5 1.2 4.8-.1l8.7-8.7c1.3-1.3 1.4-3.4.1-4.8L24.3 8.8C20.4 15 15.6 20.5 8.8 24.3z"/><circle class="st127" cx="2.5" cy="16.1" r=".6"/><circle class="st127" cx="5" cy="11.8" r=".6"/><circle class="st127" cx="8" cy="14.8" r="1.1"/><circle class="st127" cx="14.8" cy="10.1" r=".4"/><circle class="st128" cx="26" cy="35.8" r=".6"/><circle class="st128" cx="30.7" cy="34.4" r=".6"/><circle class="st128" cx="28.5" cy="30.8" r="1.1"/><circle class="st128" cx="34.6" cy="25.2" r=".4"/><circle class="st128" cx="27" cy="26.8" r=".5"/><circle class="st128" cx="23.8" cy="25.7" r=".5"/><circle class="st128" cx="23.5" cy="28.6" r=".8"/><circle class="st128" cx="17.8" cy="29.2" r=".3"/><circle class="st128" cx="28.8" cy="24.2" r=".6"/><circle class="st128" cx="24.6" cy="21.8" r=".6"/><circle class="st128" cx="27.5" cy="18.7" r="1.1"/><circle class="st128" cx="22.8" cy="11.9" r=".4"/><circle class="st128" cx="16.6" cy="23.5" r=".4"/><circle class="st128" cx="14" cy="15.3" r=".4"/><g><circle class="st127" cx="18.4" cy="8.7" r=".4"/><circle class="st127" cx="20.1" cy="11.2" r=".4"/><circle class="st127" cx="17.6" cy="12.1" r=".7"/><circle class="st128" cx="18.4" cy="17.1" r=".2"/></g><path class="st0" d="M25.8 13.1c-3.4 5.3-9 9.7-13.4 14.1-.6.6.3 1.6 1 1 4.5-4.6 10.1-9 13.6-14.4.5-.8-.7-1.5-1.2-.7z"/><g><path class="st0" d="M43.9 76.8c13-8.3 23.6-19.7 30.9-33.3.6-1.2-1.2-2.2-1.8-1C65.9 55.7 55.6 66.8 42.9 75c-1.1.7-.1 2.5 1 1.8z"/></g><path class="st0" d="M36.5 52.9c3 5.4 3.7 11.5 4.4 17.5 0 .4.7.4.7 0-.7-6.1-1.5-12.4-4.5-17.8-.2-.4-.8-.1-.6.3zM62 39.7c-1.8.1-3.4-.5-5.1-1.3-1.4-.7-3.8-1.4-4.8-2.6-.3-.3-.8.1-.5.5.6.8 1.5 1.1 2.4 1.5l3 1.5c1.6.7 3.2 1.2 4.9 1.1.5 0 .5-.7.1-.7z"/><g><path class="st0" d="M48.4 89.2c-.6-.7-1.5.3-1 1 12.5 15.7 26.9 29.7 43 41.6.7 0 1.4-.1 2.1-.1-16.5-12.1-31.3-26.4-44.1-42.5z"/></g><g><path class="st129" d="M91.4 64.4c.7.7 1.2 1.6 1.3 2.8-1.4 5.2-3.6 8.8-5.4 11.5-.3.4.2 1.6 1.4 3.6 0 .2-.1.4-.1.6-.3.3-.5.7-.8 1-.2.2-.7.2-1.6 0-.5-.4-1.1-.9-1.6-1.3-2.5-2.1-2.4-4.4-.5-7.3 4.7-7.8 5.2-12.7 6.7-11.4.3.2.5.3.6.5zM100.9 76.6c1.9 2.4 2.7 4.7 2 6.6-1.3 3.6-4.4 3.8-8.7.8-.1.1-.2.3-.3.4-.1.3-.1.6.1.8.5.4 2.4 1.2 5.7 2.3 1 .8 1.2 1.8.6 2.8-1 1.5-3.9.8-8.8-2.3l-.2-.2c-2-2.4-1.9-4.8-.3-7.6 2.1-3.6 4.4-5.4 7.8-4.9 1.2.7 1.9 1.1 2.1 1.3zM96.4 80c0 .1-.1.2-.1.3-.1.1 0 .4.2.8.2.2.4.3.5.5.6.5 1.3.6 2.1.2l.3-.9c.1-.3-.2-.8-.9-1.4L98 79c-.8.2-1.4.5-1.6 1zM110.8 81.5c.7 1.1 1.1 2.1.9 2.9-.4 1.6-.8 2.8-1 3.7 1.8 1.6 2.5 3.2 2 4.6-.4 1.1-1.3 1-2.8-.3-.3-.2-.5-.5-.8-.7-.8 2-1.1 3.1-.6 3.6 1.3 1.2 1.7 2.2 1.1 3.2-.8 1.3-2.1 1.1-3.8-.4-1.9-2.3-1.6-5 .1-8.6 0-.1.1-.2.1-.2-.5-.4-.9-.8-1.4-1.3-.7-.7-1.1-1.5-1.1-2.6.2-.4.3-.8.4-1.2.2-.7 1.4-.3 3.5 1.3 1.2-3.7 2-5.3 3.2-4.2.1.1.2.1.2.2zM117 85.2c.9.9 1.5 2.9 1.2 5.8-.9 2.7-2.2 3.4-3.4 2.4-.6-.9-.9-1.8-.9-2.9 1-1.2 1.4-2 1.4-2.3-.1-1.4-.1-2.3-.1-2.7v-.3c.6-.6 1.1-.6 1.8 0zM123 95.1c1.5 2 2.1 3.8 1.7 5.3-.5 1.1-1.3 1.2-2.2.4-.1-.1-.4-.9-.9-2.3-.2-.2-.4-.1-.8.2 0 .1 0 .2-.1.2 1.6 3.5 1.9 6.1 1 7.9-1.8 2.1-4.2 2-6.7-.2-1.2-1.5-1.5-2.7-.8-3.8.8-.6 1.5-.6 2.2.1.6.7.9 1.1 1 1.2.7.4 1.2.4 1.3.2l.3-.6c.1-.2-.4-1.8-1.7-4.9.1-.6.2-1.3.2-2 .1-.2.1-.3.2-.5 1.6-2.7 3.1-3.2 5.3-1.2zM86.1 87.2c.4.7.6 1.3.6 2l-.6.9c-.2.2-2.3-.2-6.5-1.6-1.6.4-2.7.7-3.2 1.2-.2.2-.4.4-.7.5-1.3 1-1.5 2-.3 3.3.3.2 1.5.7 3.5 1.4.3.2.5.5.8.7.2.2.2.7-.1 1.6-2.7.3-5-.5-6.7-2-.3-.2-.5-.5-.8-.7-2.5-2.2-2-4.1.7-6.9.2-.1.3-.3.5-.4 3.1-2.5 6.9-3.1 12.1-.6.1.2.4.3.7.6zM90 90.7c.6.5.8 1.4.5 2.6-1 1.2-1.9 2.1-2.5 2.8-.1.3-.1.5-.2.7l.2.2c1.6.2 2.7.6 3.3 1.1.1.1.3.2.4.3 2 1.7 2.2 4.2 0 6.6-.6.5-1.3.9-2 1.3-1 .6-1.9.6-2.9.1-.3-.3-.7-.6-1-.9-.3-.7-.1-1.3.5-1.7.8-.4 1.5-.9 2.2-1.4.6-.4.9-1 .9-1.7-1.3-.7-3.7-.4-8.1-.1l-.6-.3c-.2-.2-.4-.4-.6-.5-.9-.8-1-1.4-.3-1.8 1-.6 3.2-1.9 5.8-5.1 1.9-2.4 3.2-3.3 4.4-2.2zM101.9 104.9c2 2 2.6 3.6 1.7 4.7-1.2 2.1-2.7 3.8-4.3 5.3l-.6.3c-.2.1-.8 0-2-.4l-.2-.2c-.7-.6-.8-1.4-.5-2.6-1.2-.3-2.1-.7-2.6-1.1-.2-.2-.4-.4-.6-.5-1.9-1.7-1.7-3.4.3-6.1 1.9-1.6 4.8-1.5 8.8.6zm-5.7 2c-.6.8-.7 1.3-.4 1.7.1.1.3.2.4.3 1.4-.4 2.2-.9 2.6-1.2l.3-.3c-.8-.7-1.7-.8-2.9-.5zM113.7 110c.6 1 .8 1.8.4 2.5-.9 1.2-1.6 2.1-2.1 2.7 1.8 1.6 2.4 3 1.5 4-.7.8-1.8.5-3.3-.8-.3-.2-.5-.5-.8-.7-1.4 1.3-1.9 2-1.3 2.5 1.3 1.2 1.6 2.1.8 2.6-1.1.7-2.5.2-4.3-1.3-1.7-2.1-1-3.8 1.5-6.1.1 0 .1-.1.2-.1-.5-.4-.9-.8-1.4-1.2-.7-.6-1-1.3-.8-2.2.3-.3.5-.5.7-.8.4-.5 1.7 0 3.8 1.6 2.3-2.6 3.6-3.7 4.8-2.7.2-.1.3 0 .3 0z"/></g><g><path class="st122" d="M191.6 123c-.4 0-41.1-3.3-73 3.8-22.9 5.1-38.6 4.6-44.3 4.1-1.9-.2-2.8-.7-2.8-1.2 0-.9 2.4-3 7.4-3.7l-1.8-1.8c-4.8 1-7.6 3.2-7.7 5.4 0 .7.2 3 4.7 3.3 1.8.1 4.4.3 8 .3 8.2 0 20.8-.8 37-4.4 31.5-7 71.9-3.8 72.3-3.8.6 0 1.1-.4 1.1-.9.1-.6-.3-1.1-.9-1.1z"/></g></g></svg>