<svg xmlns="http://www.w3.org/2000/svg" viewBox="0 0 149.5 85.1"><style>.st0{fill:#fff}</style><g id="Layer_1"><path fill="#282f39" d="M6.3 71.5l100-3.6-3.1 11.2 3.1-.1L130 0H23.4L0 82.4l3.4-.1z"/><path fill="#324c6b" d="M45.6 74.1l98-3.6 2.9 11.2 3-.1L130 0H23.4l21.7 85.1 3.3-.1z"/><path fill="#ff5800" d="M143.5 67.5l-99.1 3.3L26.7 2.3h101.1z"/><path class="st0" d="M60.7 10.6c-.4.8-.8 1.6-1 2.5-.3.9-.6 1.9-.8 2.9-.3 1-.5 1.9-.8 2.9-.2 1-.5 1.9-.8 2.7-.3 1-.7 2.1-1 3.1-.4 1-.8 2-1.3 2.9 1.6.1 3 .1 4.3 0 1.3-.1 2.6-.5 3.8-1.2.9-.6 1.8-1.2 2.5-1.8.7-.7 1.3-1.4 1.8-2.2.2-.3.4-.5.6-.5.2 0 .4 0 .6.1s.3.3.4.5c.1.3.1.6 0 .9-.4 1.5-1.1 2.9-2 4.2-.9 1.3-2 2.3-3.3 3.1-.8.5-1.7.9-2.7 1.2-1 .3-2 .4-3.1.4-.8 0-1.7-.1-2.6-.2-.9-.2-1.7-.2-2.5-.2-.2.2-.5.4-.9.5s-.7.2-1.1.2c-.4 0-.7 0-1.1-.1-.4-.1-.7-.3-.9-.5-.5-.4-.9-.9-1-1.4-.1-.5 0-.9.2-1.3s.6-.7 1.1-1c.5-.3 1.1-.4 1.7-.5.4-1.2.6-2.6.8-4.1.2-1.5.5-3 .9-4.4.2-.8.5-1.7.8-2.7.3-1 .6-1.9 1-2.8.4-.9.9-1.8 1.5-2.5.6-.8 1.2-1.3 2-1.7.3-.2.7-.3 1.1-.3.4 0 .8 0 1.1.1.3.1.6.3.7.5.2 0 .2.3 0 .7z"/><path class="st0" d="M73 27.4c.6.4 1.3.6 2 .5.7 0 1.3-.2 2-.4.6-.3 1.3-.6 1.9-1.1.6-.5 1.1-.9 1.7-1.4s.9-1 1.3-1.5.7-.9.9-1.3c.1-.3.3-.4.5-.4s.4 0 .6.1c.2.1.3.3.4.5.1.2.1.5.1.8-.5 2.4-1.4 4.4-2.9 6-.5.5-1 .9-1.6 1.3-.6.4-1.2.7-1.9 1s-1.5.5-2.3.5c-.8 0-1.6-.1-2.5-.3-1-.3-1.9-.7-2.7-1.3-.7-.6-1.3-1.2-1.8-1.9s-.8-1.5-1-2.3c-.2-.8-.4-1.7-.4-2.5s0-1.6.2-2.4.3-1.5.6-2.1l.9-1.8c.4-.6.8-1.2 1.3-1.6.5-.5 1-.9 1.6-1.3.6-.3 1.3-.6 2.1-.7.9-.1 1.8 0 2.8.4s1.8.9 2.6 1.8c.7.8 1.2 1.6 1.4 2.4.2.8.3 1.6.1 2.4-.1.8-.4 1.5-.8 2.1-.4.6-.9 1.2-1.5 1.6-.9.7-1.9 1-3 1.1-1.1.1-2.2 0-3.5-.3 0 .5 0 1 .2 1.4.1.2.4.5.7.7zm1.5-5.3c.8-.3 1.3-.9 1.7-1.6.1-.2.2-.4.3-.8.1-.3.2-.7.1-1 0-.4-.1-.6-.3-.7-.2-.1-.5-.1-.7 0-.3.1-.6.3-.9.6-.3.3-.5.5-.7.8-.3.4-.6.9-.9 1.4s-.4 1-.6 1.5c.8.1 1.4.1 2-.2z"/><path class="st0" d="M93.6 14.5c-.1.4-.3.8-.7 1-.3.3-.7.5-1.2.6-.4.1-.9.2-1.4.3h-1.5c-.1.5-.3 1.1-.5 2-.2.8-.4 1.7-.6 2.7-.2.9-.3 1.9-.4 2.8-.1.9-.1 1.8-.1 2.4 0 .7.2 1.1.4 1.3.3.2.7.1 1.2-.3.4-.3.7-.7 1.1-1.2.3-.5.6-.9.9-1.4.3-.5.5-1 .8-1.5.2-.5.4-.9.6-1.3.1-.3.3-.5.5-.6.2-.1.4-.1.6 0 .2.1.3.3.4.5.1.2.1.5.1.8-.1.7-.2 1.5-.4 2.2-.1.8-.3 1.5-.5 2.2-.2.7-.4 1.3-.8 1.9-.3.6-.7 1.1-1.2 1.6-.6.5-1.3.9-2.2 1-.9.1-1.8-.1-2.7-.6-.7-.4-1.3-.9-1.8-1.6s-.8-1.3-1-2c-.2-.7-.4-1.4-.4-2.1-.1-.7-.1-1.4-.1-2 0-.5 0-1.1.1-1.6 0-.6.1-1.1.2-1.7.1-.6.2-1.3.3-2s.3-1.5.4-2.3c-.3 0-.6-.1-.9-.2-.3-.1-.6-.2-.8-.4-.4-.3-.5-.6-.5-1s.2-.7.5-1.1c.3-.3.7-.6 1.2-.8.5-.2 1-.3 1.6-.2.2-.4.4-.9.6-1.3.2-.4.5-.8.8-1.1.2-.3.6-.5 1-.6.4-.2.9-.2 1.3-.2s.9.2 1.3.4.8.6 1 1.2c.2.5.3 1 .2 1.5s-.2.9-.4 1.3c.3.1.5.1.8.2.3.1.5.1.8.1.4 0 .7.1.9.4.4.2.5.4.5.7z"/><path class="st0" d="M92.8 12.3c-.6-.7-.9-1.3-.8-1.9.1-.6.3-1.1.7-1.4.4-.3 1-.5 1.7-.5s1.3.4 2 1c.7.7 1.1 1.4 1.1 2.1 0 .7-.1 1.4-.5 2-.4.6-.8 1.2-1.4 1.6-.6.5-1.1.8-1.6 1.1-.2.1-.5.1-.8-.1s-.5-.4-.6-.7c-.1-.2 0-.4 0-.6.1-.2.1-.4.2-.6 0-.2.1-.5.2-.8.1-.3.2-.6.2-.9 0 0-.2-.2-.4-.3zM105.8 19.1c.2-.6.2-1 .2-1.3 0-.3-.1-.5-.3-.6-.2-.1-.4-.1-.7 0-.3.1-.5.2-.8.4l-.9.6c-.3.2-.5.4-.7.6-.6.6-1 1.1-1.1 1.5-.1.4-.1.7.1.9.1.1.2.2.5.2h.7c.3 0 .5 0 .7-.1.2 0 .4-.1.6-.1.7-.1 1.4 0 2.1.2.6.2 1.2.5 1.7.9s.9.9 1.2 1.4c.3.6.5 1.2.6 1.9.1.9 0 1.8-.3 2.6s-.8 1.5-1.5 2.1c-.7.6-1.6 1-2.6 1.2-1 .3-2.2.2-3.4 0-.4-.1-.7-.2-1.1-.4s-.7-.4-1.1-.6c-.3-.3-.6-.5-.9-.9-.3-.3-.5-.7-.6-1-.1-.5-.1-.9 0-1.2.1-.3.4-.6.7-.7.3-.1.7-.2 1-.1.4.1.7.3 1.1.7.4.4.7.7 1.1.7.4 0 .8-.1 1.2-.3.3-.2.6-.4 1-.7.3-.3.6-.7.9-1 .3-.4.4-.7.5-1 .1-.3.1-.6-.1-.8-.1-.1-.3-.2-.5-.2s-.4 0-.5.1c-.5.1-1 .2-1.6.2-.6 0-1.1-.1-1.7-.3-.6-.2-1.1-.4-1.6-.8s-.9-.8-1.3-1.4c-.4-.7-.6-1.3-.7-2-.1-.7 0-1.3.1-1.9.2-.6.4-1.2.8-1.7.3-.5.7-.9 1.1-1.3.4-.4.9-.7 1.5-1 .6-.3 1.2-.5 1.9-.6s1.4-.1 2.1.1c.7.2 1.4.6 2.1 1.1.6.5 1 1.1 1.2 1.7.2.6.3 1.2.2 1.7-.1.5-.3 1-.6 1.5-.3.4-.7.8-1.2 1-.4.1-.7.1-1-.1-.2-.5-.2-.8-.1-1.2zM67.4 46.8c.2-.4.4-.8.5-1.2.1-.5.2-.9.2-1.4 0-.4-.1-.9-.2-1.2-.1-.4-.3-.7-.6-.9-.3-.2-.6-.3-1-.2-.4.1-.9.3-1.6.8-.7.5-1.2 1.1-1.7 1.8s-.8 1.4-1.2 2.2c-.2.5-.4 1.2-.7 2s-.4 1.7-.4 2.6c0 .9.1 1.8.4 2.6.3.9.8 1.6 1.6 2.1.4.3.9.5 1.5.5.5.1 1.1 0 1.7-.1.6-.1 1.1-.2 1.6-.4s1-.4 1.3-.6c1.1-.6 2.1-1.4 2.9-2.2.8-.8 1.5-1.7 2.1-2.7.1-.2.3-.3.5-.3s.4 0 .6.1c.2.1.3.3.4.5.1.2.1.5.1.7-.2.7-.4 1.4-.7 2.2s-.6 1.5-.9 2.1c-.7 1.1-1.5 2.1-2.6 2.9-1 .8-2.3 1.4-3.6 1.7-1 .3-2.2.3-3.4.1-1.2-.2-2.4-.6-3.5-1.4-.8-.5-1.5-1.2-2.1-1.9-.6-.7-1.1-1.4-1.4-2.2-.4-.8-.7-1.5-.9-2.4-.2-.8-.3-1.6-.3-2.4 0-.9 0-1.8.2-2.8s.4-1.9.7-2.8.7-1.8 1.2-2.7c.5-.8 1.1-1.6 1.7-2.2.7-.6 1.4-1.2 2.2-1.6s1.7-.7 2.7-.7c.6 0 1.2 0 1.8.1.6.1 1.2.3 1.8.6s1.1.6 1.6 1.1c.5.4.9 1 1.3 1.6.4.7.7 1.4.8 2.2.1.8.1 1.5 0 2.2-.1.7-.4 1.4-.7 2s-.8 1.1-1.3 1.5c-.4.3-.7.4-1.1.4s-.7-.1-1-.4c-.3-.2-.5-.5-.6-.9-.2-.2-.1-.6.1-1z"/><path class="st0" d="M78.9 47.8l-.4 1.6c.2-.5.4-.9.6-1.4s.4-.9.7-1.3c.3-.5.6-1.1 1-1.8s.9-1.3 1.4-1.7c.5-.5 1.2-.8 1.9-1 .7-.2 1.5-.1 2.5.3.5.2 1 .5 1.4.9s.7.8.9 1.2c.2.4.4.9.5 1.4.1.5.1.9.1 1.4-.1 1.4-.3 2.6-.7 3.8-.4 1.2-.9 2.4-1.3 3.5-.2.6-.3 1-.2 1.3s.1.4.3.5c.2.1.4 0 .7-.2.3-.2.6-.4.8-.8l.9-1.2c.3-.4.5-.8.8-1.2.3-.5.6-.9.9-1.4l.9-1.5c.1-.2.3-.4.5-.4s.4 0 .5.1.3.2.4.4.1.4.1.6c-.1.3-.2.7-.4 1.2s-.3.9-.5 1.4c-.2.5-.4.9-.6 1.4-.2.4-.4.8-.5 1.1-.2.5-.5 1.1-.8 1.7-.3.6-.7 1.1-1.2 1.6-.5.4-1 .8-1.6 1-.6.2-1.4.2-2.2-.1-.7-.2-1.3-.6-1.8-1s-.9-.9-1.1-1.5c-.3-.5-.5-1.1-.6-1.7-.1-.6-.1-1.2-.1-1.7.1-.7.2-1.4.4-2.1.2-.7.4-1.3.7-1.9.2-.6.5-1.2.8-1.8s.5-1.2.7-1.9c.1-.4.1-.6 0-.7-.1-.1-.3-.1-.5.1-.3.1-.6.4-.9.7-.4.4-.8.8-1.2 1.3-.5.6-.9 1.2-1.3 1.9s-.7 1.3-1.1 2c-.3.6-.6 1.1-.8 1.7-.3.6-.5 1.1-.7 1.7-.2.6-.4 1.2-.5 1.8-.1.6-.1 1.3 0 2 .1.4 0 .7-.2.9-.2.2-.4.4-.7.5-.3.1-.6.1-.9.1-.3 0-.6-.2-.9-.3-.5-.3-.8-.6-1.1-1.1-.3-.5-.5-1-.6-1.6l-.3-1.8V54c0-.6.1-1.1.1-1.6.1-.5.1-.9.2-1.2.2-1.5.5-3 .8-4.5.4-1.5.8-2.9 1.3-4.3.1-.3.2-.7.4-1.2s.4-1 .6-1.6c.2-.5.5-1.1.8-1.6.3-.5.7-.9 1.1-1.3.4-.3.8-.5 1.3-.6s1 0 1.6.3c.6.3 1 .7 1.3 1.3.3.5.4 1.1.3 1.6-.1.5-.2 1.1-.4 1.6s-.5 1.1-.9 1.7c-.3.6-.8 1.2-1.2 1.9-.5.7-1 1.4-1.5 2.2l-.5 1.1z"/><path class="st0" d="M105.6 45.6c-1.2-.1-2.2 0-3.1.4-.9.4-1.7.9-2.4 1.5-.7.7-1.3 1.4-1.7 2.2-.5.8-.8 1.6-1.1 2.5-.4 1.4-.6 2.4-.4 2.8.2.4.5.5 1 .2s1-.9 1.7-1.9c.6-.9 1.2-2.1 1.7-3.4.1-.3.3-.6.4-1 .2-.3.3-.6.5-.9.2-.3.5-.5.8-.7.3-.2.7-.3 1.1-.4.5-.1 1 0 1.4.2s.8.4 1.1.7c.3.3.5.7.6 1.1.1.4.1.9-.1 1.4-.1.2-.1.5-.3.8-.1.3-.2.7-.4 1s-.2.7-.3 1.1-.1.7-.2 1.1c0 .5.1.7.3.7.3 0 .5-.2.9-.6.6-.7 1.2-1.5 1.6-2.3.4-.8.9-1.5 1.3-2.2.1-.1.2-.2.3-.2.1 0 .3 0 .4.1.1.1.3.2.4.3s.2.3.2.5c.1.8 0 1.6-.3 2.7-.2 1-.6 2-1.1 2.9-.5.9-1.1 1.8-1.7 2.5s-1.4 1.1-2.1 1.2c-.5.1-1 0-1.5-.1s-1-.3-1.4-.6c-.4-.3-.8-.7-1.1-1.1-.3-.4-.6-.9-.7-1.4l-.3-1.2c-.1-.4-.1-.8-.1-1.2-.2.6-.4 1.3-.6 2.1-.2.7-.5 1.4-.8 2-.3.6-.8 1.1-1.3 1.4s-1.3.4-2.2.2c-1-.2-1.8-.6-2.4-1.2-.6-.6-1-1.3-1.3-2.1-.3-.8-.5-1.6-.5-2.4s0-1.6.1-2.2c.2-1.6.7-3.1 1.4-4.5s1.7-2.6 2.9-3.6c.5-.5 1.2-.9 1.9-1.3s1.5-.6 2.4-.8c.8-.1 1.7-.1 2.6 0 .9.1 1.8.5 2.7 1.1.4.2.6.5.8.8.2.3.2.6.2.9s-.2.5-.4.7c-.2.2-.5.2-.9.2z"/><path class="st0" d="M120.7 42.6c-.1.4-.3.8-.7 1-.3.3-.7.5-1.2.6s-.9.2-1.4.3h-1.5c-.1.5-.3 1.1-.5 2-.2.8-.4 1.7-.6 2.7-.2.9-.3 1.9-.4 2.8-.1.9-.1 1.8-.1 2.4 0 .7.2 1.1.4 1.3.3.2.7.1 1.2-.3.4-.3.7-.7 1.1-1.2.3-.5.6-.9.9-1.4.3-.5.5-1 .8-1.5.2-.5.4-.9.6-1.3.1-.3.3-.5.5-.6.2-.1.4-.1.6 0 .2.1.3.3.4.5.1.2.1.5.1.8-.1.7-.2 1.5-.4 2.2-.1.8-.3 1.5-.5 2.2-.2.7-.4 1.3-.8 1.9s-.7 1.1-1.2 1.6c-.6.5-1.3.9-2.2 1-.9.1-1.8-.1-2.7-.6-.7-.4-1.3-.9-1.8-1.6-.4-.6-.8-1.3-1-2-.2-.7-.4-1.4-.4-2.1-.1-.7-.1-1.4-.1-2 0-.5 0-1.1.1-1.6 0-.6.1-1.1.2-1.7.1-.6.2-1.3.3-2 .1-.7.3-1.5.4-2.3-.3 0-.6-.1-.9-.2-.3-.1-.6-.2-.8-.4-.4-.3-.5-.6-.5-1s.2-.7.5-1.1c.3-.3.7-.6 1.2-.8.5-.2 1-.3 1.6-.2.2-.4.4-.9.6-1.3.2-.4.5-.8.8-1.1.2-.3.6-.5 1-.6.4-.2.9-.2 1.3-.2s.9.2 1.3.4.8.6 1 1.2c.2.5.3 1 .2 1.5-.1.5-.2.9-.4 1.3.3.1.5.1.8.2s.5.1.8.1c.4 0 .7.1.9.4.5.2.6.5.5.7z"/></g></svg>