<svg xmlns="http://www.w3.org/2000/svg" viewBox="0 0 169.6 55.2"><style>.st193{fill:#1a6163}.st194{fill:#ff5800}.st195{fill:#ff9700}.st196{fill:#fff9c0}</style><g id="Layer_1"><path d="M80.1 11.8z" fill="none"/><path class="st193" d="M2.6 55.2C1.3 55.1.3 54.1.1 52.7c-.3-1.8.5-4.1 2.3-4.8.2-.1.3-.1.5-.2.3-.3.7-.6 1-.8-.2-.4-.3-.9-.2-1.3.3-6.2 3.2-17.5 5.5-25.3 4.9-16.5 7.2-18 8.5-18.1.5-.5 1-1 1.8-1.1C20 .5 20.7 0 21.6 0h.2c.1 0 7.4 1.2 7.2 4.5 0 .6-.3 1.1-.7 1.5l-.2.2c-.2.2-.4.4-.5.6-3.7 5.7-9.8 27.3-11.4 36.1 2.6-.4 5.2-.7 7.5-.9-.8-1.3-1.4-3-1.5-4.8-.5-6.9 4.4-16 10-18.9.6-.5 1.3-.9 1.9-1.2 1.8-1.3 3.6-2 5.4-2h.3c.2 0 .4 0 .6.1l.3-.6c.3-.4.8-.8 1.6-.9 0-.1.1-.1.1-.2.3-.4.8-.8 1.7-.9l.1-.1c.3-.4.9-1 2.1-1 .7 0 1.4 0 2.2-.1.2-.7.5-1.3.8-2 .6-1.3 1.6-2.9 3.1-3.3.4-.5 1-.9 1.8-1.1.5-.5 1.3-1.1 2.3-1.1h.2c1 .1 7 1.5 6.8 4.5 0 .8-.5 1.2-.7 1.5-.1.1-.1.2-.2.3-.1.1-.2.2-.3.4 1.9.2 2.7.6 3.2.9 1.6 1 1.5 4.1 1.5 4.1-.1 1-.5 1.7-1.2 2.1l-.3.3H65c-.2.3-.5.6-.8.8l-.4.3h-.5c-.2.3-.5.6-.8.8l-.5.3h-1l-.3-.1c-.5-.2-1.1-.3-1.7-.4-1 2.9-1.9 5.9-2.7 8.7.8-1.4 1.5-2.6 1.9-3.7.4-.9 1.2-1.4 2-1.6.4-.6 1.1-1 1.8-1.1.6-.8 1.4-1.2 2.4-1.1.9.1 1.7.5 2.2 1.3.5.7.5 1.6.2 2.4-1.5 3.3-8.3 15.9-14.3 18.6-.5.4-1.1.7-1.6 1-1.6 1.2-3.1 1.8-4.5 1.8H46c-1.8-.1-2.9-.9-3.5-1.6-.6-.7-.9-1.5-1.1-2.4-.4.3-.9.5-1.3.8-.5.3-1 .7-1.5.9-2 1.4-4 2.2-6 2.3.2 1.9.1 4.2-1.5 4.9l-.4.2h-.4c-.2.4-.5.7-1 .9l-.3.2h-.3c-.2.4-.5.7-1 .9l-.4.2h-1.1l-.3-.1c-.3-.1-.5-.2-.7-.2-.9-.1-2-.2-3.1-.3-6.4-.4-13.4.5-18.2 2.3-.4.1-.9.2-1.3.2zm32.8-19.3c.3 1.3 1.1 1.3 1.5 1.4h.5c1.1-1.1 2.2-2.6 3.4-4.4-.1 0-.2.1-.3.1l-1.5.9c-1.1.8-2.3 1.5-3.6 2z"/><path class="st193" d="M64.8 20.7c-.9 0-1.6-.6-1.8-1.3-.3-.8 0-1.6.6-2.2l.1-.1.1-.1c.3-.2.6-.5.8-.7-.9-.9-1.4-2.4-1.2-4.1.3-2.5 1.8-5.1 3.8-5.7.6-.5 1.2-.9 1.8-1 .8-.8 1.7-1.2 2.6-1.2h.5c1.9.1 3.3.7 4.2 1.7 1.7 1.7 1.1 3.7.8 5l-.1.2c-1.2 4.2-3.5 5.9-5.2 6.7-.5.4-1.1.7-1.6 1-1.5 1.2-3.3 1.8-5.2 1.8h-.2z"/><path class="st193" d="M67.8 44.5c-2.6-.1-4.5-1.3-5.5-3.3-.8-1.7-.6-3.8.7-5.4.7-1 1.6-1.8 2.8-2.3.5-.5 1.2-.8 1.9-1.1.7-.6 1.4-1 2.4-1.3-.1-.1-.2-.2-.2-.4-1.3-1.9-2.9-4.2-2.7-7.6.2-3 2-5.6 4.9-7 .6-.5 1.2-.9 1.9-1.2 1.7-1.3 3.9-2 6.2-2h.2c3.3.2 6.9 4.1 6.7 7.4 0 .2-.1.5-.1.8.4-.6 1-.9 1.7-1 .5-.7 1.4-1.1 2.3-1.1.9.1 1.7.5 2.2 1.2.5.7.5 1.6.3 2.4-1.9 4.7-4.6 8-8.6 10.2-.2 3.2-2.3 6-5.8 7.8-.5.3-1 .7-1.5.9-2.5 1.8-5.8 2.9-9 2.9-.5.1-.7.1-.8.1zm14.7-17.7c.3-.4.6-.8.9-1.3-.1 0-.2.1-.3.1-.3.3-.6.5-.9.7 0 .2.1.3.3.5z"/><path class="st193" d="M94.9 53.6c-2.4-.1-5.9-2-5.7-4.7.3-5.3 2.4-14 4.2-20.4.9-3.2 1.8-6 2.9-8.7-4.3.6-6.9 1-9.2 1.8h-.2c-.1 0-.3.1-.5.3l-.2.1-.2.1c-.2.1-.6.3-1.1.3-.2 0-.3 0-.5-.1-.4-.1-.9-.4-1.3-.9-1.2-1.5-1.8-5.2-1.6-6.6.2-1.3 1.3-1.9 2.3-2.3.5-.5 1.2-.9 1.8-1.1.7-.7 1.8-1.2 3.6-1.6 8.4-2 19.1-2.8 30.1-2.2h.8c.6 0 1.6.3 2.4 1.3 1 1.3 1.6 3.4 1.4 5-.1.6-.5 2-2.2 2.2-.3.5-.8.9-1.7 1.1-.4.6-1.1 1.1-2.3 1.1h-.4c-2-.1-4.4-.1-7.1.1-.6 1.1-1.2 2.4-1.7 3.6-3.6 9.6-7.1 22.9-7.3 27-.1 1.3-1 2.3-2.2 2.4-.4.6-1 .9-1.7 1.1-.5.7-1.3 1.1-2.2 1.1h-.2z"/><path class="st193" d="M107.3 50.6c-3.2-.2-5.3-2.3-5.5-5.6-.5-7.6 4.1-18.7 11.2-22.5.7-.5 1.3-.9 2-1.2.6-.4 1.2-.8 1.8-1.1.8-.4 1.7-.6 2.7-.6 1.4.1 2.8.7 4 1.3.8-.9 1.6-1 2.1-1h.2c1 .1 2.2.5 3.2 1 .3-1 .6-2 1-2.9 3.3-9.5 5-11.1 6.4-11.3.5-.5 1-1 1.8-1.1.5-.6 1.2-1.1 2.1-1.1h.2c.1 0 4.1.7 6.1 2.4.2-.1.4-.1.6-.2.5-.5 1-1 1.8-1.1.5-.6 1.2-1.1 2.1-1.1h.2c.6 0 7.4 1.4 7.2 4.5 0 .6-.3 1.1-.7 1.5l-.1.2-.4.4v.1l-.1.1c-1.3 2-3 6-4.8 11.2.1 0 .2-.1.3-.1.7-.5 1.3-.9 1.9-1.1.9-.7 2.3-1.6 3.9-1.5.6 0 1.2.2 1.7.5 1.7 1 2.6 2.7 3 3.7.4 1 .5 1.9.4 2.9.3-.2.6-.3 1-.3.6-.8 1.4-1.2 2.4-1.1.9.1 1.8.6 2.2 1.3.4.8.5 1.7.1 2.5-.2.3-.4.8-.6 1.3-3.5 7.8-7.4 15.3-12 17.3-.5.4-1.1.8-1.6 1-1.4 1.1-2.9 1.7-4.3 1.7h-.3c-1.8-.1-3.5-1.1-4.8-2.8-.4.3-.8.6-1.4.6-.4.6-1 .9-1.7 1.1-.5.7-1.2 1.1-2.2 1.1h-.3c-1.1-.1-2.4-.5-3.5-1.2-.8-.5-1.3-1-1.7-1.6 0 0-.1 0-.1.1-.5.4-1.1.7-1.6 1-1.5 1.2-3 1.7-4.4 1.7h-.4c-1-.1-3.1-.5-4.1-2.7-.5.4-1.1.7-1.6 1-1.5 1.1-2.9 1.7-4.4 1.7h-.3c-2-.1-3.4-1.2-4.2-2.7-.5.4-1.1.7-1.6 1-1.5 1.1-3 1.7-4.5 1.7h-.4zm48.2-14.7c.1 1 .3 2.3.6 3.5 1.1-2 2.1-4.1 3-6.1-1.1 1-2.3 1.8-3.6 2.6z"/><g><path class="st194" d="M18.1 4c1.3 0 5.6 1.6 5.6 2.6 0 .1-.1.2-.1.3-.3.4-.6.6-.9 1.1-4.2 6.5-11.4 32.8-12 39.3 4.4-.9 9.9-1.4 13.6-1.5 1.6 0 2.6.2 2.7.6.5 1.1.8 4.6 0 5h-.3c-.3-.1-.7-.3-1.1-.3-6.7-.9-15.8-.3-22.2 2.1-2 .8-1.7-3.1-.2-3.7 1.4-.6 3.1-1.2 4.8-1.6-1.3-.5-2.4-1.4-2.4-2.3C6.1 35 15.2 4 18.1 4z"/><path class="st194" d="M36.2 19.1c2.5 0 6.7 3.2 6.6 5.9-.3 5.8-7.7 10.3-12.8 10.3-.3 3.3.6 6 3.6 6 5.3 0 10.7-10.2 13.3-15.9.5-1.1 2.1-.4 1.6.7-2.7 6.1-8.6 18.1-16.1 18.1-15.9 0-5.6-25.2 3.8-25.1zm-6.1 14.7c3.6 0 7.8-5 8.1-10 .1-1.3-1-1.7-2-1-2.8 1.9-5.3 6.8-6.1 11z"/><path class="st194" d="M57 12.5c-.3.6-.5 1.2-.8 1.9 2 0 4.1.2 4.9.8.4.2.7 1.9.6 2.5 0 .4-.1.6-.3.7h-.2c-1.9-.6-4.2-.7-6.3-.7-2.6 7.4-5.4 16.5-6.5 22.1-.2 1.4 0 1.6 1 .7 4-3.9 8.4-10.9 10.3-15 .5-1.1 2.1-.4 1.7.6-1.9 4.2-9.8 18.1-15.2 18.1-3.7 0-3.3-3.7-3-6.1.8-5.7 3-13.5 5.2-20.3H47c-1.2 0-4.1.1-4.7-1.6-.2-.5 0-.7.6-.7 2.2 0 4.3-.2 6.4-.5.6-1.6 1-3.2 1.8-4.7.7-1.5 1.4-2.3 2-2.3 1.3 0 5.2 1.6 5.2 2.6 0 .1-.1.2-.2.3-.1.1-.1.2-.2.2-.4.4-.7.9-.9 1.4zM71.8 12.8c-1.3 4.5-4 6-6.9 6-.3 0-.3-.2-.1-.4.9-.6 1.8-1.5 2.3-2.6.1-.2.2-.4-.1-.4-3.5-.7-1.2-7.4 1.1-7.3 1.5 0 2.7.4 3.4 1.1 1 1.2.6 2.4.3 3.6zM64.5 36.9c1.1-1.6 2.8-2.1 4.7-2.3 1.5-.2 3-.2 4.2-.4-.4-3.7-4.8-6.1-4.5-10.9.2-4 4-6.4 7.6-6.4 2.4 0 5.2 3.2 5.1 5.4-.1 1.4-1.7 3.7-2.6 3.7-1.4 0-3.4-.9-3.4-1.6 0-.1.1-.2.1-.2 1.1 0 2.1-1.7 2.2-2.9 0-.7-.3-1.4-1-1.4-1.6 0-2.5 2.7-2.6 3.8-.2 3.3 3.2 5.7 4.5 8.5 3.7-1.9 6-4.9 7.5-8.7.4-1.1 2.1-.5 1.7.6-1.9 4.7-4.7 7.8-8.7 9.8.5 5.5-6 8.8-11 8.8-4.2 0-5.7-3.3-3.8-5.8zm3.5-.5c-2.9.7-2.2 4.6 1 3.6 1.9-.6 3.6-2.4 4.2-4-1.4.2-3.6.1-5.2.4z"/><path class="st194" d="M118.6 15.7c-.1.6-.4.7-.9.7-4.1-.3-8.6 0-12.9.5 1.6.8 1.2 1.1.4 2.5-.6 1.1-1.3 2.4-1.9 4.1-3.6 9.5-7.1 23-7.3 27.5 0 .5-.3.7-.8.7-1.6 0-4.3-1.4-4.2-2.8.3-4.7 2-12.7 4.1-20 1.1-3.9 2.3-7.7 4-11.5-6.2.8-9.7 1.2-12.7 2.4-.5.1-.8.4-1.2.6-.1.1-.3.1-.3.1-1-.1-1.9-4.3-1.7-5.5.1-.5 1.1-1 2.8-1.4 9.9-2.4 21.2-2.7 30.5-2.1 1.4.1 2.3 2.8 2.1 4.2z"/><path class="st194" d="M115.4 42.2c.1-.1.1-.2.1-.4-2.1 3.8-4.8 7-7.8 7-2.6 0-4-1.6-4.1-3.9-.5-6.8 3.8-17.6 10.5-20.9 2.1-1.1 4.4.4 6.7 1.5l.4-.8c.3-.5.6-.8 1-.8 1.2 0 3.4 1.1 4.1 1.8.7.5-.1 1.3-.4 1.9-2.5 5.5-4.5 12.7-5.6 17.3-.2.9.3.9.9.4 4.2-3.8 7.4-11.1 9.3-15.3.5-1.1 2.1-.4 1.7.6-1.9 4.2-8.2 18.1-13.8 18.1-2.3 0-3.7-2.3-3.4-4.2.1-.8.2-1.5.4-2.3zm3.8-13.3c.2-.6.5-1.1.7-1.6-.3-.5-.8-.8-1.5-.8-4.5 0-8.6 10.7-9.3 16.1-.1.7-.4 2.9.7 2.9 3.2 0 8.3-13.6 9.4-16.6z"/><path class="st194" d="M136.9 8.6c1.3 0 5.6 1.6 5.6 2.6 0 .1-.1.2-.1.3-.4.4-.6.6-.9 1.1-3.6 5.6-8.9 23.1-10.5 31.9-.2 1.4 0 1.6 1.1.7 4-3.9 7.3-10.9 9.2-15 .5-1.1 2.2-.4 1.7.6-1.9 4.2-8.5 18.1-14.1 18.1-3.6 0-3.3-3.7-3-6.1 1.6-12.2 8.5-34.2 11-34.2z"/><path class="st194" d="M155.9 24.1c1 .6 1.8 1.7 2.3 2.8.6 1.4.2 2.7-.8 4-1.8 2.3-4.4 4.5-7.2 6 0 1.2.8 8.8 2.9 8.8.2 0 .4-.1.7-.4 4.2-3.8 6.8-11.1 8.8-15.3.5-1.1 2.2-.4 1.7.6-1.9 4.2-7.7 18.1-13.3 18.1-4.1 0-6.2-6.4-6.3-10.1-1.3 2.4-2.3 4.8-2.9 7-.2.7-.4 1.6-.4 2.3 0 .5-.2.7-.8.7-1.6 0-4.3-1.4-4.2-2.8.6-11 8.7-37.5 11.5-37.5 1.3 0 5.6 1.6 5.6 2.6 0 .1-.1.2-.1.3-.4.4-.6.6-.8 1.1-2.8 4.3-6.5 15.5-8.8 24.4 2.2-3.9 4.7-8.4 8.2-11.5 1-.9 2.6-1.9 3.9-1.1zm-10.3 12.8c2.5-1.5 6.4-5.4 7.5-8.7.3-.8.2-1.7-1-.6-2.8 2.8-4.7 6.2-6.5 9.3z"/></g><g><path class="st195" d="M19.8 2.9c1.3 0 5.6 1.6 5.6 2.6 0 .1-.1.2-.1.3-.3.4-.6.6-.9 1.1-4.2 6.5-11.4 32.8-12 39.3 4.4-.9 9.9-1.4 13.6-1.5 1.6 0 2.6.2 2.7.6.5 1.1.8 4.6 0 5h-.3c-.3-.1-.7-.3-1.1-.3-6.7-.9-15.8-.3-22.2 2.1-2 .8-1.7-3.1-.2-3.7 1.4-.6 3.1-1.2 4.8-1.6-1.3-.5-2.4-1.4-2.4-2.3C7.8 34 17 2.9 19.8 2.9z"/><path class="st195" d="M37.9 18c2.5 0 6.7 3.2 6.6 5.9-.3 5.8-7.7 10.3-12.8 10.3-.3 3.3.6 6 3.6 6 5.3 0 10.7-10.2 13.3-15.9.5-1.1 2.1-.4 1.6.7-2.7 6.1-8.6 18.1-16.1 18.1-15.9 0-5.6-25.1 3.8-25.1zm-6 14.8c3.6 0 7.8-5 8.1-10 .1-1.3-1-1.7-2-1-2.9 1.8-5.4 6.7-6.1 11z"/><path class="st195" d="M58.7 11.5c-.3.6-.5 1.2-.8 1.9 2 0 4.1.2 4.9.8.4.2.7 1.9.6 2.5 0 .4-.1.6-.3.7h-.2c-1.9-.6-4.2-.7-6.3-.7-2.6 7.4-5.4 16.5-6.5 22.1-.2 1.4 0 1.6 1 .7 4-3.9 8.4-10.9 10.3-15 .5-1.1 2.1-.4 1.7.6-1.9 4.2-9.8 18.1-15.2 18.1-3.7 0-3.3-3.7-3-6.1.8-5.7 3-13.5 5.2-20.3h-1.4c-1.2 0-4.1.1-4.7-1.6-.2-.5 0-.7.6-.7 2.2 0 4.3-.2 6.4-.5.6-1.6 1-3.2 1.8-4.7.7-1.5 1.4-2.3 2-2.3C56.1 7 60 8.6 60 9.6c0 .1-.1.2-.2.3-.1.1-.1.2-.2.2-.4.4-.7.8-.9 1.4zM73.5 11.8c-1.3 4.5-4 6-6.9 6-.3 0-.3-.2-.1-.4.9-.6 1.8-1.5 2.3-2.6.1-.2.2-.4-.1-.4-3.5-.7-1.2-7.4 1.1-7.3 1.5 0 2.7.4 3.4 1.1 1 1.1.6 2.3.3 3.6zM66.2 35.8c1.1-1.6 2.8-2.1 4.7-2.3 1.5-.2 3-.2 4.2-.4-.4-3.7-4.8-6.1-4.5-10.9.2-4 4-6.4 7.6-6.4 2.4 0 5.2 3.2 5.1 5.4-.1 1.3-1.7 3.6-2.6 3.6-1.4 0-3.4-.9-3.4-1.6 0-.1.1-.2.1-.2 1.1 0 2.1-1.7 2.2-2.9 0-.7-.3-1.4-1-1.4-1.6 0-2.5 2.7-2.6 3.8-.2 3.3 3.2 5.7 4.5 8.5 3.7-1.9 6-4.9 7.5-8.7.4-1.1 2.1-.5 1.7.6-1.9 4.7-4.7 7.8-8.7 9.8.5 5.5-6 8.8-11 8.8-4.2.1-5.7-3.2-3.8-5.7zm3.6-.5c-2.9.7-2.2 4.6.9 3.6 1.9-.6 3.6-2.4 4.2-4-1.4.3-3.6.1-5.1.4z"/><path class="st195" d="M120.3 14.6c-.1.6-.4.7-.9.7-4.1-.3-8.6 0-12.9.5 1.6.8 1.2 1.1.4 2.5-.6 1.1-1.3 2.4-1.9 4.1-3.6 9.5-7.2 23.1-7.4 27.6 0 .5-.3.7-.8.7-1.6 0-4.3-1.4-4.2-2.8.3-4.7 2-12.7 4.1-20 1.1-3.9 2.3-7.7 4-11.5-6.2.8-9.7 1.2-12.7 2.4-.5.1-.8.4-1.2.6-.1.1-.3.1-.3.1-1-.1-1.9-4.3-1.7-5.5.1-.5 1.1-1 2.8-1.4 9.9-2.4 21.2-2.7 30.5-2.1 1.5 0 2.4 2.7 2.2 4.1z"/><path class="st195" d="M117.1 41.1c.1-.1.1-.2.1-.4-2.1 3.8-4.8 7-7.8 7-2.6 0-4-1.6-4.1-3.9-.5-6.8 3.8-17.6 10.5-20.9 2.1-1.1 4.4.4 6.7 1.5l.4-.8c.3-.5.6-.8 1-.8 1.2 0 3.4 1.1 4.1 1.8.7.5-.1 1.3-.4 1.9-2.5 5.5-4.5 12.7-5.6 17.3-.2.9.3.9.9.4 4.2-3.8 7.4-11.1 9.3-15.3.5-1.1 2.1-.4 1.7.6-1.9 4.2-8.2 18.1-13.8 18.1-2.3 0-3.7-2.3-3.4-4.2.1-.8.2-1.5.4-2.3zm3.8-13.2c.2-.6.5-1.1.7-1.6-.3-.5-.8-.8-1.5-.8-4.5 0-8.6 10.7-9.3 16.1-.1.7-.4 2.9.7 2.9 3.2-.1 8.3-13.7 9.4-16.6z"/><path class="st195" d="M138.7 7.5c1.3 0 5.6 1.6 5.6 2.6 0 .1-.1.2-.1.3-.4.4-.6.6-.9 1.1-3.6 5.6-8.9 23.1-10.5 31.9-.2 1.4 0 1.6 1.1.7 4-3.9 7.3-10.9 9.2-15 .5-1.1 2.2-.4 1.7.6-1.9 4.2-8.5 18.1-14.1 18.1-3.6 0-3.3-3.7-3-6.1 1.5-12.1 8.4-34.2 11-34.2z"/><path class="st195" d="M157.6 23.1c1 .6 1.8 1.7 2.3 2.8.6 1.4.2 2.7-.8 4-1.8 2.3-4.4 4.5-7.2 6 0 1.2.8 8.8 2.9 8.8.2 0 .4-.1.7-.4 4.2-3.8 6.8-11.1 8.8-15.3.5-1.1 2.2-.4 1.7.6-1.9 4.2-7.7 18.1-13.3 18.1-4.1 0-6.2-6.4-6.3-10.1-1.3 2.4-2.3 4.8-2.9 7-.2.7-.4 1.6-.4 2.3 0 .5-.2.7-.8.7-1.6 0-4.3-1.4-4.2-2.8.6-11 8.7-37.5 11.5-37.5 1.3 0 5.6 1.6 5.6 2.6 0 .1-.1.2-.1.3-.4.4-.6.6-.8 1.1-2.8 4.3-6.5 15.5-8.8 24.4 2.2-3.9 4.7-8.4 8.2-11.5 1.1-1 2.6-2 3.9-1.1zm-10.3 12.7c2.5-1.5 6.4-5.4 7.5-8.7.3-.8.2-1.7-1-.6-2.7 2.8-4.7 6.2-6.5 9.3z"/></g><g><path class="st196" d="M21.6 1.8c1.3 0 5.6 1.6 5.6 2.6 0 .1-.1.2-.1.3-.3.4-.6.6-.9 1.1-4.2 6.5-11.4 32.8-12 39.3 4.4-.9 9.9-1.4 13.6-1.5 1.6 0 2.6.2 2.7.6.5 1.1.8 4.6 0 5h-.3c-.3-.1-.7-.3-1.1-.3-6.7-.9-15.8-.3-22.2 2.1-2 .8-1.7-3.1-.2-3.7 1.4-.6 3.1-1.2 4.8-1.6-1.4-.4-2.5-1.3-2.5-2.2.6-10.6 9.7-41.7 12.6-41.7z"/><path class="st196" d="M39.7 16.9c2.5 0 6.7 3.2 6.6 5.9-.3 5.8-7.7 10.3-12.8 10.3-.3 3.3.6 6 3.6 6 5.3 0 10.7-10.2 13.3-15.9.5-1.1 2.1-.4 1.6.7C49.2 30 43.3 42.1 35.8 42c-15.8 0-5.5-25.1 3.9-25.1zm-6.1 14.8c3.6 0 7.8-5 8.1-10 .1-1.3-1-1.7-2-1-2.8 1.8-5.3 6.7-6.1 11z"/><path class="st196" d="M60.5 10.4c-.3.6-.5 1.2-.8 1.9 2 0 4.1.2 4.9.8.4.2.7 1.9.6 2.5 0 .4-.1.6-.3.7h-.2c-1.9-.6-4.2-.7-6.3-.7-2.6 7.3-5.3 16.4-6.4 22-.2 1.4 0 1.6 1 .7 4-3.9 8.4-10.9 10.3-15 .5-1.1 2.1-.4 1.7.6C63.1 28.1 55.2 42 49.8 42c-3.7 0-3.3-3.7-3-6.1.8-5.7 3-13.5 5.2-20.3h-1.4c-1.2 0-4.1.1-4.7-1.6-.2-.5 0-.7.6-.7 2.2 0 4.3-.2 6.4-.5.6-1.6 1-3.2 1.8-4.7s1.4-2.3 2-2.3c1.3 0 5.2 1.6 5.2 2.6 0 .1-.1.2-.2.3-.1.1-.1.2-.2.2-.6.5-.8.9-1 1.5zM75.3 10.7c-1.3 4.5-4 6-6.9 6-.3 0-.3-.2-.1-.4.9-.6 1.8-1.5 2.3-2.6.1-.2.2-.4-.1-.4-3.5-.7-1.2-7.4 1.1-7.3 1.5 0 2.7.4 3.4 1.1 1 1.2.6 2.3.3 3.6zM68 34.7c1.1-1.6 2.8-2.1 4.7-2.3 1.5-.2 3-.2 4.2-.4-.4-3.7-4.8-6.1-4.5-10.9.2-4 4-6.4 7.6-6.4 2.4 0 5.2 3.2 5.1 5.4-.1 1.3-1.7 3.6-2.6 3.6-1.4 0-3.4-.9-3.4-1.6 0-.1.1-.2.1-.2 1.1 0 2.1-1.7 2.2-2.9 0-.7-.3-1.4-1-1.4-1.6 0-2.5 2.7-2.6 3.8-.2 3.3 3.2 5.7 4.5 8.5 3.7-1.9 6-4.9 7.5-8.7.4-1.1 2.1-.5 1.7.6-1.9 4.7-4.7 7.8-8.7 9.8.5 5.5-6 8.8-11 8.8-4.2.1-5.7-3.2-3.8-5.7zm3.5-.4c-2.9.7-2.2 4.6.9 3.6 1.9-.6 3.6-2.4 4.2-4-1.3.2-3.5 0-5.1.4z"/><path class="st196" d="M122.1 13.6c-.1.6-.4.7-.9.7-4.1-.3-8.6 0-12.9.5 1.6.8 1.2 1.1.4 2.5-.6 1.1-1.3 2.4-1.9 4.1-3.6 9.5-7.2 23.1-7.4 27.6 0 .5-.3.7-.8.7-1.6 0-4.3-1.4-4.2-2.8.3-4.7 2-12.7 4.1-20 1.1-3.9 2.3-7.7 4-11.5-6.2.8-9.7 1.2-12.7 2.4-.5.1-.8.4-1.2.6-.1.1-.3.1-.3.1-1-.1-1.9-4.3-1.7-5.5.1-.5 1.1-1 2.8-1.4 9.9-2.4 21.2-2.7 30.5-2.1 1.5-.1 2.4 2.6 2.2 4.1z"/><path class="st196" d="M118.9 40c.1-.1.1-.2.1-.4-2.1 3.8-4.8 7-7.8 7-2.6 0-4-1.6-4.1-3.9-.5-6.8 3.8-17.6 10.5-20.9 2.1-1.1 4.4.4 6.7 1.5l.4-.8c.3-.5.6-.8 1-.8 1.2 0 3.4 1.1 4.1 1.8.7.5-.1 1.3-.4 1.9-2.5 5.5-4.5 12.7-5.6 17.3-.2.9.3.9.9.4 4.2-3.8 7.4-11.1 9.3-15.3.5-1.1 2.1-.4 1.7.6-1.9 4.2-8.2 18.1-13.8 18.1-2.3 0-3.7-2.3-3.4-4.2.1-.7.2-1.5.4-2.3zm3.8-13.2c.2-.6.5-1.1.7-1.6-.3-.5-.8-.8-1.5-.8-4.5 0-8.6 10.7-9.3 16.1-.1.7-.4 2.9.7 2.9 3.2 0 8.3-13.7 9.4-16.6z"/><path class="st196" d="M140.4 6.4c1.3 0 5.6 1.6 5.6 2.6 0 .1-.1.2-.1.3-.4.4-.6.6-.9 1.1-3.6 5.6-8.9 23.1-10.5 31.9-.2 1.4 0 1.6 1.1.7 4-3.9 7.3-10.9 9.2-15 .5-1.1 2.2-.4 1.7.6-1.9 4.2-8.5 18.1-14.1 18.1-3.6 0-3.3-3.7-3-6.1 1.6-12.1 8.5-34.2 11-34.2z"/><path class="st196" d="M159.4 22c1 .6 1.8 1.7 2.3 2.8.6 1.4.2 2.7-.8 4-1.8 2.3-4.4 4.5-7.2 6 0 1.2.8 8.8 2.9 8.8.2 0 .4-.1.7-.4 4.2-3.8 6.8-11.1 8.8-15.3.5-1.1 2.2-.4 1.7.6-1.9 4.2-7.7 18.1-13.3 18.1-4.1 0-6.2-6.4-6.3-10.1-1.3 2.4-2.3 4.8-2.9 7-.2.7-.4 1.6-.4 2.3 0 .5-.2.7-.8.7-1.6 0-4.3-1.4-4.2-2.8.6-11 8.7-37.5 11.5-37.5 1.3 0 5.6 1.6 5.6 2.6 0 .1-.1.2-.1.3-.4.4-.6.6-.8 1.1-2.8 4.3-6.5 15.5-8.8 24.4 2.2-3.9 4.7-8.4 8.2-11.5 1-.9 2.6-1.9 3.9-1.1zM149 34.8c2.5-1.5 6.4-5.4 7.5-8.7.3-.8.2-1.7-1-.6-2.7 2.7-4.6 6.1-6.5 9.3z"/></g></g></svg>