<svg xmlns="http://www.w3.org/2000/svg" viewBox="0 0 187.4 51.7"><style>.st69{fill:none}.st190{fill:#f27576}.st191{fill:#71c6b0}</style><g id="Layer_1"><path class="st69" d="M147.7 6.1c.4 1 .6 2.1.9 3.1.2 1 .4 2.1.6 3.2.3 1.6.5 3.2.7 4.7.2 1.6.5 3.1.7 4.7 0 .2 0 .3.1.5 0 .2.1.3.1.5h.2c.4-.1.8-.2 1.2-.2.1 0 .2 0 .3-.1-.2-1.6-.5-3.1-.7-4.7-.2-1.6-.5-3.1-.7-4.7-.2-1.1-.4-2.1-.6-3.2-.2-1-.5-2.1-.8-3.1-.2-.7-.5-1.3-.8-2-.3-.6-.7-1.1-1.2-1.6-.5-.4-1.1-.7-1.7-.8.4.4.8.9 1 1.5.2.8.5 1.5.7 2.2zM5 8.6c.1.5.2 1 .2 1.6 0 .3.1.7.1 1 0 .3.1.6.1 1 0 .6.1 1.1.1 1.7 0 .6 0 1.2.1 1.8v3.8c0 .1 0 .2.1.3.1.4.2.8.2 1.3v1.3c0 .4.1.7.1 1.1v2.2c0 .2 0 .5.1.7 0 .4.1.9.1 1.3.1.7.2 1.4.4 2 .1.4.2.7.2 1.1 0 .4 0 .7.1 1.1.1.4.1.8.2 1.2.1.4.1.8.2 1.2.1.6.2 1.2.3 1.9.1.6.2 1.3.2 1.9 0 .9.1 1.8.2 2.6s.2 1.7.3 2.6c0 .1 0 .3.1.4 0 .1.1.3.1.5.4 0 .7 0 1-.2l.6-.3c-.1-.8-.2-1.5-.3-2.3-.1-.9-.2-1.7-.2-2.6 0-.6-.1-1.2-.2-1.8l-.7-4.3c0-.4-.1-.8-.1-1.1 0-.3-.1-.7-.2-1-.2-.7-.3-1.4-.4-2.1-.1-.7-.1-1.4-.2-2v-.6-.6c0-.4-.1-.7-.1-1.1 0-.4-.1-.7-.1-1.1v-1.3c0-.4-.1-.8-.1-1.2 0-.1-.1-.3-.1-.4V18v-1.7l-.1-1.8c0-.6-.1-1.2-.1-1.7 0-.3 0-.6-.1-.9 0-.3-.1-.6-.1-1 0-.5-.1-1-.2-1.5s-.2-1-.4-1.5-.5-1-.9-1.4c-.4-.3-.8-.5-1.4-.5H4c.2.3.4.6.5 1 .2.5.3 1.1.5 1.6zM91.3 11.2c-.7 0-1.4-.1-2-.1-.7 0-1.3 0-2-.1-1.1 0-2.3-.1-3.4-.1h-1.6c-.6 0-1.2 0-1.9-.1h-.5c.3.1.6.3.8.4.4.1.7.1 1.2 0 .1 0 .2-.1.3-.1h.4c1.2 0 2.3.1 3.5.1 1.2 0 2.3.1 3.5.1.6 0 1.3.1 1.9.1-.2 0-.2-.1-.2-.2zM36.8 16.5c.4.3.8.6 1.1.9l.6.6c.5.6.9 1.2 1.3 1.9s.7 1.4.8 2.2c.1.8.1 1.5-.1 2.4-.1.7-.3 1.4-.6 2.1-.2.6-.4 1.3-.7 1.8-.5 1.1-1.3 2-2.2 2.8-.4.4-.9.8-1.3 1.2-.4.4-.9.7-1.4 1.1-.3.2-.6.5-1 .7l-.1.1c-.9.6-1.9 1.1-2.9 1.5-1 .4-2.1.6-3.2.6 0 0-.1 0-.3.1.1.9.4 1.8.7 2.6.3.8.7 1.5 1.3 2.2.5.6 1 1 1.6 1.2l.9.3-.6-.6c-.6-.7-1.1-1.5-1.4-2.3-.3-.8-.5-1.7-.7-2.6l-.1-.3.3-.1c.3-.1.3-.1.4-.1 1.1 0 2.1-.2 3.1-.6 1-.4 1.9-.9 2.8-1.5.6-.4 1.3-.9 1.8-1.4.6-.5 1.2-1.1 1.7-1.6 1.9-1.8 3.1-4 3.6-6.6.1-.8.2-1.5.1-2.2-.1-.7-.3-1.4-.7-2-.4-.7-.8-1.3-1.3-1.9-.4-.6-1-1-1.6-1.4l-.6-.3c-.2-.1-.4-.2-.5-.4-.5-.4-1.1-.6-1.6-.8.1 0 .1.1.2.1l.6.3z"/><path class="st69" d="M28.2 31.4c.1-.8.2-1.7.4-2.5.3-1.6.8-3.1 1.5-4.4.4-.8.9-1.6 1.6-2.3.6-.7 1.4-1.2 2.3-1.7.5-.2 1-.4 1.5-.5-.1 0-.1-.1-.2-.1-.2-.1-.3-.1-.5-.2-.9-.2-1.9-.1-2.8.3-.8.4-1.5.9-2.1 1.6-.6.6-1.1 1.4-1.5 2.2-.7 1.4-1.2 2.8-1.5 4.4-.2.8-.3 1.7-.4 2.5-.1.8-.1 1.7 0 2.5 0 .2 0 .5.1.7 0 .2.1.5.1.7.3 0 .5-.1.7-.1.2 0 .4-.1.7-.1.1 0 .2-.1.3-.1V34c-.3-.9-.3-1.8-.2-2.6z"/><path class="st69" d="M31.9 32.5c.5-.4 1-.7 1.4-1.1.4-.4.9-.8 1.3-1.2.4-.4.8-.8 1.1-1.2.4-.5.7-1 1-1.5.5-1 .9-2.1 1-3.3.1-.5.1-1 0-1.5s-.3-.9-.7-1.4c-.2-.2-.3-.4-.5-.5-.2 0-.4-.1-.6-.1-.6 0-1.1.1-1.7.4-.8.4-1.5.9-2 1.5-.6.6-1.1 1.3-1.4 2.1-.7 1.3-1.1 2.8-1.4 4.3-.2.8-.3 1.6-.4 2.4-.1.8-.1 1.6 0 2.5v.2c.4-.1.8-.3 1.1-.5.6-.3 1.2-.7 1.8-1.1zM18.6 41.1c-.9.6-1.8 1.2-2.6 1.8-.8.6-1.7 1.2-2.6 1.8-.7.5-1.5.9-2.2 1.4-.8.4-1.6.7-2.4.9-.4.1-.7.2-1.1.2-.3 0-.7.1-1 .1.3.1.6.2 1 .3.4.1.7.1 1.1.1l1.1-.1c.3 0 .7-.1 1-.2.9-.2 1.6-.5 2.4-.9.7-.4 1.5-.9 2.2-1.4.9-.6 1.8-1.2 2.6-1.8.8-.6 1.7-1.2 2.6-1.8.1 0 .1-.1.2-.2-.2-.5-.4-.9-.5-1.4h-.1c-.2.1-.5.2-.8.3-.1 0-.1.1-.2.1v.1c-.2.4-.4.6-.7.7zM131.4 47.2c-.2-.5-.3-1-.5-1.5s-.3-1-.4-1.5c-.2-.9-.5-1.8-.7-2.7l-.6-2.7c-.3-1.5-.6-3.1-.9-4.6-.2-1.5-.4-3.1-.6-4.7-.1-1.3-.1-2.5-.1-3.8 0-1.2.1-2.5.2-3.7 0-.5.1-1 .1-1.5s0-.9-.1-1.4c0-.3-.2-.7-.4-1-.2-.3-.5-.5-.9-.5h-.6s-.1 0-.1.1c.1.2.1.4.2.6.1.5.1 1 .1 1.5s-.1 1-.1 1.5c-.1 1.3-.1 2.5-.2 3.7 0 1.2 0 2.5.1 3.7.1 1.6.3 3.1.6 4.6.2 1.5.5 3 .9 4.6l.6 2.7c.2.9.5 1.8.7 2.7.1.5.3 1 .4 1.5.2.5.3 1 .5 1.5 0 .1.1.2.1.4 0 .3 0 .5-.1.7-.1.2-.3.4-.5.6-.2.2-.4.3-.6.4-.1 0-.2.1-.2.1-.1.1-.2.1-.3.2.1.1.2.2.4.3.2.1.4.2.5.2.2.1.4.1.6.1.2-.1.4-.1.6-.2l.6-.3c.2-.1.3-.2.5-.3.2-.2.3-.4.4-.5.1-.1.1-.3 0-.5-.1 0-.2-.2-.2-.3zM98.3 11.8l.3-.1c.1 0 .2 0 .2-.1H102.5c1.1 0 2.2 0 3.4-.1.7 0 1.4-.1 2.1-.2.7-.1 1.5-.2 2.2-.3.4 0 .6-.2.8-.6l1.2-2c-.1-.1-.2-.1-.3-.2 0 0-.1-.1-.2-.1-.4-.2-.9-.2-1.4-.3l-.5.8-.7 1.2c-.3.5-.6.7-1.1.8-.7.1-1.5.2-2.2.3-.7.1-1.4.2-2.2.2-1.1 0-2.3.1-3.4.1H96.4v.6c.2 1.3.4 2.5.4 3.8.1 1.3.1 2.6.2 3.9 0 1.1.1 2.3.1 3.4 0 1 .1 2.1.1 3.1v.3c.1 1.6.1 3.3.2 4.9.1 1.6.1 3.2.2 4.9v.3c0 1 .1 2 .1 3v4.8c0 .5-.1.9-.1 1.4v1.1c0 .3 0 .5-.1.8 0 .2-.1.5-.3.7-.2.3-.4.5-.6.6.3.3.8.4 1.3.5.3.1.5 0 .7-.1.2-.1.4-.3.5-.5.1-.2.2-.4.2-.6 0-.2.1-.5.1-.7v-.6c0-.2 0-.4.1-.6 0-.5 0-.9.1-1.4v-1.4V40c0-1.1-.1-2.2-.1-3.3 0-1.6-.1-3.3-.2-4.9-.1-1.6-.1-3.2-.2-4.9 0-1.1-.1-2.3-.1-3.4-.1-1.1-.1-2.2-.1-3.4 0-1.3-.1-2.6-.2-3.9-.1-1.3-.2-2.5-.4-3.8V12v-.2zM121.6 31.4c-.2.5-.5 1-.7 1.5-.3.8-.6 1.5-1 2.1-.4.6-.8 1.3-1.1 1.9-.2.4-.4.7-.5 1.1-.2.4-.3.7-.5 1.1-.5 1-1.3 1.8-2.1 2.5v.1c-.5.6-1 1.1-1.5 1.6s-1.1.9-1.8 1.2c-.7.4-1.5.6-2.3.7.3.2.7.3 1.1.4 1.1.1 2.2-.1 3.2-.6.7-.3 1.2-.7 1.7-1.2s1-1 1.4-1.6c.2-.2.4-.5.6-.8.2-.3.4-.5.5-.8l.6-1.2c.2-.4.4-.9.6-1.3.5-1 1-1.9 1.5-2.9.2-.4.4-.8.6-1.3-.1-.6-.1-1.2-.2-1.9-.1-.1-.1-.4-.1-.6zM141.4 43.8c-.2.2-.4.3-.5.5l-.6.6c0 .1-.1.2-.2.2-.1.1-.1.2-.2.3l-.7.8v-1-.1c0 .1-.1.2-.1.3-.3.6-.7 1.2-1 1.8-.4.6-.9 1.1-1.4 1.3l-.9.3c.1.1.2.3.3.4.4.1.9.1 1.3.1s.9-.2 1.3-.4c.5-.2.9-.6 1.3-1.2s.7-1.2 1-1.7c.3-.6.6-1.2.8-1.8 0-.1.1-.2.1-.4-.2-.1-.3-.1-.5 0zM111.7 33.2c-.1.4-.2.8-.2 1.2 0 .4-.1.8-.1 1.3-.1.7-.1 1.4-.1 2.1 0 .7.1 1.4.2 2.1 0 .2.1.5.2.7.1.2.2.5.4.7h.2c.1 0 .2-.1.3-.1.3-.2.6-.4.8-.6-.1-.7-.2-1.4-.2-2 0-.7 0-1.4.1-2.1l.1-1.2c0-.4.1-.9.2-1.3.1-.5.2-.9.4-1.4.2-.5.3-.9.5-1.4.1-.3.2-.6.4-.8.1-.3.3-.5.4-.8.3-.7.7-1.2 1.3-1.7.5-.5 1-.9 1.6-1.3.7-.5 1.4-1 2.2-1.4.5-.3.9-.5 1.4-.8 0-.2.1-.4.1-.5v-.8c-.2 0-.5.1-.7.2l-.6.3c-.8.4-1.5.8-2.2 1.2-.7.4-1.4.9-2.1 1.4-.6.4-1.1.9-1.6 1.3-.5.5-.9 1-1.2 1.6-.1.3-.3.5-.4.8-.1.3-.3.5-.4.8 0 .1-.1.3-.1.4-.1.3-.2.6-.4 1-.3.2-.4.6-.5 1.1z"/><path class="st69" d="M117 28.2c-.5.4-.8.9-1.1 1.5-.1.3-.3.6-.4.8-.1.3-.2.5-.3.8-.2.4-.3.9-.5 1.3s-.3.9-.4 1.3c-.1.4-.2.8-.2 1.2l-.1 1.3c-.1.7-.1 1.4-.1 2.1 0 .5.1 1 .1 1.4.5-.5.9-1.1 1.3-1.7.2-.4.4-.7.5-1.1.2-.4.3-.7.5-1.1.4-.7.7-1.3 1.2-2 .4-.6.7-1.2.9-1.9 0 0 0-.1.1-.1.2-.6.5-1.1.7-1.7.3-.6.5-1.1.8-1.7.3-.7.6-1.4.9-2.2.2-.4.3-.9.5-1.3-.2.1-.5.2-.7.4-.7.4-1.4.9-2.1 1.4-.6.5-1.2.9-1.6 1.3zM181.1 47.7c-.1-.1-.2-.1-.4-.1h-.1c-.2 0-.5.1-.7.1 0 .2 0 .5-.2.7-.1.1-.1.2-.2.3-.1.1-.2.2-.3.4h-.8c.2.2.5.3.9.4h1.9c.1-.1.1-.2.2-.3l.2-.2c.2-.4.1-.7 0-.8-.2-.2-.3-.4-.5-.5zM63.7 38.8c.2.6.4 1.1.8 1.7.2.3.5.6.7.8.3.2.5.5.8.7.3.2.5.3.8.4.1 0 .3 0 .4.1 0 0-.1-.1-.2-.1-.3-.3-.5-.6-.8-.9-.4-.6-.7-1.2-.9-1.8-.2-.6-.3-1.2-.4-1.8-.1-.6-.4-1.2-.7-1.6-.3-.3-.6-.7-.9-1-.1.3-.2.6-.4.9v.1c.1.3.2.5.2.8.3.6.4 1.2.6 1.7zM137.1 5.6c0 .3.1.6.1.9.1.7.2 1.4.2 2.2 0 1 .1 2 .1 3v7.4c0 1.5 0 2.9-.1 4.4 0 1 0 1.9-.1 2.9 0 1-.1 1.9-.1 2.9V36.6c0 .6 0 1.2.1 1.8v6.1c.1-.1.2-.2.2-.3s.1-.2.2-.3l.6-.6c.2-.2.4-.4.6-.5.1-.1.2-.1.2-.1v-.3-1.5-1.5l-.1-1.9v-2-2.7V30l.1-2.9c0-1 .1-1.9.1-2.9 0-1.5.1-2.9.1-4.4v-4.4-3c0-1-.1-2-.1-2.9 0-1-.1-2.1-.3-3.1-.2-1-.5-1.9-.9-2.8-.2-.4-.5-.7-.8-.9-.3-.2-.6-.3-1-.3h-.3l.2.2c.6 1 .9 2 1 3zM71 17.6h-.6c-.2.1-.4.2-.5.3-.4.5-.7 1-1 1.5-.3.5-.4 1.1-.4 1.7 0 .3 0 .6.1.9.1.3.2.5.3.8.4.8.9 1.7 1.4 2.4.5.8 1 1.5 1.5 2.3.4.6.8 1.2 1.2 1.7.4.6.7 1.2 1.1 1.8.9 1.7 1.4 3.5 1.5 5.4 0 1 0 2-.1 3-.1.7-.2 1.4-.4 2.1-.1.3-.1.5-.2.8-.3 1.1-.8 2.1-1.4 2.9-.6.8-1.5 1.5-2.6 1.9-.5.2-.9.3-1.4.3h-.9c.5.2 1.1.3 1.7.3.5 0 .9.1 1.4 0 .4 0 .9-.1 1.3-.3 1-.4 1.9-1 2.5-1.8.6-.8 1.1-1.7 1.3-2.8.3-.9.5-1.9.6-2.8.1-.9.1-1.9.1-2.9-.1-1.9-.6-3.6-1.5-5.3-.3-.6-.7-1.2-1.1-1.8-.4-.6-.8-1.2-1.2-1.7-.5-.8-1.1-1.6-1.6-2.3-.5-.8-1-1.6-1.4-2.5-.1-.2-.3-.5-.3-.8-.1-.3-.1-.7-.1-1 0-.7.2-1.3.5-1.8s.6-1.1 1-1.6c.2-.2.4-.3.6-.4-.1-.1-.3-.1-.5-.2-.3.1-.6 0-.9-.1zM32.3 46.9c-.7.3-1.5.5-2.4.6h-1c.5.1 1 .3 1.6.3 1.5.2 2.7 0 3.9-.6 1.1-.5 2.1-1.3 3-2.4.6-.7 1.2-1.4 1.7-2.2.5-.7 1-1.5 1.4-2.3.5-.9.9-1.7 1.3-2.6.4-.9.8-1.7 1.2-2.6.1-.2.1-.3.1-.4-.1-.1-.1-.2-.2-.3-.1-.1-.3-.1-.4-.1-.3.1-.5.2-.7.4-.2.2-.4.5-.5.9-.3.8-.7 1.6-1.1 2.4-.4.8-.9 1.5-1.4 2.3-.3.6-.7 1.1-1.1 1.6-.3.4-.7.8-1 1.1-.4.5-.8 1-1.2 1.4-1 1.1-2 1.9-3.2 2.5zM185.4 7.4c-.2-.1-.4-.1-.6-.1h-.3l.1.1c.3.5.3 1.1 0 1.6-.4.7-.6 1.4-.8 2.2-.1.5-.2 1-.4 1.5-.1.3-.1.5-.2.8-.2.7-.4 1.4-.6 2.2-.2.7-.3 1.5-.5 2.2-.4 1.4-.6 2.8-.8 4.2-.2 1.4-.4 2.8-.5 4.3-.1.7-.2 1.4-.3 2-.1.7-.2 1.3-.3 2l-.7 4.2-.3 1.8v.2c-.1.5-.2 1.1-.3 1.6 0 .1-.1.2-.1.3.1.2.1.3.2.5.2.4.4.8.7 1.1.2-.1.3-.1.4-.2.1-.1.2-.1.3-.2.1-.1.1-.2.2-.3.1-.2.1-.3.2-.6.1-.6.2-1.2.3-1.7l.3-1.8.6-4.3c.1-.7.2-1.4.3-2 .1-.7.2-1.3.3-2 .2-1.4.3-2.8.5-4.3.2-1.4.5-2.9.8-4.3.2-.7.4-1.4.5-2.2.2-.7.4-1.5.6-2.2.2-.7.4-1.5.6-2.2.2-.8.4-1.5.8-2.3.2-.4.2-.8 0-1.3-.1-.3-.5-.6-1-.8zM60.9 14.3v.5c.1 0 .2 0 .3.1l.3.1h.2c.3 0 .4.2.5.3.2.3.1.5-.1.7l-.1.1v.1l-.3.3c-.1.1-.1.2-.2.2h.2c.1 0 .2 0 .3-.1.4-.3.6-.6.7-.9.1-.4.1-.8-.1-1.2l-.1-.1c-.2-.2-.3-.2-.5-.3-.3 0-.5-.1-.8-.1h-.1c-.1 0-.1.1-.2.2.1.1.1.1 0 .1zM75.2 18.6c0 .1 0 .1 0 0 .7.5 1.2 1 1.7 1.6.4.6.8 1.3 1.1 2 .1.2.1.4.2.6 0 .2.1.4.1.6 0 .2 0 .2.1.2h.1c.1 0 .1-.1.2-.1.2-.2.2-.4.1-.5-.1-.2-.2-.5-.3-.7-.1-.2-.2-.4-.3-.7-.2-.4-.3-.7-.5-1.1-.1-.3-.3-.6-.6-.9-.6-.9-1.3-1.7-2-2.4-.3-.3-.7-.6-1.2-.8-.3-.2-.7-.3-1.1-.4.1.1.2.2.3.2.7.7 1.4 1.6 2.1 2.4zM152.2 27.5c-.2-.1-.4-.1-.7-.1.1.5.2.9.2 1.4.1.4.1.9.2 1.3.1.9.3 1.7.4 2.6.2 1.1.3 2.2.5 3.2.3 1.9.5 3.9.8 5.8.1.8.2 1.5.2 2.3 0 .8 0 1.5.1 2.3-.2.9-.6 1.5-1.1 1.9-.5.4-1 .6-1.5.7v.1l.2.3.1.1c.6.1 1.2.1 1.8 0 .5-.1 1-.3 1.4-.7.4-.3.8-.9 1-1.6 0-.8-.1-1.5-.1-2.3 0-.8-.1-1.5-.2-2.3-.3-2-.5-3.9-.8-5.8-.3-1.9-.6-3.9-.9-5.8l-.2-1.3c-.1-.4-.1-.9-.2-1.4-.2-.1-.4-.3-.6-.4-.3-.1-.4-.2-.6-.3zM44.4 11.2H37.9c.1.1.2.1.4.2s.3.1.5.1.3.1.5.1h5.6v-.3c-.2-.1-.4-.1-.5-.1zM57.1 10.8h-2.8c-.7 0-1.4.1-2.1.1-.7.1-1.4.1-2.1.1h-.2c-.1 0-.1 0-.3.1V25.8c0 .7 0 1.4.1 2.2 0 1.2.1 2.5.1 3.8 0 1.3.1 2.6.2 3.8.1 1.2.1 2.3.2 3.3s.2 1.7.3 2.2c.1.8.3 1.5.5 2.3.2.8.4 1.5.7 2.3 0 .1.1.3.1.4 0 .1.1.3.1.4.1.2.1.3.2.5s.1.3.2.5c.2.3.3.6.5.9.1.2.3.4.4.7 0 .1.1.1.1.2.1.3.2.5.1.7-.1.2-.3.3-.6.4-.2 0-.4.1-.6.1.5.2.9.3 1.4.3.4.1.9.1 1.4 0 .2 0 .3-.1.3-.2s0-.2-.1-.3l-1-1.7c-.1-.2-.2-.3-.2-.5-.1-.2-.1-.3-.2-.5s-.1-.3-.1-.5c0-.1 0-.2-.1-.3-.3-.7-.5-1.5-.7-2.3-.2-.8-.3-1.5-.5-2.3-.1-.5-.2-1.2-.3-2.3-.1-1-.1-2.1-.2-3.3-.1-1.2-.1-2.5-.2-3.8 0-1.3-.1-2.6-.1-3.8 0-1.2-.1-2.3-.1-3.3v-7.4V17v-1.5V14v-2.2l.2-.1c.1-.1.2-.1.3-.1h.2c.7 0 1.4-.1 2.1-.1.7-.1 1.4-.1 2.1-.1.5 0 1-.1 1.4 0h1.4c.2 0 .4 0 .6-.1h.1c-.2-.1-.4-.1-.5-.2-.2-.1-.4-.1-.5-.2-.2-.1-.5-.1-.7-.2-.1.1-.3.2-.4.2-.2-.1-.4-.1-.7-.1zM175.4 37.6c-.2-.2-.5-.4-.7-.6-.2-.2-.5-.4-.7-.5-.7-.5-1.4-.9-2-1.3-.7-.4-1.3-.9-2-1.3l-2.8-1.8c-.9-.6-1.8-1.2-2.8-1.8-1.1-.7-2.1-1.3-3.2-2l-3.2-1.9c-.1-.1-.3-.2-.5-.4l-.4-.4.6-.2c.3-.1.7-.2.9-.3.3-.1.5-.2.8-.3 1.1-.4 2.3-.9 3.5-1.3 1.2-.4 2.3-.9 3.4-1.3.5-.2 1-.4 1.4-.5.5-.2.9-.4 1.4-.6l.9-.6c.2-.2.4-.4.5-.7-.3-.3-.7-.3-1.1-.2-.4.1-.8.3-1.3.4-.3.3-.6.5-1 .7-.5.2-.9.4-1.4.6-.5.2-1 .4-1.4.5-1.1.4-2.3.9-3.4 1.3-1.2.4-2.3.9-3.4 1.3-.3.1-.6.2-.8.3l-.9.3.4.4c1.1.7 2.1 1.3 3.2 1.9.7.4 1.5.9 2.2 1.4l.9.6c1 .6 1.9 1.2 2.8 1.8l2.7 1.8c.7.4 1.3.9 2 1.3s1.3.9 2 1.3c.3.2.5.4.8.6.2.2.5.4.7.6.4.4.8.9 1 1.5.1.6 0 1.1-.2 1.3l-.3.3c.3.2.6.3 1 .5.3.1.6.1.8 0 .2 0 .3-.2.5-.4.1-.1.2-.4.1-1-.3-.6-.6-1-1-1.3zM49.9 2.1c0 .3-.1.6 0 .9v.9c0 .6 0 1.2-.1 1.8-.1.6-.1 1.2-.1 1.8V9H51.6v-.8c0-.7 0-1.3.1-1.8s.1-1.1.1-1.7v-.9c0-.3 0-.7.1-1 .1-.3 0-.5-.1-.7-.1-.2-.3-.4-.5-.6-.2-.2-.5-.3-.7-.3-.2 0-.4 0-.6.1 0 .1 0 .4-.1.8z"/><path class="st190" d="M2.6 10.9c0 .8-.1 1.5 0 2.3l.1 4.1c.9-.5 1.9-1 2.8-1.5v-.3c0-.6 0-1.2-.1-1.8 0-.6-.1-1.2-.1-1.7 0-.3 0-.6-.1-1 0-.3-.1-.6-.1-1 0-.5-.1-1-.2-1.6-.1-.3-.2-.9-.3-1.4-.2-.3-.3-.7-.6-1-.1 0-.3 0-.4.1 0 0-.1 0-.2.2-.1.3-.2.7-.4 1.2-.1.3-.2.7-.2 1.1-.1.8-.2 1.5-.2 2.3z"/><path class="st190" d="M.1 16.6c0 .7.1 1.4.1 2.1.6-.3 1.2-.6 1.8-1v-.3l-.1-4.1v-2.4c0-.8.1-1.6.2-2.3 0-.4.1-.9.3-1.3.1-.5.2-.9.3-1.3.2-.4.4-.6.6-.6-.4-.3-.9-.5-1.4-.5-.2 0-.3 0-.5.1-.3 0-.4.1-.5.4-.1.4-.3.8-.4 1.2-.1.4-.2.8-.3 1.3-.1.7-.1 1.5-.2 2.3 0 .8-.1 1.6 0 2.3.1 1.4.1 2.8.1 4.1z"/><path class="st191" d="M25.7 19.4c.5-.6 1.1-1.2 1.7-1.8.6-.5 1.3-1 2.1-1.4.6-.3 1.3-.6 2-.8.7-.2 1.4-.3 2.1-.4h1c-.3-.1-.6-.2-.9-.2-.7-.1-1.5-.2-2.3-.1-.7 0-1.3.2-2 .4-.6.2-1.3.5-1.9.8-.7.4-1.4.8-2 1.3-.6.5-1.2 1.1-1.7 1.7-.8 1-1.5 2.2-2 3.3 1-.6 2-1.2 3.2-1.8.2-.3.4-.7.7-1z"/><path class="st191" d="M34.1 15.8h-.5c-.6 0-1.3.2-1.9.3-.6.2-1.2.4-1.8.8-.7.4-1.3.8-1.9 1.3-.5.4-1 .9-1.5 1.5 2.4-1.2 5.1-2.5 8.1-3.8-.2-.1-.4-.1-.5-.1zM2.8 27.6c-.1-1-.3-2.1-.4-3.1-.1-1-.2-2.1-.2-3.1-.1-1.2-.2-2.5-.2-3.7-.6.3-1.2.7-1.8 1 0 .7.1 1.3.1 2 .1 1 .1 2.1.2 3.1s.2 2 .4 3.1c.1.6.2 1.2.2 1.8.5-.2 1.1-.5 1.6-.7.1-.2.1-.3.1-.4zM6.1 25.7v-.6-.6c0-.4-.1-.7-.1-1.1 0-.4-.1-.8-.1-1.1V21c0-.4-.1-.8-.2-1.3 0-.1-.1-.2-.1-.3V19v-1.7-1.4c-1 .5-1.9 1-2.8 1.5 0 1.4.1 2.7.2 4.1.1 1 .1 2.1.2 3.1s.2 2 .4 3v.1l2.7-1.2c-.1-.4-.2-.6-.2-.8z"/><path class="st190" d="M35.8 11c.2.1.4.1.6.2h.3c.1-.6.5-1 1.1-1.1.6-.1 1.2-.1 1.7-.2.6-.1 1.1-.1 1.7-.2.9-.1 1.8-.1 2.7-.2H46.8L47 8c.1-.6.2-1.2.3-1.7.1-.5.2-1.1.3-1.7 0-.3.1-.6.2-1 .1-.3.1-.6.2-.9v-.2c-.1-1 .4-1.6 1.3-1.9h.1l-.1-.1c-.3-.3-.6-.4-1-.4-.3 0-.7.1-1.1.2-.7.2-1.1.7-1 1.5V2c0 .3-.1.6-.2 1-.1.3-.1.6-.2 1-.1.6-.2 1.2-.3 1.7-.1.5-.2 1.1-.3 1.7 0 .3-.1.6-.1.9-.1.2-.1.5-.1.8H41.7c-.9 0-1.8.1-2.7.2-.6.1-1.1.1-1.7.2-.6.1-1.1.1-1.7.2-.5.1-.8.3-.8.8.2.1.3.2.5.3.2 0 .3.1.5.2zM46.6 12.3h-1.9v1c.6-.3 1.3-.7 1.9-1zM52.6 9.3h.1l.6-.3c-.4 0-.7 0-1.1-.1v.3h.4z"/><path class="st190" d="M48.7 2.4v.3c0 .4-.1.7-.2 1-.1.3-.1.6-.2.9-.1.6-.2 1.2-.3 1.7-.1.5-.2 1.1-.3 1.7l-.2 2-.2.1c-.1 0-.2.1-.4.1h-3c-.9 0-1.8.1-2.7.2-.5.1-1.1.1-1.7.2-.6.1-1.1.1-1.7.2-.2 0-.4.1-.4.2.1 0 .2.1.2.1H44.2c.2 0 .3 0 .4.1v.3h1.8c.2 0 .3 0 .5.1l.3.1v.3c1.3-.7 2.7-1.3 4.2-2V9H49.5V7.5c0-.6 0-1.2.1-1.8.1-.6.1-1.2.1-1.8V3v-.9c.1-.3 0-.6-.1-.9-.1 0-.3.1-.4.1-.3.1-.6.5-.5 1.1z"/><path class="st191" d="M37.7 22.7c.1.5.1 1 0 1.5-.2 1.2-.5 2.3-1 3.3-.3.5-.6 1.1-1 1.5.3.6.5 1.2.8 1.7l.1-.1c.9-.8 1.5-1.7 2-2.6.5-1 .8-2 1-3.2.1-.5.1-.9 0-1.4-.1-.4-.3-.8-.6-1.2-.6-.7-1.4-1.2-2.2-1.5h-.2c.2.2.4.3.5.5.3.6.5 1 .6 1.5z"/><path class="st191" d="M36.9 20.1c1 .3 1.9.8 2.6 1.7.4.5.7 1 .8 1.5.1.5.1 1.1 0 1.7-.1.5-.2 1-.4 1.5.3-.7.5-1.4.6-2.1.1-.8.2-1.6.1-2.4-.1-.8-.4-1.5-.8-2.2-.4-.7-.8-1.3-1.3-1.9l-.6-.6c-1.1.9-2.1 1.7-2.8 2.6.1 0 .1.1.2.1.6 0 1.1 0 1.6.1zM68.6 14.7c-.6.1-1.1.3-1.6.6-.2.1-.3.2-.5.3-.2.1-.3.2-.5.3-.6.4-1 .8-1.4 1.4-.2.2-.3.4-.4.6 1.8-1 3.8-2.1 6-3.1-.5-.1-1-.2-1.6-.1zM60 14.7c0-.2 0-.3.1-.5s.2-.3.3-.4l.3-.3-.1-.1c-.2-.2-.5-.3-.7-.4-.3 0-.5-.1-.7-.1-.1 0-.2 0-.3.1l-.3.3c-.1.1-.2.2-.2.4-.1.1-.1.2-.1.3 0 .2.1.4.3.4h.5l.3.1h.3c.1 0 .2 0 .2.1.1.1.1.2 0 .3l-.2.2-.3.3-.3.3-.2.2c-.1.1-.1.2 0 .3.1.1.1.1.2.1.2 0 .3-.1.5-.1s.3-.1.4-.2c.3-.2.5-.4.7-.7h-.1c-.4.1-.6-.2-.6-.6zM60.8 14.5c0 .1-.1.2-.1.2v.1h.1v-.5c.1.1.1.2 0 .2zM53.4 9.4c.9 0 1.9 0 2.8.1h.3c-.8-.2-1.7-.3-2.5-.4h-.7l-.6.3h.7zM45.9 26.5v-2.4c0-.8 0-1.6.1-2.4 0-.3 0-.6.1-1.1l.1-1.7c0-.6.1-1.3.1-2s.1-1.3.1-2c0-.6.1-1.2.1-1.7s.1-.9.1-1.1c-.7.3-1.3.7-1.9 1 0 .3 0 .7-.1 1.1 0 .6-.1 1.3-.1 2s-.1 1.3-.1 2c0 .6-.1 1.2-.1 1.7s-.1.9-.1 1.1c0 .8-.1 1.6-.1 2.3v5.3l1.8-.9v-1.2zM47.4 12.3c0 .3 0 .7-.1 1.2 0 .5-.1 1.1-.1 1.7 0 .6-.1 1.3-.1 2s-.1 1.3-.1 2l-.1 1.7c0 .5-.1.9-.1 1.1 0 .8-.1 1.5-.1 2.3v3.3c1-.5 2-.9 3.1-1.4v-1.1V18.5v-.7-1.3V15v-1.5-1.3-.7c.1 0 .2-.1.3-.1h.2c.7 0 1.4-.1 2.1-.1.7-.1 1.4-.1 2.1-.1.5 0 1-.1 1.4 0h1.4c.2 0 .5 0 .7-.1.1 0 .3-.1.4-.2-.7-.1-1.3-.2-2-.3-.9-.1-1.9-.1-2.8-.1H51.7v-.6c-1.5.7-2.8 1.3-4.2 2v.4zM29.6 47.3v.3h.3c-.1-.2-.2-.3-.3-.3z"/><path class="st190" d="M8.6 44.1c0-.2-.1-.3-.1-.5 0-.1-.1-.3-.1-.4-.1-.9-.2-1.7-.3-2.6-.1-.8-.2-1.7-.2-2.6 0-.6-.1-1.3-.2-1.9-.1-.6-.2-1.2-.3-1.9-.1-.4-.1-.8-.2-1.2-.1-.4-.1-.8-.2-1.2 0-.4-.1-.7-.1-1.1 0-.4-.1-.7-.2-1.1-.2-.7-.3-1.4-.4-2 0-.4-.1-.9-.1-1.3l-2.7 1.2c.2 1.5.4 3 .5 4.4.1 1.4.2 2.9.4 4.3.1 1.5.2 3 .4 4.6.1 1.5.4 3 .7 4.5l.3.9c.1.3.3.7.4 1 0 0 0 .1.1.1s.1.1.2.1.1 0 .2.1c.4 0 .7-.1 1-.1.4 0 .7-.1 1.1-.2.9-.2 1.7-.5 2.4-.9.8-.4 1.5-.9 2.2-1.4.9-.6 1.8-1.2 2.6-1.8.8-.6 1.7-1.2 2.6-1.8.3-.2.4-.4.6-.6v-.1c-1.3.7-2.6 1.5-3.8 2.5-.4.3-.8.7-1.2.9-.4.3-.9.5-1.3.7-.3.2-.6.3-.9.4-.4.1-.8.2-1.2.2h-.3l-.1-.3c0-.2-.1-.3-.1-.5 0-.1-.1-.3-.1-.5v-.3l-.6.3c-.3.1-.7.2-1 .1z"/><path class="st190" d="M11 44.3v.2c.2 0 .4-.1.6-.1.3-.1.6-.3.9-.4.5-.2.9-.5 1.3-.7.4-.2.8-.5 1.1-.9 1.3-1.1 2.7-2 4.2-2.7.2-.1.3-.1.4-.2 0-.2 0-.3-.1-.4-.2-.2-.4-.3-.7-.3-.3 0-.6 0-.8.1-.3.1-.5.2-.8.3-1.5.7-2.8 1.6-4.1 2.7l-1.2.9c-.3.2-.6.4-1 .5 0 .2 0 .4.1.6 0 .2.1.3.1.4zM4.8 45.4c-.3-1.5-.6-3.1-.7-4.6-.1-1.5-.3-3.1-.4-4.6-.1-1.5-.2-2.9-.3-4.3-.1-1.3-.3-2.7-.5-4.1-.5.2-1.1.5-1.6.7.1.9.2 1.7.3 2.6.1 1.4.2 2.9.3 4.3.1 1.5.2 3 .4 4.6.1 1.5.4 3 .7 4.6.1.3.2.7.3 1 .1.3.3.6.4 1 0 .1.1.2.2.2 0 .1.1.1.2.2.4.2.8.3 1.2.4h.2c-.1-.3-.3-.6-.4-.9-.1-.3-.3-.7-.3-1.1zM21.8 39.5c-.2-.8-.3-1.6-.4-2.4-.1-.9-.2-1.7-.1-2.6 0-.9 0-1.7.1-2.6 0-.9.1-1.8.3-2.7.1-.9.4-1.8.6-2.6.4-1.3.8-2.5 1.3-3.7.4-.8.8-1.6 1.3-2.3-1.1.6-2.2 1.2-3.2 1.8-.5 1.2-1 2.4-1.3 3.7-.3.9-.5 1.7-.6 2.6-.1.9-.2 1.7-.3 2.6 0 .9-.1 1.7-.1 2.6 0 .8 0 1.7.1 2.6.1 1 .3 2 .5 3 .3-.1.5-.1.8-.1.5-.2.8-.1 1 .1zM35.1 43.2c.2-.1.4-.3.7-.4.4-.4.9-.8 1.3-1.3s.8-1 1.1-1.5c.5-.7.9-1.5 1.3-2.2.4-.7.8-1.5 1.1-2.3.2-.4.4-.8.6-1.1l.1-.1V34c-.1-.2-.2-.3-.3-.4-.2-.1-.4-.2-.7-.2-.4.1-.7.2-1 .5-.2.3-.4.6-.6 1-.3.8-.7 1.6-1.1 2.4-.4.8-.8 1.5-1.3 2.3-.3.6-.7 1.1-1.1 1.6-.4.5-.8 1-1.3 1.4-.2.2-.5.3-.7.5-.1.1-.2.1-.3.1.5.2 1.1.4 1.8.4.1-.3.3-.3.4-.4zM36.5 30.7c-.2-.5-.5-1.1-.8-1.7-.3.4-.7.8-1.1 1.2-.4.4-.9.8-1.3 1.2-.4.4-.9.7-1.4 1.1-.6.4-1.2.8-1.9 1.2-.4.2-.7.3-1.1.5 0 .2 0 .3.1.5 0 .1 0 .2.1.4h.4c.2 0 .4-.1.6-.1.7-.2 1.4-.4 2.1-.7.6-.3 1.3-.7 1.8-1.1.5-.4 1-.7 1.4-1.1.3-.6.7-1 1.1-1.4zM23.2 43.6c-.5-1-.9-1.9-1.1-2.9-.1.3-.2.6-.4.8-.1.2-.4.5-.6.6l.3.6c.7 1.4 1.7 2.5 2.8 3.3.6.4 1.3.8 2 1-1.2-.8-2.2-2-3-3.4zM21.1 41.1c.1-.2.2-.4.3-.7.1-.2 0-.3 0-.3-.2-.2-.7-.2-1.1 0 .1.5.3.9.5 1.4.1-.2.2-.3.3-.4z"/><path class="st190" d="M22.7 40.2c.3 1 .7 2 1.2 3 .7 1.3 1.6 2.4 2.7 3.2.7.5 1.4.9 2.3 1.1h.7v-.3l.3.3c.9-.1 1.7-.3 2.4-.6 1.2-.6 2.2-1.4 3.2-2.5.4-.5.8-.9 1.2-1.4l-.3.3c-.3.2-.5.4-.7.5-.3.2-.6.3-1 .2-.8 0-1.5-.2-2.1-.5-.4-.2-.8-.4-1.2-.8l-.9-.3c-.6-.3-1.1-.7-1.6-1.2-.6-.7-1-1.4-1.3-2.2-.3-.8-.5-1.7-.7-2.6.2 0 .3-.1.3-.1 1.1 0 2.2-.3 3.2-.6 1-.4 2-.9 2.9-1.5l.1-.1c-.3.2-.6.4-1 .5-.7.3-1.4.6-2.2.8-.2.1-.5.1-.7.1-.2 0-.5.1-.7.1l-.4.1-.1-.4c0-.3-.1-.5-.1-.7v-.4c-.1 0-.2.1-.3.1-.2.1-.4.1-.7.1-.2 0-.5.1-.7.1 0-.3-.1-.5-.1-.7 0-.2-.1-.4-.1-.7v-2.5c.1-.8.2-1.7.4-2.5.3-1.5.8-3 1.5-4.4.4-.8.9-1.5 1.5-2.2.6-.6 1.3-1.2 2.1-1.6 1-.5 1.9-.6 2.8-.3.2 0 .3.1.5.2.7-.9 1.6-1.7 2.8-2.6-.3-.3-.7-.6-1.1-.9l-.6-.3c-.1 0-.1-.1-.2-.1 0 .1-.1.1-.3.1-.4-.1-.8-.1-1.3-.1-2.9 1.3-5.6 2.6-8.1 3.8l-.2.2c-.8 1-1.5 2.1-2 3.3-.5 1.2-.9 2.4-1.3 3.6-.3.9-.5 1.7-.6 2.6-.1.8-.2 1.7-.3 2.6 0 .9-.1 1.7-.1 2.6 0 .8 0 1.7.1 2.5.4 1 .5 2.1.8 3.1z"/><path class="st191" d="M78 8.9c.1-.3.4-.5.8-.7.4-.1.7-.3 1.1-.4.4-.1.8-.2 1.1-.2 1.1-.1 2.2-.2 3.3-.2.7 0 1.4-.1 2.1-.1.2-.2.5-.3.7-.5-.6 0-1.1 0-1.7.1-1.1 0-2.2.1-3.3.1-1.1.1-2.2.1-3.3.2-.4 0-.7.1-1.1.2-.4.1-.7.2-1.1.4-.3.1-.5.3-.5.4-.1.2-.1.4 0 .7.1.6.4 1 .9 1.2.4.3.8.5 1.3.6.1 0 .2 0 .3.1-.3-.3-.5-.6-.6-1.1-.1-.3-.1-.6 0-.8z"/><path class="st191" d="M80.3 10.9c.6 0 1.2 0 1.9.1.7-1 1.8-2 3.1-2.9h-.9c-1.1.1-2.2.1-3.2.2-.3 0-.7.1-1 .2-.3.1-.7.2-1 .4-.2.1-.3.1-.3.2v.5c.1.5.4.8.7 1 .1.1.2.1.4.2h.2c-.1 0 0 .1.1.1z"/><path class="st190" d="M87.6 7.2l6.6-.2h3.3c1.7-.1 3.5-.1 5.1-.1 1.7.1 3.4.1 5.1.3.6 0 1.3.1 2 0h-.1c-.6-.2-1.3-.3-2-.3h-2.1l-5.1-.3c-1.7-.1-3.4 0-5.1.1-.6 0-1.1.1-1.6 0s-1.1 0-1.6 0c-1.1 0-2.2.1-3.3.1-.5 0-1.1 0-1.6.1-.3.2-.5.3-.7.5.3-.1.7-.1 1.1-.2zM92.9 25.5c-.1-1.9-.2-3.9-.2-5.9-.1-2.5.1-4.9.5-7.3l.2-.1c-.6 0-1.3-.1-1.9-.1h-.2c-.3 2.2-.5 4.5-.4 6.7.1 2 .1 3.9.2 5.9.1 1.7.2 3.4.3 5.2.5-.4 1.1-.8 1.7-1.2-.1-1-.2-2.1-.2-3.2z"/><path class="st190" d="M97.2 23c-.1-1.1-.1-2.2-.1-3.4 0-1.3-.1-2.6-.2-3.9-.1-1.3-.2-2.6-.4-3.8v-.3-.3h3.8c1.1 0 2.2 0 3.4-.1.7 0 1.4-.1 2.2-.2.7-.1 1.5-.2 2.2-.3.5-.1.9-.3 1.1-.8l.7-1.2c-.1-.3-.1-.5-.1-.8h-2l-5.1-.3c-1.7-.1-3.4 0-5.1.1-.6 0-1.1.1-1.7 0h-1.6l-6.7.3c-.8 0-1.6.1-2.4.1-1.2.9-2.3 1.9-3 2.8h1.6c1.2 0 2.3.1 3.4.1.7 0 1.4.1 2 .1.7 0 1.4 0 2 .1v.3h.1c.7 0 1.4 0 2.1.1h.3v.9c-.4 2.3-.5 4.7-.5 7.1.1 2 .1 3.9.2 5.9 0 .9.1 1.8.1 2.7 1.1-.7 2.3-1.4 3.6-2.1.2-1 .2-2 .1-3.1zM93.5 12.2z"/><path class="st191" d="M93.4 37.8v-1c0-.3 0-.7-.1-1l-.2-4.4c0-.9-.1-1.8-.1-2.7-.6.4-1.2.8-1.7 1.2v.7l.2 4.4c0 .4 0 .7.1 1v3.3l1.8-.9v-.6zM97.7 36.2c0-1.7-.1-3.3-.2-4.9-.1-1.6-.1-3.2-.2-4.9v-.3c-1.3.7-2.5 1.4-3.6 2.1.1 1 .1 2.1.2 3.1l.2 4.4c0 .4 0 .7.1 1V38.1c1.2-.5 2.3-1.1 3.6-1.7 0 0 0-.1-.1-.2zM133.6 39.7c0-1.1-.1-2.3-.1-3.4-.1-1.1-.1-2.3-.1-3.4v-4.7l.1-4.7v-4.4-4.4c0-1.2.1-2.5.1-3.7.1-1.2.1-2.5.1-3.7 0-.6.1-1.2.1-1.8.1-.6.2-1.2.5-1.8.2-.4.4-.9.6-1.3.1-.2.3-.3.5-.4l-.2-.2c-.3-.3-.8-.4-1.2-.3-.2 0-.4 0-.5.1-.2.1-.3.2-.4.3-.3.4-.5.8-.6 1.2-.2.6-.4 1.2-.4 1.7-.1.5-.1 1.1-.1 1.7 0 1.3-.1 2.5-.1 3.8-.1 1.2-.1 2.5-.1 3.7 0 1.5-.1 2.9 0 4.4v4.4c0 1.6 0 3.2-.1 4.7v4.7c0 1.1 0 2.3.1 3.4s.1 2.2.1 3.4c0 1 .1 2 .2 3 .5-.4 1.1-.8 1.7-1.3-.1-.4-.2-.7-.2-1z"/><path class="st191" d="M137.3 36.6v-1.9V32v-2.7c0-1 .1-1.9.1-2.9s.1-1.9.1-2.9c0-1.5.1-2.9.1-4.4v-2.9c-.4-.9-.9-1.9-1.6-3-1.2-2.2-.7-4.4 1.2-6.5 0-.3-.1-.6-.1-.9-.2-1-.5-2-1-2.9 0-.1-.1-.2-.2-.2h-.1c-.1 0-.2.1-.2.2-.2.4-.4.7-.6 1.1-.2.6-.4 1.1-.4 1.7-.1.6-.1 1.2-.1 1.8 0 1.3-.1 2.5-.1 3.8-.1 1.2-.1 2.5-.1 3.7 0 1.5-.1 2.9 0 4.4v4.4l-.1 4.7v4.7c0 1.1 0 2.3.1 3.4s.1 2.2.1 3.4v.5c.9-.6 1.9-1.2 3-1.8 0-.9-.1-1.5-.1-2.1zM124.1 38.9l-.3-3-.3-3v-.8c-.1.1-.1.3-.2.4-.4.9-.8 1.9-1.2 2.8v.4c.9 1.2 1.6 2.7 2.2 4.3-.1-.3-.1-.7-.2-1.1zM126.8 49h.4l-.6-.9c0 .3.1.6.2.9zM119.9 28.7c-.2.6-.5 1.1-.8 1.7-.3.6-.5 1.1-.7 1.7 0 0 0 .1-.1.1.6.3 1.1.7 1.6 1.2.1-.2.2-.5.3-.7.2-.6.5-1.2.7-1.7.3-.5.5-1.1.8-1.6l.9-2.2c.3-.7.5-1.4.7-2.2.1-.2.1-.4.2-.7v-.2c-.1 0-.1 0-.2.1-.2.1-.4.2-.5.2-.5.3-1 .5-1.5.8-.1.4-.3.9-.5 1.3-.3.7-.6 1.5-.9 2.2zM108.5 31.7c.1-.3.3-.7.5-1 .8-1.6 2-3.1 3.3-4.4.8-.8 1.7-1.5 2.5-2.1.9-.6 1.9-1.2 2.9-1.7s2.1-.9 3.1-1.2c1-.3 2.1-.6 3.2-.7h.1c.1-.5.3-.9.4-1.3.1-.5.3-1 .5-1.5.1-.2.2-.5.4-.6-.3-.3-.6-.5-1.1-.6-.3 0-.5 0-.7.1-.2.1-.3.3-.4.5-.2.5-.3 1-.5 1.4-.1.5-.3 1-.5 1.5h-.1-.2c-1.1.2-2.1.4-3.2.7-1 .3-2 .7-3.1 1.2-1 .5-2 1-2.8 1.7-.9.6-1.7 1.3-2.5 2.1-1.3 1.3-2.4 2.7-3.2 4.3-.4.7-.6 1.4-.8 2.1 0 .2-.1.3-.1.5.3-.1.6-.3 1-.4.4-.2.8-.4 1.3-.6z"/><path class="st191" d="M128.3 48.7c-.3-1.3 0-2.5.8-3.7-.2-.5-.3-1-.4-1.5-.2-.9-.5-1.8-.7-2.7l-.6-2.7c-.3-1.5-.6-3-.9-4.6-.2-1.5-.4-3.1-.6-4.6-.1-1.2-.1-2.5-.1-3.7 0-1.2.1-2.5.2-3.7 0-.5.1-1 .1-1.5s0-1-.1-1.5c0-.2-.1-.4-.2-.6 0 0-.1.1-.1.2-.2.5-.3 1-.5 1.5-.1.5-.3 1-.5 1.5l-.1.3h-.3c-.1 0-.2.1-.3.1-1 .2-2 .4-3.1.7-1 .3-2 .7-3 1.2s-1.9 1-2.8 1.6c-.9.6-1.7 1.3-2.5 2.1-1.3 1.2-2.4 2.6-3.2 4.2-.1.1-.1.2-.2.3 1.1-.3 2.1-.5 3-.6 0-.1.1-.3.1-.4.1-.3.2-.5.4-.8.1-.3.3-.5.4-.8.3-.6.7-1.1 1.2-1.6s1-.9 1.6-1.3c.7-.5 1.4-1 2.1-1.4.7-.4 1.5-.8 2.2-1.2l.6-.3c.2-.1.4-.1.7-.2.1.3.1.5 0 .8 0 .2-.1.4-.1.5.3-.2.6-.3.9-.5l.6-.3c.2-.1.5-.1.7-.2l.3-.1.1.3c.1.3.1.6 0 .9 0 .2-.1.5-.2.7-.2.8-.5 1.5-.8 2.2l-.9 2.2c-.2.6-.5 1.1-.8 1.7 0 0 0 .1-.1.1v.8c.1.6.1 1.2.2 1.9.2-.5.5-1.1.7-1.7.1-.3.2-.5.4-.7.1-.2.3-.4.5-.7l.5-.7.1.8c0 .3.1.6.1.9v.8l.3 3 .3 3c.1.7.1 1.3.3 2 .1.6.2 1.3.4 1.9.2 1.1.5 2.1.9 3.1.3 1 .8 1.9 1.4 2.8 0 .1.1.1.1.1.7.2.8.1.9.1z"/><path class="st190" d="M125.7 46.1c-.3-1-.6-2.1-.9-3.2-.2-.7-.3-1.3-.4-2 0-.3-.1-.6-.1-.9-.6-1.6-1.4-3-2.2-4.3l.3 2.4c.1.7.1 1.3.3 2 .1.7.2 1.3.4 2 .3 1.1.6 2.1.9 3.1.3 1 .8 2 1.5 2.9.2.2.4.4.6.5l.6.3c.1 0 .1 0 .2.1-.1-.3-.1-.6-.2-.9-.5-.6-.8-1.3-1-2zM94.2 46c-.1-.6-.3-1.2-.4-1.8-.2-1.1-.3-2.1-.3-3.2 0-.8-.1-1.7 0-2.5l-1.8.9v.9c.1 1 .2 2.1.3 3.1.1.6.2 1.2.4 1.7.1.6.4 1.1.7 1.7.3.6.7 1.1 1.1 1.5.4.4 1 .7 1.7.8h.1c-.4-.4-.7-.8-1-1.3-.4-.6-.7-1.2-.8-1.8z"/><path class="st190" d="M97.4 48.3c.1-.2.2-.5.3-.7 0-.2.1-.5.1-.8v-.6-.5c0-.5 0-1 .1-1.4v-1.4-3.4c0-1-.1-2-.1-3-1.2.6-2.4 1.1-3.6 1.7V41c.1 1 .2 2.1.3 3.1.1.6.2 1.2.4 1.7.1.5.3 1.1.6 1.6s.6 1 1 1.4l.2.2c.3-.2.5-.4.7-.7zM114.1 43.3c.5-.5 1-1 1.5-1.6v-.1c-.2.2-.5.4-.8.5-.1.1-.2.1-.4.2h-.4l-.1-.1c-.2-.2-.4-.5-.4-.8-.1-.3-.1-.5-.2-.8v-.1c-.3.2-.5.4-.8.6-.1 0-.2.1-.3.1h-.2c-.2-.2-.3-.4-.4-.7-.1-.2-.1-.5-.2-.7-.1-.7-.2-1.4-.2-2.1 0-.7 0-1.4.1-2.1 0-.4.1-.8.1-1.3 0-.4.1-.8.2-1.2.1-.5.2-.9.4-1.4.1-.3.2-.7.4-1-.9.1-1.9.3-3 .6-.3.6-.5 1.1-.7 1.7-.2.7-.4 1.4-.6 2.2-.2 1-.4 2-.5 3-.1 1-.1 2 .1 2.9.1.5.2 1.1.3 1.5.1.5.4.9.7 1.3.3.4.6.8 1 1 0 0 .1 0 .1.1.8-.1 1.6-.3 2.3-.7.9-.1 1.5-.5 2-1z"/><path class="st190" d="M107.5 43c-.2-.5-.3-1.1-.3-1.7-.2-1-.2-2.1-.1-3.1s.3-2.1.5-3.1c.2-.7.4-1.5.6-2.2.1-.4.3-.8.4-1.2-.5.2-.9.4-1.4.6-.3.1-.6.3-1 .4-.2.6-.3 1.1-.4 1.7-.2 1-.4 2-.5 3-.1 1-.1 2 .1 3 .1.6.2 1.1.3 1.6.2.5.4 1 .7 1.4.3.4.7.8 1.1 1.1.4.3.8.4 1.4.5-.2-.2-.4-.4-.6-.7-.4-.3-.6-.8-.8-1.3zM117.4 34.1c-.4.6-.8 1.3-1.2 2-.2.4-.4.7-.5 1.1-.2.4-.3.7-.5 1.1-.3.7-.8 1.2-1.3 1.7 0 .2 0 .4.1.6 0 .2.1.4.2.7 0 .1.1.3.2.4h.1c1.1-.7 2-1.6 2.6-2.8.2-.4.4-.7.5-1.1.2-.4.3-.7.5-1.1.4-.7.8-1.4 1.2-2 .3-.4.5-.8.7-1.3-.5-.5-1-.9-1.6-1.2-.3.6-.6 1.3-1 1.9zM48.5 48.3c-.6-1.1-1-2.2-1.4-3.3-.3-1.1-.6-2.2-.8-3.4-.1-.3-.1-.9-.2-1.7 0-.8-.1-1.7-.1-2.7 0-1-.1-2.1-.1-3.2l-.1-3.2v-3l-1.8.9v1.4c0 1 0 2.1.1 3.2 0 1.1 0 2.2.1 3.2 0 1 .1 1.9.1 2.7 0 .8.1 1.3.2 1.6.2 1.1.5 2.3.8 3.4.3 1.1.7 2.2 1.3 3.2.4.7.8 1.3 1.3 1.7.5.5 1.1.8 1.9 1.1.1 0 .2 0 .2.1-.1 0-.1-.1-.2-.1-.4-.6-.9-1.2-1.3-1.9z"/><path class="st190" d="M52.8 48.6c-.2-.3-.3-.6-.5-.9-.1-.1-.2-.3-.2-.5-.1-.2-.1-.3-.2-.5 0-.1-.1-.3-.1-.4 0-.1-.1-.3-.1-.4-.3-.7-.5-1.5-.7-2.3-.2-.8-.3-1.5-.5-2.3-.1-.5-.2-1.2-.3-2.2-.1-1-.1-2.1-.2-3.3-.1-1.2-.1-2.5-.2-3.8 0-1.3-.1-2.6-.1-3.8 0-.8 0-1.5-.1-2.2-1 .5-2.1 1-3.1 1.4V30.8l.1 3.2c0 1.1 0 2.2.1 3.2 0 1 .1 1.9.1 2.7 0 .8.1 1.3.2 1.5.2 1.1.5 2.3.8 3.3.3 1.1.7 2.1 1.3 3.1.4.6.8 1.2 1.3 1.6.2.2.5.4.8.6.6-.3 1.3-.6 1.9-.9-.1 0-.2-.3-.3-.5z"/><path class="st191" d="M109.8 7.2c0-.1-.1-.1 0 0-.1-.1-.1-.1 0 0-.1 0-.1 0 0 0zM110.3 7.9h-.5-.1c0 .3.1.5.1.8l.5-.8z"/><path class="st190" d="M128.3 48.7c.1 0 .2-.1.2-.1.2-.1.4-.2.6-.4.2-.2.4-.4.5-.6.1-.2.1-.4.1-.7 0-.2-.1-.4-.1-.4-.2-.5-.3-1-.5-1.5-.8 1.2-1.1 2.4-.8 3.7zM74.8 19.3c-.2-.2-.5-.3-.8-.4-.2-.1-.4-.1-.6-.2l.9.9c.4.6.8 1.2 1 1.9.1.2.1.3.1.5s.1.4.1.6c0 .3.2.5.5.5h.3c.1-.1.2-.1.2-.3.2-.3.3-.6.1-.9-.1-.2-.2-.5-.3-.7-.1-.2-.2-.4-.3-.7v-.1c-.2-.3-.6-.7-1.2-1.1z"/><path class="st190" d="M68.4 16.9c-.5.3-.9.8-1.3 1.3s-.7 1-.9 1.6c-.2.6-.3 1.2-.4 1.8 0 .6 0 1.2.2 1.8.2.8.5 1.6.8 2.3.4.7.8 1.5 1.2 2.2.4.6.7 1.2 1.1 1.8.4.6.8 1.2 1.3 1.7.4.5.7 1.1 1 1.7.3.6.6 1.2.7 1.9.3 1 .4 2.1.4 3.1s-.2 2.1-.5 3.1c0 .1 0 .1-.1.2 1.1-.1 2.2-.1 3.2 0 .2-.7.3-1.4.4-2.1.1-1 .1-2 .1-3-.1-1.9-.6-3.7-1.5-5.4-.3-.6-.7-1.2-1.1-1.8-.4-.6-.8-1.2-1.2-1.7-.5-.8-1-1.5-1.5-2.3-.5-.8-1-1.6-1.4-2.4-.1-.2-.2-.5-.3-.8-.1-.3-.1-.6-.1-.9 0-.6.2-1.2.4-1.7.3-.5.6-1 1-1.5.1-.2.3-.3.5-.3.2-.1.4-.1.6 0l.9.3c.2.1.3.1.5.2 0 0 .1 0 .1-.1.2-.1.5-.1.7 0l.9.3c.4.1.7.3 1 .4v-.1c-.6-.9-1.3-1.7-2.1-2.4-.1-.1-.2-.2-.3-.2-.1 0-.3-.1-.4-.1-.5-.1-1-.1-1.5-.1-.5.1-1 .2-1.4.5l-1 .7zM61.7 40.8c-.2-.6-.2-1.2-.2-1.8.1-.6.2-1.2.3-1.7.2-.5.3-.9.5-1.4.1-.1.1-.3.2-.4l-.1-.1c-.4-.5-.9-1-1.4-1.4-.2.5-.4.9-.5 1.4-.2.4-.4.9-.5 1.4-.2.6-.3 1.1-.3 1.7-.1.6 0 1.1.1 1.7.3 1.4.9 2.6 1.8 3.7.4.4.7.8 1.1 1.2.2-.1.5-.2.7-.3-.8-1.4-1.4-2.7-1.7-4z"/><path class="st190" d="M67.6 42.7l-.3-.3c-.1 0-.3 0-.4-.1-.3-.1-.6-.2-.8-.4-.3-.2-.6-.5-.8-.7-.3-.2-.5-.5-.7-.8-.4-.5-.6-1.1-.8-1.7-.2-.6-.3-1.2-.4-1.8-.1-.3-.1-.6-.2-.8-.2.4-.3.8-.5 1.2-.2.5-.3 1.1-.3 1.6s0 1 .1 1.6c.3 1.3.9 2.5 1.7 3.6l.1.1c1-.4 2-.9 3-1.4 0 .1.2 0 .3-.1zM63.5 22.9c.2.8.5 1.7.9 2.4.4.8.8 1.5 1.2 2.3.4.6.7 1.2 1.2 1.8.4.6.8 1.2 1.3 1.7.4.5.7 1.1 1 1.6.3.6.5 1.2.7 1.8.3 1 .4 2 .4 3s-.2 2-.5 3c-.1.4-.3.7-.5 1-.2.3-.4.5-.7.8 0 0-.1.1-.2.1l.1.1c1-.4 1.9-.6 2.8-.8.1-.2.1-.3.2-.5.3-1 .5-1.9.5-2.9s-.1-1.9-.4-2.9c-.2-.6-.4-1.2-.7-1.7-.3-.5-.6-1.1-1-1.6-.4-.6-.8-1.2-1.2-1.7l-1.2-1.8c-.4-.7-.9-1.5-1.2-2.3-.4-.8-.7-1.6-.9-2.5-.2-.7-.2-1.4-.2-2.1 0-.7.2-1.4.4-2 .2-.7.6-1.3 1-1.8.4-.6.9-1 1.5-1.5l1-.6c.5-.3 1.1-.5 1.7-.6h.4l-.9-.3h-.1c-2.2 1.1-4.2 2.1-6 3.1-.2.3-.4.7-.5 1.1-.2.6-.4 1.3-.4 1.9.1.6.1 1.2.3 1.9z"/><path class="st191" d="M63.6 44.7c-.1-.1-.1-.1 0 0-.3 0-.6.1-.8.3.4.4.8.8 1.3 1.1.6.4 1.2.7 1.9 1-.5-.3-.9-.7-1.3-1.1-.4-.5-.8-.9-1.1-1.3zM69.1 42.8c.3 0 .5.1.8 0 .2 0 .3-.1.4-.2.2-.2.4-.4.6-.7.1-.1.2-.2.2-.3-.9.2-1.8.4-2.8.8 0 0 .1 0 .1.1.2.2.5.3.7.3z"/><path class="st191" d="M70.9 47.2c1.1-.5 2-1.1 2.6-1.9.6-.8 1.1-1.8 1.4-2.9.1-.3.1-.5.2-.8-1-.2-2-.2-3.2 0-.1.3-.3.7-.5.9-.2.3-.5.6-.7.8-.2.2-.5.3-.8.3h-1c-.4-.1-.7-.2-1-.4-.1-.1-.3-.2-.4-.3-.1.1-.3.1-.4.2-1 .5-2 .9-3 1.4.3.4.7.8 1 1.1.4.4.8.7 1.2 1.1.7.5 1.4.8 2.2 1h.9c.6-.2 1.1-.3 1.5-.5zM53.4 50.1c.1-.2.1-.4-.1-.7 0-.1-.1-.1-.1-.2-.7.3-1.3.6-1.9.9.3.1.6.3.9.4.2 0 .4 0 .6-.1.3 0 .5-.1.6-.3zM143.5 1.4c-.7 0-1.1.4-1.3 1.1v.1c.6-.4 1.3-.8 1.9-1.1-.2 0-.4 0-.6-.1z"/><path class="st190" d="M181.9 10.5c.4-.9.9-1.9 1.4-2.9.2-.4.5-.7.8-.8-.2-.2-.4-.3-.7-.4-.9-.3-1.5-.1-2 .7-.5 1-1 1.9-1.4 2.8l-.6 1.5c.7.1 1.3.2 1.9.4.2-.5.4-.9.6-1.3zM183.9 11.2c.1-.7.4-1.5.8-2.2.3-.6.3-1.1 0-1.6l-.1-.1c-.3.1-.5.3-.7.6-.5 1-1 1.9-1.4 2.8-.2.4-.3.8-.5 1.2.5.2 1 .4 1.5.7.2-.4.3-.9.4-1.4zM146.3 25.9c-.1-1.1-.3-2.1-.4-3.2-.2-1.4-.4-2.9-.6-4.3-.2-1.4-.4-2.9-.5-4.3l-.4-3c-.1-1-.2-2-.4-3-.1-.8-.1-1.6-.2-2.4 0-.8 0-1.6.2-2.5.1-.7.5-1.1 1-1.3-.3-.2-.6-.3-.9-.4-.7.4-1.3.8-1.9 1.1-.1.8-.2 1.5-.1 2.3 0 .8.1 1.6.2 2.4.1 1 .2 2 .4 3 .1 1 .3 2 .4 3 .2 1.4.3 2.9.5 4.3s.4 2.9.6 4.3c.2 1.7.4 3.3.7 4.9l.2.2c.2-.4.7-.8 1.2-1.1z"/><path class="st190" d="M150.8 22.9c0-.2-.1-.4-.1-.5 0-.2 0-.3-.1-.5-.2-1.6-.5-3.2-.7-4.7-.2-1.6-.5-3.1-.7-4.7-.2-1.1-.4-2.1-.6-3.2-.2-1-.5-2.1-.9-3.1-.2-.7-.5-1.3-.8-2-.3-.5-.6-1-1-1.5h-.3c-.5 0-.8.2-.9.8-.1.8-.2 1.6-.2 2.3 0 .8.1 1.6.2 2.4l.3 3 .4 3c.2 1.4.3 2.9.5 4.3s.4 2.9.6 4.3c.1.9.2 1.9.4 2.8 1.2-.8 2.5-1.7 4-2.5 0-.2-.1-.2-.1-.2zM137.5 11.7c0-1-.1-2-.1-3 0-.7-.1-1.4-.2-2.2-1.9 2.1-2.5 4.2-1.2 6.5.6 1.1 1.1 2.1 1.6 3v-1.5c0-.9 0-1.8-.1-2.8z"/><path class="st191" d="M147.3 33.1c-.2-1.6-.5-3.2-.7-4.8-.1-.8-.2-1.7-.4-2.5-.5.4-1 .7-1.4 1.1l-.2-.2c0 .3.1.5.1.8.2 1.6.5 3.2.7 4.8.2 1.1.3 2.2.5 3.3.5-.3 1.1-.5 1.6-.8 0-.5-.1-1.1-.2-1.7zM159.2 27.2c-1-.6-2.1-1.3-3.2-1.9l-.4-.4c.3-.1.7-.2.9-.3.3-.1.6-.2.8-.3 1.1-.4 2.3-.9 3.4-1.3 1.2-.4 2.3-.9 3.4-1.3.5-.2 1-.4 1.4-.5.5-.2.9-.4 1.4-.6.4-.2.7-.4 1-.7-.6.2-1.1.3-1.6.5-1 .3-1.9.6-2.9.9-1.3.4-2.7.8-3.9 1.2-1.3.4-2.6.8-4 1.1-.4.1-.9.2-1.3.3-.4.1-.9.1-1.4.2l-.4.1-.1-.4c0-.2-.1-.4-.1-.6l-.1-.5c-.1 0-.2 0-.3.1-.4.1-.8.1-1.2.2-1.5.8-2.8 1.7-4 2.5.1 1 .3 1.9.4 2.9.2 1.6.5 3.2.7 4.8.1.5.1 1 .2 1.5 1.3-.6 2.6-1.2 4-1.9-.1-.9-.2-1.7-.4-2.6-.1-.4-.1-.9-.2-1.3s-.1-.9-.2-1.4c.3 0 .5 0 .7.1.2.1.4.2.5.3.2.1.4.3.6.4l-.1-.4.4-.1c.4-.1.7 0 .9.1.2.1.4.2.5.3 1 .6 2 1.3 3 1.9 1.1-.5 2.2-1 3.4-1.5-.3-.5-1-1-1.8-1.4z"/><path class="st191" d="M153.2 23v.2c.4-.1.7-.1 1-.2l1.2-.3c1.3-.4 2.7-.7 3.9-1.1l3.9-1.2c1-.3 1.9-.6 2.9-.9.8-.2 1.6-.5 2.4-.7-.4-.5-1-.7-1.7-.5-1 .3-1.9.6-2.9.9-1 .3-1.9.6-2.9.9l-3.9 1.2c-1.3.4-2.6.8-3.9 1.1-.1 0-.2 0-.3.1v.1l.3.4zM154.7 28.8c-.2-.1-.3-.2-.5-.3h-.1v.2c.9.6 1.9 1.2 2.8 1.8h.1c.1 0 .1-.1.2-.1-.8-.5-1.6-1-2.5-1.6zM177.8 31.3c.1-.7.1-1.3.2-2 0-.7.1-1.3.2-2l.3-2.1.3-2.1c.1-.7.2-1.5.3-2.2.1-.7.3-1.5.4-2.2.3-1.4.6-2.8 1-4.1.2-.9.5-1.9.9-2.8-.6-.2-1.3-.3-1.9-.4-.3.8-.6 1.7-.8 2.5-.3 1.3-.7 2.7-1 4.1-.2.7-.3 1.5-.4 2.2-.1.7-.2 1.5-.3 2.2l-.3 2.1-.3 2.1c-.1.7-.1 1.3-.2 2 0 .7-.1 1.3-.2 2v.1c.6.7 1.2 1.6 1.7 2.5 0-.6 0-1.2.1-1.9z"/><path class="st191" d="M179.2 36.3l.3-1.8.7-4.2c.1-.7.2-1.4.3-2 .1-.7.2-1.3.3-2 .2-1.4.3-2.8.5-4.3.2-1.4.5-2.8.8-4.2.2-.7.4-1.4.5-2.2.2-.7.4-1.5.6-2.2.1-.3.1-.5.2-.8-.5-.3-1-.5-1.5-.7l-.9 2.7c-.3 1.3-.7 2.7-1 4.1-.2.7-.3 1.5-.4 2.2-.1.7-.2 1.5-.3 2.2l-.3 2.1-.3 2.1c-.1.7-.1 1.3-.2 2 0 .7-.1 1.3-.2 2-.1 1-.2 2-.2 3v.2c.3.6.6 1.2.8 1.9.3 0 .3 0 .3-.1z"/><path class="st190" d="M138.1 47.2c.4-.6.7-1.2 1-1.8 0-.1.1-.2.1-.3v-1.4-1.1c-.1 0-.2.1-.2.1-.2.2-.4.3-.6.5l-.6.6c-.1.1-.2.2-.2.3s-.1.2-.2.3v-1.5-1.4V40v-1.5-.2c-1.1.6-2.1 1.2-3 1.8 0 1 .1 2.1.2 3.1.1 1.2.3 2.4.5 3.6.1.5.2.9.4 1.3l.3.6.9-.3c.5-.1 1-.6 1.4-1.2zM134.4 47.1c-.3-1.2-.4-2.5-.5-3.7-.1-.9-.1-1.8-.2-2.7-.6.4-1.2.8-1.7 1.3v.7c.1 1.2.3 2.4.5 3.7.1.5.3.9.4 1.4.2.4.4.8.7 1.2.4.1.9.2 1.4.1-.1-.2-.2-.3-.2-.5-.2-.5-.3-1-.4-1.5zM140.1 43.1c0-.1 0-.2-.1-.2v.5c0-.1.1-.2.1-.3zM153.8 46.4c0-.8-.1-1.5-.1-2.3 0-.8-.1-1.5-.2-2.3-.3-1.9-.5-3.9-.8-5.8-.2-1.1-.3-2.2-.5-3.2-1.4.6-2.7 1.2-4 1.9.2 1.1.3 2.2.5 3.3.2 1.1.3 2.1.4 3.2.1 1 .3 2.1.4 3.2.1.9.3 1.7.5 2.6.2.8.5 1.5.9 2.2.5-.1 1-.3 1.5-.7.8-.6 1.1-1.3 1.4-2.1zM148.9 44.3c-.2-1.1-.3-2.1-.4-3.2-.1-1-.3-2.1-.4-3.1-.2-1-.3-2.1-.5-3.1-.5.3-1.1.5-1.6.8.1.5.2 1 .2 1.5.2 1.1.3 2.1.4 3.1.1 1 .3 2.1.4 3.2.1.9.3 1.8.5 2.6s.6 1.6 1 2.4c.1.1.1.2.2.3.1.1.1.2.2.2.5.1.9.1 1.3.1-.4-.7-.7-1.4-.9-2.1-.1-.9-.2-1.8-.4-2.7zM179.5 48.7c.1-.1.1-.2.2-.3.2-.3.2-.5.2-.7h-.3c-.3.1-.6.1-.9.2-.1 0-.1 0-.1.1-.1.1-.1.2-.1.2-.1.3-.1.6.1.8h.8c-.1 0 0-.2.1-.3z"/><path class="st190" d="M177.7 48c.1-.2.2-.3.3-.5.1-.2.3-.3.5-.3.3-.1.7-.2 1-.2h.1c-.1-.1-.3-.2-.4-.3-.2-.1-.5-.2-.8-.2-.4 0-.7.1-1 .1-.3.1-.7.1-1 .2-.1 0-.2.1-.3.2-.1.1-.1.2-.2.3-.1.5-.1.9.2 1.2.2.3.6.5 1.2.5h.5c-.2-.2-.2-.6-.1-1zM177.8 37.4c-.2-1-.2-2.1-.2-3.1v-1.1c-.5-.9-1.1-1.8-1.7-2.5-.1 1-.2 2-.2 2.9 0 1 .1 2 .2 3 0 .2.1.4.1.7.3.4.6.8.8 1.3v.6c.1.2.2.3.4.5.3-.1.5-.2.7-.3.1-.1.2-.1.3-.2v-.1c-.1-.5-.3-1.1-.4-1.7zM179.2 36.5c-.3-.7-.5-1.3-.8-1.9 0 .9.1 1.8.2 2.7.1.4.1.7.3 1 0-.1.1-.2.1-.3 0-.5.1-1 .2-1.5zM167.4 36.7c-1.4-.8-2.7-1.7-4.1-2.5-1.4-.9-2.9-1.8-4.3-2.7-.6-.4-1.1-.7-1.7-1.1-.1 0-.1.1-.2.1l4.2 2.7c1.4.8 2.7 1.7 4.1 2.5 1.4.8 2.7 1.6 4.1 2.4.5.3 1 .6 1.5.8.5.3 1 .5 1.5.8h.1c-.4-.2-.8-.4-1.2-.7-1.3-.6-2.7-1.5-4-2.3zM174.3 39.3c.2-.3.2-.7.2-1.3-.2-.6-.6-1.1-1-1.5-.2-.2-.5-.4-.7-.6-.2-.2-.5-.4-.8-.6-.7-.4-1.3-.9-2-1.3s-1.3-.9-2-1.3l-2.7-1.8c-.9-.6-1.8-1.2-2.8-1.8l-.9-.6c-1.1.5-2.3 1-3.4 1.5.4.3.9.6 1.3.8 1.4.9 2.8 1.8 4.3 2.7 1.4.8 2.7 1.7 4.1 2.5 1.4.8 2.7 1.6 4.1 2.4.5.3 1 .6 1.5.8l.6.3c0 .1.1 0 .2-.2z"/><path d="M2.7 6l-.3 1.2c-.2.5-.3.9-.3 1.4-.1.7-.2 1.5-.2 2.3 0 .8-.1 1.6 0 2.4l.1 4v.3c0 1.3.1 2.5.2 3.7.1 1 .1 2.1.2 3.1s.2 2.1.4 3.1v.3c.2 1.4.4 2.7.5 4.1.1 1.4.2 2.9.3 4.3.1 1.5.2 3.1.4 4.6.1 1.5.4 3.1.7 4.6.1.4.2.7.3 1.1.1.3.3.6.4.9v.1l.3.3c.2.1.3.2.5.3.4.2.8.3 1.3.4.3.1.6.1.9.1h.4l1.1-.1c.4 0 .8-.1 1.1-.2.9-.2 1.8-.5 2.5-1 .8-.4 1.5-.9 2.2-1.4.9-.6 1.8-1.2 2.6-1.8.8-.6 1.7-1.2 2.6-1.8l.1-.1c.3-.2.5-.4.6-.6.1-.2.3-.5.4-.8.3 1 .7 2 1.1 2.9.9 1.3 1.9 2.5 3 3.3 1.2.9 2.6 1.4 4.2 1.6.4 0 .7.1 1.1.1 1.2 0 2.2-.2 3.2-.7 1.2-.6 2.3-1.5 3.3-2.6.6-.7 1.2-1.4 1.8-2.2l1.5-2.4c.5-.9.9-1.8 1.3-2.6.4-.9.8-1.7 1.2-2.6.2-.4.2-.7.1-1-.1-.2-.3-.4-.5-.6-.2-.1-.5-.2-.8-.2-.5.1-.8.2-1.1.5l-.1.1c-.2.3-.5.6-.6 1.1-.3.8-.7 1.6-1.1 2.3-.4.7-.8 1.5-1.3 2.2-.3.5-.7 1.1-1.1 1.5-.4.5-.8.9-1.3 1.3-.2.2-.4.3-.7.4-.2.1-.3.1-.6.1-.6 0-1.2-.2-1.8-.4h-.1c-.6-.3-1.1-.6-1.5-1.1-.5-.6-1-1.4-1.2-2.1-.2-.7-.4-1.4-.6-2.2 1.1-.1 2.2-.3 3.2-.7 1-.4 2-.9 3-1.5.7-.5 1.3-.9 1.9-1.5.6-.5 1.2-1.1 1.8-1.6 2-1.9 3.3-4.3 3.8-7 .2-.8.2-1.7.1-2.5s-.4-1.6-.8-2.3c-.4-.7-.9-1.3-1.3-1.9-.5-.6-1.1-1.2-1.8-1.6-.2-.1-.4-.2-.5-.3-.2-.1-.3-.2-.5-.4-.7-.5-1.5-.8-2.3-1-.5-.1-.9-.1-1.4-.1h-1c-.7 0-1.4.2-2.1.4-.7.2-1.3.5-2 .8-.7.4-1.4.8-2.1 1.4-.6.5-1.2 1.1-1.7 1.8-.3.3-.5.7-.8 1.1-.5.8-1 1.5-1.3 2.3-.5 1.2-1 2.5-1.3 3.7-.3.9-.5 1.8-.6 2.6-.2.9-.2 1.8-.3 2.7 0 .9-.1 1.7-.1 2.6 0 .9 0 1.7.1 2.6.1.8.2 1.6.4 2.4-.2-.2-.5-.3-.9-.3-.3 0-.6 0-.8.1H20c-.1 0-.2.1-.4.1-.1.1-.3.1-.4.2-1.5.7-2.9 1.6-4.2 2.7-.4.3-.7.6-1.1.9-.4.2-.8.5-1.3.7-.3.1-.6.3-.9.4-.2.1-.4.1-.6.1v-.2c0-.1-.1-.3-.1-.4 0-.2 0-.4-.1-.6-.1-.7-.1-1.4-.2-2-.1-.8-.2-1.7-.2-2.6 0-.6-.1-1.3-.2-1.9l-.7-4.3c0-.3-.1-.7-.1-1 0-.4-.1-.8-.2-1.2-.2-.7-.3-1.3-.4-2-.1-.7-.1-1.4-.2-2v-.6-.6c0-.4-.1-.7-.1-1.1 0-.4-.1-.8-.1-1.1v-1.2c0-.4-.1-.9-.2-1.4V18v-1.7L8 14.5c0-.6-.1-1.2-.1-1.7 0-.3 0-.6-.1-1 0-.3-.1-.7-.1-1 0-.5-.1-1.1-.2-1.6s-.3-1-.4-1.6C6.9 7 6.5 6.4 6 6c-.6-.5-1.2-.7-2-.7-.2 0-.4 0-.6.1h-.1c-.1 0-.4.2-.6.6zm19.4 25.9c0-.9.1-1.7.3-2.6.1-.8.3-1.7.6-2.6.4-1.2.8-2.5 1.3-3.6s1.2-2.2 2-3.3c0-.1.1-.1.2-.2.4-.5.9-1 1.5-1.5s1.2-.9 1.9-1.3c.6-.3 1.2-.6 1.8-.8.6-.2 1.3-.3 1.9-.3h.9c.4 0 .8.1 1.3.1.1 0 .2.1.4.1.6.1 1.1.4 1.6.8.2.1.4.3.5.4l.6.3c.6.4 1.2.9 1.6 1.4.5.6.9 1.2 1.3 1.9.4.6.6 1.3.7 2 .1.7.1 1.5-.1 2.2-.5 2.5-1.7 4.8-3.6 6.6-.6.5-1.1 1.1-1.7 1.6-.6.5-1.2 1-1.8 1.4-.9.6-1.9 1.1-2.8 1.5-1 .4-2 .6-3.1.6-.1 0-.1 0-.4.1l-.3.1.1.3c.2.9.4 1.8.7 2.6.3.8.8 1.6 1.4 2.3l.6.6c.4.3.8.6 1.2.8.6.3 1.4.5 2.1.5.4 0 .7 0 1-.2.2-.1.5-.3.7-.5l.3-.3c.4-.3.7-.7 1-1.1.4-.5.8-1 1.1-1.6.5-.7.9-1.5 1.4-2.3.4-.8.8-1.6 1.1-2.4.2-.3.3-.6.5-.9.2-.2.4-.3.7-.4.2 0 .3.1.4.1.1.1.2.2.2.3 0 .1 0 .2-.1.4-.4.9-.8 1.8-1.2 2.6-.4.8-.8 1.7-1.3 2.6-.4.8-.9 1.6-1.4 2.3-.5.7-1.1 1.5-1.7 2.2-.9 1.1-1.9 1.9-3 2.4s-2.4.7-3.9.6c-.6-.1-1.1-.2-1.6-.3-.9-.2-1.6-.6-2.3-1.1-1.1-.8-2-1.9-2.7-3.2-.5-1-.9-2-1.2-3-.3-1-.5-2.1-.6-3.2-.2-.7-.2-1.6-.2-2.4 0-.9 0-1.7.1-2.6zM3.4 6.2c.1-.1.1-.2.2-.2h.5c.5 0 1 .2 1.4.5.4.4.7.8.9 1.4.1.5.3 1 .4 1.5.1.5.2 1 .2 1.5 0 .3.1.7.1 1 0 .3.1.6.1.9 0 .6.1 1.1.1 1.7l.1 1.8v3.8c0 .2 0 .3.1.4.1.4.1.8.1 1.2V23c0 .4.1.7.1 1.1 0 .4.1.8.1 1.1v1.2c.1.7.1 1.4.2 2 .1.7.2 1.4.4 2.1.1.3.2.7.2 1 0 .4 0 .7.1 1.1l.8 4.4c.1.6.2 1.2.2 1.8 0 .9.1 1.8.2 2.6.1.7.2 1.5.3 2.3v.3c0 .2.1.3.1.5 0 .1.1.3.1.5l.1.3h.3c.4 0 .8 0 1.2-.2.3-.1.6-.3.9-.4.5-.2.9-.5 1.3-.7l1.2-.9c1.2-1 2.5-1.8 3.8-2.5.1 0 .1-.1.2-.1.3-.1.5-.2.8-.3h.1c.4-.1.9-.1 1.1 0 0 0 .1.1 0 .3-.1.3-.2.5-.3.7l-.3.3-.2.2c-.9.6-1.8 1.2-2.6 1.8-.8.6-1.7 1.2-2.6 1.8-.7.5-1.4.9-2.2 1.4-.7.4-1.5.7-2.4.9-.3.1-.7.2-1 .2l-1.1.1c-.4 0-.8 0-1.1-.1-.3-.1-.6-.2-1-.3-.1 0-.1 0-.2-.1-.1 0-.1-.1-.2-.1l-.1-.1c-.1-.3-.3-.7-.4-1l-.3-.9c-.3-1.5-.6-3-.7-4.5-.1-1.5-.3-3-.4-4.6-.1-1.5-.2-2.9-.4-4.3-.1-1.4-.3-2.8-.5-4.3v-.1c-.1-1-.3-2-.4-3-.1-1-.2-2-.2-3.1-.1-1.3-.2-2.7-.2-4.1l-.1-4.1v-2.3c0-.8.1-1.5.2-2.3 0-.4.1-.8.3-1.2.2-.4.3-.8.4-1.2z"/><path d="M35.7 32.4c.4-.4.9-.8 1.3-1.2.9-.8 1.7-1.8 2.2-2.8.3-.6.5-1.2.7-1.8.1-.5.3-1 .4-1.5.1-.6.1-1.1 0-1.7-.1-.5-.4-1-.8-1.5-.7-.9-1.6-1.4-2.6-1.7-.5-.1-1-.2-1.6-.1-.5.1-1 .2-1.5.5-.9.4-1.6 1-2.3 1.7-.6.7-1.2 1.4-1.6 2.3-.7 1.4-1.2 2.9-1.5 4.4-.2.8-.3 1.7-.4 2.5-.1.8-.1 1.7 0 2.6v.7c0 .2.1.5.1.7l.1.4.4-.1c.3 0 .5-.1.7-.1.2 0 .5-.1.7-.1.8-.2 1.5-.4 2.2-.8.3-.2.6-.3 1-.5.3-.2.7-.4 1-.7.6-.5 1.1-.8 1.5-1.2zM32 34c-.6.3-1.3.6-2.1.7-.2.1-.4.1-.6.1h-.4c0-.1 0-.2-.1-.4 0-.2 0-.3-.1-.5v-.2-2.5c.1-.8.2-1.6.4-2.4.3-1.5.8-2.9 1.4-4.3.4-.8.9-1.5 1.4-2.1.6-.6 1.3-1.1 2-1.5.6-.3 1.1-.4 1.7-.4.2 0 .4 0 .6.1h.2c.8.2 1.6.7 2.2 1.5.3.4.5.8.6 1.2.1.4.1.9 0 1.4-.2 1.1-.5 2.2-1 3.2s-1.2 1.9-2 2.6l-.1.1c-.4.4-.8.8-1.2 1.1-.4.4-.9.7-1.4 1.1-.2.5-.8.9-1.5 1.2zM48 2.4v.2c0 .3-.1.6-.2.9-.1.3-.1.7-.2 1-.1.6-.2 1.2-.3 1.7-.1.6-.2 1.1-.3 1.8l-.2 1.5H43.9c-.9 0-1.8.1-2.7.2-.5.1-1.1.1-1.7.2-.5 0-1.1.1-1.7.1-.7.1-1.1.5-1.1 1.1v.2l.2.1c.2.1.3.2.4.3l.6.3c.2.1.4.1.6.2.2 0 .4.1.6.1h7.5c0 .3 0 .6-.1 1.1 0 .5-.1 1.1-.1 1.7 0 .6-.1 1.3-.1 2s-.1 1.3-.1 2l-.1 1.7c0 .5-.1.9-.1 1.1 0 .8-.1 1.6-.1 2.4V31l.1 3.2c0 1.1 0 2.2.1 3.2 0 1 .1 1.9.1 2.7 0 .8.1 1.3.2 1.7.2 1.1.5 2.3.8 3.4.3 1.1.8 2.2 1.4 3.3.4.7.9 1.3 1.4 1.8.1 0 .1.1.2.1.5.4 1.1.8 1.8 1 .5.2 1 .3 1.5.4h.6c.3 0 .7 0 1-.1.4-.1.7-.3.8-.6.1-.2.2-.5-.1-1.1l-.9-1.7c-.1-.1-.1-.3-.2-.4-.1-.2-.1-.3-.2-.5 0-.1-.1-.2-.1-.3 0-.2-.1-.3-.1-.5-.3-.7-.5-1.5-.7-2.2-.2-.8-.3-1.5-.5-2.3-.1-.5-.2-1.2-.3-2.2-.1-1-.1-2.1-.2-3.3-.1-1.2-.1-2.5-.2-3.8 0-1.3-.1-2.6-.1-3.8 0-1.2-.1-2.3-.1-3.3v-7.4-1.2-1.5-1.5V12.4h.1c.7 0 1.4-.1 2-.1.7-.1 1.4-.1 2.1-.1.5 0 .9-.1 1.4 0h1.4c.3 0 .5 0 .8-.1.3-.1.6-.2.9-.5l.3-.4-.4-.2c-.1 0-.1-.1-.1-.1l-.2-.2h-.1l-.6-.3c-.2-.1-.5-.2-.7-.2-.9-.2-1.7-.4-2.6-.4h-.3c-.9-.1-1.9-.1-2.8-.1h-.7-.5V8.2c0-.6 0-1.2.1-1.7.1-.6.1-1.2.1-1.8v-.9V3c.1-.5 0-.9-.2-1.2-.2-.3-.4-.6-.7-.8-.4-.3-.8-.5-1.2-.5-.4 0-.7.1-1.1.2h-.1c-.8.1-1.2.8-1.1 1.7zm1.4-1.1c.1 0 .3-.1.4-.1.2 0 .4-.1.6-.1.3 0 .5.1.7.3.2.2.4.4.5.6.1.2.1.4.1.7 0 .3-.1.6-.1 1v.9c0 .6 0 1.2-.1 1.7-.1.6-.1 1.2-.1 1.8v2H53.3c.9 0 1.9 0 2.8.1.7.1 1.3.2 2 .3.2.1.5.1.7.2.2 0 .4.1.5.2.2.1.4.1.5.2h-.1c-.2 0-.4.1-.6.1h-2.8c-.7 0-1.4.1-2.1.1-.7.1-1.4.1-2.1.1H52h-.1c-.1 0-.2 0-.3.1l-.2.1V25.5c0 1 0 2.1.1 3.3 0 1.2.1 2.5.1 3.8 0 1.3.1 2.6.2 3.8.1 1.2.1 2.3.2 3.3s.2 1.8.3 2.3c.1.8.3 1.5.5 2.3.2.8.4 1.5.7 2.3 0 .1.1.2.1.3 0 .2.1.3.1.5.1.2.1.3.2.5s.2.3.2.5l1 1.7c0 .1.1.2.1.3 0 .1-.2.2-.3.2-.5.1-1 .1-1.4 0-.4-.1-.9-.2-1.4-.3-.3-.1-.6-.2-.9-.4-.3-.2-.6-.4-.8-.6-.5-.4-.9-1-1.3-1.6-.6-1-1-2.1-1.3-3.1-.3-1.1-.6-2.2-.8-3.3-.1-.3-.1-.8-.2-1.5 0-.8-.1-1.7-.1-2.7 0-1-.1-2.1-.1-3.2l-.1-3.2V26.4 24c0-.8 0-1.6.1-2.3 0-.3 0-.6.1-1.1l.1-1.7c0-.6.1-1.3.1-2s.1-1.3.1-2c0-.6.1-1.2.1-1.7s.1-.9.1-1.2v-.7l-.3-.1c-.1 0-.3 0-.5-.1H39c-.2 0-.3 0-.5-.1-.2 0-.4-.1-.5-.1-.1 0-.2-.1-.4-.2h-.1c-.1-.1-.2-.1-.2-.1.1-.1.2-.2.4-.2.6-.1 1.1-.1 1.7-.2.6-.1 1.1-.1 1.7-.2.9-.1 1.8-.1 2.7-.2h3c.2 0 .3 0 .4-.1l.2-.1.3-1.9c.1-.6.2-1.2.3-1.7.1-.5.2-1.1.3-1.7 0-.3.1-.6.2-.9.1-.3.1-.7.2-1v-.3c-.1-.3.2-.7.7-.8z"/><path d="M60.9 13.4c-.1 0-.1.1-.2.1l-.3.3c-.1.1-.2.3-.3.4-.1.2-.1.4-.1.5 0 .4.2.7.5.8H61.1l.3.1h.1l-.3.3-.3.3c-.1.1-.2.2-.2.3-.1.2-.1.5 0 .7.1.2.3.3.5.3h.1c.2 0 .3-.1.5-.1s.4-.1.6-.2c.5-.3.9-.8 1-1.4.1-.5.1-1.1-.1-1.7l-.2-.3c-.3-.3-.6-.4-.9-.5-.3 0-.5-.1-.7-.1-.2.1-.4.1-.6.2zm.4.6c.2 0 .5.1.8.1.2 0 .4.1.5.3l.1.1c.1.4.2.8.1 1.2-.1.4-.3.7-.7.9-.1.1-.2.1-.3.1h-.2l.2-.2.3-.3v-.1l.1-.1c.2-.2.2-.5.1-.7-.1-.1-.2-.2-.5-.3h-.2l-.3-.1c-.1 0-.2 0-.3-.1h-.1v-.1s0-.1.1-.2c0-.1.1-.1.1-.2 0 0 0-.1.1-.1-.1-.1 0-.1.1-.2-.1 0 0 0 0 0zM69.1 15.7l-1 .6c-.6.4-1.1.9-1.5 1.5-.4.6-.7 1.2-1 1.8-.2.7-.4 1.3-.4 2s0 1.4.2 2.1c.2.9.5 1.7.9 2.5s.8 1.5 1.2 2.3l1.2 1.8c.4.6.8 1.2 1.2 1.7.3.5.7 1.1 1 1.6.3.5.5 1.1.7 1.7.3 1 .4 2 .4 2.9 0 1-.2 1.9-.5 2.9-.1.2-.1.3-.2.5-.1.1-.1.2-.2.3-.2.3-.4.5-.6.7-.1.1-.3.2-.4.2h-.8c-.2 0-.5-.1-.7-.3 0 0-.1 0-.1-.1-.1 0-.1-.1-.1-.1-.2-.2-.4-.3-.6-.5-.2-.2-.5-.5-.7-.8-.3-.5-.6-1-.7-1.6-.2-.6-.3-1.2-.4-1.8-.1-.8-.4-1.4-.9-2-.4-.5-.9-1-1.4-1.5l-.4-.4-.2.5c-.1.3-.2.6-.4 1-.1.1-.1.3-.2.4-.2.4-.4.9-.5 1.4-.2.6-.3 1.2-.3 1.7-.1.6 0 1.2.2 1.8.3 1.4 1 2.7 1.8 3.8 0 0 0 .1.1.1.4.4.7.9 1.1 1.3.4.4.8.8 1.3 1.1 0 0 .1 0 .1.1 1.3.9 2.7 1.4 4.2 1.5H72c.5 0 1-.1 1.5-.3 1.2-.5 2.1-1.2 2.8-2 .7-.9 1.2-1.9 1.5-3 .3-1 .5-2 .6-2.9.1-1 .1-2 .1-3-.1-2-.6-3.9-1.6-5.6-.3-.6-.7-1.3-1.1-1.9l-1.2-1.8c-.5-.8-1-1.5-1.5-2.3-.5-.8-.9-1.6-1.4-2.4-.1-.2-.2-.4-.3-.7-.1-.2-.1-.5-.1-.7 0-.6.2-1.1.4-1.6s.6-1 .9-1.4c.1-.1.2-.2.3-.2h.4c.1 0 .2.1.3.1.2.1.4.1.6.2.3.1.5.2.8.4.6.4 1 .8 1.4 1.3.4.5.7 1.1 1 1.8.1.1.1.3.1.5s.1.4.1.5c0 .5.3.8.8.8.3.1.5 0 .6-.1l.3-.3c.3-.4.4-.8.2-1.2-.1-.2-.2-.4-.3-.7-.1-.2-.2-.4-.3-.7-.2-.4-.3-.7-.5-1.1-.2-.4-.4-.7-.6-1.1-.6-.9-1.4-1.7-2.1-2.5-.4-.4-.8-.7-1.4-.9-.5-.3-1.1-.5-1.6-.6-.4-.1-.9-.1-1.3-.1H71c-.8.3-1.4.5-1.9.8zm3.3.2c.1 0 .3.1.4.1.4.1.7.2 1.1.4.5.2.9.5 1.2.8.7.7 1.4 1.5 2 2.4l.6.9c.2.4.3.7.5 1.1.1.2.2.4.3.7.1.2.2.4.3.7.1.2.1.3-.1.5 0 .1-.1.1-.2.1h-.1c-.1 0-.1 0-.1-.2s-.1-.4-.1-.6c0-.2-.1-.4-.2-.6-.3-.7-.7-1.4-1.1-2-.4-.6-1-1.1-1.6-1.5-.3-.2-.6-.3-1-.4l-.9-.3c-.2-.1-.5 0-.7 0 0 0-.1 0-.1.1-.2.1-.4.2-.6.4-.4.5-.8 1-1 1.6-.3.6-.4 1.2-.5 1.8 0 .3 0 .7.1 1 .1.3.2.6.3.8.4.9.9 1.7 1.4 2.5.5.8 1 1.6 1.6 2.3.4.6.8 1.1 1.2 1.7.4.6.7 1.2 1.1 1.8.9 1.6 1.4 3.4 1.5 5.3 0 1 0 2-.1 2.9-.1.9-.3 1.9-.6 2.8-.3 1.1-.7 2-1.3 2.8-.6.8-1.4 1.4-2.5 1.8-.4.2-.9.3-1.3.3h-1.4c-.6-.1-1.2-.2-1.7-.3-.8-.2-1.5-.6-2.2-1-.4-.3-.9-.7-1.2-1.1-.4-.4-.7-.8-1-1.1l-.1-.1c-.8-1.1-1.4-2.3-1.7-3.6-.1-.5-.2-1.1-.1-1.6s.2-1.1.3-1.6c.1-.4.3-.8.5-1.2v-.1c.1-.3.2-.6.4-.9.3.3.7.7.9 1 .4.4.6 1 .7 1.6.1.6.2 1.2.4 1.8.2.6.5 1.2.9 1.8.2.3.5.6.8.9 0 0 .1.1.2.1l.3.3c.1.1.3.2.4.3.3.2.6.4 1 .4.3.1.7.1 1 0 .3-.1.6-.2.8-.3.3-.2.5-.5.7-.8.2-.3.4-.6.5-.9 0-.1 0-.1.1-.2.3-1 .5-2.1.5-3.1s-.1-2.1-.4-3.1c-.2-.7-.4-1.3-.7-1.9-.3-.6-.6-1.1-1-1.7-.4-.6-.8-1.2-1.3-1.7-.4-.6-.8-1.2-1.1-1.8-.4-.7-.8-1.5-1.2-2.2-.4-.7-.6-1.5-.8-2.3-.1-.6-.2-1.2-.2-1.8 0-.6.2-1.2.4-1.8.2-.6.5-1.1.9-1.6s.8-.9 1.3-1.3l1-.6c.4-.3.9-.4 1.4-.5.2-.2.7-.1 1.2 0zM99.1 12.4h3.4c1.1 0 2.2 0 3.4-.1.7 0 1.5-.1 2.2-.2.7-.1 1.4-.2 2.2-.3.6-.1 1.1-.4 1.4-1l1.2-2.1c0-.1.1-.2.1-.3v-.2l.1-.4H112.5c-.1-.2-.3-.3-.5-.3-.6-.2-1.4-.3-2.1-.3h-2l-5.1-.3c-1.7-.1-3.4 0-5.1.1-.5 0-1.1.1-1.6 0h-1.7l-6.6.3c-.4 0-.8 0-1.2.1-.7 0-1.4.1-2.1.1-1.1.1-2.2.1-3.3.2-.4 0-.8.1-1.1.2-.4.1-.8.2-1.1.4-.4.1-.7.4-.8.7-.1.3-.1.6 0 .9.1.4.3.8.6 1.1.1.1.3.3.5.4.4.3.9.5 1.3.6.5.2 1 .2 1.6.1h.1c.1 0 .2.1.4 0 1.2 0 2.3.1 3.5.1 1.2 0 2.3.1 3.4.1.6 0 1.2.1 1.8.1h.2c.6 0 1.2 0 1.9.1l-.2.1c-.4 2.4-.5 4.9-.5 7.3.1 2 .1 3.9.2 5.9 0 1.1.1 2.1.2 3.2 0 .9.1 1.8.1 2.7l.2 4.4c0 .4 0 .7.1 1v4.2c.1 1 .2 2.1.3 3.2.1.6.2 1.2.4 1.8.1.6.4 1.2.7 1.8.3.5.6.9 1 1.3.1.1.1.2.2.2.5.5 1.1.7 1.9.9h.4c.3 0 .5-.1.8-.2.3-.2.6-.4.8-.8.2-.3.3-.6.3-.8 0-.3.1-.5.1-.8v-.6-.5c0-.5 0-1 .1-1.4V44v-3.4c0-1.1-.1-2.2-.1-3.3 0-1.6-.1-3.3-.2-4.9-.1-1.6-.1-3.2-.2-4.9 0-1.1-.1-2.3-.1-3.4-.1-1.1-.1-2.2-.1-3.4 0-1.3-.1-2.6-.2-3.9-.1-1.3-.2-2.6-.5-3.9-.2-.4-.2-.4-.1-.5-.1.1-.1 0 0 0-.1 0 0 0 0 0zm-.8.3c.2 1.3.4 2.5.4 3.8.1 1.3.1 2.6.2 3.9 0 1.1.1 2.3.1 3.4.1 1.1.1 2.2.1 3.4.1 1.6.1 3.3.2 4.9.1 1.6.1 3.3.2 4.9 0 1.1.1 2.2.1 3.3v4.8c0 .5-.1.9-.1 1.4 0 .2 0 .4-.1.6v.6c0 .3 0 .5-.1.7 0 .2-.1.4-.2.6-.2.3-.3.4-.5.5-.2.1-.4.1-.7.1-.5-.1-.9-.2-1.3-.5l-.2-.2c-.4-.4-.7-.8-1-1.4-.3-.5-.5-1.1-.6-1.6-.1-.6-.3-1.1-.4-1.7-.2-1-.3-2.1-.3-3.1 0-.9-.1-1.9 0-2.8V38v-1.1c0-.3 0-.7-.1-1l-.2-4.4c-.1-1-.1-2.1-.2-3.1 0-.9-.1-1.8-.1-2.7-.1-1.9-.2-3.9-.2-5.9-.1-2.4.1-4.8.5-7.1v-.4-.5h-.3c-.7 0-1.4-.1-2.1-.1h-.1c-.6 0-1.2 0-1.9-.1-1.1 0-2.3-.1-3.5-.1-1.2 0-2.3-.1-3.5-.1H82c-.1 0-.2 0-.3.1-.4.1-.8.1-1.2 0-.3-.1-.6-.2-.8-.4-.1-.1-.2-.1-.4-.2-.4-.2-.6-.6-.7-1-.1-.3-.1-.4 0-.5 0-.1.1-.2.3-.2.3-.1.7-.3 1-.4.3-.1.7-.2 1-.2 1.1-.1 2.2-.2 3.2-.2h.9c1.1-.4 1.8-.4 2.6-.4l6.6-.3h3.3c1.7-.1 3.4-.1 5.1-.1 1.7.1 3.4.1 5.1.3.6 0 1.3.1 2 0h.6c.5 0 1 .1 1.4.3.1 0 .2.1.2.1.1.1.2.2.3.2l-1.2 2c-.2.4-.5.6-.8.6-.7.1-1.5.2-2.2.3-.7.1-1.4.2-2.1.2-1.1 0-2.3.1-3.4.1H98.8c-.1 0-.2 0-.2.1l-.3.1v.8zm-4.8-.5zM132.1 47c-.2-.5-.3-1-.5-1.5s-.3-1-.4-1.5c-.2-.9-.5-1.8-.7-2.7l-.6-2.7-.9-4.5c-.2-1.5-.4-3-.6-4.6-.1-1.2-.1-2.5-.1-3.7 0-1.2.1-2.5.2-3.7 0-.5.1-1 .1-1.5s0-1.1-.1-1.6c0-.4-.2-.9-.5-1.3-.3-.5-.8-.8-1.4-.8-.4-.1-.7 0-1 .1-.1 0-.1.1-.2.1-.2.1-.4.4-.4.6-.2.5-.3 1-.5 1.5-.1.4-.3.8-.4 1.3h-.1c-1.1.2-2.2.4-3.2.7-1 .3-2.1.7-3.1 1.2s-2 1.1-2.9 1.7c-.9.6-1.7 1.4-2.5 2.1-1.4 1.3-2.5 2.8-3.3 4.4-.2.3-.3.6-.5 1s-.3.8-.4 1.2c-.2.7-.4 1.5-.6 2.2-.2 1-.4 2.1-.5 3.1-.1 1-.1 2.1.1 3.1.1.6.2 1.1.3 1.7.2.5.4 1.1.8 1.5.2.2.4.5.6.7.2.2.4.4.6.5.5.3 1 .5 1.6.6 1.2.1 2.5-.1 3.6-.7.7-.3 1.3-.8 1.9-1.3.5-.5 1-1.1 1.5-1.6.2-.3.4-.5.6-.8l.6-.9c.2-.4.5-.8.6-1.3l.6-1.2c.5-1 1-1.9 1.5-2.9 0-.1.1-.2.1-.2.5-.9.9-1.8 1.2-2.8.1-.1.1-.3.2-.4v.8l.3 3 .3 3c0 .4.1.8.1 1.1 0 .3.1.6.1.9.1.7.2 1.3.4 2 .3 1.1.6 2.2.9 3.2.2.7.5 1.4.9 2l.6.9v.1c.2.3.5.5.7.6.3.1.5.2.7.3.2.1.5.1.7.1H129.4c.2-.1.5-.1.8-.2l.6-.3c.2-.1.5-.3.7-.5.2-.2.4-.5.5-.7.1-.3.2-.6.1-1 .1-.1 0-.2 0-.4zm-.7 1.1c-.1.2-.2.3-.4.5-.1.1-.3.2-.5.3l-.6.3c-.2.1-.4.1-.6.2-.2 0-.3 0-.6-.1-.2 0-.3-.1-.5-.2-.1-.1-.2-.2-.4-.3l-.1-.1c-.6-.9-1.1-1.8-1.4-2.8-.3-1-.6-2.1-.9-3.1-.1-.6-.3-1.3-.4-1.9-.1-.6-.2-1.3-.3-2l-.3-3-.3-3v-.8c0-.3 0-.6-.1-.9l-.1-.8-.5.7c-.2.2-.4.5-.5.7-.2.2-.3.5-.4.7-.2.6-.4 1.1-.7 1.7-.2.4-.4.9-.6 1.3-.5 1-1 1.9-1.5 2.9-.2.4-.5.8-.6 1.3l-.6 1.2c-.2.3-.3.6-.5.8-.2.3-.4.5-.6.8-.5.6-.9 1.1-1.4 1.6-.5.5-1 .9-1.7 1.2-1 .5-2.1.7-3.2.6-.4 0-.8-.2-1.1-.4 0 0-.1 0-.1-.1-.4-.3-.7-.6-1-1-.3-.4-.5-.9-.7-1.3-.2-.5-.3-1-.3-1.5-.1-1-.2-2-.1-2.9.1-1 .2-2 .5-3 .2-.7.4-1.4.6-2.2.2-.6.4-1.1.7-1.7.1-.1.1-.2.2-.3.8-1.5 1.9-3 3.2-4.2.8-.7 1.6-1.4 2.5-2.1.8-.6 1.8-1.2 2.8-1.6 1-.5 2-.9 3-1.2 1-.3 2.1-.6 3.1-.7.1 0 .2 0 .3-.1h.3l.1-.3c.2-.5.3-1 .5-1.5.1-.5.3-1 .5-1.5 0-.1.1-.1.1-.2l.1-.1c.1-.1.3-.1.6 0 .4 0 .7.2.9.5.2.3.4.7.4 1 .1.5.1.9.1 1.4 0 .5-.1 1-.1 1.5-.1 1.3-.1 2.5-.2 3.7 0 1.3 0 2.5.1 3.8.1 1.6.3 3.1.6 4.7.2 1.5.5 3.1.9 4.6l.6 2.7c.2.9.5 1.8.7 2.7.1.5.3 1 .4 1.5.2.5.3 1 .5 1.5 0 .1.1.2.1.4-.4-.1-.4 0-.5.1z"/><path d="M118.1 26.4c-.6.4-1.1.9-1.6 1.3-.5.5-.9 1.1-1.3 1.7-.1.3-.3.5-.4.8-.1.3-.3.6-.4.8-.2.4-.3.9-.5 1.4-.2.5-.3.9-.4 1.4-.1.4-.2.9-.2 1.3l-.1 1.2c-.1.7-.1 1.4-.1 2.1 0 .7.1 1.4.2 2v.1c0 .2.1.5.2.8.1.3.2.6.4.8l.1.1h.5c.2-.1.3-.1.4-.2.3-.2.5-.3.8-.5.9-.7 1.6-1.5 2.1-2.5.2-.4.4-.7.5-1.1.2-.4.3-.7.5-1.1.4-.7.7-1.3 1.1-1.9.4-.7.8-1.4 1-2.1.2-.5.4-1 .7-1.5 0 0 0-.1.1-.1.3-.6.5-1.1.8-1.7l.9-2.2c.3-.7.6-1.5.8-2.2.1-.2.1-.5.2-.7.1-.3 0-.6 0-.9l-.1-.3-.3.1c-.3 0-.5.1-.7.2l-.6.3c-.3.1-.6.3-.9.5-.5.2-.9.5-1.4.8-.9.3-1.7.7-2.3 1.3zm3.2-1.2c.5-.3 1-.6 1.5-.8.2-.1.4-.2.5-.2.1 0 .1 0 .2-.1v.2c0 .2-.1.4-.2.7-.2.7-.5 1.4-.7 2.2l-.9 2.2c-.2.5-.5 1.1-.8 1.6-.3.6-.5 1.1-.7 1.7-.1.3-.2.5-.3.7-.2.4-.4.9-.7 1.3-.4.6-.8 1.3-1.2 2-.2.4-.4.7-.5 1.1-.2.4-.3.7-.5 1.1-.6 1.2-1.5 2.1-2.6 2.8h-.1c-.1-.1-.1-.2-.2-.4s-.1-.5-.2-.7c0-.2-.1-.4-.1-.6-.1-.5-.1-1-.1-1.4 0-.7 0-1.4.1-2.1l.1-1.3c0-.4.1-.8.2-1.2.1-.4.2-.9.4-1.3.2-.5.3-.9.5-1.3.1-.3.2-.5.3-.8.1-.3.3-.5.4-.8.3-.6.6-1.1 1.1-1.5.5-.4 1-.9 1.5-1.3.7-.5 1.4-1 2.1-1.4.4-.2.6-.3.9-.4zM142.3 43.2c-.4-.3-.9-.3-1.3 0l-.6.6-.4.4v-.4-.3-.5-.6-1.5-1.5l-.1-1.9v-1.9-2.7-2.7l.1-3.2c0-1 .1-2 .1-2.9 0-1.5.1-2.9.1-4.4v-4.4-3c0-1-.1-2-.1-3 0-1.1-.1-2.1-.3-3.1-.2-1-.5-2.1-1-3.1-.3-.5-.6-.8-1-1.1-.4-.3-.9-.4-1.5-.4-.2 0-.5 0-.7.1 0 0-.1 0-.1.1-.2.1-.4.2-.5.4-.3.4-.5.8-.6 1.3-.2.6-.4 1.2-.5 1.8-.1.6-.1 1.2-.1 1.8 0 1.3-.1 2.5-.1 3.7-.1 1.2-.1 2.5-.1 3.7 0 1.5-.1 3 0 4.4v4.4l-.1 4.7v4.7c0 1.1 0 2.3.1 3.4s.1 2.2.1 3.4c0 .3 0 .7.1 1 0 .9.1 1.8.2 2.7.1 1.2.3 2.5.5 3.7.1.5.3 1 .5 1.4.1.2.2.3.2.5.2.3.3.6.5.8l.1.1h.1c.4.1.8.2 1.2.2h.5c.5 0 1-.2 1.6-.5.6-.3 1.1-.8 1.6-1.5.4-.6.7-1.2 1-1.8.3-.6.6-1.2.9-1.9 0-.2.1-.3.1-.5-.1.1-.1-.2-.5-.5zm-.5 1c-.2.6-.5 1.2-.8 1.8-.3.6-.7 1.2-1 1.7-.4.6-.8 1-1.3 1.2-.5.2-.9.4-1.3.4-.4.1-.9 0-1.3-.1-.1-.1-.2-.3-.3-.4l-.3-.6c-.2-.4-.3-.8-.4-1.3-.2-1.2-.4-2.4-.5-3.6-.1-1-.1-2.1-.2-3.1v-.5c0-1.1-.1-2.3-.1-3.4-.1-1.1-.1-2.2-.1-3.4v-4.7l.1-4.7v-4.4-4.4c0-1.2.1-2.5.1-3.7.1-1.2.1-2.5.1-3.8 0-.6.1-1.2.1-1.8.1-.6.2-1.1.4-1.7.1-.4.3-.8.6-1.1.1-.1.1-.2.2-.2h.4c.4 0 .7.1 1 .3.3.2.6.5.8.9.5.9.8 1.9.9 2.8.2 1 .3 2 .3 3.1 0 1 .1 2 .1 2.9v7.4c0 1.4 0 2.9-.1 4.4 0 1 0 1.9-.1 2.9L139 30v7.5l.1 1.9v6.9l.7-.8c.1-.1.2-.2.2-.3.1-.1.1-.2.2-.2l.6-.6.5-.5c.1-.1.2-.1.5 0 .1 0 .1.2 0 .3zM177 38.6c-.2-.5-.5-1-.8-1.3l-.3-.3c-.2-.2-.5-.4-.7-.6-.3-.2-.5-.4-.8-.6-.7-.4-1.3-.9-2-1.3s-1.3-.9-2-1.3l-2.7-1.8c-.9-.6-1.8-1.2-2.8-1.8-1.1-.7-2.1-1.3-3.2-2l-3.1-1.9c.1 0 .2-.1.3-.1l.9-.3c1.1-.4 2.3-.9 3.4-1.3 1.2-.4 2.3-.9 3.4-1.3.5-.2 1-.4 1.5-.5.5-.2 1-.4 1.5-.7.4-.2.7-.5 1-.7.3-.3.6-.7.7-1.2l.1-.2-.1-.2c-.5-.6-1.2-.8-2-.6-.2 0-.3.1-.5.1-.8.2-1.6.5-2.4.7-1 .3-1.9.6-2.9.9-1.3.4-2.7.8-3.9 1.2-1.3.4-2.6.8-3.9 1.1l-1.2.3c-.3 0-.7.1-1 .2v-.2l-.1-.5v-.1c-.2-1.6-.5-3.1-.7-4.6-.2-1.6-.5-3.1-.7-4.7-.2-1.1-.4-2.2-.6-3.2-.2-1.1-.5-2.1-.9-3.2-.2-.7-.5-1.4-.8-2-.3-.7-.8-1.3-1.4-1.9-.7-.6-1.5-.9-2.4-1-.2 0-.4 0-.6.1-.5.2-.9.6-1 1.3-.1.8-.2 1.6-.2 2.5 0 .8.1 1.6.2 2.4.1 1 .2 2 .4 3l.4 3c.2 1.4.3 2.9.5 4.3s.4 2.9.6 4.3c.1 1.1.3 2.1.4 3.2.1.8.2 1.7.4 2.5.2 1.6.5 3.2.7 4.8.1.6.2 1.1.3 1.7.2 1 .3 2.1.5 3.1.2 1.1.3 2.1.4 3.1.1 1.1.3 2.1.4 3.2.1.9.3 1.8.5 2.6.2.7.5 1.5.9 2.1.1.1.1.2.2.4l.2.3.3.3.1.1h.1c.3.1.7.1 1 .1.4 0 .8 0 1.1-.1.6-.1 1.2-.4 1.7-.8.6-.4 1-1.1 1.2-2.1v-.2c0-.8-.1-1.5-.1-2.3 0-.8-.1-1.6-.2-2.4-.3-2-.5-3.9-.8-5.8-.3-1.9-.6-3.9-.9-5.8l-.2-1.3c0-.2-.1-.5-.1-.7v-.2h.1c.2.1.3.2.5.3.9.5 1.7 1.1 2.6 1.6.6.4 1.1.7 1.7 1.1 1.4.9 2.9 1.8 4.3 2.7 1.4.8 2.7 1.7 4.1 2.5 1.4.8 2.7 1.6 4.1 2.5.4.2.8.4 1.2.7.1.1.2.1.4.2.5.3 1 .5 1.5.8h.1c.5.1.9.1 1.2 0 .3-.1.6-.3.9-.6.2-.3.3-.6.3-1.1-.3 0-.3-.2-.3-.5zm-.8 1.3c-.1.2-.3.3-.5.4-.2.1-.5.1-.8 0-.3-.2-.6-.3-1-.5l-.6-.3c-.5-.3-1-.5-1.5-.8-1.4-.8-2.7-1.6-4.1-2.4-1.4-.8-2.7-1.7-4.1-2.5-1.4-.9-2.9-1.8-4.3-2.7-.4-.3-.9-.6-1.3-.8-1-.6-2-1.3-3-1.9-.2-.1-.4-.2-.5-.3-.3-.1-.6-.2-.9-.1l-.4.1.1.4c.1.5.2.9.2 1.4l.2 1.3c.3 2 .6 3.9.9 5.8.3 1.9.5 3.9.8 5.8.1.7.2 1.5.2 2.3 0 .8 0 1.5.1 2.3-.2.8-.5 1.3-1 1.6-.5.3-.9.6-1.4.7-.6.1-1.2.1-1.8 0l-.1-.1-.2-.3v-.1c-.4-.7-.7-1.5-.9-2.2-.2-.8-.4-1.7-.5-2.6-.2-1.1-.3-2.1-.4-3.2-.1-1-.3-2.1-.4-3.2-.2-1.1-.3-2.2-.5-3.3-.1-.5-.1-1-.2-1.5-.2-1.6-.5-3.2-.7-4.8-.1-1-.3-1.9-.4-2.9-.1-.9-.2-1.9-.4-2.8-.2-1.4-.4-2.9-.6-4.3-.2-1.4-.4-2.9-.5-4.3l-.4-3-.3-3c-.1-.8-.1-1.6-.2-2.4 0-.8 0-1.5.2-2.3.1-.6.4-.8.9-.8h.3c.7.1 1.2.3 1.7.8s.9 1 1.2 1.6c.3.6.6 1.3.8 2 .4 1 .6 2.1.8 3.1.2 1 .4 2.1.6 3.2.3 1.6.5 3.2.7 4.7.2 1.6.5 3.1.7 4.7l.1.5c0 .2.1.4.1.6l.1.4V24c.5-.1.9-.2 1.4-.2.4-.1.9-.2 1.3-.3 1.3-.4 2.7-.7 4-1.1l3.9-1.2c1-.3 1.9-.6 2.9-.9.5-.2 1.1-.3 1.6-.5.4-.1.8-.3 1.3-.4.4-.1.8-.1 1.1.2-.1.3-.3.5-.5.7-.3.2-.6.5-.9.6-.4.2-.9.4-1.4.6-.5.2-.9.4-1.4.5-1.1.4-2.3.9-3.4 1.3-1.2.4-2.3.9-3.5 1.3-.3.1-.5.2-.8.3l-.9.3-.6.2.4.4c.2.2.4.3.5.4l3.2 1.9c1 .6 2.1 1.3 3.2 2 1 .6 1.9 1.2 2.8 1.8l2.8 1.8c.7.4 1.3.9 2 1.3s1.3.9 2 1.3c.3.2.5.3.7.5.2.2.5.4.7.6.4.3.7.8.9 1.3.1.8-.1 1.1-.1 1.2zM187.2 8c-.3-.6-.8-1-1.5-1.3-.6-.2-1.2-.2-1.6 0-.3.2-.6.4-.8.8-.5 1-1 1.9-1.4 2.9-.2.4-.3.8-.5 1.3-.3.9-.7 1.9-.9 2.8-.3 1.3-.7 2.7-1 4.1-.2.7-.3 1.5-.4 2.2-.1.7-.2 1.5-.3 2.2l-.3 2.1-.3 2.1c-.1.7-.1 1.4-.2 2 0 .6-.1 1.3-.2 2-.1.6-.1 1.3-.1 1.9v1.1c0 1 .1 2 .2 3.1.1.6.3 1.2.5 1.7v.1c.2.5.6 1 1 1.5l.2.2.2-.1c.3-.1.5-.2.7-.3.2-.1.4-.2.5-.4.1-.1.2-.3.3-.5.1-.2.1-.4.2-.7l.3-1.8 1-6c.1-.7.2-1.3.3-2 .1-.7.2-1.4.3-2 .2-1.4.3-2.8.5-4.3.2-1.4.5-2.8.8-4.2.2-.7.4-1.5.5-2.2l.6-2.1c.2-.7.4-1.5.6-2.3.1-.7.4-1.4.7-2.1.4-.5.4-1.1.1-1.8zm-.7 1.6c-.4.7-.6 1.5-.8 2.3-.1.7-.3 1.5-.6 2.2-.2.7-.4 1.5-.6 2.2-.2.7-.3 1.5-.5 2.2-.4 1.4-.6 2.8-.8 4.3-.2 1.4-.4 2.8-.5 4.3-.1.7-.2 1.3-.3 2-.1.7-.2 1.3-.3 2l-.7 4.2-.4 1.7c-.1.6-.2 1.2-.3 1.7-.1.2-.1.4-.2.6 0 .1-.1.2-.2.3-.1.1-.2.1-.3.2-.1.1-.3.1-.4.2-.3-.4-.6-.7-.7-1.1-.1-.2-.1-.3-.2-.5-.1-.3-.2-.7-.3-1-.1-.9-.2-1.8-.2-2.7v-.2c0-1 .1-2 .2-3 .1-.7.2-1.4.2-2 0-.7.1-1.3.2-2l.3-2.1.3-2.1c.1-.7.2-1.5.3-2.2.1-.7.3-1.5.4-2.2.3-1.4.6-2.8 1-4.1.2-.9.5-1.8.9-2.7.2-.4.3-.8.5-1.2.4-.9.9-1.8 1.4-2.8.2-.3.4-.5.7-.6h.3c.2 0 .4 0 .6.1.5.2.9.5 1.1 1 .2.2.2.6-.1 1zM181.5 47.1c-.3-.2-.6-.3-1-.2-.3 0-.7.1-1 .1h-.1c-.3.1-.7.1-1 .2-.2 0-.4.1-.5.3-.1.1-.2.3-.3.5-.1.4-.1.8 0 1.1 0 .2.1.3.2.4.3.4.8.6 1.5.7h2.3l.1-.2c.1-.1.2-.3.2-.3.1-.1.2-.2.2-.3.4-.8.2-1.3-.1-1.7 0-.2-.2-.4-.5-.6zm.1 1.9c-.1.1-.1.2-.2.2-.1.1-.1.1-.2.3h-1.9c-.4 0-.7-.1-.9-.4-.2-.2-.2-.5-.1-.8 0-.1.1-.1.1-.2l.1-.1c.3-.1.6-.2.9-.2h.3c.2 0 .5-.1.7-.1h.1c.1 0 .3 0 .4.1.2.1.3.3.5.5.3 0 .4.3.2.7z"/></g></svg>