<svg xmlns="http://www.w3.org/2000/svg" viewBox="0 0 188.1 134.7"><style>.st0{fill:#fff}.st155{fill:#f270ab}.st158{fill:#a09f9f}</style><g id="Layer_1"><path d="M39.7 41.8c1.4.8 23.3 27 60 15.2s108.5 22 67 41.7-49.4 31-66.2 15S58.2 89 36.6 99.6-35.3-.8 39.7 41.8z" fill="#c6eefc"/><path class="st155" d="M123 90.6s4.2-1.1 3.5-3.9c-.7-2.8-5.6-5.5.7-8s14.7-5.3 8.5-9.8c-6.2-4.5-18-13-7.5-14.9 10.5-1.9-12.7-12.7-12.7-12.7s-24.8-12.6-9.1-21.4 24.1-7.4 33.5-4.4c9.4 3 37 11.3 30 20.4-7.1 9.1-14.3 15-27 18.4-12.7 3.4-.5 9.3.7 11.6 1.2 2.3 2.6 10.6-12.6 15.5 0 0-4.1.9-2.8 4.7 1.4 3.7-5.2 4.5-5.2 4.5z"/><ellipse class="st155" cx="138.1" cy="29.4" rx="50.1" ry="29.4"/><path class="st0" d="M120.9 26.3h-10.2l2.8-16.1h4l-2.2 12.6h6.2l-.6 3.5zM127.2 26.6c-3.1 0-4.7-1.1-4.7-3.2 0-.3 0-.6.1-1l.5-2.8c.3-1.4.9-2.5 2-3.3 1.1-.8 2.5-1.2 4.2-1.2 3 0 4.5 1.1 4.5 3.4 0 .3 0 .7-.1 1.1l-.3 1.6h-6.8l-.1.5v.5c0 .8.5 1.2 1.5 1.2.4 0 .7-.1.9-.3.3-.2.4-.5.4-.8h3.7c-.4 2.9-2.4 4.3-5.8 4.3zm2.7-6.7c.1-.3.1-.5.1-.7 0-.2-.1-.4-.3-.7-.2-.2-.5-.3-.9-.3s-.8.1-1.2.4-.6.7-.7 1.3h3zM139.9 26.6c-1.7 0-3-.4-3.7-1.2-.6-.6-.9-1.3-.9-2.3 0-.3 0-.6.1-1l1.5-8.7 4.1-1.7-.6 3.7h6.2l-.6 3.2h-6.2l-.4 2.5c-.1.3-.1.5-.1.8 0 .9.4 1.4 1.3 1.4.5 0 .9-.2 1.2-.6.3-.4.5-.9.7-1.6h3.7c-.7 3.7-2.8 5.5-6.3 5.5zM149.9 11c0-1 .2-1.7.6-2.1.4-.4 1.1-.7 2-.7 1.4 0 2 .7 2 2 0 4.4-2.1 6.6-6.2 6.6l.3-1.6c.5 0 1.2-.2 1.9-.7.7-.5 1.1-1.1 1.3-1.9-1.3 0-1.9-.5-1.9-1.6zM165.3 17.8c0 .5-.1.9-.4 1.4h-3.7c.1-.1.2-.2.2-.4s-.1-.4-.4-.5c-.2-.1-.5-.2-.9-.2-1.1 0-1.7.3-1.7 1 0 .3.2.5.6.6s.9.2 1.5.3l1.8.3c.6.1 1.1.4 1.5.8.4.4.6 1 .6 1.7 0 1.2-.5 2.2-1.5 2.8-1 .6-2.4 1-4.3 1s-3.2-.3-4-.9c-.6-.5-.9-1.1-.9-2 0-.2 0-.5.1-.7h3.7c0 .2.1.4.4.5.3.2.7.2 1.2.2s.9-.1 1.2-.2c.2-.1.4-.3.4-.6 0-.2-.2-.4-.6-.4-.4-.1-.9-.2-1.5-.2l-1.8-.3c-.6-.1-1.1-.4-1.5-.9s-.6-1-.6-1.7c0-1.4.5-2.4 1.6-3.1 1.1-.7 2.6-1.1 4.6-1.1 2.8 0 4.4.8 4.4 2.6zM127.6 32.1h-5.5l-2.2 12.6h-4.1l2.2-12.6h-5.5l.6-3.5h15.1l-.6 3.5zM135.2 41.3c0 .4.2.6.6.6.4 0 .7-.1 1-.2l-.1 2.5c-.7.6-1.5.9-2.4.9-1.6 0-2.6-.6-2.7-1.8-.7 1.2-1.8 1.8-3.3 1.8-2.4 0-3.7-1.1-3.7-3.2 0-.4 0-.8.1-1.2l.5-2.6c.2-1.3.8-2.4 1.6-3.2.9-.8 2-1.2 3.4-1.2s2.3.3 2.8 1l.1-.7h3.4l-1.3 7v.3zm-6.6-1.1v.6c0 .2.1.5.3.7.2.2.6.3 1.1.3.5 0 1-.2 1.4-.6l.7-3.8c-.2-.4-.6-.6-1.2-.6-1.1 0-1.8.6-2 1.7l-.3 1.7zM142.3 41.3c0 .4.2.6.6.6.4 0 .7-.1 1-.2l-.1 2.5c-.7.6-1.5.9-2.4.9-1.4 0-2.2-.3-2.6-.9-.3-.4-.4-.8-.4-1.3s0-.9.1-1.3l2.4-13.8h3.8L142.3 41v.3zM156 41.8c.3 0 .6-.1.9-.2l-.1 2.5c-.7.6-1.6.9-2.6.9s-1.8-.3-2.2-.8c-.5-.5-.9-1.4-1.1-2.7l-.1-.3c-.3 0-.8.1-1.4.1l-.6 3.4H145l3-17h3.8l-1.3 7.4c.9-1 2.1-1.5 3.6-1.5 1 0 1.8.2 2.2.8.5.5.7 1.2.7 2 0 1.6-.8 2.9-2.5 3.8l.2.8c.2.6.6.8 1.3.8zm-3.9-5.1c-.8 0-1.5.4-2.1 1.1l-.2 1.5c2.2-.1 3.3-.7 3.3-1.8 0-.3-.1-.5-.2-.6-.2-.2-.5-.2-.8-.2zM158.5 43.4c0-1 .2-1.7.6-2.1.4-.4 1.1-.7 2-.7 1.3 0 1.9.6 1.9 1.7 0 .9-.2 1.6-.6 2.1-.4.4-1.1.6-2 .6-1.3 0-1.9-.5-1.9-1.6zm4.4-4.6h-3l1.6-11.8h3.8l-2.4 11.8z"/><g><path d="M108.8 108.2s.1 0 0 0c.1 0 .1 0 0 0 .1 0 .1 0 0 0z" fill="none"/><path class="st155" d="M91 60.5c-3.9 1.6-6.4 9.6-8.5 22.7 17.3-5.9 14.6-24.7 13.4-30-.6 3.4-3 6.5-4.9 7.3z"/><path d="M86.5 93c-1.9-1-3.5-3-4.7-5.1-.3 1.8-.5 3.6-.8 5.6-2.6 19.1-7.2 7.7-16.3 7.8-9.1.1-5.7 15.9-9.4 25.8-.7 1.9-1.8 3.4-3.2 4.6 5.1 0 17.4.1 27.8 0 .3-.4 6.2-9.7 5.1-19.7 0 0 2.9 14.9.1 19.5l-4.8.2c8.6 0 15.9-.2 16.8-.4 2.5-.7 0 0 2.6-13.2.2-.9.3-1.9.3-2.8l-.5-6c-2-8.6-9.2-14.4-13-16.3z" fill="#5847ba"/><path d="M55.2 127c3.8-9.9.3-25.6 9.4-25.8 9.1-.1 13.7 11.3 16.3-7.8.3-1.9.5-3.8.8-5.6.2-1.6.5-3.1.7-4.6C84.6 70.1 87 62.1 91 60.5c1.9-.8 4.4-3.9 4.9-7.3.8-5.2-2.8-10.8-19.8-8.8 0 0-9.5 0-14.1 6s5.2 12.3-9.4 19.3c-14.6 7-30-.6-31.6 15.6-1.6 16.2 13.9 25.4 5.5 28.3-8.4 2.9-22.7 13.8-5.1 18.1 14.1 3.5 25 4.8 30.6-.1 1.4-1.2 2.4-2.7 3.2-4.6z" fill="#312b6d"/><path class="st0" d="M123.6 95.8l-6.6-3.3c-1.1-.6-2.5-.1-3.1 1l-4.5 9.1c.5 0 1 0 1.4-.1l.8-1.6 7.5 3.7-.8 1.7-6-3c-.2.4-.5.8-.7.9-.7.4-3.9 2.5-4.4 1.8-.4-.7-1.5 2.1.9 2.5l.8-.4h.1c.3 0 .6 1.7.9 1.7 1.4-.1 5.2 2.8 7.3 2.3 3-.7 4.2-6.7 5.1-8.5l2.4-4.9c.5-1 .1-2.4-1.1-2.9zm-7.3 5.4l-3.8-1.9.8-1.7 3.8 1.9-.8 1.7zm6.6-1.6l-8.5-4.2.8-1.7 8.5 4.2-.8 1.7z"/><path transform="rotate(-63.557 119.129 96.599)" class="st158" d="M118.2 91.9h1.9v9.5h-1.9z"/><path class="st158" d="M112.3 103.4l6 3 .8-1.7-7.5-3.7-.8 1.6c.7-.1.5-.1.8-.4.7-.8 1.1.3.7 1.2z"/><path transform="rotate(-63.563 114.815 99.443)" fill="#55cbff" d="M113.9 97.3h1.9v4.3h-1.9z"/><path class="st155" d="M117.9 110.7c-.5.7-1.3.9-2.1.6-2.5-1.1-8-3.5-8.2-3.7-1-.8-.8-2.1-.4-1.6.6.7 4.9-1.1 5.3-2.7.2-1-.2-2.2-.8-1.5-.3.3-.1.5-1.1.6-.4.1-.7.2-1.1.2-.8 0-1.5-.1-2.1-.1-.4 0-.8.1-1.2.4l-6.7 5.9v.4l.5 6v.1c1.3-1.8 7.8-2.9 7.8-2.9 8.6 5.2 12.2-1 13.6-5.3.6-1.9.8-3.4.8-3.4-1 2.1-3.1 5.3-4.3 7z"/><path d="M85 111.9c1.1 10-4.9 19.3-5.1 19.7h.5l4.8-.2c2.7-4.6-.2-19.5-.2-19.5z" fill="#2a2277"/></g></g></svg>