<svg version="1.1" id="Layer_1" xmlns="http://www.w3.org/2000/svg" x="0" y="0" viewBox="0 0 307.508 163.189" xml:space="preserve"><style>.st0{fill:none}.st1{fill:#0c0c0c}.st2{fill:#ec1c24}.st3{fill:#fff}</style><path class="st0" d="M272.59 81.595c0-4.47-3.637-8.108-8.108-8.108s-8.107 3.637-8.107 8.108c0 4.47 3.637 8.107 8.107 8.107s8.108-3.637 8.108-8.107z"/><path class="st1" d="M281.327 39.685L242.269 9.233a9.355 9.355 0 00-5.726-1.955H16.408c-5.034 0-9.13 3.966-9.13 8.839v130.955c0 4.873 4.096 8.839 9.13 8.839h220.135a9.355 9.355 0 005.726-1.955l39.058-30.452c2.163-1.687 3.403-4.195 3.403-6.884V46.57c0-2.688-1.24-5.197-3.403-6.884zm-16.845 53.136c-6.19 0-11.226-5.036-11.226-11.226 0-6.19 5.036-11.227 11.226-11.227s11.227 5.036 11.227 11.227c0 6.19-5.036 11.226-11.227 11.226z"/><path class="st2" d="M16.408 155.91h220.135a9.355 9.355 0 005.726-1.954l39.058-30.452c2.163-1.687 3.403-4.195 3.403-6.884V97.026H7.278v50.046c0 4.873 4.096 8.839 9.13 8.839z"/><path class="st1" d="M236.543 4.16c2.766 0 5.482.927 7.644 2.614l39.058 30.452c2.926 2.281 4.604 5.687 4.604 9.343v70.051c0 3.657-1.678 7.063-4.605 9.344l-39.057 30.451a12.483 12.483 0 01-7.644 2.615H16.408c-6.754 0-12.249-5.364-12.249-11.958V16.117c0-6.593 5.495-11.958 12.249-11.958h220.135m0-4.159H16.408C7.36 0 0 7.23 0 16.117v130.955c0 8.887 7.36 16.117 16.408 16.117h220.135c3.69 0 7.313-1.24 10.202-3.494l39.056-30.45c3.945-3.076 6.208-7.677 6.208-12.625V46.57c0-4.947-2.263-9.548-6.207-12.623L246.745 3.494A16.661 16.661 0 00236.543 0z"/><path class="st1" d="M187.43 70.735v-.131l-.034.007c.01.042.026.081.035.124z"/><path class="st0" d="M187.43 70.735v-.131l-.034.007c.01.042.026.081.035.124zM264.482 89.702c4.47 0 8.108-3.637 8.108-8.107 0-4.47-3.637-8.108-8.108-8.108s-8.107 3.637-8.107 8.108c0 4.47 3.637 8.107 8.107 8.107z"/><path class="st3" d="M28.118 78.098c-1.245 0-1.566-.401-1.566-1.687V34.247c0-1.285.321-1.646 1.606-1.646h4.217c.843 0 1.566.28 2.168.883.603.603.924 1.366.924 2.208V70.67h4.216c2.41 0 3.735 1.607 3.735 4.458v1.325c0 1.084-.562 1.646-1.687 1.646H28.118zM50.259 78.098c-1.285 0-1.647-.361-1.647-1.606V34.247c0-.844.16-1.285.643-1.485.441-.161 1.285-.161 2.41-.161h12.407c1.085 0 1.727.562 1.727 1.646v1.325c0 2.851-1.365 4.458-3.815 4.458h-4.457v11.966h5.18c1.084 0 1.727.563 1.727 1.647v1.365c0 2.892-1.406 4.417-3.976 4.417h-2.93V70.67h4.456c2.53 0 3.815 1.566 3.815 4.458v1.325c0 1.084-.642 1.646-1.727 1.646H50.26zM86.068 76.411c0 1.286-.442 1.687-1.686 1.687h-5.583c-1.244 0-1.646-.401-1.646-1.687V40.03h-2.369c-2.53 0-3.855-1.566-3.855-4.458v-1.325c0-1.084.723-1.646 1.727-1.646h17.588c1.004 0 1.727.562 1.727 1.646v1.325c0 2.851-1.405 4.458-3.855 4.458h-2.048V76.41zM96.262 25.493c0-1.045.481-1.566 1.446-1.566h3.131c1.326 0 2.129.281 2.49.843.16.281.241.642.241 1.084 0 .523-.04 1.005-.16 1.446l-.964 6.184c-.482 2.129-1.044 2.77-2.931 2.77h-2.089c-1.003 0-1.164-.2-1.164-1.284v-9.477zM108.628 76.371c-1.927-1.646-2.972-3.935-2.972-6.465v-6.304c0-.964.523-1.446 1.527-1.446h4.537c.683 0 1.326.201 1.928.562.602.402.924.924.924 1.566v5.22c0 .964.923 1.848 2.048 1.848 1.244 0 2.128-.884 2.128-1.847 0-2.731-.683-5.14-2.048-7.27-.924-1.445-1.888-2.489-3.654-4.296l-.844-.883c-1.967-2.088-3.373-3.815-4.497-6.104-1.366-2.77-2.049-6.144-2.049-10.12 0-2.529 1.045-4.859 2.972-6.505 1.928-1.726 4.659-2.69 7.83-2.69 3.254 0 6.065.964 8.113 2.69 1.927 1.646 3.051 3.976 3.051 6.505v7.028c0 1.004-.522 1.486-1.526 1.486h-4.537c-1.446 0-2.811-.843-2.811-2.169v-5.942c0-.964-.964-1.888-2.128-1.888-1.165 0-2.048.964-2.048 1.807 0 2.851.682 5.301 2.048 7.268a17.555 17.555 0 002.088 2.49c2.128 2.048 3.734 3.694 4.778 4.939 1.687 2.048 2.892 4.699 3.574 7.91.362 1.808.562 3.856.562 6.145 0 2.53-1.044 4.82-2.931 6.465-1.968 1.727-4.819 2.69-8.071 2.69-3.253 0-6.064-.963-7.992-2.69zM161.917 34.447c1.887 1.648 2.931 3.936 2.931 6.385v10.923c0 1.004-.522 1.486-1.526 1.486h-4.538c-1.445 0-2.81-.843-2.81-2.168v-9.838c0-.964-.924-1.848-2.169-1.848-1.124 0-2.048.884-2.048 1.848v28.27c0 .963.883 1.847 2.048 1.847 1.285 0 2.128-.924 2.128-1.847v-9.478c0-1.325 1.366-2.168 2.811-2.168h4.538c1.044 0 1.566.482 1.566 1.446v10.601c0 2.53-1.124 4.82-3.092 6.465-2.048 1.727-4.86 2.69-8.112 2.69-3.172 0-5.903-.963-7.83-2.69-1.928-1.646-2.972-3.935-2.972-6.465V40.832c0-2.529 1.125-4.818 3.052-6.464 1.968-1.728 4.859-2.691 8.112-2.691 3.172.04 5.943 1.044 7.91 2.77zM193.147 76.452c0 1.285-.32 1.686-1.606 1.686h-4.257c-.763 0-1.485-.321-2.088-.923-.642-.643-.963-1.366-.963-2.129V58.983h-3.815v16.063c0 .844-.322 1.526-.964 2.128-.683.603-1.365.924-2.128.924h-4.217c-1.285 0-1.606-.362-1.606-1.646V34.247c0-1.285.321-1.646 1.606-1.646h4.217c.843 0 1.566.28 2.168.883.602.603.924 1.366.924 2.208v16.063h3.815V35.652c0-.802.32-1.525.963-2.168.603-.602 1.285-.883 2.088-.883h4.217c1.285 0 1.646.361 1.646 1.646v42.205zM220.125 76.532c.04.16.04.361.04.602 0 .763-.321.964-1.446.964h-4.297c-.763 0-1.485-.281-2.168-.883-.683-.603-1.044-1.366-1.044-2.208l-.2-3.936h-2.772l-.16 3.936c-.04.922-.362 1.646-1.044 2.208-.683.602-1.406.883-2.169.883h-4.297c-1.124 0-1.485-.241-1.485-1.044 0-.2 0-.401.04-.522l4.377-42.205c.12-1.245.602-1.726 1.847-1.726h8.553c1.285 0 1.768.481 1.888 1.726l4.337 42.205zm-10.562-35.297l-1.044 23.491h2.21l-1.045-23.532-.12.04zM238.121 76.411c0 1.286-.441 1.687-1.686 1.687h-5.582c-1.245 0-1.646-.401-1.646-1.687V40.03h-2.37c-2.53 0-3.855-1.566-3.855-4.458v-1.325c0-1.084.723-1.646 1.727-1.646h17.589c1.003 0 1.726.562 1.726 1.646v1.325c0 2.851-1.405 4.458-3.855 4.458h-2.048V76.41z"/><g><path d="M264.482 70.368c-6.19 0-11.226 5.036-11.226 11.227 0 6.19 5.036 11.226 11.226 11.226s11.227-5.036 11.227-11.226c0-6.19-5.036-11.227-11.227-11.227zm-8.107 11.227c0-4.47 3.637-8.108 8.107-8.108s8.108 3.637 8.108 8.108c0 4.47-3.637 8.107-8.108 8.107s-8.107-3.637-8.107-8.107z" fill="#fff8f8"/></g><g><path class="st3" d="M61.542 119.512c0 2.419-1.292 3.377-2.754 3.832v.096c1.701.383 3.138 1.485 3.138 4.096 0 2.42-2.036 4.384-4.552 4.384h-9.15v-16.433h9.007c2.396 0 4.311 1.796 4.311 4.025zm-4.742.741c0-.957-.528-1.269-1.198-1.269h-2.755v2.802h2.755c.91 0 1.198-.741 1.198-1.533zm.287 6.301c0-.958-.527-1.27-1.197-1.27h-3.043v2.827h3.043c.91 0 1.197-.743 1.197-1.557zM69.013 115.487v12.408h5.964l.479 4.025H63.933v-16.433h5.08zM86.496 128.997h-5.223l-.958 2.923h-4.839l5.486-16.433h6.252L92.7 131.92h-5.222l-.982-2.923zm-2.539-8.456h-.12l-1.413 4.984h2.922l-1.389-4.984zM108.362 122.218h-4.719c0-2.42-.766-3.234-2.539-3.234-1.46 0-2.372.982-2.372 2.396v4.623c0 1.414.839 2.396 2.372 2.396 2.037 0 2.755-.743 2.755-3.186h4.503c0 4.312-2.874 6.947-6.754 6.947h-.671c-4.217 0-7.618-2.635-7.618-7.186v-2.54c0-4.312 3.45-7.187 7.426-7.187h.67c3.906 0 6.947 2.3 6.947 6.97zM115.185 121.978l4.695-6.491h5.558l-5.007 6.587 5.15 9.846h-5.629l-2.85-5.94-1.917 2.3v3.64h-4.887v-16.433h4.887v6.491zM143.183 115.487l-.48 3.905h-6.491v2.682h6.037v3.69h-6.037v6.156H131.3v-16.433h11.882zM158.534 119.727c0 1.94-1.389 3.689-2.945 4.288v.12c1.843.55 2.635 2.227 2.635 3.64 0 .983.023 2.636 1.221 2.947v.983c-.862.359-1.94.455-2.874.455-2.18 0-3.378-.79-3.378-3.09 0-.959-.096-2.947-2.133-2.947h-1.388v5.797h-4.912v-16.433h9.27c2.325 0 4.504 1.772 4.504 4.24zm-8.862-.48v3.211h2.539c.718 0 1.197-.887 1.197-1.893 0-.67-.48-1.318-1.15-1.318h-2.586zM169.55 119.008h-1.941v9.367h1.94v3.545h-8.96v-3.545h1.942v-9.367h-1.941v-3.521h8.96v3.521zM186.362 122.674v2.06a7.177 7.177 0 01-7.186 7.186h-7.403v-16.433h7.403a7.177 7.177 0 017.186 7.187zm-9.51 5.437h1.844a2.371 2.371 0 002.396-2.396v-4.096a2.372 2.372 0 00-2.396-2.395h-1.843v8.887zM197.976 128.997h-5.222l-.958 2.923h-4.839l5.486-16.433h6.252l5.486 16.433h-5.223l-.982-2.923zm-2.54-8.456h-.119l-1.413 4.984h2.923l-1.39-4.984zM211.962 120.876h.12l2.515-5.39h5.15l-5.438 10.158v6.276h-5.006v-6.276l-5.462-10.157h5.653l2.468 5.39z"/></g><g><path class="st3" d="M283.245 37.226L244.187 6.774a12.483 12.483 0 00-7.644-2.615H16.408c-6.754 0-12.249 5.365-12.249 11.958v130.955c0 6.594 5.495 11.958 12.249 11.958h220.135c2.766 0 5.482-.928 7.645-2.615l39.056-30.45c2.927-2.282 4.605-5.688 4.605-9.345V46.57c0-3.656-1.678-7.062-4.604-9.343zm1.485 79.394c0 2.69-1.24 5.197-3.404 6.884l-39.057 30.452a9.355 9.355 0 01-5.726 1.955H16.408c-5.034 0-9.13-3.966-9.13-8.838V16.117c0-4.873 4.096-8.839 9.13-8.839h220.135c2.076 0 4.109.695 5.726 1.955l39.058 30.452c2.162 1.687 3.403 4.196 3.403 6.884v70.051z"/></g><g><path class="st2" d="M264.482 92.821c6.19 0 11.227-5.036 11.227-11.226 0-6.19-5.036-11.227-11.227-11.227s-11.226 5.036-11.226 11.227c0 6.19 5.036 11.226 11.226 11.226zm0-19.334c4.47 0 8.108 3.637 8.108 8.108 0 4.47-3.637 8.107-8.108 8.107s-8.107-3.637-8.107-8.107c0-4.47 3.637-8.108 8.107-8.108z"/></g><g><path class="st1" d="M300.228 88.343h-30.125a7.28 7.28 0 010-14.559h30.125a7.28 7.28 0 010 14.56z"/></g><g><path class="st3" d="M240.816 125.028l1.099 6.767-6.04-3.244-6.095 3.137 1.218-6.746-4.867-4.829 6.793-.926 3.088-6.12 2.98 6.174 6.775 1.046z"/></g><g><path class="st3" d="M35.446 125.028l1.099 6.767-6.04-3.244-6.095 3.137 1.218-6.746-4.866-4.829 6.792-.926 3.088-6.12 2.98 6.174 6.775 1.046z"/></g></svg>