<svg version="1.1" id="Layer_1" xmlns="http://www.w3.org/2000/svg" x="0" y="0" viewBox="0 0 965.189 299.68" xml:space="preserve"><style>.st0{fill:#d37d00}.st1{fill:#935400}.st2{fill:#fff}.st3{fill:#efac18}</style><path class="st0" d="M667.458 111.607l.645 132.748 247.707 38.92v-169.25z"/><path class="st1" d="M721.039 213.953l-52.936 30.402v-138.51z"/><path class="st2" d="M775.057 241.941c-23.78-3.802-29.437-16.506-29.437-34.058v-71.22c0-3.597 1.015-5.141 3.33-5.053l14.825.566c2.407.092 3.471 1.755 3.471 5.441v67.242c0 3.981 1.163 7.08 8.008 7.952 7.051.898 8.254-1.952 8.254-6.006v-68.47c0-3.754 1.004-5.367 3.627-5.267l15.64.597c2.625.1 3.784 1.838 3.784 5.687v76.217c0 18.784-6.392 30.388-31.502 26.372zM822.768 247.221c-2.723-.429-3.917-2.333-3.917-6.233v-18.252c0-3.9 1.194-5.466 3.917-5.123l30.327 3.825c1.982.25 3.035-1.726 3.035-4.32 0-3.73-1.053-5.312-3.035-5.866l-17.146-5.319c-10.442-3.371-17.098-10.343-17.098-27.816v-16.38c0-17.785 8.417-27.137 22.973-26.581l32.917 1.256c3.048.117 4.396 1.994 4.396 6.144v19.754c0 4.15-1.348 5.882-4.396 5.669l-27.545-1.923c-1.95-.136-3.093 1.706-3.093 4.59 0 2.882 1.143 4.896 3.093 5.373l17.437 4.668c11.325 3.262 18.939 10.583 18.939 29.256v17.507c0 19.007-9.56 27.839-24.978 25.411l-35.826-5.64z"/><path class="st3" d="M399.016 39.387L722.862 73.91l-1.823 140.042-320.93 19.45z"/><path class="st1" d="M499.67 204.836l-99.56 28.567V162.41l77.8 17.019z"/><path class="st3" d="M461.864 0v186.722L43.197 216.384V84.122z"/><path class="st2" d="M561.447 210.852c-3.066.224-4.422-1.774-4.422-6.54v-93.598l-18.56-.88c-3.239-.154-4.672-2.378-4.672-7.276V78.849c0-4.898 1.433-6.923 4.672-6.626l63.104 5.779c2.757.252 3.964 2.338 3.964 6.826v21.726c0 4.488-1.207 6.406-3.964 6.275l-16.611-.789v90.465c0 4.606-1.271 6.725-4.175 6.937l-19.336 1.41zM646.257 207.22c-25.468 1.945-31.948-12.119-31.948-33.778v-60.541c0-21.66 6.48-35.78 31.948-33.36 23.837 2.264 29.333 16.36 29.333 36.311v55.767c0 19.95-5.496 33.78-29.333 35.6zm0-32.856c7.121-.23 8.183-3.631 8.183-8.178v-45.291c0-4.378-1.062-7.798-8.183-8.158-7.16-.361-8.368 3.02-8.368 7.497v46.309c0 4.648 1.207 8.052 8.368 7.82z"/><g id="Perspective_Text"><path class="st2" d="M76.975 193.636c-1.828.138-2.63-1.308-2.63-4.734v-16.034c0-3.425.802-5.018 2.63-5.211l20.178-2.137c1.306-.138 2-2.044 2-4.3 0-3.243-.694-4.431-2-4.562l-11.367-1.599c-6.975-1.097-11.442-6.035-11.442-21.383v-14.389c0-15.622 5.647-25.194 15.35-27.042l21.654-4.124c1.986-.378 2.862 1.032 2.862 4.617v17.063c0 3.584-.876 5.302-2.862 5.62l-18.093 2.895c-1.292.207-2.05 2.005-2.05 4.52 0 2.515.758 4.077 2.05 4.163l11.485 1.114c7.401.915 12.35 5.952 12.35 22.062v15.105c0 16.398-6.217 25.787-16.315 26.553l-23.8 1.803zM128.88 189.703c-2.056.156-2.957-1.374-2.957-5.005V90.575c0-3.632.901-5.401 2.956-5.793l25.922-4.936c16.126-3.072 21.018 8.1 21.018 25.87v19.61c0 17.771-4.892 30.402-21.018 32.143l-9.912 1.07v24.614c0 3.706-.937 5.408-3.06 5.569l-12.95.981zm15.838-57.83l7.737-1.057c3.393-.463 4.092-4.012 4.092-7.915v-7.957c0-3.903-.7-7.244-4.092-6.7l-7.737 1.244v22.385zM188.734 185.168c-2.332.177-3.355-1.448-3.355-5.315V79.593c0-3.869 1.023-5.766 3.355-6.21l45.409-8.648c2.567-.489 3.7 1.09 3.7 5.167v19.08c0 4.076-1.133 6.052-3.7 6.464l-27.507 4.41v12.175l19.277-2.855c2.526-.374 3.642 1.24 3.642 5.285v17.308c0 4.043-1.116 5.956-3.642 6.258l-19.277 2.305v13.597l27.507-2.912c2.567-.272 3.7 1.402 3.7 5.479v19.08c0 4.077-1.133 5.957-3.7 6.152l-45.41 3.44zM268.222 179.146l-15.837 1.2c-2.646.2-3.807-1.525-3.807-5.644v-43.504c0-6.592 1.266-15.006 4.125-26.982l9.321-39.282c.866-4.003 2.601-6.004 5.542-6.564l30.23-5.757c3.015-.575 4.878.805 5.811 4.62L313.87 95.1c3.224 11.82 4.663 20.417 4.663 27.455V169c0 4.397-1.319 6.433-4.306 6.659l-17.7 1.341c-3.105.235-4.48-1.55-4.48-5.842v-24.04l-19.871 2.063v23.597c0 4.213-1.211 6.159-3.953 6.367zm5.056-60.786l17.626-2.34-5.338-25.235c-.564-1.959-1.241-2.704-2.143-2.56l-2.806.448c-.895.143-1.565 1.099-2.123 3.222l-5.216 26.465zM337.955 173.862c-3.099.235-4.457-1.624-4.457-6.081V52.233c0-4.458 1.358-6.678 4.457-7.269l19.608-3.734c3.227-.614 4.652 1.126 4.652 5.699v42.064l5.214-.773 13.646-45.333c1.342-4.715 3.226-6.75 6.74-7.418l21.263-4.05c3.241-.617 4.372 1.46 3.1 5.708l-14.24 46.576c10.437-.785 17.214 8.164 17.214 23.47v53.953c0 4.782-1.56 7.005-5.09 7.273l-21.296 1.613c-3.386.257-4.87-1.68-4.87-6.339v-36.336c0-4.1-1.48-6.162-4.294-5.83l-17.387 2.051v41.882c0 4.572-1.425 6.692-4.652 6.936l-19.608 1.486z"/></g><path class="st0" d="M461.864 0l60.782 50.57-22.975 154.266-37.807-18.114z"/><path class="st3" d="M83.216 24.653l-31.89 5.798 28.991 33.34zM0 235.256l17.167 22.15 14.012-35.536zM866.908 65.447l-21.171-16.605-4.725 36.37zM674.61 299.68l24.366-6.982-21.08-25.714z"/><g><path class="st3" d="M956.767 204.564l8.422-22.331-32.033 5.671z"/></g><g><path d="M77.378 249.074c-.3.02-.538-.07-.714-.277-.177-.205-.238-.459-.184-.762l5.63-26.751c.055-.303.211-.572.47-.808.258-.235.537-.364.836-.385l12.73-.89c1.85-.13 3.481-.066 4.896.187 1.414.256 2.57.712 3.468 1.37a5.141 5.141 0 011.877 2.562c.353 1.05.38 2.292.082 3.727a6.108 6.108 0 01-.714 1.865 8.685 8.685 0 01-1.142 1.55c-.423.45-.857.848-1.306 1.192a8.84 8.84 0 01-1.204.798c.952.369 1.7 1.072 2.244 2.108.544 1.037.667 2.245.367 3.625-.653 3.12-1.986 5.478-3.998 7.074-2.013 1.596-4.87 2.523-8.568 2.781l-14.77 1.034zm10.567-7.757l3.795-.265c.68-.048 1.21-.303 1.59-.764.381-.462.613-.926.695-1.395.136-.5.088-.951-.143-1.357-.232-.405-.66-.587-1.285-.543l-3.795.265-.857 4.059zm7.793-13.194c.082-.44.041-.859-.122-1.255-.163-.397-.545-.575-1.143-.533l-3.427.24-.816 3.77 3.427-.24c.598-.042 1.067-.272 1.408-.69.34-.418.564-.848.673-1.292zM129.602 237.057c.299-.02.537.072.714.276.176.207.224.461.142.766l-1.305 6.252a1.426 1.426 0 01-.47.809c-.258.236-.537.363-.836.384l-20.563 1.438c-.3.021-.538-.07-.714-.276-.177-.206-.238-.459-.183-.762l5.63-26.751c.054-.303.21-.572.469-.809.258-.235.536-.363.836-.385l8.16-.57c.3-.021.537.071.715.276.176.207.237.46.183.762l-4.08 19.381 11.302-.791zM155.469 215.052c.544-.038.924.085 1.142.37.217.283.354.574.408.868l3.59 25.78c.055.378-.04.677-.285.897a1.335 1.335 0 01-.816.363l-7.344.514c-.545.038-.905-.053-1.081-.271-.177-.218-.279-.436-.306-.652l-.408-2.665-8.772.614-1.55 2.801c-.137.228-.334.466-.593.715s-.659.393-1.203.43l-7.956.557c-.299.021-.516-.085-.653-.322-.136-.235-.122-.508.041-.82l14.606-27.05c.164-.31.422-.629.776-.952.353-.324.802-.505 1.346-.543l9.058-.634zm-5.508 17.277l-.694-7.54-3.917 7.863 4.61-.323zM175.298 224.519a100.08 100.08 0 00-1.47 6.957c-.217 1.267-.108 2.123.327 2.568.435.446 1.102.637 2 .575a4.255 4.255 0 001.958-.627c.598-.369 1.114-.976 1.55-1.823.245-.48.483-.808.714-.988.23-.179.578-.285 1.04-.317l8.324-.582a.687.687 0 01.591.223c.15.167.198.373.143.622-.435 1.881-1.122 3.514-2.06 4.899s-2.074 2.545-3.407 3.481c-1.333.937-2.829 1.66-4.488 2.17s-3.4.83-5.222.957c-1.85.13-3.584.04-5.202-.268-1.62-.308-3-.872-4.142-1.69-1.143-.817-1.972-1.902-2.489-3.254-.516-1.35-.612-3.016-.285-4.998.19-1.128.421-2.34.693-3.638.272-1.297.558-2.541.857-3.732.952-3.875 2.706-6.793 5.264-8.753 2.556-1.96 5.86-3.083 9.914-3.366a20.455 20.455 0 014.896.249c1.632.28 3.06.8 4.284 1.558s2.148 1.774 2.775 3.05c.625 1.275.76 2.849.407 4.724-.054.25-.19.469-.407.661-.219.192-.45.296-.694.313l-8.323.583c-.463.032-.77-.028-.918-.182-.15-.152-.266-.457-.347-.914-.11-.862-.388-1.427-.837-1.695-.448-.268-1.026-.377-1.734-.328-.897.063-1.666.354-2.305.875-.64.521-1.108 1.418-1.407 2.69zM218.26 237.875c.163.37.102.694-.183.972-.287.278-.58.428-.878.45l-8.69.607c-.436.03-.769-.034-1-.197a1.4 1.4 0 01-.51-.636l-3.468-8.653-1.877 8.864c-.055.303-.21.572-.47.807-.258.237-.537.365-.836.385l-7.792.545c-.3.021-.538-.07-.714-.276-.177-.205-.239-.46-.184-.763l5.63-26.751c.055-.303.21-.571.47-.808.257-.235.536-.364.836-.384l7.793-.545c.299-.022.537.07.714.276.177.206.238.46.184.763l-1.755 8.2 6.406-8.73c.163-.228.388-.448.673-.659.286-.21.66-.332 1.122-.364l9.221-.645c.38-.027.612.115.693.421.082.307.014.605-.204.892l-10.567 13.917 5.386 12.312zM255.877 208.03c.299-.02.536.072.714.277.177.206.237.46.183.763l-1.346 6.296c-.055.302-.21.572-.469.807-.259.237-.538.365-.837.385l-11.669.816-.652 3.065 10.853-.759c.299-.021.53.072.694.278.163.206.217.46.163.763l-1.306 6.253c-.055.304-.218.572-.49.81-.272.236-.557.365-.857.385l-10.853.76-1.631 7.784c-.055.304-.211.573-.47.809-.259.235-.537.363-.836.385l-7.793.545c-.3.02-.537-.072-.714-.277-.177-.205-.238-.459-.183-.762l5.63-26.751c.054-.303.21-.572.469-.809.258-.234.537-.363.836-.385l20.564-1.437zM281.092 233.48a1.26 1.26 0 010 .45 1.262 1.262 0 01-.388.66 1.071 1.071 0 01-.673.312l-8.364.585c-.545.038-.925-.072-1.143-.328-.217-.256-.354-.479-.407-.665l-1.837-7.664-1.673.116-1.672 7.91a1.43 1.43 0 01-.47.808c-.259.236-.537.364-.836.385l-7.997.559c-.3.021-.537-.07-.714-.277-.176-.205-.238-.458-.183-.761l5.63-26.752c.054-.302.21-.571.469-.808.258-.235.537-.364.836-.385l11.67-.816c1.958-.137 3.685-.032 5.181.31 1.495.345 2.713.913 3.652 1.705a6.057 6.057 0 011.938 2.985c.353 1.2.367 2.586.04 4.16-.381 1.875-1.129 3.519-2.243 4.93a15.17 15.17 0 01-3.876 3.493l3.06 9.089zm-12.853-14.4l2.979-.208c.625-.044 1.135-.29 1.53-.74.394-.448.66-.949.796-1.504.135-.553.108-1.061-.082-1.524-.19-.463-.626-.671-1.305-.623l-2.98.208-.938 4.391zM285.008 234.554c-.3.02-.537-.071-.714-.276-.176-.205-.238-.46-.183-.763l5.63-26.75c.054-.304.21-.572.469-.81.258-.234.537-.363.836-.384l8.324-.582c.299-.02.537.072.714.276.177.207.238.46.183.763l-5.63 26.75a1.43 1.43 0 01-.47.81c-.258.235-.537.363-.836.384l-8.323.582zM316.954 203.76c1.714-.12 3.36.01 4.937.389 1.577.379 2.951.997 4.121 1.854a7.913 7.913 0 012.631 3.325c.585 1.359.714 2.962.388 4.807l-.306 1.633c-.096.51-.19 1.007-.286 1.49-.095.483-.203.972-.326 1.47l-.387 1.578c-.49 1.966-1.143 3.685-1.959 5.155-.815 1.472-1.83 2.712-3.04 3.722-1.21 1.009-2.638 1.796-4.284 2.36-1.646.563-3.543.92-5.691 1.07l-12.77.894c-.3.02-.538-.071-.715-.276-.176-.206-.238-.46-.183-.763l5.63-26.75c.054-.304.21-.572.469-.81.258-.234.537-.363.836-.384l10.935-.765zm1.714 11.1c.19-1.155.006-1.973-.55-2.45-.559-.478-1.3-.685-2.225-.62l-2.448.17-2.692 12.837 2.652-.185a4.263 4.263 0 002.427-.966c.721-.58 1.23-1.452 1.53-2.615.164-.583.3-1.13.408-1.64.109-.512.218-1.009.327-1.493.108-.483.21-.966.306-1.45a29.72 29.72 0 00.265-1.588zM352.124 201.3c.544-.038.925.084 1.143.37.217.283.353.574.408.868l3.59 25.78c.055.378-.04.676-.286.897a1.326 1.326 0 01-.816.363l-7.343.513c-.545.038-.905-.052-1.081-.27-.178-.219-.28-.436-.306-.652l-.409-2.665-8.772.614-1.55 2.801a3.571 3.571 0 01-.592.714c-.259.25-.66.394-1.203.432l-7.956.556c-.3.021-.517-.086-.653-.322s-.123-.508.04-.82l14.607-27.05c.163-.31.421-.629.776-.952.353-.325.801-.506 1.346-.544l9.057-.633zm-5.508 17.277l-.693-7.54-3.917 7.862 4.61-.322zM363.67 229.053c-.299.02-.536-.071-.714-.276s-.237-.46-.183-.763l1.714-8.158-5.305-17.785c-.108-.319-.054-.615.164-.888s.516-.424.898-.451l7.262-.508c.544-.038.918.072 1.122.33.204.258.333.453.388.585l2.325 8.038 5.835-8.608c.082-.142.285-.36.611-.655.327-.294.761-.461 1.306-.5l8.079-.565c.38-.026.618.107.714.4a.87.87 0 01-.143.825l-13.056 19.069-1.714 8.158c-.054.304-.21.572-.469.808-.258.236-.537.364-.836.385l-7.997.56z"/></g></svg>