<svg version="1.1" id="Layer_1" xmlns="http://www.w3.org/2000/svg" x="0" y="0" viewBox="0 0 732.992 352.828" xml:space="preserve"><style>.st0{fill:none}.st1{fill:#f20096}.st2{fill:#fff}.st3{fill:#000cef}</style><path class="st0" d="M644.72 59.214c-.057-.064-.249-.087-.396-.087-1.013 0-2.509 1.19-2.744 2.528l-1.249 7.084c2.708-3.343 4.175-5.634 4.517-8.604.07-.532-.054-.835-.129-.92zM526.506 309.076l4.372-33.395h-2.568l-7.545 33.395zM245.143 59.127l-2.497 14.156H257.15l-1.037 5.879-4.41 25.004-.73 4.14H236.47l-2.526 14.321h18.33l11.197-63.5h-.696zM191.802 59.127l-2.497 14.156H203.81l-1.037 5.879-4.41 25.004-.73 4.14H183.13l-2.526 14.321h18.33l11.196-63.5h-.696zM469.169 59.127l-2.496 14.156h14.503l-1.037 5.879-4.41 25.004-.73 4.14h-14.502l-2.526 14.321h18.335l11.197-63.5h-.702z"/><path class="st1" d="M53.366 188.304L0 252.13l32.138-2.57-22.209 80.64 48.165-97.94-23.746 1.982zM699.986 110.31l33.006-54.08-13.832-.105 13.415-25.553-34.214 34.083 18.714.208z"/><path class="st2" d="M678.271 232.82a1.693 1.693 0 01-.015-1.61l18.916-35.712-53.624 48.673 31.339 2.367a1.691 1.691 0 011.414 2.382l-30.37 67.293 56.787-80.862-23.09-1.664a1.691 1.691 0 01-1.357-.867z"/><path class="st3" d="M705.94 232.193l-23.48-1.693 22.222-41.956a1.691 1.691 0 00-2.631-2.043l-63.687 57.809a1.691 1.691 0 001.009 2.938l32.851 2.48-36.743 81.418a1.69 1.69 0 002.926 1.668l68.796-97.962a1.693 1.693 0 00-1.262-2.66zm-60.008 84.02L676.3 248.92a1.691 1.691 0 00-1.413-2.382l-31.339-2.367 53.624-48.673-18.916 35.712a1.693 1.693 0 001.373 2.477l23.09 1.664-56.787 80.862z"/><path class="st2" d="M41.544 36.407a1.693 1.693 0 01-.015-1.61l13.43-25.36-38.721 35.147 23.089 1.745a1.69 1.69 0 011.414 2.382L19.2 96.436l40.69-57.94-16.99-1.223a1.691 1.691 0 01-1.357-.867z"/><path class="st3" d="M63.114 35.34l-17.382-1.254L62.47 2.484A1.691 1.691 0 0059.84.44L11.052 44.723a1.691 1.691 0 001.009 2.939l24.602 1.858L8.75 111.372a1.69 1.69 0 002.925 1.668L64.375 38a1.693 1.693 0 00-1.261-2.66zM19.2 96.437L40.74 48.71a1.69 1.69 0 00-1.414-2.381l-23.09-1.745L54.96 9.437l-13.43 25.36a1.693 1.693 0 001.372 2.477l16.99 1.224-40.69 57.94z"/><path class="st2" d="M99.329 149.148l8.085-45.851h2.505l6.08 45.851h20.005l20.579-116.703h-21.67l-8.082 45.847h-2.505l-6.082-45.848H98.238L77.66 149.148z"/><path class="st1" d="M99.329 154.157h4.202l.73-4.139 3.882-22.01 2.89 21.8.577 4.35H281.856c18.716 0 35.957-14.635 39.251-33.317l10.29-58.35c1.655-9.389-.514-18.232-6.11-24.9-5.494-6.549-13.61-10.155-22.853-10.155H130.711l-.73 4.139-3.88 22.008-2.892-21.797-.577-4.35H94.035l-.73 4.139-20.578 116.704-1.037 5.878H99.33zm18.915-121.713l6.082 45.848h2.505l8.083-45.847h21.669l-20.579 116.703H116l-6.08-45.851h-2.505l-8.085 45.851h-21.67L98.239 32.445h20.006zm184.19 0c16.171 0 26.881 13.007 24.03 29.178l-10.29 58.35c-2.851 16.17-18.147 29.176-34.318 29.176h-29.172l20.578-116.703h29.172zm-50.16 90.183h-18.33l2.526-14.322h14.503l.73-4.139 4.41-25.004 1.036-5.88h-14.503l2.497-14.155H263.47l-11.197 63.5zm14.321-90.182l-3.82 21.673H240.94l-4.263 24.174h14.503l-4.41 25.005h-14.503l-4.292 24.34h21.835l-3.793 21.511h-46.674l20.578-116.703h46.674zm-67.661 90.182h-18.33l2.525-14.322h14.503l.73-4.139 4.41-25.004 1.037-5.88H189.305l2.497-14.155H210.13l-11.196 63.5zm14.32-90.182l-3.82 21.673H187.6l-4.263 24.174h14.503l-4.41 25.005h-14.502l-4.293 24.34h21.836l-3.794 21.511h-46.673L166.58 32.445h46.673z"/><path class="st2" d="M192.676 149.148l3.794-21.512h-21.836l4.293-24.34h14.503l4.41-25.004h-14.504l4.263-24.174h21.835l3.82-21.674h-46.673l-20.578 116.704zM246.017 149.148l3.793-21.512h-21.835l4.292-24.34h14.503l4.41-25.004h-14.503l4.263-24.174h21.835l3.82-21.674h-46.674l-20.578 116.704zM281.856 149.148c16.171 0 31.467-13.006 34.319-29.177l10.289-58.35c2.851-16.17-7.859-29.177-24.03-29.177h-29.172l-20.578 116.704h29.172zm12.424-95.03h4.667c2.167 0 3.512 1.835 3.157 3.835l-11.61 65.853c-.354 2-2.345 3.83-4.512 3.83h-4.666l12.964-73.518z"/><path class="st1" d="M290.495 123.806l11.61-65.853c.354-2-.991-3.835-3.158-3.835h-4.667l-12.964 73.518h4.666c2.167 0 4.158-1.83 4.513-3.83z"/><path class="st2" d="M379.87 149.148l7.35-41.68h8.833l-7.349 41.68h24.673l20.578-116.703h-24.673l-7.349 41.68h-8.834l7.35-41.68h-24.84l-20.577 116.703z"/><path class="st1" d="M379.87 154.157h182.558l.73-4.139 4.939-28.003c19.135-1.575 36.317-16.954 39.907-36.304l.63-3.575h21.439c-4.768 7.543-9.46 18.045-12.355 34.466l-1.037 5.879H643.856l.73-4.14c2.851-16.174 10.243-23.63 17.39-30.839 6.41-6.465 13.038-13.15 15.13-25.01 1.656-9.39-.514-18.233-6.109-24.901-5.494-6.549-13.61-10.155-22.853-10.155-15.547 0-30.491 10.684-36.718 25.073-1.028-5.134-3.22-9.876-6.594-13.897-6.047-7.207-14.937-11.176-25.03-11.176h-30.04l-.73 4.139-16.055 91.052h-21.661l15.749-89.313 1.036-5.878H371.407l-.73 4.139L350.1 148.279l-1.036 5.878H379.87zM400.45 32.444l-7.35 41.68h8.834l7.35-41.68h24.672l-20.578 116.704h-24.673l7.35-41.68h-8.834l-7.35 41.68h-24.838L375.61 32.445h24.839zm121.683 0l-16.785 95.192h21.835l-3.793 21.512h-46.674l20.578-116.703h24.839zm-45.826 90.183H457.97l2.525-14.322H475l.73-4.139 4.41-25.004 1.037-5.88h-14.503l2.496-14.155H487.503l-11.197 63.5zm14.316-90.182l-3.82 21.673h-21.836l-4.263 24.174h14.503l-4.41 25.005h-14.502L452 127.637h21.836l-3.794 21.511H423.37l20.578-116.703h46.674zM606.607 64.79l-3.527 20.006c-3.341 18.005-20.373 32.342-38.212 32.342h-.998l-5.644 32.01h-24.839l20.578-116.704h25.837c17.838 0 29.952 14.502 26.805 32.346zm65.566-3.17c-3.998 22.672-26.787 23.338-32.52 55.85H622.65c7.115-40.344 25.59-43.014 27.165-56.686.479-3.663-1.822-6.667-5.49-6.667-3.503 0-7.032 3.004-7.678 6.667l-2.88 16.342h-22.673l2.735-15.505c2.851-16.171 18.315-29.178 34.315-29.178 16.171 0 26.881 13.007 24.03 29.178zm-31.842 7.118l1.249-7.084c.235-1.338 1.73-2.528 2.744-2.528.147 0 .339.023.395.087.075.086.2.389.13.921-.343 2.97-1.81 5.261-4.518 8.604z"/><path class="st2" d="M470.043 149.148l3.794-21.512H452l4.293-24.34h14.503l4.41-25.004h-14.504l4.263-24.174h21.835l3.82-21.674h-46.673L423.37 149.148zM523.389 149.148l3.793-21.512h-21.835l16.785-95.191h-24.839l-20.578 116.703zM533.387 149.148h24.839l5.644-32.009h.998c17.839 0 34.871-14.337 38.212-32.342l3.526-20.005c3.148-17.845-8.966-32.347-26.804-32.347h-25.837l-20.578 116.703zm41.597-95.03h.499c4.333 0 8.002 0 6.001 11.339l-3.321 18.836c-1.969 11.172-5.637 11.172-9.971 11.172h-.499l7.29-41.347z"/><path class="st1" d="M578.163 84.293l3.321-18.836c2-11.339-1.668-11.339-6.001-11.339h-.5l-7.29 41.347h.499c4.334 0 8.002 0 9.97-11.172z"/><path class="st2" d="M613.829 61.622l-2.735 15.505h22.672l2.881-16.342c.646-3.663 4.175-6.667 7.677-6.667 3.669 0 5.97 3.004 5.49 6.667-1.574 13.672-20.049 16.342-27.164 56.687h17.003c5.732-32.513 28.522-33.179 32.52-55.85 2.852-16.171-7.858-29.178-24.029-29.178-16 0-31.464 13.007-34.315 29.178zM620.192 127.636l-3.793 21.512h18.333l3.794-21.512z"/><path class="st1" d="M639.665 150.018l3.793-21.512 1.037-5.879H615.99l-.73 4.14-3.794 21.512-1.036 5.878h28.505l.73-4.139zm-23.266-.87l3.793-21.512h18.334l-3.794 21.512H616.4z"/><path class="st3" d="M113.966 245.554h-22.51l-18.649 105.76h42.304l3.435-19.488H98.754zM189.504 265.197h14.35l-15.185 86.116h22.66l15.186-86.116h14.357l3.462-19.643h-51.368zM281.393 245.446h-28.851l-4.878 27.653h12.687c-1.252 7.1-7.818 14.351-15.78 20.093l7.122 8.46c15.261-10.274 24.293-25.535 26.741-39.431l2.96-16.775zM316.757 244.045c-14.656 0-28.518 11.783-31.102 26.444l-.107.599c-1.145 6.496 4.037 14.806 6.945 21.457l12.909 29.612c.958 2.263 1.1 3.167.779 4.987-.372 2.113-2.529 4.077-4.797 4.077-2.264 0-3.58-1.964-3.208-4.077l2.266-12.848H277.93l-2.133 12.088c-2.584 14.656 7.12 26.444 21.776 26.444s28.517-11.788 31.101-26.444l.108-.605c1.41-8.005-2.748-15.255-6.13-22.66l-13.484-29.768c-.733-1.813-1.084-2.413-.843-3.772.372-2.119 2.534-4.082 4.647-4.082 2.27 0 3.73 1.963 3.358 4.082l-2.052 11.633h22.361l1.892-10.723c2.584-14.661-7.12-26.444-21.775-26.444zM401.054 327.898c-.372 2.114-2.507 3.928-4.776 3.928-2.114 0-3.606-1.814-3.235-3.928l10.362-58.774c.375-2.113 2.51-3.927 4.624-3.927 2.268 0 3.761 1.814 3.387 3.927l-3.168 17.98h22.356l2.93-16.615c2.584-14.661-7.12-26.444-21.776-26.444-14.656 0-28.517 11.783-31.102 26.444l-9.856 55.895c-2.585 14.656 7.12 26.444 21.775 26.444s28.518-11.788 31.102-26.444l2.93-16.62H404.25l-3.197 18.134zM476.77 245.554l-6.661 37.771h-8.005l6.662-37.771h-22.511l-18.648 105.76h22.511l6.66-37.772h8.004l-6.659 37.771h22.361l18.648-105.76zM553.405 265.049h14.351l-15.186 86.116h22.661l15.186-86.116h14.356l3.462-19.643h-51.368zM124.469 351.372h42.303l3.436-19.487h-19.793l3.89-22.062h13.141l3.998-22.66h-13.142l3.863-21.907h19.793l3.462-19.643h-42.304zM489.762 351.224h21.302l4.495-19.487h8.004l-2.076 19.487h21.152l5.806-105.76h-27.193l-31.49 105.76zm41.116-75.543l-4.372 33.395h-5.741l7.545-33.395h2.568z"/><path d="M379.144 188.96h-5.078l-1.046 5.938h4.915c1.507 0 2.916-1.668 3.229-3.434.252-1.438-.475-2.504-2.02-2.504zM440.406 190.364l-4.634 8.97h6.231l-1.435-8.97zM281.998 190.364l-4.635 8.97h6.232l-1.436-8.97zM416.9 188.96h-3.438l-2.588 14.674h3.439c2.69 0 5.043-1.8 5.662-5.302l.714-4.065c.619-3.502-1.098-5.307-3.788-5.307z"/><path d="M169.175 168.288a7.334 7.334 0 00-7.222 6.06l-7.249 41.106c-.791 4.491 2.663 8.608 7.223 8.608h370.969a7.334 7.334 0 007.222-6.06l7.248-41.106c.792-4.49-2.663-8.608-7.222-8.608H169.175zm13.99 34.114a7.04 7.04 0 110-14.079 7.04 7.04 0 010 14.08zm66.268-11.94c-.594 3.37-2.748 4.803-4.776 5.336l-.03.167c1.862.4 4.046 1.8 3.366 5.664-.594 3.37-3.864 6.104-7.308 6.104h-11.343l4.03-22.872h11.148c3.243 0 5.459 2.5 4.913 5.6zm17.133 17.271H251.68l4.03-22.872h5.083l-3.28 18.607h9.245l-.193 4.265zm18.533 0l-.846-4.5h-8.951l-2.368 4.5h-4.886l12.194-22.872h6.036l4.133 22.872H285.1zm28.246-13.803h-4.819c.617-3.498-.64-5.303-3.458-5.303-2.622 0-5.038 1.805-5.654 5.303l-.834 4.735c-.619 3.502 1.19 5.302 3.818 5.302 3.11 0 4.847-1.668 5.478-5.234h4.622c-1.07 6.065-5.578 9.333-10.592 9.333h-.46c-5.576 0-9.22-3.502-8.051-10.135l.577-3.268c1.14-6.466 6.117-10.14 11.493-10.14h.46c5.11 0 8.53 3.107 7.42 9.407zm20.497 13.803h-5.738l-3.712-9.269-3.498 3.302-1.051 5.967h-4.95l4.03-22.872h4.95l-1.844 10.468 9.94-10.468h5.674l-9.27 9.636 5.469 13.236zm30.28-18.773h-9.71l-.963 5.469h8.727l-.725 4.104h-8.726l-1.621 9.2h-4.98l4.03-22.872h15.213l-1.245 4.099zm22.288 1.77c-.506 2.867-2.786 5-5.073 5.866l-.029.17c1.517.53 3.2 2.329 2.654 5.435-.26 1.467-.462 3.732.932 4.197l-.2 1.135c-.813.303-1.945.43-2.9.43-1.931 0-3.631-.797-3.13-3.63.47-2.67.365-5.4-2.555-5.4h-3.801l-1.55 8.8h-4.985l4.03-22.872h10.165c3.703 0 7.205 1.531 6.442 5.87zm16.027-1.77h-2.622l-2.588 14.674h2.622l-.721 4.1h-10.36l.721-4.1h2.656l2.588-14.674h-2.656l.721-4.099h10.36l-.721 4.099zm23.437 6.036l-.46 2.602c-1.145 6.506-6.344 10.135-11.823 10.135h-8.52l4.03-22.872h8.52c5.48 0 9.4 3.635 8.253 10.135zm17.633 12.737l-.846-4.5h-8.951l-2.368 4.5h-4.886l12.194-22.872h6.036l4.133 22.872h-5.312zm21.097-8.765l-1.546 8.765h-5.048l1.546-8.765-5.22-14.107h5.704l3.094 9.069h.161l6.288-9.069h5.18l-10.16 14.107zm49.412 3.434a7.04 7.04 0 110-14.079 7.04 7.04 0 010 14.08z"/><path d="M242.385 188.794h-4.92l-.943 5.336h4.921c1.277 0 2.686-1.1 2.967-2.7.364-2.069-.978-2.636-2.025-2.636zM241.113 198.034h-5.278l-.98 5.566h5.277c1.512 0 2.786-1.1 3.109-2.935.26-1.467-.685-2.631-2.128-2.631z"/><path class="st2" d="M244.52 184.861h-11.148l-4.03 22.872h11.343c3.444 0 6.714-2.734 7.308-6.104.68-3.864-1.504-5.263-3.365-5.664l.029-.167c2.028-.533 4.182-1.966 4.776-5.336.546-3.101-1.67-5.6-4.913-5.6zm-4.388 18.74h-5.277l.98-5.567h5.278c1.443 0 2.387 1.164 2.128 2.631-.323 1.834-1.597 2.935-3.109 2.935zm1.311-9.47h-4.92l.941-5.337h4.92c1.048 0 2.39.567 2.026 2.636-.281 1.6-1.69 2.7-2.967 2.7zM260.794 184.861h-5.082l-4.031 22.872h14.885l.193-4.265h-9.245zM280.242 184.861l-12.194 22.872h4.886l2.368-4.5h8.95l.847 4.5h5.312l-4.133-22.872h-6.036zm-2.879 14.474l4.635-8.971h.161l1.436 8.97h-6.232zM305.924 184.524h-.46c-5.375 0-10.352 3.673-11.492 10.14l-.577 3.267c-1.17 6.633 2.475 10.135 8.051 10.135h.46c5.014 0 9.521-3.268 10.592-9.333h-4.622c-.631 3.566-2.367 5.234-5.479 5.234-2.626 0-4.436-1.8-3.817-5.302l.834-4.735c.616-3.498 3.032-5.303 5.654-5.303 2.818 0 4.075 1.805 3.458 5.303h4.818c1.11-6.3-2.308-9.406-7.42-9.406zM331.969 184.861l-9.94 10.468 1.844-10.468h-4.95l-4.03 22.872h4.95l1.051-5.967 3.498-3.302 3.712 9.27h5.738l-5.469-13.237 9.27-9.636zM346.124 207.733h4.98l1.621-9.2h8.726l.725-4.104h-8.727l.964-5.469h9.71l1.244-4.099h-15.212zM379.968 184.861h-10.164l-4.031 22.872h4.984l1.551-8.8h3.8c2.92 0 3.026 2.73 2.556 5.4-.501 2.833 1.199 3.63 3.131 3.63.954 0 2.086-.127 2.898-.43l.2-1.135c-1.393-.465-1.19-2.73-.931-4.197.545-3.106-1.137-4.906-2.654-5.434l.03-.171c2.286-.866 4.566-2.999 5.072-5.865.763-4.339-2.74-5.87-6.442-5.87zm1.196 6.603c-.313 1.766-1.722 3.434-3.229 3.434h-4.915l1.047-5.938h5.077c1.545 0 2.272 1.066 2.02 2.504zM392.077 188.96h2.656l-2.588 14.674h-2.656l-.722 4.1h10.36l.722-4.1h-2.622l2.588-14.674h2.622l.721-4.099h-10.36zM417.622 184.861h-8.52l-4.031 22.872h8.52c5.479 0 10.678-3.63 11.823-10.135l.46-2.602c1.147-6.5-2.774-10.135-8.252-10.135zm3.067 9.406l-.714 4.065c-.619 3.502-2.972 5.302-5.662 5.302h-3.439l2.588-14.674h3.439c2.69 0 4.407 1.805 3.788 5.307zM438.65 184.861l-12.194 22.872h4.886l2.368-4.5h8.951l.846 4.5h5.312l-4.133-22.872h-6.036zm-2.878 14.474l4.634-8.971h.161l1.436 8.97h-6.231zM463.295 193.93h-.161l-3.094-9.069h-5.703l5.219 14.107-1.546 8.765h5.048l1.546-8.765 10.16-14.107h-5.18zM183.165 188.324a7.04 7.04 0 100 14.078 7.04 7.04 0 000-14.078zM514.016 188.324a7.04 7.04 0 100 14.078 7.04 7.04 0 000-14.078z"/></svg>