<svg version="1.1" id="Layer_1" xmlns="http://www.w3.org/2000/svg" x="0" y="0" viewBox="0 0 428.299 362.48" xml:space="preserve"><style>.st0{fill:none}.st1{fill:#0c0c0c}.st2{fill:#070303}.st3{fill:#fff}</style><path class="st0" d="M113.23 48.883l-13.653 95.2zM113.23 48.883l-13.918 2.454-3.615 30.127 3.615-30.127 13.918-2.454zM186.84 257.451l6.79-1.197 2.767-.488 1.986 1.987 11.139 11.139v-21.916l-22.681 3.999zM84.069 146.818l15.508-2.734-15.508 2.734zM83.936 54.048l-13.241 2.335 13.24-2.335zM186.84 297.513v8.055l13.099-2.31 2.767-.487 1.987 1.987 4.829 4.829v-16.073l-2.692.475zM53.715 152.17l15.508-2.735-15.508 2.735zM149.606 122.006l-11.322 1.996 15.455-2.725zM147.801 81.892l11.028-1.944zM278.141 294.683v-22.21a34.705 34.705 0 01-4.876 5.918l4.876 16.292zM164.132 53.165V39.907l-10.979 1.936 10.979-1.935zM54.245 59.284l-14.183 2.5 14.183-2.5zM66.005 86.699zM305.843 76.96a30.13 30.13 0 01-2.26 2.55l2.26 7.553V76.96z"/><path class="st1" d="M334.836 187.154l-1.987-1.986-2.767.488-47.48 8.371-4.46.787v26.283a22.966 22.966 0 00-2.975-3.06 22.497 22.497 0 00-2.26-2.26 22.497 22.497 0 00-2.265-2.265 22.56 22.56 0 00-2.266-2.265 22.453 22.453 0 00-2.27-2.27c-2.886-3.281-6.554-5.6-10.91-6.893-.167-.05-.334-.093-.503-.136l-.11-.029a27.5 27.5 0 00-3.574-.717 30.705 30.705 0 00-2.437-.223l-.197-.011a24.079 24.079 0 00-1.416-.044c-.672 0-1.357.024-2.05.062l-.246.01c-.27.01-.541.021-.82.044-1.289.108-2.492.261-3.677.47l-26.184 4.617-4.46.787v8.018l-4.83-4.83-1.986-1.986-2.767.488-47.48 8.372-4.46.786V230.787l-9.087-9.086-1.986-1.987-2.767.489-16.722 2.948-4.46.787v14.877l-10.661-10.66-1.987-1.988-2.767.488-16.72 2.95-4.46.786V347.586l1.58 1.58 11.326 11.327 1.987 1.987 2.767-.489 16.722-2.948 4.46-.787v-14.761c1.558 1.686 4.584 4.683 10.73 10.613l1.978 1.908 2.707-.477 16.72-2.95 4.46-.786v-13.025l9.087 9.086 1.987 1.987 2.767-.488 47.48-8.372 4.46-.786v-8.018l4.829 4.829 1.987 1.987 2.767-.488 16.72-2.948 4.46-.786V318.79l.28.28 11.327 11.327 1.987 1.987 2.767-.488 17.352-3.06 5.973-1.052-1.74-5.81-.767-2.564 5.507 5.506 1.986 1.987 2.768-.488 47.48-8.372 4.46-.786v-22.54l-1.58-1.581-11.327-11.326-1.987-1.987-2.767.488-13.097 2.31v-8.055l19.989-3.525 4.46-.787V247.712l-1.581-1.58-11.326-11.327-1.987-1.987-2.767.488-6.788 1.197v-6.475l26.298-4.638 4.46-.786v-22.542l-1.58-1.581-11.327-11.327zm-199.74 148.794l-16.721 2.949v-48.115l-19.876 3.504V342.4l-16.72 2.949V234.92l16.72-2.95v46.538l19.876-3.504v-46.537l16.72-2.95v110.43zm65.78-11.599l-47.48 8.372v-110.43l47.48-8.372v15.778l-30.76 5.423v30.76l11.327-1.997 13.124-2.313v15.777l-24.45 4.31v32.34l11.326-1.996 19.433-3.427v15.775zm8.646-14.762l-4.83-4.83-1.986-1.986-2.767.488-13.098 2.31v-8.056l19.99-3.524 2.69-.475v16.073zm0-40.695l-11.139-11.139-1.986-1.987-2.767.488-6.79 1.197v-6.476l22.682-3.999v21.916zm42.938 46.362l-12.145-43.45-8.676 1.53v45.591l-16.72 2.948v-110.43l26.184-4.617a35.081 35.081 0 013.191-.407c.31-.026.605-.027.909-.043.73-.04 1.451-.064 2.151-.05.316.005.622.026.931.043a25.28 25.28 0 012.794.3c.718.121 1.414.276 2.092.46.162.044.328.082.488.13 3.505 1.04 6.418 2.932 8.643 5.572 3.199 3.795 4.984 9.117 4.984 15.723v12.147c0 10.256-4.258 18.893-11.512 24.59l14.038 46.904-17.352 3.059zm25.681-20.57l-4.876-16.293a34.704 34.704 0 004.876-5.919v22.211zm52.878-87.936l-30.758 5.425v30.76l11.326-1.997 13.123-2.314v15.777l-24.45 4.312v32.34l30.76-5.425v15.775l-47.481 8.372v-110.43l47.48-8.372v15.777z"/><path class="st1" d="M240.315 222.743l-8.676 1.53v33.284l8.676-1.53c2.83-.5 5.11-1.665 6.82-3.325.15-.146.31-.283.451-.436.246-.269.465-.557.681-.849.168-.225.332-.453.482-.692a10.794 10.794 0 00.894-1.786c.109-.275.219-.547.308-.835.124-.4.217-.821.303-1.246.049-.243.113-.476.15-.726.1-.696.162-1.414.162-2.166v-12.778c0-6.468-3.785-9.586-10.25-8.445z"/><path class="st2" d="M66.497 244.377v-25.14l-25.14 4.432z"/><path class="st1" d="M263.621 154.328l-.79.138v13.286l.79-.138c3.779-.667 6.365-4.003 6.391-7.757 0-3.75-2.583-6.2-6.39-5.53zM286.78 152.608l-2.499 6.96 5.057-.891-2.502-6.078z"/><path class="st1" d="M357.549 193.057l70.75-13.541-20.41-16.208 14.407-27.013-39.606 6.33V117.07L41.356 177.256v26.385L0 212.981l14.857 18.008L1.35 258.002l65.146-13.625-25.14-20.708 25.14-4.433 291.052-51.32 25.14-4.433-25.14 29.574zm-238.16 4.552l-8.512 1.5v-22.413l6.961-1.228c3.863-.681 6.909.223 6.909 4.488 0 2.064-.896 3.99-2.8 5.303 2.8-.005 4.786 1.193 4.786 4.805 0 3.697-2.692 6.725-7.344 7.545zm22.43-3.954l-12.838 2.263v-22.414l5.112-.902v17.932l7.725-1.361v4.482zm17.885-3.155l-1.657-4.189-8.541 1.506-1.66 4.775-5.494.968 9.056-24.01 4.734-.836 9.057 20.817-5.495.97zm17.425-7.69c2.61-.462 4.405-2.163 4.405-2.163l2.177 3.964s-2.502 2.504-7.371 3.363c-6.336 1.118-12.159-3.017-12.159-9.43 0-6.437 5.794-12.676 12.159-13.798 4.869-.859 7.37.765 7.37.765l-2.176 4.73s-1.794-1.069-4.405-.607c-5.14.906-7.397 4.89-7.397 7.878 0 3.016 2.256 6.203 7.397 5.297zm21.908.755l-8.267-8.05v9.508l-5.113.901V163.51l5.113-.901v9.156l7.696-10.513 6.203-1.094-9.03 12.215 10.443 9.95-7.045 1.242zm28.406-22.94l-7.86 1.385v4.458l7.26-1.28v4.481l-7.26 1.28v8.993l-5.112.902V158.43l12.972-2.287v4.482zm14.408 15.39l-6.855-7.648v8.858l-5.113.901v-22.414l8.024-1.414c4.161-.735 7.316.964 7.316 5.366 0 3.37-1.85 5.949-4.597 7.303l7.725 7.903-6.5 1.146zm12.61-2.222l-5.115.901V152.28l5.115-.901v22.414zm9.76-1.722l-6.502 1.148v-22.414l6.502-1.147c6.145-1.083 11.313 2.677 11.313 9.199 0 6.548-5.139 12.126-11.313 13.214zm28.517-5.028l-1.659-4.19-8.539 1.507-1.661 4.774-5.493.969 9.059-24.011 4.732-.834 9.054 20.816-5.493.97zm14.842-12.669v10.052l-5.113.902v-10.053l-8.269-10.903 6.148-1.084 4.676 6.347 4.68-7.997 6.147-1.084-8.27 13.82z"/><path class="st1" d="M235.595 158.78l-.6.106v5.869l.6-.107c1.931-.34 4.243-.884 4.243-3.68 0-2.799-2.312-2.53-4.243-2.188zM119.798 181.344c0-1.602-1.17-2.075-3.4-1.681l-.41.071v4.836l.41-.072c2.203-.388 3.4-1.278 3.4-3.154zM153.749 176.066l-2.502 6.96 5.059-.892-2.502-6.078zM117.595 188.688l-1.606.282v5.299l1.606-.282c2.42-.427 3.752-1.395 3.752-3.163 0-2.064-1.332-2.563-3.752-2.136z"/><path class="st2" d="M382.69 163.483l-25.141 4.433v25.14z"/><path class="st3" d="M121.946 185.26c1.905-1.315 2.8-3.24 2.8-5.304 0-4.265-3.045-5.17-6.908-4.488l-6.961 1.228v22.414l8.512-1.501c4.652-.82 7.344-3.848 7.344-7.545 0-3.612-1.986-4.81-4.787-4.805zm-5.957-5.525l.41-.072c2.229-.394 3.4.08 3.4 1.68 0 1.877-1.198 2.767-3.4 3.155l-.41.072v-4.835zm1.606 14.252l-1.606.282v-5.299l1.606-.282c2.42-.427 3.752.072 3.752 2.136 0 1.768-1.332 2.736-3.752 3.163zM134.093 172.602l-5.112.902v22.414l12.837-2.263v-4.482l-7.725 1.361zM151.408 169.55l-9.056 24.01 5.495-.968 1.659-4.775 8.541-1.506 1.657 4.19 5.495-.97-9.057-20.817-4.734.836zm-.161 13.476l2.502-6.96.055-.01 2.502 6.078-5.06.892zM177.13 169.634c2.61-.462 4.404.607 4.404.607l2.177-4.73s-2.502-1.624-7.371-.765c-6.365 1.122-12.159 7.36-12.159 13.798 0 6.413 5.823 10.548 12.159 9.43 4.869-.859 7.37-3.363 7.37-3.363l-2.176-3.964s-1.794 1.701-4.405 2.162c-5.14.906-7.397-2.281-7.397-5.297 0-2.988 2.256-6.972 7.397-7.878zM204.669 160.158l-6.203 1.094-7.696 10.513v-9.156l-5.113.901v22.414l5.113-.901v-9.508l8.267 8.05 7.045-1.242-10.443-9.95zM214.471 180.844l5.112-.902v-8.992l7.26-1.281v-4.482l-7.26 1.281v-4.458l7.86-1.385v-4.482l-12.972 2.287zM245.223 159.664c0-4.402-3.155-6.1-7.316-5.366l-8.024 1.414v22.414l5.113-.901v-8.858l6.855 7.649 6.5-1.146-7.725-7.903c2.747-1.354 4.597-3.933 4.597-7.303zm-9.628 4.984l-.6.107v-5.87l.6-.105c1.931-.341 4.243-.611 4.243 2.187 0 2.797-2.312 3.34-4.243 3.681zM249.346 174.694l5.115-.901v-22.414l-5.115.901zM264.22 149.658l-6.5 1.147v22.413l6.5-1.147c6.175-1.088 11.314-6.666 11.314-13.214 0-6.522-5.168-10.282-11.313-9.2zm-.599 17.956l-.79.138v-13.286l.79-.138c3.808-.672 6.391 1.78 6.391 5.529-.026 3.754-2.612 7.09-6.39 7.757zM284.445 146.092l-9.06 24.01 5.494-.968 1.661-4.774 8.54-1.507 1.658 4.19 5.493-.969-9.054-20.816-4.732.834zm-.164 13.476l2.5-6.96.055-.01 2.502 6.079-5.057.891zM305.022 149.635l-4.676-6.347-6.148 1.084 8.27 10.903v10.053l5.112-.902v-10.052l8.269-13.82-6.148 1.084z"/><path class="st1" d="M198.835 139.79l1.988 1.987 2.766-.488 14.05-2.478 3.847-.678.558-3.865 1.61-11.134.922.922 9.518 9.518 1.986 1.986 2.767-.488 14.315-2.523 5.286-.932-.682-4 1.515 1.516 1.986 1.987 2.768-.489 14.05-2.477 4.46-.787v-12.079l8.281 8.282 1.987 1.987 2.767-.488 14.581-2.571 5.973-1.053-1.404-4.69 2.211 2.21 1.987 1.987 2.767-.488 39.898-7.035 4.46-.786v-20.02l-1.58-1.581-9.518-9.518-1.987-1.986-2.767.488-9.996 1.762V76.77l16.085-2.836 4.46-.786V53.125l-1.58-1.58-9.518-9.518-1.987-1.987-2.767.488-4.693.827v-3.69l21.388-3.771 4.46-.787V13.085l-1.58-1.58-9.518-9.518L352.968 0l-2.767.488-39.898 7.035-4.46.786v20.574a20.243 20.243 0 00-1.028-.952 19.768 19.768 0 00-1.898-1.897 19.761 19.761 0 00-1.903-1.903 19.744 19.744 0 00-1.903-1.904 19.769 19.769 0 00-1.909-1.907c-2.528-2.858-5.732-4.877-9.532-6.006-.15-.044-.304-.085-.457-.124a24.606 24.606 0 00-5.309-.839l-.17-.009a20.441 20.441 0 00-.797-.034l-.435-.004c-.579 0-1.169.02-1.766.053l-.186.008c-.243.008-.487.019-.738.04-1.11.092-2.147.225-3.166.405l-22.004 3.88-4.46.786v52.991l-6.012-35.225-.289-1.693-1.215-1.215-9.517-9.517-1.987-1.987-2.767.488-18.822 3.319-3.781.666-.61 3.791-15.376 95.505-.439 2.723 1.951 1.951 9.517 9.518zM311.24 12.839l39.898-7.035v13.258l-25.848 4.557v25.848l9.518-1.678 11.028-1.944V59.1l-20.546 3.622v27.175l25.848-4.557v13.256l-39.898 7.035V12.838zm-5.397 64.122v10.103l-2.26-7.552a30.13 30.13 0 002.26-2.55zM253.58 23.005l22.003-3.88c.919-.162 1.81-.27 2.682-.342.26-.022.509-.022.765-.036a24.869 24.869 0 011.806-.042c.265.005.522.023.782.036a21.238 21.238 0 012.347.253c.605.101 1.19.232 1.76.386.136.037.275.069.408.109 2.946.874 5.394 2.464 7.264 4.683 2.688 3.189 4.189 7.66 4.189 13.21V47.59c0 8.618-3.579 15.876-9.676 20.663l11.797 39.412-14.581 2.57-10.206-36.51-7.29 1.286v38.31l-14.05 2.478V23.005zm-45.07 7.947l18.822-3.319 15.375 90.083-14.314 2.524-3.049-20.008-15.111 2.663-3.048 21.084-14.05 2.478 15.375-95.505z"/><path class="st1" d="M277.147 59.853h.002c1.381-.51 2.546-1.25 3.501-2.176.127-.124.262-.24.382-.37.206-.225.39-.467.571-.712.141-.19.28-.38.406-.582a9.02 9.02 0 00.752-1.503c.09-.23.183-.457.257-.698.105-.338.184-.692.256-1.05.041-.204.095-.399.125-.609.085-.584.137-1.188.137-1.82V39.597c0-2.377-.609-4.216-1.749-5.453-1.466-1.59-3.81-2.182-6.867-1.643l-7.29 1.285v27.969l7.29-1.286c.798-.14 1.53-.358 2.227-.615zM217.789 49.2l-5.7 39.847 11.4-2.01z"/><path class="st3" d="M210.233 102.895l15.111-2.664 3.049 20.009 14.314-2.524-15.375-90.083-18.822 3.32-15.375 95.504 14.05-2.478 3.048-21.084zm7.556-53.694l5.7 37.836-11.4 2.01 5.7-39.846zM267.63 75.011l7.29-1.285 10.206 36.51 14.58-2.57-11.796-39.413c6.097-4.787 9.676-12.045 9.676-20.663V37.383c0-5.55-1.5-10.022-4.189-13.211-1.87-2.219-4.318-3.809-7.264-4.683-.133-.04-.272-.072-.407-.109a18.36 18.36 0 00-2.417-.485 21.238 21.238 0 00-1.69-.154c-.26-.013-.518-.031-.783-.036a24.863 24.863 0 00-1.806.042c-.256.014-.505.014-.765.036a29.45 29.45 0 00-2.682.342l-22.003 3.88V115.8l14.05-2.478V75.01zm0-41.226l7.29-1.285c3.057-.54 5.4.054 6.867 1.643 1.14 1.237 1.75 3.076 1.75 5.454v10.737c0 .631-.053 1.235-.138 1.82-.03.21-.084.404-.125.608-.072.358-.15.712-.256 1.05-.074.24-.166.469-.257.698a9.022 9.022 0 01-.752 1.502 8.846 8.846 0 01-.406.583 8.827 8.827 0 01-.571.712c-.12.13-.255.246-.382.37-.955.926-2.12 1.666-3.501 2.175h-.002c-.697.258-1.43.476-2.227.616l-7.29 1.286V33.785zM351.138 85.34l-25.848 4.558V62.723l20.546-3.622V45.844l-11.028 1.944-9.518 1.678V23.618l25.848-4.557V5.803l-39.898 7.035v92.794l39.898-7.035z"/><path class="st1" d="M48.378 152.976l.265 1.755 1.256 1.255 9.517 9.518 1.987 1.987 2.767-.488 15.508-2.735 3.949-.696.473-3.982.543-4.565 5.127 5.127 1.987 1.987 2.767-.488 15.508-2.734 3.85-.68.556-3.87 4.398-30.672v18.276l1.581 1.581 9.517 9.518 1.987 1.986 2.767-.487 39.899-7.035 4.46-.787v-20.02l-1.581-1.581-9.518-9.517-1.986-1.987-2.767.488-9.996 1.762v-5.018l16.085-2.836 4.46-.786V87.23l-1.58-1.581-9.518-9.518-1.987-1.987-2.767.488-4.693.828v-3.691l21.388-3.771 4.46-.786V47.189l-1.581-1.58-4.962-4.962-6.542-6.543-2.768.488-39.898 7.035-4.46.786v4.443l-1.79-1.79-1.986-1.986-2.767.488-13.918 2.453-3.944.696-.477 3.977-.616 5.124-5.586-5.587-1.986-1.986-2.768.488-14.314 2.524-3.944.696-.477 3.976-.615 5.124-5.586-5.586-1.987-1.987-2.767.488-14.183 2.5-5.187.914.787 5.208 13.653 90.386zm75.856-106.034l28.92-5.099 10.978-1.936v13.258l-25.848 4.557V83.57l9.517-1.678 11.028-1.944v13.257l-20.545 3.622v27.175l11.322-1.996 4.133-.729 10.393-1.832v13.256l-39.898 7.035V46.942zM40.062 61.784l14.183-2.5 7.687 61.346 4.073-33.93v-.001l3.617-30.127 1.073-.189 13.24-2.335 7.69 61.346 7.687-64.057-3.615 30.127 3.615-30.127 13.918-2.454-13.653 95.2-15.508 2.735-1.984-15.986-5.439-43.816-7.423 62.42-15.508 2.734-13.653-90.386z"/><path class="st3" d="M53.715 152.17l15.508-2.735 7.423-62.419 5.439 43.816 1.984 15.986 15.508-2.734 13.653-95.2-13.918 2.453-7.688 64.057-7.688-61.346-13.241 2.335-1.073.19-3.617 30.126-4.073 33.931-7.687-61.346-14.183 2.5zM164.132 119.445l-10.393 1.832-15.455 2.725V96.827l20.545-3.622V79.948l-11.028 1.944-9.517 1.678V57.722l25.848-4.557V39.908l-10.979 1.935-28.92 5.1v92.793l39.899-7.035zM118.375 275.004L98.5 278.508v-46.537l-16.721 2.949v110.43l16.72-2.95v-48.114l19.876-3.504v48.115l16.72-2.95v-110.43l-16.72 2.95zM170.117 313.998v-32.34l24.45-4.31V261.57l-13.124 2.313-11.326 1.997v-30.76l30.76-5.423v-15.778l-47.48 8.372v110.43l47.48-8.372v-15.775l-19.434 3.427zM267.286 240.701v-12.147c0-6.606-1.785-11.928-4.984-15.723-2.225-2.64-5.138-4.532-8.643-5.573-.16-.047-.326-.085-.488-.13a21.857 21.857 0 00-2.875-.576 25.275 25.275 0 00-2.011-.183c-.31-.017-.615-.038-.93-.044-.7-.013-1.422.01-2.152.05-.304.017-.6.018-.909.044a35.085 35.085 0 00-3.191.407l-26.184 4.617v110.43l16.72-2.948v-45.59l8.676-1.53 12.145 43.449 17.352-3.06-14.038-46.902c7.254-5.698 11.512-14.335 11.512-24.59zm-16.72-6.443v9.708c0 .752-.062 1.47-.163 2.166-.036.25-.1.483-.149.726-.086.425-.18.845-.303 1.246-.09.288-.2.56-.308.835a10.794 10.794 0 01-.894 1.786c-.15.24-.314.467-.482.692-.216.292-.435.58-.681.849-.14.153-.3.29-.45.436-1.71 1.66-3.99 2.826-6.82 3.325l-8.677 1.53v-33.285l8.676-1.53c6.466-1.14 10.251 1.978 10.251 8.447v3.07zM283.539 309.773l47.48-8.372v-15.775l-30.758 5.424v-32.34l24.449-4.311v-15.777l-13.123 2.314-11.326 1.997v-30.76l30.758-5.425v-15.777l-47.48 8.372z"/></svg>