<svg version="1.1" id="Layer_1" xmlns="http://www.w3.org/2000/svg" x="0" y="0" viewBox="0 0 443.144 118.249" xml:space="preserve"><style>.st0{fill:#562af4}.st1{fill:#ffb000}.st2{fill:#fff}</style><path class="st0" d="M8.823 27.763v22.333c0 1.378-.958 2.395-2.275 2.395H2.775C1.518 52.491.5 51.474.5 50.096V13.093c0-1.557 1.197-2.814 2.694-2.814h4.312c1.017 0 1.796.479 2.394 1.377l13.114 23.412V12.674c0-1.377 1.017-2.395 2.275-2.395h3.832c1.257 0 2.215 1.018 2.215 2.395v37.003c0 1.557-1.197 2.814-2.694 2.814H24.27c-.958 0-1.795-.48-2.394-1.377L8.823 27.763z"/><path d="M28.642 52.991H24.27c-1.125 0-2.123-.568-2.811-1.6L9.323 29.682v20.415c0 1.65-1.193 2.895-2.775 2.895H2.775C1.22 52.991 0 51.72 0 50.096V13.093c0-1.828 1.433-3.315 3.194-3.315h4.312c1.157 0 2.103.539 2.81 1.6l12.198 21.774V12.674c0-1.624 1.219-2.896 2.775-2.896h3.832c1.548 0 2.715 1.245 2.715 2.896v37.003c0 1.827-1.433 3.314-3.194 3.314zM8.323 25.843l13.99 25.027c.483.722 1.167 1.121 1.958 1.121h4.37c1.21 0 2.195-1.038 2.195-2.314V12.674c0-1.098-.721-1.896-1.715-1.896H25.29c-1.012 0-1.775.815-1.775 1.896v24.31L9.464 11.9c-.505-.755-1.133-1.122-1.958-1.122H3.194C1.984 10.778 1 11.816 1 13.093v37.003c0 1.08.763 1.895 1.775 1.895h3.773c1.029 0 1.775-.797 1.775-1.895V25.843z"/><path class="st0" d="M50.731 19.2v7.066h9.162c1.256 0 2.275 1.017 2.275 2.335v4.012c0 1.317-1.019 2.334-2.275 2.334H50.73v8.623h12.694c1.258 0 2.275 1.078 2.275 2.395v4.13c0 1.379-1.017 2.396-2.275 2.396H45.402c-1.975 0-3.413-1.676-3.413-3.592V13.87c0-.958.36-1.855 1.019-2.514.598-.72 1.496-1.078 2.394-1.078h18.023c1.258 0 2.275 1.018 2.275 2.395v4.132c0 1.316-1.017 2.394-2.275 2.394H50.73z"/><path d="M63.425 52.991H45.402c-2.157 0-3.913-1.836-3.913-4.093V13.871c0-1.098.414-2.117 1.165-2.868.636-.766 1.649-1.225 2.748-1.225h18.023c1.556 0 2.775 1.272 2.775 2.896v4.132c0 1.596-1.245 2.894-2.775 2.894H51.23v6.066h8.662c1.556 0 2.775 1.245 2.775 2.835v4.011c0 1.59-1.219 2.835-2.775 2.835H51.23v7.622h12.194c1.53 0 2.775 1.3 2.775 2.896v4.13c0 1.624-1.219 2.896-2.775 2.896zM45.402 10.778c-.801 0-1.535.327-2.01.898a3.064 3.064 0 00-.903 2.195v35.027c0 1.735 1.28 3.093 2.913 3.093h18.023c1.012 0 1.775-.815 1.775-1.895v-4.131c0-1.046-.797-1.896-1.775-1.896H50.23v-9.622h9.662c.995 0 1.775-.806 1.775-1.835v-4.011c0-1.03-.78-1.835-1.775-1.835H50.23V18.7h13.194c.978 0 1.775-.85 1.775-1.894v-4.132c0-1.08-.763-1.896-1.775-1.896H45.402z"/><path class="st0" d="M83.24 19.2v7.066h9.161c1.257 0 2.276 1.017 2.276 2.335v4.012c0 1.317-1.019 2.334-2.276 2.334h-9.16v8.623h12.693c1.257 0 2.275 1.078 2.275 2.395v4.13c0 1.379-1.018 2.396-2.275 2.396H77.91c-1.976 0-3.413-1.676-3.413-3.592V13.87c0-.958.36-1.855 1.019-2.514.598-.72 1.496-1.078 2.394-1.078h18.023c1.257 0 2.275 1.018 2.275 2.395v4.132c0 1.316-1.018 2.394-2.275 2.394H83.24z"/><path d="M95.934 52.991H77.91c-2.157 0-3.913-1.836-3.913-4.093V13.871c0-1.098.414-2.117 1.165-2.868.636-.766 1.649-1.225 2.748-1.225h18.023c1.556 0 2.775 1.272 2.775 2.896v4.132c0 1.596-1.245 2.894-2.775 2.894H83.74v6.066h8.661c1.557 0 2.776 1.245 2.776 2.835v4.011c0 1.59-1.219 2.835-2.776 2.835h-8.66v7.622h12.193c1.53 0 2.775 1.3 2.775 2.896v4.13c0 1.624-1.219 2.896-2.775 2.896zM77.91 10.778c-.802 0-1.535.327-2.01.898a3.064 3.064 0 00-.903 2.195v35.027c0 1.735 1.28 3.093 2.913 3.093h18.023c1.011 0 1.775-.815 1.775-1.895v-4.131c0-1.046-.797-1.896-1.775-1.896H82.74v-9.622h9.661c.995 0 1.776-.806 1.776-1.835v-4.011c0-1.03-.78-1.835-1.776-1.835h-9.66V18.7h13.193c.978 0 1.775-.85 1.775-1.894v-4.132c0-1.08-.764-1.896-1.775-1.896H77.91z"/><path class="st0" d="M136.587 35.786c0 8.921-6.527 16.705-15.748 16.705H110.48c-1.975 0-3.412-1.676-3.412-3.592V13.87c0-.958.359-1.855 1.018-2.514.598-.72 1.497-1.078 2.394-1.078h10.359c9.221 0 15.748 7.843 15.748 16.765v8.742zm-8.742-8.922c0-4.011-3.114-7.664-7.245-7.664h-4.79v24.37h4.79c4.131 0 7.245-3.712 7.245-7.724v-8.982z"/><path d="M120.839 52.991H110.48c-2.157 0-3.912-1.836-3.912-4.093V13.871c0-1.099.413-2.118 1.164-2.868.636-.766 1.649-1.225 2.748-1.225h10.359c9.111 0 16.248 7.584 16.248 17.266v8.742c0 9.648-7.137 17.205-16.248 17.205zM110.48 10.778c-.801 0-1.535.327-2.01.898a3.064 3.064 0 00-.902 2.195v35.027c0 1.735 1.28 3.093 2.912 3.093h10.359c8.55 0 15.248-7.118 15.248-16.205v-8.742c0-9.121-6.697-16.266-15.248-16.266H110.48zM120.6 44.07h-5.29V18.7h5.29c4.27 0 7.745 3.663 7.745 8.164v8.982c0 4.457-3.547 8.223-7.745 8.223zm-4.29-1h4.29c3.656 0 6.745-3.308 6.745-7.223v-8.982c0-3.883-3.09-7.164-6.745-7.164h-4.29v23.37z"/><path class="st0" d="M190.05 10.04c1.257 0 2.275 1.077 2.275 2.395v37.66c0 1.379-1.018 2.396-2.275 2.396h-4.251c-1.258 0-2.216-1.017-2.216-2.395v-14.91H170.05v14.91c0 1.378-.958 2.395-2.215 2.395h-4.251c-1.258 0-2.276-1.017-2.276-2.395V12.435c0-1.318 1.018-2.396 2.276-2.396h4.25c1.258 0 2.216 1.078 2.216 2.396v13.89h13.532v-13.89c0-1.318.958-2.396 2.216-2.396h4.25z"/><path d="M190.05 52.991h-4.251c-1.548 0-2.716-1.244-2.716-2.895v-14.41h-12.532v14.41c0 1.65-1.167 2.895-2.715 2.895h-4.251c-1.557 0-2.775-1.272-2.775-2.895V12.435c0-1.597 1.245-2.896 2.775-2.896h4.25c1.523 0 2.716 1.272 2.716 2.896v13.39h12.532v-13.39c0-1.624 1.193-2.896 2.716-2.896h4.25c1.531 0 2.776 1.299 2.776 2.896v37.66c0 1.624-1.219 2.896-2.775 2.896zm-20.5-18.304h14.533v15.409c0 1.098.722 1.895 1.716 1.895h4.25c1.013 0 1.776-.815 1.776-1.895V12.435c0-1.046-.797-1.896-1.775-1.896h-4.251c-.962 0-1.716.833-1.716 1.896v14.39h-14.532v-14.39c0-1.063-.753-1.896-1.715-1.896h-4.251c-.979 0-1.775.85-1.775 1.896v37.66c0 1.081.763 1.896 1.775 1.896h4.25c.994 0 1.716-.797 1.716-1.895v-15.41z"/><g><path class="st0" d="M211.6 19.2v7.066h9.16c1.258 0 2.276 1.017 2.276 2.335v4.012c0 1.317-1.018 2.334-2.275 2.334H211.6v8.623h12.693c1.258 0 2.275 1.078 2.275 2.395v4.13c0 1.379-1.017 2.396-2.275 2.396H206.27c-1.975 0-3.413-1.676-3.413-3.592V13.87c0-.958.36-1.855 1.019-2.514.599-.72 1.496-1.078 2.394-1.078h18.023c1.258 0 2.275 1.018 2.275 2.395v4.132c0 1.316-1.017 2.394-2.275 2.394H211.6z"/><path d="M224.293 52.991h-18.022c-2.158 0-3.914-1.836-3.914-4.093V13.871c0-1.098.414-2.117 1.165-2.868.636-.766 1.649-1.225 2.749-1.225h18.022c1.557 0 2.775 1.272 2.775 2.896v4.132c0 1.596-1.245 2.894-2.775 2.894H212.1v6.066h8.66c1.557 0 2.776 1.245 2.776 2.835v4.011c0 1.59-1.219 2.835-2.775 2.835H212.1v7.622h12.193c1.53 0 2.775 1.3 2.775 2.896v4.13c0 1.624-1.218 2.896-2.775 2.896zm-18.022-42.213c-.802 0-1.536.327-2.011.898a3.064 3.064 0 00-.903 2.195v35.027c0 1.735 1.28 3.093 2.914 3.093h18.022c1.012 0 1.775-.815 1.775-1.895v-4.131c0-1.046-.797-1.896-1.775-1.896H211.1v-9.622h9.66c.996 0 1.776-.806 1.776-1.835v-4.011c0-1.03-.78-1.835-1.775-1.835H211.1V18.7h13.193c.978 0 1.775-.85 1.775-1.894v-4.132c0-1.08-.763-1.896-1.775-1.896h-18.022z"/></g><g><path class="st0" d="M241.475 10.279c1.257 0 2.275 1.018 2.275 2.395V43.57h11.137c1.257 0 2.215 1.078 2.215 2.395v4.13c0 1.379-.958 2.396-2.215 2.396H238.42c-1.976 0-3.413-1.676-3.413-3.592V12.674c0-1.377 1.018-2.395 2.275-2.395h4.192z"/><path d="M254.887 52.991H238.42c-2.157 0-3.913-1.836-3.913-4.093V12.674c0-1.624 1.219-2.896 2.775-2.896h4.192c1.556 0 2.775 1.272 2.775 2.896v30.395h10.637c1.522 0 2.716 1.272 2.716 2.896v4.13c0 1.652-1.168 2.896-2.716 2.896zm-17.604-42.213c-1.012 0-1.775.815-1.775 1.896v36.224c0 1.735 1.28 3.093 2.913 3.093h16.466c.994 0 1.716-.797 1.716-1.895v-4.131c0-1.063-.754-1.896-1.716-1.896H243.25V12.674c0-1.08-.764-1.896-1.775-1.896h-4.192z"/></g><g><path class="st0" d="M276.857 38.36h-4.13v11.736c0 1.378-.959 2.395-2.216 2.395h-4.251c-1.258 0-2.216-1.017-2.216-2.395V13.87c0-1.916 1.437-3.592 3.413-3.592h9.4c7.545 0 13.473 6.646 13.473 14.011 0 7.424-5.868 14.07-13.473 14.07zm3.234-17.722c-.899-1.019-2.156-1.558-3.532-1.558h-3.833V29.56h3.833c2.753 0 5.029-2.395 5.029-5.269 0-1.378-.54-2.694-1.497-3.652z"/><path d="M270.51 52.991h-4.25c-1.548 0-2.716-1.244-2.716-2.895V13.87c0-2.257 1.756-4.093 3.913-4.093h9.4c7.575 0 13.973 6.646 13.973 14.512 0 7.898-6.398 14.57-13.973 14.57h-3.63v11.236c0 1.65-1.168 2.895-2.716 2.895zm-3.053-42.213c-1.634 0-2.913 1.359-2.913 3.093v36.225c0 1.098.722 1.895 1.716 1.895h4.25c.995 0 1.717-.797 1.717-1.895V37.86h4.63c7.033 0 12.973-6.214 12.973-13.57 0-7.324-5.94-13.512-12.973-13.512h-9.4zm9.102 19.28h-4.332V18.58h4.332c1.532 0 2.915.609 3.896 1.715a5.695 5.695 0 011.633 3.995c0 3.18-2.48 5.769-5.53 5.769zm-3.332-1h3.332c2.455 0 4.529-2.183 4.529-4.768a4.69 4.69 0 00-1.35-3.299l-.022-.023c-.79-.895-1.911-1.388-3.157-1.388h-3.332v9.479z"/></g><g><path class="st0" d="M305.773 40.336l-.48.12c-.537 0-.957-.239-1.256-.778-.898-1.857-1.377-3.652-1.377-5.389 0-4.37 2.874-7.006 5.867-9.76 1.438-1.376 2.455-2.455 2.994-3.233s.838-1.616.838-2.395c0-2.335-1.975-3.473-4.13-3.473-2.396 0-4.79 1.258-6.647 2.694-.299.18-.54.3-.838.3-.36 0-.66-.18-.898-.539l-2.096-3.113c-.18-.18-.24-.48-.24-.779 0-.419.18-.778.48-1.078 3.233-2.694 6.705-4.011 10.418-4.011 6.108 0 10.777 3.652 10.777 9.88 0 3.95-1.856 6.466-4.55 9.16l-1.138 1.138c-1.377 1.257-2.335 2.275-2.934 3.054-.598.778-.898 1.616-.898 2.454 0 .778.18 1.677.599 2.694.06.24.12.42.12.54 0 .18-.06.418-.18.598-.18.18-.36.36-.539.42l-3.892 1.496zm-3.891 9.22a4.957 4.957 0 014.97-4.968c2.813 0 4.968 2.155 4.968 4.969 0 2.814-2.155 4.97-4.968 4.97a4.958 4.958 0 01-4.97-4.97z"/><path d="M306.852 55.027a5.477 5.477 0 01-5.47-5.47 5.476 5.476 0 015.47-5.47c3.066 0 5.468 2.403 5.468 5.47 0 3.067-2.402 5.47-5.468 5.47zm0-9.94a4.474 4.474 0 00-4.47 4.47 4.475 4.475 0 004.47 4.47c2.547 0 4.468-1.922 4.468-4.47s-1.92-4.47-4.468-4.47zm-1.497-4.131h-.061c-.732 0-1.318-.358-1.694-1.036-.96-1.981-1.44-3.867-1.44-5.631 0-4.581 3.055-7.392 6.009-10.11 1.497-1.432 2.455-2.465 2.941-3.168.484-.697.75-1.447.75-2.11 0-2.195-1.957-2.973-3.631-2.973-1.931 0-4.183.92-6.341 2.59-.36.22-.702.404-1.144.404-.368 0-.895-.132-1.314-.762l-2.095-3.111c-.194-.182-.324-.563-.324-1.058 0-.526.216-1.021.624-1.431 3.321-2.77 6.934-4.159 10.773-4.159 6.745 0 11.278 4.172 11.278 10.38 0 4.012-1.797 6.615-4.698 9.515l-1.137 1.138c-1.3 1.187-2.267 2.192-2.891 3.004-.527.687-.795 1.41-.795 2.15 0 .757.189 1.6.56 2.504l.068.236c.05.19.09.34.09.493 0 .302-.098.63-.263.877-.28.293-.505.518-.796.615l-3.93 1.508-.539.135zm2.874-26.028c2.304 0 4.63 1.228 4.63 3.972 0 .878-.32 1.805-.926 2.68-.533.77-1.505 1.821-3.06 3.31-2.951 2.715-5.713 5.257-5.713 9.399 0 1.612.446 3.352 1.327 5.171.18.323.41.48.75.495l.385-.097 3.863-1.485c.092-.033.263-.204.366-.307 0-.017.033-.158.033-.245-.004-.055-.03-.134-.057-.234l-.048-.183c-.4-.957-.614-1.927-.614-2.816 0-.953.347-1.907 1.002-2.759.66-.858 1.666-1.907 2.993-3.118l1.121-1.122c2.719-2.72 4.405-5.141 4.405-8.808 0-5.61-4.13-9.38-10.278-9.38-3.598 0-6.996 1.31-10.098 3.896a.977.977 0 00-.3.694c0 .262.06.39.094.425l2.157 3.188c.187.282.356.318.483.318.152 0 .293-.056.58-.229 1.602-1.243 4.148-2.765 6.905-2.765z"/></g><g><path class="st1" d="M15.524 87.376c-.148-1.444-.704-1.815-3.742-3.111l-.963-.408c-3.52-1.593-5.706-3.704-5.706-7.78 0-4.669 3.26-7.891 7.817-7.891 2.446 0 4.965.888 6.928 2.408.519.37.704 1.186.408 1.778l-1.075 2.186a1.318 1.318 0 01-1.222.815c-.297 0-.593-.074-.852-.222l-.037-.038c-1.927-1.296-3.408-1.518-4.113-1.518-1.555 0-2.482.889-2.482 2.26 0 1.185.556 2.037 3.482 3.334.149.037.593.222 2.26.926 2.964 1.296 4.67 3.853 4.67 7.002 0 4.891-3.706 8.077-8.374 8.077-2.408 0-4.928-.852-7.076-2.409-.519-.333-.704-1.185-.408-1.778l1.148-2.185a1.32 1.32 0 011.223-.816c.297 0 .593.074.852.26H8.3c1.482 1 2.927 1.518 4.187 1.518 1.853 0 3.001-.925 3.038-2.408z"/><path d="M12.523 95.693c-2.524 0-5.142-.889-7.37-2.503-.7-.449-.974-1.581-.562-2.406l1.154-2.195a1.792 1.792 0 011.665-1.083c.369 0 .704.087 1 .26h.005l.164.085c1.389.938 2.74 1.433 3.907 1.433 1.546 0 2.492-.705 2.537-1.89-.116-1.085-.384-1.367-3.438-2.67l-.961-.407c-4.217-1.908-6.011-4.371-6.011-8.24 0-4.941 3.42-8.391 8.317-8.391 2.534 0 5.171.916 7.234 2.512.703.502.957 1.582.55 2.397l-1.074 2.183a1.797 1.797 0 01-1.67 1.095c-.392 0-.773-.1-1.102-.289l-.105-.08c-1.885-1.27-3.283-1.41-3.796-1.41-1.26 0-1.982.642-1.982 1.76 0 .831.234 1.57 3.185 2.877.102.019.44.158 2.251.924 3.164 1.383 4.975 4.102 4.975 7.462 0 4.97-3.731 8.576-8.873 8.576zM7.41 88.506a.824.824 0 00-.764.513l-1.165 2.22c-.18.361-.063.933.236 1.125 2.082 1.508 4.49 2.33 6.806 2.33 4.562 0 7.873-3.187 7.873-7.577 0-2.945-1.593-5.33-4.37-6.544-1.348-.57-2.06-.87-2.18-.9-2.908-1.28-3.861-2.237-3.861-3.819 0-1.676 1.17-2.76 2.982-2.76.75 0 2.319.21 4.392 1.605l.06.046c.45.227 1.098.115 1.312-.384l1.086-2.21c.188-.376.069-.923-.25-1.15-1.906-1.476-4.32-2.315-6.637-2.315-4.308 0-7.317 3.039-7.317 7.39 0 3.463 1.568 5.585 5.412 7.325l.952.403c2.926 1.248 3.86 1.729 4.044 3.52l.003.032v.033c-.045 1.758-1.433 2.895-3.538 2.895-1.33 0-2.827-.524-4.338-1.518h-.009l-.167-.094a.947.947 0 00-.562-.166z"/><path class="st1" d="M33.901 85.969h-2.52v7.26c0 .853-.63 1.483-1.408 1.483h-2.592c-.779 0-1.409-.63-1.409-1.482V70.816c0-.593.223-1.149.63-1.556.37-.444.926-.667 1.483-.667H33.9c4.705 0 8.336 4.075 8.336 8.669 0 4.632-3.594 8.707-8.336 8.707zm-.148-11.93H31.38v6.484h2.372c1.704 0 3.075-1.483 3.075-3.261 0-1.704-1.297-3.223-3.075-3.223z"/><path d="M29.973 95.212H27.38c-1.07 0-1.908-.87-1.908-1.983V70.815c0-.73.276-1.408.777-1.909.417-.505 1.098-.813 1.835-.813h5.817c4.872 0 8.836 4.113 8.836 9.169 0 5.076-3.964 9.207-8.836 9.207h-2.02v6.76c0 1.112-.838 1.983-1.908 1.983zm-1.889-26.12c-.44 0-.84.178-1.098.488a1.72 1.72 0 00-.514 1.235V93.23c0 .56.39.983.908.983h2.593c.518 0 .908-.422.908-.983v-7.76h3.02c4.32 0 7.836-3.682 7.836-8.207 0-4.505-3.515-8.17-7.836-8.17h-5.817zm5.668 11.93h-2.87V73.54h2.87c1.972 0 3.576 1.67 3.576 3.723 0 2.073-1.604 3.76-3.576 3.76zm-1.87-1h1.87c1.42 0 2.576-1.238 2.576-2.76 0-1.502-1.156-2.723-2.576-2.723h-1.87v5.483z"/><path class="st1" d="M53.02 74.113v4.372h5.668c.778 0 1.408.63 1.408 1.445v2.482c0 .815-.63 1.445-1.408 1.445H53.02v5.335h7.854c.778 0 1.408.667 1.408 1.482v2.556c0 .852-.63 1.482-1.408 1.482H49.722c-1.222 0-2.111-1.037-2.111-2.223V70.816c0-.593.222-1.149.63-1.556.37-.444.926-.667 1.481-.667h11.152c.778 0 1.408.63 1.408 1.482v2.556c0 .816-.63 1.482-1.408 1.482H53.02z"/><path d="M60.874 95.212H49.723c-1.44 0-2.612-1.221-2.612-2.723V70.815c0-.732.276-1.41.777-1.91.418-.504 1.097-.812 1.835-.812h11.151c1.07 0 1.908.87 1.908 1.982v2.556c0 1.093-.856 1.982-1.908 1.982h-7.353v3.371h5.167c1.07 0 1.909.855 1.909 1.946v2.482c0 1.09-.838 1.944-1.909 1.944h-5.167v4.335h7.353c1.052 0 1.908.89 1.908 1.983v2.555c0 1.112-.838 1.983-1.908 1.983zm-11.151-26.12c-.44 0-.84.178-1.098.488a1.719 1.719 0 00-.514 1.235V92.49c0 .966.708 1.723 1.612 1.723h11.151c.518 0 .908-.422.908-.983v-2.555c0-.542-.407-.983-.908-.983h-8.353v-6.335h6.167c.51 0 .909-.415.909-.944V79.93c0-.53-.4-.946-.909-.946h-6.167v-5.37h8.353c.501 0 .908-.442.908-.983v-2.556c0-.56-.39-.982-.908-.982H49.723z"/><path class="st1" d="M86.106 92.674c.037.148.074.297.074.52 0 .851-.667 1.518-1.482 1.518h-2.371c-.778 0-1.445-.518-1.667-1.334l-1.333-4.408h-6.632l-1.297 4.408c-.26.816-.927 1.334-1.704 1.334h-2.297c-.815 0-1.482-.667-1.482-1.518 0-.223.037-.372.074-.52l7.076-22.97a1.78 1.78 0 011.704-1.297h2.557c.778 0 1.444.52 1.667 1.297l7.113 22.97zM76.03 77.633l-1.741 5.965h3.445l-1.704-5.965z"/><path d="M84.698 95.212h-2.37c-1.009 0-1.872-.684-2.15-1.702l-1.222-4.04H73.07l-1.191 4.049c-.33 1.033-1.185 1.693-2.184 1.693h-2.297c-1.092 0-1.982-.906-1.982-2.019 0-.284.05-.482.089-.64l7.084-22.996a2.284 2.284 0 012.182-1.65h2.556c1 0 1.863.667 2.148 1.66l7.118 22.986c.039.158.089.356.089.64 0 1.113-.89 2.019-1.983 2.019zM72.321 88.47h7.377l1.44 4.763c.165.6.63.979 1.19.979h2.37c.551 0 .983-.447.983-1.019 0-.155-.024-.254-.056-.384l-7.11-22.957c-.165-.578-.631-.945-1.189-.945H74.77c-.563 0-1.066.384-1.224.935l-7.08 22.979c-.027.112-.051.211-.051.372 0 .572.432 1.019.982 1.019h2.297c.564 0 1.035-.378 1.228-.986l1.4-4.756zm6.075-4.372h-4.775l2.413-8.267 2.362 8.267zm-3.44-1h2.114l-1.046-3.663-1.069 3.663z"/><path class="st1" d="M92.183 94.712c-.778 0-1.408-.63-1.408-1.445V70.075c0-.852.63-1.482 1.408-1.482h2.593c.778 0 1.408.63 1.408 1.482v8.965h.037l7.3-9.669c.37-.518.925-.778 1.555-.778h2.964c.778 0 1.37.593 1.37 1.371 0 .296-.11.593-.296.889l-8.188 10.67 8.225 11.004c.186.258.297.555.297.851 0 .778-.593 1.371-1.371 1.371l-3.038-.037c-.63 0-1.149-.26-1.519-.778l-7.15-9.522h-.186v8.855c0 .815-.63 1.445-1.408 1.445h-2.593z"/><path d="M108.077 95.249l-3.044-.037a2.277 2.277 0 01-1.92-.988l-6.428-8.56v7.603c0 1.09-.838 1.945-1.909 1.945h-2.592c-1.07 0-1.909-.855-1.909-1.945V70.075c0-1.112.838-1.982 1.909-1.982h2.592c1.07 0 1.909.87 1.909 1.982v7.522l6.436-8.527c.447-.626 1.145-.977 1.955-.977h2.964c1.049 0 1.871.822 1.871 1.87 0 .377-.122.755-.373 1.155l-7.984 10.408 7.998 10.701c.261.364.396.76.396 1.15 0 1.05-.822 1.872-1.87 1.872zM95.685 83.912h.935l7.3 9.721c.28.393.644.579 1.12.579l3.043.037c.499 0 .865-.366.865-.871a.992.992 0 00-.203-.56l-8.445-11.3 8.418-10.97c.119-.194.193-.404.193-.584a.842.842 0 00-.87-.871h-2.965c-.339 0-.813.098-1.148.569L96.47 79.54h-.75l-.036-.5v-8.965c0-.56-.391-.982-.909-.982h-2.592c-.518 0-.909.422-.909.982v23.192c0 .53.4.945.909.945h2.592c.51 0 .909-.415.909-.945v-9.355z"/><path class="st1" d="M140.052 72.631c0 .815-.63 1.482-1.408 1.482h-4.78V93.23c0 .852-.629 1.482-1.406 1.482h-2.594c-.778 0-1.408-.63-1.408-1.482V74.113h-4.78c-.777 0-1.407-.667-1.407-1.482v-2.556c0-.852.63-1.482 1.407-1.482h14.968c.779 0 1.408.63 1.408 1.482v2.556z"/><path d="M132.458 95.212h-2.594c-1.07 0-1.908-.87-1.908-1.983V74.613h-4.28c-1.051 0-1.906-.889-1.906-1.982v-2.556c0-1.112.837-1.982 1.907-1.982h14.968c1.07 0 1.908.87 1.908 1.982v2.556c0 1.093-.857 1.982-1.908 1.982h-4.28V93.23c0 1.112-.838 1.983-1.907 1.983zm-8.781-26.12c-.518 0-.907.423-.907.983v2.556c0 .541.407.982.907.982h5.28V93.23c0 .56.39.983.907.983h2.594c.518 0 .907-.422.907-.983V73.613h5.28c.5 0 .908-.44.908-.982v-2.556c0-.56-.39-.982-.908-.982h-14.968z"/><path class="st1" d="M162.84 85.34c0 5.223-4.001 9.854-9.374 9.854s-9.374-4.631-9.374-9.855v-7.336c0-5.223 4.04-9.817 9.374-9.817s9.374 4.594 9.374 9.817v7.336zm-5.41-7.337c0-2.185-1.667-4.298-3.964-4.298-2.26 0-3.964 2.113-3.964 4.298v7.336c0 2.149 1.704 4.334 3.964 4.334 2.297 0 3.964-2.148 3.964-4.334v-7.336z"/><path d="M153.467 95.693c-5.445 0-9.874-4.645-9.874-10.354v-7.336c0-5.689 4.43-10.317 9.874-10.317s9.873 4.628 9.873 10.317v7.336c0 5.71-4.429 10.354-9.873 10.354zm0-27.007c-4.894 0-8.874 4.18-8.874 9.317v7.336c0 5.158 3.98 9.354 8.874 9.354 4.892 0 8.873-4.196 8.873-9.354v-7.336c0-5.138-3.98-9.317-8.873-9.317zm0 21.487c-2.631 0-4.465-2.548-4.465-4.834v-7.336c0-2.317 1.794-4.798 4.465-4.798 2.67 0 4.464 2.481 4.464 4.798v7.336c0 2.334-1.794 4.834-4.464 4.834zm0-15.968c-2.072 0-3.465 1.964-3.465 3.798v7.336c0 1.813 1.423 3.834 3.465 3.834 2.072 0 3.464-1.983 3.464-3.834v-7.336c0-1.834-1.392-3.798-3.464-3.798z"/><g><path class="st1" d="M197 84.672c0 5.483-3.556 10.522-9.372 10.522-5.818 0-9.412-5.039-9.412-10.522V70.075c0-.815.63-1.445 1.409-1.445h2.593c.778 0 1.408.63 1.408 1.445v14.783c0 2.89 1.556 4.742 4.002 4.742 2.704 0 3.963-2.26 3.963-4.742V70.075c0-.815.63-1.445 1.408-1.445h2.63c.779 0 1.372.63 1.372 1.445v14.597z"/><path d="M187.628 95.693c-6.438 0-9.911-5.678-9.911-11.021V70.075c0-1.09.838-1.945 1.908-1.945h2.594c1.07 0 1.907.854 1.907 1.945v14.782c0 2.617 1.342 4.243 3.502 4.243 2.557 0 3.464-2.286 3.464-4.243V70.075c0-1.09.838-1.945 1.907-1.945h2.63c1.05 0 1.872.854 1.872 1.945v14.597c0 5.343-3.46 11.021-9.873 11.021zm-8.003-26.563c-.509 0-.908.415-.908.945v14.597c0 4.858 3.123 10.021 8.91 10.021 5.765 0 8.874-5.163 8.874-10.021V70.075c0-.539-.374-.945-.871-.945h-2.631c-.509 0-.907.415-.907.945v14.782c0 2.61-1.38 5.243-4.464 5.243-2.734 0-4.502-2.058-4.502-5.243V70.075c0-.53-.398-.945-.907-.945h-2.594z"/></g><g><path class="st1" d="M212.749 87.376c-.149-1.444-.704-1.815-3.742-3.111l-.963-.408c-3.52-1.593-5.706-3.704-5.706-7.78 0-4.669 3.26-7.891 7.817-7.891 2.445 0 4.965.888 6.928 2.408.518.37.704 1.186.408 1.778l-1.075 2.186a1.318 1.318 0 01-1.222.815c-.297 0-.594-.074-.853-.222l-.037-.038c-1.926-1.296-3.408-1.518-4.112-1.518-1.556 0-2.482.889-2.482 2.26 0 1.185.555 2.037 3.482 3.334.148.037.593.222 2.26.926 2.964 1.296 4.669 3.853 4.669 7.002 0 4.891-3.705 8.077-8.373 8.077-2.408 0-4.928-.852-7.076-2.409-.519-.333-.705-1.185-.409-1.778l1.149-2.185a1.32 1.32 0 011.222-.816c.297 0 .593.074.853.26h.037c1.482 1 2.927 1.518 4.187 1.518 1.852 0 3-.925 3.038-2.408z"/><path d="M209.748 95.693c-2.524 0-5.142-.889-7.37-2.503-.7-.449-.974-1.581-.562-2.406l1.154-2.195a1.792 1.792 0 011.665-1.083c.369 0 .705.087.999.26h.007l.163.085c1.39.938 2.74 1.433 3.907 1.433 1.546 0 2.492-.705 2.537-1.89-.116-1.085-.384-1.367-3.437-2.67l-.962-.407c-4.217-1.908-6.011-4.371-6.011-8.24 0-4.941 3.42-8.391 8.317-8.391 2.534 0 5.171.916 7.234 2.512.703.502.957 1.582.55 2.397l-1.075 2.183a1.795 1.795 0 01-1.67 1.095c-.39 0-.771-.1-1.101-.289l-.105-.08c-1.884-1.27-3.283-1.41-3.796-1.41-1.26 0-1.982.642-1.982 1.76 0 .831.234 1.57 3.185 2.877.102.019.44.158 2.252.924 3.164 1.383 4.974 4.102 4.974 7.462 0 4.97-3.731 8.576-8.873 8.576zm-5.113-7.187a.826.826 0 00-.764.513l-1.165 2.22c-.18.361-.063.933.236 1.125 2.082 1.508 4.49 2.33 6.806 2.33 4.562 0 7.873-3.187 7.873-7.577 0-2.945-1.593-5.33-4.369-6.544-1.349-.57-2.062-.87-2.18-.9-2.908-1.28-3.862-2.237-3.862-3.819 0-1.676 1.17-2.76 2.982-2.76.75 0 2.319.21 4.392 1.605l.06.046c.449.227 1.098.115 1.312-.384l1.087-2.21c.187-.376.067-.923-.25-1.15-1.907-1.476-4.32-2.315-6.638-2.315-4.308 0-7.317 3.039-7.317 7.39 0 3.463 1.568 5.585 5.412 7.325l.952.403c2.926 1.248 3.86 1.729 4.044 3.52l.004.032-.001.033c-.044 1.758-1.433 2.895-3.538 2.895-1.33 0-2.826-.524-4.338-1.518h-.009l-.168-.094a.945.945 0 00-.561-.166z"/></g><g><path class="st1" d="M250.65 68.445c.815 0 1.408.667 1.408 1.482V93.23c0 .852-.593 1.482-1.408 1.482h-2.63c-.778 0-1.37-.63-1.37-1.482v-9.225h-8.374v9.225c0 .852-.593 1.482-1.37 1.482h-2.631c-.778 0-1.408-.63-1.408-1.482V69.927c0-.815.63-1.482 1.408-1.482h2.63c.778 0 1.371.667 1.371 1.482v8.595h8.373v-8.595c0-.815.593-1.482 1.371-1.482h2.63z"/><path d="M250.65 95.212h-2.63c-1.066 0-1.87-.852-1.87-1.983v-8.724h-7.374v8.724c0 1.13-.803 1.983-1.87 1.983h-2.63c-1.07 0-1.909-.87-1.909-1.983V69.927c0-1.094.857-1.983 1.908-1.983h2.631c1.05 0 1.87.87 1.87 1.983v8.094h7.373v-8.094c0-1.112.823-1.983 1.872-1.983h2.63c1.07 0 1.908.87 1.908 1.983v23.302c0 1.13-.82 1.983-1.909 1.983zm-12.874-11.707h9.373v9.724c0 .57.367.983.872.983h2.63c.535 0 .908-.404.908-.983V69.927c0-.56-.391-.983-.909-.983h-2.63c-.488 0-.87.432-.87.983v9.094h-9.374v-9.094c0-.551-.381-.983-.87-.983h-2.63c-.502 0-.909.441-.909.983v23.302c0 .56.39.983.908.983h2.631c.504 0 .87-.413.87-.983v-9.724z"/></g><g><path class="st1" d="M263.99 74.113v4.372h5.669c.778 0 1.408.63 1.408 1.445v2.482c0 .815-.63 1.445-1.408 1.445h-5.668v5.335h7.853c.779 0 1.409.667 1.409 1.482v2.556c0 .852-.63 1.482-1.409 1.482h-11.151c-1.223 0-2.111-1.037-2.111-2.223V70.816c0-.593.221-1.149.63-1.556.37-.444.925-.667 1.481-.667h11.151c.779 0 1.409.63 1.409 1.482v2.556c0 .816-.63 1.482-1.409 1.482h-7.853z"/><path d="M271.845 95.212h-11.152c-1.44 0-2.611-1.221-2.611-2.723V70.815c0-.732.275-1.41.776-1.91.418-.504 1.098-.812 1.835-.812h11.152c1.07 0 1.908.87 1.908 1.982v2.556c0 1.093-.857 1.982-1.908 1.982h-7.354v3.371h5.168c1.07 0 1.908.855 1.908 1.946v2.482c0 1.09-.838 1.944-1.908 1.944h-5.168v4.335h7.354c1.051 0 1.908.89 1.908 1.983v2.555c0 1.112-.838 1.983-1.908 1.983zm-11.152-26.12c-.44 0-.84.178-1.097.488a1.719 1.719 0 00-.514 1.235V92.49c0 .966.708 1.723 1.611 1.723h11.152c.517 0 .908-.422.908-.983v-2.555c0-.542-.407-.983-.908-.983h-8.354v-6.335h6.168c.509 0 .908-.415.908-.944V79.93c0-.53-.399-.946-.908-.946h-6.168v-5.37h8.354c.5 0 .908-.442.908-.983v-2.556c0-.56-.39-.982-.908-.982h-11.152z"/></g><g><path class="st1" d="M290.111 84.302l4.965 8.113c.148.259.222.556.222.815 0 .852-.63 1.482-1.445 1.482h-2.668c-.63 0-1.111-.297-1.444-.815l-5.224-8.855H284v8.188c0 .852-.63 1.482-1.409 1.482h-2.593c-.778 0-1.408-.63-1.408-1.482V70.816c0-.593.222-1.149.63-1.556.37-.444.926-.667 1.482-.667h6.113c4.52 0 8.002 3.742 8.002 8.225 0 3.26-1.852 6.187-4.705 7.484zm-6.112-10.263v5.558h2.63c1.592 0 2.74-1.15 2.74-2.742 0-1.63-1.073-2.816-2.74-2.816h-2.63z"/><path d="M293.854 95.212h-2.668c-.782 0-1.426-.361-1.866-1.046l-4.821-8.171v7.234c0 1.112-.838 1.983-1.908 1.983h-2.594c-1.07 0-1.907-.87-1.907-1.983V70.815c0-.732.275-1.41.776-1.91.418-.504 1.098-.812 1.835-.812h6.113c4.689 0 8.502 3.914 8.502 8.724 0 3.248-1.746 6.206-4.493 7.69l4.68 7.647c.192.336.295.714.295 1.075 0 1.112-.855 1.983-1.944 1.983zm-10.355-10.67h1.304l5.369 9.1c.243.378.578.57 1.014.57h2.668c.546 0 .944-.413.944-.983 0-.184-.058-.396-.155-.565l-5.253-8.583.514-.234c2.681-1.22 4.412-3.978 4.412-7.03 0-4.259-3.365-7.724-7.502-7.724h-6.113c-.44 0-.84.177-1.097.487a1.719 1.719 0 00-.514 1.235V93.23c0 .56.39.983.907.983h2.594c.517 0 .908-.422.908-.983v-8.687zm3.13-4.445h-3.13v-6.558h3.13c1.908 0 3.241 1.363 3.241 3.315 0 1.879-1.363 3.243-3.241 3.243zm-2.13-1h2.13c1.32 0 2.241-.922 2.241-2.243 0-1.384-.9-2.315-2.241-2.315h-2.13v4.558z"/></g><g><path class="st1" d="M305.526 74.113v4.372h5.668c.778 0 1.408.63 1.408 1.445v2.482c0 .815-.63 1.445-1.408 1.445h-5.668v5.335h7.854c.778 0 1.408.667 1.408 1.482v2.556c0 .852-.63 1.482-1.408 1.482h-11.152c-1.222 0-2.111-1.037-2.111-2.223V70.816c0-.593.222-1.149.63-1.556.37-.444.926-.667 1.481-.667h11.152c.778 0 1.408.63 1.408 1.482v2.556c0 .816-.63 1.482-1.408 1.482h-7.854z"/><path d="M313.38 95.212h-11.151c-1.44 0-2.612-1.221-2.612-2.723V70.815c0-.732.276-1.41.777-1.91.418-.504 1.097-.812 1.835-.812h11.15c1.071 0 1.91.87 1.91 1.982v2.556c0 1.093-.857 1.982-1.91 1.982h-7.353v3.371h5.168c1.07 0 1.909.855 1.909 1.946v2.482c0 1.09-.838 1.944-1.909 1.944h-5.168v4.335h7.354c1.052 0 1.908.89 1.908 1.983v2.555c0 1.112-.838 1.983-1.908 1.983zm-11.151-26.12c-.44 0-.84.178-1.098.488a1.719 1.719 0 00-.514 1.235V92.49c0 .966.708 1.723 1.612 1.723h11.15c.518 0 .91-.422.91-.983v-2.555c0-.542-.408-.983-.91-.983h-8.353v-6.335h6.168c.51 0 .909-.415.909-.944V79.93c0-.53-.4-.946-.909-.946h-6.168v-5.37h8.354c.5 0 .908-.442.908-.983v-2.556c0-.56-.39-.982-.908-.982h-11.151z"/></g></g><g><path class="st2" d="M423.005 22.021l7.689-6.543"/><path d="M423.447 22.463l6.73-5.727.96-.816c.613-.522-.275-1.403-.885-.884l-6.73 5.727-.96.816c-.613.522.275 1.403.885.884z"/><path class="st2" d="M412.985 10.664L413.795.6"/><path d="M413.61 10.664l.708-8.798L414.42.6c.065-.802-1.185-.798-1.25 0l-.708 8.798-.102 1.266c-.065.802 1.185.798 1.25 0z"/><g><path class="st2" d="M442.544 34.387l-10.064-.811"/><path d="M442.544 33.762l-8.797-.71-1.267-.101c-.802-.065-.797 1.186 0 1.25l8.798.709 1.266.102c.802.064.798-1.186 0-1.25z"/></g></g><g><path transform="rotate(-18.709 396.189 36.497)" class="st0" d="M380.304 19.804h31.771V53.19h-31.771z"/><path transform="rotate(19.615 374.946 64.175)" class="st1" d="M359.063 56.805h31.771v14.739h-31.771z"/><path d="M415.233 79.991h-58.551l-.073-.325-10.075-45.2h79.12l-10.42 45.525zm-57.886-.83h57.225l10.041-43.864H347.57l9.777 43.864z"/><path d="M385.678 34.612h.83v45.233h-.83z"/><path transform="rotate(-3.887 374.572 57.227)" d="M374.156 34.56h.83v45.337h-.83z"/><path transform="rotate(-8.631 363.143 57.23)" d="M362.725 34.353h.83v45.751h-.83z"/><path transform="rotate(-86.082 397.413 57.23)" d="M374.744 56.814h45.337v.83h-45.337z"/><path transform="rotate(-81.348 408.844 57.23)" d="M385.969 56.814h45.751v.83h-45.751z"/><path d="M350.261 50.374h71.238v.83h-71.238zM353.38 64.779h64.888v.83H353.38zM346.65 34.986l-3.419-13.151h-10.18v-.83h10.822l3.581 13.772z"/><circle cx="393.228" cy="99.68" r="4.487"/><circle cx="368.457" cy="99.68" r="4.487"/><path d="M400.229 92.915h-40.264v-12.98h.83v12.15h39.434z"/></g><g><path d="M97.742 111.543c.526-.567.81-1.307.81-2.136 0-1.623-1.127-3.262-3.644-3.262h-3.453v11.912h4.027c2.528 0 3.851-1.8 3.851-3.58 0-1.238-.585-2.3-1.59-2.934zm-4.022 1.492h1.65c.992 0 1.634.541 1.634 1.379 0 .844-.656 1.41-1.634 1.41h-1.65v-2.789zm1.076-2.249H93.72v-2.407h1.093c.899 0 1.458.449 1.458 1.172 0 .727-.607 1.235-1.475 1.235zM105.63 106.145h-2.265v11.912h6.394v-2.233h-4.13zM118.934 105.986l-5.254 12.071h2.497l.989-2.376h4.284l.988 2.376h2.482l-5.272-12.07h-.714zm1.598 7.479h-2.448l1.223-2.952 1.225 2.952zM133.58 105.954c-3.467 0-6.082 2.643-6.082 6.147s2.615 6.148 6.083 6.148c1.053 0 1.97-.206 2.802-.631l.205-.104v-2.716l-.61.487c-.629.503-1.407.747-2.38.747-2.169 0-3.803-1.69-3.803-3.93s1.634-3.93 3.802-3.93c.975 0 1.753.244 2.381.747l.61.488v-2.717l-.205-.104c-.833-.425-1.75-.632-2.802-.632zM145.037 112.235l4.733-6.09h-2.752l-3.731 4.813v-4.813h-2.265v11.912h2.265v-4.498l3.788 4.498h2.88z"/><g><path d="M161.98 118.057h2.264v-4.544h3.174v-2.217h-3.174v-2.934h4.465v-2.217h-6.73zM180 109.965c0-1.852-1.399-3.82-3.993-3.82H172.6v11.912h2.265v-4.289h.81l2.457 4.29h2.603l-2.827-4.691c1.302-.62 2.092-1.885 2.092-3.402zm-5.134-1.586h1.076c1.064 0 1.778.637 1.778 1.586 0 .949-.714 1.587-1.778 1.587h-1.076v-3.173zM185.043 106.145h2.265v11.912h-2.265zM196.138 106.145h-3.31v11.912h3.31c3.516 0 5.972-2.462 5.972-5.988 0-3.488-2.456-5.924-5.972-5.924zm.016 9.68h-1.06v-7.446h1.06c2.198 0 3.674 1.483 3.674 3.69 0 1.809-1.15 3.755-3.674 3.755zM209.927 105.986l-5.254 12.071h2.497l.989-2.376h4.284l.988 2.376h2.481l-5.271-12.07h-.714zm1.598 7.479h-2.449l1.224-2.952 1.225 2.952zM225.69 106.145l-2.623 5.202-2.608-5.202H217.9l4.04 7.707v4.205h2.266v-4.236l4.023-7.676z"/></g></g><g><path class="st2" d="M233.302 113.032h78.702"/><path d="M233.302 113.657h78.702c.805 0 .806-1.25 0-1.25h-78.702c-.805 0-.806 1.25 0 1.25z"/></g><g><path class="st2" d="M4.113 113.032h78.702"/><path d="M4.113 113.657h78.702c.805 0 .806-1.25 0-1.25H4.113c-.805 0-.806 1.25 0 1.25z"/></g></svg>