<svg version="1.1" id="Layer_1" xmlns="http://www.w3.org/2000/svg" x="0" y="0" viewBox="0 0 769.048 306.206" xml:space="preserve"><style>.st0{fill:#ff7503}.st1{fill:#67a867}.st2{fill:#335633}.st3{fill:#212121}.st4{fill:#0f0f0f}</style><path class="st0" d="M132.62 270.496v35.01h-9.903v-13.654h-13.503v13.654h-9.902v-35.01h9.902v13.154h13.503v-13.154h9.903zM163.078 298.704h-14.804l-2.75 6.802H135.42l15.454-35.01h9.752l15.505 35.01h-10.303l-2.751-6.802zm-2.901-7.302l-4.5-11.203-4.502 11.203h9.002zM203.188 272.072c2.334 1.05 4.134 2.551 5.401 4.501s1.9 4.244 1.9 6.877c0 2.634-.632 4.918-1.9 6.851-1.267 1.935-3.067 3.427-5.4 4.477-2.336 1.05-5.086 1.576-8.254 1.576h-6.1v9.152h-9.903v-35.01h16.003c3.168 0 5.918.526 8.253 1.576zm-4.25 15.154c1.032-.884 1.55-2.142 1.55-3.776 0-1.633-.518-2.9-1.55-3.8-1.035-.901-2.57-1.351-4.602-1.351h-5.502v10.252h5.502c2.033 0 3.567-.441 4.601-1.325zM239.548 272.072c2.334 1.05 4.133 2.551 5.401 4.501s1.9 4.244 1.9 6.877c0 2.634-.633 4.918-1.9 6.851-1.268 1.935-3.067 3.427-5.401 4.477-2.335 1.05-5.085 1.576-8.253 1.576h-6.1v9.152h-9.903v-35.01h16.003c3.168 0 5.918.526 8.253 1.576zm-4.25 15.154c1.032-.884 1.55-2.142 1.55-3.776 0-1.633-.518-2.9-1.55-3.8-1.035-.901-2.57-1.351-4.602-1.351h-5.502v10.252h5.502c2.033 0 3.567-.441 4.601-1.325zM270.407 292.953v12.553h-9.903v-12.704l-13.354-22.306h10.453l8.302 13.905 8.303-13.905h9.602l-13.403 22.457zM308.315 278.348h-10.753v-7.852h31.358v7.852h-10.703v27.158h-9.902v-27.158zM365.93 270.496v35.01h-9.903v-13.654h-13.503v13.654h-9.903v-35.01h9.903v13.154h13.503v-13.154h9.903zM396.388 298.704h-14.804l-2.75 6.802H368.73l15.454-35.01h9.752l15.505 35.01h-10.304l-2.75-6.802zm-2.901-7.302l-4.501-11.203-4.502 11.203h9.003zM445.55 270.496v35.01h-8.152l-15.454-18.655v18.655h-9.702v-35.01h8.151l15.454 18.655v-18.655h9.703zM466.056 292.802l-3.7 3.951v8.753h-9.803v-35.01h9.802v14.554l13.554-14.554h10.903l-14.304 15.505 15.054 19.505h-11.503l-10.003-12.704z"/><path class="st0" d="M493.462 305.156c-2.667-.7-4.834-1.634-6.501-2.801l3.25-7.302c1.568 1.034 3.385 1.867 5.452 2.5 2.067.635 4.101.95 6.101.95 3.802 0 5.702-.95 5.702-2.85 0-1-.542-1.742-1.625-2.225-1.084-.484-2.826-.992-5.227-1.526-2.634-.567-4.834-1.175-6.601-1.826a11.103 11.103 0 01-4.552-3.125c-1.267-1.434-1.9-3.368-1.9-5.802 0-2.133.583-4.059 1.75-5.776 1.167-1.717 2.91-3.076 5.227-4.077 2.317-1 5.159-1.5 8.527-1.5 2.3 0 4.568.259 6.802.776 2.233.517 4.2 1.275 5.901 2.275l-3.05 7.352c-3.335-1.8-6.57-2.7-9.703-2.7-1.968 0-3.401.291-4.3.875-.9.584-1.351 1.342-1.351 2.276 0 .933.532 1.633 1.6 2.1 1.067.467 2.783.95 5.151 1.45 2.667.568 4.877 1.175 6.627 1.826 1.75.65 3.267 1.684 4.551 3.1 1.284 1.418 1.926 3.343 1.926 5.777 0 2.1-.584 4.001-1.75 5.701-1.168 1.701-2.919 3.06-5.252 4.077-2.334 1.016-5.169 1.525-8.502 1.525-2.835 0-5.585-.35-8.253-1.05zM545.226 287.251h8.752v14.504c-2 1.434-4.301 2.534-6.902 3.3-2.6.767-5.202 1.15-7.801 1.15-3.67 0-6.97-.775-9.903-2.324-2.935-1.551-5.235-3.71-6.902-6.477-1.668-2.768-2.5-5.902-2.5-9.403 0-3.501.832-6.634 2.5-9.402 1.667-2.768 3.984-4.927 6.952-6.477 2.967-1.55 6.318-2.326 10.052-2.326 3.267 0 6.202.55 8.803 1.651 2.6 1.1 4.767 2.684 6.501 4.75l-6.302 5.703c-2.367-2.6-5.2-3.902-8.501-3.902-3.002 0-5.42.91-7.253 2.726-1.834 1.818-2.75 4.243-2.75 7.277 0 1.934.417 3.66 1.25 5.177.833 1.517 2 2.7 3.501 3.55 1.5.85 3.217 1.276 5.151 1.276 1.901 0 3.684-.383 5.352-1.15v-9.603zM560.28 270.496h9.902v35.01h-9.902v-35.01zM612.643 270.496l-15.004 35.01h-9.753l-14.953-35.01h10.702l9.502 22.807 9.704-22.807h9.802zM614.693 270.496h9.902v35.01h-9.902v-35.01zM664.955 270.496v35.01h-8.151l-15.455-18.655v18.655h-9.702v-35.01h8.152l15.454 18.655v-18.655h9.702zM695.413 287.251h8.753v14.504c-2.001 1.434-4.302 2.534-6.902 3.3-2.601.767-5.202 1.15-7.802 1.15-3.669 0-6.97-.775-9.902-2.324-2.935-1.551-5.235-3.71-6.903-6.477-1.668-2.768-2.5-5.902-2.5-9.403 0-3.501.832-6.634 2.5-9.402 1.668-2.768 3.984-4.927 6.952-6.477 2.967-1.55 6.319-2.326 10.052-2.326 3.268 0 6.203.55 8.803 1.651 2.601 1.1 4.768 2.684 6.502 4.75l-6.302 5.703c-2.367-2.6-5.201-3.902-8.502-3.902-3.001 0-5.419.91-7.252 2.726-1.834 1.818-2.75 4.243-2.75 7.277 0 1.934.416 3.66 1.25 5.177.832 1.517 2 2.7 3.501 3.55 1.5.85 3.217 1.276 5.151 1.276 1.9 0 3.683-.383 5.351-1.15v-9.603z"/><g><path class="st1" d="M217.37 190.097c-.84-4.027-3.123-6.66-5.784-6.64-2.923.02-2.906 2.318-2.906 2.318.103 13.781-12.649 39.979-28.727 40.098-5.704.043-9.444-2.027-11.702-5.466-.435-1.236-1.06-2.565-1.773-3.849-.709-2.283-1.039-4.886-1.06-7.7-.126-16.913 3.55-28.008 3.55-28.008s3.197 8.747 12.176 8.68c7.194-.054 12.605-4.702 16.405-12.142l-43.317.323c-1.35 8.44-2.077 16.722-2.022 24.146.021 2.825.227 5.508.58 8.062-10.191.41-23.796 2.408-41.394 7.068 1.19-11.608 2.93-25.058 4.943-38.994l-16.601.124c-2.066 16.703-3.818 32.212-5.01 43.797-3.127.859-6.251 1.926-9.584 2.996-3.75 1.28 4.076 14.586 9.495 13.293.208-.21.625-.213 1.043-.217 4.616 2.89 14.043 6.996 14.216 2.191-.014-1.879-.028-3.758.165-5.848 20.177-4.906 34.846-7.146 47.932-8.098 5.897 10.675 15.582 16.395 25.632 16.32 20.341-.151 31.338-23.874 33.634-41.958 1.395 19.53 12.836 32.633 26.226 32.533 13.363-.1 33.079-16.534 32.973-30.733-.093-12.529-7.596-10.593-7.596-10.593-.753 11.073-17.556 26.024-29.876 26.116-4.385.033-6.706-3.291-6.747-8.72-.066-8.84 1.253-19.994 3.354-32.092l-16.868.126c-.625 4.716-1.09 9.072-1.356 12.867z"/></g><g><path class="st1" d="M337.803 196.298c.105 14.198-6.087 23.85-19.242 23.948-12.111.09-14.902-10.12-14.916-12-.014-1.88 8.842-18.442 8.792-25.124-.01-1.36-3.422-4.768-6.416-6.542l-6.394.047c-5.582 3.9-9.04 16.649-8.992 23.154.123 16.496 17.183 35.998 34.723 35.867 14.408-.107 27.078-9.18 26.899-33.194-.077-10.254-3.203-18.954-7.65-26.162l-13.13.098c3.79 5.67 6.27 12.418 6.326 19.908z"/></g><g><path class="st1" d="M432.558 218.144c-11.276.084-19.092-11.97-19.25-33.06-.022-3.064.093-6.174.322-9.306l-15.632.116v.326c.265 35.497 16.313 59.183 41.996 58.991 26.31-.196 37.724-37.66 37.576-57.496a41.367 41.367 0 00-.088-2.413l-12.459.092c-3.748 18.567-12.62 42.602-32.465 42.75z"/></g><g><path class="st1" d="M501.405 181.922l-1.882-.403c-.01-1.32.114-3.529.34-6.384l-16.426.122c-1.311 19.113-2.075 35.127-2.023 42.105.032 4.385 7.613 12.89 15.13 12.834 4.385-.033 5.206-1.918 5.206-1.918.967-15.653 6.955-36.96 12.607-53.251l-10.623.079c-.944 2.758-1.734 5.092-2.33 6.816z"/></g><g><path class="st1" d="M698.16 188.6c-.752 11.073-17.556 26.024-29.875 26.116-4.385.033-6.707-3.29-6.747-8.72-.066-8.839 1.253-19.994 3.354-32.091l-16.867.125c-.606 4.573-1.062 8.808-1.332 12.521-.907-.136-1.59-.061-1.59-.061-1.367 12.539-4.19 26.133-15.048 26.214-7.099.053-8.818-6.408-8.89-16.013-.05-6.703.757-14.276 2.153-22.476l-16.567.123c-4.08 17.142-11.773 40.09-20.117 40.151-5.429.041-7.554-4.955-7.65-17.901-.044-5.849.566-13.694 1.774-22.056l-18.816.14c-.404 4.249-.6 8.553-.567 12.86.03 3.912.334 7.596.882 11.03-3.248 8.92-8.085 17.005-13.408 17.044-6.682.05-9.237-6.613-9.3-14.965-.06-8.004.796-16.936 2.026-25.817l-19.224.143c-.864 6.413-1.48 13.006-1.441 18.295.104 13.99 5.687 34.622 21.974 34.5 9.435-.07 18.626-6.6 23.582-15.135 4.909 10.301 12.962 16.116 22.362 16.046 10.232-.076 18.734-8.075 22.02-15.408l1.044-.008c.455 5.008 5.532 13.74 15.137 13.67 10.254-.077 17.382-9.982 21.121-19.967 3.837 14.12 13.57 23.049 24.633 22.966 13.364-.1 33.08-16.534 32.974-30.733-.094-12.528-7.597-10.593-7.597-10.593z"/></g><g><path class="st2" d="M302.983 175.466c-1.187.01-2.309.43-3.356 1.161l6.394-.047c-1.145-.68-2.229-1.12-3.038-1.114z"/></g><g><path class="st2" d="M204.568 138.403c-.143-19.21-9.377-25.405-17.312-25.346-14.462.108-28.028 33.455-33.024 64.654l43.317-.323c4.914-9.621 7.132-23.913 7.02-38.985zm-27.902 38.631c-4.176.031-5.26-5.181-5.26-5.181 2.184-15.26 7.903-32.426 12.83-43.739 1.232-2.933 2.27-3.776 3.104-3.782 1.044-.008 2.514 1.026 2.58 9.796.143 19.21-5.946 42.852-13.254 42.906zM132.742 83.184c-3.155-3.108-12.385-8.678-16.954-5.303-5.077 18.436-11.371 62.403-16.05 100.236l16.6-.124c5.236-36.24 12.323-75.775 16.404-94.809zM275.921 130.145c2.715-.02 3.12-1.693 3.11-3.155-.01-1.253-3.385-5.822-4.437-6.858-2.525-2.487-4.387-.176-5.661-3.09-1.273-2.705-5.235-1.84-9.825-1.389-2.504.228-5.842.67-9.805 1.326l4.061-15.482c.61-2.302-10.307-10.156-13.839-7.624-2.284 1.688-5.963 12.365-9.616 26.592-10.425 2.166-20.011 4.743-22.294 6.64-2.905 2.527 3.65 13.337 9.069 12.043l9.38-2.157c-3.06 13.55-5.728 28.093-7.337 40.24l16.868-.127c2.417-13.909 5.869-29.065 9.448-43.387 10.637-1.75 22.319-3.299 30.878-3.572zM281.527 97.945c-3.9.03-5.832 2.063-5.802 6.1.011 1.532.612 2.918 1.806 4.162 1.19 1.244 2.552 1.86 4.086 1.849 1.39-.01 2.502-.436 3.331-1.278-.525 4.461-2.939 7.54-7.24 9.242l.851 2.082c6.105-2.688 9.128-8.072 9.068-16.147-.012-1.67-.65-3.091-1.911-4.266-1.262-1.172-2.66-1.755-4.19-1.744zM313.438 149.286l-.215-.834c1.449-1.681 17.256-10.152 22.684-10.4 2.087-.016 2.756 5.617 4.844 5.601 5.22-.039 19.334-11.629 19.275-19.564-.029-3.758-4.872-9.151-6.96-9.136-3.132.024-53.737 18.568-54.506 27.344-.378 5.432 1.765 12.725 5.547 15.829 8.943 1.016 20.385 7.809 27.37 18.264l13.13-.098c-11.31-18.331-31.17-27.006-31.17-27.006zM452.676 87.69c2.923-.021 7.118 2.454 7.15 6.838-.693 19.008-12.666 37.474-12.666 37.474 1.492 4.165 6.76 10.599 10.102 10.574 5.637-.042 18.425-21.437 18.294-38.977-.117-15.66-12.33-29.351-24.65-29.26-31.02.232-53.044 65.365-52.908 101.555l15.632-.116c3.064-41.902 27.39-88 39.046-88.087zM470.577 163.985c-1.462.01-3.757.237-3.757.237-.391 3.248-.97 7.078-1.797 11.172l12.46-.092c-.618-9.39-4.394-11.336-6.906-11.317zM508.558 105.024c2.213-11.293 5.7-19.672 5.61-31.782-.043-5.847-13.438-9.924-16.545-6.56-5.456 6.268-11.22 65.348-14.186 108.575l16.426-.122c1.387-17.465 6.623-59.148 8.695-70.111zM549.431 125.601c-.034-4.594-10.925-8.898-16.354-8.857-8.935.066-22.833 39.346-29.343 58.362l10.623-.08c4.154-11.974 8.127-21.24 9.791-23.552l2.509.4c-.994 3.448-2.953 13.049-4.306 23.093l19.224-.143c2.908-21.01 7.912-41.738 7.856-49.223zM705.218 126.946c2.715-.02 3.12-1.694 3.109-3.156-.01-1.252-3.385-5.822-4.437-6.858-2.524-2.487-4.386-.176-5.66-3.09-1.274-2.705-5.235-1.84-9.825-1.388-2.504.227-5.842.67-9.805 1.326l4.06-15.483c.61-2.302-10.307-10.156-13.838-7.623-2.284 1.687-5.964 12.364-9.616 26.591-10.425 2.166-20.011 4.744-22.294 6.64-2.905 2.527 3.649 13.337 9.069 12.044l9.38-2.158c-3.06 13.553-5.728 28.093-7.336 40.24l16.867-.126c2.417-13.91 5.869-29.066 9.448-43.388 10.636-1.75 22.318-3.299 30.878-3.571zM623.588 129.433s.2-1.254.191-2.298c-.046-6.264-6.379-15.405-20.578-15.3-22.202.166-38.116 29.796-41.259 62.837l18.816-.14c3.32-22.984 11.153-49.874 22.33-49.957 3.967-.03 4.004 4.981 4.018 6.86.056 7.518-2.604 14.846-6.944 20.934 2.949 3.32 9.64 4.523 9.64 4.523.018 2.426-1.107 9.277-3.051 17.446l16.568-.123c2.04-11.979 5.342-25.298 9.08-39.209 1.218-4.812-6.927-4.96-8.811-5.573z"/></g><g><ellipse transform="rotate(-45.078 116.445 99.25)" class="st3" cx="116.446" cy="99.25" rx="88.511" ry="21.225"/><path class="st3" d="M67.03.647a101.767 101.767 0 00-51.216 51.074l-.232.514 63.543 76.125c48.304-14.755 66.328-66.51 66.328-66.51L67.029.647z"/><ellipse transform="rotate(-45.078 41.353 26.488)" class="st4" cx="41.353" cy="26.488" rx="36.428" ry="8.497"/><path class="st4" d="M65.878 112.49l13.247 15.87c48.304-14.755 66.328-66.51 66.328-66.51l-16.26-12.689c-4.517 10.17-23.907 48.813-63.315 63.33z"/><path d="M107.276 79.05L93.883 92.48a6.99 6.99 0 00.014 9.876l9.592 9.567a6.99 6.99 0 009.875-.014l13.393-13.43a6.99 6.99 0 00-.013-9.875l-9.593-9.566a6.991 6.991 0 00-9.875.013zm16.414 16.37l-13.393 13.43a2.654 2.654 0 01-3.749.005l-9.593-9.566a2.654 2.654 0 01-.005-3.75l13.393-13.43a2.654 2.654 0 013.75-.004l3.099 3.091c-.062.05-.122.105-.18.163l-4.677 4.69a2.408 2.408 0 103.41 3.401l4.678-4.69c.058-.057.112-.118.162-.18l3.1 3.091a2.654 2.654 0 01.005 3.75z" fill="#ffcf06"/></g><g><path class="st0" d="M725.97 211.583s-10.135-26.606 7.603-41.81l1.267 16.47s6.334-26.605 24.072-29.14c0 0 6.335 26.607-10.136 40.543l20.272 3.801s-12.67 32.941-43.077 10.136z"/></g><g><path class="st0" d="M316.114 73.391s-24.315 3.603-28.818-13.508l11.708-5.404s-9.006-16.21 0-27.917c0 0 18.912 9.906 18.011 21.614l11.707-9.006s9.907 28.818-12.608 34.221z"/></g><g><path class="st0" d="M34.208 263.951S7.602 267.751 0 237.345l19.004 3.8s-15.203-21.538-5.067-40.542c0 0 27.873 15.203 26.606 32.94l22.805-7.6c0-.001 6.335 46.877-29.14 38.008z"/></g></svg>