<svg version="1.1" id="Layer_1" xmlns="http://www.w3.org/2000/svg" x="0" y="0" viewBox="0 0 1362.074 455.662" xml:space="preserve"><style>.st0{fill:#381700}.st1{fill:#ff2f06}.st3{fill:#fa0}</style><path class="st0" d="M491.066 27.318c10.302.966 59.881-4.829 70.184-6.438 0 0 1.61 4.184-.322 4.506-1.932.322-13.522.322-16.098 13.2-2.897 12.878-28.33 186.404-26.076 191.877.965 2.254 35.413-4.185 38.632-6.439 2.898-1.931 28.653-70.827 30.263-78.875 0 0 1.931-2.576 3.541-2.576 0 0-14.487 91.11-14.487 104.953 0 0-2.254.966-4.186-.322-1.931-1.288-3.54-6.116-8.692-6.116-5.151 0-80.486.644-86.603 1.61-6.116.643-1.61-4.186-1.61-4.186 7.083-1.932 20.605-9.98 22.214-28.653 1.289-18.351 11.269-159.04 9.337-166.444-2.254-7.726-4.507-12.556-17.063-14.165l.966-1.932zM677.15 206.64c-10.947 11.59-31.229 33.481-51.833 37.667-20.605 4.185-33.804-31.229-34.126-60.525s4.507-77.588 30.584-100.124c13.2-11.912 31.872-5.151 40.887 8.049 9.015 12.877 15.775 42.818 15.775 55.695-7.726 0-46.038 9.98-57.95 16.741-.643 17.707 0 33.16.322 38.955 1.288 16.097 13.522 21.248 25.112 17.707 9.014-2.898 28.975-21.249 37.345-29.94 1.288 4.185-.322 9.014-6.116 15.775zm-56.34-52.477c9.658-5.151 23.501-6.117 25.755-10.302 6.117-10.302 9.014-66.642-9.336-58.593-10.625 4.829-14.81 38.31-16.42 68.895zM753.768 103.619c-6.117-.645-16.42-.645-27.366 0-1.931 51.51-3.862 122.659-.643 123.625 5.15 1.288 15.775-3.542 20.604-7.083 5.151-3.541 4.83 5.151 4.83 5.151-6.118 1.932-22.858 14.165-27.366 16.741-4.83 2.576-17.063 7.405-22.535 2.254-5.474-5.152-5.152-20.926-3.864-37.667.966-14.81 1.287-79.52 1.287-100.768-6.76.644-12.233 1.288-14.809 1.931 0 0-1.61-3.54 3.22-6.439 4.829-3.219 33.481-28.33 37.345-52.154.644-4.829 5.151-4.829 4.186 1.61l-1.933 43.462c8.371-.322 25.434-1.288 26.722-3.863 1.931 6.439 2.253 14.487.322 13.2zM812.679 42.45c.322 15.774-9.336 37.988-18.994 45.07-12.556 9.338-12.878 2.255-7.405-3.218 4.507-4.508 6.439-16.419 6.439-21.892s-11.912-9.659-16.42-12.556c-4.829-3.22-.643-30.262 12.557-32.194 8.37-1.288 23.18 9.015 23.823 24.79zM880.93 143.539c0 5.795-5.15 3.863-5.15-1.61 0-5.795-2.255-34.126-16.098-38.633-6.44-1.932-19.96 9.659-17.385 28.975 1.288 10.624 30.263 44.106 35.092 54.087 7.726 16.74 7.405 31.55 0 41.852-7.405 10.624-26.078 16.419-35.092 18.028-9.014 1.932-17.063.966-18.994 4.83-1.932 3.863-4.186 9.336-5.152 11.912-.643 2.575-2.575.643-2.253-3.22.322-3.863 3.542-51.832 3.864-63.423.322-11.268 3.219-27.365 2.897-31.228-.644-3.863 1.931.322 1.931.322.644 7.083 4.508 43.14 9.015 47.325 7.727 6.76 36.701 2.576 33.481-17.706-1.931-12.556-40.242-54.087-41.852-70.505-2.575-31.55 9.015-44.107 21.57-52.477 12.556-8.37 30.585 1.288 32.194 0 1.61-1.288 4.186-4.83 3.542 1.61-.965 6.76-1.932 52.798-1.61 69.86zM1061.215 22.49c0 7.082-6.117 67.607-6.44 76.621-.643 9.336-4.507 9.336-5.794 3.22-1.932-9.015-3.541-37.024-11.268-40.243-1.288-.322-8.049-.322-17.385.322-5.151 24.467-16.097 146.805-16.097 158.073 0 11.912 20.926 18.029 25.111 18.029 4.507 0 3.22 2.576 3.22 2.576-7.727-.323-59.56 1.931-77.266 3.219 0 0-1.61-2.254.966-3.22 8.048-2.897 23.501-6.76 27.365-16.74 1.61-4.508 6.76-142.942 5.795-160.006-10.946.644-19.639 1.288-21.249 1.288-4.185.644-7.727 28.653-9.658 39.6-.644 4.828-3.864 5.794-3.864 2.574 0-7.082-.643-45.071-.321-59.558.321-14.81-.322-34.77-.322-34.77s5.15 7.405 10.946 12.233c11.268 2.898 76.3 4.508 81.451 3.22s14.81-8.692 14.81-6.439zM1150.714 238.512c-8.048 0-61.813 11.268-65.354 12.556-3.541.965-6.44-1.288-2.575-1.932 4.185-.644 28.974-17.063 30.906-32.838v-2.253c-10.624 9.336-26.399 21.891-38.955 26.076-20.926 7.083-26.721-19.96-21.248-47.003 5.15-27.365 34.448-55.696 47.97-57.306 4.184-.322 9.335 4.83 13.843 10.625.322-16.742.644-31.551.322-37.99-.322-18.672-7.083-18.028-17.385-8.692-10.624 9.336-24.146 37.667-25.755 43.462-1.61 5.473-5.473 6.117-5.473.322 0-5.473-.644-58.593 0-63.745.322-4.828 3.54-6.117 4.506-.643.967 5.795 8.05 26.72 11.59 24.145 3.542-2.254 20.927-28.33 37.023-28.975 16.098-.644 22.859 16.742 23.18 29.62.645 13.198-5.794 93.04-4.829 103.02.966 9.98 1.61 21.57 7.727 24.79 5.795 3.22 8.37 6.76 4.507 6.76zm-36.379-42.175l.966-37.344c-8.048-5.796-17.707-9.981-24.468-6.117-9.98 5.795-14.165 59.236-4.83 61.49 7.084 1.61 19.961-8.693 28.332-18.029z"/><path class="st0" d="M1151.037 11.865c14.166.321 63.1-9.658 65.677-9.98 2.897-.322 2.897 2.253 2.897 2.253s-8.37 1.61-11.911 17.063c-3.542 15.132-9.66 199.282-8.694 203.145.644 3.864 7.727 15.775 14.488 16.419 6.439.967 3.542 4.83 3.542 4.83-10.625-.644-55.696 0-64.711 1.287v-2.575c9.659-1.288 24.79-8.692 26.721-24.79 1.932-16.419-3.54-183.184-3.863-188.014-.322-4.828-8.37-12.234-17.385-13.2-9.014-.965-8.692-2.253-6.76-6.438z"/><path class="st0" d="M1360.297 215.01c-5.795 13.522-25.755 36.058-31.872 41.53-20.926 19.317-25.755 18.673-26.72 9.98-.967-8.37-2.577-49.9-3.22-62.778-.644-22.858-6.118-34.126-14.166-47.326-2.253-3.862-6.117-5.795-11.59-7.082l-5.795 6.117c-1.932 30.262-4.185 67.93 0 71.149 5.795 3.863 11.59 6.438 17.385 6.438 5.795 0 7.727 2.255 4.83 3.22-2.899 1.288-66.32 8.693-70.828 9.658-4.185.966 2.898-4.506 5.473-6.117 2.254-1.287 20.926-14.165 20.926-24.145s3.22-181.253 2.576-191.234c-.322-9.657-8.371-14.487-13.2-16.096-4.507-1.61-.322-3.542-.322-3.542 10.624 0 65.676-2.897 70.184-4.507 4.184-1.287 7.082 2.254 1.931 4.185-5.473 1.932-26.4 10.946-29.296 22.858-2.898 11.912-6.761 76.3-8.049 103.988 0 1.287-.322 2.897-.322 4.506 9.336-13.2 22.858-32.838 26.077-39.277 5.473-9.658 9.98-17.706 1.288-33.481 9.98 3.863 27.687 10.302 41.53 15.775 11.268 4.507 20.283 5.473 20.283 5.473v2.897c-5.795 0-28.009 6.76-36.058 13.2-4.829 3.541-25.433 24.79-41.53 41.852 15.775 2.576 38.31 15.453 39.92 26.721 1.932 12.878 5.152 57.95 8.693 59.56 10.302 4.506 26.4-14.166 29.297-18.03 2.575-3.862 6.76-4.829 2.575 4.508z"/><g><path class="st1" d="M491.99 404.922l-.607.26v-.26l-.865.174-.52-1.558h-.346v-1.039l.26-.26v-.865h.606l.865-.865h.866l.433.432h.692l.173-.26 1.731-.606.26.174.952-.433-.52-1.731.173-.433v-3.029l.26-.865v-1.125l.346-.347-.346-.346-.346-.951.606-1.645-.26-.692h-.26v-.606l.26-.434.26-1.557v-1.125l-.52-.173-.259-.865.952-.693v-.173l-.952-.346.26-1.386.778-.432-.952-1.298.173-.952.433-.693-.606-.606.173-.432v-1.99l-.173-.607.173-.865-.259-.693.433-.952-.347-1.211.26-.433-.26-.952v-1.039l.173-.259-.173-3.895.173-.865h-.259l.26-.866v-5.452l-.26-.434.26-.259-.347-.865v-3.29l-.951-2.422-1.992-.433h-1.211l-.606-.52-.26.693-.865-.866v-.606l-.605-.518.345-.693-.345-.692.951-.952h.52l.346-.26h2.683l1.039-.173h4.673v.519l.606-.347v.434l4.068-.693 1.817.26 1.038 1.039-.518 2.942-.866.606h-1.818l-.692.26-1.645-.433.347.692-1.299.173v1.299l.434.26-.26.172.26.433-.26.346.432 3.981-.433.692.26.26-.26.26v3.029l-.173.173.173.26v1.298l-.173.693.173.173-.173 2.25.434.347v3.288l.779 2.164 2.076-.606h1.905l.606.52.518-.26h.693l.173.172.52-.173v.173h.605l.433-.432.865.432.347.434.346-.607.692-.26.173.26.692.173.347.52.26-.52.519.26.26-.778.346.345.605-.26h1.558l.78.347.778-.346h1.299l.778.779 2.078-.347.346-.432h.779v.432l.519.693.346-.952.606-.346h1.125l1.904-.692.52.432.173-.173v-1.125h-.433v-.692l.433-1.558-.693-.606v-5.02l.433-1.125-.433-1.472v-2.423h.52l.173-.433-.693-.259v-.866h.693l.173-.173-.606-.433v-.952l.26-.172v-1.299l-1.385-1.731v-.26h-1.299l-.606-.432-2.25-.433-.259-.26-.346.52-.606-1.818.346-.432-.346-.607.606-1.124 1.038-.52-.692 1.126.779-.26v.26h.346l.26-.433-.26-.173v-.433l.52.172.172.434h.174l.432-.606h3.981l.52-.346.345.346h2.251l.173-.433.433.433.433-.26h4.154l.173.432 1.385.26-.865.26.605.606v.26l.52.172v.866l.346-.173-.347 1.298-.779.693-3.202.173-.432.173h-1.126l-.432.519-.174 1.212v3.116l-.259 1.557-.26.433-.173.693.433.345v.52l-.606.173.865.865-.605.52.605 1.038-.259 2.078.26.519v3.721l-.26.433v1.299l.346.346-.346 1.212-.26.259h.52v1.038l-.26.52v1.038l.26.433v6.145l.26.606-.52 2.424h-.606l.865 1.73v1.991l.26.346-.778.779.259.432.433.174v2.424l-.174.432.174 3.116v3.288l.173 2.337.52.433v.606l2.25-.433 1.038.52 1.298-.347 1.039.692v2.078l-.347 1.99-.865.174h-3.116l-1.125.173-3.548-.173-1.212-.433-.52.433h-1.73l-.26-.26-.605.26h-1.558l-.347.173-1.125-1.04h-.865v-1.124l.346-.866-.346-.432.259-.866h1.212l.692-.692h1.298l.693.26 1.298-.52.433-1.47v1.124h.606v-1.558h-.346v-2.423l.346-.433v-.433l-.346-.173.346-.432-.173-.433.432-.52v-.605l-.432-.693.518-.78-.518-2.769.173-.605h.606l-.693-1.212.779-.952h-.433v-.433l.26-.26h-1.125v-.692l1.038.346.26-.52v-1.297l.173-.432-.606.692-.26-.26h-.605v-2.51l.606-.346-.173-.346h-.433v-1.385l.951-.432-.345-.693v-.433h-.346l-.26.692-.346-.865.346-.865.433-.434-.173-.518-.606.952-.693-1.125h-.692v.432h-1.125l-1.212-.519-1.038.433-.78-.78-.692-.26-.26.867-1.297.26-2.598-.26v-.347l-.432.174-.26.432-.346-.26-.519.26h-4.847l-.346-.606-.433.174-.26.432h-.865l-.606-.26h-1.73l-.347-.519-.432.347-.087.432-.52.26-.865-.52-.865.52h-1.299v-.692h-.432l-.692 2.855-.26.26.26.174-.26.26v.432l.26.173v.432l-.26.26.346 1.818-.347.519.347.693-.52.432.606 3.376-.433.346.26.26v1.384l-.778.346.779.433v1.99l-.347.953.433.606-.347.779v.52l-.345.777.606.26v.433l-.26.26.26.173v.866l-.52.778.52.606v.346l.259.26.173 1.73 2.943.347.433.433.778-.692 1.471.779.347 1.384-.347 1.991-.432.433-.865.173-.606-.173v-.26l-.346-.346-1.039 1.125-2.51-.346h-3.116l-.346.173h-1.385l-.606-.173-1.99.692-1.818-.866zm6.144-10.126h.52v-.605l-.52.605zm5.54-20.512h.605v-.52l-.606.52zm.172-1.125l.174-.26v-.605l-.174.865zm15.32 1.298l.172-.173h-.432l.26.173zm1.124-1.904v-.519l-.259-.173v.173l.26.52zm1.212.606l.26-.26v-1.038l-.433.692.173.606zm5.02.779l.519-.78v-1.124l-.346-.346-.346.606.433.26-.174.605-.691.26.605.519zm.952 30.725l.26-.346-.26-.26-.26.173.26.173v.26zm.173-55.997h.26l-.26-.26v.26zm.52 24.753h.346l-.173-.52-.174.52zm.173 8.915h.432l-.432-.693v.693zm.432-18.522l1.385-.26-.865-.432.865-.433-.52-.433h-.605l-.26.173.26.26-.26 1.125zm.865 6.059l.26-.174.26-1.558-.52.174-.779-.174.52.866.26.866zm-.605 34.359h.173l-.173-.173v.173zm1.471-47.255v-.173h-.259l.26.173zm.606-1.299v-.259l-.346-.173v.173l.346.26zM546.95 404.663l-.52-.26h-.866l-.865-.865v-1.039l.26-.692v-.866l1.125-1.125h4.5l1.125-1.038.433-1.558.866-.866h.951v-1.557l-.519.259-.26-.26v-1.211h.78v-.78l-.346-.692.345-.779.173-1.124.433-.347.607-1.558-.347-.346.606-1.644v-.606l.606-1.645.519.26v-1.211l.173-.26.173-1.991.52-.865v-1.126l.605-1.298.26.26.173-.26-.173-.432.173-1.04.346-.346-.346-.432v-.346l.432-.52v-1.038l.867-3.03v-.692l.432-.432v-.866l.26.173.26-.173v-.865l1.038-4.155.433-.865.692-1.904-.346-.347.26-.432v-.606l1.038-2.423.432-2.078.26-.346.26-1.298v-1.298l.26-.433v-.606l-.26-.26.346-.346-.605-.52h-.347l-.26.434-2.336-.866-1.385.52-.866-.347-.865-.865v-2.77l1.211-.778.433.432 2.943-.606h3.462l.692.52.26-.52h3.03l.519.26 1.211-.26.692.52.347-.26.606.52-.347.346.866.865v.52l.692.605v.346l1.731 6.145.26 2.51.606.866v1.471l.432.433v.692l.434.866v1.557l.692 1.039-.174.173v.52h.174l.865 1.99 1.298 4.76-.346.433.087 1.558.519-.26.866 3.116v1.211l.432.52v.865l.692 1.299.347 3.461.259-.606 1.125 3.03v.865l.433.865-.26.434v1.298l.26.259-.26.607.433.518v.606h.433l.433.606.692 2.51-.432.346 1.038 1.385-.173.433.433.432.26.606-.26.26.26.173.173.693-.173.173.346.692h1.124l.866.432 2.164-.345 2.077.345.606 1.126v2.596l-.692.606h-1.558l-.952.606-4.674-.692-1.125.605-.866-.259h-1.298l-1.039-.346-.692.346h-1.038l.086-.26-.865.26-.347-.26-.259.26h-.866l-1.558-1.472v-1.99l.779-1.039.779-.346 3.116-.173.865-.865v-.693h-.26l-.605-1.471.173-.693h-.173l.173-1.125-.693-.605v-.866l.52-.26-1.125-.693-.866-3.634-1.384-1.644-1.645-.347-.52.433h-1.037l-.26-.26-.693-.173h-.865l-.173-.173h-.693l-1.211.606-.26-.26-1.385-.173-.26.347-1.384-.347-.952.433-.173-.26h-2.596l-.52-.346-.26.26-.346-.26-.26.173h-.865l-.346.173h-1.385l-.433.26v-.26l-.433.26h-.432l-.347 1.039-.779.692h-.432v.26l.693.605-.866 1.299-.52 2.25-.26 2.25-.778 1.471-.174.866-.259.173v.52l.433.346v.26h-.433v.258l.433.347.866-.347.692.174.432.432h2.337l.693 1.385v1.99l-.693.953-.606.26h-2.423l-.52.346-5.019-.433-.606.346-1.471-.259-1.385.346-1.904-.346h-.173zm9.346-7.184v-.26l-.26-.173v.174l.26.259zm7.617-13.155h.519l.346-.346 1.644-.347.866.433 1.471-.346.866.346 1.038-.606.52.52 1.125-.26h1.211l.866.606h.346l.346-.606h.433l.26.346h.865l1.299-.346.518-1.038.347.433v-1.126l-.433-2.423v-1.299h-.26v-.259h-.433l-.432-.865-1.299-6.318-.432-.434v-.432l.26-.26-.26-.173-.606-1.99v-.693l-.519-2.164-.866-1.038v-1.125l-.346-.866v-1.124l-.519-1.04.26-.259v-.606l-.52-.52-.865-2.596-.174-1.558-1.47-1.211-.953 1.038-.865.434.26.172v.866l-.693.26v1.471h.26v.865l-1.385 3.549v1.125l-.346.26v1.211l-.865 1.731-.347.347-.693 4.413-.606.52.434.692h-.434v.865h-.345v1.04l-1.385.865.78.52-.52.345v2.25l-.606 1.991v.865l-.693.865.173.693.347.26-.692.346.172 1.125.433-.26.433.26.173-.52 1.73.52.26.606zm-1.212-.26l.086-.346-.086.26v.086zm1.471 1.818l.347-.606-.606-.26v.433l.26.433zm.606-40.592l-.346-.086.346.086zm1.731 8.482h.519l-.519-.26v.26zm1.558 1.299v-.433h-.173v.26l.173.173zm.692-2.597h1.038l.26-.692-1.125.26-.173.432zm8.309 31.244l-.433.26.173-.26h.26zM602.689 404.403l-.606-1.558.78-2.51 1.21-.432.346.951.347-.779h1.384l.433-.26.173.52.433-.26.26.26.433-.26.432-1.124.433-2.164v-2.337l.432-3.375-.345-1.299h.345v-.865h-.26v-1.299l.26-.172v-4.241l-.26-1.212v-2.943l.26-.865v-1.038l.26-.173-.52-.78v-1.73l.26-.347-.345-.346.345-.78v-1.124l-.26-.173v-2.423h.26l-.26-.433.26-.606-.26-.26.26-1.385v-2.076l.26-.26v-.866l-.432-.346.433-1.644v-5.453l-.26-.692v-.866l.26-.172-.26-.26v-2.597l-.433-.865v-.606l-.433.865-.432-.26h-.433l-.866-.519h-1.125l-.692.26-.347-.346h-1.124v-.52l-.26-.259.26-3.03.865-.432.779.26.693-.26 2.682-.174v.174h1.299l.432-.174h1.126l1.47.174.52.432 1.385-.692.951.952.434-.432 1.124.172.433-.432h1.904l.52.432 1.211-.519v.52h.953l1.038-.433.26.26.259-.26h.866l.173.26 2.51-.347.606.52h.865l.347-.173h.865l-.347.606.347-.174.26-.432h.26l.259.432h.173v-.692h1.99l.692.866.606-.606h1.731l.953.865 1.211.606v.52l.693.345 1.73 1.99.434.26v.607h.692l.605.692v.433l-.432.433.26.173.26-.26.778.26v.518l1.558 1.039v1.558l-.173.173.173 2.51-.173.865-.52.087.26.78.433.345v.26h-.433v1.125h.26l.346.433v.433l-.519.605.519.26v2.77l-.519.346.519.519-.173 2.51v2.164h.173v1.125l-.346.346-.26.865-.606.866-.779.432-.346.693h-.433l-1.384 1.385-1.039.606-.346 1.038-.519.26-2.424 2.423-1.73-.173-1.126.173-.173.433-.26-.26-1.125-.26-1.038.26-.78-.346-1.124.606-1.818-.433-.606-.605-.259.778-.173-.346-1.385.173-.173.173h-1.126l-.259-.173-1.817.26-1.905-.692-.346.432-1.125-.173-.605.173h-1.558l-.434-.432-1.298 1.038v1.298h-.692v1.125l-.26.347.606 1.211-.606 1.212.26.432-.173.52-.433-.346-.606.952.52.26-.26.346.346 1.644.52-.606.259.779-.346.52h-.52v.259l.347.26-.693.78v1.037l.347.52.52-.26.432 1.385-.26 1.211.173 2.423.693.606.173-.345h.519l1.039-.52v1.644h.606l.345-.951.78-.173v.345l.519-.345v.605h.346v.52h.26l.52-.607.864.78v1.73l-1.125.174.26.692-.52.433-2.076.346-1.386-.346-.26-.26-.259.693-1.471-.433-.952.26-.866-.26-.345.26h-5.886l-1.385-.52h-1.211zm9.087-9.347h.26l-.26-.433h-.26l.26.433zm.606 2.856h.26v-.26l-.26.26zm12.55-18.608l.173-.433.692-.173-.26-.26v-.432h3.116l.26.173.346-.173h3.116l.606-.173.692.606 3.721-3.982 1.126-.779v-.259l1.47-1.99v-.606l.347-.952-.346-.606-.26-1.818.347-.779.519-.173-.606-1.385v-1.125l.52-2.25-.26-.346v-.693l.951-.26-.432-.865h-.78v-4.068h-1.124l-.346-.865-.78-.26-.086-.433-.26-.173-.52-1.038-1.21-.952v-.174l-.52.174-1.039-1.039h-.432v-.26h-.433l-.779.346-3.895-.778-1.47.433h-5.02l-.174-.26-.52.26h-1.124l.26-.26h-2.337l-1.126-.52-.345.78h-1.213l-1.297.345v1.905l-.693 1.644.52 1.731-.26 1.731.433-.173v.952l-.433.347.433.865-.52 1.47.433.347-.346.606.26.26-.52.172-.173.693.173 1.471h.26l-.26.866.26.26-.26.259v1.99l-.346.347v1.558h.346l.346.865h-.52v1.299l.174.26v1.557h-.346l-.26.606.26.52.346-.26.26.346.26 1.818h.346l.345.951.78.52v-.606l1.039-.346 1.038.432 1.904-.432.779.52 1.125-.347.52.173.173.865.432-.865.26.173.865-.346 1.298.173-.259.692.26.606zm-11.77.26h.172v-.26h-.433l.26.26zm2.162 24.233h.434v-.606l-.693.173.26.433zm2.597 0h.26v-.433l-.26.433zM657.907 404.922l-.692-.259-.606.26h-2.423l-.865-.693v-.433h-.52V402.5l.52-.432-.606-.434v-.173h.26l.346-.779.345.26v.26l.52-.52.259-.606h2.77l1.384-.345.347.345.52-1.384-.26-.952-.26-.26.52-1.73-.26-1.558.26-.26v-1.471l-.26-.866.26-.52v-2.596l-.433-.779.606-.259-.174-.52v-1.211l-.605-1.212.692-1.384-.606-2.078.26-.433v-.432h-.26l.26-.433v-2.164l.26-.52-.26-1.47v-1.99l-.26-1.3.26-1.298-.433-3.029.26-1.385-.26-.605v-3.29l.173-1.47v-3.808l.26-.433v-2.77l-.433-.52v-1.99l.432-.346v-1.125h-.865l-.26-.433-1.298-.26h-1.125l-2.336-.605-.26-.26-.346.433-.52-.606v-1.99l.26-.174-.346-.346.779-1.038 4.587-.606h5.02l.432.345.866-.345h3.288l.606.26.346.519.52-.52h1.99v.347h1.385l.26-.606h1.211l1.299.26 1.211-.433.78.432 1.125.086.865-.345h1.644l.347.606.605-.606h4.847l.433.345.26.78h.605l1.299 1.212v1.124l1.297.347.867 1.211 1.557 1.126.605 1.038v.606l1.645.433v1.125l.174.26v5.625l.432.866v1.125l-.26 1.212.346 1.644-.345.432h-.347l.347.693v1.558l-.347.346.347.26v2.856l-.347 1.298v.692l.174-.432h.173v.605l-1.472 1.558v.26l-.865.605v.434l-.52.26-.086.346-.779.518-.606.866h-.605l-.26-.26-.433.26v.433l-.606.865-.26.866-.865.865-1.125.866h-1.472v-.606h-.779l-.086.432-.779.174-.606-.26-.866.347-.865-.26-.432.433-3.116.26-.26-.26-.952-.26-.26.52-.346-.347-.52.346-.864-.26h-2.424l-.26.26h-3.72l-.434-.26-.433.26v-.432l-.606.432h-.518l-.434.347h-1.038l-.26.865-.173-.173v2.077l-.865.347v.259h.606v1.731l.345 2.077-.345.52.26.865-.26.432v1.385l-.346.606h.605v1.125l-.52.173.26.865h.434v2.251l-.174.173.174.173v.52l.259.173.52 1.47 1.644-.432.952.865.346-.606h1.471l.952.866-.173.26.173.866.174-.866.259.432v.866l.26.433-.52.692-.346.173v.693h-.52l-.605.606-2.423-.433-.347-.346-1.211.605-.433-.432h-.606v.432h-3.462l-.519-.432-1.038.692-.26-.26h-.866zm3.895-44.485h.26l-.26-.087v.087zm.692-.087l.173-.26h-.173v.26zm18.349 17.656l.26-.433v-.52h3.461l1.125-.951.26-.692.346.432 1.472-2.25h.952v-.606l.606-1.125h.518l.866-2.164v-.865h-.433l.26-.779-.346-5.626.346-1.125-.26-.346v-1.125l.173.26.346-.953-.52-1.038.261-.692h-.432v-1.99l-.953-1.473-1.211-1.47h-.606l-.779-1.646h-.866l-1.471-1.99-.52.52-1.903-.953-.347.433-.346-.346-.865.78-2.164-.347-.52.173-2.855-.173-.347.173-4.327.26-1.471-.433-.346.173h-1.385l-.173.26-2.597.692v.433h.433l-.952.345v.866l.346.606-.346.692.26.434v1.817l-.434.432v.866l.434.433v2.25h-.26v.865l-.26.52.606.606-.346 1.038.26.432v7.27l.26.867-.26.345v2.943l.26 1.472.432 1.124.432.347h.433l.346.432.78-.432.173.26h2.423v.519l.605-.78h6.665l.346.26.52-.26h.606l.519.607.346-.347 1.904-.26.26.953zm10.126-22.33h.173l-.173-.259v.26zm3.721 14.454v-.173h-.259l.26.173zM710.529 405.442l-.865-.866.173-3.116 1.385-.606h.865v.26l2.596-.433.952-.519.606.26.433-3.462-.26-1.211.173-.78-.346-.346v-2.51l.26-.779-.26-.26.26-.432v-1.558l.346-.432h-.26v-.433l.52-.607h-.52l-.432-.865.345-.779.087-1.211.26-.52-.606-.173v-.692l.346-.433v-.866l-.346.26-.606-2.596-.779-1.645-.346-.345v-.52l-.433-.26-.26-1.644-.692-.866h-.173l-.173-1.125-.52-.865.347-.606-.952-.52v-.605l-.693-1.298-.606-2.164h-.518l.26-.693v-.692l-.434.52-.173-.693-.52-.866-.173-1.298-.691-.432.259-.26v-1.298h-.865v-.433l-.606-1.558h-.26l-.519-.692-.346-1.471-1.558-3.463v-1.384l-.692-.692.345-1.645-.865 1.645-.952-1.472-3.894-.26-1.04-.952-.345-.952.346-.346-.346-.346.519-.865v-.607l1.211-.692h1.385l.606-.173.433.173 2.423.173 5.02-.173.26.173h.865l.52-.26.951.52 1.126-.347.692.347.346.693v1.903l-.519 1.731h-1.818l-.346.347-1.211-.52-.606.433v-.433l-.607 1.039.78.433v1.125l.692 1.125v.692l.174.173-.174.26.347 1.298.26.173.432.865.692.693v1.039l.52.605.432 1.818 1.645 2.25v.866l.432 1.99.26.173.346 1.299.52.433v.692l.779.779.345 1.558.606.692v.26l.347.346-.347.26.866.865v.866l.433.865v.693l.606.518.952-.952v-1.038l1.038-.692v-.693l.26-.173v-.692l.519-1.212.606-.52h.26l.346-1.125.259-.172.173-1.558.433-.433v-.866l.606-1.297.52-.434.865-2.596 1.471-2.856.26-1.125h.433l1.125-3.289.432-.606.606-2.683.346-.346-.952-.692h-1.385l-2.336-1.212v-2.942l.346-.434.26.173 1.385-.432 1.73-.26h3.03l.952.26 1.298-.26h4.068l.26.26h.432l.173.26h1.299v.606l.692.692.173.692-.173 1.645-.692.26h-1.299l-.865.605-3.116.26-.606.865-.346 1.298-.78.866-.346 1.125-.518.692-.347 1.732-1.125 2.163-.433.433-.432.865v.52l-1.299 2.337v.692l-.692.432v.952l-.693.953v.346l-.865.519v.866l-.346.26v1.557l-.519.433-.346.606h-.52v.52l-.26.172v.692l-.346.174.347.346-.347.346-.26-.26-.259.26v1.557l-1.039 1.04h-.432v1.817h-.26l-.346 1.212v.865l-.606.52-.52 2.336.347 1.125H721v1.04l.26.518v1.125l-.26.606h.26v1.472l-.26.519.346.692-.52.78.174.259v1.298l-.173.26.173.173-.173.433h.432v5.452l-.432.866.173 1.124 1.212.607.779-.434h1.99l.606.52.26-.26h1.212l.26 1.125.259.173v1.039l-.26.26v1.125l-.865.865h-3.203l-.26-.259h-2.422v-1.125h-.606v1.125l-.78.346-.605-.606-.346.26h-.692l-.174-.26-.52.52-.864-.26-.26-.606h-.606v.346l-.52.693-2.077-.433h-1.99zm-6.751-55.478h.26l.173-.432-.433.432zm10.905 26.398h.433l-.433-.173v.173zm2.164 6.577l.26-.173h-.26v.173zm4.413 21.637l-.259.52.26-.52zm.174.52l.432-.26h-.172l-.26.26zM790.069 404.663h-1.558l-.173-.433-.865.433-.52-.26v-.606l-.26-.346.433-.778h-.519v.518l-.52.606-.172-1.298.692-.346v-.52l-.346-.605.52-.433.779.693.518-.347.606-.866h2.51l.78 1.385.778-1.817.087-.865.605-1.472-.345-1.557.26-1.299v-2.77l.864-.346v-.26l-.692-.692.433-.779-.865-.865.26-.433-.52-.693.692-.605-.692-.952.26-.346.26-1.645.258-.086-.778-.78.778-.605.088-1.299-.866-.432-.347.26v-1.99l.26-1.991h.347l-.607-.693v-3.202l.26-.866-.26-1.385v-2.77l.346-.518.52.26.26-.433-1.126-.52-.26-4.933v-6.924l.26-.519v-1.125l-.26-.173v-.433l-.432-.26v-1.471l-1.298-1.298-1.904.606-1.385-.606-.866.433-6.577.173-.606.432-.26.433-.432.26v6.317l-.26.693-.173 1.471-.433.434h-1.731l-1.471-.78-.26-2.51v-2.942l-.432-3.981.433-3.29.605-.952 1.731-.432 1.212.346.951-.432 1.558.605 1.905-.52.52.26 3.72-.345 1.558.086.606-.26 1.299.26h1.297l.78-.26 1.817.26.52-.086v.086l.346-.26.259.26h.866l.519-.347h1.298l.174.26.345-.432.347.432.173-.26h.693l.432.26h.865l.433-.26h5.02l1.298.26 1.212-.432.779.432 1.039-.605 1.124.605.866-.52.519.52h1.299l.605 1.732-.173 1.47.347.606v1.385h-.606l.519.78-.52 1.816.866.26v1.298h-.26l.347 1.039-.346.432v1.386l-.174.172.174.174-.347 1.125-.865.433h-2.25l-.606-1.298v-5.712l-.347-.26.693-.693-1.644-1.558-1.99-.259-.953-.346-1.645.52h-1.644l-1.385-.347-.692.346-.866-.173-3.116.433v.605l-.432.433v1.558l-.346.346.606.52v.26h-.52v1.124l.26.606-.26.605.52.52v1.472l-.52.692h-.173l-.173.432.866.866v.433l-.347.26.52 1.038v2.424l.26.345-.26 2.251v2.423l-.433.433.432.173-.692.26-.173.605.173.26.26-.432h.26l.519 1.298-.347 2.336.26.26v1.385l-.26.173v.432l.434.347-.434 1.644.347 1.904-.347.26.26 3.98.174.607-.52 1.298h.346l.174 1.731v3.116l-.434 1.212v1.124l.26.26.26 1.472-.433.432.606.52v2.337l.433.519 1.125.346.173.779.433-.52h.432l.433-.259.433.26h1.557l.347-.26 1.558.779.346.865-.346 2.424-.78.78h-1.73l-.52-.261-.432.26h-2.856l-1.039-.26h-1.298v-.606l.346-.865-.346.26-1.125 1.471h-1.472l-.779.26-1.903-.693-.866.433zm-2.164-1.125l.173-.347h-.173v.347zm6.75-13.935l.867-.433h-.866v.433zm.867-11.77l.432-.692-.432.26-.173-.433-.52.605.52.866.173-.606zm.432 6.75l.78-.52-.347-.345-.173-.52h-.519l-.26.866.52.52zm-.432-22.675h.432l-.259-.52-.173.52zm.432 20.685v-.606l-.432.347.432.259zm.26-21.377l.173-.26h-.173v.26zm.606 38.86h.26l.172-.26h-.172l-.26.26zm0 .865h.26l.172-.26h-.172l-.26.26zm2.856 0h.173v-.26l-.173.26zm14.021-49.765l.172-.433-.172.173v.26zM823.045 404.057h-.78v-1.73l.26-.26.52-1.558h1.73l.606-.434h1.472l.26.866.259-.26v-.606h.692l.606-1.73v-1.558l.865-.866v-1.125h-.865v-.866l.347.693 1.124-1.904-.26.26-.691-.693-.26-.952h-.26v-2.596h.26v-.433l-.26-.432v-1.99l.26-.694-.26-.606v-3.289l.433-.432-.433-.865-.26-4.674-.172-.087.173-2.25v-8.481l-.173-.52v-5.28l.259-.259-.26-.346v-7.53l-.865-.606h-.26v.26l-.346.346-.519-.606-1.299-.346-.173-.26-.692.606-.952-.086-.086-.26h-.52l-.605-.606-.26-1.125.519-.52-.433-.951 1.644-.953h1.385l.173.174.433-.174v.434l1.125-.434.174.174h.865l.952-.433 1.472.26v.173h-.173v.346l1.47-.779h1.385l.78.865 1.21-.865h3.203l.693.693.173 1.99-.433.346.433.52-.433.605v.433l-.866.173h-3.895v.78l-.259.346.26.259-.26.433-.26 6.058-.259.692.433.347-.346.346.173.433-.173 1.038.432 1.125v1.732l-.26.518.347.78-.346 2.51h-.347l.347.086v.952h-.606l-.26 1.298.606-1.038.26.78.692.691v.433l-.346.432 1.212.26.865-.432h2.423l.952.172.866-.172h5.193l.519.519 2.25-.52h8.136l.779.173 1.817-.432.865-.866.52-1.471.173.173v-1.558l-.432-.865v-1.99l.432-1.905-.173-.26v-6.75l-.26-1.126-.26-.432v-1.905l-.172-.865-.433-.779-2.597-.086-1.99-.779-.692-.606.26-1.125-.347-.26.346-.346-.346-.26.346-.605 2.337-.866h1.558l.26.433h.865l.433-.433h.692l1.731.433 1.904-.78.952.434 1.298-.433.26.866.779-.433.173.346.52-.433h1.297l.693.606.433-.173.519.173.433 1.385-.346 1.73-.866.347v-.087l-1.039.346-.865.52-1.299-.346-.432.432-1.471.433-.346.693.259.605-.433 1.645.174 1.298h.173l-.173 1.298.173.173v10.386l-.173.78.173.432-.173 4.154-.174.26.606 1.298-.26.433v1.125l.26.346-.26.52-.173 1.73-.173.26.347.346v1.385l.259.173v.692l-.26.173v4.328l-.346 1.99.78.433-.52.952.605.173-.518.433v.692l.259.433v2.683l-.346 2.078h.52l-.433 1.817-.606.173v.26l.432.173v.432h.347l1.47 2.684.088-.693.519.173.346-.173.26.432.519-.259.173 1.385.865-.865-.173-.52h2.164l.52 1.817-.347.866v.692l-.606.174v.692l-.26.173-.172-.692-.26.52h-.433v-.347l-.606-.346-.345.865h-1.386l-.692.346-1.731-.346-.433.433-1.644-.606-.779.346h-1.385l-.605-.606-.26.26-1.125.173v-.865h-.606v.865l-.606.173-.52-.173-.346-.433h-.865l-.52-.432-.345.173v-.347l-.26-.259v-.865l.26-.434-.434-.345 1.04-1.213h.605l.346.606.779-.345h1.212l.26-.693.26.173v.865l.864.52v.606h.52v-.606l-.346-.952.346-1.298v-6.75l.173-.867v-2.164l.347-.692h-.347v-2.596l-.173-.432v-5.713l.52-.52-.52-.519-.52-3.115-1.124-.606-.347.26-1.384-.26v-.52h-.866l-.26.433-1.903-.432-.347.346-.26-.346-.692.52h-1.298l-.433-.261-.173.26h-1.384l-.78.346-.692-.346-2.25-.26-.866.346v-.605l-1.73.259-.434.52h-1.99l-1.298-.26-.693.26-3.894.086.519.346-.865.52-.26 3.115-.346.346.433 1.818-.347.692h-.26v.433l.52.26-.779.346.433.346-.52.519-.26-.346v-.52h-.519v1.126h1.645v3.722l-.606 2.164.693.605-.347 1.385-.26.26.52 1.73.173 5.453.433-.173v.346h4.24l.347.693.692.692v2.943l-1.125.52h-1.298l-1.126.345-2.682-.433-.866.52-3.202-.606.173-.26-.346-.173v-.52l-.52.26v1.126l-1.73-.26h-1.905l-.345.346-1.385-.606v-.346zm5.279-.693l.779-.432-.347-.433-.432.865zm.606-57.208v.173h.173l-.173-.173zm0 54.18h.52l.432-1.126h-.347l-.432-.606-.173.174.173.432-.173.433v.693zm1.904-18.522l-.693-.952-.519.606 1.212.346zm-.865 5.798h.432v-1.038h-.432l-.347.26.347.778zm-.173 4.588h.173l.692-1.385-.52-1.212-.172.26v1.904l-.173.173v.26zm.865-14.194l1.211-.693h-1.211v.693zm1.73 4.587v-.433l-.519-.692.26-.606v-1.73h-.606v1.47l-.519.866-.087.692.866-.173.26.606h.346zm-.519-5.02l.52-.26-.26-.172-.26.432zm17.137-5.02l.347-.432-.347.173v.26zm11.078 28.907h.26l-.26-.26v.26zm.26 1.904l.26-.173h-.26v.173zm1.125 0l.433-.173-.26-.26-.173.433zm.433-23.627v.26l.173-.433.433-.26.52-.865v-.606l-.434-.347-.692.693v.519l-.26.433.26.606zm0 24.06l.173-.433-.173.174v.26zm.432-41.11h.433v-.173h-.26l-.173.173zm5.453 40.677l.173-.173h-.173v.173zM922.145 404.057h-.26l-.26.433-.173-.26-.779.866-.605-.866-1.039.433-.346.433-1.818-.433-.432.26-.78-.52-1.038.606-1.039-.346v-.173l-.692.173h-1.645l-.345-.866.779-.865-.78.346v-.346l-.605.26-.26-.693.26-1.558.519-.346h1.211l1.126-.26.865-.865.26 1.125h.433v-.78h.346l.26-.605v-1.298l-.433-.433v-1.558l-.173-.433v-1.644l-.693-.26.693-.346v-.52h-.433v-.518l-.693-.606-.173-1.125-.519-.433v-1.471l-.605-.26v-.26l-.953-.692-1.384-.52-.52.607h-2.164l-.606-.26-.518.26-.26-.26-1.385.432-1.471-.605-2.77.433-.952-.346-1.038.346h-1.99l-.347-.433h-.78l-.346-.26-.605.693h-1.645l-.692.692-.606 2.596h-.433l-.346 1.385-.519.606-.173 1.04.432.432-.432.26v1.298l-.433.432v1.904h-.432l-.26.52.26.346 1.297.779v.951l.433-.086v.346l.606.692.26-.432v-.865l.865-.26.865.26.434.605v1.732l-.26.259v1.125l-.347.433-1.557.173-.433-.433h-1.125v-.606l-.173-.26v-.865l-.433.174v1.99l-1.818.26-.172-.693-.434.26-.692-.347-.432.347h-1.731l-.433.173-.173-.173-.52.173-.173-.173h-1.125l-.432.173h-1.731l-.953-.433-.346-.865h-1.125l.26-1.905.346-1.124.865-.26.52.519h.433l.692-.779h1.039l.692.52.432-.26v.26h.174l.259-.52 1.04-.086-.174-.52.433-.26.605-1.038v-.346l1.126-.52v-1.73l.518-.52-.518-.173v-.692l-.26-.173 1.212-.606-.347-.346.26-.087-.347-.26v-.259h.347l.26-.346h.346l-.692-1.039.779-2.077v-1.298l.432-.866.433.433-.173-.952.346-1.471.692-1.385v-1.731l.693-.606v-1.298l.173-1.125h.692v-1.99l.433-.866-.26-.26.78-3.202h.346l.605-.692v-1.126l.52-1.731.606-3.202.345.346.52-.605.26-3.03.346-1.99.52-.866.778-3.116.952-2.164v-1.124l.26-.173.519.605.432-.605-.519-.174.433-.259.173-1.645-.173-.952-.692-.692v1.817h.346l-.433.865h.346l-.432.347-.26-1.126-.26-.086-.173-.779-1.038-.692-.26.952h-1.039l-.692-1.125v-.346l-.26-.26-.26.606h-.173v-.346l-.865.346v.519l-.432.346-.866-.865v-2.683l.606-.953h.692v.347l.433-.173h1.99l.347-.174.779.174.26.346.951-.346 2.684-.26.865.347 1.385-.26.865.26 1.385-.347.346.26 1.298.173.606.693v.432l.865.865v1.126l.26.865-.26.173.693.78v.864l.692 1.905.173 3.116h.174l.259.605.52.433v1.038h.346v1.645l.519.346.346 2.683.26.433v.432l.952 3.203 1.644 5.972v1.558l.433 1.212v1.644l.26.346v.519h.605v1.904l.692.692v.693l.434 1.126.26.086.346 2.25.26.26-.26 1.038.518.26v.866l-.259.173.433 1.557h.173l.26.433-.433.174v.518l-.433.347v.779h.606l.52-.26v.26l.259.086-.26.26h-1.039l-.345.606 1.644-.087.693 1.731-.953.346.606.953.519-.26.52.605-1.212.52.779.432h.519l.26.433-.346.606h.346v.693l-.433.346.779.433-1.471.432 1.298.606.692-.779h.866l1.038.779.433-.26h1.558l.26.26h1.125l.952.433.346 1.645-.52 1.73-.778.433-1.385-.346-.606.606-.26-.174-.432.174-1.558-.26-.173-.779zm-35.226-9.866v-.26h-.26l.26.26zm-.26 7.876l.694-.26-.173-.174-.52.434zm.694 1.557h.172l-.172-.433-.173.173.173.26zm1.558-3.549h.172l-.172-.259v.26zm.605 0h.26l-.26-.259v.26zm.433-15.059h.26v-.173h-.26v.173zm1.99 16.444h.26l-.26-.26v.26zm4.587-17.482h1.126l.606-.26.692.346 1.817-.26.346.174h4.415l.778.432.26-.346.26.26.26-.52.345.26h2.25l.26-.606h.606l.26.26.432-1.038-.345-.346.779-.174-.52-.173-.606-.693-.605-3.98v-1.125l-.693.345-.433-3.115-.519-1.731-.346-2.423-.26-.173v-.52l-.519-.519.26-.346v-.347l-.866-1.644.952-.606-.26-.26h-.432l-.865-.865-.433-2.423-.26-.173v-.865l-.433-1.905-1.038-2.423v-2.51l-1.126-.173-.865.173-.52.52.52.432-.52.173v.865l-1.038 1.126.26 1.298-1.126.866v.865l.173.26-.865.865v.433l-.173.173.26.346-.52 1.039v.606l.433-.174v.433l-.606 1.298v1.385h-.432v.865h-1.126l.433.606v.866l-.433-.26-.346 1.125h.693l-.952 2.424v2.077l-1.126 1.904-.432-.433-.26.693.433.606v.345l-.865.866v2.683l-.26.606v.866l-.866.518 2.597.866-.086.346.345-.086.433.693.692-.693zm-2.25.605l.433-.605-.52.086.088.52zm.26 1.126l.26-.52-.26.26v.26zm1.298-36.783l.433-.173v-.52h-.606v.52l.173.173zm.692 11.598v-.953l.26-.087-.26-.518-.432.259-.173.606.605.26-.432.433h.432zm0-1.905h.26l-.26-.26v.26zm.866-1.817l.26-.173v-.26l-.26.433zm3.289-.693l.26-.173h-.26v.173zm1.99-4.5l.26-.52-.519.26.26.26zm-.259 1.471l.26-.26h-.26v.26zm13.76 43.707h.26v-.173h-.26v.173zm0 2.423l.26-.26h-.26v.26zm.26-4.154l.433-.433.692-.173v-.26l-1.124.433v.433zm0 2.683l.26-.26-.26-.26v.52zm.607 4.76v-.866l-.347.434.347.432zm-.174-5.712h.433l-.26-.606-.173.173v.433zm.866 5.886h.173l-.173-.347v.347zm1.558-4.588l.346-.173h-.087l-.26.173zm2.163 5.28l.433-.174h-.433v.173zM941.187 405.182l-.26-.519-.779.78h-3.288l-.433-.261h-.606l-.52-.952v-1.644l.26-.347.26-1.038.866-.52 1.038.434.693-.26 1.73-.174.433-.432h.433l.346.346.52-1.038v-1.472l.172-.519v-2.857l-.173-1.038.693-.692-.693-.26v-.78h.173l.26-.691-.433-.433.433-.433-.433-.433.606-.259-.433-.346.26-.26-.606-1.99v-1.212l.173-1.818-.26-.519.26-1.211-.173-1.991-.26-1.125v-3.463l.433-.865v-.865l-.432-.693.26-2.164-.26-.865v-10.04l-.347-.952.347-1.47-.347-.607.347-.259v-1.125l.26-.953-.26-.779-.347-.346.693-.692-.346-1.817-.78-1.299h-3.115l-1.385-.432-.26-.26h-.346l-.519-.346-.346-.693.26-1.038-.52-.692.26-.693.606-.692h1.385l.865-.434.866.26.345-.26.693.347 1.644-.347.606.434h.866l.173-.173h2.683l.346-.26.26.26 1.211-.606.952 1.038h.693l.865 1.731h.26l.779 1.558h.346l.52 2.163 1.124 1.04 1.472 2.942.26 1.73h.519l.346.867.52.605.346.866-.174.259.433.866-.26.433h.52l.606.692 1.125 2.164v.692h.432l.433 1.731 1.039 1.039.519.692.692 2.163.78 1.385.691.693.693 2.856 1.039.605.692 1.732.433.346-.346.433.346 1.211.519-.346.52 1.385.692.692.433.865v1.04l.432.432v.26h.26l.346.432-.173.606h.433l.432.52v.605l.693 1.385.346.347v.518h.347l.432.607v.433l1.212 1.297v2.684l-.173.346.173.26.519.259.346-.519.693-.346h.865l.433-.693h-.174l.174-1.125-.174.26h-.692v-.26l.692-.605-.518-.866.518-.52-.259-.346v-2.51l.26-1.038-.26-.433v-2.424l-.173-.172v-1.299l.173-.259-.433-.952.26-.78v-1.73l-.433.173.173-1.905.433-1.817-.173-.173v-1.557l-.26-.607v-4.414l-.173-3.461.173-1.99.26-.26-.26-.26-.259-2.078.26-.865-.174-.692.26-.607-.26-.95v-3.636l-.692-2.424-.606-.259h-1.385l-.606.173-.951-.952-.607.346v-.26l-.432-.173v.693h-.346l-.52-1.385v-.606l.26-.26-.346-1.038.952-.953.26.693v1.126l.865-.953v-.605l.346-.433h2.25l.78.346 1.038-.52 3.894-.432.693.606 1.212-.433h1.124l.434.433.172-.433.52.433.346-.26h1.125l.693.693v1.124l-.347.52.952.52-1.125.345.26.346h.26l.259.433-1.125.779-3.03.26-.259-.173h-1.125l-.346.433v.865l-.606 2.337.346 1.644-.519.433v2.164l.519.433-.26.865.26.606v4.847l-.26.26v5.019l-.605.346v.26l.606.26v.605l.259.52.26 1.903v4.155l-.26.173.26.26v.605l-.26.26.26.26-.52.26-.259.865.865 1.385-.346 1.817.346 1.125-.346.173-.26 1.99.606.347v1.038l-.346.347v2.683l.346 1.99-.259 1.04.519 1.037-.26 1.126.26.52h-.346l.433 1.384-.433 2.51.346.432v1.558l-.26.173.26.693-.433 1.471-3.029.52-1.125-.26.693-.26-.26-.26h-.606l-.865-.865v-.606l-.52-.433v-.432l-.606-.433.26-.173-.52-.52-.778-2.509-.347.952-.605-1.472-1.126-1.99v-.606l-1.038-1.125-1.99-3.722v-.865l-.433-.865-.606-.606-.26-1.213-.952-.605-.346-1.298-.952-2.078-.519-.518v-.433l-.779-1.125-.087-1.039-.52.173.347-1.039-.606-.26-.173-.259h-.346l-.52-.866v-.432l-.692-.692-.606-1.905-.606-.605-.26-1.126-.691-1.384-.607-.606-.865-1.385.173-.173-.173-.865-.692-.693-.693-1.471-.432-.433-1.299-3.289-.26-.173v-.692l-.605-.693h-.346l-.953-1.731v-.433l-1.384-1.817-.606-1.47v-.434l-.433-.866-1.125-.605-.433-.692h-.26l-.605 2.855v1.471l-.346 2.251v2.164h.346v1.038l-.26.693.26.692v2.596l-.346.347.606.519v5.885l-.606.606.606.26v2.164l-.26.692v1.298l-.26.26.52.432-.26.693-.346.346.346.52v.605l.26.26v.433l-.52.172.346.26-.345 1.039.692.346-.433.346.26 1.558-.606 1.211v1.386l.087-.26h.26v.693l-.347.345.866.693-.26.52-.52.172.52 1.558-.26.173-.26.693v.865l.78.173.26 3.03-.347 3.029.26.345.172.866 1.558-.692h1.731l.866.692.52-.26.864.52v1.731l-.259 1.99h-1.125l-.347-.259h-.951l-.347.606h-1.384l-1.126-.26-.865.26-.26-.26-.346.26h-1.471l-.346-.26-.606.26-.433-.779-.346 1.125-.26-.346-.519-.26zm3.115-25.705v-.433h-.259l.26.433zm1.472-26.484h.26v-.432h-.26v.432zm31.936 17.483l.173-.346-.173.173v.173zM993.896 405.269l-.865-.52v-.346l-.52.52-.605-1.818v-1.731h.606l.605-.693h3.116v.26h.26l.432-.432 1.039-.434h.606l.346-1.557-.519-.433v-.692l.519-.606.173.26-.173-1.385-.519-.174-.173-.432.173-.26v-3.289l.26-.432-.433-.433.173-4.587-.173-.346v-3.03l.692-.345-.26-.174v-.432l-.519-1.04.606-.605-.346-.519v-5.972l.26-.779-.347-.692.347-2.337-.52-1.298.26-2.078-.346-1.211.346-1.212-.173-.865v-2.164l.173-.606-.173-1.125.519-.52-.52-.605v-.606l.174-.26v-.692l-.173-.174.433-.432v-1.125l-.693-.346v-3.116l.26-.26v-1.125h-1.125l-1.126-.346v-.26l-.606-.259-.432.26h-.692l-.173-.433-.433-.173-.52.346h-1.211l-.26-.866v-1.73l.606-.866v-.52l.78-.346.085.174h.953l.173.259.865-.433h.52l.173.174.432-.347h2.856l.26.173 2.856-.346-.346.779.952-.606h1.038l.78-.26 1.47.26 1.04-.26.691.607h1.04v.692l.518.692-.26.433v1.298l-.258.173v.693h-.866l-.346-.173.172-.26-.172-.433-.346.606-1.04.433-.172.26-1.385.259-1.212.693v.779l-.26.605v3.116l-.605.346.779.693-.606.259.432.433v6.578l-.259.692.26.865v6.146l.346.345-1.299.347.347.52h.346l.26.691.259-.692.606 1.385 1.212-.606.779-.779.692-1.298.606.26h.866v-1.299l.865-1.384.52-.347.865-1.125h.26l.432-.865.52.259.864-1.817 1.385-.606.434-.865v-.52l1.038-1.211.433.173v-.26l1.125-1.558v-.52l1.385-.864v-.52l1.211-.433.52-.432-.26-.26.346-.433v-.865l1.99-2.164 1.126-1.472.26-.779.432-.086.433-.52h-.692v-.432l.259-.173-1.125-.26-.173-.259-1.472.433-.259-.433-.52-.173v-.866l-.259-.26v-.432l-.346-.433.26-.606.086-1.125.52-.433.605-.173 1.039.433.519-.433h1.991l.433.347.865-.347 2.77-.346 1.73.432 1.471-.518 1.991.518.952-.432.26.346.433-.26.173.26.778.173v.692l.866.866-.779.606-.087 2.164-2.596-.173-1.212.432h-1.038l-.432.26-1.385.26-.606.606v.345l-.866.52v.433l-2.25 2.596-.606.433-.26.433-.778.606-.52.692-.432.952-1.039 1.038h-.693l-.173-.172-.26.172v1.818l-1.47.606.086.26-.693 1.125-.778.606h-1.125v.346l.26.26v.865l-.866.866-.433.951h-.346l.346 1.04-.346.345 1.212 1.212v1.298l.952 1.299.346.865h.346l.606 2.337.52.346.778 2.077v.52l.606.345v.52l.432.432.174.693.432.606.26 1.297.692.693.606.865 1.126 2.857v.692l.432.346 1.126 1.99 1.124 2.424.087.866.433.346-.433.346.26.433v.692l.952.52.432 1.125h.26l.346 1.558.26.173.346.865h.26v1.558h.433l.259.26h1.471l.52.519.605-.346h1.126l.26.952h.605v-.52h1.212v.952l.346.866-.346.606.26.26v.432l-1.126 1.125-1.73.174.26-.433-.434-.433-.433.692v.347h-1.558l.433-.173-1.298-.174-.432.174-.173.432-.26-.26h-3.982l-3.461.433v-.432l-1.905-.347-.519.174-1.125-1.039v-2.856l1.817-.952h2.164l.433.26.52-.434h.346v-1.99l-.52-.519.347-.346-.433-.433v-.606l-.693-1.385-.52-.52-.95-2.942-.693-.692v-.866l-.433.26v-.52l-.433-1.125-.692-.951.346-1.125h-.346l-.26-.433h-.52l-.432-1.99-.78-1.3v-1.037l-.605.346-.606-1.731-.259-.26-.952-3.462-1.126-.52-.346-1.644-.606-1.558-1.124-1.297-.866-.26-.606 1.039-1.99.95h.605v.261l-1.124 1.038-.26.606-.952.52-.693 1.644-.779.433-.779 1.384-.865.52-.433.865-.865.347v.952l.346.26-.606 1.037-.606.433.606.433.26.692v1.732l-1.125.259-.26.606h.52l.259-.433.606.693v1.038l-.433.866v.692h.433v.433l-.433.173-.173.433-.347-.26.347.952.346.173.519.866v3.981l-.26.606.26 1.817 1.212 1.299h1.125l.346-.347.693.433.26.606.259-.26h.866l.432-.26.174.26h.518v.692h-.692v.606l.174.26v1.904l-.347.693h-1.385l.26-.433v-.606h-.433l-.26 1.212-.433-.347v-.865l-.432.346v.693h-.865l-.26-.174-1.99.52-1.558-.52-.26.347h-2.943v-.347h-1.039l-.692.606-1.99-.26h-.347zm.866-56.17l.605-.346v-.26h-.259l-.346.433v.173zm4.154 31.936h.346v-.433l-.26-.259-.519.346.433.346zm.173-11.078h.173l.26-.519-.433.26v.259zm1.038 24.666l-.172-.432h-.173v.432h.346zm.26-16.79h.26v-.26h-.26v.26zm.607 3.461h.778v-.518l-.52-.174-.258.174v.518zm5.971-32.8h.173v-.434l-.432.173.26.26zm0 54.179l.865-.606-.172-.26-.693.432v.434zm23.368-55.738v-.605l-.346.259.346.346zm0 51.15v-.173h-.26l.26.173zM1050.328 404.922l-.346-.432h-.78l-1.124-1.472-1.298-.606-1.212-1.817h-.433l-.432-.779-.606-.346-1.125-1.385h-.26l-.866-1.039-.346-1.558v-8.481l.866-.866.606-.259h1.99l.606.692.865 2.423v5.194l-.172.26.172.605.866.432.26.52 1.211.952.606 1.212.779.432 1.558 1.212 1.731.26h1.471l.78.433 1.384-.434 1.038.52 1.213-.606.865.433 1.731-.433 1.558.433 1.124-.347h3.203l1.384-1.211.26-.519 1.471-1.125.347-.866 2.683-2.77v-1.73l.433-.52.433.52.346-1.039-.78-.346-.778.433-.346-1.039.259-3.289.26-.433-.52-.259v-1.472l.26-.26-.26-1.557.52-.173-.26-.173.346-.433-.605-.346v-1.212l.605.779.52.346v-1.384l-1.299-.26-.346-1.385-.519-.52.173-.172v-.52h-1.211l-1.126-.433-1.125-1.038-.26.52-.346-.347h-2.423l-.433-.173-.433.433h-.433l-.259-.26h-1.298l-.606.26h-1.99l-.866-.26-3.548-.173-.174.173.174.26h-2.338l-1.73-.606-.26.606-.865-.26h-1.385l-.26-.346-.346.346h-.433l.173-.173h-1.298l-1.038-.692-2.857-3.203-1.125-.692-.692-1.038-.087-.952-.519-.433v-3.895l.519-.693-.519-1.038v-9.606l1.731-2.684 1.904-.952.52-1.038 1.125-1.299 1.298-.865 1.038-1.039h.26l.433-.52 1.558-.172h5.452l.432.173 2.857-.347.606.606h1.385l-.52-.26 1.558-.172h5.453l.779.779.345-.606.26.693 1.212.432.26.433.866.432 1.47 1.732-.259.952h.519l.26.346h.78l.345.778 1.039.607 1.124 1.125.347 1.817-.52 2.424.347 1.817-.433.865v-1.038l-.693 1.038-.26.866h-1.903l-.692-.433-.174-.433-.432-.173v-.692l-.26-.432v-2.424l-.173-1.125-1.038-.866-1.731-2.077h-.26l-.693-.52v-.432l-1.038-.692h-.693l-.865-.866h-1.125l-.52.606-.346-.346-.26.26h-1.817l-1.038-.693h-.866l-.605.693h-2.164l-.434-.52-.259.26h-2.164l-.346-.346-.78.779h-1.21l-.26-.173-1.99 1.731-.693.26-.606 1.21-1.039.78-1.124 1.644h-.434v1.99l.174.78-.174.346.174.346v2.25l-.174.26v1.471l-.259.433h.26v1.299l-.26.432h.26l.173 1.126-.174.432v1.298h.693l1.125 1.645.779.606 1.212 1.47h.951l.52-.259.086.26.26-.26h.606l.347.347.606-.347v.347l.691-.347.174.26 2.163-.347 1.558.606.433-.26.433.26.605-.26h1.645l.346.26.52-.519h7.876l-.26.52.26.086.086-.606h1.645l1.038 1.125h.433l.865.866.866.432 1.558 1.732h.432v.432l.433.26v.432l.433.434h.346l.346.692.173 2.596-.173.26v.606l.173.26v1.21l-1.125.433.433.953-.173.173.605 1.298.26-.866v1.732l-.865.259-.174.693 1.039.606v.865l-.433.52.26.086v.52l.346.259-.173 1.211-.433.26.606.865v2.597l-.173.952-.173-.26-.26.606v.866l-2.596 2.596-1.298.952-.26.692-1.99 1.904h-.607l-.605 1.126-1.126.432h-3.115l-1.039.174-1.471-.174-2.423.174-1.299-.433v-.173l-.518.432-3.29.174v-.174h-.432l-.433-.259-.26.606-1.038-.347h-2.423l-.26-.259-.087.433-.26-.174h-.519zm3.116-31.936v-.173h-.26l.26.173zm20.34 10.472h.172v-.172h-.173v.172zm.432 3.549l.432-.866v-1.99l.26-1.212-.26-.346-.26.693v3.029h-.519l.347.692zm.432 2.25l.174-.26v-.865h-.433l.26 1.125zm.606-2.683l.346-1.47-.346-.694-.432.866.259.173.173 1.125zm0-2.856l.26-.26h-.26v.26zm1.558-2.25l.26-.346h.346v-.606l-.347-.26-.952.346v.78h.434l.259.086zM1102.432 404.922h-.866l-.173.26-1.558-.26h-2.163l-.433.174v-.174l-1.299-.692h-.606l-.865-1.385-1.558-.865-.432-1.039-.693-.346-4.5-4.5-1.211-1.991v-2.943l.259-1.904v-6.664l.26-2.596-.347-2.164.346-.865-.346-1.905.346-.692v-9.607l-.346-2.51.346-3.288.52.605-.433-1.817v-2.683l.26-1.299 2.423-2.423h.432l.26.433.606-.692.347.432.345-.606v-.865l1.212-1.818.952.433.26-1.039h.866l-.174-.865.52-.865.345.779-.259.519h.606l.26-.692h-.26v-.866h.52l.346-.606 1.124-.433h1.732l.692.174 1.298-.174.433.433.52-.519.605.26.26.865.346-.606.606-.433h2.25v.433l.692-.26h1.732l.432-.173 2.77.174.952-.26 2.856.519h1.038l.26.432.433-.259v.26l.865.433.866 1.47h.26l2.076 2.424.952.433 1.299 1.384.346.607h.346l.52 3.72-.78.174.692.347v5.192l-.432.866-.433.26-.346.605-1.644-.432h-1.126l-.692-.693-.52-4.154.347-1.125v-.607l.52-.432-.52-1.038-1.731-1.558.26-.692h-.866l-.52-.866v-.433l-1.73-.52-.52-1.211-1.21-.26-.693.347-1.212-.606-1.125.519h-.866l-.26-.26-.259.26h-1.471l-.433-.26h-1.558l-.433.26-1.47-.26-.26-.259h-1.386l-.345-.346v-.52l.172-.086-.172-.78h-.26v1.991h-1.126l-.172-.259-.693.26-.173.259h-.433l-.432.26v-.26h-.693l-.433.26v-.26l-1.211 1.211-.52-.345-.519.432-.087 1.126-.865 1.038h-1.125l-.692.692-.173.434h-.26l.433.172-.433.26-.692 1.73v1.126l-.174.26v2.077l-.432 1.817v1.299l.173.173.433 7.443-.606 5.539-.433-.26h-.432v.865h.432l.346-.345.433.951-.346 2.078.173 1.47v7.617l-.433.953.433 3.72-.173.434.173.173h.692l3.29 3.115.864 1.212 1.731 1.818h2.078l.345.692.434-.52.172.26.866-.26.606.606 1.125-.432.866.346-.087.173.346.692h.26v-.779l1.212-.432.26.52h.519l.173.172 1.298-.605.26.259.519-.26 1.038.26 1.385-.52.432.434 1.386-1.558h.519l4.154-4.068v-.26l.606-.865 1.125-.606v-1.298l.78-.78-.433-.346v-2.25h.518v-.173l-.518-.173v-1.385l.26-.606-.26-.259.26-1.298v-1.471l-.347.173.087-.693.518-.26-.259-.086v-1.125l.606.26v-1.212l-.865-.606-.087-1.299h-.26l-.693-.865-1.557.173-.346-.692-.52.52h-1.297l-.174.432h-1.99l-.693-.692h-.606l-.346.606-.26-.347h-1.125l-.26.173h-.864l-1.299-1.298v-.692l.606-1.472h.693l.432-.26h1.039l.865-.259.866.52 1.644-.26.346-.26.519.52h2.337l.433-.26.866.26h.865l.52.605.259-.173v-.433l.866-.26 1.47.26h1.3l.691.26.606.606v6.49l.26.867-.433.518v.866l.173.26-.173 1.904.173.433-.433.26v.865h-.173l.606.692-.173.346.173.26-.433 1.125.26.26v.605h-.26l-.173.433.26.26-.346 1.039h.692l-.173 4.154.173.432-.173.953-.26.086.26.26.173 1.125-.433.433.606.606-.346 3.375-.433.865h-.865l-1.385.606-.173-.26h-1.125l-.692-2.163.345-.433-.432-1.039.087-1.557h-.347l-.606-.606-1.817 1.039-.26.518-2.25 1.645-.606 1.125h-1.038l-.606 1.212-.952.26-1.472-.174-.692.174h-1.99l-.866-.347-.78.26-.345-.26-.866.173.26.174v.26l-2.25-.26v-.174zm-13.934-45.956l.173-.174v-.952l-.347.52.174.26v.346zm4.327-7.617h.692v-.433h-.432l-.26.433zm.519-2.25l.606-.346-.606.259v.087zm0 1.125l.173.26.433-.866-.606.26v.346zm8.482-3.721h.26v-.347h-.26v.347zm1.125 0l.26-.347-.26.173v.174zm17.483 40.071h.26l-.26-.26v.26zm.605 2.423v-.865h-.259l.26.865zM1134.802 345.81l.433.52-.52.518-.346-.345.433-.693zm1.645 59.286l-.606-.693-.52.26-.346-.866.087-2.423.865-.865h1.385l1.731-.434h1.298l.779-.865.346-1.558v-1.124l1.039-.434v-.606h-1.039v-2.682h.693l-.26-.866.173-.346-.173-1.73-.26-.694v-.692l-.432-1.73v-4.76l.52-2.165-.52-1.298v-3.115l-.173-.174.173-2.25v-8.742l-.26-.259.26-.779.606-.606-.52-1.038.952-.952-.606-.173-.173-.78.433-.346.173-.519.26-.173-.26-.432.26-1.126.173-.173-.173-2.164-.693.347v1.558l.26 1.125h-.692l-.173-2.164.26-.346-.26-.347v-3.028l.173-.174-.173-.779-.26-.087v-1.384l-.433-.346h-.433l-.432.346-.174-.346-.518.086-.26-.26-.606.52h-1.212l-1.904-.346-.346-.779v-.606h.606l.865-.432-.606-1.299v-.693l-.259-.432.692-.26.173.26.52-.433h3.029l.173.26h.952l.433-.26 5.712-.26.52.26.259.693h.519l.866-.866h1.73l.866.866h.606v1.99l.346 1.212-.52.26h-.691l-.606.605-2.51.26-1.644-1.039-.434 1.645v5.972l-.26.606v1.297l-.346.52-.259 1.125.606.087-.26.259h-.346l-1.038 1.04.518.345.866-.52.52 1.125-.26.26.26.174v1.298l-.26.432.432.434v19.559l.174.52v4.586l-.347.866-.26.174.607.518v6.924l-.347.433v.693l.606.605.346.692h1.039l.173.26h3.03l1.47.52.52 1.212-.26.605-.606.346v1.385l-.692.693-.173-.174-.433.347h-2.163l-1.039-.433-.52.346-.692-.26-.26-.432-.605 1.038-2.164-.26h-3.029l-1.038-.432-.52.433-1.99.26-.347-.433h-.26zm7.183-44.572l.693-.347.173-1.731v-1.385l.172-.606-.345-1.125-.693.693-.173 2.596.346.433-.173.606v.866zm1.817 13.847v-.26l-.779-.346v.606h.78zm2.597-28.129h.173v-.259l-.173.26zM1182.145 404.922l-.432-1.73h-.52l-.346.259-.52-.52v-2.25l-.172-.086.866-1.125h-.693l-.173-.26h-.52l-.605-1.47v-.953l-1.04-2.596v-2.857l-.778-.692-.606-1.904-.346-2.164-.26-.26v-1.384l-.519-.347v-1.73l-.346-1.386-.52-.173-.173-1.124.26-.347-.26-.259v-.693l-.519-.26-.779-3.462v-2.855l-1.125-1.299-.432-1.817-.26-.346-1.212-6.837-.52.259v-.952l-.345-1.212v-1.211l-.78-1.039v-1.298h-.259l-1.731-5.713h-.346l-.346-.345-1.212-.26-.692.26-2.164-.26-1.038-.52-.433-1.038-.433-.346.692-.346-.692-.78.692-.865 1.212-.779 3.548-.087v.866l.174.174.346-.693 2.337-.26v1.126h.26l.086-.607 1.384.26v-.52l1.99-.259h1.473l.952.52.345-.26h1.732l.52.52v1.038h.345v1.558l-1.212 1.038-.26.52-1.643-.52-.52.865h-.433l-.432.52.173 2.078.779 2.25.778 4.673.173.087v.779l.52.865.173 1.039-.173.432.173.866.692.692v.606l-.519.26.26.259v.606l.865.866v.606h.52v2.25l.865 1.73v.866l.433 1.472-.433.432 1.039 1.039v1.471h.432v.606l.433 2.423.693 1.385.432 2.077v1.385l1.73 4.587v1.298l.261.26.433 2.164 1.038 2.423h.26l.519.519.606-.951.605.172-.432.693.26.26.433-.953-.434-.951.607-1.212v-1.04h.692l.26-1.643.346-.347-.52-.346.78-1.471.172-2.164.433-.865h.26l.433-.433v-.606l.26-.26.346-2.423.259-.693-.26-.173.52-.432v-.433h.172l.174.606.52.26.259-.433-.26-.26v-.432l.347-.433-.347-1.04-.26-.258.52-.433.087-.952.518-.865v-1.472l.26-.433v-1.125l1.039-3.462.173-1.125.519-.865.26.606.606-.866-.26-.173v-.693l-.26-.173v-.432l1.126-.26v-1.472l-.26-1.124h.52l.172-2.684 1.212-3.807.52.346v-.433l.865-2.597.259.26.52-.866-.78-.259.26-.606-.519-.693.78-.345v-.607l-.261-.172.52-.434v-.259l-1.126.693v.433l-1.124-.606-.866-.952h-.433l-.865.952h-.866l-.519-1.558.26-2.423 1.644-.606 1.212.779.692-.607h1.385l.346.607.347-.347h1.297l-.432 1.039-1.039-.606.174.779h.518l.606.433 1.126-.606-.26-.692.865-.607h2.77l.693 1.472.345-1.038h.347l.692-.606.173 1.038.52-.866.865.607.605-.26.866.346.26 2.337-.78 1.558h-.951l-.78-.26-.95.432h-.694l-.432-.345-.433.345h-.866l-.432.26v-.26h-.433l-.432.52v-1.126l-.433.26-.26 1.732.26.26-.26.085v.866l-.26.52v1.99h-.346v.866l-.519 1.298-.173 1.125-.173.173v.692l-.78 1.212-.085.952-.78 1.298-.519 2.856-.52 1.472.174.346-.606.087v1.297l-.606.952-.52 2.164v.693l-.692 2.164h-.346l-.26.26.433.259-.432.087v.518l.346.347-.779 1.125v.519l-.432.866.345.26-1.211 4.24h-.433l-1.299 3.809.26 1.038-.778.692.346.607-.433.259.346.26-.606.346.26.432-.78.433-.173 1.125.174.52-.346.865v1.299l-.693.605-.173 2.077-1.124.52h.432l.173.26-.52.605.433.432-.346.347v.865l-.519 1.904-.779 1.126-.865.606h-3.722l-.173-.174h-.866zm-9-44.572l.173-.52h-.174v.52zm.52 11.597l.777-.259-.432-.52-.346.78zm.605 1.645v-.606l-.26.433.26.173zm1.47-1.298l.26-.173v-.26l-.26.433zm5.713 30.205l.173-.173h-.173v.173zm1.298-1.298l.26-.26v-1.471l-.26-.866-.865-.259v.26l.259.173v2.076l.606.347zm-.26 1.472l.26-.174v-.432l-.433-.26v.692l.173.174zm2.857-1.732v-1.471h.26v-.26h-.52v1.126l.26.605zm3.549-12.895h.432v-.434l-.432.434zm3.115-4.328v-1.125h-.78v1.125h.78zm1.211-8.569h.26v-.172l-.26.172zm.26 1.558l.433-.259-.173-.26.346-.346-.606-.26-.26.52.26.605zm2.424-29.512l.173-.52h-.173v.52zm3.721 2.163l.26-.605-.26-.26v.865zm2.164 3.982l.173-.52h-.346v.26l.173.26zm0-2.683h.433l-.433-.693v.693zm.692 3.72v-.432h-.26v.26l.26.173zm1.472-6.577l.26-.605-.26.346v.26zm.26.433l.432-.433h-.433v.433zm1.904 1.99l.259-.865.26.174v-.866l-.52-.433v1.99zM1219.363 345.81l.433.52-.52.518-.346-.345.433-.693zm1.644 59.286l-.605-.693-.52.26-.346-.866.087-2.423.865-.865h1.385l1.73-.434h1.3l.777-.865.347-1.558v-1.124l1.038-.434v-.606h-1.038v-2.682h.693l-.26-.866.173-.346-.174-1.73-.259-.694v-.692l-.433-1.73v-4.76l.52-2.165-.52-1.298v-3.115l-.173-.174.173-2.25v-8.742l-.259-.259.26-.779.605-.606-.52-1.038.953-.952-.606-.173-.173-.78.432-.346.174-.519.26-.173-.26-.432.26-1.126.172-.173-.172-2.164-.693.347v1.558l.26 1.125h-.693l-.173-2.164.26-.346-.26-.347v-3.028l.173-.174-.173-.779-.26-.087v-1.384l-.432-.346h-.433l-.433.346-.173-.346-.519.086-.26-.26-.606.52h-1.211l-1.904-.346-.346-.779v-.606h.606l.865-.432-.606-1.299v-.693l-.26-.432.693-.26.173.26.52-.433h3.028l.173.26h.953l.432-.26 5.713-.26.518.26.26.693h.52l.865-.866h1.731l.866.866h.605v1.99l.347 1.212-.52.26h-.692l-.606.605-2.51.26-1.644-1.039-.433 1.645v5.972l-.26.606v1.297l-.346.52-.26 1.125.606.087-.259.259h-.346l-1.039 1.04.519.345.866-.52.519 1.125-.26.26.26.174v1.298l-.26.432.433.434v19.559l.173.52v4.586l-.346.866-.26.174.606.518v6.924l-.346.433v.693l.606.605.346.692h1.038l.173.26h3.03l1.471.52.52 1.212-.26.605-.606.346v1.385l-.692.693-.173-.174-.433.347h-2.164l-1.038-.433-.52.346-.692-.26-.26-.432-.606 1.038-2.163-.26h-3.03l-1.038-.432-.52.433-1.99.26-.346-.433h-.26zm7.184-44.572l.692-.347.173-1.731v-1.385l.173-.606-.346-1.125-.692.693-.174 2.596.347.433-.173.606v.866zm1.817 13.847v-.26l-.779-.346v.606h.779zm2.596-28.129h.173v-.259l-.173.26zM1249.569 405.096l-1.299-.866v-.346l.26-.26-.26-.26v-1.904l.26.173.866-.865 1.211-.173.347.26.518-.26v.173l.693-.346.865.606 1.04-.52.345-1.298v-1.731l.173-.26v-7.356l.173-.432-.173-.174.173-.866-.346-2.25v-3.461l.606-.693v-.26l-.433.26-.432-.865v-.866h.432l-.173-.606v-1.644l.173-.346-.173-.866h-.26v-.26l.433-.432-.173-.174v-.692l-.433-.432.606-.866-.432-.692v-.606l.259-.26v-.606l.26-.692-.26-.173.26-1.038-.26-.953v-1.384l-.519-.174v-.865h.692l-.173-.432h-.519l.519-.693h-.26v-.606l-.259-.26-.173-1.73.173-1.472-.173-.865.173-.26v-4.154l-.173-1.126.173-.259-.346-.693.346-.346-.26-.606.26-1.557-.433-.52-4.067-.087-.26-.26.26-.258h-1.732l-.518-1.126v-1.298l.259-.433.26-1.298h1.73l.78-.26.605.607 1.645-.78h4.068l1.125.433.606-.26 2.423-.26 1.385 1.385.605 2.684h.433l.952 1.124v.607l.865 1.99.347.346v.866l-.173.26.432.432.26-.865.606 1.125v.865l.865.866v.26h.347l.346 1.211.519.606.52 1.904v.866l.518-.26v.866l.347-.26.26.519.433.346-.693.26v.692l1.385.174-.26.26.433.864v.606l-.173.26.432.173v.52h.434l.692.346-.26.52.519.259.693.865-.606.606 1.385 1.211v1.385l.605.606h.26l.606.52.52 1.038-.26.26.26.606v.692h.519l1.384 2.423.433.346v.26l.433.52.692 2.595 1.385 1.558.52 2.77.519-.173.345.346.26.78.866.864v.606l.865 1.126.606 1.904h1.212l.433-2.164.173-7.617.26-.605-.26-.52-.173-1.47.173-1.386-.26-4.067.26-1.818-.173-1.385-.26-.086.26-.26v-5.712l.259-.693-.26-.345v-.693l-.346-.692.347-1.212-.26-.52v-4.153l-.346-1.385.345-.952h-.259v-3.116l-.606-1.298-1.038-.26-.952.433h-.866l-.432-.346h-.693l-.693.26-.605-1.126v-2.423l.433-.692 1.124.432.434-.606.692-.26.346.26h.78v.347l.605-.347.26.347h1.038l.693-.607.605-.26.347.694h.779l.432-.434h.433l.346.347.26-.606.432.26 1.732-.346.259.605.52.174.346-.434h1.124v1.731l.606-1.297v-.434h.866l.692.434.173.692.433.692-.433 1.73-.865.867h-1.472l-.518.346h-1.731l-.26-.26-1.645 1.99v.78l.173-.78.347 1.212-.606 1.299.52.952-.26.779v1.038l.519 1.039-.433 2.856.433 1.385-.52.865.26.173v.52l.26.172-.26.693-.692.173.346.606-.346 1.125.432.26-.432.432v.693h.26l.433-.866v1.472h-.434l-.432.519v2.596l-.26.347v.692h.606l.26-.692.26.52.432.345-.173 2.942-.52.434.26 1.903.433.26v1.125l.26.26-.26 1.645-.432.173.432.952v1.038l-.173.26.346.865v2.164l-.26 2.25.26.606v5.452l.346 2.424h-.519v2.597l.173 1.124.433.346-.606 1.126v1.038l-1.125.52h-1.471l-.347-.26-.866.433-1.384-1.904-.778-.692-.953-1.731v-.433l-.952-1.818-.433-.346-1.125-2.424v-.432l-.346-.606-.519.173v-.865l-1.299-2.857h-.432v-.605l-1.039-2.51-.692-.173-.78-2.078-.605-.605-.433-1.732-.865-.605-.433-2.337-.78-.346-.259-.866h-.26l-.26-1.385-.605-.345v-.607l-.865-.865v-.779l-.952-1.385.346-.692-.26-.433v-.433l-.865-.173-.174-.519-.345-.26.345-.345h.347v-.52h-.606v-.346l-.433-.26-.432.26-.433-.606v-.519l-.952-1.299-.087-.692h-.519v-.605l-.52-1.386-.952-1.038v-1.125l-.692-.606-.173-1.471-.952-.52-.433-1.125-.952-.952-.346-1.644-.606-.866-.519-.173v-.519l.26-.173-.606-.173-.26-.693-.606-.692-.26.52-.518.345v1.125l.26.26-.607.433.347.173v.26l.26.173-.607.433v.692l.26-.433.26 1.817-.26.347.087 3.98-.434 2.078.347.26-.26.693.52 1.124-.26.347v.52l-.26.172.347.433v1.125l-.347.346.52.606-.173.26v4.414l.26.692-.26.432v.607l.345.345-.345.52h-.173l.173 1.125.26.52-.347.692.346.346v1.99l.347 3.462-.606 1.212.26 1.038v1.04l.346.518-.347.52.519.52-.26.605v1.125l-.518.173.519.866-.78.433.78.259-.52.173v.26l.52.259v.866l-.347.346.434 1.298-.347.347.519.605.779 1.558 1.04.52 1.384-.346.26.692h.432l.173-.26h.952l.866 1.126v1.99h-.693l-.173.173.347.173-.347.26h-.52l-.605.606h-2.423l-2.596.346-.52-.52-.865.433h-4.501l-1.125-.26h-1.298zm8.655-9.608l.26-.173h-.26v.173zm10.732-32.109h.259v-.173l-.26.173zm16.876 29.513l.606-.173v-.26h-.865l-.26.26.52.173zm1.99-20.252h.607v-.52h-.433l-.433.26.26.26zm0 13.501v-.432h-.259v.173l.26.26zm0-35.83h.347v-.606h-.346v.606zm.607 9l.26-.26v-.432h-.26v.692zm1.125-1.99v-.433h-.26l.26.433zm.173 1.125l.26-.52-.26.26v.26zM1316.558 403.278l-.519-.346-.26.432v.866l-.345.433-.866-.866-.78.433-.605-1.298-.606-.606v-.26l-.52.26-.865-1.645v-.345h-.173l-.26-.52-.172.865-.692-.606v-.345h-.434v-1.126l-.173-.692-.433.173-.259.779-.692-.26-.346-.692-1.385-1.298-.26-1.126h-.346l-.52-.432-.086-.865.086-3.722.606.26-.346-.866h-.346v-.52l.346-.173v-1.73l-.951-2.078.345-1.644-.26-.779.606-1.125-.346-2.077V377.4l.26-1.038-.346-.607.346-.519v-1.125l-.433-.346.433-.433-.26-.779.26-.432v-1.991l-.52-.865v-2.424l.26-.173v-1.904l.26-1.558-.52-.26v-1.99l.26-.693-.345-2.423.345-.865v-2.424l.606-.345 1.125-1.732h.26l.346-.866 1.817-1.211-.432.952.173.26.433-.433.432-1.298.866-.866v-.26l3.116-3.289h.606l.606-.692 1.558-.259 1.99.26h4.587l.865-.174.866.692.519-.26v.26l.346-.519h4.414l1.212.692.26-.692h3.375l.26.866 1.038.26.606.606v.26l1.385.605 2.942 3.116.606 1.124h.347l1.038 1.299v1.731l-.26 1.644.433 1.212-.346 1.731.173.433-.347.259v1.299h.174l.173.432-1.212 1.126h-.865l-.52.346-1.297-.606-.952-1.04.259-.691-.173-.433.26-.952-.26-.606v-3.895l-.692-.691-.347-.78-.952-.346.433-.173-.951-.346-.953-.953-.433-.779-1.298-.692v-.52h-3.548l-.866-.259-1.73.26-.26-.26-.433.26-.866-.26-.692.26h-6.318l-1.298-.26-1.126.693-1.124 1.125h-.866l-.346.432v.866l-1.558 1.558-.866.606-1.298 2.25-.26 9.953-.173.52v1.298l-.692.606v2.423l.433.173.259.519-.433.346v1.385l-.345 1.038.519.953.432.173.26.432-.26 2.857.26.433-.26 1.47-.173-.173-.26.174v1.644l.433.346v2.683h-.865l-.173.866h.432l.174-.433v.866h-.606v1.298l.432.606-.779 1.558.693.605-.779.433.433.26v1.125h1.038l.26.26h.606v.345l.26.26.346 1.298 1.125.433-.346.26v.433l.346.432.52-.173.172.173.433-.173.866.866-.26.346h.52l.778.606-.52.433.347.345-.865.606.519.52v.865l-.433.693.433.346.866-2.683h1.47v.865l.693.26.866-.346.432-.52h.865l.434.52-.26.346 1.99-.866h1.472l.26.52.519-.26 1.47-.26.434.52.26-.26 1.99-.26h1.904l.173-.26.779-.346 1.212-1.384h1.125l.606-.346.52-.693-.347-.605.346-.26.953-1.472 1.211-.259.865-1.731h.433v-3.376l.26-.952-.26-4.24.432-.433-.692-4.674-.692-1.47h-.78l-.345.345-.952-.346h-5.54l-1.73-.173-.433-.26-.432.26-.174-.432h-.26l-.172.432-.434-.952-.432-.26.52-1.384.952-.693h1.73l.866-.26h2.856l1.125-.259h1.299l.259.26.692-.26.606.519 1.558-.519 1.039.26h2.164v.52h1.557v.864l.433.866v2.77l-.26.26v1.297l-.606.693h.52l.346 1.47v4.848l-.26 1.557-.173 2.597.173.346-.173.26v3.288h-.433v.26l.26.173.173.693h.173v1.73l-.26 1.645.347 1.644-.952.606.26.433v.52l.259.172-.26.433v.866h-1.73l-.952.346-.434-.78v-.865l-.606-.692v-1.991h.26l-.692-2.336h-.173l-.26.606h-.432l-.78.26-.346.605-.173-.606h-.26l-.692 1.99-1.471 1.126-.606.173.26.346-1.039.346-.346 1.126-1.125.346h-.866l-.26-.606-.605.173-.346.606-.26-.346h-.692v.606h-2.597v-1.039l-.26.173-.259.952-1.471-.692-.606.173-.52.433h-2.596l-.433-.174-.692.174-1.212-.347-.433-1.47zm-11.251-16.704v-.433l-.26.174.26.259zm1.558-13.848h.432l.607-.605-.346-.433h-.52l-.173 1.038zm2.423 22.33v-1.298h-.433v.865l.433.433zm1.472-45.178h.432l-.432-.866v.866zm1.558 51.929v-.606l-.26.26.26.346zm.432-.174h.174l-.174-.432v.432zm.433-1.817h.52v-.346h-.52l-.26.26.26.086zm3.116 2.51l.173-.26h-.173v.26zm1.038.173l.26-.173v-.52l-.433-.173v.434l.173.432zm2.857.865v-.865l-.26.692.26.173zm.26-1.297l.259-.347-.692-.605.432.952zm5.192 2.596l.432-.173-.173-.26.173-.173v-.693l-.432.433v.866zm7.617-3.462l.259-.606v-.865h-.606v.951l.347.52zm5.539-16.618h.865v-.259h-.865v.26zm.345 4.76h.26v-.173l-.26.174zm1.126 14.021l.52-.432.085-.433h-.605v.865zm.259-1.904h.26v-.26h-.26v.26zm.346-6.145h.866l-.346-.692-.779.26.26.432zm0 3.29h.26l.866-1.385-.347.259h-.779v1.125zm.26-1.559h.26v-.173h-.26v.173z"/></g><g><path class="st0" d="M244.408 192.531l16.55-49.24c5.097-15.167-5.763-30.99-21.748-31.687-8.504-.37-16.267 3.748-20.842 10.373v-11.465c0-13.71-11.115-24.826-24.826-24.826-14.738 0-26.035 12.699-24.72 27.047l-.116-.627c-2.684-14.595-17.346-23.712-31.623-19.664-14.22 4.033-21.922 19.392-16.647 33.2l34.841 91.202c23.459-15.217 54.735-24.064 89.131-24.313zM113.66 275.418c4.158-23.983 19.36-44.127 41.585-58.553l-32.86-85.633c-5.455-14.216-21.978-20.633-35.598-13.823-11.844 5.922-17.095 19.694-12.73 31.783-8.373-8.523-22.068-10.148-32.35-2.857-11.356 8.052-13.97 23.817-5.823 35.103l8.455 8.804-2.374-1.547c-15.103-9.845-35.43-2.5-40.751 14.726-4.021 13.016 2.229 26.995 14.61 32.677l4.594 2.11c-9.002 3.45-15.643 12.204-15.484 22.834.18 12.083 9.3 22.156 21.306 23.532l86.522 9.92a76.937 76.937 0 01.898-19.076z"/><path d="M341.734 279.83c-4.316-17.443-4.613-35.579-1.538-53.282.576-3.32.808-7.31.363-11.987-17.268-8.651-36.81-15.178-57.894-18.833-13.01-2.256-25.836-3.287-38.257-3.197-34.396.249-65.672 9.096-89.13 24.313l-.033.02c-22.225 14.427-37.427 34.571-41.585 58.554a76.937 76.937 0 00-.898 19.076c3.968 51.71 59.076 100.004 133.212 112.858 83.207 14.426 158.873-21.253 169.005-79.69a76.652 76.652 0 001.004-8.904c-11.708 55.685-55.277 37.758-74.25-38.929zm-190.816 46.182c-.2-.732.252-1.75 1.067-1.878a148.64 148.64 0 0048.304-16.487c1.726-.947 3.265 1.691 1.541 2.636a150.521 150.521 0 01-10.257 5.132c-12.342 5.591-25.392 9.54-38.776 11.663-.818.13-1.64-.198-1.879-1.066zm12.404 8.914c0-.902.709-1.42 1.526-1.527a171.592 171.592 0 0019.332-3.675 175.176 175.176 0 0032.844-11.753 175.861 175.861 0 0030.073-18.188c.664-.499 1.71-.101 2.09.547.45.77.11 1.595-.548 2.09a175.008 175.008 0 01-16.611 11.059 179.298 179.298 0 01-32.428 14.869c-11.28 3.872-22.928 6.564-34.752 8.104-.823.108-1.526-.784-1.526-1.526zm11.383 13.191c-.199-.725.25-1.758 1.067-1.878a191.73 191.73 0 0020.084-4.06 191.566 191.566 0 0033.906-12.264 192.381 192.381 0 0031.218-18.556c.67-.489 1.705-.108 2.089.548.446.763.117 1.603-.548 2.09a191.82 191.82 0 01-17.28 11.254 195.82 195.82 0 01-33.264 15.225 192.337 192.337 0 01-35.393 8.708c-.82.12-1.638-.192-1.879-1.067zm133.96-48.115c-8.284 10.207-18.193 19.001-28.972 26.494-10.853 7.544-22.594 13.753-34.729 18.961-12.307 5.282-25.012 9.572-37.913 13.151-1.9.528-2.703-2.42-.812-2.944 1.552-.43 3.102-.87 4.648-1.322 12.41-3.62 24.645-7.922 36.435-13.236 11.727-5.286 23.042-11.558 33.463-19.116 10.247-7.433 19.603-16.192 27.36-26.213 7.894-10.196 16.011-24.068 8.957-36.836-6.837-12.375-21.437-16.36-34.381-18.627-.817-.143-1.27-1.141-1.067-1.878.233-.848 1.067-1.208 1.878-1.066 1.8.315 3.594.65 5.38 1.03 7.145 1.517 14.361 3.77 20.444 7.926 5.364 3.666 9.86 8.722 12.11 14.879 5.151 14.101-4.272 28.288-12.801 38.797z" fill="#823902"/><path class="st1" d="M380.585 176.004c-21.986-19.014-6.14-57.043-6.14-57.043.192-.216.38-.418.562-.608-9.214-14.17-18.776-23.988-27.5-27.913-31.69-14.261-72.888 17.43-31.69 71.303 17.491 22.873 23.552 40.314 24.742 52.818.445 4.677.213 8.667-.363 11.987-3.075 17.703-2.778 35.839 1.538 53.281 18.972 76.687 62.541 94.614 74.249 38.929 1.523-7.244 2.508-15.73 2.828-25.498 1.301-39.674-5.143-78.542-15.381-111.573-4.673 3.25-12.91 2.91-22.845-5.683zm-49.916-44.942a94.968 94.968 0 009.063-.616c2.515-.294 5.035-.68 7.51-1.222 1.743-.383 3.491-.89 5.065-1.748 1.379-.753 2.674-1.799 3.265-3.275.684-1.708.3-3.704-.943-5.053-1.33-1.444.825-3.608 2.16-2.159 1.936 2.103 2.73 5.193 1.76 7.93-1.518 4.29-6.073 6.234-10.192 7.181-5.766 1.326-11.783 1.893-17.688 2.016-1.97.04-1.963-3.013 0-3.054z"/><path class="st1" d="M381.706 131.732c1.66 7.707 6.004 16.475 12.313 23.683a265.266 265.266 0 00-7.406-16.47l-.68.219-4.227-7.432z"/><path class="st3" d="M381.706 131.732l4.226 7.432.681-.219 32.595-10.477-37.698-8.006c-.818 3.15-.713 7.05.196 11.27z"/><path class="st0" d="M358.55 124.919c.968-2.737.175-5.827-1.762-7.93-1.334-1.449-3.49.715-2.159 2.16 1.242 1.348 1.627 3.344.943 5.052-.591 1.476-1.886 2.522-3.265 3.275-1.574.859-3.322 1.365-5.066 1.748-2.474.543-4.994.928-7.509 1.222-3.01.352-6.034.553-9.063.616-1.963.04-1.97 3.095 0 3.054 5.905-.123 11.922-.69 17.688-2.016 4.119-.947 8.674-2.89 10.193-7.181z"/><path d="M380.585 176.004c9.936 8.594 18.172 8.933 22.845 5.683 5.667-3.941 6.093-13.162-2.048-19.35-2.679-2.035-5.14-4.383-7.363-6.922-6.309-7.208-10.652-15.976-12.313-23.683-.909-4.22-1.014-8.12-.196-11.27.08-.309.165-.613.263-.907 0 0-.932-7.261-6.766-1.202-.183.19-.37.392-.562.608 0 0-15.846 38.029 6.14 57.043z" fill="#af1500"/><path class="st0" d="M309.356 246.326c-6.083-4.157-13.299-6.409-20.443-7.926-1.787-.38-3.582-.715-5.38-1.03-.812-.142-1.646.218-1.879 1.066-.202.737.25 1.735 1.067 1.878 12.944 2.267 27.544 6.252 34.38 18.627 7.055 12.768-1.062 26.64-8.955 36.836-7.758 10.021-17.114 18.78-27.361 26.213-10.42 7.558-21.736 13.83-33.463 19.116-11.79 5.314-24.026 9.615-36.435 13.236-1.546.451-3.096.891-4.648 1.322-1.89.525-1.088 3.472.812 2.944 12.9-3.58 25.606-7.869 37.913-13.15 12.135-5.209 23.876-11.418 34.729-18.962 10.779-7.493 20.688-16.287 28.972-26.494 8.529-10.509 17.952-24.696 12.8-38.797-2.248-6.157-6.745-11.213-12.109-14.879z"/><path class="st0" d="M245.24 325.251a191.824 191.824 0 0017.281-11.255c.665-.486.994-1.326.548-2.089-.384-.656-1.42-1.037-2.09-.548a192.382 192.382 0 01-31.217 18.556 191.566 191.566 0 01-33.906 12.263 191.728 191.728 0 01-20.084 4.061c-.817.12-1.266 1.153-1.067 1.878.241.875 1.06 1.187 1.879 1.067a192.336 192.336 0 0035.393-8.708 195.82 195.82 0 0033.264-15.225zM232.028 313.479a175.008 175.008 0 0016.61-11.06c.659-.494.999-1.319.548-2.089-.38-.648-1.425-1.046-2.089-.548a175.861 175.861 0 01-30.073 18.189 175.176 175.176 0 01-32.844 11.753 171.592 171.592 0 01-19.332 3.675c-.817.106-1.526.625-1.526 1.527 0 .742.703 1.634 1.526 1.526 11.824-1.54 23.472-4.232 34.752-8.104a179.297 179.297 0 0032.428-14.87zM201.83 310.283c1.724-.945.185-3.583-1.541-2.636a148.64 148.64 0 01-48.304 16.487c-.815.129-1.268 1.146-1.067 1.878.239.868 1.061 1.196 1.879 1.066 13.384-2.123 26.434-6.072 38.776-11.663a150.521 150.521 0 0010.257-5.132z"/><path class="st3" d="M219.114 411.568c-.774-.452-1.601-.12-2.09.548a104.046 104.046 0 01-13.385 14.986 101.21 101.21 0 01-7.553 6.345c-.798.604-1.911 1.212-2.656 2.026-.018.01-.036.013-.054.022a137.883 137.883 0 00-19.814 12.702c-.653.502-1.001 1.314-.548 2.09.376.641 1.431 1.053 2.09.547a137.863 137.863 0 0114.005-9.456 77.912 77.912 0 00-3.655 12.357c-.166.806.235 1.65 1.067 1.878.756.207 1.71-.255 1.878-1.067 1.075-5.2 2.673-10.292 4.813-15.154l.194.43c.39.872.778 1.745 1.167 2.617l5.279 11.844c.335.753 1.432.932 2.089.548.775-.454.884-1.333.547-2.089l-4.48-10.054c-.735-1.649-1.538-3.283-2.21-4.958-.032-.078-.058-.156-.086-.234l.043-.025c.245-.142.47-.343.698-.511a112.45 112.45 0 002.07-1.563 106.638 106.638 0 0014.194-13.154c2.46-2.74 4.77-5.613 6.945-8.586.487-.666.112-1.703-.548-2.089zM380.158 415.128a72.428 72.428 0 01-14.145 3.863 80.816 80.816 0 0011.173-10.498c.544-.62.61-1.55 0-2.16-.555-.554-1.613-.621-2.16 0a78.99 78.99 0 01-10.42 9.891 67.413 67.413 0 002.93-12.047c.118-.814-.202-1.64-1.067-1.878-.718-.197-1.758.246-1.878 1.067-.804 5.516-2.272 10.951-4.437 16.092-9.147.52-18.368-1.295-26.592-5.389-1.753-.873-3.302 1.76-1.54 2.637 9.133 4.546 19.446 6.566 29.61 5.704.21.115.443.18.69.154 6.388-.705 12.647-2.183 18.647-4.492.77-.296 1.3-1.027 1.067-1.878-.202-.735-1.105-1.364-1.878-1.066z"/></g><g><path class="st0" d="M1351.67 311.785c6.586-5.916 4.178-16.16-1.712-21.688-8.918-8.371-22.752-4.466-33.06-1.507-28.35 8.135-57.355 15.455-86.998 16.117-7.289.163-14.59-.084-21.844-.823-6.53-.666-14.156-1.044-19.859-4.645-2.077-1.31-4.434-3.144-5.435-5.474-1.852-4.313 2.695-5.707 6.234-5.81 5.135-.147 10.675.71 15.324 2.974 4.687 2.282 8.256 6.947 4.57 11.898-3.992 5.36-12.737 6.535-18.882 6.86-14.478.763-28.535-4.276-42.08-8.734-26.368-8.678-53.505-12.984-81.298-11.062-13.678.947-27.282 3.255-40.485 6.957-8.926 2.503-17.516 5.641-26.617 7.537-5.95 1.24-33.812 6.247-27.052-8.017 3.665-7.73 16.396-6.664 23.01-4.604 5.579 1.739 7.764 4.157 5.66 9.877-2.182 5.934-7.174 10.886-12.355 14.299-17.896 11.786-40.652 6.673-57.447-4.68-5.963-4.03-12.859-10.404-12.36-18.314.328-5.211 4.105-9.635 8.814-11.62 3.558-1.502 9.674-2.357 10.802 2.462 1.282 5.475-2.04 12.09-4.741 16.61-3.866 6.469-9.374 12.34-16.212 15.677-8.65 4.221-16.783 2.184-24.933-2.189-7.24-3.884-17.122-10.572-18.412-19.53-.863-6 4.759-8.821 10.08-8.201 4.939.575 12.807 6.429 8.505 11.903-3.136 3.992-9.97 4.612-14.572 4.878-11.775.681-23.396-1.815-34.898-3.96-28.144-5.245-56.969-9.61-85.648-6.885-13.976 1.329-27.264 4.723-40.565 9.102-13.514 4.45-27.634 9.448-42.082 8.455-5.993-.412-15.192-1.73-18.65-7.475-3.329-5.531 1.639-9.892 6.405-11.841 4.683-1.915 10.205-2.733 15.247-2.333 3.34.265 6.541 2.11 4.976 5.766-1.072 2.504-3.651 4.404-5.915 5.759-5.8 3.472-13.604 3.797-20.158 4.435-7.258.707-14.558.92-21.847.728-14.78-.39-29.46-2.448-43.934-5.403-14.512-2.962-28.805-6.842-43.039-10.913-10.354-2.96-24.512-6.616-33.013 2.437-5.328 5.675-7.338 15.286-1.003 20.977 2.066 1.856 5.135-1.194 3.059-3.059-5.022-4.512-2.32-12.237 2.266-16.036 6.74-5.583 17.073-3.041 24.669-.962 16.786 4.595 33.459 9.398 50.579 12.648 16.391 3.111 33.087 5.047 49.792 4.654 8.275-.195 16.537-.975 24.693-2.394 5.737-.998 11.153-3.03 15.218-7.39 2.926-3.138 4.84-7.666 2.165-11.553-3.25-4.725-10.044-4.368-15.084-3.816-8.444.924-21.664 5.068-20.36 15.936 1.617 13.491 21.838 14.843 32.007 14.11 16.526-1.191 31.833-7.99 47.593-12.483 33.85-9.647 69.573-5.758 103.688.289 13.74 2.435 27.58 5.938 41.632 5.617 6.319-.145 14.173-.845 19.048-5.418 7.006-6.571 1.226-16.125-6.258-19.043-5.044-1.967-11.834-1.48-15.872 2.405-5.292 5.093-2.971 13.046.716 18.326 6.12 8.765 17.386 16.178 27.758 18.583 8.591 1.993 17.172-.759 24.06-5.985 6.648-5.044 11.936-12.07 15.113-19.776 2.075-5.032 4.175-12.403.531-17.253-3.447-4.589-10.681-3.734-15.313-1.712-5.447 2.376-9.862 7.265-10.963 13.194-1.483 7.988 3.258 15.297 9.036 20.357 9.466 8.289 22.498 14.033 34.957 15.635 16.962 2.18 36.876-4.82 45.061-20.809 2.183-4.263 3.883-10.452.171-14.425-2.555-2.736-7.219-3.937-10.737-4.65-4.726-.959-9.738-1.096-14.434.107-7.627 1.953-14.984 10.005-10.41 18.207 2.527 4.53 8.412 5.432 13.117 5.613 6.977.27 14.104-1.048 20.889-2.553 11.819-2.624 23.094-7.06 34.915-9.696 16.443-3.667 33.33-5.182 50.164-4.588a195.166 195.166 0 0148.966 8.025c15.618 4.667 31.032 11.312 47.514 12.123 10.037.494 29.629-1.338 30.615-14.775.801-10.918-13.047-14.74-21.478-15.464-5.043-.433-11.74-.482-14.505 4.645-2.233 4.138.31 8.643 3.357 11.564 4.502 4.317 10.032 5.935 16.037 6.915 8.168 1.333 16.43 2.038 24.705 2.161 34.538.516 67.21-9.072 100.263-17.724 7.44-1.948 17.463-3.973 23.768 1.82 4.248 3.904 6.519 11.254 1.713 15.571-2.076 1.864.992 4.916 3.059 3.059z"/></g></svg>