<svg version="1.1" id="Layer_1" xmlns="http://www.w3.org/2000/svg" x="0" y="0" viewBox="0 0 1175.277 685.359" xml:space="preserve"><style>.st0{fill:#994100}.st1{fill:#f46300}.st2{fill:#ffaf73}.st3{fill:#722e00}.st4{fill:none}.st5{fill:#700000}.st6{fill:#ff7503}</style><path class="st0" d="M69.249 17.608L48.592 34.224l-6.804 5.474L21.13 56.314c5.436 38.252 23.68 60.939 24.804 62.306l.053.067c12.117 15.063 31.092 21.357 48.848 18.01 7.061-1.332 14.3-1.47 21.44-.664 2.911.33 5.603.515 7.473.398 2.209-.14 3.116-2.733 3.34-6.152.546-8.375 2.178-16.667 5.297-24.459 6.57-16.416 4.331-35.805-7.541-50.565 0 0-18.242-23.71-55.596-37.647z"/><path class="st1" d="M104.748 27.643L22.316 93.95c-.682.55-1.68.441-2.229-.241L.99 69.97a4.483 4.483 0 01.683-6.304L79.59.99a4.483 4.483 0 016.303.683l19.097 23.74c.549.683.44 1.681-.242 2.23z"/><path class="st2" d="M44.082 94.909s16.3 34.193 36.445 32.927c20.144-1.266 10.195-11.313-2.244-17.491S44.082 94.909 44.082 94.909z"/><path class="st3" d="M94.836 136.696c7.061-1.331 14.3-1.47 21.44-.663 2.911.33 5.603.515 7.473.398 2.21-.14 3.116-2.733 3.34-6.152.546-8.375 2.178-16.667 5.297-24.459 6.57-16.416 4.331-35.805-7.541-50.565 0 0-2.557-3.322-7.715-8.21 7.039 20.156 16.86 68.384-39.488 89.92a50.8 50.8 0 0017.194-.269z"/><path class="st1" d="M41.64 42.099l8.824-7.098c.485-.39.562-1.1.171-1.586L33.81 12.498a1.128 1.128 0 00-1.586-.171L23.4 19.425c-.485.39-.562 1.1-.172 1.585l16.826 20.917c.39.485 1.1.562 1.586.172z"/><path class="st0" d="M1154.65 558.516l-21.504-15.506-7.083-5.108-21.503-15.506c-35.437 15.394-52.468 39.006-53.488 40.452l-.05.069c-11.308 15.68-12.34 35.645-4.4 51.875 3.159 6.455 5.213 13.397 6.33 20.495.456 2.895.991 5.54 1.6 7.311.72 2.093 3.463 2.28 6.818 1.587 8.22-1.696 16.648-2.323 24.988-1.384 17.571 1.978 35.67-5.327 46.75-20.691 0 0 18.017-23.88 21.541-63.594z"/><path class="st1" d="M1154.396 595.406l-85.809-61.877a1.585 1.585 0 01-.358-2.214l17.82-24.713a4.483 4.483 0 016.258-1.014l81.109 58.488a4.483 4.483 0 011.014 6.258l-17.82 24.713c-.513.71-1.504.87-2.214.359z"/><path class="st2" d="M1073.44 554.768s-28.64 24.79-22.072 43.877 13.613 6.827 16.268-6.805c2.655-13.632 5.805-37.072 5.805-37.072z"/><path class="st3" d="M1046.623 614.792c3.158 6.455 5.212 13.397 6.33 20.495.455 2.895.99 5.54 1.6 7.311.72 2.093 3.461 2.28 6.817 1.587 8.22-1.696 16.648-2.323 24.988-1.384 17.571 1.978 35.67-5.327 46.75-20.691 0 0 2.525-3.347 5.869-9.617-17.566 12.136-61.458 34.404-97.177-14.206a50.798 50.798 0 004.823 16.505z"/><path class="st1" d="M1123.709 538.397l9.185 6.624c.505.364 1.21.25 1.574-.256l15.701-21.773c.365-.505.25-1.21-.255-1.575l-9.185-6.623a1.128 1.128 0 00-1.574.255l-15.702 21.774c-.364.505-.25 1.21.256 1.574z"/><path class="st4" d="M837.883 551.05c-18.463.004-22.339 10.822-22.339 19.898 0 9.574 4.582 12.548 9.106 13.152 4.038-1.827 7.818-4.478 10.592-7.516 1.42-7.101 2.151-19.4 2.641-25.534zM218.785 524.853c1.736-.05 3.632-.102 5.646-.157 3.124-.085 6.614-.181 10.235-.293-.057-14.824-.863-26.293-5.845-31.757-7.052 4.347-9.33 20.58-10.036 32.207zM380.552 264.876c.065-2.686.218-5.853.218-9.044 0-13.469-1.6-30.18-11.412-36.613-14.4 3.277-17.738 31.631-18.484 46.657l29.678-1zM478.252 275.88c0-14.033-.007-47.898-15.314-57.843-10.625 2.921-16.444 23.44-16.444 58.595 0 13.39.01 52.636 17.064 56.851 14.687-9.897 14.694-43.573 14.694-57.603zM887.22 333.286c13.845-11.128 14.041-50.38 14.041-62.168 0-12.42-.005-43.404-12.783-52.998-12.583 3.07-18.976 22.426-18.976 57.76 0 14.775.01 52.329 17.717 57.406zM753.443 264.876c.065-2.686.219-5.853.219-9.044 0-13.469-1.601-30.18-11.412-36.613-14.4 3.277-17.738 31.631-18.485 46.657l29.678-1zM281.066 264.876c.065-2.686.218-5.853.218-9.044 0-13.469-1.6-30.18-11.412-36.613-14.4 3.277-17.738 31.631-18.484 46.657l29.678-1z"/><path class="st5" d="M187.085 171.757l-10.051.124 1.942 114.233 10.6 32.148zM129.353 242.115l36.404 110.448 9.799-.386-46.448-140.922zM106.897 173.88l-10.055.507-.751 179.93 10.055-.392zM291.839 303.403l.002-.099-10.055.142c-.192 10.951-2.033 23.789-11.114 29.196.66.106 1.313.23 2.015.23 12.713 0 18.8-9.364 19.152-29.469zM281.284 255.832c0 3.19-.153 6.358-.218 9.044l10.057-.34c.02-.798.049-1.634.078-2.493.067-2.017.136-4.103.136-6.211 0-25.205-5.926-36.944-18.65-36.944-.986 0-1.917.126-2.815.33 9.812 6.434 11.412 23.145 11.412 36.614zM258.975 354.234c-20.762-7.587-31.29-32.808-31.29-75.347 0-17.27.765-37.13 6.429-53.504 5.086-14.705 13.41-24.17 24.798-28.352-39.084 1.892-41.28 51.136-41.28 81.856 0 29.959 4.835 73.605 41.343 75.347zM380.77 255.832c0 3.19-.153 6.358-.218 9.044l10.056-.34c.022-.798.05-1.634.078-2.493.068-2.017.137-4.103.137-6.211 0-25.205-5.926-36.944-18.65-36.944-.986 0-1.917.126-2.815.33 9.812 6.434 11.412 23.145 11.412 36.614zM358.461 354.234c-20.762-7.587-31.29-32.808-31.29-75.347 0-17.27.764-37.13 6.429-53.504 5.086-14.705 13.41-24.17 24.798-28.352-39.084 1.891-41.28 51.136-41.28 81.856 0 29.959 4.835 73.605 41.343 75.347zM391.325 303.403l.002-.099-10.055.142c-.193 10.951-2.033 23.789-11.114 29.196.66.106 1.313.23 2.015.23 12.713 0 18.8-9.364 19.152-29.469zM489.057 207.256v-47.905h-10.053v38.702c3.85 2.043 7.125 5.015 10.053 9.203zM477.668 352.792l9.635-.508v-8.154a31.967 31.967 0 01-9.635 8.662zM465.645 217.635c-.938 0-1.833.162-2.707.402 15.307 9.945 15.314 43.81 15.314 57.843 0 14.03-.007 47.706-14.694 57.603.976.242 1.998.39 3.09.39 21.657 0 21.657-42.132 21.657-57.994 0-15.93 0-58.244-22.66-58.244zM428.937 323.755c-4.785-17.353-4.785-37.244-4.785-49.129 0-51.663 12.667-71.465 26.522-77.67-.249-.003-.487-.015-.739-.015-34.332 0-35.836 57.638-35.836 77.686 0 22.994.008 79.38 37.303 79.676-10.511-4.336-18.052-14.542-22.465-30.548zM596.816 159.81l-10.053.544V351.81l10.053-.127zM643.571 217.635c-1.07 0-2.093.074-3.086.192 10.37 6.613 11.684 24.48 11.684 35.75v97.733l10.053.425v-98.16c0-23.848-6.275-35.94-18.65-35.94zM635.223 196.951c-5.549.024-10.533 1.351-15.064 3.976v8.152c4.368-5.807 9.377-9.806 15.064-12.128zM753.662 255.832c0 3.19-.154 6.358-.219 9.044l10.057-.34c.02-.798.05-1.634.078-2.493.067-2.017.137-4.103.137-6.211 0-25.205-5.926-36.944-18.65-36.944-.986 0-1.918.126-2.815.33 9.811 6.434 11.412 23.145 11.412 36.614zM764.216 303.403l.002-.099-10.055.142c-.192 10.951-2.033 23.789-11.114 29.196.66.106 1.313.23 2.015.23 12.714 0 18.8-9.364 19.152-29.469zM731.352 354.234c-20.762-7.587-31.29-32.808-31.29-75.347 0-17.27.765-37.13 6.43-53.504 5.086-14.705 13.41-24.17 24.798-28.352-39.085 1.891-41.28 51.136-41.28 81.856 0 29.959 4.835 73.605 41.342 75.347zM803.309 156.464l-10.053.13-1.253 194.215 10.048.605zM870.505 345.508v5.94c4.7 2.018 9.49 2.87 12.964 2.87.042 0 .08-.008.122-.008-4.74-1.78-9.477-4.614-13.086-8.802zM883.654 196.95c-.064 0-.122-.01-.185-.01-4.87 0-9.985 1.132-14.718 3.878v8.893c3.882-5.966 8.963-10.288 14.903-12.761zM835.855 405.94l10.052-.381-.5-206.248-10.053.136zM901.261 271.118c0 11.787-.196 51.04-14.042 62.168 1.303.373 2.691.588 4.192.588 12.835 0 19.903-22.287 19.903-62.756 0-13.228 0-53.483-19.151-53.483-1.29 0-2.505.198-3.685.486 12.778 9.593 12.783 40.576 12.783 52.997zM992.66 233.93c9.064-9.903 16.892-18.456 16.892-31.225 0-11.953-10.708-17.398-20.656-17.398-.297 0-.56.041-.85.05 6.735 3.106 11.453 9.069 11.453 17.348 0 29.32-38.844 38.341-38.844 76.433 0 4.009 0 7.768.753 11.778 3.283-.548 6.566-.875 9.85-1.219-.517-3.594-.55-6.997-.55-10.56 0-21.221 11.663-33.964 21.952-45.207zM943.91 202.684c2.123-18.678 13.465-32.953 29.216-38.465-21.576 1.105-36.865 17.444-39.284 38.736l18.293 4.762c.033-.246.081-.487.118-.731l-8.578-2.233.235-2.069zM967.702 336.775c0-7.063 3.93-13.179 9.702-16.51-.891-.152-1.79-.28-2.715-.28-9.272 0-17.04 7.518-17.04 16.79 0 9.022 7.768 17.041 17.04 17.041.977 0 1.929-.134 2.868-.314-5.812-3.405-9.855-9.662-9.855-16.727zM87.164 437.405l1.224 174.218 10.054.093-1.221-173.743zM244.727 557.96v-.094l-10.053.095c0 9.239-.522 19.69-5.66 24.968 1.236.74 2.476 1.056 3.655 1.056 10.007 0 12.058-10.403 12.058-26.024zM244.72 524.05c-.122-22.037-2.137-32.543-12.05-32.543-1.426 0-2.694.427-3.849 1.139 4.982 5.464 5.788 16.933 5.845 31.757 3.296-.102 6.7-.217 10.055-.352zM195.096 592.748c-5.76-12.068-8.442-28.65-8.442-52.184 0-26.629 2.598-44.23 8.423-57.073 4.992-11.007 12.393-18.104 22.294-21.613-34.05 2.225-40.77 35.83-40.77 78.686 0 14.955 1.089 29.26 4.537 41.221l.54-.005 2.532-.026-.336 7.718c5.873 13.81 16.175 23.051 33.611 24.15-9.843-3.46-17.381-10.382-22.389-20.874zM298.876 561.882c0-4.035.054-8.338.111-12.895.067-5.243.135-10.665.135-16.51l.217-19.338-10.056.283-.214 19.056c0 11.026-.245 20.827-.245 29.404 0 29.918 6.99 46.361 37.128 49.597-22.008-6.609-27.076-23.896-27.076-49.597zM300.105 442.531l-10.056.265-.462 39.745h10.053zM270.446 484.941l.082 1.456c2.354 6.92 3.795 15.135 4.281 24.682l7.14-.202-1.454-25.936h-10.049zM359.167 500.375c9.14-11.752 13.217-21.877 13.217-32.83 0-9.329-3.045-20.008-9.049-31.742l-.092-.203c-.97-2.428 1.584-3.773 4.54-5.33 1.948-1.025 4.684-2.356 8.135-3.956.561-.26 1.121-.516 1.68-.772-.432-.785-.85-1.58-1.3-2.35 0 0-23.769 10.292-23.279 11.518 5.391 10.536 9.312 22.052 9.312 32.834 0 8.617-2.493 16.414-6.824 24.042l-1.356 14.611 10.385 8.148a108.692 108.692 0 003.507-3.968L357.7 502.26l1.467-1.886zM418.677 601.986c-12.551-15.808-8.115-38.59-7.573-41.114l-10.058.274s-11.069 48.685 35.35 52.648c-7.369-2.368-13.329-6.279-17.72-11.808zM465.251 574.623c0-9.608-10.015-16.57-21.612-24.632-15.827-11-33.765-23.47-33.765-47.407 0-21.482 11.503-37.64 29.771-43.678-23.381 1.8-39.824 18.383-39.824 43.678 0 40.43 55.377 47.29 55.377 72.04 0 5.538-1.813 9.182-4.75 11.412.848.238 1.744.4 2.746.4 8.113 0 12.057-3.864 12.057-11.813zM462.978 490.549c-2.232-2.711-5.324-4.163-9.453-4.438-1.167-.052-2.39.184-3.565.65 8.54 6.435 6.709 20.723 6.709 20.723l10.189-1.904c.14-3.163-.024-10.347-3.88-15.031zM571.838 522.186c0-49.638 12.49-78.104 37.975-86.468-33.753 2.779-48.028 33.252-48.028 86.468 0 51.638 12.6 89.302 49.519 91.754-26.173-8.522-39.466-39.22-39.466-91.754zM636.74 471.546c-2.474-2.497-5.703-3.562-10.8-3.562-.732 0-1.445.035-2.138.111 4.983 3.243 8.703 10.49 8.552 26.402h10.053v-.022c.107-11.31-1.8-19.025-5.667-22.93zM644.612 553.796H634.56c-.319 17.034-4.47 25.557-9.418 29.458 1.317.306 2.691.509 4.196.486 9.356 0 14.91-10.914 15.274-29.944zM732.529 490.281c-1.095 0-2.844.022-4.767.706 3.973 3.955 6.526 12.103 6.526 26.789v93.357l10.053.38v-93.737c0-18.244-3.974-27.495-11.813-27.495zM729.503 461.725c-4.671.171-8.715.82-12.952 2.864v6.162c4.836-4.6 8.976-7.364 12.952-9.026zM674.99 428.094v123.302h.213l-.063 2.46c-.032 1.264-.09 2.483-.15 3.699v54.068l10.053-.35V427.818l-10.053.277zM818.271 461.74c-37.171 1.606-37.672 46.933-37.672 58.486l10.079-1.046c.216-31.017 9.873-50.832 27.593-57.44zM785.017 576.338c0-9.65 1.846-23.528 10.644-34.829 5.257-6.753 12.169-11.456 20.6-14.147-29.127 2.556-39.819 23.808-41.147 44.433v8.385c1.5 21.55 15.605 31.64 30.625 31.684-11.515-4.625-20.722-16.083-20.722-35.526zM847.5 525.372c-.269-16.365-1.596-33.865-14.018-33.865-1.499 0-2.8.26-3.961.71 7.096 6.318 7.715 21.086 7.913 32.5 3.186.064 6.538.276 10.066.895v-.24zM834.275 610.79l6.812.312.341-4.438c-2.231 1.632-4.64 2.998-7.153 4.126zM837.883 551.05c-.49 6.134-1.222 18.433-2.641 25.534-2.774 3.038-6.554 5.69-10.592 7.516.663.09 1.325.13 1.971.13 6.193 0 13.848-3.585 18.848-8.78 1.078-5.82 1.754-14.961 2.207-21.088.056-.752.109-1.466.16-2.13-3.604-.786-6.94-1.182-9.943-1.182h-.01zM873.274 484.941c2.597 7.356 4.007 16.102 4.609 26.129l6.841-.193-1.454-25.936h-9.996zM901.65 561.882c0-4.035.055-8.338.112-12.895.066-5.243.134-10.665.134-16.51l.217-19.338-10.055.283-.215 19.056c0 11.026-.245 20.827-.245 29.404 0 29.918 6.991 46.361 37.129 49.597-22.009-6.609-27.076-23.896-27.076-49.597zM902.88 442.531l-10.056.265-.463 39.745h10.053zM964.86 553.796l10.032-.605-3.89-125.476-10.063-.357zM966.337 592.51c0-8.674 5.167-16.383 12.52-20.2a19.412 19.412 0 00-2.236-.137c-8.165 0-15.378 5.11-18.577 12.237l-1.4 11.738c1.776 9.312 10.193 16.455 19.977 16.455.743 0 1.475-.048 2.198-.128-7.332-3.782-12.482-11.397-12.482-19.964z"/><path class="st6" d="M106.134 356.812l24.124-.94-.905-113.757-.245-30.86 46.448 140.922.94 2.855 35.943-1.415-.257-184.416-25.136.31.039 2.246 2.49 146.505-10.599-32.148-38.153-115.72-33.918 1.71-.008 1.776-.751 180.045-.012 2.887zm74.68-35.818c3.767 6.71 8.846 13.005 15.874 16.342a826.225 826.225 0 002.625-29.027 823.08 823.08 0 00.298-113.522c-.072-1.083.972-2 2-2 1.131 0 1.928.922 2 2a822.919 822.919 0 01-3.217 145.45c-.131 1.18-1.188 2.414-2.532 1.93-9.916-3.579-16.68-11.848-21.466-20.929-4.84-9.183-8.097-19.157-11.814-28.822a1519.466 1519.466 0 00-13.79-34.584c-8.456-20.472-17.395-40.742-26.744-60.821l-1.16 23.377-2.75 55.493-2.771 55.892c-.127 2.566-4.127 2.573-4 0l1.564-31.539 2.75-55.493 2.772-55.892c.09-1.822 2.823-2.924 3.726-1.01a1529.42 1529.42 0 0145.093 105.686c3.544 9.256 6.673 18.795 11.542 27.469zM234.114 225.383c-5.664 16.374-6.428 36.235-6.428 53.504 0 42.539 10.527 67.76 31.29 75.347 4.443 1.624 9.332 2.483 14.714 2.483 24.84 0 39.69-19.481 40.74-53.448l.077-2.51-22.627.32-.04 2.225-.001.1c-.352 20.104-6.439 29.468-19.152 29.468-.702 0-1.355-.124-2.015-.23-14.585-2.339-19.026-29.677-19.37-47.694l60.586-2.493.266-1.998c1.062-7.966 1.776-18.366 1.776-25.878 0-39.839-13.539-60.038-40.24-60.038-5.4 0-10.317.852-14.778 2.49-11.388 4.181-19.712 13.647-24.798 28.352zm38.456-19.3c10.41-1.058 18.651 6.614 23.36 15.11 2.596 4.686 4.34 9.767 5.669 14.941a102.87 102.87 0 013.028 19.42c.196 3.28.23 6.57.1 9.852-.114 2.89-.204 6.045-2.32 8.269-2.037 2.141-5.317 2.752-8.059 3.468-3.117.814-6.264 1.51-9.434 2.087-12.867 2.34-26.04 2.783-39.027 1.23-1.078-.129-2-.812-2-2 0-.989.926-2.128 2-2 3.01.36 6.032.621 9.061.77 12.196.6 24.452-.541 36.316-3.433a119.61 119.61 0 004.763-1.26c1-.287 2.043-.569 2.917-1.157 2.052-1.382 1.742-4.57 1.81-6.732.192-6.005-.143-12.045-1.066-17.984-1.543-9.919-4.203-20.741-10.684-28.702-2.604-3.199-5.878-5.992-9.874-7.234-4.517-1.403-9.267-.654-13.38 1.592-9.71 5.303-13.598 16.24-16.175 26.35-3.001 11.774-5.097 23.814-5.761 35.956-.67 12.232.125 24.572 3.047 36.49 2.118 8.64 5.733 17.861 12.905 23.563 3.488 2.772 7.809 4.336 12.27 4.3 4.804-.04 9.45-1.794 13.375-4.504 8.791-6.07 12.72-16.93 14.09-27.109.145-1.077 1.528-1.652 2.46-1.396 1.14.313 1.54 1.39 1.396 2.46-.369 2.743-.904 5.463-1.66 8.128-3.106 10.942-10.06 20.842-21.054 24.843-5.025 1.829-10.692 2.156-15.803.477-4.645-1.526-8.675-4.493-11.799-8.225-6.935-8.285-9.955-19.13-11.705-29.59-2.15-12.845-2.187-25.944-.727-38.866a198.903 198.903 0 013.195-19.422c1.29-6.005 2.684-12.07 4.87-17.823 2.082-5.474 4.944-10.765 9.246-14.82 4.03-3.8 9.098-6.483 14.65-7.048zm-2.698 13.136c.898-.205 1.83-.331 2.815-.331 12.724 0 18.65 11.739 18.65 36.944 0 2.108-.07 4.194-.136 6.211-.03.86-.057 1.695-.078 2.494l-10.057.339-29.678 1c.746-15.026 4.084-43.38 18.484-46.657zM333.6 225.383c-5.665 16.374-6.429 36.235-6.429 53.504 0 42.539 10.528 67.76 31.29 75.347 4.444 1.624 9.332 2.483 14.715 2.483 24.84 0 39.689-19.481 40.74-53.448l.077-2.51-22.627.32-.04 2.225-.001.1c-.352 20.104-6.439 29.468-19.152 29.468-.702 0-1.355-.124-2.015-.23-14.585-2.339-19.026-29.677-19.37-47.694l60.586-2.493.266-1.998c1.062-7.966 1.776-18.366 1.776-25.878 0-39.839-13.539-60.038-40.24-60.038-5.4 0-10.316.852-14.778 2.49-11.388 4.181-19.712 13.647-24.798 28.352zm38.831-19.3c10.409-1.058 18.651 6.614 23.36 15.11 2.596 4.686 4.34 9.767 5.669 14.941a102.888 102.888 0 013.028 19.42c.196 3.28.23 6.57.1 9.852-.114 2.89-.204 6.045-2.32 8.269-2.037 2.141-5.317 2.752-8.059 3.468-3.117.814-6.264 1.51-9.434 2.087-12.867 2.34-26.04 2.783-39.028 1.23-1.077-.129-2-.812-2-2 0-.989.926-2.128 2-2 3.011.36 6.033.621 9.062.77 12.196.6 24.452-.541 36.316-3.433 1.595-.39 3.185-.805 4.763-1.26 1-.287 2.043-.569 2.917-1.157 2.052-1.382 1.742-4.57 1.81-6.732.192-6.005-.143-12.045-1.067-17.984-1.542-9.919-4.203-20.741-10.683-28.702-2.604-3.199-5.878-5.992-9.874-7.234-4.517-1.403-9.268-.654-13.38 1.592-9.71 5.303-13.598 16.24-16.175 26.35-3.001 11.774-5.097 23.814-5.761 35.956-.67 12.232.125 24.572 3.047 36.49 2.118 8.64 5.732 17.861 12.906 23.563 3.487 2.772 7.808 4.336 12.27 4.3 4.803-.04 9.45-1.794 13.374-4.504 8.791-6.07 12.72-16.93 14.09-27.109.144-1.077 1.528-1.652 2.46-1.396 1.14.313 1.54 1.39 1.396 2.46-.369 2.743-.904 5.463-1.66 8.128-3.106 10.942-10.06 20.842-21.054 24.843-5.025 1.829-10.692 2.156-15.804.477-4.644-1.526-8.675-4.493-11.798-8.225-6.935-8.285-9.955-19.13-11.705-29.59-2.15-12.845-2.187-25.944-.728-38.866a198.907 198.907 0 013.196-19.422c1.29-6.005 2.684-12.07 4.87-17.823 2.081-5.474 4.944-10.765 9.245-14.82 4.03-3.8 9.1-6.483 14.651-7.048zm-3.073 13.136c.898-.205 1.83-.331 2.815-.331 12.724 0 18.65 11.739 18.65 36.944 0 2.108-.07 4.194-.137 6.211-.028.86-.056 1.695-.078 2.494l-10.056.339-29.678 1c.746-15.026 4.084-43.38 18.484-46.657zM489.057 159.351v47.905c-2.928-4.188-6.203-7.16-10.053-9.203-4.547-2.414-9.908-3.512-16.616-3.512-3.829 0-7.819.67-11.714 2.415-13.855 6.205-26.522 26.007-26.522 77.67 0 11.885 0 31.776 4.785 49.13 4.413 16.005 11.954 26.21 22.465 30.547 3.852 1.59 8.092 2.414 12.74 2.414 4.27 0 9.033-1.3 13.526-3.925a31.967 31.967 0 009.635-8.662V355.343l23.839-1.255.514-197.136h-22.599v2.399zm12.707 14.221a2616.132 2616.132 0 01-.865 171.988c-.098 2.57-4.098 2.574-4 0 .478-12.63.866-25.263 1.162-37.898.015-.647.018-1.294.033-1.94a129.068 129.068 0 01-5.046 14.25c-3.715 8.782-8.21 17.771-16.09 23.55-3.66 2.682-8.107 4.336-12.671 4.332-4.603-.004-9.125-1.692-12.84-4.357-8.562-6.142-12.42-16.059-14.118-26.13-.949-5.623-1.45-11.33-1.932-17.009a363.054 363.054 0 01-1.08-17.642c-.423-11.757-.213-23.548.888-35.264a223.65 223.65 0 012.352-17.622c.742-4.244 1.712-8.46 3.321-12.467 1.558-3.882 3.626-7.652 6.693-10.556 3.262-3.088 7.485-4.94 11.99-5.09 10.5-.346 19.523 7.654 26.086 14.963a91.93 91.93 0 0113.08 18.845c-.085-20.653-.39-41.307-.963-61.953-.072-2.579 3.928-2.568 4 0z"/><path class="st6" d="M498.672 244.824a72.568 72.568 0 00-2.868-6.361c-4.536-8.94-10.627-17.227-17.98-24.056-6.09-5.658-15.486-11.538-23.895-7.26-6.834 3.478-9.798 11.575-11.474 18.585-1.145 4.792-1.85 9.711-2.467 14.595a234.605 234.605 0 00-1.483 16.592c-.613 11.242-.474 22.516.191 33.752.33 5.558.788 11.107 1.35 16.645.511 5.052 1.122 10.11 2.423 15.03 2.236 8.456 7.138 17.062 15.737 20.326 3.84 1.458 7.886 1.548 11.757.15 3.793-1.369 6.97-4.119 9.582-7.123 2.806-3.23 5.028-6.96 6.9-10.796a130.477 130.477 0 005.992-14.386c3.48-10.017 5.686-20.487 5.817-31.114.005-.408.133-.727.305-1.006.136-11.142.2-22.286.195-33.43-.024-.05-.062-.09-.082-.143zm-32.025 89.05c-1.091 0-2.113-.15-3.09-.39-17.052-4.216-17.063-43.461-17.063-56.852 0-35.155 5.819-55.674 16.444-58.595.874-.24 1.769-.402 2.707-.402 22.66 0 22.66 42.315 22.66 58.244 0 15.862 0 57.995-21.658 57.995zM596.816 354.242l24.609-.312-.514-99.853c0-22.8 6.418-34.69 19.574-36.25a26.071 26.071 0 013.086-.192c12.376 0 18.65 12.092 18.65 35.94V353.61l22.593.955v-98.232c0-20.057 0-61.792-36.983-61.792-4.546 0-8.73.826-12.608 2.41-5.687 2.322-10.696 6.321-15.064 12.128V156.818l-23.343 1.262V354.242zm9.982-188.319c1.138 0 1.92.923 2 2a1282.78 1282.78 0 012.282 38.684c.318 7.255.551 14.513.745 21.773 5-9.471 13.172-17.522 23.227-21.331 5.247-1.988 10.998-2.752 16.553-1.858 5.62.905 10.586 3.9 13.926 8.511 3.843 5.306 5.132 12.079 6.22 18.4 1.288 7.474 2.05 15.033 2.45 22.604.791 15 .2 30.023-.17 45.026-.368 15.008-.51 30.064 1.132 45.009.119 1.08-1.01 2-2 2-1.165 0-1.882-.927-2-2a203.81 203.81 0 01-.519-5.358c-1.206-14.47-.894-29.011-.513-43.51.378-14.418.839-28.862-.05-43.27-.442-7.15-1.22-14.28-2.524-21.328-1.067-5.764-2.35-12.12-6.364-16.643-6.91-7.785-18.995-6.839-27.59-2.634-10.238 5.009-18.007 14.886-21.352 25.679-.045.147-.132.24-.198.363.238 12.435.311 24.872.187 37.309a1281.288 1281.288 0 01-2.552 68.904c-.069 1.082-.86 2-2 2-1.03 0-2.068-.921-2-2a1278.68 1278.68 0 00-.89-176.33c-.08-1.083.98-2 2-2zM706.491 225.383c-5.664 16.374-6.428 36.235-6.428 53.504 0 42.539 10.527 67.76 31.29 75.347 4.444 1.624 9.332 2.483 14.714 2.483 24.84 0 39.69-19.481 40.74-53.448l.077-2.51-22.626.32-.04 2.225-.002.1c-.352 20.104-6.438 29.468-19.152 29.468-.702 0-1.355-.124-2.015-.23-14.585-2.339-19.026-29.677-19.37-47.694l60.586-2.493.267-1.998c1.062-7.966 1.775-18.366 1.775-25.878 0-39.839-13.538-60.038-40.24-60.038-5.4 0-10.316.852-14.777 2.49-11.389 4.181-19.712 13.647-24.799 28.352zm38.489-19.3c10.409-1.058 18.65 6.614 23.36 15.11 2.596 4.686 4.34 9.767 5.668 14.941a102.888 102.888 0 013.029 19.42c.195 3.28.23 6.57.1 9.852-.115 2.89-.205 6.045-2.32 8.269-2.038 2.141-5.317 2.752-8.06 3.468a128.04 128.04 0 01-9.433 2.087c-12.867 2.34-26.04 2.783-39.028 1.23-1.077-.129-2-.812-2-2 0-.989.926-2.128 2-2 3.011.36 6.033.621 9.061.77 12.196.6 24.452-.541 36.316-3.433 1.596-.39 3.186-.805 4.764-1.26 1-.287 2.043-.569 2.916-1.157 2.052-1.382 1.742-4.57 1.811-6.732.191-6.005-.143-12.045-1.067-17.984-1.543-9.919-4.203-20.741-10.683-28.702-2.605-3.199-5.879-5.992-9.875-7.234-4.516-1.403-9.267-.654-13.38 1.592-9.71 5.303-13.598 16.24-16.175 26.35-3 11.774-5.097 23.814-5.76 35.956-.67 12.232.124 24.572 3.047 36.49 2.118 8.64 5.732 17.861 12.905 23.563 3.488 2.772 7.808 4.336 12.27 4.3 4.803-.04 9.45-1.794 13.375-4.504 8.79-6.07 12.72-16.93 14.09-27.109.144-1.077 1.528-1.652 2.46-1.396 1.14.313 1.54 1.39 1.396 2.46-.37 2.743-.904 5.463-1.66 8.128C771 327.5 764.046 337.4 753.052 341.401c-5.024 1.829-10.692 2.156-15.803.477-4.645-1.526-8.675-4.493-11.798-8.225-6.935-8.285-9.955-19.13-11.705-29.59-2.15-12.845-2.188-25.944-.728-38.866a198.97 198.97 0 013.196-19.422c1.289-6.005 2.683-12.07 4.87-17.823 2.081-5.474 4.944-10.765 9.245-14.82 4.03-3.8 9.099-6.483 14.65-7.048zm-2.73 13.136c.897-.205 1.829-.331 2.814-.331 12.725 0 18.65 11.739 18.65 36.944 0 2.108-.069 4.194-.136 6.211-.029.86-.057 1.695-.078 2.494l-10.057.339-29.678 1c.747-15.026 4.085-43.38 18.485-46.657zM802.04 353.067l25.618 1.544-.257-200.698-24.078.313-.014 2.238-1.258 194.95-.01 1.653zm14.821-191.97l-.3 39.548-.533 70.308-.536 70.708c-.02 2.577-4.02 2.574-4 0l.3-39.548.533-70.309.536-70.707c.02-2.577 4.02-2.574 4 0zM858.482 316.386c.334.228.623.547.767 1.042.514 1.765 1.134 3.497 1.915 5.163 3.178 6.783 8.389 12.6 15.202 15.85 6.598 3.148 14.837 3.388 21.52.35 7.16-3.255 11.434-9.939 14.013-17.12 1.416-3.943 2.422-8.017 3.362-12.094 1.11-4.81 2.095-9.647 2.955-14.507 2.989-16.895 4.779-34.668.857-51.566-1.834-7.903-4.922-15.968-9.947-22.422-2.327-2.989-5.296-5.634-8.91-6.921-3.322-1.183-6.936-1.376-10.396-.735-16.957 3.143-24.401 20.142-30.214 34.446a2.51 2.51 0 01-.909 1.152c-.007 1.136-.019 2.272-.025 3.408a12772.91 12772.91 0 00-.19 63.954zm29.996-98.266c1.18-.287 2.395-.485 3.685-.485 19.151 0 19.151 40.255 19.151 53.483 0 40.469-7.068 62.756-19.903 62.756-1.5 0-2.89-.215-4.192-.588-17.708-5.077-17.717-42.631-17.717-57.407 0-35.333 6.393-54.689 18.976-57.759z"/><path class="st6" d="M845.914 408.433l24.59-.934v-61.991c3.61 4.188 8.348 7.021 13.087 8.802 4.413 1.658 8.828 2.407 12.33 2.407 15.964 0 27.023-11.964 32.872-35.56 4.863-19.62 4.863-42.994 4.863-51.793 0-18.506 0-74.823-37.734-74.823-4.389 0-8.498.839-12.268 2.409-5.94 2.473-11.02 6.795-14.903 12.76v-12.946l-23.35.315.006 2.232.5 206.248.007 2.873zm13.068-197.53c-.087 9.558-.148 19.117-.214 28.675 3.374-7.78 7.412-15.471 13.593-21.4 5.897-5.655 14.185-9.454 22.458-9.082 4.08.183 8.101 1.403 11.462 3.752 3.633 2.539 6.437 6.03 8.73 9.789 4.703 7.71 7.582 16.466 9.002 25.357 2.988 18.723.293 37.964-3.52 56.366-1.805 8.706-3.624 17.846-7.99 25.696-4.186 7.523-11.116 12.97-19.7 14.401-8.284 1.38-16.827-.63-23.57-5.66-4.542-3.388-8.167-7.806-10.78-12.783-.002 24.589.067 49.177.206 73.765.015 2.579-3.984 2.573-4 0a12798.21 12798.21 0 01.324-188.875c.023-2.577 4.023-2.575 4 0zM987.142 317.586c-3.564 0-6.863 1.02-9.738 2.679-5.773 3.331-9.702 9.447-9.702 16.51 0 7.065 4.043 13.322 9.855 16.727 2.858 1.675 6.111 2.714 9.585 2.714 10.223 0 19.19-9.085 19.19-19.44 0-10.403-8.788-19.19-19.19-19.19zm3.37 19.144c-.081.248-.22.463-.414.644l-.519.519c-.25.248-.544.42-.882.514l-.532.072a1.991 1.991 0 01-1.01-.273l-.404-.313a1.495 1.495 0 01-.414-.644 1.506 1.506 0 01-.172-.77c-.01-.275.047-.532.172-.77.08-.249.219-.463.414-.644l.519-.519c.25-.248.543-.42.882-.514l.532-.072a1.99 1.99 0 011.01.273l.404.313c.195.18.333.396.413.643.126.239.183.496.172.771.01.275-.046.532-.172.77zM1020.557 172.969c-8.506-7.259-20.107-11.256-32.664-11.256-5.227 0-10.175.9-14.767 2.506-15.751 5.512-27.093 19.787-29.216 38.465l-.235 2.07 8.578 2.232 14.358 3.737.356-2.692c.887-6.713 4.74-22.138 21.08-22.673.289-.01.552-.05.849-.05 9.948 0 20.656 5.444 20.656 17.397 0 12.77-7.828 21.322-16.892 31.225-10.29 11.243-21.952 23.986-21.952 45.208 0 3.562.033 6.965.55 10.56.079.552.138 1.097.244 1.66l.434 2.311 2.319-.386c2.935-.49 5.955-.804 8.876-1.108 2.992-.312 6.087-.634 9.167-1.147l2.367-.395-.395-2.367c-.476-2.86-.718-5.51-.718-7.875 0-15.935 9.865-26.37 20.309-37.416 10.22-10.81 20.788-21.986 20.788-38.516 0-12.734-4.873-23.624-14.092-31.49zm-21.086 75.598c-7.402 9.554-14.29 21.769-11.745 34.302.216 1.062-.295 2.157-1.397 2.46-.99.272-2.245-.338-2.46-1.397a33.194 33.194 0 01-.613-4.585c-.767-12.654 6.099-24.278 13.603-33.886 7.425-9.505 16.534-18.36 21.047-29.767 2.094-5.294 3.275-11 2.72-16.705a22.715 22.715 0 00-6.545-13.87c-7.398-7.39-18.987-10.09-29.154-9.74-5.59.192-11.009 1.844-15.406 5.379-3.938 3.167-6.918 7.424-8.367 12.276-.736 2.465-4.595 1.408-3.857-1.063.413-1.383.935-2.73 1.544-4.039 2.325-4.993 6.223-9.267 10.879-12.189 5.395-3.384 11.706-4.554 18.01-4.368 10.855.32 22.817 3.67 30.251 12.052 3.982 4.488 6.206 10.078 6.686 16.039.486 6.025-.821 12.188-3.09 17.752-4.904 12.026-14.275 21.242-22.106 31.349zM181.677 581.78l-.539.005c-3.48.035-24.591.24-38.396.24-4.994 0-8.216 0-10.342.105V436.852l-35.201-1.987.022 3.108 1.22 173.743.017 2.285 84.315.779 1.101-25.308.336-7.718-2.533.026zm-10.704 21.2l-44.391-2.514c-2.873-.163-6.419.134-8.915-1.552-2.277-1.537-3.007-4.19-3.257-6.781-.295-3.064-.248-6.186-.345-9.262a4247.414 4247.414 0 01-2.1-129.705c-.002-2.577 3.998-2.573 4 0a4240.92 4240.92 0 002.15 131.3c.087 2.715-.073 5.573.371 8.258.158.95.416 2.057 1.185 2.709.812.687 2.003.746 3.02.812 3.144.206 6.293.358 9.44.536l38.842 2.2c2.563.145 2.571 4.145 0 4zM233.405 459.263c-5.976 0-11.27.927-16.034 2.615-9.902 3.509-17.302 10.606-22.294 21.613-5.825 12.843-8.423 30.444-8.423 57.073 0 23.534 2.683 40.116 8.442 52.184 5.008 10.492 12.546 17.414 22.39 20.873 4.773 1.678 10.045 2.607 15.919 2.607 17.478 0 30.195-8.698 36.777-25.154 4.766-11.915 5.318-24.744 5.318-33.358v-2.422l-30.773.29V557.96c0 15.62-2.05 26.024-12.058 26.024-1.18 0-2.42-.315-3.655-1.056-4.504-2.698-8.955-11.387-10.243-34.174l54.303-1.947.209-2.085c.965-9.648 1.727-17.27 1.727-25.967 0-2.653-.074-5.201-.2-7.677-.487-9.547-1.928-17.761-4.282-24.682-6.125-18.006-18.52-27.134-37.123-27.134zm30.85 66.616c-.114 2.89-.204 6.045-2.32 8.269-2.037 2.14-5.317 2.752-8.058 3.468a127.92 127.92 0 01-9.435 2.086c-12.866 2.341-26.04 2.784-39.027 1.23-1.078-.128-2-.811-2-1.999 0-.989.926-2.128 2-2 3.01.36 6.032.621 9.061.77 12.196.6 24.452-.541 36.316-3.434 1.596-.389 3.185-.805 4.763-1.259 1-.288 2.043-.569 2.917-1.157 2.052-1.382 1.742-4.57 1.81-6.732.192-6.005-.143-12.046-1.066-17.984-1.543-9.92-4.203-20.741-10.684-28.702-2.604-3.2-5.878-5.992-9.874-7.234-4.517-1.404-9.267-.654-13.38 1.591-9.71 5.304-13.598 16.242-16.175 26.35-3.001 11.775-5.097 23.814-5.761 35.957-.67 12.232.125 24.571 3.047 36.49 2.118 8.64 5.733 17.861 12.906 23.562 3.487 2.772 7.808 4.337 12.27 4.3 4.803-.04 9.45-1.793 13.374-4.503 8.791-6.07 12.72-16.93 14.09-27.109.145-1.077 1.529-1.653 2.46-1.397 1.14.314 1.54 1.391 1.397 2.46-.37 2.744-.904 5.464-1.66 8.129-3.106 10.942-10.062 20.842-21.055 24.843-5.025 1.829-10.692 2.156-15.803.476-4.645-1.526-8.675-4.492-11.799-8.224-6.935-8.285-9.955-19.13-11.705-29.59-2.15-12.845-2.187-25.944-.727-38.867a198.975 198.975 0 013.195-19.421c1.29-6.006 2.684-12.071 4.87-17.823 2.082-5.474 4.944-10.765 9.246-14.82 4.03-3.8 9.098-6.484 14.65-7.048 10.41-1.06 18.651 6.613 23.36 15.11 2.596 4.685 4.34 9.766 5.669 14.94a102.888 102.888 0 013.028 19.419c.196 3.28.23 6.57.1 9.853zm-35.434-33.233c1.155-.712 2.423-1.14 3.848-1.14 9.914 0 11.929 10.507 12.052 32.545-3.356.135-6.76.25-10.055.352-3.621.112-7.111.208-10.235.293-2.014.055-3.91.107-5.646.157.705-11.627 2.984-27.86 10.036-32.207zM356.346 482.541h-24.205l.737-42.945-32.749.862-.024 2.073-.465 40.01H280.36l.134 2.4 1.455 25.936.154 2.748 7.18-.203 10.055-.283-.217 19.339c0 5.844-.068 11.266-.135 16.51-.057 4.556-.11 8.86-.11 12.894 0 25.7 5.067 42.988 27.075 49.597 6.366 1.91 14.076 2.975 23.581 3.034l2.144.013 3.747-31.415-2.594-.104c-17.2-.688-22.445-5.109-22.445-18.92 0-3.06.138-6.514.297-10.514.206-5.155.438-11 .438-17.62l.448-23.965 22.136-.973.447-4.818 1.356-14.61.84-9.046zm-14.172 17.943l-11.993-.061-14.996-.077c-.442 18.387-.185 36.791.862 55.153.302 5.29.638 10.582 1.097 15.86.403 4.638 1.014 9.3 2.576 13.708 1.395 3.936 3.685 7.548 7.03 10.107 3.034 2.322 6.943 3.771 10.783 3.046 1.065-.2 2.154.284 2.46 1.397.269.98-.335 2.26-1.397 2.46-5.043.952-10.063-.554-14.109-3.634-4.229-3.22-7.024-7.643-8.736-12.635-1.612-4.698-2.2-9.696-2.621-14.621-.471-5.485-.82-10.983-1.127-16.48a681.79 681.79 0 01-1.045-33.47c-.046-6.97.053-13.941.221-20.91-7.657-.04-15.314-.079-22.972-.117-2.577-.014-2.574-4.013 0-4l11.993.06 11.1.057c.423-14.08 1.23-28.15 2.52-42.178.099-1.08.836-2 2-2 1.01 0 2.098.923 2 2a685 685 0 00-2.375 36.38c-.074 1.939-.096 3.88-.154 5.819l26.883.136c2.577.013 2.574 4.013 0 4zM390.82 421.978l-1.075-1.831-1.949.844c-.054.023-4.946 2.144-10.198 4.55-.559.257-1.119.513-1.68.773-3.45 1.6-6.187 2.931-8.134 3.956-2.957 1.557-5.511 2.902-4.541 5.33l.092.203c6.004 11.734 9.049 22.413 9.049 31.741 0 10.954-4.077 21.08-13.217 32.831l-1.467 1.886 10.343 8.116 9.197 7.216 1.503-1.61c15.49-16.598 23.678-35.381 23.678-54.32 0-13.217-3.903-26.569-11.602-39.685zm-14.91 74.01c2.25-4.06 4.373-8.194 6.209-12.459 6.07-14.1 8.825-31.1 1.063-45.14-1.248-2.256 2.208-4.271 3.453-2.018a41.55 41.55 0 014.567 13.102c2.933 17.178-3.65 33.76-11.839 48.534-1.249 2.254-4.702.235-3.453-2.019zM465.451 524.29c-12.126-8.72-22.6-16.25-22.6-25.627 0-5.109 2.002-8.098 3.682-9.706a10.64 10.64 0 013.427-2.197c1.175-.465 2.398-.701 3.565-.65 4.129.276 7.221 1.728 9.453 4.439 3.856 4.684 4.02 11.868 3.88 15.03a23.943 23.943 0 01-.117 1.598l-.426 3.273 31.476-5.883-.052-2.044c-.716-28.197-18.032-46.75-43.146-46.2-5.368.16-10.361 1.067-14.948 2.583-18.268 6.038-29.771 22.196-29.771 43.678 0 23.937 17.938 36.406 33.765 47.407 11.597 8.062 21.612 15.024 21.612 24.632 0 7.949-3.944 11.812-12.057 11.812-1.002 0-1.898-.161-2.747-.4-1.56-.437-2.899-1.238-3.995-2.504-5.87-6.785-3.648-22.614-3.625-22.773l.41-2.823-31.665.863-.413 1.816-.055.258c-.542 2.524-4.978 25.306 7.573 41.114 4.39 5.53 10.35 9.44 17.718 11.808 5.342 1.717 11.403 2.648 18.249 2.68l.599.002c14.011 0 25.708-4.26 33.855-12.337 7.738-7.67 11.827-18.216 11.827-30.496 0-23.845-18.846-37.396-35.474-49.353zm-42.943 48.206c.085-1.081.846-2 2-2 1.019 0 2.084.922 2 2-.153 1.92-.13 3.87.158 5.778 1.212 8.031 6.132 15.469 13.187 19.538 7.014 4.046 15.736 4.174 23.15 1.123 7.637-3.144 13.146-9.688 15.071-17.696 1.977-8.22.063-17.075-5.429-23.542-6.051-7.125-14.574-11.633-21.867-17.319-7.316-5.704-14.102-12.414-18.693-20.55-4.213-7.467-6.297-16.019-5.213-24.58 1.026-8.109 4.674-15.769 11.33-20.719 7.6-5.651 18.262-6.513 26.776-2.503 8.084 3.807 13.586 11.873 14.749 20.64.143 1.078-1.03 2-2 2-1.182 0-1.858-.93-2-2-.247-1.863-.792-3.747-1.528-5.473-3.369-7.9-11.023-13.398-19.652-13.657-8.466-.254-16.222 4.122-20.348 11.5-3.752 6.708-4.457 14.981-2.769 22.403 1.982 8.713 7.32 16.305 13.549 22.544 3.23 3.236 6.741 6.19 10.408 8.918 3.776 2.81 7.738 5.359 11.496 8.192 3.838 2.893 7.434 6.047 10.293 9.937a28.883 28.883 0 015.108 11.897c1.593 8.776-.466 18.056-6.065 25.06-5.296 6.624-13.6 10.457-21.983 11.011a29.23 29.23 0 01-23.096-9.022c-5.906-6.213-9.313-14.88-8.632-23.48zM675.203 551.396h-30.546l-.044 2.355-.001.045c-.365 19.03-5.918 29.944-15.274 29.944-1.505.023-2.879-.18-4.196-.486-2.6-.603-4.88-1.79-6.818-3.7-7.543-7.442-11.057-25.281-11.057-56.143 0-43.488 6.026-54.16 16.535-55.316a19.568 19.568 0 012.138-.111c5.097 0 8.326 1.065 10.8 3.562 3.868 3.904 5.774 11.618 5.667 22.929v.022l-.022 2.4h30.698l.096-2.3c.889-21.206-4.087-38.094-14.389-48.837-7.977-8.318-18.828-12.715-31.38-12.715-6.449 0-12.285.93-17.597 2.673-25.486 8.364-37.975 36.83-37.975 86.468 0 52.534 13.293 83.232 39.466 91.754 4.997 1.627 10.413 2.533 16.35 2.533 20.429 0 44.934-10.36 47.336-58.918.06-1.216.118-2.435.15-3.699l.063-2.46zm-75.067 34.542c-5.048-8.616-7.172-18.786-8.432-28.581-1.38-10.724-1.597-21.628-1.62-32.43-.022-10.926.511-21.867 2.212-32.672 2.768-17.573 9.57-37.587 27.97-44.038 7.853-2.753 17.063-2.339 23.888 2.761 7.142 5.336 10.616 13.995 12.507 22.439.562 2.511-3.295 3.574-3.857 1.063a62.158 62.158 0 00-1.598-5.877c-2.354-7.141-6.713-14.366-14.18-16.951-7.152-2.476-15.154-.72-21.44 3.21-6.96 4.35-11.634 11.653-14.557 19.174-3.367 8.664-4.953 18.007-5.897 27.217-1.056 10.317-1.174 20.706-.959 31.066.209 10.056.55 20.185 2.311 30.108 1.548 8.722 3.99 17.993 9.523 25.112 4.985 6.413 12.443 9.814 20.54 9.58 8.016-.23 15.34-4 20.418-10.158 4.975-6.034 7.466-13.984 7.31-21.756-.053-2.579 3.947-2.57 3.999 0 .044 2.196-.122 4.373-.444 6.544-1.249 8.4-5.486 16.587-12.027 22.075-6.856 5.751-15.883 8.237-24.728 6.949-4.192-.61-8.313-2.153-11.78-4.603-3.786-2.676-6.824-6.244-9.16-10.232zM775.114 531.497c0-19.427 0-37.778-3.579-50.718-4.003-14.478-12.514-21.516-26.02-21.516-5.85 0-10.79.278-16.012 2.462-3.976 1.662-8.116 4.426-12.952 9.026v-45.859l-31.508.867v188.349l32.997-1.148-.754-94.694c0-19.861 5.773-25.605 10.476-27.279 1.923-.684 3.672-.706 4.767-.706 7.838 0 11.812 9.251 11.812 27.495v95.668l30.773 1.161v-83.108zm-9.951 78.956c-1.166 0-1.882-.926-2-2a204.08 204.08 0 01-.519-5.357c-1.206-14.471-.894-29.011-.514-43.51.379-14.418.84-28.862-.05-43.27-.441-7.15-1.218-14.281-2.523-21.328-1.067-5.765-2.35-12.121-6.364-16.643-6.91-7.785-18.995-6.84-27.59-2.635-10.239 5.01-18.007 14.887-21.352 25.68-.045.146-.132.24-.198.362.238 12.435.31 24.873.186 37.31a1281.236 1281.236 0 01-2.551 68.903c-.07 1.082-.86 2-2 2-1.031 0-2.069-.92-2-2a1278.68 1278.68 0 00-.89-176.33c-.08-1.082.98-2 2-2 1.137 0 1.92.923 2 2a1283.221 1283.221 0 012.282 38.684c.317 7.256.55 14.514.745 21.774 5-9.472 13.172-17.522 23.227-21.332 5.247-1.987 10.998-2.752 16.553-1.857 5.62.905 10.586 3.9 13.926 8.51 3.843 5.306 5.132 12.08 6.22 18.401 1.287 7.474 2.05 15.033 2.45 22.604.79 15 .199 30.023-.17 45.026-.368 15.008-.51 30.063 1.131 45.008.12 1.08-1.01 2-2 2zM832.747 459.263c-5.303 0-10.124.853-14.476 2.476-17.72 6.609-27.377 26.424-27.593 57.44-.003.357-.026.688-.026 1.047v2.662l30.773-3.194v-2.163c0-13.28 1.502-22.764 8.096-25.315 1.162-.449 2.462-.71 3.961-.71 12.422 0 13.75 17.501 14.018 33.866v.24c-3.528-.62-6.88-.83-10.066-.896-.922-.019-1.834-.029-2.727-.029-6.802 0-12.94.919-18.446 2.675-8.431 2.69-15.343 7.394-20.6 14.147-8.798 11.301-10.644 25.178-10.644 34.83 0 19.442 9.208 30.9 20.722 35.525a33.709 33.709 0 0012.55 2.404c5.524 0 10.978-1.23 15.986-3.478 2.513-1.128 4.922-2.494 7.153-4.126l-.341 4.438-.14 1.825 31.475 1.444.206-2.288c3.305-36.865 5.645-64.663 5.645-86.711 0-5.01-.119-9.778-.39-14.302-.602-10.027-2.012-18.773-4.609-26.129-5.779-16.363-17.583-25.678-40.527-25.678zm33.26 94.25a627.534 627.534 0 01-5.595 45.446c-.171 1.073-1.507 1.658-2.46 1.397-1.122-.309-1.567-1.395-1.396-2.46.29-1.814.573-3.629.848-5.445.459-3.033.8-6.082 1.212-9.122-.32.362-.616.744-.946 1.096-7.702 8.233-18.117 14.109-29.197 16.262-5.78 1.123-12.136 1.233-17.407-1.759-4.721-2.68-7.674-7.554-9.096-12.678-2.872-10.35-.417-21.976 4.948-31.1 5.635-9.584 14.763-16.763 25.532-19.65 10.166-2.727 21.228-1.714 30.692 2.881.568-9.225.775-18.49-.245-27.666-1.28-11.501-4.86-23.885-12.986-32.492-3.702-3.92-8.485-6.747-13.993-6.773-5.215-.024-10.352 2.197-14.325 5.5-9.416 7.831-11.897 20.735-12.601 32.347-.155 2.562-4.156 2.571-4 0 .099-1.623.225-3.245.397-4.862 1.34-12.585 5.555-25.724 16.803-32.823 4.947-3.123 10.868-4.746 16.704-3.924 6.084.858 11.324 4.6 15.195 9.229 8.309 9.935 11.813 22.959 12.992 35.623 1.266 13.606.09 27.402-1.076 40.972z"/><path class="st6" d="M862.854 542.698c-10.038-5.448-22.282-6.146-32.967-2.187-9.263 3.433-16.685 10.651-21.024 19.453-4.113 8.345-5.79 19.148-2.114 27.955 1.865 4.467 5.308 7.843 10.075 8.999 5.053 1.224 10.496.188 15.385-1.273 9.97-2.98 18.842-9.059 25.332-17.177.422-.527 1.134-.635 1.787-.499 1.202-9.504 2.264-19.025 3.02-28.575.176-2.227.345-4.46.506-6.696zm-15.178 11.664c-.453 6.127-1.129 15.268-2.207 21.087-5 5.196-12.655 8.781-18.848 8.781-.646 0-1.308-.04-1.97-.13-4.525-.604-9.107-3.578-9.107-13.152 0-9.076 3.876-19.894 22.34-19.898h.009c3.003 0 6.339.396 9.943 1.182-.051.664-.104 1.378-.16 2.13zM958.199 583.11l-2.595-.103c-17.2-.688-22.444-5.109-22.444-18.92 0-3.06.137-6.514.296-10.514.206-5.155.439-11 .438-17.62l.448-23.965 22.137-.973 2.641-28.474h-24.204l.736-42.945-32.748.862-.024 2.073-.466 40.01H883.135l.135 2.4 1.454 25.936.154 2.748 7.18-.203 10.055-.283-.217 19.339c0 5.844-.068 11.266-.134 16.51-.057 4.556-.111 8.86-.111 12.894 0 25.7 5.067 42.988 27.076 49.597 6.366 1.91 14.075 2.975 23.58 3.034l2.144.013 2.193-18.378 1.4-11.738.155-1.3zm-14.6 18.967c-5.044.952-10.064-.554-14.11-3.634-4.228-3.22-7.023-7.644-8.736-12.635-1.611-4.698-2.199-9.696-2.621-14.621-.47-5.485-.82-10.983-1.126-16.48a681.79 681.79 0 01-1.046-33.47c-.046-6.97.054-13.941.222-20.91l-22.972-.117c-2.577-.014-2.574-4.013 0-4l11.992.06c3.7.02 7.4.039 11.101.057.422-14.08 1.23-28.15 2.519-42.178.1-1.08.836-2 2-2 1.01 0 2.099.923 2 2a684.778 684.778 0 00-2.375 36.38c-.074 1.939-.096 3.88-.154 5.819l26.883.136c2.577.013 2.574 4.013 0 4l-11.992-.061-14.997-.077c-.441 18.387-.185 36.791.863 55.153.302 5.29.638 10.582 1.096 15.86.403 4.638 1.014 9.3 2.576 13.708 1.395 3.936 3.685 7.548 7.03 10.107 3.035 2.322 6.943 3.771 10.783 3.046 1.065-.2 2.154.284 2.46 1.397.269.98-.335 2.26-1.397 2.46zM974.99 556.34l24.998-1.506 3.557-128.81-32.631-1.155.088 2.846 3.89 125.476.098 3.149zm15.129-119.732l-.527 23.952-.934 42.513-.934 42.514c-.057 2.574-4.056 2.574-4 0l.527-23.951.934-42.514.934-42.514c.057-2.574 4.056-2.574 4 0zM989.074 569.773c-3.65 0-7.123.932-10.218 2.538-7.352 3.816-12.52 11.525-12.52 20.2 0 8.567 5.15 16.182 12.483 19.964 3.103 1.6 6.59 2.528 10.255 2.528 12.402 0 22.492-10.09 22.492-22.492 0-12.325-10.3-22.738-22.492-22.738zm1.61 22.509c.01.275-.047.532-.173.77-.08.248-.218.463-.413.644l-1.038 1.038c-.25.247-.544.419-.882.514l-.532.071a1.99 1.99 0 01-1.01-.273l-.404-.312a1.501 1.501 0 01-.414-.644 1.506 1.506 0 01-.172-.77c-.01-.276.047-.533.172-.77a1.5 1.5 0 01.414-.645l1.038-1.037a2 2 0 01.882-.515l.532-.071c.36.001.697.092 1.01.273l.404.313c.195.18.333.395.413.643.126.239.183.495.172.77z"/><path class="st2" d="M141.377 225.606a1524.558 1524.558 0 00-17.198-37.766c-.903-1.915-3.636-.813-3.726 1.01l-2.771 55.891-2.751 55.493-1.564 31.54c-.127 2.572 3.873 2.565 4 0l2.77-55.893 2.752-55.493 1.159-23.377c9.349 20.08 18.288 40.35 26.744 60.821 4.738 11.471 9.335 23 13.79 34.584 3.717 9.665 6.974 19.639 11.814 28.822 4.786 9.081 11.55 17.35 21.466 20.929 1.344.484 2.4-.75 2.532-1.929a822.919 822.919 0 003.217-145.45c-.072-1.079-.869-2-2-2-1.028 0-2.072.916-2 2a823.074 823.074 0 01-.298 113.521 826.201 826.201 0 01-2.625 29.027c-7.028-3.337-12.107-9.631-15.874-16.342-4.869-8.674-7.998-18.213-11.542-27.469a1529.415 1529.415 0 00-27.895-67.92zM248.675 227.952c-2.187 5.752-3.582 11.818-4.871 17.823a198.906 198.906 0 00-3.195 19.421c-1.46 12.923-1.422 26.022.727 38.867 1.75 10.46 4.77 21.305 11.705 29.59 3.124 3.732 7.154 6.699 11.799 8.225 5.11 1.68 10.778 1.352 15.803-.477 10.993-4 17.948-13.901 21.054-24.843.756-2.665 1.291-5.385 1.66-8.128.144-1.07-.256-2.147-1.396-2.46-.932-.256-2.315.319-2.46 1.396-1.37 10.18-5.299 21.038-14.09 27.109-3.924 2.71-8.571 4.463-13.375 4.503-4.461.037-8.782-1.527-12.27-4.3-7.172-5.7-10.787-14.921-12.905-23.561-2.922-11.92-3.716-24.259-3.047-36.491.664-12.143 2.76-24.182 5.761-35.956 2.577-10.11 6.465-21.047 16.175-26.35 4.113-2.246 8.863-2.995 13.38-1.592 3.996 1.242 7.27 4.035 9.874 7.234 6.48 7.96 9.14 18.783 10.684 28.702.923 5.939 1.258 11.979 1.067 17.984-.069 2.162.24 5.35-1.811 6.732-.874.588-1.917.87-2.917 1.157-1.578.455-3.168.87-4.763 1.26-11.864 2.892-24.12 4.034-36.316 3.433-3.029-.149-6.05-.41-9.061-.77-1.074-.128-2 1.011-2 2 0 1.188.922 1.871 2 2 12.987 1.553 26.16 1.11 39.027-1.23 3.17-.577 6.317-1.273 9.434-2.087 2.742-.716 6.022-1.327 8.06-3.468 2.115-2.224 2.205-5.379 2.32-8.269.13-3.283.095-6.573-.1-9.853a102.871 102.871 0 00-3.03-19.419c-1.327-5.174-3.072-10.255-5.668-14.94-4.709-8.497-12.95-16.169-23.36-15.11-5.552.565-10.62 3.249-14.65 7.048-4.302 4.055-7.164 9.346-9.245 14.82zM261.127 496.607c-1.328-5.174-3.073-10.255-5.67-14.94-4.708-8.497-12.95-16.17-23.359-15.11-5.552.564-10.62 3.248-14.65 7.048-4.302 4.055-7.164 9.346-9.245 14.82-2.187 5.752-3.581 11.817-4.87 17.823a198.978 198.978 0 00-3.196 19.421c-1.46 12.923-1.422 26.022.727 38.867 1.75 10.46 4.77 21.305 11.705 29.59 3.124 3.732 7.154 6.698 11.799 8.224 5.11 1.68 10.778 1.353 15.803-.476 10.993-4 17.949-13.901 21.054-24.843.757-2.665 1.291-5.385 1.66-8.129.144-1.069-.256-2.146-1.396-2.46-.931-.256-2.315.32-2.46 1.397-1.37 10.179-5.299 21.038-14.09 27.109-3.924 2.71-8.571 4.463-13.375 4.503-4.461.037-8.782-1.528-12.27-4.3-7.172-5.7-10.787-14.922-12.905-23.562-2.922-11.919-3.716-24.258-3.047-36.49.664-12.143 2.76-24.182 5.761-35.957 2.577-10.108 6.465-21.046 16.175-26.35 4.113-2.245 8.863-2.995 13.38-1.591 3.996 1.242 7.27 4.035 9.874 7.234 6.48 7.96 9.141 18.783 10.684 28.702.923 5.938 1.258 11.979 1.067 17.984-.069 2.162.24 5.35-1.811 6.732-.874.588-1.917.87-2.917 1.157-1.578.454-3.167.87-4.763 1.26-11.864 2.892-24.12 4.034-36.316 3.433-3.029-.149-6.05-.41-9.061-.77-1.074-.128-2 1.011-2 2 0 1.188.922 1.871 2 2 12.987 1.553 26.16 1.11 39.027-1.23a127.92 127.92 0 009.435-2.087c2.741-.716 6.021-1.327 8.059-3.468 2.115-2.224 2.205-5.379 2.32-8.269.13-3.283.095-6.573-.1-9.853a102.89 102.89 0 00-3.03-19.419zM348.535 227.952c-2.186 5.752-3.58 11.818-4.87 17.823a198.907 198.907 0 00-3.196 19.421c-1.46 12.923-1.421 26.022.728 38.867 1.75 10.46 4.77 21.305 11.705 29.59 3.123 3.732 7.154 6.699 11.798 8.225 5.112 1.68 10.78 1.352 15.804-.477 10.993-4 17.948-13.901 21.054-24.843.756-2.665 1.291-5.385 1.66-8.128.144-1.07-.256-2.147-1.397-2.46-.93-.256-2.315.319-2.46 1.396-1.37 10.18-5.298 21.038-14.089 27.109-3.925 2.71-8.571 4.463-13.375 4.503-4.461.037-8.782-1.527-12.27-4.3-7.173-5.7-10.787-14.921-12.905-23.561-2.922-11.92-3.716-24.259-3.047-36.491.664-12.143 2.76-24.182 5.76-35.956 2.578-10.11 6.465-21.047 16.176-26.35 4.112-2.246 8.863-2.995 13.38-1.592 3.996 1.242 7.27 4.035 9.874 7.234 6.48 7.96 9.14 18.783 10.683 28.702.924 5.939 1.259 11.979 1.068 17.984-.07 2.162.24 5.35-1.811 6.732-.874.588-1.917.87-2.917 1.157-1.578.455-3.168.87-4.763 1.26-11.864 2.892-24.12 4.034-36.316 3.433-3.03-.149-6.05-.41-9.062-.77-1.074-.128-2 1.011-2 2 0 1.188.923 1.871 2 2 12.988 1.553 26.161 1.11 39.028-1.23 3.17-.577 6.317-1.273 9.434-2.087 2.742-.716 6.022-1.327 8.06-3.468 2.115-2.224 2.205-5.379 2.32-8.269.13-3.283.095-6.573-.1-9.853a102.888 102.888 0 00-3.03-19.419c-1.328-5.174-3.072-10.255-5.668-14.94-4.709-8.497-12.951-16.169-23.36-15.11-5.552.565-10.62 3.249-14.65 7.048-4.302 4.055-7.165 9.346-9.246 14.82zM721.084 227.952c-2.187 5.752-3.581 11.818-4.87 17.823a198.97 198.97 0 00-3.196 19.421c-1.46 12.923-1.422 26.022.728 38.867 1.75 10.46 4.77 21.305 11.705 29.59 3.123 3.732 7.153 6.699 11.798 8.225 5.111 1.68 10.779 1.352 15.803-.477 10.994-4 17.949-13.901 21.055-24.843.756-2.665 1.29-5.385 1.66-8.128.144-1.07-.257-2.147-1.397-2.46-.931-.256-2.315.319-2.46 1.396-1.37 10.18-5.298 21.038-14.09 27.109-3.924 2.71-8.57 4.463-13.374 4.503-4.462.037-8.782-1.527-12.27-4.3-7.173-5.7-10.787-14.921-12.906-23.561-2.922-11.92-3.716-24.259-3.047-36.491.664-12.143 2.76-24.182 5.761-35.956 2.577-10.11 6.465-21.047 16.175-26.35 4.113-2.246 8.864-2.995 13.38-1.592 3.996 1.242 7.27 4.035 9.875 7.234 6.48 7.96 9.14 18.783 10.683 28.702.924 5.939 1.258 11.979 1.067 17.984-.069 2.162.241 5.35-1.81 6.732-.875.588-1.918.87-2.917 1.157-1.578.455-3.168.87-4.764 1.26-11.864 2.892-24.12 4.034-36.316 3.433-3.028-.149-6.05-.41-9.06-.77-1.075-.128-2 1.011-2 2 0 1.188.922 1.871 2 2 12.986 1.553 26.16 1.11 39.027-1.23a128.04 128.04 0 009.434-2.087c2.742-.716 6.021-1.327 8.059-3.468 2.115-2.224 2.205-5.379 2.32-8.269.13-3.283.095-6.573-.1-9.853a102.888 102.888 0 00-3.029-19.419c-1.328-5.174-3.072-10.255-5.669-14.94-4.708-8.497-12.95-16.169-23.36-15.11-5.551.565-10.62 3.249-14.65 7.048-4.301 4.055-7.164 9.346-9.245 14.82zM485.647 216.68c-6.563-7.309-15.586-15.31-26.085-14.963-4.506.15-8.729 2.001-11.99 5.09-3.068 2.904-5.136 6.674-6.694 10.556-1.609 4.008-2.579 8.223-3.321 12.467a223.65 223.65 0 00-2.352 17.622c-1.101 11.716-1.311 23.507-.888 35.264.211 5.889.582 11.77 1.08 17.642.482 5.68.983 11.386 1.932 17.01 1.698 10.07 5.556 19.987 14.117 26.129 3.716 2.665 8.238 4.353 12.84 4.357 4.565.004 9.013-1.65 12.671-4.333 7.88-5.778 12.376-14.767 16.091-23.55a129.063 129.063 0 005.046-14.25c-.015.647-.018 1.294-.033 1.94a2627.334 2627.334 0 01-1.162 37.899c-.098 2.574 3.902 2.57 4 0a2616.178 2616.178 0 00.865-171.988c-.072-2.568-4.072-2.579-4 0 .573 20.646.878 41.3.964 61.953a91.93 91.93 0 00-13.08-18.845zm12.607 62.723c-.13 10.627-2.337 21.098-5.817 31.114a130.474 130.474 0 01-5.992 14.386c-1.872 3.835-4.094 7.567-6.9 10.796-2.611 3.004-5.789 5.754-9.582 7.124-3.87 1.397-7.917 1.307-11.757-.15-8.6-3.265-13.501-11.871-15.737-20.327-1.3-4.92-1.912-9.978-2.424-15.03a399.023 399.023 0 01-1.349-16.645c-.665-11.236-.804-22.51-.191-33.752.302-5.546.788-11.081 1.483-16.592.616-4.883 1.322-9.803 2.467-14.595 1.676-7.01 4.64-15.107 11.474-18.584 8.409-4.279 17.805 1.601 23.896 7.259 7.351 6.829 13.443 15.116 17.98 24.056a72.568 72.568 0 012.867 6.361c.02.053.058.093.082.143a2617.36 2617.36 0 01-.195 33.43c-.172.279-.3.598-.305 1.006zM604.798 167.923a1278.68 1278.68 0 01.89 176.33c-.068 1.079.97 2 2 2 1.14 0 1.931-.918 2-2 1.467-22.94 2.32-45.919 2.552-68.904.124-12.437.051-24.874-.187-37.31.066-.121.153-.215.198-.362 3.345-10.793 11.114-20.67 21.352-25.68 8.595-4.204 20.68-5.15 27.59 2.635 4.014 4.522 5.297 10.879 6.364 16.643 1.305 7.047 2.082 14.178 2.523 21.328.89 14.408.429 28.852.05 43.27-.38 14.499-.692 29.04.514 43.51.15 1.788.323 3.574.52 5.358.117 1.073.834 2 1.999 2 .99 0 2.119-.92 2-2-1.643-14.945-1.5-30.001-1.131-45.009.368-15.003.96-30.026.168-45.026-.4-7.57-1.161-15.13-2.448-22.604-1.089-6.321-2.378-13.094-6.22-18.4-3.341-4.611-8.307-7.606-13.927-8.51-5.555-.895-11.306-.13-16.553 1.857-10.055 3.809-18.226 11.86-23.227 21.331-.194-7.26-.427-14.518-.745-21.773a1282.782 1282.782 0 00-2.282-38.684c-.08-1.077-.862-2-2-2-1.02 0-2.08.917-2 2zM766.031 563.445c.369-15.003.96-30.027.17-45.026-.4-7.571-1.163-15.13-2.45-22.604-1.088-6.322-2.377-13.095-6.22-18.4-3.34-4.611-8.306-7.606-13.926-8.511-5.555-.895-11.306-.13-16.553 1.857-10.055 3.81-18.227 11.86-23.227 21.332-.194-7.26-.428-14.518-.745-21.774a1283.221 1283.221 0 00-2.283-38.683c-.08-1.078-.862-2-2-2-1.02 0-2.08.917-2 2a1278.68 1278.68 0 01.89 176.33c-.068 1.078.97 1.999 2.001 1.999 1.14 0 1.93-.918 2-2 1.467-22.94 2.32-45.918 2.551-68.903.125-12.437.052-24.875-.186-37.31.066-.122.153-.216.198-.363 3.345-10.792 11.113-20.67 21.352-25.679 8.595-4.204 20.679-5.15 27.59 2.635 4.014 4.522 5.297 10.878 6.364 16.643 1.305 7.047 2.082 14.177 2.523 21.328.89 14.408.429 28.852.05 43.27-.38 14.499-.692 29.039.514 43.51.149 1.788.323 3.574.519 5.357.118 1.074.834 2 2 2 .99 0 2.118-.92 2-2-1.643-14.945-1.5-30-1.132-45.008zM812.325 231.804l-.533 70.309-.3 39.548c-.02 2.574 3.98 2.577 4 0l.536-70.708.533-70.308.3-39.548c.02-2.574-3.98-2.577-4 0l-.536 70.707zM854.524 284.776a12779.676 12779.676 0 00.136 115.003c.015 2.573 4.014 2.579 4 0-.14-24.588-.209-49.176-.207-73.765 2.613 4.977 6.238 9.395 10.78 12.784 6.743 5.029 15.286 7.04 23.57 5.659 8.584-1.431 15.514-6.878 19.7-14.401 4.366-7.85 6.185-16.99 7.99-25.696 3.813-18.402 6.508-37.643 3.52-56.367-1.42-8.89-4.299-17.646-9.002-25.356-2.293-3.759-5.097-7.25-8.73-9.789-3.36-2.349-7.383-3.57-11.462-3.752-8.273-.372-16.56 3.427-22.458 9.083-6.18 5.928-10.219 13.62-13.593 21.399.066-9.559.127-19.117.214-28.674.024-2.575-3.976-2.577-4 0-.223 24.623-.376 49.248-.458 73.872zm5.082-36.904c5.813-14.304 13.257-31.303 30.214-34.446 3.46-.64 7.074-.448 10.396.735 3.614 1.287 6.583 3.932 8.91 6.921 5.025 6.454 8.113 14.52 9.947 22.422 3.922 16.898 2.132 34.671-.857 51.566-.86 4.86-1.846 9.698-2.955 14.507-.94 4.077-1.946 8.151-3.362 12.093-2.58 7.182-6.852 13.866-14.013 17.12-6.683 3.039-14.922 2.8-21.52-.348-6.813-3.251-12.024-9.068-15.202-15.85-.78-1.667-1.401-3.399-1.915-5.164a1.845 1.845 0 00-.767-1.042c.018-21.318.065-42.637.19-63.954.006-1.136.018-2.272.025-3.408a2.51 2.51 0 00.909-1.152zM1024.667 199.466c-.48-5.961-2.704-11.551-6.686-16.04-7.434-8.38-19.396-11.73-30.251-12.051-6.304-.186-12.615.984-18.01 4.368-4.656 2.922-8.554 7.196-10.879 12.19a29.713 29.713 0 00-1.544 4.038c-.738 2.471 3.12 3.528 3.857 1.063 1.449-4.852 4.429-9.11 8.367-12.276 4.397-3.535 9.817-5.187 15.406-5.38 10.167-.35 21.756 2.352 29.154 9.741a22.715 22.715 0 016.545 13.87c.555 5.704-.626 11.41-2.72 16.705-4.513 11.408-13.622 20.262-21.047 29.767-7.504 9.608-14.37 21.232-13.603 33.886.093 1.54.306 3.075.613 4.585.215 1.06 1.47 1.669 2.46 1.397 1.102-.303 1.613-1.398 1.397-2.46-2.545-12.533 4.343-24.748 11.745-34.302 7.83-10.107 17.202-19.323 22.106-31.349 2.269-5.564 3.576-11.727 3.09-17.752zM990.098 334.546l-.405-.313a1.99 1.99 0 00-1.01-.273l-.53.072a1.998 1.998 0 00-.883.514l-.52.519a1.497 1.497 0 00-.413.643 1.506 1.506 0 00-.172.77c-.01.276.047.533.172.771.08.248.219.463.414.644l.404.313c.313.18.649.271 1.01.273l.532-.072c.338-.095.632-.266.882-.514l.519-.519c.195-.181.333-.396.413-.644.126-.238.183-.495.172-.77a1.505 1.505 0 00-.172-.77 1.495 1.495 0 00-.413-.644zM170.973 598.98l-38.842-2.2c-3.147-.177-6.296-.33-9.44-.535-1.017-.066-2.208-.125-3.02-.812-.769-.652-1.027-1.76-1.185-2.709-.444-2.685-.284-5.543-.37-8.257a4240.258 4240.258 0 01-2.15-131.3c-.003-2.574-4.003-2.578-4 0a4250.433 4250.433 0 002.1 129.704c.096 3.076.049 6.198.344 9.262.25 2.59.98 5.244 3.257 6.781 2.496 1.686 6.042 1.39 8.915 1.552l44.39 2.514c2.572.146 2.564-3.854 0-4zM342.174 496.484l-26.883-.136c.058-1.94.08-3.88.154-5.819a685 685 0 012.374-36.38c.1-1.077-.99-2-2-2-1.163 0-1.9.92-2 2-1.289 14.029-2.096 28.098-2.518 42.178l-11.101-.056-11.993-.061c-2.574-.013-2.577 3.986 0 4l22.972.116c-.168 6.97-.267 13.94-.221 20.912a681.777 681.777 0 001.045 33.47c.307 5.496.656 10.994 1.127 16.479.422 4.925 1.01 9.923 2.62 14.62 1.713 4.992 4.508 9.417 8.737 12.636 4.046 3.08 9.066 4.586 14.109 3.634 1.062-.2 1.666-1.48 1.396-2.46-.305-1.113-1.394-1.598-2.46-1.397-3.839.725-7.748-.724-10.782-3.046-3.345-2.56-5.635-6.17-7.03-10.107-1.562-4.408-2.173-9.07-2.576-13.707-.459-5.28-.795-10.571-1.097-15.861-1.047-18.362-1.304-36.766-.862-55.153l14.996.077 11.993.06c2.574.014 2.577-3.986 0-3.999zM942.535 598.22c-3.84.725-7.748-.724-10.783-3.046-3.345-2.56-5.635-6.17-7.03-10.107-1.562-4.408-2.173-9.07-2.576-13.707-.458-5.28-.794-10.571-1.096-15.861-1.048-18.362-1.304-36.766-.863-55.153l14.997.077 11.992.06c2.574.014 2.577-3.986 0-3.999l-26.883-.136c.058-1.94.08-3.88.154-5.819a684.779 684.779 0 012.375-36.38c.099-1.077-.99-2-2-2-1.164 0-1.9.92-2 2-1.29 14.029-2.097 28.098-2.519 42.178l-11.1-.056-11.993-.061c-2.574-.013-2.577 3.986 0 4l22.972.116c-.168 6.97-.268 13.94-.222 20.912a681.79 681.79 0 001.046 33.47c.307 5.496.655 10.994 1.126 16.479.422 4.925 1.01 9.923 2.621 14.62 1.713 4.992 4.508 9.417 8.737 12.636 4.045 3.08 9.065 4.586 14.108 3.634 1.062-.2 1.666-1.48 1.397-2.46-.306-1.113-1.395-1.598-2.46-1.397zM391.202 449.473a41.55 41.55 0 00-4.567-13.102c-1.245-2.253-4.7-.238-3.453 2.018 7.762 14.04 5.006 31.04-1.063 45.14-1.836 4.265-3.959 8.4-6.21 12.46-1.248 2.253 2.205 4.272 3.454 2.018 8.188-14.775 14.772-31.356 11.84-48.534zM454.236 604.998c8.382-.554 16.687-4.387 21.983-11.012 5.599-7.003 7.658-16.283 6.065-25.059a28.883 28.883 0 00-5.108-11.897c-2.859-3.89-6.455-7.044-10.293-9.937-3.758-2.833-7.72-5.382-11.496-8.192-3.667-2.728-7.177-5.682-10.408-8.918-6.23-6.239-11.567-13.831-13.549-22.544-1.688-7.422-.983-15.695 2.769-22.402 4.126-7.379 11.882-11.755 20.348-11.5 8.629.258 16.283 5.756 19.652 13.656.736 1.726 1.281 3.61 1.528 5.473.142 1.07.818 2 2 2 .97 0 2.143-.922 2-2-1.163-8.767-6.665-16.833-14.749-20.64-8.514-4.01-19.176-3.148-26.775 2.503-6.657 4.95-10.305 12.61-11.331 20.718-1.084 8.562 1 17.114 5.213 24.58 4.591 8.137 11.377 14.847 18.693 20.551 7.293 5.686 15.816 10.194 21.867 17.32 5.492 6.466 7.406 15.32 5.43 23.54-1.926 8.009-7.435 14.553-15.072 17.696-7.414 3.052-16.136 2.924-23.15-1.122-7.055-4.07-11.975-11.507-13.187-19.538-.287-1.908-.31-3.858-.159-5.778.085-1.078-.98-2-2-2-1.153 0-1.914.919-2 2-.68 8.6 2.727 17.267 8.633 23.48a29.23 29.23 0 0023.096 9.022zM645.803 593.824c6.541-5.488 10.778-13.675 12.027-22.075.322-2.171.488-4.348.444-6.544-.052-2.57-4.052-2.579-4 0 .157 7.772-2.334 15.722-7.309 21.756-5.077 6.159-12.402 9.928-20.417 10.159-8.097.233-15.556-3.168-20.54-9.581-5.534-7.119-7.976-16.39-9.524-25.112-1.76-9.923-2.102-20.052-2.311-30.108-.215-10.36-.097-20.75.96-31.066.943-9.21 2.53-18.553 5.896-27.217 2.923-7.521 7.597-14.823 14.556-19.173 6.287-3.93 14.289-5.687 21.44-3.211 7.468 2.585 11.827 9.81 14.18 16.95a62.158 62.158 0 011.599 5.878c.562 2.51 4.42 1.448 3.857-1.063-1.891-8.444-5.365-17.103-12.507-22.439-6.825-5.1-16.035-5.514-23.887-2.761-18.402 6.451-25.203 26.465-27.97 44.038-1.702 10.805-2.235 21.746-2.212 32.673.022 10.8.24 21.705 1.62 32.429 1.26 9.795 3.383 19.965 8.43 28.581 2.336 3.988 5.374 7.556 9.16 10.232 3.467 2.45 7.589 3.992 11.78 4.603 8.845 1.288 17.872-1.198 24.728-6.95zM854.091 476.917c-3.871-4.63-9.11-8.37-15.195-9.229-5.836-.822-11.757.801-16.704 3.924-11.248 7.099-15.463 20.238-16.803 32.823a107.165 107.165 0 00-.397 4.862c-.156 2.571 3.845 2.562 4 0 .704-11.612 3.185-24.516 12.6-32.346 3.974-3.304 9.111-5.525 14.326-5.5 5.508.025 10.291 2.851 13.993 6.772 8.127 8.607 11.707 20.991 12.986 32.492 1.02 9.177.813 18.441.245 27.666-9.464-4.595-20.526-5.608-30.692-2.881-10.769 2.887-19.897 10.066-25.532 19.651-5.365 9.123-7.82 20.748-4.948 31.1 1.422 5.123 4.375 9.996 9.096 12.677 5.27 2.992 11.626 2.882 17.407 1.759 11.08-2.153 21.495-8.029 29.197-16.262.33-.352.626-.734.946-1.096-.412 3.04-.753 6.089-1.212 9.122-.275 1.816-.558 3.63-.848 5.444-.17 1.066.274 2.152 1.396 2.46.953.262 2.289-.323 2.46-1.396a627.534 627.534 0 005.595-45.447c1.167-13.57 2.342-27.366 1.076-40.972-1.18-12.664-4.683-25.688-12.992-35.623zm3.45 101.551c-6.49 8.118-15.361 14.197-25.332 17.177-4.889 1.461-10.332 2.497-15.385 1.273-4.767-1.156-8.21-4.533-10.075-8.999-3.677-8.807-2-19.61 2.114-27.955 4.339-8.802 11.76-16.02 21.024-19.453 10.685-3.96 22.929-3.261 32.967 2.186-.16 2.236-.33 4.47-.506 6.697-.756 9.55-1.818 19.071-3.02 28.575-.653-.136-1.365-.028-1.787.5zM986.12 436.608l-.935 42.514-.934 42.514-.527 23.95c-.056 2.575 3.943 2.575 4 0l.934-42.513.934-42.513.527-23.952c.056-2.574-3.943-2.574-4 0zM989.693 590.555a1.991 1.991 0 00-1.01-.273l-.53.071a2 2 0 00-.883.515l-1.038 1.037a1.5 1.5 0 00-.414.644 1.505 1.505 0 00-.172.77c-.01.276.047.533.172.77.081.249.219.463.414.645l.405.312a1.99 1.99 0 001.009.273l.532-.071c.338-.095.632-.267.882-.514l1.038-1.038c.195-.181.333-.396.413-.644.126-.238.183-.495.172-.77a1.506 1.506 0 00-.172-.77 1.498 1.498 0 00-.413-.644l-.405-.313z"/><g><path class="st2" d="M1048.815 523.646c-11.298 5.714-20.165 15.618-25.003 27.274a49.971 49.971 0 00-2.977 10.028c-.197 1.061.293 2.157 1.397 2.46.973.268 2.261-.329 2.46-1.396 2.159-11.619 8.569-22.143 17.756-29.553 2.586-2.085 5.424-3.862 8.386-5.36 2.297-1.161.275-4.613-2.019-3.453z"/></g><g><path class="st2" d="M1057.838 503.673c-5.103.133-9.919 1.967-13.894 5.144-.82.657-.736 2.153 0 2.829.871.8 1.952.7 2.828 0 .188-.149.217-.173.087-.072a20.075 20.075 0 012.44-1.587 16.513 16.513 0 012.553-1.17c2.134-.767 3.909-1.09 5.986-1.144 1.045-.027 2.05-.9 2-2-.048-1.06-.88-2.03-2-2z"/></g><g><path class="st2" d="M151.799 62.982c6.787 6.875 9.768 17.219 7.993 26.692-.51 2.72-1.372 5.355-2.636 7.817-1.173 2.286 2.277 4.312 3.454 2.019 5.091-9.919 4.75-22.09-.475-31.89a32.302 32.302 0 00-5.508-7.466c-1.811-1.835-4.64.994-2.828 2.828z"/></g><g><path class="st2" d="M168.83 92.153c-1.883 8.334-4.592 16.475-8.15 24.245-.449.982-.279 2.153.718 2.736.86.504 2.284.27 2.736-.717 3.704-8.09 6.592-16.52 8.553-25.2.567-2.507-3.289-3.578-3.857-1.064z"/></g><g><path class="st2" d="M69.256 346.642c.171-1.018.009-2.051-.965-2.621-.783-.459-1.738-.357-2.503.085-1.502.87-1.892 2.359-1.702 3.978.384 3.265 1.106 6.47 2.244 9.558 2.309 6.259 6.027 11.949 10.933 16.48 1.889 1.745 4.724-1.076 2.828-2.828A38.604 38.604 0 0171.42 359.5a37.494 37.494 0 01-2.43-6.748 39.17 39.17 0 01-.755-3.61c-.084-.527-.06-1.197-.219-1.696-.13-.41.106-.396-.212.138-.089.077-.054.04.105-.113-.291.286-.678.354-1.16.205l-1.194-.92-.128-.283v-1.063l-.028.168c-.18 1.064.28 2.154 1.397 2.46.959.264 2.28-.325 2.46-1.396z"/></g><g><path class="st2" d="M62.23 372.535c4.06 8.815 11.525 15.708 20.48 19.35 1.001.407 2.198-.442 2.46-1.397.315-1.144-.392-2.051-1.396-2.46-8.005-3.256-14.492-9.697-18.091-17.512-.452-.98-1.869-1.224-2.736-.717-1.007.589-1.171 1.751-.718 2.736z"/></g><g><path class="st2" d="M1033.45 151.716c11.948 6.444 20.9 17.84 24.622 30.87a48.326 48.326 0 011.831 11.222c.11 2.564 4.11 2.578 4 0-.626-14.57-7.422-28.677-18.286-38.39a53.03 53.03 0 00-10.148-7.155c-2.266-1.222-4.288 2.23-2.02 3.453z"/></g><g><path class="st2" d="M1062.37 162.032c4.812 10.958 7.234 22.911 7.19 34.87-.009 2.574 3.99 2.577 4 0 .046-12.705-2.632-25.264-7.737-36.889-.434-.989-1.88-1.218-2.736-.717-1.02.597-1.153 1.743-.717 2.736z"/></g><g><path class="st2" d="M45.542 597.197c.838 10.889 7.355 20.919 16.79 26.375a31.512 31.512 0 008.54 3.4c2.504.587 3.572-3.269 1.063-3.858-9.22-2.164-17.112-9.166-20.54-17.99-.986-2.54-1.644-5.209-1.853-7.927-.083-1.077-.86-2-2-2-1.018 0-2.083.918-2 2z"/></g><g><path class="st2" d="M53.545 634.25c7.119 4.887 15.462 7.736 24.062 8.38 1.078.082 2-.976 2-1.999 0-1.15-.92-1.919-2-2-7.907-.593-15.515-3.353-22.044-7.834-.89-.611-2.219-.167-2.736.718-.58.99-.175 2.123.718 2.736z"/></g><g><path class="st6" d="M291.888 684.24c-.412.108-1.056.223-1.935.332-.88.115-1.747.173-2.608.173s-1.618-.072-2.271-.202c-.655-.13-1.206-.361-1.655-.7-.45-.333-.786-.802-1.01-1.401-.225-.6-.337-1.38-.337-2.354v-8.751h-10.769v12.903c-.412.108-1.058.223-1.935.332-.88.115-1.75.173-2.608.173a11.73 11.73 0 01-2.273-.202c-.653-.13-1.206-.361-1.653-.7-.45-.333-.786-.802-1.011-1.401-.224-.6-.336-1.38-.336-2.354V650.47a67.43 67.43 0 011.962-.31c.9-.13 1.758-.195 2.581-.195.86 0 1.618.065 2.271.195.655.13 1.208.368 1.655.7.45.34.786.809 1.01 1.408.225.592.337 1.38.337 2.354v8.975h10.77V650.47c.41-.072 1.066-.18 1.963-.31s1.756-.195 2.58-.195c.86 0 1.617.065 2.272.195.653.13 1.206.368 1.653.7.45.34.787.809 1.011 1.408.224.592.336 1.38.336 2.354v29.618zM306.415 651.481c.636-.375 1.6-.73 2.89-1.068a15.58 15.58 0 013.897-.506c1.87 0 3.526.275 4.966.816 1.439.542 2.365 1.394 2.776 2.549.674 1.95 1.403 4.21 2.188 6.787.785 2.585 1.57 5.25 2.356 7.993.785 2.75 1.55 5.466 2.3 8.137.747 2.672 1.402 5.04 1.961 7.098-.447.52-1.12.938-2.018 1.256-.897.318-1.964.476-3.196.476-.9 0-1.656-.072-2.273-.223-.617-.145-1.121-.369-1.515-.672a3.282 3.282 0 01-.953-1.177 10.151 10.151 0 01-.646-1.682l-1.009-3.87h-10.152c-.301 1.119-.599 2.281-.898 3.48-.3 1.191-.598 2.354-.898 3.473-.523.188-1.075.347-1.655.476-.58.13-1.28.195-2.103.195-1.906 0-3.32-.324-4.234-.982-.917-.65-1.374-1.56-1.374-2.714 0-.527.074-1.047.224-1.574.15-.52.317-1.141.505-1.849.26-1.01.625-2.26 1.094-3.762.466-1.494.98-3.112 1.542-4.852a267.473 267.473 0 011.796-5.357c.635-1.827 1.232-3.56 1.794-5.184a223.731 223.731 0 011.543-4.347c.466-1.27.83-2.245 1.092-2.917zm6.731 7.235a992.734 992.734 0 01-1.765 5.242 88.829 88.829 0 00-1.767 5.863h6.955a285.414 285.414 0 00-1.6-5.914 508.87 508.87 0 00-1.485-5.191h-.338zM344.166 684.24c-.411.108-1.057.223-1.935.332-.879.115-1.749.173-2.608.173a11.73 11.73 0 01-2.272-.202c-.654-.13-1.206-.361-1.654-.7-.45-.333-.785-.802-1.01-1.401-.225-.6-.336-1.38-.336-2.354v-26.42c0-.786.214-1.393.644-1.826.43-.426 1.018-.772 1.767-1.032 1.27-.455 2.72-.78 4.347-.982 1.626-.21 3.263-.31 4.908-.31 5.16 0 9.106 1.104 11.836 3.306 2.729 2.21 4.095 5.199 4.095 8.975 0 1.834-.29 3.487-.87 4.968-.581 1.472-1.44 2.743-2.581 3.812s-2.58 1.892-4.318 2.47c-1.74.577-3.749.866-6.03.866h-3.983v10.325zm2.917-18.008c1.57 0 2.777-.368 3.618-1.097s1.262-1.841 1.262-3.336c0-1.422-.439-2.513-1.318-3.278-.88-.765-2.159-1.155-3.843-1.155-.598 0-1.094.014-1.486.029a8.917 8.917 0 00-1.205.144v8.693h2.972zM376.755 684.24c-.411.108-1.058.223-1.935.332-.879.115-1.749.173-2.608.173a11.73 11.73 0 01-2.273-.202c-.653-.13-1.206-.361-1.653-.7-.45-.333-.785-.802-1.011-1.401-.224-.6-.336-1.38-.336-2.354v-26.42c0-.786.215-1.393.645-1.826.43-.426 1.018-.772 1.767-1.032 1.27-.455 2.72-.78 4.346-.982 1.627-.21 3.264-.31 4.908-.31 5.161 0 9.107 1.104 11.836 3.306 2.73 2.21 4.096 5.199 4.096 8.975 0 1.834-.29 3.487-.87 4.968-.581 1.472-1.44 2.743-2.581 3.812s-2.58 1.892-4.318 2.47c-1.74.577-3.75.866-6.03.866h-3.983v10.325zm2.917-18.008c1.57 0 2.776-.368 3.618-1.097.84-.73 1.261-1.841 1.261-3.336 0-1.422-.438-2.513-1.317-3.278-.88-.765-2.16-1.155-3.843-1.155-.598 0-1.094.014-1.486.029a8.917 8.917 0 00-1.206.144v8.693h2.973zM417.366 684.24c-.414.108-1.049.223-1.908.332-.861.115-1.702.173-2.524.173-1.72 0-3.01-.289-3.87-.874-.86-.577-1.29-1.805-1.29-3.675v-7.567a257.55 257.55 0 01-3.03-4.599 180.903 180.903 0 01-3.196-5.162 113.787 113.787 0 01-2.917-5.192c-.9-1.697-1.628-3.263-2.188-4.679.486-.678 1.15-1.292 1.991-1.855s1.88-.838 3.114-.838c1.457 0 2.644.296 3.561.896.915.599 1.785 1.718 2.609 3.364l4.655 9.365h.336c.523-1.155.982-2.21 1.375-3.163.392-.96.774-1.913 1.15-2.866.374-.953.765-1.942 1.177-2.968.411-1.032.879-2.216 1.402-3.566.674-.332 1.421-.6 2.244-.787.823-.18 1.608-.275 2.356-.275 1.308 0 2.42.347 3.337 1.033.917.693 1.376 1.733 1.376 3.119 0 .448-.094.99-.282 1.625-.188.635-.617 1.595-1.29 2.888-.672 1.292-1.654 3.04-2.945 5.242-1.29 2.209-3.037 5.09-5.243 8.642v11.387zM441.371 658.326c-.261-.412-.505-.975-.729-1.682a7.392 7.392 0 01-.337-2.246c0-1.458.326-2.505.982-3.14.653-.636 1.505-.954 2.552-.954h24.457c.26.412.503.968.73 1.683a7.4 7.4 0 01.335 2.238c0 1.458-.329 2.505-.982 3.14-.655.643-1.506.961-2.553.961h-6.225v25.914c-.412.108-1.058.223-1.935.332-.88.115-1.75.173-2.609.173a11.73 11.73 0 01-2.272-.202c-.654-.13-1.206-.361-1.654-.7-.45-.333-.785-.802-1.01-1.401-.224-.6-.336-1.38-.336-2.354v-21.762h-8.414zM504.53 684.24c-.41.108-1.055.223-1.934.332-.88.115-1.748.173-2.609.173s-1.617-.072-2.27-.202c-.656-.13-1.206-.361-1.656-.7-.45-.333-.785-.802-1.009-1.401-.225-.6-.337-1.38-.337-2.354v-8.751h-10.77v12.903c-.41.108-1.057.223-1.934.332-.88.115-1.75.173-2.609.173a11.73 11.73 0 01-2.272-.202c-.654-.13-1.206-.361-1.654-.7-.45-.333-.785-.802-1.01-1.401-.224-.6-.336-1.38-.336-2.354V650.47a67.44 67.44 0 011.962-.31c.899-.13 1.758-.195 2.581-.195.86 0 1.618.065 2.271.195.655.13 1.208.368 1.655.7.45.34.785.809 1.01 1.408.225.592.337 1.38.337 2.354v8.975h10.769V650.47c.411-.072 1.067-.18 1.964-.31s1.756-.195 2.58-.195c.86 0 1.617.065 2.272.195.653.13 1.206.368 1.653.7.45.34.787.809 1.011 1.408.224.592.336 1.38.336 2.354v29.618zM519.058 651.481c.635-.375 1.6-.73 2.89-1.068a15.58 15.58 0 013.897-.506c1.87 0 3.525.275 4.966.816 1.438.542 2.364 1.394 2.776 2.549.673 1.95 1.403 4.21 2.188 6.787a515.26 515.26 0 012.355 7.993c.786 2.75 1.551 5.466 2.3 8.137.747 2.672 1.403 5.04 1.962 7.098-.447.52-1.12.938-2.018 1.256-.897.318-1.964.476-3.197.476-.899 0-1.655-.072-2.272-.223-.618-.145-1.121-.369-1.515-.672a3.282 3.282 0 01-.953-1.177 10.149 10.149 0 01-.646-1.682l-1.01-3.87h-10.15c-.302 1.119-.6 2.281-.9 3.48-.3 1.191-.597 2.354-.897 3.473-.523.188-1.076.347-1.655.476-.58.13-1.28.195-2.103.195-1.906 0-3.32-.324-4.235-.982-.917-.65-1.373-1.56-1.373-2.714 0-.527.074-1.047.223-1.574.15-.52.318-1.141.506-1.849.26-1.01.624-2.26 1.094-3.762.465-1.494.98-3.112 1.541-4.852a267.277 267.277 0 011.796-5.357c.636-1.827 1.233-3.56 1.795-5.184a223.332 223.332 0 011.543-4.347c.466-1.27.83-2.245 1.092-2.917zm6.731 7.235a995.689 995.689 0 01-1.765 5.242 88.865 88.865 0 00-1.767 5.863h6.955a285.791 285.791 0 00-1.6-5.914 508.044 508.044 0 00-1.485-5.191h-.338zM577.786 683.287c-.525.52-1.282.924-2.273 1.205-.99.275-2.178.42-3.561.42a12.32 12.32 0 01-3.926-.622c-1.235-.404-2.244-1.4-3.029-2.967l-5.554-11.336a95.578 95.578 0 01-1.515-3.278 97.732 97.732 0 01-1.458-3.56l-.336.05c.15 2.022.233 4.08.253 6.174.018 2.094.027 4.152.027 6.173v8.694c-.412.108-1.038.223-1.88.332-.84.115-1.672.173-2.494.173-.823 0-1.552-.058-2.187-.173-.638-.109-1.161-.332-1.57-.672-.414-.34-.73-.794-.956-1.372-.224-.584-.336-1.335-.336-2.274V652.21c.524-.75 1.327-1.306 2.412-1.682a10.558 10.558 0 013.478-.563c1.383 0 2.7.217 3.954.643 1.252.433 2.252 1.415 3.001 2.945l5.609 11.329a94.938 94.938 0 011.514 3.285c.45 1.026.935 2.217 1.459 3.56l.281-.05a109.92 109.92 0 01-.281-6.066 322.23 322.23 0 01-.056-6.058v-9.083c.411-.115 1.038-.223 1.879-.339a19.548 19.548 0 012.496-.166c1.645 0 2.897.289 3.758.866.86.585 1.291 1.791 1.291 3.625v28.83zM594.95 671.842v12.398c-.411.108-1.065.223-1.963.332-.898.115-1.777.173-2.636.173a11.73 11.73 0 01-2.273-.202c-.653-.13-1.205-.361-1.653-.7-.45-.333-.785-.802-1.01-1.401-.225-.6-.337-1.38-.337-2.354V650.47a67.44 67.44 0 011.963-.31c.899-.13 1.758-.195 2.58-.195.86 0 1.618.065 2.272.195.655.13 1.207.368 1.655.7.45.34.785.809 1.009 1.408.226.592.337 1.38.337 2.354v8.917l11.667-13.408c2.543 0 4.366.477 5.469 1.43 1.103.96 1.655 2.086 1.655 3.393 0 .975-.243 1.892-.729 2.751-.487.86-1.273 1.834-2.356 2.917l-7.012 7.011c.935 1.047 1.917 2.13 2.946 3.256a523.34 523.34 0 003.028 3.278 587.389 587.389 0 002.862 3.062c.915.967 1.709 1.812 2.382 2.52 0 .823-.15 1.552-.447 2.187a5 5 0 01-1.206 1.625 5.017 5.017 0 01-1.711 1.01c-.638.225-1.311.34-2.02.34-1.533 0-2.786-.383-3.758-1.148a20.106 20.106 0 01-2.806-2.722l-7.908-9.199zM629.221 670.947a63.517 63.517 0 01-4.487-1.711c-1.346-.585-2.505-1.285-3.478-2.108a8.71 8.71 0 01-2.271-2.946c-.543-1.141-.814-2.527-.814-4.174 0-3.184 1.224-5.725 3.673-7.631 2.45-1.907 5.881-2.86 10.294-2.86 1.607 0 3.103.109 4.488.34 1.383.223 2.57.57 3.561 1.032.99.47 1.767 1.069 2.327 1.798.561.73.841 1.581.841 2.549 0 .975-.224 1.805-.671 2.498a7.09 7.09 0 01-1.628 1.769c-.824-.527-1.926-.982-3.31-1.38-1.384-.39-2.898-.584-4.542-.584-1.683 0-2.917.231-3.703.7s-1.178 1.055-1.178 1.77c0 .555.243 1.017.729 1.371.485.354 1.215.686 2.188.982l2.973.953c3.514 1.12 6.216 2.549 8.106 4.29 1.886 1.74 2.832 4.107 2.832 7.097 0 3.177-1.252 5.747-3.758 7.71s-6.19 2.947-11.05 2.947c-1.72 0-3.32-.137-4.797-.419-1.476-.282-2.767-.693-3.87-1.235s-1.962-1.213-2.58-2.021c-.617-.802-.925-1.726-.925-2.773 0-1.083.318-2.014.953-2.78.635-.765 1.327-1.357 2.076-1.769 1.047.823 2.328 1.538 3.843 2.138 1.514.599 3.168.895 4.964.895 1.83 0 3.12-.282 3.87-.845.747-.556 1.12-1.213 1.12-1.964 0-.744-.299-1.314-.896-1.704-.598-.397-1.44-.78-2.524-1.155l-2.356-.78zM681.498 678.911c0 1.155-.206 2.015-.617 2.578s-1.065 1.104-1.964 1.624c-.524.303-1.177.592-1.962.874-.785.281-1.646.52-2.581.73a29.58 29.58 0 01-2.945.476 29.178 29.178 0 01-3.057.166c-2.692 0-5.217-.361-7.573-1.09-2.355-.73-4.402-1.834-6.14-3.315-1.74-1.473-3.114-3.314-4.123-5.523-1.011-2.21-1.515-4.766-1.515-7.683 0-3.068.55-5.74 1.654-8.021s2.561-4.18 4.375-5.697c1.814-1.51 3.888-2.643 6.226-3.394a23.637 23.637 0 017.208-1.119c3.552 0 6.366.57 8.442 1.712s3.114 2.628 3.114 4.454c0 .975-.244 1.82-.73 2.528-.487.707-1.047 1.27-1.682 1.682-.935-.563-2.105-1.112-3.507-1.654-1.4-.541-2.982-.815-4.738-.815-3.143 0-5.638.902-7.49 2.693-1.85 1.797-2.776 4.281-2.776 7.458 0 1.726.253 3.213.758 4.462.504 1.257 1.186 2.282 2.047 3.083.86.81 1.85 1.401 2.973 1.798a10.85 10.85 0 003.589.585c.823 0 1.552-.072 2.187-.224.636-.144 1.123-.317 1.459-.505v-5.27h-6.002c-.224-.412-.439-.954-.644-1.626a7.253 7.253 0 01-.31-2.13c0-1.35.31-2.317.927-2.916.617-.6 1.411-.903 2.383-.903h9.48c1.123 0 1.99.31 2.608.931.617.614.926 1.48.926 2.607v11.444zM697.764 684.24c-.412.108-1.058.223-1.935.332-.88.115-1.75.173-2.609.173a11.73 11.73 0 01-2.272-.202c-.654-.13-1.206-.361-1.654-.7-.45-.333-.785-.802-1.01-1.401-.224-.6-.336-1.38-.336-2.354V650.47c.411-.072 1.065-.18 1.962-.31.899-.13 1.758-.195 2.581-.195.86 0 1.617.065 2.27.195.656.13 1.208.368 1.656.7.45.34.785.809 1.01 1.408.225.592.337 1.38.337 2.354v29.618zM725.417 683.337c-.523.455-1.337.845-2.44 1.184-1.103.332-2.309.498-3.618.498-1.57 0-2.916-.23-4.04-.7-1.12-.462-1.887-1.112-2.299-1.935a120.468 120.468 0 01-3.393-7.906 284.725 284.725 0 01-2.018-5.358 167.751 167.751 0 01-1.992-5.747 236.338 236.338 0 01-1.796-5.726 117.544 117.544 0 01-1.458-5.27c.523-.52 1.282-.997 2.273-1.43a7.931 7.931 0 013.167-.643c1.385 0 2.517.29 3.396.867.877.577 1.521 1.653 1.935 3.227 1.009 3.66 2.027 7.17 3.056 10.513 1.029 3.35 2.103 6.838 3.225 10.462h.336a414.545 414.545 0 003.114-11.495 672.887 672.887 0 003.058-12.397 12.6 12.6 0 012.159-.845c.765-.223 1.635-.332 2.608-.332 1.383 0 2.561.304 3.534.925.971.613 1.459 1.631 1.459 3.054 0 .823-.197 2.021-.59 3.588a92.027 92.027 0 01-1.515 5.307 161.93 161.93 0 01-2.076 6.137 155.506 155.506 0 01-2.3 6.03 105.806 105.806 0 01-2.158 4.996c-.674 1.437-1.215 2.44-1.627 2.996zM750.434 684.24c-.412.108-1.058.223-1.935.332-.88.115-1.75.173-2.609.173a11.73 11.73 0 01-2.272-.202c-.654-.13-1.206-.361-1.654-.7-.449-.333-.785-.802-1.01-1.401-.224-.6-.336-1.38-.336-2.354V650.47c.411-.072 1.065-.18 1.962-.31.899-.13 1.758-.195 2.581-.195.86 0 1.618.065 2.271.195.655.13 1.208.368 1.655.7.45.34.785.809 1.01 1.408.225.592.337 1.38.337 2.354v29.618zM788.519 683.287c-.525.52-1.282.924-2.273 1.205-.99.275-2.178.42-3.561.42a12.32 12.32 0 01-3.926-.622c-1.235-.404-2.244-1.4-3.029-2.967l-5.554-11.336a95.552 95.552 0 01-1.515-3.278 97.624 97.624 0 01-1.458-3.56l-.336.05c.15 2.022.233 4.08.253 6.174.018 2.094.027 4.152.027 6.173v8.694c-.412.108-1.038.223-1.88.332-.84.115-1.672.173-2.494.173-.823 0-1.552-.058-2.187-.173-.638-.109-1.161-.332-1.57-.672-.414-.34-.73-.794-.956-1.372-.224-.584-.335-1.335-.335-2.274V652.21c.523-.75 1.326-1.306 2.411-1.682a10.559 10.559 0 013.478-.563c1.383 0 2.7.217 3.954.643 1.252.433 2.252 1.415 3.001 2.945l5.609 11.329a95.05 95.05 0 011.514 3.285c.45 1.026.935 2.217 1.459 3.56l.281-.05c-.15-2.022-.243-4.044-.281-6.066a322.23 322.23 0 01-.056-6.058v-9.083c.411-.115 1.038-.223 1.879-.339a19.547 19.547 0 012.496-.166c1.645 0 2.897.289 3.758.866.86.585 1.291 1.791 1.291 3.625v28.83zM826.604 678.911c0 1.155-.206 2.015-.617 2.578s-1.065 1.104-1.964 1.624c-.524.303-1.177.592-1.962.874-.785.281-1.646.52-2.581.73-.935.201-1.917.36-2.944.476a29.18 29.18 0 01-3.058.166c-2.692 0-5.217-.361-7.573-1.09-2.355-.73-4.402-1.834-6.14-3.315-1.74-1.473-3.114-3.314-4.123-5.523-1.011-2.21-1.515-4.766-1.515-7.683 0-3.068.55-5.74 1.654-8.021 1.103-2.282 2.561-4.18 4.375-5.697 1.814-1.51 3.888-2.643 6.226-3.394a23.637 23.637 0 017.208-1.119c3.552 0 6.366.57 8.442 1.712 2.076 1.14 3.114 2.628 3.114 4.454 0 .975-.244 1.82-.73 2.528-.487.707-1.046 1.27-1.682 1.682-.935-.563-2.105-1.112-3.507-1.654-1.4-.541-2.982-.815-4.738-.815-3.143 0-5.638.902-7.49 2.693-1.85 1.797-2.776 4.281-2.776 7.458 0 1.726.253 3.213.758 4.462.504 1.257 1.186 2.282 2.047 3.083.86.81 1.85 1.401 2.973 1.798 1.121.39 2.318.585 3.589.585.823 0 1.552-.072 2.187-.224.636-.144 1.123-.317 1.459-.505v-5.27h-6.002c-.224-.412-.439-.954-.644-1.626s-.309-1.386-.309-2.13c0-1.35.309-2.317.926-2.916.617-.6 1.412-.903 2.383-.903h9.48c1.123 0 1.99.31 2.608.931.618.614.926 1.48.926 2.607v11.444z"/></g><g><path class="st5" d="M868.701 661.248h138.879v8.792H868.701z"/></g><g><path class="st5" d="M85.782 661.248h138.879v8.792H85.782z"/></g></svg>