<svg version="1.1" id="Layer_1" xmlns="http://www.w3.org/2000/svg" x="0" y="0" viewBox="0 0 1765.57 496.4" xml:space="preserve"><style>.st0{fill:#ff7f00}.st1{fill:#ffd5b6}.st2{fill:#ffb522}.st3{fill:#ff7503}.st5{fill:#d15400}.st6{fill:none}.st7{fill:#1e1e1e}</style><path class="st0" d="M634.995 189.422c.03.448-.238.835-.595.835h-44.845c-.268 0-.477-.209-.566-.507-1.371-4.857-2.802-9.684-4.41-14.421-3.397-10.072-4.976-25.566-9.148-33.403-2.205-4.112-7.121-1.072-7.36 3.963-.566 12.604.447 30.721.656 43.563 0 .418-.269.775-.597.775l-41.686-.12c-.327 0-.595-.357-.595-.803 0-32.717 1.102-65.405 1.162-98.122.06-28.099-.775-87.663-.775-87.663 0-.417.268-.774.596-.774l44.874.118c.239 0 .447.18.537.478 4.171 13.825 7.538 39.033 12.514 52.174.834 2.235 3.099 3.218 4.857 2.593 1.997-.716 2.92-2.891 3.159-5.424 1.132-12.455.685-36.054.625-49.046 0-.417.27-.775.596-.775h41.15c.358 0 .626.418.596.865-.03.238-.03.476-.03.715 0 33.581-.358 67.133-.387 100.714 0 23.807-.625 80.213-.328 84.265z"/><path d="M634.4 193.002h-44.845c-1.469 0-2.752-.989-3.195-2.461-1.657-5.871-3.004-10.276-4.38-14.33-1.455-4.314-2.583-9.564-3.675-14.643-1.49-6.927-3.029-14.091-5.297-18.352-.208-.387-.366-.471-.368-.472-.373-.041-1.726 1.126-1.827 3.275-.384 8.562-.021 20.015.3 30.12.15 4.753.293 9.243.359 13.269 0 1.985-1.499 3.564-3.342 3.564l-41.693-.12c-1.834 0-3.333-1.592-3.333-3.548 0-16.838.296-33.937.583-50.473.27-15.62.55-31.772.58-47.654.058-27.756-.767-87.024-.776-87.62 0-1.979 1.5-3.557 3.341-3.557l44.881.119c1.449 0 2.721.977 3.158 2.431 1.848 6.124 3.496 14.213 5.24 22.778 2.2 10.81 4.476 21.99 7.214 29.216.323.865 1.054 1.09 1.369.978.681-.244 1.187-1.402 1.346-3.095.93-10.23.778-28.284.667-41.466-.023-2.665-.043-5.136-.053-7.31 0-1.953 1.498-3.532 3.34-3.532h41.15c.902 0 1.746.37 2.376 1.044a3.67 3.67 0 01.958 2.748l-.015.159c-.015.124-.008.249-.008.373 0 17.51-.099 35.302-.195 52.507-.087 15.799-.178 32.137-.192 48.21 0 9.917-.109 25.5-.214 40.57-.14 20.272-.287 41.236-.121 43.491l.001.023c.066 1.01-.28 2-.949 2.714a3.243 3.243 0 01-2.385 1.044zm-43.193-5.49h40.99c-.076-5.48.017-20.126.168-41.821.105-15.06.213-30.633.213-40.534.014-16.088.105-32.432.193-48.238.093-16.817.19-34.191.194-51.31h-36.81c.01 1.643.026 3.426.04 5.305.114 13.298.267 31.51-.69 42.019-.505 5.385-3.327 7.172-4.965 7.759-3.304 1.174-7.048-.718-8.354-4.217-2.889-7.628-5.21-19.028-7.455-30.052-1.578-7.753-3.077-15.112-4.688-20.82l-41.035-.107c.143 10.57.8 60.782.748 85.692-.03 15.924-.31 32.097-.58 47.738-.276 15.878-.56 32.278-.581 48.443l37.35.107c-.074-3.433-.193-7.206-.319-11.163-.324-10.203-.69-21.768-.296-30.547.193-4.095 2.75-7.61 6.079-8.362 2.595-.587 5.06.65 6.441 3.225 2.632 4.945 4.254 12.49 5.821 19.786 1.06 4.928 2.155 10.023 3.509 14.036 1.286 3.787 2.543 7.865 4.027 13.061zm-64.763-.149h.013-.013zm45.25-181.755h.012-.011z"/><path class="st0" d="M760.262 157.332c.06 5.571 1.192 30.481 1.192 30.481a2.435 2.435 0 01-2.443 2.444H656.062a3.863 3.863 0 01-3.874-4.023c1.192-29.975 1.252-60.01 1.52-90.016.269-29.589 4.053-59.356-.238-88.825v-.06c-.357-2.354 1.43-4.47 3.814-4.47h100.684c1.132 0 2.085.775 2.383 1.878v.03c.09.358-.298 4.26-.596 7.36-.298 3.098-.714 20.917-.863 26.877-.149 5.959 1.31 18.325 1.31 18.325a2.435 2.435 0 01-2.443 2.443s-27.085-1.31-42.162.894c-5.93.864-13.736 2.89-14.333 10.042-.387 4.47 3.367 7.598 7.181 8.909 4.44 1.52 45.292.685 49.285.655a2.467 2.467 0 012.473 2.473v24.792c0 4.35-.03 6.912-.03 10.637a2.454 2.454 0 01-2.443 2.443c-13.945.03-24.91-1.609-31.704-1.221-6.198.358-17.76-.864-21.395 6.138-3.873 7.51 3.159 12.842 9.654 14.363 7.688 1.787 27.92-1.073 43.385-1.49 1.4-.03 2.533 1.072 2.533 2.443 0 5.244 0 11.77.06 16.478z"/><path d="M759.011 193.002H656.062a6.57 6.57 0 01-4.783-2.034 6.552 6.552 0 01-1.833-4.845c1.004-25.253 1.206-50.991 1.402-75.882.037-4.683.074-9.366.116-14.047.082-9.021.494-18.187.893-27.05.909-20.196 1.849-41.08-1.104-61.356l-.028-.274a6.64 6.64 0 011.556-5.103 6.591 6.591 0 015.003-2.292h100.684c2.342 0 4.412 1.606 5.033 3.906l.095.352v.19c.057.65-.045 1.975-.534 7.048l-.074.779c-.261 2.711-.642 18.134-.804 24.72l-.049 1.963c-.141 5.693 1.28 17.812 1.293 17.934l.02.322a5.194 5.194 0 01-5.19 5.187l-.132-.003c-.268-.012-26.996-1.27-41.632.869-7.85 1.143-11.66 3.544-11.995 7.554-.264 3.049 2.71 5.182 5.338 6.085 1.367.438 9.089 1.096 45.401.548 1.45-.022 2.483-.038 2.971-.041 2.898 0 5.238 2.34 5.238 5.217v24.792c0 2.264-.008 4.045-.016 5.757-.007 1.577-.013 3.094-.013 4.88a5.194 5.194 0 01-5.188 5.188c-7.286.01-13.651-.41-19.256-.787-4.926-.33-9.18-.615-12.292-.439-1.084.063-2.295.079-3.577.097-5.596.075-13.26.18-15.538 4.565-.93 1.806-1.046 3.421-.35 4.932 1.107 2.398 4.4 4.606 8.194 5.494 4.506 1.049 14.821.27 24.797-.484 6.023-.455 12.252-.925 17.888-1.078a5.216 5.216 0 013.796 1.489 5.138 5.138 0 011.555 3.699c0 5.236 0 11.752.06 16.443v.006c.058 5.46 1.178 30.138 1.189 30.386l.003.124a5.194 5.194 0 01-5.188 5.189zM656.214 7.194c2.993 20.73 2.044 41.81 1.127 62.197-.397 8.815-.807 17.93-.888 26.852-.042 4.68-.078 9.36-.115 14.041-.196 24.934-.4 50.716-1.407 76.06-.017.419.185.694.308.822.124.129.397.346.823.346h102.631c-.155-3.418-1.12-24.93-1.175-30.151-.059-4.634-.06-11.005-.06-16.2-5.42.157-11.476.614-17.337 1.056-11.337.857-21.13 1.594-26.457.357-4.333-1.014-9.739-3.79-11.93-8.54-1.414-3.06-1.255-6.434.458-9.754 3.794-7.308 13.356-7.437 20.34-7.532 1.218-.017 2.37-.032 3.336-.088 3.452-.199 7.865.098 12.973.442 5.42.363 11.548.775 18.507.775h.08c0-1.666.008-3.109.014-4.604.007-1.705.016-3.477.016-5.732V83.023c-.535.007-1.444.02-2.637.039-30.079.452-44.213.2-47.265-.844-4.5-1.548-9.562-5.55-9.027-11.743.853-10.216 12.759-11.95 16.672-12.521 14.227-2.081 38.351-1.114 42.202-.942-.301-2.66-1.389-12.71-1.256-18.072l.05-1.96c.284-11.534.58-22.558.826-25.112l.076-.78c.17-1.764.41-4.255.492-5.48H657.284c-.423 0-.69.208-.84.382a1.14 1.14 0 00-.26.932l.03.272z"/><path class="st0" d="M885.408 157.332c.06 5.571 1.191 30.481 1.191 30.481a2.435 2.435 0 01-2.443 2.444H781.207a3.863 3.863 0 01-3.873-4.023c1.191-29.975 1.251-60.01 1.52-90.016.268-29.589 4.052-59.356-.24-88.825v-.06c-.356-2.354 1.431-4.47 3.815-4.47h100.684c1.132 0 2.085.775 2.383 1.878v.03c.09.358-.298 4.26-.595 7.36-.298 3.098-.715 20.917-.864 26.877-.149 5.959 1.31 18.325 1.31 18.325a2.435 2.435 0 01-2.443 2.443s-27.085-1.31-42.162.894c-5.93.864-13.736 2.89-14.333 10.042-.387 4.47 3.367 7.598 7.181 8.909 4.44 1.52 45.292.685 49.285.655a2.467 2.467 0 012.473 2.473v24.792c0 4.35-.03 6.912-.03 10.637a2.454 2.454 0 01-2.443 2.443c-13.945.03-24.91-1.609-31.704-1.221-6.198.358-17.76-.864-21.395 6.138-3.873 7.51 3.159 12.842 9.655 14.363 7.687 1.787 27.92-1.073 43.384-1.49 1.4-.03 2.533 1.072 2.533 2.443 0 5.244 0 11.77.06 16.478z"/><path d="M884.156 193.002H781.207a6.57 6.57 0 01-4.782-2.034 6.552 6.552 0 01-1.834-4.845c1.004-25.253 1.206-50.991 1.402-75.882.037-4.683.074-9.366.116-14.047.082-9.021.494-18.187.893-27.05.91-20.196 1.849-41.08-1.104-61.356l-.028-.274a6.64 6.64 0 011.556-5.103A6.591 6.591 0 01782.43.119h100.684c2.342 0 4.412 1.606 5.033 3.906l.095.352v.19c.058.65-.044 1.975-.534 7.048l-.074.779c-.261 2.711-.642 18.134-.804 24.72l-.048 1.963c-.142 5.693 1.279 17.812 1.292 17.934l.02.322a5.194 5.194 0 01-5.189 5.187l-.133-.003c-.268-.012-26.996-1.27-41.632.869-7.849 1.143-11.66 3.544-11.994 7.554-.265 3.049 2.71 5.182 5.338 6.085 1.366.438 9.087 1.096 45.4.548 1.45-.022 2.483-.038 2.971-.041 2.898 0 5.239 2.34 5.239 5.217v24.792c0 2.264-.009 4.045-.017 5.757-.006 1.577-.013 3.094-.013 4.88a5.194 5.194 0 01-5.188 5.188c-7.31.01-13.651-.41-19.256-.787-4.926-.33-9.18-.615-12.292-.439-1.084.063-2.294.079-3.576.097-5.596.075-13.262.18-15.538 4.565-.932 1.806-1.047 3.421-.35 4.932 1.106 2.398 4.399 4.606 8.193 5.494 4.506 1.049 14.82.27 24.797-.484 6.024-.455 12.252-.925 17.888-1.078a5.211 5.211 0 013.796 1.489 5.138 5.138 0 011.556 3.699c0 5.236 0 11.752.06 16.443v.006c.057 5.46 1.177 30.138 1.188 30.386l.003.124a5.194 5.194 0 01-5.188 5.189zM781.36 7.194c2.992 20.73 2.044 41.81 1.126 62.197-.397 8.815-.807 17.93-.887 26.852-.043 4.68-.08 9.36-.116 14.041-.196 24.934-.4 50.716-1.407 76.06-.017.419.185.694.308.822.124.129.397.346.823.346h102.631c-.154-3.418-1.12-24.93-1.175-30.151-.058-4.634-.06-11.005-.06-16.2-5.419.157-11.476.614-17.337 1.056-11.337.857-21.13 1.594-26.457.357-4.333-1.014-9.739-3.79-11.93-8.54-1.413-3.06-1.255-6.434.458-9.754 3.794-7.308 13.356-7.437 20.34-7.532 1.219-.017 2.37-.032 3.336-.088 3.452-.199 7.865.098 12.973.442 5.42.363 11.548.775 18.507.775h.08c0-1.666.008-3.109.014-4.604.008-1.705.016-3.477.016-5.732V83.023c-.535.007-1.444.02-2.637.039-30.08.452-44.213.2-47.265-.844-4.5-1.548-9.562-5.55-9.027-11.743.853-10.216 12.76-11.95 16.672-12.521 14.227-2.081 38.351-1.114 42.202-.942-.301-2.66-1.389-12.71-1.255-18.072l.049-1.96c.284-11.534.58-22.558.826-25.112l.076-.78c.17-1.764.41-4.255.492-5.48H782.43c-.423 0-.69.208-.84.382a1.14 1.14 0 00-.26.932l.03.272z"/><path class="st0" d="M991.24 176.908c-13.557 10.161-29.468 12.306-33.908 12.574-5.274.298-21.097.477-26.37.626-.328 0-24.315.15-24.315.15-1.43 0-2.562-1.372-2.353-2.92.864-6.884.952-52.652.446-68.564-.536-17.46-1.251-34.922-1.668-52.383v-51.4c.119-3.248.268-6.466.417-9.714.06-1.34 1.103-2.414 2.384-2.414h38.05c.12 0-14.45.031 6.287.031 20.739 0 27.682.417 44.338 14.898 17.58 15.286 17.044 39.839 17.313 52.055.148 6.884-.03 58.611-.03 65.494 0 12.962-6.258 30.84-20.59 41.567zm-26.459-94.575c-1.698-13.886-6.227-16.568-9.714-16.568-3.516 0-5.095 1.877-5.095 11.413v36.71c0 7.24.06 13.468 5.155 13.468 5.75 0 7.509-3.13 9.416-13.17 1.221-6.407 1.132-24.553.238-31.853z"/><path d="M906.664 193.002a5.065 5.065 0 01-3.815-1.748 5.405 5.405 0 01-1.275-4.284c.841-6.708.912-52.73.423-68.109-.201-6.557-.428-13.112-.655-19.667-.37-10.728-.753-21.82-1.014-32.737l-.001-51.516.001-.05c.118-3.194.264-6.357.41-9.55l.01-.19c.125-2.82 2.376-5.032 5.125-5.032h40.792v.03h3.545c21.445 0 29.045.71 46.14 15.571 17.57 15.279 17.99 39.19 18.216 52.037.013.709.025 1.386.039 2.03.113 5.256.039 35.767-.006 53.996-.013 5.625-.023 9.897-.023 11.558 0 13.703-6.708 32.548-21.69 43.763-15.488 11.608-33.398 12.998-35.389 13.118-3.544.2-11.713.347-18.278.464-3.391.062-6.393.115-8.18.166-.423.001-16.122.099-24.375.15zm-.848-177.96v51.349c.26 10.823.643 21.9 1.013 32.613.226 6.562.453 13.124.654 19.686.504 15.796.425 61.202-.446 68.82 3.203-.02 23.612-.147 23.925-.147 1.721-.05 4.744-.104 8.159-.165 6.517-.117 14.628-.262 18.056-.456.717-.044 17.966-1.2 32.418-12.03v-.001c13.465-10.077 19.491-27.034 19.491-39.37 0-1.662.01-5.94.024-11.57.041-17.012.119-48.676.007-53.865-.015-.65-.027-1.335-.04-2.052-.225-12.835-.602-34.316-16.33-47.99C977.035 6.201 970.959 5.638 950.21 5.638c-4.32 0-7.108-.002-8.817-.003-.488-.001-.958-.002-1.403-.016-.432.001-.75.004-.843.006v-.018H906.22c-.144 3.153-.288 6.28-.405 9.435zm49.31 115.059c-7.899 0-7.899-8.99-7.899-16.214v-36.71c0-7.163.605-14.156 7.84-14.156 6.713 0 10.899 6.385 12.438 18.979.878 7.17 1.075 25.664-.266 32.7-1.712 9.017-3.584 15.4-12.112 15.4zm-.059-61.59c-1.103 0-1.2.193-1.413.616-.622 1.239-.937 3.947-.937 8.05v36.71c0 7.416.347 10.724 2.41 10.724 3.219 0 4.726-.442 6.72-10.938 1.131-5.936 1.09-23.818.21-31.006v-.001c-.647-5.287-2.415-14.156-6.99-14.156z"/><path class="st0" d="M1178.96 94.251c0 28.725-.715 92.252-.774 94.01-.03 1.102-.745 1.966-1.61 1.966h-41.655c-.864 0-1.55-.864-1.61-1.966-.06-1.103-.268-19.04-.685-27.295-.446-8.998-.268-28.813-8.82-28.813-8.551 0-7.24 21.036-7.449 28.188-.268 9.267.566 18.474.596 27.71v.031c0 1.192-.685 2.175-1.609 2.175h-43.325c-.983 0-1.728-1.073-1.609-2.324 2.682-31.496-.09-153.514-.775-182.894-.03-1.162.686-2.145 1.61-2.145h43.414c.923 0 1.669 1.013 1.609 2.204-.388 9.506-.298 32.926-.298 39.153 0 16.062 3.128 19.905 10.787 18.117 7.866-1.817 6.555-11.054 6.555-21.632 0-7.062-.775-30.304-1.103-35.578-.06-1.222.656-2.264 1.61-2.264h43.443c.775 0 1.46.715 1.58 1.698.029.09.029 60.816.119 89.66z"/><path d="M1115.344 193.002h-43.325c-1.177 0-2.276-.496-3.094-1.397-.933-1.026-1.387-2.46-1.247-3.933 2.37-27.855.525-126.343-.787-182.568-.036-1.395.469-2.737 1.386-3.677.802-.824 1.857-1.278 2.967-1.278h43.415c1.128 0 2.195.47 3.006 1.321.926.974 1.415 2.346 1.345 3.765-.336 8.22-.31 26.906-.298 35.886l.003 3.13c0 8.561.964 13.667 2.866 15.176.557.441 1.636.95 4.552.268 4.276-.988 4.636-5.09 4.477-14.924a245.724 245.724 0 01-.043-4.035c0-7.044-.78-30.279-1.097-35.408-.074-1.493.42-2.89 1.353-3.868.804-.845 1.868-1.31 2.995-1.31h43.444c2.17 0 4.02 1.768 4.304 4.113l-.038.004c.07 1.179.073 5.365.087 23.41.015 20.766.037 49.204.09 66.566v.008c0 27.94-.706 92.028-.776 94.103-.07 2.581-1.982 4.618-4.352 4.618h-41.656c-2.34 0-4.21-1.961-4.35-4.563-.019-.342-.041-1.581-.09-4.351-.103-5.955-.297-17.039-.596-22.953-.045-.9-.083-1.903-.125-2.983-.266-6.95-.887-23.224-5.954-23.224-4.662 0-4.672 16.49-4.675 21.908 0 1.402-.001 2.636-.03 3.614-.152 5.265.063 10.644.27 15.846.155 3.85.314 7.832.327 11.776 0 2.799-1.912 4.96-4.354 4.96zm60.098-4.818v0zm-102.243-.672h41.006c-.023-3.663-.173-7.404-.318-11.027-.212-5.295-.431-10.77-.274-16.224.028-.937.028-2.117.029-3.459.005-10.245.014-27.393 10.164-27.393 10.35 0 11.006 17.153 11.44 28.503.04 1.058.078 2.04.122 2.918.303 6.003.497 17.146.602 23.131.026 1.453.049 2.767.065 3.522h39.419c.106-7.15.762-65.432.762-93.232-.054-17.368-.075-45.805-.09-66.57-.008-10.526-.015-19.199-.023-22.042h-41.115c.338 6.215 1.068 28.245 1.068 35.097 0 1.341.022 2.662.042 3.947.146 8.985.296 18.276-8.723 20.36-3.924.916-6.935.485-9.206-1.316-3.512-2.786-4.944-8.428-4.944-19.476l-.003-3.123c-.012-8.79-.036-26.84.278-35.49h-41.105c1.303 56.025 3.109 153.008.804 181.874zm40.326-182.526s0 .001 0 0z"/><path class="st0" d="M1303.75 157.332c.06 5.571 1.192 30.481 1.192 30.481a2.435 2.435 0 01-2.443 2.444H1199.55a3.863 3.863 0 01-3.873-4.023c1.191-29.975 1.25-60.01 1.52-90.016.268-29.589 4.052-59.356-.24-88.825v-.06c-.357-2.354 1.431-4.47 3.815-4.47h100.684c1.132 0 2.085.775 2.383 1.878v.03c.09.358-.298 4.26-.596 7.36-.297 3.098-.714 20.917-.863 26.877-.149 5.959 1.31 18.325 1.31 18.325a2.435 2.435 0 01-2.443 2.443s-27.085-1.31-42.162.894c-5.93.864-13.736 2.89-14.333 10.042-.387 4.47 3.367 7.598 7.181 8.909 4.44 1.52 45.292.685 49.285.655a2.467 2.467 0 012.473 2.473v24.792c0 4.35-.03 6.912-.03 10.637a2.454 2.454 0 01-2.443 2.443c-13.945.03-24.91-1.609-31.704-1.221-6.198.358-17.76-.864-21.395 6.138-3.873 7.51 3.159 12.842 9.654 14.363 7.688 1.787 27.92-1.073 43.385-1.49 1.4-.03 2.533 1.072 2.533 2.443 0 5.244 0 11.77.06 16.478z"/><path d="M1302.499 193.002H1199.55a6.57 6.57 0 01-4.783-2.034 6.551 6.551 0 01-1.833-4.845c1.004-25.253 1.206-50.991 1.402-75.882.037-4.683.074-9.366.116-14.047.082-9.021.494-18.187.893-27.05.909-20.196 1.849-41.08-1.104-61.356l-.028-.274a6.639 6.639 0 011.555-5.102 6.588 6.588 0 015.004-2.293h100.684c2.342 0 4.412 1.606 5.033 3.906l.095.352v.19c.057.65-.044 1.975-.534 7.048l-.074.779c-.261 2.711-.642 18.135-.804 24.72l-.048 1.963c-.142 5.693 1.278 17.812 1.292 17.934l.02.322a5.194 5.194 0 01-5.19 5.188l-.132-.004c-.27-.012-26.996-1.27-41.632.869-7.849 1.143-11.66 3.544-11.994 7.554-.265 3.049 2.71 5.182 5.337 6.085 1.367.438 9.089 1.096 45.401.548 1.45-.022 2.483-.038 2.971-.041 2.898 0 5.238 2.34 5.238 5.217v24.792c0 2.264-.008 4.045-.016 5.757-.007 1.577-.013 3.094-.013 4.88a5.194 5.194 0 01-5.188 5.188c-7.31.01-13.651-.41-19.256-.787-4.926-.33-9.18-.615-12.292-.439-1.084.063-2.295.079-3.576.097-5.596.075-13.262.18-15.538 4.565-.932 1.806-1.047 3.421-.35 4.932 1.106 2.398 4.398 4.606 8.193 5.494 4.506 1.049 14.82.27 24.797-.484 6.023-.455 12.252-.925 17.888-1.078a5.19 5.19 0 013.796 1.489 5.138 5.138 0 011.555 3.699c0 5.236 0 11.752.06 16.443v.006c.058 5.46 1.178 30.138 1.189 30.386l.003.124a5.194 5.194 0 01-5.188 5.189zM1199.703 7.194c2.992 20.73 2.043 41.81 1.126 62.197-.397 8.815-.807 17.93-.888 26.852-.042 4.68-.078 9.36-.115 14.041-.196 24.934-.4 50.716-1.407 76.06-.017.419.185.694.308.822.124.129.397.346.823.346h102.631c-.155-3.418-1.12-24.93-1.175-30.151-.059-4.634-.06-11.005-.06-16.2-5.42.157-11.476.614-17.337 1.056-11.338.857-21.13 1.594-26.457.357-4.333-1.014-9.739-3.79-11.93-8.54-1.414-3.06-1.255-6.434.458-9.754 3.794-7.308 13.356-7.437 20.34-7.532 1.218-.017 2.37-.032 3.336-.088 3.452-.199 7.865.098 12.973.442 5.42.363 11.548.775 18.507.775h.08c0-1.666.008-3.109.014-4.604.007-1.705.016-3.477.016-5.732V83.023c-.535.007-1.444.02-2.637.039-30.08.452-44.213.2-47.265-.844-4.5-1.548-9.562-5.55-9.027-11.743.852-10.216 12.759-11.95 16.672-12.521 14.227-2.081 38.351-1.114 42.202-.942-.301-2.66-1.389-12.71-1.255-18.072l.049-1.96c.284-11.534.58-22.558.826-25.112l.076-.78c.17-1.764.41-4.255.492-5.48h-100.307c-.446 0-.718.24-.84.382-.128.148-.331.466-.26.932l.03.272z"/><path class="st0" d="M1431.038 188.111c0 1.193-.716 2.146-1.61 2.146h-106.107c-.893 0-1.609-.953-1.609-2.146v-4.677c0-.12 0-.239.03-.358.06-.358.09-.745.09-1.133V88.887c0-15.494-.09-30.988.328-46.483.178-6.913.148-13.676-.12-20.59-.208-5.661-.476-11.442.03-17.073.09-1.073.775-1.878 1.609-1.878h54.737c.864 0 1.61.954 1.61 2.116.148 12.575.893 25.179 1.4 37.753.327 8.195.327 16.389.476 24.583.12 7.836-.983 32.597-.774 37.186.238 5.125-.626 11.263 1.996 14.929 2.622 3.664 36.114 1.161 46.602 1.49.448.03 1.342.089 1.252 1.668-.089 1.222-.298 14.78-.536 18.922-.388 6.286-.298 12.514-.18 18.8.09 5.096.806 27.801.776 27.801z"/><path d="M1429.429 193.002H1323.32c-2.441 0-4.353-2.148-4.353-4.89v-4.678c0-.177 0-.489.075-.865a4.34 4.34 0 00.044-.626l-.004-100.035c-.011-12.965-.023-26.372.333-39.577.181-7.01.142-13.687-.118-20.41l-.043-1.145c-.2-5.336-.407-10.853.081-16.28.208-2.488 2.075-4.377 4.343-4.377h54.737c2.401 0 4.354 2.18 4.354 4.86.106 8.917.523 18.052.927 26.885.164 3.587.327 7.174.471 10.758.226 5.663.298 11.402.368 16.952.032 2.564.064 5.127.11 7.69.062 4.014-.186 12.187-.425 20.09-.222 7.299-.45 14.846-.351 17.022.06 1.299.053 2.65.047 3.958-.017 3.525-.036 7.166 1.287 9.272 3.185 1.577 21.08 1.061 30.765.78 5.746-.165 10.706-.309 13.843-.21l.098.005c2.461.164 3.956 1.955 3.808 4.562-.033.457-.093 3.156-.152 5.766-.105 4.723-.237 10.6-.384 13.158-.372 6.044-.3 11.996-.175 18.592.052 2.988.327 12.278.529 19.061l.181 6.178c.035 1.219.059 2.035.042 2.613h.023c0 2.743-1.912 4.891-4.353 4.891zm-104.972-5.49h103.824c-.033-1.313-.13-4.594-.232-8.03-.213-7.175-.478-16.106-.53-19.123-.128-6.713-.201-12.781.183-19.019.141-2.45.277-8.521.376-12.955.05-2.19.085-3.748.114-4.749-2.98-.027-7.237.098-12.064.238-24.406.706-32.92.391-35.237-2.847-2.51-3.508-2.485-8.192-2.463-12.721.006-1.294.012-2.517-.042-3.678-.108-2.386.103-9.362.348-17.44.238-7.842.483-15.95.424-19.831-.047-2.567-.08-5.14-.111-7.715-.07-5.513-.14-11.213-.363-16.8-.144-3.573-.308-7.15-.471-10.727-.397-8.684-.807-17.658-.925-26.507h-52.537c-.387 4.905-.196 10.014-.01 14.963l.042 1.143c.265 6.836.304 13.629.12 20.76-.353 13.133-.342 26.502-.33 39.43l.004 6.983v93.056c0 .53-.04 1.047-.12 1.538v4.031zm52.824-182.5v0z"/><path class="st0" d="M1556.211 84.27c0 10.697-1.788 34.862-10.817 46.244-8.998 11.382-14.123 15.703-19.397 17.968-6.556 2.83-13.528 5.184-20.114 5.214-8.76.03-10.518 2.83-11.292 11.263-.477 5.185-.566 14.959-.388 21.693.03 1.996-1.281 3.635-2.92 3.635h-41.507c-1.609 0-2.92-1.58-2.92-3.517 0 0 1.251-45.172 1.311-61.947.12-33.581-.566-67.133-.804-100.714a2173.1 2173.1 0 01-.09-19.725c0-1.163.417-1.49 1.52-1.49h55.869c7.27 0 21.007-1.52 34.594 9.087 13.618 10.608 16.925 29.976 16.925 41.508 0 11.531 0 23.152.03 30.78zm-53.307-33.88c-8.403 0-8.85 10.25-9.088 13.439-.417 5.244-.715 24.91-.566 29.528.119 4.32.327 14.54 8.969 14.54 8.64 0 8.64-7.925 8.879-11.47.417-6.228.536-27.712.238-32.211-.238-4.053-.029-13.826-8.432-13.826z"/><path d="M1491.283 193.032h-41.507c-3.124 0-5.665-2.81-5.665-6.262.014-.527 1.252-45.407 1.311-61.957.077-21.562-.183-43.486-.434-64.687-.14-11.796-.285-23.993-.37-35.998-.06-6.557-.09-13.202-.09-19.744 0-2.652 1.594-4.235 4.265-4.235h55.869c.732 0 1.532-.016 2.392-.033 7.836-.156 20.936-.412 33.891 9.702 16.684 12.996 17.981 36.712 17.981 43.671 0 11.38 0 23.147.03 30.77v.01c0 3.436-.32 33.968-11.411 47.95-8.721 11.033-14.27 16.124-20.466 18.785-5.363 2.315-13.4 5.402-21.183 5.437-6.825.023-7.866 1.089-8.572 8.77-.476 5.173-.55 14.87-.377 21.368.028 1.852-.643 3.595-1.842 4.812-1.042 1.058-2.4 1.64-3.822 1.64zm-41.423-5.49h41.332c.098-.096.274-.386.266-.848-.175-6.625-.096-16.604.4-21.986.835-9.095 3.232-13.72 14.016-13.757 6.774-.03 14.108-2.862 19.034-4.989 4.464-1.917 9.086-5.453 18.334-17.15 8.07-10.176 10.224-32.783 10.224-44.54-.03-7.633-.03-19.402-.03-30.783 0-13.044-4.168-30.23-15.866-39.342-11.423-8.916-22.846-8.696-30.408-8.542-.899.018-1.734.034-2.5.034h-54.644c.004 6.12.034 12.318.09 18.445.085 11.997.23 24.187.369 35.977.252 21.222.511 43.167.435 64.772-.06 16.616-1.3 61.561-1.312 62.013 0 .355.168.61.26.696zm52.359-76.9c-11.242 0-11.594-12.873-11.71-17.103l-.003-.107c-.15-4.653.14-24.359.574-29.821l.023-.318c.743-10.383 4.714-15.648 11.801-15.648 10.413 0 10.931 11.243 11.126 15.476.015.337.03.65.046.934.298 4.503.197 26.046-.24 32.555l-.035.568c-.22 3.683-.805 13.465-11.582 13.465zm.685-57.508c-3.904 0-5.795 3.156-6.326 10.551l-.025.348c-.414 5.207-.704 24.778-.56 29.235l.003.121c.23 8.356 2.032 11.764 6.223 11.764 4.739 0 5.774-2.796 6.103-8.303l.037-.607c.419-6.239.52-27.593.239-31.845-.02-.326-.036-.663-.052-1.024-.298-6.485-1.317-10.24-5.642-10.24z"/><path class="st0" d="M1671.466 19.103c8.463 12.187 8.671 30.483 8.85 33.79v25.298c-.208 4.797-.745 9.535-1.907 14.094-1.43 5.512-6.048 17.46-19.547 26.161-10.34 6.645-23.718 9.684-35.07 10.727-12.366 1.132-35.102-.417-49.016-.119-.329 0-.567-.358-.567-.774v-.299c.328-13.08-.268-26.192-.596-39.272 0-.417.268-.745.596-.745 13.587-.566 44.338-.358 54.082-2.92 3.993-1.043 7.062-6.138 5.423-11.591-1.877-6.258-7.062-7.271-12.039-7.062-2.264.09-24.403 1.222-47.734 1.877-.298 0-.566-.298-.566-.715-.03-1.698-.983-38.915-1.4-45.738-.388-5.99-.716-11.979-.507-17.998.03-.417.268-.715.566-.715h66.417c10.191 0 25.476 5.125 33.015 16.001zm-45.798 170.499c.09.476-.238.893-.655.893h-50.327c-.357 0-.626-.297-.655-.685-.15-2.8-.298-20.887 0-27.175.178-3.576-.03-17.431-.06-20.709v-.089c.03-.387.328-.685.685-.655 14.034 1.013 39.004 1.28 49.344.744.417-.03.745.358.685.805-.804 7.717-.536 39.123.983 46.87z"/><path d="M1625.013 193.24h-50.327c-1.792 0-3.25-1.384-3.392-3.22-.16-2.97-.303-21.234-.005-27.515.145-2.9.023-13.172-.035-18.11l-.028-2.663.008-.105a3.51 3.51 0 011.209-2.393 3.327 3.327 0 012.441-.788c13.97 1.009 39.035 1.255 48.973.74.957-.072 1.942.314 2.64 1.058a3.469 3.469 0 01.915 2.798c-.788 7.648-.499 38.643.95 46.031l.004.02a3.524 3.524 0 01-.745 2.914 3.382 3.382 0 01-2.608 1.233zm-48.301-5.49h45.908c-1.135-9.642-1.394-33.342-.842-42.983-10.801.374-31.483.148-45.038-.695l.002.258c.064 5.375.183 15.38.03 18.442-.252 5.323-.182 19.423-.06 24.979zm47.484-43.086zm-49.737-.744l.044.003a.91.91 0 00-.044-.003zm37.175-11.582c-5.406 0-11.323-.151-17.136-.299-7.271-.184-14.14-.358-19.663-.241h-.002c-1.915 0-3.369-1.545-3.369-3.518v-.299c.254-10.137-.052-20.426-.347-30.376-.087-2.944-.174-5.886-.248-8.827 0-1.964 1.454-3.512 3.258-3.558 3.556-.147 8.348-.244 13.419-.347 13.99-.283 33.15-.67 40.046-2.484 1.154-.3 2.227-1.21 2.949-2.494.942-1.678 1.136-3.685.544-5.652-1.157-3.858-3.849-5.34-9.295-5.11-.376.015-1.278.058-2.63.121-7.007.331-25.62 1.209-45.142 1.758h-.002c-1.902 0-3.386-1.552-3.386-3.46-.024-1.385-.98-38.796-1.395-45.57-.377-5.816-.727-12.026-.51-18.26l.005-.101c.133-1.86 1.554-3.263 3.304-3.263h66.417c11.608 0 27.45 5.901 35.27 17.18 5.545 7.986 8.674 19.558 9.3 34.393.013.33.025.604.036.814l.004.148-.002 25.417c-.242 5.553-.893 10.345-1.99 14.652-1.355 5.221-6.08 18.354-20.72 27.791-11.732 7.54-26.219 10.227-36.306 11.154-3.495.32-7.764.43-12.41.43zm-34.68-4.07V128.266zm1.846-1.999c4.752 0 10.174.139 15.838.283 10.65.271 21.664.55 28.903-.112 7.759-.713 22.472-2.999 33.837-10.303 13.012-8.386 17.184-19.957 18.375-24.542.996-3.91 1.592-8.318 1.818-13.464V52.965l-.035-.802c-.581-13.78-3.382-24.376-8.324-31.495l-.002-.001c-6.672-9.626-20.828-14.82-30.759-14.82h-64.289c-.085 5.348.223 10.715.552 15.79.378 6.193 1.154 35.687 1.357 43.825 18.609-.548 36.094-1.373 42.83-1.69 1.375-.065 2.29-.109 2.666-.123 7.923-.337 12.882 2.7 14.776 9.015 1.024 3.406.663 6.93-1.016 9.92-1.447 2.576-3.76 4.44-6.343 5.116-7.524 1.979-26.267 2.357-41.327 2.662-4.114.083-8.042.162-11.249.268.061 2.248.13 4.53.196 6.812.28 9.444.57 19.192.388 28.835.59-.005 1.194-.008 1.808-.008zm-2.682-58.83l.001.066v-.066zM627.926 226.63c.563 11.59-.197 13.532-.365 31.82-.057 4.502.9 15.165 1.097 19.638.084 1.435-.844 2.616-1.97 2.56-15.165-.73-29.4-2.954-37.053-2.729-11.085.338-20.539 1.294-20.539 8.188 0 6.892 4.108 7.455 6.359 7.905 7.934 1.604 11.591.226 21.27.957 9.931.731 12.66.619 20.2 8.806 6.275 6.809 11.536 17.19 11.536 53.12 0 5.147-1.35 16.401-7.175 27.43-2.588 4.868-8.918 11.564-16.57 14.546-9.651 3.714-21.018 3.151-25.435 3.376-3.404.17-51.486.507-51.486.507-1.042 0-1.886-1.013-1.914-2.307v-.029c-.112-4.473.112-8.975.394-13.42.676-11.338.056-22.648.197-33.987.028-1.378.957-2.447 2.054-2.363 4.867.422 14.433.45 16.065.619 9.116.928 22.986.563 31.23-2.167 2.785-.928 4.81-3.32 5.036-7.427.45-8.666-17.641-5.262-23.746-4.952-9.622.507-12.942-.562-20.989-7.09-6.05-4.896-10.55-19.385-10.775-28.135-.479-19.131-1.941-33.17 4.023-49.517 3.49-9.566 6.977-14.8 14.63-19.413 6.049-3.63 16.234-6.696 23.24-6.696h60.039c.17.253.366.506.647.76zM747.385 302.706c0 10.1-1.689 32.918-10.213 43.666-8.497 10.747-13.337 14.826-18.316 16.965-6.19 2.672-12.773 4.896-18.991 4.923-8.272.028-9.932 2.673-10.663 10.635-.45 4.895-.535 14.124-.366 20.483.028 1.884-1.21 3.432-2.757 3.432h-39.192c-1.52 0-2.757-1.491-2.757-3.32 0 0 1.181-42.652 1.237-58.492.113-31.708-.534-63.388-.759-95.096-.056-6.218-.085-12.407-.085-18.625 0-1.098.395-1.407 1.435-1.407h52.753c6.865 0 19.836-1.435 32.665 8.581 12.857 10.016 15.98 28.304 15.98 39.192 0 10.888 0 21.86.029 29.063zm-50.334-31.99c-7.934 0-8.356 9.679-8.581 12.69-.394 4.951-.675 23.52-.535 27.881.113 4.08.31 13.73 8.469 13.73 8.16 0 8.16-7.484 8.384-10.832.394-5.88.507-26.165.225-30.413-.225-3.827-.028-13.056-7.962-13.056zM864.063 371.693c.057 5.26 1.126 28.782 1.126 28.782a2.3 2.3 0 01-2.308 2.307h-97.206a3.648 3.648 0 01-3.657-3.798c1.125-28.304 1.181-56.664 1.435-84.996.253-27.938 3.826-56.044-.225-83.87v-.056c-.338-2.222 1.35-4.22 3.601-4.22h95.067c1.07 0 1.97.73 2.251 1.772v.028c.085.338-.28 4.024-.562 6.95-.282 2.925-.675 19.75-.816 25.377-.14 5.627 1.238 17.303 1.238 17.303a2.3 2.3 0 01-2.307 2.307s-25.575-1.238-39.81.844c-5.6.816-12.971 2.73-13.534 9.481-.365 4.221 3.18 7.175 6.78 8.413 4.193 1.435 42.766.647 46.536.619a2.33 2.33 0 012.335 2.335v23.408c0 4.108-.028 6.528-.028 10.044a2.318 2.318 0 01-2.307 2.308c-13.167.028-23.521-1.52-29.936-1.153-5.852.336-16.768-.817-20.2 5.795-3.659 7.09 2.982 12.126 9.115 13.561 7.26 1.688 26.363-1.013 40.964-1.407 1.323-.028 2.392 1.013 2.392 2.308 0 4.95 0 11.113.056 15.558zM932.999 402.782c-.534 0-.984-.62-.956-1.379.224-10.69 3.376-36.828 4.502-47.407.084-.703 1.856-.985 2.362-.9 1.323.253 11.34.393 13.083.168.085 0 4.924-1.52 4.587-4.98-.395-3.91-6.387-42.596-6.865-53.315-.366-8.356-2.195-14.461-5.937-14.63-5.29-.253-7.09 7.343-7.456 10.213-2.616 20.904-17.106 90.707-17.5 110.935 0 .704-.422 1.295-.928 1.295h-38.179c-.619 0-1.07-.844-.9-1.688.281-1.604.562-3.18.843-4.783 1.182-7.006 10.214-50.137 13.337-64.795 3.15-14.686 16.261-99.344 16.824-104.521.056-.646.45-1.125.928-1.125h62.516c.422 0 .788.394.9.985 1.576 8.018 8.976 53.146 11.677 68.198 2.7 15.024 4.895 29.908 7.287 45.016 1.181 7.372 9.65 55.089 11.225 60.912.253.872-.225 1.8-.872 1.8H933zM1121.187 400.784c.197.957-.254 1.97-.873 1.97h-41.865c-.365 0-.703-.366-.844-.957-1.49-6.5-8.974-42.118-10.353-46.62-1.323-4.36-3.967-8.383-5.796-5.795-1.125 1.604-.985 23.717-1.548 30.498-.562 7.09-.73 14.265-.76 21.41 0 .816-.393 1.464-.9 1.464h-39.304c-.478 0-.9-.648-.9-1.463 0 0 .9-34.438.844-38.095v-75.205c.17-20.228-.506-40.457-.506-60.687 0-.815.393-1.462.9-1.462h42.315c.535 0 .957.76.9 1.632-.14 2.25-1.434 23.295-1.35 31.623.056 6.443-.197 15.671 2.673 14.658 2.785-.985 4.501-4.867 5.458-8.637.9-3.517 8.046-30.386 10.607-38.46.168-.479.478-.788.815-.788h39.474c.534 0 .929.731.9 1.604v.028c-.282 6.724-4.896 25.8-9.594 44.171-4.811 18.879-9.763 36.997-10.185 40.261-.422 3.124 6.387 18.541 10.185 36.182 4.248 19.666 9.087 49.742 9.707 52.668zM1276.72 271.814c-.254 7.034-.873 14.461-.62 21.72.029 1.52-.9 2.813-2.166 2.983-8.919 1.153-17.134-.844-20.679 1.547-.928.647-2.982 2.25-3.517 5.655-1.462 9.51-.844 91.776-.76 96.109.029 1.603-1.068 2.926-2.42 2.926h-43.41c-1.295 0-2.365-1.238-2.42-2.786-.367-11.929 1.996-75.204 1.265-82.688-.534-5.74.676-11.789-3.207-15.643-3.348-3.32-7.4-4.36-11.648-4.727-5.036-.422-9.65-.112-9.65-.112-1.323 0-2.42-1.295-2.42-2.87v-.028c0-.225-.169-14.208-.619-19.272-.928-10.579-.816-45.55-.816-47.07 0-1.491 1.125-1.716 2.42-1.716h99.4s.563 0 .563.534c.056 15.165 1.238 30.33.703 45.438zM1395.079 348.144c0 12.07-2.646 19.92-6.415 28.445-3.264 7.4-8.047 13.25-13.42 17.33-6.415 4.867-12.014 8.863-22.93 8.863-2.842 0-23.972.056-24.732 0-10.128-.76-19.61-7.428-25.096-14.208-4.67-5.768-10.634-20.763-10.634-29.598 0-8.834-.057-75.402-.057-89.019 0-13.617 3.798-23.774 8.384-29.738 7.963-10.354 13.955-12.774 24.196-14.462.338-.056 24.703.085 34.38.085 9.68 0 17.754 3.094 24.59 11.253 6.838 8.16 11.705 21.777 11.705 33.734 0 11.958.029 65.245.029 77.315zm-51.6.647c7.512 0 8.61-8.975 8.61-13.336 0-14.011.9-31.736.393-42.006-.422-8.833-1.491-15.446-9.003-15.446-9.65 0-10.41 9.848-10.353 14.49.056 5.43.14 23.943.14 38.348 0 14.433 4.389 17.95 10.213 17.95zM1507.451 402.726h-13.195c-13.532 0-27.769-4.7-35.618-16.6-8.328-12.632-8.723-35.534-8.723-45.916V227.699c0-1.042.563-1.886 1.266-1.886h39.277c.703 0 1.266.844 1.266 1.886 0 10.353 0 20.735.056 31.089.057 10.437-.422 46.507.17 54.019.59 7.737 1.068 16.57 4.22 19.694 3.263 3.236 7.342 1.323 8.468-.31 3.855-5.598 2.897-14.236 3.123-21.776.225-7.653.197-46.676.422-58.492.169-8.018.197-16.093-.085-24.112-.027-1.069.535-1.97 1.266-1.97h42.512c.703 0 1.266.844 1.266 1.885V334.78c0 15.136.31 36.716-8.13 48.588-5.768 8.104-8.413 11.086-15.756 14.21-9.538 4.05-18.035 5.204-21.805 5.148zM1671.735 226.63c.563 11.59-.197 13.532-.365 31.82-.057 4.502.9 15.165 1.097 19.638.084 1.435-.844 2.616-1.97 2.56-15.165-.73-29.4-2.954-37.053-2.729-11.085.338-20.539 1.294-20.539 8.188 0 6.892 4.108 7.455 6.359 7.905 7.934 1.604 11.591.226 21.27.957 9.931.731 12.661.619 20.2 8.806 6.275 6.809 11.536 17.19 11.536 53.12 0 5.147-1.35 16.401-7.175 27.43-2.588 4.868-8.918 11.564-16.57 14.546-9.651 3.714-21.018 3.151-25.435 3.376-3.404.17-51.486.507-51.486.507-1.042 0-1.886-1.013-1.914-2.307v-.029c-.112-4.473.112-8.975.394-13.42.676-11.338.056-22.648.197-33.987.028-1.378.957-2.447 2.054-2.363 4.867.422 14.433.45 16.065.619 9.116.928 22.986.563 31.23-2.167 2.785-.928 4.81-3.32 5.036-7.427.45-8.666-17.64-5.262-23.746-4.952-9.622.507-12.942-.562-20.989-7.09-6.049-4.896-10.55-19.385-10.775-28.135-.479-19.131-1.941-33.17 4.023-49.517 3.49-9.566 6.978-14.8 14.63-19.413 6.049-3.63 16.234-6.696 23.24-6.696h60.039c.17.253.366.506.647.76z"/><path class="st1" d="M538.336 28.388V168.785c0 5.676 8.822 5.685 8.822 0V121.31 45.687 28.388c0-5.676-8.822-5.686-8.822 0zM603.644 23.316l-1.2 16.264c-.417 5.665 8.407 5.638 8.823 0l1.2-16.264c.418-5.664-8.407-5.637-8.823 0zM583.528 133.266l9.87 40.768c1.335 5.516 9.845 3.18 8.507-2.345l-9.87-40.768c-1.335-5.516-9.845-3.18-8.507 2.345zM665.506 25.336v147.518c0 5.676 8.822 5.686 8.822 0V25.336c0-5.676-8.822-5.686-8.822 0zM793.693 21.267V173.87c0 5.677 8.823 5.686 8.823 0V21.267c0-5.677-8.823-5.686-8.823 0zM914.76 23.302v148.534c0 5.677 8.822 5.686 8.822 0V23.302c0-5.677-8.823-5.687-8.823 0zM969.578 66.912c7.509 19.62 7.155 41.666-1.651 60.827-2.355 5.124 5.247 9.612 7.618 4.453 9.766-21.25 10.929-45.708 2.54-67.625-2.01-5.25-10.542-2.97-8.507 2.345zM1085.676 24.319v150.57c0 5.676 8.822 5.686 8.822 0V24.318c0-5.677-8.822-5.686-8.822 0zM1142.938 16.17l-.445 32.563c-.078 5.68 8.745 5.682 8.823 0l.445-32.563c.078-5.679-8.745-5.682-8.823 0zM1142.648 139.28v32.556c0 5.677 8.823 5.686 8.823 0v-32.555c0-5.677-8.823-5.686-8.823 0zM1208.776 24.319v152.604c0 5.677 8.823 5.686 8.823 0V24.32c0-5.677-8.823-5.686-8.823 0zM1335.947 18.215v158.708c0 5.677 8.822 5.686 8.822 0V18.215c0-5.677-8.822-5.686-8.822 0z"/><g><path class="st1" d="M1459.047 21.267v158.708c0 5.677 8.823 5.686 8.823 0V21.267c0-5.677-8.823-5.686-8.823 0z"/></g><g><path class="st1" d="M1582.148 16.18v40.695c0 5.676 8.822 5.686 8.822 0V16.18c0-5.677-8.822-5.686-8.822 0z"/></g><g><path class="st1" d="M1581.809 99.265v19.668c0 5.677 8.822 5.687 8.822 0V99.266c0-5.677-8.822-5.687-8.822 0z"/></g><g><path class="st1" d="M1581.13 155.898v20.347c0 5.677 8.823 5.686 8.823 0v-20.347c0-5.677-8.823-5.687-8.823 0z"/></g><g><path class="st2" d="M1684.544 198.458s-21.85-15.217-14.853-46.12 27.578 16.165 14.853 46.12z"/><path d="M1685.177 200.655l-1.456-1.015c-.234-.162-5.77-4.07-10.464-11.914-4.322-7.22-8.692-19.278-4.972-35.706 1.501-6.63 3.793-10.356 6.76-11.098 1.454-.358 3.723-.154 6.28 2.849 7.525 8.842 12.75 35.937 4.546 55.25l-.694 1.634zm-9.565-56.899c-.903.3-2.905 1.79-4.516 8.9-2.805 12.393-1.269 23.656 4.567 33.478 2.978 5.01 6.38 8.348 8.262 9.979 6.648-17.952 1.878-42.632-4.796-50.474-.724-.85-2.128-2.23-3.395-1.918-.038.01-.079.021-.122.035z"/><path class="st3" d="M1684.544 198.458s-9.715-30.252-7.786-40.872"/><path d="M1685.912 198.004c-1.14-3.554-2.165-7.149-3.14-10.751-1.834-6.771-3.496-13.52-4.378-20.366-.217-1.684-.383-3.378-.434-5.075a27.716 27.716 0 01.015-2.255c.009-.168.02-.336.032-.504-.026.339.013-.114.025-.218.035-.318.08-.634.136-.95.324-1.826-2.496-2.427-2.82-.598-.49 2.76-.296 5.638.006 8.407.388 3.556 1.045 7.083 1.785 10.58 1.336 6.315 3.006 12.561 4.845 18.746.386 1.3.777 2.6 1.192 3.891.567 1.767 3.304.862 2.736-.907z"/><g><path class="st2" d="M1707.67 169.775s13.227-23.11 44.627-18.871c31.4 4.238-13.664 28.898-44.626 18.871z"/><path d="M1746.947 169.83c-11.599 3.843-26.993 5.438-39.72 1.316l-1.689-.546.882-1.541c.141-.247 3.545-6.108 10.942-11.476 6.81-4.942 18.434-10.36 35.128-8.108 6.736.91 10.657 2.845 11.652 5.753.485 1.416.482 3.695-2.283 6.506-2.95 3-8.319 5.912-14.912 8.096zm-36.993-.879c18.47 5.033 42.629-1.898 49.85-9.239.783-.796 2.034-2.316 1.61-3.55-.277-.812-1.74-2.808-9.31-3.83-25.352-3.421-38.545 11.653-42.15 16.62z"/><g><path class="st3" d="M1707.67 169.775s29.275-12.351 40.024-11.368"/><path d="M1708.124 171.143c3.43-1.446 6.91-2.78 10.4-4.067 6.57-2.42 13.248-4.703 20.088-6.23.852-.19 1.784-.379 2.388-.486a43.62 43.62 0 012.5-.375c.73-.086 1.463-.15 2.198-.179a18.973 18.973 0 011.47 0c.101.005.642.047.227.011.775.068 1.534-.285 1.71-1.11.146-.69-.332-1.642-1.112-1.71-2.889-.252-5.762.198-8.59.756-3.453.68-6.853 1.623-10.216 2.653-6.158 1.887-12.219 4.098-18.205 6.472-1.259.499-2.517 1.003-3.764 1.529-.718.302-1.174 1.04-.915 1.821.23.695 1.1 1.22 1.821.915z"/></g></g><g><path class="st2" d="M1668.003 230.044s16.739-20.707 47.063-11.52c30.324 9.187-18.094 26.352-47.063 11.52z"/><path d="M1715.385 234.302c-12.384 4.103-33.028 4.71-48.039-2.975l-1.58-.809 1.116-1.38c.179-.222 4.473-5.465 12.631-9.586 7.508-3.795 19.85-7.292 35.97-2.407 6.506 1.97 10.068 4.506 10.587 7.535.253 1.476-.112 3.724-3.29 6.06-1.837 1.349-4.37 2.56-7.395 3.562zm-44.999-4.708c17.432 7.913 42.39 4.917 50.687-1.178.9-.66 2.377-1.962 2.156-3.249-.145-.845-1.27-3.049-8.582-5.264-12.16-3.684-23.503-2.959-33.718 2.163-5.21 2.612-8.783 5.766-10.543 7.528z"/><g><path class="st3" d="M1668.003 230.044s30.868-7.53 41.323-4.846"/><path d="M1668.456 231.412c3.632-.885 7.297-1.651 10.965-2.368a225.368 225.368 0 0110.07-1.737c3.483-.514 6.986-.94 10.502-1.141 1.714-.098 3.434-.144 5.15-.072.19.008.381.017.571.028.078.005.619.043.304.018.35.028.7.064 1.049.108.66.083 1.315.197 1.96.36 1.804.455 2.394-2.367.598-2.82-2.7-.682-5.596-.67-8.36-.57-3.518.13-7.026.523-10.51 1.007-6.466.9-12.889 2.136-19.261 3.545-1.317.29-2.634.586-3.944.906-.758.184-1.146 1.125-.915 1.821.261.79 1.062 1.1 1.821.915z"/></g></g><g><path d="M1655.614 255.273a340.153 340.153 0 0113.524-27.803 342.907 342.907 0 0115.987-26.463 340.642 340.642 0 0118.17-24.711 343.385 343.385 0 0120.469-23.172 335.225 335.225 0 0125.235-23.563c.595-.5.864-1.3.398-2-.395-.592-1.4-.902-2-.398a344.136 344.136 0 00-23.01 21.206 343.026 343.026 0 00-20.736 22.932 344.729 344.729 0 00-18.732 24.902 347.366 347.366 0 00-16.431 26.483 339.336 339.336 0 00-15.45 31.293c-.733 1.698 1.839 3.001 2.576 1.294z"/></g></g><g><path d="M1703.14 82.277c-1.273 5.812-2.057 12.57.213 18.243 1.099 2.745 2.95 5.192 5.655 6.518 3.244 1.589 6.802 1.572 10.097.152 3.261-1.405 5.978-3.94 8.228-6.638 2.448-2.933 4.773-6.253 6.359-9.74 1.665-3.663 2.042-7.78-.647-11.061-2.166-2.644-6.132-3.286-8.737-.916-2.107 1.916-2.675 5.14-2.095 7.824.71 3.293 3.59 5.498 6.773 6.206 3.608.803 7.406.064 10.81-1.226 3.08-1.168 5.996-2.717 8.655-4.664 10.659-7.803 17.407-20.875 17.11-34.147-.16-7.123-2.408-13.838-6.982-19.346-4.155-5.004-10.627-9.144-17.38-8.43-1.79.19-3.425.66-5.07 1.385-.969.428-1.194 1.843-.703 2.683.584.999 1.71 1.132 2.682.703 4.99-2.2 10.556-.174 14.522 3.203 4.497 3.831 7.46 9.084 8.525 14.878 1.994 10.838-1.904 22.47-9.162 30.604-3.65 4.091-8.207 7.468-13.365 9.397-2.67.999-5.746 1.818-8.6 1.18-1.226-.276-2.457-.805-3.296-1.775-.17-.198-.08-.08-.285-.434a3.376 3.376 0 01-.192-.367 5.743 5.743 0 01-.238-.79 6.027 6.027 0 01-.064-.306c-.11-.613.002.319-.03-.305-.053-1 .094-1.915.443-2.558.306-.563.294-.525.648-.88.212-.212.426-.322.719-.378.245-.047.532-.114 1.043.06.526.178.967.527 1.329.97.765.937 1.094 2.148 1.04 3.343-.147 3.192-2.439 6.29-4.16 8.849-1.755 2.61-3.776 5.111-6.228 7.102-2.045 1.661-4.577 2.95-7.264 2.727-2.205-.183-4.217-1.43-5.312-3.015-2.706-3.92-2.582-9.432-1.966-14.098.174-1.313.422-2.618.706-3.91.538-2.46-3.241-3.511-3.781-1.043z"/></g><g><path d="M460.59 90.015c-6.042-5.24-8.57-13.698-7.344-21.417.616-3.88 2.056-7.654 4.505-10.752 2.825-3.576 7.225-6.684 11.96-6.485 2.165.091 4.12 1.096 5.436 2.828 1.221 1.609 1.824 3.738.954 5.516l3.654.99c-.922-11.516 7.26-22.805 18.533-25.423 2.457-.57 1.417-4.352-1.042-3.78-9.988 2.318-18.043 10.72-20.62 20.557-.735 2.808-1.024 5.751-.792 8.646.07.87.56 1.649 1.439 1.89.792.218 1.837-.13 2.214-.9 2.383-4.874-.357-10.753-5.058-13.079-5.694-2.818-12.317-.188-16.788 3.694-7.459 6.476-9.966 17.31-7.847 26.724 1.184 5.258 3.935 10.217 8.024 13.764.799.693 1.986.786 2.772 0 .709-.709.803-2.076 0-2.773z"/></g><g><path fill="#4c8c26" d="M273.087 136.683l32.535-2.5V55.347h-15.25z"/><path d="M305.622 49.86H285.93l-.924 4.346-17.284 81.337-1.524 7.172 7.31-.562 32.536-2.5 5.065-.388V49.86h-5.486zm0 84.324l-32.535 2.5 17.285-81.338h15.25v78.838z"/><path class="st0" d="M232.355 150.715c4.118-6.997 7.71-14.072 11.668-20.635a95.482 95.482 0 00-2.102-.6c-42.098-11.497-86.936 4.436-112.543 39.773-21.904 30.229-52.517 83.688-52.517 146.373 0 97.605 101.672 161.658 170.809 145.39-75.386-152.358-42.68-263.805-15.315-310.301z"/><path class="st5" d="M188.191 355.786s-15.759 41.686-46.769 10.676-26.943-78.796-26.943-78.796-16.267 44.736-11.692 62.528c0 0-31.518-53.886-13.217-106.755 0 0-25.927 72.695-6.1 116.923s58.46 86.42 101.163 97.605c42.702 11.184 41.177 5.083 41.177 5.083s-39.652-75.237-37.619-107.264z"/><path class="st0" d="M455.08 236.322c0-34.569-11.184-127.09-113.872-105.74 27.451 64.054-5.084 98.623 8.133 145.392 13.218 46.769 1.017 106.755-43.718 190.126 0 0 130.14 36.602 166.742-59.986 36.601-96.588-17.285-135.224-17.285-169.792z"/><path class="st0" d="M349.341 275.974c-13.217-46.77 19.318-81.338-8.133-145.391-15.013-35.03-50.642-35.586-72.187-25.418-11.59 5.47-18.75 14.554-24.998 24.915-3.958 6.563-7.55 13.638-11.668 20.635-25.76 43.77-75.174 155.005-17.996 294.996 11.427 27.977 40.66 44.695 70.461 39.68a98.159 98.159 0 002.278-.411c20.9-4.027 38.392-18.232 46.98-37.706 31.625-71.702 27.135-129.293 15.263-171.3z"/><path class="st5" d="M284.82 485.391a98.159 98.159 0 002.278-.411c20.9-4.027 38.392-18.232 46.98-37.706 15.406-34.928 22.239-66.506 23.826-94.568a41.88 41.88 0 00-1.191-1.24s-62.529 86.166-113.619 54.14c-50.156-31.442-54.012-115.789-54.136-116.697l-.004.051c-.009.878-.642 20.365-.292 48.418 2.295 33.391 9.946 69.768 25.697 108.333 11.427 27.977 40.66 44.695 70.461 39.68z"/><path class="st5" d="M472.365 406.114c29.175-76.992.856-117.161-11.836-147.8a161.389 161.389 0 00-3.415-3.691s2.033 167.758-108.79 157.591c0 0-13.382 42.781-26.465 57.345 36.058 6.17 121.882 12.088 150.506-63.445z"/><path d="M296.652 117.768c9.754 3.012 17.154 10.611 22.354 19.14 6.107 10.018 9.757 21.598 11.64 33.128a99.631 99.631 0 011.233 19.087c-.204 6.64-1.076 13.231-2.078 19.79-2.058 13.481-3.945 26.923-4.743 40.549a334.114 334.114 0 00.438 45.524c.081 1.055.842 1.96 1.959 1.96.997 0 2.041-.9 1.96-1.96a335.55 335.55 0 01-.66-41.3c.631-13.732 2.267-27.32 4.386-40.893 1.069-6.844 2.108-13.712 2.519-20.633.388-6.533.147-13.091-.712-19.58-1.613-12.19-5.144-24.41-11.133-35.2-5.087-9.163-12.43-17.73-22.24-21.946a38.883 38.883 0 00-3.881-1.445c-2.415-.745-3.448 3.036-1.042 3.78zM324.709 421.145c-2.804 9.9-9.622 17.998-17.33 24.56-4.041 3.438-8.433 6.703-13.351 8.774-5.231 2.203-10.925 2.779-16.55 2.492-6.544-.333-12.963-1.787-19.327-3.258-2.454-.567-3.502 3.21-1.042 3.778 11.708 2.706 24.447 5.508 36.19 1.44 5.628-1.95 10.55-5.322 15.147-9.043 4.227-3.42 8.178-7.222 11.531-11.512 3.793-4.853 6.825-10.24 8.51-16.19.688-2.43-3.091-3.468-3.778-1.041zM177.698 221.227a251.507 251.507 0 00-14.867 55.099c-2.861 18.913-3.66 38.122-2.254 57.202a254.035 254.035 0 004.452 32.168c.212 1.037 1.44 1.635 2.41 1.368 1.079-.296 1.581-1.37 1.369-2.41-3.783-18.515-5.401-37.44-4.909-56.33a251.913 251.913 0 017.716-55.667 249.856 249.856 0 019.862-30.388c.39-.984-.427-2.152-1.369-2.41-1.114-.307-2.018.38-2.41 1.368zM187.282 436.837c-13.114-5.754-25.19-13.743-35.665-23.504-10.48-9.766-19.34-21.207-26.123-33.826a124.327 124.327 0 01-9.265-22.105c-.744-2.401-4.528-1.377-3.779 1.042 4.346 14.04 11.116 27.306 19.867 39.11 8.775 11.836 19.407 22.214 31.509 30.628a127.13 127.13 0 0021.479 12.039c.968.425 2.103.284 2.68-.703.487-.831.271-2.253-.703-2.68zM112.012 383.319a121.365 121.365 0 01-19.353-51.047c-.705-5.197-1.038-10.446-1.052-15.689-.007-2.52-3.925-2.526-3.919 0 .05 18.957 4.527 37.805 12.9 54.806a121.575 121.575 0 008.04 13.908c1.396 2.085 4.792.125 3.384-1.978zM460.77 380.697c.119 6.981-2.128 13.694-5.385 19.798-3.027 5.674-6.816 10.964-11.044 15.803a97.204 97.204 0 01-29.303 22.739 94.009 94.009 0 01-19.636 7.296c-2.445.61-1.41 4.39 1.041 3.778 12.59-3.146 24.544-8.844 34.953-16.588 10.613-7.895 19.895-17.871 26.46-29.395 4.065-7.136 6.974-15.125 6.832-23.43-.042-2.52-3.961-2.528-3.918 0z"/><path d="M458.479 324.688c6.569 17.383 4.969 37.4-3.844 53.718-2.453 4.543-5.437 8.764-8.943 12.555-1.71 1.85 1.054 4.627 2.77 2.771 13.294-14.374 19.72-34.661 17.573-54.087-.605-5.472-1.83-10.846-3.778-16-.373-.988-1.322-1.667-2.41-1.368-.948.261-1.744 1.416-1.368 2.41zM409.222 429.248a108.642 108.642 0 01-36.752 17.596c-2.437.64-1.404 4.421 1.041 3.778 13.549-3.564 26.406-9.684 37.689-17.99.85-.627 1.277-1.7.703-2.681-.491-.84-1.824-1.334-2.681-.703z"/><path class="st6" d="M198.74 266.054c.557-13.502 1.928-25.944 3.83-37.34-15.177 54.815-20.77 130.025 14.329 215.96a61.98 61.98 0 009.672 16.122c5.848-.09 11.569-.651 17.088-1.723-32.349-66.438-47.461-131.364-44.919-193.019z"/><path class="st7" d="M237.846 135.305l-.516.926c.171-.309.344-.617.516-.926zM246.389 131.47l-.016.026c-1.56 2.586-3.045 5.223-4.561 7.96 1.516-2.737 3.002-5.374 4.56-7.96l.017-.027zM355.278 187.008zM355.204 178.89zM355.281 181.631zM354.874 173.297zM353.408 161.646zM352.852 158.629zM355.07 176.112zM352.213 155.567c-.124-.558-.256-1.12-.388-1.684.132.563.264 1.126.388 1.684zM355.205 189.647zM354.614 170.447zM354.285 167.554zM353.044 212.183l.19-1.364-.19 1.364zM351.488 152.463c-.14-.571-.291-1.146-.44-1.721.149.575.3 1.15.44 1.72zM353.695 207.305c.055-.435.11-.869.163-1.306-.053.437-.108.871-.163 1.306zM353.378 209.74c.06-.439.118-.877.176-1.319l-.176 1.32zM352.686 214.69l.217-1.5-.217 1.5zM351.875 220.175zM352.305 217.289zM354.52 199.9c.041-.441.084-.883.123-1.327-.04.444-.082.886-.124 1.328zM354.742 197.379c.037-.446.074-.891.107-1.34-.033.448-.07.894-.107 1.34zM353.992 204.863c.051-.438.103-.874.152-1.314-.05.44-.1.876-.152 1.314zM354.933 194.836zM354.268 202.397c.047-.44.094-.88.139-1.324-.045.443-.092.883-.14 1.324zM355.088 192.257zM353.884 164.62zM346.185 274.81c-2.135-8.24-2.917-16.087-2.903-23.776-.014 7.69.768 15.535 2.903 23.777zM349.762 146.113c-.179-.6-.37-1.207-.559-1.813.19.606.38 1.212.559 1.813zM355.3 182.916zM348.755 142.867c-.2-.618-.414-1.242-.624-1.865.21.623.424 1.247.624 1.865zM346.432 136.225c-.252-.67-.52-1.347-.786-2.023.265.676.534 1.353.786 2.023zM350.672 149.31c-.16-.584-.329-1.173-.497-1.762.168.59.338 1.178.497 1.762zM347.645 139.57c-.223-.638-.46-1.283-.696-1.926.235.643.473 1.288.696 1.926zM354.144 203.549c.043-.383.083-.768.124-1.152-.041.384-.081.77-.124 1.152zM354.643 198.573c.035-.397.067-.796.1-1.194-.033.398-.065.797-.1 1.194zM354.85 196.039c.029-.4.056-.801.083-1.203-.028.402-.054.804-.084 1.203zM354.407 201.073c.039-.39.075-.781.112-1.172-.037.39-.073.783-.112 1.172zM345.11 132.831c.185.46.357.914.536 1.37-.179-.456-.35-.91-.536-1.37zM353.554 208.421c.048-.37.094-.744.14-1.116-.046.372-.092.746-.14 1.116zM352.22 217.868l.085-.58-.086.58zM338.686 131.664zM237.33 136.23zM239.566 132.264zM353.858 206c.046-.378.09-.758.134-1.137-.045.379-.088.759-.134 1.136zM346.45 219.363c3.438-22.98 6.983-46.67-3.905-77.794 10.888 31.125 7.342 54.814 3.904 77.794zM352.903 213.19l.14-1.007-.14 1.007zM352.564 215.537l.122-.846-.122.846zM353.234 210.82c.049-.359.096-.72.144-1.08-.048.36-.095.721-.144 1.08zM355.156 190.887c.019-.412.033-.826.049-1.24-.015.414-.03.828-.049 1.24zM353.636 163.031zM349.203 144.3c-.148-.477-.293-.953-.448-1.433.155.48.3.956.448 1.433zM354.079 165.993zM348.13 141.002c-.16-.477-.317-.952-.485-1.432.168.48.324.955.486 1.432zM354.446 168.91zM352.514 156.979c-.099-.47-.197-.939-.301-1.412.104.473.202.942.3 1.412zM354.744 171.79zM351.825 153.883c-.11-.472-.22-.944-.337-1.42.117.476.226.948.337 1.42zM350.175 147.548c-.137-.478-.27-.954-.413-1.435.143.48.276.957.413 1.435zM353.116 160.028c-.086-.465-.172-.93-.264-1.399.092.469.178.934.264 1.4zM346.95 137.644c-.173-.473-.34-.943-.518-1.419.178.476.345.946.517 1.419zM355.248 180.19zM351.047 150.742c-.124-.477-.245-.952-.375-1.432.13.48.251.955.375 1.432zM343.282 251.034c.015-7.689.827-15.221 1.879-22.836-1.052 7.615-1.864 15.147-1.879 22.836zM355.305 184.336zM355.25 188.264zM355.3 182.916zM355.14 177.428zM355.021 193.478c.025-.406.046-.814.067-1.221-.021.407-.042.815-.067 1.22z"/><g><path class="st7" d="M354.974 174.629z"/></g><g><path class="st6" d="M355.584 337.478c-.218-20.356-3.174-40.559-8.882-60.758a89.32 89.32 0 01-.517-1.91c-2.135-8.24-2.917-16.087-2.903-23.776.015-7.689.827-15.221 1.879-22.836.404-2.928.844-5.869 1.288-8.836 3.44-22.98 6.984-46.668-3.904-77.793a149.352 149.352 0 00-1.179-3.246 158.898 158.898 0 00-2.68-6.66c-5.577-13.013-14.386-21.879-26.182-26.352-5.813-2.205-11.819-3.107-17.603-3.107-9.414 0-18.243 2.39-24.71 5.441-11.581 5.467-18.286 14.68-23.802 23.824l-.016.027c-1.56 2.586-3.045 5.223-4.561 7.96-.506.913-1.014 1.837-1.53 2.773-1.779 3.23-3.618 6.571-5.563 9.877-9.386 15.947-22.645 42.281-32.149 76.607-15.177 54.816-20.77 130.026 14.329 215.96a61.981 61.981 0 009.672 16.123 62.706 62.706 0 004.937 5.301c13.837 13.238 33.395 19.864 52.857 16.589a97.01 97.01 0 002.215-.4c9.543-1.838 18.376-5.91 25.903-11.718a62.354 62.354 0 005.273-4.558 62.954 62.954 0 0013.813-19.842c16.423-37.239 24.395-73.199 24.015-108.69z"/><path class="st6" d="M189.549 261.681c8.335-50.234 26.593-88.827 40.441-112.357 1.907-3.239 3.727-6.544 5.486-9.74.61-1.109 1.23-2.231 1.854-3.353.171-.309.344-.617.516-.926a313.412 313.412 0 011.72-3.041c.095-.165.186-.333.281-.497a100.654 100.654 0 00-25.172-3.19c-32.256 0-63.577 15.378-83.075 42.286-23.72 32.733-51.996 84.42-51.996 144.763 0 42.57 20.602 83.304 56.526 111.755 25.519 20.212 55.608 31.939 83.413 33.294a68.048 68.048 0 01-7.723-13.927c-24.999-61.206-32.492-123.47-22.271-185.067zM463.662 272.047c-6.077-13.147-11.325-24.502-11.325-35.725 0-18.921-3.29-65.605-33.76-90.391-17.971-14.62-42.704-19.093-73.548-13.307l.081.207c.185.46.357.914.536 1.37.265.677.534 1.354.786 2.024.178.476.345.946.517 1.419.235.643.473 1.288.696 1.926.168.48.324.955.486 1.432.21.623.424 1.247.624 1.865.155.48.3.956.448 1.433.19.606.38 1.212.559 1.813.143.48.276.957.413 1.435.168.59.338 1.178.497 1.762.13.48.251.955.375 1.432.15.575.3 1.15.44 1.72.118.477.227.949.338 1.421.132.563.264 1.126.388 1.685.104.472.202.941.3 1.41.116.552.232 1.104.339 1.651.092.469.178.934.264 1.4.1.54.2 1.08.292 1.617.08.464.154.924.228 1.385.086.531.17 1.062.248 1.59.068.459.132.916.195 1.372a126.712 126.712 0 01.99 10.12 135.657 135.657 0 01.236 8.223 148.602 148.602 0 01-.027 2.672 148.128 148.128 0 01-.073 2.639 144.961 144.961 0 01-.117 2.61c-.021.407-.042.815-.067 1.22-.027.455-.058.907-.088 1.36-.027.4-.054.803-.084 1.202-.033.448-.07.894-.107 1.34-.032.398-.064.797-.1 1.194-.038.444-.08.886-.123 1.328-.037.39-.073.783-.112 1.172-.045.443-.092.883-.14 1.324-.04.384-.08.77-.123 1.152-.05.44-.1.876-.152 1.314-.045.379-.088.759-.134 1.136-.053.437-.108.871-.163 1.306-.047.372-.093.746-.141 1.116-.057.442-.117.88-.176 1.32-.048.36-.095.72-.144 1.078l-.19 1.364-.141 1.007-.217 1.5-.122.847-.259 1.752-.086.58c-.114.771-.23 1.54-.344 2.306-2.75 18.384-5.35 35.75.106 55.053 7.111 25.163 9.984 49.823 8.78 75.39-1.502 31.909-9.635 64.801-24.172 97.763a68.498 68.498 0 01-12.295 18.783c12.855 2.082 31.298 3.978 50.9 2.418 48.02-3.821 79.85-25.502 94.606-64.44 24.949-65.837 6.981-104.71-6.138-133.095z"/><path d="M468.642 269.745c-5.805-12.56-10.819-23.406-10.819-33.423 0-19.706-3.487-68.375-35.783-94.647-19.52-15.88-46.172-20.65-79.235-14.205-6.173-13.161-15.933-22.578-28.356-27.289-14.338-5.437-31.757-4.501-46.6 2.503-12.128 5.725-19.521 15.26-25.076 24.186l-.13-.036c-21.18-5.784-43.344-4.96-64.093 2.384-20.72 7.334-38.491 20.621-51.393 38.426-24.196 33.39-53.04 86.168-53.04 147.982 0 23.283 5.618 45.614 16.696 66.372 9.973 18.687 24.465 35.867 41.91 49.684 27.84 22.05 61.034 34.343 91.295 34.6a68.104 68.104 0 0017.33 14.029 67.155 67.155 0 0033.007 8.695 65.84 65.84 0 0010.922-.91c.771-.13 1.552-.271 2.34-.423 11.958-2.304 22.891-7.82 31.806-15.735 10.025 1.812 24.424 3.716 40.688 3.716 4.972 0 10.125-.178 15.372-.592 21.962-1.73 41.063-7.268 56.772-16.46 19.74-11.55 34.098-28.883 42.674-51.516 25.766-67.992 7.24-108.074-6.287-137.34zM136.13 427.381c-35.924-28.451-56.526-69.185-56.526-111.755 0-60.344 28.276-112.03 51.995-144.763 19.5-26.908 50.82-42.286 83.076-42.286 8.391 0 16.846 1.04 25.172 3.19-.095.164-.186.332-.28.497a313.531 313.531 0 00-1.721 3.041c-.172.309-.345.617-.516.926-.623 1.122-1.243 2.244-1.854 3.353-1.76 3.196-3.58 6.501-5.486 9.74-13.848 23.53-32.106 62.123-40.441 112.357-10.22 61.596-2.728 123.861 22.27 185.067a68.048 68.048 0 007.724 13.927c-27.805-1.355-57.894-13.082-83.413-33.294zm181.626 38.63a62.355 62.355 0 01-5.273 4.557c-7.527 5.808-16.36 9.88-25.903 11.718-.746.144-1.484.277-2.215.4-19.462 3.275-39.02-3.351-52.857-16.589a62.701 62.701 0 01-4.937-5.3 61.981 61.981 0 01-9.672-16.123c-35.1-85.935-29.506-161.145-14.329-215.96 9.504-34.327 22.763-60.661 32.149-76.608 1.945-3.306 3.784-6.646 5.563-9.877.516-.936 1.024-1.86 1.53-2.772 1.516-2.738 3.002-5.375 4.56-7.961l.017-.027c5.516-9.145 12.22-18.357 23.803-23.824 6.466-3.051 15.295-5.44 24.71-5.44 5.783 0 11.789.901 17.602 3.106 11.796 4.473 20.605 13.34 26.182 26.353.968 2.257 1.86 4.476 2.68 6.659.41 1.09.803 2.173 1.179 3.246 10.888 31.125 7.343 54.814 3.904 77.793-.444 2.967-.884 5.908-1.288 8.836-1.052 7.615-1.864 15.147-1.879 22.836-.014 7.69.768 15.535 2.903 23.777.164.634.336 1.27.517 1.909 5.708 20.2 8.664 40.402 8.882 60.758.38 35.491-7.592 71.451-24.015 108.69a62.955 62.955 0 01-13.813 19.842zM469.8 405.14c-14.756 38.939-46.586 60.62-94.606 64.44-19.602 1.561-38.045-.335-50.9-2.417a68.498 68.498 0 0012.294-18.783c14.538-32.962 22.671-65.854 24.173-97.764 1.204-25.566-1.669-50.226-8.78-75.39-5.455-19.303-2.857-36.668-.106-55.052.114-.766.23-1.535.344-2.307l.086-.58.259-1.751.122-.846.217-1.5.14-1.008c.065-.454.128-.907.19-1.364.05-.358.097-.719.145-1.078.06-.44.118-.878.176-1.32.048-.37.094-.744.14-1.116.056-.435.111-.869.164-1.306.046-.377.09-.757.134-1.136.051-.438.103-.875.152-1.314.043-.383.083-.768.124-1.152.047-.44.094-.88.139-1.324.039-.39.075-.781.112-1.172.042-.442.085-.884.124-1.328.035-.397.067-.796.1-1.194.036-.446.073-.892.106-1.34.03-.4.057-.801.084-1.203.03-.452.061-.904.088-1.358.025-.406.046-.814.067-1.221.024-.456.048-.912.068-1.37.019-.412.034-.826.049-1.24a147.785 147.785 0 00.094-4.04 147.69 147.69 0 00-.158-8.18 135.34 135.34 0 00-.527-6.98 131.981 131.981 0 00-.535-4.454c-.063-.456-.127-.913-.195-1.373-.078-.527-.162-1.058-.248-1.589-.074-.46-.149-.922-.228-1.385a132.27 132.27 0 00-.292-1.618c-.086-.465-.172-.93-.264-1.399-.107-.547-.223-1.099-.338-1.65-.099-.47-.197-.939-.301-1.412-.124-.558-.256-1.12-.388-1.684-.11-.473-.22-.945-.337-1.42-.14-.571-.291-1.146-.44-1.721-.125-.477-.246-.952-.376-1.432-.16-.584-.329-1.173-.497-1.762-.137-.478-.27-.954-.413-1.435-.179-.601-.37-1.207-.559-1.813-.148-.477-.293-.953-.448-1.433-.2-.618-.414-1.242-.624-1.865-.162-.477-.318-.952-.486-1.432-.223-.638-.46-1.283-.696-1.927-.172-.472-.339-.942-.518-1.418-.251-.67-.52-1.347-.785-2.023-.179-.457-.35-.911-.536-1.37-.028-.07-.053-.139-.081-.208 30.844-5.786 55.577-1.313 73.549 13.307 30.47 24.786 33.76 71.47 33.76 90.39 0 11.224 5.247 22.579 11.324 35.726 13.12 28.384 31.087 67.258 6.138 133.095z"/></g><g><path d="M188.954 288.937v.023l.004-.051c-.003-.017-.004-.014-.004.028z" fill="#c63d00"/></g><g><path class="st1" d="M278.171 181.419s16.268-27.451 2.034-44.736-32.535 3.05-44.736 39.652c-12.2 36.602 21.351 57.953 42.702 5.084z"/></g><g><circle class="st1" cx="267.114" cy="222.977" r="10.294"/></g><g><path class="st1" d="M156.927 162.355s-18.3 18.301-29.739 42.703-6.863 52.615 2.288 42.702c9.15-9.913 9.913-51.853 27.451-85.405z"/></g><g><path class="st1" d="M384.164 150.155s45.752 12.963 46.515 62.528-16.013-32.79-46.515-62.528z"/></g><g><path class="st2" d="M95.156 408.159s-21.379 29.205-63.15 18.706 22.852-36.958 63.15-18.706z"/><path d="M49.582 431.082c-5.515 0-11.538-.68-18.053-2.317-8.962-2.252-13.963-5.463-14.865-9.542-.44-1.987-.09-5.064 4.073-8.441 12.257-9.944 49.247-16.176 75.227-4.408l2.198.996-1.426 1.946c-.228.313-5.717 7.712-16.525 13.838-7.032 3.986-17.349 7.928-30.63 7.928zm13.428-27.156c-16.943 0-32.933 4.324-39.804 9.899-1.18.956-3.1 2.819-2.716 4.552.252 1.138 1.924 4.057 11.994 6.588 16.75 4.21 32.106 2.483 45.64-5.133 6.904-3.885 11.55-8.401 13.826-10.906-8.897-3.535-19.08-5-28.94-5z"/><path class="st3" d="M95.156 408.159s-41.421 12.233-55.791 9.27"/><path d="M94.635 406.27c-4.87 1.437-9.792 2.715-14.722 3.926a312.006 312.006 0 01-13.838 3.09c-4.684.928-9.353 1.731-13.886 2.21-2.324.246-4.66.42-6.998.436a37.905 37.905 0 01-3.019-.091c-.454-.033-.907-.08-1.36-.134-.283-.034.368.056.091.011l-.348-.054a19.536 19.536 0 01-.67-.124c-1.036-.21-2.116.298-2.41 1.369-.265.966.327 2.2 1.369 2.41 3.735.754 7.62.602 11.395.282 4.863-.412 9.699-1.18 14.494-2.076 8.625-1.614 17.168-3.684 25.634-5.986a256.09 256.09 0 005.31-1.49c2.413-.713 1.386-4.496-1.042-3.78z"/><g><path class="st2" d="M56.92 375.812s-30.98-18.714-24.214-61.25 38.833 19.496 24.214 61.25z"/><path d="M57.972 378.736l-2.065-1.248c-.331-.2-8.187-5.013-15.244-15.237-6.498-9.415-13.49-25.383-9.892-47.996 1.452-9.125 4.207-14.391 8.19-15.65 1.942-.614 5.037-.537 8.769 3.31 10.988 11.331 20.465 47.624 11.039 74.544l-.797 2.277zm-17.168-76.494c-.224 0-.445.03-.661.1-1.111.35-3.871 2.274-5.502 12.528-5.463 34.34 14.598 52.754 21.233 57.811 7.432-24.937-1.213-57.99-10.957-68.037-.922-.951-2.58-2.402-4.113-2.402z"/><g><path class="st3" d="M56.92 375.812s-15.846-40.178-14.165-54.754"/><path d="M58.809 375.29c-1.875-4.755-3.593-9.576-5.245-14.413-3.081-9.024-5.973-18.195-7.812-27.563a86.724 86.724 0 01-.759-4.456c-.009-.062-.051-.388-.006-.044a56.216 56.216 0 01-.234-2.088c-.172-1.881-.248-3.786-.04-5.668.118-1.053-.983-1.959-1.958-1.959-1.157 0-1.842.903-1.96 1.96-.418 3.769.172 7.662.82 11.37.817 4.675 1.981 9.287 3.265 13.853 2.364 8.41 5.169 16.7 8.196 24.894.637 1.724 1.28 3.446 1.954 5.157.388.983 1.312 1.67 2.41 1.368.938-.258 1.76-1.42 1.369-2.41z"/></g></g><g><path class="st2" d="M137.549 431.65s-27.603-23.41-14.146-64.324 35.231 25.433 14.146 64.324z"/><path d="M138.121 434.705l-1.84-1.561c-.294-.25-7.283-6.254-12.62-17.471-4.916-10.33-9.273-27.209-2.12-48.96 2.888-8.777 6.448-13.536 10.581-14.145 2.014-.293 5.058.274 8.129 4.666 9.042 12.936 12.615 50.275-.98 75.35l-1.15 2.12zM133 356.423c-.102 0-.204.007-.306.023-1.153.169-4.184 1.628-7.428 11.492-5.397 16.407-4.772 31.847 1.858 45.89 3.382 7.165 7.554 12.12 9.89 14.57 11.314-23.436 8.045-57.447.026-68.918-.819-1.172-2.393-3.057-4.04-3.057z"/><g><path class="st3" d="M137.549 431.65s-9.242-42.189-5.26-56.31"/><path d="M139.438 431.13c-1.085-4.96-2.008-9.961-2.864-14.965-1.597-9.343-2.946-18.493-3.268-28.036-.08-2.335-.087-4.678.065-7.011.034-.518.076-1.035.128-1.551.025-.247.055-.493.083-.74.043-.377.002-.027-.008.042l.056-.39c.134-.883.31-1.758.548-2.619.675-2.433-3.104-3.472-3.779-1.041-1.013 3.654-1.108 7.584-1.058 11.352.062 4.783.483 9.56 1.029 14.31 1.014 8.815 2.472 17.582 4.182 26.288.354 1.803.715 3.606 1.108 5.402.539 2.462 4.317 1.42 3.778-1.042z"/></g></g><g><path d="M171.504 449.333a462.226 462.226 0 01-37.465-19.338 466.292 466.292 0 01-35.287-22.474 463.07 463.07 0 01-33.24-25.656 466.623 466.623 0 01-30.799-28.556 461.194 461.194 0 01-31.385-35.285c-.663-.826-2.08-.69-2.771 0-.817.817-.665 1.943 0 2.771a462.083 462.083 0 0027.848 31.656 466.3 466.3 0 0030.61 28.996 474.149 474.149 0 0033.229 26.237 466.8 466.8 0 0035.298 23.06 461.49 461.49 0 0041.985 21.973c.96.442 2.11.273 2.68-.703.494-.844.263-2.237-.703-2.68z"/></g></g></g><g><path class="st2" d="M561.815 494.647v-20.125h-13.748v20.125H526.17V445.17h21.897v12.943h13.748v-12.943h21.893v49.478z"/><path d="M581.955 446.924v45.967h-18.387V472.77h-17.256v20.12h-18.388v-45.966h18.388v12.942h17.256v-12.942h18.387m3.51-3.508h-25.406V456.357h-10.238V443.416h-25.406V496.4h25.406V476.279h10.238V496.4h25.406v-52.984z"/><path class="st2" d="M637.59 494.647l-2.74-7.661h-16.727l-2.74 7.661h-21.908l19.395-49.478h27.233l19.404 49.478H637.59zm-8.031-22.46l-3.107-8.675-3.088 8.676h6.195z"/><path d="M638.906 446.924l18.027 45.967h-18.109l-2.739-7.66h-19.197l-2.739 7.66h-18.103l18.02-45.967h24.84M620.88 473.94h11.17l-5.604-15.648-5.566 15.648m20.42-30.524h-29.626l-.874 2.228-18.021 45.966-1.878 4.79H616.621l.832-2.328 1.907-5.333h14.254l1.907 5.333.832 2.328h25.725l-1.878-4.79-18.027-45.967-.874-2.227zm-15.448 27.015l.605-1.701.61 1.701h-1.215z"/><path class="st2" d="M667.657 494.647V445.17h43.247c8.279 0 14.291 5.587 14.291 13.285v9.393c0 7.699-6.012 13.286-14.29 13.286h-21.35v13.514h-21.898zm34.334-29.518c1.914 0 1.914-.777 1.914-1.151v-1.65c0-.374 0-1.15-1.914-1.15h-12.436v3.951h12.436z"/><path d="M710.905 446.924c7.255 0 12.537 4.834 12.537 11.532v9.393c0 6.692-5.282 11.531-12.537 11.531h-23.107v13.51H669.41v-45.966h41.495m-23.107 19.957h14.194c2.335 0 3.669-1.05 3.669-2.903v-1.651c0-1.854-1.334-2.904-3.669-2.904h-14.194v7.458m23.107-23.465h-45.003V496.4h25.405v-13.51h19.598c9.147 0 16.046-6.467 16.046-15.041v-9.393c0-8.575-6.899-15.04-16.046-15.04zm-19.598 19.516h10.685c.058 0 .111.001.16.003v.434c-.049.002-.102.004-.16.004h-10.685v-.44z"/><path class="st2" d="M735.776 494.647V445.17h43.252c8.278 0 14.29 5.587 14.29 13.285v9.393c0 7.699-6.012 13.286-14.29 13.286h-21.354v13.514h-21.898zm34.338-29.518c1.915 0 1.915-.777 1.915-1.151v-1.65c0-.374 0-1.15-1.915-1.15h-12.44v3.951h12.44z"/><path d="M779.026 446.924c7.256 0 12.537 4.834 12.537 11.532v9.393c0 6.692-5.282 11.531-12.537 11.531h-23.107v13.51h-18.387v-45.966h41.494m-23.107 19.957h14.195c2.34 0 3.668-1.05 3.668-2.903v-1.651c0-1.854-1.328-2.904-3.668-2.904h-14.195v7.458m23.107-23.465h-45.003V496.4h25.406v-13.51h19.597c9.148 0 16.046-6.467 16.046-15.041v-9.393c0-8.575-6.898-15.04-16.046-15.04zm-19.598 19.516h10.686c.057 0 .11.001.16.003v.434c-.05.002-.103.004-.16.004h-10.686v-.44z"/><path class="st2" d="M815.07 494.647v-16.333l-20.637-33.145h22.195l9.389 17.721 9.384-17.721h22.204l-20.637 33.145v16.333z"/><path d="M854.446 446.924l-19.235 30.887v15.08h-18.387v-15.08l-19.236-30.887h17.984l10.443 19.717 10.443-19.717h17.988m6.319-3.508H834.346l-.989 1.866-7.342 13.863-7.343-13.863-.988-1.866H791.27l3.34 5.363 18.705 30.035V496.4h25.406v-17.586l18.704-30.035 3.34-5.363z"/><path class="st2" d="M901.331 494.647v-33.063h-16.817v-16.415h55.528v16.415h-16.813v33.063z"/><path d="M938.287 446.924v12.904h-16.813v33.063h-18.387v-33.063h-16.819v-12.904h52.02m3.508-3.508H882.76v19.921h16.819V496.4h25.406v-33.063H941.796v-19.921z"/><path class="st2" d="M986.67 494.647v-20.125h-13.747v20.125H951.03V445.17h21.893v12.943h13.747v-12.943h21.898v49.478z"/><path d="M1006.813 446.924v45.967h-18.387V472.77H971.17v20.12h-18.388v-45.966h18.388v12.942h17.256v-12.942h18.387m3.51-3.508h-25.406V456.357H974.68V443.416H949.273V496.4h25.406V476.279h10.238V496.4h25.406v-52.984z"/><path class="st2" d="M1062.45 494.647l-2.74-7.661h-16.727l-2.736 7.661h-21.916l19.398-49.478h27.234l19.399 49.478h-21.911zm-8.031-22.46l-3.112-8.675-3.083 8.676h6.195z"/><path d="M1063.765 446.924l18.027 45.967h-18.11l-2.739-7.66h-19.197l-2.739 7.66h-18.103l18.02-45.967h24.84m-18.026 27.016h11.17l-5.604-15.648-5.566 15.648m20.42-30.524h-29.626l-.874 2.228-18.021 45.966-1.878 4.79h25.72l.832-2.328 1.907-5.333h14.254l1.907 5.333.832 2.328h25.725l-1.878-4.79-18.027-45.967-.874-2.227zm-15.448 27.015l.605-1.701.61 1.701h-1.215z"/><path class="st2" d="M1127.353 494.647l-14.556-22.112v22.112h-20.285V445.17h22.707l14.597 22.45v-22.45h20.239v49.478z"/><path d="M1148.3 446.924v45.967h-20l-17.257-26.212v26.212h-16.774v-45.967h20l17.3 26.611v-26.61h16.73m3.51-3.51H1128.06v18.286l-10.85-16.69-1.037-1.595h-25.414V496.4h23.793V478.39l10.816 16.43 1.04 1.58H1151.81v-52.984z"/><g><path class="st2" d="M1203.244 494.647l-12.423-16.694h-2.243v16.694h-21.893V445.17h21.893v16.104l12.258-16.104h24.662l-18.056 21.966 20.678 27.512z"/><path d="M1221.785 446.924l-16.572 20.16 19.393 25.807h-20.481l-12.423-16.693h-4.877v16.693h-18.388v-45.967h18.388v19.553l14.878-19.553h20.082m7.427-3.508h-29.249l-1.053 1.384-8.576 11.271V443.416h-25.406V496.4h25.406v-16.163l10.976 14.749 1.052 1.414h29.27l-4.22-5.617-17.737-23.602 14.82-18.028 4.717-5.737z"/></g><g><path class="st2" d="M1244.983 494.647c-6.88 0-11.874-4.4-11.874-10.467v-2.448l12.998-4.55c-7.607-.554-12.998-5.95-12.998-13.24v-8.311c0-6.063 4.962-10.462 11.8-10.462h33.869c6.885 0 11.878 4.4 11.878 10.462v2.453l-13.002 4.55c7.607.553 13.002 5.949 13.002 13.24v8.306c0 6.068-4.961 10.467-11.8 10.467h-33.873zm9.622-15.387c0 .37 0 1.147 1.914 1.147h10.686c1.914 0 1.914-.777 1.914-1.147v-.886c0-.37 0-1.147-1.914-1.147h-12.6v2.033zm1.955-19.86c-1.914 0-1.914.777-1.914 1.151v.887c0 .374 0 1.15 1.914 1.15h12.605v-2.037c0-.374 0-1.151-1.923-1.151h-10.682z"/><path d="M1278.78 446.924c5.883 0 10.12 3.67 10.12 8.705v1.214l-17.983 6.287v-2.58c0-1.854-1.334-2.904-3.674-2.904h-10.684c-2.34 0-3.668 1.05-3.668 2.904v.885c0 1.86 1.328 2.91 3.668 2.91h19.799c7.26 0 12.542 4.833 12.542 11.53v8.306c0 5.041-4.237 8.71-10.044 8.71h-33.872c-5.883 0-10.12-3.669-10.12-8.71v-1.208l17.988-6.294v2.581c0 1.859 1.329 2.903 3.669 2.903h10.684c2.34 0 3.668-1.044 3.668-2.903v-.886c0-1.853-1.328-2.903-3.668-2.903h-19.798c-7.262 0-12.543-4.839-12.543-11.531v-8.311c0-5.036 4.193-8.705 10.044-8.705h33.872m0-3.508h-33.872c-7.727 0-13.553 5.25-13.553 12.213v8.31c0 6.07 3.456 11.081 8.721 13.493l-6.371 2.228-2.35.823V484.18c0 6.966 5.86 12.219 13.63 12.219h33.871c7.727 0 13.553-5.253 13.553-12.22v-8.304c0-6.07-3.457-11.082-8.723-13.493l6.372-2.228 2.351-.822v-3.704c0-6.963-5.86-12.213-13.63-12.213z"/></g><g><path class="st2" d="M1315.45 494.647c-6.834 0-11.796-4.367-11.796-10.384V455.63c0-6.063 4.962-10.462 11.796-10.462h33.873c6.88 0 11.874 4.4 11.874 10.462V458l-21.492 7.526v-2.472c0-1.206-1.073-1.636-1.996-1.636h-10.563c-1.21 0-1.996.672-1.996 1.714v13.628c0 1.206 1.073 1.631 1.996 1.631h10.48c1.033 0 2.08-.503 2.08-1.631v-.827h-11.048l4.743-8.671h27.796v17c0 6.017-4.994 10.384-11.874 10.384h-33.873z"/><path d="M1349.323 446.924c5.89 0 10.121 3.67 10.121 8.705v1.132l-17.983 6.293c0-1.98-1.575-3.39-3.75-3.39h-10.565c-2.181 0-3.75 1.454-3.75 3.466v13.631c0 1.974 1.569 3.385 3.75 3.385h10.482c2.22 0 3.833-1.41 3.833-3.385v-2.58h-9.842l2.821-5.162h25.004v15.244c0 4.997-4.232 8.628-10.12 8.628h-33.873c-5.806 0-10.044-3.63-10.044-8.628v-28.634c0-5.036 4.238-8.705 10.044-8.705h33.872m0-3.508h-33.872c-7.726 0-13.552 5.25-13.552 12.213v28.634c0 6.919 5.826 12.137 13.552 12.137h33.872c7.77 0 13.63-5.218 13.63-12.137V465.51h-17.889l15.539-5.438 2.35-.822V455.63c0-6.963-5.86-12.213-13.63-12.213zm-22.39 19.767c.043 0 .117-.01.213-.01h10.564c.213 0 .33.045.357.062v2.275h-5.707l-.999 1.826-2.82 5.162-1.747 3.195.11-12.513a.115.115 0 00.028.003z"/></g><g><path class="st2" d="M1376.214 445.169h21.898v49.479h-21.898z"/><path d="M1396.356 446.924v45.967h-18.387v-45.967h18.387m3.509-3.508h-25.406V496.4h25.406v-52.984z"/></g><g><path class="st2" d="M1425.263 494.647l-19.394-49.478h21.912l10.663 30.002 10.736-30.002h21.912l-19.399 49.478z"/><path d="M1468.518 446.924l-18.021 45.967h-24.036l-18.021-45.967h18.103l11.898 33.468 11.974-33.468h18.103m5.144-3.508h-25.718l-.833 2.326-8.66 24.204-8.602-24.197-.83-2.333h-25.724l1.878 4.789 18.021 45.966.874 2.229H1452.89l.873-2.229 18.022-45.966 1.877-4.79z"/></g><g><path class="st2" d="M1480.051 445.169h21.898v49.479h-21.898z"/><path d="M1500.192 446.924v45.967h-18.387v-45.967h18.387m3.509-3.508h-25.406V496.4h25.406v-52.984z"/></g><g><path class="st2" d="M1553.424 494.647l-14.556-22.112v22.112h-20.28V445.17h22.701l14.597 22.45v-22.45h20.24v49.478z"/><path d="M1574.372 446.924v45.967h-20l-17.257-26.212v26.212h-16.774v-45.967h20l17.3 26.611v-26.61h16.73m3.51-3.51h-23.75V461.7l-10.848-16.688-1.038-1.596h-25.414V496.4H1540.626V478.39l10.815 16.43 1.04 1.58H1577.881v-52.984z"/></g><g><path class="st2" d="M1603.341 494.647c-6.835 0-11.796-4.367-11.796-10.384V455.63c0-6.063 4.961-10.462 11.796-10.462h33.872c6.88 0 11.874 4.4 11.874 10.462V458l-21.49 7.526v-2.472c0-1.206-1.074-1.636-1.997-1.636h-10.568c-1.21 0-1.996.672-1.996 1.714v13.628c0 1.206 1.074 1.631 1.996 1.631h10.486c1.032 0 2.078-.503 2.078-1.631v-.827h-11.051l4.751-8.671h27.791v17c0 6.017-4.993 10.384-11.874 10.384h-33.872z"/><path d="M1637.211 446.924c5.89 0 10.121 3.67 10.121 8.705v1.132l-17.983 6.293c0-1.98-1.575-3.39-3.75-3.39h-10.564c-2.182 0-3.751 1.454-3.751 3.466v13.631c0 1.974 1.57 3.385 3.75 3.385h10.482c2.22 0 3.833-1.41 3.833-3.385v-2.58h-9.842l2.827-5.162h24.998v15.244c0 4.997-4.232 8.628-10.12 8.628h-33.873c-5.806 0-10.038-3.63-10.038-8.628v-28.634c0-5.036 4.232-8.705 10.038-8.705h33.872m0-3.508h-33.872c-7.723 0-13.547 5.25-13.547 12.213v28.634c0 6.919 5.824 12.137 13.547 12.137h33.872c7.77 0 13.63-5.218 13.63-12.137V465.51h-17.889l15.54-5.438 2.349-.822V455.63c0-6.963-5.86-12.213-13.63-12.213zm-22.39 19.767c.043 0 .118-.01.214-.01h10.563c.213 0 .33.045.357.062v2.275h-5.7l-.999 1.824-2.826 5.161-1.748 3.191.11-12.506a.117.117 0 00.029.003z"/></g></g></svg>