<?xml version="1.0" encoding="utf-8"?>
<!-- Generator: Adobe Illustrator 26.0.1, SVG Export Plug-In . SVG Version: 6.00 Build 0)  -->
<svg version="1.1" id="Layer_1" xmlns="http://www.w3.org/2000/svg" xmlns:xlink="http://www.w3.org/1999/xlink" x="0px" y="0px"
	 viewBox="0 0 258.71301 190.7439" style="enable-background:new 0 0 258.71301 190.7439;" xml:space="preserve">
<style type="text/css">
	.st0{fill:none;}
	.st1{fill:#FF00C9;}
	.st2{fill:#00E09B;}
	.st3{fill:#00AF75;}
	.st4{fill:#00FFAA;}
</style>
<g>
	<path class="st0" d="M79.18677,147.66235l-1.52344,0.26855v12.46484l1.52344-0.26855
		c0.40527-0.07129,0.75879-0.2832,1.05664-0.63721c0.29785-0.35352,0.44727-0.74609,0.44727-1.17871v-9.34375
		c0-0.43164-0.14941-0.77539-0.44727-1.03027C79.94556,147.68286,79.59204,147.59106,79.18677,147.66235z"/>
	<path class="st0" d="M79.18677,163.24927l-1.52344,0.26855v6.24219l1.52344-0.26855
		c0.40527-0.07129,0.75879-0.28711,1.05664-0.64697c0.29785-0.36035,0.44727-0.75684,0.44727-1.18848v-3.12109
		c0-0.41895-0.14941-0.75586-0.44727-1.01074C79.94556,163.2688,79.59204,163.17798,79.18677,163.24927z"/>
	<path class="st0" d="M95.06079,143.52856c0.0498-0.00879,0.09766-0.03711,0.14258-0.08398
		c0.04395-0.04688,0.06641-0.10352,0.06641-0.16895s-0.02246-0.11426-0.06641-0.14551
		c-0.04492-0.03125-0.09277-0.04199-0.14258-0.0332l-6.05469,1.06738c-0.06348,0.01172-0.11426,0.04004-0.15234,0.08545
		c-0.03809,0.0459-0.05664,0.10205-0.05664,0.16748v24.93066c0,0.06543,0.01855,0.11475,0.05664,0.14697
		c0.03809,0.03271,0.08887,0.04346,0.15234,0.03174l6.05469-1.06738c0.0498-0.00879,0.09766-0.03711,0.14258-0.08398
		c0.04395-0.04688,0.06641-0.10352,0.06641-0.16895s-0.02246-0.11426-0.06641-0.14551
		c-0.04492-0.03125-0.09277-0.04199-0.14258-0.0332l-5.8457,1.03076v-8.91211l5.8457-1.03076
		c0.0498-0.00879,0.09766-0.04102,0.14258-0.09473c0.04395-0.05273,0.06641-0.10645,0.06641-0.1582
		c0-0.06543-0.02246-0.11719-0.06641-0.15527c-0.04492-0.03809-0.09277-0.05273-0.14258-0.04395l-5.8457,1.03076v-15.13477
		L95.06079,143.52856z"/>
	<path class="st0" d="M68.39771,171.87427c-0.5459,0.66602-1.20605,1.06738-1.98047,1.2041l-3.02637,0.5332
		c-0.06445,0.01172-0.11426,0.04004-0.15234,0.08594c-0.03809,0.04541-0.05762,0.10156-0.05762,0.16699
		s0.01953,0.11475,0.05762,0.14746c0.03809,0.03223,0.08789,0.04297,0.15234,0.03125l3.02637-0.5332
		c0.88867-0.15723,1.65039-0.61816,2.28516-1.38477c0.63379-0.76562,0.95215-1.60742,0.95215-2.52344v-21.80957
		c0-0.06543-0.02246-0.11377-0.06738-0.14502c-0.04395-0.03125-0.0918-0.04248-0.1416-0.03369
		c-0.06348,0.01123-0.11816,0.04004-0.16211,0.08691c-0.04492,0.04736-0.06738,0.104-0.06738,0.16943v15.58691
		c0,0.79785-0.27344,1.52686-0.81836,2.18506c-0.5459,0.66016-1.20605,1.05762-1.98047,1.19434
		c-0.77344,0.13623-1.43652-0.02832-1.98926-0.49414c-0.55273-0.46484-0.82812-1.09717-0.82812-1.89502v-15.58691
		c0-0.06543-0.01855-0.11475-0.05664-0.14697c-0.03906-0.03223-0.08984-0.04297-0.15234-0.03223
		c-0.06445,0.01172-0.11426,0.04004-0.15234,0.08594c-0.03809,0.04541-0.05762,0.10156-0.05762,0.16699v15.58691
		c0,0.91602,0.31738,1.64551,0.95215,2.1875c0.63379,0.54297,1.39551,0.73535,2.28418,0.5791
		c0.36914-0.06543,0.73047-0.19434,1.08594-0.3877l0.1709-0.08887c0.43164-0.28613,0.75879-0.55957,0.98047-0.82129
		c0.22266-0.26172,0.37109-0.47754,0.44727-0.64844l0.07715-0.1709c0.0127-0.02734,0.01758-0.04785,0.01758-0.06152
		c0.0127-0.00244,0.01953-0.00928,0.01953-0.02295v4.59375C69.21606,170.47729,68.94263,171.20923,68.39771,171.87427z"/>
	<path class="st0" d="M79.18677,145.89575l-3.02734,0.53369c-0.06445,0.01172-0.11816,0.04053-0.16211,0.0874
		s-0.06641,0.10352-0.06641,0.16895v24.93066c0,0.06543,0.02246,0.11426,0.06641,0.14551s0.09766,0.0415,0.16211,0.02979
		l3.02734-0.53369c0.88867-0.15625,1.65039-0.61816,2.28516-1.38428s0.95215-1.60693,0.95215-2.52295v-3.12109
		c0-0.6416-0.17285-1.20703-0.51465-1.69678c-0.02637-0.03467-0.05664-0.07471-0.0957-0.11963
		c-0.03809-0.0459-0.07617-0.08545-0.11426-0.11768c-0.12695-0.13477-0.32031-0.29736-0.58008-0.48682
		c-0.26074-0.18945-0.50488-0.29639-0.7334-0.32178l-0.01855,0.00342c0-0.01367,0.00586-0.02148,0.01855-0.02393
		c0.22852-0.10449,0.46582-0.28809,0.71387-0.54785c0.24805-0.25928,0.44043-0.48584,0.58008-0.68115
		c0.08984-0.10645,0.19727-0.28271,0.32422-0.52783c0.2793-0.56006,0.41992-1.12744,0.41992-1.70361v-9.34375
		c0-0.92871-0.31738-1.66211-0.95215-2.19775C80.83716,145.92798,80.07544,145.7395,79.18677,145.89575z M81.17603,162.427
		c0.54004,0.45459,0.80859,1.08105,0.80859,1.87988v3.12109c0,0.79785-0.27246,1.5293-0.81836,2.19482
		s-1.20605,1.06738-1.97949,1.20361l-2.81836,0.49707v-8.91211l2.81836-0.49707
		C79.9729,161.802,80.63696,161.97241,81.17603,162.427z M81.98462,158.08325c0,0.79883-0.27246,1.52734-0.81836,2.18604
		s-1.20605,1.05664-1.97949,1.19287l-2.81836,0.49707v-15.13477l2.81836-0.49707c0.77344-0.13623,1.43359,0.03223,1.97949,0.50439
		c0.5459,0.47314,0.81836,1.10986,0.81836,1.90771V158.08325z"/>
	<path class="st0" d="M104.21216,141.48315l-3.02734,0.53369c-0.05078,0.00928-0.09766,0.03711-0.14355,0.08398
		c-0.04395,0.04688-0.06543,0.10352-0.06543,0.16895v24.93066c0,0.06543,0.02148,0.11426,0.06543,0.14551
		c0.0459,0.03125,0.09277,0.04248,0.14355,0.0332c0.06348-0.01123,0.11719-0.04004,0.16211-0.08691
		c0.04395-0.04688,0.06738-0.10352,0.06738-0.16895v-9.12793l2.79785-0.49365c0.7998-0.11475,1.46582,0.05518,1.99902,0.51074
		c0.53223,0.45605,0.7998,1.08252,0.7998,1.88135v6.24219c0,0.06543,0.02246,0.11426,0.06641,0.14551
		s0.09863,0.0415,0.16211,0.03027c0.05078-0.00879,0.09766-0.03711,0.14258-0.08398s0.06641-0.10352,0.06641-0.16895v-6.24219
		c0-0.81152-0.27246-1.50244-0.81836-2.07422l-0.78027-0.74512l0.78027-1.04102c0.5459-0.75049,0.81836-1.53809,0.81836-2.36328
		v-9.34375c0-0.92871-0.31738-1.66162-0.95215-2.19727C105.86157,141.51538,105.09985,141.32642,104.21216,141.48315z
		 M107.01099,153.67017c0,0.79883-0.27246,1.52783-0.81934,2.18652c-0.54492,0.65869-1.20605,1.05664-1.97949,1.19287
		l-2.79785,0.49365v-15.13477l2.79785-0.49365c0.77344-0.13623,1.43457,0.03223,1.97949,0.50439
		c0.54688,0.47314,0.81934,1.10938,0.81934,1.90723V153.67017z"/>
	<path class="st0" d="M180.53351,24.23926l-0.85449,4.99023l8.19519-1.44434c0.5332-0.09375,0.9873-0.28711,1.42969-0.60742
		c0.50781-0.36816,0.9248-0.79785,1.27344-1.3125c0.31152-0.45996,0.49316-0.88965,0.57227-1.35156
		c0.08594-0.50488-0.00293-0.74414-0.10156-0.91211c-0.19043-0.32422-0.46875-0.54199-0.875-0.68457
		c-0.2417-0.08496-0.50458-0.1333-0.79254-0.14514s-0.60095,0.01282-0.94269,0.07385L180.53351,24.23926z"/>
	<path class="st0" d="M143.1311,134.62085c-0.88867,0.15674-1.64941,0.61377-2.28418,1.37451
		c-0.63477,0.75928-0.95215,1.60449-0.95215,2.5332v18.68848c0,0.91602,0.31738,1.64502,0.95215,2.1875
		c0.63477,0.54199,1.39551,0.73535,2.28418,0.57861s1.65039-0.61816,2.28516-1.38428
		c0.63477-0.7666,0.95215-1.60742,0.95215-2.52344v-18.68848c0-0.92871-0.31738-1.66211-0.95215-2.19727
		C144.78149,134.65308,144.01978,134.46411,143.1311,134.62085z M145.92896,137.46411v18.68848
		c0,0.79785-0.27246,1.52979-0.81836,2.19531c-0.54492,0.66504-1.20605,1.06689-1.97949,1.20361
		c-0.77441,0.13623-1.43457-0.03271-1.97949-0.50537c-0.5459-0.47314-0.81934-1.1084-0.81934-1.90625v-18.68848
		c0-0.79785,0.27344-1.53076,0.81934-2.19629c0.54492-0.66504,1.20508-1.06641,1.97949-1.20264
		c0.77344-0.13672,1.43457,0.03174,1.97949,0.50439C145.65649,136.03003,145.92896,136.66626,145.92896,137.46411z"/>
	<path class="st0" d="M56.67407,153.20239v3.10156c0,0.06543,0.02246,0.11719,0.06738,0.15527
		c0.04395,0.03809,0.0918,0.05225,0.14258,0.04297c0.06348-0.01123,0.11719-0.04297,0.16113-0.09668
		c0.0459-0.05371,0.06738-0.11328,0.06738-0.17871v-3.10156c0-0.92871-0.31738-1.66211-0.95215-2.19727
		c-0.63477-0.53662-1.39648-0.72559-2.28516-0.56885c-0.90039,0.15869-1.66504,0.6167-2.29297,1.37598
		c-0.62793,0.7583-0.94238,1.60254-0.94238,2.53125v18.68848c0,0.91602,0.31445,1.646,0.94238,2.18945
		s1.39258,0.73584,2.29297,0.57715c0.88867-0.15674,1.65039-0.61816,2.28516-1.38428
		c0.63477-0.7666,0.95215-1.60742,0.95215-2.52344v-3.12109c0-0.05273-0.02148-0.09766-0.06738-0.13574
		c-0.04395-0.03809-0.09766-0.05127-0.16113-0.04004c-0.05078,0.00928-0.09863,0.04004-0.14258,0.09375
		c-0.04492,0.05371-0.06738,0.10645-0.06738,0.15918v3.12109c0,0.79785-0.27246,1.52979-0.81836,2.19531
		c-0.54492,0.66504-1.20605,1.06689-1.98047,1.20361c-0.77344,0.13623-1.43652-0.03174-1.98828-0.50391
		s-0.82812-1.10693-0.82812-1.90479v-18.68848c0-0.79785,0.27637-1.53125,0.82812-2.19775
		c0.55176-0.66553,1.21484-1.06787,1.98828-1.2041c0.77441-0.13672,1.43555,0.03174,1.98047,0.50439
		C56.40161,151.76831,56.67407,152.40454,56.67407,153.20239z"/>
	<polygon class="st0" points="138.23663,41.23828 140.83221,40.78027 140.11804,38.05969 140.04761,37.90979 	"/>
	<path class="st0" d="M132.96899,139.74927v21.80957c0,0.06543,0.02246,0.11426,0.06738,0.14551
		c0.04395,0.03125,0.0918,0.04248,0.14258,0.03369c0.06348-0.01123,0.11719-0.04053,0.16113-0.0874
		c0.0459-0.04688,0.06738-0.10352,0.06738-0.16895v-21.80957c0-0.92871-0.31738-1.66211-0.95215-2.19727
		c-0.63477-0.53662-1.39648-0.72559-2.28516-0.56885c-0.79883,0.14111-1.52246,0.5498-2.16895,1.22607l-0.85742,0.95605
		l-0.85645-0.65332c-0.64746-0.44873-1.37109-0.60254-2.1709-0.46143c-0.88867,0.15674-1.65039,0.61426-2.28418,1.37451
		c-0.63477,0.75928-0.95215,1.60449-0.95215,2.5332v21.80957c0,0.06543,0.02246,0.11426,0.06641,0.14551
		s0.09863,0.04102,0.16211,0.03027c0.05078-0.00928,0.09766-0.03711,0.14258-0.08398s0.06641-0.10352,0.06641-0.16895v-21.80957
		c0-0.79785,0.27344-1.53076,0.81836-2.19629c0.54688-0.66455,1.20605-1.06592,1.98047-1.20264
		c0.77441-0.13623,1.43066,0.02588,1.9707,0.48682c0.53906,0.46143,0.82129,1.10205,0.84766,1.92188v21.80957
		c0,0.06543,0.01855,0.11475,0.05664,0.14697s0.08887,0.04297,0.15234,0.03174s0.11426-0.04004,0.15234-0.08545
		c0.03809-0.0459,0.05762-0.10205,0.05762-0.16748V140.7395c0.02441-0.82861,0.30664-1.56836,0.84668-2.2207
		c0.53906-0.65039,1.19629-1.04492,1.96973-1.18115c0.77441-0.13623,1.43555,0.03223,1.98047,0.50439
		C132.69653,138.31519,132.96899,138.95142,132.96899,139.74927z"/>
	<path class="st0" d="M104.21216,143.24976l-1.50391,0.26514v12.46484l1.50391-0.26514
		c0.41895-0.07373,0.77344-0.28564,1.06641-0.63916c0.29199-0.35254,0.4375-0.74414,0.4375-1.17676v-9.34375
		c0-0.43164-0.14551-0.77637-0.4375-1.03223C104.9856,143.26782,104.6311,143.17603,104.21216,143.24976z"/>
	<path class="st0" d="M158.77563,135.19897v21.80957c0,0.06543,0.02148,0.11426,0.06738,0.14551
		c0.04395,0.03125,0.09082,0.04248,0.1416,0.03369c0.06348-0.01172,0.11719-0.04053,0.16211-0.0874
		c0.04395-0.04688,0.06738-0.10352,0.06738-0.16895v-21.80957c0-0.92871-0.31836-1.66162-0.95215-2.19727
		c-0.63477-0.53662-1.40332-0.72412-2.30469-0.56543c-0.88867,0.15674-1.64941,0.61377-2.28418,1.37451
		c-0.63477,0.75928-0.95215,1.60449-0.95215,2.5332v21.80957c0,0.06543,0.02246,0.11426,0.06641,0.14551
		s0.09863,0.04102,0.16309,0.02979c0.0498-0.00879,0.09766-0.03662,0.1416-0.0835c0.04492-0.04688,0.06641-0.10352,0.06641-0.16895
		V136.1897c0-0.79785,0.27637-1.53125,0.82812-2.19824c0.55273-0.66553,1.20996-1.06641,1.9707-1.20068
		c0.77441-0.13672,1.4375,0.03174,1.99023,0.50244C158.49927,133.76538,158.77563,134.40112,158.77563,135.19897z"/>
	<path class="st0" d="M181.59204,129.60571c-0.41895,0.07373-0.77441,0.29053-1.06641,0.64893
		c-0.29102,0.35889-0.4375,0.75488-0.4375,1.18652v10.89453l3.02734-0.53369v-10.89453c0-0.43164-0.14941-0.77539-0.44824-1.03076
		C182.36938,129.6228,182.01099,129.53149,181.59204,129.60571z"/>
	<path class="st0" d="M196.47583,149.29077c-0.5459,0.66553-1.20605,1.06689-1.98047,1.20361l-3.02637,0.53369
		c-0.06445,0.01123-0.11426,0.03955-0.15234,0.08545s-0.05664,0.10156-0.05664,0.16699s0.01855,0.11523,0.05664,0.14746
		s0.08789,0.04297,0.15234,0.03174l3.02637-0.53369c0.88867-0.15674,1.65039-0.61816,2.28516-1.38428
		c0.63379-0.76611,0.95215-1.60742,0.95215-2.52344v-21.80957c0-0.06543-0.02246-0.11426-0.06738-0.14551
		c-0.04395-0.03125-0.0918-0.04248-0.1416-0.03369c-0.06348,0.01172-0.11816,0.04053-0.16211,0.0874
		c-0.04492,0.04688-0.06738,0.10352-0.06738,0.16895v15.58691c0,0.79785-0.27246,1.52686-0.81836,2.18555
		c-0.5459,0.65967-1.20605,1.05713-1.98047,1.19385c-0.77344,0.13672-1.43652-0.02783-1.98926-0.49414
		c-0.55176-0.46484-0.82812-1.09668-0.82812-1.89453v-15.58691c0-0.06543-0.01855-0.11523-0.05664-0.14746
		c-0.03906-0.03223-0.08984-0.04297-0.15234-0.03174c-0.06445,0.01123-0.11426,0.03955-0.15234,0.08545
		s-0.05664,0.10156-0.05664,0.16699v15.58691c0,0.91602,0.31738,1.64551,0.95117,2.18799s1.39551,0.73535,2.28418,0.57861
		c0.36914-0.06494,0.73047-0.19434,1.08594-0.3877l0.17188-0.08887c0.43066-0.28613,0.75781-0.55957,0.97949-0.82129
		c0.22266-0.26172,0.37109-0.47754,0.44727-0.64844l0.07715-0.17041c0.0127-0.02783,0.01855-0.04834,0.01855-0.06201
		c0.01172-0.00195,0.01855-0.00928,0.01855-0.02295v4.59375C197.29419,147.89331,197.02173,148.62524,196.47583,149.29077z"/>
	<path class="st0" d="M184.4104,152.48853c0,0.06543,0.01855,0.11475,0.05664,0.14746
		c0.03809,0.03223,0.08789,0.04297,0.15234,0.03125c0.0625-0.01074,0.11426-0.03955,0.15234-0.08496
		c0.03809-0.0459,0.05664-0.10205,0.05664-0.16748v-21.80957c0-0.92871-0.31348-1.6626-0.94238-2.19922
		c-0.62793-0.5376-1.39258-0.72607-2.29395-0.56689c-0.88867,0.15625-1.65039,0.61426-2.28516,1.37451
		c-0.63477,0.75928-0.95117,1.604-0.95117,2.53271v21.80957c0,0.06543,0.02148,0.11426,0.06641,0.14551
		s0.09863,0.0415,0.16211,0.03027c0.05078-0.00879,0.09766-0.03711,0.14258-0.08398s0.06641-0.10352,0.06641-0.16895v-9.12793
		l5.61719-0.99023V152.48853z M178.79321,143.89868v-12.22949c0-0.79785,0.27344-1.53027,0.81836-2.1958
		c0.5459-0.66455,1.20605-1.06641,1.98047-1.20264c0.77441-0.13672,1.43848,0.03125,1.99023,0.50244
		c0.55176,0.47217,0.82812,1.10791,0.82812,1.90576v12.22949L178.79321,143.89868z"/>
	<path class="st0" d="M156.16449,87.70935c0.5332-0.09375,0.9873-0.28711,1.42969-0.60742
		c0.25391-0.18408,0.48505-0.38348,0.69635-0.60126s0.40271-0.45386,0.57703-0.71118
		c0.31152-0.45996,0.49316-0.88965,0.57129-1.35156c0.08691-0.50488-0.00195-0.74414-0.10156-0.91211
		c-0.18945-0.32422-0.4668-0.54199-0.87402-0.68457c-0.48242-0.16992-1.0498-0.19336-1.73535-0.07129l-7.90424,1.39355
		l-0.85449,4.99017L156.16449,87.70935z"/>
	<path class="st0" d="M143.1311,136.38745c-0.41895,0.07373-0.77441,0.29053-1.06543,0.64893
		c-0.29297,0.35889-0.43945,0.75488-0.43945,1.18652v18.68848c0,0.43164,0.14648,0.77588,0.43945,1.03223
		c0.29102,0.25586,0.64648,0.34668,1.06543,0.27295c0.41895-0.07422,0.77344-0.29004,1.06641-0.64893
		c0.29102-0.35938,0.4375-0.75488,0.4375-1.18652v-18.68848c0-0.43164-0.14648-0.77637-0.4375-1.03223
		C143.90454,136.40503,143.55005,136.31323,143.1311,136.38745z"/>
	<path class="st0" d="M169.802,153.05249c0.29883-0.35986,0.44824-0.75684,0.44824-1.18848v-18.68848
		c0-0.43164-0.14941-0.7749-0.44824-1.03027c-0.29785-0.25391-0.65625-0.34521-1.0752-0.271l-1.50391,0.26465v21.8291
		l1.50391-0.26465C169.14575,153.62915,169.50415,153.41284,169.802,153.05249z"/>
	<path class="st0" d="M165.71899,156.00024l3.00781-0.53027c0.90137-0.15918,1.66602-0.62109,2.29395-1.38623
		c0.62891-0.76514,0.94238-1.60547,0.94238-2.52148v-18.68848c0-0.92871-0.31348-1.6626-0.94238-2.19922
		c-0.62793-0.5376-1.39258-0.72607-2.29395-0.56689l-3.00781,0.53027c-0.06348,0.01123-0.11719,0.04004-0.16211,0.08691
		s-0.06543,0.10352-0.06543,0.16895v24.93066c0,0.06543,0.02051,0.11426,0.06543,0.14551S165.65552,156.01147,165.71899,156.00024z
		 M165.92896,131.03247l2.79785-0.49316c0.77441-0.13672,1.43848,0.03125,1.99023,0.50244
		c0.55176,0.47217,0.82812,1.10791,0.82812,1.90576v18.68848c0,0.79785-0.27637,1.53027-0.82812,2.19678
		s-1.21582,1.06885-1.99023,1.20557l-2.79785,0.49316V131.03247z"/>
	<path class="st1" d="M55.82837,157.56274c0.29688,0.25488,0.64941,0.34619,1.05566,0.27441
		c0.41895-0.07373,0.77734-0.29004,1.07617-0.65039c0.29785-0.36035,0.44727-0.75684,0.44727-1.18848v-3.10156
		c0-1.2959-0.44434-2.31934-1.33301-3.07227s-1.9541-1.02002-3.19922-0.80029c-1.25586,0.22119-2.3252,0.86475-3.20703,1.92969
		c-0.88281,1.06592-1.32324,2.24512-1.32324,3.54102v18.68848c0,1.2959,0.44043,2.3208,1.32324,3.07422
		c0.88184,0.75439,1.95117,1.02002,3.20703,0.79883c1.24512-0.21973,2.31055-0.86182,3.19922-1.92822
		s1.33301-2.24707,1.33301-3.54297v-3.12109c0-0.41895-0.14941-0.75586-0.44727-1.01074
		c-0.29883-0.25488-0.65723-0.34521-1.07617-0.27148c-0.40625,0.07178-0.75879,0.28711-1.05566,0.64746
		c-0.2998,0.36035-0.44824,0.75-0.44824,1.16895v3.12109c0,0.43164-0.14648,0.82715-0.4375,1.18652
		c-0.29297,0.35889-0.64746,0.57471-1.06738,0.64893c-0.41797,0.07373-0.77637-0.0166-1.0752-0.27148
		c-0.29785-0.25537-0.44727-0.59912-0.44727-1.03076v-18.68848c0-0.43164,0.14941-0.82812,0.44727-1.18799
		c0.29883-0.35938,0.65723-0.57666,1.0752-0.65039c0.41992-0.07422,0.77441,0.01758,1.06738,0.27295
		c0.29102,0.25586,0.4375,0.60059,0.4375,1.03223v3.10156C55.38013,156.96411,55.52856,157.30786,55.82837,157.56274z
		 M53.87524,150.79077c-0.77344,0.13623-1.43652,0.53857-1.98828,1.2041c-0.55176,0.6665-0.82812,1.3999-0.82812,2.19775v18.68848
		c0,0.79785,0.27637,1.43262,0.82812,1.90479s1.21484,0.64014,1.98828,0.50391c0.77441-0.13672,1.43555-0.53857,1.98047-1.20361
		c0.5459-0.66553,0.81836-1.39746,0.81836-2.19531v-3.12109c0-0.05273,0.02246-0.10547,0.06738-0.15918
		c0.04395-0.05371,0.0918-0.08447,0.14258-0.09375c0.06348-0.01123,0.11719,0.00195,0.16113,0.04004
		c0.0459,0.03809,0.06738,0.08301,0.06738,0.13574v3.12109c0,0.91602-0.31738,1.75684-0.95215,2.52344
		c-0.63477,0.76611-1.39648,1.22754-2.28516,1.38428c-0.90039,0.15869-1.66504-0.03369-2.29297-0.57715
		s-0.94238-1.27344-0.94238-2.18945v-18.68848c0-0.92871,0.31445-1.77295,0.94238-2.53125
		c0.62793-0.75928,1.39258-1.21729,2.29297-1.37598c0.88867-0.15674,1.65039,0.03223,2.28516,0.56885
		c0.63477,0.53516,0.95215,1.26855,0.95215,2.19727v3.10156c0,0.06543-0.02148,0.125-0.06738,0.17871
		c-0.04395,0.05371-0.09766,0.08545-0.16113,0.09668c-0.05078,0.00928-0.09863-0.00488-0.14258-0.04297
		c-0.04492-0.03809-0.06738-0.08984-0.06738-0.15527v-3.10156c0-0.79785-0.27246-1.43408-0.81836-1.90723
		C55.31079,150.82251,54.64966,150.65405,53.87524,150.79077z"/>
	<path class="st1" d="M67.48364,171.09399c-0.29199,0.35938-0.64648,0.5752-1.06641,0.64941l-3.02637,0.5332
		c-0.41895,0.07422-0.77539,0.28711-1.06641,0.63965c-0.29199,0.35303-0.4375,0.74512-0.4375,1.17676
		s0.14551,0.77295,0.4375,1.02246c0.29102,0.24902,0.64746,0.33691,1.06641,0.2627l3.02637-0.5332
		c1.24414-0.21973,2.31055-0.86182,3.19922-1.92871c0.88867-1.06543,1.33301-2.24658,1.33301-3.54248v-21.80957
		c0-0.43164-0.15039-0.77148-0.44824-1.02051c-0.29785-0.24854-0.65039-0.33643-1.05566-0.26514
		c-0.41992,0.07422-0.77832,0.2876-1.07617,0.64111c-0.29883,0.354-0.44727,0.74658-0.44727,1.17822v15.58691
		c0,0.43164-0.14648,0.82373-0.43848,1.17578c-0.29199,0.35352-0.64648,0.56641-1.06641,0.64062
		c-0.41797,0.07324-0.77637-0.01367-1.0752-0.2627c-0.29883-0.24805-0.44824-0.58789-0.44824-1.01953v-15.58691
		c0-0.43164-0.14453-0.77246-0.4375-1.02246c-0.29199-0.24951-0.64648-0.33691-1.06543-0.26367
		c-0.41895,0.07422-0.77539,0.28711-1.06641,0.63965c-0.29199,0.35303-0.4375,0.74512-0.4375,1.17676v15.58691
		c0,1.28223,0.44043,2.30371,1.32227,3.06445c0.88281,0.76025,1.95215,1.02979,3.20801,0.80859
		c0.5332-0.09424,1.03516-0.27441,1.50488-0.54102v1.82617C67.92212,170.33911,67.77563,170.73511,67.48364,171.09399z
		 M69.19653,165.10864c0,0.01367-0.00488,0.03418-0.01758,0.06152l-0.07715,0.1709c-0.07617,0.1709-0.22461,0.38672-0.44727,0.64844
		c-0.22168,0.26172-0.54883,0.53516-0.98047,0.82129l-0.1709,0.08887c-0.35547,0.19336-0.7168,0.32227-1.08594,0.3877
		c-0.88867,0.15625-1.65039-0.03613-2.28418-0.5791c-0.63477-0.54199-0.95215-1.27148-0.95215-2.1875v-15.58691
		c0-0.06543,0.01953-0.12158,0.05762-0.16699c0.03809-0.0459,0.08789-0.07422,0.15234-0.08594
		c0.0625-0.01074,0.11328,0,0.15234,0.03223c0.03809,0.03223,0.05664,0.08154,0.05664,0.14697v15.58691
		c0,0.79785,0.27539,1.43018,0.82812,1.89502c0.55273,0.46582,1.21582,0.63037,1.98926,0.49414
		c0.77441-0.13672,1.43457-0.53418,1.98047-1.19434c0.54492-0.6582,0.81836-1.38721,0.81836-2.18506v-15.58691
		c0-0.06543,0.02246-0.12207,0.06738-0.16943c0.04395-0.04688,0.09863-0.07568,0.16211-0.08691
		c0.0498-0.00879,0.09766,0.00244,0.1416,0.03369c0.04492,0.03125,0.06738,0.07959,0.06738,0.14502v21.80957
		c0,0.91602-0.31836,1.75781-0.95215,2.52344c-0.63477,0.7666-1.39648,1.22754-2.28516,1.38477l-3.02637,0.5332
		c-0.06445,0.01172-0.11426,0.00098-0.15234-0.03125c-0.03809-0.03271-0.05762-0.08203-0.05762-0.14746
		s0.01953-0.12158,0.05762-0.16699c0.03809-0.0459,0.08789-0.07422,0.15234-0.08594l3.02637-0.5332
		c0.77441-0.13672,1.43457-0.53809,1.98047-1.2041c0.54492-0.66504,0.81836-1.39697,0.81836-2.19482v-4.59375
		C69.21606,165.09937,69.20923,165.1062,69.19653,165.10864z"/>
	<path class="st1" d="M79.18677,161.91431l-2.81836,0.49707v8.91211l2.81836-0.49707
		c0.77344-0.13623,1.43359-0.53809,1.97949-1.20361s0.81836-1.39697,0.81836-2.19482v-3.12109
		c0-0.79883-0.26855-1.42529-0.80859-1.87988C80.63696,161.97241,79.9729,161.802,79.18677,161.91431z M80.69067,164.53491v3.12109
		c0,0.43164-0.14941,0.82812-0.44727,1.18848c-0.29785,0.35986-0.65137,0.57568-1.05664,0.64697l-1.52344,0.26855v-6.24219
		l1.52344-0.26855c0.40527-0.07129,0.75879,0.01953,1.05664,0.2749C80.54126,163.77905,80.69067,164.11597,80.69067,164.53491z"/>
	<path class="st1" d="M79.18677,146.32739l-2.81836,0.49707v15.13477l2.81836-0.49707
		c0.77344-0.13623,1.43359-0.53418,1.97949-1.19287s0.81836-1.38721,0.81836-2.18604v-9.34375
		c0-0.79785-0.27246-1.43457-0.81836-1.90771C80.62036,146.35962,79.96021,146.19116,79.18677,146.32739z M80.69067,158.31128
		c0,0.43262-0.14941,0.8252-0.44727,1.17871c-0.29785,0.354-0.65137,0.56592-1.05664,0.63721l-1.52344,0.26855v-12.46484
		l1.52344-0.26855c0.40527-0.07129,0.75879,0.02051,1.05664,0.2749c0.29785,0.25488,0.44727,0.59863,0.44727,1.03027V158.31128z"/>
	<path class="st1" d="M83.71802,148.43384c0-1.2959-0.44434-2.31934-1.33301-3.07275
		c-0.88867-0.75244-1.95508-1.01953-3.19824-0.80029l-3.02734,0.53369c-0.41895,0.07422-0.77734,0.2876-1.07617,0.64111
		c-0.29785,0.35449-0.44629,0.74707-0.44629,1.17871v24.93066c0,0.43164,0.14844,0.77246,0.44629,1.02051
		c0.29883,0.24805,0.65723,0.33545,1.07617,0.26123l3.02734-0.53369c1.24316-0.21924,2.30957-0.86133,3.19824-1.92822
		c0.88867-1.06592,1.33301-2.24658,1.33301-3.54248v-3.12109c0-1.19141-0.3877-2.15625-1.16211-2.89648
		c0.77441-1.02734,1.16211-2.13574,1.16211-3.32715V148.43384z M82.42407,158.0061c0,0.57617-0.14062,1.14355-0.41992,1.70361
		c-0.12695,0.24512-0.23438,0.42139-0.32422,0.52783c-0.13965,0.19531-0.33203,0.42188-0.58008,0.68115
		c-0.24805,0.25977-0.48535,0.44336-0.71387,0.54785c-0.0127,0.00244-0.01855,0.01025-0.01855,0.02393l0.01855-0.00342
		c0.22852,0.02539,0.47266,0.13232,0.7334,0.32178c0.25977,0.18945,0.45312,0.35205,0.58008,0.48682
		c0.03809,0.03223,0.07617,0.07178,0.11426,0.11768c0.03906,0.04492,0.06934,0.08496,0.0957,0.11963
		c0.3418,0.48975,0.51465,1.05518,0.51465,1.69678v3.12109c0,0.91602-0.31738,1.75684-0.95215,2.52295
		s-1.39648,1.22803-2.28516,1.38428l-3.02734,0.53369c-0.06445,0.01172-0.11816,0.00146-0.16211-0.02979
		s-0.06641-0.08008-0.06641-0.14551v-24.93066c0-0.06543,0.02246-0.12207,0.06641-0.16895s0.09766-0.07568,0.16211-0.0874
		l3.02734-0.53369c0.88867-0.15625,1.65039,0.03223,2.28516,0.56885c0.63477,0.53564,0.95215,1.26904,0.95215,2.19775V158.0061z"/>
	<path class="st1" d="M95.06079,144.86353c0.40625-0.07178,0.75781-0.28418,1.05566-0.6377
		c0.29883-0.354,0.44727-0.74658,0.44727-1.17822s-0.14844-0.77148-0.44727-1.021c-0.29785-0.24805-0.64941-0.33643-1.05566-0.26465
		l-6.05469,1.06738c-0.41895,0.07422-0.77441,0.28711-1.06641,0.63916c-0.29199,0.35352-0.43848,0.74561-0.43848,1.17725v24.93066
		c0,0.43164,0.14648,0.77295,0.43848,1.02197c0.29199,0.24951,0.64746,0.3374,1.06641,0.26318l6.05469-1.06738
		c0.40625-0.07178,0.75781-0.28418,1.05566-0.6377c0.29883-0.35303,0.44727-0.74658,0.44727-1.17822s-0.14844-0.77148-0.44727-1.021
		c-0.29785-0.24805-0.64941-0.33643-1.05566-0.26465l-4.55078,0.80225v-6.24219l4.55078-0.80225
		c0.40625-0.07178,0.75781-0.28418,1.05566-0.63867c0.29883-0.35303,0.44727-0.74561,0.44727-1.17725
		c0-0.43262-0.14844-0.77539-0.44727-1.03076c-0.29785-0.25488-0.64941-0.34717-1.05566-0.27539l-4.55078,0.80225v-12.46484
		L95.06079,144.86353z M95.06079,158.66333c0.0498-0.00879,0.09766,0.00586,0.14258,0.04395
		c0.04395,0.03809,0.06641,0.08984,0.06641,0.15527c0,0.05176-0.02246,0.10547-0.06641,0.1582
		c-0.04492,0.05371-0.09277,0.08594-0.14258,0.09473l-5.8457,1.03076v8.91211l5.8457-1.03076
		c0.0498-0.00879,0.09766,0.00195,0.14258,0.0332c0.04395,0.03125,0.06641,0.08008,0.06641,0.14551
		s-0.02246,0.12207-0.06641,0.16895c-0.04492,0.04688-0.09277,0.0752-0.14258,0.08398l-6.05469,1.06738
		c-0.06348,0.01172-0.11426,0.00098-0.15234-0.03174c-0.03809-0.03223-0.05664-0.08154-0.05664-0.14697v-24.93066
		c0-0.06543,0.01855-0.12158,0.05664-0.16748c0.03809-0.04541,0.08887-0.07373,0.15234-0.08545l6.05469-1.06738
		c0.0498-0.00879,0.09766,0.00195,0.14258,0.0332c0.04395,0.03125,0.06641,0.08008,0.06641,0.14551
		s-0.02246,0.12207-0.06641,0.16895c-0.04492,0.04688-0.09277,0.0752-0.14258,0.08398l-5.8457,1.03076v15.13477L95.06079,158.66333z
		"/>
	<path class="st1" d="M104.21216,141.91479l-2.79785,0.49365v15.13477l2.79785-0.49365
		c0.77344-0.13623,1.43457-0.53418,1.97949-1.19287c0.54688-0.65869,0.81934-1.3877,0.81934-2.18652v-9.34375
		c0-0.79785-0.27246-1.43408-0.81934-1.90723C105.64673,141.94702,104.9856,141.77856,104.21216,141.91479z M105.71606,153.89868
		c0,0.43262-0.14551,0.82422-0.4375,1.17676c-0.29297,0.35352-0.64746,0.56543-1.06641,0.63916l-1.50391,0.26514v-12.46484
		l1.50391-0.26514c0.41895-0.07373,0.77344,0.01807,1.06641,0.27295c0.29199,0.25586,0.4375,0.60059,0.4375,1.03223V153.89868z"/>
	<path class="st1" d="M108.74341,144.02124c0-1.2959-0.44141-2.31982-1.32324-3.07422
		c-0.88184-0.75391-1.95117-1.02002-3.20801-0.79883l-3.02734,0.53369c-0.41895,0.07422-0.77441,0.28711-1.06641,0.63965
		c-0.29102,0.35303-0.4375,0.74512-0.4375,1.17676v24.93066c0,0.43164,0.14648,0.77295,0.4375,1.02246
		c0.29199,0.24902,0.64746,0.33691,1.06641,0.2627c0.41895-0.07373,0.77734-0.28711,1.0752-0.64062
		c0.29883-0.35352,0.44824-0.74707,0.44824-1.17871v-7.79297l1.50391-0.26514c0.41895-0.07373,0.77344,0.01709,1.06641,0.27295
		c0.29199,0.25586,0.4375,0.59375,0.4375,1.0127v6.24219c0,0.43164,0.14844,0.77246,0.44824,1.02051
		c0.29785,0.24854,0.65625,0.33545,1.0752,0.26172c0.41895-0.07422,0.77344-0.28711,1.06641-0.63916
		c0.29102-0.35205,0.4375-0.74512,0.4375-1.17676v-6.24219c0-1.19141-0.3877-2.15625-1.16113-2.89697
		c0.77344-1.02686,1.16113-2.13525,1.16113-3.32666V144.02124z M107.44849,153.59302c0,0.8252-0.27246,1.61279-0.81836,2.36328
		l-0.78027,1.04102l0.78027,0.74512c0.5459,0.57178,0.81836,1.2627,0.81836,2.07422v6.24219
		c0,0.06543-0.02148,0.12207-0.06641,0.16895s-0.0918,0.0752-0.14258,0.08398c-0.06348,0.01123-0.11816,0.00098-0.16211-0.03027
		s-0.06641-0.08008-0.06641-0.14551v-6.24219c0-0.79883-0.26758-1.42529-0.7998-1.88135
		c-0.5332-0.45557-1.19922-0.62549-1.99902-0.51074l-2.79785,0.49365v9.12793c0,0.06543-0.02344,0.12207-0.06738,0.16895
		c-0.04492,0.04688-0.09863,0.07568-0.16211,0.08691c-0.05078,0.00928-0.09766-0.00195-0.14355-0.0332
		c-0.04395-0.03125-0.06543-0.08008-0.06543-0.14551v-24.93066c0-0.06543,0.02148-0.12207,0.06543-0.16895
		c0.0459-0.04688,0.09277-0.07471,0.14355-0.08398l3.02734-0.53369c0.8877-0.15674,1.64941,0.03223,2.28418,0.56885
		c0.63477,0.53564,0.95215,1.26855,0.95215,2.19727V153.59302z"/>
	<path class="st1" d="M132.12231,162.80786c0.29785,0.24854,0.65039,0.33643,1.05664,0.26514
		c0.41895-0.07422,0.77734-0.2876,1.07617-0.64111c0.29785-0.35352,0.44727-0.74707,0.44727-1.17871V139.4436
		c0-1.2959-0.44434-2.31885-1.33301-3.07227c-0.88867-0.75244-1.9541-1.01953-3.19922-0.80029
		c-1.16699,0.20557-2.17578,0.77637-3.02637,1.71143c-0.85059-0.63525-1.85938-0.84961-3.02734-0.64404
		c-1.24316,0.21924-2.30957,0.86279-3.19824,1.92822c-0.88867,1.06689-1.33203,2.24658-1.33203,3.54248v21.80957
		c0,0.43164,0.14844,0.77295,0.44727,1.021c0.29785,0.24805,0.65625,0.33545,1.0752,0.26172
		c0.40625-0.07178,0.75879-0.28418,1.05664-0.6377s0.44727-0.74707,0.44727-1.17871v-21.80957
		c0-0.43164,0.14551-0.82715,0.43848-1.18652c0.29102-0.35791,0.64746-0.5752,1.06543-0.64893
		c0.41895-0.07373,0.77441,0.01416,1.06641,0.26318c0.29199,0.25049,0.44434,0.59668,0.45703,1.03857v21.80957
		c0,0.43164,0.14551,0.77344,0.4375,1.02246c0.29199,0.24951,0.64746,0.33691,1.06641,0.26318s0.77441-0.28711,1.06543-0.63916
		c0.29297-0.35205,0.43848-0.74512,0.43848-1.17676v-21.80957c0.0127-0.44678,0.16504-0.84619,0.45703-1.19971
		c0.29199-0.35254,0.64746-0.56543,1.06543-0.63916c0.41992-0.07373,0.77441,0.01807,1.06738,0.27295
		c0.29102,0.25586,0.4375,0.60059,0.4375,1.03223v21.80957C131.67505,162.21899,131.82349,162.55981,132.12231,162.80786z
		 M130.17017,137.33765c-0.77344,0.13623-1.43066,0.53076-1.96973,1.18115c-0.54004,0.65234-0.82227,1.39209-0.84668,2.2207
		v21.80957c0,0.06543-0.01953,0.12158-0.05762,0.16748c-0.03809,0.04541-0.08887,0.07422-0.15234,0.08545
		s-0.11426,0.00049-0.15234-0.03174s-0.05664-0.08154-0.05664-0.14697v-21.80957c-0.02637-0.81982-0.30859-1.46045-0.84766-1.92188
		c-0.54004-0.46094-1.19629-0.62305-1.9707-0.48682c-0.77441,0.13672-1.43359,0.53809-1.98047,1.20264
		c-0.54492,0.66553-0.81836,1.39844-0.81836,2.19629v21.80957c0,0.06543-0.02148,0.12207-0.06641,0.16895
		s-0.0918,0.07471-0.14258,0.08398c-0.06348,0.01074-0.11816,0.00098-0.16211-0.03027s-0.06641-0.08008-0.06641-0.14551V141.8811
		c0-0.92871,0.31738-1.77393,0.95215-2.5332c0.63379-0.76025,1.39551-1.21777,2.28418-1.37451
		c0.7998-0.14111,1.52344,0.0127,2.1709,0.46143l0.85645,0.65332l0.85742-0.95605c0.64648-0.67627,1.37012-1.08496,2.16895-1.22607
		c0.88867-0.15674,1.65039,0.03223,2.28516,0.56885c0.63477,0.53516,0.95215,1.26855,0.95215,2.19727v21.80957
		c0,0.06543-0.02148,0.12207-0.06738,0.16895c-0.04395,0.04688-0.09766,0.07617-0.16113,0.0874
		c-0.05078,0.00879-0.09863-0.00244-0.14258-0.03369c-0.04492-0.03125-0.06738-0.08008-0.06738-0.14551v-21.80957
		c0-0.79785-0.27246-1.43408-0.81836-1.90723C131.60571,137.36987,130.94458,137.20142,130.17017,137.33765z"/>
	<path class="st1" d="M143.1311,135.05249c-0.77441,0.13623-1.43457,0.5376-1.97949,1.20264
		c-0.5459,0.66553-0.81934,1.39844-0.81934,2.19629v18.68848c0,0.79785,0.27344,1.43311,0.81934,1.90625
		c0.54492,0.47266,1.20508,0.6416,1.97949,0.50537c0.77344-0.13672,1.43457-0.53857,1.97949-1.20361
		c0.5459-0.66553,0.81836-1.39746,0.81836-2.19531v-18.68848c0-0.79785-0.27246-1.43408-0.81836-1.90723
		C144.56567,135.08423,143.90454,134.91577,143.1311,135.05249z M144.63501,137.69263v18.68848
		c0,0.43164-0.14648,0.82715-0.4375,1.18652c-0.29297,0.35889-0.64746,0.57471-1.06641,0.64893
		c-0.41895,0.07373-0.77441-0.01709-1.06543-0.27295c-0.29297-0.25635-0.43945-0.60059-0.43945-1.03223V138.2229
		c0-0.43164,0.14648-0.82764,0.43945-1.18652c0.29102-0.3584,0.64648-0.5752,1.06543-0.64893
		c0.41895-0.07422,0.77344,0.01758,1.06641,0.27295C144.48853,136.91626,144.63501,137.26099,144.63501,137.69263z"/>
	<path class="st1" d="M143.1311,133.28589c-1.25586,0.22119-2.32617,0.86475-3.20801,1.92969
		c-0.88281,1.06592-1.32324,2.24512-1.32324,3.54102v18.68848c0,1.2959,0.44043,2.3208,1.32324,3.07422
		c0.88184,0.75439,1.95215,1.02002,3.20801,0.79883c1.25684-0.22168,2.32617-0.86426,3.20801-1.93018
		c0.88184-1.06445,1.32324-2.24512,1.32324-3.54102v-18.68848c0-1.2959-0.44141-2.31934-1.32324-3.07422
		C145.45728,133.33081,144.38794,133.06421,143.1311,133.28589z M146.36841,137.38696v18.68848
		c0,0.91602-0.31738,1.75684-0.95215,2.52344c-0.63477,0.76611-1.39648,1.22754-2.28516,1.38428s-1.64941-0.03662-2.28418-0.57861
		c-0.63477-0.54248-0.95215-1.27148-0.95215-2.1875v-18.68848c0-0.92871,0.31738-1.77393,0.95215-2.5332
		c0.63477-0.76074,1.39551-1.21777,2.28418-1.37451s1.65039,0.03223,2.28516,0.56885
		C146.05103,135.72485,146.36841,136.45825,146.36841,137.38696z"/>
	<path class="st1" d="M157.91821,158.25952c0.29297,0.24902,0.64746,0.33691,1.06641,0.26318
		c0.41895-0.07422,0.77734-0.2876,1.0752-0.64111c0.29883-0.35303,0.44824-0.74658,0.44824-1.17822V134.8938
		c0-1.2959-0.44434-2.31934-1.33301-3.07275c-0.88867-0.75244-1.96094-1.01855-3.21777-0.79688
		c-1.24316,0.21924-2.30957,0.8623-3.19727,1.92822c-0.88867,1.06641-1.33301,2.24658-1.33301,3.54248v21.80957
		c0,0.43164,0.14844,0.77246,0.44727,1.021c0.29785,0.24805,0.65625,0.33496,1.07617,0.26123
		c0.41797-0.07373,0.77246-0.28662,1.06543-0.63916c0.29199-0.35254,0.4375-0.74512,0.4375-1.17676v-21.80957
		c0-0.43164,0.14941-0.82812,0.44824-1.18848c0.29785-0.35938,0.65039-0.5752,1.05566-0.64697
		c0.41895-0.07373,0.77832,0.01709,1.07617,0.271c0.29785,0.25488,0.44727,0.59912,0.44727,1.03076v21.80957
		C157.48071,157.6687,157.6272,158.01001,157.91821,158.25952z M155.95728,132.79077
		c-0.76074,0.13428-1.41797,0.53516-1.9707,1.20068c-0.55176,0.66699-0.82812,1.40039-0.82812,2.19824v21.80957
		c0,0.06543-0.02148,0.12207-0.06641,0.16895c-0.04395,0.04688-0.0918,0.07471-0.1416,0.0835
		c-0.06445,0.01123-0.11914,0.00146-0.16309-0.02979s-0.06641-0.08008-0.06641-0.14551v-21.80957
		c0-0.92871,0.31738-1.77393,0.95215-2.5332c0.63477-0.76074,1.39551-1.21777,2.28418-1.37451
		c0.90137-0.15869,1.66992,0.02881,2.30469,0.56543c0.63379,0.53564,0.95215,1.26855,0.95215,2.19727v21.80957
		c0,0.06543-0.02344,0.12207-0.06738,0.16895c-0.04492,0.04688-0.09863,0.07568-0.16211,0.0874
		c-0.05078,0.00879-0.09766-0.00244-0.1416-0.03369c-0.0459-0.03125-0.06738-0.08008-0.06738-0.14551v-21.80957
		c0-0.79785-0.27637-1.43359-0.82812-1.90576C157.39478,132.82251,156.73169,132.65405,155.95728,132.79077z"/>
	<path class="st1" d="M165.71899,157.33521l3.00781-0.53027c1.25781-0.22168,2.32617-0.86426,3.20898-1.93018
		c0.88184-1.06494,1.32227-2.24512,1.32227-3.54102v-18.68848c0-1.2959-0.44043-2.31982-1.32227-3.07422
		c-0.88281-0.75342-1.95117-1.02002-3.20898-0.79834l-3.00781,0.53027c-0.41797,0.07373-0.77734,0.28711-1.0752,0.64062
		c-0.29883,0.35449-0.44824,0.74707-0.44824,1.17871v24.93066c0,0.43164,0.14941,0.77246,0.44824,1.02051
		C164.94165,157.32153,165.30103,157.40894,165.71899,157.33521z M165.49146,130.8938c0-0.06543,0.02051-0.12207,0.06543-0.16895
		s0.09863-0.07568,0.16211-0.08691l3.00781-0.53027c0.90137-0.15918,1.66602,0.0293,2.29395,0.56689
		c0.62891,0.53662,0.94238,1.27051,0.94238,2.19922v18.68848c0,0.91602-0.31348,1.75635-0.94238,2.52148
		c-0.62793,0.76514-1.39258,1.22705-2.29395,1.38623l-3.00781,0.53027c-0.06348,0.01123-0.11719,0.00098-0.16211-0.03027
		s-0.06543-0.08008-0.06543-0.14551V130.8938z"/>
	<path class="st1" d="M170.71704,153.83276c0.55176-0.6665,0.82812-1.39893,0.82812-2.19678v-18.68848
		c0-0.79785-0.27637-1.43359-0.82812-1.90576c-0.55176-0.47119-1.21582-0.63916-1.99023-0.50244l-2.79785,0.49316v24.49902
		l2.79785-0.49316C169.50122,154.90161,170.16528,154.49927,170.71704,153.83276z M167.2229,132.13892l1.50391-0.26465
		c0.41895-0.07422,0.77734,0.01709,1.0752,0.271c0.29883,0.25537,0.44824,0.59863,0.44824,1.03027v18.68848
		c0,0.43164-0.14941,0.82861-0.44824,1.18848c-0.29785,0.36035-0.65625,0.57666-1.0752,0.65088l-1.50391,0.26465V132.13892z"/>
	<path class="st1" d="M183.55298,153.7395c0.29199,0.24902,0.64746,0.33691,1.06641,0.2627
		c0.41895-0.07373,0.77344-0.28662,1.06641-0.63867c0.29199-0.35254,0.4375-0.74512,0.4375-1.17676V130.3772
		c0-1.2959-0.44043-2.32031-1.32227-3.07471c-0.88379-0.75342-1.95215-1.02002-3.20898-0.79834
		c-1.24414,0.21924-2.30957,0.8623-3.19824,1.92822c-0.88867,1.06689-1.33301,2.24658-1.33301,3.54248v21.80957
		c0,0.43164,0.14844,0.77246,0.44824,1.02051c0.29785,0.24805,0.65625,0.33545,1.0752,0.26172
		c0.41895-0.07422,0.77441-0.28711,1.06641-0.63916c0.29102-0.35205,0.4375-0.74512,0.4375-1.17676v-7.79297l3.02734-0.53369
		v7.79297C183.11548,153.14868,183.26099,153.48999,183.55298,153.7395z M178.79321,144.35083v9.12793
		c0,0.06543-0.02148,0.12207-0.06641,0.16895s-0.0918,0.0752-0.14258,0.08398c-0.06348,0.01123-0.11719,0.00098-0.16211-0.03027
		s-0.06641-0.08008-0.06641-0.14551v-21.80957c0-0.92871,0.31641-1.77344,0.95117-2.53271
		c0.63477-0.76025,1.39648-1.21826,2.28516-1.37451c0.90137-0.15918,1.66602,0.0293,2.29395,0.56689
		c0.62891,0.53662,0.94238,1.27051,0.94238,2.19922v21.80957c0,0.06543-0.01855,0.12158-0.05664,0.16748
		c-0.03809,0.04541-0.08984,0.07422-0.15234,0.08496c-0.06445,0.01172-0.11426,0.00098-0.15234-0.03125
		c-0.03809-0.03271-0.05664-0.08203-0.05664-0.14746v-9.12793L178.79321,144.35083z"/>
	<path class="st1" d="M184.4104,130.67896c0-0.79785-0.27637-1.43359-0.82812-1.90576
		c-0.55176-0.47119-1.21582-0.63916-1.99023-0.50244c-0.77441,0.13623-1.43457,0.53809-1.98047,1.20264
		c-0.54492,0.66553-0.81836,1.39795-0.81836,2.1958v12.22949l5.61719-0.99023V130.67896z M183.11548,141.802l-3.02734,0.53369
		v-10.89453c0-0.43164,0.14648-0.82764,0.4375-1.18652c0.29199-0.3584,0.64746-0.5752,1.06641-0.64893
		c0.41895-0.07422,0.77734,0.01709,1.0752,0.271c0.29883,0.25537,0.44824,0.59912,0.44824,1.03076V141.802z"/>
	<path class="st1" d="M195.56274,148.5105c-0.29297,0.35889-0.64746,0.57471-1.06738,0.64893l-3.02637,0.53369
		c-0.41895,0.07373-0.77539,0.28711-1.06641,0.63916c-0.29199,0.35352-0.4375,0.74512-0.4375,1.17676
		s0.14551,0.77344,0.4375,1.02246c0.29102,0.24951,0.64746,0.33691,1.06641,0.26318l3.02637-0.53369
		c1.24414-0.21924,2.31055-0.86133,3.19922-1.92822c0.88867-1.06592,1.33301-2.24707,1.33301-3.54297v-21.80957
		c0-0.43164-0.15039-0.771-0.44824-1.02051c-0.29785-0.24805-0.65039-0.33643-1.05566-0.26514
		c-0.41992,0.07422-0.77832,0.28809-1.07617,0.64111c-0.29883,0.35449-0.44727,0.74707-0.44727,1.17871v15.58691
		c0,0.43164-0.14648,0.82373-0.4375,1.17578c-0.29297,0.35303-0.64746,0.56592-1.06738,0.64014
		c-0.41797,0.07373-0.77637-0.01367-1.0752-0.2627c-0.29883-0.24805-0.44824-0.58789-0.44824-1.01953V126.0481
		c0-0.43164-0.14453-0.77246-0.4375-1.02246c-0.29199-0.24902-0.64648-0.33691-1.06543-0.26318s-0.77539,0.28711-1.06641,0.63916
		c-0.29199,0.35352-0.4375,0.74512-0.4375,1.17676v15.58691c0,1.28223,0.44043,2.3042,1.32227,3.06445
		c0.88281,0.76074,1.95215,1.03027,3.20801,0.80859c0.5332-0.09375,1.03516-0.27441,1.50488-0.54053v1.82617
		C196.00024,147.75562,195.85376,148.15161,195.56274,148.5105z M197.27563,142.52466c0,0.01367-0.00586,0.03418-0.01855,0.06201
		l-0.07715,0.17041c-0.07617,0.1709-0.22461,0.38672-0.44727,0.64844c-0.22168,0.26172-0.54883,0.53516-0.97949,0.82129
		l-0.17188,0.08887c-0.35547,0.19336-0.7168,0.32275-1.08594,0.3877c-0.88867,0.15674-1.65039-0.03613-2.28418-0.57861
		s-0.95117-1.27197-0.95117-2.18799v-15.58691c0-0.06543,0.01855-0.12109,0.05664-0.16699s0.08789-0.07422,0.15234-0.08545
		c0.0625-0.01123,0.11328-0.00049,0.15234,0.03174c0.03809,0.03223,0.05664,0.08203,0.05664,0.14746v15.58691
		c0,0.79785,0.27637,1.42969,0.82812,1.89453c0.55273,0.46631,1.21582,0.63086,1.98926,0.49414
		c0.77441-0.13672,1.43457-0.53418,1.98047-1.19385c0.5459-0.65869,0.81836-1.3877,0.81836-2.18555v-15.58691
		c0-0.06543,0.02246-0.12207,0.06738-0.16895c0.04395-0.04688,0.09863-0.07568,0.16211-0.0874
		c0.0498-0.00879,0.09766,0.00244,0.1416,0.03369c0.04492,0.03125,0.06738,0.08008,0.06738,0.14551v21.80957
		c0,0.91602-0.31836,1.75732-0.95215,2.52344c-0.63477,0.76611-1.39648,1.22754-2.28516,1.38428l-3.02637,0.53369
		c-0.06445,0.01123-0.11426,0.00049-0.15234-0.03174s-0.05664-0.08203-0.05664-0.14746s0.01855-0.12109,0.05664-0.16699
		s0.08789-0.07422,0.15234-0.08545l3.02637-0.53369c0.77441-0.13672,1.43457-0.53809,1.98047-1.20361
		s0.81836-1.39746,0.81836-2.19531v-4.59375C197.29419,142.51538,197.28735,142.52271,197.27563,142.52466z"/>
	<polygon class="st2" points="49.63177,38.4057 37.3075,63.16248 36.68848,60.50092 33.62433,47.39819 26.06421,48.67596 
		16.11829,66.94623 15.62305,64.2265 12.60095,44.81171 3.03723,46.4057 9.34491,84.1991 14.97363,83.20697 25.77344,62.97064 
		27.25342,60.13544 32.06927,80.19263 37.26758,79.27631 58.04816,36.88464 	"/>
	
		<rect x="35.46872" y="44.0987" transform="matrix(0.97373 -0.22772 0.22772 0.97373 -10.65798 9.414)" class="st2" width="0.00016" height="13.59437"/>
	<polygon class="st2" points="60.90039,33.33783 37.94141,80.17279 29.40442,81.67767 29.40442,81.67767 37.94153,80.17279 
		60.90051,33.33783 	"/>
	
		<rect x="14.64255" y="41.64221" transform="matrix(0.9881 -0.15384 0.15384 0.9881 -7.7376 2.86476)" class="st2" width="0.00017" height="19.57767"/>
	<polygon class="st2" points="15.62598,84.10736 6.86047,85.65228 6.86047,85.65228 15.6261,84.10736 25.4317,65.7345 
		25.43164,65.73431 	"/>
	<polygon class="st2" points="67.41559,35.16248 60.51654,75.17639 88.71582,70.20404 90.16193,61.74512 69.8075,65.24353 
		71.11133,57.61908 88.75586,54.50775 90.21014,46.00635 72.52368,48.98682 73.71582,42.39154 94.08594,38.79974 95.52948,30.36127 
			"/>
	<polygon class="st2" points="74.58301,43.25482 74.15234,45.76849 74.15247,45.76849 74.58313,43.25482 94.95325,39.66302 
		97.12708,26.94916 97.12695,26.94916 94.95312,39.66302 	"/>
	<polygon class="st2" points="56.81458,76.84564 56.81458,76.84564 89.58313,71.06732 91.75598,58.35443 91.75586,58.35443 
		89.58301,71.06732 	"/>
	<polygon class="st2" points="71.97852,58.48236 71.38574,61.94525 71.38586,61.94525 71.97864,58.48236 89.62317,55.37103 
		91.797,42.65717 91.79688,42.65717 89.62305,55.37103 	"/>
	<polygon class="st3" points="12.60095,44.81171 12.30664,42.92084 1.14844,44.88861 7.68262,84.49213 9.34491,84.1991 
		3.03723,46.4057 	"/>
	<polygon class="st3" points="26.06421,48.67596 33.62433,47.39819 33.16309,45.42572 24.82031,46.8974 15.62305,64.2265 
		16.11829,66.94623 	"/>
	<polygon class="st3" points="49.63177,38.4057 58.04816,36.88464 59.13672,34.664 48.21094,36.59076 36.68848,60.50092 
		37.3075,63.16248 	"/>
	<polygon class="st3" points="25.77344,62.97064 30.14844,80.53119 32.06927,80.19263 27.25342,60.13544 	"/>
	<polygon class="st3" points="95.52948,30.36127 95.90234,28.18158 65.22559,33.59076 58.03906,75.61322 60.51654,75.17639 
		67.41559,35.16248 	"/>
	<polygon class="st3" points="90.21014,46.00635 90.57227,43.88959 72.92773,47.00092 73.71582,42.39154 72.52368,48.98682 	"/>
	<polygon class="st3" points="90.16193,61.74512 90.53125,59.5849 70.16113,63.17767 71.11133,57.61908 69.8075,65.24353 	"/>
	<path class="st4" d="M60.90039,33.33783L60.90039,33.33783L47.5332,35.69427L37.01666,57.5144l-0.00006,0.00018l-3.0957-13.2373
		l0,0l-9.75488,1.71973l-8.01746,15.10626l-0.00012,0.00018l-3.01172-19.34473l0,0L0,44.07611l6.86035,41.57617h0.00012
		l8.7655-1.54492l9.80566-18.37305l0.00006,0.00018l3.9726,15.94318h0.00012l8.53699-1.50488L60.90039,33.33783z M32.06927,80.19263
		l-1.92084,0.33856l-4.375-17.56055l-10.7998,20.23633L9.34491,84.1991l-1.66229,0.29303L1.14844,44.88861l11.1582-1.96777
		l0.29431,1.89087l3.02209,19.41479l9.19727-17.3291l8.34277-1.47168l0.46124,1.97247l3.06415,13.10272l11.52246-23.91016
		L59.13672,34.664l-1.08856,2.22064L37.26758,79.27631L32.06927,80.19263z"/>
	<path class="st4" d="M56.81458,76.84564l32.76843-5.77832l2.17285-12.71289l0,0l-20.37,3.59082h-0.00012l0.59277-3.46289
		l17.64453-3.11133l2.17383-12.71387l0,0l-17.64441,3.11133h-0.00012l0.43066-2.51367l20.37012-3.5918l2.17383-12.71387l0,0
		L64.3584,32.72748l-7.54395,44.11816H56.81458z M94.08594,38.79974l-20.37012,3.5918l-0.78809,4.60938l17.64453-3.11133
		l-0.36212,2.11676l-1.45428,8.5014l-17.64453,3.11133l-0.9502,5.55859l20.37012-3.59277l-0.36932,2.16022l-1.44611,8.45892
		l-28.19928,4.97235l-2.47748,0.43683l7.18652-42.02246l30.67676-5.40918l-0.37286,2.17969L94.08594,38.79974z"/>
	<polygon class="st2" points="130.78143,54.88379 125.55096,64.3916 112.21417,66.74219 112.21417,66.74219 125.55109,64.3916 
		130.78156,54.88379 143.94745,52.5625 143.94745,52.5625 	"/>
	<polygon class="st2" points="146.1507,60.75781 146.1507,60.75781 159.45441,58.41211 148.67999,17.52637 148.67987,17.52637 
		159.45428,58.41211 	"/>
	
		<rect x="137.24741" y="39.57394" transform="matrix(0.47792 -0.8784 0.8784 0.47792 37.88112 142.88344)" class="st2" width="3.78933" height="0.00013"/>
	<path class="st2" d="M139.80603,21.77515l-23.33105,43.19598l-2.38397,0.42535l10.81543-1.90723l5.23047-9.50781l1.22992-2.14545
		l14.21625-2.32434l2.76611,9.84424l9.86096-1.73969l-9.85565-37.4007L139.80603,21.77515z M133.9682,44.19403l5.99072-10.69196
		l0.68341,2.61267l1.43207,5.4624l-0.00311,0.00055l0.32587,1.24585L133.9682,44.19403z"/>
	<path class="st2" d="M202.94061,15.08301c1.03027,2.0752,1.29395,4.63379,0.78613,7.60645
		c-0.54297,3.17188-1.97754,6.25098-4.26367,9.1543c-1.1748,1.49121-2.47461,2.82812-3.86719,3.97852l7.8457,14.93359
		l-14.83386,2.50195l0,0l14.83398-2.50195l-7.8457-14.93359c1.39258-1.15039,2.69238-2.4873,3.86719-3.97852
		c2.28613-2.90332,3.7207-5.98242,4.26367-9.1543c0.50781-2.97266,0.24414-5.53125-0.78613-7.60645
		c-1.00684-2.02246-2.53516-3.50781-4.54199-4.41504c-1.25854-0.57007-2.63733-0.87427-4.12097-0.91187
		c1.48358,0.0376,2.8623,0.3418,4.12085,0.91187C200.40546,11.5752,201.93378,13.06055,202.94061,15.08301z"/>
	<path class="st2" d="M202.90735,19.56573c-1.94592-8.10815-9.64862-6.72974-9.64862-6.72974l-20.67566,3.48645l-6.97211,39.98926
		l8.68414-1.53143l2.34375-13.7002l0.32257-1.86572l6.89191-1.21625l7.11169,13.84772L201.91425,50l-7.58594-14.44141
		l0.32324-0.25684c1.4541-1.16016,2.80859-2.53125,4.02637-4.07715c2.18164-2.77051,3.54883-5.69824,4.0625-8.70312
		c0.18958-1.10699,0.25995-2.14526,0.22253-3.11713C202.93188,19.49969,202.90735,19.56573,202.90735,19.56573z M192.13593,24.68164
		c-0.00067,0.04309-0.00171,0.08582-0.00305,0.12823c-0.08954,2.80603-2.26031,5.10895-5.03601,5.53009l-10.21649,1.55005
		l1.2973-8.24323l1.48853-0.27081l8.59766-1.51465c0.85938-0.15332,1.59277-0.11523,2.24023,0.1123
		c0.625,0.21973,1.09766,0.59668,1.40625,1.12109C192.17206,23.54102,192.24432,24.0459,192.13593,24.68164z"/>
	<polygon class="st2" points="177.50604,41.94336 175.16229,55.64355 162.76495,57.83008 162.76495,57.83008 175.16241,55.64355 
		177.50616,41.94336 182.28339,41.09961 182.28339,41.09961 	"/>
	<path class="st2" d="M180.53351,24.23926l7.9043-1.39355c0.34174-0.06104,0.65472-0.08569,0.94269-0.07385
		c-0.28796-0.01184-0.60101,0.01282-0.94281,0.07385l-7.9043,1.39355l-0.85449,4.99023h0.00012L180.53351,24.23926z"/>
	<polygon class="st2" points="225.53534,16.30469 225.10468,18.81934 225.1048,18.81934 225.53546,16.30469 245.90558,12.71289 
		248.07941,0 248.07928,0 245.90546,12.71289 	"/>
	<polygon class="st2" points="207.76691,49.89355 207.76691,49.89355 240.53546,44.11719 242.70831,31.40234 242.70819,31.40234 
		240.53534,44.11719 	"/>
	<polygon class="st2" points="218.33978,8.10626 211.42108,48.23468 239.66815,43.25391 241.13379,34.68073 220.73169,38.18732 
		222.03558,30.56287 222.03918,30.81189 222.06366,30.66895 239.70819,27.55762 241.18201,18.94214 223.44794,21.93054 
		224.64008,15.33533 224.62402,15.69934 224.66815,15.44141 245.03827,11.84961 246.50122,3.29694 	"/>
	<polygon class="st2" points="222.93085,31.53223 222.33807,34.99512 222.3382,34.99512 222.93097,31.53223 240.5755,28.4209 
		242.74933,15.70703 242.74921,15.70703 240.57538,28.4209 	"/>
	<polygon class="st3" points="247.47498,0.10626 247.45392,0.11023 247.47491,0.10651 	"/>
	<polygon class="st3" points="246.50122,3.29694 246.85468,1.23047 216.17792,6.63965 208.99139,48.66309 211.42108,48.23468 
		218.33978,8.10626 	"/>
	<polygon class="st3" points="223.44794,21.93054 241.18201,18.94214 241.5246,16.93945 223.88007,20.05078 224.62402,15.69934 
		224.64008,15.33533 	"/>
	<polygon class="st3" points="220.73169,38.18732 241.13379,34.68073 241.48358,32.63477 221.11346,36.22559 222.03918,30.81189 
		222.03558,30.56287 	"/>
	<polygon class="st3" points="139.80603,21.77515 148.35449,20.21552 147.94745,18.6709 138.78241,20.28613 114.091,65.39648 
		116.47498,64.97113 	"/>
	<polygon class="st3" points="140.04761,37.90979 140.11804,38.05969 140.06854,37.87109 140.04755,37.90967 	"/>
	<polygon class="st3" points="136.36542,42.58398 140.39667,35.17773 140.64233,36.11475 139.95892,33.50208 133.9682,44.19403 
		142.39716,42.82355 142.07129,41.5777 	"/>
	<polygon class="st3" points="131.36682,51.836 130.1369,53.98145 144.67596,51.41797 146.87909,59.61523 148.34918,59.3559 
		145.58307,49.51166 	"/>
	<path class="st3" d="M193.25873,12.836c0,0,7.7027-1.37842,9.64862,6.72974c0,0,0.02454-0.06604,0.0556-0.16138
		c-0.05585-1.45111-0.3587-2.75018-0.91785-3.87604c-0.90137-1.81055-2.2666-3.13867-4.05859-3.9502
		c-1.82617-0.8252-3.95312-1.03125-6.31543-0.61719l-20.49512,3.61426l-7.18652,42.02246l1.62152-0.28595l6.97211-39.98926
		L193.25873,12.836z"/>
	<path class="st3" d="M189.89081,27.98828c-0.56934,0.41211-1.15527,0.66113-1.84277,0.78125l-9.59375,1.69238l1.21191-7.08594
		l-1.48853,0.27081l-1.2973,8.24323l10.21649-1.55005c2.7757-0.42114,4.94647-2.72406,5.03601-5.53009
		c0.00134-0.04242,0.00238-0.08514,0.00305-0.12823c-0.10449,0.6084-0.33691,1.16211-0.73047,1.74414
		C190.98944,27.03906,190.49432,27.5498,189.89081,27.98828z"/>
	<polygon class="st3" points="176.96143,39.21436 176.63885,41.08008 182.83221,39.98828 189.15839,52.15039 190.96503,51.84583 
		183.85333,37.99811 	"/>
	<path class="st4" d="M125.55096,64.3916l5.23047-9.50781l13.16602-2.32129l0,0l2.20312,8.19531h0.00012l13.30359-2.3457
		l-10.77441-40.88574l0,0l-10.54395,1.85938l-25.92188,47.35645h0.00012L125.55096,64.3916z M148.34918,59.3559l-1.47009,0.25934
		l-2.20312-8.19727l-14.53906,2.56348l-5.23047,9.50781L114.091,65.39648l24.69141-45.11035l9.16504-1.61523l0.40704,1.54462
		l9.85565,37.4007L148.34918,59.3559z"/>
	<path class="st4" d="M136.36542,42.58398l5.70587-1.00629l0.00311-0.00055l-1.43207-5.4624l-0.24567-0.93701L136.36542,42.58398z
		 M140.11804,38.05969l0.71417,2.72058l-2.59558,0.45801h-0.00012l1.81104-3.32861l0.021-0.03857L140.11804,38.05969z"/>
	<path class="st4" d="M175.16229,55.64355l2.34375-13.7002l4.77734-0.84375l0,0l6.32422,12.1582h0.00012l14.83386-2.50195
		l-7.8457-14.93359c1.39258-1.15039,2.69238-2.4873,3.86719-3.97852c2.28613-2.90332,3.7207-5.98242,4.26367-9.1543
		c0.50781-2.97266,0.24414-5.53125-0.78613-7.60645c-1.00684-2.02246-2.53516-3.50781-4.54199-4.41504
		c-1.25854-0.57007-2.63727-0.87427-4.12085-0.91187c-0.8902-0.02252-1.81812,0.0509-2.78052,0.22046l-21.18848,3.73535
		l-7.54395,44.11816h0.00012L175.16229,55.64355z M202.74042,22.52148c-0.51367,3.00488-1.88086,5.93262-4.0625,8.70312
		c-1.21777,1.5459-2.57227,2.91699-4.02637,4.07715l-0.32324,0.25684L201.91425,50l-10.94922,1.84583l-1.80664,0.30457
		l-6.32617-12.16211l-6.19336,1.0918l-2.34375,13.7002l-8.68414,1.53143l-1.62152,0.28595l7.18652-42.02246l20.49512-3.61426
		c2.3623-0.41406,4.48926-0.20801,6.31543,0.61719c1.79199,0.81152,3.15723,2.13965,4.05859,3.9502
		c0.55914,1.12585,0.862,2.42493,0.91785,3.87604C203.00037,20.37622,202.92999,21.41449,202.74042,22.52148z"/>
	<path class="st4" d="M190.50409,21.97363c-0.64746-0.22754-1.38086-0.26562-2.24023-0.1123l-8.59766,1.51465l-1.21191,7.08594
		l9.59375-1.69238c0.6875-0.12012,1.27344-0.36914,1.84277-0.78125c0.60352-0.43848,1.09863-0.94922,1.51465-1.5625
		c0.39355-0.58203,0.62598-1.13574,0.73047-1.74414c0.1084-0.63574,0.03613-1.14062-0.22559-1.58691
		C191.60175,22.57031,191.12909,22.19336,190.50409,21.97363z M180.53339,24.23926l7.9043-1.39355
		c0.3418-0.06104,0.65485-0.08569,0.94281-0.07385s0.55084,0.06018,0.79254,0.14514c0.40625,0.14258,0.68457,0.36035,0.875,0.68457
		c0.09863,0.16797,0.1875,0.40723,0.10156,0.91211c-0.0791,0.46191-0.26074,0.8916-0.57227,1.35156
		c-0.34863,0.51465-0.76562,0.94434-1.27344,1.3125c-0.44238,0.32031-0.89648,0.51367-1.42969,0.60742l-8.19519,1.44434h-0.00012
		L180.53339,24.23926z"/>
	<path class="st4" d="M240.53534,44.11719l2.17285-12.71484l0,0l-20.37,3.59277h-0.00012l0.59277-3.46289l17.64453-3.11133
		l2.17383-12.71387l0,0l-17.64441,3.1123h-0.00012l0.43066-2.51465l20.37012-3.5918L248.07928,0l0,0l-0.60437,0.10651
		l-0.021,0.00372l-32.14319,5.66614l-7.54395,44.11719h0.00012L240.53534,44.11719z M245.03827,11.84961l-20.37012,3.5918
		l-0.04413,0.25793l-0.74396,4.35144l17.64453-3.11133l-0.34259,2.00269l-1.47382,8.61548l-17.64453,3.11133l-0.02448,0.14294
		l-0.92572,5.4137l20.37012-3.59082l-0.34979,2.04596l-1.46564,8.57318l-28.24707,4.98077l-2.42969,0.42841l7.18652-42.02344
		l30.67676-5.40918l-0.35345,2.06647L245.03827,11.84961z"/>
	<polygon class="st2" points="81.15369,126.5531 81.15375,126.5531 88.69769,82.43591 76.29926,84.62146 76.29926,84.62152 
		88.69763,82.43597 	"/>
	<rect x="55.96716" y="115.57119" class="st2" width="0.00006" height="15.76954"/>
	<polygon class="st2" points="59.47009,102.97015 73.58728,100.4809 73.58728,100.48083 59.47015,102.97009 62.18207,87.10974 
		49.78363,89.29626 49.78363,89.29633 62.18201,87.1098 	"/>
	<polygon class="st2" points="74.33978,111.67383 71.6087,127.22003 80.2865,125.68988 87.1767,85.39917 78.7182,86.80896 
		76.0155,102.80896 57.85333,105.94409 58.24548,104.20258 60.68146,89.95605 52.17767,91.51166 45.32922,131.85321 
		53.77087,130.36469 56.42908,114.82074 72.63806,111.96429 	"/>
	<polygon class="st2" points="128.96063,78.5769 100.8562,83.37653 93.97693,123.2757 122.16638,118.30511 123.59369,109.96069 
		103.24811,113.45758 103.62097,111.27728 103.61267,111.27875 104.56287,105.72015 122.2074,102.6098 123.64215,94.22186 
		105.96429,97.20087 107.0014,91.46338 107.16736,90.49261 127.53748,86.90082 	"/>
	<polygon class="st2" points="128.40466,87.76404 128.40472,87.76404 130.57758,75.05017 97.80902,80.82849 97.80902,80.82855 
		130.57751,75.05023 	"/>
	<polygon class="st2" points="104.83728,110.04633 125.2074,106.45551 123.03357,119.16833 123.03363,119.16833 
		125.20746,106.45544 104.83734,110.04626 105.43011,106.58344 105.43005,106.58344 	"/>
	<polygon class="st2" points="107.60388,93.86957 125.24841,90.75824 123.07458,103.47302 123.07465,103.47302 125.24847,90.75818 
		107.60394,93.86951 108.03461,91.3559 108.03455,91.3559 	"/>
	<path class="st2" d="M171.25909,79.42639c-0.05194,0.18042-0.09497,0.29132-0.09497,0.29132
		c-1.94592-8.10809-9.64862-6.72974-9.64862-6.72974l-20.67572,3.48651l-6.93207,39.76019l8.67761-1.53015l2.34277-13.7002
		l0.00714-0.00128l0.28296-1.63666l6.89191-1.21625l7.00665,13.64331l11.08771-1.8692l-7.58594-14.44141l0.32324-0.25684
		c1.4541-1.16016,2.80859-2.53125,4.02637-4.07715c2.18164-2.77051,3.54883-5.69824,4.0625-8.70312
		C171.21381,81.3764,171.28778,80.36981,171.25909,79.42639z M160.42517,84.60687c-0.01605,0.09406-0.04108,0.18506-0.06342,0.27692
		c0.0188-0.03021,0.03094-0.05011,0.03094-0.05011c-0.00073,0.04303-0.00171,0.08575-0.00311,0.12817
		c-0.08948,2.80609-2.26025,5.10895-5.03595,5.53009l-10.21655,1.55011l1.2973-8.24323l1.48291-0.26978l0.03912-0.22882
		l8.59766-1.51465c0.85938-0.15234,1.59082-0.11621,2.24023,0.1123c0.62598,0.21973,1.09863,0.59766,1.40527,1.12207
		C160.46228,83.46527,160.53455,83.97015,160.42517,84.60687z"/>
	<rect x="167.80896" y="94.77872" class="st2" width="0.00007" height="16.86909"/>
	<path class="st2" d="M157.59412,87.10199c0.25391-0.18408,0.48511-0.38354,0.69641-0.60132
		c-0.2113,0.21777-0.44244,0.41718-0.69635,0.60126c-0.44238,0.32031-0.89648,0.51367-1.42969,0.60742l-8.19531,1.44434
		l0.85449-4.99017h-0.00006l-0.85449,4.99023l8.19531-1.44434C156.69763,87.61566,157.15173,87.4223,157.59412,87.10199z"/>
	<path class="st2" d="M138.59808,73.63617l21.18842-3.73535c2.56641-0.45117,4.88867-0.21973,6.90234,0.69043v0.00098
		c2.00684,0.90723,3.53516,2.39258,4.54199,4.41504c1.03027,2.0752,1.29395,4.63379,0.78613,7.60645
		c-0.54297,3.17188-1.97754,6.25098-4.26367,9.1543c-0.5874,0.74561-1.20605,1.45264-1.85193,2.11707
		c0.64587-0.66443,1.26459-1.37152,1.85199-2.11713c2.28613-2.90332,3.7207-5.98242,4.26367-9.1543
		c0.50781-2.97266,0.24414-5.53125-0.78613-7.60645c-1.00684-2.02246-2.53516-3.50781-4.54199-4.41504v-0.00098
		c-2.01367-0.91016-4.33594-1.1416-6.90234-0.69043l-21.18848,3.73535V73.63617z"/>
	<rect x="144.6239" y="101.76818" class="st2" width="0.00006" height="13.899"/>
	<polygon class="st2" points="190.6283,94.91937 210.99841,91.3266 208.82458,104.04138 208.82465,104.04138 210.99847,91.32654 
		190.62836,94.91931 191.22113,91.45648 191.22107,91.45648 	"/>
	<polygon class="st2" points="209.45221,78.98334 191.80212,81.95758 192.34161,78.97302 192.95837,75.36566 213.32849,71.77386 
		214.77057,63.33844 186.69403,68.1333 179.79559,108.14386 207.9574,103.17816 209.40381,94.72223 189.08594,98.21436 
		189.44006,96.14343 189.40369,96.14984 190.35388,90.5932 207.99841,87.48187 	"/>
	<polygon class="st2" points="214.19568,72.63708 214.19574,72.63708 216.36859,59.92419 183.60004,65.70056 183.60004,65.70062 
		216.36853,59.92426 	"/>
	<polygon class="st2" points="193.82556,76.22894 193.3949,78.74261 211.03943,75.63129 208.8656,88.34509 208.86566,88.34509 
		211.03949,75.63123 193.39496,78.74255 193.82562,76.22894 	"/>
	<polygon class="st3" points="214.77057,63.33844 215.14392,61.15472 184.46716,66.5639 177.28064,108.58734 179.79559,108.14386 
		186.69403,68.1333 	"/>
	<polygon class="st3" points="209.45221,78.98334 209.81482,76.86371 192.17029,79.97504 192.34161,78.97302 191.80212,81.95758 	
		"/>
	<polygon class="st3" points="209.40381,94.72223 209.7738,92.55902 189.44006,96.14343 189.08594,98.21436 	"/>
	<polygon class="st3" points="128.96063,78.5769 129.35291,76.28265 98.67615,81.69183 91.48962,123.71429 93.97693,123.2757 
		100.8562,83.37653 	"/>
	<polygon class="st3" points="123.64215,94.22186 124.0238,91.99066 106.37927,95.10199 107.0014,91.46338 105.96429,97.20087 	"/>
	<polygon class="st3" points="123.59369,109.96069 123.98279,107.68597 103.62097,111.27728 103.24811,113.45758 	"/>
	<path class="st3" d="M161.5155,72.98798c0,0,7.7027-1.37836,9.64862,6.72974c0,0,0.04303-0.1109,0.09497-0.29132
		c-0.04541-1.49139-0.35193-2.82233-0.92377-3.97382c-0.90137-1.81055-2.2666-3.13867-4.05859-3.9502
		c-1.82812-0.82617-3.95312-1.03027-6.31641-0.61719l-20.49512,3.61426l-7.18652,42.02246l1.62903-0.28723l6.93207-39.76019
		L161.5155,72.98798z"/>
	<path class="st3" d="M158.18103,87.91254c-0.56934,0.41211-1.15527,0.66016-1.84277,0.78125l-9.59375,1.69238l1.17279-6.85712
		l-1.48291,0.26978l-1.2973,8.24323l10.21655-1.55011c2.7757-0.42114,4.94647-2.724,5.03595-5.53009
		c0.0014-0.04242,0.00238-0.08514,0.00311-0.12817c0,0-0.01215,0.0199-0.03094,0.05011
		c-0.1217,0.50018-0.33276,0.97369-0.66608,1.46625C159.27966,86.96332,158.78455,87.47406,158.18103,87.91254z"/>
	<polygon class="st3" points="145.2182,99.36639 144.93524,101.00305 151.12244,99.91254 157.44861,112.07465 159.11676,111.79346 
		152.11011,98.15015 	"/>
	<polygon class="st3" points="60.68146,89.95605 60.9574,88.34222 50.65076,90.15961 43.46423,132.18207 45.32922,131.85321 
		52.17767,91.51166 	"/>
	<polygon class="st3" points="76.0155,102.80896 78.7182,86.80896 87.1767,85.39917 87.47302,83.66644 77.16638,85.4848 
		74.45447,101.34418 58.24548,104.20258 57.85333,105.94409 	"/>
	<polygon class="st3" points="72.63806,111.96429 69.97986,127.50726 71.6087,127.22003 74.33978,111.67383 	"/>
	<path class="st4" d="M81.15369,126.55316v-0.00006l7.54395-44.11713l-12.39838,2.18555h-0.00006l-2.71191,15.85931v0.00006
		l-14.11719,2.48926l2.71191-15.86035l-12.39838,2.18652h-0.00006l-7.54395,44.11816l12.39844-2.18652v-0.00006l2.6582-15.54388
		h0.00006l14.11713-2.48926l-2.6582,15.54297L81.15369,126.55316z M56.42908,114.82074l-2.6582,15.54395l-8.44165,1.48853
		l-1.86499,0.32886l7.18652-42.02246l10.30664-1.81738l-0.27594,1.61383l-2.43597,14.24652l16.20898-2.8584l2.71191-15.85938
		l10.30664-1.81836l-0.29633,1.73273l-6.8902,40.29071l-8.6778,1.53015l-1.62885,0.28723l2.6582-15.54297L56.42908,114.82074z"/>
	<path class="st4" d="M90.26501,124.94672l32.76855-5.77832v-0.00006l2.17383-12.71283l-20.37012,3.59082l0.59277-3.46289h0.00006
		l17.64447-3.11035v-0.00006l2.17383-12.71478l-17.64453,3.11133l0.43066-2.51367h0.00006l20.37006-3.5918v-0.00006
		l2.17285-12.71381l-32.76849,5.77832h-0.00006L90.26501,124.94672z M107.16736,90.49261l-0.16595,0.97076l-0.62213,3.63861
		l17.64453-3.11133l-0.38165,2.2312l-1.43475,8.38794l-17.64453,3.11035l-0.9502,5.55859l0.0083-0.00146l20.36182-3.59131
		l-0.3891,2.27472l-1.42731,8.34442l-28.18945,4.97058l-2.4873,0.4386l7.18652-42.02246l30.67676-5.40918l-0.39227,2.29425
		l-1.42316,8.32391L107.16736,90.49261z"/>
	<path class="st4" d="M172.01697,82.61371c0.50781-2.97266,0.24414-5.53125-0.78613-7.60645
		c-1.00684-2.02246-2.53516-3.50781-4.54199-4.41504v-0.00098c-2.01367-0.91016-4.33594-1.1416-6.90234-0.69043l-21.18842,3.73535
		h-0.00006l-7.54395,44.11816l12.39844-2.18652v-0.00006l2.34277-13.70013h0.00006l4.77826-0.84375l6.32422,12.1582
		l14.83398-2.50195v-0.00006l-7.8457-14.93353l0.00006-0.00006c0.69629-0.5752,1.36932-1.19696,2.0152-1.86139
		s1.26453-1.37146,1.85193-2.11707C170.03943,88.86469,171.474,85.78558,172.01697,82.61371z M162.94177,95.22601l-0.32324,0.25684
		l7.58594,14.44141l-11.08771,1.8692l-1.66815,0.28119l-6.32617-12.16211l-6.18719,1.09052l-0.00714,0.00128l-2.34277,13.7002
		l-8.67761,1.53015l-1.62903,0.28723l7.18652-42.02246l20.49512-3.61426c2.36328-0.41309,4.48828-0.20898,6.31641,0.61719
		c1.79199,0.81152,3.15723,2.13965,4.05859,3.9502c0.57184,1.15149,0.87836,2.48242,0.92377,3.97382
		c0.02869,0.94342-0.04529,1.95001-0.22845,3.01935c-0.51367,3.00488-1.88086,5.93262-4.0625,8.70312
		C165.75037,92.69476,164.39587,94.06586,162.94177,95.22601z"/>
	<path class="st4" d="M158.79431,81.89789c-0.64941-0.22852-1.38086-0.26465-2.24023-0.1123l-8.59766,1.51465l-0.03912,0.22882
		l-1.17279,6.85712l9.59375-1.69238c0.6875-0.12109,1.27344-0.36914,1.84277-0.78125
		c0.60352-0.43848,1.09863-0.94922,1.51465-1.5625c0.33331-0.49255,0.54437-0.96606,0.66608-1.46625
		c0.02234-0.09186,0.04736-0.18286,0.06342-0.27692c0.10938-0.63672,0.03711-1.1416-0.22559-1.58691
		C159.89294,82.49554,159.42029,82.11761,158.79431,81.89789z M148.82361,84.16351h0.00006l7.90424-1.39355
		c0.68555-0.12207,1.25293-0.09863,1.73535,0.07129c0.40723,0.14258,0.68457,0.36035,0.87402,0.68457
		c0.09961,0.16797,0.18848,0.40723,0.10156,0.91211c-0.07812,0.46191-0.25977,0.8916-0.57129,1.35156
		c-0.17432,0.25732-0.36572,0.49341-0.57703,0.71118s-0.4425,0.41724-0.69641,0.60132
		c-0.44238,0.32031-0.89648,0.51367-1.42969,0.60742l-8.19531,1.44434L148.82361,84.16351z"/>
	<path class="st4" d="M193.3949,78.74261l0.43066-2.51367h0.00006l20.37006-3.5918v-0.00006l2.17285-12.71283l-32.76849,5.77637
		h-0.00006l-7.54395,44.11719l32.76855-5.77637v-0.00006l2.17383-12.71478l-20.37012,3.59277l0.59277-3.46289h0.00006
		l17.64447-3.11133v-0.00006l2.17383-12.71381L193.3949,78.74261z M190.35388,90.5932l-0.9502,5.55664l0.03638-0.00641
		l20.33374-3.58441l-0.37,2.16321l-1.44641,8.45593l-28.1618,4.9657l-2.51495,0.44348l7.18652-42.02344l30.67676-5.40918
		l-0.37335,2.18372l-1.44208,8.43542l-20.37012,3.5918l-0.61676,3.60736l-0.17133,1.00201l17.64453-3.11133l-0.36261,2.11963
		l-1.4538,8.49854L190.35388,90.5932z"/>
	<path class="st4" d="M258.42505,3.09546c-0.22656-0.22949-0.55029-0.33691-0.86768-0.28564l-6.1626,0.97314
		c-0.5459,0.08594-0.91797,0.59814-0.83203,1.14355c0.08643,0.5459,0.59961,0.91895,1.14355,0.83203l4.78418-0.75537
		l-12.18506,70.66602l-11.854,2.17188c-0.41992,0.07666-0.74463,0.41162-0.80859,0.8335l-4.64941,30.64648l-57.67676,10.57422
		c-0.01117,0.00208-0.01929,0.00977-0.03033,0.01215c-0.56042-1.87189-2.27594-3.24493-4.3302-3.24493
		c-2.50763,0-4.54053,2.03284-4.54053,4.54053s2.0329,4.54053,4.54053,4.54053c2.28027,0,4.14996-1.68616,4.47363-3.87653
		c0.02271,0.00159,0.04315,0.01166,0.0661,0.01166c0.05957,0,0.12061-0.00537,0.18115-0.0166l58.37842-10.70264
		c0.41992-0.07666,0.74463-0.41162,0.80859-0.8335l4.64941-30.64648l11.83887-2.16895
		c0.4126-0.0752,0.73389-0.40039,0.80518-0.81348l12.54102-72.72949C258.75317,3.64966,258.65161,3.32495,258.42505,3.09546z"/>
	<path class="st1" d="M199.79419,158.27515L42.39673,188.53198l0.31055-45.30225l48.61566-8.72565
		c0.65515,1.70215,2.2948,2.91516,4.22778,2.91516c2.50769,0,4.54053-2.0329,4.54053-4.54059
		c0-2.50763-2.03284-4.54053-4.54053-4.54053c-2.38538,0-4.3194,1.84564-4.50452,4.18341l-49.50983,8.88641
		c-0.47412,0.08496-0.81982,0.49609-0.82324,0.97754l-0.32471,47.35156c-0.00195,0.2998,0.13037,0.58398,0.36035,0.77539
		c0.18115,0.15137,0.40771,0.23145,0.63965,0.23145c0.06299,0,0.12598-0.00586,0.18896-0.01758l158.59473-30.4873
		c0.54199-0.104,0.89746-0.62842,0.79297-1.1709C200.86108,158.52612,200.34204,158.17358,199.79419,158.27515z"/>
</g>
</svg>
