<?xml version="1.0" encoding="utf-8"?>
<!-- Generator: Adobe Illustrator 26.0.1, SVG Export Plug-In . SVG Version: 6.00 Build 0)  -->
<svg version="1.1" id="Layer_1" xmlns="http://www.w3.org/2000/svg" xmlns:xlink="http://www.w3.org/1999/xlink" x="0px" y="0px"
	 viewBox="0 0 781.74384 130.52606" style="enable-background:new 0 0 781.74384 130.52606;" xml:space="preserve">
<style type="text/css">
	.st0{fill:none;}
	.st1{fill:#BE03FD;}
	.st2{fill:#FFCF09;}
	.st3{fill:#22076D;}
</style>
<g>
	<polygon class="st0" points="567.62439,113.63928 574.77283,113.63928 571.21246,104.41803 	"/>
	<path class="st0" d="M266.50574,101.14276c0-2.40991-1.34021-3.6319-3.9826-3.6319h-6.60608v7.26373h6.81281
		C265.27063,104.7746,266.50574,103.58673,266.50574,101.14276z"/>
	<path class="st0" d="M512.94623,20.26459c-6.43536,0-7.50787,1.84222-7.50787,4.23914v24.79028
		c0,2.48853,1.07251,4.33252,7.50787,4.33252c6.52515,0,7.50787-1.84399,7.50787-4.33252V24.50372
		C520.4541,22.10681,519.47137,20.26459,512.94623,20.26459z"/>
	<path class="st0" d="M443.15588,97.40533c-6.5564,0-11.13593,5.05133-11.13593,12.28345
		c0,7.17908,4.68359,12.38953,11.13593,12.38953c6.51361,0,11.24146-5.21045,11.24146-12.38953
		C454.39734,102.57147,449.66949,97.40533,443.15588,97.40533z"/>
	<path class="st0" d="M268.04974,117.38452c0-2.74316-1.84857-4.5863-4.59943-4.5863h-7.53326v9.17352h7.37903
		C266.1394,121.97174,268.04974,120.12811,268.04974,117.38452z"/>
	<path class="st0" d="M340.76941,101.83258c0-2.70618-1.73859-4.32172-4.65002-4.32172h-6.29767v8.59033h6.24707
		C339.18793,106.1012,340.76941,104.66467,340.76941,101.83258z"/>
	<path class="st0" d="M296.45221,21.46222h-2.23322c-0.71503,0-1.2522,0.46143-1.69775,1.56744l-4.20215,14.00836h14.03302
		l-4.20038-14.00836C297.70441,21.92365,297.16724,21.46222,296.45221,21.46222z"/>
	<path class="st0" d="M151.93976,85.83228H30.26105c-1.7594,0-3.19135,1.43176-3.19135,3.19128
		c0,1.76111,1.43195,3.19305,3.19135,3.19305h121.67871c1.76123,0,3.19305-1.43195,3.19305-3.19305
		C155.13281,87.26404,153.70099,85.83228,151.93976,85.83228z"/>
	<path class="st0" d="M175.6991,30.3103v-4.8855c0-2.39514-0.71503-4.51562-4.20038-4.51562h-8.04327v13.91681h8.04327
		C174.98407,34.82599,175.6991,32.70551,175.6991,30.3103z"/>
	<path class="st0" d="M528.61841,97.72296h-6.4519v24.03717h6.4519c6.73932,0,11.44623-4.96423,11.44623-12.07135
		C540.06464,102.64349,535.35773,97.72296,528.61841,97.72296z"/>
	<path class="st0" d="M776.74744,23.1283h-63.75452c-1.76117,0-3.19299,1.43182-3.19299,3.19299
		c0,1.75946,1.43182,3.19128,3.19299,3.19128h63.75452c1.76117,0,3.19299-1.43182,3.19299-3.19128
		C779.94043,24.56012,778.50861,23.1283,776.74744,23.1283z"/>
	<path class="st1" d="M83.63733,70.03009h28.2439c11.53046,0,18.50293-5.71326,18.50293-16.22046v-9.67584
		c0-10.32227-5.54242-14.00836-13.94501-15.29932l-13.31622-1.84222c-1.5199-0.18488-2.41455-1.29089-2.41455-2.94995
		c0-1.659,0.89465-2.76501,2.41455-2.76501h20.82587c2.23322,0,3.21594-1.0127,3.21594-3.31628V6.99414
		c0-2.30536-0.98273-3.31805-3.21594-3.31805H98.92255c-11.62024,0-18.50287,5.71326-18.50287,16.2204v9.6759
		c0,10.32227,5.45258,14.00836,13.85339,15.29755l13.40778,1.93555c1.5199,0.18494,2.323,1.0144,2.323,3.13312
		c0,1.47589-0.8031,2.67346-2.323,2.67346H83.63733c-2.23492,0-3.21765,1.01447-3.21765,3.31805v10.78192
		C80.41968,69.01562,81.4024,70.03009,83.63733,70.03009z"/>
	<path class="st1" d="M195.00507,33.44348V21.64709c0-10.69031-4.82556-17.97101-21.09351-17.97101h-27.3493
		c-2.23492,0-3.21765,1.0127-3.21765,3.31805v59.7179c0,2.30359,0.98273,3.31805,3.21765,3.31805h13.85339
		c2.23492,0,3.21765-1.01447,3.21765-3.31805V51.41449h10.27826C190.1795,51.41449,195.00507,44.13379,195.00507,33.44348z
		 M163.45544,34.82599V20.90918h8.04327c3.48535,0,4.20038,2.12048,4.20038,4.51562v4.8855
		c0,2.3952-0.71503,4.51569-4.20038,4.51569H163.45544z"/>
	<path class="st1" d="M210.73767,70.03009h41.47211c2.23492,0,3.21765-1.01447,3.21765-3.31805V55.93011
		c0-2.30359-0.98273-3.31805-3.21765-3.31805h-24.66876v-7.92529h17.42853c2.23499,0,3.21771-1.0144,3.21771-3.31805v-9.86078
		c0-2.30365-0.98273-3.31805-3.21771-3.31805h-17.42853v-7.09576h24.66876c2.23492,0,3.21765-1.01447,3.21765-3.31805V6.99414
		c0-2.30536-0.98273-3.31805-3.21765-3.31805h-41.47211c-2.23492,0-3.21771,1.0127-3.21771,3.31805v59.7179
		C207.51996,69.01562,208.50275,70.03009,210.73767,70.03009z"/>
	<path class="st1" d="M323.44568,66.71204V42.38318c0-3.68793-1.07257-8.2951-3.48535-14.74634l-7.77734-20.91919
		c-0.71503-2.12042-2.14508-3.04156-4.46808-3.04156h-24.04358c-2.41278,0-3.84283,0.92114-4.55786,3.04156l-7.77563,20.91919
		c-2.41278,6.45123-3.48712,11.05841-3.48712,14.74634v24.32886c0,2.30359,0.9845,3.31805,3.21948,3.31805h13.13831
		c2.23315,0,3.21765-1.01447,3.21765-3.31805v-12.9024h15.82062v12.9024c0,2.30359,1.0708,3.31805,3.48541,3.31805h13.49585
		C322.46295,70.03009,323.44568,69.01562,323.44568,66.71204z M288.31909,37.03802l4.20215-14.00836
		c0.44556-1.10602,0.98273-1.56744,1.69775-1.56744h2.23322c0.71503,0,1.2522,0.46143,1.69952,1.56744l4.20038,14.00836H288.31909z"
		/>
	<path class="st1" d="M392.80597,66.71204V40.72412c0-7.37402-4.29022-12.16614-10.99323-12.53424l9.11755-21.47223
		c0.80487-1.93555,0.08984-3.04156-1.96722-3.04156h-13.76355c-2.32477,0-3.5752,0.82953-4.46985,3.04156l-9.20569,21.47223
		h-3.57513V6.99414c0-2.30536-0.98273-3.31805-3.21771-3.31805h-13.85333c-2.23492,0-3.21771,1.0127-3.21771,3.31805v59.7179
		c0,2.30359,0.98279,3.31805,3.21771,3.31805h13.85333c2.23499,0,3.21771-1.01447,3.21771-3.31805V45.60785h11.7981
		c1.87738,0,2.86011,1.10602,2.86011,3.13318v17.97101c0,2.30359,0.98273,3.31805,3.21771,3.31805h13.76532
		C391.82324,70.03009,392.80597,69.01562,392.80597,66.71204z"/>
	<path class="st1" d="M474.68823,18.14417V6.99414c0-2.30536-0.98273-3.31805-3.21765-3.31805H424.2782
		c-2.23492,0-3.21765,1.0127-3.21765,3.31805v11.15002c0,2.30359,0.98273,3.31805,3.21765,3.31805h13.13837v45.24982
		c0,2.30359,0.9845,3.31805,3.21765,3.31805h14.48035c2.23315,0,3.21765-1.01447,3.21765-3.31805V21.46222h13.13837
		C473.70551,21.46222,474.68823,20.44775,474.68823,18.14417z"/>
	<path class="st1" d="M540.65302,52.61206V21.18567c0-11.24329-5.36279-18.89209-27.70679-18.89209
		c-22.34576,0-27.79663,7.6488-27.79663,18.89209v31.42639c0,11.24335,5.45087,18.80054,27.79663,18.80054
		C535.29022,71.4126,540.65302,63.85541,540.65302,52.61206z M520.4541,49.29401c0,2.48853-0.98273,4.33252-7.50787,4.33252
		c-6.43536,0-7.50787-1.84399-7.50787-4.33252V24.50372c0-2.39691,1.07251-4.23914,7.50787-4.23914
		c6.52515,0,7.50787,1.84222,7.50787,4.23914V49.29401z"/>
	<path class="st1" d="M624.85828,3.67609h-13.58569c-2.323,0-3.21594,1.0127-3.21594,3.31805v42.02338
		c0,2.48853-1.07428,4.33246-7.4198,4.33246c-6.25568,0-7.32825-1.84393-7.32825-4.33246V6.99414
		c0-2.30536-0.98273-3.31805-3.21765-3.31805h-14.03302c-2.23492,0-3.21771,1.0127-3.21771,3.31805v45.61792
		c0,11.24335,5.45264,18.80054,27.61877,18.80054c22.16608,0,27.61871-7.55719,27.61871-18.80054V6.99414
		C628.0777,4.68878,627.0932,3.67609,624.85828,3.67609z"/>
	<path class="st1" d="M691.53625,53.80963v-9.67584c0-10.32227-5.54065-14.00836-13.94147-15.29932l-13.31793-1.84222
		c-1.5199-0.18488-2.41284-1.29089-2.41284-2.94995c0-1.659,0.89294-2.76501,2.41284-2.76501h20.8241
		c2.23492,0,3.21942-1.0127,3.21942-3.31628V6.99414c0-2.30536-0.9845-3.31805-3.21942-3.31805h-25.02631
		c-11.61847,0-18.5011,5.71326-18.5011,16.2204v9.6759c0,10.32227,5.45258,14.00836,13.85516,15.29755l13.40601,1.93555
		c1.5199,0.18494,2.32477,1.0144,2.32477,3.13312c0,1.47589-0.80487,2.67346-2.32477,2.67346H644.7912
		c-2.23315,0-3.21765,1.01447-3.21765,3.31805v10.78192c0,2.30359,0.9845,3.31805,3.21765,3.31805h28.24396
		C684.56555,70.03009,691.53625,64.31683,691.53625,53.80963z"/>
	<path class="st2" d="M756.73901,97.09338H655.25854c-2.01886,0-3.65546,1.6366-3.65546,3.65546v11.40588
		c0,2.01886,1.6366,3.65546,3.65546,3.65546h101.48047c2.01886,0,3.65546-1.6366,3.65546-3.65546v-11.40588
		C760.39447,98.72998,758.75787,97.09338,756.73901,97.09338z"/>
	<path class="st2" d="M137.6391,108.20648H79.44122c-2.01886,0-3.65546,1.6366-3.65546,3.65546v11.40588
		c0,2.01886,1.6366,3.65546,3.65546,3.65546h58.19788c2.01886,0,3.65546-1.6366,3.65546-3.65546v-11.40588
		C141.29456,109.84308,139.65796,108.20648,137.6391,108.20648z"/>
	<path class="st2" d="M65.50879,15.0614V3.65546C65.50879,1.6366,63.87219,0,61.85333,0H3.6554C1.6366,0,0,1.6366,0,3.65546V15.0614
		c0,2.0188,1.6366,3.6554,3.6554,3.6554h58.19794C63.87219,18.7168,65.50879,17.0802,65.50879,15.0614z"/>
	<path class="st2" d="M744.04156,69.40814c2.01886,0,3.65546-1.6366,3.65546-3.65546V54.3468
		c0-2.01886-1.6366-3.65546-3.65546-3.65546h-28.95294c-2.0188,0-3.6554,1.6366-3.6554,3.65546v11.40588
		c0,2.01886,1.6366,3.65546,3.6554,3.65546H744.04156z"/>
	<path class="st1" d="M776.74744,21.32489h-63.75452c-2.75446,0-4.99646,2.24194-4.99646,4.9964
		c0,2.75452,2.242,4.99469,4.99646,4.99469h63.75452c2.75446,0,4.9964-2.24017,4.9964-4.99469
		C781.74384,23.56683,779.50189,21.32489,776.74744,21.32489z M776.74744,29.51257h-63.75452
		c-1.76117,0-3.19299-1.43182-3.19299-3.19128c0-1.76117,1.43182-3.19299,3.19299-3.19299h63.75452
		c1.76117,0,3.19299,1.43182,3.19299,3.19299C779.94043,28.08075,778.50861,29.51257,776.74744,29.51257z"/>
	<path class="st1" d="M151.93976,84.02887H30.26105c-1.53503,0-2.89319,0.71063-3.80994,1.80341
		c-0.72839,0.86816-1.18475,1.97186-1.18475,3.19128c0,1.21979,0.4566,2.32446,1.18555,3.19305
		c0.91681,1.09277,2.27448,1.80334,3.80914,1.80334h121.67871c1.53461,0,2.89288-0.71057,3.81018-1.80334
		c0.72931-0.86859,1.18622-1.97327,1.18622-3.19305c0-1.21942-0.45673-2.32312-1.18536-3.19128
		C154.83344,84.7395,153.47491,84.02887,151.93976,84.02887z M151.93976,92.21661H30.26105
		c-1.7594,0-3.19135-1.43195-3.19135-3.19305c0-1.75952,1.43195-3.19128,3.19135-3.19128h121.67871
		c1.76123,0,3.19305,1.43176,3.19305,3.19128C155.13281,90.78467,153.70099,92.21661,151.93976,92.21661z"/>
	<path class="st3" d="M200.45801,123.19763c0.05493-0.96466-0.30359-1.91272-0.98315-2.60254
		c-0.66547-0.67468-1.54254-1.01813-2.4245-1.01813c-0.75543,0-1.51477,0.25195-2.14813,0.76324
		c-2.1098,1.70648-4.65588,2.53491-7.78619,2.53491c-6.91449,0-11.93274-5.52319-11.93274-13.13379
		c0-7.60962,5.01825-13.13281,11.93274-13.13281c2.91626,0,5.44733,0.83813,7.52448,2.4892
		c0.63141,0.50006,1.38446,0.7467,2.13306,0.7467c0.89362,0,1.78143-0.35077,2.44983-1.03955
		c0.67273-0.69415,1.02252-1.64764,0.96075-2.61615c-0.06183-0.9588-0.52637-1.84998-1.27405-2.44543
		c-3.37793-2.68427-7.23553-3.98987-11.79407-3.98987c-10.83435,0-19.00482,8.59271-19.00482,19.98792
		s8.19287,19.98792,19.0578,19.98792c4.63837,0,8.68665-1.37134,12.03442-4.07648
		C199.94574,125.05103,200.40302,124.15643,200.45801,123.19763z"/>
	<path class="st1" d="M197.05035,118.77966c-0.95734,0-1.89813,0.33417-2.64874,0.94031
		c-1.96185,1.58679-4.34497,2.35834-7.28558,2.35834c-6.45233,0-11.13593-5.18854-11.13593-12.33698
		c0-7.14795,4.68359-12.336,11.13593-12.336c2.73047,0,5.09509,0.7793,7.02875,2.31647
		c0.74866,0.59302,1.68219,0.91943,2.62878,0.91943c1.14661,0,2.21973-0.45483,3.02191-1.28131
		c0.82843-0.85522,1.25989-2.02948,1.18402-3.2218c-0.07642-1.18304-0.64941-2.28296-1.57275-3.01843
		c-3.52582-2.80151-7.54584-4.16309-12.29071-4.16309c-11.2887,0-19.80164,8.93518-19.80164,20.78473
		s8.53534,20.78473,19.85461,20.78473c4.82471,0,9.04224-1.43066,12.53546-4.25354c0.91699-0.74335,1.48126-1.84711,1.54938-3.02917
		c0.06763-1.18842-0.37408-2.35785-1.2113-3.2077C199.24377,119.22571,198.1814,118.77966,197.05035,118.77966z
		 M168.11121,109.74133c0-11.3952,8.17047-19.98792,19.00482-19.98792c4.55853,0,8.41614,1.3056,11.79407,3.98987
		c0.74768,0.59546,1.21222,1.48663,1.27405,2.44543c0.06177,0.96851-0.28802,1.922-0.96075,2.61615
		c-0.6684,0.68878-1.55621,1.03955-2.44983,1.03955c-0.7486,0-1.50165-0.24664-2.13306-0.7467
		c-2.07715-1.65106-4.60822-2.4892-7.52448-2.4892c-6.91449,0-11.93274,5.52319-11.93274,13.13281
		c0,7.6106,5.01825,13.13379,11.93274,13.13379c3.13031,0,5.67639-0.82843,7.78619-2.53491
		c0.63336-0.51129,1.3927-0.76324,2.14813-0.76324c0.88196,0,1.75903,0.34344,2.4245,1.01813
		c0.67957,0.68982,1.03809,1.63788,0.98315,2.60254c-0.05499,0.9588-0.51227,1.85339-1.25458,2.45514
		c-3.34778,2.70514-7.39606,4.07648-12.03442,4.07648C176.30408,129.72925,168.11121,121.13654,168.11121,109.74133z"/>
	<path class="st3" d="M238.10339,92.03198c-0.59296-1.09454-1.69189-1.74786-2.93719-1.74786
		c-1.15143,0-2.20752,0.5813-2.82434,1.5542l-8.53436,13.46753l-8.5329-13.46655c-0.61682-0.97388-1.67389-1.55518-2.82581-1.55518
		h-0.12604c-1.24237,0-2.33887,0.65039-2.93427,1.73859c-0.59686,1.08966-0.55212,2.36469,0.11725,3.40906l10.79199,16.84351
		v13.57935c0,1.84369,1.50018,3.34393,3.34338,3.34393h0.22913c1.84314,0,3.34338-1.50024,3.34338-3.34393v-13.78949
		l10.75989-16.61877C238.65015,94.40149,238.69879,93.12451,238.10339,92.03198z"/>
	<path class="st1" d="M235.1662,89.4873c-1.42578,0-2.7334,0.71948-3.49762,1.92444l-7.86108,12.40503l-7.85968-12.40405
		c-0.76373-1.20593-2.07178-1.92542-3.49902-1.92542c-1.6637,0-3.02191,0.80463-3.75934,2.15308
		c-0.73895,1.34845-0.68445,2.92651,0.14545,4.22144l10.66602,16.64697v13.34583c0,2.28345,1.85724,4.14075,4.1402,4.14075h0.22913
		c2.2829,0,4.1402-1.8573,4.1402-4.14075v-13.55408l10.63196-16.4212c0.83813-1.29449,0.8985-2.87494,0.16101-4.22876
		C238.06982,90.29626,236.70972,89.4873,235.1662,89.4873z M227.21362,112.06512v13.78949
		c0,1.84369-1.50024,3.34393-3.34338,3.34393h-0.22913c-1.8432,0-3.34338-1.50024-3.34338-3.34393v-13.57935l-10.79199-16.84351
		c-0.66937-1.04437-0.71411-2.3194-0.11725-3.40906c0.5954-1.0882,1.69189-1.73859,2.93427-1.73859h0.12604
		c1.15192,0,2.20898,0.5813,2.82581,1.55518l8.5329,13.46655l8.53436-13.46753c0.61682-0.9729,1.67291-1.5542,2.82434-1.5542
		c1.2453,0,2.34424,0.65332,2.93719,1.74786c0.5954,1.09253,0.54675,2.36951-0.12988,3.41437L227.21362,112.06512z"/>
	<path class="st3" d="M270.79718,108.36273c2.25769-1.9259,3.42419-4.49243,3.47186-7.64514
		c0-5.19336-3.59979-10.43347-11.64233-10.43347h-9.92853c-2.47797,0-4.49384,2.01538-4.49384,4.49341v29.92761
		c0,2.47803,2.01587,4.49341,4.49384,4.49341h10.34009c7.64221,0,12.77673-4.59796,12.77673-11.44189
		C275.815,113.82318,274.03992,110.51428,270.79718,108.36273z M255.12024,96.71405h7.40289
		c3.08264,0,4.77942,1.57324,4.77942,4.42871c0,2.89685-1.58148,4.42865-4.57269,4.42865h-7.60962V96.71405z M263.29608,122.76855
		h-8.17584V112.0014h8.33008c3.177,0,5.39624,2.21338,5.39624,5.38312S266.56409,122.76855,263.29608,122.76855z"/>
	<path class="st1" d="M272.05078,108.28345c1.95605-1.98962,2.96936-4.526,3.01508-7.55371
		c0-5.60199-3.84595-11.24243-12.43915-11.24243h-9.92853c-2.91724,0-5.29065,2.37292-5.29065,5.29022v29.92761
		c0,2.9173,2.37341,5.29022,5.29065,5.29022h10.34009c8.1189,0,13.57355-4.91809,13.57355-12.23871
		C276.61182,113.90973,275.00067,110.5824,272.05078,108.28345z M263.03827,129.19855h-10.34009
		c-2.47797,0-4.49384-2.01538-4.49384-4.49341V94.77753c0-2.47803,2.01587-4.49341,4.49384-4.49341h9.92853
		c8.04254,0,11.64233,5.24011,11.64233,10.43347c-0.04767,3.15271-1.21417,5.71924-3.47186,7.64514
		c3.24274,2.15155,5.01782,5.46045,5.01782,9.39392C275.815,124.60059,270.68048,129.19855,263.03827,129.19855z"/>
	<path class="st1" d="M263.45032,112.0014h-8.33008v10.76715h8.17584c3.26801,0,5.55048-2.21429,5.55048-5.38403
		S266.62732,112.0014,263.45032,112.0014z M255.91705,121.97174v-9.17352h7.53326c2.75085,0,4.59943,1.84314,4.59943,4.5863
		c0,2.74359-1.91034,4.58722-4.75366,4.58722H255.91705z"/>
	<path class="st1" d="M267.30255,101.14276c0-2.85547-1.69678-4.42871-4.77942-4.42871h-7.40289v8.85736h7.60962
		C265.72107,105.57141,267.30255,104.03961,267.30255,101.14276z M255.91705,97.51086h6.60608
		c2.6424,0,3.9826,1.22198,3.9826,3.6319c0,2.44397-1.23511,3.63184-3.77588,3.63184h-6.81281V97.51086z"/>
	<path class="st3" d="M307.68066,122.55695h-15.72858V112.5321h14.03082c1.77216,0,3.2135-1.44281,3.2135-3.21545
		c0-1.77216-1.44135-3.21448-3.2135-3.21448h-14.03082v-9.17603h15.47125c1.77307,0,3.21545-1.44232,3.21545-3.21448V93.4986
		c0-1.77216-1.44238-3.21448-3.21545-3.21448h-17.89331c-2.47797,0-4.49335,2.01538-4.49335,4.49341v29.92761
		c0,2.47803,2.01538,4.49341,4.49335,4.49341h18.15063c1.77313,0,3.21545-1.44238,3.21545-3.21448v-0.21259
		C310.89612,123.99933,309.4538,122.55695,307.68066,122.55695z"/>
	<path class="st1" d="M307.68066,121.76013H292.7489v-8.43121h13.23401c2.21143,0,4.01031-1.79987,4.01031-4.01227
		c0-2.21191-1.79889-4.01129-4.01031-4.01129H292.7489v-7.5824h14.67444c2.21234,0,4.01227-1.79938,4.01227-4.01129V93.4986
		c0-2.21191-1.79993-4.01129-4.01227-4.01129h-17.89331c-2.91724,0-5.29016,2.37292-5.29016,5.29022v29.92761
		c0,2.9173,2.37292,5.29022,5.29016,5.29022h18.15063c2.2124,0,4.01227-1.79944,4.01227-4.01129v-0.21259
		C311.69293,123.55957,309.89307,121.76013,307.68066,121.76013z M310.89612,125.98407c0,1.77209-1.44232,3.21448-3.21545,3.21448
		h-18.15063c-2.47797,0-4.49335-2.01538-4.49335-4.49341V94.77753c0-2.47803,2.01538-4.49341,4.49335-4.49341h17.89331
		c1.77307,0,3.21545,1.44232,3.21545,3.21448v0.21307c0,1.77216-1.44238,3.21448-3.21545,3.21448h-15.47125v9.17603h14.03082
		c1.77216,0,3.2135,1.44232,3.2135,3.21448c0,1.77264-1.44135,3.21545-3.2135,3.21545h-14.03082v10.02484h15.72858
		c1.77313,0,3.21545,1.44238,3.21545,3.21454V125.98407z"/>
	<path class="st3" d="M339.03857,112.91107c5.77081-0.98895,9.4455-5.29169,9.4455-11.18408
		c0-6.73737-5.02069-11.44287-12.21051-11.44287h-9.67072c-2.47845,0-4.49384,2.01538-4.49384,4.49341v31.20654
		c0,1.77209,1.44135,3.21448,3.2135,3.21448h0.48694c1.77313,0,3.21545-1.44238,3.21545-3.21448v-12.81519h1.59558
		l11.64862,14.80231c0.61298,0.78027,1.53381,1.22736,2.52716,1.22736h0.54968c1.24677,0,2.35736-0.69757,2.89587-1.81836
		c0.54193-1.12079,0.39551-2.4245-0.38232-3.40033L339.03857,112.91107z M329.0249,106.89801V96.71405h7.09448
		c3.35944,0,5.44684,1.96191,5.44684,5.11853c0,3.26605-1.95264,5.06543-5.49744,5.06543H329.0249z"/>
	<path class="st1" d="M340.45953,113.41504c5.40253-1.45209,8.82135-5.91479,8.82135-11.68805
		c0-7.20685-5.34857-12.23969-13.00732-12.23969h-9.67072c-2.91724,0-5.29065,2.37292-5.29065,5.29022v31.20654
		c0,2.21185,1.79889,4.01129,4.01031,4.01129h0.48694c2.2124,0,4.01227-1.79944,4.01227-4.01129V113.9657h0.41156l11.4093,14.49829
		c0.76471,0.9729,1.91418,1.53137,3.15369,1.53137h0.54968c1.55664,0,2.94159-0.86981,3.61438-2.26984
		c0.67566-1.39856,0.49323-3.02478-0.47772-4.24237L340.45953,113.41504z M348.24182,127.38019
		c-0.53851,1.12079-1.64911,1.81836-2.89587,1.81836h-0.54968c-0.99335,0-1.91418-0.44708-2.52716-1.22736l-11.64862-14.80231
		h-1.59558v12.81519c0,1.77209-1.44232,3.21448-3.21545,3.21448h-0.48694c-1.77216,0-3.2135-1.44238-3.2135-3.21448V94.77753
		c0-2.47803,2.01538-4.49341,4.49384-4.49341h9.67072c7.18982,0,12.21051,4.70551,12.21051,11.44287
		c0,5.8924-3.67468,10.19513-9.4455,11.18408l8.82092,11.06879C348.63733,124.95569,348.78375,126.2594,348.24182,127.38019z"/>
	<path class="st1" d="M341.56622,101.83258c0-3.15662-2.0874-5.11853-5.44684-5.11853h-7.09448v10.18396h7.04388
		C339.61359,106.89801,341.56622,105.09863,341.56622,101.83258z M329.82172,106.1012v-8.59033h6.29767
		c2.91144,0,4.65002,1.61554,4.65002,4.32172c0,2.83209-1.58148,4.26862-4.70062,4.26862H329.82172z"/>
	<path class="st3" d="M410.65753,90.28412c-1.13007,0-2.18713,0.60468-2.75818,1.57758l-12.43182,21.14081l-12.47858-21.14423
		c-0.57111-0.97046-1.62817-1.57416-2.75818-1.57416c-1.76385,0-3.19891,1.43555-3.19891,3.20038v32.51416
		c0,1.76483,1.43506,3.19989,3.19891,3.19989h0.51758c1.76392,0,3.1994-1.43506,3.1994-3.19989V106.0545l8.30328,14.03613
		c0.57306,0.96899,1.62817,1.57031,2.75287,1.57031h0.92914c1.13,0,2.18707-0.60419,2.75818-1.57617l8.24982-14.0152v19.92908
		c0,1.76483,1.435,3.19989,3.19891,3.19989h0.51758c1.76385,0,3.1994-1.43506,3.1994-3.19989V93.4845
		C413.85693,91.71967,412.42139,90.28412,410.65753,90.28412z"/>
	<path class="st1" d="M410.65753,89.4873c-1.41168,0-2.73193,0.755-3.44556,1.97113l-11.74591,19.97382l-11.79071-19.97919
		c-0.71362-1.21222-2.03339-1.96576-3.44458-1.96576c-2.20312,0-3.99573,1.79309-3.99573,3.99719v32.51416
		c0,2.2041,1.7926,3.9967,3.99573,3.9967h0.51758c2.20367,0,3.99622-1.7926,3.99622-3.9967v-17.03125l6.82062,11.52893
		c0.71558,1.20984,2.0329,1.96136,3.43872,1.96136h0.92914c1.41119,0,2.73145-0.75446,3.44556-1.96912l6.76562-11.49396v17.00403
		c0,2.2041,1.79254,3.9967,3.99573,3.9967h0.51758c2.20361,0,3.99622-1.7926,3.99622-3.9967V93.4845
		C414.65375,91.2804,412.86115,89.4873,410.65753,89.4873z M413.85693,125.99866c0,1.76483-1.43555,3.19989-3.1994,3.19989h-0.51758
		c-1.76392,0-3.19891-1.43506-3.19891-3.19989v-19.92908l-8.24982,14.0152c-0.57111,0.97198-1.62817,1.57617-2.75818,1.57617
		h-0.92914c-1.12469,0-2.17981-0.60132-2.75287-1.57031l-8.30328-14.03613v19.94415c0,1.76483-1.43549,3.19989-3.1994,3.19989
		h-0.51758c-1.76385,0-3.19891-1.43506-3.19891-3.19989V93.4845c0-1.76483,1.43506-3.20038,3.19891-3.20038
		c1.13,0,2.18707,0.6037,2.75818,1.57416l12.47858,21.14423l12.43182-21.14081c0.57104-0.9729,1.62811-1.57758,2.75818-1.57758
		c1.76385,0,3.1994,1.43555,3.1994,3.20038V125.99866z"/>
	<path class="st3" d="M462.26428,109.74133c0-11.20837-8.39374-19.98792-19.1084-19.98792
		c-10.65674,0-19.00482,8.75714-19.00482,19.93536c0,11.2381,8.3938,20.04047,19.10797,20.04047
		C453.91626,129.72925,462.26428,120.9502,462.26428,109.74133z M443.15588,122.87512c-6.91492,0-11.93274-5.5451-11.93274-13.18634
		c0-7.70105,4.90735-13.08026,11.93274-13.08026c6.97577,0,12.03827,5.50079,12.03827,13.08026
		C455.19415,117.33002,450.13165,122.87512,443.15588,122.87512z"/>
	<path class="st1" d="M443.15588,88.9566c-11.10382,0-19.80164,9.10638-19.80164,20.73218
		c0,11.68463,8.7431,20.83728,19.90479,20.83728c11.10431,0,19.80206-9.12976,19.80206-20.78473
		S454.31757,88.9566,443.15588,88.9566z M424.15106,109.68878c0-11.17822,8.34808-19.93536,19.00482-19.93536
		c10.71466,0,19.1084,8.77954,19.1084,19.98792c0,11.20886-8.34802,19.98792-19.00525,19.98792
		C432.54486,129.72925,424.15106,120.92688,424.15106,109.68878z"/>
	<path class="st1" d="M443.15588,96.60852c-7.02539,0-11.93274,5.37921-11.93274,13.08026
		c0,7.64124,5.01782,13.18634,11.93274,13.18634c6.97577,0,12.03827-5.5451,12.03827-13.18634
		C455.19415,102.10931,450.13165,96.60852,443.15588,96.60852z M443.15588,122.07831c-6.45233,0-11.13593-5.21045-11.13593-12.38953
		c0-7.23212,4.57953-12.28345,11.13593-12.28345c6.51361,0,11.24146,5.16614,11.24146,12.28345
		C454.39734,116.86786,449.66949,122.07831,443.15588,122.07831z"/>
	<path class="st3" d="M499.77618,90.28412h-0.3371c-1.81354,0-3.28845,1.47589-3.28845,3.28943v21.88995l-17.31921-23.8241
		c-0.61542-0.84888-1.61066-1.35529-2.66144-1.35529c-1.81348,0-3.28839,1.47589-3.28839,3.28943v32.33557
		c0,1.81403,1.47491,3.28943,3.28839,3.28943h0.33856c1.81403,0,3.28894-1.4754,3.28894-3.28943v-21.88947l17.31683,23.82507
		c0.61877,0.8479,1.61401,1.35382,2.66187,1.35382c1.81445,0,3.29034-1.4754,3.29034-3.28943V93.57355
		C503.06653,91.76001,501.59064,90.28412,499.77618,90.28412z"/>
	<path class="st1" d="M499.77618,89.4873h-0.3371c-2.25281,0-4.08527,1.83295-4.08527,4.08624v19.43823L479.47595,91.1709
		c-0.76373-1.05414-1.99982-1.68359-3.30597-1.68359c-2.25275,0-4.08521,1.83295-4.08521,4.08624v32.33557
		c0,2.25323,1.83246,4.08624,4.08521,4.08624h0.33856c2.25281,0,4.08575-1.83301,4.08575-4.08624v-19.43726l15.87543,21.84131
		c0.7691,1.05414,2.0047,1.68219,3.30646,1.68219c2.25372,0,4.08716-1.83301,4.08716-4.08624V93.57355
		C503.86334,91.32025,502.02991,89.4873,499.77618,89.4873z M503.06653,125.90912c0,1.81403-1.47589,3.28943-3.29034,3.28943
		c-1.04785,0-2.04309-0.50592-2.66187-1.35382l-17.31683-23.82507v21.88947c0,1.81403-1.47491,3.28943-3.28894,3.28943h-0.33856
		c-1.81348,0-3.28839-1.4754-3.28839-3.28943V93.57355c0-1.81354,1.47491-3.28943,3.28839-3.28943
		c1.05078,0,2.04602,0.50641,2.66144,1.35529l17.31921,23.8241V93.57355c0-1.81354,1.47491-3.28943,3.28845-3.28943h0.3371
		c1.81445,0,3.29034,1.47589,3.29034,3.28943V125.90912z"/>
	<path class="st3" d="M547.93158,109.74133c0-11.09265-8.25903-19.45721-19.20959-19.45721h-9.75
		c-2.49115,0-4.51819,2.02655-4.51819,4.5177v29.87903c0,2.49109,2.02704,4.5177,4.51819,4.5177h9.85315
		C539.71735,129.19855,547.93158,120.83441,547.93158,109.74133z M521.36975,122.55695v-25.6308h7.24866
		c7.20874,0,12.24304,5.24835,12.24304,12.76263c0,7.57605-5.0343,12.86816-12.24304,12.86816H521.36975z"/>
	<path class="st1" d="M528.72198,89.4873h-9.75c-2.93091,0-5.315,2.38409-5.315,5.31451v29.87903
		c0,2.93036,2.38409,5.31451,5.315,5.31451h9.85315c11.34705,0,19.90326-8.70709,19.90326-20.25403
		C548.72839,98.19434,540.12738,89.4873,528.72198,89.4873z M514.4538,124.68085V94.80182c0-2.49115,2.02704-4.5177,4.51819-4.5177
		h9.75c10.95056,0,19.20959,8.36456,19.20959,19.45721c0,11.09308-8.21423,19.45721-19.10645,19.45721h-9.85315
		C516.48083,129.19855,514.4538,127.17194,514.4538,124.68085z"/>
	<path class="st1" d="M540.86145,109.68878c0-7.51428-5.0343-12.76263-12.24304-12.76263h-7.24866v25.6308h7.24866
		C535.82715,122.55695,540.86145,117.26483,540.86145,109.68878z M528.61841,121.76013h-6.4519V97.72296h6.4519
		c6.73932,0,11.44623,4.92053,11.44623,11.96582C540.06464,116.7959,535.35773,121.76013,528.61841,121.76013z"/>
	<path class="st3" d="M587.26642,124.51935l-12.68384-32.07147c-0.51904-1.31488-1.76776-2.16376-3.18091-2.16376H571.138
		c-1.40875,0-2.65747,0.84692-3.17896,2.15839L555.229,124.51544c-0.41785,1.05414-0.28699,2.24402,0.34979,3.18433
		c0.63818,0.93787,1.6972,1.49878,2.83118,1.49878c1.4068,0,2.69006-0.88342,3.19501-2.19781l2.34955-6.13568h14.43213
		l2.39288,6.15369c0.51611,1.32507,1.76776,2.17981,3.18823,2.17981h0.11774c1.13489,0,2.19293-0.55994,2.82874-1.49683
		C587.55341,126.76337,587.68427,125.57349,587.26642,124.51935z M566.4588,114.4361l4.75659-12.22314l4.71954,12.22314H566.4588z"
		/>
	<path class="st1" d="M575.32397,92.15454c-0.63971-1.61987-2.17932-2.66724-3.9223-2.66724H571.138
		c-1.7381,0-3.27673,1.04443-3.9198,2.66089l-12.73004,32.07343c-0.51514,1.29932-0.35413,2.76648,0.43048,3.92517
		c0.78857,1.15826,2.09326,1.84857,3.49133,1.84857c1.7337,0,3.31659-1.08868,3.93878-2.70911l2.15405-5.62439h13.33856
		l2.19537,5.64581c0.6358,1.63306,2.17883,2.68768,3.93103,2.68768c1.51727,0,2.82141-0.68982,3.60608-1.84613
		c0.78662-1.15533,0.9491-2.62244,0.43341-3.92371L575.32397,92.15454z M584.08551,129.19855h-0.11774
		c-1.42047,0-2.67212-0.85474-3.18823-2.17981l-2.39288-6.15369h-14.43213l-2.34955,6.13568
		c-0.50494,1.31439-1.78821,2.19781-3.19501,2.19781c-1.13397,0-2.19299-0.56091-2.83118-1.49878
		c-0.63678-0.94031-0.76764-2.13019-0.34979-3.18433l12.73004-32.07294c0.52148-1.31146,1.7702-2.15839,3.17896-2.15839h0.26367
		c1.41315,0,2.66187,0.84888,3.18091,2.16376l12.68384,32.07147c0.41785,1.05414,0.28699,2.24402-0.35217,3.18237
		C586.27844,128.63861,585.2204,129.19855,584.08551,129.19855z"/>
	<path class="st1" d="M566.4588,114.4361h9.47614l-4.71954-12.22314L566.4588,114.4361z M567.62439,113.63928l3.58807-9.22125
		l3.56036,9.22125H567.62439z"/>
	<path class="st3" d="M620.05444,92.03198v-0.00098c-0.59546-1.09357-1.69482-1.74689-2.9397-1.74689
		c-1.1543,0-2.20996,0.5813-2.82483,1.55518l-8.53143,13.46655l-8.53485-13.46655c-0.61682-0.97388-1.67389-1.55518-2.82629-1.55518
		h-0.12354c-1.24146,0-2.33887,0.65039-2.93433,1.74054c-0.59686,1.09064-0.55212,2.36462,0.11725,3.40808l10.79199,16.84253
		v13.57935c0,1.84369,1.50024,3.34393,3.34338,3.34393h0.22717c1.84515,0,3.3454-1.50024,3.3454-3.34393v-13.78949l10.75793-16.6178
		C620.59924,94.40344,620.64789,93.12646,620.05444,92.03198z"/>
	<path class="st1" d="M617.11475,89.4873c-1.4292,0-2.73676,0.71997-3.49854,1.92639l-7.85773,12.40308l-7.86157-12.40405
		c-0.76373-1.20593-2.07184-1.92542-3.49957-1.92542c-1.66174,0-3.0199,0.8056-3.75739,2.15546
		c-0.7384,1.34894-0.6839,2.927,0.14594,4.22052l10.66602,16.64551v13.34583c0,2.28345,1.8573,4.14075,4.1402,4.14075h0.22717
		c2.28394,0,4.14221-1.8573,4.14221-4.14075v-13.55408l10.63-16.42023c0.83765-1.29156,0.89844-2.87256,0.16345-4.22827
		C620.01746,90.29626,618.65686,89.4873,617.11475,89.4873z M609.16467,112.06512v13.78949
		c0,1.84369-1.50024,3.34393-3.3454,3.34393h-0.22717c-1.84314,0-3.34338-1.50024-3.34338-3.34393v-13.57935l-10.79199-16.84253
		c-0.66937-1.04346-0.71411-2.31744-0.11725-3.40808c0.59546-1.09015,1.69287-1.74054,2.93433-1.74054h0.12354
		c1.1524,0,2.20947,0.5813,2.82629,1.55518l8.53485,13.46655l8.53143-13.46655c0.61487-0.97388,1.67053-1.55518,2.82483-1.55518
		c1.24487,0,2.34424,0.65332,2.9397,1.74689v0.00098c0.59344,1.09448,0.5448,2.37146-0.13184,3.41534L609.16467,112.06512z"/>
</g>
</svg>
