<?xml version="1.0" encoding="utf-8"?>
<!-- Generator: Adobe Illustrator 26.0.1, SVG Export Plug-In . SVG Version: 6.00 Build 0)  -->
<svg version="1.1" id="Layer_1" xmlns="http://www.w3.org/2000/svg" xmlns:xlink="http://www.w3.org/1999/xlink" x="0px" y="0px"
	 viewBox="0 0 297.72974 265.80594" style="enable-background:new 0 0 297.72974 265.80594;" xml:space="preserve">
<style type="text/css">
	.st0{fill:#FF0055;}
	.st1{fill:#FE4164;}
	.st2{fill:#FC8427;}
	.st3{fill:#FF9933;}
</style>
<g>
	<g>
		<path class="st0" d="M18.61597,76.84658h27.92558c5.14065,0,9.30797,4.16732,9.30797,9.30797v0.57949
			c0,5.14066-4.16732,9.30798-9.30797,9.30798H9.30797C4.16732,96.04202,0,91.87469,0,86.73404V9.30797
			C0,4.16732,4.16732,0,9.30797,0h0.00002c5.14065,0,9.30797,4.16732,9.30797,9.30797V76.84658z"/>
		<path class="st0" d="M116.11997,19.19463H90.20409c-0.95013,0-1.72038,0.77024-1.72038,1.72037v15.75469
			c0,0.95013,0.77024,1.72037,1.72038,1.72037h7.29829c5.30045,0,9.59731,4.29686,9.59731,9.59731v0.00083
			c0,5.30045-4.29686,9.5973-9.59731,9.5973h-7.29829c-0.95013,0-1.72038,0.77024-1.72038,1.72037v15.82034
			c0,0.95013,0.77024,1.72038,1.72038,1.72038h25.91588c5.30045,0,9.5973,4.29686,9.5973,9.5973v0.00083
			c0,5.30045-4.29685,9.59731-9.5973,9.59731H79.33434c-5.22825,0-9.46658-4.23833-9.46658-9.46658V9.46658
			C69.86775,4.23833,74.10609,0,79.33434,0h36.78564c5.30045,0,9.59731,4.29686,9.5973,9.5973v0.00002
			C125.71727,14.89777,121.42042,19.19463,116.11997,19.19463z"/>
		<path class="st0" d="M149.0451,0h37.23357c5.14066,0,9.30798,4.16732,9.30798,9.30797v0.57868
			c0,5.14065-4.16733,9.30797-9.30798,9.30797h-9.30962v67.53941c0,5.14066-4.16731,9.30798-9.30797,9.30798h-0.00002
			c-5.14066,0-9.30798-4.16732-9.30798-9.30798V19.19463h-9.30798c-5.14066,0-9.30797-4.16732-9.30797-9.30797V9.30797
			C139.73714,4.16732,143.90445,0,149.0451,0z"/>
		<path class="st0" d="M218.6591,0.0317c5.07761-0.01816,9.20287,4.093,9.20287,9.17063v9.9923
			c-0.12805,5.42756-1.98073,9.9847-5.55318,13.669c-3.57407,3.68429-7.9278,5.52644-13.06279,5.52644V9.20331
			c0-5.05203,4.08598-9.15254,9.13799-9.17063C218.47568,0.03236,218.5674,0.03203,218.6591,0.0317z"/>
		<path class="st0" d="M288.13242,19.19463h-25.91586c-0.95013,0-1.72037,0.77024-1.72037,1.72037v15.75469
			c0,0.95014,0.77023,1.72038,1.72037,1.72037l16.53876-0.00004c4.97812-0.00002,9.83585,1.87656,13.32428,5.42799
			c3.63593,3.70161,5.51929,8.29105,5.65015,13.76749v19.26109c-0.13086,5.47752-2.01495,10.06853-5.65231,13.76967
			c-3.48926,3.55042-8.34726,5.42581-13.32523,5.4258l-27.27469-0.00003c-5.30045,0-9.59731-4.29686-9.59731-9.59731v-0.00084
			c0-5.30044,4.29686-9.5973,9.59731-9.5973h25.91428c0.95013,0,1.72037-0.77024,1.72037-1.72038V59.30587
			c0-0.95013-0.77023-1.72037-1.72037-1.72037h-16.8956c-5.13499,0-9.49034-1.8308-13.06441-5.49402
			c-3.57245-3.66241-5.42352-8.22928-5.55157-13.70142V19.19463c0.12805-5.47052,1.97913-10.0382,5.55157-13.70142
			C251.00584,1.83161,255.36119,0,260.49619,0h27.63623c5.30045,0,9.59732,4.29686,9.59732,9.5973v0.00002
			C297.72974,14.89777,293.43286,19.19463,288.13242,19.19463z"/>
		<path class="st1" d="M46.54161,76.84658H18.61604V9.30798C18.61604,4.16732,14.44872,0,9.30806,0
			C5.41589,0,2.08617,2.39062,0.69585,5.78173c0.85218-0.25701,1.75462-0.39864,2.69068-0.39864
			c5.14067,0,9.30798,4.16732,9.30798,9.30798v67.5386h27.92557c5.14066,0,9.30798,4.16732,9.30798,9.30798v0.57947
			c0,1.2488-0.25002,2.43813-0.69617,3.52626c3.82815-1.15469,6.61771-4.70475,6.61771-8.90935v-0.57947
			C55.8496,81.01389,51.68228,76.84658,46.54161,76.84658z"/>
		<path class="st1" d="M110.19857,5.38309c5.30032,0,9.59731,4.29689,9.59731,9.59731c0,1.33582-0.27433,2.60711-0.76749,3.7627
			c3.87799-1.23239,6.68903-4.85974,6.68903-9.14579C125.71741,4.29679,121.42043,0,116.1201,0H79.33432
			c-3.93066,0-7.30091,2.39649-8.73215,5.80756c0.88824-0.27575,1.83201-0.42447,2.81062-0.42447H110.19857z"/>
		<path class="st1" d="M82.56233,64.68896v15.82033c0,0.95015,0.77033,1.72038,1.72058,1.72038h25.91566
			c5.30032,0,9.59731,4.29689,9.59731,9.59731v0.00081c0,1.33582-0.27433,2.60711-0.76749,3.7627
			c3.87799-1.23238,6.68903-4.85974,6.68903-9.14579v-0.00081c0-5.30053-4.29699-9.59731-9.59731-9.59731H90.20403
			c-0.94984,0-1.72017-0.77023-1.72017-1.72038V62.96859h-4.20095C83.33266,62.96859,82.56233,63.73882,82.56233,64.68896z"/>
		<path class="st1" d="M84.28291,24.57771c-0.95025,0-1.72058,0.77023-1.72058,1.72038v15.75468
			c0,0.95015,0.77033,1.72038,1.72058,1.72038h7.29807c5.30032,0,9.59731,4.29689,9.59731,9.59731v0.00081
			c0,1.33582-0.27434,2.60711-0.76749,3.7627c3.87799-1.23238,6.68903-4.85975,6.68903-9.14579v-0.00081
			c0-5.30053-4.29699-9.59731-9.59731-9.59731h-7.29848c-0.94984,0-1.72017-0.77023-1.72017-1.72038V24.57771H84.28291z"/>
		<path class="st1" d="M171.04774,92.11712c0,1.2488-0.25003,2.43813-0.69618,3.52626
			c3.82816-1.15469,6.61731-4.70475,6.61731-8.90935V24.57771h-5.92113V92.11712z"/>
		<path class="st1" d="M186.27847,0h-37.23355c-3.89177,0-7.22189,2.39062-8.61182,5.78173
			c0.85219-0.25701,1.75462-0.39864,2.69069-0.39864h37.23355c5.14066,0,9.30798,4.16732,9.30798,9.30798v0.57866
			c0,1.2488-0.25003,2.43813-0.69618,3.52625c3.82816-1.15468,6.61731-4.70475,6.61731-8.90934V9.30798
			C195.58646,4.16732,191.41913,0,186.27847,0z"/>
		<path class="st1" d="M218.65907,0.03171c-0.09158,0.0003-0.18317,0.00061-0.27515,0.00091
			c-3.84598,0.01378-7.12587,2.39609-8.47566,5.76035c0.81126-0.23837,1.66669-0.37402,2.55412-0.37716
			c0.09198-0.00041,0.18356-0.00071,0.27515-0.00101c5.07785-0.01813,9.20303,4.09296,9.20303,9.17061v9.9923
			c-0.10414,4.41977-1.37209,8.25207-3.76129,11.51615c1.47421-0.8456,2.85399-1.91529,4.12964-3.23024
			c3.57245-3.68429,5.42513-8.24144,5.55318-13.669v-9.9923C227.86209,4.12467,223.73651,0.01347,218.65907,0.03171z"/>
		<path class="st1" d="M256.29501,24.57771c-0.95026,0-1.72018,0.77023-1.72018,1.72038v15.75468
			c0,0.95015,0.76993,1.72038,1.72018,1.72038h16.53879c4.97818-0.0001,9.836,1.87649,13.32416,5.42797
			c3.63605,3.70161,5.51953,8.29108,5.65042,13.76747v19.26108c-0.10373,4.34683-1.33075,8.12595-3.64255,11.35446
			c1.42194-0.80406,2.74783-1.78379,3.91162-2.96786c3.6373-3.70121,5.52158-8.29218,5.65207-13.76969V57.58549
			c-0.13049-5.47649-2.01398-10.06595-5.65005-13.76757c-3.48856-3.55138-8.34598-5.42797-13.32413-5.42797l-16.53882,0.0001
			c-0.95023,0-1.72055-0.77023-1.72055-1.72038V24.57771H256.29501z"/>
		<path class="st1" d="M271.47021,82.22967c0.95026,0,1.72058-0.77023,1.72058-1.72038v-3.66271h-21.71349
			c-3.96471,0-7.36656,2.40469-8.82982,5.83461c0.91783-0.29166,1.89401-0.45152,2.90869-0.45152H271.47021z"/>
		<path class="st1" d="M282.21106,5.38309c5.30032,0,9.59732,4.29689,9.59732,9.59731c0,1.33582-0.27432,2.60711-0.76749,3.7627
			c3.87799-1.23239,6.68863-4.85974,6.68863-9.14579c0-5.30053-4.2966-9.59731-9.59732-9.59731h-27.63623
			c-5.13501,0-9.49034,1.83161-13.06442,5.49321c-0.67834,0.69587-1.27483,1.4349-1.82918,2.19601
			c2.66678-1.52921,5.65408-2.30613,8.97246-2.30613H282.21106z"/>
	</g>
	<g>
		<path class="st2" d="M137.83014,184.73309h24.09476c4.43546,0,8.03111,3.59566,8.03111,8.03111v0.5
			c0,4.43546-3.59566,8.0311-8.03111,8.0311h-32.12587c-4.43546,0-8.03111-3.59564-8.03111-8.0311v-66.80477
			c0-4.43546,3.59565-8.03111,8.03111-8.03111h0.00002c4.43546,0,8.0311,3.59565,8.0311,8.03111V184.73309z"/>
		<path class="st2" d="M8.03111,118.42832h32.12588c4.43546,0,8.03111,3.59565,8.03111,8.03111v0.49929
			c0,4.43546-3.59565,8.03111-8.03111,8.03111h-8.03252v58.27437c0,4.43546-3.59565,8.0311-8.03111,8.0311h-0.00002
			c-4.43546,0-8.03111-3.59564-8.03111-8.0311v-58.27437H8.03111C3.59565,134.98984,0,131.39418,0,126.95872v-0.49929
			C0,122.02397,3.59565,118.42832,8.03111,118.42832z"/>
		<path class="st2" d="M92.71741,118.42832c4.43198,0,8.18845,1.58035,11.27223,4.73965
			c3.08238,3.1607,4.67951,7.10178,4.7914,11.82186v58.27437c0,4.43546-3.59565,8.0311-8.03111,8.0311h-0.00142
			c-4.43546,0-8.03111-3.59564-8.03111-8.0311v-7.53401c0-0.55069-0.44641-0.9971-0.99709-0.9971H77.65227
			c-0.55067,0-0.99709,0.44641-0.99709,0.9971v7.53401c0,4.43546-3.59564,8.0311-8.03111,8.0311h-0.00002
			c-4.43546,0-8.03111-3.59564-8.03111-8.0311v-58.27437c0.11049-4.72008,1.70761-8.66116,4.79-11.82186
			c3.08378-3.1593,6.84165-4.73965,11.27222-4.73965H92.71741z M92.71741,166.13741v-29.17073
			c0-1.09178-0.88506-1.97684-1.97684-1.97684H78.63203c-1.09178,0-1.97685,0.88506-1.97685,1.97684v29.17073
			c0,1.09178,0.88507,1.97684,1.97685,1.97684h12.10854C91.83234,168.11424,92.71741,167.22919,92.71741,166.13741z"/>
		<path class="st2" d="M219.63115,159.83279l7.6946,31.82054c1.18793,4.91258-2.53415,9.64197-7.58833,9.64197h-0.00078
			c-3.60431,0-6.74014-2.46742-7.58797-5.9706l-6.33203-26.16347c-0.14868-0.6143-0.69856-1.047-1.33061-1.047h-5.58557
			c-0.75609,0-1.36902,0.61293-1.36902,1.36902v24.00502c0,4.31169-3.49533,7.80702-7.80704,7.80702h-0.44817
			c-4.31171,0-7.80704-3.49533-7.80704-7.80702v-67.25293c0-4.3117,3.49533-7.80703,7.80704-7.80703h0.44817
			c4.31171,0,7.80704,3.49533,7.80704,7.80703v23.94768c0,0.75609,0.61293,1.36902,1.36902,1.36902h5.58601
			c0.63184,0,1.18161-0.43242,1.33047-1.04646l6.32996-26.10966c0.84894-3.50172,3.98407-5.96761,7.58723-5.96761h0.00002
			c5.05521,0,8.77748,4.7312,7.58774,9.64442L219.63115,159.83279z"/>
		<path class="st3" d="M161.92482,184.73309h-24.09476v-58.27365c0-4.43547-3.59564-8.03112-8.03111-8.03112
			c-3.35789,0-6.23119,2.06268-7.43044,4.98859c0.73528-0.22176,1.51392-0.34396,2.32157-0.34396
			c4.43548,0,8.03112,3.59565,8.03112,8.03112v58.27365h24.09474c4.43547,0,8.03111,3.59566,8.03111,8.03111v0.49998
			c0,1.07748-0.21573,2.10367-0.60068,3.04253c3.30301-0.99629,5.70955-4.05936,5.70955-7.68716v-0.49998
			C169.95593,188.32875,166.36028,184.73309,161.92482,184.73309z"/>
		<path class="st3" d="M40.1571,118.42832H8.03124c-3.35824,0-6.23119,2.06258-7.43079,4.98851
			c0.73528-0.22176,1.51392-0.34387,2.32158-0.34387h32.12586c4.43547,0,8.03111,3.59565,8.03111,8.03112v0.49928
			c0,1.07748-0.21572,2.10365-0.60067,3.04251c3.303-0.99628,5.70989-4.05934,5.70989-7.68716v-0.49928
			C48.18821,122.02397,44.59256,118.42832,40.1571,118.42832z"/>
		<path class="st3" d="M27.01537,197.90883c0,1.07748-0.21572,2.10367-0.60067,3.04253
			c3.303-0.99629,5.70989-4.05936,5.70989-7.68716v-53.62971h-5.10922V197.90883z"/>
		<path class="st3" d="M71.54592,190.3748v7.53403c0,1.07748-0.21572,2.10376-0.60032,3.04262
			c3.30265-0.9962,5.70954-4.05936,5.70954-7.68726v-3.88646h-4.11206C71.99241,189.37773,71.54592,189.82413,71.54592,190.3748z"/>
		<path class="st3" d="M76.65514,166.13742v-26.50294h-3.13203c-1.09191,0-1.97719,0.8851-1.97719,1.97684v29.17075
			c0,1.09172,0.88528,1.97682,1.97719,1.97682h12.10821c1.09191,0,1.97684-0.8851,1.97684-1.97682v-2.66782h-8.97618
			C77.54041,168.11424,76.65514,167.22914,76.65514,166.13742z"/>
		<path class="st3" d="M92.71737,118.42832H76.65514c-4.43058,0-8.18845,1.58035-11.27223,4.73965
			c-0.58564,0.60041-1.09995,1.23806-1.57825,1.89476c2.3006-1.31944,4.87846-1.98978,7.74126-1.98978h16.06223
			c4.43198,0,8.18845,1.58035,11.27223,4.73965c3.08238,3.1607,4.67951,7.10178,4.7914,11.82186v58.27435
			c0,1.07748-0.21573,2.10376-0.60033,3.04262c3.30266-0.9962,5.70954-4.05936,5.70954-7.68726v-58.27435
			c-0.11189-4.72008-1.70901-8.66116-4.7914-11.82186C100.90582,120.00867,97.14935,118.42832,92.71737,118.42832z"/>
		<path class="st3" d="M227.32578,191.65334l-7.69441-31.82054l7.69057-31.76006c1.18982-4.91324-2.53275-9.64442-7.58777-9.64442
			c-3.24707,0-6.09764,2.01145-7.25352,4.96998c0.68703-0.1972,1.40134-0.32534,2.1443-0.32534
			c5.05537,0,8.77759,4.73118,7.58778,9.64442l-7.69058,31.76006l7.69443,31.82054c0.39684,1.64084,0.23601,3.25667-0.32936,4.68729
			C225.78494,199.87326,228.33693,195.83524,227.32578,191.65334z"/>
		<path class="st3" d="M192.42242,174.12788v24.00507c0,1.00887-0.19789,1.96992-0.54648,2.85503
			c3.26419-0.9351,5.65569-3.93532,5.65569-7.49976v-20.72934h-3.74039C193.03532,172.75888,192.42242,173.3718,192.42242,174.12788
			z"/>
		<path class="st3" d="M184.61542,123.07296c4.31171,0,7.80701,3.4953,7.80701,7.807v23.94772c0,0.75609,0.6129,1.369,1.36882,1.369
			h5.58612c0.63179,0,1.18141-0.43242,1.33035-1.04646l0.87234-3.59818h-2.67961c-0.75626,0-1.36882-0.61292-1.36882-1.36909
			v-23.94763c0-4.3117-3.49565-7.807-7.80734-7.807h-0.44823c-3.30266,0-6.12001,2.05411-7.26053,4.95188
			c0.68423-0.19606,1.40414-0.30724,2.15166-0.30724H184.61542z"/>
	</g>
	<g>
		<path class="st0" d="M13.53289,265.80594c-2.96299,0-4.55957-2.42325-4.55957-4.70224v-39.75079
			c0-3.05214,2.3503-4.69897,4.5612-4.69897h15.47305v5.35544h-14.8409v38.44113h14.8409v5.35544H13.53289z M10.70443,221.35291
			v39.75079c0,1.4491,0.97092,2.91763,2.82846,2.91763h13.74356v-1.78622H13.53289c-0.61108,0-1.0471-0.60461-1.09248-1.03738
			l-0.00486-39.84482c0-0.64188,0.6127-1.09572,1.03575-1.12651l13.80515-0.00325v-1.78461H13.53451
			C12.12757,218.43854,10.70443,219.44026,10.70443,221.35291z"/>
		<path class="st0" d="M53.62408,216.74471v5.95192c-0.12805,3.02783-0.76669,3.81073-3.2272,5.33275
			c-2.05043,1.26753-3.33418,2.06015-4.13328,2.55128v35.22528h-5.19334v-35.22528
			c-0.80072-0.49113-2.08609-1.28375-4.13814-2.55128c-2.4589-1.52202-3.09428-2.29356-3.22071-5.2128l-0.00162-6.07187h5.19334
			v5.95192c0.01134,0.24313,0.04052,0.34201,0.05511,0.37444c0.09239,0.03079,0.17344,0.0778,0.34039,0.17992l4.36831,2.69069
			c0.78938-0.48465,2.04557-1.25781,4.0571-2.50429l0.69374-0.42953c0.00648-0.08591,0.0081-0.18965,0.00972-0.25934l0.00324-6.0038
			H53.62408z M51.89296,218.52931h-1.73111v4.08627c-0.01459,0.63539-0.02917,1.41342-0.66781,1.80891l-0.88015,0.543
			c-2.44268,1.51392-3.77344,2.33247-4.50446,2.77983l-0.4425,0.27231l-5.24521-3.23044
			c-0.20099-0.12157-0.29662-0.17992-0.52517-0.33714c-0.66943-0.46033-0.70833-1.37128-0.72292-1.7149l-0.00324-4.20784h-1.7295
			v4.24673c0.09888,2.22388,0.35984,2.47186,2.37947,3.72321c2.45889,1.51715,3.81396,2.35191,4.55633,2.80576l0.42467,0.26097
			v34.45535h1.73111v-34.45535l0.42305-0.25934c0.74075-0.45547,2.09581-1.29024,4.55147-2.80739
			c2.0245-1.25296,2.28546-1.50258,2.38596-3.84314V218.52931z"/>
		<path class="st0" d="M78.31191,261.10046c-0.00163,2.28223-1.60145,4.70547-4.5612,4.70547H62.95881
			c-2.64368,0-4.5612-1.97751-4.5612-4.70224l-0.0616-39.74918c0-3.05376,2.3503-4.70059,4.5612-4.70059h10.79191
			c0.26097,0,1.18326,0.03891,2.14282,0.53328c1.53661,0.791,2.42,2.30815,2.42,4.1657v6.07349
			c0,0.97092-0.24962,1.86241-0.72454,2.61127c0.47978,1.04224,0.72454,2.20279,0.72454,3.46223L78.31191,261.10046z
			 M76.5808,261.10208l-0.06159-27.60057c0-1.16219-0.2561-2.20442-0.76182-3.10077l-0.31284-0.55597l0.41171-0.48303
			c0.44089-0.51382,0.66295-1.16542,0.66295-1.93535v-6.07349c0-1.17191-0.51707-2.08447-1.46043-2.56911
			c-0.6516-0.33553-1.2951-0.34526-1.36642-0.34526H62.89721c-1.40694,0-2.83008,1.00172-2.83008,2.91437l0.0616,39.74756
			c0,1.74896,1.13787,2.92087,2.83008,2.92087h10.79191C75.60664,264.02133,76.57918,262.5528,76.5808,261.10208z
			 M74.78809,233.49989l0.06159,27.59734c0,0.45547-0.43764,1.13788-1.09896,1.13788H62.95881
			c-0.59487,0-1.09897-0.51709-1.09897-1.13141l-0.05997-29.86658h-0.00162v-0.31445v-0.57866v-1.78461v-0.89311v-6.31339
			c0-0.64188,0.61432-1.09572,1.03737-1.12651l0.06159-0.00325h10.75463c0.57056,0.03079,1.13625,0.47168,1.13625,1.12976v6.07349
			c0,0.59325-0.55759,1.09573-1.03575,1.13139l-10.22298,0.00162v1.78461l9.83234-0.00162
			C74.78809,230.34239,74.78809,232.09296,74.78809,233.49989z M63.52936,226.7748h9.52762v-4.76704l-9.52762,0.00162V226.7748z
			 M73.11694,260.4505l-0.05997-26.94899c0-0.35336,0-1.00334-0.04863-1.37289l-9.47575,0.00162l0.05673,28.32027H73.11694z"/>
		<path class="st0" d="M102.95436,265.80594h-15.3677c-2.77497,0-4.5693-1.55933-4.5693-3.97284v-40.48019
			c0-3.05214,2.34868-4.69897,4.5612-4.69897h15.35959v5.35544H88.21071v4.76381h6.1205v5.35544h-6.1205v28.23436h14.7242
			L102.95436,265.80594z M101.21676,264.02133l-0.00648-1.87378H87.57532c-0.62242,0-1.0633-0.63376-1.0941-1.06976
			l-0.00163-28.94917v-5.35544v-5.42027c0-0.59325,0.55759-1.09248,1.03899-1.12814l13.68845-0.00162v-1.78461H87.57856
			c-1.40694,0-2.83008,1.00172-2.83008,2.91437v40.48019c0,1.90457,1.77974,2.18823,2.83818,2.18823H101.21676z M88.21071,228.55779
			v1.78461h4.38776v-1.78461H88.21071z"/>
		<path class="st0" d="M123.96925,232.0654c0.07456,0.03566,0.1394,0.06645,0.19127,0.09239
			c2.82522,1.45718,3.39739,2.37137,3.39739,5.43323v28.21492h-5.19334v-28.21492c0-0.18802,0.0081-0.31931-0.01134-0.42143
			c0.01134,0.0697-0.26907-0.08266-0.54138-0.23503c-0.75696-0.42467-5.41541-2.24817-8.97488-3.60648v32.47786h-5.19334v-44.40927
			c0-3.05214,2.3503-4.70059,4.5612-4.70059h10.79191c0.25935,0,1.17839,0.03891,2.1412,0.53328
			c1.53822,0.79262,2.41999,2.3114,2.41999,4.16731v6.0735C127.55791,230.07494,125.84624,231.65694,123.96925,232.0654z
			 M125.82679,221.39667c0-1.17191-0.51868-2.08446-1.46204-2.56911c-0.65322-0.33553-1.29671-0.34526-1.36803-0.34526H112.2048
			c-1.40532,0-2.83009,1.00172-2.83009,2.91437v42.62466h1.73112V231.1577l-0.00324-0.78613l0.65808,0.0162h11.23604
			c1.40694-0.00162,2.83008-1.00333,2.83008-2.9176V221.39667z M124.09568,221.39667v6.0735
			c0,0.59325-0.55759,1.09572-1.03738,1.12976l-11.08691,0.00323h-0.86555v-7.2065c0-0.59325,0.55921-1.09248,1.03899-1.12814
			l0.05997-0.00162l11.12743,0.06808C123.80392,220.5376,124.09568,220.94444,124.09568,221.39667z M122.36456,222.05151h-9.52761
			v4.76543h9.52761V222.05151z M123.38735,233.75598c-0.44899-0.23178-2.46214-1.06816-3.36984-1.44096l-5.09122-0.09077
			c2.80901,1.08113,6.87745,2.67447,7.71221,3.14291c1.20108,0.67267,1.45718,0.93687,1.45718,2.22386v26.43031h1.73111v-26.43031
			C125.82679,235.2067,125.64363,234.91978,123.38735,233.75598z"/>
		<path class="st0" d="M170.38354,221.39992v44.40602h-5.19334v-43.179c-3.69078,8.75769-4.11058,9.67024-7.21298,9.69131
			c-3.26772-0.02107-3.66808-0.94011-7.22108-9.67349v43.16118h-5.19334v-44.40602c0-2.27898,1.59821-4.70221,4.55797-4.70221
			h0.98064c2.91275,0,3.5222,1.54958,4.3683,3.69402c0.92554,2.27411,1.83647,4.30023,2.4362,5.58235
			c0.63702-1.2805,1.61279-3.31796,2.59019-5.6407c0.83151-2.10393,1.43449-3.63567,4.34561-3.63567h0.98065
			C168.78372,216.69771,170.38354,219.12094,170.38354,221.39992z M168.65244,221.39992c0-1.4507-0.97253-2.91762-2.83008-2.91762
			h-0.98065c-1.74731,0-1.95804,0.53815-2.74741,2.53995c-3.32932,7.89537-3.79453,7.71869-4.20622,7.72681
			c-0.56245,0-0.94012-0.11185-4.0182-7.67494c-0.80557-2.04556-1.01953-2.59181-2.76848-2.59181h-0.98064
			c-1.85593,0-2.82684,1.46692-2.82684,2.91762v42.62141h1.73111v-42.62141c0-0.45061,0.43602-1.13301,1.09573-1.13301h0.69049
			c0.94823,0,1.26755,0.93039,1.40207,1.32751c3.62433,8.92464,3.7005,8.92464,5.64397,8.93761
			c2.00665-0.01297,2.1185-0.01297,5.83197-8.81604c0.24152-0.61594,0.56731-1.44908,1.3502-1.44908h0.7829
			c0.60945,0,1.04871,0.6046,1.0941,1.039l0.00485,42.71542h1.73112V221.39992z"/>
		<path class="st0" d="M195.00816,221.35777v39.74593c0,2.27899-1.59657,4.70224-4.55795,4.70224h-10.79515
			c-2.96138,0-4.5612-2.42325-4.5612-4.70224v-39.74593c0-3.05377,2.3503-4.70059,4.5612-4.70059h10.79192
			C192.65787,216.65718,195.00816,218.304,195.00816,221.35777z M193.27705,221.35777c0-2.13795-1.69221-2.91599-2.83008-2.91599
			h-10.79192c-1.40694,0-2.83008,1.00171-2.83008,2.91599v39.74593c0,1.4491,0.97253,2.91763,2.83008,2.91763h10.79515
			c1.85754,0,2.82684-1.46854,2.82684-2.91763V221.35777z M191.54593,221.35777v39.74593c0,0.45062-0.43602,1.13303-1.09572,1.13303
			l-10.95238-0.00974c-0.68402,0-0.91418-0.69376-0.94012-1.06006l-0.00162-39.80916c0-0.59486,0.56084-1.0941,1.039-1.12814
			l0.05997-0.00323l11.12581,0.06969C191.25418,220.50032,191.54593,220.90717,191.54593,221.35777z M189.81482,222.01262h-9.52762
			v38.42976l9.52762,0.00812V222.01262z"/>
		<path class="st0" d="M219.6571,216.76903l-0.02271,45.21159c0,3.34714-2.24007,3.76047-2.68744,3.80908
			c-0.10211,0.00974-0.1945,0.01624-0.29825,0.01624c-0.73912,0-2.52859-0.31934-3.13156-3.27585
			c-0.31932-1.56738-8.00235-37.60959-8.47403-39.81076c-0.03891-0.18803-0.08267,0.6062-0.12643,0.42305l-0.00323,42.66356
			h-5.19334l0.00323-44.3347c0-2.27898,1.59821-4.70221,4.55795-4.70221h0.98064c0.84773,0,3.67944,0.29662,4.4996,4.12517
			c0.04053,0.18802,2.40866,10.30727,4.68439,20.99057l0.01784-25.11574H219.6571z M217.92598,218.55362h-1.73111l-0.02269,39.76376
			l-1.71005-8.03799c-2.59991-12.21669-6.34093-28.76277-6.39117-28.99942c-0.50897-2.37299-1.97749-2.72635-2.80902-2.72635
			h-0.98064c-1.85593,0-2.82684,1.46854-2.82684,2.91762l-0.00323,42.55009h1.73111l0.00325-42.55009
			c0-0.44089,0.41818-1.1022,1.05357-1.13139c0.05188-0.00647,0.10861-0.00972,0.16696-0.01134l0.75047-0.00487
			c0.76181,0,1.07141,0.58839,1.57713,2.99704c0.47168,2.19792,8.15794,37.27408,8.47726,38.84146
			c0.17181,0.84775,0.56245,1.85919,1.43773,1.85919l0.13292-0.00812c0.40846-0.04376,1.12166-0.37119,1.12166-2.03421
			L217.92598,218.55362z"/>
		<path class="st0" d="M244.26065,230.54013v22.26299c0,3.92741-0.69861,5.99892-1.73112,8.08662
			c-0.65646,1.32913-1.44745,2.33249-2.2887,3.07648c-1.50905,1.33398-3.17047,1.83972-4.46556,1.83972h-6.86772
			c-0.02432,0-0.04539-0.00488-0.0697-0.00488c-0.26421-0.00323-0.52193-0.02917-0.76993-0.07294
			c-1.09572-0.20422-2.14769-0.80884-2.85277-1.78137c-0.00325-0.00647-0.00812-0.0097-0.01135-0.0162
			c-0.13777-0.19287-0.25124-0.41495-0.36147-0.63861c-0.03566-0.07297-0.07942-0.1394-0.11021-0.21561
			c-0.07942-0.18802-0.13292-0.39386-0.18965-0.59973c-0.02917-0.11508-0.07132-0.22366-0.09563-0.34198
			c-0.05997-0.31284-0.09563-0.64349-0.09726-0.99362c0-0.01135-0.00323-0.02432-0.00323-0.03729v-39.66974
			c0-0.01297,0.00323-0.02594,0.00323-0.03891c0.00163-0.35011,0.03729-0.67915,0.09726-0.99199
			c0.02431-0.11832,0.06645-0.22855,0.09563-0.34363c0.05673-0.20422,0.11023-0.4117,0.18965-0.59811
			c0.03079-0.07617,0.07455-0.14264,0.11021-0.21719c0.11023-0.22368,0.22369-0.44412,0.36147-0.63863
			c0.00323-0.00487,0.0081-0.0081,0.01135-0.01459c0.6597-0.93526,1.65007-1.57713,2.85277-1.78137
			c0.248-0.04214,0.50572-0.0697,0.76993-0.07294c0.02431,0,0.04538-0.00648,0.0697-0.00648h6.86772
			c1.29509,0,2.95651,0.50572,4.46556,1.83972c0.84125,0.74399,1.63223,1.74893,2.2887,3.07645
			C243.56204,223.73563,244.26065,226.61272,244.26065,230.54013z M242.52953,230.54013c0-3.8869-0.71643-6.59216-1.73111-8.44972
			c-0.39064-0.71481-0.82018-1.31291-1.27565-1.78946c-1.25294-1.30806-2.66312-1.78461-3.7475-1.78461h-6.86772
			c-1.21568,0-2.43945,0.75047-2.75067,2.1882c-0.00485,0.02271-0.01134,0.04053-0.0162,0.06322
			c-0.03728,0.20262-0.05997,0.41495-0.06158,0.63864c0,0.0081-0.00163,0.01459-0.00163,0.02431v0.00325v39.66974v0.00327
			c0,0.0097,0.00163,0.0162,0.00163,0.02429c0.00162,0.22208,0.02431,0.43442,0.06158,0.63864
			c0.00487,0.02432,0.01135,0.04053,0.0162,0.06158c0.27556,1.33401,1.30644,2.18985,2.74904,2.18985h0.00163h6.86772
			c1.08438,0,2.49455-0.47818,3.7475-1.78461c0.45547-0.47656,0.88501-1.07468,1.27565-1.78949
			c1.01468-1.85754,1.73111-3.75558,1.73111-7.64412V230.54013z M239.06731,222.52644
			c0.98225,1.56091,1.73111,4.08302,1.73111,8.01369v22.26299c0,2.65178-0.34363,3.84801-0.86555,5.35704
			c-0.25124,0.7294-0.54625,1.3421-0.86555,1.85107c-0.10049,0.15723-0.20099,0.3031-0.30473,0.43927
			c-0.26582,0.35983-0.54462,0.65646-0.82666,0.8931c-0.7294,0.61755-1.47826,0.87366-2.09743,0.88824
			c-0.02107,0-0.04376,0.00488-0.06322,0.00488h-6.86772c-0.01622,0-0.03081-0.01135-0.04701-0.01297h-0.18965h-0.00162
			c-0.29013,0-0.84935-0.23828-0.85907-1.10709c0-0.00323-0.00162-0.00647-0.00162-0.0097v-0.00327v-39.66974v-0.00325
			c0-0.00487,0.00485-0.0081,0.00485-0.01134c0.00648-0.87042,0.56894-1.10707,0.90446-1.10707
			c0.00648-0.00325,0.0616-0.00812,0.12805-0.00974c0.01782,0,0.03079-0.00162,0.04863-0.00162c0.00485,0,0.0081,0,0.01134,0
			h0.00163h6.86772c0.86555,0,2.0099,0.47655,2.9873,1.78461C238.86632,222.22333,238.96681,222.36922,239.06731,222.52644z
			 M239.06731,230.54013c0-6.90176-2.43945-8.45457-3.29204-8.45457h-6.23558v38.36494h6.23558
			c0.85258,0,3.29204-0.74564,3.29204-7.64738V230.54013z"/>
		<path class="st0" d="M268.8869,221.39667v44.40927h-5.19336v-33.63518h-9.52924v33.63518h-5.19173v-44.40927
			c0-3.05214,2.3503-4.69896,4.5612-4.69896h10.79352c0.63055,0.02269,1.36804,0.13452,2.13959,0.53165
			C268.00513,218.02359,268.8869,219.54076,268.8869,221.39667z M267.15576,221.39667c0-1.17191-0.51868-2.08446-1.46042-2.56911
			c-0.53976-0.27718-1.06491-0.35011-1.2659-0.35011l-10.89566,0.00485c-1.13786,0-2.83008,0.77641-2.83008,2.91437v42.62466
			h1.73111v-31.85057v-5.35382v-5.42027c0-0.59325,0.5592-1.09248,1.04062-1.12814l10.81137-0.00162
			c0.57217,0.03081,1.13785,0.47168,1.13785,1.12976v5.42027v5.35382v31.85057h1.73111V221.39667z M263.69354,222.05151h-9.52924
			v4.76543h9.52924V222.05151z M263.69354,230.38615v-1.78461h-9.52924v1.78461H263.69354z"/>
		<path class="st0" d="M293.51312,216.74471v5.95192c-0.12805,3.02783-0.76666,3.81073-3.2272,5.33275
			c-2.05042,1.26753-3.33417,2.06015-4.13327,2.55128v35.22528h-5.19336v-35.22528
			c-0.80072-0.49113-2.08609-1.28375-4.13812-2.55128c-2.45889-1.52202-3.0943-2.29356-3.22073-5.2128l-0.00162-6.07187h5.19336
			v5.95192c0.01135,0.24313,0.04053,0.34201,0.05511,0.37444c0.09238,0.03079,0.17343,0.0778,0.34036,0.17992l4.36832,2.69069
			c0.78937-0.48465,2.04556-1.25781,4.0571-2.50429l0.69376-0.42953c0.00647-0.08591,0.00809-0.18965,0.0097-0.25934l0.00327-6.0038
			H293.51312z M291.78201,218.52931h-1.73111v4.08627c-0.01459,0.63539-0.02917,1.41342-0.66782,1.80891l-0.88016,0.543
			c-2.44266,1.51392-3.77344,2.33247-4.50446,2.77983l-0.4425,0.27231l-5.24521-3.23044
			c-0.20099-0.12157-0.29663-0.17992-0.52518-0.33714c-0.6694-0.46033-0.70831-1.37128-0.7229-1.7149l-0.00323-4.20784h-1.72952
			v4.24673c0.09888,2.22388,0.35986,2.47186,2.37949,3.72321c2.45889,1.51715,3.81396,2.35191,4.55634,2.80576l0.42468,0.26097
			v34.45535h1.73111v-34.45535l0.42303-0.25934c0.74075-0.45547,2.09583-1.29024,4.55148-2.80739
			c2.02451-1.25296,2.28546-1.50258,2.38596-3.84314V218.52931z"/>
	</g>
	<g>
		<g>
			<path class="st3" d="M254.74997,202.48682h28.54285c5.27368,0,9.54886-4.27516,9.54886-9.54886v-55.0071
				c0-2.42868-1.96881-4.39751-4.39749-4.39751H249.5986c-2.42867,0-4.39751,1.96883-4.39751,4.39751v55.0071
				C245.2011,198.21165,249.47627,202.48682,254.74997,202.48682z"/>
		</g>
		<g>
			<rect x="268.18561" y="133.53339" class="st1" width="1.67161" height="24.56465"/>
		</g>
		<g>
			
				<rect x="268.18561" y="126.74317" transform="matrix(-6.148124e-09 -1 1 -6.148124e-09 118.45862 419.5842)" class="st1" width="1.67161" height="47.63924"/>
		</g>
		<g>
			<path class="st0" d="M267.26877,158.81628h3.50525c0.64764,0,1.17267-0.52501,1.17267-1.17267v-12.0722
				c0-0.64764-0.52502-1.17267-1.17267-1.17267h-3.50525c-0.64764,0-1.17267,0.52502-1.17267,1.17267v12.0722
				C266.0961,158.29128,266.62112,158.81628,267.26877,158.81628z"/>
		</g>
		<g>
			<path class="st2" d="M269.02139,192.03926L269.02139,192.03926c-13.15553,0-23.82031-10.66466-23.82031-23.82021v10.44748
				c0,13.15565,10.66478,23.82021,23.82031,23.82021l0,0c13.15555,0,23.82034-10.66455,23.82034-23.82021v-10.44748
				C292.84174,181.3746,282.17694,192.03926,269.02139,192.03926z"/>
		</g>
		<g>
			<path class="st0" d="M269.96188,133.49437h-1.93277v-6.38631c0-3.21156,2.61227-5.82478,5.82382-5.82478h4.93674
				c2.14609,0,3.892-1.74593,3.892-3.89105v-1.25423c0-2.14513-1.74591-3.89106-3.892-3.89106h-22.25348
				c-3.21155,0-5.82384-2.61322-5.82384-5.82478c0-3.21156,2.61229-5.82478,5.82384-5.82478h9.09015
				c2.14511,0,3.89105-1.74593,3.89105-3.89105v-8.6081l1.93277-0.35887v8.96697c0,3.21156-2.61227,5.82384-5.82382,5.82384
				h-9.09015c-2.14513,0-3.89105,1.74593-3.89105,3.892s1.74593,3.892,3.89105,3.892h22.25348
				c3.21155,0,5.8248,2.61228,5.8248,5.82384v1.25423c0,3.21156-2.61325,5.82384-5.8248,5.82384h-4.93674
				c-2.14511,0-3.89105,1.74593-3.89105,3.892V133.49437z"/>
		</g>
	</g>
</g>
</svg>
