<?xml version="1.0" encoding="utf-8"?>
<!-- Generator: Adobe Illustrator 26.0.1, SVG Export Plug-In . SVG Version: 6.00 Build 0)  -->
<svg version="1.1" id="Layer_1" xmlns="http://www.w3.org/2000/svg" xmlns:xlink="http://www.w3.org/1999/xlink" x="0px" y="0px"
	 viewBox="0 0 1222.05408 541.77466" style="enable-background:new 0 0 1222.05408 541.77466;" xml:space="preserve">
<style type="text/css">
	.st0{fill:none;}
	.st1{fill:#0074FF;}
	.st2{fill:#FFF800;}
</style>
<g>
	<polygon class="st0" points="981.71716,481.00641 981.71716,502.26562 983.81616,502.26562 983.81616,482.02271 
		982.83038,481.00641 	"/>
	<polygon class="st0" points="784.59656,481.00641 784.59656,501.24573 785.58411,502.26562 786.69733,502.26562 
		786.69733,482.02271 785.71161,481.00641 	"/>
	<path class="st1" d="M52.98279,455.78986l18.55872,19.1297l3.62292-3.73315l0.05432,0.05585l3.62299-3.73315L78.896,467.565
		l3.62299-3.73315l0.05432,0.05591l19.46002-20.05261l-26.5686-27.38196H31.92651l-3.56842,3.67725h-0.10883l-3.56842,3.67725
		h-0.10889l-3.56842,3.67731h-0.10883L0,449.01709v71.22186l20.89471,21.53571h43.53827l3.56793-3.67725h0.10931l3.56793-3.67731
		h0.10931l3.56799-3.67725h0.10925l26.5686-27.38196L82.5733,483.30829l-3.62231,3.73383l-0.05499-0.05658l-3.62225,3.73383
		l-0.05499-0.05652l-3.62225,3.73383l-0.05499-0.05658l-7.85614,8.0979H43.37848l-4.77435-4.9234v-41.72473H52.98279z
		 M41.82355,506.11523h18.51379h5.23218l17.00378-17.52808l14.33557,14.77374l-22.99908,23.70471H33.48145l-18.7724-19.35236
		v-68.23407l18.7724-19.34875h38.30603h2.12231l22.99908,23.70471L82.5733,458.60883l-17.00378-17.52802H41.82355l-6.89667,7.11389
		v5.164v45.64264L41.82355,506.11523z"/>
	<polygon class="st2" points="34.92688,448.1947 41.82355,441.08081 65.56952,441.08081 82.5733,458.60883 96.90887,443.83514 
		73.90979,420.13043 71.78748,420.13043 33.48145,420.13043 14.70905,439.47919 14.70905,507.71326 33.48145,527.06561 
		73.90979,527.06561 96.90887,503.3609 82.5733,488.58716 65.56952,506.11523 60.33734,506.11523 41.82355,506.11523 
		34.92688,499.00134 34.92688,453.3587 	"/>
	<polygon class="st2" points="157.84943,475.64496 154.7431,472.43451 154.7431,445.34698 134.52716,445.34698 134.52716,481.15009 
		149.50916,496.59528 154.87598,496.59528 154.87598,526.89325 175.09375,526.89325 175.09375,503.94983 175.09375,496.59528 
		180.466,496.59528 195.44623,481.15009 195.44623,445.34698 175.23022,445.34698 175.23022,472.43451 172.12396,475.64496 
		166.88818,475.64496 	"/>
	<path class="st1" d="M171.55298,445.34698h-3.67725v3.67731h-3.67731v3.67725h-3.67725v19.26611h-1.11322l-0.98755-1.01984
		v-29.27808h-27.57056v3.67725h-3.67725v3.67731h-3.67725v3.67725h-3.67725v40.97418l17.10431,17.6286h3.24451v30.29797h27.57233
		v-3.67725h3.67725v-3.67731h3.67725v-3.67725h3.67731v-27.06128l3.14014-3.23663h0.1098l17.10248-17.62866v-40.97418h-27.5705
		V445.34698z M175.23022,472.43451v-27.08752h20.216v35.8031L180.466,496.59528h-5.37225v7.35455v22.94342h-20.21777v-30.29797
		h-5.36682l-14.98199-15.44519v-35.8031h20.21594v27.08752l3.10632,3.21045h9.03876h5.23578L175.23022,472.43451z"/>
	<path class="st2" d="M277.91919,445.34698H234.1026v81.54626h45.9389L295.0235,511.448v-18.17804v-2.18341l-4.82104-4.97003
		l4.82104-4.96643v-18.17804v-2.18341l-14.98199-15.44165H277.91919z M274.80573,502.73242l-3.10632,3.21045h-5.23578h-12.14325
		v-1.99304v-7.35455h17.37726l3.10809,3.19965V502.73242z M274.80573,472.43451l-3.10632,3.21045h-5.23578h-12.14325v-1.99304
		v-7.35455h17.37726l3.10809,3.19965V472.43451z"/>
	<path class="st1" d="M230.42535,441.66974v3.67725h-3.67731v3.67731h-3.67725v3.67725h-3.67725v88.90076h51.17108l3.56793-3.67725
		h0.10931l3.56799-3.67731h0.10931l3.56793-3.67725h0.10931l17.10431-17.6286v-23.34918l-3.37384-3.4762l3.37384-3.4726v-23.34918
		l-17.10431-17.625H230.42535z M295.0235,462.97205v18.17804l-4.82104,4.96643l4.82104,4.97003v2.18341V511.448l-14.98199,15.44525
		h-45.9389v-81.54626h43.81659h2.12231l14.98199,15.44165V462.97205z"/>
	<polygon class="st1" points="254.32037,496.59528 254.32037,503.94983 254.32037,505.94287 266.46362,505.94287 
		271.6994,505.94287 274.80573,502.73242 274.80573,499.79492 271.69763,496.59528 	"/>
	<polygon class="st1" points="254.32037,466.29736 254.32037,473.65192 254.32037,475.64496 266.46362,475.64496 
		271.6994,475.64496 274.80573,472.43451 274.80573,469.49701 271.69763,466.29736 	"/>
	<polygon class="st2" points="394.12683,505.94287 353.42194,505.94287 353.42194,503.94983 353.42194,496.59528 
		385.0827,496.59528 385.0827,475.64496 353.42194,475.64496 353.42194,473.65192 353.42194,466.29736 394.12683,466.29736 
		394.12683,445.34698 333.20593,445.34698 333.20593,526.89325 394.12683,526.89325 	"/>
	<path class="st1" d="M329.52869,445.34698h-3.67725v3.67731h-3.67731v3.67725h-3.67725v88.90076h68.27539v-3.67725h3.67725
		v-3.67731h3.67731v-3.67725h3.67725v-28.30487H385.0827v-1.99304h3.67725v-22.94342h1.68958v-3.67725h3.67731v-3.67731h3.67725
		v-28.30487h-68.27539V445.34698z M333.20593,445.34698h60.9209v20.95038h-40.7049v7.35455v1.99304h31.66077v20.95032h-31.66077
		v7.35455v1.99304h40.7049v20.95038h-60.9209V445.34698z"/>
	<path class="st2" d="M477.61414,445.34698h-43.81476v81.54626h20.216v-22.94342v-7.35455h17.37903l3.10803,3.19965v27.09833h20.216
		v-33.62329v-2.18341l-4.82104-4.97003l4.82104-4.96643v-18.17804v-2.18341l-14.98199-15.44165H477.61414z M474.50244,472.43451
		l-3.10626,3.21045h-5.23578h-12.14502v-1.99304v-7.35455h17.37903l3.10803,3.19965V472.43451z"/>
	<path class="st1" d="M430.12213,441.66974v3.67725h-3.67731v3.67731h-3.67725v3.67725h-3.67725v88.90076h27.5705v-3.67725h3.67725
		v-3.67731h3.67731v-3.67725h3.67725v-19.26617h1.11499l0.98578,1.0163v29.28168h27.5705v-3.67725h3.67731v-3.67731h3.67725
		v-3.67725h3.67725v-40.97778l-3.37378-3.4762l3.37378-3.4726v-23.34918l-17.10431-17.625H430.12213z M494.71844,462.97205v18.17804
		l-4.82104,4.96643l4.82104,4.97003v2.18341v33.62329h-20.216v-27.09833l-3.10803-3.19965h-17.37903v7.35455v22.94342h-20.216
		v-81.54626h43.81476h2.12231l14.98199,15.44165V462.97205z"/>
	<polygon class="st1" points="454.01538,466.29736 454.01538,473.65192 454.01538,475.64496 466.1604,475.64496 
		471.39618,475.64496 474.50244,472.43451 474.50244,469.49701 471.39441,466.29736 	"/>
	<polygon class="st2" points="639.39288,420.13043 637.5578,420.13043 611.48657,420.13043 611.48657,527.06561 
		631.70618,527.06561 631.70618,458.82434 631.70618,444.07214 666.51807,490.72028 701.33002,444.07214 701.33002,527.06561 
		721.54596,527.06561 721.54596,420.13043 693.64508,420.13043 666.51807,456.47577 	"/>
	<path class="st1" d="M689.05481,420.13043h-0.9328l-2.74451,3.67725h-0.93274l-2.74451,3.67731h-0.9328l-15.6488,20.96808
		l-23.88354-31.99988h-33.42578v3.67725h-3.67731v3.67725h-3.67725v3.67731h-3.67725v114.28967h27.5741v-3.67725h3.67725v-3.67731
		h3.67731v-3.67725h3.67725v-49.78113l20.10284,26.93829l3.21063-4.30237l0.46661,0.62506l3.21069-4.30231l0.46661,0.62506
		l3.21063-4.30231l0.46661,0.62506l20.10284-26.93829v71.84473h27.57056v-3.67725h3.67725v-3.67731h3.67725v-3.67725h3.67731
		V416.45319h-33.42401L689.05481,420.13043z M721.54596,420.13043v106.93518h-20.21594v-82.99347l-34.81195,46.64813
		l-34.81189-46.64813v14.7522v68.24127h-20.2196V420.13043h26.07123h1.83508l27.12518,36.34534l27.12701-36.34534H721.54596z"/>
	<path class="st2" d="M804.51807,445.34698h-28.83453l-14.98022,15.44165V511.448l14.98022,15.44525h30.95685l14.98199-15.44525
		v-48.47595v-2.18341l-14.98199-15.44165H804.51807z M801.40643,502.73242l-3.10632,3.21045h-5.23578h-9.03876l-3.10626-3.21045
		v-28.06427v-5.17114l3.10809-3.19965h14.27094l3.10809,3.19965V502.73242z"/>
	<path class="st1" d="M774.12854,441.66974l-3.56818,3.67725h-0.10907l-3.56818,3.67731h-0.10907l-3.56818,3.67725h-0.10907
		l-17.10254,17.625v53.64716l17.10254,17.6286h34.06677l3.56793-3.67725h0.10931l3.56793-3.67731h0.10931l3.56799-3.67725h0.10931
		l17.10431-17.6286v-53.64716l-17.10431-17.625H774.12854z M821.62238,462.97205V511.448l-14.98199,15.44525h-30.95685
		L760.70331,511.448v-50.65936l14.98022-15.44165h28.83453h2.12231l14.98199,15.44165V462.97205z"/>
	<path class="st1" d="M784.0274,466.29736l-3.10809,3.19965v5.17114v28.06427l3.10626,3.21045h9.03876h5.23578l3.10632-3.21045
		v-33.23541l-3.10809-3.19965H784.0274z M786.69733,502.26562h-1.11322l-0.98755-1.0199v-20.23932h1.11505l0.98572,1.0163V502.26562
		z"/>
	<polygon class="st2" points="883.64978,445.34698 858.69,445.34698 858.69,526.89325 878.90778,526.89325 878.90778,512.00818 
		878.90778,487.68939 893.33136,526.89325 919.61084,526.89325 919.61084,445.34698 899.39307,445.34698 899.39307,484.5257 
		884.7738,445.34698 	"/>
	<path class="st1" d="M895.71582,445.34698h-3.67725v3.67731h-1.96704l-2.74451-7.35455H855.0127v3.67725h-3.67725v3.67731h-3.67725
		v3.67725h-3.67725v88.90076h27.57227v-3.67725h3.67731v-3.67731h1.79907l2.70593,7.35455h32.52081v-3.67725h3.67725v-3.67731
		h3.67725v-3.67725h3.67731v-88.90076h-27.57233V445.34698z M899.39307,445.34698h20.21777v81.54626h-26.27948l-14.42358-39.20386
		v24.31879v14.88507H858.69v-81.54626h24.95978h1.12402l14.61926,39.17871V445.34698z"/>
	<path class="st2" d="M1001.64941,445.34698h-43.76263l-0.0647,10.48236v71.0639h45.9389l14.98199-15.44525l0.01971-50.31818
		l-15.01245-15.78284H1001.64941z M998.52521,502.73242l-3.10632,3.21045h-5.23578h-12.14325v-32.29095v-7.35455h17.37726
		l3.10809,3.19965V502.73242z"/>
	<path class="st1" d="M954.23102,441.66974l-0.0036,3.67725h-3.67365l-0.0036,3.67731h-3.67365l-0.0036,3.67725h-3.67371
		l-0.08618,88.90076h51.17108l3.56799-3.67725h0.10931l3.56793-3.67731h0.10931l3.56793-3.67725h0.10931l17.10431-17.6286
		l0.02338-53.27728l-17.11688-17.99487H954.23102z M1018.74298,511.448l-14.98199,15.44525h-45.9389v-71.0639l0.0647-10.48236
		h43.76263h2.10083l15.01245,15.78284L1018.74298,511.448z"/>
	<path class="st1" d="M978.03986,466.29736v7.35455v32.29095h12.14325h5.23578l3.10632-3.21045v-33.23541l-3.10809-3.19965
		H978.03986z M983.81616,502.26562h-2.099v-21.25922h1.11322l0.98578,1.0163V502.26562z"/>
	<path class="st2" d="M1100.97717,445.34698h-28.83276l-14.98206,15.44165v66.10461h20.21606v-18.28583v-7.35449h20.48706v25.64032
		h20.21606v-63.9212v-2.18341l-14.98206-15.44165H1100.97717z M1097.86548,480.30615h-7.35449h-13.13257v-5.638v-5.17114
		l3.10803-3.19965h14.27087l3.10815,3.19965V480.30615z"/>
	<path class="st1" d="M1070.58948,441.66974l-3.56873,3.67725h-0.10864l-3.5686,3.67731h-0.10864l-3.5686,3.67725h-0.10864
		l-17.10425,17.625v71.27576h27.57056v-3.67725h3.67725v-3.67731h3.67725v-3.67725h3.67725v-14.60852h2.10083v25.64032h27.57043
		v-3.67725h3.67737v-3.67731h3.67725v-3.67725h3.67725v-71.27576l-17.10437-17.625H1070.58948z M1118.08154,462.97205v63.9212
		h-20.21606v-25.64032h-20.48706v7.35449v18.28583h-20.21606v-66.10461l14.98206-15.44165h28.83276h2.12231l14.98206,15.44165
		V462.97205z"/>
	<polygon class="st1" points="1080.48645,466.29736 1077.37842,469.49701 1077.37842,474.66815 1077.37842,480.30615 
		1090.51099,480.30615 1097.86548,480.30615 1097.86548,469.49701 1094.75732,466.29736 	"/>
	<polygon class="st2" points="1198.15894,472.43451 1195.05273,475.64496 1189.81689,475.64496 1180.78003,475.64496 
		1177.67188,472.43451 1177.67188,445.34698 1157.45593,445.34698 1157.45593,481.15009 1172.43799,496.59528 1177.80664,496.59528 
		1177.80664,526.89325 1198.02246,526.89325 1198.02246,503.94983 1198.02246,496.59528 1203.39478,496.59528 1218.37671,481.15009 
		1218.37671,445.34698 1198.15894,445.34698 	"/>
	<path class="st1" d="M1194.48169,441.66974v3.67725h-3.67725v3.67731h-3.67725v3.67725h-3.67725v19.26611h-1.11145
		l-0.98938-1.01984v-29.27808h-27.57043v3.67725h-3.67737v3.67731h-3.67725v3.67725h-3.67725v40.97418l17.10437,17.6286h3.24634
		v30.29797h27.57043v-3.67725h3.67725v-3.67731h3.67725v-3.67725h3.67737v-27.06104l3.14062-3.23688h0.10925l17.10437-17.62866
		v-40.97418H1194.48169z M1218.37671,481.15009l-14.98193,15.44519h-5.37231v7.35455v22.94342h-20.21582v-30.29797h-5.36865
		l-14.98206-15.44519v-35.8031h20.21594v27.08752l3.10815,3.21045h9.03687h5.23584l3.1062-3.21045v-27.08752h20.21777V481.15009z"/>
	<path class="st1" d="M66.6955,54.85754c0-5.66064,3.37927-10.4491,8.87201-10.4491c5.48724,0,9.28741,4.78845,9.28741,10.4491
		v94.04181h41.80682V53.11578C126.66174,22.63959,104.28021,0,74.71851,0C46.42737,0,24.89404,24.81561,24.89404,53.11578v95.78357
		H66.6955V54.85754z"/>
	<path class="st1" d="M176.862,138.01416c9.71515,8.7077,20.69513,10.88519,32.94061,10.88519h34.62701v-41.79639h-28.29077
		c-5.07111,0-12.25092,0-12.25092-7.40198c0-6.53027,5.49274-6.96594,10.55841-6.96594h27.44794V60.08209h-24.91187
		c-4.64441,0-10.13715-1.30536-10.13715-7.40204c0-5.65912,4.64447-7.40088,9.29358-7.40088h28.29077V3.48279h-40.54169
		c-20.6897,0-40.11426,17.85004-40.11426,39.62036v63.99982C163.77368,118.85736,168.41736,130.17859,176.862,138.01416z"/>
	<path class="st1" d="M293.47943,138.01416c9.71521,8.7077,20.69513,10.88519,32.93994,10.88519h34.62775v-41.79639h-28.2915
		c-5.07074,0-12.25018,0-12.25018-7.40198c0-6.53027,5.49268-6.96594,10.55835-6.96594h27.44794V60.08209h-24.91254
		c-4.64374,0-10.13641-1.30536-10.13641-7.40204c0-5.65912,4.64368-7.40088,9.29285-7.40088h28.2915V3.48279h-40.54169
		c-20.69049,0-40.11505,17.85004-40.11505,39.62036v63.99982C280.39038,118.85736,285.03485,130.17859,293.47943,138.01416z"/>
	<path class="st1" d="M438.89771,47.02094h20.69556c16.04602,0,29.55554,12.62506,29.55554,29.60547
		c0,19.1568-15.62366,30.04053-32.93488,30.04053h-10.97992v42.66846c4.64441,0.43463,8.86652,0.43463,13.08899,0.43463
		c42.22809-0.43463,73.05463-32.21796,73.05463-75.75568c0-29.6059-20.69012-57.03394-47.71606-66.61377
		c-7.60107-3.04669-16.04565-3.48279-24.0683-3.48279h-62.92358v144.98157h42.22803V47.02094z"/>
	<rect x="675.44672" y="3.48279" class="st1" width="42.22882" height="145.41656"/>
	<polygon class="st1" points="657.70892,94.04181 668.6889,94.04181 668.6889,55.72821 657.70892,55.72821 657.70892,3.48279 
		615.48047,3.48279 615.48047,148.89935 657.70892,148.89935 	"/>
	<path class="st1" d="M768.96991,138.01416c9.70941,8.7077,20.68939,10.88519,32.93488,10.88519h34.62701v-41.79639h-28.2915
		c-5.06494,0-12.24475,0-12.24475-7.40198c0-6.53027,5.48724-6.96594,10.55835-6.96594h27.44727V60.08209h-24.9173
		c-4.64374,0-10.13098-1.30536-10.13098-7.40204c0-5.65912,4.64368-7.40088,9.28741-7.40088h28.2915V3.48279h-40.53625
		c-20.69012,0-40.12048,17.85004-40.12048,39.62036v63.99982C755.87506,118.85736,760.52496,130.17859,768.96991,138.01416z"/>
	<path class="st1" d="M921.01978,148.89935h12.66711v-42.23242c-9.28821,0-18.15436-2.17639-18.15436-13.93188V3.48279h-41.38489
		v94.91248C874.14764,126.6955,892.30707,148.89935,921.01978,148.89935z"/>
	<path class="st1" d="M1012.80408,52.68005c0-6.09412,2.95734-12.19043,9.28815-12.19043
		c5.49274,0,9.71515,4.78955,9.71515,10.44904c0,6.96594-5.91431,9.57947-12.24506,9.57947v38.31323h8.44452
		c11.82361,0,21.53333-1.30676,31.66968-9.57947c11.4021-9.14233,16.88928-23.07458,16.88928-37.44141
		C1076.5658,22.63959,1050.38843,0,1022.94122,0c-21.5387,0-41.80682,15.23865-49.4079,36.13684
		c-2.53571,6.09418-2.95734,12.62549-2.95734,19.59137v93.17114h42.22809V52.68005z"/>
	<path class="st1" d="M1175.62634,126.6955c0-14.36798-11.82361-25.68774-25.33887-25.68774
		c-13.08899,0-23.64709,12.19049-23.64709,25.68774c0,13.49615,10.97998,25.25092,24.49072,25.25092
		C1164.22485,151.94641,1175.62634,140.62769,1175.62634,126.6955z"/>
	<path class="st1" d="M1150.28748,37.00647c5.06567,0,9.28821,3.48315,9.28821,9.14337
		c0,13.06152-21.95532,9.1438-27.02637,27.42841c-1.26514,4.78955-1.26514,10.0141-1.26514,15.23901v8.27271h38.00659
		c0-5.66064,0.42126-11.75623,5.4873-14.36829c14.78088-7.40204,22.38184-19.59253,22.38184-36.57184
		C1197.15991,19.59106,1176.46948,0,1151.55225,0c-27.86914,0-46.4502,22.63959-46.4502,51.37439h35.47559
		C1140.99927,44.84454,1142.26416,37.00647,1150.28748,37.00647z"/>
	<polygon class="st1" points="787.1488,199.78595 787.1488,342.28717 823.31097,342.28717 823.31097,300.46545 823.31097,285.75641 
		834.62646,285.75641 834.62646,253.62701 823.31097,253.62701 823.31097,199.78595 	"/>
	<rect x="848.94592" y="199.78595" class="st1" width="36.16394" height="142.50122"/>
	<path class="st1" d="M411.36212,241.34192l3.4259,0.23706v5.71338c11.01025-5.21783,17.88361-15.86542,17.88361-28.30127
		c0-12.68732-9.0675-21.89844-21.56085-21.89844c-10.60266,0-20.25726,10.43927-20.25726,21.89844
		C390.85352,230.9314,399.66956,240.54114,411.36212,241.34192z"/>
	<path class="st1" d="M58.26746,199.78595v94.133c0,28.47723,18.35046,48.36823,44.62634,48.36823h9.37634V306.1178v-0.13641
		c-12.42157-0.95166-18.71313-6.96313-18.71313-17.89795v-88.29749H58.26746z"/>
	<path class="st1" d="M156.03284,332.04901c7.99194,7.16418,17.40955,10.23816,31.44525,10.23816h32.00732v-35.71686h-25.47693
		c-4.87848,0-16.3017,0-16.3017-11.30835c0-10.85577,10.57574-10.85577,14.55823-10.85577h24.60785V258.1123h-0.00018H194.8775
		c-8.84302,0-14.12372-4.22675-14.12372-11.30475c0-6.97388,5.07959-11.30469,13.2547-11.30469h25.47693v-35.71692h-38.10138
		c-20.06335,0-37.66321,17.36292-37.66321,37.15332v65.95374C143.72083,314.16187,148.20782,324.79144,156.03284,332.04901z"/>
	<polygon class="st1" points="287.76257,342.28717 323.92651,342.28717 323.92651,249.763 323.92651,235.05396 356.56226,235.05396 
		356.56226,199.78595 254.68512,199.78595 254.68512,235.05396 287.76257,235.05396 	"/>
	<path class="st1" d="M521.70166,232.80951c1.33228,0,2.56042,0.17596,3.72211,0.44891v-32.93378v-1.92841
		c-5.23755-1.47955-9.89337-2.20135-14.16681-2.20135c-24.66168,0-45.49536,21.94507-45.49536,47.92297
		c0,13.7179,5.58057,24.80359,10.0658,33.71301c3.12964,6.21619,5.60028,11.12518,5.60028,15.63916
		c0,9.04236-9.0459,15.34467-17.16534,15.34467c-2.59094,0-4.98083-0.61761-7.20374-1.47949v34.99866
		c5.70447,2.68256,10.9259,3.99329,15.90674,3.99329c27.24548,0,49.41144-21.90198,49.41144-48.82074
		c0-11.5202-5.18372-21.61108-9.75879-30.51697c-3.4043-6.62915-6.34363-12.35333-6.34363-17.48859
		C506.27435,240.45496,513.33978,232.80951,521.70166,232.80951z"/>
	<path class="st1" d="M675.36029,346.32715c24.03333,0,47.57104-13.04999,59.96747-33.24622
		c6.0025-9.2901,9.83954-20.58051,12.0014-35.35059l-37.95953-1.12762c-3.56952,18.31812-16.62848,29.96759-34.00934,29.96759
		c-18.50659,0-34.14215-16.06653-34.14215-35.08484c0-19.26257,15.63556-35.53375,34.14215-35.53375
		c14.03754,0,25.01007,7.3761,31.86548,21.37408l39.26666-2.67175c-9.34937-35.66296-36.87323-58.45917-71.13214-58.45917
		c-38.37787,0-72.04242,34.76166-72.04242,74.39282C603.31787,312.35193,635.6358,346.32715,675.36029,346.32715z"/>
	<path class="st1" d="M926.40546,342.28717h36.59851v-21.18378v-14.70905h11.75v-31.68048h-0.00024h-1.26379h-10.48572h-0.00024
		v-17.85846v-7.35455c0-9.2973,5.44769-15.79358,13.24927-15.79358c7.47125,0.5387,11.94574,6.58966,11.94574,15.79358v92.78632
		h36.59668v-85.43176v-3.67773v-3.67682c0-30.3877-20.49426-53.30597-47.67334-53.30597
		c-30.80969,0-50.71686,20.92523-50.71686,53.30597V342.28717z"/>
	<polygon class="st1" points="1131.14905,342.28717 1131.14905,249.763 1131.14905,235.05396 1163.78662,235.05396 
		1163.78662,199.78595 1061.91479,199.78595 1061.91479,235.05396 1094.98682,235.05396 1094.98682,342.28717 	"/>
	<polygon class="st1" points="1191.20361,386.63092 30.85046,386.63092 30.85046,379.56476 12.88861,379.56476 12.88861,398.64679 
		1191.20361,398.64679 	"/>
	<polygon class="st2" points="1191.20361,386.63092 1209.16553,386.63092 1209.16553,367.54889 30.85046,367.54889 
		30.85046,379.56476 30.85046,386.63092 	"/>
</g>
</svg>
