<?xml version="1.0" encoding="utf-8"?>
<!-- Generator: Adobe Illustrator 26.0.1, SVG Export Plug-In . SVG Version: 6.00 Build 0)  -->
<svg version="1.1" id="Layer_1" xmlns="http://www.w3.org/2000/svg" xmlns:xlink="http://www.w3.org/1999/xlink" x="0px" y="0px"
	 viewBox="0 0 798.01184 480.17352" style="enable-background:new 0 0 798.01184 480.17352;" xml:space="preserve">
<style type="text/css">
	.st0{fill:none;}
	.st1{fill:#314AFF;}
	.st2{fill:#FF50A8;}
</style>
<g>
	<path class="st0" d="M128.88513,229.0954c0.56836-0.07501,1.1134-0.20258,1.62695-0.42444
		c2.11365-0.91479,3.70642-3.40411,4.30164-10.20758l1.58496-18.11823c0.12671-1.44952,0.17114-2.69421,0.15222-3.78394
		c-0.01086-0.61847-0.04797-1.17316-0.1012-1.6886c-0.55981-5.40802-3.36157-5.43042-6.56201-5.43042h-0.46704l-3.479,39.76337
		h0.46704C127.26917,229.20557,128.09863,229.19897,128.88513,229.0954z"/>
	<path class="st0" d="M170.46313,368.71545h-0.76221l-1.78906,20.45612h0.76233c1.17542,0,2.31067-0.70642,3.25122-1.84344
		c0.87488-1.0578,1.57788-2.48828,1.95276-4.1557c0.11914-0.52936,0.21057-1.07678,0.26025-1.64368l0.453-5.17047
		c0.02051-0.23511,0.00928-0.45544,0.01624-0.68463c0.01709-0.55048-0.00195-1.07898-0.05737-1.58746
		C174.20947,370.95911,172.58948,368.71545,170.46313,368.71545z"/>
	<path class="st0" d="M297.505,339.60614h-0.87207l-2.43835,27.87317h0.87207c1.13916,0,2.1853-0.12885,3.05139-0.81116
		c0.84998-0.66974,1.52356-1.88214,1.94165-4.02417c0.13416-0.68774,0.24451-1.46295,0.32275-2.35754l1.17981-13.48743
		c0.00732-0.08405,0.00928-0.15674,0.01575-0.23889c0.0448-0.57324,0.06726-1.09845,0.07019-1.58258
		C301.67542,340.33539,299.84241,339.60614,297.505,339.60614z"/>
	<path class="st0" d="M477.16919,338.48132c-1.63428,0-2.95166,1.34906-3.08936,2.92303l-4.00146,45.74402
		c-0.13757,1.57324,0.95239,2.81018,2.58679,2.81018c0.3634,0,0.7124-0.07428,1.03784-0.20203
		c0.80444-0.31573,1.44495-0.98584,1.74878-1.82513c0.09021-0.24939,0.16125-0.5083,0.18518-0.78302l3.51685-40.20258
		l0.22412-2.56183l0.2605-2.97961C479.77759,339.83038,478.69678,338.48132,477.16919,338.48132z"/>
	<path class="st0" d="M536.41162,261.1131c0.34387,0.09363,0.7041,0.15961,1.09644,0.15961
		c0.16455,0,0.32275-0.02881,0.48303-0.0484c1.96179-0.23956,3.57361-1.88458,3.75513-3.96008l5.48425-62.67725l0.13733-1.56921
		l0.0885-1.01044c0.19629-2.24506-1.34668-4.16852-3.5238-4.16852c-2.33167,0-4.21179,1.92346-4.40808,4.16852l-5.71021,65.2569
		C533.65088,259.13171,534.71106,260.6499,536.41162,261.1131z"/>
	<path class="st0" d="M667.64673,56.08698l1.78162-20.37848c1.07288-12.26355-2.77539-12.26355-7.32166-12.26355h-0.52588
		l-3.91235,44.72571h0.52588C662.74072,68.17065,666.58887,68.17065,667.64673,56.08698z"/>
	<path class="st0" d="M612.10474,339.60614h-3.05212l-4.33557,49.56543h3.05225c0.28369,0,0.55432-0.06097,0.81323-0.15094
		c0.79749-0.27686,1.43994-0.92969,1.73975-1.71136c0.0896-0.23376,0.15869-0.47449,0.18066-0.72296l3.50171-40.02618
		l0.13867-1.58325l0.24365-2.78625C614.50439,340.84235,613.52271,339.60614,612.10474,339.60614z"/>
	<polygon class="st0" points="277.34607,236.09998 278.44141,236.09998 278.95935,224.21558 279.71509,206.88397 
		279.98608,200.66522 277.34204,200.66522 272.53186,236.09998 275.7489,236.09998 	"/>
	<path class="st0" d="M288.90552,98.82831l6.23193-71.2356c0.18896-2.16339-1.38684-4.14777-3.66077-4.14777h-4.89685
		l-6.95752,79.53119h4.89697C286.79321,102.97614,288.71655,100.99255,288.90552,98.82831z"/>
	<path class="st0" d="M173.55542,339.60614h-1.30798l-0.87512,10.00232h1.30811c0.9458,0,1.85889-0.37976,2.63269-1.00616
		c1.02625-0.83099,1.78235-2.11475,1.99597-3.62543c0.01489-0.10583,0.04517-0.2052,0.05469-0.31311
		C177.60962,341.85352,175.84387,339.60614,173.55542,339.60614z"/>
	<polygon class="st0" points="669.29382,372.31189 673.43457,372.31189 674.51831,347.47314 672.66455,347.47314 	"/>
	<path class="st1" d="M69.81812,333.05225c-2.88672-5.51947-8.5105-9.18164-15.33472-9.18164
		c-10.57434,0-19.84216,8.76611-20.79614,19.66827l-3.63818,41.5863c-0.45886,5.24274,1.1062,9.97864,4.01562,13.49628
		c0.81445,0.98486,1.72864,1.87701,2.74194,2.65271c2.89331,2.2149,6.53125,3.52008,10.5968,3.52008
		c10.57434,0,19.84229-8.76691,20.79626-19.66907l0.47266-5.40936l0.13867-1.58325l0.46948-5.37073H53.14758l-1.17981,13.48743
		c-0.04102,0.46985-0.20752,0.91321-0.44946,1.31299c-0.38989,0.64441-0.99609,1.15558-1.71289,1.41528
		c-0.32849,0.11896-0.6748,0.19403-1.03516,0.19403c-1.52612,0-2.71655-1.34827-2.57898-2.9223l3.82532-43.72156
		c0.13745-1.5733,1.56311-2.92157,3.08923-2.92157c1.63428,0,2.82483,1.34827,2.68726,2.92157l-0.25281,2.89038l-0.1925,2.1983
		l-0.72522,8.28662h3.85278h1.58948h10.6908l1.08228-12.36414c0.21509-2.45825-0.0321-4.79791-0.63354-6.96295
		C70.85986,335.33557,70.396,334.15723,69.81812,333.05225z"/>
	<polygon class="st1" points="115.32495,330.36536 113.6084,340.95221 111.45801,354.21686 110.04175,354.21686 
		110.32935,331.94867 110.34961,330.36536 110.41895,324.99469 94.17627,324.99469 94.02942,326.68079 101.36145,368.71545 
		98.30298,403.67017 102.1554,403.67017 103.74548,403.67017 114.54419,403.67017 117.60254,368.71545 130.35327,331.94867 
		130.9021,330.36536 132.18005,326.68079 132.32849,324.99469 116.19556,324.99469 	"/>
	<path class="st1" d="M191.91968,334.14374c-2.83887-5.56317-8.58301-9.14905-15.56104-9.14905h-19.0752l-6.88367,78.67548h3.85229
		h1.59009h13.63293c10.57446,0,19.84375-8.76611,20.79785-19.66907l0.86572-9.89099c0.12036-1.37213,0.00818-2.7771-0.30298-4.15265
		c-0.23621-1.04535-0.62195-2.05835-1.0885-3.04065c-0.29651-0.62341-0.63391-1.22327-1.01782-1.80286
		c-0.29871-0.45111-0.60291-0.89624-0.95264-1.31311c-1.37512-1.64032-3.12231-3.00049-5.21008-3.85223l0.099-1.12335
		c6.14148-1.6861,10.58679-8.87897,11.09851-14.72357c0.20483-2.3418-0.01465-4.54791-0.55737-6.58618
		C192.89062,336.32642,192.45874,335.2002,191.91968,334.14374z M174.59143,376.35828l-0.453,5.17047
		c-0.04968,0.56689-0.14111,1.11432-0.26025,1.64368c-0.37488,1.66742-1.07788,3.0979-1.95276,4.1557
		c-0.94055,1.13702-2.07581,1.84344-3.25122,1.84344h-0.76233l1.78906-20.45612h0.76221c2.12634,0,3.74634,2.24365,4.08716,5.37073
		c0.05542,0.50848,0.07446,1.03699,0.05737,1.58746C174.60071,375.90283,174.61194,376.12317,174.59143,376.35828z
		 M177.36377,344.66376c-0.00952,0.10791-0.03979,0.20728-0.05469,0.31311c-0.21362,1.51068-0.96973,2.79443-1.99597,3.62543
		c-0.7738,0.6264-1.68689,1.00616-2.63269,1.00616h-1.30811l0.87512-10.00232h1.30798
		C175.84387,339.60614,177.60962,341.85352,177.36377,344.66376z"/>
	<polygon class="st1" points="245.02759,396.12555 245.16626,394.54224 245.63647,389.17157 236.79919,389.17157 
		235.20972,389.17157 231.35742,389.17157 232.79224,372.76184 242.2749,372.76184 243.1416,362.85699 243.28003,361.27368 
		243.75,355.90302 239.70947,355.90302 238.11963,355.90302 234.26733,355.90302 235.69287,339.60614 249.97192,339.60614 
		250.64221,331.94867 250.78052,330.36536 251.25061,324.99469 220.72888,324.99469 213.84521,403.67017 217.69751,403.67017 
		219.2876,403.67017 244.36694,403.67017 	"/>
	<path class="st1" d="M308.43188,377.93152l0.14697-1.6853c5.66516-4.9455,7.80969-12.02631,8.15454-15.95978l1.15039-13.15033
		c0.25464-2.91187-0.06567-5.68286-0.83667-8.22681c-0.4209-1.38849-0.97437-2.70831-1.65771-3.94073
		c-3.33191-6.00977-9.59436-9.97388-17.04175-9.97388h-16.67871l-6.88367,78.67548h3.85242h1.58997h10.80042l1.89868-21.69226
		h0.98022l1.68152,13.612l0.93005,7.52936l0.06799,0.5509h2.54907h1.59631h12.20557L308.43188,377.93152z M301.578,346.56012
		c-0.00647,0.08215-0.00842,0.15485-0.01575,0.23889l-1.17981,13.48743c-0.07825,0.89459-0.1886,1.6698-0.32275,2.35754
		c-0.41809,2.14203-1.09167,3.35443-1.94165,4.02417c-0.86609,0.68231-1.91223,0.81116-3.05139,0.81116h-0.87207l2.43835-27.87317
		h0.87207c2.3374,0,4.17041,0.72925,4.14319,5.3714C301.64526,345.46167,301.6228,345.98688,301.578,346.56012z"/>
	<polygon class="st1" points="409.04492,345.65472 407.76367,351.43719 405.87781,359.94861 405.22375,359.94861 
		403.74487,331.94867 403.66138,330.36536 403.37769,324.99469 384.73682,324.99469 377.85303,403.67017 381.70544,403.67017 
		383.29553,403.67017 392.02393,403.67017 395.08228,368.71545 395.73633,368.71545 396.63428,395.01306 396.92993,403.67017 
		397.46582,403.67017 400.03552,403.67017 401.62012,403.67017 406.41284,403.67017 413.72168,368.71545 414.3772,368.71545 
		411.54761,401.0545 411.31885,403.67017 412.61841,403.67017 415.17114,403.67017 416.76147,403.67017 425.48804,403.67017 
		431.76331,331.94867 431.90161,330.36536 432.3717,324.99469 413.62256,324.99469 	"/>
	<path class="st1" d="M493.77063,333.07928c-2.90637-5.53455-8.55847-9.20868-15.32275-9.20868
		c-10.57288,0-19.84375,8.76611-20.79626,19.66827l-3.63965,41.5863c-0.45801,5.2417,1.10706,9.9765,4.01562,13.49396
		c0.8147,0.98541,1.72925,1.87817,2.74292,2.65417c2.89392,2.21539,6.53186,3.52094,10.59741,3.52094
		c10.4646,0,19.84375-8.76691,20.79785-19.66907l3.63818-41.5863c0.2135-2.44025-0.03516-4.76324-0.63403-6.91504
		C494.82275,335.3761,494.35425,334.19061,493.77063,333.07928z M479.37793,344.38397l-0.22412,2.56183l-3.51685,40.20258
		c-0.02393,0.27472-0.09497,0.53363-0.18518,0.78302c-0.30383,0.83929-0.94434,1.5094-1.74878,1.82513
		c-0.32544,0.12775-0.67444,0.20203-1.03784,0.20203c-1.6344,0-2.72437-1.23694-2.58679-2.81018l4.00146-45.74402
		c0.1377-1.57397,1.45508-2.92303,3.08936-2.92303c1.52759,0,2.6084,1.34906,2.46924,2.92303L479.37793,344.38397z"/>
	<polygon class="st1" points="548.74097,349.31726 548.26819,354.71979 548.16455,355.90302 546.52869,355.90302 
		541.44434,331.94867 541.10815,330.36536 539.96826,324.99469 526.88745,324.99469 520.00391,403.67017 523.8562,403.67017 
		525.44629,403.67017 534.17468,403.67017 536.87891,372.76184 538.51318,372.76184 540.08447,380.16229 541.20972,385.46198 
		545.07532,403.67017 547.06543,403.67017 548.68481,403.67017 558.15601,403.67017 564.43127,331.94867 564.56958,330.36536 
		565.03967,324.99469 550.8689,324.99469 	"/>
	<path class="st1" d="M628.50122,334.17664c-2.88696-5.51959-8.51123-9.18195-15.33423-9.18195h-19.0769l-6.88354,78.67548h3.85229
		h1.59009h13.63452c10.57275,0,19.84216-8.76611,20.79614-19.66907l3.44189-39.33734
		c0.21509-2.45844-0.03235-4.79816-0.63379-6.96338C629.54309,336.46008,629.07922,335.28156,628.50122,334.17664z
		 M614.14331,344.97687l-0.13867,1.58325l-3.50171,40.02618c-0.02197,0.24847-0.09106,0.4892-0.18066,0.72296
		c-0.2998,0.78168-0.94226,1.43451-1.73975,1.71136c-0.25891,0.08997-0.52954,0.15094-0.81323,0.15094h-3.05225l4.33557-49.56543
		h3.05212c1.41797,0,2.39966,1.23621,2.28223,2.58447L614.14331,344.97687z"/>
	<path class="st1" d="M685.47803,330.36536l-0.1626-5.37067h-19.62109l-16.15002,78.67548h4.56482h1.61694h9.18896l2.03174-14.4986
		h5.77808l-0.10718,5.37067l-0.03162,1.58331l-0.15039,7.54462h3.43982h1.58252h10.23853l-2.17065-71.7215L685.47803,330.36536z
		 M673.43457,372.31189h-4.14075l3.37073-24.83875h1.85376L673.43457,372.31189z"/>
	<polygon class="st1" points="740.62549,330.36536 738.90747,340.96252 736.75854,354.21686 735.34082,354.21686 
		735.62842,331.94867 735.64868,330.36536 735.71802,324.99469 719.47681,324.99469 719.32837,326.68079 726.6604,368.71545 
		723.60205,403.67017 727.45435,403.67017 729.04443,403.67017 739.84473,403.67017 742.90308,368.71545 755.65503,331.94867 
		756.20422,330.36536 757.48218,326.68079 757.62903,324.99469 741.49609,324.99469 	"/>
	<path class="st2" d="M101.18628,280.83356h1.59009h18.64746l2.69336-30.78461h0.93396
		c16.64001,0,31.37683-13.78815,33.04675-31.10468l1.68372-19.24078c0.32581-3.72205-0.04065-7.27673-0.92957-10.58716
		c-0.58142-2.16467-1.39014-4.2182-2.42004-6.12909c-4.65564-8.63794-13.58508-14.38843-24.25452-14.38843h-24.10498
		l-9.81995,112.23474H101.18628z M129.42065,189.4422h0.46704c3.20044,0,6.0022,0.0224,6.56201,5.43042
		c0.05322,0.51544,0.09033,1.07013,0.1012,1.6886c0.01892,1.08972-0.02551,2.33441-0.15222,3.78394l-1.58496,18.11823
		c-0.59521,6.80347-2.18799,9.29279-4.30164,10.20758c-0.51355,0.22186-1.05859,0.34943-1.62695,0.42444
		c-0.7865,0.10358-1.61597,0.11017-2.47644,0.11017h-0.46704L129.42065,189.4422z"/>
	<path class="st2" d="M168.94446,225.30182l1.68567-19.24316c0.32092-3.68481-0.00366-7.35492-0.96265-10.91071
		c-0.59766-2.24261-1.44238-4.37463-2.50098-6.33325c-2.18884-4.06433-5.24158-7.36139-8.83447-9.84772
		c1.64551,1.74585,3.06836,3.71161,4.22498,5.85767c0.22852,0.42395,0.40515,0.87994,0.61169,1.31769
		c0.85266,1.11926,1.651,2.29364,2.33801,3.56873c0.98853,1.82947,1.77429,3.82129,2.3385,5.92749
		c0.90015,3.3418,1.20618,6.79431,0.90381,10.25781l-1.68579,19.23212c-1.60815,16.67963-16.01196,30.24982-32.1051,30.24982
		h-1.79993l-2.69641,30.78461h-21.27551l0.30566-3.49188h-0.59058h-1.30371l-0.3811,4.35498l-0.0885,1.02545h25.06738
		l2.69641-30.78467h0.06628C151.99927,257.26678,167.24402,242.93311,168.94446,225.30182z"/>
	<polygon class="st2" points="187.39624,282.67102 186.09375,282.67102 185.71289,287.026 185.62439,288.05145 231.0636,288.05145 
		233.04065,265.4812 227.91956,265.4812 227.77417,267.14404 227.75427,267.36975 230.9751,267.36975 229.33008,286.1629 
		187.68262,286.1629 187.98828,282.67102 	"/>
	<polygon class="st2" points="239.0603,196.66028 241.0448,173.92773 235.92896,173.92773 235.78357,175.59198 235.76392,175.81628 
		238.98657,175.81628 237.32678,194.77173 216.95483,194.77173 215.3877,212.69067 210.40295,212.69067 208.81311,212.69067 
		205.87915,212.69067 207.91406,189.4422 228.28662,189.4422 229.52002,175.33789 229.65869,173.75458 230.10962,168.59882 
		186.5658,168.59882 176.74756,280.83356 179.68091,280.83356 181.27124,280.83356 220.29126,280.83356 221.51074,266.89001 
		221.64917,265.3067 222.10034,260.15094 213.12817,260.15094 214.54626,243.9585 228.07959,243.9585 230.34436,218.02063 
		225.22925,218.02063 225.08374,219.68396 225.06421,219.90918 228.28613,219.90918 226.34595,242.07001 212.81274,242.07001 
		211.23376,260.15094 206.2511,260.15094 204.66113,260.15094 201.72778,260.15094 203.7749,236.74091 217.30554,236.74091 
		218.82031,219.42975 218.95874,217.8465 219.40991,212.69067 217.28223,212.69067 218.68848,196.66028 	"/>
	<path class="st2" d="M249.59497,280.83356h16.69019l2.89771-20.68262h8.24268l-0.10205,5.15576l-0.03149,1.58331l-0.12781,6.45319
		l-1.79712,12.8197H255.4231l0.7168-3.49188h-0.42017h-1.50879l-1.10425,5.38043h23.90552l1.01172-7.2179h1.52661h1.58276h17.65283
		l-3.19446-105.49567l-0.04797-1.58331l-0.15613-5.15576H267.3938l-23.03662,112.23474h3.62036H249.59497z M277.34204,200.66522
		h2.64404l-0.271,6.21875l-0.75574,17.3316l-0.51794,11.8844h-1.09534h-1.59717h-3.21704L277.34204,200.66522z"/>
	<polygon class="st2" points="287.2583,282.67102 286.06714,282.67102 285.96057,288.05145 309.66687,288.05145 
		306.44312,181.58148 306.20703,173.92773 301.61816,173.92773 301.6687,175.59198 301.67542,175.81628 304.37744,175.81628 
		307.71936,286.1629 287.88599,286.1629 287.95508,282.67102 	"/>
	<polygon class="st2" points="378.91431,280.83356 379.19421,277.62677 368.7063,219.74597 368.91675,217.34088 
		386.93726,175.33789 387.6167,173.75458 388.45276,171.8056 388.73267,168.59882 365.40527,168.59882 363.87939,173.92773 
		363.29297,173.92773 363.14722,175.59198 363.12769,175.81628 363.33875,175.81628 360.49768,185.73871 358.20813,193.73541 
		356.224,200.66522 354.66846,200.66522 356.88379,175.33789 357.02222,173.75458 357.47339,168.59882 334.30212,168.59882 
		324.4823,280.83356 327.41602,280.83356 329.0061,280.83356 347.65356,280.83356 350.68408,246.2005 352.2395,246.2005 
		352.96313,253.68964 353.79688,262.3194 355.58545,280.83356 357.15845,280.83356 356.69177,286.1629 335.41626,286.1629 
		335.72192,282.67102 335.1311,282.67102 333.82764,282.67102 333.44653,287.026 333.35803,288.05145 358.42542,288.05145 
		359.05688,280.83356 	"/>
	<polygon class="st2" points="390.05103,283.85754 379.56445,225.97687 379.7489,223.84857 399.22449,178.45355 
		399.66711,173.92773 394.45557,173.92773 393.7417,175.59198 393.64526,175.81628 397.60889,175.81628 397.43188,177.84863 
		377.9563,223.24365 377.66113,226.06537 388.14771,283.94611 387.95227,286.1629 366.34839,286.1629 366.01123,282.67102 
		365.13965,282.67102 364.11682,282.67102 364.63696,288.05145 389.68579,288.05145 	"/>
	<polygon class="st2" points="478.47949,189.4422 493.2533,189.4422 494.48682,175.33789 494.62537,173.75458 495.07617,168.59882 
		442.20117,168.59882 440.3783,189.4422 443.31177,189.4422 444.90161,189.4422 455.1521,189.4422 454.70105,194.59796 
		454.68579,194.77173 451.31396,194.77173 451.61975,191.2796 451.02661,191.2796 449.72546,191.2796 449.25586,196.66028 
		454.52051,196.66028 447.15527,280.83356 450.08887,280.83356 451.67896,280.83356 470.48413,280.83356 	"/>
	<polygon class="st2" points="500.75024,175.59198 500.73071,175.81628 503.95337,175.81628 502.29346,194.77173 
		487.51709,194.77173 479.52405,286.1629 458.08984,286.1629 458.39539,282.67102 457.80408,282.67102 456.50244,282.67102 
		456.03174,288.05145 481.25769,288.05145 489.25073,196.66028 504.0271,196.66028 506.01147,173.92773 500.89575,173.92773 	"/>
	<path class="st2" d="M578.38269,186.01514c-2.04211-3.90942-4.94885-7.05505-8.39905-9.36938
		c1.47864,1.6001,2.75208,3.4024,3.78052,5.37097c0.20837,0.3988,0.37,0.82648,0.55762,1.2384
		c0.87842,1.13123,1.7002,2.32104,2.38623,3.63416c0.87427,1.67828,1.5603,3.46722,2.03613,5.32257
		c0.7561,2.95453,1.0033,5.9939,0.73779,9.03699l-5.18994,59.32294c-1.31299,14.9939-14.20081,27.19562-28.72998,27.19562
		c-6.07446,0-11.68091-2.14142-15.99634-6.05621c1.9353,0.47015,3.97107,0.72577,6.09167,0.72577
		c14.92834,0,28.30762-12.50635,29.66821-28.05865l5.19055-59.32422c0.2876-3.28638-0.01489-6.42285-0.76489-9.34784
		c-0.50098-1.95264-1.21069-3.8017-2.11206-5.52686c-4.13892-7.92151-12.21387-13.18396-21.88208-13.18396
		c-15.08618,0-28.31079,12.50555-29.67139,28.05865l-5.19067,59.32422c-0.50708,5.79651,0.71191,11.16742,3.21692,15.62787
		c0.9679,1.72327,2.1427,3.29443,3.47046,4.71698c2.27454,2.43652,5.03845,4.3913,8.16663,5.72522
		c0.33618,0.40637,0.68542,0.8056,1.04932,1.19604c4.82458,5.16766,11.48608,8.01154,18.76367,8.01154
		c15.4845,0,29.21704-12.9726,30.61121-28.92188l5.18982-59.32294c0.28394-3.2533,0.01843-6.50665-0.78931-9.66772
		C580.06104,189.74792,579.32324,187.82251,578.38269,186.01514z M533.81421,257.26422l5.71021-65.2569
		c0.19629-2.24506,2.07642-4.16852,4.40808-4.16852c2.17712,0,3.72009,1.92346,3.5238,4.16852l-0.0885,1.01044l-0.13733,1.56921
		l-5.48425,62.67725c-0.18152,2.0755-1.79333,3.72052-3.75513,3.96008c-0.16028,0.01959-0.31848,0.0484-0.48303,0.0484
		c-0.39233,0-0.75256-0.06598-1.09644-0.15961C534.71106,260.6499,533.65088,259.13171,533.81421,257.26422z"/>
	<path class="st2" d="M692.06079,175.59198l-0.01953,0.2243h3.2229l-7.41772,84.75549
		c-1.31311,14.9939-14.20093,27.19562-28.72632,27.19562c-6.07422,0-11.68042-2.14117-15.99573-6.0556
		c1.93445,0.46973,3.96936,0.72516,6.08899,0.72516c15.08472,0,28.30762-12.50635,29.66833-28.05865l6.91565-79.04041
		l0.13843-1.58331l0.45117-5.15576h-23.0166l-0.46619,5.32892h-1.95691l-0.14575,1.66425l-0.01953,0.2243h1.95703l-6.99902,80.00537
		c-0.19568,2.23578-1.97217,4.03503-4.09399,4.28009c-0.16064,0.01855-0.31873,0.04919-0.48279,0.04919
		c-0.38501,0-0.74683-0.07892-1.09387-0.19122c-1.61694-0.52301-2.74536-2.1582-2.57214-4.13806l7.04089-80.48376l0.13843-1.58331
		l0.45117-5.15576h-23.17126l-7.50525,85.77948c-0.50708,5.79651,0.71191,11.16742,3.21692,15.62787
		c0.9679,1.72327,2.1427,3.29443,3.47034,4.71698c2.27502,2.43689,5.03931,4.39185,8.16821,5.72583
		c0.33606,0.40582,0.68555,0.80481,1.0498,1.19543c4.82458,5.16766,11.48608,8.01154,18.76367,8.01154
		c15.48071,0,29.21313-12.9726,30.60742-28.92188l7.59473-86.80634h-5.11572L692.06079,175.59198z"/>
	<path class="st2" d="M772.89441,185.97083c-2.02185-3.88263-4.91101-7.00916-8.34656-9.31403
		c1.45703,1.58447,2.71338,3.36487,3.72729,5.31061c0.20703,0.3974,0.36768,0.82343,0.55396,1.23383
		c0.88184,1.13239,1.70532,2.32422,2.39075,3.64014c0.8595,1.64874,1.53809,3.42664,2.01392,5.28564
		c0.76355,2.98035,1.01428,6.04926,0.74512,9.12183l-0.92224,10.51971h-21.12061h-1.89502l-0.02295,0.2619l-0.13696-0.2619h-2.11084
		l12.8634,24.63214c0.51282,0.97375,1.04016,1.94757,1.56396,2.91766c2.16882,4.02417,4.41516,8.18488,5.66565,12.35291
		c0.88892,2.96564,1.20972,5.66565,0.98486,8.255l-0.05908,0.64551c-1.31311,14.9939-14.20093,27.19562-28.72644,27.19562
		c-6.07434,0-11.68079-2.14142-15.9989-6.05621c1.93518,0.47015,3.97095,0.72577,6.09155,0.72577
		c15.08459,0,28.30762-12.50635,29.66821-28.05865l0.05725-0.64172c0.25867-2.95496-0.17822-5.81158-1.01892-8.6131
		c-1.57715-5.255-4.60071-10.31262-7.29651-15.43707l-15.30688-29.26508l-1.21411-2.32123
		c-0.92004-1.92346-1.3313-2.56512-1.20447-4.00775c0.19629-2.24506,2.24512-4.33008,4.42358-4.33008
		c2.33167,0,4.0155,2.08502,3.81909,4.33008l-0.07715,0.88055l-0.13745,1.5694l-0.86621,9.89563h2.93396h1.58984h18.4928
		l0.99573-11.38385c0.29053-3.32098-0.01428-6.48859-0.77271-9.43964c-0.49792-1.93719-1.19934-3.77252-2.09119-5.48456
		c-4.11304-7.89404-12.14587-13.13446-21.89526-13.13446c-15.08618,0-28.31067,12.50555-29.67139,28.05865l-0.05566,0.64093
		c-0.30957,3.54193,1.14551,7.591,3.11584,11.64783c1.86548,3.84113,4.1925,7.68939,5.93408,11.12054l15.91345,31.42554
		c0.86572,1.75397,1.21753,2.74225,1.28113,3.89398c0.02356,0.42761,0.01062,0.87628-0.03503,1.39709
		c-0.18237,2.08704-1.97021,4.01263-4.09375,4.27643c-0.16052,0.02002-0.31885,0.05286-0.48291,0.05286
		c-0.39233,0-0.75183-0.07739-1.09448-0.18622c-1.69409-0.53796-2.73486-2.2757-2.57153-4.14307l0.60266-6.88983l0.13831-1.58331
		l0.45117-5.15576h-23.17114l-1.12256,12.82721c-0.5072,5.79651,0.71179,11.16742,3.2168,15.62787
		c0.96802,1.72327,2.14258,3.29443,3.47046,4.71698c2.27417,2.43604,5.03735,4.39056,8.16479,5.72449
		c0.3363,0.40637,0.68579,0.80585,1.05017,1.19678c4.82825,5.16766,11.49353,8.01154,18.76733,8.01154
		c15.48083,0,29.21326-12.9726,30.60754-28.91821l0.05908-0.64551c0.24707-2.83276-0.09961-5.7652-1.05859-8.96313
		c-1.302-4.35254-3.59644-8.60175-5.81323-12.70709c-0.52002-0.96637-1.04004-1.9328-1.54907-2.89917l-11.43823-21.86572h23.92017
		l1.06982-12.24597c0.2876-3.28284,0.01831-6.56561-0.79688-9.75623C774.55054,189.65936,773.82031,187.74506,772.89441,185.97083z"
		/>
	<path class="st2" d="M89.66919,185.97083c-2.02173-3.88263-4.91101-7.00916-8.34644-9.31403
		c1.45703,1.58447,2.71338,3.36487,3.72729,5.31061c0.20703,0.3974,0.36768,0.82343,0.55396,1.23383
		c0.88184,1.13239,1.70532,2.32422,2.39062,3.64014c0.85938,1.64874,1.53809,3.42664,2.01392,5.28564
		c0.76367,2.98035,1.0144,6.04926,0.74512,9.12183l-0.92212,10.51971H68.71094h-1.89502l-0.02307,0.2619l-0.13684-0.2619h-2.11084
		l12.86328,24.63214c0.5127,0.97375,1.04028,1.94757,1.56396,2.91766c2.16895,4.02417,4.41528,8.18488,5.66565,12.35291
		c0.88904,2.96564,1.20984,5.66565,0.98486,8.255l-0.05896,0.64551c-1.31323,14.9939-14.20093,27.19562-28.72656,27.19562
		c-6.07202,0-11.67639-2.13959-15.9939-6.05157c1.92944,0.46704,3.9585,0.72113,6.07202,0.72113
		c15.08459,0,28.30762-12.50635,29.66821-28.05865l0.05725-0.64172c0.25867-2.95496-0.1781-5.81158-1.01892-8.6131
		c-1.57715-5.255-4.60071-10.31262-7.29639-15.43707L53.0188,200.42133l-1.21423-2.32123
		c-0.92004-1.92346-1.33118-2.56512-1.20447-4.00775c0.19629-2.24506,2.24512-4.33008,4.42358-4.33008
		c2.33179,0,4.0155,2.08502,3.81909,4.33008l-0.07715,0.88055l-0.13733,1.5694l-0.86633,9.89563h2.93396h1.58997h18.49268
		l0.99585-11.38385c0.29041-3.32098-0.0144-6.48859-0.77271-9.43964c-0.49792-1.93719-1.19946-3.77252-2.09131-5.48456
		c-4.11304-7.89404-12.14587-13.13446-21.89514-13.13446c-15.08618,0-28.31067,12.50555-29.67139,28.05865l-0.05566,0.64093
		c-0.30969,3.54193,1.14539,7.591,3.11584,11.64783c1.86548,3.84113,4.19238,7.68939,5.93408,11.12054l15.91174,31.42554
		c0.86816,1.75598,1.21985,2.74457,1.28308,3.89801c0.02344,0.42639,0.01025,0.8739-0.0354,1.39307
		c-0.18237,2.08704-1.97021,4.01263-4.09363,4.27643c-0.16064,0.02002-0.31897,0.05286-0.48303,0.05286
		c-0.39233,0-0.75183-0.07739-1.09448-0.18622c-1.69409-0.53796-2.73486-2.2757-2.57153-4.14307l0.60266-6.88983l0.13831-1.58331
		l0.45117-5.15576H23.27588l-1.12256,12.82721c-0.50708,5.79651,0.71179,11.16742,3.2168,15.62787
		c0.96802,1.72327,2.1427,3.29443,3.47046,4.71698c2.2793,2.44153,5.05005,4.39905,8.18616,5.73315
		c0.33411,0.40344,0.68152,0.79993,1.04333,1.18811c4.82837,5.16766,11.49365,8.01154,18.76733,8.01154
		c15.48096,0,29.21338-12.9726,30.60767-28.91821l0.05908-0.64551c0.24707-2.83276-0.09961-5.7652-1.05872-8.96313
		c-1.302-4.35254-3.59631-8.60175-5.81311-12.70709c-0.52002-0.96637-1.04016-1.9328-1.54919-2.89917L67.64502,213.6571h23.92017
		l1.06958-12.24597c0.28784-3.28284,0.01855-6.56561-0.79663-9.75623C91.32544,189.65936,90.59509,187.74506,89.66919,185.97083z"/>
	<polygon class="st1" points="69.60022,136.37506 50.24634,136.37506 48.74512,129.30298 46.81714,129.30298 48.71936,138.26361 
		71.33386,138.26361 82.45483,11.15991 82.54333,10.13446 74.90308,10.13446 74.73767,12.02301 80.48511,12.02301 	"/>
	<polygon class="st1" points="9.01282,129.30298 8.3186,137.23816 8.23022,138.26361 32.85864,138.26361 35.75439,105.185 
		40.22351,126.24048 61.21008,126.24048 72.25513,0 49.5188,0 46.71167,32.08551 42.0542,10.13446 36.79907,10.13446 
		37.19971,12.02301 40.5271,12.02301 46.14893,38.51807 45.17981,49.59515 42.55688,49.59515 32.03149,0 11.04492,0 0,126.24048 
		22.73462,126.24048 27.07373,76.64606 29.69666,76.64606 34.40991,98.85107 31.125,136.37506 10.28833,136.37506 
		10.9071,129.30298 	"/>
	<polygon class="st1" points="99.26111,129.30298 98.56665,137.23816 98.47827,138.26361 149.34326,138.26361 151.54175,113.11139 
		143.90198,113.11139 143.73669,114.99994 149.4834,114.99994 147.60962,136.37506 100.53638,136.37506 101.1554,129.30298 	"/>
	<polygon class="st1" points="141.25427,102.97614 129.51929,102.97614 130.77148,88.67108 145.99048,88.67108 148.51709,59.73071 
		140.87805,59.73071 140.71301,61.61926 146.45886,61.61926 144.25684,86.78253 129.03784,86.78253 127.62378,102.97614 
		118.34424,102.97614 120.64722,76.64606 135.86353,76.64606 138.23047,49.59515 134.18933,49.59515 135.42639,35.46741 
		158.33594,35.46741 160.54907,10.13446 152.91101,10.13446 152.74573,12.02301 158.49097,12.02301 156.60229,33.57886 
		133.69275,33.57886 132.2937,49.59515 123.01404,49.59515 125.30176,23.44495 148.21167,23.44495 150.26318,0 101.29443,0 
		90.24927,126.24048 139.21802,126.24048 	"/>
	<polygon class="st1" points="178.67725,129.30298 177.98315,137.23816 177.89453,138.26361 228.75964,138.26361 
		230.95801,113.11139 223.31665,113.11139 223.15137,114.99994 228.89978,114.99994 227.026,136.37506 179.95276,136.37506 
		180.57153,129.30298 	"/>
	<polygon class="st1" points="220.66907,102.97614 208.93579,102.97614 210.18774,88.67108 225.40308,88.67108 227.93335,59.73071 
		220.29297,59.73071 220.12793,61.61926 225.87524,61.61926 223.66943,86.78253 208.4541,86.78253 207.04004,102.97614 
		197.75903,102.97614 200.06201,76.64606 215.27832,76.64606 217.64526,49.59515 213.60571,49.59515 214.84277,35.46741 
		237.75232,35.46741 239.96545,10.13446 232.32581,10.13446 232.1604,12.02301 237.90723,12.02301 236.01868,33.57886 
		213.10913,33.57886 211.71008,49.59515 202.42896,49.59515 204.71655,23.44495 227.62646,23.44495 229.67798,0 180.70923,0 
		169.66418,126.24048 218.63293,126.24048 	"/>
	<path class="st1" d="M329.34167,42.56049l-5.52173,63.11847c-1.48279,16.92676-16.02673,30.69611-32.42603,30.69611h-29.57849
		l0.6189-7.07208h-1.89429l-0.69434,7.93518l-0.0885,1.02545h31.63672c17.35461,0,32.74329-14.54395,34.30725-32.42236
		l5.52173-63.11847c0.78198-8.93365-1.90698-17.25873-7.57642-23.4444c-1.1145-1.21582-2.33984-2.28992-3.62354-3.27545
		c0.9093,1.4646,1.68665,3.02258,2.32617,4.6651C327.58521,26.44775,330.07104,34.21057,329.34167,42.56049z"/>
	<path class="st1" d="M315.50073,94.68127l5.52173-63.12061C322.5542,14.06726,310.14355,0,293.17908,0h-30.6051
		l-11.04504,126.24048h30.6051C299.09863,126.24048,313.97058,112.17395,315.50073,94.68127z M286.57983,23.44495h4.89685
		c2.27393,0,3.84973,1.98438,3.66077,4.14777l-6.23193,71.2356c-0.18896,2.16425-2.1123,4.14783-4.38623,4.14783h-4.89697
		L286.57983,23.44495z"/>
	<polygon class="st1" points="446.00842,136.37506 422.01807,136.37506 422.63708,129.30298 420.74438,129.30298 
		419.95996,138.26361 447.74194,138.26361 458.85938,11.15991 458.94775,10.13446 451.30762,10.13446 451.14233,12.02301 
		456.88965,12.02301 	"/>
	<polygon class="st1" points="406.40771,81.1543 415.67725,81.1543 411.73145,126.24048 411.73999,126.24048 410.85278,136.37506 
		386.69287,136.37506 387.31152,129.30298 385.41724,129.30298 384.72314,137.23816 384.63464,138.26361 412.58643,138.26361 
		413.63892,126.24048 437.61487,126.24048 448.65991,0 422.77637,0 421.88989,10.13446 416.15491,10.13446 415.98962,12.02301 
		421.72461,12.02301 418.83203,45.08612 409.56262,45.08612 413.50696,0 387.44971,0 376.40466,126.24048 402.46191,126.24048 	"/>
	<polygon class="st1" points="476.89062,129.30298 476.19617,137.23816 476.10767,138.26361 526.97278,138.26361 
		529.17114,113.11139 521.53174,113.11139 521.36646,114.99994 527.11292,114.99994 525.23914,136.37506 478.16589,136.37506 
		478.78491,129.30298 	"/>
	<polygon class="st1" points="518.88403,102.97614 507.14893,102.97614 508.40088,88.67108 523.61987,88.67108 526.14648,59.73071 
		518.50806,59.73071 518.34302,61.61926 524.08838,61.61926 521.88623,86.78253 506.66724,86.78253 505.25317,102.97614 
		495.97412,102.97614 498.27686,76.64606 513.49341,76.64606 515.86035,49.59515 511.81885,49.59515 513.05591,35.46741 
		535.96545,35.46741 538.18225,10.13446 530.54077,10.13446 530.37549,12.02301 536.12402,12.02301 534.23181,33.57886 
		511.32227,33.57886 509.92322,49.59515 500.6438,49.59515 502.9314,23.44495 525.84155,23.44495 527.89282,0 478.92407,0 
		467.87915,126.24048 516.8479,126.24048 	"/>
	<polygon class="st1" points="604.16724,136.37506 557.09387,136.37506 557.71265,129.30298 555.81836,129.30298 
		555.12427,137.23816 555.03564,138.26361 605.90076,138.26361 608.09912,113.11139 600.45801,113.11139 600.29272,114.99994 
		606.04102,114.99994 	"/>
	<polygon class="st1" points="597.81055,102.97614 586.07617,102.97614 594.19702,10.13446 586.55737,10.13446 586.39233,12.02301 
		592.13879,12.02301 584.18311,102.97614 574.90051,102.97614 583.90942,0 557.85059,0 546.80566,126.24048 595.77441,126.24048 	
		"/>
	<path class="st1" d="M697.49695,20.35541c-1.10876-1.21051-2.31982-2.28528-3.57629-3.29175
		c1.06714,1.64508,1.98865,3.39551,2.74414,5.24719c5.52246,6.38879,8.15991,14.74725,7.37939,23.67633l-1.896,21.62964
		c-1.8147,18.82263-18.06274,34.13385-36.22144,34.13385h-1.91809l-3.02832,34.62439h-24.1637l0.6189-7.07208h-1.89429
		l-0.69434,7.93518l-0.0885,1.02545h27.95544l3.02832-34.62445h0.18457c19.10291,0,36.19568-16.07837,38.10266-35.849
		l1.89587-21.64069C706.77734,36.37848,703.78589,27.21613,697.49695,20.35541z"/>
	<path class="st1" d="M655.61707,91.61487h1.05017c18.71265,0,35.28394-15.50909,37.16309-34.98682l1.89453-21.64124
		C697.41199,15.69043,683.39502,0,664.68237,0h-27.10742l-11.04492,126.24048h26.05713L655.61707,91.61487z M661.58081,23.44495
		h0.52588c4.54626,0,8.39453,0,7.32166,12.26355l-1.78162,20.37848c-1.05786,12.08368-4.90601,12.08368-9.45239,12.08368h-0.52588
		L661.58081,23.44495z"/>
	<polygon class="st1" points="746.08557,129.30298 745.30249,138.26361 766.43408,138.26361 768.63257,113.11139 
		760.99353,113.11139 760.82825,114.99994 766.57434,114.99994 764.70056,136.37506 747.3606,136.37506 747.98059,129.30298 	"/>
	<path class="st1" d="M790.30273,19.27838c-1.11523-1.21655-2.34106-2.29083-3.62537-3.27679
		c0.90955,1.46454,1.68713,3.02228,2.32678,4.6651c5.2373,5.78015,7.72314,13.5434,6.99365,21.8938
		c-0.95154,10.85175-6.15234,16.77924-12.17944,23.64362c-7.01196,7.98572-14.94971,17.02637-16.8125,35.90802H751.0603
		c0.23682-2.50684,0.53906-4.83429,0.87183-7.0744h-1.90894c-0.36499,2.49921-0.68921,5.11438-0.93628,7.9375v0.00092h-9.97803
		l-2.03625,23.26434h19.23694l1.94653-22.23981h10.47607l0.07373-0.8631c1.65247-18.85217,9.16602-27.41333,16.4325-35.69043
		c5.98279-6.81647,11.63733-13.25293,12.64062-24.72437C798.66101,33.78912,795.97205,25.46405,790.30273,19.27838z"/>
	<path class="st1" d="M750.33057,30.65918c0.34753-3.96796,3.77979-7.21423,7.45288-7.21423
		c3.84668,0,6.53674,3.24628,6.3645,7.21423c-0.26978,9.51886-8.29688,14.10864-15.00159,27.81006h-13.85828l0.61804-7.0744
		h-1.89429l-0.78198,8.96289h15.02722c-3.34253,7.40027-6.23755,17.32214-7.48853,31.61755h17.83936
		c3.07715-35.16663,26.92444-35.88831,29.07031-60.41461C789.20996,14.06726,776.79785,0,759.83472,0
		c-16.78918,0-31.83643,14.06726-33.36816,31.56067l-1.46619,16.77179h23.78479L750.33057,30.65918z"/>
	<circle class="st2" cx="252.00623" cy="466.29022" r="13.8833"/>
	<circle class="st2" cx="325.5061" cy="466.29022" r="13.8833"/>
	<circle class="st2" cx="399.00586" cy="466.29022" r="13.8833"/>
	<circle class="st2" cx="472.50574" cy="466.29022" r="13.8833"/>
	<circle class="st2" cx="546.00562" cy="466.29022" r="13.8833"/>
</g>
</svg>
