<svg version="1.1" id="Layer_1" xmlns="http://www.w3.org/2000/svg" x="0" y="0" viewBox="0 0 450.504 206.306" xml:space="preserve"><style>.st0{fill:#e5c10e}.st1{fill:#bc2622}.st2{fill:#a02020}.st3{fill:#fffdd7}.st5{fill:#b5b291}</style><path class="st0" d="M374.788 206.306H54.006a2.08 2.08 0 110-4.16h320.782c19.252 0 29.349-5.836 31.777-18.369a2.08 2.08 0 014.084.79c-2.834 14.628-14.564 21.74-35.861 21.74z"/><path class="st0" d="M139.148 205.058a2.08 2.08 0 01-2.08-2.08V172.4a2.08 2.08 0 114.16 0v30.58a2.08 2.08 0 01-2.08 2.08zM297.44 205.058a2.08 2.08 0 01-2.08-2.08V172.4a2.08 2.08 0 114.16 0v30.58a2.08 2.08 0 01-2.08 2.08z"/><path class="st1" d="M389.081 175.397H65.992c-12.678 0-23.637-8.847-26.31-21.24l-2.597-12.04-7.662-35.523 60.046-4.041a636.108 636.108 0 0167.032-.971l79.89 7.251a769.919 769.919 0 00112.648 1.948l74.765-4.187-5.948 33.71-2.269 12.855c-2.27 12.862-13.445 22.238-26.506 22.238z"/><path class="st0" d="M444.966 86.684c4.78-4.819 8.775-13.434 1.707-18.172-7.118-4.772-22.54-4.552-24.36 6.02-1.136 6.608 3.783 11.417 7.043 16.484 2.102 3.268 3.863 7.715.592 10.821-1.35 1.283-3.334 2.31-5.184 2.62-3.506.589-7.257.556-10.806.827-4.247.323-8.495.637-12.743.941-27.121 1.941-54.284 3.525-81.472 4.11-18.278.393-36.573.299-54.835-.644-14.25-.735-28.457-2.033-42.645-3.542-15.196-1.616-30.38-3.408-45.609-4.697-29.999-2.538-60.227-2.314-90.279-.912-18.222.85-36.446 2.125-54.588 4.061-10.317 1.101-21.538 3.14-27.964 12.248-4.845 6.866-5.811 19.076 1.398 24.76 5.464 4.31 14.14 3.653 19.571-.402 2.294-1.713 4.08-4.208 3.966-7.181-.085-2.224-3.552-2.235-3.467 0 .224 5.84-9.164 7.617-13.398 6.84-8.896-1.635-9.932-12.538-6.692-19.503 4.574-9.833 16.18-12.167 25.829-13.214 16.266-1.765 32.605-2.956 48.941-3.824 28.44-1.51 57.008-1.952 85.448-.22 16.717 1.017 33.371 2.965 50.017 4.775 13.303 1.446 26.615 2.817 39.968 3.713 16.194 1.087 32.424 1.496 48.653 1.419 23.218-.112 46.426-1.126 69.6-2.506 15.578-.927 31.145-2.034 46.703-3.25 3.168-.248 5.743-.29 8.584-1.632 2.648-1.252 4.988-3.345 5.91-6.192 1.467-4.528-1.054-9.31-3.683-12.86-2.87-3.874-8.032-10.052-4.352-15.043 4.576-6.208 23.393-4.24 19.81 5.512-.842 2.291-2.397 4.462-4.114 6.192-1.572 1.586.878 4.038 2.451 2.451z"/><circle class="st0" cx="15.333" cy="131.327" r="11.992"/><path class="st0" d="M15.332 145.4c-7.758 0-14.07-6.313-14.07-14.073 0-7.759 6.312-14.071 14.07-14.071 7.76 0 14.073 6.312 14.073 14.071 0 7.76-6.313 14.072-14.073 14.072zm0-23.984c-5.465 0-9.911 4.446-9.911 9.911 0 5.466 4.446 9.913 9.912 9.913s9.912-4.447 9.912-9.913c0-5.465-4.447-9.911-9.913-9.911z"/><ellipse class="st0" cx="435.701" cy="79.158" rx="10.387" ry="9.289"/><path class="st0" d="M436.748 90.513c-6.838 0-13.45-5.218-13.45-11.355 0-6.138 5.564-11.13 12.403-11.13s13.639 2.52 13.639 8.657c0 6.137-5.753 13.828-12.591 13.828zm-1.047-18.803c-4.616 0-8.371 3.341-8.371 7.448s3.755 7.447 8.37 7.447 8.372-3.34 8.372-7.447-3.756-7.448-8.371-7.448z"/><path class="st2" d="M86.506 151.913c-.325.276-.743.494-1.255.657-.513.163-1.106.245-1.78.245-.9 0-1.644-.111-2.23-.336-.588-.224-.97-.61-1.145-1.16a545.893 545.893 0 00-1.728-5.34 47.318 47.318 0 01-1.052-3.579h-.187a203.11 203.11 0 00-.166 4.03 172.131 172.131 0 00-.072 3.541 170.095 170.095 0 01-.238 7.384c-.325.126-.75.232-1.274.32a9.61 9.61 0 01-1.575.132c-1.1.001-1.955-.174-2.567-.523-.613-.349-.92-.986-.92-1.91l1.073-19.116c.199-.325.636-.676 1.31-1.05.675-.376 1.624-.564 2.849-.565 1.324-.001 2.361.204 3.111.616.75.412 1.3 1.08 1.65 2.004.226.6.47 1.287.733 2.06.263.775.526 1.575.79 2.399s.519 1.643.77 2.454l.676 2.193h.187c.598-2.1 1.196-4.13 1.794-6.093.599-1.961 1.147-3.604 1.646-4.93.375-.2.855-.369 1.443-.507a8.67 8.67 0 011.967-.207c1.224-.001 2.224.18 2.999.541.775.362 1.225.88 1.35 1.554.1.5.208 1.269.32 2.305.114 1.037.233 2.206.36 3.504.125 1.3.251 2.674.377 4.123.126 1.45.246 2.842.36 4.179.113 1.337.207 2.561.283 3.673.076 1.112.126 1.967.152 2.567-.425.25-.868.432-1.33.544-.462.113-1.056.17-1.78.17-.95.001-1.75-.161-2.4-.485-.65-.324-1-.96-1.05-1.91a196.148 196.148 0 01-.287-7.347c-.039-2.173-.096-3.997-.173-5.472h-.187c-.25.975-.61 2.2-1.084 3.674a235.311 235.311 0 00-1.72 5.661zM100.663 138.26c0-1.074.311-1.924.935-2.55.624-.624 1.474-.938 2.548-.939l12.369-.009c.175.275.331.637.47 1.087.137.45.206.924.206 1.424.001.95-.205 1.625-.617 2.024-.412.4-.955.6-1.63.601l-7.908.006.003 3.486 8.433-.007c.175.276.331.632.47 1.068.137.438.206.906.207 1.406 0 .95-.2 1.624-.599 2.024-.4.4-.936.6-1.611.6l-6.897.006.003 3.935 9.633-.007c.175.275.331.637.47 1.087.137.45.206.925.207 1.424 0 .95-.205 1.63-.617 2.043-.412.413-.956.62-1.63.62l-10.945.008c-1.074 0-1.924-.31-2.55-.935-.624-.624-.937-1.473-.938-2.548l-.012-15.854zM127.733 150.12l.005 7.197c-.275.075-.706.15-1.293.226-.587.075-1.168.113-1.743.114a7.81 7.81 0 01-1.518-.13c-.437-.087-.8-.243-1.087-.468-.287-.225-.506-.537-.656-.937-.15-.399-.226-.924-.227-1.574l-.013-17.653c0-.525.143-.93.43-1.218.287-.287.68-.52 1.18-.695.85-.3 1.836-.52 2.961-.658a29.787 29.787 0 013.598-.209c3.448-.002 6.047.721 7.797 2.168 1.75 1.449 2.627 3.41 2.629 5.883 0 1.55-.398 2.874-1.197 3.974-.8 1.1-1.748 1.95-2.847 2.55a87.19 87.19 0 002.664 3.447c.875 1.074 1.563 2.048 2.064 2.922-.25.875-.705 1.544-1.367 2.006a3.807 3.807 0 01-2.23.695c-.55 0-1.024-.062-1.424-.186-.4-.125-.75-.3-1.05-.524-.3-.225-.575-.5-.825-.824-.25-.324-.488-.675-.713-1.049l-3.152-5.058-1.986.002zm2.357-4.986c.95 0 1.7-.245 2.248-.732s.824-1.206.823-2.156c0-.95-.307-1.668-.92-2.155-.612-.486-1.58-.73-2.904-.728-.375 0-.675.013-.9.038a11.22 11.22 0 00-.75.113l.005 5.622 2.398-.002zM150.558 150.104l.006 7.196c-.276.075-.706.15-1.293.226-.588.075-1.168.113-1.743.114a7.81 7.81 0 01-1.518-.13c-.438-.087-.8-.243-1.087-.468-.288-.225-.507-.537-.657-.937-.15-.399-.226-.924-.226-1.574l-.013-17.653c0-.525.143-.93.43-1.218.287-.287.68-.52 1.18-.695.849-.3 1.836-.52 2.96-.658a29.788 29.788 0 013.598-.209c3.449-.002 6.048.721 7.798 2.168 1.75 1.449 2.626 3.41 2.628 5.883.001 1.55-.398 2.874-1.197 3.974s-1.747 1.95-2.846 2.55a87.172 87.172 0 002.664 3.447c.875 1.074 1.562 2.048 2.063 2.922-.249.875-.705 1.544-1.366 2.006a3.807 3.807 0 01-2.23.695c-.55 0-1.025-.062-1.424-.186-.4-.125-.75-.3-1.05-.524-.3-.225-.575-.5-.825-.824-.25-.324-.488-.675-.713-1.049l-3.152-5.058-1.987.002zm2.358-4.987c.95 0 1.699-.245 2.248-.732.55-.488.824-1.206.823-2.156 0-.95-.307-1.668-.92-2.155-.613-.486-1.581-.73-2.905-.728-.375 0-.675.013-.9.038-.225.025-.474.063-.75.113l.005 5.622 2.399-.002zM177.812 157.28c-.275.075-.7.15-1.274.226-.575.075-1.138.113-1.687.113-1.15.001-2.011-.191-2.586-.579-.576-.387-.863-1.204-.864-2.454l-.004-5.06a165.606 165.606 0 01-2.026-3.072 113.586 113.586 0 01-2.14-3.446 76.374 76.374 0 01-1.95-3.466 31.852 31.852 0 01-1.465-3.129c.324-.45.768-.862 1.33-1.237.562-.375 1.255-.563 2.08-.564.974 0 1.767.2 2.38.598.612.4 1.194 1.149 1.745 2.247l3.115 6.257h.225c.35-.774.655-1.48.917-2.118s.517-1.275.767-1.912c.249-.638.51-1.3.785-1.987.274-.688.586-1.481.935-2.381.45-.225.95-.4 1.5-.526a7.117 7.117 0 011.573-.188c.875-.001 1.618.23 2.23.691.613.463.92 1.156.92 2.08.001.3-.061.662-.186 1.087-.125.425-.411 1.068-.86 1.93a87.86 87.86 0 01-1.966 3.507c-.86 1.475-2.027 3.4-3.5 5.774l.006 7.609zM206.47 139.268c-1.924.001-3.397.59-4.42 1.765-1.025 1.175-1.535 2.837-1.534 4.986.002 2.174.571 3.847 1.71 5.02 1.137 1.175 2.668 1.76 4.592 1.759 1.024 0 1.893-.138 2.605-.414a17.894 17.894 0 002.042-.939c.424.35.756.768.994 1.255.238.487.357 1.056.357 1.705.001 1.025-.567 1.893-1.703 2.606-1.137.713-2.867 1.07-5.19 1.072-1.675.002-3.25-.235-4.723-.708-1.476-.474-2.763-1.203-3.863-2.19-1.1-.986-1.97-2.234-2.607-3.746-.639-1.511-.958-3.316-.96-5.415-.001-1.95.303-3.667.914-5.155.611-1.486 1.447-2.742 2.509-3.768a10.569 10.569 0 013.727-2.327c1.424-.525 2.948-.79 4.572-.79 2.299-.002 4.08.371 5.342 1.12 1.262.749 1.894 1.71 1.895 2.885 0 .65-.162 1.212-.486 1.687-.325.475-.7.85-1.123 1.125a12.23 12.23 0 00-2.082-1.085c-.737-.3-1.593-.449-2.567-.448zM236.618 157.236c-.275.075-.706.15-1.293.226-.587.075-1.168.113-1.742.113a7.813 7.813 0 01-1.518-.13 2.691 2.691 0 01-1.106-.467 2.021 2.021 0 01-.676-.937c-.15-.399-.225-.924-.226-1.574l-.004-5.847-7.196.006.006 8.62c-.275.075-.706.15-1.293.226-.587.075-1.168.113-1.743.114a7.807 7.807 0 01-1.518-.13c-.437-.087-.806-.243-1.106-.468s-.525-.537-.675-.936c-.15-.4-.226-.925-.226-1.574l-.015-19.79c.275-.05.712-.119 1.312-.207.6-.088 1.174-.132 1.724-.133.574 0 1.08.043 1.518.13.437.088.806.243 1.106.468s.525.537.675.936c.15.4.226.925.226 1.574l.005 5.997 7.196-.005-.006-8.77c.274-.05.711-.12 1.311-.208a11.97 11.97 0 011.724-.132c.575 0 1.08.043 1.518.13.437.088.806.243 1.106.468.3.224.525.537.676.936.15.4.225.925.226 1.574l.014 19.79zM248.007 150.031l.005 7.196c-.275.076-.706.15-1.293.226-.587.076-1.168.113-1.742.114a7.81 7.81 0 01-1.519-.13c-.437-.087-.8-.243-1.087-.468-.287-.225-.506-.536-.656-.936-.15-.4-.226-.924-.226-1.574l-.014-17.653c0-.525.143-.931.43-1.219.287-.287.68-.519 1.18-.694.85-.3 1.837-.52 2.961-.659a29.787 29.787 0 013.598-.208c3.448-.003 6.047.72 7.798 2.168 1.75 1.448 2.626 3.408 2.628 5.882.001 1.55-.398 2.874-1.197 3.974s-1.748 1.95-2.846 2.55a87.187 87.187 0 002.663 3.447c.875 1.074 1.563 2.048 2.064 2.922-.25.875-.705 1.544-1.367 2.006a3.807 3.807 0 01-2.229.695c-.55 0-1.025-.061-1.424-.186-.4-.124-.75-.3-1.05-.524-.3-.225-.576-.5-.826-.824-.25-.324-.487-.674-.712-1.049l-3.153-5.057-1.986.001zm2.358-4.987c.949 0 1.698-.244 2.248-.732.549-.488.823-1.206.823-2.156-.001-.949-.308-1.668-.92-2.154-.613-.487-1.581-.73-2.905-.729-.375 0-.675.013-.9.038-.225.025-.475.063-.75.113l.005 5.622 2.399-.002zM270.875 157.21c-.275.075-.706.15-1.293.226-.587.076-1.168.113-1.742.114a7.806 7.806 0 01-1.518-.13 2.692 2.692 0 01-1.106-.468c-.3-.225-.525-.536-.676-.936-.15-.4-.225-.924-.226-1.574l-.015-19.79c.275-.05.713-.119 1.312-.207.6-.088 1.174-.132 1.724-.133.575 0 1.08.043 1.518.13.437.088.806.243 1.106.468.3.225.525.537.675.937.15.4.226.924.227 1.574l.014 19.79zM282.187 148.32c-1.1-.375-2.099-.755-2.999-1.142-.9-.386-1.675-.854-2.324-1.404a5.81 5.81 0 01-1.52-1.966c-.363-.762-.545-1.692-.546-2.792-.001-2.124.816-3.824 2.452-5.1 1.635-1.275 3.927-1.914 6.876-1.916 1.074 0 2.074.073 2.999.223.924.149 1.717.38 2.38.691.662.312 1.181.711 1.556 1.198s.563 1.056.564 1.705c0 .65-.15 1.206-.449 1.669-.3.463-.661.856-1.086 1.181-.55-.35-1.288-.655-2.212-.916-.925-.262-1.937-.392-3.036-.392-1.124.001-1.949.158-2.473.47-.525.314-.787.707-.787 1.182 0 .375.163.68.488.918.325.237.812.455 1.463.654l1.986.636c2.35.748 4.156 1.703 5.419 2.864 1.262 1.16 1.894 2.74 1.896 4.74.001 2.124-.835 3.842-2.507 5.155-1.674 1.313-4.135 1.97-7.383 1.973-1.15 0-2.218-.092-3.205-.279-.987-.186-1.85-.46-2.586-.823-.738-.36-1.313-.81-1.725-1.347a2.963 2.963 0 01-.62-1.855c0-.725.21-1.343.636-1.856.424-.512.886-.906 1.385-1.182.7.55 1.557 1.024 2.569 1.423s2.118.598 3.318.597c1.223-.001 2.085-.19 2.585-.564.5-.375.75-.812.749-1.313 0-.5-.201-.88-.6-1.142-.401-.262-.963-.518-1.688-.767l-1.575-.524zM294.85 139.877c-.175-.275-.338-.65-.488-1.125a4.944 4.944 0 01-.226-1.499c0-.974.217-1.673.654-2.1.437-.424 1.006-.637 1.705-.637l16.342-.013c.175.276.338.65.488 1.124.15.475.226.975.226 1.5 0 .974-.218 1.674-.655 2.099-.437.425-1.005.638-1.704.638l-4.16.003.012 17.316c-.275.076-.706.15-1.293.226-.587.076-1.168.113-1.743.114a7.813 7.813 0 01-1.518-.13 2.691 2.691 0 01-1.105-.468 2.021 2.021 0 01-.676-.936c-.15-.4-.225-.924-.226-1.574l-.01-14.543-5.623.005zM331.702 151.73c-.324.276-.743.495-1.255.657-.512.163-1.105.245-1.78.245-.9 0-1.643-.111-2.23-.335-.588-.225-.97-.612-1.144-1.162a545.998 545.998 0 00-1.728-5.34 47.315 47.315 0 01-1.052-3.578h-.188c-.074 1.475-.129 2.818-.165 4.03a172.346 172.346 0 00-.073 3.542 170.023 170.023 0 01-.238 7.383c-.325.126-.75.232-1.274.32a9.61 9.61 0 01-1.574.132c-1.1.001-1.956-.173-2.568-.523-.613-.349-.919-.986-.92-1.91l1.073-19.116c.2-.325.637-.676 1.311-1.05.674-.376 1.624-.564 2.848-.565 1.324-.001 2.362.204 3.111.616.75.412 1.3 1.08 1.651 2.004.226.6.47 1.287.733 2.06.263.776.526 1.575.789 2.4.262.824.519 1.642.77 2.454l.676 2.192h.187c.598-2.1 1.197-4.13 1.795-6.093.598-1.961 1.146-3.604 1.645-4.93.375-.2.856-.368 1.443-.506a8.67 8.67 0 011.968-.208c1.223-.001 2.223.18 2.998.541.775.362 1.225.88 1.35 1.555.1.5.208 1.268.321 2.304.113 1.037.233 2.206.359 3.505.125 1.3.251 2.673.378 4.122.126 1.45.245 2.843.359 4.179.113 1.337.208 2.561.284 3.673.075 1.112.126 1.968.152 2.567-.426.25-.869.432-1.33.545-.463.112-1.056.17-1.78.17-.95 0-1.75-.162-2.4-.486-.65-.324-1-.96-1.05-1.91a196.189 196.189 0 01-.287-7.347c-.04-2.173-.097-3.997-.173-5.472h-.187c-.25.975-.611 2.2-1.085 3.674a235.352 235.352 0 00-1.72 5.661zM350.88 135.262c.424-.25 1.068-.488 1.93-.713a10.27 10.27 0 012.604-.34c1.25 0 2.355.18 3.318.541.962.362 1.58.93 1.856 1.704.451 1.3.94 2.81 1.465 4.534a327.795 327.795 0 011.579 5.34c.526 1.836 1.039 3.648 1.54 5.433.501 1.787.94 3.367 1.316 4.741-.3.35-.75.632-1.349.844-.6.213-1.312.32-2.136.32-.6 0-1.106-.05-1.518-.148-.413-.1-.75-.25-1.013-.45a2.207 2.207 0 01-.637-.786 6.72 6.72 0 01-.432-1.124l-.677-2.586-6.784.005c-.2.75-.398 1.525-.598 2.324-.2.8-.399 1.575-.598 2.325-.35.125-.718.231-1.105.32a6.493 6.493 0 01-1.406.131c-1.274.001-2.217-.217-2.83-.653-.613-.437-.919-1.043-.92-1.817 0-.35.05-.7.15-1.05.1-.35.211-.762.336-1.237a54.28 54.28 0 01.729-2.512c.312-1 .655-2.08 1.028-3.243.374-1.162.773-2.355 1.197-3.58.424-1.224.823-2.38 1.197-3.468a151.638 151.638 0 011.758-4.855zm4.501 4.832c-.35 1.05-.742 2.218-1.178 3.505a58.968 58.968 0 00-1.177 3.918l4.647-.004a201.464 201.464 0 00-1.071-3.953 375.158 375.158 0 00-.996-3.466h-.225zM376.151 148.249c-1.1-.374-2.1-.754-3-1.14-.899-.387-1.674-.855-2.324-1.405a5.81 5.81 0 01-1.52-1.966c-.362-.762-.544-1.692-.545-2.792-.001-2.124.816-3.824 2.452-5.1 1.635-1.275 3.927-1.914 6.876-1.916 1.074-.001 2.073.073 2.998.223.925.149 1.718.38 2.381.691.662.312 1.18.711 1.556 1.198.375.487.563 1.056.564 1.705 0 .65-.15 1.206-.449 1.669-.3.463-.662.856-1.086 1.18-.55-.348-1.288-.654-2.212-.916-.925-.261-1.937-.392-3.036-.39-1.125 0-1.949.157-2.473.47-.525.313-.787.706-.787 1.18 0 .376.163.682.488.919.325.237.812.455 1.463.654l1.986.636c2.35.748 4.155 1.702 5.419 2.863 1.262 1.161 1.894 2.741 1.896 4.74.001 2.124-.835 3.842-2.508 5.156-1.673 1.313-4.134 1.97-7.382 1.973-1.15 0-2.218-.092-3.205-.279-.987-.187-1.85-.46-2.586-.823-.738-.36-1.313-.81-1.725-1.348a2.962 2.962 0 01-.62-1.854c0-.725.21-1.343.636-1.856.424-.512.886-.906 1.385-1.182.7.55 1.556 1.024 2.569 1.423 1.012.399 2.118.598 3.317.597 1.224-.001 2.086-.19 2.586-.564.5-.376.75-.812.749-1.313 0-.5-.201-.88-.601-1.142-.4-.262-.962-.518-1.687-.768l-1.575-.523z"/><g><path class="st0" d="M86.505 149.112c-.325.276-.744.494-1.255.657-.513.163-1.106.244-1.78.245-.9 0-1.644-.111-2.23-.336-.589-.224-.97-.61-1.145-1.16a545.578 545.578 0 00-1.728-5.34 47.317 47.317 0 01-1.052-3.58l-.188.001c-.074 1.475-.129 2.818-.165 4.03a172.131 172.131 0 00-.072 3.541 170.095 170.095 0 01-.239 7.384c-.325.126-.75.231-1.274.32a9.61 9.61 0 01-1.574.132c-1.1.001-1.955-.174-2.568-.523-.613-.35-.919-.986-.92-1.91l1.073-19.116c.2-.325.637-.676 1.311-1.05.675-.376 1.624-.564 2.848-.565 1.325-.001 2.362.204 3.112.616.75.412 1.3 1.08 1.65 2.004.226.6.47 1.287.733 2.06.263.775.526 1.574.789 2.399.263.824.52 1.643.77 2.454l.676 2.192h.188c.598-2.099 1.196-4.13 1.794-6.092.598-1.961 1.147-3.605 1.645-4.93.375-.2.856-.369 1.443-.507a8.67 8.67 0 011.968-.207c1.224-.001 2.223.18 2.999.54.774.363 1.224.88 1.35 1.555.1.5.207 1.269.32 2.305.114 1.037.233 2.206.359 3.504.126 1.3.252 2.674.378 4.123.126 1.45.246 2.842.359 4.179.114 1.337.208 2.561.284 3.673.076 1.112.126 1.967.152 2.567-.425.25-.868.432-1.33.544-.463.113-1.056.17-1.78.17-.95.001-1.75-.161-2.4-.485-.65-.324-1-.96-1.05-1.91a196.148 196.148 0 01-.287-7.347c-.04-2.174-.097-3.997-.173-5.472h-.187c-.25.975-.611 2.2-1.084 3.674a235.328 235.328 0 00-1.72 5.661z"/></g><g><path class="st0" d="M100.662 135.459c-.001-1.075.31-1.924.935-2.55.624-.625 1.473-.938 2.548-.939l12.368-.009c.175.275.332.637.47 1.087.137.45.207.924.207 1.424 0 .95-.205 1.624-.617 2.024-.412.4-.955.6-1.63.601l-7.908.006.002 3.486 8.433-.007c.175.276.332.632.47 1.068.137.438.207.906.207 1.406 0 .95-.199 1.624-.598 2.024-.4.4-.937.6-1.611.6l-6.897.006.003 3.935 9.633-.007c.174.275.33.637.469 1.087.137.45.207.925.207 1.424 0 .95-.205 1.63-.617 2.043-.412.413-.955.62-1.63.62l-10.944.008c-1.075 0-1.925-.31-2.55-.935-.625-.624-.938-1.473-.938-2.548l-.012-15.854z"/></g><g><path class="st0" d="M127.731 147.32l.006 7.196c-.276.075-.706.15-1.293.226-.588.075-1.168.113-1.743.114a7.81 7.81 0 01-1.518-.13c-.438-.087-.8-.243-1.087-.468-.288-.225-.507-.537-.657-.937-.15-.399-.226-.924-.226-1.574l-.013-17.653c0-.525.143-.93.43-1.218.287-.287.68-.52 1.18-.695.849-.3 1.836-.52 2.96-.658a29.787 29.787 0 013.599-.209c3.448-.002 6.047.721 7.797 2.168 1.75 1.449 2.626 3.41 2.628 5.883.001 1.55-.398 2.874-1.196 3.974-.8 1.1-1.748 1.95-2.847 2.55a87.19 87.19 0 002.664 3.447c.875 1.074 1.562 2.048 2.063 2.922-.249.875-.705 1.544-1.366 2.006a3.807 3.807 0 01-2.23.695c-.55 0-1.025-.062-1.424-.186-.4-.125-.75-.3-1.05-.524-.3-.225-.575-.5-.825-.824-.25-.324-.488-.675-.713-1.05l-3.152-5.057-1.987.002zm2.358-4.987c.95 0 1.699-.245 2.248-.732s.824-1.206.823-2.156c0-.95-.307-1.668-.92-2.155-.613-.486-1.581-.73-2.905-.728-.375 0-.675.013-.9.038a11.22 11.22 0 00-.749.113l.004 5.622 2.399-.002z"/></g><g><path class="st0" d="M150.557 147.303l.005 7.196c-.275.075-.706.15-1.293.226-.587.075-1.168.113-1.742.114a7.81 7.81 0 01-1.519-.13c-.437-.088-.8-.243-1.087-.468-.287-.225-.506-.537-.656-.937-.15-.399-.226-.924-.227-1.574l-.013-17.653c0-.525.143-.93.43-1.218.287-.288.68-.52 1.18-.695.85-.3 1.837-.52 2.961-.658a29.787 29.787 0 013.598-.209c3.448-.002 6.047.721 7.797 2.168 1.75 1.449 2.627 3.41 2.629 5.883 0 1.55-.398 2.874-1.197 3.974-.8 1.1-1.748 1.95-2.847 2.55a87.2 87.2 0 002.664 3.447c.875 1.074 1.563 2.048 2.064 2.922-.25.875-.705 1.543-1.367 2.006a3.807 3.807 0 01-2.23.695c-.55 0-1.024-.062-1.424-.187-.4-.124-.75-.299-1.05-.523-.3-.225-.575-.5-.825-.824-.25-.324-.488-.675-.713-1.05l-3.152-5.057-1.986.002zm2.358-4.987c.949 0 1.698-.245 2.248-.732.549-.488.823-1.206.823-2.156-.001-.95-.308-1.668-.92-2.155-.613-.486-1.581-.73-2.905-.728-.375 0-.675.013-.9.038-.225.025-.475.063-.75.113l.005 5.622 2.399-.002z"/></g><g><path class="st0" d="M177.81 154.479c-.275.075-.7.15-1.273.226-.576.075-1.138.113-1.687.113-1.15.001-2.012-.192-2.587-.579-.575-.387-.863-1.204-.864-2.454l-.003-5.06a165.606 165.606 0 01-2.027-3.072 113.586 113.586 0 01-2.139-3.447 76.374 76.374 0 01-1.951-3.465 31.852 31.852 0 01-1.464-3.129c.324-.45.767-.862 1.33-1.237.561-.376 1.254-.563 2.08-.564.974 0 1.767.199 2.38.598.612.4 1.194 1.149 1.744 2.247l3.116 6.257h.225c.349-.774.654-1.48.916-2.118s.518-1.275.767-1.912c.25-.638.511-1.3.786-1.987.274-.688.586-1.481.935-2.381.45-.225.95-.4 1.499-.526a7.117 7.117 0 011.574-.188c.874-.001 1.618.23 2.23.691.613.463.92 1.155.92 2.08 0 .3-.062.662-.186 1.087-.125.425-.412 1.068-.861 1.93a87.845 87.845 0 01-1.965 3.507 264.77 264.77 0 01-3.5 5.774l.006 7.609z"/></g><g><path class="st0" d="M206.47 136.467c-1.925.001-3.399.59-4.422 1.765-1.024 1.175-1.535 2.837-1.533 4.986.001 2.174.57 3.847 1.709 5.02 1.138 1.175 2.668 1.76 4.593 1.759 1.024 0 1.892-.138 2.604-.414a17.894 17.894 0 002.042-.939c.425.35.757.768.995 1.255.237.487.356 1.056.357 1.705 0 1.025-.567 1.893-1.704 2.606-1.136.713-2.866 1.07-5.19 1.072-1.674.002-3.249-.235-4.723-.708-1.475-.474-2.762-1.204-3.862-2.19s-1.97-2.234-2.608-3.746c-.638-1.511-.958-3.316-.96-5.415 0-1.95.303-3.667.915-5.155.61-1.486 1.447-2.742 2.508-3.768a10.569 10.569 0 013.728-2.327c1.424-.526 2.947-.79 4.572-.79 2.298-.002 4.079.371 5.342 1.12 1.262.749 1.894 1.71 1.895 2.885 0 .65-.162 1.212-.486 1.687-.325.475-.7.85-1.124 1.125a12.231 12.231 0 00-2.081-1.086c-.737-.299-1.593-.448-2.568-.447z"/></g><g><path class="st0" d="M236.617 154.435c-.275.075-.706.15-1.293.226-.587.075-1.168.113-1.743.113a7.813 7.813 0 01-1.518-.13 2.691 2.691 0 01-1.106-.467 2.021 2.021 0 01-.675-.937c-.15-.399-.226-.924-.226-1.574l-.004-5.847-7.197.006.007 8.62c-.276.075-.707.15-1.293.226-.588.075-1.169.113-1.743.114a7.807 7.807 0 01-1.518-.13c-.438-.087-.806-.243-1.106-.468s-.525-.537-.675-.936c-.15-.4-.226-.925-.227-1.575l-.014-19.79c.274-.05.712-.118 1.311-.206.6-.088 1.175-.132 1.725-.133.574 0 1.08.043 1.517.13.437.088.806.243 1.106.468s.526.537.676.936c.15.4.225.925.226 1.574l.004 5.997 7.197-.005-.007-8.77c.275-.05.712-.12 1.312-.208a11.97 11.97 0 011.724-.132c.574 0 1.08.043 1.518.13.437.088.806.243 1.106.468.3.224.525.537.675.936.15.4.226.925.226 1.574l.015 19.79z"/></g><g><path class="st0" d="M248.005 147.23l.006 7.196c-.275.075-.706.15-1.293.226-.587.076-1.168.113-1.743.114a7.81 7.81 0 01-1.518-.13c-.437-.087-.8-.243-1.087-.468-.288-.225-.506-.536-.657-.936-.15-.4-.225-.924-.226-1.574l-.013-17.654c0-.525.143-.93.43-1.218.287-.287.68-.519 1.18-.694.85-.3 1.836-.52 2.96-.659a29.787 29.787 0 013.599-.208c3.448-.003 6.047.72 7.797 2.168 1.75 1.448 2.627 3.408 2.628 5.882.002 1.55-.397 2.874-1.196 3.974-.8 1.1-1.748 1.95-2.847 2.55a87.187 87.187 0 002.664 3.447c.875 1.074 1.563 2.048 2.064 2.922-.25.875-.706 1.544-1.367 2.006a3.807 3.807 0 01-2.23.695c-.55 0-1.024-.061-1.424-.186-.4-.125-.75-.3-1.05-.524-.3-.225-.575-.5-.825-.824-.25-.324-.488-.674-.713-1.049l-3.152-5.057-1.987.001zm2.358-4.987c.95 0 1.699-.244 2.248-.732.55-.488.824-1.206.823-2.156 0-.95-.307-1.668-.92-2.154-.612-.487-1.58-.73-2.905-.73-.375.001-.675.014-.9.04-.224.024-.474.062-.749.112l.004 5.622 2.4-.002z"/></g><g><path class="st0" d="M270.874 154.41c-.275.074-.706.15-1.293.225-.588.076-1.168.113-1.743.114a7.806 7.806 0 01-1.518-.13 2.693 2.693 0 01-1.106-.468c-.3-.225-.525-.536-.675-.936-.15-.4-.226-.924-.226-1.574l-.015-19.79c.275-.05.712-.119 1.312-.207.6-.088 1.174-.132 1.724-.133.574 0 1.08.043 1.518.13.437.088.806.243 1.106.468s.525.537.675.936c.15.4.226.925.226 1.575l.015 19.79z"/></g><g><path class="st0" d="M282.186 145.518c-1.1-.374-2.1-.754-3-1.14-.899-.387-1.674-.855-2.324-1.405a5.81 5.81 0 01-1.52-1.966c-.363-.762-.544-1.692-.545-2.792-.002-2.124.815-3.824 2.451-5.1 1.635-1.275 3.928-1.914 6.876-1.916 1.074-.001 2.074.073 3 .223.923.149 1.717.38 2.38.691.662.312 1.18.711 1.556 1.198.375.487.563 1.056.563 1.705 0 .65-.149 1.206-.448 1.669-.3.463-.662.856-1.086 1.181-.55-.35-1.288-.655-2.212-.917-.925-.261-1.937-.392-3.037-.39-1.124 0-1.948.157-2.473.47-.524.313-.786.706-.786 1.18 0 .376.163.682.488.919.324.237.812.455 1.462.654l1.987.636c2.349.748 4.155 1.702 5.418 2.863 1.262 1.161 1.895 2.741 1.896 4.74.002 2.124-.834 3.842-2.507 5.156-1.673 1.313-4.134 1.97-7.382 1.973-1.15 0-2.218-.092-3.205-.279-.987-.186-1.85-.46-2.587-.823-.737-.36-1.312-.81-1.725-1.348a2.963 2.963 0 01-.62-1.854c0-.725.211-1.343.636-1.856.424-.512.886-.906 1.386-1.182.7.55 1.556 1.024 2.568 1.423 1.013.399 2.119.598 3.318.597 1.224-.001 2.086-.19 2.586-.564.499-.376.749-.812.749-1.313 0-.5-.201-.88-.601-1.142-.4-.262-.963-.518-1.687-.767l-1.575-.524z"/></g><g><path class="st0" d="M294.849 137.075c-.176-.274-.338-.649-.488-1.124a4.945 4.945 0 01-.226-1.499c-.001-.974.217-1.674.654-2.1.437-.424 1.005-.637 1.705-.637l16.341-.013c.175.276.338.65.489 1.124.15.475.225.975.226 1.5 0 .974-.218 1.674-.655 2.099-.437.425-1.006.638-1.705.638l-4.16.003.013 17.316c-.275.075-.706.15-1.293.226-.588.076-1.168.113-1.743.114a7.813 7.813 0 01-1.518-.13 2.691 2.691 0 01-1.106-.468 2.021 2.021 0 01-.675-.936c-.15-.4-.226-.924-.226-1.574l-.011-14.543-5.622.004z"/></g><g><path class="st0" d="M331.701 148.93c-.325.275-.743.494-1.255.656-.512.163-1.106.245-1.78.245-.9 0-1.644-.111-2.23-.336-.588-.224-.97-.61-1.145-1.16a545.998 545.998 0 00-1.728-5.34 47.314 47.314 0 01-1.052-3.579h-.187a203.174 203.174 0 00-.166 4.03 171.92 171.92 0 00-.072 3.542 170.452 170.452 0 01-.238 7.383c-.325.126-.75.232-1.274.32a9.61 9.61 0 01-1.575.132c-1.1.001-1.955-.174-2.567-.523-.613-.349-.92-.986-.92-1.91l1.073-19.116c.199-.325.636-.676 1.31-1.05.675-.376 1.624-.564 2.849-.565 1.324-.001 2.361.204 3.111.616.75.412 1.3 1.08 1.65 2.004.226.6.47 1.287.733 2.06.263.775.526 1.575.79 2.399s.519 1.643.77 2.454l.676 2.193h.187c.598-2.1 1.196-4.13 1.794-6.093.599-1.961 1.147-3.604 1.646-4.93.375-.2.855-.368 1.443-.507a8.67 8.67 0 011.967-.207c1.224-.001 2.224.18 2.999.541.775.362 1.225.88 1.35 1.554.1.5.208 1.269.32 2.305.114 1.037.233 2.206.36 3.505.125 1.299.251 2.673.377 4.122.126 1.45.246 2.842.36 4.179.113 1.337.207 2.561.283 3.673.076 1.112.126 1.967.152 2.567-.425.25-.868.432-1.33.545-.462.112-1.056.17-1.78.17-.95 0-1.75-.162-2.4-.486-.65-.324-1-.96-1.05-1.91a196.06 196.06 0 01-.287-7.347c-.039-2.173-.096-3.997-.173-5.472h-.187c-.25.975-.61 2.2-1.084 3.674a235.426 235.426 0 00-1.72 5.661z"/></g><g><path class="st0" d="M350.878 132.461c.425-.25 1.068-.488 1.93-.713a10.27 10.27 0 012.605-.34c1.249 0 2.355.18 3.317.541.962.362 1.58.93 1.857 1.704.45 1.3.94 2.81 1.465 4.534a327.496 327.496 0 011.578 5.34 1056.4 1056.4 0 011.54 5.433c.502 1.787.94 3.367 1.316 4.741-.3.35-.749.632-1.348.844-.6.213-1.312.32-2.137.32-.6 0-1.105-.05-1.518-.148-.412-.1-.75-.25-1.012-.45a2.207 2.207 0 01-.638-.786 6.72 6.72 0 01-.432-1.124l-.676-2.586-6.784.005c-.2.75-.399 1.525-.598 2.324-.2.8-.4 1.575-.598 2.325-.35.125-.718.231-1.105.319a6.493 6.493 0 01-1.406.132c-1.274.001-2.218-.217-2.83-.653-.613-.437-.92-1.043-.92-1.818 0-.35.05-.699.15-1.05.099-.349.21-.761.336-1.236a54.28 54.28 0 01.729-2.512c.311-1 .654-2.08 1.028-3.243a170.82 170.82 0 011.197-3.58l1.197-3.468a151.845 151.845 0 011.757-4.855zm4.502 4.832c-.35 1.05-.742 2.218-1.178 3.505a58.986 58.986 0 00-1.178 3.918l4.647-.004a201.254 201.254 0 00-1.07-3.953 375.226 375.226 0 00-.996-3.467h-.225z"/></g><g><path class="st0" d="M376.15 145.448c-1.1-.374-2.1-.754-3-1.14-.9-.388-1.674-.855-2.324-1.405a5.81 5.81 0 01-1.52-1.966c-.363-.762-.544-1.692-.545-2.792-.002-2.124.815-3.824 2.451-5.1 1.635-1.275 3.928-1.914 6.876-1.916 1.074-.001 2.074.073 2.999.223.924.149 1.718.38 2.38.691.662.312 1.182.711 1.557 1.198s.563 1.056.563 1.705c0 .65-.149 1.206-.448 1.669-.3.462-.662.856-1.086 1.18-.55-.348-1.288-.654-2.212-.916-.925-.261-1.937-.392-3.037-.39-1.124 0-1.948.157-2.473.47-.525.313-.787.706-.786 1.18 0 .375.163.682.488.919.324.237.812.455 1.462.654l1.987.636c2.349.748 4.155 1.702 5.418 2.863 1.262 1.161 1.895 2.741 1.896 4.74.002 2.124-.834 3.842-2.507 5.156-1.674 1.313-4.134 1.97-7.382 1.973a17.17 17.17 0 01-3.205-.279c-.988-.187-1.85-.46-2.587-.823-.738-.36-1.312-.81-1.725-1.348a2.963 2.963 0 01-.62-1.854c0-.725.211-1.343.636-1.856.424-.512.886-.906 1.386-1.182.7.55 1.556 1.024 2.568 1.422 1.013.4 2.118.599 3.318.598 1.224-.001 2.086-.19 2.586-.564.499-.376.749-.812.748-1.313 0-.5-.2-.88-.6-1.142-.4-.262-.963-.518-1.688-.768l-1.574-.523z"/></g><g><path class="st1" d="M58.053 29.802c.021-1.017-.282-4.494.488-5.168.366-.321 2.443-.176 2.927-.195.778-.032 1.556-.028 2.334-.027 1.76.005 3.517.035 5.276.008 3.314-.051 7.868-.824 11.046.3 3.415 1.208 2.277 6.19 2.32 8.985.07 4.509.092 6.489.108 9.737.019 3.87.104 7.737.174 11.608.066 3.652-.257 7.273-.073 10.927.106 2.107.137 3.952.096 5.672-.033 1.374.27 3.193-.54 4.337-1.797 2.536-5.962 3.438-6.987 6.573 1.163 1.313 2.514.894 4.161.916 1.493.02 2.988.113 4.48.172 1.156.046 3.254-.243 4.226.45 1.309.935.892 3.793.962 5.173.075 1.457.74 4.111-.143 5.37-.909 1.296-3.205 1.117-4.582 1.174-3.01.127-5.997-.42-9.011-.47-3.127-.05-6.537.017-11.611.227-1.5.062-4.579.605-5.856-.306-.831-.592-.62-3.676-.567-4.896.32-7.32-.77-14.74-.464-22.085.312-7.49.313-15 .662-22.488.248-5.33.454-10.66.566-15.994h.008zM106.068 50.285c-.213.426.001 1.278.002 1.705 0 1.172.108 2.237.108 3.41 0 .638-.375 1.788-.104 2.45.69 1.685 3.944 1.317 5.221 1.274 2.22-.073 4.212-.11 6.073-.111.64 0 2.872-.314 3.41.104.42.327.227 2.237.215 2.77-.194 8.63.077 17.155.34 25.784.064 2.133-.188 4.157-.315 6.287-.083 1.386-.207 1.21-1.597 1.385-1.168.147-2.345.174-3.41.216-4.476.176-8.842.04-13.212.116-2.024.036-4.377.468-6.287.005-2.034-.493-1.754-2.66-1.814-4.367-.543-15.14-.095-65.009.59-65.632 1.171-1.066 3.41-.707 4.794-.749 2.238-.068 4.581-.288 6.818-.325 4.476-.074 8.95-.326 13.425-.33 4.368-.003 3.955 5.431 3.841 8.521-.073 1.976-1.133 2.63-4.153 2.56-2.346-.053-4.688.004-6.925.006-1.279 0-2.447.055-3.729.109-1.278.054-2.348-.32-2.77.854-.646 1.8-.478 4.846.324 5.86.662.836 1.6.59 2.771.637 1.882.078 2.951.104 4.049.104l7.564-.006c.36 1.196.458 2.134.322 3.089-.061.434-.283 2.684-.424 2.877-.714.982-4.689.183-5.647.217-.731.026-8.403.426-8.842.646-.852.426-.32-.107-.639.533l.001.001zM128.699 25.488c.457-.277 9.103-.468 10.1-.476 4.96-.042 9.922.002 14.882.036 2.57.017 5.04.037 7.43.06.8.008 1.603.01 2.404.026 1.306.026 2.057-.124 2.272 1.424.262 1.9.15 3.903.254 5.82.035.633.227 1.38.096 1.998-.245 1.144.122.519-.815.834-.643.216-1.77.145-2.443.164-2.186.064-4.372-.098-6.556-.148-1.256-.03-3.593.185-2.55 1.977.548.941 2.07 2.387 4.061 3.858.448.33 1.067.515 1.276.961.08.172.328 11.613.34 12.445.172 10.532-.195 21.074-.247 31.608-.012 2.492.06 4.984.04 7.475-.014 1.655-.255 1.986-1.539 2.12-1.41.147-2.861.142-4.277.219-5.468.296-10.95.6-16.421.203-.78-4.686-.53-9.618-.725-14.356-.177-4.289-.253-8.973-.241-14.805.014-7.104.072-14.207.144-21.31.018-1.868-.567-4.565.921-5.855.997-.864 3.951-2.214 4.395-3.46.748-2.108-4.018-1.096-5.052-1.015-2.272.176-4.57.455-6.846.507-1.298.03-1.482.209-1.777-.911-.183-.695-.077-1.596-.071-2.307a52.88 52.88 0 01.312-5.163c.085-.795-.002-1.55.63-1.932l.003.003zM170.943 36.173c-1.013-.644 3.116-17.056 4.516-17.946 1.19-.757 10.804-.732 12.625.033.528.222-7.246 16.074-8.087 16.626-2.568 1.689-6.072 1.39-9.055 1.286h.001zM194.149 58.235v.003c2.664.159 5.382.007 8.05.005 2.225-.001 7.551.653 9.673-.229 2.872-1.193 2.61-6.198-.369-7.076-2.146-.632-7.025-.101-9.267-.268-4.44-.33-8.03-1.009-8.378-6.385-.242-3.74-.254-7.024-.037-9.931.394-5.299 3.309-8.933 7.686-9.585 3.2-.477 8.467-.006 11.687-.148 2.731-.12 6.007-1.014 8.705-.173 2.437.759 2 5.352 2.013 7.38.012 1.807.3 4.62-1.465 5.619-1.121.634-2.964.84-5.52.616-2.867-.252-2.537-2.522-2.342-5.008-2.845-.043-9.521-.684-11.162 2.203-1.093 1.923-.186 4.783-.176 6.906 4.85-.566 10.413-.532 13.18.082 3.584.795 6.066 3.58 7.114 7.985 1.7 7.139 1.162 14.857 1.1 22.132-.034 4.01.008 8.013-.092 12.023-.091 3.663-1.16 6.771-2.908 8.452-4.036 3.882-13.735 5-19.054 2.197-7.757-4.088-8.11-9.071-8.348-17.025-.197-6.593.01-13.18-.09-19.771v-.004zM254.736 37.079c.827-5.524 2.629-9.1 5.702-11.314 2.728-1.966 6.417-1.812 9.826-1.814 11.294-.009 13.218 8.194 13.245 11.19.002.298-.023 3.716-.13 3.822 0 .107-7.71.245-8.523-.206-.004-5.008-3.606-6.212-5.393-5.861-4.983.977-4.633 5.473-4.825 9.588-.2 4.27-.465 8.643.957 12.726.73 2.097 1.766 2.911 3.943 3.1 1.715.147 3.19-.441 4.018-1.604 1.618-2.267.99-3.139 1.095-5.802 0-.852-.215-1.279.424-1.705.64-.427 2.77-.215 3.623-.216 1.065-.107 2.13-.002 3.196-.002 1.172-.001 1.834-.216 1.919 1.17.455 7.457 1.102 13.105.762 20.563-.394 8.631-.83 19.831-9.145 24.938-6.275 3.854-15.546.753-18.863-6.485-1.271-2.774-1.84-6.287-2.033-11.825-.134-3.839-.431-7.778-.329-11.613.105-3.942.091-9.287.034-14.439-.051-4.652-.196-9.603.495-14.211h.002zM303.89 86.29c-.105 2.508.119 5.257-.265 7.731-.212 1.371-.752 1.362-2.054 1.504-1.329.145-2.803.205-4.73.195-1.14-.006-2.332.151-3.466.082-1.674-.105-1.652-.564-1.714-2.053-.103-2.483.019-5.006.01-7.491-.017-5.49.457-11.013.623-16.504.163-5.392.264-10.786.45-16.177.178-5.184.479-10.472.199-15.651-.184-3.402-.208-5.116-.095-6.832.119-1.826-.3-4.766 1.597-5.684 1.898-.918 4.855-.54 6.909-.63.92-.04 3.016-.42 3.479.124.523.617.204 2.934.206 3.63.006 2.013.052 4.203.159 7.472.04 1.186.084 2.46.136 3.89.041 1.148-.314 3.233.224 4.307.694 1.385 5.433.41 7.007.332 1.326-.065 2.996.133 4.259-.209.74-.2.562.167.994-.464.29-.424.241-1.718.282-2.166.238-2.6.318-5.212.433-7.82.102-2.303-.216-5.643.787-7.754.9-1.891 2.876-1.863 4.683-2.077 3.24-.384 5.686-.097 6.447.756 1.104 1.236.61 4.486.599 6-.022 2.93-.253 5.851-.427 8.774-.323 5.446.623 10.836.243 16.304a585.624 585.624 0 00-1.253 26.98c-.064 2.802.46 5.594.416 8.387-.023 1.396-.31 2.552-.884 3.558-.515.902-.475.596-1.288.789-.622.147-1.415.184-2.052.256-3.07.346-6.158.14-8.529-.571-.653-2.537-.476-5.45-.487-8.045-.01-1.852.02-3.528.09-5.096.03-.683.642-3.248.319-3.803-.803-1.378-5.907-.738-7.01-.682-1.982.1-4.284-.298-5.419 1.648-1.106 1.895-.787 4.881-.875 6.988l-.003.002zM341.275 96.458c-.531-.038-1.93.238-2.344.002-.694-.396-1.045-2.845-.857-5.966.294-4.854.42-8.337.418-11.507-.006-7.884-.678-16.197.408-24.08.398-2.88.702-5.798 2.978-7.779 1.945-1.694 5.37-2.466 10.44-2.352 1.278.03 2.994 1.092 4.155.636.89-.349 1.28-1.594 1.17-3.73-.232-4.44-1.916-7.4-4.482-7.88-1.457-.273-4.236-.271-6.286.004-1.493.2-2.66.425-4.155-.53-.997-.636-1.475-1.622-1.6-3.3-.113-1.491-.367-4.283.313-5.648.703-1.408 2.664-1.155 4.047-1.282 2.133-.195 5.218-.355 7.352-.538 5.065-.435 8.92.277 10.337 1.91.742.854 1.656 1.622 2.239 2.66.912 1.625 1.494 3.835 2.028 5.539.997 3.161 1.682 7.149 2.033 11.825.68 9.053.175 18.112.127 27.062-.046 8.523.12 16.834-.62 25.358-7.885-.1-16.833.085-24.719-.195-.957-.034-2.02-.143-2.982-.212v.003zm5.405-39.212c.04.745.002 2.77.642 3.409.533.532 1.808.19 2.45.105 1.72-.226 4.378-.228 6.286-.005.531-2.025 1.934-6.53-.326-8.097-1.65-1.144-6.892-.589-8.096.858-.723.869-1.043 2.115-.956 3.73zM375.379 25.304c.457-.277 9.103-.468 10.1-.476 4.96-.042 9.922.002 14.882.036 2.57.017 5.04.037 7.43.06.8.008 1.603.01 2.404.026 1.306.026 2.057-.124 2.272 1.424.262 1.9.15 3.903.254 5.82.035.633.227 1.38.096 1.998-.245 1.144.122.519-.815.834-.643.216-1.77.145-2.443.164-2.186.064-4.372-.098-6.556-.148-1.256-.03-3.593.185-2.55 1.977.548.942 2.07 2.387 4.061 3.858.448.33 1.067.515 1.276.961.08.172.328 11.613.34 12.445.172 10.532-.195 21.074-.247 31.608-.012 2.492.06 4.984.04 7.475-.014 1.655-.255 1.986-1.539 2.12-1.41.147-2.861.142-4.277.219-5.468.296-10.95.6-16.421.203-.78-4.686-.53-9.618-.725-14.356-.177-4.289-.253-8.973-.241-14.805.013-7.104.072-14.207.144-21.31.018-1.868-.567-4.565.921-5.855.997-.864 3.951-2.214 4.395-3.46.748-2.108-4.018-1.096-5.052-1.015-2.272.176-4.57.455-6.846.507-1.298.03-1.482.209-1.777-.911-.183-.695-.077-1.596-.071-2.307.014-1.638.119-3.357.312-5.163.085-.795-.002-1.55.63-1.932l.003.003z"/><path class="st1" d="M159.234 82.839c.002-.213 0-.426 0-.639l-.007.988c.004-.11.006-.225.007-.35zM405.914 82.655c.002-.213 0-.426 0-.638l-.007.987c.004-.11.006-.225.007-.35z"/><g><path class="st2" d="M75.307 84.633c-3.127-.05-6.537.016-11.611.227-1.5.062-4.579.605-5.856-.306-.831-.593-.62-3.676-.567-4.896.2-4.573-.15-9.184-.367-13.792a303.49 303.49 0 01-.09 2.418c-.305 7.345.784 14.765.465 22.085-.054 1.22-.264 4.304.567 4.896 1.277.911 4.356.368 5.856.306 5.074-.21 8.484-.277 11.61-.227 3.015.05 6.002.597 9.012.47 1.377-.057 3.673.122 4.582-1.174.884-1.259.218-3.913.143-5.37-.063-1.251.269-3.713-.643-4.859-1.082.762-2.917.643-4.09.692-3.01.126-5.997-.421-9.011-.47z"/></g><g><path class="st2" d="M119.413 84.632c-1.168.147-2.345.174-3.41.216-4.476.176-8.842.04-13.212.116-2.024.035-4.377.468-6.287.004-2.034-.492-1.754-2.66-1.814-4.366-.128-3.545-.2-8.994-.228-15.268-.027 10.55.04 20.521.236 25.979.06 1.707-.22 3.874 1.814 4.367 1.91.463 4.263.03 6.287-.005 4.37-.075 8.736.06 13.213-.116 1.064-.042 2.241-.069 3.409-.216 1.39-.175 1.514.001 1.597-1.385.127-2.13.38-4.154.315-6.287-.064-2.11-.13-4.212-.187-6.311-.049.623-.098 1.25-.136 1.887-.083 1.386-.207 1.21-1.597 1.385z"/></g><g><path class="st2" d="M157.696 84.96c-1.41.146-2.861.14-4.277.217-5.468.297-10.95.6-16.421.204-.78-4.687-.53-9.618-.725-14.356a284.352 284.352 0 01-.213-8.382c-.006 1.43-.017 2.859-.02 4.288-.012 5.832.064 10.516.241 14.805.195 4.738-.055 9.67.725 14.356 5.47.396 10.953.093 16.421-.203 1.416-.077 2.867-.072 4.277-.219 1.284-.134 1.525-.465 1.538-2.12.02-2.491-.051-4.983-.04-7.475.006-.962.015-1.925.025-2.887-.049 1.352-.343 1.647-1.53 1.771z"/></g><g><path class="st2" d="M224.541 73.674c-.091 3.663-1.16 6.772-2.908 8.452-4.036 3.883-13.735 5.001-19.054 2.198-7.757-4.088-8.11-9.072-8.348-17.025-.026-.885-.045-1.77-.058-2.654-.017 4.454-.067 8.908.066 13.365.238 7.954.591 12.937 8.348 17.025 5.32 2.803 15.018 1.685 19.054-2.197 1.747-1.68 2.817-4.79 2.908-8.452.1-4.01.058-8.014.092-12.023.037-4.395.245-8.95.032-13.443-.017.916-.032 1.827-.04 2.732-.034 4.009.008 8.013-.092 12.022z"/></g><g><path class="st2" d="M275.422 84.94c-6.275 3.855-15.546.754-18.863-6.485-1.271-2.773-1.84-6.286-2.033-11.825-.066-1.892-.172-3.81-.25-5.727-.01 1.745-.033 3.38-.071 4.826-.102 3.835.195 7.774.329 11.613.192 5.538.762 9.051 2.033 11.825 3.317 7.238 12.588 10.339 18.863 6.485 8.315-5.107 8.75-16.307 9.145-24.938.16-3.51.1-6.618-.054-9.704-.394 8.478-1.104 19.02-9.1 23.93z"/></g><g><path class="st2" d="M316.87 71.426c.03-.684.642-3.249.319-3.803-.803-1.378-5.907-.739-7.01-.682-1.982.1-4.284-.299-5.419 1.648-1.106 1.895-.787 4.881-.875 6.987l-.003.003c-.105 2.508.119 5.257-.265 7.73-.212 1.372-.752 1.363-2.054 1.505-1.329.144-2.803.205-4.73.195-1.14-.007-2.331.15-3.466.081-1.334-.083-1.59-.393-1.671-1.268-.016.812-.027 1.624-.025 2.436.009 2.485-.113 5.008-.01 7.49.062 1.49.04 1.95 1.714 2.054 1.134.069 2.327-.088 3.465-.082 1.928.01 3.402-.05 4.731-.195 1.302-.142 1.842-.133 2.054-1.504.384-2.474.16-5.223.265-7.731l.003-.002c.088-2.107-.23-5.093.875-6.988 1.135-1.946 3.437-1.548 5.419-1.648.98-.05 5.11-.559 6.586.292.005-.481.009-.958.007-1.422-.01-1.852.02-3.528.09-5.096z"/></g><g><path class="st2" d="M327.848 84.881c-.622.148-1.415.185-2.052.257-3.07.346-6.158.14-8.529-.572a15.09 15.09 0 01-.39-2.42c-.069 1.565-.098 3.238-.09 5.087.012 2.594-.165 5.508.488 8.045 2.371.71 5.46.917 8.53.57.636-.071 1.43-.108 2.051-.255.813-.193.773.113 1.288-.789.574-1.006.861-2.162.884-3.558.043-2.736-.455-5.47-.416-8.215a6.237 6.237 0 01-.476 1.062c-.515.902-.475.596-1.288.788z"/></g><g><path class="st2" d="M368.968 86.15c-7.885-.1-16.833.085-24.719-.194-.957-.035-2.02-.143-2.982-.212v.003c-.531-.038-1.93.238-2.344.002-.222-.127-.409-.467-.554-.97a278.484 278.484 0 01-.295 5.715c-.188 3.121.163 5.57.857 5.966.414.236 1.813-.04 2.344-.002v-.003c.962.069 2.025.178 2.982.212 7.886.28 16.834.094 24.719.195.74-8.524.574-16.835.62-25.358.038-7.046.357-14.159.16-21.284-.06 3.536-.15 7.063-.168 10.572-.046 8.524.12 16.834-.62 25.359z"/></g><g><path class="st2" d="M404.376 84.775c-1.41.147-2.861.142-4.277.218-5.468.297-10.95.6-16.421.204-.78-4.687-.53-9.618-.725-14.356a284.282 284.282 0 01-.213-8.382c-.006 1.43-.017 2.859-.02 4.288-.012 5.832.064 10.516.24 14.805.196 4.738-.054 9.67.726 14.356 5.47.396 10.953.093 16.421-.203 1.416-.077 2.867-.072 4.277-.219 1.284-.134 1.525-.465 1.538-2.12.02-2.491-.051-4.983-.04-7.475.006-.962.015-1.925.025-2.887-.05 1.352-.344 1.647-1.53 1.771z"/></g></g><g><path class="st1" d="M59.366 5.77S26.248-8.326 18.968 22.352s1.98 44.791 1.98 44.791l3.404-5.845s1.177-33.254 15.92-23.698c0 0 19.582-30.371 19.094-31.832z"/><path class="st2" d="M22.08 61.788c.001 1.193.02 2.297.054 3.32l2.218-3.809s1.166-32.868 15.671-23.85l1.021-8.62s-18.99-3.394-18.964 32.959z"/><path class="st3" d="M51.164 51.593l27.252-34.71a6.484 6.484 0 00-1.096-9.105l-8.144-6.394a6.484 6.484 0 00-9.104 1.096L32.82 37.192a6.484 6.484 0 001.096 9.104l8.144 6.394a6.484 6.484 0 009.104-1.097z"/><path d="M33.086 45.644l9.804 7.698a5.428 5.428 0 007.622-.918l28.556-36.372a5.428 5.428 0 00-.918-7.622l-8.358-6.562C78.52 21.857 54.016 47.627 40.72 46.014c-5.506-.668-7.4-5.057-8.016-8.674l-.536.682a5.428 5.428 0 00.918 7.622z" fill="#e5e1ba"/><path class="st5" d="M43.525 47.02c.5 1.801 1.731 3.266 3.337 4.191.39.225.832-.09 1.014-.415.922-1.643.976-3.736.166-5.433l-1.345.746c.596 1.006 1.404 2.12 2.684 2.197 1.158.07 2.259-.663 2.257-1.899 0-.561-.199-1.118-.37-1.647a16.654 16.654 0 00-.637-1.654 18.18 18.18 0 00-1.794-3.127c-.58-.814-1.825.11-1.247.92a16.319 16.319 0 012.338 4.756c.148.49.37 1.097-.336 1.116-.801.02-1.305-1.004-1.648-1.583-.445-.753-1.72-.044-1.344.745.66 1.38.593 2.932-.154 4.264l1.015-.416c-1.25-.72-2.113-1.958-2.495-3.331-.112-.404-.645-.578-1.005-.436-.424.167-.548.601-.436 1.006zM59.58 25.24l1.303 1.87c.21.302.424.603.633.907.045.067.132.253.16.266.03.015.016.04.052-.046.031-.075.048-.015-.03-.005-.12.016-.233.03-.352.022-.323-.02-.65-.109-.962-.188a10.952 10.952 0 01-1.995-.74c-.783-.37-1.496.82-.778 1.325.26.184.539.368.762.598.094.097.195.218.257.338.016.03.031.075.043.108.036.098.012.03.02.093.017.122.019.13-.022.268.027-.09-.03.057-.043.081-.065.11.06-.066-.024.026-.037.043-.034.042.01-.005l-.064.046c.027-.007.039-.03.071-.032a.809.809 0 01-.305-.058c-1.403-.499-2.683-1.357-3.777-2.355-.31-.282-.843-.181-1.088.13-.275.351-.18.806.13 1.089a13.595 13.595 0 003.926 2.482c.439.179.903.329 1.38.233.935-.186 1.431-1.151 1.35-2.048-.089-.991-.913-1.68-1.67-2.213l-.777 1.325c.857.406 1.756.708 2.681.915.834.186 1.873.261 2.476-.478.66-.809.082-1.716-.408-2.418-.57-.819-1.142-1.638-1.713-2.456-.572-.82-1.817.104-1.247.92zM68.294 8.67c.518-.041 1.061.016 1.531.252.205.102.394.237.524.427.062.09.114.18.144.286-.044-.155.006.18.006.085 0 .203-.167.503-.313.619-.025.02-.23.157-.1.086-.029.016-.293.111-.139.065a.966.966 0 01-.135.014c.086-.001.085-.006-.004-.015.084.024.083.02-.003-.013.073.047.07.042-.01-.014-.701-.524-1.608.348-1.102 1.07.363.517.858.878 1.374 1.228.362.245.73.478.97.834.154.229.264.494.122.69-.25.344-.865.462-1.247.578-1.95.593-4.032.638-6.018.214-.409-.087-.82.27-.873.662-.06.44.251.786.662.874 2.426.517 5.064.372 7.393-.507.659-.248 1.288-.648 1.566-1.326.205-.503.156-1.096-.063-1.585-.24-.536-.633-.984-1.1-1.336-.527-.398-1.151-.694-1.539-1.247l-1.102 1.07c1.324.988 3.045-.267 3.193-1.735.212-2.093-2.241-2.948-3.922-2.815-.996.08-.808 1.618.185 1.539z"/><path class="st5" d="M61.32 13.558c.135-.04-.135.015.004.002.053-.005.12-.004.17-.018.075-.02-.068.012-.076-.003.002.005.065.004.072.004.056.007.111.012.167.023.023.004.046.012.07.015.098.014-.145-.056-.055-.014.043.021.091.033.135.052.045.019.088.04.132.062.162.08-.118-.09.032.022.08.06.158.12.234.186.138.12-.072-.091.016.013.039.046.078.09.115.138.064.081.114.17.174.254.06.084-.062-.135-.022-.04.01.024.024.047.035.07.026.054.05.11.072.166.019.048.035.097.052.146.062.178-.013-.1.01.032.02.11.035.218.044.33.015.186.015-.1 0 .031-.005.051-.008.102-.015.153-.007.05-.02.1-.028.151.001-.01.038-.12.01-.036-.017.052-.032.103-.051.154-.046.121-.104.234-.161.35.068-.14-.008.007-.047.064-.043.061-.088.12-.136.179-.04.05-.084.096-.127.145-.102.115.08-.066-.035.037a3.92 3.92 0 01-.579.429c-.01.006-.105.061-.027.017.079-.044-.045.023-.059.03a4.213 4.213 0 01-.682.272c-.047.014-.238.056-.099.029a6.386 6.386 0 01-.523.086c-.403.044-.744.452-.676.862.068.418.43.724.862.677 1.522-.166 3.102-1.043 3.695-2.518.512-1.274.058-2.79-1.055-3.598-.663-.48-1.433-.622-2.218-.396-.391.113-.596.649-.437 1.006.185.414.589.556 1.006.436zM38.898 39.946c1.727.265 3.124-1.444 3.032-3.071a2.313 2.313 0 00-.487-1.274c-.25-.317-.752-.432-1.084-.163-.318.258-.431.744-.163 1.084.031.04.062.08.09.122.075.116-.003.011-.023-.048.027.079.072.153.098.233.06.184-.024-.145-.002-.018.006.035.013.07.018.106.007.047.012.095.014.143.008.135-.004.008.004-.053-.011.084-.01.17-.022.254a2.109 2.109 0 01-.028.145c-.03.134-.01.006.016-.05-.036.077-.055.165-.089.245a2.38 2.38 0 01-.063.136c-.014.029-.101.178-.02.042.083-.136-.008.012-.026.038-.024.037-.05.072-.076.107-.053.07-.11.134-.168.2-.117.131.138-.121.03-.028-.033.028-.065.056-.099.083-.067.054-.137.1-.209.147-.142.094.16-.075.033-.019-.038.018-.075.036-.114.052-.04.016-.079.03-.119.043-.167.054.09-.013.036-.007-.084.01-.166.025-.25.032-.17.015.169.016.031 0-.05-.005-.1-.01-.15-.017-.4-.062-.834.25-.873.662-.04.423.234.808.663.874z"/><g><circle class="st3" cx="22.654" cy="68.847" r="8.52"/></g><g><path class="st5" d="M17.97 69.91a4.565 4.565 0 00.534 2.163c.337.632.92 1.366 1.706 1.375.8.01 1.3-.734 1.628-1.377.347-.68.532-1.407.572-2.169.047-.905-1.358-.9-1.407.001-.057 1.038.204 2.111 1.08 2.751.845.617 1.889.453 2.658-.192.733-.615 1.173-1.583 1.463-2.473.313-.963.425-2 .334-3.008-.034-.378-.3-.703-.704-.703-.355 0-.738.323-.704.704.125 1.383-.141 2.939-.99 4.075-.253.338-.674.74-1.123.527-.61-.29-.639-1.105-.607-1.682l-1.407.001c-.023.426-.114.85-.279 1.246-.083.199-.192.39-.308.571-.057.09-.125.174-.183.263-.147.224-.073-.018.02.06-.615-.508-.876-1.353-.875-2.133.002-.906-1.405-.906-1.407 0z"/></g><g><path class="st5" d="M26.45 64.65a1.955 1.955 0 01.058.23.513.513 0 00-.007-.057c-.015.013.005.286.004.317-.002.146.036-.13-.003.023-.01.042-.018.086-.03.129-.013.05-.033.1-.046.151-.021.081.06-.113 0 .003-.017.032-.121.274-.16.273a.625.625 0 00.028-.038c-.016.02-.034.04-.052.06-.036.039-.074.074-.112.111-.101.1.106-.06-.024.02-.038.024-.074.05-.112.071-.046.027-.094.049-.14.074a.725.725 0 00.046-.02l-.075.027c-.071.023-.208.085-.282.07a.553.553 0 00.056-.009 1.883 1.883 0 01-.238.007c-.046 0-.206.012-.023.006-.05.002-.109-.019-.156-.03a1.706 1.706 0 01-.201-.063c.079.035.093.04.044.017-.093-.053-.188-.1-.278-.16-.049-.032-.095-.068-.143-.101.13.09-.027-.022-.043-.035-.215-.173-.427-.35-.651-.51-.3-.216-.797-.063-.963.252-.192.364-.067.734.253.963a3.784 3.784 0 01.092.067l.138.112c.137.112.276.224.418.33.249.19.513.337.81.44.56.195 1.208.148 1.75-.081a2.505 2.505 0 001.399-3.025c-.11-.35-.496-.61-.866-.49-.353.114-.61.49-.491.865z"/></g></g></svg>