<svg version="1.1" id="Layer_1" xmlns="http://www.w3.org/2000/svg" x="0" y="0" viewBox="0 0 241.257 104.745" xml:space="preserve"><style>.st0{fill:#bc2622}.st1{fill:#f9ac00}.st2{fill:#1a331f}.st3{fill:#ce5c06}.st4{fill:#24aad3}</style><path class="st0" d="M45.228 83.449a57.967 57.967 0 01-.61-4.337 55.382 55.382 0 01-.344-4.43c-.016-.314-.016-.595-.016-.846 0-.892.062-1.519.203-1.879.141-.266.345-.391.627-.391h.234c.141.016.33.11.533.282.156.14.219.281.219.454 0 .062 0 .125-.031.203-.173.423-.298 1.253-.376 2.505a38.466 38.466 0 00-.094 2.787c0 .454.016 1.174.031 2.16.032 1.002.157 2.13.36 3.366.094.517.188.971.282 1.347.235-1.644.439-3.053.61-4.227.204-1.362.392-2.52.564-3.507l.126-.642c.297-1.8.641-3.6 1.002-5.401.36-1.785.782-3.35 1.236-4.681s.971-2.208 1.55-2.63c.345-.22.673-.33.987-.33.36 0 .782.22 1.236.643.454.422.909 1.205 1.347 2.317A29.6 29.6 0 0156 69.719c.297 1.22.516 2.27.689 3.146.14.658.266.971.375.971.016 0 .047-.016.126-.031.062-.032.156-.282.281-.752.016-.078.047-.156.063-.235.14-.516.344-1.205.61-2.05.251-.83.533-1.691.862-2.552.798-1.973 1.55-2.96 2.27-2.96h.563c.36.016.673.924.908 2.74.079.799.126 1.629.126 2.458 0 .25-.016.72-.032 1.394a60.28 60.28 0 01-.14 2.693 56.954 56.954 0 00-.157 4.29v.14c0 1.362.14 2.662.438 3.93.392 1.55 1.08 2.38 2.051 2.458.22.047.345.156.391.36.016.062.032.125.032.188 0 .14-.047.25-.11.375a.461.461 0 01-.422.235h-.063c-.673-.11-1.206-.47-1.628-1.08-.423-.61-.736-1.393-.971-2.364-.407-1.706-.658-3.303-.736-4.76a66.1 66.1 0 01-.078-3.021c0-.423 0-.83.016-1.252.015-.407.015-.799.015-1.221a54.44 54.44 0 00-.219-4.666c-.11-1.143-.266-1.707-.47-1.707-.015 0-.062 0-.172.016-.11.016-.407.673-.892 2.004a80.33 80.33 0 00-1.3 3.82c-.14.454-.266.783-.344 1.018-.22.673-.47 1.237-.736 1.66-.203.328-.438.485-.673.485-.094 0-.235-.047-.454-.157-.204-.094-.517-.704-.924-1.832-.391-1.174-.751-2.505-1.096-3.992a53.974 53.974 0 00-.735-2.865c-.251-.877-.517-1.55-.799-2.02-.188-.313-.391-.485-.626-.485a.596.596 0 00-.298.094c-.485.36-.939 1.19-1.346 2.458-.407 1.284-.783 2.787-1.127 4.525-.36 1.737-.69 3.49-.987 5.244l-.11.642c-.171.986-.375 2.145-.578 3.491a454.389 454.389 0 00-.69 4.854c-.046.344-.125.579-.218.688-.141.141-.267.22-.376.22-.25 0-.454-.298-.626-.893-.141-.454-.298-1.111-.455-1.972zm.83 2.207l.047-.047.016-.015v-.016c-.031.047-.047.062-.063.078zM70.138 75.26c.266 0 .61.11 1.018.345.391.22.594.658.594 1.3-.015.657-.422 1.236-1.236 1.753-.674.344-1.315.564-1.91.642.015.36.094.673.203.94.36.766.97 1.252 1.832 1.44.391.078.783.125 1.19.125.532 0 1.205-.094 2.004-.282.798-.172 1.628-.532 2.489-1.049.845-.517 1.425-1.111 1.738-1.753a.371.371 0 01.219-.188c.047-.016.078-.016.125-.016s.11 0 .157.031c.094.047.156.11.188.204a.455.455 0 01.03.14c0 .048-.015.095-.03.142-.407.83-1.096 1.534-2.067 2.113a9.7 9.7 0 01-3.24 1.206 8.797 8.797 0 01-1.66.172c-.595 0-1.284-.11-2.082-.298-.799-.187-1.503-.688-2.083-1.502-.375-.627-.563-1.269-.563-1.942 0-.266.078-.72.203-1.362.141-.626.61-1.205 1.41-1.722.547-.297 1.033-.438 1.47-.438zm.016 2.756c.548-.36.83-.736.83-1.143-.016-.407-.189-.673-.517-.798a.554.554 0 00-.22-.047c-.281 0-.594.188-.923.564-.36.454-.58 1.017-.673 1.706l.047-.094a.508.508 0 01.344-.282h.11a.41.41 0 01.203.094.548.548 0 01.063.141c.015.031.015.047.015.078 0 .032 0 .047-.015.079-.016 0-.016 0-.016.015.266-.078.517-.188.752-.313z"/><path class="st0" d="M79.532 80.349c-.376 0-.767-.125-1.143-.345-.392-.234-.626-.704-.705-1.424-.031-.22-.031-.439-.031-.658 0-.548.078-1.205.25-1.957.173-.767.423-1.55.752-2.364.58-1.424 1.158-2.348 1.722-2.786.25-.188.47-.282.642-.282.235 0 .423.156.532.47.063.187.11.422.11.704 0 .61-.172 1.472-.485 2.567a28.476 28.476 0 01-1.08 2.912 9.102 9.102 0 01-.705 1.331c.156.61.485.908 1.002.908.125 0 .282-.016.438-.062a6.513 6.513 0 001.816-.971c.752-.673 1.425-1.018 2.035-1.018.079 0 .298.032.674.094s.751.83 1.127 2.302c.015.11.047.266.094.438.078.454.203.97.376 1.55.156.58.375 1.049.657 1.409.172.219.36.329.58.329.14 0 .297-.047.453-.126.564-.39 1.096-1.111 1.613-2.129.517-1.017.767-1.8.767-2.364 0-.156.063-.266.188-.329a.419.419 0 01.188-.046c.062 0 .14.03.235.078.094.047.14.14.14.297 0 .69-.281 1.597-.86 2.74-.58 1.143-1.222 1.941-1.895 2.395-.36.204-.689.298-1.002.298-.36 0-.736-.172-1.158-.533-.423-.36-.815-.923-1.143-1.69-.345-.768-.58-1.425-.69-1.957a6.462 6.462 0 01-.14-.72c-.063-.517-.188-.877-.36-1.05a.27.27 0 00-.204-.078c-.219 0-.563.188-1.017.548-.61.501-1.362.924-2.255 1.253-.579.172-1.096.266-1.518.266zm-.298-3.069c.047-.125.11-.266.172-.407.392-.86.736-1.8 1.065-2.818.329-1.143.501-1.926.501-2.332 0-.079 0-.141-.016-.188-.03-.141-.078-.204-.14-.204-.095 0-.251.188-.486.548-.22.36-.454 1.018-.689 2.004a14.616 14.616 0 00-.407 3.397z"/><path class="st0" d="M92.683 80.349c-.376 0-.767-.125-1.143-.345-.391-.234-.626-.704-.704-1.424-.032-.22-.032-.439-.032-.658 0-.548.079-1.205.251-1.957.172-.767.423-1.55.751-2.364.58-1.424 1.159-2.348 1.723-2.786.25-.188.47-.282.642-.282.234 0 .422.156.532.47.062.187.11.422.11.704 0 .61-.173 1.472-.486 2.567a28.474 28.474 0 01-1.08 2.912 9.102 9.102 0 01-.705 1.331c.157.61.486.908 1.002.908.125 0 .282-.016.439-.062a6.513 6.513 0 001.816-.971c.751-.673 1.424-1.018 2.035-1.018.078 0 .297.032.673.094s.752.83 1.127 2.302c.016.11.047.266.094.438.078.454.204.97.376 1.55.157.58.376 1.049.658 1.409.172.219.36.329.579.329.14 0 .297-.047.454-.126.563-.39 1.096-1.111 1.612-2.129.517-1.017.768-1.8.768-2.364 0-.156.062-.266.187-.329a.419.419 0 01.188-.046c.063 0 .141.03.235.078.094.047.141.14.141.297 0 .69-.282 1.597-.861 2.74-.58 1.143-1.221 1.941-1.894 2.395-.36.204-.69.298-1.002.298-.36 0-.736-.172-1.159-.533-.423-.36-.814-.923-1.143-1.69-.344-.768-.58-1.425-.689-1.957a6.465 6.465 0 01-.14-.72c-.063-.517-.188-.877-.36-1.05a.27.27 0 00-.204-.078c-.22 0-.564.188-1.018.548-.61.501-1.362.924-2.254 1.253-.58.172-1.096.266-1.519.266zm-.297-3.069c.047-.125.11-.266.172-.407.391-.86.736-1.8 1.065-2.818.328-1.143.5-1.926.5-2.332 0-.079 0-.141-.015-.188-.031-.141-.078-.204-.141-.204-.094 0-.25.188-.485.548-.22.36-.454 1.018-.69 2.004a14.615 14.615 0 00-.406 3.397z"/><path class="st0" d="M103.33 95.065c-.564.345-1.096.517-1.566.517-.313 0-.704-.125-1.174-.392-.486-.266-.83-.876-1.065-1.831a4.661 4.661 0 01-.14-1.143c0-.642.156-1.44.469-2.395.298-.955 1.049-1.942 2.223-2.975 1.174-1.018 2.818-1.8 4.963-2.317.282-1.378.501-2.818.658-4.321-.298.47-.705.751-1.206.86-.094.017-.203.017-.297.017-.658 0-1.175-.298-1.55-.908s-.595-1.362-.642-2.255c-.016-.156-.016-.313-.016-.454 0-.689.094-1.284.298-1.785a.715.715 0 01.407-.391c.093-.031.187-.063.281-.063s.188.032.282.063c.235.11.392.298.454.532v.016c.094.11.172.235.235.376.016.062.031.125.031.188a.529.529 0 01-.078.266c-.016.015-.031.047-.062.078a.33.33 0 01-.204.078c-.031 0-.063 0-.078-.015-.078.422-.11.908-.126 1.471v.126c0 .5.063.955.188 1.346.126.391.345.58.674.58h.078c.438-.11.767-.44 1.002-1.018.219-.58.36-1.206.438-1.88.078-.672.11-1.236.11-1.659.015-.422.156-.704.391-.83a.658.658 0 01.329-.093c.125 0 .297.062.47.188.187.11.297.375.313.767 0 2.865-.266 5.683-.799 8.485.141 0 .282-.016.423-.016.814 0 1.612.141 2.364.392.297.125.454.313.47.548v.078a.773.773 0 01-.22.532.568.568 0 01-.407.172c-.062 0-.14-.015-.219-.03a8.148 8.148 0 00-2.677-.455l-.031.141c-.22.97-.486 1.942-.799 2.928-.328.986-.72 1.925-1.205 2.818-1.05 1.879-2.035 3.1-2.99 3.663zm-.971-7.123c-1.018 1.111-1.644 2.286-1.879 3.491-.094.485-.14.94-.14 1.347 0 .594.093 1.111.312 1.518.22.423.517.626.893.626.235 0 .626-.156 1.174-.454.548-.313 1.33-1.565 2.364-3.773a29.86 29.86 0 001.706-5.04c-1.956.406-3.428 1.173-4.43 2.285zM126.83 86.987c-1.222 0-2.177-.376-2.881-1.112-.689-.735-1.159-1.737-1.393-3.006a15.874 15.874 0 01-.25-2.912c0-.36.03-.986.077-1.894.047-.892.188-1.957.423-3.178.235-1.221.438-2.176.642-2.865.14-.485.391-1.237.767-2.254.36-1.018.845-2.083 1.425-3.194.579-1.096 1.237-2.004 1.972-2.74.642-.626 1.347-.94 2.098-.94.11 0 .22 0 .33.016.61.125 1.22.486 1.815 1.096a7.714 7.714 0 011.41 2.051c.297.642.437 1.221.437 1.753 0 .11 0 .22-.015.33-.063.25-.22.406-.454.453-.094.016-.188.032-.282.032-.14 0-.282-.032-.407-.079-.204-.094-.313-.219-.313-.407v-.03c.015-.126.031-.267.031-.408 0-.391-.078-.861-.25-1.425a5.913 5.913 0 00-.814-1.675c-.376-.532-.799-.845-1.284-.955h-.141c-.564 0-1.112.36-1.66 1.096-.548.736-1.049 1.66-1.503 2.756a33.206 33.206 0 00-1.142 3.052 56.853 56.853 0 00-.564 1.88l-.063.187a54.728 54.728 0 00-.689 2.614 35.57 35.57 0 00-.673 3.617c-.11.783-.156 1.55-.156 2.286 0 .47.03 1.095.11 1.894.078.798.406 1.534.986 2.239.532.642 1.33.955 2.41.955h.298c1.08-.094 2.208-.454 3.413-1.065a18.585 18.585 0 004.587-3.334c1.378-1.347 2.302-2.646 2.756-3.883a.44.44 0 01.187-.22c.047-.03.11-.03.173-.03.031 0 .078 0 .125.015a.343.343 0 01.203.188c.032.047.032.094.032.156 0 .032 0 .079-.016.126-.485 1.33-1.456 2.724-2.896 4.148a19.503 19.503 0 01-4.822 3.507c-1.284.658-2.505 1.034-3.68 1.143-.125 0-.234.016-.36.016z"/><path class="st0" d="M137.273 71.754v-.079c0-.203.062-.39.203-.532.11-.11.25-.172.407-.172.063 0 .141.016.22.031a8.011 8.011 0 002.677.454c0-.03 0-.062.015-.078 0-.016 0-.047.016-.063.22-.97.485-1.957.814-2.943.329-.986.72-1.91 1.19-2.802 1.017-1.8 2.098-2.975 3.21-3.491.594-.267 1.127-.408 1.612-.408.454 0 .861.11 1.221.345.736.438 1.096 1.221 1.096 2.301 0 .063 0 .407-.016 1.034-.015.626-.673 1.753-1.972 3.397-1.503 1.894-3.46 3.115-5.871 3.695a45.211 45.211 0 00-.83 6.873c-.016.422-.031.845-.031 1.268a16.563 16.563 0 012.02-3.586c.907-1.096 1.737-1.628 2.504-1.628.078 0 .172 0 .25.016.893.14 1.566.58 2.02 1.315.454.736.814 1.55 1.096 2.427.282.83.595 1.518.955 2.066.282.454.689.673 1.19.673.11 0 .235-.015.36-.031.72-.203 1.41-.642 2.05-1.284.643-.642 1.175-1.268 1.582-1.878.094-.126.188-.173.298-.173.015 0 .062 0 .14.016.079.016.141.078.204.188.031.047.047.11.047.172 0 .063-.016.141-.062.22-.47.704-1.065 1.393-1.77 2.082-.72.704-1.503 1.158-2.332 1.393a3.943 3.943 0 01-.814.094c-.47 0-.94-.141-1.378-.407-.439-.266-.83-.72-1.159-1.331a15.397 15.397 0 01-.923-1.91 12.706 12.706 0 00-.736-1.597c-.266-.454-.58-.783-.94-.955a1.092 1.092 0 00-.391-.078c-.157 0-.36.047-.626.156-.25.11-.58.423-.97.924-.893 1.159-1.52 2.395-1.864 3.71a12.469 12.469 0 00-.407 3.085c0 .281.016.548.031.83a.255.255 0 01.094-.047.483.483 0 01.126-.032c.031 0 .062 0 .094.016.046.016.078.047.125.094.031.047.047.094.062.14 0 .048-.015.11-.03.157l-.095.141-.047.047c-.047.078-.11.157-.156.235a.66.66 0 00-.11.204c-.016.015-.016.015-.016.03-.015.016-.015.016-.03.016a.773.773 0 01-.44.392.982.982 0 01-.297.047.818.818 0 01-.344-.078c-.141-.047-.266-.204-.345-.455-.313-1.205-.47-2.849-.47-4.9 0-.579 0-1.205.032-1.847a47.56 47.56 0 01.751-6.576c-.14 0-.281.016-.406.016-.83 0-1.613-.14-2.38-.407-.282-.11-.439-.297-.454-.532zm5.088-.439c2.113-.375 3.804-1.424 5.072-3.13.893-1.253 1.41-2.396 1.519-3.445.016-.203.031-.407.031-.595 0-.751-.188-1.3-.548-1.66a.984.984 0 00-.72-.312c-.329 0-.798.203-1.409.626-.61.407-1.362 1.565-2.254 3.475a28.49 28.49 0 00-1.691 5.041z"/><path class="st0" d="M156.64 80.349c-.376 0-.767-.125-1.143-.345-.392-.234-.626-.704-.705-1.424-.031-.22-.031-.439-.031-.658 0-.548.078-1.205.25-1.957.173-.767.423-1.55.752-2.364.58-1.424 1.158-2.348 1.722-2.786.25-.188.47-.282.642-.282.235 0 .423.156.532.47.063.187.11.422.11.704 0 .61-.173 1.472-.485 2.567a28.476 28.476 0 01-1.08 2.912 9.102 9.102 0 01-.705 1.331c.156.61.485.908 1.002.908.125 0 .281-.016.438-.062a6.513 6.513 0 001.816-.971c.752-.673 1.425-1.018 2.035-1.018.079 0 .298.032.674.094.375.063.751.83 1.127 2.302.015.11.047.266.094.438.078.454.203.97.376 1.55.156.58.375 1.049.657 1.409.172.219.36.329.58.329.14 0 .297-.047.453-.126.564-.39 1.096-1.111 1.613-2.129.516-1.017.767-1.8.767-2.364 0-.156.063-.266.188-.329.063-.03.125-.046.188-.046s.14.03.235.078c.094.047.14.14.14.297 0 .69-.281 1.597-.86 2.74-.58 1.143-1.222 1.941-1.895 2.395-.36.204-.689.298-1.002.298-.36 0-.736-.172-1.158-.533-.423-.36-.815-.923-1.143-1.69-.345-.768-.58-1.425-.69-1.957a6.465 6.465 0 01-.14-.72c-.063-.517-.188-.877-.36-1.05a.27.27 0 00-.204-.078c-.219 0-.563.188-1.017.548-.61.501-1.362.924-2.255 1.253-.579.172-1.096.266-1.518.266zm-.298-3.069c.047-.125.11-.266.172-.407.392-.86.736-1.8 1.065-2.818.329-1.143.5-1.926.5-2.332 0-.079 0-.141-.015-.188-.031-.141-.078-.204-.14-.204-.095 0-.251.188-.486.548-.22.36-.454 1.018-.689 2.004a14.616 14.616 0 00-.407 3.397z"/><path class="st0" d="M172.813 81.053c-.69.392-1.378.595-2.036.595h-.595c-.36-.015-.751-.203-1.142-.58-.517-.578-.846-1.361-.956-2.347a14.412 14.412 0 01-.11-1.754c0-.282.016-.563.032-.814a.811.811 0 01.25-.517.739.739 0 01.502-.187h.047c.203.015.375.11.516.25.125.14.188.298.188.501v.047c-.015.22-.031.454-.063.72-.062.658-.093 1.33-.093 2.02 0 .673.125 1.205.375 1.597.204.25.533.375.971.375.047 0 .22 0 .517-.015.297-.016.72-.22 1.3-.58.578-.36 1.064-.908 1.455-1.612a.37.37 0 01.22-.188c.03-.016.078-.016.109-.016.062 0 .125.016.188.047a.303.303 0 01.172.22c.015.047.015.078.015.125s0 .11-.03.156c-.486.893-1.097 1.55-1.832 1.957zm-4.431-6.23a.71.71 0 01-.22-.533c0-.204.063-.391.22-.532a.71.71 0 01.516-.22.72.72 0 01.533.22c.157.14.22.329.22.532a.71.71 0 01-.22.532.72.72 0 01-.533.22.71.71 0 01-.516-.22z"/><path class="st0" d="M174.363 90.4c-.799-.517-1.394-1.143-1.785-1.863a2.442 2.442 0 01-.329-1.19c0-.329.078-.657.235-.986.344-.642.892-1.159 1.66-1.535a11.24 11.24 0 012.504-.86c.893-.204 1.723-.36 2.474-.47.391-.063.736-.126 1.033-.173-.579-1.017-1.628-1.831-3.115-2.442-1.628-.657-2.74-1.456-3.335-2.38-.423-.673-.642-1.33-.642-1.988 0-.25.031-.5.094-.751.298-1.018.845-1.754 1.644-2.24a4.27 4.27 0 012.27-.64h.25c.893.046 1.566.343 2.036.907.25.298.376.673.376 1.127 0 .392-.094.846-.298 1.362-.125.266-.297.423-.532.439h-.078a.628.628 0 01-.486-.204.516.516 0 01-.125-.344c0-.094.016-.204.063-.313.187-.47.297-.877.297-1.19 0-.22-.063-.423-.157-.564-.234-.329-.657-.5-1.236-.5h-.11a3.006 3.006 0 00-1.738.578c-.532.392-.814.955-.86 1.691 0 .673.265 1.331.782 1.989.517.673 1.284 1.205 2.317 1.628 2.145.877 3.585 2.004 4.305 3.381.877-.266 1.707-.735 2.474-1.377s1.456-1.566 2.067-2.771a.371.371 0 01.219-.188c.047-.016.078-.016.125-.016s.11 0 .157.031a.37.37 0 01.203.345c0 .047 0 .11-.031.156-.69 1.347-1.44 2.364-2.27 3.053-.83.705-1.691 1.19-2.6 1.472.267.72.392 1.425.392 2.114 0 .579-.14 1.314-.423 2.223-.297.892-.923 1.722-1.91 2.489-.845.657-1.8 1.002-2.849 1.002-.172 0-.36-.016-.532-.031-.893-.126-1.738-.454-2.536-.971zm-1.331-3.006c0 .36.14.751.438 1.205.298.454.799.893 1.472 1.284.673.407 1.362.658 2.05.752.095 0 .189.015.267.015.798 0 1.534-.313 2.176-.955.658-.626 1.112-1.456 1.346-2.505.094-.391.126-.767.126-1.158 0-.673-.126-1.346-.392-2.02-.297.047-.657.11-1.049.172-.735.11-1.55.251-2.426.439a11.62 11.62 0 00-2.396.783c-.72.328-1.22.782-1.487 1.33-.094.22-.125.439-.125.658z"/><path class="st0" d="M189.361 63.096c.141.172.282.376.407.58.11.203.188.375.235.485.032.125.047.25.047.36 0 .219-.062.423-.172.61-.11.188-.266.282-.454.282a.989.989 0 01-.344-.078v.031a72.38 72.38 0 00-.627 3.82c.173 0 .345 0 .517.016.736.047 1.315.063 1.738.063.156 0 .266.062.328.187.032.063.048.126.048.188s-.032.141-.079.235-.14.141-.297.141c-.392 0-.97-.016-1.738-.063-.204-.015-.407-.015-.626-.03-.298 2.144-.533 4.398-.736 6.731a74.3 74.3 0 00-.297 6.388v.203c0 1.8.14 3.1.406 3.93.016.047.032.11.032.156a.443.443 0 01-.11.267.444.444 0 01-.344.156c-.016 0-.078 0-.157-.016-.094-.015-.188-.156-.282-.422-.47-1.644-.688-3.899-.688-6.78 0-.281 0-1.33.03-3.146.032-1.8.251-4.305.643-7.515-.376-.016-.705-.016-1.018-.016h-.642c-.282.016-.516.047-.689.11-.062.016-.11.031-.156.031a.31.31 0 01-.22-.094.427.427 0 01-.125-.297v-.14c.016-.08.094-.142.235-.204.235-.079.58-.126 1.065-.141.25-.016.5-.016.783-.016.266 0 .563 0 .86.016.33-2.458.69-4.415 1.08-5.84a.756.756 0 01.705-.548c.079 0 .141.016.22.031.125.047.266.157.422.33zM199.554 75.558c-.032 0-.11.032-.22.063-.11.047-.266.156-.438.344a3.802 3.802 0 00-.391.47 9.508 9.508 0 00-1.08 1.988 11.386 11.386 0 00-.69 2.16c-.015.11-.015.22-.015.298a.738.738 0 01-.25.501.794.794 0 01-.549.204.76.76 0 01-.516-.267.7.7 0 01-.188-.485v-.047c.015-.078.015-.188.031-.329.032-.422.063-.97.094-1.66.016-.297.016-.594.016-.876 0-.391-.016-.83-.047-1.33-.031-.502-.141-.877-.345-1.112a.273.273 0 00-.219-.11c-.188 0-.422.172-.704.517-.61.767-1.206 1.8-1.785 3.131s-.877 2.52-.892 3.585c-.016.172-.11.282-.282.329a.91.91 0 01-.298.047c-.078 0-.187-.016-.313-.047-.14-.047-.219-.14-.235-.313-.047-.83-.062-1.66-.062-2.505 0-1.675.078-3.35.25-5.041.094-.61.282-.97.58-1.05a.648.648 0 01.25-.046c.203 0 .423.11.689.297.25.204.423.47.532.799a.898.898 0 01-.047.689c-.078.188-.235.282-.454.282h-.094a87.27 87.27 0 00-.375 3.005c.641-1.612 1.299-2.818 1.956-3.632.627-.751 1.143-1.143 1.566-1.143.078 0 .25.063.501.157.266.094.501.532.72 1.3.22.767.36 1.612.423 2.536.36-.877.767-1.644 1.221-2.286.22-.298.501-.58.83-.846a1.725 1.725 0 011.033-.407h.047c.345 0 .642.188.908.58.266.438.439.923.517 1.471s.11 1.096.125 1.644c.016.673.078 1.237.203 1.707.11.47.392.735.846.814.078.015.156.015.25.015.47 0 1.018-.172 1.644-.5.61-.33 1.143-.909 1.597-1.707a.37.37 0 01.22-.188c.03-.016.078-.016.109-.016.063 0 .11.016.172.047a.37.37 0 01.188.22c.016.03.016.062.016.11a.41.41 0 01-.047.171c-.517.955-1.174 1.629-1.957 2.036-.673.36-1.315.532-1.957.532-.094 0-.188 0-.282-.016-.72-.078-1.237-.313-1.566-.72-.328-.407-.532-.908-.61-1.487a12.974 12.974 0 01-.125-1.738c0-.736-.063-1.346-.188-1.847-.079-.188-.188-.298-.313-.298z"/><path class="st0" d="M211.046 76.936a17.09 17.09 0 00-.11 2.02c0 .704.125 1.236.391 1.628.204.25.533.375.97.375.048 0 .22 0 .518-.015.281-.016.72-.22 1.3-.58.578-.36 1.064-.908 1.455-1.612a.37.37 0 01.22-.188c.03-.016.077-.016.109-.016.062 0 .11.016.172.047a.37.37 0 01.188.22c.016.03.016.062.016.11 0 .046-.016.109-.047.171-.486.893-1.096 1.55-1.832 1.957-.689.392-1.362.595-2.035.595h-.58c-.36-.015-.751-.203-1.143-.58a3.088 3.088 0 01-.704-1.236c-.235.266-.47.517-.705.736-.673.564-1.252.861-1.753.861-.078 0-.282-.047-.595-.11-.313-.078-.61-.391-.877-.97a3.526 3.526 0 01-.313-1.456c0-.157.032-.439.078-.861.047-.423.298-.877.752-1.378.423-.438 1.002-.658 1.785-.658h.25a2.65 2.65 0 011.033.282 1.15 1.15 0 01.22-.61c.125-.141.297-.22.532-.22h.047c.329.032.548.188.658.486.015 0 .015 0 .03.016.095.109.173.234.22.391.016.063.031.125.031.172a.528.528 0 01-.078.266c-.016.032-.031.063-.063.079a.322.322 0 01-.14.078zm-1.644 1.738c.11-.486.172-.893.172-1.237 0-.094 0-.188-.016-.282-.015-.047-.062-.094-.156-.172a1.394 1.394 0 00-.376-.204 1.767 1.767 0 00-.501-.078c-.423.047-.752.313-1.002.83a4.02 4.02 0 00-.438 1.644v.125c0 .517.11.892.344 1.111.078.079.188.11.298.11.25 0 .594-.172 1.002-.517.297-.266.516-.704.673-1.33z"/><path class="st0" d="M215.93 90.4c-.798-.517-1.393-1.143-1.784-1.863a2.442 2.442 0 01-.329-1.19c0-.329.078-.657.235-.986.344-.642.892-1.159 1.66-1.535a11.24 11.24 0 012.504-.86c.893-.204 1.722-.36 2.474-.47.391-.063.736-.126 1.033-.173-.58-1.017-1.628-1.831-3.115-2.442-1.629-.657-2.74-1.456-3.335-2.38-.423-.673-.642-1.33-.642-1.988 0-.25.031-.5.094-.751.297-1.018.845-1.754 1.644-2.24a4.27 4.27 0 012.27-.64h.25c.893.046 1.566.343 2.036.907.25.298.375.673.375 1.127 0 .392-.094.846-.297 1.362-.125.266-.297.423-.532.439h-.079a.628.628 0 01-.485-.204.516.516 0 01-.125-.344c0-.094.016-.204.063-.313.187-.47.297-.877.297-1.19 0-.22-.063-.423-.157-.564-.234-.329-.657-.5-1.236-.5h-.11a3.006 3.006 0 00-1.738.578c-.532.392-.814.955-.86 1.691 0 .673.265 1.331.782 1.989.516.673 1.284 1.205 2.317 1.628 2.145.877 3.585 2.004 4.305 3.381.877-.266 1.707-.735 2.474-1.377s1.456-1.566 2.066-2.771a.371.371 0 01.22-.188c.047-.016.078-.016.125-.016s.11 0 .156.031a.37.37 0 01.204.345c0 .047 0 .11-.031.156-.69 1.347-1.44 2.364-2.27 3.053-.83.705-1.691 1.19-2.6 1.472.267.72.392 1.425.392 2.114 0 .579-.14 1.314-.423 2.223-.297.892-.923 1.722-1.91 2.489-.845.657-1.8 1.002-2.849 1.002-.172 0-.36-.016-.532-.031-.893-.126-1.738-.454-2.536-.971zm-1.33-3.006c0 .36.14.751.438 1.205.298.454.799.893 1.472 1.284.673.407 1.362.658 2.05.752.095 0 .189.015.267.015.798 0 1.534-.313 2.176-.955.657-.626 1.111-1.456 1.346-2.505.094-.391.126-.767.126-1.158 0-.673-.126-1.346-.392-2.02-.297.047-.657.11-1.049.172-.736.11-1.55.251-2.426.439a11.62 11.62 0 00-2.396.783c-.72.328-1.22.782-1.487 1.33-.094.22-.125.439-.125.658z"/><g><path class="st1" d="M45.97 83.175a58.05 58.05 0 01-.61-4.336 55.46 55.46 0 01-.345-4.43C45 74.094 45 73.812 45 73.562c0-.893.063-1.519.204-1.879.141-.266.344-.391.626-.391h.235c.141.015.329.11.532.281.157.141.22.282.22.454 0 .063 0 .126-.032.204-.172.423-.297 1.252-.375 2.505a38.574 38.574 0 00-.094 2.787c0 .454.015 1.174.031 2.16.031 1.002.156 2.13.36 3.366.094.517.188.97.282 1.347.235-1.644.438-3.053.61-4.227.204-1.363.392-2.521.564-3.507l.125-.642c.298-1.8.642-3.601 1.002-5.402.36-1.784.783-3.35 1.237-4.68.454-1.331.97-2.208 1.55-2.63.344-.22.673-.33.986-.33.36 0 .783.22 1.237.642.454.423.908 1.206 1.346 2.317a29.536 29.536 0 011.096 3.507c.298 1.221.517 2.27.69 3.147.14.658.265.97.375.97.016 0 .047-.015.125-.03.063-.032.157-.282.282-.752.016-.078.047-.157.063-.235.14-.517.344-1.205.61-2.05.25-.83.532-1.692.861-2.553.799-1.972 1.55-2.959 2.27-2.959h.564c.36.016.673.924.908 2.74.078.799.125 1.628.125 2.458 0 .25-.015.72-.031 1.393a59.966 59.966 0 01-.14 2.693 56.954 56.954 0 00-.157 4.29v.14c0 1.363.14 2.662.438 3.93.391 1.55 1.08 2.38 2.05 2.458.22.047.345.157.392.36.016.063.032.126.032.188 0 .141-.047.25-.11.376a.461.461 0 01-.423.235h-.062c-.674-.11-1.206-.47-1.629-1.08-.423-.61-.736-1.394-.97-2.364-.407-1.707-.658-3.304-.736-4.76a66.1 66.1 0 01-.078-3.021c0-.423 0-.83.015-1.253.016-.407.016-.798.016-1.22a54.44 54.44 0 00-.22-4.666c-.109-1.143-.265-1.707-.469-1.707-.015 0-.063 0-.172.016-.11.016-.407.673-.893 2.004a80.123 80.123 0 00-1.299 3.82c-.141.454-.266.783-.344 1.017-.22.674-.47 1.237-.736 1.66-.204.329-.439.485-.673.485-.094 0-.235-.047-.454-.156-.204-.094-.517-.705-.924-1.832-.392-1.174-.752-2.505-1.096-3.992a53.986 53.986 0 00-.736-2.865c-.25-.877-.517-1.55-.798-2.02-.188-.313-.392-.485-.627-.485a.595.595 0 00-.297.094c-.485.36-.94 1.19-1.347 2.458-.406 1.284-.782 2.786-1.127 4.524-.36 1.738-.689 3.492-.986 5.245l-.11.642c-.172.986-.375 2.145-.579 3.491a459.457 459.457 0 00-.688 4.853c-.048.345-.126.58-.22.69-.14.14-.266.218-.376.218-.25 0-.454-.297-.626-.892-.14-.454-.297-1.112-.454-1.973zm.83 2.208l.047-.047.016-.016v-.015c-.032.046-.048.062-.063.078zM70.88 74.987c.266 0 .61.11 1.017.345.392.219.595.657.595 1.3-.016.657-.423 1.236-1.237 1.753-.673.344-1.315.563-1.91.642.016.36.094.673.204.939.36.767.97 1.252 1.831 1.44.392.079.783.126 1.19.126.533 0 1.206-.094 2.004-.282.799-.172 1.628-.533 2.49-1.05.845-.516 1.424-1.11 1.737-1.753a.372.372 0 01.22-.188c.046-.015.078-.015.125-.015s.11 0 .156.031c.094.047.157.11.188.204.016.047.032.094.032.14 0 .048-.016.094-.032.141-.407.83-1.096 1.535-2.066 2.114-.97.58-2.051.986-3.241 1.206a8.8 8.8 0 01-1.66.172c-.595 0-1.283-.11-2.082-.298-.798-.188-1.503-.689-2.082-1.503-.376-.626-.564-1.268-.564-1.941 0-.266.079-.72.204-1.362.14-.626.61-1.206 1.409-1.722.548-.298 1.033-.439 1.472-.439zm.015 2.756c.548-.36.83-.736.83-1.143-.016-.407-.188-.673-.517-.799a.553.553 0 00-.219-.046c-.282 0-.595.187-.924.563-.36.454-.579 1.018-.673 1.707l.047-.094a.508.508 0 01.345-.282h.11a.41.41 0 01.203.094c.031.047.047.094.062.14a.14.14 0 01.016.079c0 .031 0 .047-.016.078-.015 0-.015 0-.015.016a4 4 0 00.751-.313z"/><path class="st1" d="M80.273 80.076c-.375 0-.767-.126-1.142-.345-.392-.235-.627-.704-.705-1.425-.031-.219-.031-.438-.031-.657 0-.548.078-1.206.25-1.957.172-.767.423-1.55.751-2.364.58-1.425 1.16-2.348 1.723-2.787.25-.188.47-.282.642-.282.235 0 .422.157.532.47.063.188.11.423.11.705 0 .61-.173 1.471-.486 2.567a28.473 28.473 0 01-1.08 2.912 9.07 9.07 0 01-.705 1.33c.157.611.486.909 1.003.909.125 0 .281-.016.438-.063a6.516 6.516 0 001.816-.97c.751-.674 1.424-1.018 2.035-1.018.078 0 .297.031.673.094.376.062.752.83 1.128 2.301.015.11.047.266.093.439.079.454.204.97.376 1.55.157.579.376 1.049.658 1.409.172.219.36.328.579.328.141 0 .298-.047.454-.125.564-.391 1.096-1.111 1.613-2.13.516-1.017.767-1.8.767-2.363 0-.157.062-.266.188-.329a.419.419 0 01.187-.047c.063 0 .141.031.235.078s.141.141.141.298c0 .689-.282 1.597-.861 2.74-.58 1.143-1.221 1.94-1.894 2.395-.36.204-.689.297-1.002.297-.36 0-.736-.172-1.159-.532-.423-.36-.814-.924-1.143-1.69-.344-.768-.579-1.425-.688-1.958a6.463 6.463 0 01-.141-.72c-.063-.516-.188-.877-.36-1.049a.27.27 0 00-.204-.078c-.22 0-.564.188-1.018.548-.61.5-1.362.924-2.254 1.252-.58.173-1.096.267-1.519.267zm-.297-3.069c.047-.125.11-.266.172-.407.391-.861.736-1.8 1.065-2.818.328-1.143.5-1.926.5-2.333 0-.078 0-.14-.015-.188-.031-.14-.078-.203-.141-.203-.094 0-.25.188-.485.548-.22.36-.454 1.017-.69 2.004a14.625 14.625 0 00-.406 3.397z"/><path class="st1" d="M93.425 80.076c-.376 0-.767-.126-1.143-.345-.391-.235-.626-.704-.705-1.425-.031-.219-.031-.438-.031-.657 0-.548.078-1.206.25-1.957.173-.767.423-1.55.752-2.364.58-1.425 1.159-2.348 1.722-2.787.25-.188.47-.282.642-.282.235 0 .423.157.533.47.062.188.109.423.109.705 0 .61-.172 1.471-.485 2.567a28.474 28.474 0 01-1.08 2.912 9.138 9.138 0 01-.705 1.33c.157.611.485.909 1.002.909.125 0 .282-.016.438-.063a6.511 6.511 0 001.816-.97c.752-.674 1.425-1.018 2.035-1.018.079 0 .298.031.674.094.376.062.751.83 1.127 2.301.015.11.047.266.094.439.078.454.204.97.376 1.55.156.579.376 1.049.657 1.409.172.219.36.328.58.328.14 0 .297-.047.453-.125.564-.391 1.096-1.111 1.613-2.13.517-1.017.767-1.8.767-2.363 0-.157.063-.266.188-.329a.42.42 0 01.188-.047c.063 0 .14.031.235.078.094.047.14.141.14.298 0 .689-.281 1.597-.86 2.74-.58 1.143-1.222 1.94-1.895 2.395-.36.204-.689.297-1.002.297-.36 0-.736-.172-1.158-.532-.423-.36-.814-.924-1.143-1.69-.345-.768-.58-1.425-.689-1.958a6.463 6.463 0 01-.141-.72c-.063-.516-.188-.877-.36-1.049a.27.27 0 00-.204-.078c-.219 0-.563.188-1.017.548-.61.5-1.362.924-2.255 1.252-.579.173-1.095.267-1.518.267zm-.297-3.069c.046-.125.109-.266.172-.407.391-.861.735-1.8 1.064-2.818.329-1.143.501-1.926.501-2.333 0-.078 0-.14-.016-.188-.03-.14-.078-.203-.14-.203-.095 0-.251.188-.486.548-.219.36-.454 1.017-.689 2.004a14.607 14.607 0 00-.407 3.397z"/><path class="st1" d="M104.071 94.792c-.563.344-1.096.517-1.565.517-.313 0-.705-.126-1.174-.392-.486-.266-.83-.876-1.065-1.831a4.653 4.653 0 01-.141-1.143c0-.642.157-1.44.47-2.396.297-.955 1.049-1.941 2.223-2.974 1.174-1.018 2.818-1.8 4.963-2.317.281-1.378.5-2.818.657-4.321-.297.47-.704.751-1.205.86-.094.016-.204.016-.298.016-.657 0-1.174-.297-1.55-.908-.376-.61-.595-1.362-.641-2.254-.016-.157-.016-.313-.016-.454 0-.689.094-1.284.297-1.785a.715.715 0 01.407-.391c.094-.032.188-.063.282-.063.094 0 .188.031.282.063a.81.81 0 01.454.532v.016c.094.11.172.234.235.375.015.063.031.126.031.188a.529.529 0 01-.078.267c-.016.015-.032.046-.063.078a.33.33 0 01-.203.078c-.032 0-.063 0-.079-.016-.078.423-.11.908-.125 1.472v.125c0 .501.063.955.188 1.347.125.391.344.579.673.579h.079c.438-.11.767-.438 1.001-1.018.22-.579.36-1.205.439-1.878.078-.674.11-1.237.11-1.66.015-.423.156-.704.39-.83a.659.659 0 01.33-.094c.125 0 .297.063.47.188.187.11.297.376.312.767 0 2.865-.266 5.683-.798 8.486.14 0 .282-.016.423-.016.814 0 1.612.141 2.364.392.297.125.454.313.47.548v.078a.773.773 0 01-.22.532.568.568 0 01-.407.172c-.063 0-.141-.015-.22-.031a8.146 8.146 0 00-2.676-.454l-.031.14c-.22.971-.486 1.942-.8 2.929-.328.986-.72 1.925-1.204 2.817-1.05 1.88-2.036 3.1-2.99 3.664zm-.97-7.123c-1.018 1.111-1.644 2.285-1.88 3.49-.093.486-.14.94-.14 1.347 0 .595.094 1.112.313 1.519.22.423.517.626.892.626.235 0 .627-.156 1.175-.454.548-.313 1.33-1.565 2.364-3.773a29.844 29.844 0 001.706-5.041c-1.957.407-3.429 1.174-4.43 2.286zM127.571 86.714c-1.221 0-2.176-.376-2.88-1.112-.69-.736-1.159-1.738-1.394-3.006a15.859 15.859 0 01-.25-2.912c0-.36.031-.986.078-1.894.047-.893.188-1.957.423-3.178.235-1.221.438-2.176.641-2.865.141-.486.392-1.237.768-2.255.36-1.017.845-2.082 1.424-3.193.58-1.096 1.237-2.004 1.973-2.74.642-.627 1.347-.94 2.098-.94.11 0 .219 0 .329.016.61.125 1.22.485 1.816 1.096a7.71 7.71 0 011.409 2.05c.297.643.438 1.222.438 1.754 0 .11 0 .22-.016.329-.062.25-.219.407-.454.454-.094.016-.187.031-.281.031-.141 0-.282-.031-.407-.078-.204-.094-.313-.22-.313-.407v-.031c.015-.126.03-.266.03-.407 0-.392-.077-.861-.25-1.425a5.913 5.913 0 00-.814-1.675c-.376-.532-.798-.846-1.284-.955h-.14c-.564 0-1.112.36-1.66 1.096-.548.736-1.05 1.66-1.503 2.755a33.15 33.15 0 00-1.143 3.053 56.565 56.565 0 00-.564 1.879l-.062.188a54.488 54.488 0 00-.689 2.614 35.62 35.62 0 00-.673 3.617c-.11.782-.157 1.55-.157 2.285 0 .47.032 1.096.11 1.895.078.798.407 1.534.986 2.238.533.642 1.331.955 2.411.955h.298c1.08-.093 2.207-.453 3.413-1.064a18.589 18.589 0 004.587-3.335c1.378-1.346 2.301-2.646 2.755-3.882a.439.439 0 01.188-.22c.047-.031.11-.031.172-.031.032 0 .079 0 .125.016a.343.343 0 01.204.188c.031.047.031.093.031.156 0 .031 0 .078-.015.125-.486 1.331-1.456 2.725-2.897 4.15a19.507 19.507 0 01-4.822 3.506c-1.283.658-2.505 1.033-3.679 1.143-.125 0-.234.016-.36.016z"/><path class="st1" d="M138.014 71.48v-.078c0-.203.063-.391.204-.532.11-.11.25-.172.407-.172.063 0 .141.015.22.031a8.01 8.01 0 002.676.454c0-.031 0-.063.016-.078 0-.016 0-.047.015-.063.22-.97.486-1.957.815-2.943.329-.986.72-1.91 1.19-2.802 1.017-1.8 2.097-2.975 3.209-3.492.595-.266 1.127-.407 1.612-.407.455 0 .862.11 1.222.345.736.438 1.096 1.22 1.096 2.301 0 .063 0 .407-.016 1.033-.016.626-.673 1.754-1.973 3.398-1.503 1.894-3.46 3.115-5.87 3.694a45.235 45.235 0 00-.83 6.873c-.016.423-.032.846-.032 1.268a16.555 16.555 0 012.02-3.585c.908-1.096 1.738-1.628 2.505-1.628.078 0 .172 0 .25.016.893.14 1.566.579 2.02 1.315.454.736.814 1.55 1.096 2.426.282.83.595 1.519.955 2.067.281.454.689.673 1.19.673.11 0 .235-.016.36-.031.72-.204 1.409-.642 2.05-1.284.642-.642 1.175-1.268 1.582-1.879.094-.125.188-.172.297-.172.016 0 .063 0 .141.016.078.015.141.078.204.188.031.047.047.11.047.172s-.016.14-.063.22c-.47.704-1.064 1.392-1.769 2.081-.72.705-1.503 1.159-2.333 1.394a3.947 3.947 0 01-.814.094c-.47 0-.94-.141-1.377-.407-.439-.267-.83-.72-1.16-1.331a15.418 15.418 0 01-.923-1.91 12.733 12.733 0 00-.736-1.597c-.266-.454-.579-.783-.939-.955a1.09 1.09 0 00-.391-.078c-.157 0-.36.047-.627.156-.25.11-.579.423-.97.924-.893 1.158-1.519 2.395-1.863 3.71a12.476 12.476 0 00-.407 3.084c0 .282.015.548.031.83a.254.254 0 01.094-.047.485.485 0 01.125-.031c.032 0 .063 0 .094.016.047.015.079.046.125.094.032.046.047.094.063.14 0 .047-.016.11-.031.157l-.094.14-.047.048c-.047.078-.11.157-.157.235a.668.668 0 00-.11.203c-.015.016-.015.016-.015.031-.015.016-.015.016-.031.016a.772.772 0 01-.439.392.98.98 0 01-.297.047.817.817 0 01-.344-.079c-.141-.047-.267-.203-.345-.454-.313-1.205-.47-2.85-.47-4.9 0-.58 0-1.205.032-1.847.094-2.177.344-4.368.751-6.576-.14 0-.282.016-.407.016-.83 0-1.613-.141-2.38-.407-.281-.11-.438-.298-.454-.533zm5.089-.438c2.113-.376 3.804-1.425 5.072-3.13.892-1.253 1.41-2.396 1.519-3.445.015-.204.03-.407.03-.595 0-.752-.187-1.3-.547-1.66a.984.984 0 00-.72-.313c-.329 0-.799.204-1.41.627-.61.406-1.361 1.565-2.254 3.475a28.474 28.474 0 00-1.69 5.041z"/><path class="st1" d="M157.381 80.076c-.375 0-.767-.126-1.143-.345-.391-.235-.626-.704-.704-1.425-.032-.219-.032-.438-.032-.657 0-.548.079-1.206.251-1.957.172-.767.423-1.55.752-2.364.579-1.425 1.158-2.348 1.722-2.787.25-.188.47-.282.642-.282.234 0 .422.157.532.47.062.188.11.423.11.705 0 .61-.173 1.471-.486 2.567a28.474 28.474 0 01-1.08 2.912 9.14 9.14 0 01-.704 1.33c.156.611.485.909 1.001.909.125 0 .282-.016.439-.063a6.511 6.511 0 001.816-.97c.751-.674 1.425-1.018 2.035-1.018.078 0 .298.031.673.094.376.062.752.83 1.127 2.301.016.11.047.266.094.439.078.454.204.97.376 1.55.157.579.376 1.049.658 1.409.172.219.36.328.58.328.14 0 .296-.047.453-.125.563-.391 1.096-1.111 1.612-2.13.517-1.017.768-1.8.768-2.363 0-.157.062-.266.187-.329a.42.42 0 01.188-.047c.063 0 .141.031.235.078s.141.141.141.298c0 .689-.282 1.597-.86 2.74-.58 1.143-1.222 1.94-1.895 2.395-.36.204-.69.297-1.002.297-.36 0-.736-.172-1.159-.532-.423-.36-.814-.924-1.143-1.69-.344-.768-.579-1.425-.689-1.958a6.465 6.465 0 01-.14-.72c-.063-.516-.188-.877-.36-1.049a.27.27 0 00-.204-.078c-.22 0-.564.188-1.018.548-.61.5-1.362.924-2.254 1.252-.58.173-1.096.267-1.519.267zm-.297-3.069c.047-.125.11-.266.172-.407.391-.861.736-1.8 1.065-2.818.328-1.143.5-1.926.5-2.333 0-.078 0-.14-.015-.188-.031-.14-.079-.203-.14-.203-.095 0-.252.188-.486.548-.22.36-.454 1.017-.69 2.004a14.608 14.608 0 00-.406 3.397z"/><path class="st1" d="M173.554 80.78c-.689.392-1.378.595-2.035.595h-.595c-.36-.016-.751-.203-1.143-.58-.516-.579-.845-1.361-.955-2.348a14.412 14.412 0 01-.11-1.753c0-.282.016-.564.032-.814a.811.811 0 01.25-.517.74.74 0 01.501-.188h.047a.81.81 0 01.517.25c.125.142.188.298.188.502v.047c-.016.219-.032.454-.063.72-.062.657-.094 1.33-.094 2.02 0 .673.125 1.205.376 1.596.204.251.532.376.97.376.047 0 .22 0 .517-.016.298-.015.72-.219 1.3-.579.579-.36 1.064-.908 1.456-1.612a.37.37 0 01.219-.188c.031-.016.078-.016.11-.016.062 0 .125.016.187.047a.302.302 0 01.173.22c.015.046.015.078.015.125s0 .11-.031.156c-.486.892-1.096 1.55-1.832 1.957zm-4.43-6.23a.71.71 0 01-.22-.533c0-.204.063-.392.22-.533a.71.71 0 01.516-.219.72.72 0 01.533.22c.156.14.219.328.219.532a.71.71 0 01-.22.532.72.72 0 01-.532.22.71.71 0 01-.517-.22z"/><path class="st1" d="M175.104 90.126c-.798-.516-1.393-1.142-1.784-1.862a2.44 2.44 0 01-.33-1.19c0-.33.079-.658.235-.987.345-.642.893-1.158 1.66-1.534a11.235 11.235 0 012.505-.86c.892-.204 1.722-.361 2.474-.47.39-.063.735-.126 1.033-.173-.58-1.018-1.628-1.832-3.116-2.442-1.628-.658-2.74-1.456-3.334-2.38-.423-.673-.642-1.33-.642-1.988 0-.25.031-.501.094-.752.297-1.017.845-1.753 1.644-2.238a4.27 4.27 0 012.27-.642h.25c.893.047 1.566.344 2.035.908.251.297.376.673.376 1.127 0 .391-.094.845-.297 1.362-.125.266-.298.423-.532.438h-.079a.628.628 0 01-.485-.203.516.516 0 01-.125-.345c0-.094.015-.203.062-.313.188-.47.298-.876.298-1.19 0-.219-.063-.422-.157-.563-.235-.329-.657-.501-1.237-.501h-.11a3.006 3.006 0 00-1.737.58c-.532.39-.814.954-.861 1.69 0 .673.266 1.33.783 1.988.516.673 1.283 1.206 2.317 1.628 2.144.877 3.585 2.004 4.305 3.382.877-.266 1.707-.736 2.474-1.378.767-.642 1.456-1.565 2.066-2.77a.37.37 0 01.22-.189c.046-.015.078-.015.125-.015s.11 0 .156.031a.37.37 0 01.188.22c.016.046.016.078.016.125s0 .11-.032.156c-.689 1.346-1.44 2.364-2.27 3.053-.83.705-1.69 1.19-2.599 1.472.267.72.392 1.424.392 2.113 0 .58-.141 1.315-.423 2.223-.297.893-.923 1.722-1.91 2.49-.845.657-1.8 1.001-2.85 1.001a6.05 6.05 0 01-.531-.03c-.893-.126-1.738-.455-2.537-.972zm-1.33-3.005c0 .36.14.751.438 1.205.297.454.798.892 1.472 1.284.673.407 1.362.658 2.05.751.094 0 .188.016.267.016.798 0 1.534-.313 2.176-.955.657-.626 1.111-1.456 1.346-2.505.094-.391.126-.767.126-1.158 0-.674-.126-1.347-.392-2.02-.297.047-.658.11-1.049.172-.736.11-1.55.25-2.427.439-.876.187-1.675.453-2.395.782-.72.33-1.221.783-1.487 1.331-.094.22-.126.438-.126.658z"/><path class="st1" d="M190.103 62.823c.141.172.282.376.407.58.11.203.188.375.235.485.031.125.047.25.047.36 0 .219-.063.422-.172.61-.11.188-.266.282-.454.282a.989.989 0 01-.345-.078v.03a72.567 72.567 0 00-.626 3.821c.172 0 .344 0 .517.016.735.047 1.315.062 1.737.062.157 0 .266.063.33.188a.416.416 0 01.046.188c0 .063-.031.14-.078.235-.047.094-.141.14-.298.14-.39 0-.97-.015-1.737-.062-.204-.016-.407-.016-.627-.031a134.47 134.47 0 00-.735 6.732 74.224 74.224 0 00-.298 6.387v.204c0 1.8.141 3.1.407 3.93a.55.55 0 01.031.156.443.443 0 01-.11.266.444.444 0 01-.343.157c-.016 0-.079 0-.157-.016-.094-.016-.188-.156-.282-.423-.47-1.643-.689-3.898-.689-6.779 0-.281 0-1.33.032-3.146.031-1.8.25-4.306.641-7.515-.375-.016-.704-.016-1.017-.016h-.642c-.282.016-.517.047-.689.11-.062.015-.11.031-.157.031a.309.309 0 01-.219-.094.427.427 0 01-.125-.297v-.141c.016-.078.094-.141.235-.204.235-.078.58-.125 1.065-.14.25-.016.5-.016.782-.016.266 0 .564 0 .861.015.33-2.458.69-4.415 1.08-5.84a.757.757 0 01.705-.547c.078 0 .14.015.22.031.125.047.265.157.422.329zM200.295 75.285c-.031 0-.11.031-.219.062-.11.048-.266.157-.438.345a3.788 3.788 0 00-.392.47 9.5 9.5 0 00-1.08 1.988 11.385 11.385 0 00-.689 2.16c-.016.11-.016.22-.016.298a.737.737 0 01-.25.5.795.795 0 01-.548.204.76.76 0 01-.517-.266.7.7 0 01-.187-.485v-.047c.015-.078.015-.188.03-.329.032-.423.063-.97.095-1.66.016-.297.016-.594.016-.876 0-.392-.016-.83-.048-1.33-.03-.502-.14-.878-.344-1.112a.274.274 0 00-.22-.11c-.187 0-.422.172-.704.517-.61.767-1.205 1.8-1.784 3.13-.58 1.332-.877 2.521-.893 3.586-.015.172-.11.282-.282.329a.911.911 0 01-.297.047c-.078 0-.188-.016-.313-.047-.141-.047-.22-.141-.235-.313-.047-.83-.063-1.66-.063-2.505 0-1.675.079-3.35.25-5.042.095-.61.283-.97.58-1.048a.648.648 0 01.25-.047c.204 0 .423.11.69.297.25.204.422.47.532.798a.895.895 0 01-.047.689c-.079.188-.235.282-.454.282h-.094c-.14.987-.266 1.989-.376 3.006.642-1.612 1.3-2.818 1.957-3.632.626-.751 1.143-1.143 1.566-1.143.078 0 .25.063.5.157.267.094.502.532.72 1.3.22.766.361 1.612.424 2.535.36-.876.767-1.644 1.22-2.286.22-.297.502-.579.83-.845a1.725 1.725 0 011.034-.407h.047c.344 0 .642.188.908.58.266.438.438.923.516 1.471.079.548.11 1.096.126 1.644.015.673.078 1.237.203 1.706.11.47.391.736.846.814.078.016.156.016.25.016.47 0 1.018-.172 1.644-.501.61-.329 1.143-.908 1.597-1.706a.37.37 0 01.219-.188c.031-.016.078-.016.11-.016.062 0 .11.016.172.047a.369.369 0 01.188.22c.015.03.015.062.015.109s-.015.11-.046.172c-.517.955-1.175 1.628-1.958 2.035-.673.36-1.315.533-1.957.533-.093 0-.188 0-.281-.016-.72-.078-1.237-.313-1.566-.72-.329-.407-.532-.908-.61-1.487a12.976 12.976 0 01-.126-1.738c0-.736-.062-1.347-.188-1.848-.078-.187-.187-.297-.313-.297z"/><path class="st1" d="M211.787 76.663c-.078.657-.11 1.33-.11 2.02 0 .704.126 1.236.392 1.627.204.251.532.376.97.376.048 0 .22 0 .517-.016.282-.015.72-.219 1.3-.579.579-.36 1.064-.908 1.456-1.612a.37.37 0 01.219-.188c.031-.016.078-.016.11-.016.062 0 .11.016.171.047a.37.37 0 01.188.22c.016.03.016.062.016.109s-.016.11-.047.172c-.485.892-1.096 1.55-1.831 1.957-.69.392-1.363.595-2.036.595h-.58c-.36-.016-.75-.203-1.142-.58a3.088 3.088 0 01-.705-1.236c-.234.266-.47.517-.704.736-.673.563-1.253.86-1.753.86-.079 0-.282-.046-.595-.109-.313-.078-.61-.391-.877-.97a3.526 3.526 0 01-.313-1.456c0-.157.031-.439.078-.861.047-.423.298-.877.751-1.378.423-.439 1.003-.658 1.785-.658h.25a2.65 2.65 0 011.034.282c.016-.235.094-.438.22-.61.124-.141.297-.22.532-.22h.047c.328.032.548.188.657.486.016 0 .016 0 .031.015.094.11.173.235.22.392.015.062.031.125.031.172a.529.529 0 01-.078.266c-.016.031-.032.063-.063.078a.32.32 0 01-.14.079zm-1.644 1.737c.11-.485.172-.892.172-1.236 0-.094 0-.188-.015-.282-.016-.047-.063-.094-.157-.173a1.398 1.398 0 00-.375-.203 1.766 1.766 0 00-.502-.078c-.422.047-.751.313-1.001.83a4.016 4.016 0 00-.439 1.643v.126c0 .516.11.892.344 1.111.079.078.188.11.298.11.25 0 .595-.172 1.002-.517.298-.266.517-.704.673-1.33z"/><path class="st1" d="M216.672 90.126c-.798-.516-1.393-1.142-1.784-1.862a2.44 2.44 0 01-.33-1.19c0-.33.079-.658.235-.987.345-.642.893-1.158 1.66-1.534a11.235 11.235 0 012.505-.86c.892-.204 1.722-.361 2.473-.47.392-.063.736-.126 1.034-.173-.58-1.018-1.628-1.832-3.116-2.442-1.628-.658-2.74-1.456-3.334-2.38-.423-.673-.642-1.33-.642-1.988 0-.25.031-.501.094-.752.297-1.017.845-1.753 1.643-2.238a4.27 4.27 0 012.27-.642h.251c.892.047 1.566.344 2.035.908.251.297.376.673.376 1.127 0 .391-.094.845-.297 1.362-.126.266-.298.423-.533.438h-.078a.628.628 0 01-.485-.203.516.516 0 01-.126-.345c0-.094.016-.203.063-.313.188-.47.297-.876.297-1.19 0-.219-.062-.422-.156-.563-.235-.329-.657-.501-1.237-.501h-.11a3.006 3.006 0 00-1.737.58c-.533.39-.814.954-.861 1.69 0 .673.266 1.33.783 1.988.516.673 1.283 1.206 2.317 1.628 2.144.877 3.585 2.004 4.305 3.382.877-.266 1.707-.736 2.473-1.378.768-.642 1.456-1.565 2.067-2.77a.37.37 0 01.22-.189c.046-.015.077-.015.125-.015.047 0 .109 0 .156.031a.37.37 0 01.188.22c.016.046.016.078.016.125s0 .11-.032.156c-.689 1.346-1.44 2.364-2.27 3.053-.83.705-1.69 1.19-2.599 1.472.267.72.392 1.424.392 2.113 0 .58-.141 1.315-.423 2.223-.297.893-.924 1.722-1.91 2.49-.845.657-1.8 1.001-2.85 1.001a6.05 6.05 0 01-.531-.03c-.893-.126-1.739-.455-2.537-.972zm-1.33-3.005c0 .36.14.751.438 1.205.297.454.798.892 1.471 1.284.674.407 1.363.658 2.051.751.094 0 .188.016.267.016.798 0 1.534-.313 2.176-.955.657-.626 1.111-1.456 1.346-2.505.094-.391.125-.767.125-1.158 0-.674-.125-1.347-.391-2.02-.298.047-.658.11-1.049.172-.736.11-1.55.25-2.427.439-.876.187-1.675.453-2.395.782-.72.33-1.221.783-1.487 1.331-.094.22-.126.438-.126.658z"/></g><g><path class="st1" d="M83.012 26.539H68.42l-.903.902v.627c.417.041.626.23.626.563v24.925l-.626.627v.626H82.11c.006 0 .013-.01.022-.022l.158-.159c.006 0 .014-.009.022-.022l.159-.158c.006 0 .013-.01.022-.022l.158-.159c.006 0 .014-.009.022-.022l.159-.158c.006 0 .013-.01.022-.022l.159-.159c.093 0 .532-1.69 1.315-5.073h-.752l-.903.903c-.307 1.24-.694 2.173-1.158 2.8a3.876 3.876 0 01-.252.172l-.005.004a3.685 3.685 0 01-.524.27l-.026.011c-.09.037-.18.07-.273.1l-.006.002c-.086.028-.174.051-.263.072l-.05.013c-.093.02-.186.039-.28.053-.005 0-.01 0-.014.002a4.177 4.177 0 01-.34.034c-.095.007-.19.01-.289.01h-5.95c-.46 0-.689-.187-.689-.563V39.878l.001-.012c0-.029.004-.056.006-.083.496-.17 1.194-.255 2.096-.255h.814c2.798 0 4.196.898 4.196 2.693h.627l.18-.18.18-.181.181-.18.18-.181.181-.18v-6.013h-.626l-.903.903c0 .452-.089.847-.266 1.185a3.828 3.828 0 01-.578.263l-.01.003a4.62 4.62 0 01-.32.1l-.033.008a5.597 5.597 0 01-.326.077l-.07.012c-.104.02-.21.039-.32.054-.042.006-.086.01-.129.015-.096.012-.192.025-.293.034-.073.006-.15.01-.226.014-.076.005-.15.012-.23.015-.159.007-.323.01-.492.01h-.814c-2.004 0-3.006-.417-3.006-1.252v-8.68h5.736c1.711 0 3.006.92 3.882 2.756.303 1.127.49 1.691.564 1.691h.689l.18-.18.181-.181.18-.18.181-.181.18-.18c-.782-3.382-1.22-5.073-1.314-5.073zM112.821 52.622c-.052-.104-.516-1.675-1.393-4.712a5400.369 5400.369 0 01-6.06-21.34h-2.191l-.903.903c-4.509 16.71-6.763 25.144-6.763 25.3-.042.152-.092.29-.149.418a1.69 1.69 0 01-.155.05l-.011.003a1.839 1.839 0 01-.149.033l-.026.005a2.05 2.05 0 01-.143.018l-.036.004a2.327 2.327 0 01-.18.007h-.002l-.903.903v.626h3.946l.18-.18.18-.18.181-.181.18-.181.181-.18v-.627c-.751-.156-1.127-.448-1.127-.877v-.125c0-.023.002-.052.006-.086 0-.012.003-.029.005-.043l.01-.079c.004-.02.009-.045.012-.068l.016-.089.018-.092a11.977 11.977 0 01.1-.47 29.572 29.572 0 01.065-.289l.025-.106.052-.218.022-.092a70 70 0 01.065-.267l.014-.056c.206-.835.49-1.927.85-3.28h7.231c1.002 3.831 1.503 5.856 1.503 6.075v.091a3.19 3.19 0 01-.181.03l-.01.001c-.058.008-.119.015-.182.02l-.026.003a4.851 4.851 0 01-.18.01l-.042.003a6.084 6.084 0 01-.226.004h-.192l-.902.903v.626h7.89l.181-.18.18-.18.181-.181.18-.181.181-.18v-.627c-.689 0-1.19-.23-1.503-.689zm-10.471-19.04c.454 1.747 1.476 5.588 3.065 11.525h-6.12l3.055-11.525zM126.214 45.202l-.565-.93c.94-.456 1.732-1.018 2.377-1.688.062-.06.122-.12.18-.18.062-.06.122-.12.181-.181.062-.06.122-.12.18-.18.062-.06.122-.12.181-.18.384-.372.72-.778 1.008-1.22l.006-.008c.212-.325.397-.669.557-1.032l.02-.045c.047-.11.092-.22.134-.332.005-.011.01-.022.013-.033.092-.245.172-.499.242-.76l.02-.076c.026-.104.051-.209.074-.315l.021-.096c.024-.114.045-.23.065-.346l.01-.055c.022-.136.042-.274.059-.414l.01-.086a11 11 0 00.06-.776l.006-.13c.005-.146.008-.292.008-.441v-.69c0-2.087-.564-3.86-1.69-5.322-1.723-2.088-4.541-3.132-8.455-3.132h-5.26l-.904.903v.626c.376 0 .585.25.627.752v24.737l-.627.626v.626h4.76l.18-.18.181-.18.18-.181.181-.18.18-.181v-.626c-.417-.042-.626-.23-.626-.564v-7.239h.1c.292 0 .751-.02 1.377-.062 3.215 5.208 4.823 7.943 4.823 8.204a.248.248 0 01-.017.079l-.547.547v.563h5.073l.18-.18.18-.18.181-.181.18-.18.181-.181v-.564l-.563-.376-4.722-7.78zm-1.813-2.353a5.15 5.15 0 01-.51.28 6.014 6.014 0 01-.577.245 7 7 0 01-.32.11l-.155.044a7.878 7.878 0 01-.793.188l-.112.02a10.076 10.076 0 01-.483.071 11.32 11.32 0 01-.454.048l-.055.004a12.966 12.966 0 01-.576.033c-.169.005-.34.01-.515.01h-.063V28.219c1.247.049 2.345.295 3.294.741 2.129.992 3.194 3.35 3.194 7.077v.375c0 2.213-.355 4.05-1.065 5.512a4.815 4.815 0 01-.417.656l-.02.015c-.12.09-.244.174-.373.254zM148.753 26.539H134.16l-.903.902v.627c.418.041.627.23.627.563v24.925l-.627.627v.626h14.592c.006 0 .013-.01.022-.022l.159-.159c.005 0 .013-.009.021-.022l.16-.158c.005 0 .013-.01.021-.022l.159-.159c.005 0 .013-.009.021-.022l.16-.158c.005 0 .013-.01.021-.022l.159-.159c.094 0 .532-1.69 1.315-5.073h-.752l-.902.903c-.308 1.24-.694 2.173-1.16 2.8a3.879 3.879 0 01-.251.172l-.005.004a3.684 3.684 0 01-.524.27l-.026.011c-.09.037-.18.07-.273.1l-.006.002c-.086.028-.174.051-.262.072l-.052.013c-.092.02-.184.039-.28.053-.004 0-.008 0-.013.002a4.179 4.179 0 01-.34.034c-.095.007-.19.01-.289.01h-5.95c-.46 0-.689-.187-.689-.563V39.878l.001-.012c0-.029.004-.056.007-.083.496-.17 1.193-.255 2.096-.255h.814c2.797 0 4.196.898 4.196 2.693h.626l.18-.18.181-.181.18-.18.181-.181.18-.18v-6.013h-.626l-.902.903c0 .452-.09.847-.267 1.185a3.829 3.829 0 01-.578.263l-.01.003a4.62 4.62 0 01-.32.1l-.033.008a5.595 5.595 0 01-.326.077l-.07.012c-.104.02-.21.039-.32.054-.041.006-.086.01-.128.015-.097.012-.193.025-.294.034-.073.006-.15.01-.226.014-.076.005-.15.012-.23.015-.159.007-.322.01-.492.01h-.814c-2.004 0-3.006-.417-3.006-1.252v-8.68h5.736c1.712 0 3.006.92 3.883 2.756.302 1.127.49 1.691.563 1.691h.69l.18-.18.18-.181.18-.18.181-.181.18-.18c-.782-3.382-1.22-5.073-1.314-5.073zM195.581 26.539H180.99l-.902.902v.627c.417.041.626.23.626.563v24.925l-.626.627v.626h14.591c.006 0 .014-.01.022-.022l.159-.159c.006 0 .013-.009.022-.022l.158-.158c.006 0 .014-.01.022-.022l.159-.159c.006 0 .013-.009.022-.022l.159-.158c.005 0 .013-.01.021-.022l.159-.159c.094 0 .532-1.69 1.315-5.073h-.751l-.903.903c-.308 1.24-.694 2.173-1.159 2.8a3.876 3.876 0 01-.252.172l-.005.004a3.686 3.686 0 01-.523.27l-.026.011c-.09.037-.18.07-.273.1l-.007.002c-.086.028-.173.051-.262.072l-.051.013c-.092.02-.185.039-.28.053-.004 0-.01 0-.014.002a4.179 4.179 0 01-.339.034c-.095.007-.191.01-.29.01h-5.95c-.46 0-.689-.187-.689-.563V39.878l.001-.012c0-.029.004-.056.007-.083.496-.17 1.193-.255 2.096-.255h.814c2.797 0 4.196.898 4.196 2.693h.626l.18-.18.181-.181.18-.18.181-.181.18-.18v-6.013h-.625l-.903.903c0 .452-.09.847-.267 1.185-.087.05-.179.097-.275.141a3.828 3.828 0 01-.303.122l-.01.003c-.102.036-.209.07-.32.1l-.033.008a5.6 5.6 0 01-.326.077l-.07.012c-.104.02-.21.039-.32.054-.041.006-.085.01-.128.015-.096.012-.193.025-.294.034-.073.006-.15.01-.225.014-.077.005-.151.012-.23.015-.16.007-.323.01-.492.01h-.814c-2.005 0-3.007-.417-3.007-1.252v-8.68h5.736c1.712 0 3.006.92 3.883 2.756.302 1.127.49 1.691.564 1.691h.688l.181-.18.18-.181.181-.18.18-.181.181-.18c-.783-3.382-1.221-5.073-1.315-5.073zM209.945 45.202l-.566-.93c.94-.456 1.732-1.018 2.378-1.688l.18-.18c.062-.06.122-.12.18-.181.062-.06.123-.12.181-.18.062-.06.122-.12.18-.18.384-.372.72-.778 1.009-1.22l.006-.008c.211-.325.397-.669.556-1.032l.02-.045c.048-.11.092-.22.135-.332l.013-.033c.091-.245.172-.499.242-.76l.019-.076c.027-.104.052-.209.075-.315l.02-.096c.024-.114.046-.23.066-.346l.01-.055c.022-.136.041-.274.058-.414l.01-.086a10.968 10.968 0 00.06-.776l.006-.13c.005-.146.009-.292.009-.441v-.69c0-2.087-.564-3.86-1.691-5.322-1.723-2.088-4.54-3.132-8.455-3.132h-5.26l-.903.903v.626c.376 0 .584.25.626.752v24.737l-.626.626v.626h4.76l.18-.18.18-.18.181-.181.18-.18.181-.181v-.626c-.417-.042-.626-.23-.626-.564v-7.239h.1c.291 0 .75-.02 1.377-.062 3.215 5.208 4.822 7.943 4.822 8.204a.248.248 0 01-.016.079l-.547.547v.563h5.072l.18-.18.181-.18.18-.181.181-.18.18-.181v-.564l-.563-.376-4.721-7.78zm-1.814-2.353a5.152 5.152 0 01-.509.28 6.028 6.028 0 01-.577.245 7 7 0 01-.32.11l-.155.044a7.871 7.871 0 01-.793.188l-.112.02a10.076 10.076 0 01-.484.071c-.148.019-.299.035-.453.048l-.055.004a12.964 12.964 0 01-.576.033c-.17.005-.34.01-.516.01h-.062V28.219c1.246.049 2.345.295 3.293.741 2.13.992 3.194 3.35 3.194 7.077v.375c0 2.213-.355 4.05-1.065 5.512a4.814 4.814 0 01-.417.656l-.02.015c-.119.09-.244.174-.373.254zM233.798 31.611c-.782-3.381-1.22-5.072-1.315-5.072h-14.591l-.903.902v.627c.417.041.626.23.626.563v24.946l-.063.06-.022.004v.018l-.166.16-.014.002v.012l-.173.168-.008.001v.006l-.18.175v.626h14.592c.005 0 .013-.01.021-.022l.16-.159c.005 0 .013-.009.02-.022l.16-.158c.005 0 .013-.01.021-.022l.16-.159c.005 0 .013-.009.021-.022l.159-.158c.006 0 .013-.01.022-.022l.158-.159c.094 0 .533-1.69 1.315-5.073h-.751l-.903.903c-.308 1.24-.694 2.173-1.159 2.8a3.879 3.879 0 01-.252.172l-.005.004a3.685 3.685 0 01-.523.27l-.026.011c-.09.037-.18.07-.273.1l-.007.002c-.086.028-.173.051-.262.072l-.051.013c-.092.02-.185.039-.28.053-.004 0-.009 0-.014.002a4.179 4.179 0 01-.339.034c-.095.007-.191.01-.29.01h-5.95c-.459 0-.688-.187-.688-.563V39.878v-.012c.001-.029.004-.056.007-.083.496-.17 1.194-.255 2.096-.255h.814c2.797 0 4.196.898 4.196 2.693h.626l.18-.18.181-.181.181-.18.18-.181.181-.18v-6.013h-.626l-.903.903c0 .452-.089.847-.266 1.185a3.829 3.829 0 01-.578.263l-.011.003c-.102.036-.208.07-.32.1l-.033.008a5.595 5.595 0 01-.326.077l-.07.012c-.103.02-.209.039-.32.054-.041.006-.085.01-.128.015-.096.012-.192.025-.293.034-.073.006-.15.01-.226.014-.077.005-.151.012-.23.015-.16.007-.323.01-.492.01h-.814c-2.004 0-3.006-.417-3.006-1.252v-8.68h5.735c1.712 0 3.006.92 3.883 2.756.303 1.127.49 1.691.564 1.691h.689l.18-.18.18-.181.181-.18.18-.181.181-.18zM61.708 27.441v.627c.877.167 1.316.5 1.316 1.002v.375c0 .13-1.978 7.433-5.933 21.904a537.19 537.19 0 00-.55-2.042l-.015-.052c-.112-.412-.234-.865-.369-1.358l-.032-.119-.437-1.602-.022-.083c-.663-2.432-1.52-5.564-2.572-9.398l-.06-.217-.242-.884-.007-.025-.542-1.974-.049-.179c-.08-.292-.16-.587-.243-.885-.02-.077-.042-.153-.063-.23a23043.786 23043.786 0 00-1.238-4.51l.563-.626v-.626h-5.198l-.902.902v.627c.26 0 .553.167.876.5l2.819 10.083a1900.12 1900.12 0 00-3.481 12.61L38.876 27.73c0-.022.006-.05.017-.082l.005-.003v-.009a.853.853 0 01.035-.081c.045-.03.092-.059.146-.09v-.068c.054-.036.112-.073.18-.113v-.067a4.07 4.07 0 01.17-.107l.01-.007v-.563h-5.197l-.903.902v.627c.26 0 .553.167.877.5.751 2.537 3.152 11.284 7.202 26.24h3.945l.18-.18.181-.18.18-.18.181-.181.18-.18a9026.32 9026.32 0 00.522-1.878l.131-.474.072-.257.164-.592.086-.31.063-.228.164-.592.077-.278.088-.318.096-.345.09-.329.109-.39.08-.294.054-.193a1685.825 1685.825 0 00.217-.784l.066-.238.047-.172.122-.444.088-.315.044-.163a2217.809 2217.809 0 00.6-2.181v-.002c.15-.544.28-1.022.392-1.434.494 1.864 1.678 6.233 3.554 13.113h3.946l.18-.18.18-.181.181-.18.181-.181.18-.18c4.593-16.67 6.89-25.04 6.89-25.114.031-.087.065-.169.101-.249l.017-.037a3.35 3.35 0 01.113-.221c.29-.145.621-.218.995-.218l.18-.18.181-.181.18-.18.181-.181.18-.181v-.626h-4.446l-.903.902zM171.82 27.441v.627c.417.041.626.23.626.563v11.247h-8.115V27.916c.004-.048.01-.092.018-.136l.013-.069c.018-.001.034-.004.053-.004l.181-.181.18-.18.181-.181v-.626h-4.76l-.902.902v.627c.417.041.626.23.626.563v24.925l-.626.627v.626h4.76l.18-.18.18-.181.181-.18.18-.181.181-.18v-.627c-.417-.042-.626-.23-.626-.564V41.47h8.115v12.086l-.626.627v.626h4.76l.18-.18.18-.181.181-.18.18-.181.181-.18v-.627c-.417-.042-.626-.23-.626-.564v-24.8c.004-.048.011-.092.018-.136l.013-.069c.018 0 .035-.004.054-.004l.18-.181.18-.18.181-.181v-.626h-4.76l-.902.902z"/><g><path class="st2" d="M34.242 26.539h5.198v.563c-.335.199-.501.345-.501.439a.481.481 0 00-.063.188l6.764 24.674h.062c.042-.323 1.378-5.208 4.008-14.654l-2.818-10.083c-.324-.334-.616-.501-.877-.501v-.626h5.198v.626c-.303 0-.49.209-.563.626 4.258 15.5 6.492 23.683 6.7 24.55h.126c4.3-15.73 6.45-23.663 6.45-23.798v-.376c0-.501-.438-.835-1.315-1.002v-.626h4.447v.626c-1.024 0-1.733.543-2.13 1.628 0 .073-2.296 8.444-6.888 25.113h-3.946c-2.547-9.341-3.82-14.06-3.82-14.153h-.125c0 .115-1.295 4.832-3.883 14.153H42.32c-4.05-14.957-6.45-23.704-7.201-26.24-.324-.334-.617-.501-.877-.501v-.626zM68.42 26.539h14.592c.093 0 .532 1.69 1.315 5.072h-.69c-.072 0-.26-.563-.563-1.69-.877-1.837-2.17-2.756-3.883-2.756h-5.887c-.5 0-.751.25-.751.751v8.83c0 .836 1.002 1.253 3.006 1.253h.814c2.797 0 4.196-.897 4.196-2.693h.626v6.012h-.626c0-1.795-1.399-2.693-4.196-2.693h-.814c-2.004 0-3.006.418-3.006 1.253v12.838c0 .376.23.564.689.564h5.95c1.2 0 2.202-.46 3.005-1.378.564-.616 1.023-1.638 1.378-3.069h.752c-.783 3.382-1.222 5.073-1.315 5.073H68.42v-.626c.417-.042.626-.23.626-.564V27.73c0-.334-.209-.522-.626-.564v-.626zM105.369 26.57a5404.443 5404.443 0 006.059 21.34c.877 3.037 1.341 4.608 1.393 4.712.313.46.814.69 1.503.69v.625h-7.89v-.626h.187c1.17 0 1.754-.292 1.754-.877v-.188c0-.219-.501-2.243-1.503-6.074H98.98c-1.002 3.716-1.503 5.761-1.503 6.137v.125c0 .428.376.72 1.127.877v.626H94.66v-.626c.908 0 1.492-.48 1.753-1.44 0-.157 2.255-8.59 6.764-25.301h2.192zm-2.505 5.073l-3.57 13.464h7.265c-2.255-8.423-3.445-12.911-3.57-13.464h-.125zM115.655 26.554h5.26c3.915 0 6.733 1.044 8.455 3.132 1.127 1.461 1.691 3.235 1.691 5.323v.689c0 4.091-1.879 6.805-5.636 8.14v.064l5.51 9.08.564.376v.564h-5.072v-.564c.376-.26.563-.47.563-.626 0-.26-1.607-2.996-4.822-8.204-.626.042-1.086.063-1.378.063h-1.002v8.14c0 .335.21.523.627.564v.627h-4.76v-.626c.417-.042.626-.23.626-.564v-24.8c-.041-.501-.25-.751-.626-.751v-.627zm4.133 1.19v16.158h.063c3.163 0 5.25-.96 6.263-2.881.71-1.461 1.064-3.298 1.064-5.511v-.376c0-3.726-1.064-6.085-3.194-7.077-1.064-.5-2.317-.751-3.757-.751h-.188c-.167.062-.25.209-.25.438zM134.161 26.539h14.592c.094 0 .532 1.69 1.315 5.072h-.689c-.073 0-.261-.563-.564-1.69-.876-1.837-2.17-2.756-3.882-2.756h-5.887c-.501 0-.752.25-.752.751v8.83c0 .836 1.002 1.253 3.006 1.253h.814c2.798 0 4.196-.897 4.196-2.693h.627v6.012h-.627c0-1.795-1.398-2.693-4.196-2.693h-.814c-2.004 0-3.006.418-3.006 1.253v12.838c0 .376.23.564.69.564h5.948c1.2 0 2.203-.46 3.007-1.378.563-.616 1.022-1.638 1.377-3.069h.752c-.783 3.382-1.221 5.073-1.315 5.073H134.16v-.626c.417-.042.626-.23.626-.564V27.73c0-.334-.209-.522-.626-.564v-.626zM160.198 26.539h4.76v.626c-.377 0-.586.25-.627.751v11.962h9.018v-12.15c0-.333-.209-.521-.626-.563v-.626h4.76v.626c-.377 0-.586.25-.627.751v24.8c0 .334.209.522.626.564v.626h-4.76v-.626c.418-.042.627-.23.627-.564v-12.15h-9.018v12.15c0 .334.209.522.626.564v.626h-4.76v-.626c.418-.042.627-.23.627-.564V27.73c0-.334-.21-.522-.626-.564v-.626zM180.99 26.539h14.591c.094 0 .532 1.69 1.315 5.072h-.689c-.073 0-.26-.563-.563-1.69-.877-1.837-2.171-2.756-3.883-2.756h-5.887c-.5 0-.751.25-.751.751v8.83c0 .836 1.001 1.253 3.006 1.253h.814c2.797 0 4.196-.897 4.196-2.693h.626v6.012h-.626c0-1.795-1.4-2.693-4.196-2.693h-.814c-2.005 0-3.006.418-3.006 1.253v12.838c0 .376.229.564.688.564h5.95c1.2 0 2.202-.46 3.006-1.378.564-.616 1.023-1.638 1.378-3.069h.751c-.783 3.382-1.221 5.073-1.315 5.073H180.99v-.626c.418-.042.627-.23.627-.564V27.73c0-.334-.21-.522-.627-.564v-.626zM199.386 26.554h5.26c3.914 0 6.732 1.044 8.455 3.132 1.127 1.461 1.69 3.235 1.69 5.323v.689c0 4.091-1.878 6.805-5.636 8.14v.064l5.511 9.08.564.376v.564h-5.073v-.564c.376-.26.564-.47.564-.626 0-.26-1.608-2.996-4.822-8.204-.627.042-1.086.063-1.378.063h-1.002v8.14c0 .335.209.523.626.564v.627h-4.76v-.626c.418-.042.627-.23.627-.564v-24.8c-.042-.501-.25-.751-.626-.751v-.627zm4.133 1.19v16.158h.062c3.163 0 5.25-.96 6.263-2.881.71-1.461 1.065-3.298 1.065-5.511v-.376c0-3.726-1.065-6.085-3.194-7.077-1.065-.5-2.317-.751-3.758-.751h-.188c-.167.062-.25.209-.25.438zM217.892 26.539h14.591c.094 0 .533 1.69 1.315 5.072h-.688c-.074 0-.262-.563-.564-1.69-.877-1.837-2.171-2.756-3.883-2.756h-5.887c-.5 0-.751.25-.751.751v8.83c0 .836 1.002 1.253 3.006 1.253h.814c2.797 0 4.196-.897 4.196-2.693h.626v6.012h-.626c0-1.795-1.399-2.693-4.196-2.693h-.814c-2.004 0-3.006.418-3.006 1.253v12.838c0 .376.23.564.689.564h5.949c1.2 0 2.202-.46 3.006-1.378.564-.616 1.023-1.638 1.378-3.069h.751c-.782 3.382-1.22 5.073-1.315 5.073h-14.591v-.626c.417-.042.626-.23.626-.564V27.73c0-.334-.21-.522-.626-.564v-.626z"/></g></g><g><path class="st3" d="M19.966 89.26h.949v15.451h-.949z"/><path transform="rotate(-90 20.44 104.27)" class="st3" d="M19.966 96.545h.949v15.451h-.949z"/><path class="st2" d="M19.945 15.834L0 94.986h39.89z"/><path class="st3" d="M23.162 31.567c.197-.107.393-.217.588-.328l-.134-.53c-.078.046-.156.093-.235.138a27.048 27.048 0 01-4.801 2.15c-1.014.34-2.049.623-3.096.845l-.14.558a27.763 27.763 0 007.818-2.833zM19.86 46.444a59.322 59.322 0 007.853.525l-.131-.522h-.143a58.407 58.407 0 01-6.99-.449 43.9 43.9 0 01-6.458-1.275 35.99 35.99 0 01-1.16-.35l-.129.507c.176.056.351.112.528.165 2.166.65 4.39 1.097 6.63 1.399zM11.882 65.695a48.652 48.652 0 009.23-1.406 46.59 46.59 0 008.751-3.164 36 36 0 001.257-.635l-.131-.522c-.182.098-.364.194-.548.288-2.708 1.388-5.58 2.47-8.512 3.277a47.771 47.771 0 01-9.06 1.574 48.54 48.54 0 01-5.291.112l-.13.516c1.477.054 2.957.041 4.434-.04zM35.314 83.002a59.22 59.22 0 01-10.148.416 59.856 59.856 0 01-19.794-4.314c-.391-.16-.781-.323-1.17-.491l-.128.509a59.582 59.582 0 009.664 3.211 60.723 60.723 0 0010.158 1.538 59.43 59.43 0 0012.973-.567l-.127-.504c-.475.073-.95.141-1.428.202z"/><circle class="st0" cx="15.866" cy="58.019" r="1.965"/><circle class="st0" cx="6.548" cy="87.091" r="1.965"/><circle class="st0" cx="34.062" cy="87.938" r="1.965"/><circle class="st0" cx="22.677" cy="77.4" r="1.965"/><circle class="st4" cx="13.901" cy="70.149" r="1.525"/><circle class="st4" cx="30.097" cy="69.946" r="1.525"/><circle class="st4" cx="22.473" cy="90.886" r="1.525"/><g><circle class="st4" cx="20.542" cy="38.095" r="1.525"/></g><g><circle class="st4" cx="24.201" cy="50.531" r="1.525"/></g><g><path class="st1" d="M19.945 0l1.416 3.395 2.67.092-1.255 2.36 1.256 2.36-2.671.092-1.416 7.558-1.416-7.558-2.671-.092 1.255-2.36-1.255-2.36 2.671-.092z"/></g></g><g><path class="st1" d="M76.047 92.513c.588 1.63 1.471 2.97 2.547 3.862-1.076.891-1.96 2.231-2.547 3.861-.588-1.63-1.472-2.97-2.547-3.861 1.075-.892 1.959-2.232 2.547-3.862z"/></g><g><path class="st1" d="M135.42 9.25c.588 1.63 1.472 2.97 2.547 3.861-1.075.892-1.959 2.232-2.547 3.862-.588-1.63-1.472-2.97-2.547-3.862 1.075-.891 1.96-2.232 2.547-3.862z"/></g><g><path class="st1" d="M238.71 63.353c.587 1.63 1.471 2.97 2.547 3.862-1.076.891-1.96 2.232-2.548 3.862-.587-1.63-1.471-2.97-2.547-3.862 1.076-.892 1.96-2.232 2.547-3.862z"/></g></svg>