<svg version="1.1" id="Layer_1" xmlns="http://www.w3.org/2000/svg" x="0" y="0" viewBox="0 0 345.804 63.846" xml:space="preserve"><style>.st0{fill:#ff4040}.st1{fill:#d62727}.st2{fill:#22b277}.st3{fill:#198456}.st4{fill:#f9ac00}.st5{fill:#e27910}.st6{fill:#d30f0f}.st7{fill:#e5c10e}.st9{fill:#fff}.st10{fill:#ffe8bb}</style><path class="st0" d="M67.82 52.487l6.156.052.027-3.147c.005-.557-.066-.917-.211-1.079-.104-.112-.259-.183-.468-.213a5.917 5.917 0 00-.722-.037l-1.004-.009.014-1.619 7.652.064-.013 1.619-.825-.007c-.496-.004-.806.017-.931.065-.238.082-.386.26-.444.53-.029.126-.045.362-.048.71l-.07 8.395c-.004.565.066.924.21 1.08.104.111.261.182.47.212.16.023.4.034.72.037l.826.007-.013 1.62-7.652-.063.013-1.62 1.004.007c.495-.003.805-.028.931-.075.238-.075.385-.248.444-.52.029-.118.044-.354.047-.71l.03-3.523-6.158-.05-.029 3.522c-.005.558.066.917.21 1.078.104.113.26.184.47.214.16.021.4.034.72.037l1.004.008-.013 1.62-7.653-.064.013-1.62.826.007c.494-.003.806-.028.931-.076.238-.074.386-.247.444-.519.029-.125.045-.36.048-.71l.07-8.394c.004-.565-.066-.925-.211-1.08-.104-.111-.26-.183-.47-.212-.16-.022-.4-.035-.72-.038l-.826-.007.014-1.62 7.652.064-.014 1.62-1.004-.008c-.495-.004-.804.017-.93.065-.238.082-.385.258-.444.53-.029.119-.045.355-.047.71l-.027 3.147zM80.951 60.782l.013-1.62.449.004c.53-.002.934-.093 1.216-.273.259-.185.488-.546.688-1.081l4.075-11.246 2.99.025 4.162 11.294c.183.503.31.804.38.902.164.246.382.397.654.455.118.03.34.045.668.048l.429.003-.013 1.62-7.37-.062.013-1.62 1.15.01c.544.005.879-.041 1.006-.138a.45.45 0 00.19-.364c.001-.147-.06-.395-.181-.744l-.604-1.677-4.693-.04-.653 1.793c-.107.299-.16.514-.162.647a.422.422 0 00.227.399c.104.057.407.087.909.09l1.117.01-.013 1.62-6.647-.055zm9.345-6.153l-1.8-4.96-1.723 4.931 3.523.03zM103.998 54.524l-.03 3.513c-.004.557.066.917.21 1.078.104.113.261.183.47.213.16.022.4.035.72.038l1.004.008-.013 1.62-7.652-.064.013-1.62.826.007c.494-.003.805-.028.93-.076.239-.074.386-.247.445-.519.028-.125.045-.362.048-.71l.069-8.395c.005-.565-.066-.924-.211-1.078-.104-.113-.26-.184-.469-.214-.16-.022-.4-.034-.72-.037l-.827-.007.014-1.62 7.495.063c1.415.012 2.516.166 3.3.466 1.675.627 2.505 1.815 2.49 3.564a3.93 3.93 0 01-.443 1.837 3.065 3.065 0 01-1.193 1.255 4.664 4.664 0 01-1.865.58 22.9 22.9 0 01-2.636.115l-1.975-.017zm.013-1.62l1.41.012c1.025.008 1.755-.059 2.188-.202.908-.306 1.367-.996 1.376-2.069.009-1.08-.431-1.774-1.32-2.081-.417-.143-1.208-.219-2.372-.229l-1.244-.01-.038 4.579zM120.166 54.659l-.03 3.512c-.004.558.066.917.21 1.079.104.113.261.183.47.212.16.023.4.036.72.039l1.004.007-.013 1.62-7.651-.063.013-1.62.825.007c.494-.003.805-.029.93-.076.239-.075.386-.248.445-.519.028-.125.045-.362.048-.711l.069-8.394c.005-.565-.066-.924-.211-1.079-.104-.112-.26-.183-.469-.213-.16-.022-.4-.035-.72-.038l-.826-.006.014-1.62 7.494.063c1.415.012 2.516.166 3.3.466 1.675.627 2.505 1.815 2.49 3.564a3.93 3.93 0 01-.443 1.837 3.065 3.065 0 01-1.193 1.255 4.664 4.664 0 01-1.865.58 22.9 22.9 0 01-2.636.114l-1.975-.016zm.013-1.62l1.41.011c1.025.01 1.755-.058 2.188-.2.908-.307 1.367-.997 1.376-2.07.009-1.08-.431-1.775-1.32-2.081-.417-.143-1.208-.219-2.372-.229l-1.244-.01-.038 4.579zM136.863 55.27l-3.49-5.237c-.31-.462-.586-.803-.828-1.02-.332-.31-.741-.464-1.23-.46l-.7-.007.013-1.62 7.558.064-.013 1.619-1.057-.009c-.613-.005-.92.143-.923.442-.002.181.094.413.287.693l2.367 3.365 2.58-3.44c.182-.242.275-.447.276-.614.002-.272-.248-.41-.75-.414l-1.254-.01.014-1.62 6.605.055-.013 1.62-.492-.005c-.418-.003-.739.068-.963.212-.196.117-.431.356-.707.716l-4.28 5.693-.025 3.042c-.005.565.065.924.21 1.079.103.113.26.183.47.213.159.022.399.035.72.038l1.243.01-.012 1.62-8.311-.07.013-1.62 1.244.01c.495-.002.806-.028.932-.075.237-.075.384-.248.443-.519.03-.118.045-.354.048-.71l.025-3.042zM160.508 53.26l6.157.051.026-3.146c.005-.558-.065-.917-.21-1.08-.104-.112-.26-.182-.468-.212a5.917 5.917 0 00-.722-.038l-1.004-.008.014-1.62 7.651.064-.014 1.62-.824-.008c-.495-.004-.806.018-.93.066-.239.082-.386.259-.445.53-.028.125-.045.361-.048.71l-.07 8.395c-.004.564.066.923.21 1.079.104.112.262.182.47.213.16.022.4.034.721.037l.825.006-.013 1.62-7.652-.063.013-1.62 1.004.008c.495-.003.806-.028.932-.075.237-.076.384-.248.443-.52.03-.118.045-.354.048-.71l.03-3.523-6.158-.051-.03 3.522c-.004.558.066.917.21 1.08.104.112.26.182.47.212.16.022.4.035.72.037l1.004.008-.013 1.62-7.652-.063.013-1.62.826.007c.494-.003.805-.029.93-.077.239-.074.386-.247.445-.518.028-.125.045-.361.048-.71l.069-8.395c.005-.564-.065-.924-.21-1.079-.104-.112-.26-.183-.47-.213-.16-.022-.4-.035-.72-.037l-.827-.008.014-1.619 7.652.064-.013 1.62-1.004-.009c-.495-.004-.805.018-.93.066-.238.082-.386.257-.444.53-.03.118-.045.354-.048.71l-.026 3.146zM182.793 46.963c2.188.019 3.994.686 5.419 2 1.53 1.414 2.283 3.278 2.263 5.591-.018 2.315-.803 4.17-2.356 5.564-1.44 1.292-3.292 1.927-5.557 1.908-2.265-.019-4.106-.686-5.524-2-1.528-1.421-2.283-3.281-2.265-5.581.02-2.356.806-4.213 2.358-5.573a7.506 7.506 0 012.516-1.46c.911-.308 1.961-.458 3.146-.449zm-.193 1.692c-1.408-.012-2.523.533-3.348 1.635-.74.998-1.117 2.388-1.133 4.172-.015 1.77.34 3.164 1.063 4.18.806 1.115 1.938 1.679 3.395 1.69 1.464.013 2.604-.532 3.422-1.632.74-1.005 1.117-2.386 1.132-4.142.015-1.812-.34-3.216-1.063-4.21-.82-1.117-1.976-1.68-3.468-1.693zM198.558 60.142l2.634.022c1.185.003 1.988-.105 2.407-.325.575-.28.973-.915 1.199-1.903.107-.438.173-1.204.195-2.299l1.621.014-.05 6.178-13.256-.11.013-1.62.826.006c.494-.003.806-.027.931-.075.238-.075.386-.248.444-.52.029-.125.045-.361.048-.71l.07-8.394c.004-.565-.066-.924-.211-1.08-.104-.112-.26-.182-.47-.212-.16-.023-.4-.035-.72-.037l-.826-.007.014-1.62 7.651.063-.014 1.62-1.004-.008c-.495-.004-.803.018-.928.065-.239.082-.386.259-.445.53-.029.118-.045.355-.048.71l-.08 9.712zM212.062 58.938l.07-8.395c.005-.564-.066-.924-.211-1.079-.104-.112-.26-.183-.469-.212-.16-.023-.4-.036-.722-.039l-.909-.006.014-1.62 7.694.064-.014 1.619-.909-.007c-.495-.005-.805.018-.93.066-.239.08-.386.257-.445.529-.028.118-.045.355-.048.71l-.069 8.395c-.005.558.066.917.21 1.079.104.112.26.183.47.212.159.023.4.035.72.038l.91.007-.013 1.62-7.694-.064.012-1.62.91.008c.495-.003.806-.029.931-.076.238-.075.386-.248.444-.519.029-.125.045-.362.048-.71zM222.376 59.024l.07-8.395c.004-.564-.066-.924-.212-1.079-.103-.112-.26-.183-.469-.213-.16-.022-.4-.035-.72-.038l-.826-.006.013-1.62 8.1.068c1.249.01 2.322.16 3.224.455.899.293 1.677.742 2.334 1.347 1.322 1.216 1.973 3.017 1.953 5.4-.02 2.377-.7 4.162-2.041 5.357-.668.594-1.454 1.03-2.359 1.308s-1.98.412-3.228.401l-8.1-.067.012-1.62.826.007c.494-.003.806-.029.93-.077.239-.074.386-.247.445-.518.028-.125.045-.361.048-.71zm2.988 1.342l1.85.014c1.422.013 2.426-.118 3.014-.392.804-.384 1.4-1.097 1.785-2.139.314-.854.475-1.832.484-2.933.017-1.952-.4-3.415-1.25-4.391a2.899 2.899 0 00-1.685-.977c-.612-.123-1.365-.188-2.256-.196l-1.85-.016-.092 11.03zM237.4 62.085l.013-1.62.45.004c.528-.002.934-.093 1.215-.271.259-.187.488-.547.688-1.082l4.077-11.246 2.99.025 4.161 11.294c.184.503.31.804.38.902.164.245.383.397.654.455.118.029.341.044.668.047l.429.004-.013 1.62-7.37-.061.013-1.62 1.15.008c.544.005.879-.04 1.006-.136a.453.453 0 00.19-.365c.001-.146-.06-.394-.181-.744l-.604-1.677-4.694-.04-.652 1.793c-.108.298-.16.514-.163.647a.42.42 0 00.227.398c.104.058.407.087.91.092l1.117.01-.012 1.62-6.649-.057zm9.346-6.152l-1.8-4.96-1.724 4.93 3.524.03zM259.93 56.294l-3.49-5.235c-.31-.463-.586-.804-.828-1.021-.33-.31-.74-.463-1.23-.46l-.7-.006.014-1.62 7.558.063-.014 1.62-1.057-.01c-.613-.004-.92.143-.922.443-.002.182.093.412.287.692l2.366 3.366 2.58-3.44c.183-.242.275-.446.276-.614.002-.272-.248-.41-.75-.414l-1.254-.01.014-1.62 6.607.055-.014 1.62-.491-.004c-.418-.004-.74.066-.963.212-.196.116-.432.354-.707.714l-4.281 5.694-.026 3.042c-.005.564.066.925.21 1.079.104.112.26.184.47.213.159.022.4.034.72.037l1.244.01-.013 1.62-8.31-.069.012-1.62 1.244.01c.495-.003.806-.027.932-.075.237-.075.385-.248.443-.52.03-.118.045-.354.048-.71l.026-3.042zM271.774 62.373l.05-5.896 1.65.014c.188.957.402 1.655.641 2.096.831 1.54 2.229 2.319 4.193 2.334.935.008 1.658-.167 2.17-.525.449-.316.675-.757.68-1.321.004-.544-.184-.985-.563-1.323-.382-.337-.993-.607-1.834-.81l-2.306-.552c-1.3-.317-2.33-.72-3.085-1.207-1.054-.679-1.575-1.707-1.564-3.087.012-1.393.538-2.494 1.576-3.3.947-.724 2.138-1.08 3.574-1.069.927.008 1.703.145 2.328.406.479.206 1.093.567 1.84 1.082l.762-1.028 1.265.01-.045 5.405-1.61-.014c-.288-1.41-.815-2.446-1.583-3.108-.514-.45-1.169-.759-1.97-.925a4.558 4.558 0 00-.877-.092c-.801-.006-1.447.135-1.937.423a1.54 1.54 0 00-.56.586c-.14.254-.213.517-.215.788-.005.572.236 1.027.721 1.366.283.19.74.36 1.365.512l2.859.683c1.273.304 2.298.75 3.073 1.343.457.345.813.801 1.07 1.368.256.566.382 1.17.377 1.811a4.395 4.395 0 01-.396 1.801 3.965 3.965 0 01-1.074 1.418c-.49.414-1.08.732-1.77.957s-1.4.333-2.14.327a6.936 6.936 0 01-2.973-.704c-.417-.198-1-.562-1.747-1.09l-.482 1.332-1.463-.011z"/><g><path class="st1" d="M67.82 53.487l6.156.052.027-3.147c.005-.557-.066-.917-.211-1.079-.104-.112-.259-.183-.468-.213a5.917 5.917 0 00-.722-.037l-1.004-.009.014-1.619 7.652.064-.013 1.619-.825-.007c-.496-.004-.806.017-.931.065-.238.082-.386.26-.444.53-.029.126-.045.362-.048.71l-.07 8.395c-.004.565.066.924.21 1.08.104.111.261.182.47.212.16.023.4.034.72.037l.826.007-.013 1.62-7.652-.063.013-1.62 1.004.007c.495-.003.805-.028.931-.075.238-.075.385-.248.444-.52.029-.118.044-.354.047-.71l.03-3.523-6.158-.05-.029 3.522c-.005.558.066.917.21 1.078.104.113.26.184.47.214.16.021.4.034.72.037l1.004.008-.013 1.62-7.653-.064.013-1.62.826.007c.494-.003.806-.028.931-.076.238-.074.386-.247.444-.519.029-.125.045-.36.048-.71l.07-8.394c.004-.565-.066-.925-.211-1.08-.104-.111-.26-.183-.47-.212-.16-.022-.4-.035-.72-.038l-.826-.007.014-1.62 7.652.064-.014 1.62-1.004-.008c-.495-.004-.804.017-.93.065-.238.082-.385.258-.444.53-.029.119-.045.355-.047.71l-.027 3.147zM80.951 61.782l.013-1.62.449.004c.53-.002.934-.093 1.216-.273.259-.185.488-.546.688-1.081l4.075-11.246 2.99.025 4.162 11.294c.183.503.31.804.38.902.164.246.382.397.654.455.118.03.34.045.668.048l.429.003-.013 1.62-7.37-.062.013-1.62 1.15.01c.544.005.879-.041 1.006-.138a.45.45 0 00.19-.364c.001-.147-.06-.395-.181-.744l-.604-1.677-4.693-.04-.653 1.793c-.107.299-.16.514-.162.647a.422.422 0 00.227.399c.104.057.407.087.909.09l1.117.01-.013 1.62-6.647-.055zm9.345-6.153l-1.8-4.96-1.723 4.931 3.523.03zM103.998 55.524l-.03 3.513c-.004.557.066.917.21 1.078.104.113.261.183.47.213.16.022.4.035.72.038l1.004.008-.013 1.62-7.652-.064.013-1.62.826.007c.494-.003.805-.028.93-.076.239-.074.386-.247.445-.519.028-.125.045-.362.048-.71l.069-8.395c.005-.565-.066-.924-.211-1.078-.104-.113-.26-.184-.469-.214-.16-.022-.4-.034-.72-.037l-.827-.007.014-1.62 7.495.063c1.415.012 2.516.166 3.3.466 1.675.627 2.505 1.815 2.49 3.564a3.93 3.93 0 01-.443 1.837 3.065 3.065 0 01-1.193 1.255 4.664 4.664 0 01-1.865.58 22.9 22.9 0 01-2.636.115l-1.975-.017zm.013-1.62l1.41.012c1.025.008 1.755-.059 2.188-.202.908-.306 1.367-.996 1.376-2.069.009-1.08-.431-1.774-1.32-2.081-.417-.143-1.208-.219-2.372-.229l-1.244-.01-.038 4.579zM120.166 55.659l-.03 3.512c-.004.558.066.917.21 1.079.104.113.261.183.47.212.16.023.4.036.72.039l1.004.007-.013 1.62-7.651-.063.013-1.62.825.007c.494-.003.805-.029.93-.076.239-.075.386-.248.445-.519.028-.125.045-.362.048-.711l.069-8.394c.005-.565-.066-.924-.211-1.079-.104-.112-.26-.183-.469-.213-.16-.022-.4-.035-.72-.038l-.826-.006.014-1.62 7.494.063c1.415.012 2.516.166 3.3.466 1.675.627 2.505 1.815 2.49 3.564a3.93 3.93 0 01-.443 1.837 3.065 3.065 0 01-1.193 1.255 4.664 4.664 0 01-1.865.58 22.9 22.9 0 01-2.636.114l-1.975-.016zm.013-1.62l1.41.011c1.025.01 1.755-.058 2.188-.2.908-.307 1.367-.997 1.376-2.07.009-1.08-.431-1.775-1.32-2.081-.417-.143-1.208-.219-2.372-.229l-1.244-.01-.038 4.579zM136.863 56.27l-3.49-5.237c-.31-.462-.586-.803-.828-1.02-.332-.31-.741-.464-1.23-.46l-.7-.007.013-1.62 7.558.064-.013 1.619-1.057-.009c-.613-.005-.92.143-.923.442-.002.181.094.413.287.693l2.367 3.365 2.58-3.44c.182-.242.275-.447.276-.614.002-.272-.248-.41-.75-.414l-1.254-.01.014-1.62 6.605.055-.013 1.62-.492-.005c-.418-.003-.739.068-.963.212-.196.117-.431.356-.707.716l-4.28 5.693-.025 3.042c-.005.565.065.924.21 1.079.103.113.26.183.47.213.159.022.399.035.72.038l1.243.01-.012 1.62-8.311-.07.013-1.62 1.244.01c.495-.002.806-.028.932-.075.237-.075.384-.248.443-.519.03-.118.045-.354.048-.71l.025-3.042zM160.508 54.26l6.157.051.026-3.146c.005-.558-.065-.917-.21-1.08-.104-.112-.26-.182-.468-.212a5.917 5.917 0 00-.722-.038l-1.004-.008.014-1.62 7.651.064-.014 1.62-.824-.008c-.495-.004-.806.018-.93.066-.239.082-.386.259-.445.53-.028.125-.045.361-.048.71l-.07 8.395c-.004.564.066.923.21 1.079.104.112.262.182.47.213.16.022.4.034.721.037l.825.006-.013 1.62-7.652-.063.013-1.62 1.004.008c.495-.003.806-.028.932-.075.237-.076.384-.248.443-.52.03-.118.045-.354.048-.71l.03-3.523-6.158-.051-.03 3.522c-.004.558.066.917.21 1.08.104.112.26.182.47.212.16.022.4.035.72.037l1.004.008-.013 1.62-7.652-.063.013-1.62.826.007c.494-.003.805-.029.93-.077.239-.074.386-.247.445-.518.028-.125.045-.361.048-.71l.069-8.395c.005-.564-.065-.924-.21-1.079-.104-.112-.26-.183-.47-.213-.16-.022-.4-.035-.72-.037l-.827-.008.014-1.619 7.652.064-.013 1.62-1.004-.009c-.495-.004-.805.018-.93.066-.238.082-.386.257-.444.53-.03.118-.045.354-.048.71l-.026 3.146zM182.793 47.963c2.188.019 3.994.686 5.419 2 1.53 1.414 2.283 3.278 2.263 5.591-.018 2.315-.803 4.17-2.356 5.564-1.44 1.292-3.292 1.927-5.557 1.908-2.265-.019-4.106-.686-5.524-2-1.528-1.421-2.283-3.281-2.265-5.581.02-2.356.806-4.213 2.358-5.573a7.506 7.506 0 012.516-1.46c.911-.308 1.961-.458 3.146-.449zm-.193 1.692c-1.408-.012-2.523.533-3.348 1.635-.74.998-1.117 2.388-1.133 4.172-.015 1.77.34 3.164 1.063 4.18.806 1.115 1.938 1.679 3.395 1.69 1.464.013 2.604-.532 3.422-1.632.74-1.005 1.117-2.386 1.132-4.142.015-1.812-.34-3.216-1.063-4.21-.82-1.117-1.976-1.68-3.468-1.693zM198.558 61.142l2.634.022c1.185.003 1.988-.105 2.407-.325.575-.28.973-.915 1.199-1.903.107-.438.173-1.204.195-2.299l1.621.014-.05 6.178-13.256-.11.013-1.62.826.006c.494-.003.806-.027.931-.075.238-.075.386-.248.444-.52.029-.125.045-.361.048-.71l.07-8.394c.004-.565-.066-.924-.211-1.08-.104-.112-.26-.182-.47-.212-.16-.023-.4-.035-.72-.037l-.826-.007.014-1.62 7.651.063-.014 1.62-1.004-.008c-.495-.004-.803.018-.928.065-.239.082-.386.259-.445.53-.029.118-.045.355-.048.71l-.08 9.712zM212.062 59.938l.07-8.395c.005-.564-.066-.924-.211-1.079-.104-.112-.26-.183-.469-.212-.16-.023-.4-.036-.722-.039l-.909-.006.014-1.62 7.694.064-.014 1.619-.909-.007c-.495-.005-.805.018-.93.066-.239.08-.386.257-.445.529-.028.118-.045.355-.048.71l-.069 8.395c-.005.558.066.917.21 1.079.104.112.26.183.47.212.159.023.4.035.72.038l.91.007-.013 1.62-7.694-.064.012-1.62.91.008c.495-.003.806-.029.931-.076.238-.075.386-.248.444-.519.029-.125.045-.362.048-.71zM222.376 60.024l.07-8.395c.004-.564-.066-.924-.212-1.079-.103-.112-.26-.183-.469-.213-.16-.022-.4-.035-.72-.038l-.826-.006.013-1.62 8.1.068c1.249.01 2.322.16 3.224.455.899.293 1.677.742 2.334 1.347 1.322 1.216 1.973 3.017 1.953 5.4-.02 2.377-.7 4.162-2.041 5.357-.668.594-1.454 1.03-2.359 1.308s-1.98.412-3.228.401l-8.1-.067.012-1.62.826.007c.494-.003.806-.029.93-.077.239-.074.386-.247.445-.518.028-.125.045-.361.048-.71zm2.988 1.342l1.85.014c1.422.013 2.426-.118 3.014-.392.804-.384 1.4-1.097 1.785-2.139.314-.854.475-1.832.484-2.933.017-1.952-.4-3.415-1.25-4.391a2.899 2.899 0 00-1.685-.977c-.612-.123-1.365-.188-2.256-.196l-1.85-.016-.092 11.03zM237.4 63.085l.013-1.62.45.004c.528-.002.934-.093 1.215-.271.259-.187.488-.547.688-1.082l4.077-11.246 2.99.025 4.161 11.294c.184.503.31.804.38.902.164.245.383.397.654.455.118.029.341.044.668.047l.429.004-.013 1.62-7.37-.061.013-1.62 1.15.008c.544.005.879-.04 1.006-.136a.453.453 0 00.19-.365c.001-.146-.06-.394-.181-.744l-.604-1.677-4.694-.04-.652 1.793c-.108.298-.16.514-.163.647a.42.42 0 00.227.398c.104.058.407.087.91.092l1.117.01-.012 1.62-6.649-.057zm9.346-6.152l-1.8-4.96-1.724 4.93 3.524.03zM259.93 57.294l-3.49-5.235c-.31-.463-.586-.804-.828-1.021-.33-.31-.74-.463-1.23-.46l-.7-.006.014-1.62 7.558.063-.014 1.62-1.057-.01c-.613-.004-.92.143-.922.443-.002.182.093.412.287.692l2.366 3.366 2.58-3.44c.183-.242.275-.446.276-.614.002-.272-.248-.41-.75-.414l-1.254-.01.014-1.62 6.607.055-.014 1.62-.491-.004c-.418-.004-.74.066-.963.212-.196.116-.432.354-.707.714l-4.281 5.694-.026 3.042c-.005.564.066.925.21 1.079.104.112.26.184.47.213.159.022.4.034.72.037l1.244.01-.013 1.62-8.31-.069.012-1.62 1.244.01c.495-.003.806-.027.932-.075.237-.075.385-.248.443-.52.03-.118.045-.354.048-.71l.026-3.042zM271.774 63.373l.05-5.896 1.65.014c.188.957.402 1.655.641 2.096.831 1.54 2.229 2.319 4.193 2.334.935.008 1.658-.167 2.17-.525.449-.316.675-.757.68-1.321.004-.544-.184-.985-.563-1.323-.382-.337-.993-.607-1.834-.81l-2.306-.552c-1.3-.317-2.33-.72-3.085-1.207-1.054-.679-1.575-1.707-1.564-3.087.012-1.393.538-2.494 1.576-3.3.947-.724 2.138-1.08 3.574-1.069.927.008 1.703.145 2.328.406.479.206 1.093.567 1.84 1.082l.762-1.028 1.265.01-.045 5.405-1.61-.014c-.288-1.41-.815-2.446-1.583-3.108-.514-.45-1.169-.759-1.97-.925a4.558 4.558 0 00-.877-.092c-.801-.006-1.447.135-1.937.423a1.54 1.54 0 00-.56.586c-.14.254-.213.517-.215.788-.005.572.236 1.027.721 1.366.283.19.74.36 1.365.512l2.859.683c1.273.304 2.298.75 3.073 1.343.457.345.813.801 1.07 1.368.256.566.382 1.17.377 1.811a4.395 4.395 0 01-.396 1.801 3.965 3.965 0 01-1.074 1.418c-.49.414-1.08.732-1.77.957s-1.4.333-2.14.327a6.936 6.936 0 01-2.973-.704c-.417-.198-1-.562-1.747-1.09l-.482 1.332-1.463-.011z"/><g><path class="st1" d="M67.82 52.487l6.156.052.027-3.147c.005-.557-.066-.917-.211-1.079-.104-.112-.259-.183-.468-.213a5.917 5.917 0 00-.722-.037l-1.004-.009.014-1.619 7.652.064-.013 1.619-.825-.007c-.496-.004-.806.017-.931.065-.238.082-.386.26-.444.53-.029.126-.045.362-.048.71l-.07 8.395c-.004.565.066.924.21 1.08.104.111.261.182.47.212.16.023.4.034.72.037l.826.007-.013 1.62-7.652-.063.013-1.62 1.004.007c.495-.003.805-.028.931-.075.238-.075.385-.248.444-.52.029-.118.044-.354.047-.71l.03-3.523-6.158-.05-.029 3.522c-.005.558.066.917.21 1.078.104.113.26.184.47.214.16.021.4.034.72.037l1.004.008-.013 1.62-7.653-.064.013-1.62.826.007c.494-.003.806-.028.931-.076.238-.074.386-.247.444-.519.029-.125.045-.36.048-.71l.07-8.394c.004-.565-.066-.925-.211-1.08-.104-.111-.26-.183-.47-.212-.16-.022-.4-.035-.72-.038l-.826-.007.014-1.62 7.652.064-.014 1.62-1.004-.008c-.495-.004-.804.017-.93.065-.238.082-.385.258-.444.53-.029.119-.045.355-.047.71l-.027 3.147zM80.951 60.782l.013-1.62.449.004c.53-.002.934-.093 1.216-.273.259-.185.488-.546.688-1.081l4.075-11.246 2.99.025 4.162 11.294c.183.503.31.804.38.902.164.246.382.397.654.455.118.03.34.045.668.048l.429.003-.013 1.62-7.37-.062.013-1.62 1.15.01c.544.005.879-.041 1.006-.138a.45.45 0 00.19-.364c.001-.147-.06-.395-.181-.744l-.604-1.677-4.693-.04-.653 1.793c-.107.299-.16.514-.162.647a.422.422 0 00.227.399c.104.057.407.087.909.09l1.117.01-.013 1.62-6.647-.055zm9.345-6.153l-1.8-4.96-1.723 4.931 3.523.03zM103.998 54.524l-.03 3.513c-.004.557.066.917.21 1.078.104.113.261.183.47.213.16.022.4.035.72.038l1.004.008-.013 1.62-7.652-.064.013-1.62.826.007c.494-.003.805-.028.93-.076.239-.074.386-.247.445-.519.028-.125.045-.362.048-.71l.069-8.395c.005-.565-.066-.924-.211-1.078-.104-.113-.26-.184-.469-.214-.16-.022-.4-.034-.72-.037l-.827-.007.014-1.62 7.495.063c1.415.012 2.516.166 3.3.466 1.675.627 2.505 1.815 2.49 3.564a3.93 3.93 0 01-.443 1.837 3.065 3.065 0 01-1.193 1.255 4.664 4.664 0 01-1.865.58 22.9 22.9 0 01-2.636.115l-1.975-.017zm.013-1.62l1.41.012c1.025.008 1.755-.059 2.188-.202.908-.306 1.367-.996 1.376-2.069.009-1.08-.431-1.774-1.32-2.081-.417-.143-1.208-.219-2.372-.229l-1.244-.01-.038 4.579zM120.166 54.659l-.03 3.512c-.004.558.066.917.21 1.079.104.113.261.183.47.212.16.023.4.036.72.039l1.004.007-.013 1.62-7.651-.063.013-1.62.825.007c.494-.003.805-.029.93-.076.239-.075.386-.248.445-.519.028-.125.045-.362.048-.711l.069-8.394c.005-.565-.066-.924-.211-1.079-.104-.112-.26-.183-.469-.213-.16-.022-.4-.035-.72-.038l-.826-.006.014-1.62 7.494.063c1.415.012 2.516.166 3.3.466 1.675.627 2.505 1.815 2.49 3.564a3.93 3.93 0 01-.443 1.837 3.065 3.065 0 01-1.193 1.255 4.664 4.664 0 01-1.865.58 22.9 22.9 0 01-2.636.114l-1.975-.016zm.013-1.62l1.41.011c1.025.01 1.755-.058 2.188-.2.908-.307 1.367-.997 1.376-2.07.009-1.08-.431-1.775-1.32-2.081-.417-.143-1.208-.219-2.372-.229l-1.244-.01-.038 4.579zM136.863 55.27l-3.49-5.237c-.31-.462-.586-.803-.828-1.02-.332-.31-.741-.464-1.23-.46l-.7-.007.013-1.62 7.558.064-.013 1.619-1.057-.009c-.613-.005-.92.143-.923.442-.002.181.094.413.287.693l2.367 3.365 2.58-3.44c.182-.242.275-.447.276-.614.002-.272-.248-.41-.75-.414l-1.254-.01.014-1.62 6.605.055-.013 1.62-.492-.005c-.418-.003-.739.068-.963.212-.196.117-.431.356-.707.716l-4.28 5.693-.025 3.042c-.005.565.065.924.21 1.079.103.113.26.183.47.213.159.022.399.035.72.038l1.243.01-.012 1.62-8.311-.07.013-1.62 1.244.01c.495-.002.806-.028.932-.075.237-.075.384-.248.443-.519.03-.118.045-.354.048-.71l.025-3.042zM160.508 53.26l6.157.051.026-3.146c.005-.558-.065-.917-.21-1.08-.104-.112-.26-.182-.468-.212a5.917 5.917 0 00-.722-.038l-1.004-.008.014-1.62 7.651.064-.014 1.62-.824-.008c-.495-.004-.806.018-.93.066-.239.082-.386.259-.445.53-.028.125-.045.361-.048.71l-.07 8.395c-.004.564.066.923.21 1.079.104.112.262.182.47.213.16.022.4.034.721.037l.825.006-.013 1.62-7.652-.063.013-1.62 1.004.008c.495-.003.806-.028.932-.075.237-.076.384-.248.443-.52.03-.118.045-.354.048-.71l.03-3.523-6.158-.051-.03 3.522c-.004.558.066.917.21 1.08.104.112.26.182.47.212.16.022.4.035.72.037l1.004.008-.013 1.62-7.652-.063.013-1.62.826.007c.494-.003.805-.029.93-.077.239-.074.386-.247.445-.518.028-.125.045-.361.048-.71l.069-8.395c.005-.564-.065-.924-.21-1.079-.104-.112-.26-.183-.47-.213-.16-.022-.4-.035-.72-.037l-.827-.008.014-1.619 7.652.064-.013 1.62-1.004-.009c-.495-.004-.805.018-.93.066-.238.082-.386.257-.444.53-.03.118-.045.354-.048.71l-.026 3.146zM182.793 46.963c2.188.019 3.994.686 5.419 2 1.53 1.414 2.283 3.278 2.263 5.591-.018 2.315-.803 4.17-2.356 5.564-1.44 1.292-3.292 1.927-5.557 1.908-2.265-.019-4.106-.686-5.524-2-1.528-1.421-2.283-3.281-2.265-5.581.02-2.356.806-4.213 2.358-5.573a7.506 7.506 0 012.516-1.46c.911-.308 1.961-.458 3.146-.449zm-.193 1.692c-1.408-.012-2.523.533-3.348 1.635-.74.998-1.117 2.388-1.133 4.172-.015 1.77.34 3.164 1.063 4.18.806 1.115 1.938 1.679 3.395 1.69 1.464.013 2.604-.532 3.422-1.632.74-1.005 1.117-2.386 1.132-4.142.015-1.812-.34-3.216-1.063-4.21-.82-1.117-1.976-1.68-3.468-1.693zM198.558 60.142l2.634.022c1.185.003 1.988-.105 2.407-.325.575-.28.973-.915 1.199-1.903.107-.438.173-1.204.195-2.299l1.621.014-.05 6.178-13.256-.11.013-1.62.826.006c.494-.003.806-.027.931-.075.238-.075.386-.248.444-.52.029-.125.045-.361.048-.71l.07-8.394c.004-.565-.066-.924-.211-1.08-.104-.112-.26-.182-.47-.212-.16-.023-.4-.035-.72-.037l-.826-.007.014-1.62 7.651.063-.014 1.62-1.004-.008c-.495-.004-.803.018-.928.065-.239.082-.386.259-.445.53-.029.118-.045.355-.048.71l-.08 9.712zM212.062 58.938l.07-8.395c.005-.564-.066-.924-.211-1.079-.104-.112-.26-.183-.469-.212-.16-.023-.4-.036-.722-.039l-.909-.006.014-1.62 7.694.064-.014 1.619-.909-.007c-.495-.005-.805.018-.93.066-.239.08-.386.257-.445.529-.028.118-.045.355-.048.71l-.069 8.395c-.005.558.066.917.21 1.079.104.112.26.183.47.212.159.023.4.035.72.038l.91.007-.013 1.62-7.694-.064.012-1.62.91.008c.495-.003.806-.029.931-.076.238-.075.386-.248.444-.519.029-.125.045-.362.048-.71zM222.376 59.024l.07-8.395c.004-.564-.066-.924-.212-1.079-.103-.112-.26-.183-.469-.213-.16-.022-.4-.035-.72-.038l-.826-.006.013-1.62 8.1.068c1.249.01 2.322.16 3.224.455.899.293 1.677.742 2.334 1.347 1.322 1.216 1.973 3.017 1.953 5.4-.02 2.377-.7 4.162-2.041 5.357-.668.594-1.454 1.03-2.359 1.308s-1.98.412-3.228.401l-8.1-.067.012-1.62.826.007c.494-.003.806-.029.93-.077.239-.074.386-.247.445-.518.028-.125.045-.361.048-.71zm2.988 1.342l1.85.014c1.422.013 2.426-.118 3.014-.392.804-.384 1.4-1.097 1.785-2.139.314-.854.475-1.832.484-2.933.017-1.952-.4-3.415-1.25-4.391a2.899 2.899 0 00-1.685-.977c-.612-.123-1.365-.188-2.256-.196l-1.85-.016-.092 11.03zM237.4 62.085l.013-1.62.45.004c.528-.002.934-.093 1.215-.271.259-.187.488-.547.688-1.082l4.077-11.246 2.99.025 4.161 11.294c.184.503.31.804.38.902.164.245.383.397.654.455.118.029.341.044.668.047l.429.004-.013 1.62-7.37-.061.013-1.62 1.15.008c.544.005.879-.04 1.006-.136a.453.453 0 00.19-.365c.001-.146-.06-.394-.181-.744l-.604-1.677-4.694-.04-.652 1.793c-.108.298-.16.514-.163.647a.42.42 0 00.227.398c.104.058.407.087.91.092l1.117.01-.012 1.62-6.649-.057zm9.346-6.152l-1.8-4.96-1.724 4.93 3.524.03zM259.93 56.294l-3.49-5.235c-.31-.463-.586-.804-.828-1.021-.33-.31-.74-.463-1.23-.46l-.7-.006.014-1.62 7.558.063-.014 1.62-1.057-.01c-.613-.004-.92.143-.922.443-.002.182.093.412.287.692l2.366 3.366 2.58-3.44c.183-.242.275-.446.276-.614.002-.272-.248-.41-.75-.414l-1.254-.01.014-1.62 6.607.055-.014 1.62-.491-.004c-.418-.004-.74.066-.963.212-.196.116-.432.354-.707.714l-4.281 5.694-.026 3.042c-.005.564.066.925.21 1.079.104.112.26.184.47.213.159.022.4.034.72.037l1.244.01-.013 1.62-8.31-.069.012-1.62 1.244.01c.495-.003.806-.027.932-.075.237-.075.385-.248.443-.52.03-.118.045-.354.048-.71l.026-3.042zM271.774 62.373l.05-5.896 1.65.014c.188.957.402 1.655.641 2.096.831 1.54 2.229 2.319 4.193 2.334.935.008 1.658-.167 2.17-.525.449-.316.675-.757.68-1.321.004-.544-.184-.985-.563-1.323-.382-.337-.993-.607-1.834-.81l-2.306-.552c-1.3-.317-2.33-.72-3.085-1.207-1.054-.679-1.575-1.707-1.564-3.087.012-1.393.538-2.494 1.576-3.3.947-.724 2.138-1.08 3.574-1.069.927.008 1.703.145 2.328.406.479.206 1.093.567 1.84 1.082l.762-1.028 1.265.01-.045 5.405-1.61-.014c-.288-1.41-.815-2.446-1.583-3.108-.514-.45-1.169-.759-1.97-.925a4.558 4.558 0 00-.877-.092c-.801-.006-1.447.135-1.937.423a1.54 1.54 0 00-.56.586c-.14.254-.213.517-.215.788-.005.572.236 1.027.721 1.366.283.19.74.36 1.365.512l2.859.683c1.273.304 2.298.75 3.073 1.343.457.345.813.801 1.07 1.368.256.566.382 1.17.377 1.811a4.395 4.395 0 01-.396 1.801 3.965 3.965 0 01-1.074 1.418c-.49.414-1.08.732-1.77.957s-1.4.333-2.14.327a6.936 6.936 0 01-2.973-.704c-.417-.198-1-.562-1.747-1.09l-.482 1.332-1.463-.011z"/></g></g><g><path class="st0" d="M67.82 52.487l6.156.052.027-3.147c.005-.557-.066-.917-.211-1.079-.104-.112-.259-.183-.468-.213a5.917 5.917 0 00-.722-.037l-1.004-.009.014-1.619 7.652.064-.013 1.619-.825-.007c-.496-.004-.806.017-.931.065-.238.082-.386.26-.444.53-.029.126-.045.362-.048.71l-.07 8.395c-.004.565.066.924.21 1.08.104.111.261.182.47.212.16.023.4.034.72.037l.826.007-.013 1.62-7.652-.063.013-1.62 1.004.007c.495-.003.805-.028.931-.075.238-.075.385-.248.444-.52.029-.118.044-.354.047-.71l.03-3.523-6.158-.05-.029 3.522c-.005.558.066.917.21 1.078.104.113.26.184.47.214.16.021.4.034.72.037l1.004.008-.013 1.62-7.653-.064.013-1.62.826.007c.494-.003.806-.028.931-.076.238-.074.386-.247.444-.519.029-.125.045-.36.048-.71l.07-8.394c.004-.565-.066-.925-.211-1.08-.104-.111-.26-.183-.47-.212-.16-.022-.4-.035-.72-.038l-.826-.007.014-1.62 7.652.064-.014 1.62-1.004-.008c-.495-.004-.804.017-.93.065-.238.082-.385.258-.444.53-.029.119-.045.355-.047.71l-.027 3.147zM80.951 60.782l.013-1.62.449.004c.53-.002.934-.093 1.216-.273.259-.185.488-.546.688-1.081l4.075-11.246 2.99.025 4.162 11.294c.183.503.31.804.38.902.164.246.382.397.654.455.118.03.34.045.668.048l.429.003-.013 1.62-7.37-.062.013-1.62 1.15.01c.544.005.879-.041 1.006-.138a.45.45 0 00.19-.364c.001-.147-.06-.395-.181-.744l-.604-1.677-4.693-.04-.653 1.793c-.107.299-.16.514-.162.647a.422.422 0 00.227.399c.104.057.407.087.909.09l1.117.01-.013 1.62-6.647-.055zm9.345-6.153l-1.8-4.96-1.723 4.931 3.523.03zM103.998 54.524l-.03 3.513c-.004.557.066.917.21 1.078.104.113.261.183.47.213.16.022.4.035.72.038l1.004.008-.013 1.62-7.652-.064.013-1.62.826.007c.494-.003.805-.028.93-.076.239-.074.386-.247.445-.519.028-.125.045-.362.048-.71l.069-8.395c.005-.565-.066-.924-.211-1.078-.104-.113-.26-.184-.469-.214-.16-.022-.4-.034-.72-.037l-.827-.007.014-1.62 7.495.063c1.415.012 2.516.166 3.3.466 1.675.627 2.505 1.815 2.49 3.564a3.93 3.93 0 01-.443 1.837 3.065 3.065 0 01-1.193 1.255 4.664 4.664 0 01-1.865.58 22.9 22.9 0 01-2.636.115l-1.975-.017zm.013-1.62l1.41.012c1.025.008 1.755-.059 2.188-.202.908-.306 1.367-.996 1.376-2.069.009-1.08-.431-1.774-1.32-2.081-.417-.143-1.208-.219-2.372-.229l-1.244-.01-.038 4.579zM120.166 54.659l-.03 3.512c-.004.558.066.917.21 1.079.104.113.261.183.47.212.16.023.4.036.72.039l1.004.007-.013 1.62-7.651-.063.013-1.62.825.007c.494-.003.805-.029.93-.076.239-.075.386-.248.445-.519.028-.125.045-.362.048-.711l.069-8.394c.005-.565-.066-.924-.211-1.079-.104-.112-.26-.183-.469-.213-.16-.022-.4-.035-.72-.038l-.826-.006.014-1.62 7.494.063c1.415.012 2.516.166 3.3.466 1.675.627 2.505 1.815 2.49 3.564a3.93 3.93 0 01-.443 1.837 3.065 3.065 0 01-1.193 1.255 4.664 4.664 0 01-1.865.58 22.9 22.9 0 01-2.636.114l-1.975-.016zm.013-1.62l1.41.011c1.025.01 1.755-.058 2.188-.2.908-.307 1.367-.997 1.376-2.07.009-1.08-.431-1.775-1.32-2.081-.417-.143-1.208-.219-2.372-.229l-1.244-.01-.038 4.579zM136.863 55.27l-3.49-5.237c-.31-.462-.586-.803-.828-1.02-.332-.31-.741-.464-1.23-.46l-.7-.007.013-1.62 7.558.064-.013 1.619-1.057-.009c-.613-.005-.92.143-.923.442-.002.181.094.413.287.693l2.367 3.365 2.58-3.44c.182-.242.275-.447.276-.614.002-.272-.248-.41-.75-.414l-1.254-.01.014-1.62 6.605.055-.013 1.62-.492-.005c-.418-.003-.739.068-.963.212-.196.117-.431.356-.707.716l-4.28 5.693-.025 3.042c-.005.565.065.924.21 1.079.103.113.26.183.47.213.159.022.399.035.72.038l1.243.01-.012 1.62-8.311-.07.013-1.62 1.244.01c.495-.002.806-.028.932-.075.237-.075.384-.248.443-.519.03-.118.045-.354.048-.71l.025-3.042zM160.508 53.26l6.157.051.026-3.146c.005-.558-.065-.917-.21-1.08-.104-.112-.26-.182-.468-.212a5.917 5.917 0 00-.722-.038l-1.004-.008.014-1.62 7.651.064-.014 1.62-.824-.008c-.495-.004-.806.018-.93.066-.239.082-.386.259-.445.53-.028.125-.045.361-.048.71l-.07 8.395c-.004.564.066.923.21 1.079.104.112.262.182.47.213.16.022.4.034.721.037l.825.006-.013 1.62-7.652-.063.013-1.62 1.004.008c.495-.003.806-.028.932-.075.237-.076.384-.248.443-.52.03-.118.045-.354.048-.71l.03-3.523-6.158-.051-.03 3.522c-.004.558.066.917.21 1.08.104.112.26.182.47.212.16.022.4.035.72.037l1.004.008-.013 1.62-7.652-.063.013-1.62.826.007c.494-.003.805-.029.93-.077.239-.074.386-.247.445-.518.028-.125.045-.361.048-.71l.069-8.395c.005-.564-.065-.924-.21-1.079-.104-.112-.26-.183-.47-.213-.16-.022-.4-.035-.72-.037l-.827-.008.014-1.619 7.652.064-.013 1.62-1.004-.009c-.495-.004-.805.018-.93.066-.238.082-.386.257-.444.53-.03.118-.045.354-.048.71l-.026 3.146zM182.793 46.963c2.188.019 3.994.686 5.419 2 1.53 1.414 2.283 3.278 2.263 5.591-.018 2.315-.803 4.17-2.356 5.564-1.44 1.292-3.292 1.927-5.557 1.908-2.265-.019-4.106-.686-5.524-2-1.528-1.421-2.283-3.281-2.265-5.581.02-2.356.806-4.213 2.358-5.573a7.506 7.506 0 012.516-1.46c.911-.308 1.961-.458 3.146-.449zm-.193 1.692c-1.408-.012-2.523.533-3.348 1.635-.74.998-1.117 2.388-1.133 4.172-.015 1.77.34 3.164 1.063 4.18.806 1.115 1.938 1.679 3.395 1.69 1.464.013 2.604-.532 3.422-1.632.74-1.005 1.117-2.386 1.132-4.142.015-1.812-.34-3.216-1.063-4.21-.82-1.117-1.976-1.68-3.468-1.693zM198.558 60.142l2.634.022c1.185.003 1.988-.105 2.407-.325.575-.28.973-.915 1.199-1.903.107-.438.173-1.204.195-2.299l1.621.014-.05 6.178-13.256-.11.013-1.62.826.006c.494-.003.806-.027.931-.075.238-.075.386-.248.444-.52.029-.125.045-.361.048-.71l.07-8.394c.004-.565-.066-.924-.211-1.08-.104-.112-.26-.182-.47-.212-.16-.023-.4-.035-.72-.037l-.826-.007.014-1.62 7.651.063-.014 1.62-1.004-.008c-.495-.004-.803.018-.928.065-.239.082-.386.259-.445.53-.029.118-.045.355-.048.71l-.08 9.712zM212.062 58.938l.07-8.395c.005-.564-.066-.924-.211-1.079-.104-.112-.26-.183-.469-.212-.16-.023-.4-.036-.722-.039l-.909-.006.014-1.62 7.694.064-.014 1.619-.909-.007c-.495-.005-.805.018-.93.066-.239.08-.386.257-.445.529-.028.118-.045.355-.048.71l-.069 8.395c-.005.558.066.917.21 1.079.104.112.26.183.47.212.159.023.4.035.72.038l.91.007-.013 1.62-7.694-.064.012-1.62.91.008c.495-.003.806-.029.931-.076.238-.075.386-.248.444-.519.029-.125.045-.362.048-.71zM222.376 59.024l.07-8.395c.004-.564-.066-.924-.212-1.079-.103-.112-.26-.183-.469-.213-.16-.022-.4-.035-.72-.038l-.826-.006.013-1.62 8.1.068c1.249.01 2.322.16 3.224.455.899.293 1.677.742 2.334 1.347 1.322 1.216 1.973 3.017 1.953 5.4-.02 2.377-.7 4.162-2.041 5.357-.668.594-1.454 1.03-2.359 1.308s-1.98.412-3.228.401l-8.1-.067.012-1.62.826.007c.494-.003.806-.029.93-.077.239-.074.386-.247.445-.518.028-.125.045-.361.048-.71zm2.988 1.342l1.85.014c1.422.013 2.426-.118 3.014-.392.804-.384 1.4-1.097 1.785-2.139.314-.854.475-1.832.484-2.933.017-1.952-.4-3.415-1.25-4.391a2.899 2.899 0 00-1.685-.977c-.612-.123-1.365-.188-2.256-.196l-1.85-.016-.092 11.03zM237.4 62.085l.013-1.62.45.004c.528-.002.934-.093 1.215-.271.259-.187.488-.547.688-1.082l4.077-11.246 2.99.025 4.161 11.294c.184.503.31.804.38.902.164.245.383.397.654.455.118.029.341.044.668.047l.429.004-.013 1.62-7.37-.061.013-1.62 1.15.008c.544.005.879-.04 1.006-.136a.453.453 0 00.19-.365c.001-.146-.06-.394-.181-.744l-.604-1.677-4.694-.04-.652 1.793c-.108.298-.16.514-.163.647a.42.42 0 00.227.398c.104.058.407.087.91.092l1.117.01-.012 1.62-6.649-.057zm9.346-6.152l-1.8-4.96-1.724 4.93 3.524.03zM259.93 56.294l-3.49-5.235c-.31-.463-.586-.804-.828-1.021-.33-.31-.74-.463-1.23-.46l-.7-.006.014-1.62 7.558.063-.014 1.62-1.057-.01c-.613-.004-.92.143-.922.443-.002.182.093.412.287.692l2.366 3.366 2.58-3.44c.183-.242.275-.446.276-.614.002-.272-.248-.41-.75-.414l-1.254-.01.014-1.62 6.607.055-.014 1.62-.491-.004c-.418-.004-.74.066-.963.212-.196.116-.432.354-.707.714l-4.281 5.694-.026 3.042c-.005.564.066.925.21 1.079.104.112.26.184.47.213.159.022.4.034.72.037l1.244.01-.013 1.62-8.31-.069.012-1.62 1.244.01c.495-.003.806-.027.932-.075.237-.075.385-.248.443-.52.03-.118.045-.354.048-.71l.026-3.042zM271.774 62.373l.05-5.896 1.65.014c.188.957.402 1.655.641 2.096.831 1.54 2.229 2.319 4.193 2.334.935.008 1.658-.167 2.17-.525.449-.316.675-.757.68-1.321.004-.544-.184-.985-.563-1.323-.382-.337-.993-.607-1.834-.81l-2.306-.552c-1.3-.317-2.33-.72-3.085-1.207-1.054-.679-1.575-1.707-1.564-3.087.012-1.393.538-2.494 1.576-3.3.947-.724 2.138-1.08 3.574-1.069.927.008 1.703.145 2.328.406.479.206 1.093.567 1.84 1.082l.762-1.028 1.265.01-.045 5.405-1.61-.014c-.288-1.41-.815-2.446-1.583-3.108-.514-.45-1.169-.759-1.97-.925a4.558 4.558 0 00-.877-.092c-.801-.006-1.447.135-1.937.423a1.54 1.54 0 00-.56.586c-.14.254-.213.517-.215.788-.005.572.236 1.027.721 1.366.283.19.74.36 1.365.512l2.859.683c1.273.304 2.298.75 3.073 1.343.457.345.813.801 1.07 1.368.256.566.382 1.17.377 1.811a4.395 4.395 0 01-.396 1.801 3.965 3.965 0 01-1.074 1.418c-.49.414-1.08.732-1.77.957s-1.4.333-2.14.327a6.936 6.936 0 01-2.973-.704c-.417-.198-1-.562-1.747-1.09l-.482 1.332-1.463-.011z"/></g><g><path class="st2" d="M19.577 33.844c-.53-.096-1.107-.192-1.348-.192-.289 0-.963.192-1.685.53-.288 0-.482-.29-.482-.771v-8.762c0-.29.29-.385.723-.385s.722.24.722.722c0 5.007 3.803 8.232 9.58 8.232 3.707 0 6.066-2.358 6.066-6.017 0-1.926-2.455-3.996-6.306-5.296C20.25 19.354 15.87 14.54 15.87 9.772 15.87 3.852 20.203 0 26.702 0c.241 0 1.492.097 3.081.241.915.145 1.974.24 2.6.24h1.3c.529 0 1.925-.481 2.165-.481.145 0 .242.097.242.29v5.487c0 .53-.29.867-.722.867-.434 0-.723-.482-.723-1.156 0-2.31-2.262-3.9-5.777-3.9-2.55 0-4.14 1.397-4.14 3.419 0 1.348 1.059 2.6 2.6 3.129l8.425 2.888c4.333 2.12 7.27 6.934 7.27 12.133 0 6.932-5.874 11.506-14.684 11.506-2.889 0-6.451-.337-8.762-.819zM50.584 42.51V17.09c0-1.925-.626-2.648-2.118-2.648-.963 0-1.011-.24-1.011-.626 0-.385.096-.577.722-.577h11.795c.721 0 1.203.481 1.203 1.203v.867c1.107-1.54 4.044-2.552 7.366-2.552 6.836 0 11.361 4.333 11.361 10.88 0 6.596-4.333 10.977-10.784 10.977-2.647 0-5.969-.386-7.943-2.36v5.055c0 .578-.482 1.107-1.203 1.252h-.048c-1.349.24-2.744.722-3.467 1.107-.866.482-1.733 1.059-2.166 1.493-.482.384-2.937 1.684-3.466 1.684-.145 0-.241-.143-.241-.337zm17.764-13.191V17.765c0-1.396-1.348-2.6-3.37-2.6-2.262 0-3.803 1.252-3.803 2.745v11.553c0 1.734 1.54 2.84 3.803 2.84 2.022 0 3.37-.866 3.37-2.984zM83.613 24.409c0-9.099 6.836-11.892 12.806-11.892 6.884 0 11.506 3.178 11.506 7.559 0 .626-.29 1.01-.674 1.01H95.889c-.722 0-1.204.482-1.204 1.205v7.75c0 1.78 1.83 2.937 4.574 2.937 1.83 0 3.948-.867 5.296-2.215.481-.481.915-.77 1.155-.77.241 0 .385.096.385.24 0 .241-.337.77-.867 1.3-1.684 1.878-5.247 3.13-8.858 3.13-6.45 0-12.757-4.381-12.757-10.254zm14.201-4.43c.434 0 .723-.288.723-.722v-3.514c0-1.108-.723-1.83-1.781-1.83-1.252 0-2.07.722-2.07 1.83v3.514c0 .434.288.722.722.722h2.406zM110.142 27.49c0-4.381 3.563-7.318 8.858-7.318 1.54 0 3.851.482 5.874 1.204l1.732.625c.145 0 .241-.096.241-.289 0-4.236-1.54-7.077-3.803-7.077-1.155 0-3.13.77-4.863 1.926-.432.241-.818.337-1.106.337-.241 0-.386-.096-.386-.337 0-.337.386-.818.915-1.25 2.022-1.542 5.055-2.553 7.607-2.553 7.317 0 12.18 3.852 12.18 9.628v7.944c0 1.925.625 2.648 2.118 2.648.963 0 1.01.24 1.01.625 0 .386-.095.578-.721.578h-12.325c-.433 0-.722-.289-.673-.77v-.77c0-.193-.097-.338-.242-.338.145 0-.433.29-1.347.675-2.841 1.01-5.585 1.685-6.836 1.685-4.96 0-8.233-2.889-8.233-7.173zm16.658 1.347v-3.562c0-1.781-1.301-2.937-3.275-2.937-1.684 0-2.792 1.348-2.792 3.418V29.8c0 1.397 1.108 2.31 2.792 2.31 1.974 0 3.275-1.299 3.275-3.273zM143.604 33.603c0-.385.048-.625 1.011-.625 1.492 0 2.118-.723 2.118-2.648V6.74c0-1.926-.626-2.648-2.118-2.648-.963 0-1.01-.24-1.01-.625 0-.386.095-.578.721-.578h12.18c.481 0 .818.192.818.721v11.845c0 1.01.386 1.684 1.444 1.684.434 0 1.252-.53 2.504-1.878 3.466-3.803 6.98-6.355 10.062-6.355.963 0 1.973.241 2.984.915.386.29.626.577.626.867 0 .336-.192.578-.721.626-.194 0-.434-.048-.675-.24a4.032 4.032 0 00-2.359-.723c-2.744 0-4.573 1.203-4.573 4.381 0 .674.096 1.396.385 1.974l7.27 14.057c.914 1.685 2.407 2.215 3.899 2.215.963 0 1.01.24 1.01.625 0 .386-.095.578-.721.578h-15.647c-.626 0-.721-.192-.721-.578 0-.385.048-.625 1.01-.625 1.493 0 1.252-.53.337-2.215-1.733-3.273-3.802-7.077-4.62-8.714-.242-.481-.579-.866-.82-.866-.385 0-.674.53-.674 1.974v7.173c0 1.925.626 2.648 2.118 2.648.963 0 1.012.24 1.012.625 0 .386-.097.578-.723.578h-15.405c-.626 0-.722-.192-.722-.578zM196.661 28.74V15.07c0-.385-.481-.626-1.252-.626-1.686 0-1.781-.24-1.781-.577 0-.386.095-.626 1.252-.626 3.369 0 7.99-4.045 11.553-10.11.096-.241.24-.386.385-.386.241 0 .386.241.386.626v7.991c0 1.108 1.059 1.879 2.6 1.879 1.155 0 1.25.24 1.25.626 0 .385-.095.626-2.021.626-1.06 0-1.781.24-1.781.577v12.469c0 1.829 1.155 3.08 2.936 3.08.77 0 1.734-.288 2.408-.673.24-.145.432-.241.529-.241.048 0 .097.048.097.144 0 .193-.145.578-.386 1.06-1.348 2.262-4.621 3.755-8.184 3.755-4.814 0-7.991-2.36-7.991-5.922zM215.39 22.964c0-5.199 3.948-10.206 14.057-10.206 8.185 0 13.624 2.889 13.624 10.254 0 6.98-3.803 11.65-13.624 11.65-9.002 0-14.057-4.188-14.057-11.698zm16.85 6.21V17.573c0-2.312-.77-3.852-2.793-3.852-1.78 0-2.984 1.059-2.984 3.852v11.601c0 2.697.818 4.43 2.888 4.43 1.734 0 2.89-1.204 2.89-4.43zM262.669 25.998V17.09c0-1.925-.626-2.648-2.118-2.648-.963 0-1.011-.24-1.011-.626 0-.385.096-.577.722-.577h14.683c.626 0 .722.192.722.577 0 .386-.048.626-1.01.626-1.493 0-2.12.723-2.12 2.648v8.907c0 3.369 1.108 5.584 3.948 5.584 2.118 0 3.515-.482 3.515-1.734 0-2.55-.048-7.991-.097-12.757 0-1.925-.674-2.648-2.166-2.6-.963 0-1.01-.24-1.01-.625 0-.386.095-.578.721-.578l4.815-.048h10.687c.626 0 .722.192.722.577 0 .386-.048.626-1.011.626-1.492 0-2.118.723-2.118 2.648V30.33c0 1.925.626 2.648 2.118 2.648.963 0 1.01.24 1.01.625 0 .386-.095.578-.72.578h-11.988c-.578 0-.963-.385-.963-1.3v-1.01c-2.407 1.684-5.247 2.792-8.425 2.792-5.344 0-8.906-2.408-8.906-8.665zM297.864 34.181v-6.884c0-.385.145-.626.385-.626.289 0 .481.24.481.626 0 3.418 2.118 5.681 5.248 5.681 1.782 0 2.937-.818 2.937-2.07 0-1.445-1.108-2.744-2.744-3.323-3.948-1.347-6.596-4.091-6.596-6.835 0-4.815 3.804-7.992 9.484-7.992h2.408l1.01-.24c.337-.144.819-.242 1.156-.242.192 0 .337.193.337.482v4.429c0 .241-.145.434-.337.434-.242 0-.434-.29-.434-.723 0-1.781-1.492-2.937-3.755-2.937-1.684 0-2.84.723-2.84 1.83 0 .915.722 1.637 1.782 1.83 5.68 1.058 9.483 4.765 9.483 9.29 0 4.381-3.37 7.27-8.425 7.27h-7.173l-2.022.482c-.24 0-.385-.193-.385-.482z"/><g><path class="st3" d="M315.844 27.431c.01-.172.025-.342.025-.52 0-2.794-1.453-5.273-3.9-7.013v-7.14c0-.289-.144-.482-.336-.482-.337 0-.819.098-1.156.241l-1.01.241h-2.408c-5.68 0-9.484 3.177-9.484 7.992v3c0 2.744 2.648 5.488 6.596 6.835.944.334 1.703.913 2.184 1.616-.507.488-1.329.777-2.377.777-3.13 0-5.248-2.263-5.248-5.68 0-.386-.192-.627-.481-.627-.24 0-.385.24-.385.626v9.884c0 .29.145.482.385.482l2.022-.482h7.173c5.055 0 8.425-2.889 8.425-7.27 0-.161-.016-.32-.025-.48.01-.172.025-.342.025-.52 0-.161-.016-.32-.025-.48.01-.172.025-.342.025-.52 0-.161-.016-.32-.025-.48zm-9.458-9.81a2.636 2.636 0 01-.779-.27c.481-.246 1.104-.39 1.837-.39 2.023 0 3.422.928 3.697 2.397-1.358-.804-2.963-1.403-4.755-1.737zM35.753 11.024l-8.425-2.888c-.973-.334-1.752-.958-2.195-1.71.619-1.128 1.928-1.837 3.735-1.837 3.515 0 5.777 1.589 5.777 3.9 0 .673.29 1.155.723 1.155s.722-.337.722-.867V.29c0-.192-.097-.289-.242-.289-.24 0-1.636.481-2.166.481h-1.3c-.625 0-1.684-.095-2.599-.24C28.194.097 26.943 0 26.702 0c-6.5 0-10.832 3.852-10.832 9.772 0 .15.017.3.026.45-.01.183-.026.363-.026.55 0 .15.017.3.026.45-.01.183-.026.363-.026.55 0 .15.017.3.026.45-.01.183-.026.363-.026.551 0 4.767 4.38 9.581 10.976 12.132 3.114 1.05 5.314 2.605 6.043 4.18-.687 2.554-2.785 4.133-5.802 4.133-5.777 0-9.58-3.225-9.58-8.232 0-.482-.288-.722-.722-.722s-.723.096-.723.385V36.41c0 .481.194.77.482.77.722-.337 1.396-.53 1.685-.53.24 0 .819.097 1.348.193 2.31.482 5.873.819 8.762.819 8.81 0 14.683-4.574 14.683-11.506 0-.203-.012-.403-.021-.604.004-.133.021-.261.021-.396 0-.203-.012-.403-.021-.604.004-.133.021-.261.021-.396 0-.203-.012-.403-.021-.604.004-.133.021-.261.021-.396 0-5.2-2.936-10.014-7.27-12.133zM68.54 12.758c-3.321 0-6.258 1.011-7.365 2.552v-.867c0-.722-.482-1.203-1.203-1.203H48.176c-.626 0-.722.192-.722.577v3c0 .386.048.626 1.01.626 1.493 0 2.119.723 2.119 2.648V45.51c0 .194.096.337.241.337.53 0 2.984-1.3 3.466-1.684.433-.434 1.3-1.011 2.166-1.493.723-.385 2.118-.867 3.467-1.107h.047c.722-.145 1.204-.674 1.204-1.252v-5.055c1.974 1.974 5.296 2.36 7.943 2.36 6.451 0 10.784-4.381 10.784-10.977v-3c0-6.547-4.525-10.88-11.361-10.88zm-3.562 5.408c2.022 0 3.37 1.203 3.37 2.6v8.553c0 2.118-1.348 2.984-3.37 2.984-2.262 0-3.803-1.106-3.803-2.84V20.91c0-1.494 1.54-2.744 3.803-2.744zM96.419 12.517c-5.97 0-12.806 2.793-12.806 11.892v3c0 5.873 6.307 10.254 12.757 10.254 3.611 0 7.174-1.252 8.858-3.13.53-.53.867-1.059.867-1.3v-3c0-.144-.144-.24-.385-.24-.24 0-.674.289-1.155.77-1.348 1.348-3.466 2.215-5.296 2.215-2.745 0-4.574-1.156-4.574-2.937v-4.75c0-.723.482-1.205 1.204-1.205h11.362c.385 0 .674-.384.674-1.01v-3c0-4.381-4.622-7.559-11.506-7.559zm.337 4.397c1.058 0 1.78.721 1.78 1.829v.514c0 .434-.288.722-.722.722h-2.406c-.434 0-.723-.288-.723-.722v-.514c0-1.108.819-1.83 2.07-1.83zM140.52 33.603c0-.385-.049-.625-1.011-.625-1.493 0-2.119-.723-2.119-2.648v-7.944c0-5.776-4.862-9.628-12.18-9.628-2.551 0-5.584 1.011-7.606 2.552-.529.433-.915.914-.915 1.251v3c0 .241.145.337.386.337.288 0 .674-.096 1.106-.337 1.734-1.155 3.707-1.926 4.863-1.926 1.735 0 3.043 1.675 3.56 4.366l-1.73-.626c-2.023-.721-4.333-1.203-5.874-1.203-5.295 0-8.858 2.937-8.858 7.318 0 .175.014.345.025.515-.01.161-.025.32-.025.485 0 .175.014.345.025.515-.01.161-.025.32-.025.485 0 .175.014.345.025.515-.01.161-.025.32-.025.485 0 4.284 3.274 7.173 8.233 7.173 1.25 0 3.995-.674 6.836-1.685.914-.386 1.492-.675 1.347-.675.145 0 .242.145.242.337v.77c-.05.482.24.771.673.771h12.325c.626 0 .721-.192.721-.578v-3zm-16.995-1.492c-1.684 0-2.792-.914-2.792-2.31v-1.045c0-2.07 1.108-3.418 2.792-3.418 1.974 0 3.275 1.156 3.275 2.937v.562c0 1.974-1.301 3.274-3.275 3.274zM179.18 33.603c0-.385-.047-.625-1.01-.625-1.492 0-2.985-.53-3.9-2.215L167 16.706a3.062 3.062 0 01-.19-.492c.52-2.035 2.133-2.863 4.38-2.863.962 0 1.733.29 2.358.723.24.192.481.24.674.24.53-.048.722-.29.722-.626v-3c0-.29-.24-.578-.626-.867a5.255 5.255 0 00-2.984-.915c-3.081 0-6.596 2.552-10.062 6.355-1.252 1.349-2.07 1.878-2.504 1.878-1.058 0-1.444-.674-1.444-1.684V3.61c0-.529-.337-.721-.818-.721h-12.18c-.626 0-.722.192-.722.578v3c0 .385.048.625 1.011.625 1.492 0 2.118.722 2.118 2.648v20.59c0 1.925-.626 2.648-2.118 2.648-.963 0-1.01.24-1.01.625v3c0 .386.095.578.721.578h15.405c.626 0 .723-.192.723-.578v-3c0-.385-.049-.625-1.012-.625-1.492 0-2.118-.723-2.118-2.648v-4.173c0-1.445.29-1.974.675-1.974.24 0 .577.385.818.866.754 1.509 2.568 4.854 4.206 7.932-.88.014-.932.25-.932.622v3c0 .386.095.578.721.578h15.647c.626 0 .721-.192.721-.578v-3zM213.125 29.704c-.097 0-.29.096-.53.24-.673.386-1.636.675-2.407.675-1.781 0-2.936-1.252-2.936-3.081v-9.47c0-.336.721-.576 1.781-.576 1.926 0 2.022-.242 2.022-.626v-3c0-.386-.096-.626-1.251-.626-1.542 0-2.6-.77-2.6-1.879v-7.99c0-.386-.145-.627-.386-.627-.144 0-.289.145-.385.386-3.562 6.065-8.184 10.11-11.553 10.11-1.157 0-1.252.24-1.252.626v3c0 .337.095.577 1.781.577.77 0 1.252.241 1.252.626V31.74c0 3.562 3.177 5.922 7.991 5.922 3.563 0 6.836-1.493 8.184-3.755.24-.482.385-.867.385-1.06v-3c0-.096-.048-.144-.096-.144zM229.447 12.758c-10.11 0-14.057 5.007-14.057 10.206 0 .181.017.351.023.528-.007.158-.023.315-.023.472 0 .181.017.351.023.528-.007.158-.023.315-.023.472 0 .181.017.351.023.528-.007.158-.023.315-.023.472 0 7.51 5.055 11.699 14.057 11.699 9.821 0 13.624-4.67 13.624-11.65 0-.148-.016-.283-.02-.426.006-.192.02-.38.02-.575 0-.147-.016-.282-.02-.425.006-.192.02-.38.02-.575 0-.147-.016-.282-.02-.425.006-.192.02-.38.02-.575 0-7.365-5.44-10.254-13.624-10.254zm-.096 20.845c-2.07 0-2.888-1.732-2.888-4.429v-8.601c0-2.793 1.204-3.852 2.984-3.852 2.023 0 2.793 1.54 2.793 3.852v8.601c0 3.226-1.155 4.429-2.889 4.429zM293.672 13.817c0-.385-.096-.577-.722-.577h-10.687l-4.815.048c-.626 0-.722.192-.722.578v3c0 .384.048.626 1.011.626 1.492-.05 2.166.674 2.166 2.6.035 3.36.068 7.051.085 9.833-.06 1.191-1.432 1.657-3.503 1.657-2.84 0-3.947-2.215-3.947-5.584V20.09c0-1.925.626-2.648 2.118-2.648.963 0 1.01-.24 1.01-.626v-3c0-.385-.095-.577-.72-.577h-14.684c-.626 0-.722.192-.722.577v3c0 .386.048.626 1.01.626 1.493 0 2.119.723 2.119 2.648v8.907c0 6.257 3.562 8.665 8.906 8.665 3.178 0 6.018-1.108 8.425-2.792v1.01c0 .915.385 1.3.963 1.3h11.987c.626 0 .722-.192.722-.578v-3c0-.385-.048-.625-1.011-.625-1.492 0-2.118-.723-2.118-2.648V20.09c0-1.925.626-2.648 2.118-2.648.963 0 1.01-.24 1.01-.626v-3z"/></g><g><path class="st2" d="M19.577 33.844c-.53-.096-1.107-.192-1.348-.192-.289 0-.963.192-1.685.53-.288 0-.482-.29-.482-.771v-8.762c0-.29.29-.385.723-.385s.722.24.722.722c0 5.007 3.803 8.232 9.58 8.232 3.707 0 6.066-2.358 6.066-6.017 0-1.926-2.455-3.996-6.306-5.296C20.25 19.354 15.87 14.54 15.87 9.772 15.87 3.852 20.203 0 26.702 0c.241 0 1.492.097 3.081.241.915.145 1.974.24 2.6.24h1.3c.529 0 1.925-.481 2.165-.481.145 0 .242.097.242.29v5.487c0 .53-.29.867-.722.867-.434 0-.723-.482-.723-1.156 0-2.31-2.262-3.9-5.777-3.9-2.55 0-4.14 1.397-4.14 3.419 0 1.348 1.059 2.6 2.6 3.129l8.425 2.888c4.333 2.12 7.27 6.934 7.27 12.133 0 6.932-5.874 11.506-14.684 11.506-2.889 0-6.451-.337-8.762-.819zM50.584 42.51V17.09c0-1.925-.626-2.648-2.118-2.648-.963 0-1.011-.24-1.011-.626 0-.385.096-.577.722-.577h11.795c.721 0 1.203.481 1.203 1.203v.867c1.107-1.54 4.044-2.552 7.366-2.552 6.836 0 11.361 4.333 11.361 10.88 0 6.596-4.333 10.977-10.784 10.977-2.647 0-5.969-.386-7.943-2.36v5.055c0 .578-.482 1.107-1.203 1.252h-.048c-1.349.24-2.744.722-3.467 1.107-.866.482-1.733 1.059-2.166 1.493-.482.384-2.937 1.684-3.466 1.684-.145 0-.241-.143-.241-.337zm17.764-13.191V17.765c0-1.396-1.348-2.6-3.37-2.6-2.262 0-3.803 1.252-3.803 2.745v11.553c0 1.734 1.54 2.84 3.803 2.84 2.022 0 3.37-.866 3.37-2.984zM83.613 24.409c0-9.099 6.836-11.892 12.806-11.892 6.884 0 11.506 3.178 11.506 7.559 0 .626-.29 1.01-.674 1.01H95.889c-.722 0-1.204.482-1.204 1.205v7.75c0 1.78 1.83 2.937 4.574 2.937 1.83 0 3.948-.867 5.296-2.215.481-.481.915-.77 1.155-.77.241 0 .385.096.385.24 0 .241-.337.77-.867 1.3-1.684 1.878-5.247 3.13-8.858 3.13-6.45 0-12.757-4.381-12.757-10.254zm14.201-4.43c.434 0 .723-.288.723-.722v-3.514c0-1.108-.723-1.83-1.781-1.83-1.252 0-2.07.722-2.07 1.83v3.514c0 .434.288.722.722.722h2.406zM110.142 27.49c0-4.381 3.563-7.318 8.858-7.318 1.54 0 3.851.482 5.874 1.204l1.732.625c.145 0 .241-.096.241-.289 0-4.236-1.54-7.077-3.803-7.077-1.155 0-3.13.77-4.863 1.926-.432.241-.818.337-1.106.337-.241 0-.386-.096-.386-.337 0-.337.386-.818.915-1.25 2.022-1.542 5.055-2.553 7.607-2.553 7.317 0 12.18 3.852 12.18 9.628v7.944c0 1.925.625 2.648 2.118 2.648.963 0 1.01.24 1.01.625 0 .386-.095.578-.721.578h-12.325c-.433 0-.722-.289-.673-.77v-.77c0-.193-.097-.338-.242-.338.145 0-.433.29-1.347.675-2.841 1.01-5.585 1.685-6.836 1.685-4.96 0-8.233-2.889-8.233-7.173zm16.658 1.347v-3.562c0-1.781-1.301-2.937-3.275-2.937-1.684 0-2.792 1.348-2.792 3.418V29.8c0 1.397 1.108 2.31 2.792 2.31 1.974 0 3.275-1.299 3.275-3.273zM143.604 33.603c0-.385.048-.625 1.011-.625 1.492 0 2.118-.723 2.118-2.648V6.74c0-1.926-.626-2.648-2.118-2.648-.963 0-1.01-.24-1.01-.625 0-.386.095-.578.721-.578h12.18c.481 0 .818.192.818.721v11.845c0 1.01.386 1.684 1.444 1.684.434 0 1.252-.53 2.504-1.878 3.466-3.803 6.98-6.355 10.062-6.355.963 0 1.973.241 2.984.915.386.29.626.577.626.867 0 .336-.192.578-.721.626-.194 0-.434-.048-.675-.24a4.032 4.032 0 00-2.359-.723c-2.744 0-4.573 1.203-4.573 4.381 0 .674.096 1.396.385 1.974l7.27 14.057c.914 1.685 2.407 2.215 3.899 2.215.963 0 1.01.24 1.01.625 0 .386-.095.578-.721.578h-15.647c-.626 0-.721-.192-.721-.578 0-.385.048-.625 1.01-.625 1.493 0 1.252-.53.337-2.215-1.733-3.273-3.802-7.077-4.62-8.714-.242-.481-.579-.866-.82-.866-.385 0-.674.53-.674 1.974v7.173c0 1.925.626 2.648 2.118 2.648.963 0 1.012.24 1.012.625 0 .386-.097.578-.723.578h-15.405c-.626 0-.722-.192-.722-.578zM196.661 28.74V15.07c0-.385-.481-.626-1.252-.626-1.686 0-1.781-.24-1.781-.577 0-.386.095-.626 1.252-.626 3.369 0 7.99-4.045 11.553-10.11.096-.241.24-.386.385-.386.241 0 .386.241.386.626v7.991c0 1.108 1.059 1.879 2.6 1.879 1.155 0 1.25.24 1.25.626 0 .385-.095.626-2.021.626-1.06 0-1.781.24-1.781.577v12.469c0 1.829 1.155 3.08 2.936 3.08.77 0 1.734-.288 2.408-.673.24-.145.432-.241.529-.241.048 0 .097.048.097.144 0 .193-.145.578-.386 1.06-1.348 2.262-4.621 3.755-8.184 3.755-4.814 0-7.991-2.36-7.991-5.922zM215.39 22.964c0-5.199 3.948-10.206 14.057-10.206 8.185 0 13.624 2.889 13.624 10.254 0 6.98-3.803 11.65-13.624 11.65-9.002 0-14.057-4.188-14.057-11.698zm16.85 6.21V17.573c0-2.312-.77-3.852-2.793-3.852-1.78 0-2.984 1.059-2.984 3.852v11.601c0 2.697.818 4.43 2.888 4.43 1.734 0 2.89-1.204 2.89-4.43zM262.669 25.998V17.09c0-1.925-.626-2.648-2.118-2.648-.963 0-1.011-.24-1.011-.626 0-.385.096-.577.722-.577h14.683c.626 0 .722.192.722.577 0 .386-.048.626-1.01.626-1.493 0-2.12.723-2.12 2.648v8.907c0 3.369 1.108 5.584 3.948 5.584 2.118 0 3.515-.482 3.515-1.734 0-2.55-.048-7.991-.097-12.757 0-1.925-.674-2.648-2.166-2.6-.963 0-1.01-.24-1.01-.625 0-.386.095-.578.721-.578l4.815-.048h10.687c.626 0 .722.192.722.577 0 .386-.048.626-1.011.626-1.492 0-2.118.723-2.118 2.648V30.33c0 1.925.626 2.648 2.118 2.648.963 0 1.01.24 1.01.625 0 .386-.095.578-.72.578h-11.988c-.578 0-.963-.385-.963-1.3v-1.01c-2.407 1.684-5.247 2.792-8.425 2.792-5.344 0-8.906-2.408-8.906-8.665zM297.864 34.181v-6.884c0-.385.145-.626.385-.626.289 0 .481.24.481.626 0 3.418 2.118 5.681 5.248 5.681 1.782 0 2.937-.818 2.937-2.07 0-1.445-1.108-2.744-2.744-3.323-3.948-1.347-6.596-4.091-6.596-6.835 0-4.815 3.804-7.992 9.484-7.992h2.408l1.01-.24c.337-.144.819-.242 1.156-.242.192 0 .337.193.337.482v4.429c0 .241-.145.434-.337.434-.242 0-.434-.29-.434-.723 0-1.781-1.492-2.937-3.755-2.937-1.684 0-2.84.723-2.84 1.83 0 .915.722 1.637 1.782 1.83 5.68 1.058 9.483 4.765 9.483 9.29 0 4.381-3.37 7.27-8.425 7.27h-7.173l-2.022.482c-.24 0-.385-.193-.385-.482z"/></g></g><g><path class="st4" d="M39.649 40.874l1.142 2.74 2.157.075-1.014 1.905 1.014 1.904-2.157.075-1.142 6.1-1.143-6.1-2.156-.075 1.013-1.904-1.013-1.905 2.156-.075z"/></g><g><path class="st4" d="M325.808 7.34l1.142 2.74 2.157.075-1.014 1.904 1.014 1.905-2.157.075-1.142 6.1-1.143-6.1-2.156-.075 1.013-1.905-1.013-1.904 2.156-.075z"/></g><g><path class="st4" d="M307.327 42.504l1.143 2.74 2.156.075-1.013 1.904 1.013 1.905-2.156.075-1.143 6.1-1.143-6.1-2.156-.075 1.013-1.905-1.013-1.904 2.156-.075z"/></g><g><path class="st5" d="M7.279 31.93l-.512-2.022H5.742l-.44 1.976z"/><path class="st5" d="M6.432 30.2v-5.913-5.913-3.323c0-.181-.282-.182-.282 0v15.15c0 .181.282.182.282 0z"/><path class="st4" d="M.941 36.36c.27.618.61 1.204 1.016 1.744.316.396.67.762 1.067 1.076.402.29.836.532 1.292.725a6.934 6.934 0 001.528.385c.494.047.992.04 1.485-.02.488-.083.954-.231 1.427-.378.496-.154 1.021-.285 1.544-.273.373.008.747.082 1.093.224.29-.587.474-1.2.561-1.82a2.643 2.643 0 00-.107-.094 2.227 2.227 0 00-.277-.157 2.18 2.18 0 00-.293-.073 3.427 3.427 0 00-.646.021c-.336.056-.669.135-1.003.203a19.62 19.62 0 01-1.306.222 7.886 7.886 0 01-2.164.008 4.254 4.254 0 01-.93-.234c-.376-.143-.735-.305-1.063-.542a5.278 5.278 0 01-.907-.805 7.347 7.347 0 01-.73-.997c-.36-.588-.622-1.222-.887-1.855a15.559 15.559 0 00-.196-.445A6.034 6.034 0 00.493 34.8c.09.535.245 1.057.448 1.56z"/><path class="st4" d="M4.416 35.175c.193.235.405.453.64.646.214.152.442.281.683.386.27.096.55.162.835.203a7.53 7.53 0 001.698-.055c.466-.072.927-.169 1.388-.267.488-.105.993-.207 1.494-.19.249.01.499.043.74.104a6.004 6.004 0 00-9.044-3.93c.216.418.39.859.57 1.291.272.636.583 1.256.996 1.812zM8.493 41.848a7.451 7.451 0 01-1.802.265c-2.098.05-4.232-.787-5.66-2.34a9.205 9.205 0 01-.829-1.049 5.987 5.987 0 002.854 3.691 6.008 6.008 0 007.216-1.003c-.095 0-.19.006-.284.015-.51.092-.996.282-1.495.42z"/><path class="st6" d="M8.403 36.337c-.043.007-.088.012-.131.018l-.095.015.226-.033zM6.697 36.427a5.003 5.003 0 01-.123-.017l-.108-.01.23.027zM5.816 36.241c-.026-.01-.051-.023-.077-.034a3.892 3.892 0 01-.146-.055l.223.09zM1.577 33.568l.064.152.025.06-.089-.212zM5.174 35.914a4.06 4.06 0 01-.118-.093l-.074-.052.192.145zM10.51 37.735c.04-.006.08-.01.121-.015l.105-.018-.227.033zM11.472 37.728l.098.044.126.045-.224-.089zM11.756 37.854c.031.024.06.05.09.075.035.022.069.046.102.07l-.192-.145zM11.132 37.678c.049.005.097.012.145.02.029.003.058.003.086.006l-.23-.026zM3.483 33.514l-.063-.15-.026-.061.089.21z"/><path class="st0" d="M1.577 33.568l.09.212-.026-.06c.265.633.527 1.267.886 1.855.214.352.46.687.73.997.27.308.577.566.908.805.328.237.687.399 1.064.542.3.114.612.19.929.234.725.1 1.44.09 2.164-.008.438-.06.873-.133 1.306-.222.334-.068.667-.147 1.003-.203l-.122.015c.076-.01.152-.022.227-.033l-.105.018c.215-.026.43-.036.646-.021a2.335 2.335 0 00-.145-.021l.231.026c-.028-.003-.057-.003-.086-.005.1.017.197.042.293.073a2.143 2.143 0 00-.098-.044l.224.09a2.098 2.098 0 00-.126-.046c.096.046.188.098.277.157-.03-.025-.06-.051-.091-.075l.192.145a2.377 2.377 0 00-.101-.07c.037.03.072.062.107.095a6.003 6.003 0 00-.06-2.022 3.511 3.511 0 00-.74-.103c-.5-.018-1.006.084-1.494.189-.46.098-.922.195-1.388.267.044-.006.088-.011.131-.018l-.226.033.095-.015a7.53 7.53 0 01-1.698.055l.123.017-.231-.027.108.01a4.397 4.397 0 01-.835-.203c.026.011.05.024.077.034l-.223-.089c.048.02.097.038.146.055a3.761 3.761 0 01-.683-.386c.039.032.078.063.118.093l-.192-.145.074.052a4.636 4.636 0 01-.64-.646c.02.025.037.052.057.077l-.142-.184.085.107c-.413-.556-.724-1.176-.996-1.812a30.03 30.03 0 00-.026-.06l.026.06c-.18-.432-.354-.873-.57-1.291-.52.32-.995.724-1.405 1.203.068.147.133.296.196.445l-.064-.152z"/><path class="st6" d="M4.473 35.252c-.02-.025-.038-.052-.057-.077a1021.092 1021.092 0 00.056.077zM.491 34.805l.001-.004-.002-.017-.017-.104.018.125z"/><path class="st6" d="M.493 34.8l-.003-.016.002.017zM7.458 40.253l-.13.017-.096.016.226-.033zM4.429 39.953l-.113-.048c-.037-.014-.074-.027-.11-.042l.223.09zM9.875 41.44l.113-.013.113-.02-.226.033z"/><path class="st0" d="M11.393 39.843a3.084 3.084 0 00-1.093-.224c-.523-.012-1.048.12-1.544.273-.473.147-.94.295-1.427.378.043-.006.086-.01.13-.017l-.227.033.097-.016c-.493.061-.99.067-1.485.02l.106.014-.23-.027.124.013a6.934 6.934 0 01-1.528-.385l.113.048-.223-.09c.036.015.073.028.11.042a6.595 6.595 0 01-1.292-.725l.081.065-.192-.145.111.08a6.724 6.724 0 01-1.067-1.076l.063.085-.142-.183.079.098A8.76 8.76 0 01.94 36.36l.044.109-.09-.211.046.102a7.454 7.454 0 01-.448-1.56v.001l.013.105-.015-.101a5.986 5.986 0 00-.289 3.92c.252.368.529.72.83 1.048 1.427 1.553 3.56 2.39 5.66 2.34a7.451 7.451 0 001.801-.265c.499-.139.984-.329 1.495-.42-.038.003-.076.007-.113.012l.226-.033-.113.02c.094-.01.19-.015.284-.015a6.009 6.009 0 001.12-1.57z"/><path class="st6" d="M.506 34.906l-.014-.105-.001.004.015.101zM3.105 39.245l-.08-.065-.112-.08.192.145zM2.02 38.19l-.063-.086-.079-.098c.048.06.095.122.142.183zM.985 36.469l-.044-.11-.045-.101.089.21z"/></g><g><path class="st7" d="M332.208 39.073l-.526-2.075h-1.052l-.45 2.028z"/><circle cx="331.294" cy="48.166" r="9.315" fill="#5affff"/><path class="st9" d="M331.193 50.797c1.363 0 2.67-1.199 2.606-2.606-.063-1.412-1.145-2.606-2.606-2.606-1.363 0-2.668 1.199-2.605 2.606.063 1.412 1.145 2.606 2.605 2.606zM330.684 40.453v3.606c0 .56.869.56.869 0v-3.606c0-.558-.869-.56-.869 0zM330.684 52.022v4.057c0 .559.869.56.869 0v-4.057c0-.559-.869-.56-.869 0zM323.356 48.588h3.73c.56 0 .56-.869 0-.869h-3.73c-.56 0-.56.869 0 .869zM335.125 48.588h3.781c.559 0 .56-.869 0-.869h-3.781c-.56 0-.56.869 0 .869zM335.512 43.145l-1.062 1.063c-.396.396.218 1.01.614.614l1.062-1.062c.396-.396-.218-1.01-.614-.615zM327.173 51.485l-1.063 1.062c-.396.396.218 1.01.614.615l1.063-1.063c.396-.396-.218-1.01-.614-.614zM326.11 43.76l1.063 1.062c.395.396 1.01-.218.614-.614l-1.063-1.063c-.395-.395-1.01.219-.614.615zM334.45 52.1l1.062 1.062c.396.395 1.01-.219.614-.615l-1.062-1.062c-.396-.396-1.01.218-.614.614z"/><path class="st7" d="M331.338 37.298v-6.07-6.07-3.41c0-.186-.29-.186-.29 0v15.55c0 .187.29.187.29 0z"/></g><g><path class="st5" d="M342.35 26.163l-.374-1.475h-.748l-.32 1.442z"/><path class="st5" d="M341.732 24.902v-4.315-4.315-2.424c0-.132-.206-.133-.206 0V24.902c0 .132.206.132.206 0z"/><path class="st2" d="M338.19 27.359l.046.11.019.044-.065-.154zM339.58 27.319l-.046-.11-.019-.044.065.154zM340.302 28.587l-.04-.056a3.95 3.95 0 01-.063-.078l.103.134zM337.397 28.26l.001-.002-.001-.012c-.005-.026-.01-.051-.013-.077l.013.092z"/><path class="st2" d="M337.399 28.257l-.002-.011.001.012zM337.408 28.335l-.01-.077v.003l.01.074z"/><path class="st2" d="M345.718 29.135a4.381 4.381 0 00-8.32-.877l.01.077-.01-.074a4.367 4.367 0 00-.211 2.86 4.384 4.384 0 008.531-1.986z"/><path class="st2" d="M338.513 30.73l-.046-.062-.058-.072.104.134zM337.758 29.475l-.032-.08-.033-.074.065.154z"/><g><path transform="rotate(45 338.629 28.718)" class="st10" d="M338.189 28.277h.882v.882h-.882z"/></g><g><path transform="rotate(45 341.436 31.193)" class="st10" d="M340.996 30.752h.882v.882h-.882z"/></g><g><path transform="rotate(45 343.993 28.635)" class="st10" d="M343.554 28.194h.882v.882h-.882z"/></g></g></svg>