<svg version="1.1" id="Layer_1" xmlns="http://www.w3.org/2000/svg" x="0" y="0" viewBox="0 0 180.475 87.765" xml:space="preserve"><style>.st0{fill:#892424}.st1{fill:#bf2e2d}.st2{fill:#fff6b6}.st3{fill:none}</style><path class="st0" d="M23.75 75.837V63.893c0-.606.486-1.08 1.092-1.08.606 0 1.102.474 1.102 1.08v4.903h6.016v-4.903c0-.606.507-1.08 1.113-1.08s1.08.474 1.08 1.08v11.944c0 .606-.496 1.08-1.102 1.08-.607 0-1.091-.474-1.091-1.08v-4.848h-6.016v4.848c0 .606-.496 1.08-1.102 1.08-.606 0-1.091-.474-1.091-1.08zM36.059 71.793c0-2.898 2.369-5.256 5.256-5.256 2.875 0 5.211 2.336 5.244 5.212v4.044c0 .617-.496 1.123-1.124 1.123-.584 0-1.013-.44-1.068-1.002-.86.694-1.918 1.135-3.052 1.135-2.887 0-5.256-2.358-5.256-5.256zm8.308 0a3.022 3.022 0 00-3.052-3.041 3.036 3.036 0 00-3.053 3.04 3.059 3.059 0 003.053 3.053 3.045 3.045 0 003.052-3.052zM48.752 79.56V67.618c0-.606.485-1.08 1.09-1.08.574 0 1.059.43 1.103.992a5.242 5.242 0 013.063-.992c2.898 0 5.245 2.358 5.245 5.256s-2.347 5.256-5.245 5.256a5.166 5.166 0 01-3.063-.992v3.504c0 .606-.496 1.08-1.102 1.08-.606 0-1.091-.474-1.091-1.08zm8.308-7.767a3.022 3.022 0 00-3.052-3.041 3.036 3.036 0 00-3.052 3.04 3.059 3.059 0 003.052 3.053 3.045 3.045 0 003.052-3.052zM60.828 79.56V67.618c0-.606.485-1.08 1.091-1.08.573 0 1.058.43 1.102.992a5.242 5.242 0 013.063-.992c2.898 0 5.245 2.358 5.245 5.256s-2.347 5.256-5.245 5.256a5.166 5.166 0 01-3.063-.992v3.504c0 .606-.496 1.08-1.102 1.08-.606 0-1.09-.474-1.09-1.08zm8.308-7.767a3.022 3.022 0 00-3.052-3.041 3.036 3.036 0 00-3.052 3.04 3.059 3.059 0 003.052 3.053 3.045 3.045 0 003.052-3.052zM74.05 79.803c0-.176.033-.363.122-.55l1.498-3.372-3.526-7.79a1.166 1.166 0 01-.099-.463 1.11 1.11 0 011.09-1.102c.42 0 .816.253 1.004.672l2.688 6.093 2.733-6.093a1.115 1.115 0 011.002-.66 1.12 1.12 0 011.102 1.1c0 .155-.033.31-.099.464l-5.487 12.032a1.124 1.124 0 01-1.014.661c-.562 0-1.014-.408-1.014-.992zM88.297 75.837V63.893c0-.606.485-1.08 1.091-1.08s1.102.474 1.102 1.08v4.903h6.016v-4.903c0-.606.507-1.08 1.113-1.08s1.08.474 1.08 1.08v11.944c0 .606-.496 1.08-1.102 1.08-.606 0-1.09-.474-1.09-1.08v-4.848H90.49v4.848c0 .606-.496 1.08-1.102 1.08-.606 0-1.09-.474-1.09-1.08zM100.605 71.793c0-2.898 2.37-5.256 5.256-5.256 2.898 0 5.245 2.358 5.245 5.256s-2.347 5.256-5.245 5.256c-2.887 0-5.256-2.358-5.256-5.256zm8.308 0a3.022 3.022 0 00-3.052-3.041 3.036 3.036 0 00-3.052 3.04 3.059 3.059 0 003.052 3.053 3.045 3.045 0 003.052-3.052zM112.681 75.837V63.893c0-.606.496-1.08 1.102-1.08.606 0 1.091.474 1.091 1.08v11.944c0 .606-.485 1.08-1.09 1.08a1.086 1.086 0 01-1.103-1.08zM116.957 64.157c0-.683.55-1.223 1.223-1.223.672 0 1.223.54 1.223 1.223 0 .661-.551 1.212-1.223 1.212s-1.223-.55-1.223-1.212zm.132 11.669v-8.198c0-.606.507-1.102 1.113-1.102.617 0 1.08.496 1.08 1.102v8.198c0 .606-.485 1.09-1.091 1.09a1.103 1.103 0 01-1.102-1.09zM120.846 71.793a5.262 5.262 0 015.256-5.256c1.135 0 2.192.364 3.052.98v-3.624c0-.606.485-1.08 1.09-1.08s1.103.474 1.103 1.08v11.944c0 .606-.496 1.08-1.102 1.08-.54 0-.98-.375-1.08-.882a5.175 5.175 0 01-3.063 1.003c-2.887 0-5.256-2.358-5.256-5.245zm8.308.132v-.253a3.026 3.026 0 00-3.052-2.92 3.036 3.036 0 00-3.052 3.04 3.05 3.05 0 003.052 3.042 3.031 3.031 0 003.052-2.909zM132.933 71.793c0-2.898 2.37-5.256 5.256-5.256 2.876 0 5.212 2.336 5.245 5.212v4.044c0 .617-.496 1.123-1.124 1.123-.584 0-1.014-.44-1.069-1.002-.86.694-1.917 1.135-3.052 1.135-2.887 0-5.256-2.358-5.256-5.256zm8.308 0a3.022 3.022 0 00-3.052-3.041 3.036 3.036 0 00-3.052 3.04 3.059 3.059 0 003.052 3.053 3.045 3.045 0 003.052-3.052zM146.773 79.803c0-.176.033-.363.12-.55l1.5-3.372-3.527-7.79a1.166 1.166 0 01-.099-.463 1.11 1.11 0 011.091-1.102c.419 0 .815.253 1.003.672l2.688 6.093 2.733-6.093a1.115 1.115 0 011.003-.66 1.12 1.12 0 011.101 1.1c0 .155-.033.31-.099.464L148.8 80.134a1.124 1.124 0 01-1.014.661c-.562 0-1.013-.408-1.013-.992zM155.213 75.176a1.229 1.229 0 01-.165-.606c0-.573.462-.97 1.002-.97.331 0 .728.132.992.518.474.694 1.014.991 1.928.991.805 0 1.587-.407 1.587-1.101 0-.849-1.047-1.124-1.785-1.345-1.763-.617-3.47-1.355-3.47-3.118 0-1.851 1.74-3.03 3.624-3.03 1.234 0 2.7.485 3.207 1.476.077.166.12.331.12.474 0 .507-.462.937-.958.937-.121 0-.253.01-.363-.077-.606-.496-1.124-.882-1.918-.882-.892 0-1.51.33-1.51 1.036 0 .716.794 1.014 1.874 1.344 1.752.551 3.305 1.212 3.305 3.096 0 1.752-1.575 3.119-3.702 3.119-1.388 0-3.063-.551-3.768-1.862z"/><path class="st1" d="M24.509 75.837V63.893c0-.606.484-1.08 1.09-1.08.606 0 1.102.474 1.102 1.08v4.903h6.016v-4.903c0-.606.507-1.08 1.113-1.08s1.08.474 1.08 1.08v11.944c0 .606-.496 1.08-1.102 1.08-.606 0-1.09-.474-1.09-1.08v-4.848H26.7v4.848c0 .606-.496 1.08-1.102 1.08-.606 0-1.09-.474-1.09-1.08zM36.816 71.793c0-2.898 2.37-5.256 5.256-5.256 2.876 0 5.212 2.336 5.245 5.212v4.044c0 .617-.496 1.123-1.124 1.123-.584 0-1.014-.44-1.069-1.002-.86.694-1.917 1.135-3.052 1.135-2.887 0-5.256-2.358-5.256-5.256zm8.308 0a3.022 3.022 0 00-3.052-3.041 3.036 3.036 0 00-3.052 3.04 3.059 3.059 0 003.052 3.053 3.045 3.045 0 003.052-3.052zM49.51 79.56V67.618c0-.606.484-1.08 1.09-1.08.573 0 1.058.43 1.102.992a5.242 5.242 0 013.063-.992c2.898 0 5.245 2.358 5.245 5.256s-2.347 5.256-5.245 5.256a5.166 5.166 0 01-3.063-.992v3.504c0 .606-.496 1.08-1.102 1.08-.606 0-1.09-.474-1.09-1.08zm8.307-7.767a3.022 3.022 0 00-3.052-3.041 3.036 3.036 0 00-3.052 3.04 3.059 3.059 0 003.052 3.053 3.045 3.045 0 003.052-3.052zM61.586 79.56V67.618c0-.606.485-1.08 1.09-1.08.574 0 1.058.43 1.103.992a5.242 5.242 0 013.063-.992c2.898 0 5.244 2.358 5.244 5.256s-2.346 5.256-5.244 5.256a5.166 5.166 0 01-3.063-.992v3.504c0 .606-.496 1.08-1.102 1.08-.606 0-1.091-.474-1.091-1.08zm8.308-7.767a3.022 3.022 0 00-3.052-3.041 3.036 3.036 0 00-3.053 3.04 3.059 3.059 0 003.053 3.053 3.045 3.045 0 003.052-3.052zM74.808 79.803c0-.176.033-.363.121-.55l1.499-3.372-3.526-7.79a1.166 1.166 0 01-.1-.463 1.11 1.11 0 011.091-1.102c.42 0 .816.253 1.003.672l2.689 6.093 2.732-6.093a1.115 1.115 0 011.003-.66 1.12 1.12 0 011.102 1.1c0 .155-.033.31-.1.464l-5.487 12.032a1.124 1.124 0 01-1.013.661c-.562 0-1.014-.408-1.014-.992zM89.055 75.837V63.893c0-.606.485-1.08 1.09-1.08.607 0 1.103.474 1.103 1.08v4.903h6.016v-4.903c0-.606.507-1.08 1.113-1.08s1.08.474 1.08 1.08v11.944c0 .606-.496 1.08-1.102 1.08-.606 0-1.091-.474-1.091-1.08v-4.848h-6.016v4.848c0 .606-.496 1.08-1.102 1.08-.606 0-1.09-.474-1.09-1.08zM101.363 71.793c0-2.898 2.369-5.256 5.256-5.256 2.897 0 5.244 2.358 5.244 5.256s-2.347 5.256-5.244 5.256c-2.887 0-5.256-2.358-5.256-5.256zm8.308 0a3.022 3.022 0 00-3.052-3.041 3.036 3.036 0 00-3.053 3.04 3.059 3.059 0 003.053 3.053 3.045 3.045 0 003.052-3.052zM113.439 75.837V63.893c0-.606.496-1.08 1.102-1.08.606 0 1.09.474 1.09 1.08v11.944c0 .606-.484 1.08-1.09 1.08a1.086 1.086 0 01-1.102-1.08zM117.714 64.157c0-.683.551-1.223 1.223-1.223s1.223.54 1.223 1.223c0 .661-.55 1.212-1.223 1.212-.672 0-1.223-.55-1.223-1.212zm.132 11.669v-8.198c0-.606.507-1.102 1.113-1.102.617 0 1.08.496 1.08 1.102v8.198c0 .606-.485 1.09-1.09 1.09a1.103 1.103 0 01-1.103-1.09zM121.604 71.793a5.262 5.262 0 015.255-5.256c1.135 0 2.193.364 3.052.98v-3.624c0-.606.485-1.08 1.091-1.08s1.102.474 1.102 1.08v11.944c0 .606-.496 1.08-1.102 1.08-.54 0-.98-.375-1.08-.882a5.175 5.175 0 01-3.063 1.003c-2.886 0-5.255-2.358-5.255-5.245zm8.307.132v-.253a3.026 3.026 0 00-3.052-2.92 3.036 3.036 0 00-3.052 3.04 3.05 3.05 0 003.052 3.042 3.031 3.031 0 003.052-2.909zM133.691 71.793c0-2.898 2.369-5.256 5.256-5.256 2.876 0 5.212 2.336 5.245 5.212v4.044c0 .617-.496 1.123-1.124 1.123-.584 0-1.014-.44-1.07-1.002-.859.694-1.916 1.135-3.051 1.135-2.887 0-5.256-2.358-5.256-5.256zm8.308 0a3.022 3.022 0 00-3.052-3.041 3.036 3.036 0 00-3.052 3.04 3.059 3.059 0 003.052 3.053 3.045 3.045 0 003.052-3.052zM147.53 79.803c0-.176.033-.363.121-.55l1.499-3.372-3.526-7.79a1.166 1.166 0 01-.1-.463 1.11 1.11 0 011.092-1.102c.418 0 .815.253 1.002.672l2.689 6.093 2.732-6.093a1.115 1.115 0 011.003-.66 1.12 1.12 0 011.102 1.1c0 .155-.033.31-.1.464l-5.486 12.032a1.124 1.124 0 01-1.014.661c-.562 0-1.014-.408-1.014-.992zM155.97 75.176a1.229 1.229 0 01-.165-.606c0-.573.463-.97 1.003-.97.33 0 .727.132.992.518.473.694 1.013.991 1.928.991.804 0 1.587-.407 1.587-1.101 0-.849-1.047-1.124-1.786-1.345-1.762-.617-3.47-1.355-3.47-3.118 0-1.851 1.74-3.03 3.625-3.03 1.234 0 2.7.485 3.206 1.476.077.166.121.331.121.474 0 .507-.462.937-.958.937-.121 0-.254.01-.364-.077-.606-.496-1.124-.882-1.917-.882-.892 0-1.51.33-1.51 1.036 0 .716.794 1.014 1.874 1.344 1.752.551 3.305 1.212 3.305 3.096 0 1.752-1.576 3.119-3.702 3.119-1.388 0-3.063-.551-3.768-1.862z"/><path class="st0" d="M12.462 40.895l-.643-1.186-.93-1.716-.54-1-1.59-2.934-1.307-2.411-.246-.454-1.79-3.303-1.332-2.459-.188-.347L3 23.434l-.282-.522-.064-.118-.011-.02a4.328 4.328 0 01-.069-.133l-.018-.04-.018-.014c.006.026-.001.015-.013-.01-.029-.064-.085-.221-.012-.07l.006.013c-.06-.203-.087-.408-.137-.613l.023.096a.907.907 0 01-.018-.138c-.002-.122.009-.24.015-.361l-.014.037a.365.365 0 00.02-.102 3.278 3.278 0 01.087-.336c.026-.077.076-.167.1-.249l-.025.047c-.095.166.03-.065.035-.09a.377.377 0 01-.01.043c.024-.046.048-.092.074-.137.046-.078.097-.15.147-.225l-.016.009a.104.104 0 00.023-.02l.019-.027a.217.217 0 01.055-.063 3.267 3.267 0 01.335-.314l.004-.004-.03.018c-.103.064.235-.186.03-.018.127-.079.252-.155.386-.22l.068-.035.066-.027c-.069.024-.172.06-.012 0 .143-.053.076-.026.012 0l.044-.015a3.28 3.28 0 01.347-.086l.015-.002.06-.01a.29.29 0 01-.033-.005c.025.006.29-.043.098-.006l-.066.01c.096.011.227-.016.318-.013.092.002.183.013.275.019l-.057-.013c-.152-.042.3.027.06.013h-.003l.146.031c.101.026.201.056.3.09l.051.02-.01-.01a.437.437 0 00.08.037c.003 0 .005.002.008.003l-.008-.003a6.36 6.36 0 01-.07-.027c.058.057.232.118.296.157.08.05.171.144.26.187l-.05-.046c-.145-.135.056.05.078.058a.28.28 0 01-.028-.012l.054.05c.075.072.145.148.213.226a.243.243 0 01.06.068l.011.02a.792.792 0 00.013.02c.045.071.088.143.13.217.116.21.228.422.342.633.03.053.058.106.086.159l.208.383c.297.548 1.064.812 1.616.48.553-.333.798-1.028.48-1.615-.213-.392-.422-.787-.639-1.178a4.621 4.621 0 00-.963-1.206 4.537 4.537 0 00-1.639-.938 4.27 4.27 0 00-.923-.185 4.658 4.658 0 00-2.394.437c-.211.1-.41.217-.597.348-.74.519-1.292 1.267-1.631 2.11a3.836 3.836 0 00-.076.205c-.413 1.219-.19 2.547.414 3.664l.44.812.358.66 1.247 2.301 1.66 3.066.328.604 1.305 2.408 1.558 2.875c.127.016.071.012.002.004v.002l.803 1.481c.266.49.528.983.79 1.475.397.744.796 1.487 1.212 2.22l.03.056c.297.548 1.064.812 1.616.48.554-.333.798-1.028.48-1.615z"/><path class="st2" d="M10.859 41.03l.03.056c.297.548 1.063.812 1.615.48.554-.332.799-1.027.48-1.615l-.642-1.186c-.9.077-1.8.091-2.695.045.397.744.796 1.487 1.212 2.22zM4.145 18.908l.069-.033.066-.028c-.07.024-.172.06-.013 0 .143-.053.077-.026.013 0l.043-.014c.114-.035.23-.064.347-.086l.016-.003c.08-.4.182-.797.307-1.187.13-.406.282-.805.446-1.198a4.658 4.658 0 00-2.394.436c-.21.1-.41.217-.597.348l.078.094c.503.591 1.04 1.155 1.62 1.671zM6.493 32.973l1.558 2.876c.128.015.072.012.002.003l.001.002.019.004a17.407 17.407 0 002.798.192l-1.59-2.934-.081-.001a36.33 36.33 0 01-2.707-.142zM3.049 21.634a16.18 16.18 0 01-2.307-2.175c-.413 1.218-.191 2.546.414 3.663l.44.812a30.408 30.408 0 002.822.207l-.894-1.65-.283-.523-.064-.118-.01-.02a4.307 4.307 0 01-.069-.133l-.018-.04-.019-.014c.006.026 0 .016-.012-.01zM4.861 29.961l.107.016a35.82 35.82 0 002.76.273L5.94 26.948c-.912.024-1.827.005-2.739-.053l1.661 3.066zM7.407 19.403l-.035.177c-.014.129-.033.256-.044.385-.02.217-.029.434-.028.652l.208.384c.297.548 1.063.812 1.615.48.554-.333.798-1.028.48-1.616-.212-.392-.421-.787-.638-1.178a4.621 4.621 0 00-.964-1.205c-.144.364-.278.732-.39 1.108a9.78 9.78 0 00-.204.813z"/><path class="st1" d="M8.967 35.968a17.381 17.381 0 01-.894-.11l-.019-.004.803 1.481c.265.49.527.983.79 1.475.894.046 1.795.032 2.695-.045l-.93-1.715-.541-1a17.213 17.213 0 01-1.904-.082zM4.968 29.977l-.107-.016.328.604 1.304 2.408c.901.08 1.804.128 2.707.142h.08l-1.306-2.41-.245-.455a36.506 36.506 0 01-2.761-.273zM1.596 23.934l.358.66c.415.768.83 1.535 1.246 2.301.912.058 1.827.077 2.74.053-.445-.82-.89-1.64-1.333-2.46l-.189-.347a30.447 30.447 0 01-2.822-.207zM3.037 21.563l.006.013c-.06-.203-.088-.408-.137-.612l.022.095a.912.912 0 01-.017-.138c-.002-.122.008-.24.015-.361l-.015.037a.364.364 0 00.021-.101 3.29 3.29 0 01.087-.336c.026-.078.075-.168.1-.25-.01.016-.017.031-.026.047-.094.167.031-.065.035-.09a.371.371 0 01-.01.043c.025-.046.049-.092.075-.137.046-.077.097-.15.147-.225l-.016.01a.105.105 0 00.023-.02l.018-.028a.216.216 0 01.055-.062 3.247 3.247 0 01.335-.315l.005-.004-.03.018c-.103.065.235-.186.03-.018.126-.079.252-.154.385-.22a16.78 16.78 0 01-1.619-1.672l-.078-.094c-.739.519-1.291 1.267-1.63 2.11a3.868 3.868 0 00-.076.206 16.18 16.18 0 002.307 2.175c-.03-.065-.085-.222-.012-.071zM5.44 16.359c-.165.393-.317.792-.447 1.198-.125.39-.228.787-.307 1.187l.059-.01a.287.287 0 01-.032-.005c.025.006.29-.043.097-.006a1.905 1.905 0 01-.065.011c.096.01.227-.017.318-.014.092.002.183.013.274.019l-.056-.013c-.153-.042.3.028.06.013h-.004a3.34 3.34 0 01.445.122l.053.02-.01-.01a.434.434 0 00.08.036l.008.003c.116.043.055.022-.008-.003a6.279 6.279 0 01-.07-.026c.058.057.232.117.295.156.081.05.172.144.26.187l-.05-.046c-.144-.135.057.05.078.058l-.027-.012a2.513 2.513 0 01.267.277.243.243 0 01.06.068l.01.019a.79.79 0 00.014.02c.044.072.088.143.129.217.116.21.229.422.343.633l.086.159a6.982 6.982 0 01.028-.652c.011-.129.03-.256.044-.385a8.83 8.83 0 01-.007.04c-.049.248.028-.221.009-.05l-.002.01.035-.177c.056-.274.125-.545.204-.813.112-.376.246-.744.39-1.108a4.537 4.537 0 00-1.638-.939 4.275 4.275 0 00-.924-.184z"/><g><path class="st0" d="M164.995 87.061a10252.366 10252.366 0 011.717-4.091l1.29-3.078 1.062-2.529.2-.476 1.452-3.464 1.082-2.579.153-.364.726-1.732.23-.547.052-.124.009-.02.06-.138.02-.038v-.024c-.017.021-.013.009 0-.016.031-.063.119-.205.047-.054l-.007.013c.12-.173.264-.323.392-.49a9.827 9.827 0 01-.06.078.908.908 0 01.097-.1c.093-.078.192-.145.29-.215a1.9 1.9 0 01-.038.012.364.364 0 00.092-.047 3.275 3.275 0 01.316-.142c.077-.03.178-.047.257-.08l-.052.01c-.189.03.07-.017.092-.03a.378.378 0 01-.04.02c.051-.01.102-.02.154-.028.089-.013.178-.02.267-.027l-.017-.007a.104.104 0 00.03.006l.033-.003a.217.217 0 01.083.004 3.268 3.268 0 01.455.064l.006.001-.033-.011c-.115-.04.292.066.033.011.14.05.278.1.413.162.024.011.047.021.07.033l.062.034c-.061-.04-.154-.097-.007-.01.13.078.068.043.007.01a3.28 3.28 0 01.323.242l.012.01.045.04a.29.29 0 01-.016-.028c.01.022.214.198.065.072l-.05-.044c.053.08.156.166.211.239.056.073.105.15.157.225-.008-.017-.018-.034-.025-.052-.063-.145.166.25.027.055 0 0 0-.002-.002-.003.023.045.047.09.068.135.043.094.082.19.116.289l.018.053v-.014a.437.437 0 00.023.085l.002.008c.04.118.018.057-.002-.008a6.514 6.514 0 01-.023-.071c-.009.08.053.254.063.328.012.094-.005.224.017.32l.005-.068c.014-.197-.005.076.003.097a.281.281 0 01-.008-.029 2.53 2.53 0 01-.048.381.243.243 0 01-.016.09l-.007.02a.791.791 0 00-.008.023c-.028.08-.056.159-.088.237-.091.222-.186.443-.279.664l-.07.167-.169.402c-.24.575.034 1.337.638 1.56.607.223 1.302-.022 1.56-.638.173-.412.35-.822.518-1.235.198-.485.31-.994.336-1.507a4.537 4.537 0 00-.295-1.865 4.27 4.27 0 00-.435-.835 4.658 4.658 0 00-1.84-1.593 4.05 4.05 0 00-.645-.247c-.867-.252-1.796-.213-2.666.05-.07.022-.14.045-.208.07-1.208.442-2.104 1.447-2.596 2.618l-.357.852-.29.693-1.013 2.413-1.349 3.215-.265.634-1.06 2.525-1.265 3.016c.068.11.035.063-.002.004v.002l-.652 1.553c-.216.514-.435 1.027-.654 1.54-.332.776-.661 1.552-.972 2.335l-.025.06c-.24.574.034 1.337.638 1.56.607.222 1.302-.023 1.56-.639z"/><path class="st2" d="M163.885 85.896l-.025.06c-.24.574.034 1.337.638 1.56.607.222 1.302-.023 1.56-.639l.522-1.244a19.7 19.7 0 01-1.723-2.072 98.55 98.55 0 00-.972 2.335zM176.921 66.805c.024.01.047.02.07.032l.062.034c-.061-.039-.154-.097-.007-.01.13.078.068.044.007.01l.04.025c.098.067.193.14.283.216l.012.01c.362-.188.735-.356 1.118-.503a15.07 15.07 0 011.213-.403 4.658 4.658 0 00-1.84-1.593 4.05 4.05 0 00-.645-.247l-.024.12a16.78 16.78 0 00-.289 2.309zM167.43 77.446l-1.265 3.016c.068.11.035.063-.002.004v.002l.009.017a17.499 17.499 0 001.603 2.3l1.29-3.077-.05-.064a36.32 36.32 0 01-1.585-2.198zM174.11 67.657c-.027-1.057.07-2.112.25-3.16-1.208.441-2.104 1.446-2.596 2.617l-.357.853a30.46 30.46 0 001.607 2.33l.726-1.733.23-.547.052-.124.009-.02.06-.138.02-.038v-.024c-.017.021-.013.009 0-.016zM168.755 74.287l.055.093a35.811 35.811 0 001.516 2.323l1.453-3.464a30.779 30.779 0 01-1.675-2.167l-1.349 3.215zM178.58 69.656l-.16.085c-.11.069-.22.134-.328.206a6.98 6.98 0 00-.526.387l-.169.402c-.24.575.034 1.338.638 1.56.607.223 1.302-.022 1.56-.638.173-.412.35-.822.518-1.235.198-.485.31-.994.336-1.507-.374.116-.745.242-1.108.39a9.775 9.775 0 00-.762.35z"/><path class="st1" d="M166.645 81.251a17.39 17.39 0 01-.473-.766l-.01-.017-.651 1.553c-.216.514-.435 1.027-.654 1.54a19.7 19.7 0 001.723 2.072l.755-1.799.44-1.048a17.182 17.182 0 01-1.13-1.535zM168.81 74.38c-.019-.03-.037-.062-.055-.093l-.265.634-1.06 2.525c.502.753 1.03 1.487 1.585 2.198l.05.064 1.062-2.529.2-.476a36.529 36.529 0 01-1.517-2.323zM171.407 67.966l-.29.693-1.013 2.413a30.779 30.779 0 001.675 2.167l1.082-2.579.153-.364a30.456 30.456 0 01-1.607-2.33zM174.158 67.603l-.007.013c.12-.173.264-.323.392-.49a8.81 8.81 0 01-.06.078.914.914 0 01.097-.1c.093-.078.192-.145.29-.215a1.734 1.734 0 01-.038.012.364.364 0 00.092-.047 3.293 3.293 0 01.316-.142c.077-.03.178-.047.257-.08l-.052.01c-.189.03.07-.017.092-.03a.372.372 0 01-.04.02c.051-.01.102-.02.154-.028.089-.013.178-.02.267-.027l-.017-.007a.105.105 0 00.03.006l.033-.003a.217.217 0 01.083.004 3.247 3.247 0 01.455.064l.006.001-.033-.011c-.115-.04.292.066.033.011.14.05.278.1.413.162.04-.775.143-1.547.29-2.309l.023-.12c-.867-.25-1.796-.212-2.666.051a3.89 3.89 0 00-.208.07 16.182 16.182 0 00-.25 3.161c.032-.063.12-.205.048-.054zM179.72 66.216c-.41.119-.816.25-1.214.403a10.77 10.77 0 00-1.118.504l.045.04a.289.289 0 01-.016-.028c.01.022.214.198.065.072a1.918 1.918 0 01-.049-.044c.052.08.155.166.21.239.056.073.105.15.157.225-.008-.017-.018-.034-.025-.052-.063-.145.166.25.027.055 0 0 0-.002-.002-.003.023.045.047.09.068.135.043.094.082.19.116.289l.018.053v-.014a.435.435 0 00.023.085l.002.008c.04.118.018.057-.002-.008a6.58 6.58 0 01-.023-.071c-.009.08.053.254.063.328.012.094-.005.224.017.32l.005-.068c.014-.197-.004.076.003.098a.281.281 0 01-.008-.03 2.571 2.571 0 01-.048.382.243.243 0 01-.016.089l-.007.02a.79.79 0 00-.008.023c-.028.08-.056.159-.088.237-.091.222-.186.443-.279.664l-.07.167a6.98 6.98 0 01.526-.387c.107-.072.218-.137.327-.206a9.222 9.222 0 01-.035.019c-.224.117.19-.117.044-.024l-.009.005.16-.085c.249-.127.503-.243.762-.35.363-.148.734-.274 1.108-.39a4.537 4.537 0 00-.295-1.865 4.27 4.27 0 00-.435-.835z"/></g><path class="st1" d="M64.502 20.168h-5.94c-.024-.816-.042-1.736-.053-2.761-.012-1.025-.03-2.004-.053-2.936.56 0 1.054-.005 1.486-.017l1.223-.035c.384-.012.751-.018 1.1-.018h1.084c.42.024.74-.174.961-.594.221-.42.32-.873.297-1.363 0-.442-.117-.844-.35-1.205-.233-.361-.582-.542-1.048-.542-.373 0-.722.006-1.048.017-.327.012-.67.018-1.031.018-.362 0-.751.006-1.17.017-.42.012-.91.018-1.469.018 0-.885.006-1.852.018-2.9.011-1.05.029-1.958.052-2.727a59.115 59.115 0 013.39-.157c.955-.011 1.63-.017 2.027-.017.606 0 1.002-.216 1.188-.647.187-.43.28-.868.28-1.31 0-.583-.128-1.072-.385-1.468-.256-.396-.547-.594-.873-.594-.303 0-.775.006-1.416.017-.64.012-1.357.018-2.149.018s-1.62.006-2.481.017c-.862.012-1.655.03-2.377.053-.512.023-.926.093-1.24.21-.315.116-.56.308-.734.576-.175.268-.292.611-.35 1.03-.058.42-.087.944-.087 1.573V8.81l-.07 9.26v4.37c0 .162.04.36.123.593.08.233.21.46.384.682.175.221.407.402.699.541.291.14.646.21 1.066.21.536 0 1.083-.006 1.642-.017a534.483 534.483 0 014.071-.07c.827-.012 1.766-.018 2.814-.018.49 0 .85-.21 1.083-.629a3.2 3.2 0 00.385-1.433 3.217 3.217 0 00-.262-1.467c-.199-.443-.46-.664-.787-.664zM122.27 20.168h-5.942c-.023-.816-.04-1.736-.052-2.761-.012-1.025-.03-2.004-.053-2.936.56 0 1.054-.005 1.486-.017l1.223-.035c.384-.012.751-.018 1.1-.018h1.084c.42.024.74-.174.96-.594.222-.42.32-.873.298-1.363 0-.442-.117-.844-.35-1.205-.233-.361-.582-.542-1.048-.542-.373 0-.722.006-1.048.017-.327.012-.67.018-1.031.018-.362 0-.752.006-1.171.017-.42.012-.909.018-1.468.018 0-.885.006-1.852.018-2.9.011-1.05.029-1.958.052-2.727a59.115 59.115 0 013.39-.157c.955-.011 1.63-.017 2.027-.017.605 0 1.001-.216 1.188-.647.186-.43.28-.868.28-1.31 0-.583-.129-1.072-.385-1.468-.256-.396-.547-.594-.873-.594-.304 0-.775.006-1.416.017-.64.012-1.357.018-2.149.018s-1.62.006-2.481.017c-.863.012-1.655.03-2.377.053-.512.023-.926.093-1.24.21-.315.116-.56.308-.734.576-.175.268-.292.611-.35 1.03-.058.42-.087.944-.087 1.573V8.81l-.07 9.26v4.37c0 .162.04.36.122.593.082.233.21.46.385.682.175.221.407.402.699.541.29.14.646.21 1.066.21.535 0 1.083-.006 1.642-.017a534.463 534.463 0 014.071-.07c.827-.012 1.765-.018 2.814-.018.489 0 .85-.21 1.083-.629a3.2 3.2 0 00.384-1.433 3.217 3.217 0 00-.262-1.467c-.198-.443-.46-.664-.786-.664z"/><path class="st0" d="M31.43 13.744V1.037a5.73 5.73 0 00-.295.067 2.783 2.783 0 00-.822.35c-.233.151-.349.343-.349.576 0 .909.012 1.747.035 2.516.023.769.04 1.52.052 2.254.012.734.03 1.486.053 2.254.023.77.035 1.608.035 2.517 0 .396.005.792.017 1.188.012.396.04.792.088 1.188 0 0 1.187 1.424 1.187-.203z"/><path class="st1" d="M50.135 20.832c-.198-.443-.46-.664-.786-.664h-5.941c-.024-.816-.041-1.736-.053-2.761-.012-1.025-.029-2.004-.052-2.936.56 0 1.054-.005 1.485-.017.431-.012.839-.023 1.223-.035.385-.012.752-.018 1.101-.018h1.084c.419.024.739-.174.96-.594.222-.42.32-.873.298-1.363 0-.442-.117-.844-.35-1.205-.233-.361-.582-.542-1.048-.542-.373 0-.723.006-1.049.017-.326.012-.67.018-1.03.018-.362 0-.752.006-1.171.017-.42.012-.909.018-1.468.018 0-.885.005-1.852.017-2.9.012-1.05.03-1.958.053-2.727a59.115 59.115 0 013.39-.157c.955-.011 1.63-.017 2.027-.017.605 0 1.001-.216 1.188-.647.186-.43.28-.868.28-1.31 0-.583-.129-1.072-.385-1.468-.257-.396-.548-.594-.874-.594-.303 0-.774.006-1.415.017-.641.012-1.357.018-2.15.018-.792 0-1.619.006-2.48.017-.863.012-1.655.03-2.377.053 0 0-1.196.567-1.048 4.116.147 3.549 0 15.23 0 15.23s-.393 2.96.838 4.068c.536 0 1.084-.006 1.643-.017a534.483 534.483 0 014.071-.07c.827-.012 1.765-.018 2.813-.018.49 0 .85-.21 1.084-.629a3.2 3.2 0 00.384-1.433 3.217 3.217 0 00-.262-1.467z"/><path class="st0" d="M39.563 20.398s.148-11.681 0-15.23c-.147-3.55 1.049-4.116 1.049-4.116-.513.023-.926.093-1.24.21-.315.116-.56.308-.734.576-.175.268-.292.611-.35 1.03-.058.42-.087.944-.087 1.573V8.81l-.07 9.26v4.37c0 .162.04.36.122.593.081.233.21.46.385.682.174.221.407.402.698.541.292.14.647.21 1.066.21-1.23-1.108-.839-4.068-.839-4.068zM112.39 20.398s.149-11.681 0-15.23c-.147-3.55 1.05-4.116 1.05-4.116-.514.023-.927.093-1.241.21-.315.116-.56.308-.734.576-.175.268-.292.611-.35 1.03-.058.42-.087.944-.087 1.573V8.81l-.07 9.26v4.37c0 .162.04.36.122.593.082.233.21.46.385.682.174.221.407.402.699.541.29.14.646.21 1.066.21-1.232-1.108-.84-4.068-.84-4.068zM54.646 20.398s.148-11.681 0-15.23c-.147-3.55 1.049-4.116 1.049-4.116-.513.023-.926.093-1.24.21-.315.116-.56.308-.734.576-.175.268-.292.611-.35 1.03-.058.42-.087.944-.087 1.573V8.81l-.07 9.26v4.37c0 .162.04.36.122.593.081.233.21.46.385.682.174.221.407.402.698.541.292.14.647.21 1.066.21-1.23-1.108-.839-4.068-.839-4.068z"/><path class="st1" d="M82.582 5.997c-.524-1.55-1.206-2.732-2.044-3.548-.84-.815-1.8-1.333-2.883-1.555a13.628 13.628 0 00-3.303-.262l-3.025.153c-.486.632-1.22 1.803-1.252 3.15-.05 2.021-.05 16.02-.05 16.02s-.188 3.079.867 4.546c.512.093 1.043.175 1.59.245.547.07 1.171.105 1.87.105 1.933 0 3.495-.397 4.683-1.189a8.08 8.08 0 002.743-3.04c.64-1.235 1.066-2.592 1.276-4.071.21-1.48.314-2.906.314-4.281 0-2.633-.262-4.724-.786-6.273zm-3.783 8.437c-.197 2.613-.69 5.324-2.12 6.359-1.429 1.035-2.851-.416-2.851-.416a.317.317 0 01-.105-.227v-.192c-.07-2.446-.087-4.957-.052-7.531.034-2.574.075-5.085.122-7.531 4.162-.322 4.71 2.49 4.907 3.623.198 1.134.296 3.303.099 5.915z"/><path class="st0" d="M70.025 19.955s0-13.999.05-16.02c.032-1.347.766-2.518 1.252-3.15l-.208.01-.227.012c-.49.023-.88.157-1.17.402a2.599 2.599 0 00-.7.96c-.174.397-.291.869-.349 1.416a17.075 17.075 0 00-.087 1.8c0 .746.005 1.55.017 2.411a2491.37 2491.37 0 00.07 4.928c.011.746.017 1.386.017 1.922 0 .35-.006.862-.017 1.538l-.035 2.079c-.012.711-.017 1.375-.017 1.992v1.31c.046.816.267 1.48.664 1.993.323.417.74.701 1.25.856.115.035.233.066.357.087-1.055-1.467-.867-4.546-.867-4.546zM73.793 4.896h.21c.745 0 1.38.076 1.904.227.524.152.95.484 1.276.996.326.513.564 1.264.716 2.254.151.99.227 2.312.227 3.966 0 1.119-.047 2.18-.14 3.18-.093 1.003-.256 1.882-.489 2.64-.233.757-.542 1.362-.926 1.816-.384.455-.88.682-1.485.682-.373 0-.659-.029-.856-.087-.199-.058-.332-.123-.402-.193 0 0 1.311 1.82 3.246.219 1.36-1.126 1.971-3.401 2.169-6.014.197-2.612.049-5.175-.148-6.31-.197-1.133-1.14-3.698-5.302-3.376z"/><path class="st1" d="M102.903 17.145c0 .734.006 1.45.018 2.149l.017 1.016V15.1c-.023.63-.035 1.31-.035 2.045z"/><path class="st1" d="M107.97 1.698a1.605 1.605 0 00-.61-.402 3.397 3.397 0 00-.787-.192 6.25 6.25 0 00-.769-.052 7.361 7.361 0 00-1.422.159c-.184.848-.05 1.812-.05 1.812l-.222 8.373h-.997c.002.013 0 .013-.005 0-.534.023-.97.04-1.306.052-.337.012-.658.018-.96.018H98.57c.046-.909.064-1.846.052-2.813-.012-.967-.023-1.864-.035-2.691a86.717 86.717 0 00-.052-2.115 38.773 38.773 0 01-.035-1.083c0-.536-.297-.885-.891-1.048-.594-.163-1.334-.245-2.22-.245-.512 0-1.042.012-1.59.035l-1.237.053c-.207.982-.475 2.667.014 2.721.665.074 2.292-.739 2.218 1.849-.074 2.588.074 16.118.074 16.118s-.317 1.715 1.11 2.142c1.727-.066 2.592-.6 2.592-1.6v-1.24c0-.524-.006-1.12-.018-1.783a121.58 121.58 0 01-.017-2.167V15.17l4.403-.07 1.394-.025s-.148 3.253-.222 6.063c-.042 1.587.364 2.608.726 3.195.257.042.465.063.618.063.722 0 1.34-.117 1.853-.35.512-.232.769-.745.769-1.537 0-3.378.022-6.745.07-10.1.046-3.355.07-6.71.07-10.064a.913.913 0 00-.245-.647z"/><path class="st0" d="M94.868 22.247s-.148-13.53-.074-16.118c.074-2.588-1.553-1.775-2.218-1.849-.488-.054-.22-1.74-.014-2.721l-.387.017c-.327.023-.595.186-.804.489-.21.303-.315.886-.315 1.747 0 .583.07 1.066.21 1.45.14.385.466.577.978.577h1.293v1.468l-.035 10.24v5.137c0 .42.076.746.228.978.15.233.337.402.559.507.221.105.454.169.699.192a6.79 6.79 0 00.99.028c-1.427-.427-1.11-2.142-1.11-2.142zM103.358 1.61c-.21.14-.315.315-.315.525a592.037 592.037 0 01.052 3.547c.012.944.018 1.934.018 2.97v2.744h.997l.222-8.373s-.134-.964.05-1.812c-.092.02-.183.043-.273.068a2.625 2.625 0 00-.751.332zM103.113 11.396h-.005c.005.013.007.013.005 0zM104.11 21.138c.074-2.81.222-6.063.222-6.063l-1.394.025v5.21l.018.906c.011.583.017 1.026.017 1.328 0 .396.099.716.297.961.198.245.431.431.7.56.267.127.54.214.82.261l.046.007c-.361-.587-.768-1.608-.726-3.195z"/><path class="st1" d="M135.846 22.247a3.395 3.395 0 00-.49-1.433c-.268-.43-.565-.646-.89-.646h-4.264a315.46 315.46 0 01-.018-8.79c.035-2.853.053-5.434.053-7.74 0-.84-.199-1.497-.594-1.975-.397-.477-1.107-.716-2.132-.716-.257 0-.524.03-.804.087-.034.007-.066.017-.1.025-.126.74-.251 2.114-.168 4.552.147 4.362-.296 16.562.147 17.301 0 0 .114.79.548 1.55.043.002.087.004.132.004a137.802 137.802 0 012.481-.087 65.293 65.293 0 011.695-.018h2.849c.652 0 1.088-.221 1.31-.664.221-.442.303-.926.245-1.45z"/><path class="st0" d="M126.439 5.611c-.083-2.438.042-3.813.169-4.552-.24.06-.458.15-.652.272-.222.14-.408.31-.56.507a1.143 1.143 0 00-.227.716v18.662c0 .35.023.716.07 1.1.047.385.145.735.297 1.05.152.314.367.576.647.786.251.188.568.291.951.31-.434-.76-.548-1.55-.548-1.55-.443-.74 0-12.939-.147-17.3z"/><path class="st1" d="M151.978 4.25c-.455-1.037-1.101-1.824-1.94-2.36-.839-.535-1.84-.879-3.005-1.03a29.983 29.983 0 00-3.845-.228c-.932 0-1.707.083-2.325.25-.508.7-1.107 1.973-1.19 4.138-.14 3.638-.81 16.15-.066 19.11.388.13.846.196 1.38.196.582 0 1.112-.145 1.59-.436.477-.292.716-.833.716-1.626 0-.908-.017-1.723-.052-2.446a51.076 51.076 0 01-.053-2.446c.326.047.658.082.996.105.338.023.6.035.787.035 1.468 0 2.696-.245 3.687-.734.99-.49 1.782-1.141 2.376-1.957.594-.816 1.013-1.77 1.258-2.866.245-1.095.367-2.248.367-3.46 0-1.794-.227-3.209-.681-4.246zm-3.654 8.163c-1.257 3.254-5.17 1.953-5.17 1.953v-1.363c0-.535-.007-1.147-.018-1.834-.012-.687-.03-1.404-.052-2.15a71.021 71.021 0 01-.035-2.236V4.72c5.963-2.221 6.532 4.44 5.275 7.692z"/><path class="st0" d="M139.673 5.02c.083-2.165.682-3.439 1.19-4.139-.078.02-.153.042-.226.066-.652.21-1.159.512-1.52.908-.361.397-.606.891-.734 1.486a9.753 9.753 0 00-.192 2.044c0 2.89-.012 5.696-.035 8.422a973.56 973.56 0 00-.035 8.388c0 .629.245 1.141.734 1.537.21.17.462.3.752.398-.743-2.96-.074-15.472.066-19.11zM143.049 4.721l1.712-.105c.862-.046 1.584.327 2.167 1.118.582.793.873 1.957.873 3.495 0 1.631-.309 2.9-.926 3.81-.617.908-1.637 1.362-3.058 1.362h-.332a1.68 1.68 0 01-.332-.035s3.914 1.3 5.17-1.953c1.258-3.253.689-9.913-5.274-7.692z"/><path class="st3" d="M160.362 4.406s.267-.148.687-.294a2.43 2.43 0 00-.687.294z"/><path class="st1" d="M168.872 6.503c-.093-1.887-.804-3.325-2.132-4.316-1.166-.869-2.62-1.357-4.36-1.463-8.762 1.739-6.145 8.091-6.145 8.091-.014.042-.029.08-.044.118a3.08 3.08 0 00.903.156c.373-.023.7-.145.98-.367.279-.22.418-.483.418-.786 0-.396.07-.821.21-1.275.14-.455.35-.88.63-1.276.279-.396.622-.722 1.03-.979.212-.133.441-.23.687-.294 1.083-.377 3.182-.738 4.354 1.5 1.627 3.105-2.81 5.692-4.214 7.467-1.24 1.567-1.904 4.113-1.686 5.502.26.056.517.084.772.084.163 0 .343-.018.542-.052.197-.035.378-.088.541-.158a.974.974 0 00.402-.314c.105-.14.145-.315.122-.525-.116-.908-.017-1.671.298-2.289a5.964 5.964 0 011.258-1.66c.524-.489 1.112-.949 1.764-1.38a13.67 13.67 0 001.818-1.433 6.824 6.824 0 001.38-1.817c.361-.687.518-1.532.472-2.534zM159.92 23.97c.059.004.119.007.18.007.396 0 .751-.082 1.066-.245a2.557 2.557 0 001.258-1.415c.105-.291.157-.553.157-.786 0-.606-.256-1.078-.768-1.416a3.108 3.108 0 00-1.748-.507c-.16 0-.308.012-.45.031-.285.659-1.043 2.79.304 4.33z"/><path class="st0" d="M161.189 13.079c1.404-1.775 5.84-4.362 4.214-7.468-1.172-2.237-3.271-1.876-4.354-1.5.228-.059.47-.089.729-.089.28 0 .564.035.856.105.29.07.57.198.839.384.267.187.489.45.664.787.174.338.273.774.297 1.31.023.676-.123 1.276-.437 1.8a7.002 7.002 0 01-1.188 1.468 31.73 31.73 0 01-1.556 1.38c-.559.466-1.072.985-1.537 1.555a6.958 6.958 0 00-1.119 1.975c-.28.746-.384 1.63-.314 2.656.046.512.285.845.716.996.169.06.337.106.504.143-.218-1.39.445-3.935 1.686-5.502zM159.421 19.673c.063-.013.128-.025.195-.034.056-.129.094-.202.094-.202l-.048-.042a.542.542 0 01-.24.278z"/><path class="st0" d="M158.888 19.86a1.561 1.561 0 00-.5.412c-.35.443-.525.944-.525 1.503 0 .7.222 1.24.664 1.625.398.346.862.535 1.392.57-1.347-1.541-.589-3.672-.303-4.33-.067.008-.132.02-.195.033a1.5 1.5 0 01-.533.187z"/><path class="st0" d="M158.888 19.86a1.5 1.5 0 00.533-.187 2.029 2.029 0 00-.533.187zM162.38.724a12.18 12.18 0 00-.742-.022 7.28 7.28 0 00-2.481.454 7.781 7.781 0 00-2.272 1.276 6.329 6.329 0 00-1.625 1.974c-.408.77-.6 1.631-.577 2.587.023.373.117.693.28.96.163.269.367.49.611.665.195.138.4.243.617.315.015-.038.03-.076.044-.118 0 0-2.617-6.352 6.145-8.09zM26.477 13.892c-1.479-2.81-2.629-2.496-2.629-2.496.35.746.67 1.421.961 2.027.291.606.588 1.2.891 1.782.303.583.6 1.16.892 1.73.29.571.611 1.194.96 1.87.35.722.717 1.45 1.101 2.184.385.734.822 1.415 1.311 2.044.28.373.617.682 1.013.926.396.245.827.367 1.294.367.137 0 .275-.001.415-.004-2.027-1.748-4.9-7.943-6.21-10.43z"/><path class="st1" d="M34.84 1.61a1.556 1.556 0 00-.577-.436 2.665 2.665 0 00-.752-.21 5.835 5.835 0 00-.751-.052c-.163 0-.397.012-.7.035a5.183 5.183 0 00-.63.09v12.707c0 1.627-1.186.203-1.186.203a43.548 43.548 0 00-1.066-2.01 52.182 52.182 0 01-.961-1.764 82.09 82.09 0 01-.909-1.8 41.415 41.415 0 01-.944-2.08c-.14-.302-.285-.651-.436-1.048a26.322 26.322 0 00-.49-1.188c-.174-.396-.35-.78-.524-1.153a4.523 4.523 0 00-.576-.944c-.257-.326-.6-.57-1.031-.734A3.596 3.596 0 0022.03.982h-.332c-.082 0-.17.012-.262.035l-3.929.193c-.169.934-.54 3.277-.027 3.317.641.05 2.81-.74 2.86.788.048 1.528-.247 15.774-.198 16.66.036.652.311 1.726.922 2.33l.022.004c.303.035.56.052.77.052.558 0 1.077-.117 1.554-.35.478-.232.717-.686.717-1.362v-.491c-.003-1.82-.02-3.532-.053-5.136-.035-1.747-.11-3.622-.227-5.626 0 0 1.15-.314 2.629 2.496 1.309 2.487 4.182 8.682 6.21 10.43.145-.003.291-.007.44-.013.29-.012.547-.065.769-.157.22-.094.401-.245.541-.455.14-.21.21-.5.21-.873a251.674 251.674 0 01.21-10.24c.14-3.401.21-6.815.21-10.24 0-.302-.077-.547-.228-.733z"/><path class="st0" d="M20.143 21.976c-.05-.887.246-15.133.197-16.66-.05-1.529-2.218-.74-2.859-.79-.513-.039-.142-2.382.027-3.316l-.305.015-.03.001c-.605.024-.978.571-1.118 1.643-.116.862-.075 1.572.122 2.132.199.559.554.838 1.066.838l1.887-.035v17.23c0 .279.105.506.315.68.21.176.46.31.751.403.284.09.574.153.87.189-.612-.605-.887-1.68-.923-2.33z"/><g><path class="st0" d="M23.075 57.473c-.558 0-1.028-.141-1.4-.42a2.65 2.65 0 01-.804-.978 3.848 3.848 0 01-.346-1.214 9.674 9.674 0 01-.073-1.163v-15.59l-.929-.045c-.547-.037-.972-.244-1.275-.616-.442-.545-.576-1.396-.409-2.602.217-1.732.992-2.097 1.604-2.097l4.394.176c.23 0 .498.019.775.056.298.041.584.118.848.228.297.125.55.308.754.542.237.275.356.608.356.993 0 2.976-.017 5.99-.052 8.96-.033 2.777-.03 5.607.01 8.42h3.738c.519 0 .97.3 1.339.895.308.497.498 1.052.565 1.652a3.08 3.08 0 01-.297 1.743c-.218.436-.704.955-1.782.955h-2.845c-.68 0-1.24.005-1.678.018a125.526 125.526 0 00-2.482.087h-.011z"/><path class="st0" d="M19.443 33.276h.036l.441.019 3.888.156c.232 0 .477.018.733.053s.494.099.716.192c.22.093.406.227.558.401.151.175.227.39.227.646a762.2 762.2 0 01-.052 8.954c-.035 2.967-.03 5.952.017 8.954h4.259c.326 0 .622.215.89.646.267.43.43.907.489 1.43a2.547 2.547 0 01-.245 1.45c-.221.441-.657.663-1.309.663h-2.845c-.686 0-1.25.005-1.693.017a124.491 124.491 0 00-2.478.088c-.442 0-.803-.105-1.082-.315a2.113 2.113 0 01-.646-.785 3.303 3.303 0 01-.297-1.047 9.073 9.073 0 01-.07-1.1V37.605l-1.43-.07c-1.025-.07-1.42-.942-1.188-2.618.137-1.094.497-1.641 1.081-1.64m0-1.058c-.675 0-1.85.334-2.13 2.567-.186 1.345-.015 2.329.525 2.994.274.337.781.751 1.64.81l.446.022v15.086c0 .393.026.806.077 1.228.06.497.193.96.394 1.378.224.465.548.86.964 1.172.465.348 1.042.525 1.716.525h.046l.43-.02a114.29 114.29 0 012.03-.067c.423-.012.968-.018 1.665-.018h2.845c1.418 0 2.02-.78 2.254-1.246.313-.625.43-1.31.35-2.038a4.459 4.459 0 00-.64-1.872c-.59-.947-1.299-1.146-1.79-1.146H27.05a327.266 327.266 0 01-.003-7.885c.035-2.956.053-5.973.053-8.966a2.01 2.01 0 00-.485-1.338 2.558 2.558 0 00-.946-.683c-.31-.13-.64-.218-.984-.265a6.555 6.555 0 00-.854-.062l-3.867-.156-.441-.018a2.046 2.046 0 00-.079-.002z"/><path class="st2" d="M31.156 53.297c-.268-.43-.564-.646-.89-.646h-4.259a326.673 326.673 0 01-.017-8.954 762.2 762.2 0 00.052-8.954.952.952 0 00-.227-.646 1.501 1.501 0 00-.558-.401 2.837 2.837 0 00-.716-.192 5.444 5.444 0 00-.733-.053l-3.888-.156c-.27 1.051-.578 2.71.14 2.781 1.003.1 2.307-.401 2.207.903-.1 1.305.1 15.654.1 15.654s.11 2.794 1.139 4.293a113.587 113.587 0 012.047-.069 64.867 64.867 0 011.693-.017h2.845c.652 0 1.088-.222 1.31-.663.22-.442.302-.926.244-1.45-.059-.523-.222-1-.489-1.43z"/><path class="st0" d="M22.267 36.98c.1-1.305-1.204-.803-2.208-.904-.717-.071-.41-1.73-.139-2.781l-.44-.018c-.606-.023-.978.523-1.118 1.64-.232 1.676.163 2.549 1.187 2.619l1.431.07v16.092c0 .35.023.716.07 1.1.047.384.145.733.297 1.047.15.314.366.576.646.785.279.21.64.314 1.082.314l.43-.018c-1.028-1.5-1.138-4.293-1.138-4.293s-.2-14.35-.1-15.654zM37.364 57.473c-.496 0-.931-.088-1.293-.261a2.488 2.488 0 01-.885-.69 2.893 2.893 0 01-.468-.835 2.323 2.323 0 01-.152-.767v-4.364l.07-9.255v-4.359c0-.66.03-1.198.092-1.643.068-.493.213-.912.43-1.246.237-.363.57-.626.99-.783.371-.137.83-.216 1.401-.242l.218-.006c.669-.02 1.388-.036 2.172-.047.863-.011 1.693-.017 2.486-.017.788 0 1.5-.005 2.137-.017a85.025 85.025 0 011.424-.018c.353 0 .869.145 1.316.835.31.48.469 1.07.469 1.753 0 .512-.109 1.022-.323 1.518-.19.44-.635.965-1.672.965-.395 0-1.068.006-2.018.018-.816.01-1.783.051-2.878.122-.017.657-.03 1.401-.039 2.235-.01.84-.015 1.627-.016 2.361.338-.002.645-.007.922-.015.424-.012.819-.018 1.184-.018.353 0 .69-.005 1.01-.017a29.97 29.97 0 011.067-.018c.645 0 1.16.271 1.491.783.288.448.434.949.434 1.491a3.105 3.105 0 01-.358 1.608c-.383.725-.952.877-1.362.877l-.094-.003-1.053.001c-.344 0-.705.007-1.085.018-.383.012-.791.023-1.223.034-.29.009-.608.014-.957.016.017.77.03 1.57.04 2.4.01.811.022 1.556.039 2.235h5.42c.378 0 .906.17 1.267.976.231.517.334 1.09.308 1.704a3.738 3.738 0 01-.45 1.665c-.328.59-.862.901-1.544.901-1.044 0-1.979.005-2.803.018a547.52 547.52 0 00-4.062.07c-.463.009-.912.012-1.357.014l-.295.003z"/><path class="st0" d="M45.986 33.451c.325 0 .616.198.872.594.256.396.384.884.384 1.466 0 .442-.093.879-.279 1.309-.186.43-.582.646-1.187.646-.396 0-1.07.006-2.024.017-.955.012-2.083.065-3.387.157a141.5 141.5 0 00-.052 2.723 253.485 253.485 0 00-.017 2.898c.558 0 1.047-.006 1.466-.018.419-.011.808-.017 1.17-.017.36 0 .703-.006 1.029-.018.326-.011.675-.017 1.047-.017.465 0 .815.18 1.047.54.233.362.35.763.35 1.205.022.489-.076.943-.297 1.361-.21.397-.508.596-.894.596-.022 0-.044 0-.066-.002h-1.082c-.35 0-.716.006-1.1.017-.384.012-.791.024-1.222.035-.43.012-.925.018-1.483.018.023.93.04 1.908.052 2.932.012 1.024.029 1.943.052 2.758H46.3c.325 0 .587.221.785.663.198.442.285.931.262 1.466a3.196 3.196 0 01-.384 1.431c-.233.42-.593.629-1.082.629-1.047 0-1.984.005-2.81.017a542.984 542.984 0 00-4.067.07c-.459.01-.905.013-1.348.014-.096 0-.197.004-.293.004-.419 0-.774-.07-1.064-.21a1.939 1.939 0 01-.698-.541 2.348 2.348 0 01-.384-.68 1.84 1.84 0 01-.123-.594v-4.364l.07-9.25v-4.364c0-.628.03-1.152.087-1.57.058-.42.175-.763.35-1.03.174-.268.418-.46.733-.576.314-.117.727-.186 1.239-.21.067-.002.142-.003.21-.006.666-.02 1.382-.035 2.164-.046.86-.012 1.687-.018 2.478-.018.79 0 1.506-.005 2.147-.017.64-.012 1.111-.018 1.414-.018m0-1.056c-.307 0-.785.006-1.433.017-.621.012-1.317.018-2.128.018-.796 0-1.627.006-2.492.017-.789.011-1.51.027-2.182.047l-.092.003-.12.003c-.642.03-1.151.119-1.572.274-.53.198-.951.53-1.251.99-.26.4-.433.891-.511 1.463-.066.47-.098 1.03-.098 1.715v4.364l-.07 9.242v4.372c0 .288.06.597.183.944.118.34.304.673.552.985.274.348.634.63 1.07.839.433.208.945.313 1.521.313l.173-.002.124-.001c.45-.002.9-.005 1.366-.015a539.177 539.177 0 014.06-.07c.802-.01 1.717-.017 2.795-.017.873 0 1.586-.416 2.006-1.171a4.258 4.258 0 00.516-1.899 4.274 4.274 0 00-.353-1.943c-.503-1.122-1.312-1.289-1.75-1.289h-4.903c-.012-.534-.02-1.107-.027-1.713-.008-.64-.017-1.266-.03-1.872a259.564 259.564 0 001.658-.045c.373-.01.729-.016 1.068-.016h1.057l.09.001c.785 0 1.434-.41 1.829-1.158.306-.58.446-1.211.42-1.88a3.227 3.227 0 00-.518-1.751c-.428-.662-1.115-1.026-1.936-1.026-.378 0-.743.006-1.084.018a26.88 26.88 0 01-.993.017c-.37 0-.769.006-1.198.018l-.378.008a266.832 266.832 0 01.042-3.563 51.543 51.543 0 012.368-.092c.947-.012 1.618-.018 2.011-.018 1.394 0 1.95-.803 2.157-1.282a4.338 4.338 0 00.366-1.73c0-.784-.186-1.47-.553-2.039-.577-.89-1.276-1.076-1.76-1.076z"/><path class="st3" d="M36.807 37.24c0-2.656.571-2.85.976-3.69-.405.84-.976 1.005-.976 3.661v.029z"/><path class="st2" d="M46.3 52.65h-5.935a158.14 158.14 0 01-.052-2.757c-.012-1.024-.03-2.001-.052-2.932.558 0 1.052-.006 1.483-.018.43-.011.838-.023 1.222-.035.384-.011.75-.017 1.1-.017h1.082c.419.023.738-.175.96-.594.22-.418.32-.872.297-1.36a2.18 2.18 0 00-.35-1.205c-.232-.36-.582-.541-1.047-.541-.372 0-.721.006-1.047.017-.326.012-.67.018-1.03.018s-.75.006-1.17.017c-.418.012-.907.018-1.465.018 0-.885.005-1.85.017-2.898a141.5 141.5 0 01.052-2.723 59.034 59.034 0 013.387-.157c.953-.011 1.628-.017 2.024-.017.605 0 1-.215 1.187-.646.186-.43.28-.867.28-1.31 0-.58-.129-1.07-.385-1.465-.256-.396-.547-.594-.872-.594-.303 0-.774.006-1.414.018-.64.012-1.356.017-2.147.017-.791 0-1.618.006-2.478.018-.782.01-1.498.027-2.164.046-.405.84-.976 1.034-.976 3.69v16.993s.004 1.708.849 2.708c.443-.001.89-.005 1.348-.014.559-.012 1.17-.023 1.833-.035.663-.012 1.408-.023 2.234-.035.826-.012 1.763-.017 2.81-.017.489 0 .85-.21 1.082-.629.232-.418.36-.895.384-1.43a3.212 3.212 0 00-.262-1.467c-.198-.442-.46-.663-.785-.663z"/><path class="st0" d="M36.807 37.24v-.029c0-2.656.571-2.821.976-3.66l-.21.005c-.512.024-.925.093-1.24.21a1.454 1.454 0 00-.732.575c-.175.268-.292.611-.35 1.03-.058.42-.087.943-.087 1.571v4.364l-.07 9.25v4.364c0 .163.04.36.122.593.082.233.21.46.385.68.174.222.406.402.698.542.29.14.645.21 1.064.21.096 0 .197-.003.293-.004-.845-1-.849-2.708-.849-2.708V37.24z"/><g><path class="st0" d="M58.043 57.333c-.22 0-.444-.015-.686-.048a3.975 3.975 0 01-1.501-.496c-.696-.408-1.064-1.042-1.064-1.834 0-2.747.024-5.592.07-8.457.043-2.686.046-5.356.008-7.946h-2.587c-.34 0-.65-.12-.899-.348a2.223 2.223 0 01-.507-.731 4.164 4.164 0 01-.281-.9 5.068 5.068 0 01-.098-.992c0-.616.12-1.165.353-1.633.366-.732.867-.886 1.223-.886h7.82c.716 0 1.365-.005 1.943-.017a74.603 74.603 0 011.303-.017 1.2 1.2 0 01.862.364c.189.188.346.436.466.735.107.269.188.577.241.919.05.329.076.649.076.953 0 .546-.112 1.048-.335 1.493-.275.55-.777.851-1.415.851-.311 0-.64.017-.979.05-.28.027-.677.058-1.188.092-.04 2.679-.043 5.378-.01 8.032.035 2.818.053 5.691.053 8.542 0 .477-.067.856-.205 1.16a1.616 1.616 0 01-.695.768c-.27.15-.587.247-.944.29a8.736 8.736 0 01-1.024.056z"/><path class="st0" d="M63.14 33.556c.186 0 .349.07.489.21.14.14.255.326.349.558.092.233.162.5.21.803.046.303.069.593.069.873 0 .465-.093.884-.28 1.256-.186.373-.5.559-.942.559-.326 0-.67.017-1.03.052a53.47 53.47 0 01-1.658.122 296.83 296.83 0 00-.017 8.535c.035 2.828.052 5.673.052 8.535 0 .396-.052.71-.157.943a1.092 1.092 0 01-.471.524c-.21.116-.46.192-.75.227-.292.034-.612.052-.96.052a4.66 4.66 0 01-.618-.043 3.44 3.44 0 01-1.303-.428c-.535-.315-.803-.774-.803-1.38 0-2.745.023-5.561.07-8.447.047-2.885.047-5.713 0-8.483h-3.107a.77.77 0 01-.54-.21 1.686 1.686 0 01-.385-.558 3.632 3.632 0 01-.244-.785 4.516 4.516 0 01-.087-.89c0-.535.098-1 .296-1.397.198-.395.448-.593.751-.593H59.893c.722 0 1.373-.005 1.955-.017a73.168 73.168 0 011.292-.018m0-1.057c-.284 0-.722.006-1.312.018-.563.012-1.196.017-1.935.017h-7.819c-.414 0-1.184.153-1.696 1.178-.27.542-.408 1.17-.408 1.869 0 .372.036.74.108 1.098.073.365.18.706.317 1.012.163.362.376.665.632.901.345.32.78.489 1.256.489h2.066c.03 2.42.025 4.908-.015 7.409-.047 2.859-.07 5.707-.07 8.465 0 .975.47 1.789 1.325 2.29.494.29 1.066.48 1.698.564a5.7 5.7 0 00.756.053 9.2 9.2 0 001.086-.06c.426-.051.808-.17 1.137-.352.408-.228.726-.578.923-1.015.168-.373.25-.823.25-1.376 0-2.846-.018-5.722-.053-8.548-.03-2.494-.03-5.023.004-7.533.287-.02.527-.04.717-.059a9.68 9.68 0 01.928-.047c.836 0 1.524-.417 1.888-1.143.26-.519.39-1.1.39-1.73 0-.33-.027-.677-.081-1.032a4.786 4.786 0 00-.273-1.034 2.699 2.699 0 00-.583-.915 1.717 1.717 0 00-1.236-.519z"/><path class="st2" d="M63.978 34.324a1.644 1.644 0 00-.35-.559.67.67 0 00-.488-.209c-.28 0-.71.006-1.292.017-.582.012-1.233.018-1.955.018h-7.077c-.5.122-.885.165-.972.636-.15.811.479 2.28.9 2.356.942.171 3.94-.129 3.855 1.156s-.257 16.15-.086 16.836c.12.48.2 1.463.913 2.187.198.026.402.043.617.043.35 0 .669-.018.96-.053.291-.034.541-.11.75-.226.21-.117.367-.291.472-.524.105-.232.157-.547.157-.943 0-2.862-.017-5.707-.052-8.535-.035-2.827-.03-5.672.017-8.535a53.47 53.47 0 001.658-.122c.36-.035.704-.052 1.03-.052.442 0 .756-.186.943-.559.186-.372.279-.79.279-1.256 0-.28-.023-.57-.07-.873a3.712 3.712 0 00-.21-.803z"/><path class="st0" d="M56.6 37.74c.085-1.286-2.914-.986-3.856-1.157-.665-.12-.472-2.313.072-2.992h-.742c-.303 0-.553.198-.75.593-.199.396-.297.862-.297 1.397 0 .302.029.6.087.89.058.291.14.553.244.785.105.233.233.42.384.559a.77.77 0 00.541.21h3.107c.047 2.769.047 5.597 0 8.482-.047 2.886-.07 5.702-.07 8.448 0 .605.268 1.064.803 1.379.38.223.817.363 1.303.428-.712-.724-.793-1.707-.913-2.187-.17-.685 0-15.55.086-16.835z"/></g><g><path class="st0" d="M69.225 38.518c-.613 0-.912-.265-1.055-.488a1.42 1.42 0 01-.241-.774c0-.51.18-.936.522-1.242a2.338 2.338 0 01-.79-.588c-.47-.528-.71-1.169-.71-1.905 0-.293.064-.617.189-.964.128-.356.327-.685.594-.979.261-.29.594-.54.987-.743.247-.128.525-.217.849-.27.21-.034.406-.05.597-.05.974 0 1.772.29 2.372.86.607.58.915 1.325.915 2.216 0 .446-.116.946-.354 1.527a7.203 7.203 0 01-.885 1.563c-.37.497-.803.924-1.288 1.268-.474.337-.99.524-1.535.556-.072.009-.12.013-.167.013z"/><path class="st0" d="M70.168 31.043c.837 0 1.506.239 2.007.715.5.478.75 1.088.75 1.833 0 .372-.104.815-.314 1.326-.21.513-.483.995-.82 1.45a5.233 5.233 0 01-1.17 1.151c-.4.285-.821.434-1.26.46-.045.003-.09.011-.136.011-.303 0-.506-.08-.61-.244a.896.896 0 01-.158-.489c0-.395.14-.698.419-.907.28-.21.5-.43.663-.664a2.405 2.405 0 01-.093.002c-.563 0-1.026-.204-1.39-.612-.384-.43-.576-.948-.576-1.554 0-.232.052-.494.157-.785.104-.291.267-.559.489-.803.22-.245.5-.454.837-.629.206-.106.439-.176.692-.218.162-.026.331-.043.513-.043m0-1.057c-.223 0-.446.019-.683.058a3.37 3.37 0 00-1.008.322c-.448.232-.83.52-1.135.858a3.462 3.462 0 00-.7 1.154c-.145.405-.219.79-.219 1.143 0 .87.284 1.63.844 2.257.126.141.261.267.405.378a2.258 2.258 0 00-.272 1.1c0 .37.11.726.326 1.061.174.272.602.73 1.5.73.066 0 .131-.006.196-.013a3.456 3.456 0 001.811-.654 6.313 6.313 0 001.406-1.383c.39-.525.709-1.09.95-1.68.265-.645.393-1.21.393-1.726 0-1.026-.373-1.924-1.078-2.597-.702-.67-1.623-1.008-2.736-1.008z"/><path class="st2" d="M70.168 31.043c-.182 0-.31-.014-.513.043-.434.25-1.26-.054-1.26 2.659 0 1.205 2.713.782 2.085 1.867-.497.86-1.171 1.79-1.12 2.366.44-.026.86-.175 1.261-.46a5.233 5.233 0 001.17-1.152c.337-.454.61-.936.82-1.449.21-.511.314-.954.314-1.326 0-.745-.25-1.355-.75-1.833-.5-.476-1.17-.715-2.007-.715z"/><path class="st0" d="M68.454 33.311c0-1.542.777-2.078 1.201-2.225a2.309 2.309 0 00-.692.218 2.923 2.923 0 00-.838.629 2.401 2.401 0 00-.488.803 2.353 2.353 0 00-.157.785c0 .606.192 1.123.576 1.554.384.43.878.634 1.483.61a2.982 2.982 0 01-.663.664c-.28.21-.419.512-.419.907 0 .163.052.326.157.489.105.163.308.244.611.244.046 0 .09-.008.136-.01-.052-.578.622-1.508 1.12-2.367.627-1.085-2.027-.155-2.027-2.301z"/></g><g><path class="st0" d="M82.092 57.857c-.74 0-1.473-.094-2.176-.28a9.886 9.886 0 01-.784-.248 8.633 8.633 0 01-1.124-.475 6.382 6.382 0 01-1.502-1.066c-.436-.422-.753-.87-.941-1.33L74.24 51.32a2.503 2.503 0 01-.198-.917 3.093 3.093 0 01.126-1.008c.102-.352.287-.68.55-.972a2.79 2.79 0 01.988-.692 3.068 3.068 0 011.095-.212c.27 0 .53.044.774.131.6.216.979.513 1.158.907l1.364 3.077c.148.335.411.647.78.928.346.265.837.398 1.46.398.138 0 .266-.013.39-.03.407-.06.717-.212.95-.463.316-.344.47-.74.47-1.212 0-.35-.177-.67-.543-.974a12.845 12.845 0 00-1.742-1.188c-.72-.418-1.51-.87-2.37-1.359a13.96 13.96 0 01-2.466-1.777 9.488 9.488 0 01-1.922-2.42c-.532-.95-.801-2.076-.801-3.348 0-1.094.209-2.118.622-3.043.411-.921.98-1.73 1.69-2.403a7.57 7.57 0 012.55-1.576 9.343 9.343 0 013.172-.558c1.305 0 2.474.24 3.473.714.988.47 1.811 1.056 2.447 1.741.644.695 1.1 1.455 1.355 2.26.261.822.312 1.58.15 2.255l-.56 2.173c-.068.303-.248.591-.529.84-.24.212-.531.39-.862.528a3.365 3.365 0 01-1.325.259c-.272 0-.536-.032-.786-.094a2.692 2.692 0 01-.328-.122l-.078-.034a4.09 4.09 0 01-.897-.49c-.712-.522-.669-1.129-.579-1.443l.448-1.865a.72.72 0 00-.04-.486 1.645 1.645 0 00-.385-.542 2.393 2.393 0 00-.644-.427 1.762 1.762 0 00-.756-.161c-.589 0-1.074.231-1.484.706-.43.5-.64 1.112-.64 1.872 0 .66.198 1.192.607 1.629a7.684 7.684 0 001.733 1.354c.715.42 1.51.835 2.364 1.234.898.419 1.738.912 2.497 1.466a8.498 8.498 0 011.973 2.01c.56.809.844 1.814.844 2.99 0 1.06-.232 2.031-.691 2.885a6.731 6.731 0 01-1.836 2.158 8.653 8.653 0 01-2.62 1.358c-.98.318-2.022.48-3.096.48z"/><path class="st0" d="M82.337 33.137c1.233 0 2.315.222 3.246.663.93.443 1.693.984 2.287 1.624.593.64 1.006 1.326 1.239 2.06.232.732.28 1.39.14 1.972l-.559 2.164c-.047.21-.17.401-.367.576-.198.174-.436.32-.715.436a2.826 2.826 0 01-1.123.218 2.7 2.7 0 01-.658-.078c-.114-.034-.221-.086-.332-.13a3.624 3.624 0 01-.785-.429c-.349-.256-.477-.546-.383-.872l.453-1.885c.07-.28.047-.553-.07-.82a2.185 2.185 0 00-.506-.716 2.906 2.906 0 00-.785-.524 2.305 2.305 0 00-.978-.21c-.745 0-1.373.297-1.885.89-.512.594-.768 1.333-.768 2.217 0 .792.25 1.455.751 1.99.5.536 1.117 1.018 1.85 1.449.733.43 1.536.85 2.409 1.256.872.408 1.675.88 2.408 1.414a7.919 7.919 0 011.85 1.885c.5.722.751 1.618.751 2.688 0 .978-.21 1.856-.628 2.636a6.176 6.176 0 01-1.693 1.99c-.71.547-1.53.97-2.461 1.274a9.439 9.439 0 01-2.933.453 7.99 7.99 0 01-2.042-.261 9.504 9.504 0 01-.742-.236 8.083 8.083 0 01-1.056-.445 5.84 5.84 0 01-1.378-.978c-.384-.371-.658-.755-.82-1.151l-1.327-3.142a1.994 1.994 0 01-.157-.733 2.57 2.57 0 01.104-.838 1.96 1.96 0 01.437-.768c.21-.232.476-.419.803-.559a2.542 2.542 0 01.886-.17c.207 0 .406.032.597.1.454.164.739.373.855.629l1.362 3.072c.186.419.5.797.942 1.134.442.338 1.036.507 1.78.507.166 0 .32-.016.468-.037.521-.076.944-.282 1.26-.627.408-.442.612-.965.612-1.57 0-.512-.245-.972-.733-1.38a13.263 13.263 0 00-1.816-1.239c-.721-.419-1.513-.872-2.373-1.361a13.356 13.356 0 01-2.374-1.71 8.935 8.935 0 01-1.815-2.287c-.49-.873-.733-1.903-.733-3.09 0-1.023.191-1.966.575-2.827a6.933 6.933 0 011.571-2.234 7.034 7.034 0 012.374-1.466c.348-.132.71-.231 1.079-.313a8.741 8.741 0 011.906-.21m0-1.058c-.713 0-1.432.08-2.136.236-.463.103-.864.22-1.224.357a8.117 8.117 0 00-2.725 1.687 8.016 8.016 0 00-1.81 2.57c-.443.994-.667 2.09-.667 3.259 0 1.364.292 2.577.868 3.605.543.97 1.226 1.83 2.029 2.555.287.26.586.508.896.745a2.85 2.85 0 00-.768-.103 3.595 3.595 0 00-1.272.243l-.015.005-.015.007c-.466.2-.86.476-1.172.823-.317.352-.54.748-.666 1.18a3.631 3.631 0 00-.146 1.178c.017.41.1.787.247 1.118l1.319 3.123c.213.519.57 1.027 1.058 1.5.455.441 1.003.83 1.626 1.155.34.178.72.338 1.193.504.253.09.525.183.824.262a9.084 9.084 0 002.311.296c1.13 0 2.225-.17 3.259-.505a9.19 9.19 0 002.78-1.442 7.254 7.254 0 001.979-2.327c.5-.931.754-1.986.754-3.136 0-1.284-.316-2.391-.939-3.29a9.013 9.013 0 00-2.095-2.136 15.543 15.543 0 00-2.585-1.518c-.84-.391-1.62-.798-2.32-1.21a7.145 7.145 0 01-1.614-1.26c-.318-.34-.466-.742-.466-1.268 0-.628.167-1.127.511-1.526.313-.362.647-.524 1.085-.524.196 0 .371.037.535.113.196.09.365.202.502.331.117.111.204.233.264.371.026.06.025.096.013.141l-.452 1.877c-.204.751.08 1.475.783 1.99.29.213.62.394 1.01.553l.073.031c.097.042.217.094.361.136l.02.006.021.005a3.77 3.77 0 001.225.098 3.891 3.891 0 001.22-.288c.382-.16.722-.368 1.006-.618.362-.32.596-.696.695-1.118l.555-2.151c.188-.785.135-1.64-.156-2.556-.28-.88-.774-1.706-1.471-2.459-.683-.735-1.56-1.36-2.608-1.859-1.071-.508-2.316-.766-3.7-.766zm0 20.352c-.505 0-.888-.097-1.139-.29-.298-.226-.506-.47-.618-.723l-1.361-3.071a1.83 1.83 0 00-.13-.236l.143.082c.857.487 1.646.939 2.365 1.356.666.387 1.228.77 1.67 1.138.352.294.352.492.352.566 0 .338-.105.61-.332.856-.093.1-.26.241-.636.296-.12.018-.22.026-.314.026z"/><path class="st0" d="M82.731 47.55c-3.484-1.714-6.454-3.77-6.569-7.654-.08-2.715 2.63-5.26 4.269-6.548-.37.082-.731.18-1.079.313-.92.349-1.71.838-2.374 1.466a6.933 6.933 0 00-1.57 2.234c-.385.861-.577 1.804-.577 2.828 0 1.186.245 2.216.734 3.089a8.935 8.935 0 001.815 2.286 13.356 13.356 0 002.374 1.71c.86.49 1.652.943 2.373 1.362.721.42 1.327.833 1.815 1.24.49.407.734.867.734 1.378 0 .606-.204 1.13-.611 1.571-.318.345-.74.55-1.262.627a1.62 1.62 0 01-.015.038c4.57-.685 3.427-4.227-.057-5.94z"/><path class="st2" d="M87.206 46.402a14.414 14.414 0 00-2.408-1.414 28.626 28.626 0 01-2.409-1.256c-.733-.43-1.35-.913-1.85-1.449-.5-.535-.75-1.198-.75-1.99 0-.884.255-1.623.767-2.216.512-.594 1.14-.89 1.885-.89.35 0 .675.07.978.209 0 0 2.51.1 2.168 2.557-.194 1.391-.314 2.159-.092 2.688.11.045.218.097.332.13.28.07.577.094.89.07.315-.022.612-.092.89-.209.28-.116.518-.262.716-.436.198-.175.32-.367.367-.576l.558-2.164c.14-.582.093-1.24-.14-1.973-.232-.733-.645-1.419-1.238-2.06-.594-.64-1.356-1.18-2.287-1.623-.93-.441-2.013-.663-3.246-.663a8.74 8.74 0 00-1.906.21c-1.927.665-4.106 2.185-4.326 4.892-.514 6.34 3.142 7.597 6.626 9.31 3.484 1.714 4.627 5.256.057 5.941l.015-.038a3.193 3.193 0 01-.466.037c-.745 0-1.339-.169-1.78-.507-.443-.337-.757-.715-.943-1.134l-1.362-3.072c-.116-.256-.401-.465-.855-.628a1.882 1.882 0 00-.927-.075c-.495.6-1.136 1.636-.765 2.675.488 1.365 1.56 4.594 3.603 6.083.24.084.482.167.742.236a7.99 7.99 0 002.042.261 9.439 9.439 0 002.933-.453 8.099 8.099 0 002.46-1.274 6.176 6.176 0 001.694-1.99c.419-.78.628-1.658.628-2.636 0-1.07-.25-1.966-.75-2.688a7.918 7.918 0 00-1.85-1.885z"/><path class="st0" d="M75.705 50.748c-.37-1.039.27-2.075.765-2.675a2.54 2.54 0 00-.556.144c-.327.14-.594.327-.803.559a1.96 1.96 0 00-.437.768c-.082.28-.116.558-.104.838.011.279.063.523.157.733l1.326 3.142c.163.396.437.78.82 1.152a5.84 5.84 0 001.38.977c.325.17.682.314 1.055.445-2.042-1.489-3.115-4.718-3.603-6.083zM85.587 39.953c.343-2.456-2.168-2.557-2.168-2.557.302.14.564.314.785.524.221.209.39.448.506.715.117.268.14.541.07.82l-.454 1.886c-.093.326.035.616.384.872.249.183.513.317.785.428-.222-.529-.102-1.297.092-2.688z"/></g><g><path class="st0" d="M105.111 57.857a8.642 8.642 0 01-2.137-.274 8.221 8.221 0 01-1.288-.435c-1.072-.473-2.017-1.197-2.811-2.153-.785-.943-1.411-2.142-1.86-3.563-.445-1.407-.67-3.076-.67-4.96 0-1.833.125-3.592.372-5.228.251-1.662.69-3.141 1.305-4.395.63-1.285 1.498-2.32 2.58-3.08 1.098-.77 2.498-1.16 4.16-1.16.791 0 1.575.113 2.331.336.755.223 1.43.526 2.006.901a5.33 5.33 0 011.452 1.377c.396.56.61 1.178.638 1.837l.213 6.492-.033.094c-.19.54-.624.956-1.287 1.236a4.588 4.588 0 01-1.794.373 3.59 3.59 0 01-.322-.016 2.635 2.635 0 01-1.011-.292 1.344 1.344 0 01-.732-1.233l-.278-4.892c-.016-.286-.115-.48-.324-.632-.247-.178-.54-.266-.894-.266-.097 0-.395 0-.76.5-.312.425-.585 1.028-.81 1.792-.235.794-.41 1.726-.523 2.77a31.644 31.644 0 00-.171 3.381c0 .808.062 1.627.185 2.434.122.794.31 1.519.563 2.154.24.603.546 1.095.912 1.462.319.318.7.473 1.162.473.326 0 .586-.078.796-.24.25-.192.473-.44.66-.736.199-.312.369-.67.507-1.062.146-.415.277-.832.39-1.24.094-.31.353-.696 1.076-.832.268-.05.537-.082.845-.099l.084-.005c.073-.005.146-.01.215-.01.55 0 1.09.138 1.608.41.619.326.945.85.945 1.515 0 .917-.156 1.823-.466 2.691a6.946 6.946 0 01-1.399 2.342 6.779 6.779 0 01-2.288 1.629c-.904.4-1.962.604-3.147.604z"/><path class="st0" d="M104.762 33.137c.744 0 1.471.105 2.182.314.71.21 1.332.489 1.867.838.535.35.972.763 1.31 1.24.336.477.517.994.54 1.553l.21 6.388c-.14.396-.471.704-.995.925a4.044 4.044 0 01-1.588.332c-.095 0-.185-.006-.273-.014a2.097 2.097 0 01-.81-.23c-.302-.163-.453-.42-.453-.769l-.28-4.922c-.023-.442-.204-.785-.54-1.03-.338-.244-.74-.366-1.205-.366-.442 0-.838.239-1.187.716-.349.477-.646 1.129-.89 1.954-.244.827-.425 1.78-.541 2.863a32.108 32.108 0 00-.175 3.438c0 .838.064 1.676.192 2.514.128.838.326 1.594.594 2.269.267.675.61 1.222 1.03 1.64.418.42.93.629 1.535.629.442 0 .815-.116 1.118-.35a3.35 3.35 0 00.785-.872c.22-.35.407-.739.559-1.17.15-.43.284-.855.401-1.274.07-.232.29-.384.663-.453a5.93 5.93 0 01.777-.091c.09-.005.183-.014.27-.014.466 0 .92.117 1.362.349.442.233.663.582.663 1.047 0 .861-.146 1.7-.436 2.514a6.386 6.386 0 01-1.292 2.164 6.224 6.224 0 01-2.112 1.5c-.838.373-1.815.56-2.932.56a8.058 8.058 0 01-2.006-.258 7.675 7.675 0 01-1.206-.406c-1-.442-1.873-1.11-2.618-2.007-.745-.896-1.332-2.025-1.763-3.386-.43-1.362-.645-2.961-.645-4.8 0-1.815.122-3.531.366-5.149.245-1.617.663-3.03 1.257-4.241.593-1.21 1.396-2.17 2.409-2.88 1.012-.71 2.297-1.065 3.857-1.065m0-1.057c-1.773 0-3.275.423-4.464 1.257-1.155.81-2.08 1.913-2.75 3.28-.64 1.301-1.094 2.832-1.354 4.548a35.712 35.712 0 00-.378 5.307c0 1.94.234 3.662.695 5.119.47 1.487 1.129 2.746 1.958 3.743.846 1.018 1.857 1.792 3.004 2.298.407.18.856.331 1.37.463.753.193 1.516.29 2.268.29 1.26 0 2.39-.218 3.361-.65a7.304 7.304 0 002.466-1.756 7.469 7.469 0 001.504-2.519c.33-.926.498-1.89.498-2.869 0-.86-.436-1.565-1.227-1.982a3.957 3.957 0 00-1.855-.47c-.083 0-.17.004-.258.01l-.07.005a6.994 6.994 0 00-.914.107c-1.035.194-1.372.828-1.48 1.188a19.62 19.62 0 01-.387 1.229 4.71 4.71 0 01-.454.954 2.311 2.311 0 01-.536.6c-.073.056-.201.13-.474.13-.324 0-.568-.098-.788-.319-.315-.315-.583-.746-.795-1.282a9.384 9.384 0 01-.531-2.04c-.12-.78-.18-1.572-.18-2.354 0-1.17.057-2.289.168-3.325.11-1.013.279-1.914.504-2.676.209-.705.454-1.254.73-1.63.048-.067.216-.283.334-.283.243 0 .428.052.585.166.05.035.097.07.105.23l.278 4.9c.012.72.378 1.325 1.01 1.664.355.192.763.31 1.212.352.12.011.243.018.37.018.677 0 1.35-.14 2-.415.807-.34 1.338-.86 1.58-1.547l.066-.187-.006-.199-.21-6.388a3.914 3.914 0 00-.734-2.128 5.855 5.855 0 00-1.594-1.515 8.145 8.145 0 00-2.146-.966 8.766 8.766 0 00-2.481-.358z"/><path class="st2" d="M111.22 49.544a2.896 2.896 0 00-1.362-.35c-.087 0-.18.01-.27.015-.72 5.393-4.303 4.21-4.303 4.21-.605 0-1.116-.21-1.535-.629-.42-.418-.763-.965-1.03-1.64a10.389 10.389 0 01-.594-2.27 16.607 16.607 0 01-.192-2.513c0-1.21.058-2.356.175-3.438.116-1.082.297-2.036.541-2.863.244-.825.541-1.477.89-1.954.35-.477.745-.716 1.187-.716.465 0 .867.122 1.204.366 0 0 1.561-.494 1.647 2.334.048 1.581.283 3.35.437 4.617.088.008.178.014.273.014.535 0 1.064-.11 1.588-.332.524-.22.855-.53.995-.925l-.21-6.388a2.854 2.854 0 00-.54-1.554 4.782 4.782 0 00-1.31-1.239 7.058 7.058 0 00-1.867-.838 7.673 7.673 0 00-2.182-.314s-4.895 1.304-5.923 7.644c-.946 5.83-.077 13.323 4.266 16.29.644.165 1.31.257 2.006.257 1.117 0 2.094-.186 2.932-.558a6.224 6.224 0 002.112-1.501c.57-.628 1-1.35 1.292-2.164.29-.815.436-1.653.436-2.514 0-.465-.221-.814-.663-1.047z"/><path class="st0" d="M98.839 40.781c1.028-6.34 5.923-7.644 5.923-7.644-1.56 0-2.845.355-3.857 1.065-1.013.71-1.816 1.67-2.41 2.88-.593 1.21-1.011 2.624-1.256 4.241a34.49 34.49 0 00-.366 5.15c0 1.838.215 3.437.645 4.799.43 1.361 1.018 2.49 1.763 3.386.745.896 1.618 1.565 2.618 2.007.39.172.794.301 1.206.406-4.343-2.967-5.212-10.46-4.266-16.29zM105.931 37.762c.337.245.518.588.541 1.03l.28 4.922c0 .35.15.606.453.768.235.127.505.203.81.23-.154-1.266-.389-3.035-.437-4.616-.086-2.828-1.647-2.334-1.647-2.334zM109.588 49.209c-.248.014-.504.04-.777.09-.372.07-.593.222-.663.454-.117.42-.25.844-.401 1.275a5.74 5.74 0 01-.559 1.169 3.35 3.35 0 01-.785.873c-.303.233-.676.349-1.118.349 0 0 3.583 1.183 4.303-4.21z"/></g><g><path class="st0" d="M128.182 57.403c-.193 0-.439-.025-.75-.077l-.026-.004-.043-.012c-.29-.05-.6-.15-.892-.29-.34-.163-.637-.4-.882-.703-.275-.34-.414-.774-.414-1.292 0-.3-.006-.74-.017-1.317-.012-.581-.024-1.222-.035-1.921-.012-.7-.018-1.42-.018-2.156 0-.53.007-1.034.018-1.505l-3.324.053v1.906c0 .776.005 1.495.017 2.155.011.667.018 1.264.018 1.79v1.239c0 .973-.607 2.134-3.496 2.134-.133 0-.299-.01-.48-.023l-.179-.014c-.309-.03-.603-.11-.877-.24-.31-.147-.57-.382-.775-.697-.21-.322-.312-.736-.312-1.265v-5.131l.035-10.23v-5.13c0-.306.116-1.042 1.199-1.284a8.403 8.403 0 011.808-.187c.918 0 1.597.1 2.076.305.6.257.931.77.931 1.445 0 .137.011.503.034 1.097.024.609.04 1.352.053 2.23l.035 2.81c.009.805 0 1.59-.029 2.341h1.717c.297 0 .61-.005.942-.017.223-.007.49-.018.799-.03v-2.234c0-1.034-.006-2.02-.018-2.961a591.621 591.621 0 00-.052-3.55c0-.385.195-.726.55-.963a3.174 3.174 0 011.094-.447 6.34 6.34 0 01.798-.145c.329-.037.613-.055.844-.055.256 0 .537.019.834.056.32.04.625.115.907.223.32.121.592.301.81.534.253.272.386.62.386 1.007 0 3.313-.023 6.698-.07 10.06-.046 3.334-.07 6.726-.07 10.082 0 1.26-.585 1.792-1.076 2.017-.581.263-1.277.396-2.07.396z"/><path class="st0" d="M128.531 33.556c.233 0 .489.017.768.052.28.035.541.1.786.192.244.094.447.227.61.402.163.174.245.39.245.646 0 3.35-.024 6.702-.07 10.053a720.22 720.22 0 00-.07 10.089c0 .791-.256 1.303-.768 1.536-.512.232-1.129.349-1.85.349-.163 0-.384-.024-.663-.07l-.035-.008a3.089 3.089 0 01-.785-.254 2.005 2.005 0 01-.699-.558c-.198-.245-.296-.564-.296-.96 0-.303-.006-.745-.018-1.327-.012-.581-.023-1.222-.035-1.92-.012-.698-.017-1.414-.017-2.147 0-.733.011-1.414.035-2.042l-4.399.07v2.426c0 .78.006 1.501.018 2.164.011.664.017 1.257.017 1.78v1.24c0 1.07-.99 1.606-2.967 1.606-.122 0-.274-.01-.44-.022-.057-.004-.109-.007-.17-.013a2.083 2.083 0 01-.7-.192 1.36 1.36 0 01-.558-.506c-.151-.233-.226-.559-.226-.978v-5.131l.034-10.228v-5.132c0-.395.262-.651.786-.768a7.807 7.807 0 011.693-.174c.838 0 1.46.087 1.867.261.407.175.611.495.611.96 0 .14.012.512.035 1.117.023.606.04 1.344.053 2.217l.035 2.81c.011 1.001-.006 1.955-.053 2.863h2.27c.301 0 .622-.006.96-.018.336-.011.773-.029 1.308-.052v-2.74c0-1.036-.006-2.025-.017-2.968a598.45 598.45 0 00-.053-3.543c0-.21.105-.384.315-.523.21-.14.459-.25.75-.332.059-.016.12-.028.18-.042.236-.058.477-.105.728-.133.314-.035.576-.052.785-.052m0-1.057c-.251 0-.546.02-.902.06-.274.03-.556.08-.861.155l-.048.01a3.69 3.69 0 00-1.219.51c-.506.339-.784.837-.784 1.404 0 .071.005.45.017 1.136.012.673.023 1.48.035 2.42.012.952.018 1.946.018 2.955v1.726l-.289.01c-.326.012-.633.017-.924.017h-1.171c.014-.59.018-1.198.011-1.818-.012-1.001-.023-1.939-.035-2.812a96.55 96.55 0 00-.053-2.242 38.398 38.398 0 01-.034-1.078c0-.886-.456-1.59-1.251-1.93-.546-.235-1.293-.348-2.284-.348-.678 0-1.325.067-1.922.2-1.497.333-1.613 1.461-1.613 1.8v5.13l-.035 10.225v5.135c0 .635.13 1.144.399 1.555.258.397.592.695.991.884a3.143 3.143 0 001.19.3l.05.004c.218.016.384.024.521.024 3.501 0 4.024-1.668 4.024-2.662v-1.24c0-.528-.006-1.128-.018-1.798-.011-.643-.017-1.345-.017-2.146v-1.386l2.257-.036c-.005.312-.007.636-.007.968 0 .757.006 1.485.018 2.165.011.7.023 1.341.035 1.924.011.572.017 1.007.017 1.305 0 .642.179 1.189.532 1.625.295.365.653.65 1.063.846a4.164 4.164 0 001.102.351c.342.057.616.084.838.084.869 0 1.638-.149 2.287-.443.519-.236 1.388-.875 1.388-2.498 0-3.383.023-6.772.07-10.074.046-3.356.07-6.743.07-10.068 0-.523-.183-.996-.528-1.366a2.661 2.661 0 00-1.007-.669 4.47 4.47 0 00-1.032-.253 7.3 7.3 0 00-.899-.06z"/><path class="st2" d="M130.085 33.8a3.393 3.393 0 00-.786-.192 6.226 6.226 0 00-.768-.052c-.21 0-.471.017-.785.052-.251.028-.492.075-.728.133l-.162 10.148h-1.013c-.535.023-.972.04-1.309.052-.337.012-.658.018-.96.018h-2.269c.047-.908.064-1.862.053-2.863l-.035-2.81a94.939 94.939 0 00-.053-2.217 42.212 42.212 0 01-.035-1.117c0-.465-.204-.785-.61-.96-.408-.174-1.03-.261-1.868-.261 0 0-1.069.196-.983 2.51.085 2.312-.086 9.68-.086 12.851 0 0-.052 5.106.21 7.761.166.013.318.022.44.022 1.978 0 2.967-.536 2.967-1.606v-1.24c0-.523-.006-1.116-.017-1.78a120.56 120.56 0 01-.018-2.164V47.66l4.399-.07h1.101v7.243s.122 1.14.715 1.965l.034.008c.28.046.5.07.663.07.721 0 1.338-.117 1.85-.35.512-.232.768-.744.768-1.535 0-3.374.023-6.738.07-10.089.046-3.351.07-6.702.07-10.053a.912.912 0 00-.244-.646 1.604 1.604 0 00-.611-.402z"/><path class="st0" d="M117.688 49.092c0-3.17.171-10.539.086-12.852-.086-2.313.983-2.51.983-2.51-.606 0-1.17.059-1.693.175-.524.117-.786.373-.786.768v5.132l-.034 10.228v5.131c0 .419.075.745.226.978.152.232.338.401.559.506.22.104.454.168.698.192.062.006.114.009.17.013-.26-2.655-.209-7.761-.209-7.761zM127.018 33.74c-.06.015-.121.027-.18.043a2.622 2.622 0 00-.75.332c-.21.14-.315.314-.315.523a598.476 598.476 0 01.052 3.543c.012.943.018 1.932.018 2.968v2.74h1.013l.162-10.148zM126.77 47.59h-1.101c-.024.627-.035 1.308-.035 2.041 0 .733.005 1.449.017 2.147.012.698.023 1.339.035 1.92.012.582.018 1.024.018 1.327 0 .396.098.715.296.96.198.244.43.43.699.558.256.122.518.205.786.254-.593-.824-.715-1.965-.715-1.965V47.59z"/></g><g><path class="st0" d="M138.345 57.333c-.192 0-.427-.015-.72-.046l-.106-.009a4.558 4.558 0 01-.97-.219 2.29 2.29 0 01-.881-.544c-.285-.283-.435-.666-.435-1.106 0-.137.021-.405.184-1.268.117-.619.282-1.395.493-2.307.21-.907.442-1.925.698-3.053.26-1.146.537-2.307.823-3.45.29-1.162.575-2.319.855-3.47.28-1.154.542-2.204.787-3.15.243-.94.453-1.754.628-2.44.18-.712.317-1.191.417-1.465.228-.716.748-1.25 1.538-1.566.7-.28 1.535-.422 2.484-.422.958 0 1.722.114 2.335.35.654.25 1.146.695 1.463 1.322.068.102.124.299.312 1.111.14.607.315 1.382.525 2.326l.715 3.23c.268 1.211.536 2.446.804 3.704.267 1.255.534 2.488.802 3.696.268 1.214.501 2.304.7 3.272.197.965.36 1.75.488 2.353.204.964.204 1.013.204 1.087 0 .505-.16.903-.476 1.181-.25.221-.552.391-.898.507a3.73 3.73 0 01-1.038.184c-.322.012-.602.018-.84.018-.125 0-.237-.006-.349-.013l-.093-.004c-.86-.045-1.463-.214-1.843-.518-.439-.351-.758-.903-.95-1.642a18.873 18.873 0 01-.202-1.098c-.038-.246-.09-.517-.157-.81h-.35l-1.583-.034h-1.647c-.145 0-.292.003-.44.009-.067.39-.13.773-.19 1.15a29.554 29.554 0 01-.301 1.6 1.53 1.53 0 01-.502.899c-.228.197-.49.344-.78.436-.257.08-.522.135-.788.161-.251.025-.492.038-.716.038zm6.567-8.98a106.132 106.132 0 00-.8-4.162c-.141-.66-.271-1.327-.39-1.997l-.58 2.952a143.548 143.548 0 01-.621 3.206h2.39z"/><path class="st0" d="M144.14 33.347c.884 0 1.6.104 2.146.314.547.21.948.582 1.205 1.117.023.023.104.337.244.942.14.606.314 1.38.524 2.322.21.942.448 2.019.715 3.229a512.2 512.2 0 01.803 3.7c.267 1.257.535 2.49.803 3.7.267 1.21.5 2.299.698 3.264.198.966.36 1.752.489 2.356.128.606.192.932.192.978 0 .349-.1.61-.297.785a2.047 2.047 0 01-.715.402c-.28.093-.576.145-.89.157a23 23 0 01-.82.017c-.152 0-.281-.01-.417-.016-.723-.037-1.245-.167-1.539-.403-.349-.279-.605-.733-.768-1.361a18.62 18.62 0 01-.192-1.047c-.058-.372-.145-.791-.261-1.257h-.768l-1.571-.035h-1.658c-.292 0-.588.012-.89.035-.094.536-.181 1.06-.262 1.571-.082.512-.181 1.036-.297 1.57-.047.257-.157.46-.332.612a1.664 1.664 0 01-.593.331c-.222.07-.449.117-.68.14a6.804 6.804 0 01-.664.035c-.184 0-.41-.016-.665-.043-.036-.004-.066-.005-.103-.01a3.996 3.996 0 01-.855-.192 1.77 1.77 0 01-.681-.418c-.187-.186-.28-.43-.28-.733 0-.163.058-.553.175-1.17.116-.616.28-1.379.489-2.286.21-.908.442-1.926.698-3.055.256-1.128.53-2.274.82-3.438.291-1.164.576-2.322.856-3.474.279-1.152.54-2.199.785-3.141.244-.943.454-1.757.628-2.444.175-.686.309-1.157.402-1.414.186-.581.599-1 1.24-1.256.639-.256 1.4-.384 2.286-.384m-2.27 15.534h3.666c-.257-1.56-.559-3.16-.908-4.8a59.173 59.173 0 01-.838-4.975l-1.166 5.939a138.565 138.565 0 01-.753 3.836m2.269-16.591c-1.015 0-1.916.154-2.68.46-.923.37-1.56 1.024-1.846 1.895-.106.296-.242.773-.426 1.496-.174.685-.383 1.498-.627 2.438a207.78 207.78 0 00-.79 3.158c-.278 1.15-.563 2.305-.853 3.467-.29 1.159-.568 2.323-.825 3.46a904.56 904.56 0 01-.698 3.051c-.212.922-.38 1.705-.497 2.328-.17.898-.193 1.194-.193 1.366 0 .584.204 1.096.59 1.481.297.297.66.523 1.08.668a5.073 5.073 0 001.17.253c.335.035.588.05.8.05.238 0 .496-.013.766-.04.307-.03.607-.092.895-.183.36-.113.684-.295.968-.54.35-.303.583-.718.676-1.2.118-.545.22-1.088.304-1.614l.116-.716h1.651l1.492.033c.025.128.046.25.064.366.06.382.128.754.203 1.104l.005.022.005.022c.22.85.6 1.497 1.131 1.922.476.38 1.158.581 2.145.632l.082.005c.124.007.249.013.388.013.243 0 .53-.006.859-.018a4.27 4.27 0 001.185-.21 3.11 3.11 0 001.08-.612c.3-.264.656-.752.656-1.578 0-.125 0-.177-.215-1.196-.128-.603-.29-1.386-.487-2.35-.197-.957-.433-2.06-.702-3.28a456.746 456.746 0 01-.801-3.692 514.09 514.09 0 00-.805-3.708c-.268-1.21-.506-2.288-.716-3.23-.21-.946-.385-1.723-.525-2.33-.168-.729-.239-1.032-.36-1.24a3.215 3.215 0 00-1.74-1.569c-.676-.258-1.502-.384-2.525-.384zm-.972 15.534c.167-.832.333-1.698.495-2.59l.062-.312c.202.976.388 1.947.558 2.902h-1.115z"/><path class="st3" d="M144.628 44.08a59.173 59.173 0 01-.837-4.974l-1.167 5.939a138.632 138.632 0 01-.753 3.836h3.665c-.257-1.56-.559-3.16-.908-4.8z"/><path class="st0" d="M137.223 54.832s3.598-16.793 4.113-18.763c.514-1.97 2.804-2.722 2.804-2.722-.885 0-1.647.128-2.287.384-.64.256-1.053.675-1.24 1.256-.092.257-.226.728-.4 1.414-.175.687-.385 1.501-.629 2.444-.244.942-.506 1.99-.785 3.141-.28 1.152-.565 2.31-.856 3.474-.29 1.164-.564 2.31-.82 3.438a904.905 904.905 0 01-.698 3.055 59.5 59.5 0 00-.489 2.286c-.117.617-.174 1.007-.174 1.17 0 .302.092.547.279.733.186.186.413.325.68.418.268.093.553.158.856.192.037.005.067.006.103.01-.598-.933-.457-1.93-.457-1.93zM143.79 39.106c.21 1.676.49 3.334.838 4.975.35 1.64.651 3.24.908 4.8h-3.665l-.16.716 5.022-.162s-1.2-6.084-1.799-8.311c-.6-2.228-1.143-2.018-1.143-2.018z"/><path class="st0" d="M141.87 48.88c.259-1.218.51-2.499.754-3.835l-.753 3.836z"/><path class="st2" d="M151.278 51.935c-.198-.965-.43-2.053-.698-3.264-.268-1.21-.536-2.443-.803-3.7-.268-1.257-.535-2.49-.803-3.7l-.715-3.23c-.21-.942-.384-1.715-.524-2.32-.14-.606-.221-.92-.244-.943a2.144 2.144 0 00-1.205-1.117c-.547-.21-1.262-.314-2.146-.314 0 0-2.29.751-2.804 2.722-.515 1.97-4.113 18.763-4.113 18.763s-.141.997.457 1.93c.255.027.481.043.665.043.21 0 .43-.012.663-.035.232-.024.46-.07.68-.14.222-.07.42-.18.594-.331.175-.151.285-.355.332-.611.116-.535.215-1.059.297-1.571.08-.512.168-1.035.261-1.57.303-.024.6-.036.89-.036h1.659l1.57.035h2.128s.439 2.713 1.401 4.068c.136.007.265.016.416.016a23 23 0 00.82-.017c.315-.012.611-.064.89-.157.28-.094.518-.227.716-.402.198-.174.297-.436.297-.785 0-.046-.064-.372-.192-.978a347.56 347.56 0 01-.489-2.356zm-9.566-2.338l.159-.716.753-3.836 1.167-5.939s.543-.21 1.143 2.018c.6 2.227 1.8 8.31 1.8 8.31l-5.022.163z"/><path class="st0" d="M146.06 52.546c.116.466.203.885.261 1.257.058.372.123.721.192 1.047.163.628.42 1.082.768 1.361.294.236.816.366 1.54.403-.963-1.355-1.402-4.068-1.402-4.068h-1.36z"/></g><g><path class="st0" d="M160.353 57.333a4.89 4.89 0 01-1.19-.14 3.818 3.818 0 01-.998-.404c-.695-.408-1.063-1.042-1.063-1.834 0-2.768.023-5.613.07-8.457.043-2.686.045-5.356.008-7.946h-2.587c-.34 0-.652-.12-.9-.348a2.223 2.223 0 01-.507-.731 4.164 4.164 0 01-.28-.9 5.07 5.07 0 01-.098-.992c0-.616.119-1.165.352-1.633.366-.732.868-.886 1.224-.886h7.819c.717 0 1.365-.005 1.943-.017a74.587 74.587 0 011.304-.017 1.2 1.2 0 01.861.363c.19.19.346.438.466.736.108.269.189.577.242.919.05.329.076.649.076.953 0 .547-.113 1.05-.335 1.494-.275.548-.777.85-1.415.85-.311 0-.64.017-.979.05-.281.027-.677.058-1.189.092-.039 2.679-.043 5.378-.01 8.032.036 2.818.053 5.691.053 8.542 0 .477-.066.856-.204 1.16a1.616 1.616 0 01-.696.768c-.27.15-.587.247-.944.29a8.733 8.733 0 01-1.023.056z"/><path class="st0" d="M165.45 33.556c.185 0 .348.07.488.21.14.14.256.326.35.558.092.233.162.5.209.803.046.303.07.593.07.873 0 .465-.094.884-.28 1.256-.186.373-.5.559-.942.559-.327 0-.67.017-1.03.052a53.47 53.47 0 01-1.658.122 296.903 296.903 0 00-.018 8.535c.035 2.828.053 5.673.053 8.535 0 .396-.053.71-.157.943a1.092 1.092 0 01-.472.524c-.21.116-.46.192-.75.227-.292.034-.611.052-.96.052-.382 0-.735-.043-1.062-.125a3.263 3.263 0 01-.858-.346c-.536-.315-.803-.774-.803-1.38 0-2.745.023-5.561.07-8.447.046-2.885.046-5.713 0-8.483h-3.107a.77.77 0 01-.541-.21 1.686 1.686 0 01-.384-.558 3.63 3.63 0 01-.245-.785 4.512 4.512 0 01-.087-.89c0-.535.099-1 .297-1.397.197-.395.448-.593.75-.593H162.203c.721 0 1.373-.005 1.955-.017a73.179 73.179 0 011.291-.018m0-1.057c-.283 0-.721.006-1.312.018-.563.012-1.195.017-1.934.017H154.384c-.414 0-1.184.153-1.696 1.178-.271.542-.408 1.17-.408 1.869 0 .372.036.741.107 1.098.073.365.18.706.318 1.012.162.362.375.665.631.901.346.32.78.489 1.257.489h2.065c.03 2.42.025 4.908-.015 7.409-.046 2.86-.07 5.707-.07 8.465 0 .976.47 1.789 1.325 2.29.343.201.724.356 1.135.46.413.104.857.157 1.32.157.389 0 .754-.02 1.085-.06.426-.051.809-.17 1.138-.352.408-.228.726-.578.922-1.015.168-.373.25-.823.25-1.376 0-2.848-.017-5.724-.052-8.548-.03-2.494-.03-5.023.003-7.533.287-.02.527-.04.717-.059a9.68 9.68 0 01.929-.047c.836 0 1.524-.417 1.887-1.143a3.83 3.83 0 00.391-1.73c0-.33-.028-.677-.082-1.032a4.787 4.787 0 00-.272-1.034 2.7 2.7 0 00-.584-.915 1.717 1.717 0 00-1.236-.519z"/><path class="st2" d="M166.497 35.127a3.714 3.714 0 00-.21-.803 1.644 1.644 0 00-.349-.559.67.67 0 00-.489-.209c-.279 0-.71.006-1.291.017-.582.012-1.234.018-1.955.018H155.108c-.242.474-.61 1.343-.492 2.05.171 1.028 0 1.113 1.628 1.199 1.628.086 2.741.171 2.741.171v16.965s-.1 1.473.306 2.704c.327.082.68.125 1.062.125.349 0 .668-.018.96-.053.29-.034.54-.11.75-.226.21-.117.367-.291.472-.524.104-.232.157-.547.157-.943 0-2.862-.018-5.707-.053-8.535-.035-2.827-.03-5.672.018-8.535a53.472 53.472 0 001.658-.122c.36-.035.703-.052 1.03-.052.441 0 .756-.186.942-.559.186-.372.28-.79.28-1.256 0-.28-.024-.57-.07-.873z"/><path class="st0" d="M158.985 53.976V37.01s-1.113-.085-2.741-.171c-1.628-.086-1.457-.171-1.628-1.2-.118-.706.25-1.575.492-2.049h-.724c-.303 0-.554.198-.751.593-.198.396-.297.862-.297 1.397 0 .302.03.6.087.89.058.291.14.553.245.785.105.233.232.42.384.559a.77.77 0 00.54.21h3.108c.046 2.769.046 5.597 0 8.482a520.83 520.83 0 00-.07 8.448c0 .605.267 1.064.803 1.379.26.153.548.267.858.346-.406-1.23-.306-2.704-.306-2.704z"/></g></g></svg>