<svg version="1.1" id="Layer_1" xmlns="http://www.w3.org/2000/svg" x="0" y="0" viewBox="0 0 242.031 70.901" xml:space="preserve"><style>.st0{fill:none}.st1{fill:#24351d}.st2{fill:#5d8c3e}.st3{fill:#d83939}.st4{fill:#f93e3e}.st5{fill:#ffecb6}.st6{fill:#395927}.st7{fill:#a52b2b}</style><path class="st0" d="M164.717 43.476c.93-.03 2.046-.172 3.35-.427l-.226-2.203-1.955.023c-2.247.015-3.319.621-3.214 1.82.24.51.922.772 2.045.787zM62.432 32.688c-1.259-1.499-3.072-1.873-5.44-1.124-1.632.884-2.344 2.375-2.134 4.472l7.574-3.348z"/><path class="st1" d="M108.79 56.263h-.016l-.003.345a.083.083 0 00.017-.05l.003-.295zM162.467 58.97l-.012-.736h-.048l.014.813a.084.084 0 00.046-.076zM171.155 56.83h-.003l-.006.263.005-.018.004-.244zM174.673 57.144c.004.004.008.005.012.008l.015-.276h-.038l-.011.206a.084.084 0 00.022.062z"/><path class="st2" d="M28.92 56.43l-2.51 6.091a.084.084 0 01-.157-.005l-2.036-6.125-6.594-.055.036 1.218.091 3.062 1.344-.02a.084.084 0 01.085.084l-.005 4.79c0 .022-.01.044-.026.06a.078.078 0 01-.061.023l-1.118-.04.016 1.218.003.243 4.725.119.11.003-.094-1.379-1.147-.041a.084.084 0 01-.08-.084l-.007-3.94-.002-1.155a.084.084 0 01.162-.032l2.84 7 1.843-.08 3.178-6.806a.084.084 0 01.16.04l-.048 1.158-.164 3.883a.084.084 0 01-.08.08l-1.366.054-.041 1.314h.01l6.553.154.034-.293c.03-.283.067-.67.069-.946.001-.166-.01-.24-.018-.272l-1.321.005a.084.084 0 01-.085-.083l-.021-3.621-.007-1.152c0-.023.01-.045.026-.06.017-.017.04-.028.063-.024l1.055.056.253-3.227.095-1.217-5.763.001zM43.33 57.87h-.083c-1.635 0-2.835.409-3.667 1.25-.873.881-1.324 2.27-1.34 4.127 0 .14.004.275.011.408.081 1.481.683 2.555 1.795 3.191.81.464 1.864.695 3.22.706h.05c1.68 0 4.052-.698 4.418-.81l.029-.153.15-.803.09-.471c-.31.085-1.13.298-2.1.46a13.327 13.327 0 01-2.199.2c-.518-.005-.91-.092-1.209-.22-.887-.38-.935-1.125-.935-1.135l.003-.02a.083.083 0 01.02-.042.084.084 0 01.06-.025h.001l2.373.013 4.137.024c.17-.57.284-1.115.342-1.633a7 7 0 00.047-.725c.032-3.88-3.635-4.329-5.213-4.342zm1.783 5.378a.084.084 0 01-.076.054l-.432.012-2.634.07-.348.009h-.002a.084.084 0 01-.08-.058.962.962 0 01-.036-.282c.004-.446.25-1.19 1.85-1.19h.044c.664.006 1.15.13 1.446.366.273.22.33.494.327.685-.001.183-.056.328-.059.334zM59.894 58.245h-.027c-2.774 0-3.362 3.6-3.368 3.636-.006.042-.037.071-.086.071a.084.084 0 01-.08-.077l-.27-3.526-4.222-.052-.1 4.225h.002l1.54-.068a.09.09 0 01.062.024.084.084 0 01.025.062l-.06 3.227-.006.021a.083.083 0 01-.079.061l-1.448-.012-.057 1.445h.02l6.165.051.006-.097.08-1.22c-.185.012-.604.037-.947.035-.421-.004-.539-.038-.592-.092a.117.117 0 01-.028-.051c-.003-.01-.006-.02-.006-.032l.048-1.716c.04-1.32.774-2.018 2.123-2.018h.033c1.014.009 2.054.389 2.394.524l.106-2.983.043-1.213a4.129 4.129 0 00-1.27-.225zM73.564 58.33h-.027c-2.774 0-3.363 3.6-3.368 3.636-.007.042-.037.071-.086.072a.084.084 0 01-.081-.078l-.27-3.526-4.221-.052-.1 4.225h.001l1.54-.067c.022 0 .046.007.062.023a.084.084 0 01.026.062l-.061 3.227c0 .008-.003.014-.005.021a.083.083 0 01-.08.061l-1.447-.012-.058 1.445h.021l6.164.052.007-.097.08-1.222c-.186.013-.605.041-.947.036-.422-.003-.54-.038-.592-.092a.117.117 0 01-.029-.051c-.002-.01-.006-.02-.006-.031l.049-1.717c.04-1.32.774-2.018 2.123-2.018h.032c1.015.009 2.055.389 2.395.525l.106-2.984.043-1.213a4.13 4.13 0 00-1.271-.225zM85.689 58.489l-.02 1.218-.05 3.266 1.137.01a.084.084 0 01.071.128l-.681 1.084-.954 1.518c-.016.026-.047.042-.073.04a.084.084 0 01-.072-.043l-.87-1.555-.619-1.107a.084.084 0 01.002-.085c.015-.026.04-.045.074-.04l.865.022h.017l.037-4.414-5.604.052.026 1.217.068 3.154 1.04.024c.03 0 .056.016.07.041l2.707 4.534 1.107.009c.031 0 .06.017.074.044a.084.084 0 01-.004.086l-.713 1.082-.423.641a.087.087 0 01-.071.038l-1.628-.03.029 1.219.005.21 5.831.048h.142l-.125-1.327-1.261-.022-.549-.01a.084.084 0 01-.07-.127l3.79-6.337a.084.084 0 01.071-.041h.001l1.345.011.147-3.267.055-1.217-4.924-.074zM108.801 56.952l-.01 1.217-.003.295a.083.083 0 01-.017.05.084.084 0 01-.145-.02c-.007-.016-.692-1.668-3.899-1.695h-.022c-1.342 0-5.082.988-5.119 5.427a7.4 7.4 0 00.015.503c.225 3.805 3.386 5.199 6.12 5.222h.055c1.484 0 3.546-.495 4.563-1.897a.084.084 0 01.152.04l.165 1.574h1.867l.119-1.753.082-1.218-4.376.046c-.278.542-.853 1.576-2.528 1.576h-.034c-1.341-.011-2.06-.99-2.25-2.064a3.402 3.402 0 01-.054-.62c.01-1.125.811-2.336 2.549-2.34h.007c1.563 0 2.18 1.299 2.33 1.684l4.586-.012.435-4.791.11-1.218-4.698-.006zM128.81 66.42l-.902-.007a.084.084 0 01-.06-.027l-.002-.002a.085.085 0 01-.022-.06l.14-3.301.03-.688c.055-1.255-.27-2.32-.914-2.999a2.374 2.374 0 00-1.74-.757h-.027c-1.553 0-2.711 1.13-3.264 3.187a.08.08 0 01-.092.062.084.084 0 01-.073-.083l-.034-5.964-4.485-.054.013 1.218.032 3.201 1.006.024a.084.084 0 01.082.082l.137 6.03a.084.084 0 01-.026.063.09.09 0 01-.027.019.062.062 0 01-.035.004l-1.234-.057.03 1.22.004.12 5.948.1h.017l.012-1.475-1.39.053c-.025-.002-.046-.008-.062-.024s-.026-.038-.026-.06l.012-1.347.01-1.167c0-.018.005-.034.015-.049.342-.477 1.19-1.005 1.867-1.005h.01c.275.003.495.09.653.26.21.226.3.588.27 1.077l-.045.717-.186 3.014h.048l4.285.052h.044l-.019-1.377zM140.656 58.767h-.027c-2.775 0-3.363 3.6-3.368 3.637a.084.084 0 01-.083.07h-.004a.084.084 0 01-.08-.077l-.27-3.526-4.221-.052-.1 4.225h.001l1.54-.067a.084.084 0 01.088.086l-.062 3.226c0 .008-.002.014-.004.021a.083.083 0 01-.08.061l-1.447-.012-.058 1.445h.021l6.164.052.006-.097.08-1.221c-.185.012-.598.04-.947.035-.42-.003-.539-.037-.592-.091a.117.117 0 01-.028-.052c-.003-.01-.006-.02-.006-.031l.048-1.717c.04-1.331.785-2.034 2.156-2.017 1.014.008 2.055.388 2.395.524l.106-2.984.043-1.213a4.128 4.128 0 00-1.271-.225zM147.305 58.013h.002l3.84-.104a.084.084 0 00.08-.078l.057-.8.079-1.135a.085.085 0 00-.082-.09l-4.092-.119a.098.098 0 00-.063.026.084.084 0 00-.023.063l.061 1.129.057 1.029c.002.044.039.08.084.08zM150.898 66.518a.083.083 0 01-.078-.075l-.002-.01.15-6.202.027-1.1.002-.118-3.81.007-1.01.002.022 1.217.056 2.978 1.223-.038a.073.073 0 01.06.024.084.084 0 01.027.06l.041 3.193a.084.084 0 01-.024.06c-.005.005-.012.008-.018.012a.083.083 0 01-.042.013l-1.186-.01.046 1.218.003.076 5.582.096.011-.132.106-1.214-1.186-.057zM162.435 58.923l.02 1.217.012.737a.084.084 0 01-.046.076.083.083 0 01-.12-.055c-.153-.651-.778-2.168-3.262-2.188-1.044-.014-1.853.292-2.408.895-.502.544-.77 1.324-.778 2.255a3.4 3.4 0 00.035.507c.201 1.417 1.312 2.377 3.127 2.663l3.427.572c.713.125 1.172.395 1.17.687-.003.303-.44.482-1.172.482h-.038a4.804 4.804 0 01-.413-.022 3.868 3.868 0 01-.583-.097c-.785-.199-1.18-.6-1.31-.869l-2.7-.05-.507-.009-.069 2.508h.006l1.795-.108.018-.001v-.164l.009-.984.001-.183a.084.084 0 01.156-.044c.036.057.093.139.173.233.375.439 1.273 1.167 3.124 1.182 1.054.003 1.932-.19 2.548-.573.39-.243.659-.555.8-.916.075-.189.116-.391.118-.606.008-.916-.498-1.396-1.4-1.75-.253-.1-.535-.19-.847-.277l-1.258-.354-1.539-.433a1.525 1.525 0 01-.339-.142c-.319-.181-.465-.442-.463-.66a.547.547 0 01.251-.446c.165-.116.393-.173.67-.173 1.118.01 1.56.646 1.734 1.205l3.833.13.26-3.09.102-1.218-4.137.063zM175.13 66.587c-.44-.004-.69-.17-.746-.495a.889.889 0 01-.012-.156l.088-2.362a.084.084 0 01.084-.081h.001l1.362.027.157-3.199.06-1.217-1.39-.027a.084.084 0 01-.05-.019c-.003-.003-.007-.004-.01-.008a.084.084 0 01-.023-.062l.01-.206.066-1.217-3.548-.046-.024 1.218-.004.244c0 .006-.003.012-.005.018a.083.083 0 01-.021.04.093.093 0 01-.06.024l-1.425-.028.012 1.219.033 3.231 1.394-.004c.046 0 .084.037.084.083l.016 2.225c-.004.399.093 2.381 2.324 2.4 1.701.013 2.462-.335 2.654-.44l.017-.01.012-1.345c-.203.066-.64.193-1.04.193h-.016zM195.91 66.885a.09.09 0 01-.061-.024.084.084 0 01-.026-.062l.068-3.99c.027-1.632-.206-2.61-.754-3.171-.345-.354-.81-.528-1.424-.533h-.033c-1.514 0-2.37.897-2.952 3.088a.084.084 0 01-.165-.017c-.09-1.714-.311-3.134-2.097-3.149h-.033c-1.799 0-2.482 1.262-2.952 3.155a.084.084 0 01-.166-.014l-.24-3.015-4.424.029-.01 1.217-.027 3.167 1.36.011c.045 0 .082.037.083.083l.06 3.007a.084.084 0 01-.025.06.073.073 0 01-.025.017.133.133 0 01-.037.008l-1.423-.044.015 1.22.003.24 5.546.014h.043l-.018-1.398-.889-.038a.084.084 0 01-.08-.083l-.019-1.462-.012-.95a.848.848 0 01.25-.627c.216-.22.558-.35.917-.35h.012c.267.002.51.08.687.219.203.16.31.393.307.672l-.03 1.174-.07 2.884h.002l4.074-.031h.017l.012-1.36-.798.008c-.018-.003-.045-.008-.06-.025a.084.084 0 01-.025-.06l.028-1.253.026-1.21c.006-.671.58-1.027 1.112-1.025.309.003.591.117.775.315.171.183.252.431.234.717l-.057.896-.19 2.988h.05l4.365.052.009-.17.063-1.219-.995.039zM209.82 67.027c-.005-.003-.01-.005-.015-.01a.083.083 0 01-.024-.063L210 63.15l.039-.679c.048-.88-.199-1.616-.735-2.187-.698-.744-1.881-1.16-3.331-1.173a29.478 29.478 0 00-4.832.405l-.26 3.858.056-.014c.668-.17 3.104-.77 4.347-.77h.031c.527.004.888.098 1.105.286.238.206.264.493.262.692-.001.141-.02.316-.039.468a.086.086 0 01-.092.073 17.23 17.23 0 01-.478-.069c-.369-.059-.867-.138-1.539-.186a17.037 17.037 0 00-1.08-.042h-.06c-.877 0-1.563.163-2.04.486a1.82 1.82 0 00-.282.239c-.352.36-.536.853-.541 1.476-.002.227.012.435.04.627.081.541.282.95.611 1.239.428.375 1.087.561 2.012.569h.027c1.749 0 3.24-1.461 3.255-1.476a.084.084 0 01.143.062l-.04 1.172-.002.066h.014l4.263.036h.003l.026-1.32-1.014.053a.086.086 0 01-.05-.015zm-3.297-1.64c-.17.363-.556.74-.941.998-.295.198-.59.327-.79.327h-.003a.996.996 0 01-.58-.19.756.756 0 01-.313-.632c.004-.485.414-.76 1.11-.754.073 0 .148.003.225.006.582.026 1.222.124 1.229.125.026.004.049.02.061.044.003.005.003.01.005.016.005.02.006.04-.003.06zM220.858 59.31l.02 1.216.013.737a.084.084 0 01-.047.076.083.083 0 01-.12-.055c-.153-.65-.778-2.167-3.262-2.188-1.044-.011-1.853.293-2.408.895-.501.544-.77 1.324-.778 2.255a3.4 3.4 0 00.036.507c.2 1.417 1.312 2.377 3.127 2.664l3.426.572c.713.125 1.172.394 1.17.687-.003.308-.455.496-1.21.482a4.793 4.793 0 01-.413-.023 3.866 3.866 0 01-.582-.097c-.785-.198-1.182-.6-1.31-.868l-2.701-.05-.507-.01-.069 2.508h.006l1.795-.108h.018l.001-.165.008-.984.002-.183a.084.084 0 01.155-.044c.036.058.093.14.173.233.375.44 1.273 1.167 3.124 1.182 1.05.012 1.932-.19 2.548-.573.39-.243.66-.554.8-.915.075-.19.116-.392.118-.606.008-.917-.497-1.396-1.4-1.751-.253-.1-.535-.19-.847-.276l-1.258-.355-1.538-.433a1.526 1.526 0 01-.34-.141c-.319-.182-.465-.442-.463-.66a.547.547 0 01.251-.446c.163-.114.389-.174.655-.174h.015c1.118.01 1.56.647 1.734 1.205l3.833.13.26-3.09.102-1.218-4.137.063z"/><path class="st3" d="M25.794 29.783a402.785 402.785 0 01-1.414 16.9c-.026.248-.19.459-.459.459-.23 0-.484-.212-.459-.459a405.602 405.602 0 001.34-15.711l.066-1.043c-.813.138-1.555.284-2.229.363l-.736 18.825 22.925-1.034c0-1.214.12-4.113.36-8.698l-14.047.18.71-9.471c-2.324-.65-4.334-.553-6.057-.31zm6.744 11.379a217.7 217.7 0 0110.713-.22c.59.002.59.92 0 .917a217.7 217.7 0 00-10.713.22c-.592.027-.588-.89 0-.917zM69.804 44.532l-1.708-5.754c-2.997 2.578-5.503 3.844-7.518 3.799-2.016-.045-3.308-.397-3.877-1.057l12.9-5.866a11.504 11.504 0 00-.34-2.616c-3.35.725-6.435 1.788-9.046 2.766-3.337 1.252-6.126 2.274-9.108 2.387.2 2.234.981 4.412 2.307 6.236.146.201.033.512-.165.627-.228.134-.482.036-.627-.164A12.827 12.827 0 0151.057 42a13.509 13.509 0 01-.867-3.804 14.355 14.355 0 01-2.086-.207c-.006.411-.003.831.011 1.261.69 5.035 3.154 8.399 7.394 10.092 5.155 1.168 9.92-.435 14.295-4.81zm-9.891-.712c2.66.27 5.355-.724 7.187-2.675.405-.431 1.052.219.648.649-1.98 2.109-4.954 3.235-7.835 2.944-.248-.025-.459-.19-.459-.459 0-.23.212-.483.459-.459zM89.196 46.195l-3.416-5.057c-.51.42-1.116.6-1.82.54-1.74-.469-2.003-3.415-.789-8.835a26.605 26.605 0 00-5.16-.667c-.142.773-.258 1.55-.343 2.332a33.848 33.848 0 00.08 7.95c.101.765.249 1.544.626 2.226.287.518-.506.98-.792.463-.48-.87-.645-1.84-.767-2.814-.424-3.382-.32-6.82.27-10.174-.488-.002-.976.005-1.46.026-.77 5.368-.757 9.74.041 13.111.78 2.652 2.824 3.978 6.136 3.978 2.877 0 5.341-1.026 7.394-3.079zM107.297 42.69c-1.05 0-2.825-.952-5.327-2.855l-3.596 4.562c2.322 2.817 5.042 4.458 8.158 4.922 1.873.135 3.402.083 4.585-.157 3.207-.36 5.14-2 5.799-4.922.212-2.556-.926-4.806-3.413-6.75-3.172.865-6.516 1.44-9.88 1.491.072.037.14.076.212.112 3.192 1.079 4.788 2.023 4.788 2.832-.21.51-.652.764-1.326.764zm1.703-.182c.317-.495.388-1.224-.026-1.688-.392-.44.255-1.09.648-.649.532.596.679 1.432.447 2.19-.452 1.478-2.082 2.143-3.51 2.163a5.194 5.194 0 01-2.4-.562 7.747 7.747 0 01-1.012-.626c-.168-.12-.333-.243-.498-.367-.08-.06-.17-.15-.264-.21-.107.09-.223.26-.293.334a3665.576 3665.576 0 00-1.36 1.455c-.404.433-1.051-.217-.648-.648l1.143-1.224c.334-.357.729-.979 1.296-.854.229.05.407.218.589.355.176.133.352.264.532.391.357.253.728.49 1.126.673.746.344 1.63.457 2.438.307.68-.127 1.405-.435 1.792-1.04zM141.951 47.05c.027.249-.231.46-.458.46-.267 0-.433-.213-.459-.46-.162-1.502-.293-3.009-.393-4.518a108.933 108.933 0 01-.212-9.189c-.37-.116-.736-.224-1.1-.324-.035 7.316.155 12.653.572 16.008h8.315c.145-3.667.207-7.724.187-12.168-2.477-1.377-4.82-2.441-7.063-3.215-.07 4.476.132 8.956.611 13.407zM158.703 41.171c-.513 1.051-.692 2.287-.229 3.367.657 1.533 2.192 2.38 3.775 2.652.245.042.38.344.32.564-.07.256-.32.363-.564.32-1.076-.184-2.102-.613-2.953-1.303a4.9 4.9 0 01-1.562-2.26c-.321-.978-.234-2.03.094-2.994.046-.136.098-.269.153-.4a12.452 12.452 0 01-1.696-.265 6.256 6.256 0 00-.156 1.432c.284 3.896 2.322 6.181 6.113 6.855 2.337.015 4.54-.382 6.608-1.19l.247 1.415 7.394-2.157c-.229-3.029-.594-6.48-1.096-10.354-5.971 2.218-11.581 4.423-16.448 4.318zm7.183-.302l1.955-.023.225 2.203c-1.303.255-2.42.397-3.349.427-1.123-.015-1.805-.277-2.045-.787-.105-1.199.967-1.805 3.214-1.82zM188.914 41.453c-1.064 0-1.596-1.034-1.596-3.102 0-1.199.189-2.98.565-5.344-1.64.297-3.272.702-4.891 1.172a52.732 52.732 0 00.475 10.728c.036.246-.058.492-.32.565-.218.06-.528-.075-.565-.32a54.406 54.406 0 01-.545-5.64 53.317 53.317 0 01.023-5.054c-.686.21-1.369.43-2.049.658a56.515 56.515 0 00-.087 4.516c0 2.488.3 4.488.9 6.001.763 2.293 2.748 3.44 5.955 3.44 3.566.074 6.06-1.304 7.484-4.136l-3.394-4.585c-.524.689-1.176 1.056-1.955 1.101zM204.842 42.532l6.18 6.428 5.304-4.967c-2.277-2.682-4.39-4.855-6.338-6.518l.071-.044c-1.768-.431-3.715-1.185-5.86-2.34a21.617 21.617 0 00-4.024-1.673 320.327 320.327 0 00-1.281 14.096c-.017.249-.196.46-.458.46-.236 0-.476-.212-.459-.46a318.984 318.984 0 011.308-14.343c-.48-.122-.962-.23-1.444-.318-.49 5.016-1.026 10.436-1.608 16.264h7.35c.36-1.992.779-4.188 1.259-6.585zm.727-1.98c.166-.165.488-.188.649 0l4.212 4.917c.03.02.058.043.081.072l.194.25c.152.196.193.455 0 .649-.166.165-.487.188-.648 0l-4.488-5.239c-.161-.189-.186-.462 0-.649z"/><path class="st4" d="M24.868 29.929c.19-3.019.347-6.039.47-9.06.024-.59.941-.59.917 0a405.32 405.32 0 01-.46 8.914c1.722-.242 3.732-.34 6.056.31l.998-13.296-9.732 1.26-.478 12.235c.674-.079 1.416-.225 2.229-.363zM51.692 30.767c.28-.52 1.07-.057.792.463a11.922 11.922 0 00-1.082 2.852 12.711 12.711 0 00-.295 4.11c2.982-.114 5.77-1.136 9.108-2.388 2.61-.978 5.696-2.041 9.047-2.766-.518-2.044-1.623-3.758-3.324-5.138-2.053-1.348-4.57-1.925-7.552-1.73-3.67-.045-6.645 1.656-8.922 5.102-.869 1.84-1.321 4.08-1.36 6.717.714.124 1.407.19 2.086.207-.21-2.554.287-5.166 1.502-7.429zm5.3.797c2.368-.75 4.181-.375 5.44 1.124l-7.574 3.348c-.21-2.097.502-3.588 2.135-4.472zM77.086 32.159c.05-.28.1-.56.157-.837.049-.244.338-.383.564-.32.25.068.37.32.32.563-.04.203-.079.407-.116.61 1.708.06 3.435.265 5.16.668.145-.647.31-1.326.496-2.043l4.653-.158-.607-5.843-2.652-.203 1.079-8.023-8.361.854-.854 6.99-3.82.247-1.012 5.933 3.753.135c-.08.493-.153.976-.221 1.453.484-.02.972-.028 1.46-.026zm7.57-6.087l1.674-.144c.256-.022.449.228.459.459.012.262-.22.438-.459.458l-1.674.144c-.256.022-.448-.228-.458-.458-.012-.263.22-.439.458-.46zm-9.868 1.424c-.248.022-.458-.226-.458-.458 0-.263.211-.438.458-.459l2.701-.23c.104-.01.253-.05.356-.031.03-.184.107-.553.115-.6l.229-1.303.941-5.35c.043-.245.343-.381.564-.32.255.07.363.32.32.564l-.45 2.562-.799 4.541c-.066.375-.2.704-.613.788-.36.073-.747.073-1.113.104l-2.25.192zM94.478 13.404l-4.495 3.528c2.247 2.713 2.72 5.477 1.416 8.294l2.472 1.236c4.93-5.35 5.132-9.702.607-13.058zm-.71 10.313c-.091.232-.303.392-.564.32-.22-.06-.411-.333-.32-.563a6.813 6.813 0 00-.614-6.205c-.324-.496.47-.956.792-.463 1.316 2.016 1.595 4.67.707 6.911zM111.837 36.351c-3.836-1.543-5.859-2.667-6.069-3.371.015-.585.457-.952 1.326-1.102 1.304 0 3.267 1.012 5.889 3.035l3.978-4.001c-2.997-3.536-6.046-5.267-9.147-5.192-5.65.255-8.541 2.435-8.676 6.54 0 2.928 1.498 5.166 4.486 6.721 3.363-.05 6.707-.626 9.88-1.491a16.49 16.49 0 00-1.667-1.139zm-8.337.54a6.287 6.287 0 01-1.976-4.004c-.153-1.583.365-3.16 1.331-4.406.153-.197.49-.158.649 0 .19.19.151.453 0 .648-.82 1.057-1.191 2.433-1.063 3.758.124 1.282.767 2.488 1.708 3.356.435.402-.215 1.049-.649.649zM139.361 29.54a418.981 418.981 0 00-.032 3.48c.364.1.73.207 1.1.323.042-2.256.15-4.512.33-6.761.02-.248.195-.46.46-.46.233 0 .478.212.458.46a109.663 109.663 0 00-.272 4.527c-.033.845-.052 1.69-.065 2.535 2.242.774 4.586 1.838 7.063 3.215a444.202 444.202 0 00-.187-10.757c2.338 0 4.922.06 7.754.18a225.957 225.957 0 00-1.618-9.552c-8.436 0-15.718.06-21.846.18-.554 2.442-1.034 5.641-1.438 9.597a105.42 105.42 0 018.248-.337l.045 3.37zm-4.219-10.71a68.784 68.784 0 00-1.337 5.616c-.047.245-.34.382-.564.32-.252-.069-.368-.32-.32-.564.367-1.89.813-3.763 1.337-5.615.16-.568 1.045-.325.884.244zM160.694 36.306c2.293-2.577 4.143-3.843 5.552-3.798.794.105 1.25 1.453 1.37 4.045-1.662-.224-3.423-.217-5.28.023-3.632.443-5.73 1.868-6.295 4.276.553.128 1.12.213 1.696.265.621-1.496 1.79-2.73 3.32-3.314.232-.088.502.1.563.32.07.256-.089.477-.32.565-.772.294-1.436.825-1.951 1.464a5.412 5.412 0 00-.646 1.019c4.867.105 10.477-2.1 16.448-4.318-.121-.937-.25-1.898-.387-2.884-.87-5.664-3.2-8.413-6.99-8.249-4.854-.104-8.833 2.143-11.934 6.743l4.854 3.843zm-2.531-3.983c.804-2.197 2.947-3.364 4.933-4.33.224-.11.495-.063.628.164.118.202.058.52-.165.628-1.652.804-3.622 1.766-4.41 3.538.617.564 1.232 1.129 1.848 1.694.436.4-.214 1.047-.648.648l-2.068-1.896a.449.449 0 01-.118-.446zM182.538 29.518a53.372 53.372 0 012.32-9.695c.189-.556 1.074-.316.884.244a52.936 52.936 0 00-2.75 14.112 48.73 48.73 0 014.891-1.173c.626-3.928 1.77-9.466 3.436-16.613l-8.136.54c-1.806 6.687-2.86 12.746-3.172 18.183.68-.228 1.363-.448 2.049-.658.085-1.652.245-3.3.478-4.94zM199.563 30.802c.432-3.554.923-7.101 1.472-10.639.038-.246.347-.38.564-.32.259.07.359.32.32.564a312.193 312.193 0 00-1.744 13.011c1.35.407 2.692.956 4.023 1.672 2.146 1.156 4.093 1.91 5.861 2.34l6.515-4.023-1.933-5.799-8.429 4.136c.18-3.207.637-7.283 1.372-12.227l-8.182-2.854c-.456 4.82-.976 10.218-1.56 16.19.481.089.963.196 1.443.319.09-.79.182-1.58.278-2.37z"/><path class="st5" d="M24.018 41.013a405.617 405.617 0 01-.556 5.67c-.025.247.23.459.46.459.269 0 .432-.211.458-.459a404.49 404.49 0 001.875-25.815c.024-.59-.893-.589-.917 0-.123 3.022-.28 6.042-.47 9.06l-.066 1.044c-.22 3.35-.481 6.698-.784 10.041zM32.538 42.079a217.7 217.7 0 0110.713-.22c.59.002.59-.915 0-.917a217.7 217.7 0 00-10.713.22c-.588.026-.592.944 0 .917zM51.402 34.082c.24-.994.598-1.95 1.082-2.852.279-.52-.513-.984-.792-.463-1.215 2.263-1.711 4.875-1.502 7.43.106 1.3.392 2.586.867 3.802.4 1.026.917 2 1.565 2.89.145.2.399.3.627.165.198-.115.311-.426.165-.627-1.326-1.824-2.106-4.002-2.307-6.236a12.712 12.712 0 01.295-4.11zM59.913 44.738c2.881.291 5.854-.835 7.835-2.944.404-.43-.243-1.08-.648-.649-1.832 1.95-4.528 2.944-7.187 2.675-.247-.024-.459.23-.459.46 0 .268.211.433.459.458zM78.152 27.2c.414-.084.547-.413.613-.788l.799-4.54.45-2.563c.043-.244-.065-.495-.32-.565-.221-.06-.52.076-.564.32l-.941 5.351-.23 1.304c-.007.046-.084.415-.114.599-.103-.018-.252.022-.356.03l-2.7.231c-.248.021-.46.196-.46.459 0 .232.211.48.46.458l2.25-.192c.366-.03.753-.03 1.113-.104zM77.807 31.001c-.226-.062-.515.077-.564.32-.056.279-.108.558-.157.838a34.191 34.191 0 00-.271 10.174c.122.975.286 1.944.767 2.814.286.517 1.079.055.792-.463-.377-.682-.525-1.46-.626-2.227a33.848 33.848 0 01-.08-7.95 32.133 32.133 0 01.46-2.942c.048-.242-.07-.495-.321-.564zM84.656 26.99l1.674-.145c.239-.02.47-.196.459-.458-.01-.231-.203-.48-.459-.459l-1.674.144c-.238.02-.47.196-.458.459.01.23.202.48.458.458zM92.27 17.269a6.813 6.813 0 01.614 6.205c-.091.23.1.503.32.564.261.071.473-.09.565-.32.888-2.241.609-4.896-.707-6.912-.322-.493-1.116-.033-.792.463zM102.44 32.887c-.127-1.325.245-2.701 1.064-3.758.151-.195.19-.458 0-.648-.158-.158-.496-.197-.649 0-.966 1.246-1.484 2.823-1.331 4.406a6.287 6.287 0 001.976 4.005c.434.4 1.084-.247.649-.649-.941-.868-1.584-2.074-1.708-3.356zM104.77 43.241a7.13 7.13 0 01-1.126-.673c-.18-.127-.356-.258-.532-.39-.182-.138-.36-.305-.589-.356-.567-.125-.962.497-1.296.854l-1.143 1.224c-.403.43.244 1.08.648.648.31-.33.618-.661.927-.992l.433-.463c.07-.075.186-.244.293-.333.095.059.185.15.264.21.165.123.33.247.498.366.323.23.657.448 1.012.626a5.194 5.194 0 002.4.562c1.428-.02 3.058-.685 3.51-2.162.232-.76.085-1.595-.447-2.19-.393-.442-1.04.209-.648.648.414.464.343 1.193.026 1.688-.387.605-1.112.913-1.792 1.04a4.133 4.133 0 01-2.438-.307zM134.258 18.587a68.796 68.796 0 00-1.338 5.615c-.047.243.07.495.32.565.226.061.518-.076.565-.32a68.78 68.78 0 011.337-5.616c.161-.57-.724-.812-.884-.244zM140.641 42.532c.1 1.51.231 3.016.393 4.519.026.246.192.458.459.458.227 0 .485-.21.458-.458-.479-4.451-.681-8.931-.611-13.407.013-.845.032-1.69.065-2.535.06-1.511.15-3.02.272-4.527.02-.248-.225-.46-.458-.46-.265 0-.44.212-.46.46-.18 2.25-.288 4.505-.33 6.761-.057 3.064.01 6.13.212 9.19zM160.349 34.665c.434.399 1.084-.248.648-.648l-1.847-1.694c.787-1.772 2.757-2.734 4.41-3.538.222-.109.282-.426.164-.628-.133-.227-.404-.273-.628-.164-1.986.966-4.13 2.133-4.933 4.33a.449.449 0 00.118.446l2.068 1.896zM157.49 44.51a4.9 4.9 0 001.562 2.261c.85.69 1.877 1.12 2.953 1.304.244.042.494-.065.564-.32.06-.221-.075-.523-.32-.565-1.583-.271-3.118-1.12-3.775-2.652-.463-1.08-.284-2.316.23-3.367.178-.367.397-.711.645-1.019.515-.639 1.18-1.17 1.951-1.464.231-.088.39-.31.32-.564-.06-.222-.331-.41-.564-.32-1.53.583-2.698 1.817-3.32 3.313a6.522 6.522 0 00-.152.4c-.328.964-.415 2.016-.094 2.994zM185.742 20.067c.19-.56-.695-.8-.885-.244a53.371 53.371 0 00-2.319 9.695 55.358 55.358 0 00-.478 4.94 53.317 53.317 0 00-.023 5.053c.082 1.889.268 3.77.545 5.64.037.246.347.38.565.32.262-.072.356-.318.32-.564a52.732 52.732 0 01-.475-10.728 52.936 52.936 0 012.75-14.112zM201.92 20.407c.038-.245-.062-.493-.32-.564-.218-.06-.527.074-.565.32a324.262 324.262 0 00-1.75 13.009 318.94 318.94 0 00-1.308 14.343c-.017.247.223.458.459.458.262 0 .441-.21.458-.458a320.322 320.322 0 012.161-21.181c.27-1.978.558-3.954.865-5.927zM210.057 46.44c.16.188.482.165.648 0 .193-.194.152-.453 0-.649l-.194-.25a.318.318 0 00-.081-.072l-4.212-4.917c-.161-.188-.483-.165-.649 0-.186.187-.161.46 0 .649l4.488 5.239z"/><g><path class="st1" d="M14.726 13.984a2.765 2.765 0 013.897-3.924 2.767 2.767 0 01-.453 4.318 3.296 3.296 0 01.784.895c2.246-1.523 3.782-4.446 3.782-4.446l-3.032-.213c2.393-.41 2.822-6.222 2.822-6.222l-2.262.787L20.575 0c-4.392 1.95-5.094 6.251-5.094 6.251l-.786-2.262c-3.98 4.596-1.01 9.733-1.01 9.733s-.112.087-.23.23c.263.14.484.28.66.405.193-.149.397-.273.611-.373z"/><path class="st6" d="M13.76 14.668c.113-.115.233-.216.356-.311a6.567 6.567 0 00-.662-.405c-1.52-.815-4.458-1.663-8.596.39l2.91.593S1.837 14.885 0 19.328l3.035.465S.423 22.73 1.735 26.5l5.752-4.114 1.187 3.897s2.619-2.432 2.832-5.464l1.177 3.14s1.572-1.614 2.33-3.88a3.302 3.302 0 01-1.253-5.41z"/><path class="st7" d="M18.623 10.06a2.767 2.767 0 00-3.897 3.924 3.302 3.302 0 013.444.394 2.767 2.767 0 00.454-4.318z"/><path class="st3" d="M18.954 15.273a3.296 3.296 0 00-.784-.895 3.302 3.302 0 00-4.054-.021 3.307 3.307 0 00-.355.31 3.302 3.302 0 001.253 5.411 3.3 3.3 0 003.477-.802 3.3 3.3 0 00.463-4.003z"/></g><g><path class="st1" d="M226.95 49.358a2.765 2.765 0 00-4.179-3.624 2.767 2.767 0 00.773 4.272 3.297 3.297 0 00-.715.95c-2.354-1.352-4.102-4.153-4.102-4.153l3.008-.437c-2.416-.231-3.275-5.995-3.275-5.995l2.314.617-.695-5.142c4.525 1.62 5.543 5.856 5.543 5.856l.617-2.314c4.31 4.288 1.728 9.631 1.728 9.631s.119.078.248.212c-.253.16-.462.316-.63.453a3.273 3.273 0 00-.636-.326z"/><path class="st6" d="M227.962 49.968a3.31 3.31 0 00-.377-.284c.168-.137.377-.292.63-.453 1.456-.925 4.323-1.989 8.602-.248l-2.86.807s5.914-.489 8.074 3.805l-2.993.689s2.823 2.735 1.795 6.592L234.79 57.2l-.894 3.974s-2.793-2.231-3.23-5.24l-.94 3.22s-1.688-1.494-2.613-3.697a3.302 3.302 0 00.848-5.489z"/><path class="st7" d="M222.771 45.734a2.767 2.767 0 014.178 3.624 3.302 3.302 0 00-3.405.648c-.187-.1-.367-.22-.533-.367a2.767 2.767 0 01-.24-3.905z"/><path class="st3" d="M222.829 50.957a3.296 3.296 0 01.715-.95 3.302 3.302 0 014.041-.323c.13.086.257.178.377.284a3.302 3.302 0 01-.848 5.489 3.3 3.3 0 01-3.527-.543 3.3 3.3 0 01-.758-3.957z"/></g></svg>