<svg version="1.1" id="Layer_1" xmlns="http://www.w3.org/2000/svg" x="0" y="0" viewBox="0 0 180.436 79.669" xml:space="preserve"><style>.st0{fill:#bc2622}.st1{fill:#67a867}.st2{fill:#9bd1cf}</style><path class="st0" d="M12.41 64.426c-.685 0-.975.105-.975.421v14.12c0 .316.29.422.975.422v.21H7.036v-.21c.316 0 .58-.08.58-.395v-6.981H5.77v6.98c0 .317.264.396.58.396v.21H.977v-.21c.685 0 .975-.106.975-.422v-14.12c0-.316-.29-.421-.975-.421v-.211H6.35v.21c-.316 0-.58.08-.58.396v6.98h1.844v-6.98c0-.316-.263-.395-.58-.395v-.211h5.375v.21zM24.456 78.994c.132.447.5.395 1.16.395v.21h-5.77v-.21c.632 0 .922 0 .817-.343l-.79-2.608h-3.741l-.817 2.635c-.053.316.184.316.817.316v.21h-2.319v-.21c.817 0 .975-.026 1.133-.343l4.558-14.831h.395l4.557 14.779zm-8.272-2.766h3.61l-1.792-5.875-1.818 5.875zM32.222 73.936v5.031c0 .316.29.422.974.422v.21h-5.769v-.21c.685 0 .975-.106.975-.422v-14.12c0-.316-.29-.421-.975-.421v-.211h4.795c1.844 0 5.663 0 5.663 4.61 0 4.452-3.582 4.61-5.268 4.61-.264 0-.395 0-.395.5zm.21-.738c.606 0 1.634-.105 1.634-4.373 0-4.294-.975-4.4-1.607-4.4-.237 0-.237.211-.237.211v8.404s-.027.158.21.158zM44.297 73.936v5.031c0 .316.29.422.975.422v.21h-5.77v-.21c.686 0 .975-.106.975-.422v-14.12c0-.316-.29-.421-.974-.421v-.211h4.794c1.844 0 5.664 0 5.664 4.61 0 4.452-3.583 4.61-5.269 4.61-.263 0-.395 0-.395.5zm.211-.738c.606 0 1.633-.105 1.633-4.373 0-4.294-.974-4.4-1.607-4.4-.237 0-.237.211-.237.211v8.404s-.026.158.211.158zM60.742 64.215h2.318v.21c-.817 0-1.054 0-1.159.343l-2.397 7.824v6.375c0 .316.29.422.974.422v.21H54.71v-.21c.685 0 .975-.106.975-.422v-6.48l-2.819-7.64c-.132-.369-.5-.421-1.185-.421v-.211h5.743v.21c-.712 0-.87.106-.79.29l2.66 7.298 2.266-7.271c.105-.316-.185-.316-.817-.316v-.211zM80.227 64.426c-.685 0-.974.105-.974.421v14.12c0 .316.29.422.974.422v.21h-5.374v-.21c.316 0 .58-.08.58-.395v-6.981h-1.844v6.98c0 .317.263.396.58.396v.21h-5.375v-.21c.685 0 .975-.106.975-.422v-14.12c0-.316-.29-.421-.975-.421v-.211h5.374v.21c-.316 0-.58.08-.58.396v6.98h1.845v-6.98c0-.316-.264-.395-.58-.395v-.211h5.374v.21zM83.193 71.907c0-7.692 2.107-7.692 4.742-7.692 2.608 0 4.741 0 4.741 7.692 0 7.693-2.133 7.693-4.741 7.693-2.635 0-4.742 0-4.742-7.693zm5.98 0c0-7.481-.554-7.481-1.238-7.481-.685 0-1.239 0-1.239 7.481 0 7.482.554 7.482 1.239 7.482.684 0 1.238 0 1.238-7.482zM105.896 75.7v3.9H95.437v-.211c.685 0 .975-.106.975-.422v-14.12c0-.316-.29-.421-.975-.421v-.211h5.77v.21c-.685 0-.975.106-.975.422v14.094c0 .395.158.448.738.448h.632c.843 0 1.554 0 1.818-1.317.29-1.423 1-2.371 2.476-2.371zM108.38 79.6v-.211c.685 0 .975-.106.975-.422v-14.12c0-.316-.29-.421-.975-.421v-.211h5.77v.21c-.686 0-.975.106-.975.422v14.12c0 .316.29.422.974.422v.21h-5.769zM121.428 64.215c1.87 0 5.69 0 5.69 7.692 0 7.693-3.82 7.693-5.69 7.693h-4.795v-.211c.685 0 .975-.106.975-.422v-14.12c0-.316-.29-.421-.975-.421v-.211h4.795zm1.87 7.692c0-7.113-.975-7.481-1.633-7.481-.237 0-.237.447-.237.447v14.068s-.027.448.237.448c.58 0 1.633-.369 1.633-7.482zM139.205 78.994c.131.447.5.395 1.159.395v.21h-5.77v-.21c.633 0 .923 0 .817-.343l-.79-2.608h-3.74l-.817 2.635c-.053.316.184.316.816.316v.21h-2.318v-.21c.817 0 .975-.026 1.133-.343l4.557-14.831h.395l4.558 14.779zm-8.272-2.766h3.609l-1.791-5.875-1.818 5.875zM148.821 64.215h2.319v.21c-.817 0-1.054 0-1.16.343l-2.397 7.824v6.375c0 .316.29.422.975.422v.21h-5.77v-.21c.686 0 .975-.106.975-.422v-6.48l-2.818-7.64c-.132-.369-.5-.421-1.186-.421v-.211h5.743v.21c-.711 0-.87.106-.79.29l2.66 7.298 2.266-7.271c.105-.316-.184-.316-.817-.316v-.211zM157.45 79.6c-2.634 0-4.53-1.74-4.53-4.11 0-1.475 1-2.555 2.186-2.555 1.08 0 1.739.79 1.739 1.738 0 1.291-1.027 1.713-1.607 1.713-.553 0-1.317-.053-1.106 1.08.21 1.106 1.817 1.923 3.319 1.923 1.844 0 2.74-1.054 2.74-1.923 0-1.528-1.265-2.977-3.293-4.32-3.135-2.082-3.636-3.741-3.557-5.27.158-2.423 2.424-3.661 4.479-3.661 2.397 0 4.057 1.791 4.057 3.293 0 1.027-.738 1.66-1.607 1.66-.949 0-1.634-.554-1.634-1.397 0-1.475 1.686-1.317 1.291-2.397-.263-.738-1.317-1.027-2.107-.948-1.16.105-2.16 1.132-2.16 2.37 0 3.24 6.77 3.557 6.77 8.378 0 2.318-1.502 4.426-4.98 4.426z"/><g><path class="st1" d="M32.688 49.956c0-2.3-1.717-3.047-5.125-4.017-3.352-.942-5.9-2.272-5.9-6.455 0-3.102 2.299-6.011 6.565-6.011 2.549 0 3.99.858 4.931.858.471 0 .61-.193.804-.554h.304l.194 5.596h-.443c-1.413-2.548-3.297-5.319-6.15-5.319-1.995 0-3.38 1.164-3.38 2.799 0 2.05 1.884 2.742 4.682 3.49 3.075.831 6.483 1.884 6.483 6.483 0 3.989-2.715 6.62-6.788 6.62-2.687 0-5.014-.83-5.79-.83-.443 0-.61.304-.83.83h-.389l-.277-6.593h.471c1.385 2.77 4.073 6.012 7.12 6.012 1.662 0 3.518-.887 3.518-2.909zM43.687 42.172c.61-1.386 1.662-2.466 3.823-2.466 3.102 0 5.014 2.188 5.014 6.898 0 4.737-1.94 6.843-5.707 6.843-1.884 0-2.576-.499-3.075-1.358v7.175h3.574v.499h-10.25v-.499h1.523V40.482h-1.468v-.499h6.566v2.189zm.055 2.548v5.07c0 1.496.582 2.853 1.8 2.853 1.358 0 1.635-1.634 1.635-5.485v-1.44c0-3.907-.332-4.82-1.274-4.82-1.136 0-2.16 1.412-2.16 3.822zM62.086 39.706c4.35 0 6.206 2.188 6.04 6.316h-7.813v1.08c0 3.27.582 5.486 3.27 5.486 2.05 0 3.435-1.302 4.044-3.435l.499.083c-.637 2.382-2.078 4.21-6.012 4.21-4.931 0-7.147-2.825-7.147-6.842 0-4.793 3.269-6.898 7.12-6.898zm1.109 5.762v-1.357c0-2.91-.222-3.879-1.358-3.879-.97 0-1.496.942-1.496 3.879v1.357h2.854zM77.78 46.66v-2.134c0-3.518-.304-4.432-1.413-4.432-.498 0-1.302.221-1.302 1.108 0 .221.056.499.167.803h.692c.139.36.222.72.222 1.247 0 1.302-1.053 2.16-2.438 2.16-1.718 0-2.382-.941-2.382-2.299 0-2.327 2.022-3.407 5.79-3.407 4.349 0 5.817 1.219 5.817 5.236v5.624c0 1.135.333 1.44.804 1.44.498 0 .97-.526 1.108-2.853l.415.027c-.138 3.325-1.163 4.267-3.546 4.267-2.244 0-3.49-.693-3.823-2.05-.443 1.33-1.246 2.05-3.186 2.05-1.939 0-4.1-.582-4.1-3.352 0-2.798 2.41-3.436 6.372-3.436h.803zm0 3.019v-2.576h-.194c-1.163 0-1.717.83-1.717 2.52v.444c0 1.995.194 2.272.72 2.272s1.191-.887 1.191-2.66zM96.203 52.671h1.274l-3.13-6.427-.526.138v6.289h1.274v.499h-7.95v-.499h1.523v-19.78h-1.635v-.499h6.788v13.436l.443-.166 6.233-5.18h-2.604v-.499h5.458v.499h-1.94l-3.296 2.798 4.792 9.391h.998v.499h-7.702v-.499z"/><g><path class="st1" d="M114.107 40.482h-1.524v-.499h1.524v-3.574l5.152-1.274v4.848h3.602v.499h-3.602v9.336c0 1.634.25 2.52 1.22 2.52 1.329 0 2.16-1.218 2.41-3.102l.47.055c-.249 2.161-1.163 4.156-4.543 4.156-2.743 0-4.71-.804-4.71-4.239v-8.726zM132.44 39.706c4.653 0 6.87 2.188 6.87 6.676 0 4.544-2.106 7.065-7.037 7.065-4.654 0-7.009-2.494-7.009-6.815 0-4.544 2.715-6.926 7.175-6.926zm1.55 5.651c0-2.992-.082-5.152-1.634-5.152-1.69 0-1.773 2.16-1.773 5.29v2.162c0 3.213.055 5.291 1.745 5.291 1.58 0 1.663-1.634 1.663-5.236v-2.355z"/></g><g><path class="st1" d="M156.837 53.17l-.305-2.023c-.526 1.302-1.413 2.3-3.906 2.3-2.577 0-4.294-1.275-4.294-4.627v-8.338h-1.552v-.499h6.704v9.502c0 2.355.333 2.715 1.026 2.715 1.108 0 1.966-1.136 1.966-3.241v-8.477h-1.274v-.499h6.427v12.688h1.524v.499h-6.316zM166.152 48.488h.333c1.024 3.38 2.714 4.35 4.986 4.35 2.05 0 2.826-.749 2.826-1.801 0-1.247-1.358-1.524-3.463-2.106-2.216-.61-4.682-1.468-4.682-4.543 0-2.826 1.94-4.682 4.876-4.682 1.219 0 2.05.305 2.798.637.332.139.443.222.776.222.415 0 .609-.222.97-.915h.304v4.24h-.333c-.997-2.55-2.41-3.602-4.377-3.602-1.828 0-2.576.748-2.576 1.606 0 1.275 1.662 1.58 3.49 2.078 2.19.582 4.627 1.468 4.627 4.737 0 3.159-2.05 4.738-5.18 4.738-1.33 0-2.272-.277-3.325-.804-.166-.11-.415-.221-.526-.221-.36 0-.748.249-1.191 1.025h-.333v-4.96z"/></g></g><g><path class="st2" d="M19.068 24.542h-4.582L3.262 3.371v20.55h1.8v.621H.58v-.622h1.8V2.258h-1.8v-.622h9.032l8.573 16.427V2.258h-1.8v-.622h4.483v.622h-1.8v22.284zM31.366 8.639c5.138 0 7.33 2.585 7.134 7.46h-9.228v1.277c0 3.861.687 6.48 3.861 6.48 2.422 0 4.058-1.539 4.778-4.059l.59.099c-.754 2.814-2.455 4.974-7.102 4.974-5.824 0-8.442-3.338-8.442-8.083 0-5.661 3.86-8.148 8.41-8.148zm1.31 6.806v-1.603c0-3.436-.262-4.581-1.604-4.581-1.145 0-1.767 1.112-1.767 4.58v1.604h3.37zM50.466 8.639c5.137 0 7.33 2.585 7.133 7.46h-9.227v1.277c0 3.861.687 6.48 3.86 6.48 2.422 0 4.058-1.539 4.778-4.059l.59.099c-.753 2.814-2.455 4.974-7.101 4.974-5.825 0-8.443-3.338-8.443-8.083 0-5.661 3.861-8.148 8.41-8.148zm1.309 6.806v-1.603c0-3.436-.262-4.581-1.604-4.581-1.145 0-1.767 1.112-1.767 4.58v1.604h3.37zM71.758 22.252c-.688 1.636-1.964 2.618-4.516 2.618-3.632 0-5.923-2.586-5.923-8.083 0-5.53 2.29-8.148 6.48-8.148 2.028 0 3.206.589 3.795 1.603V.59h-1.996V0h8.18v23.953h1.604v.59h-7.264l-.36-2.291zm-.066-2.16v-7.134c0-1.767-.687-3.37-2.127-3.37-1.603 0-1.93 1.93-1.93 6.479v1.702c0 4.614.392 5.693 1.8 5.693.948 0 2.257-.916 2.257-3.37zM98.907 1.636v.622h-1.898v10.144h6.512V2.258h-1.93v-.622h10.242v.622h-1.931V23.92h1.93v.622H101.59v-.622h1.93V13.253H97.01V23.92h1.898v.622h-10.21v-.622h1.931V2.258h-1.93v-.622h10.209zM122.053 8.639c5.138 0 7.33 2.585 7.134 7.46h-9.228v1.277c0 3.861.687 6.48 3.861 6.48 2.422 0 4.058-1.539 4.778-4.059l.589.099c-.753 2.814-2.454 4.974-7.101 4.974-5.825 0-8.443-3.338-8.443-8.083 0-5.661 3.862-8.148 8.41-8.148zm1.31 6.806v-1.603c0-3.436-.263-4.581-1.604-4.581-1.146 0-1.767 1.112-1.767 4.58v1.604h3.37zM139.2 0v23.953h1.833v.59h-9.719v-.59h1.8V.59h-1.931V0h8.017zM151.531 11.551c.72-1.636 1.964-2.912 4.516-2.912 3.665 0 5.923 2.585 5.923 8.148 0 5.596-2.29 8.083-6.741 8.083-2.225 0-3.043-.59-3.632-1.604v8.475h4.221v.59H143.71v-.59h1.8V9.555h-1.734v-.589h7.755v2.585zm.066 3.01v5.99c0 1.766.687 3.37 2.127 3.37 1.603 0 1.93-1.931 1.93-6.48V15.74c0-4.614-.392-5.694-1.505-5.694-1.342 0-2.552 1.669-2.552 4.516zM178.468 6.708c0 2.585-1.57 4.352-3.272 5.89l-4.941 4.385v1.898h-.818V12.01c0-.392.098-.654.36-.916l2.029-2.061c1.276-1.277 1.668-2.16 1.668-3.96 0-2.061-.949-3.174-2.945-3.174-2.094 0-2.716 1.407-2.716 2.454 0 .262.066.59.197.95h1.047c.163.425.262.85.262 1.472 0 1.538-1.244 2.552-2.88 2.552-2.029 0-2.912-1.44-2.912-3.043 0-2.65 2.388-5.007 7.46-5.007 4.713 0 7.461 1.833 7.461 5.432zm-8.671 13.22c1.44 0 2.52.72 2.52 2.422 0 1.505-.884 2.52-2.455 2.52-1.898 0-2.52-1.244-2.52-2.455 0-1.374.884-2.487 2.455-2.487z"/></g><g><path fill="#ffb624" d="M166.473 79.669h12.887l1.076-15.311h-15.31z"/><path class="st0" d="M172.782 64.364l-3.763-5.123-2.815 3.959zM172.782 64.364l-4.306 4.45.027-1.03-1.129-.255zM172.782 64.364l3.762-5.123 2.816 3.959zM172.782 64.364l4.306 4.45-.027-1.03 1.129-.255z"/><path class="st0" d="M172.571 64.358h.423v15.311h-.423z"/><g><path class="st0" d="M165.78 71.801l.038.424h14.065l.03-.424z"/></g></g><g><path d="M16.932 41.56c-1.225.03-2.457.361-3.602.875l.012 7.37c.44-.414.933-.778 1.429-1.102 1.479-.964 3.477-1.846 4.146-3.617.595-1.576-.07-3.57-1.985-3.525z" fill="none"/><path class="st0" d="M6.82 46.35c.029-.35-.238-.626-.557-.713a.212.212 0 01-.067-.032c-.438.182-.882 1.113-.082 1.3.348.082.679-.215.706-.556z"/><path class="st0" d="M19.298 42.62c-.544-1.33-1.796-1.582-3.106-1.404-.987.135-1.949.401-2.862.783l-.005-2.862L0 39.157l.022 14.185 13.325-.02-.005-2.984c1.562-1.647 4.267-2.47 5.555-4.34.667-.968.851-2.28.401-3.378zm-8.325 4.035h-.666l.258.555c.047.102.03.223-.074.284-.09.052-.236.027-.283-.074l-.27-.58a.238.238 0 01-.012-.184l-2.755.005a1.042 1.042 0 01-.239.367 62.673 62.673 0 001.554 1.58l.72-.188c.259-.068.368.332.11.4-.161.041-.323.083-.484.126.195.189.391.377.59.563.194.183-.1.476-.293.294a62.964 62.964 0 01-.669-.64l.001.011.001.645c0 .267-.414.267-.414 0l-.001-.644c0-.094.051-.154.117-.182a.235.235 0 01-.045-.166 62.678 62.678 0 01-1.5-1.527.225.225 0 01-.031-.043.978.978 0 01-.288.07.217.217 0 01.01.06l.002 2.11a2.98 2.98 0 011.156.895c.162.209-.13.504-.292.294a2.674 2.674 0 00-.863-.732l.002 1.086c0 .267-.414.267-.414 0l-.002-.985-.562.574c-.187.19-.48-.102-.294-.292l.638-.652a.186.186 0 01.217-.044l-.003-2.254a.2.2 0 01.03-.108.937.937 0 01-.14-.06l-.009-.006a.212.212 0 01-.047.09 26.625 26.625 0 00-1.265 1.556c.153.205.183.489.189.74.006.267-.408.267-.414 0-.003-.115-.006-.256-.046-.373-.086.119-.173.237-.258.357-.152.216-.511.01-.358-.209.092-.13.186-.258.279-.386-.22-.037-.483-.022-.688-.039-.264-.021-.266-.435 0-.414.244.02.489.036.733.06.076.008.15.017.22.035.418-.556.855-1.097 1.315-1.62a.217.217 0 01.04-.035.843.843 0 01-.17-.322.214.214 0 01-.065.01l-2.356.004c-.033.044-.067.086-.096.128l-.475.683c-.151.217-.51.01-.358-.209.135-.193.262-.403.4-.601h-.482c-.267.001-.267-.413 0-.413l.612-.001-.08-.037-.452-.233c-.238-.122-.028-.48.208-.358.23.118.488.22.703.362.106.069.184.14.196.265l2.18-.004a.23.23 0 01.04.004c.024-.163.083-.324.166-.471l-1.6-1.628c-.103.014-.211.016-.307.027-.246.03-.493.058-.74.087-.265.03-.262-.384 0-.415l.674-.078-.495-.504c-.187-.19.106-.483.293-.293l.61.621.012-.084c.017-.141.032-.283.048-.425.03-.262.445-.265.415 0-.026.223 0 .619-.136.854l1.482 1.507c.099-.096.209-.174.325-.226a31.962 31.962 0 01-.018-2.319l-.554-.47c-.204-.173.09-.465.292-.294l.282.24c.008-.17.014-.34.025-.51.016-.265.43-.267.414 0-.011.18-.018.36-.026.54l.272-.423c.144-.223.503-.016.358.209l-.537.836a.212.212 0 01-.116.09c-.015.68-.009 1.359.02 2.039a.683.683 0 01.383.207c.397-.478.781-.966 1.155-1.462a3.116 3.116 0 00-.22-.91c-.1-.248.3-.355.398-.11.073.18.128.366.168.554.14-.194.28-.388.418-.584.152-.217.511-.01.358.209-.164.234-.33.466-.5.697.159.03.313.08.465.147.244.11.033.466-.208.358a1.452 1.452 0 00-.544-.122 39.759 39.759 0 01-1.254 1.585c.102.153.165.329.177.514l2.6-.004a6.71 6.71 0 00.498-1.069c.09-.25.49-.142.4.11-.12.33-.26.65-.423.959l.661-.001c.267 0 .267.413 0 .414zm7.944-1.569c-.669 1.77-2.667 2.653-4.146 3.617-.496.324-.99.688-1.43 1.101l-.01-7.37c1.144-.513 2.376-.845 3.6-.873 1.916-.045 2.581 1.949 1.986 3.525z"/><path d="M10.972 46.24l-.66.002c.163-.31.303-.63.421-.96.09-.25-.31-.358-.4-.109a6.71 6.71 0 01-.497 1.07c-.867 0-1.734.002-2.6.003a1.042 1.042 0 00-.177-.514c.432-.517.85-1.046 1.254-1.585.188.007.369.044.544.122.241.108.452-.249.208-.357a2.094 2.094 0 00-.464-.148c.169-.23.335-.463.499-.697.153-.22-.206-.426-.358-.209-.137.196-.277.39-.418.584a3.337 3.337 0 00-.168-.555c-.098-.244-.499-.137-.399.11.119.295.194.596.22.911-.373.496-.757.984-1.154 1.462a.683.683 0 00-.383-.207 31.953 31.953 0 01-.02-2.039.212.212 0 00.116-.09l.537-.836c.145-.225-.214-.432-.358-.209l-.272.424c.008-.18.015-.361.026-.542.016-.266-.398-.264-.414 0-.01.17-.017.34-.025.51l-.282-.238c-.202-.172-.496.12-.292.293l.554.47c-.022.773-.016 1.546.018 2.319-.116.052-.226.13-.325.226L4.22 43.944c.137-.235.11-.63.136-.855.03-.264-.384-.261-.415 0-.016.143-.03.285-.048.426l-.012.084-.61-.62c-.187-.191-.48.102-.293.292l.495.504-.674.078c-.262.03-.265.445 0 .415l.74-.087c.096-.01.204-.013.307-.027l1.6 1.628a1.343 1.343 0 00-.165.471.229.229 0 00-.041-.004l-2.18.004c-.012-.124-.09-.196-.196-.265-.215-.142-.474-.244-.703-.362-.236-.122-.446.236-.208.358l.452.233.08.037h-.613c-.266 0-.266.415.001.415l.482-.001c-.138.198-.265.408-.4.601-.152.22.207.426.358.209l.475-.683c.03-.042.063-.084.096-.128l2.356-.003a.214.214 0 00.065-.01.843.843 0 00.17.32.217.217 0 00-.04.036c-.46.523-.897 1.064-1.316 1.62a1.47 1.47 0 00-.22-.035c-.243-.024-.488-.04-.733-.06-.265-.021-.263.393 0 .415.206.016.468.001.689.038-.093.128-.187.256-.279.386-.153.219.206.425.358.209.085-.12.172-.238.258-.357.04.117.043.258.046.374.006.266.42.266.414-.001-.006-.251-.036-.535-.19-.74.403-.534.824-1.053 1.266-1.556a.212.212 0 00.047-.09l.008.005a.937.937 0 00.14.06.2.2 0 00-.029.109l.003 2.254a.186.186 0 00-.217.044l-.638.652c-.186.19.107.483.294.292l.562-.574.002.986c0 .266.414.266.414-.001l-.002-1.086c.337.178.626.427.863.732.163.21.454-.085.292-.294a2.98 2.98 0 00-1.156-.894l-.003-2.112a.217.217 0 00-.009-.06.977.977 0 00.288-.069.225.225 0 00.031.043c.491.518.992 1.026 1.5 1.527a.235.235 0 00.045.166.187.187 0 00-.117.182l.001.644c0 .267.415.267.414 0v-.645l-.002-.012c.221.215.444.429.669.64.194.183.487-.11.292-.293a63.012 63.012 0 01-.59-.564l.486-.126c.257-.067.148-.467-.111-.4l-.72.188a62.706 62.706 0 01-1.554-1.58c.103-.101.185-.225.239-.366l2.755-.005a.238.238 0 00.011.183l.27.58c.048.102.194.127.284.075.104-.061.121-.182.074-.284l-.258-.554.666-.001c.266 0 .266-.415-.001-.414zm-4.776-.635c.019.013.04.025.067.032.319.088.586.363.557.712-.027.34-.358.638-.706.556-.8-.187-.356-1.118.082-1.3z" fill="#a5edf9"/><g><path class="st0" d="M6.397 38.458c.546-.212.801-.724.786-1.298-.02-.827-.662-1.402-1.09-2.046-1.318-1.982-.235-4.369.689-6.259.116-.238-.241-.448-.358-.208-.768 1.571-1.561 3.252-1.3 5.05.114.78.449 1.425.921 2.046.405.532 1.326 1.895.24 2.316-.245.095-.137.496.112.399z"/></g><g><path class="st0" d="M3.985 38.037c.878-.471.445-1.491-.036-2.078-.934-1.138-1.69-2.59-.872-4.019.133-.232-.225-.44-.358-.208-.524.915-.51 1.98-.106 2.94.178.424.424.814.707 1.175.337.429 1.282 1.39.455 1.833-.235.126-.025.483.21.357z"/></g><g><path class="st0" d="M9.337 38.137c.664-.48.713-1.35.4-2.062-.403-.918-2.142-2.389-.966-3.389.203-.172-.091-.464-.293-.292-.655.557-.571 1.5-.196 2.198.424.788 2.033 2.33.845 3.187-.214.155-.007.514.21.358z"/></g></g></svg>