<svg version="1.1" id="Layer_1" xmlns="http://www.w3.org/2000/svg" x="0" y="0" viewBox="0 0 278.213 93.313" xml:space="preserve"><style>.st0{fill:none}.st1{fill:#c7f4ff}.st2{fill:#468c3e}.st3{fill:#ff6d00}.st5{fill:#161616}.st6{fill:#fff8d9}</style><path class="st0" d="M207.32 39.975a31.63 31.63 0 011.401-2.38 7.895 7.895 0 00.867-1.808c.265-.716.575-1.43.92-2.12.284-.569.548-1.14.774-1.674l.27-.655c-.238.163-.47.33-.692.496-.551.425-1.073.867-1.552 1.315-.32.298-.57.641-.749 1.012-.158.342-.323.677-.492 1.003-.11.212-.21.431-.29.64-.18.475-.355.955-.523 1.436a11.86 11.86 0 00-.386 1.355 6.414 6.414 0 00-.179.983l-.146 1.442c-.03.24-.053.48-.07.722.064-.135.126-.27.184-.402.2-.454.423-.911.663-1.365zM92.862 44.815c-.547.207-1.11.378-1.688.513.23.604.555 1.15.958 1.629.311.352.633.6.989.762.319.146.663.24 1.038.286.07-.047.141-.096.213-.147a9.77 9.77 0 001.1-1.153 14.44 14.44 0 001.095-1.553 28.16 28.16 0 001.363-2.305c.261-.495.506-1.002.733-1.517a24.378 24.378 0 01-2.076 1.574 19.083 19.083 0 01-3.725 1.911zM92.288 36.842a28.687 28.687 0 002.815-2.354 7.762 7.762 0 001.778-2.309 10.227 10.227 0 00.952-3.017c.05-.248.053-.46.01-.65-.028-.13-.11-.275-.25-.44-.427-.506-.873-.807-1.404-.948a1.642 1.642 0 00-.425-.057c-.3 0-.62.085-.977.26a5.563 5.563 0 00-1.658 1.21 7.805 7.805 0 00-1.273 1.837 16.29 16.29 0 00-1.415 4.232c-.169.825-.292 1.66-.365 2.482-.032.35-.053.703-.062 1.06.187-.076.37-.158.55-.246a10.82 10.82 0 001.724-1.06z"/><path class="st1" d="M57.124 42.42c.118 1.694.262 3.425.43 5.137.172 1.762.459 3.557.853 5.335.11.565.29 1.119.536 1.646.154.332.312.68.47 1.04a3.256 3.256 0 00.866 1.15 3.718 3.718 0 00.907.57c.574.243 1.16.435 1.739.572a6.604 6.604 0 002.2.143l.246-.028 1.045-.117a9.692 9.692 0 001.555-.31 12.213 12.213 0 003.309-1.269 37.777 37.777 0 002.63-1.627 153.206 153.206 0 002.966-2.097c.87-.632 1.766-1.263 2.678-1.895.097.212.177.43.282.639 1.025 1.935 2.315 3.467 3.863 4.606 1.603 1.179 3.533 1.896 5.737 2.131.472.053.95.08 1.413.08 1.603 0 3.094-.324 4.432-.963 1.623-.774 3.085-1.923 4.347-3.414.7-.797 1.4-1.676 2.048-2.577a23.265 23.265 0 001.803-2.953 69.151 69.151 0 001.5-2.964c.462-.97.917-1.952 1.366-2.944.617-1.275.402-2.285.11-2.911a3.68 3.68 0 00-1.197-1.448 2.488 2.488 0 00-.236-.15 4.305 4.305 0 00-1.955-.527c-.12 0-.238.008-.357.025a16.223 16.223 0 003.12-6.93 10.71 10.71 0 00.092-3.432 8.91 8.91 0 00-1.173-3.33 20.974 20.974 0 00-1.667-2.411 10.467 10.467 0 00-2.482-2.23c-.05-.032-.1-.062-.151-.09a7.94 7.94 0 01-.909-.589c-1.104-.793-2.248-1.283-3.443-1.488a13.655 13.655 0 00-2.296-.194 11.945 11.945 0 00-3.586.537c-.86.268-1.701.615-2.506 1.03a16.356 16.356 0 00-2.653 1.747 14.924 14.924 0 00-2.25 2.268 18.519 18.519 0 00-2.618 4.272 34.596 34.596 0 00-1.582 4.422 28.112 28.112 0 00-.73 3.16 26.855 26.855 0 00-.352 3.235 82.108 82.108 0 00-.09 2.95 24.026 24.026 0 00.173 3.165c.003.036.01.07.014.105a4.956 4.956 0 00-.993.248c-.312.117-.624.24-.935.37a2.46 2.46 0 00-.141.065 26.454 26.454 0 00-5.151 3.342 7.06 7.06 0 01-.98.733c-.095.06-.194.118-.294.176-.034-.269-.069-.536-.105-.801a30.29 30.29 0 01-.245-2.679 18.218 18.218 0 00-.244-2.401l-.355-2.076-.206-1.31-.192-1.213-.013-.08c-.035-.31-.058-.625-.067-.937a7.265 7.265 0 00-.279-1.778 14.463 14.463 0 01-.336-1.887 140.99 140.99 0 01-.226-2.224 4.37 4.37 0 01-.024-.44 9.42 9.42 0 00-.047-.915c-.05-.422-.088-.806-.121-1.2a39.545 39.545 0 00-.122-1.236 25.31 25.31 0 01-.028-1.193c0-.656-.084-1.324-.248-1.987V21.94c0-.667-.013-1.333-.037-2l-.032-.88-.039-1.081a54.74 54.74 0 00-.205-3.146 47.344 47.344 0 00-.124-1.105 14.724 14.724 0 00-.315-2.03 33.868 33.868 0 00-.478-1.839c-.365-1.174-.99-2.134-1.873-2.9a5.145 5.145 0 00-3.419-1.266l-.105.002a5.32 5.32 0 00-1.133.128c-1.025.229-1.837.931-2.238 1.93-.028.07-.053.14-.074.212-.134.447-.274.888-.42 1.324-.21.63-.35 1.283-.415 1.937a47.552 47.552 0 00-.22 2.675c-.051.923-.064 1.866-.039 2.802l.142 4.573c.047 1.535.133 3.097.254 4.643.069 1.138.16 2.325.268 3.484.11 1.187.252 2.38.423 3.542.228 1.582.413 3.16.549 4.686.14 1.578.268 3.174.385 4.787zm2.518-34.235c.73-.023 1.362.194 1.892.655.53.46.902 1.031 1.114 1.715.165.566.312 1.132.442 1.697.13.566.218 1.144.265 1.732.047.378.09.743.124 1.097a52.382 52.382 0 01.194 2.987l.071 1.964c.023.637.036 1.272.036 1.91V24.274c0 .141.023.272.07.39.118.471.177.937.177 1.396 0 .46.012.926.036 1.397.047.402.088.813.123 1.238.036.424.077.837.124 1.237.024.236.036.46.036.672 0 .212.011.437.035.672.07.755.147 1.509.23 2.264s.218 1.508.406 2.262c.118.402.183.802.195 1.203.012.4.04.801.088 1.202l.213 1.344.212 1.344.353 2.068c.118.697.19 1.397.213 2.105.047.99.135 1.956.265 2.9.13.942.241 1.897.336 2.864.023.165.053.324.088.477.035.154.076.325.124.513.424.024.807-.036 1.149-.177.342-.141.678-.295 1.008-.46.518-.259 1.008-.53 1.468-.812.46-.284.901-.614 1.326-.991.718-.59 1.461-1.132 2.227-1.627s1.556-.943 2.37-1.343c.283-.118.566-.23.848-.337.283-.106.59-.159.92-.159.377 0 .654.1.831.3.177.201.206.466.088.796a6.07 6.07 0 01-.389.831 1.964 1.964 0 01-.636.655c-.99.684-1.957 1.367-2.9 2.051-.943.684-1.91 1.367-2.9 2.05a35.09 35.09 0 01-2.457 1.521 9.69 9.69 0 01-2.706 1.025c-.4.12-.807.201-1.22.249l-1.255.141a4.145 4.145 0 01-1.379-.088 8.132 8.132 0 01-.672-.19 8.861 8.861 0 01-.672-.253 1.258 1.258 0 01-.265-.176.777.777 0 01-.195-.248c-.165-.377-.33-.742-.495-1.096a4.642 4.642 0 01-.353-1.096 43.256 43.256 0 01-.487-2.542 41.354 41.354 0 01-.327-2.533 178.563 178.563 0 01-.424-5.075 301.07 301.07 0 00-.389-4.827 88.42 88.42 0 00-.566-4.827 64.71 64.71 0 01-.406-3.412 108.55 108.55 0 01-.266-3.448 96.347 96.347 0 01-.247-4.527c-.048-1.508-.095-3.028-.142-4.56a32.09 32.09 0 01.036-2.6c.047-.86.117-1.716.212-2.564.047-.471.147-.937.3-1.396.154-.46.301-.926.442-1.397.095-.235.248-.378.46-.425a2.82 2.82 0 01.601-.07zm20.369 29.21c.047-.99.153-1.968.318-2.935.165-.967.39-1.933.672-2.9.401-1.415.89-2.781 1.468-4.102a16.007 16.007 0 012.28-3.714 12.384 12.384 0 011.875-1.891 13.735 13.735 0 012.228-1.468 13.117 13.117 0 012.104-.866 9.38 9.38 0 012.21-.406c.849-.048 1.685 0 2.51.141.207.035.41.083.613.144.403.12.798.291 1.184.512.193.11.384.234.573.37a10 10 0 001.202.777 7.94 7.94 0 011.892 1.697c.53.662 1.02 1.368 1.468 2.123.447.754.73 1.556.848 2.404.06.425.083.855.071 1.291a8.588 8.588 0 01-.141 1.326c-.142.73-.334 1.436-.577 2.115-.73 2.038-1.916 3.843-3.56 5.417a55.739 55.739 0 01-1.946 1.786 21.544 21.544 0 01-2.086 1.61 16.51 16.51 0 01-3.236 1.661c-.56.212-1.139.377-1.737.495s-1.216.189-1.852.213c-.012 0-.044.006-.097.017s-.127.03-.221.053c.165 1.013.412 1.97.742 2.864.33.896.814 1.722 1.45 2.475a5.742 5.742 0 00.862.805c.303.23.623.422.96.575a6.149 6.149 0 002.21.53c.33.024.618-.04.866-.195.247-.152.5-.323.76-.512a12.275 12.275 0 001.485-1.538 16.85 16.85 0 001.238-1.75 31.247 31.247 0 001.485-2.51c.448-.85.849-1.722 1.203-2.619.094-.211.196-.407.305-.587.109-.18.225-.343.35-.49.246-.295.605-.479 1.077-.55.283.025.531.096.743.214.082.059.156.128.22.208.066.079.122.169.169.269.047.1.061.216.044.349a1.453 1.453 0 01-.15.446c-.448.99-.902 1.969-1.361 2.936-.46.966-.95 1.933-1.468 2.899a20.722 20.722 0 01-1.609 2.635 31.722 31.722 0 01-1.927 2.422c-.778.92-1.632 1.67-2.563 2.251-.31.194-.629.369-.956.525-1.308.625-2.811.843-4.509.654-1.768-.188-3.277-.742-4.526-1.662a9.587 9.587 0 01-.898-.749c-.285-.27-.558-.56-.817-.869a11.999 11.999 0 01-1.397-2.095 19.363 19.363 0 01-.756-1.71 18.154 18.154 0 01-.57-1.738 21.385 21.385 0 01-.654-3.624 21.438 21.438 0 01-.16-2.865c.013-.942.041-1.897.089-2.865zm18.652 3.935a23.972 23.972 0 01-.733 1.517 28.16 28.16 0 01-1.402 2.366c-.321.52-.676 1.023-1.055 1.492a9.77 9.77 0 01-1.1 1.153c-.073.05-.143.1-.214.147a3.517 3.517 0 01-1.038-.286c-.356-.161-.678-.41-.989-.762a5.615 5.615 0 01-.958-1.63 13.23 13.23 0 001.688-.512 19.084 19.084 0 003.725-1.911 24.378 24.378 0 002.076-1.574z"/><path class="st1" d="M87.543 39.658c.024.26.053.513.089.76.035.247.076.513.123.796.306-.046.584-.082.831-.106.248-.023.49-.07.725-.141.825-.189 1.61-.466 2.352-.831s1.444-.796 2.104-1.291a33.53 33.53 0 001.556-1.22c.495-.413.978-.843 1.45-1.291.99-.896 1.768-1.91 2.334-3.042a12.608 12.608 0 00.974-2.685c.075-.313.14-.632.193-.956.059-.295.088-.582.088-.862s-.03-.553-.088-.818c-.119-.53-.377-1.032-.778-1.503a6.152 6.152 0 00-.591-.613 5.323 5.323 0 00-.643-.496 4.886 4.886 0 00-1.436-.641c-1.026-.272-2.069-.147-3.13.37-.46.225-.888.483-1.286.774s-.765.618-1.1.977a10.18 10.18 0 00-1.68 2.422 18.613 18.613 0 00-1.627 4.845c-.189.92-.324 1.84-.407 2.759-.082.919-.1 1.85-.053 2.793zm2.532-2.57c.074-.823.197-1.657.366-2.482a16.29 16.29 0 011.415-4.232 7.805 7.805 0 011.273-1.837 5.563 5.563 0 011.658-1.21c.357-.175.677-.26.977-.26.142 0 .28.019.425.057.531.14.977.442 1.403.948.14.165.223.31.252.44.042.19.038.402-.011.65l-.016.087a10.227 10.227 0 01-.936 2.93 7.761 7.761 0 01-1.779 2.31 28.682 28.682 0 01-2.814 2.353c-.549.412-1.123.765-1.724 1.06-.18.088-.363.17-.55.245.01-.356.03-.71.062-1.059zM105.847 16.602c.105.052.203.107.295.166a5.355 5.355 0 001.089.533c.297.1.608.184.926.25.365.078.733.12 1.095.125a11.723 11.723 0 001.542-.026c.34-.03.68-.044 1.008-.044h3.59l-.062.932c-.048.699-.095 1.427-.142 2.186a484.9 484.9 0 01-.14 2.164 398.21 398.21 0 00-.125 1.884 72.236 72.236 0 01-.09 1.277c-.05.903-.075 1.823-.075 2.735a99.26 99.26 0 01-.035 2.635v1.785c0 .876.012 1.89.036 3.04.023 1.13.047 2.33.07 3.601.024 1.284.054 2.497.09 3.64.036 1.153.078 2.17.126 3.047.056 1.027.127 1.698.23 2.174.263 1.296.58 2.611.938 3.88.39 1.388.957 2.761 1.683 4.08.557.988 1.202 1.83 1.928 2.525.817.784 1.83 1.373 3.006 1.75.671.23 1.347.399 2.008.502.345.054.7.081 1.055.081.488 0 .992-.051 1.498-.153.064-.013.128-.028.191-.046 1.254-.357 1.874-1.105 2.173-1.67.513-.971.462-2.115-.136-3.143l-.544-.948-.543-.946a1.66 1.66 0 01-.1-.207 26.33 26.33 0 01-.162-.418 5.37 5.37 0 00-.237-.95c-.27-.73-.496-1.475-.67-2.215-.192-.81-.37-1.634-.529-2.45-.074-.347-.17-.952-.262-2.17a249.275 249.275 0 01-.244-3.642c-.082-1.332-.146-2.74-.192-4.189a835.092 835.092 0 01-.211-7.931c-.023-1.061-.035-1.87-.035-2.422v-5.746c0-.374.006-.82.017-1.342.012-.561.019-1.15.019-1.77 0-.582.005-1.135.017-1.66v-.027l.53-.04c.753-.057 1.513-.11 2.278-.157.426-.035.785-.051 1.127-.051l.24.002c.187.005.381.007.578.007.217 0 .444-.008.667-.014a3.235 3.235 0 00-.196 1.038c0 .755.257 1.444.706 1.973-.137.685-.015 1.4.366 2.005a2.695 2.695 0 002.303 1.276 2.84 2.84 0 00.664-.08c.1-.024.198-.043.293-.056a3.565 3.565 0 001.514-.569c.999-.635 1.71-1.574 2.015-2.69.279-1.021.223-2.085-.166-3.163a2.49 2.49 0 00-.582-.916l-.14-.142a3.937 3.937 0 00-2.161-1.122c-.12-.019-.217-.037-.328-.056.07-.32.09-.651.028-.982a2.49 2.49 0 00-1.115-1.647 3.73 3.73 0 00-.368-.282 2.485 2.485 0 00-.47-.248 30.69 30.69 0 01-.638-.261 6.197 6.197 0 00-1.106-.347 21.667 21.667 0 00-3.467-.567 41.989 41.989 0 00-2.533-.124c.017-.31.044-.607.081-.888.096-.732.145-1.514.145-2.324 0-.356-.006-.725-.019-1.107a3.266 3.266 0 01.03-.587c.207-1.245-.165-2.182-.515-2.74a5.756 5.756 0 00-1.158-1.329c-.77-.693-1.696-1.06-2.678-1.06l-.112.002a7.21 7.21 0 00-1.779.285c-1.948.52-3.071 2.111-2.955 4.177v.064a14.17 14.17 0 01-.129.745c-.078.39-.144.78-.197 1.173-.113.656-.22 1.261-.323 1.817-.105.575-.216 1.197-.332 1.87-.498.002-.996.014-1.494.038-1.025.05-2.073.123-3.116.22-.651.074-1.258.137-1.876.195-.649.06-1.3.127-1.953.199-1.713.223-2.887 1.378-3.111 3.022a2.49 2.49 0 001.356 2.564zm3.94-3.306c.636-.06 1.26-.125 1.874-.196a67.882 67.882 0 013.005-.211 30.993 30.993 0 012.97 0 7.39 7.39 0 00.283-.018.936.936 0 00.284-.053l.141-.99.142-.991c.117-.683.23-1.313.335-1.891.107-.578.218-1.208.336-1.892.047-.354.106-.707.177-1.062.071-.353.13-.706.177-1.06v-.318a2.24 2.24 0 01.03-.623c.116-.557.483-.915 1.102-1.074.2-.06.399-.105.596-.138.198-.032.394-.052.588-.058.39-.01.749.137 1.079.443.283.236.513.495.69.778.176.282.23.637.159 1.06a5.755 5.755 0 00-.054 1.027c.012.353.018.695.018 1.025 0 .354-.01.697-.031 1.03-.02.333-.052.655-.093.967a15.264 15.264 0 00-.123 2v1.661h.848c.283 0 .566.012.849.035 1.061 0 2.11.041 3.147.124 1.037.083 2.075.254 3.112.513.235.048.466.118.69.212.224.095.453.189.69.282.07.048.135.1.194.16a.86.86 0 00.23.16c-.236.259-.478.412-.725.459a4.03 4.03 0 01-.76.07c-.543.024-1.067.03-1.574.018a14.727 14.727 0 00-1.574.053c-.778.047-1.55.101-2.316.16-.766.058-1.538.111-2.316.159-.071.023-.142.04-.212.053-.071.012-.166.04-.283.088v.796c0 .388-.006.855-.018 1.397a76.76 76.76 0 00-.018 1.715c0 .601-.006 1.173-.017 1.715a63.293 63.293 0 00-.018 1.397V28.024c0 .565.012 1.392.035 2.475a834.095 834.095 0 00.212 7.957 153.379 153.379 0 00.195 4.26c.082 1.357.164 2.582.247 3.68.083 1.095.183 1.914.3 2.457.166.848.349 1.697.55 2.546.2.848.453 1.685.76 2.51.047.142.082.29.106.442.023.154.058.301.106.442.07.189.14.371.212.549.07.176.153.347.247.512l.548.954.549.956c.164.283.194.524.088.725a.728.728 0 01-.243.26c-.11.074-.246.135-.411.182a4.767 4.767 0 01-1.68.053 9.316 9.316 0 01-1.61-.407c-.825-.26-1.514-.654-2.068-1.185a7.495 7.495 0 01-.782-.88 9.12 9.12 0 01-.685-1.047 17.44 17.44 0 01-.845-1.755 16.19 16.19 0 01-.623-1.8 51.809 51.809 0 01-.901-3.73 4.237 4.237 0 01-.051-.296 9.843 9.843 0 01-.047-.397c-.03-.298-.056-.661-.08-1.092-.047-.86-.088-1.857-.123-2.988a279.257 279.257 0 01-.088-3.608 1927.97 1927.97 0 00-.071-3.606 174.602 174.602 0 01-.036-2.989V31.42c.023-.896.036-1.774.036-2.635s.023-1.727.07-2.598a107.688 107.688 0 00.088-1.256c.036-.554.077-1.179.125-1.874.046-.695.093-1.42.14-2.175a416.257 416.257 0 01.209-3.165l.057-.884c.036-.554.065-.973.089-1.256v-.353a6.385 6.385 0 00-.478-.071c-.2-.023-.36-.035-.477-.035h-5.269c-.401 0-.808.017-1.22.053-.413.035-.831.04-1.255.017-.213 0-.43-.023-.655-.07a6.007 6.007 0 01-.654-.177 2.84 2.84 0 01-.53-.266 5.657 5.657 0 00-.53-.3c.07-.519.376-.813.919-.884.636-.07 1.273-.136 1.91-.194zm26.592 4.367l.141.14c.053.148.095.293.126.436.031.143.051.284.06.423.018.277-.009.545-.08.804-.07.26-.188.495-.353.707a2.483 2.483 0 01-.637.566c-.14.094-.3.154-.477.177-.177.024-.36.06-.548.106-.118.024-.207-.011-.265-.106-.06-.094-.053-.2.017-.318a.923.923 0 01.177-.248c.118-.117.23-.235.336-.353a10.5 10.5 0 01.336-.355c.047-.07.111-.146.195-.23.082-.08.088-.181.017-.3-.047-.07-.124-.11-.23-.123a2.411 2.411 0 01-.3-.053l-.354-.072a5.123 5.123 0 00-.318-.053 1.194 1.194 0 01-.248-.053c-.212-.07-.318-.235-.318-.494 0-.118.035-.248.106-.39a2.17 2.17 0 01.265-.406c.107-.129.224-.23.354-.3a.544.544 0 01.371-.072c.26.048.536.095.831.142.295.047.56.19.796.425zM151.606 57.523c1.637-.693 2.948-1.664 3.927-2.899.918-1.159 1.596-2.535 2.015-4.092.37-1.202.62-2.428.74-3.645.116-1.182.15-2.411.097-3.654a16.867 16.867 0 00-1.99-7.122 31.873 31.873 0 00-1.302-2.22 38.685 38.685 0 00-1.414-2.049 84.3 84.3 0 01-1.646-2.46 26.233 26.233 0 01-1.447-2.552 2.045 2.045 0 01-.157-.383c.021-.418.102-.735.244-1.025a4.8 4.8 0 01.267-.474l.107.032c.114.034.21.077.286.128.458.3.818.637 1.117 1.04.335.452.618.956.843 1.499a.78.78 0 01.026.113c.036.214.076.426.121.64a2.986 2.986 0 002.556 2.573c.205.042.41.063.614.063.622 0 1.21-.194 1.7-.56.316-.237.589-.529.812-.87.719-1.006.855-2.217.372-3.342a15.43 15.43 0 01-.292-.68 21.977 21.977 0 00-.364-.85c-.201-.427-.378-.812-.55-1.19a8.802 8.802 0 00-.91-1.55 22.195 22.195 0 00-2.574-3.005 8.865 8.865 0 00-1.998-1.411 9.263 9.263 0 00-2.344-.846 7.818 7.818 0 00-1.639-.174c-.347 0-.7.023-1.049.07a6.97 6.97 0 00-2.714.956l-.425.266-.171.107-.56.35a9.185 9.185 0 00-2.26 2.153 9.911 9.911 0 00-1.37 2.573 10.39 10.39 0 00-.58 2.815 9.855 9.855 0 00.237 2.884c.283 1.139.67 2.207 1.158 3.21.441.91.935 1.819 1.465 2.702.424.724.902 1.458 1.408 2.158.457.633.92 1.277 1.39 1.934.312.463.634.998.92 1.539.24.453.433.95.574 1.476.267.92.377 1.78.342 2.61a11.23 11.23 0 01-.465 2.72.767.767 0 01-.185.34 9.612 9.612 0 01-.55-.49 4.575 4.575 0 01-.504-.576 3.979 3.979 0 01-.527-1.115 15.725 15.725 0 01-.397-1.725c-.223-1.23-.711-2.289-1.455-3.167a20.298 20.298 0 00-1.755-1.817 2.49 2.49 0 00-4.033 1.015c-.169.484-.347.94-.53 1.356-.25.57-.471 1.158-.66 1.752a11.773 11.773 0 00-.477 2.377 7.97 7.97 0 00.228 2.749 13.55 13.55 0 002.529 5.16 29.41 29.41 0 001.372 1.507 13.65 13.65 0 001.807 1.552c1.697 1.161 3.623 1.84 5.722 2.017a14.705 14.705 0 001.912.042 7.145 7.145 0 002.386-.535zm-4.089-1.987c-1.674-.141-3.182-.672-4.526-1.591a11.12 11.12 0 01-1.432-1.239 26.832 26.832 0 01-1.256-1.378 11.068 11.068 0 01-2.015-4.172c-.165-.637-.218-1.268-.16-1.893s.183-1.243.372-1.856c.164-.519.354-1.02.566-1.503.212-.484.412-.996.601-1.539.283.26.553.522.809.787.256.266.5.534.73.805.46.543.76 1.202.901 1.98.118.684.271 1.35.46 1.998.094.324.215.641.362.95.147.31.321.612.522.906.259.354.53.667.813.937.283.272.59.538.92.796.282.213.589.348.92.407.33.06.658.077.989.053.283-.047.519-.141.707-.283.283-.259.542-.541.778-.848.118-.154.221-.319.31-.495.088-.177.162-.366.22-.567.166-.554.295-1.108.39-1.661.094-.554.153-1.108.177-1.663a10.382 10.382 0 00-.425-3.359 9.536 9.536 0 00-.778-1.998 19.416 19.416 0 00-1.096-1.821c-.472-.66-.937-1.308-1.397-1.945-.46-.637-.89-1.297-1.29-1.98a32.723 32.723 0 01-1.362-2.512 13.69 13.69 0 01-.972-2.687 7.33 7.33 0 01-.177-2.157 7.86 7.86 0 01.442-2.139 7.39 7.39 0 011.025-1.928 6.672 6.672 0 011.574-1.52l.566-.354c.188-.118.377-.235.565-.354a4.473 4.473 0 011.751-.618 5.348 5.348 0 011.839.07c.601.13 1.172.336 1.715.62.271.141.524.294.76.46.236.164.454.341.654.53a19.702 19.702 0 012.3 2.687c.258.354.476.725.653 1.114.177.389.36.784.548 1.185.118.259.224.507.319.742.094.237.2.484.318.743.035.083.059.164.07.245a.824.824 0 010 .241 1.01 1.01 0 01-.212.469c-.07.118-.153.211-.247.282s-.224.083-.39.035c-.33-.023-.506-.2-.53-.53a12.042 12.042 0 01-.123-.636 3.185 3.185 0 00-.16-.601 9.743 9.743 0 00-.521-1.088 9.277 9.277 0 00-.645-.998 6.726 6.726 0 00-1.733-1.627c-.283-.189-.601-.336-.955-.442s-.696-.207-1.026-.3a1.295 1.295 0 00-.636.017 1.155 1.155 0 00-.566.37c-.224.26-.427.527-.61.801a7.333 7.333 0 00-.486.844 5.054 5.054 0 00-.495 1.893c-.024.33.011.648.106.954.094.307.212.59.354.85.471.942.984 1.844 1.538 2.704.554.86 1.125 1.715 1.715 2.563.471.637.92 1.286 1.344 1.946.424.66.825 1.343 1.202 2.05a14.27 14.27 0 011.697 6.048 23.64 23.64 0 01-.088 3.306 16.07 16.07 0 01-.654 3.2c-.33 1.25-.855 2.33-1.574 3.236-.36.454-.782.86-1.269 1.216a8.132 8.132 0 01-1.648.924c-.26.106-.519.189-.778.248-.26.058-.519.094-.778.105-.519.023-1.05.012-1.592-.035zM163.936 14.512a9.375 9.375 0 001.957.904c.508.166 1.048.25 1.597.25.327 0 .66-.03.995-.09.09.008.181.012.274.013 1.3.048 2.594.083 3.883.106 1.256.024 2.51.058 3.758.105.62.038 1.253.066 1.89.082a46.617 46.617 0 00-.259 6.266c.072 2.217.154 4.402.25 6.569.093 2.164.2 4.348.319 6.549l.21 4.854c.026.445.05.832.074 1.202.02.312.03.643.03.989a51.284 51.284 0 00.057 3.627c.063 1.24.197 2.508.4 3.769.133.75.28 1.455.444 2.135.202.841.524 1.673.954 2.471a8.292 8.292 0 001.72 2.271c.848.787 1.912 1.286 3.162 1.482.252.042.523.065.784.065.651 0 1.255-.142 1.793-.422.685-.358 1.259-.918 1.71-1.668a4.579 4.579 0 00.636-1.65c.072-.409.109-.845.109-1.295 0-.165.004-.33.013-.495.009-.156.021-.299.038-.434.009-.067.014-.135.017-.203.022-.519.05-1.02.085-1.507a24.7 24.7 0 00.059-1.711c0-1.291-.019-2.576-.054-3.82a434.023 434.023 0 00-.125-3.735 274.06 274.06 0 00-.195-5.467 743.23 743.23 0 01-.23-5.392 395.67 395.67 0 00-.16-3.787c-.058-1.23-.11-2.476-.157-3.74a251.229 251.229 0 00-.179-4.365 34.89 34.89 0 00-.197-2.356l1.45-.017c1.267-.012 2.551-.042 3.815-.09a35.549 35.549 0 002.642-.25c.784-.104 1.584-.202 2.395-.295 1.355-.176 2.447-.927 3.114-2.12l1.361-2.305a2.852 2.852 0 00.375-1.234 2.51 2.51 0 00-1.62-2.802 3.325 3.325 0 00-.985-.46 8.787 8.787 0 00-2.769-.429c-.096 0-.193.002-.29.005-.253.007-.5.01-.74.01-.468 0-.913-.014-1.322-.041-1.952-.121-3.882-.217-5.749-.288a61.092 61.092 0 00-5.922.073 16.877 16.877 0 01-1.619.05 34.855 34.855 0 00-1.965.019l-2.404.093-1.276.049-1.819.07-1.858.071a389.82 389.82 0 00-3.684.16 129.431 129.431 0 00-3.797.244c-.522.062-1.044.162-1.552.298-.48.126-.973.292-1.46.49-1.379.515-1.885 1.492-2.064 2.033-.23.69-.23 1.458.003 2.277.321 1.193 1.043 2.178 2.078 2.817zm.883-4.806c.4-.165.801-.3 1.202-.406.4-.107.801-.183 1.202-.23 1.203-.095 2.41-.17 3.625-.23 1.214-.059 2.434-.112 3.66-.16l3.678-.14c1.225-.048 2.451-.094 3.677-.143.613-.023 1.22-.029 1.821-.018.602.013 1.208-.005 1.822-.053 1.91-.117 3.801-.14 5.675-.07s3.766.165 5.676.283c.707.048 1.473.059 2.299.036.825-.023 1.579.082 2.263.318.188.047.324.123.406.23.083.105.242.171.478.194-.024.118-.036.207-.036.265s-.012.113-.035.16l-1.379 2.333c-.283.519-.696.814-1.238.884-.825.095-1.638.194-2.44.3a32.84 32.84 0 01-2.404.231c-1.273.047-2.523.076-3.749.088-1.226.012-2.475.03-3.748.053-.071 0-.142.006-.212.018a3.58 3.58 0 00-.248.053c0 .118-.006.224-.018.318a.758.758 0 00.018.283 32.745 32.745 0 01.495 4.261c.071 1.427.13 2.87.177 4.332.047 1.273.1 2.53.159 3.766a397.3 397.3 0 01.16 3.767c.07 1.815.146 3.618.229 5.41.082 1.792.147 3.607.195 5.445.047 1.25.088 2.488.123 3.714.036 1.226.053 2.475.053 3.748 0 .52-.017 1.032-.053 1.538a58.984 58.984 0 00-.088 1.574c-.024.19-.041.39-.053.601-.012.212-.018.425-.018.637 0 .307-.023.596-.07.866-.024.136-.063.27-.116.403-.053.132-.12.263-.203.393-.212.353-.454.601-.725.743-.271.141-.619.176-1.043.106-.377-.06-.72-.16-1.03-.301a3.097 3.097 0 01-.826-.548 5.862 5.862 0 01-1.22-1.627 7.762 7.762 0 01-.725-1.874 32.475 32.475 0 01-.407-1.945 32.403 32.403 0 01-.371-3.5 49.176 49.176 0 01-.053-3.501c0-.4-.012-.784-.036-1.15a196.27 196.27 0 01-.07-1.149l-.213-4.88a634.227 634.227 0 01-.318-6.524 567.175 567.175 0 01-.247-6.526c-.071-2.71.106-5.397.53-8.062a.503.503 0 00.018-.23 2.098 2.098 0 01-.018-.3 51.272 51.272 0 00-2.281-.088 48.338 48.338 0 01-2.245-.089 208.572 208.572 0 00-3.837-.107 209.172 209.172 0 01-3.873-.106c-.118 0-.224-.01-.318-.035a.524.524 0 00-.318.035c-.542.119-1.05.1-1.52-.053a6.797 6.797 0 01-1.415-.654c-.495-.306-.825-.766-.99-1.378-.094-.33-.106-.602-.036-.814a.62.62 0 01.204-.283c.1-.082.233-.153.398-.212zM204.178 45.386c.046.26.112.526.194.796.083.272.218.513.407.725h.177c.141-.046.247-.094.318-.141a8.09 8.09 0 003.077-3.218c.212-.4.406-.801.583-1.202.177-.4.371-.801.584-1.203a29 29 0 011.29-2.193c.46-.707.831-1.472 1.114-2.298.235-.636.507-1.26.814-1.874.305-.613.589-1.225.848-1.839l.99-2.404c.33-.802.613-1.615.849-2.44.07-.26.129-.519.177-.778a2.1 2.1 0 00-.035-.849 4.312 4.312 0 00-1.38.494c-.848.425-1.68.873-2.493 1.345a24.215 24.215 0 00-2.351 1.556c-.613.472-1.191.96-1.733 1.467a5.97 5.97 0 00-1.308 1.786c-.142.307-.29.607-.443.901a8.998 8.998 0 00-.406.902c-.19.496-.371.997-.548 1.503a14.3 14.3 0 00-.442 1.539c-.118.448-.201.901-.248 1.361-.048.46-.095.925-.141 1.397a17.209 17.209 0 00-.124 2.333c.012.778.088 1.556.23 2.334zm2.365-4.366l.146-1.442a6.414 6.414 0 01.2-1.067c.094-.42.217-.847.365-1.271.168-.481.342-.96.523-1.435.08-.21.18-.43.29-.641.17-.326.334-.661.492-1.003.18-.371.43-.714.749-1.012.479-.448 1.001-.89 1.552-1.315.223-.167.454-.333.692-.496l-.27.655c-.226.534-.49 1.105-.773 1.673a21.355 21.355 0 00-.943 2.18 7.895 7.895 0 01-.845 1.748 31.63 31.63 0 00-1.401 2.381c-.24.454-.462.911-.663 1.365-.058.133-.12.267-.184.402.017-.242.04-.482.07-.722z"/><path class="st1" d="M201.228 28.056a20.683 20.683 0 00-4.103 5.432A14.222 14.222 0 00196 36.275a50.704 50.704 0 00-.65 2.546 33.51 33.51 0 00-.565 3.697 16.69 16.69 0 00.098 3.934c.09.753.246 1.489.464 2.187.26.832.665 1.615 1.204 2.328a7.787 7.787 0 001.771 1.782c.835.598 1.8.943 2.87 1.026a9.161 9.161 0 005.044-.993 9.658 9.658 0 002.617-1.815 24.26 24.26 0 001.88-2.074c.22-.296.442-.596.663-.903.256-.355.505-.744.74-1.152.308-.535.584-1.093.814-1.654.147-.358.323-.713.523-1.059.019-.032.037-.065.054-.098l.248-.476.02.185c.073.78.175 1.585.301 2.366.125.775.278 1.564.454 2.344a43.127 43.127 0 001.056 3.739 15.051 15.051 0 001.948 3.857c.036.051.074.101.113.15.402.49.864.89 1.375 1.183.417.238.828.41 1.231.516a4.295 4.295 0 001.7.195c.147-.013.292-.04.433-.078.323-.088.646-.19.97-.307.054-.02.108-.042.162-.065a31.6 31.6 0 00.71-.328 4.7 4.7 0 001.315-.93c.391-.393.69-.77.916-1.154.029-.048.056-.115.084-.17a9.07 9.07 0 001.11 1.834 2.49 2.49 0 001.269.862 6.807 6.807 0 002.724.222c.735-.07 1.566-.318 2.41-.732.971-.475 1.83-1.263 2.547-2.34a71.436 71.436 0 001.247-2.12c.434-.77.809-1.597 1.115-2.46a6.896 6.896 0 00.213-.868c.178-1.086-.258-2.121-1.165-2.799a3.335 3.335 0 00-1.754-.695 46.03 46.03 0 00-.018-.496 37.138 37.138 0 01-.034-1.642l-.048-1.454-.023-.703a61.832 61.832 0 01-.034-2.076 247.16 247.16 0 01.07-6.025l.14-3.182c.048-1.097.072-2.21.073-3.31.047-1.63.071-3.278.071-4.898 0-1.627-.012-3.26-.036-4.9 0-1.089-.012-2.204-.036-3.307-.024-1.1-.06-2.213-.107-3.34a32.327 32.327 0 00-.365-3.73 13.421 13.421 0 00-1.357-4.085 5.978 5.978 0 00-1.642-1.92c-.773-.582-1.725-.89-2.75-.89l-.178.003a4.038 4.038 0 00-1.449.282 3.415 3.415 0 00-1.608 1.347 8.469 8.469 0 00-.912 1.816 9.674 9.674 0 00-.642 2.561c-.078.723-.13 1.461-.154 2.198-.048 1.408-.1 2.791-.159 4.15-.06 1.404-.103 2.818-.126 4.204-.047 1.62-.065 3.286-.053 4.922.011 1.583.006 3.201-.017 4.808l-.026 1.93-.045 3.323a382.535 382.535 0 00-.036 5.25c0 1.31.031 2.617.092 3.884.058 1.23.11 2.476.158 3.742.024.695.078 1.403.118 2.108l-.206-.79a63.55 63.55 0 01-.681-2.912 84.723 84.723 0 01-.95-4.96c-.26-1.613-.461-3.279-.597-4.951a32.604 32.604 0 01-.099-3.868c.046-1.353.104-2.708.173-4.071.047-.547.089-1.107.124-1.677a8.538 8.538 0 00-.154-2.242c-.111-.752-.415-1.499-.903-2.223-.707-1.044-1.811-1.683-3.117-1.808a4.566 4.566 0 00-.562-.036c-.577 0-1.118.118-1.607.35a3.273 3.273 0 00-1.748 2.038 52.366 52.366 0 00-.614 1.88 27.53 27.53 0 00-2.647.674 27.73 27.73 0 00-3.753 1.477 22.464 22.464 0 00-3.542 2.11 31.342 31.342 0 00-3.036 2.537zm4.506-.527c.483-.354.987-.687 1.511-1 .525-.311 1.07-.603 1.636-.874a25.106 25.106 0 013.412-1.345 25.1 25.1 0 013.519-.813c.07 0 .13-.01.177-.035a.317.317 0 01.141-.035c.188-.59.366-1.15.53-1.68s.342-1.066.531-1.61a.805.805 0 01.442-.548c.224-.105.5-.134.831-.088.442.036.801.18 1.077.435.093.084.176.181.25.29.294.437.464.855.512 1.256a6.01 6.01 0 01.124 1.662 69.95 69.95 0 01-.124 1.662c-.07 1.392-.13 2.775-.177 4.155a34.903 34.903 0 00.106 4.155c.142 1.745.348 3.46.62 5.145a84.694 84.694 0 00.972 5.075c.212 1.014.447 2.022.707 3.024.259 1.002.518 1.997.778 2.987.141.566.3 1.12.477 1.662.177.543.36 1.097.548 1.662.012.048.026.113.044.195l.063.3c.023.166.026.315.008.447a.918.918 0 01-.115.35c-.059.1-.132.204-.22.313a4.499 4.499 0 01-.31.34 2.21 2.21 0 01-.619.442 29.15 29.15 0 01-.654.301c-.26.094-.519.177-.778.248a1.793 1.793 0 01-.778-.106 2.524 2.524 0 01-1.379-.884 12.897 12.897 0 01-1.313-2.38c-.115-.276-.22-.555-.314-.838a39.452 39.452 0 01-.99-3.502 35.487 35.487 0 01-.424-2.192 33.569 33.569 0 01-.283-2.228 245.212 245.212 0 00-.372-3.341 246.09 246.09 0 01-.371-3.342 23.442 23.442 0 01-.053-.92 10.831 10.831 0 00-.088-.99c-.212.26-.395.5-.548.725a3.19 3.19 0 00-.372.725 30.593 30.593 0 01-1.467 3.306 764.853 764.853 0 01-1.68 3.236c-.26.448-.483.901-.672 1.362-.189.459-.413.913-.672 1.362-.189.33-.389.642-.601.936-.212.295-.424.583-.636.867a21.628 21.628 0 01-1.627 1.785 7.15 7.15 0 01-1.98 1.362 6.683 6.683 0 01-3.75.743 3.115 3.115 0 01-1.608-.566 5.29 5.29 0 01-1.22-1.238 5.137 5.137 0 01-.831-1.592 9.64 9.64 0 01-.371-1.768 13.976 13.976 0 01-.088-3.377 30.8 30.8 0 01.512-3.377c.189-.825.394-1.632.619-2.422.223-.79.536-1.561.937-2.316a18.105 18.105 0 013.607-4.774 28.703 28.703 0 012.794-2.334zm21.57 4.049l.07-5.251c.024-1.627.03-3.248.018-4.863-.012-1.614.006-3.235.053-4.862.023-1.391.065-2.77.124-4.138.059-1.367.112-2.758.16-4.173.023-.683.07-1.355.14-2.015a7.33 7.33 0 01.495-1.946c.165-.47.39-.919.673-1.343a.932.932 0 01.442-.39c.177-.07.37-.105.583-.105.542-.023 1.002.106 1.38.39.376.282.695.66.954 1.13.542 1.061.902 2.153 1.079 3.272.177 1.12.288 2.268.336 3.447a150.36 150.36 0 01.142 6.577c.023 1.628.035 3.25.035 4.864 0 1.614-.024 3.235-.071 4.862a74.12 74.12 0 01-.071 3.236c-.048 1.072-.094 2.15-.141 3.235a268.176 268.176 0 00-.07 6.082c0 .732.01 1.45.034 2.158l.071 2.156c0 .543.012 1.097.035 1.663.023.565.036 1.131.036 1.697.023.542.029 1.079.017 1.61-.012.53-.017 1.078-.017 1.644.093-.118.177-.23.247-.337a4.86 4.86 0 01.248-.335c.212-.212.418-.425.619-.637.2-.212.418-.412.654-.602.306-.235.624-.222.955.036.164.119.235.248.212.39-.024.14-.06.294-.106.458a13.14 13.14 0 01-.937 2.07 69.034 69.034 0 01-1.15 1.962c-.118.177-.239.34-.363.49-.374.452-.777.783-1.21.995a5.717 5.717 0 01-.836.336 3.9 3.9 0 01-.773.16c-.59.07-1.167.023-1.733-.142a6.548 6.548 0 01-.813-1.344 7.595 7.595 0 01-.495-1.52c-.283-1.345-.478-2.7-.584-4.067s-.183-2.735-.23-4.102a395.23 395.23 0 00-.159-3.767 79.041 79.041 0 01-.088-3.765c0-1.745.011-3.484.035-5.216zM268.908 45.59c.604.354 1.223.692 1.84 1.006.536.274 1.072.567 1.591.87.194.113.403.2.62.257.455.12.901.18 1.326.18.388 0 .765-.05 1.123-.148.837-.22 1.567-.737 2.115-1.495.606-.844.81-1.91.623-3.264a2.487 2.487 0 00-.15-.57 6.53 6.53 0 00-1.797-2.581c-.265-.24-.534-.478-.808-.718a9.233 9.233 0 00-1.165-.86c-.743-.488-1.474-.97-2.194-1.445-.75-.496-1.51-.985-2.282-1.467l-3.008-1.984c-1.03-.678-2.09-1.355-3.15-2.015-1.05-.672-2.133-1.35-3.207-2.003l1.054-.396c1.28-.481 2.552-.968 3.82-1.461.556-.194 1.12-.405 1.677-.628.59-.236 1.184-.502 1.76-.79a7.723 7.723 0 001.656-1.16c.617-.571 1.082-1.296 1.383-2.154a2.49 2.49 0 00-.477-2.463c-.828-.945-1.943-1.466-3.14-1.466-.416 0-.843.063-1.268.187-1.107.336-2.18.658-3.248.976-1.077.319-2.161.645-3.251.977-1.458.416-2.933.85-4.383 1.29a145.637 145.637 0 01-4.377 1.252 8.103 8.103 0 01-.177.051l-.571-3.866c-.262-1.755-.534-3.52-.818-5.297a86.804 86.804 0 00-.655-3.654 29.579 29.579 0 00-1.042-3.805c-.283-.82-.61-1.64-.973-2.431a8.545 8.545 0 00-1.991-2.721 6.305 6.305 0 00-4.127-1.65c-2.005 0-3.523 1.298-3.868 3.306a17.164 17.164 0 00-.212 3.14c.025.93.089 1.888.19 2.846a134.1 134.1 0 00.396 3.385c.142 1.083.282 2.177.423 3.282a727.572 727.572 0 001.204 9.594c.258 2.13.546 4.283.855 6.368.259 1.77.525 3.549.797 5.334.27 1.773.534 3.552.792 5.339.188 1.17.35 2.318.489 3.448.146 1.194.316 2.412.506 3.62.149 1.041.365 2.108.637 3.133.308 1.16.79 2.28 1.431 3.329.067.112.14.23.205.336.224.359.51.67.852.925a2.49 2.49 0 001.128.47c.482.07.962.107 1.426.107.576 0 1.143-.056 1.688-.164.967-.187 1.906-.612 2.773-1.262 1.021-.767 1.744-1.922 2.15-3.435a2.49 2.49 0 00.08-.783 43.676 43.676 0 01-.066-2.425c0-.97-.067-1.947-.2-2.905a555.623 555.623 0 00-.886-6.481 901.364 901.364 0 00-.67-4.603l1.565 1.002a319.765 319.765 0 004.81 3.029 726.69 726.69 0 014.573 2.766c1.502.914 3.05 1.838 4.603 2.746zm-18-14.012c-.2-.106-.453-.135-.76-.089.094.519.177 1.025.248 1.52l.212 1.486c.33 2.193.648 4.362.955 6.507.306 2.145.601 4.303.884 6.471.118.849.177 1.704.177 2.564 0 .86.023 1.715.07 2.564-.259.966-.671 1.662-1.237 2.086-.566.424-1.156.696-1.768.814a6.592 6.592 0 01-2.264.035.91.91 0 01-.23-.247l-.194-.32a10.052 10.052 0 01-1.15-2.669 24.944 24.944 0 01-.583-2.882c-.189-1.202-.353-2.38-.494-3.536a96.756 96.756 0 00-.496-3.5c-.26-1.793-.525-3.578-.795-5.358-.272-1.78-.537-3.554-.796-5.323-.307-2.074-.59-4.184-.849-6.33a732.53 732.53 0 01-.619-4.79c-.2-1.592-.395-3.189-.583-4.792a986.993 986.993 0 00-.425-3.289 131.15 131.15 0 01-.389-3.325 33.867 33.867 0 01-.176-2.652c-.023-.872.035-1.756.176-2.652.036-.206.092-.387.168-.541.23-.465.646-.697 1.247-.697.236.012.463.041.683.089s.43.112.634.194c.407.165.781.401 1.123.708a6.039 6.039 0 011.415 1.927c.33.72.624 1.455.884 2.21.4 1.156.718 2.317.954 3.483.236 1.167.448 2.352.637 3.554.283 1.769.554 3.525.814 5.27.258 1.744.518 3.5.778 5.268l.07.566c.023.189.059.39.106.601a22.624 22.624 0 011.539-.282c.482-.072.96-.178 1.431-.32 1.486-.4 2.947-.818 4.385-1.254s2.9-.866 4.385-1.291a458.4 458.4 0 013.236-.972c1.073-.32 2.151-.643 3.236-.973.73-.213 1.344-.035 1.839.53-.083.236-.185.45-.305.642-.121.191-.261.36-.42.508a5.107 5.107 0 01-1.079.76 20.57 20.57 0 01-1.574.707c-.53.213-1.066.414-1.609.601a363.04 363.04 0 01-3.836 1.468c-1.285.483-2.564.961-3.837 1.432-.307.118-.619.224-.937.318-.319.095-.667.2-1.044.319.107.106.198.194.274.265.077.07.14.123.187.159 1.202.732 2.387 1.45 3.553 2.157 1.167.708 2.34 1.438 3.519 2.193 1.06.66 2.092 1.32 3.094 1.98l3.059 2.016c.754.471 1.497.95 2.228 1.431.73.484 1.473.973 2.227 1.468.307.189.596.402.867.637.27.236.536.471.796.707.247.212.465.454.654.725.188.271.347.572.477.902.094.684.035 1.173-.177 1.468a1.602 1.602 0 01-.344.357 1.126 1.126 0 01-.398.19c-.33.095-.72.083-1.167-.035a34.812 34.812 0 00-1.715-.937 34.56 34.56 0 01-1.715-.937 291.161 291.161 0 01-4.562-2.723c-1.509-.92-3.03-1.84-4.562-2.758a317.21 317.21 0 01-4.774-3.007 853.392 853.392 0 00-4.774-3.04 9.384 9.384 0 00-.583-.336z"/><path class="st2" d="M58.581 8.68c-.141.472-.288.938-.442 1.398a6.39 6.39 0 00-.3 1.396 45.274 45.274 0 00-.212 2.563 32.09 32.09 0 00-.036 2.6c.047 1.533.094 3.053.142 4.561.046 1.51.13 3.019.247 4.527.071 1.156.16 2.305.266 3.448a64.71 64.71 0 00.406 3.412 88.4 88.4 0 01.566 4.827c.141 1.591.271 3.2.389 4.827.118 1.699.26 3.39.424 5.075.083.843.192 1.687.327 2.533.136.846.298 1.693.487 2.542a4.508 4.508 0 00.353 1.096c.165.354.33.719.495 1.096a.777.777 0 00.195.248c.082.07.17.13.265.176a8.136 8.136 0 001.344.443c.448.106.907.135 1.379.088l1.255-.141c.413-.048.82-.13 1.22-.249a9.69 9.69 0 002.706-1.025 35.09 35.09 0 002.457-1.52c.99-.684 1.957-1.367 2.9-2.05.943-.685 1.91-1.368 2.9-2.052.283-.19.495-.407.636-.655a6.07 6.07 0 00.39-.83c.117-.33.088-.596-.089-.797-.177-.2-.454-.3-.83-.3-.331 0-.638.053-.92.16a25.02 25.02 0 00-.85.336c-.813.4-1.603.848-2.369 1.343s-1.509 1.037-2.227 1.627a9.505 9.505 0 01-1.326.99c-.46.283-.95.555-1.468.814-.33.164-.666.318-1.008.459-.342.141-.725.2-1.149.177a21.35 21.35 0 01-.124-.513 5.566 5.566 0 01-.088-.477 73.183 73.183 0 00-.336-2.864c-.13-.944-.218-1.91-.265-2.9a15.808 15.808 0 00-.213-2.105l-.353-2.068-.212-1.344-.213-1.344a13.53 13.53 0 01-.088-1.202 4.76 4.76 0 00-.195-1.203c-.188-.754-.324-1.507-.406-2.262s-.16-1.509-.23-2.264a6.73 6.73 0 01-.035-.672c0-.212-.012-.436-.036-.672-.047-.4-.088-.813-.124-1.237a37.288 37.288 0 00-.123-1.238 27.763 27.763 0 01-.036-1.397c0-.46-.059-.925-.176-1.396-.048-.118-.071-.249-.071-.39v-.424-1.91c0-.637-.013-1.272-.036-1.909l-.07-1.963a52.36 52.36 0 00-.195-2.988 45.2 45.2 0 00-.124-1.097 12.196 12.196 0 00-.265-1.732 31.272 31.272 0 00-.442-1.697 3.665 3.665 0 00-1.114-1.715c-.53-.46-1.161-.678-1.892-.655-.188 0-.389.024-.6.07-.213.048-.366.19-.46.426zM80.082 43.124c.118 1.25.336 2.458.654 3.624.16.583.35 1.163.57 1.737.221.575.473 1.145.756 1.71.412.779.878 1.477 1.397 2.096.259.31.532.6.817.87.286.269.586.519.898.748 1.25.92 2.758 1.474 4.526 1.662 1.698.189 3.2-.03 4.509-.654.327-.156.646-.331.956-.525.93-.58 1.785-1.331 2.563-2.25a31.728 31.728 0 001.927-2.423 20.642 20.642 0 001.609-2.635 67.424 67.424 0 001.468-2.9c.46-.966.913-1.945 1.361-2.935.082-.165.132-.314.15-.446a.619.619 0 00-.044-.35c-.047-.1-.103-.189-.168-.268a1.143 1.143 0 00-.221-.208 1.83 1.83 0 00-.743-.213c-.472.07-.83.254-1.078.548-.124.148-.24.311-.35.49-.108.18-.21.377-.304.588a26.346 26.346 0 01-1.203 2.618 29.853 29.853 0 01-1.485 2.51c-.378.613-.79 1.197-1.238 1.751a12.195 12.195 0 01-1.485 1.538c-.26.19-.513.36-.76.512a1.408 1.408 0 01-.866.196 6.15 6.15 0 01-2.21-.531 5.041 5.041 0 01-.96-.574c-.152-.115-.3-.24-.443-.374s-.283-.278-.419-.432a8.211 8.211 0 01-1.45-2.475c-.33-.895-.577-1.85-.742-2.864l.22-.053a.626.626 0 01.098-.017c.636-.024 1.254-.095 1.852-.213s1.177-.283 1.737-.495a16.51 16.51 0 003.236-1.662 21.544 21.544 0 002.086-1.609 55.758 55.758 0 001.945-1.786c1.645-1.574 2.832-3.38 3.56-5.417.244-.68.436-1.384.578-2.115.082-.448.13-.89.141-1.326a7.816 7.816 0 00-.07-1.29 6.404 6.404 0 00-.85-2.405 18.368 18.368 0 00-1.467-2.123 7.94 7.94 0 00-1.892-1.697 10.455 10.455 0 01-1.202-.778 6.621 6.621 0 00-.573-.369 5.633 5.633 0 00-1.184-.512 5.173 5.173 0 00-.612-.144 11.145 11.145 0 00-2.511-.141 9.38 9.38 0 00-2.21.406c-.72.225-1.42.513-2.104.866-.802.425-1.545.914-2.228 1.468a12.384 12.384 0 00-1.874 1.891 16.008 16.008 0 00-2.281 3.714A31.936 31.936 0 0081 31.56a25.591 25.591 0 00-.672 2.9 24.24 24.24 0 00-.318 2.934 79.283 79.283 0 00-.088 2.865c-.012.944.04 1.898.159 2.865zm7.921-9.018c.33-1.72.872-3.335 1.627-4.845a10.153 10.153 0 011.68-2.422c.335-.36.702-.685 1.1-.977s.827-.55 1.286-.773c1.061-.518 2.104-.643 3.13-.371.513.135.991.349 1.436.64.223.146.437.312.643.497.205.185.402.389.591.613.4.471.66.972.778 1.503.059.265.088.537.088.817s-.03.568-.088.863a13.41 13.41 0 01-.193.957 12.61 12.61 0 01-.974 2.684 10.295 10.295 0 01-2.334 3.042c-.472.448-.955.878-1.45 1.291a33.53 33.53 0 01-1.556 1.22c-.66.495-1.361.925-2.104 1.29s-1.527.643-2.352.832c-.235.07-.477.118-.725.14-.247.025-.525.06-.83.107a33.102 33.102 0 01-.124-.796 14.44 14.44 0 01-.089-.76c-.047-.943-.03-1.874.053-2.793.083-.92.218-1.84.407-2.76zM106.957 14.374c.188.094.366.194.53.3.166.106.342.194.531.266.212.07.43.13.654.177.224.047.442.07.655.07.424.024.842.018 1.255-.017.412-.036.819-.053 1.22-.053h5.269c.117 0 .277.012.477.035.2.023.36.047.478.07v.354c-.024.283-.053.702-.089 1.256a419.233 419.233 0 01-.123 1.873c-.048.697-.095 1.42-.142 2.176-.048.754-.094 1.48-.141 2.175-.048.695-.089 1.32-.124 1.874a107.039 107.039 0 01-.088 1.255c-.048.872-.071 1.739-.071 2.6s-.013 1.738-.036 2.634v1.785a174.602 174.602 0 00.035 2.988c.024 1.132.048 2.335.072 3.607.023 1.274.053 2.475.088 3.608.035 1.13.076 2.127.124 2.988.023.43.05.794.079 1.092.015.149.03.28.047.397.016.115.033.214.05.297.26 1.272.56 2.516.902 3.73.171.607.379 1.207.623 1.8.245.592.526 1.177.845 1.754.212.377.44.727.685 1.048.245.321.505.614.782.88.554.53 1.243.924 2.069 1.184a9.317 9.317 0 001.609.407c.53.082 1.09.065 1.68-.053.165-.047.302-.108.41-.181.11-.074.191-.161.244-.26.106-.202.076-.443-.088-.726l-.549-.956-.548-.954a4.131 4.131 0 01-.247-.512c-.071-.178-.142-.36-.212-.549a2.589 2.589 0 01-.106-.442 2.681 2.681 0 00-.107-.442 21.132 21.132 0 01-.76-2.51c-.2-.849-.383-1.698-.548-2.546-.118-.543-.218-1.362-.3-2.458a251.789 251.789 0 01-.248-3.678 136.282 136.282 0 01-.195-4.261 835.683 835.683 0 01-.212-7.957c-.023-1.083-.035-1.91-.035-2.475v-4.95-.796c0-.39.006-.854.018-1.397.011-.542.017-1.114.017-1.715 0-.602.006-1.173.018-1.715.012-.542.018-1.009.018-1.397v-.796c.117-.047.212-.076.283-.088.07-.012.141-.03.212-.053.778-.048 1.55-.1 2.316-.16.766-.058 1.538-.112 2.316-.16a14.73 14.73 0 011.574-.052c.507.012 1.03.006 1.573-.018.26 0 .513-.023.76-.07.248-.047.49-.2.726-.46a.86.86 0 01-.23-.16 1.359 1.359 0 00-.195-.159 32.792 32.792 0 01-.69-.282 3.652 3.652 0 00-.689-.212 19.084 19.084 0 00-3.112-.513 39.57 39.57 0 00-3.147-.124c-.283-.023-.566-.035-.849-.035h-.848V11.05c0-.707.04-1.373.123-1.999.041-.312.072-.634.093-.967.02-.333.03-.676.03-1.03 0-.33-.005-.672-.017-1.025a5.753 5.753 0 01.054-1.027c.07-.423.017-.778-.16-1.06a3.28 3.28 0 00-.69-.778c-.33-.306-.689-.454-1.078-.443-.194.006-.39.026-.588.058a4.967 4.967 0 00-.596.138c-.62.159-.986.517-1.101 1.074a2.24 2.24 0 00-.031.623v.318c-.047.354-.106.707-.177 1.06-.07.355-.13.708-.177 1.062-.118.684-.23 1.314-.336 1.891-.106.579-.218 1.209-.335 1.892l-.142.991-.141.99a.936.936 0 01-.283.053 7.442 7.442 0 01-.283.018 30.995 30.995 0 00-2.97 0c-.99.047-1.993.118-3.006.211-.614.071-1.238.136-1.875.196-.636.058-1.273.123-1.91.194-.542.07-.848.365-.919.884zM134.381 17.167c-.13.07-.247.172-.354.301-.106.13-.194.265-.265.407a.876.876 0 00-.106.389c0 .26.106.424.318.494.071.025.154.042.248.053.094.013.2.03.318.053l.354.072c.094.023.194.041.3.053.106.012.183.053.23.124.071.118.065.218-.017.3a1.513 1.513 0 00-.195.23 10.5 10.5 0 00-.336.354 8.635 8.635 0 01-.336.353.922.922 0 00-.177.248c-.07.118-.076.224-.017.318.058.095.146.13.265.106.188-.046.371-.082.548-.106.177-.023.336-.083.477-.177.26-.165.472-.353.637-.566.165-.212.283-.448.354-.707.07-.259.097-.527.08-.804a2.857 2.857 0 00-.06-.423 3.427 3.427 0 00-.127-.435l-.141-.141a1.438 1.438 0 00-.796-.425 33.325 33.325 0 01-.83-.141.544.544 0 00-.372.07zM149.887 55.466c.26-.06.518-.142.778-.248a8.131 8.131 0 001.648-.924c.487-.357.91-.762 1.269-1.216.719-.907 1.243-1.986 1.574-3.235.33-1.06.548-2.128.654-3.2.106-1.073.135-2.176.088-3.307a14.27 14.27 0 00-1.697-6.048 29.248 29.248 0 00-1.202-2.05 35.989 35.989 0 00-1.344-1.946 86.698 86.698 0 01-1.715-2.563 28.613 28.613 0 01-1.538-2.705 4.515 4.515 0 01-.354-.849 2.576 2.576 0 01-.106-.954 5.055 5.055 0 01.495-1.893c.141-.288.303-.57.486-.844s.386-.54.61-.8c.165-.189.354-.312.566-.371.212-.058.425-.065.636-.018.33.094.672.195 1.026.3s.672.254.955.443c.683.448 1.26.99 1.733 1.627.236.318.45.65.645.998.194.348.368.71.521 1.087.072.19.125.39.16.602.035.212.076.424.123.637.024.33.2.506.53.53.166.047.295.035.39-.036s.177-.164.247-.282a1.01 1.01 0 00.213-.469.824.824 0 000-.24.979.979 0 00-.071-.246c-.118-.26-.224-.507-.318-.743a19.31 19.31 0 00-.319-.742c-.189-.401-.37-.796-.548-1.185a6.28 6.28 0 00-.654-1.114 19.701 19.701 0 00-2.299-2.687 5.841 5.841 0 00-.654-.53 6.824 6.824 0 00-.76-.46 6.743 6.743 0 00-1.715-.62 5.348 5.348 0 00-1.839-.07 4.473 4.473 0 00-1.75.618l-.566.354-.566.353a6.673 6.673 0 00-1.574 1.521 7.39 7.39 0 00-1.025 1.928 7.86 7.86 0 00-.442 2.139 7.33 7.33 0 00.177 2.157c.235.944.56 1.839.972 2.687a31.828 31.828 0 001.361 2.511c.4.684.831 1.344 1.292 1.981.46.637.924 1.285 1.396 1.945.4.59.766 1.197 1.096 1.821.33.625.59 1.29.779 1.998.329 1.131.47 2.251.424 3.36a13.255 13.255 0 01-.177 1.662 14.135 14.135 0 01-.39 1.661c-.058.2-.132.39-.22.567a3.046 3.046 0 01-.31.495c-.236.307-.494.59-.778.848a1.602 1.602 0 01-.707.283c-.33.024-.66.007-.99-.053a2.126 2.126 0 01-.92-.407c-.33-.258-.636-.524-.919-.796a7.086 7.086 0 01-.813-.937 6.772 6.772 0 01-.522-.905 6.306 6.306 0 01-.362-.951 18.133 18.133 0 01-.46-1.998c-.141-.778-.442-1.437-.901-1.98-.23-.271-.474-.54-.73-.805a18.796 18.796 0 00-.809-.787c-.19.543-.389 1.055-.601 1.539-.212.483-.401.984-.566 1.503-.19.613-.313 1.231-.371 1.856s-.006 1.256.159 1.893a11.068 11.068 0 002.015 4.172c.4.471.82.932 1.256 1.378.436.448.913.861 1.432 1.239 1.344.919 2.852 1.45 4.526 1.591.543.047 1.073.058 1.592.035.259-.011.518-.047.778-.105zM164.253 11.015c.165.612.495 1.072.99 1.378.471.284.943.502 1.414.654.472.154.979.172 1.521.053a.524.524 0 01.318-.035c.094.024.2.035.318.035 1.297.048 2.588.083 3.873.106 1.284.025 2.563.06 3.837.107.754.048 1.502.077 2.245.089.743.012 1.503.04 2.281.088 0 .118.006.219.018.3a.503.503 0 01-.018.23 43.847 43.847 0 00-.53 8.062c.07 2.193.153 4.368.247 6.526.094 2.156.2 4.331.318 6.524l.212 4.88.071 1.149c.024.366.036.75.036 1.15a49.176 49.176 0 00.053 3.5c.058 1.156.182 2.322.371 3.5.118.662.253 1.31.407 1.946.153.636.394 1.262.725 1.874.33.637.736 1.179 1.22 1.627.241.224.517.407.826.548.31.141.653.242 1.03.3.424.071.772.036 1.043-.105.27-.142.513-.39.726-.743.082-.13.15-.26.202-.393.053-.133.092-.267.115-.403.048-.27.072-.56.072-.866 0-.212.005-.425.017-.637.012-.212.03-.411.053-.601.023-.542.053-1.066.088-1.574a22.12 22.12 0 00.053-1.538c0-1.273-.017-2.522-.053-3.748a429.052 429.052 0 00-.123-3.714 272.319 272.319 0 00-.195-5.446 742.657 742.657 0 01-.23-5.41 397.3 397.3 0 00-.159-3.766 348.23 348.23 0 01-.159-3.766 248.82 248.82 0 00-.177-4.332 32.376 32.376 0 00-.495-4.26.758.758 0 01-.018-.284c.012-.094.018-.2.018-.318a3.58 3.58 0 01.248-.053c.07-.012.141-.018.212-.018a451.54 451.54 0 013.748-.053c1.226-.012 2.476-.04 3.749-.088a32.84 32.84 0 002.404-.23 144.66 144.66 0 012.44-.3c.542-.071.955-.366 1.238-.885l1.379-2.334c.023-.046.035-.1.035-.159s.012-.147.036-.265c-.236-.023-.395-.089-.478-.195-.082-.106-.218-.182-.406-.23-.684-.235-1.438-.34-2.263-.317-.826.023-1.592.012-2.299-.036-1.91-.118-3.801-.213-5.676-.283s-3.766-.047-5.675.07a18.69 18.69 0 01-1.822.053c-.6-.01-1.208-.005-1.82.018-1.227.049-2.453.095-3.678.142l-3.678.142c-1.226.047-2.446.1-3.66.159-1.214.06-2.422.135-3.624.23a8.537 8.537 0 00-1.203.23 9.67 9.67 0 00-1.202.406c-.165.059-.298.13-.398.212a.62.62 0 00-.204.283c-.07.212-.058.484.036.814zM199.333 34.637a11.725 11.725 0 00-.937 2.316c-.225.79-.43 1.597-.62 2.422a30.795 30.795 0 00-.512 3.377 13.976 13.976 0 00.089 3.377 9.64 9.64 0 00.37 1.768c.178.566.454 1.097.832 1.591.354.496.76.909 1.22 1.239.46.33.996.518 1.609.566 1.32.118 2.57-.13 3.749-.743a7.151 7.151 0 001.98-1.362 21.63 21.63 0 001.627-1.785c.212-.284.424-.572.636-.867.212-.294.412-.607.601-.937.26-.448.483-.902.672-1.361.189-.46.412-.914.672-1.362a766.027 766.027 0 001.68-3.236 30.589 30.589 0 001.467-3.306 3.19 3.19 0 01.372-.725c.153-.224.336-.465.548-.725.047.354.076.684.088.99.012.306.03.613.053.92.118 1.131.242 2.245.371 3.342.13 1.096.254 2.21.372 3.341.07.755.165 1.498.283 2.228.117.731.26 1.463.424 2.192a41.234 41.234 0 00.99 3.502 12.146 12.146 0 00.69 1.653c.27.536.583 1.058.937 1.565a2.521 2.521 0 001.38.884c.258.093.517.129.777.106.26-.071.518-.154.778-.248.212-.093.43-.195.654-.3a2.21 2.21 0 00.62-.442c.117-.118.22-.232.308-.34a2.58 2.58 0 00.221-.315.918.918 0 00.115-.349 1.645 1.645 0 00-.008-.446 32.35 32.35 0 00-.107-.496 219.9 219.9 0 01-.548-1.662 24.198 24.198 0 01-.477-1.662c-.26-.99-.52-1.985-.778-2.987a65.598 65.598 0 01-.707-3.024 87.914 87.914 0 01-.973-5.075 65.632 65.632 0 01-.619-5.145 34.903 34.903 0 01-.106-4.155c.047-1.38.106-2.763.177-4.155.047-.542.089-1.097.124-1.662a6.009 6.009 0 00-.124-1.662c-.047-.4-.218-.819-.513-1.256a1.645 1.645 0 00-.249-.29c-.276-.254-.635-.4-1.077-.435-.33-.046-.607-.018-.83.088a.805.805 0 00-.443.549c-.189.543-.365 1.078-.53 1.609s-.342 1.09-.53 1.68a.317.317 0 00-.142.035.388.388 0 01-.177.035 25.1 25.1 0 00-3.519.813c-1.143.355-2.28.803-3.412 1.345-.566.271-1.111.563-1.636.875-.524.312-1.028.645-1.511.998a28.702 28.702 0 00-2.794 2.335 18.105 18.105 0 00-3.607 4.774zm4.637 7.249c.02-.39.054-.778.102-1.167l.14-1.397c.048-.46.13-.913.249-1.361.117-.52.265-1.031.442-1.539.177-.506.359-1.007.548-1.503.118-.306.253-.606.406-.901.154-.295.301-.595.443-.902a5.97 5.97 0 011.308-1.786c.542-.506 1.12-.995 1.733-1.467a23.676 23.676 0 012.351-1.556 46.5 46.5 0 012.493-1.345 4.312 4.312 0 011.38-.494c.07.307.082.59.035.849-.048.259-.106.518-.177.778a22.948 22.948 0 01-.849 2.44l-.99 2.404c-.26.614-.543 1.226-.848 1.839a18.78 18.78 0 00-.814 1.874 10.329 10.329 0 01-1.114 2.298 29 29 0 00-1.29 2.193c-.213.402-.407.803-.584 1.203s-.371.801-.583 1.202a8.09 8.09 0 01-3.077 3.218c-.07.047-.177.095-.318.141h-.177a1.903 1.903 0 01-.407-.725 6.884 6.884 0 01-.194-.796 14.228 14.228 0 01-.23-2.334c-.006-.389.001-.778.022-1.166zM227.516 44.326c.047 1.367.124 2.735.23 4.102s.3 2.722.584 4.067c.117.543.282 1.05.495 1.52.212.473.482.92.813 1.344a4.308 4.308 0 001.733.142 3.9 3.9 0 00.773-.16c.268-.082.547-.194.836-.336.433-.212.836-.543 1.21-.994.124-.15.245-.314.363-.491.4-.659.784-1.313 1.15-1.962a13.14 13.14 0 00.937-2.07c.047-.164.082-.317.106-.459.023-.14-.048-.27-.212-.39-.33-.257-.65-.27-.955-.034-.236.19-.455.389-.654.6-.201.213-.407.426-.62.638a4.86 4.86 0 00-.247.335c-.07.106-.154.219-.247.337 0-.566.005-1.115.017-1.645s.006-1.067-.017-1.609c0-.566-.013-1.132-.036-1.697a39.683 39.683 0 01-.035-1.663l-.07-2.156a64.305 64.305 0 01-.036-2.158 249.664 249.664 0 01.07-6.082l.142-3.235a74.12 74.12 0 00.07-3.236c.048-1.627.072-3.248.072-4.862 0-1.615-.012-3.236-.036-4.864a150.36 150.36 0 00-.141-6.577 29.698 29.698 0 00-.336-3.447 10.894 10.894 0 00-1.079-3.271 3.496 3.496 0 00-.955-1.132c-.377-.283-.837-.412-1.379-.39-.212 0-.406.036-.583.107a.932.932 0 00-.442.39 5.951 5.951 0 00-.672 1.342 7.33 7.33 0 00-.318.964 7.033 7.033 0 00-.177.982c-.071.66-.118 1.332-.142 2.015a450.9 450.9 0 01-.159 4.173 156.306 156.306 0 00-.124 4.138 132.488 132.488 0 00-.053 4.862 227.21 227.21 0 01-.017 4.863l-.071 5.25a381.769 381.769 0 00-.035 5.217c0 1.272.029 2.528.088 3.765.058 1.239.111 2.493.16 3.767zM261.04 37.96c1.532.92 3.053 1.84 4.562 2.76 1.508.919 3.029 1.826 4.562 2.722.565.33 1.137.642 1.715.937.577.295 1.15.607 1.715.937.447.118.836.13 1.167.035.141-.035.274-.098.398-.19.123-.09.238-.21.344-.357.212-.295.271-.784.177-1.468a4.38 4.38 0 00-.477-.902 3.817 3.817 0 00-.654-.725c-.26-.236-.525-.47-.796-.707a6.672 6.672 0 00-.867-.637 813.4 813.4 0 01-2.227-1.467c-.731-.483-1.474-.96-2.228-1.432l-3.059-2.016c-1.002-.66-2.033-1.32-3.094-1.98a169.334 169.334 0 00-3.519-2.193c-1.166-.707-2.351-1.425-3.554-2.157a2.475 2.475 0 01-.186-.16 9.925 9.925 0 01-.274-.264c.377-.118.725-.224 1.044-.319.318-.094.63-.2.937-.318 1.273-.47 2.552-.949 3.837-1.432 1.284-.483 2.563-.972 3.836-1.468a35.156 35.156 0 001.61-.601c.53-.212 1.054-.447 1.573-.707.4-.213.76-.465 1.079-.76.159-.147.299-.317.42-.508.12-.192.222-.406.305-.642-.495-.565-1.109-.743-1.84-.53-1.084.33-2.162.654-3.235.973a458.56 458.56 0 00-3.236.972c-1.485.425-2.947.855-4.385 1.291s-2.9.854-4.385 1.255c-.471.141-.949.247-1.432.319-.483.07-.996.164-1.538.282a6.263 6.263 0 01-.106-.601l-.07-.566c-.26-1.768-.52-3.524-.779-5.269-.26-1.744-.53-3.5-.813-5.27a83.72 83.72 0 00-.637-3.553 26.955 26.955 0 00-.954-3.483 24.333 24.333 0 00-.884-2.21 6.04 6.04 0 00-1.415-1.927 3.836 3.836 0 00-1.123-.708c-.203-.082-.415-.147-.634-.194s-.447-.077-.683-.089c-.601 0-1.017.232-1.247.697a1.968 1.968 0 00-.168.541c-.14.896-.2 1.78-.176 2.652.023.873.082 1.757.176 2.652.118 1.132.248 2.24.39 3.325.141 1.084.282 2.18.424 3.289.188 1.603.383 3.2.583 4.791.2 1.592.407 3.189.619 4.791.26 2.147.542 4.257.85 6.33.258 1.77.523 3.543.795 5.323.27 1.78.536 3.565.795 5.357.189 1.18.354 2.347.495 3.501.142 1.155.306 2.334.495 3.536.142.99.336 1.951.584 2.882.247.932.63 1.821 1.149 2.67.07.118.136.224.195.319a.91.91 0 00.23.247 6.592 6.592 0 002.263-.035c.612-.118 1.202-.39 1.768-.814.566-.424.978-1.12 1.237-2.086a45.934 45.934 0 01-.07-2.564c0-.86-.06-1.715-.177-2.564a556.078 556.078 0 00-.884-6.471 894.503 894.503 0 00-.955-6.507l-.212-1.485a42.505 42.505 0 00-.248-1.52c.307-.047.56-.018.76.088.2.105.395.218.584.336a853.758 853.758 0 014.774 3.04c1.58 1.015 3.17 2.017 4.774 3.007z"/><path class="st3" d="M75.344 66.81v8.056H68.39V66.81h-3.007v19.735h3.007V77.39h6.954v9.156h3.007V66.81h-3.007zM92.125 76.29c-.143-.359-.43-.721-.86-1.088-.429-.367-.957-.676-1.583-.926a5.152 5.152 0 00-.974-.283 5.66 5.66 0 00-1.04-.093 7.74 7.74 0 00-.896.05c-.866.1-1.641.353-2.326.755a5.435 5.435 0 00-2.108 2.256c-.492.966-.738 2.094-.738 3.382 0 .327.017.643.053.95.07.611.211 1.182.423 1.71.105.265.229.52.37.764a6.017 6.017 0 001.585 1.818 6.165 6.165 0 003.744 1.23c.502 0 .978-.062 1.43-.185.452-.123.88-.308 1.282-.554.202-.123.387-.25.557-.383.34-.265.618-.55.832-.853.108-.152.2-.308.276-.47l.053 2.176h2.74V74.222h-2.766l-.054 2.068zm-.242 4.268c0 .573-.087 1.091-.262 1.554a3.477 3.477 0 01-.785 1.225c-.698.708-1.557 1.06-2.577 1.06-.582 0-1.096-.092-1.54-.278a2.93 2.93 0 01-1.132-.835 3.652 3.652 0 01-.405-.6c-.348-.643-.521-1.414-.521-2.314 0-1.18.313-2.143.94-2.887.626-.742 1.512-1.113 2.658-1.113.165 0 .327.01.486.032.476.063.923.223 1.34.477.277.17.525.375.745.612s.41.508.57.812c.242.457.393.959.453 1.505.02.183.03.37.03.562v.188zM111.336 83.726a6.722 6.722 0 00.743-2.471c.033-.303.05-.616.05-.938 0-2.076-.538-3.665-1.612-4.766-.805-.825-1.797-1.342-2.975-1.548a7.173 7.173 0 00-1.24-.103c-1.047 0-1.956.217-2.725.65-.77.435-1.401 1.086-1.893 1.954v-2.282H98.89V93.07h2.82l-.027-8.377a4.2 4.2 0 00.768.902c.298.262.637.485 1.017.668.761.367 1.66.55 2.699.55.277 0 .548-.016.813-.05a5.68 5.68 0 002.207-.755c.904-.537 1.62-1.298 2.148-2.283zm-5.84.645a3.492 3.492 0 01-1.825-.497 3.629 3.629 0 01-1.33-1.396c-.331-.599-.496-1.284-.496-2.053v-.19c0-.768.165-1.444.496-2.026a3.463 3.463 0 011.343-1.342 3.68 3.68 0 011.812-.47c.591 0 1.111.09 1.561.272.45.18.83.452 1.138.814.618.726.926 1.697.926 2.914 0 .291-.02.569-.059.833-.117.794-.41 1.47-.88 2.027-.314.372-.695.65-1.142.835-.448.186-.962.279-1.544.279zM128.507 80.317c0-2.076-.537-3.665-1.611-4.766-.806-.825-1.798-1.342-2.976-1.548a7.174 7.174 0 00-1.24-.103c-.523 0-1.012.054-1.466.162a4.832 4.832 0 00-1.259.489c-.77.434-1.4 1.085-1.893 1.953v-2.282h-2.792V93.07h2.819l-.027-8.377a4.239 4.239 0 001.785 1.57c.761.367 1.66.55 2.699.55.277 0 .548-.016.813-.05a5.68 5.68 0 003.422-1.728c.18-.19.347-.395.502-.613.156-.218.3-.45.432-.697.527-.983.792-2.12.792-3.409zm-6.632 4.054a3.492 3.492 0 01-1.826-.497 3.629 3.629 0 01-1.33-1.396 3.764 3.764 0 01-.217-.465 4.368 4.368 0 01-.279-1.589v-.188c0-.577.093-1.102.28-1.573.061-.157.134-.309.217-.454a3.463 3.463 0 011.342-1.343 3.682 3.682 0 011.813-.469c.59 0 1.11.09 1.56.272.45.18.83.452 1.138.814.155.182.29.379.406.59.347.637.52 1.411.52 2.324 0 .582-.078 1.111-.235 1.588a3.907 3.907 0 01-.293.675 3.718 3.718 0 01-.411.597c-.627.743-1.522 1.114-2.685 1.114zM143.059 74.222h-3.168l-2.766 7.84-.59 1.906-.592-1.906-2.631-7.84h-3.275l5.101 12.7-2.658 6.39h3.007zM161.639 74.866h-6.954V66.81h-3.008v19.735h3.008V77.39h6.954v9.156h3.007V66.81h-3.007zM179.058 75.772a6.056 6.056 0 00-2.877-1.658c-.566-.143-1.171-.214-1.816-.214s-1.25.071-1.819.214a6.128 6.128 0 00-2.896 1.658c-.378.39-.699.83-.963 1.322-.528.985-.792 2.068-.792 3.25 0 1.199.268 2.291.806 3.275.402.739.93 1.362 1.585 1.868a6.31 6.31 0 003.153 1.274c.3.036.609.054.926.054.318 0 .627-.018.926-.054a6.228 6.228 0 002.444-.806 5.985 5.985 0 002.27-2.336c.536-.984.805-2.076.805-3.276 0-1.18-.265-2.264-.793-3.249a5.924 5.924 0 00-.96-1.322zm-4.612 8.68c-.26 0-.507-.024-.743-.073a3.133 3.133 0 01-.673-.219 3.275 3.275 0 01-1.135-.876c-.662-.778-.993-1.741-.993-2.887 0-.59.077-1.132.232-1.624.154-.493.386-.936.695-1.33.617-.787 1.436-1.18 2.456-1.18 1.056 0 1.907.398 2.55 1.195.162.199.303.41.424.631.362.666.544 1.436.544 2.308 0 1.164-.3 2.13-.9 2.9-.15.193-.314.361-.49.505s-.37.265-.574.361c-.41.193-.874.289-1.393.289zM184.14 86.546h2.872V66.81h-2.873zM194.315 86.546V74.222h-3.007v12.324h3.007zM191.142 71.05c.07.105.152.205.247.3.375.374.84.563 1.396.563.554 0 1.015-.189 1.382-.564.092-.094.172-.194.241-.299a1.96 1.96 0 00.31-1.098c0-.25-.047-.483-.141-.697s-.235-.412-.423-.59a1.855 1.855 0 00-.982-.503 2.19 2.19 0 00-.387-.035c-.555 0-1.02.178-1.396.537a1.715 1.715 0 00-.564 1.288c0 .278.047.533.14.766.047.116.106.227.177.332zM210.989 86.546V66.81h-2.846v7.598l.133 2.095a3.351 3.351 0 00-.664-.997 4.977 4.977 0 00-1.08-.842 5.378 5.378 0 00-2.085-.718 5.978 5.978 0 00-.761-.047c-1.862 0-3.34.586-4.43 1.759-1.093 1.172-1.639 2.734-1.639 4.684 0 .327.018.643.053.95.07.611.212 1.182.423 1.71.106.265.23.52.37.764.141.244.294.474.458.69a5.806 5.806 0 001.798 1.565c.235.132.475.248.72.347a6.228 6.228 0 002.354.446c.501 0 .978-.062 1.43-.185.452-.123.879-.308 1.282-.554.805-.492 1.36-1.06 1.664-1.705l.054 2.175h2.766zm-3.088-6.014c0 1.145-.35 2.071-1.047 2.778-.699.708-1.557 1.06-2.578 1.06-.29 0-.565-.023-.821-.069-.77-.139-1.387-.487-1.85-1.044-.618-.743-.927-1.714-.927-2.914 0-1.18.313-2.143.94-2.885.626-.744 1.513-1.115 2.658-1.115.662 0 1.27.17 1.826.51.555.34.994.815 1.316 1.423.322.609.483 1.298.483 2.067v.189zM227.448 86.546V74.222h-2.766l-.054 2.068c-.143-.359-.43-.721-.86-1.088-.429-.367-.957-.676-1.583-.926a5.362 5.362 0 00-2.014-.376 7.74 7.74 0 00-.896.05c-.866.1-1.641.353-2.326.755a5.392 5.392 0 00-2.107 2.256c-.493.966-.739 2.094-.739 3.382 0 .327.018.643.053.95.07.611.211 1.182.423 1.71a6.214 6.214 0 001.357 2.059 5.747 5.747 0 001.268.96 6.202 6.202 0 001.474.595 6.386 6.386 0 002.334.152 4.934 4.934 0 001.978-.692 5.204 5.204 0 001.02-.796c.278-.284.493-.588.645-.91l.054 2.175h2.739zm-3.062-5.988c0 .573-.087 1.091-.261 1.554a3.48 3.48 0 01-.786 1.225c-.698.708-1.557 1.06-2.577 1.06-.582 0-1.096-.092-1.54-.278a2.905 2.905 0 01-1.132-.835c-.617-.743-.926-1.714-.926-2.914 0-.885.176-1.648.528-2.288.118-.213.255-.413.411-.599.47-.556 1.086-.904 1.848-1.043.254-.047.524-.07.81-.07a3.436 3.436 0 011.826.51c.555.34.994.815 1.316 1.423.161.305.282.63.363.974.08.344.12.709.12 1.093v.188zM235.234 93.313l7.572-19.091h-3.168l-2.766 7.84-.59 1.906-.592-1.906-2.631-7.84h-3.275l5.101 12.7-2.658 6.39zM252.982 80.907a5.155 5.155 0 00-1.054-.812 9.953 9.953 0 00-1.497-.718c-.483-.178-.761-.277-.833-.295-.77-.269-1.324-.514-1.664-.738-.34-.225-.51-.551-.51-.98 0-.77.635-1.156 1.906-1.156.626 0 1.195.086 1.705.256.255.085.475.178.661.279s.337.209.454.325l1.047-2.31a3.469 3.469 0 00-.689-.342 7.034 7.034 0 00-.936-.275 9.57 9.57 0 00-2.161-.241c-.372 0-.725.02-1.059.06-.334.039-.649.099-.945.178a4.754 4.754 0 00-1.554.715 3.416 3.416 0 00-.582.523c-.498.569-.747 1.276-.747 2.122 0 .246.02.48.059.702.117.666.41 1.224.88 1.674.627.6 1.478 1.114 2.551 1.544l1.02.375c.734.269 1.245.501 1.531.698.286.197.43.475.43.833 0 .1-.011.195-.033.283-.15.617-.829.925-2.035.925-.689 0-1.34-.094-1.953-.282a6.127 6.127 0 01-1.725-.846l-.967 2.283c.098.076.213.15.345.22.131.072.28.14.444.206a8.74 8.74 0 001.185.366c.46.112.914.196 1.36.252.444.056.882.084 1.311.084.354 0 .692-.02 1.014-.059.969-.118 1.799-.412 2.49-.881.922-.627 1.383-1.548 1.383-2.766 0-.895-.278-1.629-.832-2.202z"/><path class="st1" d="M32.603 22.895C20.786 24.685 16.14 34.516 16.14 34.516s4.941-9.647 16.462-11.621zM7.95 60.953c.164-2.867.897-5.58 2.09-8.029a230.389 230.389 0 00-6.77 5.116c1.578.941 3.14 1.912 4.68 2.913zM50.594 51.133c.057-.184.134-.372.173-.56.05-.25.074-.263-.174-.33-.365-.099-.734-.18-1.1-.28a34.744 34.744 0 01-4.354-1.503 21.101 21.101 0 013.974 7.033 90.743 90.743 0 001.481-4.36z"/><path class="st1" d="M51.932 48.462c-.52-.306-1.099-.425-1.563-.521-.158-.033-.312-.064-.456-.103-.649-.18-1.3-.382-1.938-.601a33.098 33.098 0 01-3.735-1.553 23.406 23.406 0 00-.342-.31 2.712 2.712 0 00-.242-1.825l-1.3-2.49a2.662 2.662 0 00-.419-.59 14.201 14.201 0 00.844-9.567l1.084-1.393a1.278 1.278 0 00-1.228-2.076l-1.169.204a14.2 14.2 0 00-5.86-5.71 1.26 1.26 0 00-.024-.034c-.147-.21-3.727-5.114-13.283-5.114-.115 0-.23 0-.348.002-.358.005-.708.03-1.048.078a3.398 3.398 0 00-3.05-1.906 3.397 3.397 0 00-3.393 3.393c0 .992.427 1.9 1.127 2.526-2.353 4.887-.954 12.624-.727 13.776a14.194 14.194 0 001.306 5.815 2.667 2.667 0 00-.615.867l-1.136 2.567c-.208.472-.275.981-.205 1.473a22.445 22.445 0 00-4.136 4.863 238.426 238.426 0 00-8.684 6.538c-.42.332-.65.858-.613 1.406a1.77 1.77 0 00.845 1.392c1.684.994 3.368 2.035 5.015 3.102.266 12.133 10.22 21.921 22.415 21.921 12.363 0 22.421-10.058 22.421-22.42 0-1.76-.204-3.508-.607-5.205a91.42 91.42 0 001.898-5.545c.159-.518.642-2.095-.834-2.96zm-2.402 8.424c.434 1.69.666 3.46.666 5.285a21.075 21.075 0 01-6.927 15.65 21.235 21.235 0 01-3.252 2.431 21.006 21.006 0 01-7.743 2.817 21.305 21.305 0 01-4.307.216C17.157 82.737 8.489 74.07 7.94 63.26c-.019-.36-.028-.723-.028-1.088 0-.065.005-.13.005-.195a143.997 143.997 0 00-5.644-3.51.427.427 0 01-.139-.137.503.503 0 01-.08-.29.348.348 0 01.13-.264 236.138 236.138 0 018.843-6.65 21.175 21.175 0 014.678-5.345 1.42 1.42 0 01-.118-1.365l1.135-2.567a1.406 1.406 0 011.176-.83 12.864 12.864 0 01-1.757-6.5c0-.002-.238-1.134-.42-2.804a36.501 36.501 0 01-.184-2.555 30.424 30.424 0 01-.009-1.714c.036-1.361.181-2.766.511-4.06.283-1.11.702-2.138 1.304-2.99a2.113 2.113 0 112.625-2.049l-.002.044c.148-.05.3-.096.457-.136a6.3 6.3 0 011-.167c.177-.015.358-.024.545-.027 9.257-.114 12.44 4.7 12.44 4.7l-.036-.003c.299.135.595.275.881.432a12.964 12.964 0 015.505 5.87l2.123-.37-1.51 1.941a12.87 12.87 0 01.596 3.886 12.861 12.861 0 01-1.708 6.415c.4.084.759.332.961.72l1.3 2.49a1.422 1.422 0 01-.183 1.587c.402.326.792.667 1.17 1.021.328.162.659.32.992.472a33.585 33.585 0 005.072 1.85c.272.075.577.127.876.195.299.07.59.155.837.3.444.26.462.653.372 1.066a3.59 3.59 0 01-.053.207 91 91 0 01-.7 2.205 90.399 90.399 0 01-1.374 3.842z"/><path class="st1" d="M29.054 85.367c-12.374 0-22.685-9.95-23.177-22.266a141.978 141.978 0 00-4.647-2.865A2.552 2.552 0 01.006 58.23a2.417 2.417 0 01.906-2.066 238.882 238.882 0 018.59-6.471 23.232 23.232 0 013.908-4.644c-.008-.502.093-1 .299-1.465l1.135-2.566c.11-.25.25-.484.413-.699a15.096 15.096 0 01-1.169-5.591c-.31-1.6-1.511-8.727.579-13.694a4.175 4.175 0 01-.98-2.686c0-2.3 1.87-4.17 4.168-4.17 1.393 0 2.7.714 3.468 1.857.204-.016.411-.025.62-.028l.358-.002c9.237 0 13.182 4.499 13.825 5.32a14.921 14.921 0 015.742 5.456l.635-.111c.071-.015.163-.026.257-.032l.122-.003a2.09 2.09 0 011.738.963l.107-.018-.067.085c.178.302.278.653.278 1.024 0 .48-.17.95-.478 1.318l-.835 1.074c.264 1.123.397 2.278.397 3.436 0 1.993-.409 4.001-1.186 5.839.075.11.144.226.207.345l1.3 2.49c.299.574.43 1.222.381 1.867 1.17.563 2.348 1.05 3.503 1.447.624.215 1.26.411 1.893.586.117.033.242.059.368.084.53.11 1.205.25 1.835.619.916.536 1.864 1.64 1.184 3.857a91.123 91.123 0 01-1.831 5.371c.381 1.681.574 3.413.574 5.15 0 12.791-10.405 23.196-23.196 23.196zM3.09 58.05a145.241 145.241 0 015.253 3.279l.352.231-.005.539A20.29 20.29 0 0028.006 82.51c1.372.067 2.787 0 4.151-.208a20.154 20.154 0 008.284-3.243 20.634 20.634 0 003.014-2.487 20.236 20.236 0 005.966-14.401c0-1.726-.216-3.44-.642-5.094l-.062-.239.089-.23a89.659 89.659 0 001.996-5.79l.056-.19c.015-.052.03-.106.04-.16.038-.17.025-.225.024-.228a2.666 2.666 0 00-.648-.22l-.326-.07a8.8 8.8 0 01-.582-.133c-.687-.19-1.38-.405-2.058-.637a34.616 34.616 0 01-3.13-1.255c-.34-.155-.679-.316-1.015-.482l-.185-.129a20.794 20.794 0 00-1.128-.984l-.625-.506.528-.606a.596.596 0 00.099-.156.644.644 0 00-.018-.563l-1.3-2.49a.625.625 0 00-.434-.32l-1.042-.22.53-.924a12.078 12.078 0 001.605-6.03 12.167 12.167 0 00-.56-3.652l-.123-.388.527-.678-.73.128-.25-.538a12.253 12.253 0 00-5.175-5.52c-.27-.147-.548-.278-.827-.405l-4.893-2.207 3.072.423c-1.678-1.284-4.861-2.925-10.255-2.844-.168.003-.33.01-.489.024a5.492 5.492 0 00-1.268.263l-1.03.36.004-1.174a1.317 1.317 0 00-.23-.71 1.336 1.336 0 00-.361-.362c-.59-.398-1.46-.23-1.86.362a1.335 1.335 0 00.787 2.045l1.1.275-.655.925c-.507.717-.906 1.637-1.186 2.734-.285 1.116-.448 2.425-.487 3.888a26.405 26.405 0 00.009 1.667c.012.362.03.715.053 1.056l.037.503c.028.328.058.643.09.94.175 1.606.404 2.716.407 2.726l.016.16a12.079 12.079 0 001.651 6.11l.62 1.061-1.224.102a.635.635 0 00-.53.371l-1.137 2.568a.647.647 0 00.055.622l.39.585-.545.445a20.491 20.491 0 00-4.507 5.15l-.082.133-.128.092a235.639 235.639 0 00-8.39 6.293z"/><path d="M19.967 18.39l.002-.044a2.104 2.104 0 00-.932-1.753 2.112 2.112 0 10-1.693 3.802c.644-.91 1.5-1.617 2.623-2.005z" fill="#fbffcc"/><path class="st5" d="M51.604 50.84c.02-.07.038-.14.053-.208.09-.413.072-.806-.372-1.067-.246-.144-.538-.23-.837-.298-.299-.07-.604-.12-.876-.196a33.585 33.585 0 01-5.072-1.85c-.333-.152-.664-.31-.993-.472.576.54 1.12 1.11 1.632 1.71.67.282 1.347.545 2.033.785.765.266 1.54.506 2.322.72.365.098.734.18 1.1.279.247.067.223.08.173.33-.039.188-.116.376-.173.56a90.736 90.736 0 01-1.481 4.36c.152.458.295.921.417 1.393a90.403 90.403 0 002.013-5.839c.02-.069.042-.138.061-.208z"/><path class="st6" d="M45.14 48.46a21.256 21.256 0 00-2.802-2.732 1.375 1.375 0 01-.473.354c-.522.236-1.054.456-1.593.66l2.534 14.63L36.33 63.2l-1.692-14.941c-1.804.305-3.653.46-5.52.46-4.281 0-8.65-.802-12.756-2.41a1.398 1.398 0 01-.656-.53 21.267 21.267 0 00-4.678 5.346 232.57 232.57 0 012.63-1.86c.467-.324.907.44.445.761-1.366.95-2.718 1.92-4.063 2.898a21.019 21.019 0 00-2.09 8.029c1.801 1.17 3.575 2.38 5.321 3.629a5.056 5.056 0 011.281-2.056.449.449 0 01.623 0c.174.16.166.462 0 .623a4.73 4.73 0 00-.387.423l-.022.028a17.048 17.048 0 01-.077.105 4.592 4.592 0 00-.402.687c-.021.044-.04.089-.06.133-.012.029-.024.056-.034.085-.02.049-.034.099-.051.148a3.952 3.952 0 012.037-.209c.243.038.355.331.307.542-.057.25-.315.343-.542.308l-.024-.004-.054-.006a3.227 3.227 0 00-.71.005l-.007.001a3.753 3.753 0 00-.207.038c-.187.04-.369.098-.547.167l-.005.002a3.71 3.71 0 00-.071.032l-.046.023c.359.493.642 1.038.826 1.622.075.235-.087.47-.307.542-.232.075-.473-.088-.542-.308a5.296 5.296 0 00-.127-.358l-.017-.044-.012-.027a5.098 5.098 0 00-.553-.956l-.041-.055-.001-.002-.004-.005a5.532 5.532 0 00-.392-.438.423.423 0 01-.098-.16 143.93 143.93 0 00-5.087-3.492c0 .066-.005.13-.005.195 0 .365.01.728.028 1.088.548 10.81 9.215 19.478 20.026 20.026a21.495 21.495 0 004.307-.216 21.006 21.006 0 008.6-3.367 21.233 21.233 0 003.13-2.581 21.075 21.075 0 006.192-14.95 21.18 21.18 0 00-.666-5.285 20.937 20.937 0 00-.417-1.393 21.102 21.102 0 00-3.974-7.033zM29.415 64.248a1.276 1.276 0 110-2.553 1.276 1.276 0 010 2.553zm0-6.705a1.276 1.276 0 110-2.552 1.276 1.276 0 010 2.552z"/><path d="M36.33 63.2l6.476-1.828-2.534-14.63c-1.8.683-3.69 1.188-5.634 1.517L36.33 63.2z" fill="#3b7233"/><path class="st6" d="M39.374 41.021c.29-.128.598-.15.886-.09a12.862 12.862 0 001.708-6.415 12.976 12.976 0 00-.596-3.886l-2.521 3.241c-.903 1.162-2.627 1.387-3.72.403a2.928 2.928 0 01-.181-.178c-1.387-1.485-.494-3.933 1.507-4.283l4.302-.753a12.964 12.964 0 00-5.505-5.871 12.883 12.883 0 00-.88-.432 3.598 3.598 0 00-.624-.008c-.39.04-.772.089-1.147.146-11.52 1.974-16.462 11.621-16.462 11.621a12.864 12.864 0 001.758 6.501c.208-.017.423.006.631.086 6.928 2.687 14.687 2.655 20.844-.082zm-1.101-13.875a1.276 1.276 0 11-2.552 0 1.276 1.276 0 012.552 0zm-9.542 1.847a1.276 1.276 0 110 2.552 1.276 1.276 0 010-2.552zm-4.275 7.899a4.954 4.954 0 011.29-1.727.737.737 0 01.467-.193.665.665 0 01.467.193.672.672 0 01.193.467c0 .157-.07.362-.193.468-.06.05-.114.108-.171.162a.812.812 0 01.045.1c-.02-.044-.016-.042.01.002l.043.048c.034.033.07.063.106.093-.04-.033-.027-.026.036.022.183.118.363.24.552.35.33.19.687.367 1.02.496a7.892 7.892 0 002.371.524c.358.021.66.285.66.66 0 .343-.303.682-.66.661a9.07 9.07 0 01-2.949-.662 9.118 9.118 0 01-1.388-.708 3.843 3.843 0 01-.653-.492c-.035.068-.074.133-.105.203-.069.153-.242.254-.395.303a.667.667 0 01-.51-.066.674.674 0 01-.303-.395c-.05-.184-.008-.342.067-.51z"/><path class="st3" d="M34.95 34.096c.059.063.12.122.18.178 1.094.984 2.818.759 3.721-.403l2.52-3.24 1.511-1.943-2.123.372-4.302.753c-2.001.35-2.894 2.798-1.507 4.283z"/><path class="st5" d="M28.73 31.545a1.276 1.276 0 100-2.552 1.276 1.276 0 000 2.552zM29.416 54.991a1.276 1.276 0 100 2.552 1.276 1.276 0 000-2.552zM29.416 61.695a1.276 1.276 0 100 2.553 1.276 1.276 0 000-2.553zM36.997 25.87a1.276 1.276 0 100 2.552 1.276 1.276 0 000-2.553zM24.693 37.796a.667.667 0 00.509.066c.153-.05.326-.15.395-.303.03-.07.07-.135.105-.203.189.186.414.34.653.492.44.279.906.508 1.388.708.939.389 1.935.603 2.949.662.357.021.66-.318.66-.66 0-.376-.302-.64-.66-.661a7.891 7.891 0 01-2.37-.524 7.467 7.467 0 01-1.02-.497c-.19-.11-.37-.23-.553-.35-.063-.047-.075-.054-.036-.021a1.549 1.549 0 01-.106-.093.653.653 0 00-.044-.047c-.025-.044-.029-.047-.009-.003a.812.812 0 00-.045-.1c.057-.054.111-.111.171-.162.123-.106.193-.311.193-.468a.672.672 0 00-.193-.467.665.665 0 00-.467-.193.737.737 0 00-.467.193 4.954 4.954 0 00-1.29 1.727c-.075.167-.118.325-.067.509.042.153.16.32.304.395z"/><path class="st2" d="M16.362 46.309a35.13 35.13 0 0012.756 2.41c1.867 0 3.716-.155 5.52-.46a29.979 29.979 0 005.634-1.517c.539-.204 1.07-.424 1.593-.66a1.375 1.375 0 00.696-.706 1.422 1.422 0 00-.04-1.235l-1.3-2.49a1.398 1.398 0 00-.96-.72 1.44 1.44 0 00-.887.09c-6.158 2.737-13.916 2.77-20.844.082a1.409 1.409 0 00-.631-.086c-.5.042-.96.343-1.176.83l-1.136 2.568a1.42 1.42 0 00.775 1.894z"/><path class="st5" d="M13.005 65.468c.02.058.051.113.098.16.139.139.268.285.392.438l.004.005v.002l.042.055a4.852 4.852 0 01.25.374 5.097 5.097 0 01.303.582l.012.028.017.043a4.798 4.798 0 01.127.358c.07.22.31.383.542.308.22-.071.381-.307.307-.542a5.633 5.633 0 00-.826-1.622l.046-.023.071-.032.005-.002a3.626 3.626 0 01.754-.205h.007a3.33 3.33 0 01.71-.005c.018 0 .036.003.054.005l.024.004c.227.035.485-.058.542-.308.048-.21-.064-.504-.307-.542a3.952 3.952 0 00-2.038.21l.051-.15.034-.084.06-.133a4.598 4.598 0 01.48-.792l.022-.028a4.546 4.546 0 01.387-.423c.166-.16.174-.464 0-.623a.449.449 0 00-.623 0 5.056 5.056 0 00-1.28 2.056A143.927 143.927 0 003.268 58.04a230.402 230.402 0 016.77-5.116 234.07 234.07 0 014.063-2.898c.463-.321.023-1.085-.444-.76a232.57 232.57 0 00-2.63 1.86 236.124 236.124 0 00-8.843 6.65.348.348 0 00-.13.263c-.005.1.025.205.08.29a.427.427 0 00.14.138 143.966 143.966 0 015.643 3.51 143.871 143.871 0 015.087 3.491z"/><g><path class="st2" d="M32.603 22.895c.375-.057.757-.106 1.147-.146.109-.011.438-.018.623.008l.036.004s-3.183-4.815-12.44-4.7a7.32 7.32 0 00-.545.026 6.3 6.3 0 00-1 .167 5.66 5.66 0 00-.457.136c-1.123.388-1.979 1.094-2.623 2.005-.602.852-1.021 1.88-1.304 2.99-.33 1.294-.475 2.699-.51 4.06a27.593 27.593 0 00.008 1.714 33 33 0 00.093 1.594c.027.336.059.658.092.961.18 1.67.418 2.802.418 2.802s4.645-9.83 16.462-11.621z"/></g><circle class="st1" cx="270.667" cy="69.237" r="5.045"/><circle transform="rotate(-5.315 82.228 5.145)" class="st1" cx="82.228" cy="5.143" r="4.39"/><circle transform="rotate(-29.286 53.495 87.43)" class="st1" cx="53.495" cy="87.431" r="4.847"/></svg>