<svg version="1.1" id="Layer_1" xmlns="http://www.w3.org/2000/svg" x="0" y="0" viewBox="0 0 264.5 86.889" xml:space="preserve"><style>.st0{fill:#f93e3e}.st1{fill:#60af54}.st2{fill:#364477}.st4{fill:#fff}.st5{fill:#ff5050}</style><path class="st0" d="M15.902 65.653l-4.948-12.109-1.61 11.686a1.568 1.568 0 01-1.58 1.368c-.895 0-1.644-.7-1.644-1.629 0-.064 0-.146.016-.211L8.562 47.31c.048-.358.211-.683.456-.912a1.629 1.629 0 012.701.44l5.713 13.964 5.68-13.964a1.62 1.62 0 012.083-.862l.18.097c.471.212.83.667.895 1.237l2.261 17.496c.017.065.017.13.017.211 0 .912-.749 1.596-1.643 1.596-.799 0-1.499-.57-1.596-1.4l-1.497-11.588-4.916 12.027c-.276.635-.878.977-1.562.977-.602 0-1.155-.342-1.432-.977zM29.535 59.062c0-4.297 3.515-7.764 7.795-7.764 4.248 0 7.748 3.434 7.796 7.682 0 .911-.667 1.546-1.595 1.546h-10.4A4.355 4.355 0 0037.33 63.7c1.384 0 2.295-.456 2.93-1.156.716-.797 1.806-.471 2.392.375.44.635.375 1.53-.341 2.132-1.042.879-2.523 1.758-4.981 1.758-4.28 0-7.795-3.45-7.795-7.747zm12.255-1.237c-.456-1.986-2.23-3.434-4.411-3.434a4.42 4.42 0 00-4.346 3.434h8.757zM47.465 65.018V52.91c0-.894.733-1.627 1.644-1.627s1.595.733 1.595 1.627v.033a7.994 7.994 0 014.85-1.644h.066c1.057 0 1.675.684 1.675 1.611 0 .929-.748 1.612-1.675 1.612h-.066c-2.653 0-4.85 2.197-4.85 4.915v5.582c0 .896-.716 1.612-1.611 1.612-.879 0-1.628-.716-1.628-1.612zM59.278 65.018V52.91c0-.894.733-1.627 1.645-1.627s1.594.733 1.594 1.627v.033a7.994 7.994 0 014.85-1.644h.066c1.057 0 1.676.684 1.676 1.611 0 .929-.749 1.612-1.676 1.612h-.066c-2.652 0-4.85 2.197-4.85 4.915v5.582c0 .896-.716 1.612-1.611 1.612-.879 0-1.628-.716-1.628-1.612zM72.767 70.894c0-.26.05-.537.18-.814l2.213-4.98-5.208-11.507a1.718 1.718 0 01-.146-.684c0-.878.732-1.627 1.61-1.627.619 0 1.205.374 1.481.993l3.972 9 4.036-9a1.647 1.647 0 011.481-.977c.879 0 1.628.749 1.628 1.628 0 .228-.05.455-.147.683l-8.105 17.773c-.293.618-.879.977-1.497.977-.83 0-1.498-.602-1.498-1.465z"/><path class="st1" d="M92.39 56.263c0-5.567 4.426-10.612 10.562-10.612a10.55 10.55 0 017.503 3.14c.325.31.472.717.472 1.124 0 .911-.733 1.595-1.627 1.595a1.6 1.6 0 01-1.124-.44c-1.464-1.465-3.32-2.148-5.24-2.148a7.293 7.293 0 00-7.291 7.308c0 3.939 3.092 7.324 7.242 7.356 1.937 0 3.727-.634 5.257-2.132a1.64 1.64 0 011.139-.44c.895 0 1.611.652 1.611 1.563 0 .423-.162.83-.455 1.14a10.615 10.615 0 01-7.552 3.108c-5.778 0-10.497-4.736-10.497-10.563zM123.778 65.067v-6.184c0-2.62-1.302-4.362-3.482-4.362-2.132 0-3.711 1.725-3.792 4.036v6.461c0 .896-.716 1.612-1.612 1.612a1.608 1.608 0 01-1.627-1.612V47.441c0-.912.748-1.644 1.627-1.644.896 0 1.612.732 1.612 1.644v5.697c1.172-1.123 2.62-1.84 4.15-1.84 3.792 0 6.331 3.19 6.347 7.52v6.25a1.59 1.59 0 01-1.611 1.594 1.59 1.59 0 01-1.612-1.595zM130.154 65.018V52.91c0-.894.733-1.627 1.645-1.627s1.594.733 1.594 1.627v.033a7.994 7.994 0 014.85-1.644h.066c1.058 0 1.676.684 1.676 1.611 0 .929-.749 1.612-1.676 1.612h-.066c-2.652 0-4.85 2.197-4.85 4.915v5.582c0 .896-.716 1.612-1.611 1.612-.879 0-1.628-.716-1.628-1.612zM141.756 47.782c0-1.008.813-1.806 1.806-1.806.993 0 1.807.798 1.807 1.806 0 .978-.814 1.791-1.807 1.791a1.81 1.81 0 01-1.806-1.79zm.195 17.236V52.91c0-.894.748-1.627 1.643-1.627.912 0 1.596.733 1.596 1.627v12.11c0 .895-.716 1.61-1.612 1.61-.879 0-1.627-.715-1.627-1.61zM147.661 64.058a1.818 1.818 0 01-.244-.895c0-.846.684-1.432 1.481-1.432a1.75 1.75 0 011.465.764c.7 1.026 1.498 1.466 2.849 1.466 1.188 0 2.343-.602 2.343-1.628 0-1.253-1.546-1.66-2.637-1.985-2.604-.912-5.126-2.002-5.126-4.606 0-2.735 2.571-4.476 5.354-4.476 1.823 0 3.988.716 4.736 2.181.114.244.18.488.18.7 0 .748-.684 1.383-1.417 1.383-.178 0-.374.016-.537-.114-.895-.733-1.66-1.302-2.832-1.302-1.318 0-2.23.488-2.23 1.53 0 1.058 1.172 1.497 2.768 1.986 2.587.813 4.882 1.79 4.882 4.573 0 2.588-2.327 4.606-5.468 4.606-2.051 0-4.525-.814-5.567-2.751zM162.55 65.035V54.57h-1.172c-.896 0-1.628-.75-1.628-1.644 0-.895.732-1.595 1.628-1.595h1.172v-3.94c0-.894.732-1.594 1.627-1.594s1.61.7 1.61 1.595v3.939h1.4c.928 0 1.628.7 1.628 1.595 0 .928-.7 1.644-1.627 1.644h-1.4v10.465a1.59 1.59 0 01-1.61 1.595c-.896 0-1.628-.7-1.628-1.595zM170.684 65.018V52.91c0-.894.749-1.627 1.644-1.627.814 0 1.432.586 1.562 1.35.88-.83 1.97-1.35 3.207-1.35 1.725 0 3.157.733 4.134 1.905 1.253-1.156 2.961-1.905 4.654-1.905 3.304 0 5.452 2.669 5.469 5.908v7.845c0 .895-.716 1.595-1.595 1.595-.88 0-1.644-.7-1.644-1.595v-7.894c-.033-1.497-1.025-2.604-2.506-2.604-1.449 0-2.897 1.14-2.98 2.539v7.96c0 .894-.714 1.594-1.594 1.594-.879 0-1.643-.7-1.643-1.595v-7.96c-.05-1.464-1.042-2.538-2.491-2.538-1.448 0-2.913 1.123-2.978 2.523v.097c-.017.017 0 .066 0 .13v7.731c0 .896-.716 1.612-1.611 1.612-.88 0-1.628-.716-1.628-1.612zM193.464 59.062c0-4.28 3.499-7.764 7.763-7.764 4.247 0 7.698 3.451 7.747 7.699v5.972c0 .912-.732 1.66-1.66 1.66-.863 0-1.497-.65-1.58-1.48-1.268 1.025-2.83 1.676-4.507 1.676-4.264 0-7.763-3.483-7.763-7.763zm12.27 0c0-2.507-1.984-4.492-4.507-4.492a4.483 4.483 0 00-4.508 4.492 4.518 4.518 0 004.508 4.508 4.497 4.497 0 004.508-4.508zM211.443 64.058a1.808 1.808 0 01-.244-.895c0-.846.684-1.432 1.48-1.432a1.75 1.75 0 011.466.764c.7 1.026 1.497 1.466 2.848 1.466 1.188 0 2.343-.602 2.343-1.628 0-1.253-1.545-1.66-2.636-1.985-2.604-.912-5.127-2.002-5.127-4.606 0-2.735 2.572-4.476 5.355-4.476 1.823 0 3.988.716 4.736 2.181.114.244.18.488.18.7 0 .748-.685 1.383-1.417 1.383-.18 0-.374.016-.537-.114-.895-.733-1.66-1.302-2.831-1.302-1.32 0-2.23.488-2.23 1.53 0 1.058 1.171 1.497 2.766 1.986 2.588.813 4.883 1.79 4.883 4.573 0 2.588-2.328 4.606-5.468 4.606-2.052 0-4.525-.814-5.567-2.751z"/><g><path class="st2" d="M11.357 28.122a50.45 50.45 0 01-3.884-.644c-1.176-.248-2.221-.622-3.136-1.125a7.128 7.128 0 01-2.304-1.997C1.412 23.53.967 22.454.699 21.131c-.517-2.553.054-4.795 1.711-6.726s4.26-3.256 7.804-3.974c1.292-.261 2.513-.414 3.66-.459s2.159.04 3.031.255c.872.215 1.593.569 2.163 1.063.57.495.932 1.133 1.09 1.914.159.782.114 1.486-.134 2.114a5.71 5.71 0 01-1.02 1.684c-.746-.286-1.707-.475-2.882-.565-1.176-.09-2.424-.002-3.746.265-1.353.274-2.305.663-2.86 1.167-.555.503-.775 1.04-.66 1.61.092.451.361.78.81.986.448.207 1.087.351 1.917.433l2.544.282c3.007.33 5.41 1.04 7.21 2.13s2.944 2.836 3.43 5.24c.517 2.554-.071 4.822-1.765 6.807-1.693 1.985-4.493 3.373-8.398 4.164-1.382.28-2.69.428-3.922.442-1.233.016-2.336-.105-3.31-.362-.975-.255-1.776-.656-2.402-1.202a3.632 3.632 0 01-1.196-2.08c-.176-.87-.071-1.666.315-2.386.386-.719.846-1.304 1.38-1.757.975.491 2.12.853 3.434 1.087 1.315.234 2.693.205 4.134-.087 1.472-.298 2.463-.733 2.973-1.305.51-.573.704-1.159.582-1.76-.121-.6-.455-1.01-1-1.228-.544-.219-1.282-.39-2.214-.514l-2.02-.247z"/><path class="st0" d="M10.842 25.579a50.446 50.446 0 01-3.884-.644c-1.176-.248-2.22-.622-3.136-1.125a7.128 7.128 0 01-2.304-1.997C.897 20.986.452 19.911.184 18.588c-.517-2.552.054-4.795 1.711-6.726S6.155 8.606 9.7 7.888a23.047 23.047 0 013.66-.459c1.148-.045 2.16.04 3.031.255.872.215 1.593.569 2.163 1.063.57.495.933 1.133 1.09 1.914.159.782.114 1.486-.134 2.114a5.71 5.71 0 01-1.02 1.684c-.746-.286-1.707-.475-2.882-.565-1.176-.09-2.424-.002-3.746.265-1.353.274-2.305.663-2.86 1.167-.555.503-.774 1.04-.659 1.61.091.451.36.78.81.986.447.207 1.086.351 1.916.433l2.545.282c3.006.33 5.409 1.04 7.209 2.13 1.8 1.09 2.944 2.836 3.43 5.24.518 2.554-.071 4.822-1.765 6.807-1.693 1.985-4.493 3.373-8.398 4.164-1.382.28-2.69.428-3.922.442-1.232.016-2.336-.105-3.31-.362-.975-.255-1.775-.656-2.402-1.202a3.632 3.632 0 01-1.195-2.08c-.177-.87-.072-1.666.314-2.386.386-.719.846-1.304 1.38-1.757.975.491 2.12.853 3.434 1.087 1.315.234 2.693.205 4.134-.087 1.472-.298 2.463-.733 2.973-1.305s.704-1.159.582-1.76c-.121-.6-.455-1.01-1-1.228-.544-.219-1.282-.39-2.214-.514l-2.02-.247z"/><path class="st2" d="M34.823 32.138c-.337.092-.866.184-1.586.276-.72.092-1.433.137-2.139.137s-1.326-.053-1.86-.16c-.538-.107-.99-.299-1.357-.575-.368-.275-.645-.66-.828-1.15s-.277-1.133-.277-1.931V7.079c0-.645.177-1.142.53-1.495.351-.352.834-.636 1.448-.851 1.042-.367 2.23-.636 3.563-.805a32.16 32.16 0 014.024-.253c4.23 0 7.464.906 9.702 2.713 2.237 1.81 3.356 4.262 3.356 7.358 0 1.502-.237 2.858-.713 4.07s-1.18 2.252-2.115 3.126c-.935.873-2.115 1.548-3.54 2.022-1.426.476-3.073.713-4.943.713h-3.265v8.461zm2.392-14.76c1.287 0 2.275-.3 2.965-.897.69-.598 1.035-1.509 1.035-2.735 0-1.165-.36-2.062-1.08-2.69-.721-.629-1.77-.943-3.15-.943-.491 0-.897.008-1.219.023a7.702 7.702 0 00-.989.115v7.128h2.438z"/><path class="st0" d="M34.823 29.544c-.337.092-.866.183-1.586.275-.72.092-1.433.138-2.139.138s-1.326-.054-1.86-.16c-.538-.108-.99-.3-1.357-.576-.368-.275-.645-.659-.828-1.149s-.277-1.134-.277-1.932V4.484c0-.644.177-1.141.53-1.495.351-.352.834-.636 1.448-.85 1.042-.368 2.23-.636 3.563-.805a32.16 32.16 0 014.024-.253c4.23 0 7.464.905 9.702 2.713 2.237 1.81 3.356 4.261 3.356 7.357 0 1.502-.237 2.859-.713 4.07s-1.18 2.252-2.115 3.126c-.935.873-2.115 1.548-3.54 2.023-1.426.475-3.073.713-4.943.713h-3.265v8.46zm2.392-14.76c1.287 0 2.275-.3 2.965-.898.69-.597 1.035-1.508 1.035-2.735 0-1.165-.36-2.061-1.08-2.69-.721-.628-1.77-.943-3.15-.943-.491 0-.897.008-1.219.024a7.702 7.702 0 00-.989.114v7.128h2.438z"/><path class="st2" d="M51.464 14.287c.067-1.317.503-2.338 1.307-3.065.803-.726 1.863-1.057 3.18-.99l15.154.763c.197.349.367.801.508 1.36.14.56.195 1.147.164 1.758-.058 1.165-.353 1.978-.883 2.442-.53.465-1.208.676-2.034.634l-9.69-.489-.215 4.271 10.332.521c.197.349.367.794.508 1.338.141.545.196 1.123.166 1.735-.06 1.164-.346 1.979-.86 2.443-.514.465-1.185.677-2.012.635l-8.45-.426-.242 4.822 11.802.595c.197.348.365.801.506 1.36.14.56.196 1.147.165 1.758-.059 1.165-.353 1.985-.884 2.465s-1.209.699-2.036.657l-13.41-.676c-1.316-.067-2.337-.502-3.064-1.306-.727-.803-1.057-1.864-.991-3.18l.98-19.425z"/><path class="st1" d="M51.595 11.696c.067-1.317.502-2.338 1.307-3.066.803-.726 1.863-1.056 3.18-.99l15.154.764c.197.348.366.8.507 1.36.14.56.196 1.146.165 1.758-.059 1.165-.353 1.978-.883 2.442-.53.465-1.208.675-2.034.634l-9.69-.489-.216 4.271 10.333.521c.197.348.367.794.507 1.338.142.545.197 1.123.166 1.735-.058 1.164-.345 1.978-.86 2.442-.514.466-1.184.678-2.011.636l-8.45-.426-.243 4.822 11.803.595c.196.347.365.8.506 1.36.14.56.196 1.146.165 1.758-.059 1.165-.354 1.985-.884 2.464-.531.48-1.209.7-2.036.658l-13.41-.677c-1.316-.066-2.338-.5-3.064-1.305-.727-.803-1.058-1.864-.991-3.18l.98-19.425z"/><g><path class="st2" d="M80.591 5.036c.522-.306 1.31-.598 2.369-.873a12.587 12.587 0 013.196-.414c1.532 0 2.889.222 4.07.667 1.179.444 1.937 1.141 2.275 2.092.551 1.594 1.149 3.448 1.794 5.563.643 2.115 1.287 4.3 1.93 6.553s1.272 4.475 1.886 6.667c.612 2.192 1.15 4.13 1.61 5.816-.369.43-.92.775-1.657 1.035-.735.26-1.608.39-2.62.39-.736 0-1.357-.06-1.862-.183-.506-.123-.92-.306-1.243-.552-.32-.245-.582-.567-.78-.965s-.377-.859-.53-1.38l-.827-3.173h-8.323c-.246.92-.49 1.87-.736 2.852s-.49 1.93-.735 2.85c-.43.154-.882.283-1.357.39-.475.108-1.05.162-1.724.162-1.563 0-2.721-.269-3.471-.805-.752-.536-1.127-1.28-1.127-2.23 0-.429.06-.858.184-1.287.122-.429.26-.935.414-1.518.214-.827.512-1.854.896-3.081.383-1.226.805-2.552 1.265-3.977.46-1.425.95-2.89 1.472-4.391.52-1.502 1.011-2.92 1.47-4.253a183.572 183.572 0 012.161-5.955zm5.519 5.931c-.43 1.289-.913 2.721-1.45 4.3s-1.019 3.181-1.448 4.805h5.703a254.51 254.51 0 00-1.31-4.85c-.446-1.58-.852-2.997-1.22-4.255h-.275z"/><path class="st0" d="M80.591 2.441c.522-.305 1.31-.597 2.369-.873a12.587 12.587 0 013.196-.414c1.532 0 2.889.223 4.07.667 1.179.444 1.937 1.142 2.275 2.092.551 1.595 1.149 3.448 1.794 5.563.643 2.116 1.287 4.3 1.93 6.553s1.272 4.476 1.886 6.667c.612 2.193 1.15 4.131 1.61 5.817-.369.43-.92.774-1.657 1.035-.735.26-1.608.39-2.62.39-.736 0-1.357-.061-1.862-.183-.506-.123-.92-.307-1.243-.553-.32-.244-.582-.566-.78-.965s-.377-.858-.53-1.38l-.827-3.173h-8.323c-.246.92-.49 1.87-.736 2.852s-.49 1.93-.735 2.85c-.43.154-.882.284-1.357.391-.475.108-1.05.161-1.724.161-1.563 0-2.721-.268-3.471-.804-.752-.536-1.127-1.28-1.127-2.23 0-.43.06-.858.184-1.288.122-.429.26-.934.414-1.518.214-.827.512-1.854.896-3.08.383-1.226.805-2.552 1.265-3.977.46-1.426.95-2.89 1.472-4.392.52-1.502 1.011-2.92 1.47-4.253a183.572 183.572 0 012.161-5.955zm5.519 5.932c-.43 1.288-.913 2.72-1.45 4.3s-1.019 3.18-1.448 4.804h5.703a254.51 254.51 0 00-1.31-4.85c-.446-1.58-.852-2.996-1.22-4.254h-.275z"/></g><g><path class="st2" d="M110.552 27.472l.799 10.13c-.329.119-.856.252-1.583.402-.726.149-1.44.251-2.143.307s-1.327.05-1.868-.014c-.544-.064-1.01-.22-1.398-.466-.389-.246-.694-.607-.916-1.081-.221-.474-.365-1.109-.427-1.904l-1.909-24.202c.332-.088.86-.214 1.585-.379a14.665 14.665 0 012.096-.327 9.563 9.563 0 011.869.014c.543.065 1.01.22 1.397.466.39.247.694.608.916 1.082.222.474.364 1.109.427 1.903l.574 7.288 8.671-11.707c2.078-.164 3.598.109 4.562.817.962.707 1.487 1.597 1.571 2.667a4.51 4.51 0 01-.42 2.293c-.341.734-.92 1.579-1.736 2.535l-5.279 6.182c.832.795 1.704 1.618 2.616 2.469a542.556 542.556 0 005.222 4.8c.811.736 1.515 1.372 2.11 1.909.054.672-.022 1.278-.224 1.816a4.106 4.106 0 01-.882 1.408c-.383.398-.827.71-1.333.934a4.924 4.924 0 01-1.628.406c-1.253.099-2.302-.135-3.146-.698a16.493 16.493 0 01-2.467-2.042l-7.056-7.008z"/><path class="st1" d="M110.348 24.885l.8 10.131c-.33.118-.857.252-1.584.401-.726.15-1.44.252-2.143.307s-1.327.05-1.868-.013c-.544-.065-1.01-.22-1.398-.467-.389-.245-.694-.606-.916-1.08-.221-.475-.364-1.11-.427-1.905l-1.909-24.202c.332-.088.86-.214 1.585-.378a14.666 14.666 0 012.096-.327 9.562 9.562 0 011.87.014c.542.065 1.009.22 1.396.466.39.246.694.607.916 1.081.222.475.364 1.109.427 1.903l.574 7.288 8.671-11.707c2.078-.164 3.598.11 4.562.817.962.708 1.487 1.597 1.571 2.667a4.51 4.51 0 01-.42 2.293c-.341.734-.92 1.58-1.736 2.535l-5.279 6.182c.832.796 1.704 1.618 2.617 2.47a542.556 542.556 0 005.221 4.799c.811.736 1.515 1.372 2.11 1.91.054.672-.022 1.277-.224 1.815a4.106 4.106 0 01-.882 1.408c-.383.399-.827.71-1.333.935a4.924 4.924 0 01-1.628.405c-1.253.1-2.302-.134-3.146-.698a16.493 16.493 0 01-2.467-2.042l-7.056-7.008z"/></g></g><g><path class="st2" d="M137.815 10.03c-.215-.337-.414-.797-.598-1.38a6.078 6.078 0 01-.275-1.838c0-1.196.268-2.054.804-2.576.536-.52 1.234-.78 2.093-.78h20.047c.214.336.413.796.598 1.378.184.583.275 1.195.275 1.839 0 1.196-.268 2.055-.804 2.575-.536.522-1.235.782-2.092.782h-5.104v21.243c-.337.092-.867.184-1.586.276a16.91 16.91 0 01-2.138.138 9.638 9.638 0 01-1.862-.16c-.538-.108-.989-.3-1.357-.576-.368-.275-.643-.659-.828-1.15-.184-.49-.275-1.133-.275-1.93V10.03h-6.898z"/><path class="st0" d="M137.815 7.436c-.215-.337-.414-.797-.598-1.38a6.078 6.078 0 01-.275-1.84c0-1.194.268-2.053.804-2.574.536-.52 1.234-.782 2.093-.782h20.047c.214.337.413.797.598 1.38.184.582.275 1.195.275 1.838 0 1.197-.268 2.055-.804 2.575-.536.522-1.235.783-2.092.783h-5.104v21.243c-.337.092-.867.183-1.586.275a16.91 16.91 0 01-2.138.138 9.638 9.638 0 01-1.862-.16c-.538-.108-.989-.299-1.357-.575-.368-.276-.643-.66-.828-1.15-.184-.49-.275-1.134-.275-1.931V7.436h-6.898z"/><g><path class="st2" d="M157.77 24.83c0-2.39.375-4.506 1.127-6.345.75-1.84 1.777-3.38 3.08-4.62 1.303-1.243 2.835-2.186 4.599-2.83 1.761-.643 3.67-.965 5.724-.965 2.053 0 3.961.322 5.725.966 1.762.643 3.303 1.586 4.621 2.828 1.317 1.241 2.352 2.781 3.104 4.621.75 1.839 1.126 3.954 1.126 6.345 0 2.391-.368 4.515-1.104 6.369-.735 1.855-1.755 3.402-3.058 4.644s-2.843 2.184-4.62 2.828c-1.779.643-3.71.966-5.794.966-2.085 0-4.016-.33-5.794-.99-1.778-.658-3.31-1.616-4.597-2.874-1.288-1.256-2.3-2.804-3.035-4.643s-1.104-3.939-1.104-6.3zm8.276 0c0 2.79.568 4.874 1.702 6.254 1.133 1.379 2.651 2.07 4.552 2.07 1.931 0 3.463-.691 4.598-2.07 1.134-1.38 1.701-3.464 1.701-6.254 0-2.759-.56-4.828-1.678-6.207-1.12-1.38-2.644-2.07-4.575-2.07-1.901 0-3.426.683-4.575 2.046-1.15 1.365-1.725 3.442-1.725 6.23z"/><path class="st1" d="M157.77 22.235c0-2.39.375-4.506 1.127-6.344.75-1.84 1.777-3.38 3.08-4.622 1.303-1.242 2.835-2.184 4.599-2.828 1.761-.643 3.67-.965 5.724-.965 2.053 0 3.961.322 5.725.965 1.762.644 3.303 1.586 4.621 2.828 1.317 1.242 2.352 2.782 3.104 4.622.75 1.838 1.126 3.954 1.126 6.344 0 2.392-.368 4.515-1.104 6.37-.735 1.854-1.755 3.402-3.058 4.643s-2.843 2.185-4.62 2.828c-1.779.644-3.71.966-5.794.966-2.085 0-4.016-.33-5.794-.99-1.778-.658-3.31-1.616-4.597-2.873-1.288-1.256-2.3-2.805-3.035-4.644s-1.104-3.938-1.104-6.3zm8.276 0c0 2.79.568 4.874 1.702 6.254 1.133 1.38 2.651 2.07 4.552 2.07 1.931 0 3.463-.69 4.598-2.07 1.134-1.38 1.701-3.464 1.701-6.254 0-2.759-.56-4.828-1.678-6.207-1.12-1.38-2.644-2.07-4.575-2.07-1.901 0-3.426.684-4.575 2.047-1.15 1.364-1.725 3.441-1.725 6.23z"/></g></g><g><path class="st2" d="M225.36 23.32c0 1.655-.283 3.165-.85 4.529a9.59 9.59 0 01-2.46 3.494c-1.073.966-2.376 1.71-3.908 2.23-1.533.52-3.265.782-5.196.782-1.93 0-3.663-.261-5.195-.782-1.534-.52-2.836-1.264-3.91-2.23a9.578 9.578 0 01-2.46-3.494c-.567-1.364-.85-2.874-.85-4.53V5.755a51.74 51.74 0 011.61-.253c.736-.107 1.44-.161 2.114-.161a9.57 9.57 0 011.863.161c.536.107.988.299 1.356.574.368.277.644.66.828 1.15.184.49.276 1.134.276 1.931v14.025c0 1.471.406 2.62 1.218 3.448.812.828 1.863 1.241 3.15 1.241 1.317 0 2.375-.413 3.173-1.241.797-.827 1.195-1.977 1.195-3.448V5.755c.337-.062.874-.146 1.61-.253s1.44-.161 2.115-.161a9.57 9.57 0 011.862.161c.536.107.988.299 1.356.574.369.277.644.66.828 1.15.184.49.276 1.134.276 1.931V23.32z"/><path class="st0" d="M225.36 20.725c0 1.655-.283 3.166-.85 4.53a9.59 9.59 0 01-2.46 3.493c-1.073.966-2.376 1.71-3.908 2.23-1.533.521-3.265.782-5.196.782-1.93 0-3.663-.26-5.195-.781-1.534-.52-2.836-1.265-3.91-2.23a9.578 9.578 0 01-2.46-3.495c-.567-1.363-.85-2.874-.85-4.53V3.16a51.74 51.74 0 011.61-.253c.736-.107 1.44-.16 2.114-.16a9.57 9.57 0 011.863.16c.536.108.988.3 1.356.575.368.276.644.66.828 1.15.184.49.276 1.134.276 1.93v14.025c0 1.472.406 2.621 1.218 3.448.812.828 1.863 1.242 3.15 1.242 1.317 0 2.375-.414 3.173-1.242.797-.827 1.195-1.976 1.195-3.448V3.16c.337-.061.874-.145 1.61-.253s1.44-.16 2.115-.16a9.57 9.57 0 011.862.16c.536.108.988.3 1.356.575.369.276.644.66.828 1.15.184.49.276 1.134.276 1.93v14.163z"/><path class="st2" d="M237.812 29.89c-1.35-.46-2.576-.927-3.68-1.403s-2.053-1.05-2.85-1.724a7.129 7.129 0 01-1.862-2.414c-.444-.935-.667-2.077-.667-3.426 0-2.605 1.004-4.69 3.012-6.253s4.82-2.346 8.437-2.346c1.319 0 2.545.093 3.679.276s2.107.468 2.92.851c.811.384 1.448.874 1.908 1.472s.69 1.295.69 2.092c0 .797-.184 1.479-.552 2.045a5.71 5.71 0 01-1.333 1.449c-.675-.429-1.58-.805-2.713-1.126-1.135-.323-2.376-.484-3.725-.484-1.38 0-2.39.193-3.035.575-.643.384-.965.867-.965 1.449 0 .46.199.836.598 1.127.397.29.995.56 1.793.804l2.437.782c2.881.92 5.096 2.091 6.644 3.517s2.322 3.364 2.322 5.817c0 2.606-1.027 4.713-3.08 6.322s-5.074 2.414-9.058 2.414c-1.41 0-2.721-.114-3.932-.345-1.211-.23-2.269-.566-3.173-1.012-.904-.443-1.61-.995-2.115-1.655a3.632 3.632 0 01-.759-2.275c0-.889.26-1.648.782-2.277.52-.627 1.088-1.11 1.701-1.448.858.675 1.909 1.257 3.15 1.747 1.242.49 2.598.736 4.07.736 1.501 0 2.559-.23 3.172-.69s.92-.996.92-1.61c0-.611-.246-1.08-.736-1.402s-1.18-.635-2.069-.942l-1.931-.643z"/><path class="st0" d="M237.812 27.295c-1.35-.46-2.576-.927-3.68-1.402s-2.053-1.05-2.85-1.725a7.129 7.129 0 01-1.862-2.414c-.444-.935-.667-2.076-.667-3.426 0-2.604 1.004-4.69 3.012-6.253s4.82-2.346 8.437-2.346c1.319 0 2.545.093 3.679.277s2.107.468 2.92.85c.811.384 1.448.874 1.908 1.472s.69 1.295.69 2.092c0 .798-.184 1.48-.552 2.046a5.71 5.71 0 01-1.333 1.448c-.675-.429-1.58-.805-2.713-1.126-1.135-.322-2.376-.483-3.725-.483-1.38 0-2.39.192-3.035.575-.643.384-.965.866-.965 1.448 0 .46.199.836.598 1.127.397.291.995.56 1.793.805l2.437.781c2.881.92 5.096 2.092 6.644 3.518s2.322 3.364 2.322 5.816c0 2.606-1.027 4.713-3.08 6.322s-5.074 2.414-9.058 2.414c-1.41 0-2.721-.114-3.932-.344-1.211-.23-2.269-.567-3.173-1.012-.904-.443-1.61-.995-2.115-1.655a3.632 3.632 0 01-.759-2.276c0-.888.26-1.647.782-2.276.52-.628 1.088-1.11 1.701-1.448.858.674 1.909 1.256 3.15 1.747 1.242.49 2.598.735 4.07.735 1.501 0 2.559-.23 3.172-.69.613-.46.92-.996.92-1.609 0-.612-.246-1.08-.736-1.402s-1.18-.636-2.069-.943l-1.931-.643z"/><g><path class="st2" d="M253.442 28.749c.128-1.25.622-2.24 1.482-2.97.86-.728 1.976-1.023 3.349-.883 1.371.14 2.406.653 3.1 1.54.696.887.98 1.957.853 3.207-.127 1.25-.622 2.24-1.481 2.969-.86.728-1.976 1.024-3.348.884-1.373-.14-2.406-.654-3.102-1.541-.695-.888-.98-1.956-.853-3.206zM264.208 6.55c-.071.702-.19 1.715-.355 3.038a121.167 121.167 0 01-1.458 8.864c-.31 1.525-.629 2.84-.956 3.946-.132.08-.324.153-.577.22-.255.066-.52.116-.802.148-.28.035-.56.052-.837.054a6.851 6.851 0 01-.736-.028c-.885-.09-1.61-.304-2.177-.638-.567-.336-.886-.906-.958-1.716-.081-.717-.102-1.797-.063-3.241.04-1.444.099-3.01.178-4.696s.18-3.356.302-5.008.243-3.055.36-4.215c.644-.274 1.366-.47 2.163-.588s1.578-.14 2.341-.063c1.25.127 2.189.516 2.816 1.165.627.65.88 1.57.76 2.758z"/><path class="st1" d="M253.705 26.167c.128-1.25.622-2.24 1.482-2.97.86-.727 1.976-1.022 3.349-.882 1.371.14 2.406.653 3.1 1.54.696.887.98 1.957.853 3.207-.127 1.25-.622 2.24-1.481 2.969-.86.728-1.977 1.023-3.348.884-1.373-.14-2.406-.655-3.102-1.541-.695-.888-.98-1.956-.853-3.207zM264.471 3.97c-.071.702-.19 1.714-.356 3.037a121.17 121.17 0 01-1.457 8.865c-.31 1.524-.629 2.84-.957 3.946-.131.08-.323.153-.576.219-.255.066-.52.117-.802.149-.28.034-.56.052-.837.054a6.851 6.851 0 01-.736-.029c-.885-.09-1.61-.303-2.177-.638s-.887-.906-.958-1.715c-.081-.717-.102-1.797-.063-3.242.04-1.444.099-3.01.178-4.695a188.097 188.097 0 01.663-9.223c.643-.274 1.365-.47 2.162-.588s1.578-.141 2.341-.063c1.25.127 2.188.516 2.816 1.165.627.65.88 1.569.759 2.758z"/></g></g><g><path d="M254.22 57.664l.014-.066a7.625 7.625 0 10-10.51-10.377 7.58 7.58 0 00-1.011 3.302l-.195.177c-1.864-.876-16.503-7.577-14.603-.908.907 3.182 3.565 6.51 6.228 9.22-3.742 4.05-7.556 8.762-9.117 12.564-3.495 8.508 2.517 10.243 6.315 7.493 1.386-1.004 2.372-1.178 3.018-.877.58.414.915 1.357.725 3.058-.519 4.66 3.956 9.033 9.634 1.797 2.527-3.22 4.737-8.832 6.412-14.068 3.629.954 7.752 1.59 10.915.822 6.555-1.592-5.608-10.553-7.826-12.137zm-19.454-.533c-.39.179-.725-.405-.33-.585.437-.2-.008-.886-.122-1.175-.134-.342-.186-.698-.039-1.044.264-.621.964-.846 1.51-1.145.254-.14.572-.32.6-.643.03-.351-.21-.702-.273-1.042-.178-.968.683-1.433 1.481-1.657.417-.118.588.532.172.65-.406.113-1.065.295-1.004.836.041.357.251.675.287 1.037.07.701-.44 1.144-1.007 1.443-.51.27-1.382.52-1.129 1.26.133.388.367.716.372 1.142.004.384-.157.758-.518.923zm20.376-5.995c.936.545.089 1.995-.845 1.452-.935-.545-.088-1.996.845-1.452zm-7.613-3.953l.2-.081a.63.63 0 01.32-.014.632.632 0 01.316.1c.102.055.183.13.243.226a.63.63 0 01.147.286l.039.149a.839.839 0 010 .428l-.087.208a.836.836 0 01-.312.309l-.199.08a.63.63 0 01-.32.015.633.633 0 01-.317-.1.633.633 0 01-.243-.226.63.63 0 01-.146-.286l-.04-.149a.838.838 0 010-.429l.087-.208a.836.836 0 01.312-.308zm-16.87 30.64c-.42-.237-.925-.212-1.37-.385a1.535 1.535 0 01-.777-.657c-.33-.553-.302-1.234-.6-1.794-.185-.346-.489-.41-.86-.429-.417-.02-.835-.036-1.182-.297-.65-.489-.668-1.414-.36-2.098.179-.394.758-.052.581.338-.145.32-.169.756.032 1.06.23.353.663.307 1.033.33.636.04 1.14.302 1.405.9.229.52.236 1.131.517 1.626.366.645 1.33.493 1.92.826.377.212.038.792-.339.58zm11.79-21.056l2.83-4.858 2.415 3.862 4.55.196-2.83 4.857-1.72-5.053-5.245.996zm-2.02 15.388a1.672 1.672 0 01-.625.617l-.398.162a1.678 1.678 0 01-.858 0l-.416-.173a1.265 1.265 0 01-.486-.45 1.259 1.259 0 01-.292-.573 1.259 1.259 0 01-.028-.642c.01-.226.077-.436.2-.632l.055-.094c.154-.261.362-.467.625-.617l.398-.161c.286-.075.572-.075.858 0l.416.172c.204.11.366.26.486.451.146.163.243.354.292.572.065.214.075.428.028.642-.01.226-.076.437-.2.632l-.055.094zm5.142-9.115a1.259 1.259 0 01-.572.293 1.259 1.259 0 01-.642.028 1.265 1.265 0 01-.631-.201l-.095-.055a1.672 1.672 0 01-.617-.625l-.161-.398a1.678 1.678 0 010-.858l.173-.416c.108-.204.259-.366.45-.486.164-.146.354-.243.572-.292a1.26 1.26 0 01.642-.028c.226.01.437.077.632.2l.094.056c.262.153.467.361.617.624l.162.398c.074.286.074.572 0 .858l-.173.416c-.109.204-.26.366-.45.486zm-1.566 18.395c.338-.261.812.216.47.48-.747.577-1.582 1.172-2.578 1.04-.45-.058-.824-.282-1.145-.594-.343-.334-.618-.798-1.068-1.003-.693-.317-1.297.557-1.923.727-.944.256-1.454-.617-1.703-1.383-.134-.412.516-.581.65-.171.112.346.291.931.744.927.267-.002.521-.212.731-.356.504-.343 1.033-.629 1.653-.405.367.132.67.4.93.684.282.307.547.687.949.844.829.323 1.672-.313 2.29-.79zm11.729-15.16c-.29.323-.709.382-1.054.615-.384.258-.274.753-.286 1.153-.012.387-.092.752-.395 1.015-.325.283-.797-.196-.47-.48.28-.244.183-.678.192-1.011.01-.344.06-.69.282-.966.233-.288.569-.398.892-.554.482-.232.527-.606.402-1.094-.188-.737-.587-1.627.077-2.256.334-.317.782-.32 1.175-.513.32-.156.313-.397.239-.71-.038-.16-.074-.326-.117-.488-.11-.057-.192-.159-.193-.285-.002-.183.07-.274.21-.378.087-.065.248-.058.335.002.203.138.239.274.301.504.077.286.17.597.198.892.045.478-.226.838-.642 1.048-.43.217-1.15.184-1.205.79-.046.505.244.985.326 1.473.072.433.04.9-.267 1.242z" fill="#9b6145"/><path class="st4" d="M247.13 48.128l.04.149a.63.63 0 00.146.286c.06.096.141.17.243.225a.633.633 0 00.316.1.63.63 0 00.321-.013l.2-.081a.836.836 0 00.311-.309c.03-.069.058-.138.087-.208a.839.839 0 000-.428l-.04-.15a.63.63 0 00-.146-.285.632.632 0 00-.243-.226.632.632 0 00-.316-.1.63.63 0 00-.32.014l-.2.08a.836.836 0 00-.312.31l-.086.207a.838.838 0 000 .429zM254.297 52.588c.934.543 1.78-.907.845-1.452-.933-.544-1.78.907-.845 1.452zM246.195 61.28l-.162-.398a1.672 1.672 0 00-.617-.624l-.094-.055a1.264 1.264 0 00-.632-.201 1.259 1.259 0 00-.642.028 1.259 1.259 0 00-.572.292c-.191.12-.342.282-.45.486l-.173.416a1.678 1.678 0 000 .858l.161.398c.15.263.356.472.617.625l.095.055c.195.124.406.19.631.2.214.047.428.037.642-.027.218-.05.409-.147.572-.293.192-.12.342-.282.451-.486l.173-.416a1.678 1.678 0 000-.858zM240.656 70.787a1.259 1.259 0 00-.292-.572 1.265 1.265 0 00-.486-.45l-.416-.173a1.678 1.678 0 00-.858 0l-.398.161c-.263.15-.471.356-.625.617l-.054.094c-.124.196-.191.406-.201.632a1.26 1.26 0 00.028.642c.049.218.146.409.292.572.12.192.282.342.486.45l.416.174c.286.074.572.074.858 0l.398-.162c.263-.15.471-.356.625-.617l.055-.094c.124-.195.19-.406.2-.632a1.259 1.259 0 00-.028-.642zM255.675 63.56c.056-.607.776-.574 1.205-.79.416-.21.688-.571.642-1.049-.029-.295-.12-.606-.198-.892-.062-.23-.098-.366-.301-.504-.087-.06-.248-.067-.334-.002-.14.104-.213.195-.211.378.001.126.083.228.193.285.043.162.079.327.117.488.074.313.081.554-.239.71-.393.192-.841.197-1.175.513-.664.629-.265 1.52-.077 2.256.125.488.08.862-.402 1.094-.323.156-.66.266-.892.554-.222.276-.272.622-.282.966-.01.333.089.767-.192 1.01-.327.285.145.764.47.481.303-.263.383-.628.395-1.015.012-.4-.098-.895.286-1.153.346-.233.763-.292 1.054-.616.307-.341.34-.809.267-1.242-.082-.488-.372-.968-.326-1.473zM234.912 55.066c-.253-.74.62-.99 1.13-1.26.566-.299 1.076-.742 1.006-1.443-.036-.362-.246-.68-.287-1.037-.061-.541.598-.723 1.004-.837.416-.117.245-.767-.172-.65-.798.225-1.66.69-1.481 1.658.062.34.304.69.273 1.042-.028.323-.346.503-.6.643-.546.299-1.246.524-1.51 1.145-.147.346-.095.702.04 1.044.113.29.558.975.12 1.175-.394.18-.06.764.33.585.362-.165.523-.539.519-.923-.005-.426-.239-.754-.372-1.142zM241.715 82.225c-.402-.157-.667-.537-.948-.844-.26-.284-.564-.552-.931-.684-.62-.224-1.149.062-1.653.405-.21.144-.464.354-.731.356-.453.004-.632-.58-.745-.927-.133-.41-.784-.24-.65.171.25.766.76 1.64 1.704 1.383.626-.17 1.23-1.044 1.923-.727.45.205.725.669 1.068 1.003.321.312.696.536 1.145.595.996.13 1.83-.464 2.578-1.04.342-.265-.132-.742-.47-.481-.618.477-1.461 1.113-2.29.79zM230.997 77.243c-.59-.333-1.553-.18-1.919-.826-.281-.495-.288-1.106-.517-1.626-.264-.598-.77-.86-1.405-.9-.37-.023-.802.023-1.033-.33-.2-.304-.177-.74-.032-1.06.177-.39-.402-.732-.58-.338-.31.684-.29 1.61.36 2.098.346.261.764.277 1.18.297.372.018.676.083.86.43.3.56.271 1.24.6 1.793.183.306.446.528.778.657.445.173.95.148 1.37.385.377.212.716-.368.338-.58z"/><path class="st5" d="M245.279 51.91l-2.83 4.857 5.245-.996zM252.244 55.967l-4.55-.196 1.72 5.053z"/></g><g><path class="st1" d="M9.671 83.274c6.187 1.721 11.575-2.423 17-4.672 2.87-1.189 5.831-1.71 8.912-1.142 3.036.56 5.886 1.81 8.68 3.079 5.737 2.605 11.41 5.152 17.86 4.145 6.575-1.026 12.39-4.951 19.038-5.617 6.832-.685 12.747 3.26 18.996 5.303 3.134 1.025 6.368 1.488 9.65 1.035 3.337-.462 6.466-1.718 9.523-3.084 3.169-1.416 6.279-3.002 9.608-4.02a27.627 27.627 0 0111.311-1c7.18.85 12.983 5.217 19.682 7.498 3.494 1.19 7.163 1.56 10.77.665 3.568-.886 6.791-2.758 10.066-4.362 3.706-1.816 7.417-2.955 11.588-2.785 4.419.18 8.712 1.475 12.92 2.738 1.544.463 2.204-1.949.664-2.41-7.167-2.151-14.799-4.197-22.13-1.57-6.133 2.198-11.687 6.918-18.531 6.367-6.82-.55-12.594-5.182-18.94-7.314-7.1-2.385-14.672-1.797-21.54 1.026-6.166 2.534-12.38 6.568-19.324 5.869-6.675-.673-12.34-4.975-18.889-6.186-6.767-1.251-12.806 1.6-19.033 3.795-3.103 1.094-6.322 1.992-9.644 1.806-3.106-.173-6.11-1.282-8.94-2.508-6.154-2.665-12.493-6.33-19.448-4.863-3.413.72-6.495 2.512-9.608 4.009-2.996 1.44-6.233 2.718-9.576 1.788-1.552-.432-2.215 1.98-.665 2.41z"/></g></svg>