<svg version="1.1" id="Layer_1" xmlns="http://www.w3.org/2000/svg" x="0" y="0" viewBox="0 0 268.418 108.649" xml:space="preserve"><style>.st0{fill:#66884e}.st1{fill:#eb9723}.st2{fill:#ffe8d3}.st3{fill:#eee6b2}.st5{fill:#272018}</style><path class="st0" d="M58.719 62.91a1.401 1.401 0 00-.471-.483 1.35 1.35 0 00-.734-.201c-.095 0-.172.007-.232.02-.651.077-1.407.178-2.232.296-.822.118-1.69.252-2.604.401-.911.15-1.861.31-2.85.483l-2.131.374-.888.156c-1.028.18-2.065.363-3.11.55a285.53 285.53 0 01-3.109.539c-1.273.222-2.514.427-3.726.617-1.205.189-2.363.356-3.443.496-1.074.14-2.087.253-3.01.335-.912.081-1.72.123-2.4.123-.63 0-1.173-.043-1.614-.126a3.33 3.33 0 01-1.047-.362 1.908 1.908 0 01-.628-.564 2.788 2.788 0 01-.385-.858 6.38 6.38 0 01-.197-1.232 23.496 23.496 0 01-.05-1.62c0-3.804.073-7.64.217-11.403.146-3.79.33-7.617.55-11.376.221-3.792.464-7.62.72-11.374.258-3.762.5-7.598.722-11.401.02-.225-.01-.443-.088-.635a1.362 1.362 0 00-.314-.466 1.284 1.284 0 00-.473-.288 1.552 1.552 0 00-.986-.007c-.16.053-.308.134-.44.24a1.313 1.313 0 00-.493.978 846.75 846.75 0 00-1.178 23.035 619.833 619.833 0 00-.431 23.07c0 1.197.086 2.216.255 3.029.18.868.52 1.578 1.008 2.11.494.537 1.176.921 2.028 1.142.799.207 1.826.312 3.052.312.848 0 1.786-.032 2.787-.094 1-.063 2.057-.151 3.143-.262 1.1-.112 2.245-.243 3.401-.39a277.764 277.764 0 008.116-1.17c1.52-.242 3.002-.478 4.447-.706a988.57 988.57 0 014.165-.648c1.329-.204 2.556-.382 3.681-.534.282-.04.518-.14.707-.295.19-.157.324-.347.4-.566.069-.203.09-.418.065-.64a1.55 1.55 0 00-.2-.606zM93.144 33.913a1.883 1.883 0 00-.515.07c-1.157.295-2.45.612-3.834.939a119.29 119.29 0 01-3.767.82c.112-.384.223-.772.331-1.165.184-.668.362-1.333.532-1.997.171-.667.33-1.33.47-1.967.142-.636.267-1.263.373-1.863.105-.59.188-1.162.249-1.697.06-.539.091-1.034.091-1.473a6.94 6.94 0 00-.056-.912 3.1 3.1 0 00-.207-.799 1.619 1.619 0 00-.46-.633 1.22 1.22 0 00-.794-.273c-.444 0-.886.226-1.315.672-.36.375-.72.875-1.07 1.49a20.971 20.971 0 00-1.01 2.047c-.33.76-.648 1.556-.945 2.366-.298.81-.583 1.63-.847 2.441-.265.81-.5 1.563-.71 2.259a113.58 113.58 0 00-.531 1.819l-.202.717-.024.084c-.912.154-1.864.305-2.854.454a217.52 217.52 0 01-3.52.497c-.444.055-.795.212-1.038.466-.252.262-.382.552-.388.86-.006.317.118.611.36.852.24.241.576.364.996.364a2.125 2.125 0 00.46-.053c1.105-.235 2.17-.463 3.19-.685l2.195-.474c-.257 1.032-.5 2.074-.724 3.107a80.748 80.748 0 00-.731 3.802 60.488 60.488 0 00-.486 3.527 30.934 30.934 0 00-.156 2.323 7.847 7.847 0 01-1.197 1.096c-.535.399-1.132.78-1.774 1.13-.643.352-1.329.675-2.038.96-.711.288-1.431.535-2.14.736-.707.201-1.406.36-2.077.47-.662.11-1.277.165-1.828.165-.486 0-.95-.05-1.378-.148a2.866 2.866 0 01-1.04-.453 2.115 2.115 0 01-.667-.81c-.133-.272-.215-.607-.244-1.001.192.051.387.095.584.13.435.077.887.116 1.344.116.54 0 1.088-.061 1.63-.183a7.976 7.976 0 001.556-.52 7.478 7.478 0 001.395-.83c.44-.33.826-.707 1.147-1.119.327-.418.588-.88.775-1.376.19-.504.286-1.045.286-1.61 0-.388-.074-.749-.221-1.072a2.316 2.316 0 00-.666-.852 3.012 3.012 0 00-1.043-.526 4.759 4.759 0 00-1.351-.177c-.695 0-1.385.098-2.049.29-.66.19-1.294.462-1.883.806a8.679 8.679 0 00-1.636 1.24 8.44 8.44 0 00-1.296 1.594 7.903 7.903 0 00-.853 1.861 6.973 6.973 0 00-.308 2.057c0 .869.15 1.617.445 2.222a3.917 3.917 0 001.226 1.484c.502.363 1.09.625 1.746.777.63.147 1.307.221 2.013.221.707 0 1.469-.065 2.264-.193a19.884 19.884 0 002.407-.549 22.89 22.89 0 004.728-1.995 17.212 17.212 0 002.068-1.363c.052-.04.095-.083.145-.123.036.385.073.773.135 1.179.08.522.19 1.062.326 1.607.136.545.305 1.077.502 1.58.2.513.44 1 .713 1.449.282.462.613.872.985 1.217.379.351.808.633 1.276.838.48.21 1.021.317 1.607.317.5 0 1.012-.083 1.523-.247.5-.16 1.001-.393 1.492-.692.483-.294.968-.654 1.44-1.069.473-.415.933-.889 1.367-1.41a24.55 24.55 0 001.916-2.635 42.088 42.088 0 002.007-3.561c.098-.196.147-.391.147-.584a1.19 1.19 0 00-.11-.517 1.034 1.034 0 00-.332-.398.901.901 0 00-.525-.172c-.216 0-.617.08-.883.608a38.473 38.473 0 01-1.906 3.482c-.606.966-1.215 1.798-1.81 2.473-.742.848-1.48 1.513-2.191 1.977-.668.435-1.306.656-1.897.656-.32 0-.6-.078-.853-.24a2.824 2.824 0 01-.752-.719 5.28 5.28 0 01-.615-1.118 12.488 12.488 0 01-.474-1.387 15.814 15.814 0 01-.427-2.16 17.894 17.894 0 01-.136-2.1 92.748 92.748 0 003.11-7.447 134.27 134.27 0 002.503-7.485c1.67-.371 3.212-.72 4.628-1.048 1.494-.346 2.888-.668 4.182-.965.305-.071.533-.186.699-.353.24-.239.29-.485.29-.648a.815.815 0 00-.345-.66c-.184-.138-.428-.208-.725-.208zm-11.488 2.474c.175-.647.35-1.282.527-1.906.244-.864.489-1.69.733-2.48.244-.786.485-1.53.722-2.228a46.1 46.1 0 01.683-1.883c.177-.458.345-.867.505-1.232.098-.222.191-.425.28-.608-.025.542-.081 1.132-.169 1.76a38.64 38.64 0 01-.491 2.761 64.14 64.14 0 01-.706 2.94c-.238.9-.485 1.782-.735 2.627-.289.056-.582.11-.879.164l-.47.085zm-2.196 9.955c.108-.638.225-1.289.35-1.945.193-1.001.408-2.034.64-3.072.212-.943.434-1.883.66-2.798.425-.096.843-.189 1.255-.279a112.205 112.205 0 01-1.864 5.419c-.333.892-.68 1.785-1.04 2.675zM62.23 51.61c.177-.426.404-.835.678-1.22.348-.488.758-.92 1.22-1.283.459-.36.973-.65 1.528-.859a4.814 4.814 0 011.708-.31c.228 0 .418.024.562.073a.76.76 0 01.293.164c.067.066.115.141.145.229.037.11.056.231.056.362 0 .45-.1.89-.295 1.308-.2.429-.478.813-.826 1.142-.347.33-.761.597-1.23.795a3.814 3.814 0 01-1.487.293c-.462 0-.931-.08-1.396-.238a4.48 4.48 0 01-.957-.456z"/><path class="st0" d="M93.199 41.604a2.256 2.256 0 00-.633-.732 1.7 1.7 0 00-1.041-.328c-.212 0-.418.037-.614.11a1.704 1.704 0 00-.933.83 1.635 1.635 0 00-.167.672c-.009.3.026.565.104.794.073.215.173.415.295.593.11.161.232.315.365.455.099.105.19.215.274.332a1.7 1.7 0 01.188.341c.04.097.06.225.06.38 0 .124-.02.291-.062.497a8.89 8.89 0 01-.407 1.391 2.963 2.963 0 01-.24.5c-.322.528-.21.88-.06 1.083.18.246.454.38.772.38.26 0 .503-.08.721-.242.188-.138.36-.341.524-.621.141-.24.276-.52.401-.83.121-.298.237-.627.346-.978.106-.342.2-.689.28-1.031.08-.346.141-.678.184-.99.045-.327.067-.606.067-.851 0-.275-.033-.57-.1-.874a3.316 3.316 0 00-.324-.88zM111.388 51.22a1.008 1.008 0 00-.621-.193c-.148 0-.304.03-.478.09-1.339.496-2.689 1.023-4.02 1.572a35.095 35.095 0 00-3.579 1.716 11.89 11.89 0 00-.214-.22l-.358-.359-.12-.12c-.188-.18-.396-.367-.633-.568a29.86 29.86 0 01-.694-.607 18.29 18.29 0 01-.703-.667 5.92 5.92 0 01-.583-.675 3.536 3.536 0 01-.392-.668 1.421 1.421 0 01-.129-.582c0-.273.059-.528.18-.78.125-.264.295-.5.504-.704.21-.204.453-.371.723-.496.257-.119.513-.177.781-.177.264 0 .29.05.29.278 0 .12-.024.23-.073.333-.07.15-.151.295-.24.431-.102.156-.202.305-.303.45a2.198 2.198 0 00-.295.586c-.072.25-.077.471-.02.672a1.1 1.1 0 00.302.506c.127.122.28.217.454.282.166.063.337.094.508.094.444 0 .72-.192.872-.354.156-.164.297-.37.42-.608a4.94 4.94 0 00.288-.7 5.72 5.72 0 00.188-.728c.047-.251.071-.488.071-.704 0-.746-.219-1.337-.65-1.755-.428-.414-1.013-.624-1.74-.624-.553 0-1.109.112-1.651.333a5.066 5.066 0 00-1.445.892c-.428.38-.78.827-1.046 1.33a3.576 3.576 0 00-.415 1.682c0 .386.072.768.215 1.136.135.344.312.682.529 1.005.21.313.452.62.72.915.263.288.533.565.802.823.268.258.534.508.796.75.246.225.47.445.665.653l.242.258c-.148.1-.3.203-.458.312-.34.234-.685.493-1.027.77-.342.277-.672.575-.983.886a7.504 7.504 0 00-.851 1.012 5.498 5.498 0 00-.605 1.125c-.161.411-.242.836-.242 1.263 0 .464.086.871.255 1.21.17.338.401.619.69.832.275.203.594.353.95.445.333.086.684.13 1.043.13.658 0 1.32-.135 1.97-.4a6.057 6.057 0 001.736-1.08 5.665 5.665 0 001.252-1.6 4.34 4.34 0 00.13-3.744 7.282 7.282 0 00-.567-1.048 31.87 31.87 0 011.384-.686c.647-.301 1.301-.59 1.943-.858a64.03 64.03 0 011.935-.772c.645-.245 1.271-.478 1.878-.699.265-.099.455-.23.584-.405a.843.843 0 00.175-.645.843.843 0 00-.34-.546zM99.37 61.717c-.167 0-.329-.018-.482-.054a1.234 1.234 0 01-.366-.147.61.61 0 01-.203-.195.452.452 0 01-.058-.246c0-.227.053-.464.157-.705.114-.266.27-.532.464-.79a6.89 6.89 0 01.697-.788c.268-.261.55-.513.839-.75.292-.237.581-.456.861-.65.132-.092.259-.18.38-.262.116.192.215.385.297.577.129.3.194.609.194.919 0 .315-.08.655-.238 1.012a4.195 4.195 0 01-.658 1.038 3.598 3.598 0 01-.92.766c-.32.185-.636.275-.964.275zM173.438 52.895a1.435 1.435 0 00-.752-.208 1.57 1.57 0 00-.729.187 1.74 1.74 0 00-.63.583 30.59 30.59 0 01-2.35 3.082 29.926 29.926 0 01-2.787 2.812 28.578 28.578 0 01-3.157 2.418 23.692 23.692 0 01-3.45 1.89 20.357 20.357 0 01-3.672 1.226 17.068 17.068 0 01-3.827.433c-.792 0-1.589-.064-2.37-.19a12.861 12.861 0 01-4.486-1.63c-.707-.416-1.4-.927-2.057-1.518a13.679 13.679 0 01-2.497-3.018 18.322 18.322 0 01-1.707-3.667 22.95 22.95 0 01-.97-4.088 30.215 30.215 0 01-.306-4.278c0-1.785.148-3.56.439-5.277.291-1.718.73-3.418 1.302-5.05a31.01 31.01 0 012.14-4.765 32.056 32.056 0 012.953-4.41 30.213 30.213 0 012.594-2.864 32.472 32.472 0 016.45-4.886 27.544 27.544 0 013.644-1.763 23.979 23.979 0 013.792-1.15c1.27-.27 2.557-.409 3.824-.409.452 0 .946.024 1.471.071.513.046 1.036.128 1.555.244.505.113.998.269 1.464.462.441.183.835.417 1.168.695.347.287.626.643.833 1.058.203.409.305.919.305 1.516 0 .496-.06.99-.182 1.471a9.645 9.645 0 01-.498 1.466c-.21.484-.455.967-.73 1.433-.283.482-.582.957-.887 1.413-.313.468-.626.925-.939 1.372-.318.454-.62.902-.907 1.343-.176.278-.257.556-.246.832.01.26.082.499.215.712.13.207.302.375.514.499.22.128.453.193.694.193.27 0 .662-.088 1.001-.508.322-.417.647-.89.97-1.416a25.899 25.899 0 001.81-3.525c.268-.637.505-1.273.706-1.893.203-.625.365-1.24.482-1.831.12-.603.18-1.167.18-1.675 0-.831-.137-1.576-.407-2.214a5.144 5.144 0 00-1.105-1.649 5.99 5.99 0 00-1.602-1.127 9.772 9.772 0 00-1.876-.684 13.675 13.675 0 00-2.009-.35c-.68-.067-1.35-.101-1.99-.101-1.437 0-2.878.137-4.283.408-1.399.27-2.788.656-4.13 1.148a28.75 28.75 0 00-3.924 1.785 32.15 32.15 0 00-3.643 2.33 34.747 34.747 0 00-3.296 2.77 35.52 35.52 0 00-2.895 3.105 35.166 35.166 0 00-3.296 4.755 34.378 34.378 0 00-2.438 5.176 32.653 32.653 0 00-1.512 5.507 32.155 32.155 0 00-.517 5.763c0 1.567.122 3.148.364 4.7a23.723 23.723 0 001.16 4.517 20.258 20.258 0 002.05 4.092 16.323 16.323 0 003.024 3.447 15.207 15.207 0 002.468 1.743c.852.48 1.738.88 2.633 1.194.897.313 1.824.545 2.755.691.93.145 1.878.22 2.818.22a19.95 19.95 0 003.587-.33 23.298 23.298 0 003.522-.94 25.34 25.34 0 003.357-1.466 26.296 26.296 0 003.1-1.916 35.688 35.688 0 004.223-3.59 49.212 49.212 0 003.638-4.037c.256-.309.407-.609.457-.912.05-.305.023-.583-.08-.826a1.264 1.264 0 00-.523-.601zM231.635 34.121c-.184-.138-.428-.208-.725-.208a1.883 1.883 0 00-.515.07c-1.157.295-2.45.612-3.835.939-1.128.267-2.392.542-3.766.82a115.003 115.003 0 00.863-3.162c.17-.667.33-1.33.47-1.967.141-.636.267-1.263.373-1.863.105-.59.188-1.162.249-1.697.06-.539.09-1.034.09-1.473a6.93 6.93 0 00-.055-.912 3.098 3.098 0 00-.207-.799 1.619 1.619 0 00-.461-.633 1.22 1.22 0 00-.793-.273c-.444 0-.887.226-1.316.672-.359.374-.719.875-1.07 1.49a20.958 20.958 0 00-1.01 2.047c-.33.76-.647 1.556-.945 2.366a69.44 69.44 0 00-.847 2.441 113.023 113.023 0 00-1.24 4.078l-.203.717-.023.084c-.913.154-1.864.305-2.855.454a217.52 217.52 0 01-3.52.497c-.444.055-.794.212-1.037.466-.252.262-.382.552-.388.86-.006.317.118.611.36.852.24.241.576.364.996.364a2.128 2.128 0 00.46-.053c1.105-.235 2.169-.463 3.19-.685.745-.162 1.477-.32 2.195-.474-.258 1.032-.5 2.074-.724 3.107a80.748 80.748 0 00-.731 3.802 60.488 60.488 0 00-.487 3.527 29.733 29.733 0 00-.173 2.87l-.143.272c-.17.317-.358.651-.563 1.003-.198.34-.421.698-.664 1.065-.235.353-.492.701-.764 1.034-.26.319-.543.622-.84.903-.289.273-.591.515-.898.72a4.342 4.342 0 01-.921.47 2.661 2.661 0 01-.909.162c-.243 0-.431-.049-.575-.149a1.197 1.197 0 01-.386-.45 2.462 2.462 0 01-.23-.76 6.829 6.829 0 01-.073-1.006c0-.293.012-.585.035-.867a15.75 15.75 0 01.335-2.202l.034-.152.02-.083c.018-.081.041-.173.067-.271.03-.11.057-.222.083-.335l.069-.311c.05-.26.053-.478.01-.677a1.27 1.27 0 00-.25-.543 1.196 1.196 0 00-.445-.344 1.287 1.287 0 00-.53-.112 1.434 1.434 0 00-1.298.858 4.362 4.362 0 00-.13.286l-.121.297-.104.248a3.711 3.711 0 01-.07.153 7.207 7.207 0 01-1.05 1.567c-.413.47-.893.869-1.427 1.187a4.668 4.668 0 01-.526.267 6.062 6.062 0 01-.622.23c-.21.065-.432.117-.657.156a3.855 3.855 0 01-.638.055c-.207 0-.405-.024-.59-.072a.99.99 0 01-.401-.2.985.985 0 01-.269-.373 1.609 1.609 0 01-.108-.64c0-.379.056-.76.166-1.135.113-.383.272-.753.473-1.101a5.76 5.76 0 01.72-.988c.276-.304.574-.568.887-.788a5.298 5.298 0 011.53-.723 6.345 6.345 0 011.774-.245c.444 0 .883.05 1.304.148.407.095.79.248 1.139.456.268.163.54.247.806.247.334 0 .623-.122.835-.353.193-.21.304-.459.332-.741a1.34 1.34 0 00-.19-.82c-.158-.273-.413-.478-.757-.61a7.104 7.104 0 00-1.345-.348 9.051 9.051 0 00-1.418-.11c-.951 0-1.89.122-2.791.364a9.146 9.146 0 00-2.553 1.126c-.464.295-.909.65-1.322 1.056a7.952 7.952 0 00-1.096 1.34 7.169 7.169 0 00-.759 1.55c-.045.133-.068.269-.103.403l-.085.161c-.166.317-.351.65-.555 1-.2.343-.425.7-.668 1.062-.238.353-.497.702-.771 1.036-.26.32-.542.623-.839.904a6.86 6.86 0 01-.899.72 4.338 4.338 0 01-.921.47 2.66 2.66 0 01-.909.162c-.19 0-.333-.038-.434-.117-.129-.1-.229-.23-.306-.394a2.762 2.762 0 01-.242-.865 7.295 7.295 0 01-.043-1.112c.013-.402.048-.818.105-1.237.058-.438.118-.87.18-1.297.063-.432.12-.852.172-1.26.055-.421.083-.822.083-1.189a7.59 7.59 0 00-.14-1.439 4.454 4.454 0 00-.497-1.367 3.031 3.031 0 00-.999-1.055c-.43-.276-.966-.416-1.594-.416-.552 0-1.07.105-1.537.312-.449.2-.866.464-1.238.784-.366.313-.701.671-.997 1.064-.289.383-.552.776-.78 1.17-.392.677-.75 1.407-1.068 2.172a33.24 33.24 0 00-.843 2.256c-.098.295-.192.585-.28.868a242.615 242.615 0 01-.113-3.553c.639-1.29 1.283-2.579 1.932-3.866.673-1.337 1.336-2.68 1.97-3.993.638-1.32 1.27-2.68 1.88-4.04a84.345 84.345 0 002.578-6.46c.301-.843.6-1.734.888-2.65.286-.91.565-1.859.83-2.82.265-.961.5-1.92.702-2.85.202-.935.365-1.858.484-2.742.12-.892.181-1.733.181-2.5 0-.287-.013-.595-.038-.916a7.4 7.4 0 00-.144-.981 5.541 5.541 0 00-.298-.948 3.033 3.033 0 00-.541-.863 2.553 2.553 0 00-.837-.613 2.73 2.73 0 00-1.143-.227 3.23 3.23 0 00-1.448.364 5.965 5.965 0 00-1.344.945c-.426.39-.844.853-1.244 1.38a15.038 15.038 0 00-1.122 1.717 32.069 32.069 0 00-1.946 4.154 47.253 47.253 0 00-1.51 4.626 58.457 58.457 0 00-1.115 4.973 78.364 78.364 0 00-.752 5.186 88.861 88.861 0 00-.428 5.277c-.09 1.757-.136 3.515-.136 5.225 0 1.92.047 3.814.14 5.63.094 1.816.244 3.577.445 5.234.044.352.2.642.45.84.24.19.51.285.804.285.319 0 .623-.11.906-.326.293-.226.484-.558.57-.99a30.851 30.851 0 01.613-2.422c.15-.515.322-1.065.513-1.637.19-.57.402-1.148.633-1.721.23-.571.483-1.136.752-1.677.267-.537.55-1.035.842-1.478.136-.2.302-.427.494-.673.181-.23.385-.448.606-.647.212-.19.44-.353.677-.483.2-.109.4-.162.607-.162.227 0 .34.08.405.139.15.137.268.3.362.501.101.218.175.457.22.71.046.268.07.505.07.703 0 .604-.039 1.226-.115 1.849-.08.644-.146 1.302-.195 1.954-.05.664-.055 1.333-.016 1.987.04.685.19 1.364.443 2.019.095.247.215.48.355.692.149.225.328.424.533.59.21.17.454.305.726.4.271.095.576.142.907.142.783 0 1.518-.142 2.182-.423a7.198 7.198 0 001.796-1.093c.533-.443 1.03-.955 1.475-1.524.334-.427.644-.869.94-1.315.13.21.274.403.446.566.301.284.657.497 1.06.634.385.131.8.198 1.235.198.614 0 1.24-.083 1.86-.245a8.527 8.527 0 001.78-.689 8.074 8.074 0 001.708-1.198c-.01.2-.016.401-.016.604 0 .518.046 1.036.138 1.542.096.532.27 1.016.516 1.44.26.443.615.807 1.057 1.08.451.28 1.018.423 1.685.423.783 0 1.517-.142 2.182-.423a7.196 7.196 0 001.796-1.093 10 10 0 001.475-1.524c.342-.437.66-.89.961-1.348.074.425.152.854.262 1.29a13.1 13.1 0 00.501 1.581c.2.513.44 1 .714 1.449a5.7 5.7 0 00.985 1.217c.378.351.808.633 1.275.838.481.21 1.022.317 1.607.317.5 0 1.013-.083 1.523-.247.5-.16 1.002-.393 1.493-.692.483-.294.967-.654 1.44-1.069.472-.415.932-.889 1.367-1.41a24.55 24.55 0 001.916-2.635 42.104 42.104 0 002.006-3.561c.099-.196.148-.392.148-.584a1.19 1.19 0 00-.11-.517 1.034 1.034 0 00-.332-.398.901.901 0 00-.525-.172c-.216 0-.618.08-.883.608a38.473 38.473 0 01-1.907 3.482c-.606.966-1.214 1.798-1.81 2.473-.741.848-1.478 1.513-2.19 1.977-.669.435-1.307.656-1.897.656-.321 0-.6-.078-.853-.24a2.822 2.822 0 01-.752-.719 5.282 5.282 0 01-.616-1.118 12.488 12.488 0 01-.473-1.387 15.805 15.805 0 01-.427-2.16 17.883 17.883 0 01-.136-2.1 92.726 92.726 0 003.109-7.447c.908-2.47 1.75-4.987 2.504-7.485 1.67-.371 3.212-.72 4.628-1.048 1.494-.346 2.888-.668 4.181-.965.305-.071.534-.186.7-.353.24-.239.29-.485.29-.648a.815.815 0 00-.345-.66zm-12.213 2.266c.174-.647.35-1.282.526-1.906.245-.864.49-1.69.734-2.48.244-.786.485-1.53.722-2.228a46.1 46.1 0 01.682-1.883c.178-.458.346-.867.506-1.232.097-.222.19-.425.279-.608-.025.542-.08 1.132-.168 1.76a38.64 38.64 0 01-.492 2.761 64.14 64.14 0 01-.705 2.94c-.238.9-.485 1.782-.735 2.627-.29.056-.582.11-.88.164l-.47.085zm-2.196 9.955c.107-.638.225-1.289.35-1.945.192-1.001.407-2.034.64-3.072.212-.943.434-1.883.66-2.798.425-.096.843-.189 1.255-.279a112.14 112.14 0 01-1.864 5.419c-.333.892-.68 1.785-1.041 2.675zm-37.434.904c.016-1.747.073-3.513.17-5.266.116-2.104.318-4.214.598-6.27.28-2.054.665-4.092 1.143-6.057.476-1.96 1.08-3.87 1.795-5.674a28.936 28.936 0 011.204-2.637c.27-.525.57-1.057.891-1.583.315-.519.646-.993.984-1.41.325-.402.656-.732.983-.98.269-.204.523-.308.756-.308a.55.55 0 01.31.078c.107.07.194.159.268.272.084.13.156.285.21.462.063.199.112.402.146.603.035.206.057.409.066.6.01.206.015.385.015.536 0 .397-.022.819-.065 1.254a27.725 27.725 0 01-.402 2.67c-.09.44-.18.861-.273 1.262-.092.402-.182.777-.267 1.124-.086.345-.163.644-.232.897a55.87 55.87 0 01-.598 2.168 105.16 105.16 0 01-.64 2.07 88.091 88.091 0 01-.63 1.889c-.205.593-.4 1.129-.585 1.609a69.023 69.023 0 01-1.537 3.7 167.088 167.088 0 01-1.702 3.669 259.118 259.118 0 01-1.776 3.635c-.278.559-.557 1.122-.832 1.687z"/><path class="st1" d="M31.338 93.647V80.261a1.23 1.23 0 011.248-1.248c.703 0 1.27.544 1.27 1.248v5.445h5.877v-5.445a1.23 1.23 0 011.248-1.248c.703 0 1.27.544 1.27 1.248v13.386c0 .704-.567 1.248-1.27 1.248a1.23 1.23 0 01-1.248-1.248v-5.445h-5.876v5.445c0 .704-.568 1.248-1.27 1.248a1.23 1.23 0 01-1.249-1.248zM54.054 91.152H48.54l-1.111 2.95c-.204.499-.681.793-1.18.793-.159 0-.295-.022-.431-.067a1.288 1.288 0 01-.75-1.634l5.015-13.364c.204-.5.704-.817 1.203-.795.522-.022.999.295 1.203.795l5.014 13.364a1.288 1.288 0 01-.749 1.634 1.228 1.228 0 01-.43.067c-.5 0-.976-.294-1.158-.794l-1.112-2.95zm-.93-2.496l-1.838-4.879-1.838 4.879h3.676zM65.924 88.724h-2.79v4.923a1.259 1.259 0 01-2.519 0V80.261c0-.704.567-1.248 1.248-1.248h4.061a4.87 4.87 0 014.878 4.878c0 2.654-2.178 4.833-4.878 4.833zm-2.79-2.519h2.79a2.348 2.348 0 002.36-2.314c-.023-1.316-1.044-2.36-2.36-2.36h-2.79v4.674zM79.154 88.724h-2.79v4.923a1.259 1.259 0 01-2.519 0V80.261c0-.704.567-1.248 1.248-1.248h4.061a4.87 4.87 0 014.879 4.878c0 2.654-2.179 4.833-4.879 4.833zm-2.79-2.519h2.79a2.348 2.348 0 002.36-2.314c-.022-1.316-1.043-2.36-2.36-2.36h-2.79v4.674zM97.899 81.145l-4.652 6.376v6.126A1.23 1.23 0 0192 94.895a1.26 1.26 0 01-1.248-1.248v-6.126l-4.606-6.376a1.194 1.194 0 01.25-1.724c.567-.408 1.339-.295 1.724.272l3.88 5.31 3.88-5.31c.431-.567 1.203-.68 1.747-.272.545.409.659 1.18.273 1.724zM109.86 93.647c0 .681-.567 1.248-1.225 1.248a1.244 1.244 0 01-1.248-1.248V80.465v-.023a1.226 1.226 0 01.5-1.044c.566-.385 1.338-.272 1.724.272l7.329 10.143v-9.348c0-.658.544-1.225 1.225-1.225s1.248.567 1.248 1.225v13.182a1.26 1.26 0 01-1.248 1.248 1.23 1.23 0 01-.93-.453.61.61 0 01-.114-.136l-7.26-10.075v9.416zM123.387 93.647V80.261a1.23 1.23 0 011.248-1.248h7.42a1.26 1.26 0 011.248 1.248c0 .703-.59 1.27-1.248 1.27h-6.15v4.153h5.287c.68 0 1.248.59 1.248 1.247 0 .704-.567 1.271-1.248 1.271h-5.286v4.175h6.149c.657 0 1.248.567 1.248 1.27 0 .681-.59 1.248-1.248 1.248h-7.352c-.045 0-.045-.022-.045-.022l-.023.022a1.244 1.244 0 01-1.248-1.248zM157.765 80.896l-5.56 13.228a.592.592 0 01-.113.204l-.023.023a.594.594 0 01-.113.136c0 .046-.023.046-.023.068a.69.69 0 00-.159.113h-.022c-.069.046-.114.114-.204.137h-.023s-.023 0-.023.023a.69.69 0 00-.181.045h-.046c-.068.022-.136.022-.227.022-.068 0-.136 0-.204-.022h-.068c-.068-.023-.114-.045-.159-.045-.022-.023-.022-.023-.045-.023-.091-.023-.159-.091-.204-.137h-.023c-.068-.045-.114-.09-.16-.113-.022-.022-.022-.022-.044-.068-.023-.045-.068-.09-.09-.136-.046 0-.046-.023-.046-.023-.046-.045-.069-.136-.091-.204l-2.973-7.034-2.972 7.034a1.815 1.815 0 01-.09.204c-.023 0-.023.023-.023.023l-.136.136c0 .046-.023.046-.023.068a.594.594 0 00-.137.113h-.044c-.069.046-.137.114-.182.137h-.023s-.023 0-.023.023a.35.35 0 00-.181.045h-.068c-.068.022-.136.022-.204.022-.068 0-.16 0-.227-.022h-.069c-.067-.023-.113-.045-.158-.045-.023-.023-.023-.023-.046-.023a.642.642 0 01-.204-.137h-.023c-.068-.045-.09-.09-.158-.113-.023-.022-.023-.022-.046-.068-.045-.045-.068-.09-.113-.136v-.023c-.045-.045-.068-.136-.113-.204l-5.582-13.228c-.25-.613.023-1.361.68-1.611a1.217 1.217 0 011.612.658l4.447 10.505 2.927-6.966c.204-.499.68-.771 1.18-.771.476 0 .952.272 1.18.771l2.926 6.966 4.425-10.505c.272-.635.998-.93 1.656-.658.613.25.908.998.636 1.61zM179.712 81.145l-4.652 6.376v6.126a1.23 1.23 0 01-1.248 1.248 1.26 1.26 0 01-1.248-1.248v-6.126l-4.606-6.376a1.194 1.194 0 01.25-1.724c.567-.408 1.339-.295 1.724.272l3.88 5.31 3.88-5.31c.431-.567 1.203-.68 1.747-.272.545.409.659 1.18.273 1.724zM182.37 93.647V80.261a1.23 1.23 0 011.248-1.248H191.037a1.26 1.26 0 011.248 1.248c0 .703-.59 1.27-1.248 1.27h-6.149v4.153h5.287c.68 0 1.248.59 1.248 1.247 0 .704-.568 1.271-1.248 1.271h-5.287v4.175h6.149c.658 0 1.248.567 1.248 1.27 0 .681-.59 1.248-1.248 1.248h-7.352c-.045 0-.045-.022-.045-.022l-.022.022a1.244 1.244 0 01-1.248-1.248zM203.927 91.152h-5.514l-1.111 2.95c-.204.499-.681.793-1.18.793-.159 0-.295-.022-.431-.067a1.288 1.288 0 01-.75-1.634l5.015-13.364c.205-.5.704-.817 1.203-.795.522-.022.999.295 1.203.795l5.014 13.364a1.288 1.288 0 01-.749 1.634 1.228 1.228 0 01-.43.067c-.5 0-.976-.294-1.158-.794l-1.112-2.95zm-.93-2.496l-1.838-4.879-1.838 4.879h3.676zM220.993 93.012a1.253 1.253 0 01-.794 1.589c-.09.022-.272.067-.5.067h-.022c-.227 0-.567-.045-.885-.25-.295-.18-.545-.476-.726-.793-.318-.658-.477-1.475-.477-2.723-.022-.43-.113-.726-.272-.976-.136-.25-.408-.476-.68-.658a4.298 4.298 0 00-1.27-.544h-2.679v4.923c0 .681-.567 1.248-1.27 1.248a1.244 1.244 0 01-1.248-1.248V80.261a1.23 1.23 0 011.248-1.248h4.062c2.7 0 4.855 2.178 4.855 4.878 0 1.498-.68 2.814-1.77 3.721.295.227.567.5.794.84.454.657.75 1.497.75 2.45-.024.68.044 1.112.09 1.339.363.113.658.385.794.771zm-3.177-9.121a2.338 2.338 0 00-2.337-2.36h-2.79v4.674h2.79c1.294 0 2.337-1.043 2.337-2.314z"/><g><path class="st1" d="M237.556 87.27H225.23a1 1 0 010-2h12.325a1 1 0 010 2z"/></g><g><path class="st1" d="M26.096 87.27H13.771a1 1 0 010-2h12.325a1 1 0 010 2z"/></g><g><circle class="st1" cx="264.935" cy="65.139" r=".506"/><path class="st0" d="M240.584 34.253a4.23 4.23 0 01-.144.06c.054-.02.096-.04.144-.06zM239.142 39.018zM250.101 32.392l.027.033-.027-.033zM249.127 31.16c-.147-.19-.294-.382-.444-.582.15.2.297.391.443.583zM239.273 34.588zM239.27 34.592a68.27 68.27 0 01-.024-.725c.013.46.013.886.015 1.316 0-.198.003-.385 0-.59h.009zM239.262 36.034c-.004.294-.012.572-.02.853.008-.28.017-.56.02-.853zM268.25 65.564a727.31 727.31 0 00-5.874-16.759c-2.71-7.403-5.528-9.137-9.547-13.334 0 0-.635.086-1.453.3-.204.053-.42.114-.64.184-.22.07-.444.148-.665.236-.212.083-.42.176-.621.278a5.785 5.785 0 01-.333 1.772c-.466 1.256-1.338 2.14-2.454 2.488a3.435 3.435 0 01-1.028.156c-1.285 0-2.57-.708-3.53-1.876-1.533.368-3.054 1.264-3.054 1.264v-.004l-.012.006c.017-.182.031-.378.047-.566-.515 6.151-1.795 9.227.762 16.947a727.175 727.175 0 005.814 16.78 3.195 3.195 0 003.489 2.077 51.182 51.182 0 0017.656-6.154 3.195 3.195 0 001.444-3.795zm-3.665 1.115a68.763 68.763 0 01-15.42 5.368l-1.967.431-4.667-13.393 6.145-1.7a58.39 58.39 0 007.177-2.5l5.93-2.51 4.668 13.394-1.866.91z"/><path class="st2" d="M260.482 55.375a1.859 1.859 0 01-.942-.93l-3.622 1.52a56.612 56.612 0 01-6.617 2.304l-3.725 1.044c.109.443.054.903-.16 1.314a1.86 1.86 0 01-.988.883l2.886 8.278a1.879 1.879 0 011.98 1.1l.175-.04a66.215 66.215 0 0014.138-4.921l.212-.102a1.878 1.878 0 01.87-2.093l-2.886-8.279c-.435.137-.898.11-1.32-.078z"/><path class="st2" d="M255.853 54.885a58.39 58.39 0 01-7.177 2.5l-6.145 1.7 4.667 13.393 1.967-.431a68.763 68.763 0 0015.42-5.368l1.866-.91-4.668-13.394-5.93 2.51zm4.895-1.148a.506.506 0 11.333.956.506.506 0 01-.333-.956zm-16.962 6.448a.506.506 0 11.956-.334.506.506 0 01-.956.334zm4.284 11.368a.506.506 0 11-.333-.956.506.506 0 01.333.956zm13.94-16.547l3.1 8.895-.138.066a1.536 1.536 0 00-.785 1.892l.05.144-.482.232a66.404 66.404 0 01-14.21 4.947l-.467.105-.05-.144a1.537 1.537 0 00-1.79-.994l-.149.033-3.1-8.895.175-.05c.412-.116.75-.388.948-.768.199-.38.23-.813.09-1.218l-.06-.172 4.067-1.139a56.4 56.4 0 006.577-2.29l3.95-1.657.059.171c.141.405.435.724.826.899.392.174.826.178 1.22.013l.168-.07z"/><path class="st3" d="M235.943 9.202c1.964-.684 2.97-.38 2.97-.38l-2.028-4.19c-.138-.284-.486-.44-.863-.381a9.676 9.676 0 00-3.222 1.121c-.332.188-.508.528-.439.836l1.011 4.53.005.013s.601-.864 2.566-1.549z"/><path d="M238.556 9.52l.058.003.054.177c.236-.252.35-.576.245-.879 0 0-1.006-.303-2.97.381s-2.566 1.549-2.566 1.549c.106.302.397.484.739.536l-.068-.173a6.27 6.27 0 014.508-1.594z" fill="#b7b08d"/><path class="st3" d="M249.406 31.52h-.001l-.027.02a4.405 4.405 0 01-1.258.583 6.815 6.815 0 011.335 3.95 9.702 9.702 0 013.064-.926h.002l.308.324a51.328 51.328 0 01-2.7-3.046l-.027-.033c-.318-.39-.643-.799-.975-1.231.094.122.186.24.28.358z"/><path class="st5" d="M251.376 35.77zM250.736 35.955z"/><path class="st3" d="M239.05 40.269l.04-.441a9.728 9.728 0 012.776-1.137 6.792 6.792 0 01-.986-1.955 6.833 6.833 0 01-.304-1.977 4.482 4.482 0 01-1.265.29l-.035.001-.004-.455c0 .043 0 .035-.002-.003l-.01.002c.004.204 0 .39.001.59.001.286.004.576 0 .85-.002.294-.011.572-.019.853-.007.248-.011.505-.021.743-.02.48-.047.943-.079 1.388-.016.239-.037.462-.056.69-.016.189-.03.385-.047.567l.012-.006z"/><path class="st5" d="M240.598 34.249c-.004 0-.01.002-.014.004-.048.02-.09.04-.144.06.058-.021.106-.043.158-.064z"/><path class="st3" d="M239.272 34.595l.001-.007c.283-.032.529-.085.75-.144.023-.007.048-.011.071-.018.19-.054.349-.114.49-.173l.014-.005c.139-1.944 1.152-3.58 2.768-4.084 1.545-.482 3.23.186 4.44 1.568a4.762 4.762 0 001.315-.576l.005.005c-.146-.192-.293-.383-.443-.583-5.959-7.976-9.55-19.35-10.015-20.878a25.915 25.915 0 01-.054-.177l-.058-.003a6.27 6.27 0 00-4.508 1.594l.068.173c.585 1.487 4.84 12.628 5.13 22.58a68.27 68.27 0 00.026.728z"/><path class="st1" d="M252.521 35.147h-.002a9.702 9.702 0 00-3.064.925 6.815 6.815 0 00-1.335-3.949c.346-.096.78-.266 1.258-.583l.027-.02h.001l-.28-.36-.005-.004a4.762 4.762 0 01-1.315.576c-1.21-1.382-2.895-2.05-4.44-1.568-1.616.504-2.63 2.14-2.768 4.084-.052.022-.1.044-.158.065-.104.04-.22.077-.346.113-.023.007-.048.011-.072.018a5.13 5.13 0 01-.749.144l-.001.007.004.455.035-.001a4.482 4.482 0 001.265-.29c.006.644.096 1.31.304 1.977.23.734.574 1.385.986 1.955a9.728 9.728 0 00-2.776 1.136l-.04.442v.004h.001s1.521-.896 3.053-1.264c.96 1.168 2.246 1.876 3.531 1.876.345 0 .69-.05 1.028-.156 1.116-.348 1.987-1.232 2.454-2.488a5.785 5.785 0 00.333-1.772c.2-.102.409-.195.62-.278.222-.088.446-.167.666-.236a13.628 13.628 0 012.092-.483h.001l-.308-.325zm-11.163 1.44c-.827-2.649.141-5.317 2.157-5.946.291-.09.588-.134.886-.134 1.767 0 3.563 1.53 4.271 3.798.404 1.295.395 2.631-.024 3.762-.411 1.108-1.169 1.884-2.134 2.184-2.016.63-4.33-1.014-5.156-3.664zM260.621 55.063a1.524 1.524 0 01-.826-.899l-.06-.171-3.95 1.657a56.402 56.402 0 01-6.576 2.29l-4.068 1.14.06.171c.141.405.11.838-.089 1.218-.198.38-.536.652-.948.769l-.175.049 3.1 8.895.149-.033a1.537 1.537 0 011.79.994l.05.144.466-.105a66.465 66.465 0 0014.21-4.947l.483-.232-.05-.144a1.536 1.536 0 01.785-1.892l.137-.066-3.1-8.895-.167.07a1.527 1.527 0 01-1.22-.013zm4.067 8.669a1.878 1.878 0 00-.869 2.093l-.212.102a66.215 66.215 0 01-14.138 4.922l-.175.039a1.879 1.879 0 00-1.98-1.1l-2.886-8.278a1.86 1.86 0 00.987-.883c.215-.41.27-.871.16-1.314l3.726-1.044a56.61 56.61 0 006.617-2.304l3.622-1.52c.19.415.519.742.942.93.423.188.886.215 1.321.078l2.885 8.279z"/><path class="st1" d="M244.43 60.496a.506.506 0 10-.333-.956.506.506 0 00.333.956zM247.737 70.597a.506.506 0 10.334.956.506.506 0 00-.334-.956zM261.081 54.693a.506.506 0 10-.333-.956.506.506 0 00.333.956z"/><path class="st3" d="M248.648 38.067c.42-1.131.428-2.467.024-3.762-.708-2.267-2.504-3.798-4.271-3.798-.298 0-.595.043-.886.134-2.016.63-2.984 3.297-2.157 5.946.827 2.65 3.14 4.293 5.156 3.664.965-.3 1.723-1.076 2.134-2.184z"/></g><g><circle class="st1" cx="55.772" cy="21.568" r="3.243"/></g><g><circle class="st1" cx="204.799" cy="3.244" r="3.243"/></g><circle class="st1" cx="80.582" cy="105.406" r="3.243"/><g><circle class="st1" cx="9.555" cy="75.244" r="3.243"/></g><g><path class="st1" d="M120.06 20.755a3.75 3.75 0 01-3.684-3.094 3.748 3.748 0 013.037-4.336 3.712 3.712 0 012.797.62 3.72 3.72 0 011.539 2.417 3.718 3.718 0 01-.62 2.797 3.72 3.72 0 01-3.069 1.596zm.008-6.488a2.748 2.748 0 00-2.708 3.22 2.728 2.728 0 001.129 1.771 2.72 2.72 0 002.05.455c.721-.128 1.35-.528 1.77-1.128s.582-1.328.456-2.05a2.728 2.728 0 00-1.128-1.77 2.724 2.724 0 00-1.569-.498zM114.491 17.508l-2.927.677c-.319.073-.538.457-.437.769a.639.639 0 00.77.436l2.926-.676c.32-.074.538-.457.437-.77a.639.639 0 00-.769-.436zM119.27 22.582l-.013 2.828c-.002.327.288.64.625.625.34-.015.623-.274.625-.625l.013-2.828c.002-.327-.288-.64-.625-.625-.34.015-.623.275-.625.625zM124.779 19.758l3.04 1.235c.304.124.7-.133.769-.436.083-.363-.111-.637-.437-.769l-3.04-1.235c-.303-.123-.7.134-.769.437-.082.362.112.636.437.768zM124.385 12.625l1.873-1.847c.233-.23.247-.657 0-.884a.637.637 0 00-.884 0l-1.873 1.847c-.234.23-.248.657 0 .884.25.23.635.245.884 0zM118.937 11.649l-1.037-2.55c-.064-.157-.135-.284-.287-.373a.638.638 0 00-.482-.063c-.29.094-.568.444-.436.769l1.037 2.549c.064.157.135.285.287.373a.638.638 0 00.482.063c.291-.094.568-.444.436-.768z"/></g><g><path class="st1" d="M253.934 94.054c-2.064 0-3.743-1.679-3.743-3.743s1.679-3.743 3.743-3.743 3.743 1.68 3.743 3.743-1.68 3.743-3.743 3.743zm0-6.486c-1.513 0-2.743 1.23-2.743 2.743s1.23 2.743 2.743 2.743 2.743-1.23 2.743-2.743-1.23-2.743-2.743-2.743zM254.413 84.797l-.158-3c-.018-.326-.276-.641-.625-.625-.324.014-.644.275-.625.625l.158 3c.017.326.275.64.625.625.324-.015.644-.276.625-.625zM248.642 88.577l-2.783-.503c-.32-.059-.689.087-.769.436-.07.306.093.707.437.769l2.783.504c.32.058.69-.087.769-.437.07-.305-.093-.706-.437-.769zM250.435 94.432l-1.744 2.78c-.174.277-.068.7.225.855.307.163.669.072.855-.224.58-.927 1.162-1.853 1.743-2.78.174-.277.068-.7-.224-.855a.638.638 0 00-.855.224zM257.476 95.285l1.494 2.165c.093.136.21.243.373.288.15.04.35.022.482-.063.267-.173.423-.568.224-.856l-1.494-2.165a.669.669 0 00-.373-.287.639.639 0 00-.482.063c-.267.172-.423.567-.224.855zM259.517 90.113l2.69-.579c.32-.069.537-.46.437-.769a.64.64 0 00-.769-.436l-2.69.58c-.32.068-.537.46-.437.768a.64.64 0 00.769.436z"/></g><g><path class="st1" d="M6.445 44.49a3.747 3.747 0 01-.27-5.286 3.747 3.747 0 015.287-.27c1.532 1.382 1.653 3.754.27 5.286s-3.754 1.653-5.287.27zm4.347-4.814a2.746 2.746 0 00-3.875.198 2.746 2.746 0 00.199 3.874 2.746 2.746 0 003.874-.198 2.746 2.746 0 00-.198-3.874zM13.004 37.94l1.893-2.334c.206-.253.225-.66-.045-.882-.25-.206-.662-.227-.883.045l-1.892 2.333c-.206.254-.225.66.045.883.25.206.662.227.882-.045zM6.188 36.88l-1.729-2.24c-.199-.258-.57-.397-.863-.19-.256.18-.405.586-.191.862l1.728 2.24c.2.257.57.396.863.19.257-.18.405-.586.192-.863zM3.595 42.426l-3.157.895c-.315.09-.52.475-.406.785.119.327.448.502.785.407l3.157-.895c.315-.09.52-.475.406-.785a.638.638 0 00-.785-.407zM8.25 47.777l-.342 2.609a.669.669 0 00.085.463c.083.131.244.25.4.276.313.051.694-.138.74-.484l.34-2.609a.669.669 0 00-.084-.463.639.639 0 00-.4-.276c-.313-.051-.694.138-.74.484zM13.23 45.306l2.386 1.373c.284.163.707.018.84-.278a.64.64 0 00-.279-.84l-2.385-1.372c-.284-.163-.707-.018-.84.278a.64.64 0 00.279.84z"/></g></svg>