<svg version="1.1" id="Layer_1" xmlns="http://www.w3.org/2000/svg" x="0" y="0" viewBox="0 0 229.395 167.443" xml:space="preserve"><style>.st0{fill:#121212}.st1{fill:#f7c23e}</style><path class="st0" d="M170.433 115.853l-8.964-5.95 10.124-27.664a12.404 12.404 0 009.463-.747 12.405 12.405 0 006.272-7.664l11.89-42.313-17.88-6.543-17.298 40.67a12.255 12.255 0 00.033 9.758 12.245 12.245 0 006.683 6.533l-10.123 27.663-10.688-1.24a1.442 1.442 0 00-1.606 1.125 1.442 1.442 0 00.929 1.728l19.84 7.26a1.442 1.442 0 001.825-.719c.349-.69.143-1.47-.5-1.897zm-5.542-40.808a11.372 11.372 0 01-.03-9.055l16.966-39.89 16.31 5.969-11.666 41.518a11.358 11.358 0 01-5.821 7.112 11.357 11.357 0 01-9.173.561 11.372 11.372 0 01-6.586-6.215zm5.247 42.303c-.039.077-.258.455-.724.285l-19.84-7.26c-.465-.171-.389-.602-.368-.686.02-.085.145-.504.637-.446l10.79 1.253c.091.01.18.042.256.093l9.05 6.008c.413.274.239.675.2.753z"/><path class="st0" d="M228.065 128.451l-10.706-1.063-4.001-29.185a12.404 12.404 0 008.012-5.089 12.405 12.405 0 001.957-9.709l-9.298-42.956-18.862 2.586 3.748 44.035a12.255 12.255 0 004.596 8.608 12.245 12.245 0 008.964 2.646l4 29.185-10.024 3.905c-.72.28-1.087.999-.893 1.747a1.442 1.442 0 001.63 1.092l20.931-2.87a1.442 1.442 0 001.276-1.49 1.443 1.443 0 00-1.33-1.442zm-23.997-33.468a11.372 11.372 0 01-4.265-7.988l-3.677-43.193 17.207-2.358 9.123 42.15c.684 3.16.04 6.36-1.815 9.01a11.357 11.357 0 01-7.844 4.788 11.372 11.372 0 01-8.729-2.41zm24.436 34.927c.002.087-.015.523-.506.59l-20.931 2.87c-.491.067-.625-.349-.647-.433-.022-.084-.107-.513.354-.693l10.123-3.943a.576.576 0 01.27-.037l10.81 1.074c.492.049.526.485.527.572z"/><path class="st1" d="M176.852 42.744l-9.83 23.348c-2.25 5.346.105 11.384 5.163 13.235 5.147 1.883 10.932-1.352 12.56-7.025l8.48-29.558h-16.373zM214.41 55.168h-15.393l2.744 30.905c.513 5.777 5.42 10.01 10.756 9.28 5.43-.745 9.029-6.312 7.812-12.087l-5.92-28.098zM196.528 28.035s5.607-6.312 3.612-11.834c-1.995-5.521 4.774-6.163 5.707-.164.933 6-9.32 11.998-9.32 11.998zM201.619 40.104s.7-5.435 4.254-6.812c3.554-1.377.983-4.964-2.352-2.864s-1.902 9.676-1.902 9.676zM194.931 23.528s.792-6.648-3.007-9.339c-3.798-2.69.317-6.172 3.64-2.69 3.324 3.482-.633 12.029-.633 12.029z"/><path class="st0" d="M71.068 10.93c-3.014 0-5.467-2.452-5.467-5.465S68.054 0 71.068 0c3.013 0 5.465 2.451 5.465 5.465s-2.452 5.466-5.465 5.466zm0-10.214c-2.62 0-4.75 2.13-4.75 4.749 0 2.62 2.13 4.75 4.75 4.75 2.618 0 4.75-2.13 4.75-4.75-.001-2.619-2.132-4.75-4.75-4.75zM60.388 16.347c-1.648 0-2.989-1.34-2.989-2.989s1.34-2.989 2.99-2.989 2.988 1.341 2.988 2.99-1.34 2.988-2.989 2.988zm0-5.262c-1.254 0-2.273 1.02-2.273 2.273s1.02 2.274 2.273 2.274c1.254 0 2.273-1.02 2.273-2.274s-1.019-2.273-2.273-2.273zM188.226 104.256c-3.013 0-5.465-2.452-5.465-5.465s2.452-5.466 5.465-5.466c3.014 0 5.467 2.452 5.467 5.466s-2.453 5.465-5.467 5.465zm0-10.215a4.755 4.755 0 00-4.75 4.75c0 2.618 2.132 4.749 4.75 4.749 2.62 0 4.75-2.13 4.75-4.75 0-2.619-2.13-4.75-4.75-4.75zM193.488 111.066a2.992 2.992 0 01-2.989-2.99 2.992 2.992 0 012.99-2.989 2.992 2.992 0 012.988 2.99 2.992 2.992 0 01-2.989 2.989zm0-5.263a2.276 2.276 0 00-2.273 2.274 2.275 2.275 0 002.273 2.273 2.276 2.276 0 002.274-2.273 2.276 2.276 0 00-2.274-2.274zM5.465 122.224c-3.013 0-5.465-2.452-5.465-5.465s2.452-5.466 5.465-5.466 5.465 2.452 5.465 5.466-2.452 5.465-5.465 5.465zm0-10.215a4.755 4.755 0 00-4.75 4.75c0 2.618 2.131 4.749 4.75 4.749s4.75-2.13 4.75-4.75c0-2.619-2.131-4.75-4.75-4.75zM10.727 129.034a2.992 2.992 0 01-2.989-2.99c0-1.648 1.34-2.988 2.99-2.988s2.988 1.34 2.988 2.989a2.992 2.992 0 01-2.989 2.989zm0-5.263a2.276 2.276 0 00-2.273 2.274c0 1.253 1.02 2.273 2.273 2.273S13 127.298 13 126.045a2.275 2.275 0 00-2.273-2.274z"/><path class="st1" d="M43.146 49.837L40.283 52.7c-1.658 3.429-3.274 6.474-5.191 8.877-2.168 1.667-4.755 2.634-8.082 2.634h-2.441V22.594h4.323l2.863-2.863v-1.492H7.345l-2.863 2.863v1.492h4v41.617H7.346l-2.863 2.864v1.491H40.42l2.863-2.863 1.288-15.866h-1.425z"/><path class="st1" d="M64.771 32.75c-5.43 0-10.378 1.722-13.604 5.417-.511.436-.984.919-1.432 1.431-3.22 2.753-5.252 6.99-5.252 12.898 0 9.832 5.424 16.748 17.492 16.748 6.025 0 9.66-1.751 11.92-4.49.528-.44 1.006-.917 1.43-1.432 2.213-1.841 3.461-4.378 4.228-7.247l-1.22-.204-2.864 2.864c-.45 1.572-1.091 2.933-1.877 4.105-1.458.924-3.176 1.44-5.16 1.44-6.516 0-7.971-5.329-7.998-13.207H76.69l2.863-2.864-1.418.002v-.002h1.418c.407-10.103-4.137-15.46-14.782-15.46zM60.5 43.53c0-2.996.227-5.134.66-6.62.047-.002.092-.009.14-.009 2.779 0 3.321 2.373 3.321 9.493v.46H60.5V43.53zm-.067 4.702v-.023h4.188v.018l-4.188.005z"/><path class="st1" d="M106.875 56.075l-2.863 2.863-.298 1.612c-.236 1.024-.547 1.95-.946 2.74a4.63 4.63 0 01-1.793.379c-2.374 0-2.983-2.17-2.983-6.17V37.51h5.951l2.864-2.863v-1.22h-8.815V21.562L85.38 24.68l-2.863 2.863v5.884h-.866l-2.863 2.863v1.22h3.729v21.36c0 8.407 4.813 10.373 11.527 10.373 2.524 0 4.468-.468 5.99-1.252.068-.034.134-.066.201-.102.144-.079.286-.158.422-.243 2.565-1.578 5.059-4.82 5.059-4.82l-.062.034c1.435-1.831 2.09-4.19 2.373-6.65l-1.152-.136zM115.143 16.34c-1.568 0-2.967.559-3.955 1.511l-.016-.024-3.007 3.028-.026.027-.01.009.001.001c-.791.835-1.274 1.945-1.274 3.262 0 2.576 2.035 4.204 3.594 4.746l2.848-2.644c.813.135 1.831.813 1.831 2.44 0 1.254-.457 2.591-1.472 3.98a25.39 25.39 0 01-1.971 1.43l.187.29-.187-.29-2.863 2.863.61.95c2.206-1.372 4.202-2.901 5.747-4.622.51-.462.989-.94 1.431-1.432 2.783-2.518 4.636-5.479 4.636-9.015 0-4.136-2.44-6.51-6.104-6.51zM146.943 54.786c0-4.726-2.088-7.41-4.897-9.115l2.863-2.683V32.614h-.745l-1.432 1.432a18 18 0 01-.401.73c-.165.047-.34.076-.54.076-.815 0-1.086-.204-1.9-.543-1.83-.813-3.864-1.56-6.847-1.56-2.901 0-5.39.756-7.342 2.095a.942.942 0 00-.224.104c-1.182.756-3.079 2.803-4.157 4.019-1.957 1.987-3.074 4.764-3.074 8.105 0 3.297 1.158 5.552 2.915 7.172h-.052l-2.863 2.863v12.137h.814l2.445-2.445c.159-.042.315-.063.47-.063.27 0 .882.27 1.287.542 2.578 1.288 4.882 1.966 8.137 1.966 2.529 0 4.752-.44 6.616-1.285h.044s.116-.057.312-.163c.717-.356 1.372-.78 1.967-1.267a20.658 20.658 0 004.514-4.535l-.038.018c1.368-1.83 2.128-4.234 2.128-7.226zm-19.8-17.259c.9-.301 1.998-.49 3.376-.49 4.598 0 7.956 2.358 10.375 8.003-1.668-.819-3.503-1.377-5.275-1.848-4.474-1.22-8.542-1.967-8.542-5.086 0-.197.033-.388.065-.579zm2.562 20.665c5.153 1.424 8.475 2.102 8.475 5.153 0 .34-.038.664-.106.975-1.018.356-2.299.57-3.945.57-5.368 0-9.403-2.228-11.933-9.82 2.153 1.538 4.899 2.404 7.51 3.122z"/><g><path class="st0" d="M31.755 18.24v1.491h-7.186v44.48h2.44c8.409 0 12.137-6.102 16.137-14.374h1.425l-1.288 15.866H7.345v-1.492h4.001v-44.48H7.345v-1.492h24.41zM64.771 32.75c10.645 0 15.189 5.356 14.782 15.46H60.432v2.644c0 8 1.423 13.425 8 13.425 5.018 0 8.409-3.187 9.9-8.408l1.22.204c-1.558 5.831-5.084 10.306-14.714 10.306-12.068 0-17.492-6.916-17.492-16.748 0-11.73 8-16.883 17.425-16.883zm2.713 14.103v-3.322c0-7.12-.543-9.493-3.322-9.493-2.374 0-3.663 2.305-3.663 9.493v3.322h6.985zM85.38 34.648h-3.729v-1.22h3.729V24.68l12.612-3.12v11.867h8.815v1.22h-8.815v22.85c0 4.001.61 6.171 2.983 6.171 3.255 0 5.29-2.983 5.9-7.594l1.152.135c-.61 5.29-2.848 10.171-11.12 10.171-6.714 0-11.527-1.966-11.527-10.374V34.648zM111.686 34.106c4.475-2.916 6.306-5.764 6.306-8.272 0-1.628-1.017-2.306-1.831-2.441l-2.848 2.644c-1.559-.543-3.594-2.17-3.594-4.746 0-2.984 2.44-4.95 5.424-4.95 3.663 0 6.104 2.373 6.104 6.51 0 5.152-3.934 9.085-8.95 12.204l-.611-.95zM121.11 54.244h.814c2.508 8.272 6.643 10.646 12.205 10.646 5.016 0 6.915-1.831 6.915-4.408 0-3.051-3.322-3.73-8.476-5.153-5.424-1.492-11.458-3.594-11.458-11.12 0-6.916 4.745-11.46 11.934-11.46 2.983 0 5.016.747 6.848 1.56.813.34 1.084.543 1.898.543 1.018 0 1.492-.543 2.374-2.238h.745v10.374h-.814c-2.44-6.238-5.898-8.814-10.713-8.814-4.475 0-6.305 1.83-6.305 3.932 0 3.12 4.068 3.865 8.542 5.086 5.357 1.424 11.324 3.593 11.324 11.595 0 7.73-5.017 11.594-12.68 11.594-3.255 0-5.559-.678-8.137-1.966-.405-.271-1.016-.543-1.287-.543-.883 0-1.83.61-2.915 2.51h-.814V54.243z"/></g><g><path class="st1" d="M46.27 103.307h1.288l2.864-2.864-.678-17.019H9.738l-2.863 2.863-.678 17.02h1.288l2.863-2.864c1.709-5.192 3.137-9.056 4.888-11.64 1.187-.723 2.546-1.092 4.182-1.092h.883v41.753H17.4l-2.864 2.863v1.424h24.75l2.863-2.863v-1.424h-5.764v-41.55c4.645.984 6.663 5.665 9.884 15.393zM85.065 121.056l-2.863 2.863c-.101 1.705-.276 3.007-.504 4.006-.79-.285-1.31-1.198-1.31-3.41V110.75c0-9.832-3.595-12.815-14.241-12.815-5.06 0-8.807.812-11.18 2.473a3.887 3.887 0 00-.34.181c-1.827 1.147-3.859 3.816-3.859 3.816l.013.005c-1.098 1.242-1.668 2.809-1.668 4.728 0 3.322 1.627 5.628 5.831 5.628 2.252 0 4.125-.942 5.142-2.499a5.024 5.024 0 001.432-1.431c1.38-.921 2.257-2.382 2.257-4.222 0-1.289-.203-2.17-.543-3.052h-1.696c-.246-.676-.364-1.283-.387-1.798.104-.007.21-.017.305-.017 2.712 0 3.457 2.238 3.457 10.849v2.367c-4.258.047-7.715.447-10.213 1.516-.12.039-.245.072-.36.115-3.588 1.34-5.663 4.936-6.188 5.948-.047.09-.095.18-.137.274l-.001.002c-.432.955-.662 2.078-.662 3.407 0 6.78 5.289 8.204 10.035 8.204 3.445 0 5.414-.94 6.656-2.693a5.638 5.638 0 001.432-1.432l.019-.01c1.12 2.73 4.074 4.135 9.049 4.135 3.218 0 5.42-.709 6.808-2.706a5.563 5.563 0 001.431-1.432c2.078-1.426 3.096-4.21 3.303-9.167l-1.018-.068zm-20.154 4.152c0 1.454-.193 2.642-.484 3.609-.963-.19-1.33-1.233-1.33-5.523v-1.085c0-1.282.146-2.338.41-3.218a4.95 4.95 0 01.93-.09h.474v6.307zM146.762 129.668l-11.577-22.684 5.05-4.288h4.748l2.863-2.863v-1.22h-13.358l-2.863 2.863v1.22h5.792l-11.81 9.817-1.086.407V80.034h-16.613l-2.863 2.863v1.22h4v45.55h-.866l-2.863 2.864v1.22h19.46l2.863-2.863v-1.22h-3.118v-9.634l5.065 10.398-2.098 2.099v1.22h18.851l2.864-2.863v-1.22z"/><path class="st1" d="M106.895 129.668h-3.797V80.034H86.484l-2.863 2.863v1.22h4v45.55h-.865l-2.864 2.864v1.22h20.14l2.863-2.863z"/></g><g><path class="st0" d="M50.422 100.443h-1.29C45.473 89.391 43.37 84.848 37.2 84.848h-.814v44.616h5.764v1.424H17.4v-1.424h5.765V84.848h-.882c-6.17 0-8.475 5.085-11.934 15.595H9.06l.678-17.019h40.006l.678 17.02zM67.774 114.954v-5.221c0-8.612-.745-10.85-3.457-10.85-1.22 0-3.186.543-3.186 2.713 0 .542.134 1.22.405 1.966h1.696c.34.882.542 1.763.542 3.052 0 3.187-2.576 5.288-5.966 5.288-4.204 0-5.832-2.305-5.832-5.627 0-5.696 4.95-8.34 14.171-8.34 10.646 0 14.24 2.983 14.24 12.815v13.764c0 2.78.814 3.526 1.966 3.526 1.22 0 2.374-1.288 2.712-6.984l1.018.068c-.34 8.137-2.849 10.442-8.679 10.442-5.493 0-8.545-1.695-9.358-5.018-1.085 3.255-3.051 5.018-7.797 5.018s-10.036-1.424-10.036-8.204c0-6.849 5.899-8.408 15.596-8.408h1.965zm0 7.39v-6.305H67.3c-2.847 0-4.204 2.034-4.204 6.17v1.085c0 4.882.476 5.56 1.763 5.56 1.288 0 2.915-2.17 2.915-6.51zM103.098 80.034v49.634h3.797v1.22h-20.14v-1.22h3.73V81.254h-4v-1.22h16.613zM130.351 129.668h3.12l-7.662-15.731-1.288.339v15.392h3.118v1.22h-19.46v-1.22h3.73V81.254h-4v-1.22h16.612v32.886l1.085-.407 15.256-12.68h-6.374v-1.22h13.358v1.22H143.1l-8.069 6.848 11.732 22.987h2.44v1.22h-18.85v-1.22z"/></g><g><path class="st1" d="M131.802 146.712c-4.162 0-6.936 3.34-6.936 7.276 0 3.963 2.718 7.304 7.22 7.304 1.924 0 3.624-.538 4.812-1.416v-2.69c-1.359.935-2.803 1.53-4.67 1.53-2.436 0-4.19-1.416-4.616-3.652h10.815c.31-4.473-2.208-8.352-6.625-8.352zm-4.162 6.143c.425-2.038 1.955-3.482 4.105-3.482 2.038 0 3.482 1.416 3.88 3.482h-7.985zM178.327 151.298l-5.04-10.05h-3.029l6.739 12.853v6.965h2.688v-7.021l6.71-12.797h-3zM154.284 157.866l-2.237-4.444 3.314-6.512h-2.718l-1.897 4.077-1.87-4.077h-2.717l3.284 6.54-2.18 4.416-5.435-10.956h-2.832l7.19 14.212h2.011l2.549-5.209 2.576 5.21h1.981l7.22-14.213h-2.831zM118.916 155.148l-13.108-14.21h-.368v20.128h2.66v-13.618l13.11 13.957h.367v-20.157h-2.66zM55.035 146.712c-2.096 0-3.737.99-4.841 2.463v-2.265h-2.662v19.818h2.662V158.8c1.104 1.472 2.745 2.462 4.841 2.462 3.936 0 6.624-3.198 6.624-7.275s-2.688-7.276-6.624-7.276zm-.453 11.947c-2.549 0-4.388-2.18-4.388-4.671s1.84-4.7 4.388-4.7c2.547 0 4.331 2.095 4.331 4.7 0 2.577-1.784 4.67-4.331 4.67zM72.506 146.712c-2.095 0-3.737.99-4.841 2.463v-2.265h-2.66v19.818h2.66V158.8c1.104 1.472 2.746 2.462 4.841 2.462 3.935 0 6.624-3.198 6.624-7.275s-2.69-7.276-6.624-7.276zm-.453 11.947c-2.548 0-4.388-2.18-4.388-4.671s1.84-4.7 4.388-4.7 4.332 2.095 4.332 4.7c0 2.577-1.784 4.67-4.332 4.67zM87.119 157.951l-4.331-11.04h-2.889l5.889 14.041-2.491 5.776h2.717l8.295-19.818h-2.887zM222.077 149.345v-2.435h-2.66v14.156h2.66v-7.616l.028.113c0-2.7 1.611-3.853 3.371-3.853.234 0 .47.02.706.06v-3.143c-1.897 0-3.34 1.274-4.105 2.718zM212.533 149.175c-1.105-1.472-2.746-2.463-4.842-2.463-3.935 0-6.624 3.2-6.624 7.276s2.689 7.275 6.624 7.275c2.096 0 3.737-.99 4.842-2.462v2.265h2.662V146.91h-2.662v2.265zm-4.389 9.512c-2.547 0-4.331-2.095-4.331-4.7 0-2.576 1.784-4.67 4.331-4.67 2.549 0 4.389 2.18 4.389 4.67s-1.84 4.7-4.389 4.7zM40.649 149.175c-1.104-1.472-2.746-2.463-4.841-2.463-3.935 0-6.624 3.2-6.624 7.276s2.69 7.275 6.624 7.275c2.095 0 3.737-.99 4.841-2.462v2.265h2.66V146.91h-2.66v2.265zm-4.388 9.512c-2.548 0-4.332-2.095-4.332-4.7 0-2.576 1.784-4.67 4.332-4.67s4.388 2.18 4.388 4.67-1.84 4.7-4.388 4.7zM23.206 149.77H13.41v-8.522h-2.69v19.818h2.69v-8.691h9.795v8.69h2.69v-19.817h-2.69zM192.061 146.712c-4.162 0-6.936 3.34-6.936 7.276 0 3.963 2.718 7.304 7.22 7.304 1.924 0 3.624-.538 4.812-1.416v-2.69c-1.359.935-2.803 1.53-4.671 1.53-2.435 0-4.19-1.416-4.615-3.652h10.815c.31-4.473-2.209-8.352-6.625-8.352zm-4.162 6.143c.425-2.038 1.954-3.482 4.105-3.482 2.038 0 3.482 1.416 3.88 3.482h-7.985z"/><path class="st0" d="M23.825 140.532h-.716v8.522h-8.363v-8.522h-4.122V161.781h4.122v-8.691h8.363v8.691H27.23V140.532H23.824zm2.69 20.534h-2.69v-8.691H14.03v8.69h-2.69v-19.817h2.69v8.522h9.795v-8.522h2.69v19.818zM41.268 146.194h-.716v1.222a6.565 6.565 0 00-4.125-1.42c-4.253 0-7.34 3.361-7.34 7.992 0 4.63 3.087 7.991 7.34 7.991a6.565 6.565 0 004.125-1.42v1.222H44.644v-15.587H41.27zm2.66 14.872h-2.66V158.8c-1.104 1.472-2.746 2.462-4.841 2.462-3.934 0-6.624-3.198-6.624-7.275s2.69-7.276 6.624-7.276c2.095 0 3.737.99 4.841 2.463v-2.265h2.66v14.156z"/><path class="st0" d="M36.88 149.317c-2.548 0-4.332 2.094-4.332 4.67 0 2.605 1.784 4.7 4.332 4.7s4.388-2.208 4.388-4.7-1.84-4.67-4.388-4.67zm0 8.655c-2.061 0-3.616-1.713-3.616-3.984 0-2.255 1.555-3.955 3.616-3.955 2.059 0 3.672 1.737 3.672 3.955 0 2.196-1.647 3.984-3.672 3.984zM55.654 145.997a6.565 6.565 0 00-4.126 1.42V146.193h-4.093V167.443h4.093v-6.883a6.564 6.564 0 004.126 1.42c4.253 0 7.34-3.362 7.34-7.992s-3.087-7.991-7.34-7.991zm0 15.266c-2.096 0-3.737-.99-4.841-2.462v7.927H48.15V146.91h2.662v2.265c1.104-1.472 2.745-2.463 4.841-2.463 3.936 0 6.624 3.2 6.624 7.276s-2.688 7.275-6.624 7.275z"/><path class="st0" d="M55.201 149.288c-2.549 0-4.388 2.209-4.388 4.7s1.84 4.67 4.388 4.67c2.547 0 4.331-2.094 4.331-4.67 0-2.605-1.784-4.7-4.33-4.7zm0 8.655c-2.06 0-3.673-1.737-3.673-3.955 0-2.197 1.648-3.984 3.673-3.984 2.061 0 3.615 1.713 3.615 3.984 0 2.255-1.554 3.955-3.615 3.955zM72.673 149.288c-2.55 0-4.389 2.209-4.389 4.7s1.84 4.67 4.389 4.67c2.547 0 4.33-2.094 4.33-4.67 0-2.605-1.783-4.7-4.33-4.7zm0 8.655c-2.06 0-3.673-1.737-3.673-3.955 0-2.197 1.647-3.984 3.673-3.984 2.06 0 3.615 1.713 3.615 3.984 0 2.255-1.554 3.955-3.615 3.955z"/><path class="st0" d="M73.126 145.997a6.565 6.565 0 00-4.126 1.42V146.193H64.908V167.443H69v-6.883a6.564 6.564 0 004.126 1.42c4.253 0 7.34-3.362 7.34-7.992s-3.087-7.991-7.34-7.991zm0 15.266c-2.096 0-3.737-.99-4.842-2.462v7.927h-2.66V146.91h2.66v2.265c1.105-1.472 2.746-2.463 4.842-2.463 3.934 0 6.624 3.2 6.624 7.276s-2.69 7.275-6.624 7.275z"/><path class="st0" d="M92.041 146.194h-.489l-.178.456-3.638 9.336-3.663-9.337-.178-.455H79.442l.416.993 5.771 13.761-2.37 5.496-.432 1H87.11l.184-.44 8.294-19.817.416-.993H92.04zm-5.407 20.534h-2.718l2.491-5.776-5.889-14.042h2.889l4.331 11.041 4.303-11.04h2.887l-8.294 19.817zM119.535 140.532h-.715V153.316l-11.867-12.864-.212-.23H105.344v21.559h4.092v-12.525l11.87 12.64.212.225h1.394V140.532H119.536zm2.66 20.873h-.367l-13.108-13.957v13.618h-2.66v-20.129h.367l13.108 14.211v-13.9h2.66v20.157zM132.364 149.373c-2.15 0-3.68 1.444-4.105 3.482h7.984c-.397-2.066-1.84-3.482-3.88-3.482zm-3.132 2.767c.562-1.285 1.703-2.051 3.132-2.051 1.341 0 2.408.766 2.928 2.05h-6.06z"/><path class="st0" d="M132.421 145.997c-4.362 0-7.651 3.435-7.651 7.99 0 4.648 3.337 8.02 7.935 8.02 2.02 0 3.88-.552 5.237-1.555l.29-.214v-4.412l-1.12.77c-1.412.971-2.727 1.404-4.266 1.404-1.756 0-3.07-.814-3.659-2.22h10.527l.047-.667c.188-2.717-.61-5.246-2.189-6.939-1.33-1.424-3.11-2.177-5.15-2.177zm6.626 9.067H128.23c.425 2.236 2.18 3.652 4.615 3.652 1.868 0 3.312-.595 4.671-1.53v2.69c-1.188.878-2.888 1.416-4.812 1.416-4.502 0-7.22-3.34-7.22-7.304 0-3.936 2.774-7.276 6.936-7.276 4.417 0 6.936 3.879 6.626 8.352zM160.31 146.194h-.444l-.197.4-4.772 9.667-1.428-2.838 3.149-6.188.53-1.04H152.805l-.193.413-1.243 2.672-1.224-2.668-.191-.418h-4.337l.52 1.037 3.124 6.221-1.382 2.8-4.792-9.66-.198-.398h-4.439l.526 1.04 7.19 14.211.199.393h2.897l.196-.401 1.91-3.902 1.93 3.904.198.399h2.865l.199-.392 7.22-14.212.527-1.04h-3.997zm-4.388 14.928h-1.98l-2.577-5.209-2.549 5.21h-2.01l-7.19-14.213h2.83l5.436 10.956 2.18-4.416-3.284-6.54h2.718l1.869 4.077 1.897-4.077h2.718l-3.314 6.512 2.237 4.444 5.408-10.956h2.831l-7.22 14.212zM188.197 140.532h-4.624l-.199.394-4.427 8.779-4.4-8.778-.198-.395h-4.655l.55 1.048 6.656 12.697v7.504h4.12v-7.56l6.628-12.64.55-1.049zm-7.893 13.513v7.02h-2.688v-6.964l-6.739-12.853h3.03l5.039 10.05 5.068-10.05h3l-6.71 12.797zM192.623 149.373c-2.15 0-3.68 1.444-4.105 3.482h7.984c-.397-2.066-1.84-3.482-3.88-3.482zm-3.132 2.767c.562-1.285 1.702-2.051 3.132-2.051 1.34 0 2.408.766 2.928 2.05h-6.06z"/><path class="st0" d="M192.68 145.997c-4.362 0-7.651 3.435-7.651 7.99 0 4.648 3.337 8.02 7.935 8.02 2.02 0 3.88-.552 5.237-1.555l.29-.214v-4.412l-1.12.77c-1.412.971-2.727 1.404-4.266 1.404-1.756 0-3.07-.814-3.66-2.22H199.974l.047-.667c.188-2.717-.61-5.246-2.189-6.939-1.33-1.424-3.11-2.177-5.15-2.177zm6.625 9.067H188.49c.425 2.236 2.18 3.652 4.615 3.652 1.868 0 3.312-.595 4.671-1.53v2.69c-1.188.878-2.888 1.416-4.812 1.416-4.502 0-7.22-3.34-7.22-7.304 0-3.936 2.774-7.276 6.936-7.276 4.417 0 6.936 3.879 6.625 8.352zM213.152 146.194h-.716v1.222a6.565 6.565 0 00-4.126-1.42c-4.253 0-7.34 3.361-7.34 7.992 0 4.63 3.087 7.991 7.34 7.991a6.565 6.565 0 004.126-1.42v1.222h4.093v-15.587h-3.377zm2.662 14.872h-2.662V158.8c-1.105 1.472-2.746 2.462-4.842 2.462-3.935 0-6.624-3.198-6.624-7.275s2.689-7.276 6.624-7.276c2.096 0 3.737.99 4.842 2.463v-2.265h2.662v14.156z"/><path class="st0" d="M208.763 149.317c-2.547 0-4.33 2.094-4.33 4.67 0 2.605 1.783 4.7 4.33 4.7 2.549 0 4.389-2.208 4.389-4.7s-1.84-4.67-4.389-4.67zm0 8.655c-2.06 0-3.615-1.713-3.615-3.984 0-2.255 1.554-3.955 3.615-3.955 2.06 0 3.673 1.737 3.673 3.955 0 2.196-1.648 3.984-3.673 3.984zM223.412 147.257v-1.063H219.32v15.587H223.412v-2.446l.028.113v-5.885c0-1.055.283-1.897.817-2.434.579-.582 1.319-.704 1.838-.703.192 0 .39.016.587.05l.835.14v-4.705h-.716c-1.251 0-2.432.483-3.389 1.346zm3.389 2.513a4.24 4.24 0 00-.706-.06c-1.76 0-3.37 1.154-3.37 3.853l-.029-.113v7.616h-2.66V146.91h2.66v2.435c.765-1.444 2.208-2.718 4.105-2.718v3.143z"/></g></svg>