<svg version="1.1" id="Layer_1" xmlns="http://www.w3.org/2000/svg" x="0" y="0" viewBox="0 0 284.119 119.383" xml:space="preserve"><style>.st0{fill:none}.st1{fill:#700b0b}.st2{fill:#ffbc00}.st3{fill:#fff}.st4{fill:#f208ff}.st5{fill:#ff7a0d}.st6{fill:#33d368}</style><path class="st0" d="M223.809 79.72l2.212-.194-1.106-7.44zM77.013 83.157l-2.055.18v4.66l2.055-.18c1.498-.131 2.387-1.068 2.425-2.542-.038-1.467-.927-2.249-2.425-2.118zM92.745 81.78l-2.056.18v4.66l2.056-.18c1.498-.13 2.387-1.068 2.425-2.542-.038-1.467-.927-2.248-2.425-2.117zM243.442 70.833c-.073-1.407-.955-2.153-2.422-2.025l-2.055.18v4.473l2.055-.18c1.467-.128 2.349-1.028 2.422-2.448zM219.642 29.656v-.645c0-2.053-1.201-3.15-3.255-2.97l-2.754.24v7.155l2.754-.24c2.054-.18 3.255-1.487 3.255-3.54zM99.56 50.027l3.305-.29-1.652-11.116zM126.05 37.844v-.645c0-2.053-1.201-3.15-3.255-2.97l-2.754.24v7.156l2.754-.241c2.054-.18 3.255-1.487 3.255-3.54zM59.801 94.068l2.213-.193-1.107-7.44z"/><path class="st1" d="M126.05 37.199V33.788c0-2.053-1.201-3.15-3.255-2.97l-2.754.24V34.47l2.754-.241c2.054-.18 3.255.917 3.255 2.97zM219.642 29.01V25.6c0-2.053-1.201-3.15-3.255-2.97l-2.754.241V26.281l2.754-.24c2.054-.18 3.255.917 3.255 2.97zM177.679 43.517V40.788l-6.31.552V44.751l6.31-.551v-.342zM46.08 47.901l2.804 22.84 5.86-.513L59.9 34.723l-.05.005.05-.346-.05.005.05-.346-.05.005.05-.346-.05.004.05-.345-.05.004.05-.345-.05.004.05-.345-.05.004.05-.345-.05.004.05-.345-.05.004.05-.346-.05.005-5.108 35.16-5.859.512-2.804-22.84-2.805 23.33-5.859.513-5.108-34.266-.05.005.05.337-.05.004.05.337-.05.004.05.337-.05.004.05.337-.05.004.05.337-.05.004.05.337-.05.005.05.336-.05.005.05.336-.05.005.05.336-.05.005 5.158 34.602 5.86-.513zM69.364 35.833V38.903l9.765-.854V34.638l-9.765.854zM64.056 66.344V69.414l15.073-1.32V64.685l-15.073 1.318zM69.364 50.606V53.676l7.762-.68V49.587l-7.762.679zM97.206 66.513l1.152-7.863 5.709-.499 1.152 7.661 5.408-.473-.056-.336.056-.005-.056-.336.056-.005-.056-.336.056-.005-.056-.336.056-.005-.056-.337.056-.004-.056-.337.056-.005-.056-.336.056-.005-.056-.336.056-.005-.056-.336.056-.005-.056-.336-5.352.468-1.152-7.661-5.709.5-1.152 7.862-5.251.46-.057.346.057-.005-.057.346.057-.005-.057.346.057-.005-.057.346.057-.005-.057.346.057-.005-.057.346.057-.005-.057.346.057-.005-.057.346.057-.005-.057.347.057-.005-.057.346zM99.56 50.027l1.653-11.406 1.652 11.117.5-.044-2.152-14.484-2.154 14.86zM132.16 63.455l-.097-.332.097-.009-.097-.333.097-.008-.097-.333.097-.008-.097-.333.097-.008-.097-.333.097-.008-.097-.333.097-.009-.097-.332.097-.009-.097-.332.097-.009-.097-.332.097-.009-.097-.332-5.412.473-3.856-14.135-2.754.241V50.043l2.754-.24 3.856 14.134zM127.703 44.76l.808 2.771c1.808-1.62 2.847-3.987 2.847-6.84V37.278c0 3.255-1.351 5.877-3.655 7.481zM114.733 61.91V64.98l5.308-.465V61.105l-5.308.464zM151.589 61.414v-3.069l-15.073 1.318V63.074l15.073-1.319zM141.824 29.494v3.069l9.765-.854V28.3l-9.765.854zM141.824 44.266V47.336l7.762-.679V43.247l-7.762.678zM177.679 56.403V59.473l5.308-.465V55.598l-5.308.464zM166.06 57.42V60.488l5.31-.464V56.614l-5.31.464zM194.104 39.693V42.762l7.761-.679V38.673l-7.761.679zM188.795 55.43V58.5l15.074-1.319V53.771l-15.074 1.318zM194.104 24.92V27.99l9.764-.854V23.725l-9.764.854zM225.752 55.267l-.097-.333.097-.008-.097-.333.097-.008-.097-.333.097-.008-.097-.333.097-.009-.097-.332.097-.009-.097-.332.097-.009-.097-.332.097-.009-.097-.332.097-.009-.097-.333.097-.008-.097-.333-5.412.474-3.856-14.135-2.754.241V41.855l2.754-.241 3.856 14.135zM221.295 36.572l.808 2.771c1.808-1.62 2.847-3.987 2.847-6.84V29.09c0 3.255-1.351 5.877-3.655 7.48zM208.325 53.722V56.792l5.308-.465v-3.41l-5.308.463zM245.18 53.226v-3.069l-15.072 1.318V54.886l15.073-1.319zM235.416 36.078V39.148l7.762-.679v-3.411l-7.762.68zM235.416 21.306V24.376l9.765-.855V20.11l-9.765.854z"/><path class="st2" d="M43.275 67.82l2.805-23.33 2.804 22.84 5.86-.513 5.107-35.16.05-.345-5.258.46-2.905 23.94-2.904-23.431-5.408.473-2.905 23.94-2.905-23.432-5.358.469.05.336 5.108 34.266 5.86-.513zm9.473-15.915a386.747 386.747 0 002.569-19.014c.038-.345.262-.64.64-.64.318 0 .677.296.639.64a393.623 393.623 0 01-2.614 19.354c-.055.34-.483.533-.787.446-.358-.102-.502-.443-.447-.786zm-10.863-1.572c.232-1.745.468-3.489.703-5.233l1.418-10.557c.046-.344.256-.64.64-.64.312 0 .685.297.64.64L43.865 45.1c-.237 1.772-.478 3.544-.713 5.317-.23 1.729-.425 3.465-.346 5.212.037.824-1.242.82-1.28 0-.08-1.775.124-3.54.358-5.296zm-8.358-13.914c-.044-.345.328-.64.64-.64.376 0 .595.297.639.64a898.285 898.285 0 003.986 27.77c.054.344-.084.686-.447.787-.306.086-.733-.106-.787-.446a909.939 909.939 0 01-4.031-28.111zM69.364 38.562V35.492l9.765-.854V29.63l-15.073 1.318v35.053l15.073-1.318v-5.008l-9.765.854V50.265l7.762-.68V44.579l-7.762.679v-6.694zm-3.03 26.087c-.017.823-1.296.823-1.279 0A711.914 711.914 0 0065 32.179c-.02-.826 1.259-.823 1.279 0a711.95 711.95 0 01.055 32.47zM98.358 55.24l5.709-.5 1.152 7.661 5.352-.468.056-.005-5.809-34.545-7.11.622-5.81 35.562.057-.005 5.251-.46 1.152-7.863zm4.847-19.752l2.509 13.945c.145.807-1.088 1.15-1.234.34l-2.509-13.945c-.145-.807 1.088-1.15 1.234-.34zm.16 14.206l-.5.044-3.305.289-.5.043 2.153-14.86 2.153 14.484zM93.049 60.596a1068.312 1068.312 0 005.808-31.685c.136-.811 1.369-.465 1.233.34a1067.903 1067.903 0 01-5.808 31.685c-.16.808-1.393.464-1.233-.34zM120.041 49.361v-2.729l2.754-.24 3.856 14.134 5.412-.473.097-.009-3.65-12.513-.807-2.771c2.304-1.604 3.655-4.226 3.655-7.48V33.422c0-5.057-3.254-8.078-8.312-7.635l-8.313.727V61.57l5.308-.465V49.362zm6.696-14.583c-.046-.824 1.234-.818 1.28 0 .104 1.873.242 4-.475 5.776-.61 1.515-2.054 2.849-3.79 2.679-.344-.034-.639-.266-.639-.64 0-.321.296-.673.64-.64 1.383.136 2.373-1.026 2.735-2.249.462-1.56.34-3.323.25-4.926zm-6.696-.308V31.059l2.754-.242c2.054-.18 3.255.918 3.255 2.97v4.057c0 2.053-1.201 3.36-3.255 3.54l-2.754.24V34.47zm-2.988.783a827.033 827.033 0 01-.426 23.256c-.026.822-1.305.823-1.279 0a827.735 827.735 0 00.427-29.816c-.003-.825 1.277-.823 1.28 0a837.04 837.04 0 01-.002 6.56zM151.589 56.748V53.336l-9.765.855V43.926l7.762-.68V38.24l-7.762.679v-9.765l9.765-.855V23.291l-15.073 1.318v35.054l15.073-1.319v-1.596zm-13.013 1.484c-.018.824-1.297.824-1.28 0a711.938 711.938 0 00-.055-32.47c-.02-.825 1.26-.822 1.28 0a711.998 711.998 0 01.055 32.47zM177.679 21.35V35.78l-6.31.552V21.56l-5.308.464v35.053l5.308-.464V41.34l6.31-.553V56.062l5.308-.465V20.544l-5.308.464v.341zm-9.35 33.456c-.028.822-1.308.823-1.28 0a597.778 597.778 0 00.264-31.093c-.014-.825 1.265-.822 1.28 0a597.701 597.701 0 01-.264 31.093zm12.127-1.111c.003.824-1.276.822-1.28 0l-.05-13.386c-.002-.825 1.277-.823 1.28 0l.05 13.386zm-1.5-30.548c.002-.824 1.282-.823 1.278 0l-.045 11.741c-.003.825-1.282.823-1.28 0l.046-11.74zM188.795 20.377v34.712l15.074-1.319V48.763l-9.765.854V39.352l7.761-.68V33.665l-7.761.679v-9.765l9.764-.855V18.717l-15.073 1.319v.34zm2.164.627a711.927 711.927 0 01.055 32.47c-.017.825-1.296.825-1.279.001a711.939 711.939 0 00-.055-32.47c-.02-.825 1.259-.822 1.279 0zM213.633 41.173V38.444l2.754-.241 3.856 14.135 5.412-.474.097-.008-3.65-12.513-.807-2.771c2.303-1.604 3.655-4.226 3.655-7.481V25.235c0-5.057-3.255-8.078-8.313-7.635l-8.312.727V53.38l5.308-.464V41.173zm8.542 8.257c.215.797-1.019 1.134-1.234.34l-2.848-10.533c-.216-.797 1.019-1.134 1.233-.34l2.849 10.533zm-1.06-22.122c.306-.084.732.105.786.447.35 2.208-.365 4.497-1.985 6.058-.594.572-1.499-.332-.905-.904 1.273-1.227 1.933-3.076 1.657-4.814-.055-.343.083-.687.446-.787zm-7.482-1.027V22.87l2.754-.24c2.054-.18 3.255.916 3.255 2.97V29.655c0 2.053-1.201 3.36-3.255 3.54l-2.754.24v-7.155zm-2.54.013l-.311 22.756c-.012.824-1.29.823-1.28 0l.089-6.453.31-22.756c.012-.823 1.29-.823 1.28 0l-.089 6.453zM245.18 48.56V45.148l-9.764.854V35.737l7.762-.679v-5.007l-7.762.678V20.964l9.765-.854v-5.008l-15.073 1.32V51.474l15.073-1.319V48.56zm-12.57 1.375c-.016.824-1.296.824-1.278 0a711.938 711.938 0 00-.055-32.47c-.02-.826 1.258-.822 1.278 0a711.927 711.927 0 01.055 32.47z"/><path class="st3" d="M38.345 64.976c.363-.101.501-.443.447-.786a903.52 903.52 0 01-3.986-27.771c-.044-.343-.263-.64-.64-.64-.311 0-.683.295-.64.64a912.694 912.694 0 004.032 28.11c.054.34.48.533.787.447zM42.807 55.629c-.08-1.747.117-3.483.346-5.212.235-1.773.476-3.545.714-5.317l1.418-10.557c.046-.343-.327-.64-.64-.64-.383 0-.593.296-.639.64L42.588 45.1c-.235 1.744-.47 3.488-.703 5.233-.234 1.757-.438 3.52-.357 5.296.037.82 1.316.824 1.279 0zM53.195 52.691c.304.087.732-.106.787-.446a393.625 393.625 0 002.614-19.354c.038-.344-.321-.64-.64-.64-.377 0-.601.295-.64.64a386.747 386.747 0 01-2.568 19.014c-.055.343.09.684.447.786zM100.09 29.251c.135-.805-1.098-1.151-1.234-.34a1068.259 1068.259 0 01-5.808 31.685c-.16.804 1.073 1.148 1.233.34a1067.903 1067.903 0 005.808-31.685zM104.48 49.773c.146.81 1.379.466 1.234-.34l-2.51-13.945c-.145-.81-1.378-.467-1.233.34l2.51 13.945zM115.775 28.693a827.735 827.735 0 01-.427 29.816c-.026.823 1.253.822 1.28 0a827.034 827.034 0 00.427-29.816c-.003-.823-1.283-.825-1.28 0zM123.753 41.954c-.344-.034-.64.318-.64.64 0 .373.295.605.64.639 1.735.17 3.178-1.164 3.79-2.679.716-1.776.578-3.903.473-5.776-.045-.818-1.325-.824-1.279 0 .09 1.603.213 3.367-.249 4.926-.362 1.223-1.352 2.385-2.735 2.25zM138.52 25.762c-.02-.822-1.3-.825-1.28 0a711.914 711.914 0 01.056 32.47c-.017.824 1.262.824 1.28 0a711.95 711.95 0 00-.056-32.47zM189.85 46.335c-.026 2.38-.065 4.76-.115 7.14-.017.824 1.262.824 1.28 0a711.903 711.903 0 00-.056-32.47c-.02-.822-1.3-.825-1.28 0 .207 8.441.265 16.887.171 25.33zM232.555 17.464c-.02-.821-1.299-.825-1.279 0a711.914 711.914 0 01.056 32.471c-.018.824 1.262.824 1.279 0a711.903 711.903 0 00-.056-32.47zM66.279 32.178c-.02-.822-1.3-.825-1.28 0a711.89 711.89 0 01.056 32.471c-.017.823 1.262.823 1.28 0a711.927 711.927 0 00-.056-32.471zM168.593 23.713c-.015-.822-1.294-.825-1.28 0a597.815 597.815 0 01-.263 31.093c-.029.823 1.25.822 1.279 0a597.756 597.756 0 00.264-31.093zM180.189 34.888l.045-11.74c.004-.824-1.276-.825-1.279 0l-.045 11.74c-.003.823 1.276.824 1.279 0zM179.127 40.309l.05 13.386c.003.822 1.282.824 1.279 0l-.05-13.386c-.003-.823-1.282-.825-1.28 0zM209.901 19.841l-.31 22.756-.089 6.453c-.01.823 1.268.824 1.28 0l.31-22.756.089-6.453c.01-.823-1.268-.823-1.28 0zM219.011 32.909c-.594.572.311 1.476.905.904 1.62-1.561 2.336-3.85 1.985-6.058-.054-.342-.48-.531-.787-.447-.363.1-.5.444-.446.787.276 1.738-.384 3.587-1.657 4.814zM218.093 39.237l2.848 10.533c.215.794 1.45.457 1.234-.34l-2.849-10.533c-.214-.794-1.449-.457-1.233.34z"/><path class="st1" d="M46.932 96.13V93.4l-4.709.412v3.41l4.709-.411v-.341zM106.01 91.41V88.68l-5.187-14.414-.119.01.12.332-.12.01.12.33-.12.011.12.33-.12.011.12.33-.12.011.12.331-.12.01.12.331-.12.01.12.331-.12.01.12.331-.12.01.12.331-.12.01 5.307 14.744v-.34zM192.106 83.877v-2.728l-5.187-14.414-.12.01.12.331-.12.01.12.331-.12.01.12.331-.12.01.12.331-.12.01.12.332-.12.01.12.33-.12.011.12.33-.12.011.12.33-.12.011.12.331-.12.01 5.307 14.744v-.34zM243.442 70.833c.004-.064.007-.127.007-.193V67.613c0-1.532-.896-2.35-2.429-2.216l-2.055.18v3.411l2.055-.18c1.467-.128 2.349.618 2.422 2.025zM38.262 105.897V108.967l3.961-.347V105.21l-3.961.347zM46.932 105.138V108.208l3.961-.346V104.45l-3.961.346zM63.037 97.596l-4.26.373-.86 5.867-3.904.342-.056.346.056-.005-.056.346.056-.005-.056.346.056-.005-.056.346.056-.005-.056.346.056-.005-.056.346.056-.005-.056.346.056-.005-.056.346.056-.004-.056.346.056-.005-.056.346 3.96-.347.86-5.867 4.26-.373.86 5.717 4.036-.353-.057-.336.057-.005-.057-.336.057-.005-.057-.336.057-.005-.057-.336.057-.005-.057-.337.057-.005-.057-.336.057-.005-.057-.336.057-.005-.057-.336.057-.005-.057-.336.057-.005-.057-.336-3.98.348zM59.3 94.112l.501-.044 1.106-7.634 1.107 7.44.5-.043-1.607-10.808zM77.2 91.537l-2.242.196V95.144l2.242-.196c3.774-.33 6.203-3.008 6.203-6.783v-3.411c0 3.774-2.429 6.453-6.203 6.783zM70.996 103.033V106.103l3.962-.347V102.346l-3.962.346zM77.013 79.746l-2.055.18v3.41l2.055-.18c1.498-.13 2.387.652 2.425 2.119.001-.033.004-.065.004-.1v-3.213c0-1.532-.897-2.35-2.43-2.216zM92.931 90.16l-2.242.197v3.411l2.242-.196c3.775-.33 6.204-3.009 6.204-6.783V83.378c0 3.774-2.43 6.453-6.204 6.783zM92.745 78.37l-2.056.18V81.96l2.056-.18c1.498-.13 2.387.651 2.425 2.118.001-.033.004-.065.004-.099V80.586c0-1.532-.897-2.35-2.43-2.216zM86.728 101.657V104.727l3.961-.347V100.969l-3.96.346zM109.972 88.675V91.745l5.306-15.672-.119.01.12-.351-.12.01.12-.352-.12.01.12-.35-.12.01.12-.352-.12.01.12-.35-.12.01.12-.352-.12.01.12-.351-.12.01.12-.351-.12.01.12-.351-.12.01-5.187 15.32zM106.01 99.97V103.04l3.962-.347v-3.411l-3.961.346zM125.666 98.25V101.32l3.887-.34v-3.411l-3.887.34zM129.553 80.829V84.24l5.231 16.282 4.185-.366v-3.411l-4.185.366zM147.264 84.964v3.069l5.793-.506v-3.411l-5.792.507zM143.303 96.707v3.069l11.249-.983V95.382l-11.249.984zM147.264 73.94v3.07l7.288-.637V72.962l-7.287.638zM169.424 94.08l-2.093-17.042-2.093 17.409-4.372.382-3.798-25.482-.05.004.05.337-.05.004.05.337-.05.004.05.337-.05.004.05.337-.05.005.05.336-.05.005.05.336-.05.005.05.336-.05.005.05.337-.05.004.05.337-.05.004 3.848 25.82 4.372-.383 2.093-17.409 2.093 17.043 4.372-.383 3.85-26.493-.051.005.05-.346-.05.005.05-.346-.05.005.05-.346-.05.004.05-.345-.05.004.05-.345-.05.004.05-.345-.05.004.05-.345-.05.004.05-.345-.05.004.05-.346-.05.005-3.799 26.147zM196.067 81.143V84.213l5.306-15.673-.119.01.12-.35-.12.01.12-.352-.12.01.12-.35-.12.01.12-.352-.12.01.12-.351-.12.01.12-.351-.12.01.12-.351-.12.01.12-.351-.12.01.12-.352-.12.01-5.187 15.322zM192.106 92.437V95.507l3.961-.346V91.75l-3.961.346zM204.288 91.372V94.442l11.248-.985V90.046l-11.248.984zM208.249 79.628V82.698l5.792-.506V78.78l-5.792.506zM208.249 68.605V71.675l7.287-.637V67.627l-7.287.637zM227.045 83.248l-4.26.372-.86 5.867-3.904.342-.056.346.056-.005-.056.346.056-.005-.056.346.056-.005-.056.346.056-.005-.056.346.056-.005-.056.347.056-.005-.056.346.056-.005-.056.346.056-.005-.056.346.056-.005-.056.346 3.96-.347.86-5.867 4.26-.372.86 5.716 4.035-.353-.056-.336.056-.005-.056-.336.056-.005-.056-.336.056-.005-.056-.336.056-.005-.056-.336.056-.005-.056-.337.056-.005-.056-.336.056-.005-.056-.336.056-.005-.056-.336.056-.005-.056-.336-3.98.348zM223.308 79.763l.5-.043 1.107-7.635 1.106 7.441.5-.044-1.606-10.808zM247.911 90.284l.097-.009-.097-.332.097-.009-.097-.332.097-.009-.097-.333.097-.008-.097-.333.097-.008-.097-.333.097-.008-.097-.333.097-.008-.097-.333.097-.008-.097-.333.097-.009-.097-.332-4.013.35-2.878-10.546-2.055.18V80.608l2.055-.18 2.878 10.548 4.11-.36zM244.683 75.8l.8 2.746c1.227-1.201 1.928-2.894 1.928-4.916V70.219c0 2.429-1.01 4.385-2.728 5.582zM235.004 88.684V91.754l3.961-.346V87.996l-3.961.347z"/><path class="st2" d="M46.932 78.982v10.682l-4.709.412V79.054l-3.961.346v26.156l3.961-.347V93.813l4.709-.412v11.396l3.961-.346V78.295l-3.961.346v.341zm-7.825 23.316l-.158-21.314c-.004-.55.849-.549.853 0l.158 21.314c.004.55-.848.549-.853 0zm8.92-22.274c.01-.549.863-.549.852 0l-.154 8.113c-.01.549-.863.549-.853 0l.154-8.113zm.658 13.203l.091 8.038c.007.55-.846.549-.853 0l-.09-8.038c-.007-.55.846-.549.852 0zM63.598 77.183l-5.307.464-4.334 26.536.056-.005 3.905-.342.86-5.867 4.26-.373.859 5.717 3.98-.348.056-.005-4.335-25.777zm-7.624 24.985c-.087.542-.909.31-.822-.226l.816-5.041 2.884-17.81c.087-.542.909-.311.822.226l-.816 5.04-2.884 17.811zm6.04-8.293l-2.213.193-.5.044 1.606-11.089 1.607 10.808-.5.044zm1.282-1.057l-1.521-9.211c-.09-.538.733-.767.822-.227l1.521 9.212c.089.538-.733.767-.822.226zm1.988 8.433c-.25 0-.4-.197-.427-.426a39.466 39.466 0 00-.508-3.203c-.045-.227.063-.46.298-.525.21-.057.48.072.525.298.227 1.135.405 2.28.538 3.43.027.23-.216.426-.426.426zM77.2 75.993l-6.204.543v26.156l3.962-.347V91.734l2.242-.197c3.774-.33 6.203-3.009 6.203-6.783V81.69c0-3.774-2.429-6.027-6.203-5.697zm-5.027 22.764l-.224-20.502c-.006-.55.847-.548.853 0l.224 20.502c.006.55-.847.549-.853 0zm7.269-16.454V85.176c0 .034-.003.066-.004.099-.038 1.474-.927 2.41-2.425 2.542l-2.055.18v-8.071l2.055-.18c1.532-.134 2.429.684 2.429 2.216v.341zM92.931 74.617l-6.203.542V101.315l3.961-.346V90.357l2.242-.196c3.775-.33 6.204-3.009 6.204-6.783V80.314c0-3.774-2.43-6.028-6.204-5.697zM87.906 96.62a912.825 912.825 0 01-.232-19.988c0-.55.853-.549.853 0 .005 6.663.082 13.327.232 19.988.012.55-.84.548-.853 0zm7.268-15.693v2.872c0 .034-.003.066-.004.1-.038 1.473-.927 2.41-2.425 2.542l-2.056.18V78.55l2.056-.18c1.532-.134 2.429.684 2.429 2.216v.34zM111.13 73.024l-3.139 10.252-3.064-9.709-4.223.37.12.33 5.187 14.413v10.948l3.96-.346V88.334l5.188-15.32.12-.352-4.149.362zm-3.5 23.522c-.019.548-.872.549-.853 0l.249-7.489a.469.469 0 01-.041-.089l-4.766-13.824c-.18-.521.645-.743.823-.227l4.765 13.825c.005.015.007.029.01.044.041.062.066.14.063.236l-.25 7.524zm4.887-21.617l-2.051 5.66c-.186.513-1.01.29-.823-.226l2.051-5.66c.186-.514 1.01-.29.823.226zM135.083 71.27v17.22l-5.045-17.12-4.372.383v26.156l3.887-.34V80.829l5.231 16.282 4.185-.366V70.589l-3.886.34v.341zm-8.094 24.243a1286.267 1286.267 0 01-.128-22.274c.001-.55.854-.549.853 0a1282.436 1282.436 0 00.127 22.274c.008.55-.845.548-.852 0zm9.116-23.6c.004-.55.857-.55.853 0-.029 4.572.006 9.145.103 13.717.012.55-.841.548-.853 0a498.145 498.145 0 01-.103-13.718zm-1.33 22.027l-3.827-11.434c-.175-.523.65-.745.822-.227l3.826 11.435c.175.522-.649.744-.822.226zM143.303 70.55V96.367l11.249-.984V91.645l-7.287.638V84.623l5.792-.507V80.38l-5.792.506V73.6l7.287-.638V69.226l-11.249.984v.34zm.926 1.362c.006-.55.859-.55.853 0a704.423 704.423 0 00.103 21.166c.011.55-.842.548-.853 0a704.357 704.357 0 01-.103-21.166zM173.721 67.548l-2.167 17.864-2.167-17.484-4.036.353-2.168 17.863-2.167-17.484-3.999.35.05.337 3.8 25.482 4.371-.382 2.093-17.409 2.093 17.043 4.372-.383 3.799-26.147.05-.346-3.924.343zm-12.55 22.7l-2.88-19.987c-.078-.537.744-.767.822-.226l2.88 19.986c.078.538-.744.768-.822.227zm5.872-19.772a268.828 268.828 0 00-1.459 11.171c-.059.54-.912.545-.852 0 .416-3.81.913-7.61 1.489-11.398.082-.541.904-.31.822.227zm3.02 21.314c-.434-3.1-.796-6.21-1.08-9.329-.05-.547.803-.542.852 0a190.78 190.78 0 001.05 9.103c.076.537-.746.768-.821.226zm5.298-22.801l-1.581 11.595c-.074.542-.896.31-.823-.227l1.582-11.595c.074-.542.895-.31.822.227zM197.226 65.492l-3.14 10.252-3.064-9.71-4.223.37.12.331 5.187 14.413v10.948l3.961-.346V80.802l5.187-15.321.12-.352-4.148.363zm-2.887 23.273c-.001.55-.854.548-.853 0l.015-7.32a.455.455 0 01-.06-.115l-4.534-13.571c-.174-.523.65-.745.822-.227 1.51 4.516 3.018 9.032 4.527 13.549.06.066.098.156.098.271l-.015 7.413zm4.209-21.48a115.39 115.39 0 01-2.092 6.126c-.19.51-1.014.288-.822-.227a115.372 115.372 0 002.091-6.126c.163-.523.986-.298.823.227zM204.288 65.215V91.03l11.248-.984V86.31l-7.287.637V79.288l5.792-.507V75.044l-5.792.506V68.265l7.287-.638V63.89l-11.248.984v.341zm1.85 1.424l.008 4.994c.01 5.784.018 11.569.027 17.353 0 .55-.852.549-.853 0l-.008-4.994-.026-17.353c0-.55.852-.55.853 0zM227.606 62.834l-5.307.465-4.334 26.535.056-.005 3.904-.342.86-5.867 4.26-.372.86 5.716 3.979-.348.056-.005-4.334-25.777zm-7.028 22.07c-.08.542-.902.31-.822-.227.948-6.375 2.04-12.729 3.277-19.055.105-.539.927-.31.822.227a425.76 425.76 0 00-3.277 19.055zm5.443-5.378l-2.212.194-.501.043 1.607-11.089 1.607 10.808-.5.044zm1.014-2.825l-1.284-6.846c-.1-.537.722-.766.823-.227l1.283 6.847c.101.537-.721.765-.822.226zm2.538 11.578c-.21.058-.48-.072-.525-.298l-.774-3.961c-.044-.227.062-.46.298-.525.21-.057.48.072.524.298l.775 3.961c.044.227-.062.46-.298.525zM238.965 79.926V77.198l2.055-.18 2.878 10.547 4.013-.351.097-.009-2.525-8.659-.8-2.745c1.719-1.197 2.728-3.153 2.728-5.582V67.34c0-3.773-2.43-6.027-6.203-5.697l-6.204.543V88.343l3.961-.347v-8.07zm6.515 4.976c.161.527-.662.75-.822.227l-2.093-6.828c-.14-.459.566-.762.78-.328l.141.287a.428.428 0 01.042.27l1.952 6.372zm-1.142-15.724c-.01-.55.843-.548.853 0 .023 1.294.032 2.677-.602 3.847-.537.991-1.534 1.771-2.695 1.772-.55 0-.548-.852 0-.853.92 0 1.646-.699 2.028-1.485.486-1 .436-2.199.416-3.281zm-5.373-.19V65.577l2.055-.18c1.533-.134 2.43.684 2.43 2.216V70.64c0 .066-.004.13-.008.193-.073 1.42-.955 2.32-2.422 2.448l-2.055.18v-4.473zM237.08 85.22c-.014.549-.867.55-.853 0 .177-6.893.123-13.79-.161-20.68-.023-.549.83-.546.852 0 .285 6.89.34 13.787.162 20.68z"/><path class="st3" d="M38.95 80.984l.157 21.314c.005.549.857.55.853 0l-.158-21.314c-.004-.549-.857-.55-.853 0zM48.725 88.137l.154-8.113c.01-.549-.842-.549-.853 0l-.154 8.113c-.01.549.843.549.853 0zM48.776 101.265l-.09-8.038c-.007-.549-.86-.55-.854 0l.091 8.038c.007.549.86.55.853 0zM58.852 79.09L55.968 96.9l-.816 5.042c-.087.537.735.768.822.226l2.884-17.81.816-5.041c.087-.537-.735-.768-.822-.227zM62.597 83.38c-.09-.54-.911-.31-.822.227l1.52 9.211c.09.54.912.312.823-.226l-1.52-9.212zM64.647 97.097c-.235.065-.343.298-.298.525.213 1.06.384 2.129.508 3.203.027.229.177.426.427.426.21 0 .453-.196.426-.426a42.187 42.187 0 00-.538-3.43c-.046-.226-.314-.355-.525-.298zM71.95 78.255l.223 20.502c.006.549.859.55.853 0l-.224-20.502c-.006-.548-.859-.55-.853 0zM87.674 76.632c.005 6.663.082 13.327.232 19.988.013.548.865.55.853 0a912.825 912.825 0 01-.232-19.988c0-.549-.853-.55-.853 0zM107.807 88.742l-4.765-13.825c-.178-.516-1.002-.294-.823.227l4.766 13.824a.469.469 0 00.04.089l-.248 7.489c-.019.549.834.548.852 0l.25-7.524a.397.397 0 00-.062-.236c-.003-.015-.005-.03-.01-.044zM127.714 73.24c.001-.55-.852-.55-.853 0a1286.432 1286.432 0 00.128 22.273c.007.548.86.55.852 0a1286.231 1286.231 0 01-.127-22.274zM130.948 82.506l3.826 11.434c.173.518.997.296.822-.226l-3.826-11.435c-.173-.518-.997-.296-.822.227zM137.061 85.63a498.185 498.185 0 01-.103-13.718c.004-.549-.85-.55-.853 0-.028 4.573.006 9.146.103 13.718.012.548.865.55.853 0zM145.185 93.078a704.423 704.423 0 01-.103-21.166c.006-.55-.847-.55-.853 0a704.39 704.39 0 00.103 21.166c.011.548.864.55.853 0zM159.113 70.035c-.078-.542-.9-.311-.823.226l2.881 19.987c.078.54.9.31.823-.227l-2.881-19.986zM166.22 70.25a274.272 274.272 0 00-1.488 11.397c-.06.545.793.54.852 0 .409-3.734.895-7.458 1.459-11.171.082-.537-.74-.768-.822-.227zM169.835 82.461c-.05-.542-.902-.547-.852 0 .284 3.118.646 6.229 1.08 9.33.076.54.898.31.823-.227a190.78 190.78 0 01-1.05-9.103zM174.539 68.762l-1.582 11.595c-.073.537.749.769.823.227l1.581-11.595c.073-.537-.748-.77-.822-.227zM189.73 67.532c-.173-.518-.997-.296-.823.227l4.534 13.57a.455.455 0 00.06.116l-.015 7.32c-.001.548.852.55.853 0l.015-7.413a.396.396 0 00-.098-.271l-4.527-13.55zM111.694 74.702l-2.05 5.66c-.188.518.636.74.822.228l2.05-5.661c.188-.517-.636-.74-.822-.227zM197.725 67.058a115.372 115.372 0 01-2.091 6.126c-.192.515.632.737.822.227a115.381 115.381 0 002.092-6.126c.163-.525-.66-.75-.823-.227zM205.32 88.986c0 .549.853.55.853 0-.01-5.784-.018-11.569-.027-17.353l-.007-4.994c-.001-.55-.854-.55-.853 0l.026 17.353.008 4.994zM223.033 65.622a425.798 425.798 0 00-3.277 19.055c-.08.537.741.769.822.227a425.76 425.76 0 013.277-19.055c.105-.536-.717-.766-.822-.227zM226.574 69.628c-.101-.539-.923-.31-.823.227l1.284 6.846c.101.54.923.311.822-.226l-1.283-6.847zM229.096 83.793c-.044-.226-.314-.355-.524-.298-.236.065-.342.298-.298.525l.774 3.961c.044.226.315.356.525.298.236-.065.342-.298.298-.525l-.775-3.96zM236.066 64.54c.284 6.89.338 13.787.161 20.68-.014.55.839.549.853 0 .177-6.893.123-13.79-.162-20.68-.022-.546-.875-.549-.852 0zM241.894 73.944c-.548 0-.55.854 0 .853 1.16-.001 2.158-.78 2.695-1.772.634-1.17.625-2.553.602-3.847-.01-.548-.863-.55-.853 0 .02 1.082.07 2.28-.416 3.28-.382.787-1.107 1.485-2.028 1.486zM243.486 78.26l-.141-.287c-.214-.434-.92-.13-.78.328l2.093 6.828c.16.523.983.3.822-.227l-1.952-6.372a.428.428 0 00-.042-.27z"/><path class="st4" d="M43.913 7.304c.604 1.47 1.425 2.885 2.074 4.34 1.696 4.304 2.812 8.867 3.034 13.51l.339.04c.753-3.902.58-7.987-.108-11.896a68.812 68.812 0 00-.753-3.375c-.375-1.694-.892-3.4-1.833-4.871C45.472 3.058 43.876 1.283 41.84 0l-.275.2c.37 1.82.988 3.515 1.639 5.226.198.59.458 1.312.71 1.878zM29.84 10.532c1.074 1.171 2.334 2.215 3.446 3.355 3.08 3.453 5.704 7.349 7.518 11.63l.33-.082c-.64-3.92-2.215-7.695-4.213-11.124a68.748 68.748 0 00-1.873-2.907c-.938-1.46-2.012-2.882-3.404-3.937-1.81-1.458-3.921-2.572-6.275-3.072l-.19.284c.977 1.579 2.143 2.956 3.345 4.337.39.484.884 1.072 1.315 1.516z"/><path class="st5" d="M13.295 31.352a15.053 15.053 0 00-9.777 3.32l.104.324c1.842.222 3.646.17 5.476.091a23.373 23.373 0 002.005-.082c1.586-.11 3.188-.443 4.772-.6 4.62-.254 9.302.125 13.78 1.378l.142-.31c-3.465-1.944-7.396-3.068-11.323-3.646a77.627 77.627 0 00-5.18-.475zM11.835 45.191c-1.074.415-2.142.85-3.196 1.319-1.605.659-3.198 1.46-4.487 2.638C2.392 50.666.916 52.541 0 54.767l.245.237c1.729-.675 3.293-1.574 4.868-2.508a23.407 23.407 0 001.729-1.02c1.346-.846 2.6-1.897 3.922-2.785 3.951-2.407 8.256-4.286 12.793-5.298l-.02-.34c-3.972-.076-7.968.791-11.702 2.138z"/><path class="st6" d="M13.313 19.215c.987.857 2.12 1.591 3.436 1.64 2.557.078 5.015.735 7.546 1.15l.144-.31c-1.23-1.01-2.568-1.87-3.957-2.648-.47-.244-.947-.48-1.43-.71-.96-.445-1.886-1.148-2.998-1.14-1.197-.017-2.314.225-3.363.972l-.043.339c.22.29.444.496.665.707zM36.065 30.199c-.328-.78-.754-1.506-1.207-2.22-.458-.71-.97-1.38-1.524-2.006-.54-.618-.925-1.476-1.753-1.772-.922-.355-1.812-.43-2.866-.127l-.19.283c.056.627.21 1.098.392 1.521.359.773.797 1.453 1.593 1.757.37.146.762.268 1.104.456 1.258.68 2.967 1.61 4.196 2.334l.255-.226z"/><path class="st4" d="M62.335 16.615a77.677 77.677 0 001.989-4.806 15.053 15.053 0 00-.272-10.321l-.341.003c-.759 1.694-1.243 3.432-1.71 5.202-.182.595-.39 1.333-.516 1.94-.366 1.547-.522 3.176-.841 4.736-1.127 4.487-2.877 8.847-5.4 12.751l.253.229c2.884-2.733 5.123-6.155 6.838-9.734zM275.36 101.59c-.467-.31-.99.08-1.466.133a26.7 26.7 0 00-3.101.587l-.08.332c.42.38.869.688 1.325.994.457.3.93.561 1.415.78.467.211.91.738 1.484.56.717-.21 1.199-.63 1.679-1.366l.03-.34c-.338-.796-.676-1.291-1.285-1.68zM261.257 96.887c-1.495-.436-2.892-1.174-4.273-1.884a37.59 37.59 0 01-4.055-2.499l-.249.233c1.017 1.68 2.4 3.216 3.848 4.556 1.014.88 2.075 1.692 3.109 2.556 1.073.852 2.39 1.205 3.746 1.327.694.048 1.409.033 2.19-.162l.135-.314c-1.07-1.741-2.57-3.13-4.451-3.813z"/><path class="st5" d="M284.119 88.302l-.09-.329c-1.831-.3-3.635-.325-5.467-.325a23.356 23.356 0 00-2.007-.005c-1.589.042-3.203.306-4.794.396-4.626.055-9.287-.524-13.707-1.968l-.156.303c3.378 2.091 7.258 3.383 11.157 4.128a77.6 77.6 0 005.154.697 15.053 15.053 0 009.91-2.897z"/><path class="st4" d="M257.635 70.92l.14.312c3.741-1.336 7.17-3.563 10.185-6.145a68.579 68.579 0 002.522-2.365c1.268-1.185 2.474-2.497 3.262-4.056 1.109-2.043 1.825-4.32 1.894-6.725l-.314-.135c-1.377 1.243-2.522 2.638-3.665 4.07-.406.47-.895 1.061-1.255 1.566-.959 1.267-1.759 2.694-2.68 3.993-2.844 3.65-6.204 6.932-10.09 9.486z"/><path class="st5" d="M261.39 49.087l.33.083c.793-1.503 1.384-3.105 1.868-4.737.143-.55.278-1.103.402-1.66.162-.835.514-1.67.543-2.535.012-.886-.226-1.725-.6-2.547-.271-.552-.608-1.094-1.14-1.6l-.34.028c-.734.97-1.17 2.12-1.395 3.265-.248 1.06.155 2.11.213 3.165.118 2.186.149 4.332.118 6.538zM259.236 58.903c.213-.256.494-.478.739-.723.533-.523.536-1.246.39-1.965a3.708 3.708 0 00-.573-1.283l-.315-.133c-.934.176-1.564.482-2.147 1.057-.489.454-.342 1.177-.499 1.757-.329 1.228-.611 2.454-.933 3.714l.273.205a12.48 12.48 0 003.065-2.63z"/><path class="st6" d="M257.204 112.755c-.926-1.292-2.052-2.48-3.019-3.744-2.643-3.797-4.782-7.98-6.07-12.447l-.338.041c.167 3.97 1.278 7.905 2.85 11.55.48 1.046.979 2.086 1.511 3.11.756 1.561 1.652 3.102 2.908 4.317 1.622 1.664 3.584 3.023 5.86 3.801l.223-.259c-.78-1.684-1.772-3.19-2.8-4.706-.33-.527-.75-1.17-1.125-1.663zM270.563 76.126c-4.347 1.585-8.937 2.584-13.585 2.687l-.047.338c3.88.853 7.97.785 11.894.196a68.64 68.64 0 003.393-.666c1.704-.332 3.422-.804 4.917-1.708 2.024-1.143 3.839-2.693 5.173-4.695l-.193-.28c-1.828.322-3.538.897-5.266 1.504-.594.184-1.323.425-1.895.662-1.485.565-2.921 1.35-4.391 1.962z"/></svg>