<svg version="1.1" id="Layer_1" xmlns="http://www.w3.org/2000/svg" x="0" y="0" viewBox="0 0 152.374 83.91" xml:space="preserve"><style>.st0{fill:#c4226c}.st1{fill:#ff66a4}.st2{fill:#edcb00}.st3{fill:#e0ad1e}.st4{fill:#d1305e}</style><path class="st0" d="M14.014 5.093c0-1.152.798-2.126 2.082-2.126h.265c1.285 0 2.082.974 2.082 2.126v25.242h3.1V5.225C21.543 2.435 19.55 0 16.406 0h-.354c-3.144 0-5.138 2.435-5.138 5.225v25.11h3.1V5.093zM36.157 27.412h-7.529V12.444h5.535V9.521h-5.535V3.144h6.865V.221h-9.965v30.114h10.629zM49.885 27.412h-7.529V12.444h5.536V9.521h-5.536V3.144h6.864V.221h-9.963v30.114h10.628zM63.614 5.447c0-2.79-1.994-5.226-5.138-5.226h-5.491v30.114h5.491c3.144 0 5.138-2.391 5.138-5.27V5.447zm-3.1 19.795c0 1.152-.798 2.17-2.082 2.17h-2.347V3.144h2.347c1.284 0 2.082.974 2.082 2.126v19.972zM84.205 30.335V.221h-3.1v21.08h-4.428V.221h-3.1v30.114h3.1v-6.111h4.428v6.111zM98.907 27.412h-7.529V12.444h5.536V9.521h-5.536V3.144h6.864V.221h-9.964v30.114h10.629zM112.635 27.412h-7.528V.222h-3.1v30.113h10.628zM118.48 15.411h2.48c2.835 0 5.049-2.302 5.049-4.916V5.137c0-2.613-2.214-4.916-5.049-4.916h-5.58v30.114h3.1V15.411zm0-12.267h2.48c1.196 0 1.949.93 1.949 1.949v5.446c0 1.02-.753 1.949-1.949 1.949h-2.48V3.144zM133.803 0h-.354c-3.144 0-5.137 2.435-5.137 5.225v.753h3.1v-.885c0-1.152.797-2.126 2.082-2.126h.265c1.284 0 2.081.974 2.081 2.126v10.583c0 1.153-.797 2.17-2.081 2.17h-1.683v6.91h3.1v-4.164c2.347-.575 3.764-2.657 3.764-5.093V5.225c0-2.79-1.993-5.225-5.137-5.225zM132.076 26.084h3.099v4.251h-3.099zM14.944 36.593v30.115h10.629v-2.923h-7.529V36.593zM31.418 48.816h5.536v-2.923h-5.536v-6.377h6.864v-2.923h-9.964v30.115h10.628v-2.923h-7.528zM51.523 36.593H40.895v2.923h3.764v27.192h3.1V39.516h3.764zM56.527 40.003c0 1.152-.796 2.17-2.08 2.17l.044 2.923c3.144 0 5.137-2.391 5.137-5.27v-3.233h-3.1v3.41zM75.127 36.593h-2.701c-3.145 0-5.137 2.436-5.137 5.226v19.795c0 1.153-.798 2.126-2.082 2.126H62.55v2.968h2.701c3.145 0 5.137-2.436 5.137-5.226V41.687c0-1.152.798-2.126 2.082-2.126h2.657v-2.968zM82.965 39.516h3.764v27.192h3.1V39.516h3.764v-2.923H82.965zM103.956 66.708h3.1v-25.11c0-2.79-1.993-5.226-5.137-5.226h-.354c-3.144 0-5.138 2.436-5.138 5.225v25.11h3.1v-6.155h4.429v6.156zm-4.429-9.079V41.42c0-1.15.798-2.125 2.082-2.125h.265c1.285 0 2.082.974 2.082 2.125v16.21h-4.429zM121.67 63.785h-7.529V36.593h-3.1v30.115h10.629zM132.297 36.593l-4.782 9.3v-9.3h-3.1v30.115h3.1V48.816h2.346c1.285 0 2.082.975 2.082 2.126v15.766h3.1V51.119c0-2.524-1.771-5.004-4.517-5.181l4.783-9.345h-3.012zM18.386 78.196h-3.083v-8.052h-1.414V83.89h1.414v-4.28h3.083v4.28H19.8V70.144h-1.414zM22.548 75.054h1.394v-3.397h3.083v6.578h-4.477v5.655h5.872V70.262h-5.872v4.792zm4.477 7.443h-3.083v-2.848h3.083v2.848zM31.109 83.89h1.394v-4.24h4.458v-9.388h-5.852V83.89zm1.394-12.233h3.063v6.578h-3.063v-6.578zM39.571 83.89h1.395v-4.24h4.458v-9.388H39.57V83.89zm1.395-12.233h3.063v6.578h-3.063v-6.578zM52.492 78.235h-3.063v-7.973h-1.395v9.387h4.458v2.848h-4.497v1.393h5.891V70.262h-1.394zM69.614 77.901l.157 3.535-3.162-11.292h-1.492V83.89h1.414v-7.658l-.118-3.299 3.083 10.957h1.532V70.144h-1.414zM74.11 83.89h5.852v-1.393h-4.458v-2.848h4.458v-1.414h-4.458v-6.578h4.458v-1.395H74.11zM89.426 81.554l-.197.02-1.355-11.41h-1.512l-1.433 11.41-.157-.02-1.395-11.41h-1.414L83.75 83.89h2.063l1.296-10.604.353 3.555.766 6.991h2.082l1.983-13.726H90.88zM107.175 78.196h-3.083v-8.052h-1.414v9.465h4.497v2.868h-4.537v1.413h5.95V70.144h-1.413zM111.298 83.89h5.852v-1.393h-4.458v-2.848h4.458v-1.414h-4.458v-6.578h4.458v-1.395h-5.852zM119.996 75.054h1.394v-3.397h3.083v6.578h-4.477v5.655h5.872V70.262h-5.872v4.792zm4.477 7.443h-3.083v-2.848h3.083v2.848zM134.409 79.65v-9.388h-5.852V83.89h1.394v-4.24h1.708l1.67 4.26h1.433l-1.669-4.26h1.316zm-1.395-1.415h-3.063v-6.578h3.063v6.578z"/><g><path class="st1" d="M9.608 5.225C9.608 2.435 11.601 0 14.745 0h.355c3.144 0 5.137 2.435 5.137 5.225v25.11h-3.1V5.093c0-1.152-.797-2.126-2.082-2.126h-.265c-1.285 0-2.082.974-2.082 2.126v25.242h-3.1V5.225zM24.222.221h9.964v2.923h-6.864V9.52h5.535v2.923h-5.535v14.968h7.528v2.923H24.222V.221zM37.95.221h9.964v2.923H41.05V9.52h5.536v2.923H41.05v14.968h7.529v2.923H37.95V.221zM51.679.221h5.491c3.144 0 5.137 2.436 5.137 5.226v19.618c0 2.879-1.993 5.27-5.137 5.27H51.68V.221zm5.447 27.191c1.284 0 2.081-1.018 2.081-2.17V5.27c0-1.152-.797-2.126-2.081-2.126h-2.347v24.268h2.347zM72.27.221h3.1v21.08h4.43V.221h3.1v30.114h-3.1v-6.111h-4.43v6.111h-3.1V.221zM86.972.221h9.964v2.923h-6.864V9.52h5.536v2.923h-5.536v14.968h7.529v2.923H86.972V.221zM100.7.221h3.1v27.191h7.53v2.923H100.7V.221zM114.074.221h5.58c2.835 0 5.049 2.303 5.049 4.916v5.358c0 2.614-2.214 4.916-5.049 4.916h-2.48v14.924h-3.1V.221zm5.58 12.267c1.196 0 1.949-.93 1.949-1.949V5.093c0-1.019-.753-1.95-1.949-1.95h-2.48v9.345h2.48zM130.77 17.847h1.682c1.285 0 2.082-1.019 2.082-2.17V5.092c0-1.152-.797-2.126-2.082-2.126h-.265c-1.284 0-2.081.974-2.081 2.126v.885h-3.1v-.753c0-2.79 1.993-5.225 5.137-5.225h.354c3.144 0 5.137 2.435 5.137 5.225V15.5c0 2.436-1.417 4.518-3.764 5.093v4.163h-3.1v-6.908zm0 8.237h3.1v4.251h-3.1v-4.251z"/></g><g><path class="st1" d="M13.638 36.593h3.1v27.192h7.528v2.923H13.638V36.593zM27.012 36.593h9.963v2.923h-6.863v6.377h5.536v2.923h-5.536v14.969h7.528v2.923H27.012V36.593zM43.353 39.516h-3.764v-2.923h10.628v2.923h-3.764v27.192h-3.1V39.516zM53.14 42.173c1.285 0 2.081-1.018 2.081-2.17v-3.41h3.1v3.233c0 2.879-1.992 5.27-5.136 5.27l-.045-2.923zM61.244 63.74H63.9c1.284 0 2.082-.974 2.082-2.126V41.82c0-2.79 1.992-5.226 5.137-5.226h2.701v2.968h-2.657c-1.284 0-2.082.974-2.082 2.126v19.795c0 2.79-1.992 5.226-5.137 5.226h-2.701V63.74zM85.423 39.516H81.66v-2.923h10.628v2.923h-3.765v27.192h-3.099V39.516zM95.121 41.597c0-2.79 1.994-5.225 5.137-5.225h.355c3.144 0 5.137 2.436 5.137 5.225v25.11h-3.1v-6.155H98.22v6.156h-3.1v-25.11zm7.529 16.032V41.42c0-1.15-.797-2.125-2.082-2.125h-.265c-1.285 0-2.082.974-2.082 2.125v16.21h4.429zM109.735 36.593h3.1v27.192h7.528v2.923h-10.628V36.593zM133.737 51.12v15.588h-3.1V50.942c0-1.151-.797-2.126-2.082-2.126h-2.347v17.892h-3.1V36.593h3.1v9.3l4.783-9.3h3.012l-4.783 9.345c2.746.177 4.517 2.657 4.517 5.181z"/></g><g><path class="st2" d="M13.227 83.89V70.144h1.414v8.052h3.083v-8.052h1.414V83.89h-1.414v-4.28h-3.083v4.28h-1.414zM26.363 71.657H23.28v3.397h-1.394v-4.792h5.872V83.89h-5.872v-5.655h4.477v-6.578zm0 10.84v-2.848H23.28v2.847h3.083zM30.447 70.262h5.852v9.387H31.84v4.241h-1.394V70.262zm1.394 1.395v6.578h3.063v-6.578h-3.063zM38.91 70.262h5.851v9.387h-4.457v4.241h-1.395V70.262zm1.394 1.395v6.578h3.063v-6.578h-3.063zM47.333 82.496h4.497V79.65h-4.458v-9.387h1.395v7.973h3.063v-7.973h1.394V83.89h-5.891v-1.394zM64.455 83.89V70.144h1.492l3.162 11.292-.157-3.535v-7.757h1.414V83.89h-1.532l-3.083-10.957.118 3.299v7.658h-1.414zM73.448 83.89V70.262H79.3v1.395h-4.458v6.578H79.3v1.414h-4.458v2.848H79.3v1.393h-5.852zM87.212 70.164l1.355 11.41.197-.02 1.453-11.448h1.414l-1.983 13.726h-2.082l-.766-6.991-.353-3.555L85.15 83.89h-2.063l-1.787-13.746h1.414l1.395 11.41.157.02 1.433-11.41h1.512zM101.976 82.477h4.537V79.61h-4.497v-9.465h1.414v8.052h3.083v-8.052h1.414V83.89h-5.95v-1.413zM110.636 83.89V70.262h5.852v1.395h-4.458v6.578h4.458v1.414h-4.458v2.848h4.458v1.393h-5.852zM123.811 71.657h-3.083v3.397h-1.394v-4.792h5.872V83.89h-5.872v-5.655h4.477v-6.578zm0 10.84v-2.848h-3.083v2.847h3.083zM127.895 70.262h5.852v9.387h-1.316l1.669 4.261h-1.433l-1.67-4.26h-1.708v4.24h-1.394V70.262zm4.457 7.973v-6.578h-3.063v6.578h3.063z"/></g><g><path class="st3" d="M4.042 37.949L.04 41.126s3.635 3.05 6.554.612c0 0-2.203-.674-2.552-3.789z"/></g><g><path class="st3" d="M0 14.866l5.07.639s-.363-4.732-4.147-5.113c0 0 1.06 2.046-.923 4.474z"/></g><g><path class="st3" d="M145.394 48.837l-.313-5.1s-4.582 1.234-4.254 5.023c0 0 1.813-1.421 4.567.077z"/></g><g><path class="st4" d="M148.26 12.106l.038 4.61s4.187-.893 4.073-4.323c0 0-1.702 1.193-4.112-.287z"/></g><g><path class="st4" d="M143.025 74.55l2.46-3.899s-4.005-1.513-5.763 1.435c0 0 2.077-.084 3.303 2.464z"/></g><g><path class="st4" d="M8.253 62.178l-4.254 1.779s2.41 3.539 5.542 2.136c0 0-1.748-1.124-1.288-3.915z"/></g></svg>