<svg version="1.1" id="Layer_1" xmlns="http://www.w3.org/2000/svg" x="0" y="0" viewBox="0 0 166.401 70.165" xml:space="preserve"><style>.st0{fill:#22b277}.st1{fill:#1d12ff}.st2{fill:#ffbc00}.st3{fill:#fff}</style><path class="st0" d="M31.66 46.747H20.583c.013-.304.02-.614.02-.93 0-.317.04-1.358.118-3.125.066-1.714.158-3.739.277-6.073.33-7.292.521-11.742.574-13.351.052-1.728.145-3.35.277-4.866l.079-.475.02-.06c0-.026.066-.072.197-.138.145-.04.403-.06.772-.06.488 0 1.081.034 1.78.1l2.512.257v.08l.277.019-.099 1.899c-.04 1.292-.33 5.143-.87 11.551-.541 6.33-.85 9.693-.93 10.088a1.4 1.4 0 00-.04.297c0 .066.007.118.02.158.436-.013 2.097-.31 4.985-.89l.791-.158h.08l.118.04.02.039h.02v.04l.02.059.138-.02.118-.04c.027.027.047.297.06.811.013.515.02 2.045.02 4.59h-.277v.158zm-10.523-.277v-.752c0-.554.138-3.593.415-9.119.25-5.42.435-9.863.554-13.331.105-3.02.23-4.794.376-5.321l-.04.02c-.132 0-.204.007-.217.02-.014.013-.027.02-.04.02l-.06.414c-.118.963-.217 2.579-.296 4.847-.119 3.468-.31 7.919-.574 13.351-.105 2.334-.197 4.359-.276 6.073-.08 1.714-.12 2.973-.12 3.778h.278zM33.737 47.538a.348.348 0 01-.258-.1l-.079.08-.118-.237-.02-1.187c.052-2.888.17-6.158.356-9.811l.395-9.712c.08-2.281.152-4.193.218-5.736l.08-1.76.039-.475v-.218h.02l.02-.04.039-.04h.02c0-.012.013-.019.04-.019l1.641-.06 9.554-.138.02.1h.276l.139 1.74c.04.501.06.976.06 1.424 0 .449-.02.778-.06.989-.04.211-.086.429-.139.653l-.257-.02-.06.178c-3.837-.158-5.986-.237-6.447-.237-.29 0-.502.006-.633.02h-.08c0 .013-.006.02-.02.02a.69.69 0 00-.118.296c-.04.237-.06.7-.06 1.385 0 1.332.027 2.525.08 3.58.04 1.015.092 1.661.158 1.938.356 0 1.009-.04 1.958-.119a35.688 35.688 0 011.662-.138h.771c.08 0 .152.033.218.099.145 0 .247.013.306.04.06.026.112.247.159.662.046.415.069.953.069 1.612l-.02 2.196h-.277v.158h-4.767l-.079 1.108c-.066.633-.099 2.004-.099 4.114l.02 2.71.534-.02c.699-.04 1.793-.158 3.283-.356a21.415 21.415 0 011.78-.178l.653-.02c.238 0 .403.033.495.099.132 0 .218.013.257.04.158.04.274.237.346.593.072.356.122.963.149 1.82l.079 2.274h-.277v.159l-9.791.356c-.87.04-1.458.079-1.76.119l-.179.04a2.44 2.44 0 01-.296.019zm.118-.277c-.026-.066-.04-.33-.04-.791 0-2.36.12-5.77.357-10.226l.395-9.713c.185-4.931.297-7.595.337-7.99l-.297.02-.02.533c-.053.95-.152 3.449-.297 7.497l-.395 9.712c-.172 3.112-.29 6.382-.356 9.81 0 .66.006 1.016.02 1.069v.04c0 .012.016.026.05.039a.28.28 0 00.147 0h.1zM55.317 48.17h-5.4l.178-2.234c.092-1.069.237-3.7.435-7.893.158-3.441.343-6.797.554-10.068.118-1.542.178-2.887.178-4.035-.013-.198-.027-.3-.04-.306-.013-.007-.03-.01-.05-.01s-.042-.007-.068-.02a8.263 8.263 0 00-.85-.04c-.278 0-1.267.04-2.968.119v-1.127c0-.607.099-1.339.297-2.196l.316-1.246 2.176-.198c1.279-.119 2.637-.257 4.075-.415 1.147-.159 2.499-.27 4.055-.337l2.176-.079v.119l.276-.02v4.59l-.276.039v.118l-1.979.198c-.923.093-1.542.172-1.859.238-.106.184-.191.913-.257 2.185-.066 1.273-.132 3.333-.198 6.182-.04 2.373-.092 4.714-.158 7.022a985.42 985.42 0 01-.336 9.237h-.277v.178zM47.84 23.387v-.87c0-.277.03-.62.089-1.028.06-.41.129-.785.208-1.128.079-.343.164-.685.257-1.029l-.277.02c-.093.356-.182.71-.267 1.058-.086.35-.155.73-.208 1.138-.053.409-.079.745-.079 1.008v.831h.277zm2.65 24.508l.159-1.998c.092-1.108.237-3.738.435-7.892.171-3.52.356-6.877.554-10.068.118-1.728.178-2.987.178-3.778 0-.383-.02-.594-.06-.633-.04-.04-.145-.072-.316-.1h-.02.02l.06.1.02.118.019.713c0 .712-.06 1.925-.178 3.64a277.483 277.483 0 00-.554 10.047l-.237 4.708a215.46 215.46 0 01-.357 5.143h.277zM66.196 47.024a6.765 6.765 0 01-1.86-.277c-.276-.093-.62-.297-1.028-.614-.976-.738-1.774-1.483-2.394-2.235-.343-.395-.514-.685-.514-.87 0-.132.066-.343.198-.633.105-.303.25-.66.435-1.068.435-.963.99-2.05 1.662-3.264l.376.317.079-.159.85.732c.712.594 1.358.976 1.939 1.147a1.9 1.9 0 00.375.04c.673 0 1.187-.409 1.543-1.226.238-.528.356-1.01.356-1.444 0-.303-.059-.587-.178-.85-.264-.634-1.002-1.392-2.215-2.275-1.57-1.121-2.654-2.258-3.254-3.412-.6-1.154-.9-2.654-.9-4.5v-.594c0-.672.043-1.24.129-1.701.085-.461.286-1.022.603-1.681 1.081-2.414 2.73-3.87 4.945-4.372.198-.04.402-.066.613-.079.435 0 .89.066 1.365.198 1.279.277 2.505.982 3.68 2.117.408.408.75.774 1.028 1.097.277.324.415.518.415.584 0 .053-.155.254-.465.603-.31.35-.69.749-1.137 1.197l-1.602 1.582-.1-.079-.296.297a57.19 57.19 0 00-.96-.821c-.323-.27-.61-.445-.86-.524a1.95 1.95 0 00-.652-.1c-.33 0-.653.047-.97.14-.712.408-1.127 1.259-1.246 2.551-.026.172-.04.336-.04.495 0 .593.212 1.154.634 1.68.421.528 1.41 1.306 2.967 2.335 1.055.699 1.856 1.335 2.403 1.909.547.573.913 1.203 1.098 1.889.184.685.277 1.582.277 2.69 0 1.516-.175 2.786-.524 3.807-.35 1.022-.934 1.982-1.751 2.878-.844.95-1.734 1.602-2.67 1.959a5.353 5.353 0 01-2.354.534zm-1.187-.396l-.218-.04c-.343-.118-.814-.425-1.414-.92a17.027 17.027 0 01-1.661-1.562c-.508-.547-.762-.92-.762-1.118 0-.237.336-1.068 1.009-2.492.33-.672.653-1.299.97-1.879l-.16-.139-.256.475c-.712 1.306-1.273 2.486-1.682 3.54-.105.291-.158.47-.158.535 0 .119.145.35.435.692.646.778 1.431 1.51 2.354 2.196.409.316.719.507.93.574.21.065.415.111.613.138zm2.176-6.468c.514-.158.916-.567 1.206-1.227.25-.553.376-1.06.376-1.523 0-.316-.105-.712-.316-1.186-.211-.475-.923-1.154-2.137-2.038-1.556-1.107-2.627-2.225-3.214-3.352-.587-1.128-.88-2.614-.88-4.46v-.594c0-.646.04-1.197.119-1.652s.277-1.005.593-1.652c.83-1.82 1.945-3.072 3.343-3.758-1.543.633-2.756 1.919-3.64 3.858-.316.646-.514 1.213-.593 1.7-.066.383-.099.904-.099 1.563v.593c0 1.82.287 3.281.86 4.382.574 1.101 1.632 2.205 3.175 3.313 1.227.884 1.998 1.681 2.314 2.393.12.29.178.607.178.95 0 .474-.118.986-.355 1.533-.238.547-.548.933-.93 1.157zm3.64-14.914l.118-.119-.574-.475c-.435-.382-.857-.593-1.266-.633.304.106.62.297.95.574l.771.653zM94.739 47.182c-.607 0-1.18-.073-1.721-.218h-.04c-.739-.185-1.345-.442-1.82-.771-.474-.33-1.015-.864-1.622-1.602-2.083-2.44-3.125-5.954-3.125-10.543 0-3.877.646-7.226 1.938-10.048 1.253-2.77 2.954-4.57 5.104-5.4a6.928 6.928 0 012.314-.376c.343 0 .692.026 1.049.079 1.318.237 2.4.712 3.243 1.424 1.411 1.174 2.117 2.77 2.117 4.787l.02 1.978c-2.295.95-3.459 1.427-3.492 1.434a.4.4 0 01-.069.01l-.435.178a1.698 1.698 0 00-.109.03.128.128 0 00-.05.03h-.118l-.04-.04-.049-.05c-.02-.02-.03-.062-.03-.128-.04-.238-.059-.66-.059-1.266 0-1.635-.462-2.81-1.384-3.521a1.276 1.276 0 00-.713-.238 1.01 1.01 0 00-.277.04c-.751.396-1.427 1.292-2.027 2.69-.6 1.398-1.038 3.145-1.315 5.242a22.072 22.072 0 00-.139 2.551c0 4.088.554 6.812 1.662 8.17.422.527.843.896 1.266 1.107.013 0 .02.007.02.02.632 0 1.196-.435 1.69-1.305.495-.87.854-2.117 1.079-3.739l.178-1.384 2.077.415c.922.198 1.582.363 1.978.494.303.093.48.165.534.218.052.053.079.185.079.396 0 .567-.119 1.365-.356 2.393-.172.699-.363 1.345-.574 1.939a9.812 9.812 0 01-1.602 2.64c-.7.837-1.378 1.407-2.038 1.711a3.348 3.348 0 00-.336.119c-.013 0-.02.006-.02.02-.844.342-1.773.514-2.788.514zm-1.88-.534a4.31 4.31 0 01-1.404-.732c-.396-.317-.864-.798-1.404-1.444-2.057-2.387-3.086-5.868-3.086-10.444 0-3.758.613-7.028 1.84-9.81 1.186-2.704 2.789-4.504 4.806-5.4-.013 0-.02.006-.02.019h-.06c-2.056.791-3.705 2.545-4.944 5.261-1.266 2.783-1.9 6.1-1.9 9.95 0 4.536 1.023 7.99 3.067 10.364.567.7 1.065 1.204 1.493 1.514.429.31.966.55 1.612.722zm2.75-3.818c1.252-.369 2.097-2.07 2.532-5.103l.138-1.028-.257-.06-.158 1.108c-.225 1.635-.594 2.914-1.108 3.837-.33.594-.712 1.009-1.147 1.246zm2.453-14.953l.276-.1a8.19 8.19 0 01-.059-1.107c0-.83-.125-1.566-.376-2.206-.25-.64-.6-1.11-1.048-1.414a1.413 1.413 0 00-.593-.237l.237.138c.488.317.86.805 1.118 1.464.257.66.385 1.418.385 2.275 0 .553.02.95.06 1.187zM106.508 47.419c-.515 0-.976-.007-1.385-.02l-1.622-.099.297-5.024.237-4.371c.145-2.796.33-6.171.554-10.128.066-1.345.135-2.633.208-3.866.072-1.233.121-2.127.148-2.68.052-.91.105-1.497.158-1.761v-.02c0-.079.013-.132.04-.158v-.02a.648.648 0 01.05-.07c.006-.006.016-.009.029-.009.013 0 .026-.007.04-.02.013-.013.032-.02.059-.02.026 0 .06-.006.099-.02h.06c.118-.026.292-.052.523-.078.23-.027 1.546-.152 3.946-.376v.138l.277-.02.158 11.433 2.83.139c.025-1.754.105-4.187.237-7.3l.158-4.45 4.173-.158v.119l.277-.02.1 19.701c0 2.664-.014 4.477-.04 5.44l-.06 3.144-.277.02-.02.139-2.334.138-1.147.02c-.356 0-.705-.013-1.048-.04l-.198-.02v-.02a.21.21 0 01-.138-.048c-.04-.034-.06-.07-.06-.11v-.019a.274.274 0 01-.02-.119 8.947 8.947 0 01-.039-.95c0-1.199.046-2.815.138-4.845.12-2.44.178-4.233.178-5.38 0-.145-.006-.264-.02-.357v-.04c0-.012-.026-.025-.078-.039l-.376-.059c-.33-.026-1.082-.04-2.255-.04-.053.251-.106.518-.158.802-.053.283-.12.998-.198 2.146-.08 1.147-.145 2.46-.198 3.936l-.178 5.162-.277.02-.02.139-1.483.099c-.396.026-.844.039-1.345.039zm-2.453-.356c.171-2.505.35-5.561.534-9.168.184-3.606.363-6.985.534-10.137l.376-6.567c.04-.897.092-1.503.158-1.82l-.277.06c-.066.263-.118.87-.158 1.82l-.376 6.546c-.171 3.113-.353 6.492-.544 10.138-.191 3.646-.366 6.689-.524 9.128h.277zm9.336-.198c-.04-.132-.06-.567-.06-1.305 0-1.187.047-2.723.14-4.609.118-2.374.177-4.1.177-5.182 0-.422-.013-.66-.04-.712-.039-.027-.157-.053-.355-.08.013 0 .03.01.049.03.02.02.03.043.03.07v.039c.026.08.04.244.04.495 0 1.16-.06 2.96-.179 5.4-.092 2.004-.138 3.613-.138 4.826 0 .62.013.94.04.959.026.02.072.033.138.04a.74.74 0 01.158.03zm.356-16.397c.04-1.464.08-2.766.119-3.907.04-1.14.132-3.702.277-7.685l-.277.02-.277 7.695-.119 3.877h.277zM128.938 46.945h-.297a.149.149 0 00-.04-.03.297.297 0 01-.058-.05c-.027-.026-.04-.05-.04-.069a.068.068 0 00-.02-.05c-.079-.316-.171-1.206-.277-2.67-.052-1.055-.132-1.885-.237-2.492-.027-.158-.046-.244-.06-.257a.257.257 0 00-.118-.06c-.33-.144-.857-.257-1.582-.336l-1.227-.138-.336 2.907c-.132 1.32-.244 2.147-.336 2.483-.093.336-.277.517-.554.544-.158.118-.363.178-.613.178-.238 0-.7-.073-1.385-.218a65.941 65.941 0 01-1.978-.415c-.25-.053-.435-.1-.554-.139l-.079-.02v-.02h-.02l-.04-.098v-.04l.06-.316c.185-.936.468-2.242.85-3.916a1441.021 1441.021 0 014.234-18.554c.303-1.306.626-2.644.969-4.015l.119-.396a.217.217 0 01.108-.109c.046-.02.096-.043.149-.07a7.287 7.287 0 011.562-.177l1.642.02.02.079h.296c1.148 5.987 1.833 9.362 2.058 10.127.079.264.244.953.494 2.067.25 1.115.52 2.397.811 3.847.699 3.402 1.233 5.875 1.602 7.418.356 1.45.534 2.453.534 3.006 0 .528-.151.818-.455.87-.013.027-.052.04-.118.04-.106.106-.647.264-1.622.475-1.147.25-2.176.435-3.086.554l-.376.04zm-9.296-.99c0-.171.296-1.588.89-4.252 1.37-6.145 2.789-12.33 4.252-18.554.673-2.888 1.022-4.338 1.049-4.352l.02-.02c-.146.04-.231.067-.258.08a.089.089 0 00-.05.059c-.006.027-.036.125-.088.297-.172.646-.495 1.978-.97 3.995a2023.99 2023.99 0 00-4.232 18.554c-.528 2.374-.825 3.751-.89 4.134h.03c.006 0 .016.006.03.02l.217.04zm7.852-8.208l.04-.594c0-.487-.02-1.1-.06-1.84-.131-1.872-.276-3.23-.435-4.074a19.096 19.096 0 01-.237-2.275 79.438 79.438 0 00-.89 6.449 15.547 15.547 0 00-.099 1.384c0 .146.016.248.05.307.032.06.154.135.365.227.488.25.904.39 1.246.416h.02zm.475.158c.066-.013.105-.27.119-.771 0-.488-.023-1.105-.07-1.85a47.16 47.16 0 00-.435-4.075 18.99 18.99 0 01-.178-1.364c-.046-.482-.069-.864-.069-1.148 0-.283-.02-.524-.06-.722-.039-.198-.092-.296-.157-.296-.027 0-.067.105-.12.316.04.211.06.452.06.722 0 .27.023.646.07 1.128.045.481.105.93.177 1.345.073.415.149.995.228 1.74.08.745.145 1.494.198 2.245v.119c.04.593.059 1.108.059 1.543 0 .554-.02.897-.06 1.028l.238.04zm.791 8.762l.277-.02c-.106-.395-.198-1.265-.277-2.61-.106-1.675-.21-2.618-.316-2.829-.066-.079-.304-.165-.712-.257l.178.06c.17.052.27.151.296.296.093.422.185 1.339.277 2.75a24.7 24.7 0 00.158 1.84c.04.395.08.652.12.77zM139.382 47.439c-.462 0-.93-.02-1.404-.06v.02l-1.325-.158.257-3.837c.118-1.925.31-4.299.573-7.121.092-.989.198-2.242.317-3.758.092-1.266.277-4.18.554-8.743l-4.075-.376.217-1.74c.12-1.042.264-1.734.436-2.078.079-.144.253-.26.524-.346.27-.085.709-.16 1.315-.227 1.12-.119 3.376-.257 6.765-.415l3.54-.179c.04 0 .063.004.07.01l.089.09.237-.02c.171 0 .27.751.297 2.255l.04 2.294h-.297v.158h-1.958c-.805.027-1.438.08-1.9.159-.092.105-.177.501-.257 1.186-.145 1.253-.33 4.78-.553 10.583-.132 3.27-.264 6.023-.396 8.258-.132 2.235-.237 3.425-.316 3.57-.053.053-.159.1-.317.139-.132.105-.33.17-.593.197-.488.092-1.102.139-1.84.139zm-4.53-24.25l.198-1.543c.132-1.055.27-1.734.416-2.038a.348.348 0 01.138-.138l-.06.02c-.21.066-.329.128-.355.188a2.62 2.62 0 00-.1.286c-.131.423-.243.996-.335 1.721l-.179 1.484.278.02zm2.354 23.854l.257-3.659c.159-2.479.35-4.853.574-7.12.092-.99.191-2.243.297-3.76.118-1.568.31-4.529.573-8.88l-.277-.04-.276 4.688c-.185 3.073-.39 5.75-.614 8.03-.092.99-.19 2.167-.296 3.532-.106 1.364-.277 3.755-.515 7.17l.277.04z"/><path class="st1" d="M28.53 52.884v16.939h-3.388V66.53h-1.688v3.293h-3.388V52.884h3.388v10.258h1.688V52.884h3.388zM33.983 52.53c1.165 0 2.16.414 2.986 1.24.827.826 1.24 1.826 1.24 2.998v13.043H34.82v-3.388h-1.688v3.388h-3.388V56.768c0-1.172.413-2.172 1.24-2.998.826-.826 1.825-1.24 2.998-1.24zm.838 10.506v-6.268a.82.82 0 00-.248-.602.806.806 0 00-.59-.248.82.82 0 00-.602.248.82.82 0 00-.248.602v6.268h1.688zM47.935 60.522c-.008 1.156-.421 2.148-1.24 2.974-.818.819-1.81 1.228-2.974 1.228h-.862v5.075h-3.376V52.896h4.238c1.164.008 2.156.421 2.974 1.24.819.818 1.232 1.81 1.24 2.974v3.412zm-3.376-3.4a.82.82 0 00-.248-.602.82.82 0 00-.602-.248h-.85v5.076h.85a.82.82 0 00.602-.248.82.82 0 00.248-.602v-3.376zM57.437 60.522c-.008 1.156-.421 2.148-1.24 2.974-.818.819-1.81 1.228-2.974 1.228h-.862v5.075h-3.376V52.896h4.238c1.164.008 2.156.421 2.975 1.24.818.818 1.231 1.81 1.239 2.974v3.412zm-3.376-3.4a.82.82 0 00-.248-.602.82.82 0 00-.602-.248h-.85v5.076h.85a.82.82 0 00.602-.248.82.82 0 00.248-.602v-3.376zM66.974 52.896v7.614c0 .85-.232 1.625-.696 2.325a4.134 4.134 0 01-1.806 1.535v5.441h-3.376v-5.418a4.077 4.077 0 01-1.853-1.523 4.15 4.15 0 01-.72-2.36v-7.614h3.387v7.614a.82.82 0 00.248.602.806.806 0 00.59.247.82.82 0 00.602-.247.82.82 0 00.248-.602v-7.614h3.376zM81.091 52.896V69.8h-3.376v-5.96l-1.7-3.967V69.8H72.64V52.896h3.376v.083l1.7 3.966v-4.049h3.375zM85.6 56.272v5.076h3.388v3.387H85.6v1.7h4.06v3.388h-7.447V52.884h7.448v3.388H85.6zM90.818 52.896h3.387V65.94c0 .228.083.424.248.59a.807.807 0 00.59.247.82.82 0 00.602-.247.806.806 0 00.248-.59V52.896h3.376V65.94c.008.228.09.424.248.59a.82.82 0 00.602.247.844.844 0 00.543-.188l.059-.06a.401.401 0 00.047-.058c-.008.015-.004.015.012 0a.394.394 0 01.047-.06c-.008.009-.008.005 0-.011a.617.617 0 00.035-.06v-.011a.573.573 0 00.036-.06l.012-.034.023-.048.012-.047c.008-.031.008-.043 0-.035.008-.008.012-.024.012-.047.008-.032.008-.044 0-.036a.357.357 0 00.012-.082V52.896h3.376v13.055c0 1.165-.414 2.156-1.24 2.975-.818.818-1.806 1.231-2.963 1.24h-.177a4.111 4.111 0 01-2.384-.85 4.094 4.094 0 01-2.538.85c-1.165 0-2.16-.414-2.986-1.24-.826-.826-1.24-1.822-1.24-2.986V52.896zM118.733 52.896v7.614c0 .85-.232 1.625-.696 2.325a4.134 4.134 0 01-1.806 1.535v5.441h-3.376v-5.418a4.077 4.077 0 01-1.853-1.523 4.15 4.15 0 01-.72-2.36v-7.614h3.387v7.614a.82.82 0 00.248.602.806.806 0 00.59.247.82.82 0 00.603-.247.82.82 0 00.247-.602v-7.614h3.376zM123.112 56.272v5.076h3.388v3.387h-3.388v1.7h4.061v3.388h-7.448V52.884h7.448v3.388h-4.06zM132.461 52.53c1.165 0 2.16.414 2.986 1.24.827.826 1.24 1.826 1.24 2.998v13.043h-3.388v-3.388h-1.688v3.388h-3.388V56.768c0-1.172.413-2.172 1.24-2.998s1.825-1.24 2.998-1.24zm.838 10.506v-6.268a.82.82 0 00-.248-.602.806.806 0 00-.59-.248.82.82 0 00-.602.248.82.82 0 00-.248.602v6.268h1.688zM146.92 69.811h-3.375l-.579-4.072-.011-.154a1.001 1.001 0 00-.343-.602.928.928 0 00-.625-.248h-.708v5.076h-3.388V52.896h4.25c1.156.008 2.147.421 2.974 1.24.818.818 1.227 1.81 1.227 2.974v3.412a4.06 4.06 0 01-1.027 2.75 4.63 4.63 0 011.015 2.29l.012.094.579 4.155zm-4.804-8.452a.884.884 0 00.602-.247.82.82 0 00.248-.602v-3.388a.806.806 0 00-.248-.59.82.82 0 00-.602-.248h-.837v5.075h.837z"/><path class="st2" d="M14.09 27.668a34.848 34.848 0 00-12.488-8.71c-1.442-.59-2.3 1.668-.862 2.256A32.084 32.084 0 0112.23 29.21c1.046 1.141 2.913-.392 1.859-1.542zM12.288 35.332c-4.335.895-8.359 2.95-11.676 5.871-.49.431-.44 1.267 0 1.707.486.486 1.216.433 1.707 0 3.012-2.652 6.685-4.44 10.61-5.25.64-.132 1.008-.886.844-1.485-.183-.664-.845-.976-1.485-.843zM18.52 23.692a32.997 32.997 0 00-2.908-10.996c-.273-.591-.898-.958-1.547-.722-.574.209-.997.953-.722 1.547a31.036 31.036 0 012.772 10.385c.133 1.546 2.54 1.338 2.405-.214zM14.218 40.766a58.386 58.386 0 00-5.935 14.427c-.391 1.499 1.899 2.266 2.291.761a56.035 56.035 0 015.667-13.87c.774-1.343-1.245-2.667-2.023-1.318zM18.85 32.85v-.313a.91.91 0 00-.104-.465.905.905 0 00-.25-.388.905.905 0 00-.388-.25.91.91 0 00-.465-.104l-.321.043c-.205.057-.382.16-.533.31l-.189.245c-.109.188-.164.391-.164.61v.312a.91.91 0 00.104.465c.048.15.132.28.25.389.109.118.238.2.388.25a.91.91 0 00.465.104l.32-.044c.205-.057.383-.16.533-.31l.19-.244c.108-.189.163-.392.164-.61zM151.72 43.864a24.389 24.389 0 0113.77-7.952c.64-.124 1.006-.89.843-1.484-.184-.67-.843-.968-1.485-.844-5.714 1.111-11.018 4.178-14.834 8.573-.428.492-.484 1.224 0 1.707.436.437 1.277.495 1.707 0zM152.955 48.422c4.196.478 8.201 2.088 11.63 4.536.532.379 1.344.093 1.652-.433.355-.607.1-1.272-.433-1.652-3.795-2.709-8.226-4.339-12.85-4.865-.648-.074-1.206.608-1.206 1.207 0 .714.556 1.133 1.207 1.207zM149.36 54.913a23.861 23.861 0 016.925 11.82c.368 1.508 2.697.87 2.329-.642a26.164 26.164 0 00-7.546-12.885c-1.136-1.059-2.847.645-1.708 1.707zM148.52 47.258v-.313a.91.91 0 00-.104-.465.905.905 0 00-.25-.389.905.905 0 00-.389-.25.91.91 0 00-.465-.103l-.32.043c-.205.057-.383.16-.533.31l-.189.245c-.11.188-.164.391-.165.609v.313a.91.91 0 00.104.465c.049.15.132.28.25.389.11.117.239.2.388.25a.91.91 0 00.465.103l.321-.043c.205-.057.382-.16.533-.31l.189-.245c.109-.188.164-.391.165-.609zM149.432 38.175a25.624 25.624 0 014.316-13.752c.864-1.297-1.227-2.507-2.085-1.219-2.945 4.422-4.553 9.661-4.645 14.97-.027 1.555 2.387 1.555 2.414 0zM83.958 19.155l-.314-.313a.905.905 0 00-.388-.25.91.91 0 00-.465-.104.91.91 0 00-.465.104.905.905 0 00-.389.25l-.189.244c-.109.188-.164.392-.164.61l.043.32c.057.205.16.382.31.533l.313.313c.11.118.24.201.389.25a.91.91 0 00.465.104.91.91 0 00.465-.104.905.905 0 00.389-.25l.188-.244c.11-.188.165-.391.165-.61l-.043-.32a1.206 1.206 0 00-.31-.533zM87.61 15.305l3.779-5.938c.34-.534.128-1.355-.433-1.652a1.233 1.233 0 00-1.652.433l-3.779 5.939c-.34.533-.128 1.355.434 1.651.596.316 1.289.137 1.651-.433zM83.028 13.107L79.72.855c-.405-1.499-2.735-.863-2.328.641L80.7 13.75c.404 1.498 2.734.862 2.328-.642zM78.28 13.247a17.557 17.557 0 00-6.45-3.779c-.6-.196-1.345.228-1.485.843-.151.663.2 1.275.843 1.485.27.088.538.182.803.284.124.048.248.099.372.149.168.067-.176-.08-.012-.004.06.028.122.053.183.08a16.002 16.002 0 012.893 1.69l.16.12c.097.072.08.062-.005-.005.104.083.209.166.312.25.232.192.457.391.678.595.465.428 1.254.494 1.708 0 .427-.466.496-1.25 0-1.708zM79.866 25.372l-2.057 5.255c-.231.59.253 1.35.843 1.485.693.158 1.238-.212 1.485-.843l2.057-5.255c.23-.59-.253-1.35-.843-1.485-.694-.158-1.238.212-1.485.843z"/><path class="st3" d="M20.823 53.675h.129v15.624h-.129zM25.744 63.842H23.44v-.128h2.175v-9.987h.129zM25.563 66.486h.129v2.604h-.129zM30.483 68.882h-.129V57.48c0-.771.146-1.48.432-2.108.432-.946 1.324-2.074 3.122-2.074v.128c-1.73 0-2.589 1.088-3.005 2-.279.61-.42 1.301-.42 2.054v11.402zM35.326 63.634H33.18v-.128h2.019v-6.863c0-.05-.018-1.238-1.342-1.238v-.128c1.453 0 1.47 1.352 1.47 1.366v6.991zM35.25 66.434h.129v2.761h-.129zM128.95 68.882h-.128V57.48c0-.771.145-1.48.431-2.108.432-.946 1.324-2.074 3.122-2.074v.128c-1.73 0-2.589 1.088-3.005 2-.279.61-.42 1.301-.42 2.054v11.402zM133.794 63.634h-2.148v-.128h2.02v-6.863c0-.05-.019-1.238-1.343-1.238v-.128c1.454 0 1.47 1.352 1.47 1.366v6.991zM133.717 66.434h.129v2.761h-.129zM40.145 53.623h.129v15.52h-.129zM42.9 62.176v-.128h.886c1.56-.231 1.379-2.442 1.377-2.465v-2.02h.128v2.014c.002.018.194 2.35-1.496 2.598H42.9zM49.728 53.623h.129v15.52h-.129zM52.483 62.176v-.128h.886c1.56-.231 1.378-2.442 1.377-2.465v-2.02h.128v2.014c.002.018.194 2.35-1.496 2.598h-.895zM138.439 53.623h.129v15.52h-.129z"/><g><path class="st3" d="M141.194 62.176v-.128h.886c1.561-.231 1.378-2.442 1.377-2.465v-2.02h.128v2.014c.002.018.194 2.35-1.496 2.598h-.895z"/></g><g><path class="st3" d="M61.992 68.882h-.13v-5.197c-.933-.026-1.696-.622-2.206-1.728-.333-.72-.501-1.55-.501-2.47v-5.864h.129v5.864c0 .9.164 1.713.488 2.416.507 1.098 1.232 1.655 2.155 1.655h.065v5.324z"/></g><g><path class="st3" d="M73.269 53.623h.129v15.572h-.129z"/></g><g><path class="st3" d="M78.71 69.143h-.129v-5.247l-2.39-5.248.117-.052 2.402 5.286z"/></g><g><path class="st3" d="M78.425 53.414h.129v4.062h-.129z"/></g><g><path class="st3" d="M82.956 53.779h.129v15.26h-.129z"/></g><g><path class="st3" d="M85.728 62.048h2.656v.128h-2.656z"/></g><g><path class="st3" d="M85.624 67.048h3.49v.128h-3.49z"/></g><g><path class="st3" d="M120.523 53.779h.129v15.26h-.129z"/></g><g><path class="st3" d="M123.296 62.048h2.656v.128h-2.656z"/></g><g><path class="st3" d="M123.192 67.048h3.49v.128h-3.49z"/></g><g><path class="st3" d="M94.406 69.465c-2.617-.838-2.752-3.728-2.753-3.757v-12.19h.129v12.187c0 .026.134 2.827 2.663 3.637l-.039.123z"/></g><g><path class="st3" d="M95.05 67.618v-.128c.546 0 .966-.161 1.249-.479.503-.564.408-1.446.407-1.454V53.623h.128v11.926c.004.03.103.94-.439 1.547-.308.346-.76.522-1.344.522z"/></g><g><path class="st3" d="M62.587 62.063v-.128c.546 0 .965-.161 1.248-.479.503-.564.408-1.446.407-1.455v-6.257h.128v6.25c.004.03.103.939-.438 1.547-.308.346-.76.522-1.345.522z"/></g><g><path class="st3" d="M113.812 68.96h-.129v-5.197c-.934-.026-1.696-.622-2.207-1.729-.333-.72-.501-1.55-.501-2.468V53.7h.129v5.865c0 .899.164 1.712.489 2.415.506 1.098 1.232 1.655 2.155 1.655h.064v5.324z"/></g><g><path class="st3" d="M114.408 62.141v-.128c.545 0 .965-.161 1.247-.478.504-.565.408-1.447.407-1.456v-6.257h.128v6.25c.004.03.103.939-.438 1.547-.308.346-.76.522-1.344.522z"/></g><g><path class="st3" d="M100.103 67.618v-.128c.545 0 .965-.161 1.248-.479.503-.564.408-1.446.407-1.454l-.001-11.934h.129v11.926c.004.03.103.94-.439 1.547-.308.346-.76.522-1.344.522z"/></g><g><path class="st3" d="M144.047 69.282c-.004-.03-.444-2.978-.547-3.777-.097-.754-.539-.93-.557-.938l.044-.12c.022.008.533.206.64 1.042.103.797.543 3.745.547 3.774l-.127.019z"/></g></svg>