<svg version="1.1" id="Layer_1" xmlns="http://www.w3.org/2000/svg" x="0" y="0" viewBox="0 0 198.586 81.564" xml:space="preserve"><style>.st0{fill:#f9ac00}.st1{fill:#bc2622}</style><path class="st0" d="M28.585 75.213h-4.108l1.888-13.356h4.089l-.701 4.926h3.154l.7-4.926h4.108l-1.888 13.356h-4.089l.74-5.198h-3.154l-.74 5.198zM37.968 71.455c0-1.531.357-2.94 1.071-4.225a4.34 4.34 0 011.48-1.567c.623-.396 1.265-.594 1.927-.594 1.324 0 2.271.461 2.843 1.383h.097l.662-1.188h2.9c-.22 1.311-.447 2.8-.68 4.468-.234 1.668-.351 2.606-.351 2.813 0 .35.168.526.506.526.22 0 .46-.084.72-.253l-.292 2.141c-.57.299-1.223.448-1.956.448-.734 0-1.33-.104-1.791-.311-.461-.208-.763-.61-.906-1.207-.35.441-.788.805-1.314 1.09-.525.285-1.054.428-1.586.428-1.143 0-1.983-.363-2.522-1.09-.538-.727-.808-1.68-.808-2.862zm3.816.448c0 .338.098.613.292.827.195.215.468.322.818.322s.646-.127.886-.38.386-.58.438-.983l.194-1.402a55.62 55.62 0 00.215-1.655c0-.363-.095-.642-.283-.837-.188-.195-.447-.292-.778-.292s-.63.13-.896.39-.425.583-.477.973c-.272 1.92-.409 2.933-.409 3.037zM53.387 78.736h-3.835l1.87-13.472h3.075l.195 1.149c.843-.896 1.778-1.344 2.803-1.344s1.866.335 2.521 1.003c.656.669.984 1.645.984 2.93 0 1.506-.35 2.914-1.052 4.225a4.157 4.157 0 01-1.42 1.577c-.611.402-1.257.603-1.938.603s-1.24-.116-1.674-.35c-.435-.234-.73-.526-.886-.876l-.643 4.555zm.993-6.911c0 .338.098.613.292.827.195.215.468.322.818.322.35 0 .646-.127.886-.38s.386-.58.438-.983l.195-1.402c.142-1.051.214-1.603.214-1.655 0-.363-.095-.642-.283-.837-.188-.195-.447-.292-.778-.292s-.63.13-.896.39-.425.584-.477.973c-.272 1.92-.409 2.933-.409 3.037zM65.05 78.736h-3.836l1.869-13.472h3.076l.195 1.149c.843-.896 1.778-1.344 2.803-1.344s1.866.335 2.521 1.003c.656.669.983 1.645.983 2.93 0 1.506-.35 2.914-1.05 4.225a4.157 4.157 0 01-1.422 1.577c-.61.402-1.256.603-1.937.603-.682 0-1.24-.116-1.675-.35-.435-.234-.73-.526-.885-.876l-.643 4.555zm.992-6.911c0 .338.097.613.292.827s.467.322.818.322c.35 0 .645-.127.886-.38.24-.253.386-.58.438-.983l.194-1.402c.143-1.051.214-1.603.214-1.655 0-.363-.094-.642-.282-.837-.188-.195-.448-.292-.778-.292-.331 0-.63.13-.896.39s-.425.584-.477.973c-.273 1.92-.409 2.933-.409 3.037zM72.525 78.561l.331-2.511c.337.181.811.272 1.421.272.844 0 1.415-.467 1.714-1.402l-2.298-9.656h4.108l.798 5.16h.156l2.044-5.16h3.797l-4.653 9.248c-.662 1.31-1.474 2.362-2.434 3.153-.96.792-2.005 1.188-3.134 1.188-.896 0-1.512-.097-1.85-.292zM91.74 75.213h-3.757l1.888-13.356h3.427l2.725 4.965.545 1.09.857-6.055h3.777l-1.889 13.356H95.81l-2.648-4.79a10.423 10.423 0 00-.33-.623l-.254-.506-.837 5.919zM101.533 71.319c0-1.92.567-3.443 1.703-4.566 1.136-1.122 2.619-1.684 4.449-1.684h.487c1.362 0 2.407.338 3.134 1.013.727.675 1.09 1.577 1.09 2.706v.195l-.039.33c-.013.195-.071.676-.175 1.441h-6.483l-.078.487c-.052.22-.078.477-.078.769 0 .292.123.539.37.74.247.201.58.302 1.003.302.421 0 .775-.14 1.06-.42.286-.278.461-.664.526-1.157h3.563c-.156 1.129-.724 2.067-1.703 2.813-.98.746-2.217 1.12-3.71 1.12h-.291c-1.428 0-2.59-.364-3.485-1.09-.896-.728-1.343-1.727-1.343-3zm7.106-2.395l.02-.311c0-.338-.108-.62-.322-.847-.214-.227-.5-.34-.857-.34s-.684.132-.983.398a1.54 1.54 0 00-.525.964l-.04.272h2.687c0-.051.007-.097.02-.136zM114.85 75.213l-1.441-9.949h4.01l.409 5.023h.136l1.889-5.023h3.893l.468 5.023h.156l1.81-5.023h3.738l-4.225 9.949h-4.36l-.37-4.147h-.156l-1.519 4.147h-4.439zM137.277 70.112l-3.27-8.255h4.594l1.382 4.38h.097l2.667-4.38h4.186l-5.587 8.255-.72 5.1h-4.07l.72-5.1zM145.999 71.319c0-1.92.567-3.443 1.703-4.566 1.136-1.122 2.619-1.684 4.449-1.684h.487c1.362 0 2.407.338 3.134 1.013.727.675 1.09 1.577 1.09 2.706v.195l-.039.33c-.013.195-.071.676-.175 1.441h-6.483l-.078.487c-.052.22-.078.477-.078.769 0 .292.123.539.37.74.247.201.58.302 1.003.302.421 0 .775-.14 1.06-.42.286-.278.461-.664.526-1.157h3.563c-.156 1.129-.723 2.067-1.703 2.813-.98.746-2.217 1.12-3.71 1.12h-.291c-1.428 0-2.59-.364-3.485-1.09-.896-.728-1.343-1.727-1.343-3zm7.106-2.395l.02-.311c0-.338-.108-.62-.322-.847-.214-.227-.5-.34-.857-.34s-.684.132-.983.398a1.54 1.54 0 00-.525.964l-.04.272h2.687c0-.051.007-.097.02-.136zM157.699 71.455c0-1.531.357-2.94 1.07-4.225a4.34 4.34 0 011.48-1.567c.623-.396 1.266-.594 1.928-.594 1.324 0 2.27.461 2.842 1.383h.097l.662-1.188h2.901c-.22 1.311-.447 2.8-.681 4.468-.234 1.668-.35 2.606-.35 2.813 0 .35.168.526.506.526.22 0 .46-.084.72-.253l-.292 2.141c-.571.299-1.224.448-1.957.448-.733 0-1.33-.104-1.79-.311-.462-.208-.763-.61-.906-1.207-.35.441-.788.805-1.314 1.09-.526.285-1.055.428-1.587.428-1.142 0-1.983-.363-2.521-1.09-.539-.727-.808-1.68-.808-2.862zm3.816.448c0 .338.097.613.292.827s.467.322.818.322c.35 0 .645-.127.885-.38s.386-.58.438-.983l.195-1.402c.143-1.051.214-1.603.214-1.655 0-.363-.094-.642-.282-.837-.188-.195-.448-.292-.779-.292-.33 0-.63.13-.895.39-.267.26-.425.583-.477.973-.273 1.92-.41 2.933-.41 3.037zM176 69.294l.058-.623c0-.545-.227-.817-.682-.817a.87.87 0 00-.652.272 1.217 1.217 0 00-.321.701l-.896 6.386h-3.757l1.402-9.949h2.88l.215 1.44c.156-.285.503-.629 1.042-1.031.538-.402 1.168-.604 1.888-.604s1.285.192 1.694.575c.409.383.613.912.613 1.587 0 .272-.11.96-.33 2.063h-3.155z"/><path class="st1" d="M27.475 74.302h-4.108l1.888-13.355h4.089l-.701 4.925h3.154l.7-4.925h4.108l-1.888 13.355h-4.089l.74-5.198h-3.153l-.74 5.198zM36.858 70.545c0-1.532.357-2.94 1.071-4.225a4.34 4.34 0 011.48-1.567c.623-.396 1.265-.594 1.927-.594 1.324 0 2.271.46 2.843 1.382h.097l.662-1.187h2.9c-.22 1.31-.447 2.8-.68 4.468-.234 1.668-.351 2.606-.351 2.813 0 .35.168.526.506.526.22 0 .46-.085.72-.253l-.292 2.141c-.57.298-1.223.448-1.956.448-.734 0-1.33-.104-1.791-.312-.461-.207-.763-.61-.906-1.207-.35.442-.788.805-1.314 1.09-.525.286-1.054.429-1.586.429-1.143 0-1.983-.363-2.522-1.09-.538-.727-.808-1.681-.808-2.862zm3.816.448c0 .337.098.613.292.827.195.214.468.321.818.321s.646-.126.886-.38c.24-.253.386-.58.438-.983l.194-1.401a55.62 55.62 0 00.215-1.655c0-.363-.095-.643-.283-.837-.188-.195-.447-.292-.778-.292s-.63.13-.896.389c-.266.26-.425.584-.477.973-.272 1.921-.409 2.934-.409 3.038zM52.277 77.826h-3.835l1.87-13.472h3.075l.195 1.148c.843-.895 1.778-1.343 2.803-1.343s1.866.334 2.521 1.003c.656.668.984 1.645.984 2.93 0 1.505-.35 2.914-1.052 4.224a4.157 4.157 0 01-1.42 1.577c-.611.403-1.257.604-1.938.604s-1.24-.117-1.674-.35c-.435-.234-.73-.526-.886-.877l-.643 4.556zm.993-6.911c0 .337.098.613.292.827.195.214.468.321.818.321.35 0 .646-.126.886-.38.24-.252.386-.58.438-.983l.195-1.401c.142-1.052.214-1.603.214-1.655 0-.363-.095-.643-.283-.837-.188-.195-.447-.292-.778-.292s-.63.13-.896.39c-.266.259-.425.583-.477.973-.272 1.92-.409 2.933-.409 3.037zM63.94 77.826h-3.836l1.869-13.472h3.076l.195 1.148c.843-.895 1.778-1.343 2.803-1.343s1.866.334 2.521 1.003c.656.668.983 1.645.983 2.93 0 1.505-.35 2.914-1.05 4.224a4.157 4.157 0 01-1.422 1.577c-.61.403-1.256.604-1.937.604-.682 0-1.24-.117-1.675-.35-.435-.234-.73-.526-.885-.877l-.643 4.556zm.992-6.911c0 .337.097.613.292.827.195.214.467.321.818.321.35 0 .645-.126.886-.38.24-.252.386-.58.438-.983l.194-1.401c.143-1.052.214-1.603.214-1.655 0-.363-.094-.643-.282-.837-.188-.195-.448-.292-.778-.292s-.63.13-.896.39c-.266.259-.425.583-.477.973-.273 1.92-.409 2.933-.409 3.037zM71.415 77.65l.331-2.51c.337.18.811.272 1.421.272.844 0 1.415-.467 1.714-1.402l-2.298-9.656h4.108l.798 5.159h.156l2.044-5.16h3.797l-4.653 9.248c-.662 1.311-1.474 2.362-2.434 3.154-.96.792-2.005 1.188-3.134 1.188-.896 0-1.512-.098-1.85-.292zM90.63 74.302h-3.757l1.888-13.355h3.427l2.725 4.964.545 1.09.857-6.054h3.777l-1.889 13.355H94.7l-2.648-4.79a10.419 10.419 0 00-.33-.622l-.254-.506-.837 5.918zM100.423 70.408c0-1.92.567-3.442 1.703-4.565 1.136-1.122 2.619-1.684 4.449-1.684h.487c1.362 0 2.407.338 3.134 1.013.727.675 1.09 1.576 1.09 2.706v.194l-.039.331c-.013.195-.071.675-.175 1.44h-6.483l-.078.488c-.052.22-.078.477-.078.769 0 .292.123.538.37.74.246.2.58.301 1.003.301.421 0 .775-.14 1.06-.418.286-.28.461-.665.526-1.159h3.563c-.156 1.13-.724 2.067-1.703 2.813-.98.747-2.217 1.12-3.71 1.12h-.291c-1.428 0-2.59-.363-3.485-1.09-.896-.727-1.343-1.726-1.343-2.999zm7.106-2.394l.02-.312c0-.337-.108-.62-.322-.847-.214-.227-.5-.34-.857-.34s-.684.133-.983.399a1.54 1.54 0 00-.525.964l-.04.272h2.687c0-.052.007-.097.02-.136zM113.74 74.302l-1.441-9.948h4.01l.409 5.023h.136l1.889-5.023h3.893l.468 5.023h.156l1.81-5.023h3.738l-4.225 9.948h-4.36l-.37-4.147h-.156l-1.519 4.147h-4.439zM136.167 69.201l-3.27-8.254h4.594l1.382 4.38h.097l2.667-4.38h4.186l-5.587 8.254-.72 5.101h-4.07l.72-5.1zM144.889 70.408c0-1.92.567-3.442 1.703-4.565 1.136-1.122 2.619-1.684 4.449-1.684h.487c1.362 0 2.407.338 3.134 1.013.727.675 1.09 1.576 1.09 2.706v.194l-.039.331a30.25 30.25 0 01-.175 1.44h-6.483l-.078.488c-.052.22-.078.477-.078.769 0 .292.123.538.37.74.247.2.58.301 1.003.301.421 0 .775-.14 1.06-.418.286-.28.461-.665.526-1.159h3.563c-.156 1.13-.723 2.067-1.703 2.813-.98.747-2.217 1.12-3.71 1.12h-.291c-1.428 0-2.59-.363-3.485-1.09-.896-.727-1.343-1.726-1.343-2.999zm7.106-2.394l.02-.312c0-.337-.108-.62-.322-.847-.214-.227-.5-.34-.857-.34s-.684.133-.983.399a1.54 1.54 0 00-.525.964l-.04.272h2.687c0-.052.007-.097.02-.136zM156.589 70.545c0-1.532.357-2.94 1.07-4.225a4.34 4.34 0 011.48-1.567c.623-.396 1.266-.594 1.928-.594 1.324 0 2.27.46 2.842 1.382h.097l.662-1.187h2.901c-.22 1.31-.447 2.8-.681 4.468-.234 1.668-.35 2.606-.35 2.813 0 .35.168.526.506.526.22 0 .46-.085.72-.253l-.292 2.141c-.571.298-1.224.448-1.957.448-.733 0-1.33-.104-1.79-.312-.462-.207-.763-.61-.906-1.207-.35.442-.788.805-1.314 1.09-.526.286-1.055.429-1.587.429-1.142 0-1.983-.363-2.521-1.09-.539-.727-.808-1.681-.808-2.862zm3.816.448c0 .337.097.613.292.827.194.214.467.321.818.321s.645-.126.885-.38c.24-.253.386-.58.438-.983l.195-1.401c.143-1.052.214-1.603.214-1.655 0-.363-.094-.643-.282-.837-.188-.195-.448-.292-.779-.292-.33 0-.63.13-.895.389-.267.26-.425.584-.477.973-.273 1.921-.41 2.934-.41 3.038zM174.89 68.384l.058-.623c0-.545-.227-.818-.682-.818a.87.87 0 00-.652.273 1.217 1.217 0 00-.321.7l-.896 6.386h-3.757l1.402-9.948h2.88l.215 1.44c.156-.285.503-.629 1.042-1.031.538-.403 1.168-.604 1.888-.604s1.285.192 1.694.574c.409.383.613.912.613 1.587 0 .273-.11.96-.33 2.064h-3.155zM31.372 38.04c-.602-.77-1.808-1.132-2.723-1.132-1.06 0-2.531.482-2.531 1.76 0 3.108 7.857 1.108 7.857 7.085 0 3.808-3.061 5.616-6.58 5.616-2.193 0-4.121-.651-5.736-2.145l2.675-2.94a4.18 4.18 0 003.278 1.614c1.23 0 2.603-.578 2.603-1.783 0-3.134-8.002-1.446-8.002-7.134 0-3.64 3.158-5.544 6.508-5.544 1.928 0 3.784.506 5.23 1.784l-2.579 2.82zM36.77 33.871h6.339c3.543 0 6.483 1.133 6.483 5.182 0 4-2.723 5.23-6.314 5.23H40.53v6.652h-3.76V33.87zm3.76 7.23h2.507c1.325 0 2.65-.457 2.65-2.048 0-1.76-1.783-2-3.229-2H40.53V41.1zM52.098 33.871h11.593v3.47h-7.833v3.182h7.4v3.47h-7.4v3.471h8.267v3.47H52.098V33.872zM72.753 33.871h3.109l7.423 17.064h-4.242l-1.47-3.615h-6.628l-1.422 3.615h-4.145l7.375-17.064zm1.446 4.965l-2.073 5.302h4.17l-2.097-5.302zM85.14 33.871h3.76v7.086l6.628-7.086h4.917l-7.592 7.93 8.243 9.134H95.84l-6.94-8.098v8.098h-3.76V33.87zM112.832 37.197h-4.868v-3.326h13.496v3.326h-4.868v13.738h-3.76V37.197zM131.655 33.437c5.326 0 9.207 3.495 9.207 8.966 0 5.47-3.88 8.966-9.207 8.966-5.327 0-9.207-3.495-9.207-8.966 0-5.471 3.88-8.966 9.207-8.966zm0 14.461c3.205 0 5.302-2.314 5.302-5.495 0-3.182-2.097-5.495-5.302-5.495s-5.303 2.314-5.303 5.495 2.097 5.495 5.303 5.495zM164.938 44.355c0 4.025-2.459 7.014-7.182 7.014-4.748 0-7.207-2.989-7.207-7.014V33.871h3.76v10.34c0 2.096 1.446 3.687 3.447 3.687 1.976 0 3.422-1.59 3.422-3.688V33.871h3.76v10.484zM176.844 38.04c-.603-.77-1.808-1.132-2.724-1.132-1.06 0-2.53.482-2.53 1.76 0 3.108 7.856 1.108 7.856 7.085 0 3.808-3.06 5.616-6.58 5.616-2.192 0-4.12-.651-5.735-2.145l2.675-2.94a4.18 4.18 0 003.278 1.614c1.229 0 2.603-.578 2.603-1.783 0-3.134-8.002-1.446-8.002-7.134 0-3.64 3.157-5.544 6.507-5.544 1.929 0 3.784.506 5.23 1.784l-2.578 2.82zM23.604 7.619h5.337l7.577 12.385h.05V7.62h3.927v17.823H35.36L27.58 12.754h-.05v12.688h-3.927V7.619zM44.27 7.619h12.107v3.625h-8.18v3.323h7.727v3.625h-7.728v3.625h8.634v3.625H44.27V7.619zM60.127 7.619h12.108v3.625h-8.181v3.323h7.728v3.625h-7.728v3.625h8.634v3.625H60.127V7.619zM75.833 7.619h5.89c5.74 0 10.549 2.442 10.549 8.962 0 5.764-4.708 8.86-10.02 8.86h-6.419V7.62zm3.927 14.198h2.04c3.65 0 6.393-1.385 6.393-5.438 0-3.499-2.794-5.135-6.117-5.135H79.76v10.573zM102.388 7.619h3.927v6.646h7.628V7.619h3.927v17.823h-3.927v-7.703h-7.628v7.703h-3.927V7.619zM121.644 7.619h12.109v3.625h-8.182v3.323h7.728v3.625h-7.728v3.625h8.635v3.625h-12.562V7.619zM137.502 7.619h3.927v14.198h7.275v3.625h-11.202V7.619zM150.867 7.619h6.62c3.701 0 6.773 1.183 6.773 5.412 0 4.179-2.845 5.463-6.596 5.463h-2.87v6.948h-3.927V7.619zm3.927 7.552h2.618c1.385 0 2.77-.478 2.77-2.14 0-1.837-1.863-2.09-3.374-2.09h-2.014v4.23zM170.35 18.443c0-1.007.252-1.661.881-2.265 1.863-1.788 3.222-2.618 3.222-3.776 0-1.108-.78-1.762-1.812-1.762-1.561 0-2.392 1.007-2.493 2.24l-3.876-.252c.352-3.55 2.794-5.462 6.293-5.462 3.071 0 5.664 1.712 5.664 4.959 0 1.913-.73 3.071-3.121 4.959-.78.604-.982 1.183-.982 1.737v.73h-3.776v-1.108zm1.888 2.518a2.31 2.31 0 012.316 2.316 2.31 2.31 0 01-2.316 2.316 2.31 2.31 0 01-2.316-2.316 2.31 2.31 0 012.316-2.316zM7.528 25.756l2.326 4.714 5.202.756-3.764 3.669.889 5.18-4.653-2.446-4.653 2.447.89-5.181L0 31.225l5.202-.755z"/><path class="st0" d="M195.698 44.755l-.938 5.172 3.729 3.705-5.209.706-2.371 4.691-2.281-4.735-5.195-.806 3.799-3.633-.84-5.189 4.63 2.49z"/><path class="st1" d="M187.989 23.11l2.763 2.189 3.371-1.036-1.228 3.306 2.026 2.885-3.523-.147-2.119 2.82-.948-3.397-3.336-1.143 2.937-1.952z"/><path class="st0" d="M9.687 50.79l3.072 2.158 3.52-1.306-1.104 3.589 2.33 2.944-3.754.059-2.08 3.126-1.216-3.552-3.616-1.013 3.003-2.254z"/><path class="st1" d="M18.945 14.926S16.352-1.574 5.98.122C3.934.457 3.278 3.108 4.982 4.29l.075.05c2.515 1.677 9.538.839 13.888 10.587z"/><path class="st0" d="M19.02 66.185S2.625 69.372 4.694 79.675c.409 2.033 3.082 2.593 4.2.847a5.02 5.02 0 00.048-.076c1.585-2.574.493-9.562 10.078-14.261z"/><path class="st1" d="M183.978 66.185s16.395 3.187 14.325 13.49c-.408 2.033-3.082 2.593-4.2.847a5.02 5.02 0 01-.048-.076c-1.585-2.574-.493-9.562-10.077-14.261z"/><path class="st0" d="M183.65 17.946s2.592-16.499 12.964-14.803c2.046.335 2.702 2.986.998 4.167l-.075.05C195.022 9.037 188 8.2 183.65 17.946z"/><g><path class="st0" d="M25.718 24.077h-.308V9.308h2.372l8.75 14.215h1.76V9.018h.308V23.83h-2.24L27.61 9.616h-1.892z"/></g><g><path class="st0" d="M55.57 24.097h-9.416v-14.7h8.816v.308h-8.508v14.084h9.108z"/></g><g><path class="st0" d="M46.242 16.127h7.996v.308h-7.996z"/></g><g><path class="st0" d="M63.09 49.5h-9.416V35.62h8.816v.307h-8.508v13.267h9.108z"/></g><g><path class="st0" d="M53.761 42.128h7.996v.308h-7.996z"/></g><g><path class="st0" d="M71.43 24.097h-9.417v-14.7h8.816v.308h-8.508v14.084h9.108z"/></g><g><path class="st0" d="M62.1 16.127h7.996v.308H62.1z"/></g><g><path class="st0" d="M132.78 24.097h-9.416v-14.7h8.816v.308h-8.508v14.084h9.108z"/></g><g><path class="st0" d="M123.451 16.127h7.996v.308h-7.996z"/></g><g><path class="st0" d="M77.529 23.55h-.154V9.265l5.412.068c.076.001 7.605.149 7.605 7.075 0 6.925-7.396 7.14-7.47 7.14h-5.393zm.154-.308h5.236c.29-.006 7.165-.212 7.165-6.833 0-6.62-7.002-6.764-7.3-6.767l-5.101-.065v13.665z"/></g><g><path class="st0" d="M104.124 9.089h.308v14.905h-.308z"/></g><g><path class="st0" d="M115.769 9.089h.308v14.905h-.308z"/></g><g><path class="st0" d="M104.445 15.823h11.512v.308h-11.512z"/></g><g><path class="st0" d="M147.33 23.882h-8.005V9.355h.308v14.22h7.698z"/></g><g><path class="st0" d="M152.941 24.327h-.308V8.935h4.08c.107-.007 2.926-.21 4.595 1.332.779.72 1.174 1.704 1.174 2.923.004.032.126 1.2-.812 2.251-.944 1.059-2.586 1.596-4.882 1.596h-3.847v7.29zm0-7.598h3.847c2.204 0 3.77-.502 4.652-1.492.847-.95.736-2.019.735-2.03-.001-1.147-.363-2.054-1.075-2.713-1.57-1.452-4.347-1.255-4.375-1.252l-3.784.001v7.486z"/></g><g><path class="st0" d="M38.623 49.613h-.308V35.019h4.08c.107-.008 2.926-.21 4.594 1.332.78.72 1.174 1.704 1.174 2.923.005.032.127 1.2-.81 2.251-.944 1.059-2.587 1.596-4.883 1.596h-3.847v6.492zm0-6.8h3.847c2.2 0 3.764-.5 4.648-1.487.847-.946.74-2.024.739-2.035-.002-1.147-.363-2.053-1.076-2.713-1.568-1.451-4.346-1.254-4.374-1.252l-3.784.001v7.486z"/></g><g><path class="st0" d="M171.997 18.61c-.052-1.49 1.073-2.358 2.263-3.277.422-.326.857-.662 1.245-1.032.787-.752 1.042-2.242.58-3.393-.464-1.16-1.554-1.798-3.07-1.798-3.762 0-4.435 2.52-4.442 2.545l-.298-.074c.007-.028.74-2.78 4.74-2.78 2.226 0 3.058 1.249 3.356 1.992.505 1.26.218 2.899-.654 3.73-.399.382-.841.723-1.269 1.053-1.126.87-2.19 1.69-2.144 3.023l-.307.01z"/></g><g><path class="st0" d="M172.238 22.765c.283 0 .511.228.511.512s-.228.511-.511.511a.51.51 0 110-1.023z"/></g><g><path class="st0" d="M27.878 49.902c-2.974 0-3.967-1.372-4.008-1.432l.252-.176c.01.013.957 1.3 3.761 1.3.066 0 .134 0 .202-.002 1.415-.03 2.537-.483 3.245-1.31.603-.703.862-1.629.731-2.608-.255-1.91-2.283-2.63-5.355-3.718-1.514-.537-2.499-1.554-2.7-2.791-.192-1.18.353-2.4 1.459-3.265 2.217-1.73 5.505-.426 5.642-.37l-.115.285c-.032-.013-3.263-1.293-5.337.328-1.016.794-1.52 1.906-1.345 2.973.182 1.122 1.094 2.052 2.5 2.55 3.177 1.126 5.277 1.87 5.557 3.967.142 1.068-.143 2.08-.803 2.85-.767.894-1.967 1.384-3.472 1.417a8.482 8.482 0 01-.214.002z"/></g><g><path class="st0" d="M173.404 49.902c-2.974 0-3.967-1.372-4.008-1.432l.252-.176c.01.013.957 1.3 3.761 1.3.066 0 .134 0 .202-.002 1.415-.03 2.537-.483 3.245-1.31.603-.703.862-1.629.731-2.608-.255-1.911-2.284-2.63-5.355-3.718-1.514-.537-2.499-1.554-2.7-2.79-.192-1.18.353-2.401 1.459-3.266 2.215-1.73 5.504-.426 5.642-.37l-.115.285c-.032-.013-3.263-1.294-5.337.328-1.016.794-1.52 1.906-1.345 2.973.182 1.122 1.093 2.052 2.498 2.55 3.179 1.126 5.279 1.87 5.559 3.967.142 1.068-.143 2.08-.803 2.85-.767.894-1.967 1.384-3.472 1.417a8.486 8.486 0 01-.214.002z"/></g><g><path class="st0" d="M80.781 49.94L74.7 35.992h-.993L68.29 49.67l-.286-.113 5.494-13.871h1.404l6.162 14.133z"/></g><g><path class="st0" d="M69.652 45.533h9.432v.308h-9.432z"/></g><g><path class="st0" d="M86.84 34.924h.308v14.822h-.308z"/></g><g><path class="st0" d="M90.554 41.865h-3.51v-.308h3.377l6.642-6.989.224.212z"/></g><g><path class="st0" d="M97.158 49.746L90.37 41.81l.235-.2 6.787 7.935z"/></g><g><path class="st0" d="M109.136 35.452h10.979v.308h-10.979z"/></g><g><path class="st0" d="M114.588 35.623h.308v14.173h-.308z"/></g><g><path class="st0" d="M131.655 49.958c-4.296 0-7.296-3.107-7.296-7.555 0-4.449 3-7.556 7.296-7.556 4.295 0 7.295 3.107 7.295 7.556 0 4.448-3 7.555-7.295 7.555zm0-14.803c-4.114 0-6.988 2.98-6.988 7.248 0 4.267 2.874 7.247 6.988 7.247 4.114 0 6.988-2.98 6.988-7.247 0-4.268-2.874-7.248-6.988-7.248z"/></g><g><path class="st0" d="M157.777 50.033a5.484 5.484 0 01-5.477-5.478V35.04h.308v9.515c0 2.851 2.32 5.17 5.17 5.17s5.169-2.319 5.169-5.17V35.04h.307v9.515a5.484 5.484 0 01-5.477 5.478z"/></g></svg>