<svg version="1.1" id="Layer_1" xmlns="http://www.w3.org/2000/svg" x="0" y="0" viewBox="0 0 480.649 140.77" xml:space="preserve"><style>.st0{fill:#ffe131}.st1{fill:#d81d1d}.st2{fill:#541818}.st4{fill:#fffb6c}</style><path class="st0" d="M78.043 64.612V4.847H90.19v51.475h13.95v8.29H78.044zM109.944 64.612V4.847h26.027v8.435h-13.879v15.824h10.778v8.507h-10.778v18.709h14.022v8.29h-26.17zM147.902 64.612v-50.79h-9.553V4.846h31.11v8.976h-9.409v50.79h-12.148zM175.983 25.681l-1.01-3.676c1.707 0 2.866-.582 3.48-1.748.612-1.166.919-2.95.919-5.353h-4.903V4.846h10.31c0 4.422-.025 7.078-.072 7.966-.121 4.447-.811 7.703-2.073 9.77-1.262 2.066-3.479 3.1-6.65 3.1zM206.66 65.406c-5.552 0-9.697-1.526-12.437-4.578-2.74-3.052-4.23-7.738-4.47-14.059l10.526-1.875c.048 3.726.546 6.531 1.496 8.418.95 1.886 2.409 2.83 4.38 2.83 1.417 0 2.445-.457 3.082-1.37.636-.913.955-2.091.955-3.533 0-2.355-.51-4.331-1.533-5.93-1.021-1.598-2.661-3.382-4.92-5.353l-6.416-5.551c-1.634-1.418-2.95-2.745-3.947-3.984-.998-1.237-1.838-2.81-2.523-4.722-.686-1.91-1.028-4.03-1.028-6.362 0-4.83 1.43-8.573 4.29-11.229 2.86-2.655 6.788-3.994 11.787-4.019 1.682 0 3.22.169 4.614.505 1.394.337 2.59.793 3.587 1.37.997.576 1.88 1.297 2.65 2.162a13.27 13.27 0 011.874 2.686c.48.926.889 1.971 1.226 3.137.336 1.165.576 2.27.72 3.315a43.68 43.68 0 01.325 3.407l-10.454 1.658a65.833 65.833 0 00-.18-3.064 18.48 18.48 0 00-.415-2.541c-.204-.877-.475-1.562-.81-2.055a3.838 3.838 0 00-1.37-1.208c-.578-.312-1.262-.444-2.055-.396-1.346.072-2.385.59-3.118 1.55-.734.961-1.1 2.127-1.1 3.497 0 1.081.126 2.06.38 2.937a8.013 8.013 0 001.242 2.506c.577.793 1.1 1.43 1.568 1.91a53.82 53.82 0 002.037 1.947l6.309 5.48c1.345 1.201 2.517 2.366 3.514 3.495a28.123 28.123 0 012.83 3.858 17.935 17.935 0 012.036 4.758c.469 1.73.703 3.569.703 5.515 0 4.35-1.412 7.919-4.236 10.706-2.823 2.788-6.53 4.182-11.12 4.182zM263.578 65.406c-3.269 0-6.057-.475-8.364-1.424-2.306-.95-4.121-2.337-5.442-4.164-1.323-1.826-2.272-3.917-2.848-6.272-.577-2.355-.866-5.094-.866-8.219V24.24c0-3.245.289-6.056.866-8.435.576-2.38 1.525-4.47 2.848-6.272 1.32-1.803 3.129-3.16 5.424-4.074 2.295-.913 5.089-1.37 8.382-1.37 3.123 0 5.785.403 7.984 1.208 2.198.805 3.929 1.989 5.19 3.55 1.262 1.563 2.175 3.36 2.74 5.39.565 2.03.847 4.404.847 7.119v5.19H268.48v-5.623-1.405c0-.264-.013-.697-.037-1.298-.024-.6-.065-1.028-.125-1.28a79.93 79.93 0 01-.253-1.1c-.108-.48-.24-.829-.396-1.045-.157-.216-.355-.48-.595-.793s-.523-.534-.848-.666a8.339 8.339 0 00-1.153-.361 6.192 6.192 0 00-1.46-.163c-.937 0-1.736.163-2.397.488-.661.324-1.171.726-1.532 1.207-.36.481-.637 1.135-.83 1.965-.191.829-.311 1.598-.36 2.306-.048.71-.072 1.604-.072 2.686v26.71c0 2.91.366 5.048 1.1 6.417.733 1.37 2.096 2.055 4.092 2.055.768 0 1.441-.096 2.018-.288a2.87 2.87 0 001.388-.955 7.31 7.31 0 00.83-1.298c.203-.42.347-1.015.432-1.784.084-.77.138-1.418.161-1.947.024-.529.037-1.262.037-2.2v-5.839h11.86v5.047c0 2.764-.27 5.185-.812 7.263-.54 2.08-1.423 3.954-2.65 5.624-1.225 1.67-2.955 2.944-5.19 3.821-2.235.877-4.938 1.316-8.11 1.316zM287.837 64.612V4.847h12.184v24.512h10.526V4.846h12.184v59.766h-12.184V38.046h-10.526v26.566h-12.184zM328.823 64.612l11.68-59.765h13.337l11.643 59.765H354.2l-2.199-13.229h-9.48l-2.2 13.23h-11.498zm14.851-20.763h7.101l-3.568-23.79-3.533 23.79zM375.287 64.612v-50.79h-9.552V4.846h31.109v8.976h-9.408v50.79h-12.149z"/><g><path class="st1" d="M78.043 60.523V.757H90.19v51.476h13.95v8.29H78.044zM109.944 60.523V.757h26.027v8.436h-13.879v15.824h10.778v8.507h-10.778v18.709h14.022v8.29h-26.17zM147.902 60.523V9.733h-9.553V.757h31.11v8.976h-9.409v50.79h-12.148zM175.983 21.592l-1.01-3.676c1.707 0 2.866-.583 3.48-1.749.612-1.165.919-2.95.919-5.353h-4.903V.757h10.31c0 4.422-.025 7.078-.072 7.966-.121 4.447-.811 7.703-2.073 9.77-1.262 2.066-3.479 3.1-6.65 3.1zM206.66 61.317c-5.552 0-9.697-1.526-12.437-4.579-2.74-3.051-4.23-7.737-4.47-14.058l10.526-1.875c.048 3.726.546 6.531 1.496 8.417.95 1.887 2.409 2.83 4.38 2.83 1.417 0 2.445-.456 3.082-1.37.636-.913.955-2.09.955-3.532 0-2.355-.51-4.331-1.533-5.93-1.021-1.598-2.661-3.382-4.92-5.353l-6.416-5.551c-1.634-1.418-2.95-2.745-3.947-3.984-.998-1.237-1.838-2.811-2.523-4.722-.686-1.91-1.028-4.031-1.028-6.362 0-4.83 1.43-8.573 4.29-11.229 2.86-2.655 6.788-3.994 11.787-4.019 1.682 0 3.22.168 4.614.504 1.394.338 2.59.794 3.587 1.37.997.577 1.88 1.298 2.65 2.163a13.27 13.27 0 011.874 2.686c.48.925.889 1.971 1.226 3.136.336 1.166.576 2.271.72 3.316a43.68 43.68 0 01.325 3.407l-10.454 1.658a65.833 65.833 0 00-.18-3.064 18.48 18.48 0 00-.415-2.541c-.204-.877-.475-1.562-.81-2.055a3.838 3.838 0 00-1.37-1.208c-.578-.312-1.262-.444-2.055-.396-1.346.072-2.385.59-3.118 1.55-.734.961-1.1 2.127-1.1 3.496 0 1.082.126 2.062.38 2.938a8.012 8.012 0 001.242 2.506c.577.793 1.1 1.43 1.568 1.91a53.82 53.82 0 002.037 1.947l6.309 5.48c1.345 1.201 2.517 2.366 3.514 3.495a28.123 28.123 0 012.83 3.858 17.935 17.935 0 012.036 4.758c.469 1.73.703 3.568.703 5.515 0 4.35-1.412 7.919-4.236 10.706-2.823 2.788-6.53 4.182-11.12 4.182zM263.578 61.317c-3.269 0-6.057-.475-8.364-1.425-2.306-.949-4.121-2.336-5.442-4.163-1.323-1.826-2.272-3.917-2.848-6.272-.577-2.355-.866-5.094-.866-8.22V20.152c0-3.245.289-6.056.866-8.435.576-2.38 1.525-4.47 2.848-6.272 1.32-1.803 3.129-3.16 5.424-4.074C257.491.457 260.285 0 263.578 0c3.123 0 5.785.403 7.984 1.208 2.198.805 3.929 1.989 5.19 3.55 1.262 1.563 2.175 3.359 2.74 5.39.565 2.03.847 4.404.847 7.119v5.19H268.48v-5.623-1.405c0-.265-.013-.697-.037-1.298-.024-.6-.065-1.028-.125-1.28a79.93 79.93 0 01-.253-1.1c-.108-.48-.24-.829-.396-1.045-.157-.216-.355-.48-.595-.793a2.037 2.037 0 00-.848-.667 8.339 8.339 0 00-1.153-.36 6.192 6.192 0 00-1.46-.163c-.937 0-1.736.163-2.397.487-.661.325-1.171.727-1.532 1.208-.36.481-.637 1.135-.83 1.964-.191.83-.311 1.6-.36 2.307-.048.71-.072 1.604-.072 2.686v26.71c0 2.91.366 5.048 1.1 6.417.733 1.37 2.096 2.055 4.092 2.055.768 0 1.441-.096 2.018-.288a2.87 2.87 0 001.388-.955 7.31 7.31 0 00.83-1.298c.203-.42.347-1.015.432-1.785.084-.768.138-1.417.161-1.946.024-.529.037-1.262.037-2.2v-5.839h11.86v5.047c0 2.763-.27 5.185-.812 7.263-.54 2.08-1.423 3.954-2.65 5.623-1.225 1.672-2.955 2.945-5.19 3.822-2.235.876-4.938 1.316-8.11 1.316zM287.837 60.523V.757h12.184V25.27h10.526V.757h12.184v59.766h-12.184V33.957h-10.526v26.566h-12.184zM328.823 60.523L340.503.757h13.337l11.643 59.766H354.2l-2.199-13.229h-9.48l-2.2 13.23h-11.498zm14.851-20.763h7.101l-3.568-23.79-3.533 23.79zM375.287 60.523V9.733h-9.552V.757h31.109v8.976h-9.408v50.79h-12.149z"/></g><g><path class="st2" d="M34.442 99.98s35.033 24.628 38.008 40.79H0l15.669-16.932L0 106.137s6.543-4.618 34.442-6.158zM446.207 99.98s-35.033 24.628-38.008 40.79h72.45l-15.669-16.932 15.669-17.701s-6.543-4.618-34.442-6.158z"/><path d="M453.467 127.75H25.669V79.31a6.974 6.974 0 016.974-6.974h413.85a6.974 6.974 0 016.974 6.974v48.44z" fill="#c92f00"/></g><g><path class="st4" d="M51.52 89.327c.163-1.87.666-2.985 1.512-3.345.413-.18.782-.27 1.106-.27.81 0 1.411.378 1.807 1.133.324.612.468 1.348.432 2.212-.054 1.349-.064 2.446-.028 3.29l.27 5.909c.055 1.258.09 1.978.108 2.158.252 1.996.45 3.489.594 4.478.216 1.744.288 3.237.216 4.478-.054.845-.28 1.537-.674 2.077-.45.61-1.07.917-1.862.917-.342 0-.71-.063-1.106-.189-.81-.234-1.35-.872-1.619-1.915-.144-.504-.233-1.394-.27-2.67l-.188-5.45c-.054-1.654-.765-2.41-2.131-2.266-1.53.162-2.635.216-3.318.162-.882-.054-1.331.603-1.35 1.97-.017 1.42.028 2.953.136 4.598.108 1.646.152 2.927.134 3.845-.036 1.852-1.124 2.599-3.263 2.238-.774-.125-1.322-.364-1.646-.714-.324-.351-.495-.913-.513-1.686a256.608 256.608 0 01-.054-1.78c.018-.558-.036-1.862-.161-3.912-.162-2.949-.27-5.008-.324-6.177-.144-2.518-.225-4.424-.243-5.72-.018-2.031 0-3.3.054-3.803.198-1.727.737-2.725 1.619-2.994.395-.126.737-.19 1.025-.19 1.187 0 2.023 1.017 2.509 3.049.251 1.043.368 2.114.35 3.21-.018 1.457.018 2.303.108 2.536.234.594.953.9 2.158.917 1.744.018 2.743.01 2.994-.027 1.097-.233 1.637-.89 1.619-1.969-.036-2.302-.036-3.669 0-4.1zM69.11 88.706h1.833c.738 0 1.614.265 2.63.796s1.714 1.11 2.091 1.74c.54.863.873 1.69.998 2.481.144.9.045 3.113-.296 6.637a30.628 30.628 0 00-.162 2.967c0 1.835.225 3.112.674 3.83.522.828.783 1.539.783 2.132 0 .27-.045.476-.135.62-.432.701-1.061 1.052-1.888 1.052a3.77 3.77 0 01-.62-.054c-.756-.126-1.413-.836-1.97-2.13l-.27.539c-.63.881-1.655 1.565-3.075 2.05a9.553 9.553 0 01-3.723.54c-1.133-.054-2.06-.333-2.778-.837-2.105-1.456-3.157-3.435-3.157-5.935 0-1.672.584-3.075 1.754-4.208 1.169-1.133 2.598-1.762 4.29-1.888.25-.017.574-.027.97-.027 1.673 0 3.066.333 4.181.998.306.234.557.423.756.567.054-.36.08-.558.08-.594a10.52 10.52 0 00.163-1.7c0-.772-.136-1.411-.405-1.914-.45-.846-.99-1.331-1.619-1.457-.611-.126-1.42-.081-2.428.134a2.74 2.74 0 01-.593.055c-.738 0-1.43-.279-2.077-.837-.647-.557-.971-1.204-.971-1.942 0-.216.044-.476.135-.783.323-1.042.8-1.69 1.43-1.942.161-.053.287-.107.377-.161.432-.198.746-.333.944-.405.522-.234 1.214-.341 2.077-.324zm-1.187 18.505c.575-.359.863-.826.863-1.402 0-.216-.054-.476-.162-.783-.324-.917-.917-1.375-1.78-1.375-1.475 0-2.266.575-2.374 1.726-.108 1.008.152 1.69.782 2.05.305.18.638.27.998.27.611 0 1.169-.161 1.673-.486zM97.623 94.937c0 1.853-.36 3.22-1.08 4.1-.755.937-1.645 1.647-2.67 2.132-.791.378-1.484.62-2.077.729-.468.072-1.196.108-2.185.108-1.493 0-3.067-.18-4.721-.54.683 3.524 1.043 6.024 1.079 7.5.036 1.51-.162 2.472-.594 2.886l-.593.593c-.036.036-.28.108-.729.216a1.772 1.772 0 01-.43.054c-.613 0-1.16-.225-1.647-.674-.36-.342-.566-.685-.62-1.026a57.817 57.817 0 01-.377-2.778c-.217-2.014-.325-3.633-.325-4.856v-3.426c0-1.079.064-2.31.19-3.696.125-1.33.43-2.598.917-3.803.61-1.457 1.375-2.464 2.292-3.021 2.213-1.313 4.334-1.988 6.367-2.024a8.46 8.46 0 013.993.918c.467.233.818.467 1.051.701 1.44 1.402 2.159 3.372 2.159 5.907zm-7.877-1.78a2.64 2.64 0 00-1.754.566c-.558.414-.837.945-.837 1.592 0 .558.172 1.061.514 1.511.359.503.809.755 1.348.755.684 0 1.312-.206 1.888-.62.648-.45.972-.998.972-1.646 0-1.385-.71-2.104-2.131-2.158zM116.209 94.937c0 1.853-.36 3.22-1.08 4.1-.755.937-1.645 1.647-2.67 2.132-.791.378-1.484.62-2.077.729-.468.072-1.196.108-2.185.108-1.493 0-3.067-.18-4.721-.54.683 3.524 1.043 6.024 1.079 7.5.036 1.51-.162 2.472-.594 2.886l-.593.593c-.036.036-.28.108-.729.216a1.772 1.772 0 01-.43.054c-.612 0-1.16-.225-1.647-.674-.36-.342-.566-.685-.62-1.026a57.804 57.804 0 01-.377-2.778c-.217-2.014-.325-3.633-.325-4.856v-3.426c0-1.079.064-2.31.19-3.696.125-1.33.43-2.598.917-3.803.61-1.457 1.375-2.464 2.292-3.021 2.213-1.313 4.334-1.988 6.367-2.024a8.46 8.46 0 013.993.918c.467.233.818.467 1.051.701 1.44 1.402 2.159 3.372 2.159 5.907zm-7.877-1.78a2.64 2.64 0 00-1.754.566c-.558.414-.836.945-.836 1.592 0 .558.17 1.061.513 1.511.36.503.809.755 1.348.755.684 0 1.313-.206 1.888-.62.648-.45.972-.998.972-1.646 0-1.385-.71-2.104-2.131-2.158zM129.346 88.76c.647-.306 1.25-.459 1.807-.459.27 0 .53.037.782.109.72.215 1.224.422 1.511.62.27.27.432.674.486 1.214l.324 3.453c.071 1.17-.144 3.732-.648 7.688a58.816 58.816 0 00-.27 2.212c-.215 1.888-.404 3.22-.566 3.992-.36 1.655-.89 2.86-1.591 3.615-.882.953-2.276 1.448-4.182 1.484-.863.017-1.79-.054-2.779-.216-2.481-.45-4.01-1.466-4.585-3.048a3.916 3.916 0 01-.19-1.888c.145-1.151.783-1.727 1.916-1.727.342 0 .63.072.863.216.504.306.836.522.999.647.953.522 1.537.773 1.753.756.413-.019.98-.028 1.7-.028.826-.125 1.416-.318 1.767-.58.35-.26.615-.75.795-1.47.252-1.025.395-1.924.432-2.698.054-.27.08-.467.08-.593-.053.072-.359.333-.917.782-.755.612-2.14.882-4.154.81-.431-.018-1.088-.13-1.969-.337-.882-.207-1.493-.4-1.835-.58a3.347 3.347 0 01-.566-.351c-.288-.162-.584-.513-.89-1.052-.396-.665-.657-1.528-.783-2.59-.071-.216-.134-.872-.189-1.969a213.65 213.65 0 00-.161-2.806 168.017 168.017 0 00-.162-2.535c-.036-.756.234-1.484.81-2.185.359-.45.827-.675 1.402-.675.216 0 .503.054.863.162.989.306 1.493.836 1.511 1.592.018.684.027 1.07.027 1.16.036.755.054 1.16.054 1.214 0 .917-.027 1.78-.08 2.59-.11 1.654.232 2.634 1.024 2.94.342.126.79.224 1.349.296.143.018.54.028 1.187.028.557-.126.971-.351 1.24-.675.216-.252.432-.702.648-1.349.144-.575.206-1.592.19-3.048 0-1.295.053-2.149.16-2.563.252-1.025.531-1.744.837-2.158zM157.535 91.7c-3.291 0-5.494 1.538-6.609 4.613-.27.738-.405 1.583-.405 2.536 0 1.205.243 2.572.729 4.1.737 2.302 2.4 3.453 4.99 3.453.342 0 .85-.03 1.525-.094a17.778 17.778 0 011.524-.094c2.23 0 3.642.611 4.235 1.834.162.323.242.674.242 1.052 0 1.061-.908 1.996-2.724 2.805-1.96.504-3.354.765-4.181.783-1.942.053-3.993-.37-6.15-1.268-2.95-1.223-4.704-4.424-5.261-9.604a30.153 30.153 0 01-.162-3.102c0-1.33.09-2.67.27-4.019.323-2.356.944-4.074 1.861-5.153 1.115-1.295 2.293-2.22 3.534-2.778 1.025-.45 2.509-.8 4.45-1.052a19.908 19.908 0 012.564-.189c1.115 0 2.05.126 2.805.378 2.032.432 3.138 1.709 3.319 3.83.143 1.655-.603 2.482-2.24 2.482-.413 0-.873-.054-1.376-.162-1.097-.233-2.077-.35-2.94-.35zM183.62 102.518a17.55 17.55 0 011.16 4.64c.072.665.108 1.25.108 1.753 0 2.284-.935 3.426-2.805 3.426-.954 0-1.6-.485-1.942-1.456-.738-3.148-1.179-4.946-1.322-5.396-.504-1.636-1.106-2.41-1.808-2.32-.755.09-1.321.28-1.7.567-.592.431-1.123 1.358-1.59 2.779-.235.719-.504 1.77-.81 3.156-.432 1.942-1.412 2.913-2.94 2.913-.864 0-1.592-.162-2.185-.485-.738-.414-1.088-1.017-1.053-1.808.072-1.295.072-2.347 0-3.156a21.922 21.922 0 01-.08-1.646 150.82 150.82 0 01-.27-2.967l-.432-5.368c-.18-2.194-.278-3.993-.296-5.395-.018-1.835.44-3.076 1.375-3.723.575-.396 1.169-.594 1.78-.594.342 0 .72.081 1.133.243 1.026.414 1.538 1.07 1.538 1.97l.027 1.645c.018.666.018 1.376 0 2.131-.036 1.673-.134 4.514-.297 8.525 2.105-2.608 4.244-3.912 6.42-3.912.324 0 .657.027 1 .08 1.06.162 1.797.37 2.21.621 1.062.504 1.988 1.763 2.78 3.777zM188.854 94.344c-.738-.324-1.268-.665-1.592-1.025-.377-.431-.566-1.016-.566-1.753 0-.288.036-.648.108-1.08.18-1.115.535-1.942 1.065-2.48.53-.54 1.345-.81 2.441-.81.432 0 .819.026 1.16.08 1.296.199 2.087 1.044 2.374 2.536.108.558.162 1.062.162 1.51 0 .684-.144 1.233-.431 1.646-.81 1.151-1.78 1.71-2.914 1.673-.81-.018-1.411-.117-1.807-.297zm2.077 3.912c.234 0 .575.036 1.025.108.773.161 1.295 1.106 1.565 2.832.162 1.007.206 2.212.134 3.615-.018.575.046 1.434.19 2.576.143 1.142.206 2 .188 2.576-.036.953-.422 1.592-1.16 1.915-.396.18-.818.27-1.267.27-.432 0-.873-.072-1.322-.215-1.025-.324-1.637-1.125-1.834-2.402-.091-.485-.091-1.582 0-3.29.125-2.608.215-4.101.27-4.478.287-2.086.925-3.238 1.915-3.453.035-.036.134-.054.296-.054zM206.064 96.745c-1.6 0-2.707.791-3.318 2.374-.45 1.187-.63 2.85-.54 4.99.072 1.313.135 2.293.19 2.94.143 3.022-.675 4.568-2.455 4.64-2.015.072-3.022-.997-3.022-3.21 0-.791.028-1.663.081-2.616l.216-3.83c.036-.774-.09-2.78-.378-6.016-.252-2.752-.279-4.496-.08-5.234.413-1.582 1.546-2.275 3.398-2.077.954.108 1.529.585 1.727 1.43.09.503.135.99.135 1.456 0 .342-.027.685-.081 1.026.737-.684 2.293-1.25 4.667-1.7.755-.144 1.393-.215 1.915-.215 1.528 0 2.869.404 4.02 1.213 1.6 1.115 2.508 3.363 2.724 6.744.198 2.986.278 5.333.243 7.041-.037 1.708-.063 2.688-.081 2.94-.234 2.374-1.196 3.47-2.887 3.292-1.349-.145-2.203-.972-2.562-2.482-.198-.863-.252-2.186-.162-3.966.125-2.266.17-3.956.135-5.072-.036-1.312-.275-2.216-.715-2.71-.441-.495-1.309-.805-2.603-.93a6.313 6.313 0 00-.567-.028zM231.637 101.115c-1.061.755-2.284 1.133-3.669 1.133-1.439 0-3.039-.386-4.8-1.16a4.82 4.82 0 00-.082.89c0 .81.198 1.71.594 2.698.628 1.564 1.501 2.401 2.616 2.509 1.33.144 2.661.01 3.992-.405.234-.072.486-.108.756-.108.899 0 1.393.639 1.483 1.916.126 1.582-.953 2.742-3.236 3.48a8.406 8.406 0 01-2.617.431c-1.331 0-2.653-.36-3.966-1.08-2.158-1.186-3.552-4.594-4.181-10.223a25.9 25.9 0 01-.162-2.914c0-4.063 1.178-6.914 3.534-8.55 1.187-1.007 2.725-1.511 4.613-1.511.99 0 2.05.126 3.183.377 3.345.755 5.035 2.662 5.072 5.72.035 3.02-1.008 5.286-3.13 6.797zm-6.986-5.476a2.04 2.04 0 00.688 1.497c.44.405.957.625 1.55.661.9.054 1.62-.161 2.159-.647.287-.252.431-.603.431-1.053 0-.43-.126-.953-.377-1.564-.378-.935-.935-1.403-1.673-1.403-.27 0-.593.081-.97.243-1.242.522-1.844 1.277-1.808 2.266zM245.152 88.382c2.337 0 4.667.53 6.987 1.592.665.306.97.998.917 2.077-.073 1.115-.324 1.979-.755 2.59-.216.306-.657.459-1.322.459-.738 0-1.736-.18-2.994-.54-1.511-.432-2.707-.648-3.588-.648-.504 0-.89.064-1.16.19-.756.36-1.152.8-1.187 1.321a6.56 6.56 0 00-.135 1.295c-.09.414.144.792.701 1.133.737.468 1.807.711 3.21.728 1.906.018 3.04.063 3.4.135.898.18 1.815.477 2.75.89 1.097.486 1.89 1.008 2.375 1.565.88 1.008 1.321 2.311 1.321 3.911 0 .558-.054 1.152-.161 1.78-.144.828-.594 1.728-1.349 2.699-.792 1.025-1.574 1.645-2.347 1.86-1.385.379-2.23.576-2.536.594l-2.131.162c-.881.072-1.583.099-2.104.081-.593-.018-1.556-.18-2.886-.486-2.662-.611-3.993-1.6-3.993-2.967 0-.198.036-.422.108-.674.198-.666.494-1.124.89-1.376.342-.216.864-.324 1.565-.324 1.096 0 2.688.216 4.775.648.395.09.845.09 1.348 0a4.42 4.42 0 001.97-.81c.701-.502 1.024-1.078.97-1.726-.071-.935-.943-1.529-2.616-1.78-.288-.036-1.475-.09-3.561-.162-2.481-.072-4.172-.549-5.072-1.43-1.15-1.115-1.726-2.67-1.726-4.667 0-1.24.252-2.472.755-3.696.648-1.546 1.485-2.625 2.51-3.237 1.33-.79 3.02-1.187 5.071-1.187zM270.995 101.115c-1.061.755-2.284 1.133-3.669 1.133-1.439 0-3.039-.386-4.801-1.16a4.82 4.82 0 00-.081.89c0 .81.197 1.71.593 2.698.63 1.564 1.502 2.401 2.617 2.509 1.33.144 2.661.01 3.992-.405.234-.072.486-.108.755-.108.9 0 1.394.639 1.484 1.916.126 1.582-.953 2.742-3.237 3.48a8.406 8.406 0 01-2.617.431c-1.33 0-2.652-.36-3.965-1.08-2.158-1.186-3.552-4.594-4.181-10.223a25.9 25.9 0 01-.162-2.914c0-4.063 1.178-6.914 3.534-8.55 1.187-1.007 2.725-1.511 4.613-1.511.989 0 2.05.126 3.183.377 3.345.755 5.035 2.662 5.072 5.72.035 3.02-1.008 5.286-3.13 6.797zm-6.987-5.476a2.04 2.04 0 00.688 1.497c.44.405.958.625 1.551.661.9.054 1.619-.161 2.159-.647.287-.252.43-.603.43-1.053 0-.43-.125-.953-.377-1.564-.378-.935-.935-1.403-1.672-1.403-.27 0-.594.081-.971.243-1.241.522-1.844 1.277-1.808 2.266zM295.813 91.296c.647 1.277 1.52 3.435 2.617 6.474.682 1.96 1.195 3.426 1.537 4.397.719 1.996 1.322 3.417 1.807 4.262.108.199.216.297.324.297.144 0 .234-.315.27-.944.072-1.079-.036-3.39-.324-6.933-.288-3.543-.414-6.636-.378-9.28.036-2.57 1.034-3.857 2.994-3.857 2.41 0 3.616 1.96 3.616 5.88 0 .486-.028 1.214-.082 2.185-.053.972-.08 1.7-.08 2.186 0 4.82-.316 8.812-.944 11.977-.27 1.349-.594 2.329-.972 2.94-.521.846-1.367 1.385-2.535 1.62-.36.07-.738.107-1.134.107-.97 0-1.816-.279-2.535-.837-1.69-1.312-3.471-4.505-5.341-9.576-.935-2.536-1.592-4.37-1.97-5.503-.485-1.474-.962-2.212-1.43-2.212a.394.394 0 00-.242.081c-.702.36-1.053 1.116-1.053 2.266 0 .252.01.477.028.674.431 4.659.863 7.968 1.295 9.928.162.736.242 1.375.242 1.914 0 .864-.188 1.61-.566 2.24-.45.737-1.079 1.106-1.888 1.106-1.278 0-2.14-.423-2.59-1.268-.701-1.295-1.052-4.532-1.052-9.711 0-3.74-.018-5.976-.054-6.704a44.599 44.599 0 01-.054-2.199c0-2.428.216-4 .648-4.72.863-1.457 1.914-2.185 3.156-2.185.629 0 1.403.153 2.32.458 1.492.504 2.949 2.15 4.37 4.937zM324.11 101.115c-1.062.755-2.284 1.133-3.67 1.133-1.438 0-3.038-.386-4.8-1.16a4.82 4.82 0 00-.082.89c0 .81.198 1.71.594 2.698.629 1.564 1.501 2.401 2.617 2.509 1.33.144 2.66.01 3.992-.405.233-.072.485-.108.755-.108.9 0 1.394.639 1.484 1.916.125 1.582-.954 2.742-3.237 3.48a8.406 8.406 0 01-2.617.431c-1.331 0-2.653-.36-3.965-1.08-2.159-1.186-3.552-4.594-4.182-10.223a25.9 25.9 0 01-.162-2.914c0-4.063 1.178-6.914 3.534-8.55 1.187-1.007 2.725-1.511 4.613-1.511.99 0 2.05.126 3.184.377 3.345.755 5.034 2.662 5.071 5.72.035 3.02-1.008 5.286-3.13 6.797zm-6.987-5.476a2.04 2.04 0 00.688 1.497c.44.405.958.625 1.55.661.9.054 1.62-.161 2.16-.647.287-.252.43-.603.43-1.053 0-.43-.125-.953-.377-1.564-.378-.935-.935-1.403-1.673-1.403-.27 0-.593.081-.97.243-1.242.522-1.844 1.277-1.808 2.266zM340.889 108.884l-.054.297c-.306 1.69-1.385 2.634-3.237 2.832-.864.09-1.601.126-2.212.108-2.32-.072-3.777-1.694-4.37-4.868-.45-2.397-.729-4.21-.837-5.435l-.35-3.976c-.253-2.848-.378-4.336-.378-4.462 0-2 1.034-2.929 3.102-2.785.953.072 1.61.36 1.97.866.305.45.458 2.59.458 6.416 0 2.274.17 4.477.513 6.606.126.812.575 1.218 1.348 1.218.756 0 1.205-.422 1.35-1.268.017-.09.071-.944.161-2.563.09-1.582.09-3.722 0-6.42-.126-2.985.375-4.568 1.503-4.747 1.557-.234 2.594.053 3.113.863.376.611.563 1.78.563 3.507 0 6.186.432 9.73 1.295 10.628.27.27.575.405.918.405.27 0 .548-.081.835-.243.792-.432 1.232-1.717 1.323-3.857.017-.342-.027-1.79-.135-4.344-.072-1.924-.1-3.12-.081-3.588.09-1.942.449-3.039 1.08-3.29.323-.072.862-.135 1.617-.19.755-.053 1.358.342 1.808 1.187.341.666.512 1.421.512 2.267 0 .665-.054 1.924-.162 3.776-.107 1.763-.071 3.336.108 4.72.09.793.261 2.222.513 4.29.072.629.108 1.187.108 1.673 0 1.708-.468 2.544-1.403 2.508a23.93 23.93 0 01-1.187-.108c-.666-.251-1.079-.926-1.24-2.023-.235.81-.522 1.358-.864 1.646-.558.45-1.331.782-2.32.998-.989.216-1.817.224-2.482.027-.647-.199-1.079-.342-1.294-.432-.288-.054-.621-.369-.999-.944-.342-.522-.54-.954-.593-1.295zM381.865 102.253c-.954 1.166-2.284 1.748-3.993 1.748-.27 0-.549-.018-.835-.053.035 1.151.134 2.31.296 3.48.125.79.279 1.77.458 2.94.054.485-.044.953-.296 1.402-.252.45-.594.738-1.026.864-.43.125-.989.162-1.672.107-1.223-.107-1.852-1.178-1.888-3.21-.018-1.169-.18-2.994-.485-5.476-1.584.054-2.91-.31-3.98-1.092-1.07-.782-1.785-1.929-2.144-3.44-.18-.79-.504-3.12-.971-6.986-.145-1.205-.216-2.221-.216-3.048 0-1.637.278-2.653.836-3.049.792-.557 1.556-.818 2.293-.782 1.78.108 2.742 1.151 2.886 3.13a454 454 0 00.351 5.421c.036.486.081 1.224.135 2.213.108 1.708.638 2.742 1.592 3.102.323.125.818.197 1.483.215 1.745.054 2.751-.698 3.022-2.257.09-.537.126-1.406.108-2.606-.018-.878-.054-2.518-.108-4.918-.072-2.097.386-3.36 1.375-3.79.792-.34 1.502-.51 2.131-.51 1.223 0 2.096.6 2.617 1.802.396.897.567 2.027.513 3.389a45.41 45.41 0 01-.594 5.944c-.45 2.654-1.079 4.474-1.888 5.46zM400.559 101.115c-1.062.755-2.284 1.133-3.67 1.133-1.438 0-3.038-.386-4.8-1.16a4.82 4.82 0 00-.082.89c0 .81.198 1.71.594 2.698.629 1.564 1.501 2.401 2.617 2.509 1.33.144 2.66.01 3.992-.405.233-.072.486-.108.755-.108.9 0 1.394.639 1.484 1.916.126 1.582-.953 2.742-3.237 3.48a8.406 8.406 0 01-2.617.431c-1.33 0-2.653-.36-3.965-1.08-2.158-1.186-3.552-4.594-4.182-10.223a25.9 25.9 0 01-.161-2.914c0-4.063 1.178-6.914 3.534-8.55 1.186-1.007 2.724-1.511 4.613-1.511.989 0 2.05.126 3.183.377 3.345.755 5.035 2.662 5.071 5.72.036 3.02-1.007 5.286-3.13 6.797zm-6.987-5.476a2.04 2.04 0 00.688 1.497c.44.405.958.625 1.55.661.9.054 1.62-.161 2.16-.647.287-.252.43-.603.43-1.053 0-.43-.125-.953-.377-1.564-.378-.935-.935-1.403-1.672-1.403-.27 0-.594.081-.971.243-1.242.522-1.844 1.277-1.808 2.266zM413.992 88.706h1.835c.737 0 1.613.265 2.63.796 1.016.53 1.713 1.11 2.09 1.74.54.863.873 1.69.999 2.481.143.9.044 3.113-.297 6.637a30.628 30.628 0 00-.162 2.967c0 1.835.225 3.112.674 3.83.522.828.783 1.539.783 2.132 0 .27-.045.476-.135.62-.432.701-1.061 1.052-1.888 1.052-.199 0-.405-.018-.62-.054-.756-.126-1.413-.836-1.97-2.13l-.27.539c-.63.881-1.655 1.565-3.075 2.05a9.553 9.553 0 01-3.723.54c-1.133-.054-2.06-.333-2.778-.837-2.105-1.456-3.157-3.435-3.157-5.935 0-1.672.585-3.075 1.754-4.208s2.598-1.762 4.29-1.888c.25-.017.574-.027.97-.027 1.673 0 3.066.333 4.181.998.306.234.557.423.756.567.054-.36.08-.558.08-.594a10.52 10.52 0 00.163-1.7c0-.772-.135-1.411-.405-1.914-.45-.846-.989-1.331-1.619-1.457-.611-.126-1.42-.081-2.428.134-.161.037-.36.055-.593.055-.738 0-1.43-.279-2.077-.837-.647-.557-.971-1.204-.971-1.942 0-.216.044-.476.135-.783.323-1.042.8-1.69 1.43-1.942.161-.053.287-.107.377-.161.432-.198.746-.333.944-.405.522-.234 1.214-.341 2.077-.324zm-1.186 18.505c.575-.359.863-.826.863-1.402 0-.216-.054-.476-.162-.783-.324-.917-.917-1.375-1.78-1.375-1.475 0-2.266.575-2.374 1.726-.108 1.008.152 1.69.782 2.05.305.18.638.27.998.27.611 0 1.169-.161 1.673-.486zM437.623 92.537c1.906.144 2.913.98 3.021 2.508.126 1.548-.44 2.366-1.7 2.455-2.805.234-4.792 1.08-5.961 2.536-.45.558-.674 1.709-.674 3.453 0 .486.031 1.21.094 2.172.063.962.094 1.686.094 2.171 0 1.924-.341 3.12-1.025 3.588-.558.378-1.06.567-1.51.567a1.43 1.43 0 01-.648-.135c-.953-.468-1.6-1.07-1.942-1.808-.198-.45-.387-1.372-.567-2.765-.18-1.393-.377-3.538-.593-6.434-.216-2.895-.423-5.071-.62-6.528a16.087 16.087 0 01-.162-2.077c0-1.223.215-2.068.647-2.536.648-.701 1.223-1.033 1.727-.998.377-.054.718-.08 1.025-.08 1.528 0 2.428.629 2.697 1.888.324 1.564.387 3.111.19 4.64 2.031-1.89 4-2.761 5.907-2.617z"/></g><g><path class="st0" d="M35.309 20.517c-11.758 4.556-17.597 17.782-13.04 29.54 4.556 11.758 17.781 17.597 29.54 13.04 11.758-4.556 17.596-17.781 13.04-29.54-4.556-11.758-17.782-17.596-29.54-13.04zm15.202 39.231c-9.91 3.84-21.054-1.08-24.894-10.989-3.839-9.908 1.081-21.054 10.99-24.893 9.908-3.84 21.053 1.08 24.893 10.99 3.84 9.908-1.08 21.053-10.99 24.892z"/><path class="st4" d="M36.607 23.866c-9.909 3.84-14.829 14.985-10.99 24.893 3.84 9.909 14.985 14.829 24.894 10.99 9.908-3.84 14.828-14.985 10.989-24.894-3.84-9.908-14.985-14.828-24.893-10.989zM50.86 45.031l-10.526 4.078-4.078-10.525 10.525-4.079 4.079 10.526z"/><path transform="rotate(-21.181 41.153 35.654)" class="st0" d="M34.034 34.693h14.238v1.924H34.034z"/><path transform="rotate(-21.181 37.506 43.877)" class="st0" d="M36.759 36.566h1.495v14.623h-1.495z"/><path transform="rotate(-21.181 49.407 39.266)" class="st0" d="M48.68 31.954h1.455v14.623H48.68z"/><path transform="rotate(-21.181 45.834 47.735)" class="st0" d="M38.715 47.029h14.238v1.411H38.715z"/></g><g><path class="st0" d="M405.748 33.558c-4.557 11.758 1.282 24.983 13.04 29.54 11.758 4.556 24.984-1.283 29.54-13.041 4.556-11.758-1.282-24.984-13.04-29.54-11.759-4.556-24.984 1.282-29.54 13.04zm3.349 1.297c3.839-9.908 14.984-14.828 24.893-10.989 9.908 3.84 14.829 14.985 10.99 24.893-3.84 9.909-14.985 14.829-24.894 10.99-9.909-3.84-14.829-14.985-10.99-24.894z"/><path class="st4" d="M409.097 34.855c-3.84 9.909 1.08 21.054 10.989 24.893 9.909 3.84 21.054-1.08 24.893-10.989 3.84-9.908-1.08-21.054-10.99-24.893-9.908-3.84-21.053 1.08-24.892 10.99zm14.717-.35l10.526 4.079-4.079 10.525-10.525-4.078 4.078-10.526z"/><path transform="rotate(-68.819 429.441 35.654)" class="st0" d="M428.481 28.535h1.924v14.238h-1.924z"/><path transform="rotate(-68.819 433.088 43.877)" class="st0" d="M425.779 43.13h14.623v1.495h-14.623z"/><path transform="rotate(-68.819 421.188 39.266)" class="st0" d="M413.878 38.538h14.623v1.455h-14.623z"/><path transform="rotate(-68.819 424.76 47.735)" class="st0" d="M424.057 40.616h1.411v14.238h-1.411z"/></g></svg>