<svg version="1.1" id="Layer_1" xmlns="http://www.w3.org/2000/svg" x="0" y="0" viewBox="0 0 403 108.47" xml:space="preserve"><style>.st0{fill:#171933}.st1{fill:none}.st2{fill:#ffbc00}.st3{fill:#ed1b1b}</style><path class="st0" d="M29.814 72.116a6.54 6.54 0 01-6.534-6.533v-58.3A6.541 6.541 0 0129.814.75h5.267a6.541 6.541 0 016.534 6.533v46.5h9.357a6.54 6.54 0 016.533 6.533v5.267a6.54 6.54 0 01-6.533 6.533H29.814z"/><path class="st0" d="M35.081 1.5a5.79 5.79 0 015.784 5.784v47.249h10.107a5.79 5.79 0 015.783 5.783v5.267a5.79 5.79 0 01-5.783 5.783H29.814a5.79 5.79 0 01-5.784-5.783v-58.3A5.79 5.79 0 0129.814 1.5h5.267m0-1.5h-5.267c-4.016 0-7.284 3.267-7.284 7.284v58.299c0 4.016 3.268 7.283 7.284 7.283h21.158c4.016 0 7.283-3.267 7.283-7.283v-5.267c0-4.016-3.267-7.283-7.283-7.283h-8.607V7.283C42.365 3.268 39.097 0 35.08 0zM67.142 72.116a6.54 6.54 0 01-6.534-6.533v-49.06a6.541 6.541 0 016.534-6.533H88.3a6.541 6.541 0 016.533 6.533v5.267a6.54 6.54 0 01-6.533 6.533h-9.36v5.55h6.726a6.541 6.541 0 016.534 6.534v5.266a6.541 6.541 0 01-6.534 6.533h-6.725v1.577H88.3a6.54 6.54 0 016.533 6.533v5.267a6.54 6.54 0 01-6.533 6.533H67.142z"/><path class="st0" d="M88.3 10.74a5.79 5.79 0 015.783 5.783v5.267a5.79 5.79 0 01-5.783 5.783H78.19v7.05h7.475a5.79 5.79 0 015.783 5.783v5.267a5.79 5.79 0 01-5.783 5.783h-7.475v3.077H88.3a5.79 5.79 0 015.783 5.783v5.267a5.79 5.79 0 01-5.783 5.783H67.142a5.79 5.79 0 01-5.783-5.783v-49.06a5.79 5.79 0 015.783-5.783H88.3m0-1.5H67.142c-4.016 0-7.283 3.267-7.283 7.283v49.06c0 4.016 3.267 7.283 7.283 7.283H88.3c4.016 0 7.283-3.267 7.283-7.283v-5.267c0-4.016-3.267-7.283-7.283-7.283H79.69v-.077h5.975c4.016 0 7.283-3.267 7.283-7.283v-5.267c0-4.016-3.267-7.283-7.283-7.283h-5.975v-4.05H88.3c4.016 0 7.283-3.267 7.283-7.283v-5.267c0-4.016-3.267-7.283-7.283-7.283zM115.905 72.07a6.54 6.54 0 01-6.534-6.533V28.37h-3.307a6.54 6.54 0 01-6.533-6.534V16.57a6.54 6.54 0 016.533-6.534h25.085a6.541 6.541 0 016.534 6.534v5.267a6.541 6.541 0 01-6.534 6.534h-3.49v37.167a6.54 6.54 0 01-6.533 6.533h-5.221z"/><path class="st0" d="M131.15 10.785a5.79 5.79 0 015.783 5.784v5.267a5.79 5.79 0 01-5.784 5.784h-4.24v37.917a5.79 5.79 0 01-5.784 5.784h-5.22a5.79 5.79 0 01-5.784-5.784V27.62h-4.057a5.79 5.79 0 01-5.783-5.784V16.57a5.79 5.79 0 015.783-5.784h25.085m0-1.5h-25.085c-4.016 0-7.283 3.268-7.283 7.284v5.267c0 4.017 3.267 7.284 7.283 7.284h2.557v36.417c0 4.016 3.268 7.284 7.284 7.284h5.22c4.016 0 7.284-3.268 7.284-7.284V29.12h2.74c4.016 0 7.284-3.267 7.284-7.284V16.57c0-4.016-3.268-7.284-7.284-7.284z"/><path class="st0" d="M140.967 24.474a3.389 3.389 0 01-3.135-2.098 3.32 3.32 0 01.714-3.627c.605-.608 1.366-1.125 2.171-1.671l.08-.055a9.693 9.693 0 01-1.322-1.331c-1.435-1.791-2.119-3.864-2.035-6.167a9.013 9.013 0 012.336-5.733c1.836-2.018 4.14-3.042 6.848-3.042.619 0 1.267.056 1.925.167 1.063.18 2.1.608 2.997 1.235 2.762 1.933 4.222 4.61 4.222 7.742 0 .795-.104 1.597-.31 2.384-.688 2.719-2.031 5.148-3.99 7.215a15.8 15.8 0 01-7.224 4.385c-.948.282-1.936.478-2.929.579a3.385 3.385 0 01-.348.017z"/><path class="st0" d="M146.624 1.5c.58 0 1.185.053 1.8.157a6.67 6.67 0 012.692 1.11c2.553 1.786 3.902 4.25 3.902 7.127a8.74 8.74 0 01-.285 2.195c-.658 2.597-1.94 4.915-3.809 6.888a15.075 15.075 0 01-6.886 4.18c-.91.271-1.852.457-2.798.554a2.64 2.64 0 01-2.715-1.622 2.573 2.573 0 01.552-2.81c.557-.56 1.29-1.057 2.067-1.585.32-.216.642-.436.947-.656a8.631 8.631 0 01-2.037-1.822c-1.314-1.64-1.941-3.546-1.865-5.664a8.265 8.265 0 012.142-5.256c1.688-1.855 3.805-2.796 6.293-2.796m0-1.5c-2.928 0-5.419 1.106-7.403 3.287a9.767 9.767 0 00-2.53 6.21c-.09 2.488.647 4.728 2.193 6.657.227.277.464.538.71.785-.574.402-1.11.81-1.58 1.28a4.068 4.068 0 00-.875 4.445 4.136 4.136 0 004.252 2.539 16.705 16.705 0 003.076-.609 16.52 16.52 0 007.546-4.585c2.048-2.162 3.452-4.703 4.174-7.552.219-.84.33-1.705.33-2.563 0-3.387-1.57-6.277-4.541-8.356a8.18 8.18 0 00-3.302-1.36 12.331 12.331 0 00-2.05-.178zM161.07 72.07a6.54 6.54 0 01-6.532-6.533v-5.268a6.54 6.54 0 016.533-6.533h12.542c.255 0 .391-.055.563-.226.173-.174.226-.294.226-.516 0-.253-.055-.39-.227-.562-.171-.171-.308-.226-.562-.226l-.75-.002c-5.056-.211-9.412-2.166-12.947-5.81-3.534-3.673-5.343-8.117-5.378-13.212v-5.515c.035-5.232 1.918-9.746 5.595-13.423 3.675-3.676 8.193-5.559 13.43-5.595h.651c5.181.18 9.574 2.135 13.147 5.812 3.536 3.68 5.328 8.142 5.328 13.264v2.796a6.54 6.54 0 01-6.533 6.533h-1.98a20.132 20.132 0 013.185 2.677c3.536 3.68 5.328 8.141 5.328 13.263 0 5.23-1.865 9.765-5.544 13.48-3.715 3.714-8.267 5.596-13.532 5.596h-12.542z"/><path class="st0" d="M174.246 9.4h.03c4.892.172 9.111 2.048 12.547 5.584 3.395 3.532 5.116 7.82 5.116 12.741v2.796a5.79 5.79 0 01-5.783 5.783h-4.828c2.005.928 3.84 2.246 5.495 3.949 3.395 3.533 5.116 7.82 5.116 12.742 0 5.023-1.79 9.379-5.327 12.951-3.567 3.566-7.94 5.375-12.998 5.375H161.07a5.79 5.79 0 01-5.784-5.784V60.27a5.79 5.79 0 015.784-5.784h12.543c.453 0 .78-.133 1.093-.447.312-.311.445-.624.445-1.044 0-.453-.133-.78-.447-1.093-.312-.312-.639-.446-1.091-.446h-.684l-.037-.001c-4.857-.204-9.04-2.08-12.44-5.583-3.393-3.527-5.131-7.794-5.166-12.695v-5.51c.035-5.023 1.844-9.36 5.376-12.893 3.53-3.532 7.869-5.34 12.906-5.375h.677m0-1.5h-.677c-5.452.038-10.147 1.994-13.967 5.815-3.82 3.82-5.777 8.512-5.815 13.943v5.52c.038 5.304 1.917 9.922 5.585 13.735 3.679 3.79 8.205 5.822 13.458 6.041l.032.002.068.001H173.635l.017.017-.005.005a.032.032 0 00-.006.008.73.73 0 01-.02 0H161.07c-4.016 0-7.284 3.267-7.284 7.284v5.267c0 4.016 3.268 7.284 7.284 7.284h12.543c5.47 0 10.2-1.956 14.059-5.814 3.828-3.867 5.766-8.58 5.766-14.012 0-5.323-1.862-9.96-5.535-13.781-.486-.501-.99-.973-1.508-1.413 3.905-.128 7.043-3.344 7.043-7.28v-2.796c0-5.322-1.862-9.959-5.535-13.78-3.718-3.827-8.283-5.859-13.575-6.044h-.026l-.057-.002z"/><g><path class="st0" d="M234.247 72.071a6.541 6.541 0 01-6.533-6.534V19.13h-3.307a6.54 6.54 0 01-6.533-6.533V7.33a6.54 6.54 0 016.533-6.533h25.085a6.54 6.54 0 016.533 6.533v5.267a6.54 6.54 0 01-6.533 6.533h-3.49v46.407a6.541 6.541 0 01-6.533 6.534h-5.222z"/><path class="st0" d="M249.492 1.547a5.79 5.79 0 015.784 5.783v5.267a5.79 5.79 0 01-5.784 5.783h-4.24v47.157a5.79 5.79 0 01-5.784 5.784h-5.22a5.79 5.79 0 01-5.784-5.784V18.38h-4.057a5.79 5.79 0 01-5.783-5.783V7.33a5.79 5.79 0 015.783-5.783h25.085m0-1.5h-25.085c-4.016 0-7.283 3.267-7.283 7.283v5.267c0 4.016 3.267 7.283 7.283 7.283h2.557v45.657c0 4.016 3.267 7.284 7.284 7.284h5.22c4.016 0 7.284-3.268 7.284-7.284V19.88h2.74c4.016 0 7.284-3.267 7.284-7.283V7.33c0-4.016-3.268-7.283-7.284-7.283z"/></g><g><path class="st0" d="M283.777 72.071a6.541 6.541 0 01-6.533-6.534v-6.725h-1.53v6.725a6.541 6.541 0 01-6.533 6.534h-5.268a6.541 6.541 0 01-6.533-6.534V27.882c0-4.634 1.52-8.987 4.282-12.257 3.937-4.66 8.93-7.022 14.84-7.022 5.876 0 10.85 2.36 14.786 7.016 2.767 3.272 4.29 7.628 4.29 12.267v37.65a6.541 6.541 0 01-6.533 6.535h-5.268z"/><path class="st0" d="M276.503 9.353c5.644 0 10.426 2.271 14.213 6.75 2.652 3.138 4.113 7.322 4.113 11.783v37.651a5.79 5.79 0 01-5.784 5.784h-5.267a5.79 5.79 0 01-5.784-5.784v-7.475h-3.03v7.475a5.79 5.79 0 01-5.783 5.784h-5.268a5.79 5.79 0 01-5.783-5.784V27.882c0-4.457 1.458-8.638 4.106-11.773 3.786-4.483 8.586-6.756 14.267-6.756m0-1.5c-6.143 0-11.328 2.452-15.413 7.288-2.876 3.405-4.46 7.93-4.46 12.741v37.655c0 4.016 3.267 7.284 7.283 7.284h5.268c4.016 0 7.283-3.268 7.283-7.284v-5.975h.03v5.975c0 4.016 3.267 7.284 7.284 7.284h5.267c4.016 0 7.284-3.268 7.284-7.284V27.886c0-4.815-1.587-9.344-4.468-12.751-4.085-4.832-9.252-7.282-15.358-7.282z"/></g><g><path class="st0" d="M308.104 72.116a6.54 6.54 0 01-6.534-6.533v-49.06a6.54 6.54 0 016.534-6.533h5.267a6.542 6.542 0 016.534 6.533v37.26h9.357a6.54 6.54 0 016.533 6.533v5.267a6.54 6.54 0 01-6.533 6.533h-21.158z"/><path class="st0" d="M313.371 10.74a5.79 5.79 0 015.784 5.783v38.01h10.107a5.79 5.79 0 015.783 5.783v5.267a5.79 5.79 0 01-5.783 5.783h-21.158a5.79 5.79 0 01-5.784-5.783v-49.06a5.79 5.79 0 015.784-5.783h5.267m0-1.5h-5.267c-4.016 0-7.284 3.267-7.284 7.283v49.06c0 4.016 3.268 7.283 7.284 7.283h21.158c4.016 0 7.283-3.267 7.283-7.283v-5.267c0-4.016-3.267-7.283-7.283-7.283h-8.607v-36.51c0-4.016-3.268-7.283-7.284-7.283z"/></g><g><path class="st0" d="M366.97 72.116c-3.235 0-6.016-2.415-6.469-5.616l-1.775-12.529-.096-.628c-.043-.321-.178-.555-.451-.794-.345-.302-.587-.343-.778-.343h-.325v13.377a6.541 6.541 0 01-6.534 6.533h-5.268a6.54 6.54 0 01-6.533-6.533v-49.06a6.54 6.54 0 016.533-6.533h5.268a6.542 6.542 0 016.534 6.533V33.67a1.73 1.73 0 00.178-.139c.349-.304.423-.547.45-.745l.017-.107 3.563-17.461a6.554 6.554 0 016.402-5.227h5.104a6.51 6.51 0 015.06 2.4 6.512 6.512 0 011.343 5.436l-3.218 15.808c-.457 3.116-1.63 6.074-3.482 8.767 2.406 3.036 3.894 6.464 4.422 10.197l1.709 12.069a6.533 6.533 0 01-6.469 7.45h-5.185z"/><path class="st0" d="M372.79 10.74c1.744 0 3.377.774 4.48 2.124a5.761 5.761 0 011.188 4.813l-3.219 15.808c-.474 3.224-1.712 6.227-3.686 8.947 2.532 3.04 4.084 6.487 4.62 10.27l.044.319 1.665 11.75a5.781 5.781 0 01-5.727 6.595h-5.186c-2.862 0-5.324-2.137-5.726-4.972l-1.775-12.528-.097-.636c-.065-.49-.287-.886-.698-1.245-.412-.36-.816-.529-1.271-.529h-1.076v14.127a5.79 5.79 0 01-5.784 5.783h-5.267a5.79 5.79 0 01-5.784-5.783v-49.06a5.79 5.79 0 015.784-5.783h5.267a5.79 5.79 0 015.784 5.783v18.1h.106c.486 0 .904-.168 1.316-.529.414-.361.636-.745.7-1.207l.007-.057.012-.057 3.552-17.406a5.803 5.803 0 015.667-4.627h5.104m0-1.5h-5.104a7.308 7.308 0 00-7.137 5.827l-2.723 13.345V16.523c0-4.016-3.268-7.283-7.284-7.283h-5.267c-4.016 0-7.284 3.267-7.284 7.283v49.06c0 4.016 3.268 7.283 7.284 7.283h5.267c4.016 0 7.284-3.267 7.284-7.283V53.264c.045.067.052.116.058.164l.1.663 1.774 12.514c.506 3.57 3.606 6.261 7.211 6.261h5.186a7.28 7.28 0 007.212-8.304l-1.665-11.752-.043-.314c-.523-3.693-1.949-7.093-4.242-10.127 1.733-2.653 2.842-5.548 3.3-8.624l3.21-15.769a7.256 7.256 0 00-1.496-6.06 7.256 7.256 0 00-5.64-2.676z"/></g><g><path class="st1" d="M174.705 26.679c-.312-.312-.638-.445-1.091-.445-.377 0-.663.098-.924.317l-.03.043-.538 1.118v5.418c0 .452.134.778.418 1.063.312.297.643.43 1.074.43h.068l.068.005.564.043c1.02.037 2.013.15 2.973.335a5.775 5.775 0 01-2.135-4.485v-2.796c0-.42-.133-.733-.447-1.046zM277.994 27.725c0-.452-.134-.778-.445-1.09-.314-.313-.627-.447-1.046-.447-.453 0-.78.134-1.092.445-.313.314-.447.64-.447 1.092V41.23h3.03V27.725z"/><path class="st2" d="M50.972 56.32H39.077V7.284a3.996 3.996 0 00-3.996-3.995h-5.267a3.995 3.995 0 00-3.996 3.995v58.3a3.995 3.995 0 003.996 3.995h21.158a3.995 3.995 0 003.995-3.995v-5.267a3.995 3.995 0 00-3.995-3.995zM88.3 12.528H67.142a3.996 3.996 0 00-3.995 3.995v49.06a3.996 3.996 0 003.995 3.995H88.3a3.996 3.996 0 003.995-3.995v-5.267a3.996 3.996 0 00-3.995-3.995H76.403v-6.653h9.263a3.995 3.995 0 003.995-3.995v-5.267a3.995 3.995 0 00-3.995-3.995h-9.263V25.785H88.3a3.996 3.996 0 003.995-3.995v-5.267a3.996 3.996 0 00-3.995-3.995zM131.15 12.573h-25.086a3.996 3.996 0 00-3.995 3.996v5.267a3.996 3.996 0 003.995 3.996h5.845v39.705a3.996 3.996 0 003.996 3.996h5.22a3.996 3.996 0 003.996-3.996V25.832h6.028a3.995 3.995 0 003.996-3.996V16.57a3.995 3.995 0 00-3.996-3.996zM150.09 4.232a4.853 4.853 0 00-1.965-.812 8.99 8.99 0 00-1.501-.132c-1.973 0-3.63.737-4.97 2.212a6.505 6.505 0 00-1.678 4.117c-.06 1.683.43 3.177 1.474 4.481.807.984 1.79 1.68 2.95 2.085.404.14.548.667.265.987-1.154 1.31-3.33 2.375-4.32 3.37-.525.527-.095 1.396.622 1.396.03 0 .061-.001.092-.004a13.356 13.356 0 002.469-.489 13.27 13.27 0 006.098-3.696c1.663-1.755 2.788-3.787 3.373-6.097.153-.585.23-1.17.23-1.756 0-2.31-1.047-4.199-3.138-5.662zM174.214 11.187h-.645c-4.56.032-8.44 1.649-11.642 4.851-3.203 3.204-4.82 7.084-4.852 11.641v5.498c.032 4.435 1.587 8.254 4.667 11.456 3.079 3.172 6.82 4.85 11.226 5.035h.646c.924 0 1.71.324 2.356.97.648.648.97 1.433.97 2.357 0 .893-.322 1.663-.97 2.31-.646.646-1.432.97-2.356.97H161.07a3.996 3.996 0 00-3.996 3.995v5.267a3.996 3.996 0 003.996 3.996h12.543c4.588 0 8.5-1.618 11.734-4.851 3.202-3.234 4.803-7.13 4.803-11.687 0-4.465-1.539-8.3-4.617-11.503-3.112-3.203-6.885-4.881-11.32-5.035l-.6-.046a3.225 3.225 0 01-2.308-.925c-.648-.647-.972-1.432-.972-2.356v-5.405-.461a.75.75 0 00.047-.185l.047-.139.045-.184.046-.186.047-.138c.03-.062.076-.139.139-.23.02-.042.026-.062.019-.062-.003 0-.01.005-.02.015.03-.062.077-.139.14-.231h.044v-.046c.031-.062.078-.139.138-.231h.047c.063-.092.123-.17.186-.232h.047a.818.818 0 01.23-.23c.585-.492 1.278-.74 2.078-.74.924 0 1.71.324 2.356.97.648.647.97 1.418.97 2.31v2.796a3.996 3.996 0 003.995 3.995h5.221a3.995 3.995 0 003.995-3.995v-2.796c0-4.464-1.539-8.299-4.617-11.502-3.112-3.203-6.885-4.88-11.32-5.036zM249.492 3.335h-25.085a3.996 3.996 0 00-3.995 3.995v5.267a3.996 3.996 0 003.995 3.995h5.845v48.945a3.996 3.996 0 003.996 3.996h5.22a3.996 3.996 0 003.996-3.996V16.592h6.028a3.996 3.996 0 003.996-3.995V7.33a3.996 3.996 0 00-3.996-3.995zM276.503 11.141c-5.157 0-9.455 2.041-12.901 6.122-2.486 2.943-3.684 6.767-3.684 10.62v37.654a3.996 3.996 0 003.995 3.996h5.268a3.996 3.996 0 003.995-3.996v-9.263h6.606v9.263a3.995 3.995 0 003.996 3.996h5.267a3.996 3.996 0 003.996-3.996V27.886c0-3.857-1.201-7.683-3.69-10.628-3.448-4.077-7.731-6.117-12.848-6.117zm3.28 31.876h-6.607V27.725c0-.923.324-1.709.97-2.355.648-.647 1.432-.97 2.357-.97.891 0 1.662.323 2.31.97.645.646.97 1.432.97 2.355v15.292zM329.262 56.32h-11.895V16.524a3.996 3.996 0 00-3.996-3.995h-5.267a3.996 3.996 0 00-3.996 3.995v49.06a3.996 3.996 0 003.996 3.995h21.158a3.996 3.996 0 003.995-3.995v-5.267a3.996 3.996 0 00-3.995-3.995zM372.79 12.528h-5.104a3.995 3.995 0 00-3.915 3.196l-3.552 17.406c-.123.894-.554 1.663-1.294 2.31s-1.57.97-2.493.97h-1.894V16.524a3.996 3.996 0 00-3.996-3.995h-5.267a3.996 3.996 0 00-3.996 3.995v49.06a3.996 3.996 0 003.996 3.995h5.267a3.996 3.996 0 003.996-3.995V49.668h2.864c.893 0 1.709.324 2.448.97.74.648 1.17 1.433 1.293 2.357l.092.6 1.778 12.549a3.996 3.996 0 003.956 3.434h5.186c2.43 0 4.297-2.15 3.956-4.555l-1.664-11.751-.045-.323c-.554-3.91-2.28-7.392-5.174-10.44 2.34-2.803 3.756-5.914 4.25-9.332l3.228-15.857a3.995 3.995 0 00-3.916-4.792z"/><g><path class="st3" d="M50.972 54.533H40.865V7.283A5.79 5.79 0 0035.08 1.5h-5.267a5.79 5.79 0 00-5.784 5.783v58.3a5.79 5.79 0 005.784 5.783h21.158a5.79 5.79 0 005.783-5.783v-5.267a5.79 5.79 0 00-5.783-5.783zm3.995 11.05a3.995 3.995 0 01-3.995 3.995H29.814a3.995 3.995 0 01-3.996-3.995v-58.3a3.995 3.995 0 013.996-3.995h5.267a3.996 3.996 0 013.996 3.996V56.32h11.895a3.995 3.995 0 013.995 3.995v5.267zM88.3 10.74H67.142a5.79 5.79 0 00-5.783 5.783v49.06a5.79 5.79 0 005.783 5.783H88.3a5.79 5.79 0 005.783-5.783v-5.267a5.79 5.79 0 00-5.783-5.783H78.19v-3.077h7.475a5.79 5.79 0 005.783-5.783v-5.267a5.79 5.79 0 00-5.783-5.783h-7.475v-7.05H88.3a5.79 5.79 0 005.783-5.783v-5.267A5.79 5.79 0 0088.3 10.74zm3.995 11.05a3.996 3.996 0 01-3.995 3.995H76.403v10.626h9.263a3.995 3.995 0 013.995 3.995v5.267a3.995 3.995 0 01-3.995 3.995h-9.263v6.653H88.3a3.996 3.996 0 013.995 3.995v5.267a3.996 3.996 0 01-3.995 3.995H67.142a3.996 3.996 0 01-3.995-3.995v-49.06a3.996 3.996 0 013.995-3.995H88.3a3.996 3.996 0 013.995 3.995v5.267zM131.15 10.785h-25.086a5.79 5.79 0 00-5.783 5.784v5.267a5.79 5.79 0 005.783 5.784h4.057v37.917a5.79 5.79 0 005.784 5.784h5.22a5.79 5.79 0 005.784-5.784V27.62h4.24a5.79 5.79 0 005.784-5.784V16.57a5.79 5.79 0 00-5.784-5.784zm3.995 11.051a3.995 3.995 0 01-3.996 3.996h-6.028v39.705a3.996 3.996 0 01-3.996 3.996h-5.22a3.996 3.996 0 01-3.996-3.996V25.832h-5.845a3.996 3.996 0 01-3.995-3.996V16.57a3.996 3.996 0 013.995-3.996h25.085a3.995 3.995 0 013.996 3.996v5.267zM151.116 2.767a6.671 6.671 0 00-2.692-1.11 10.827 10.827 0 00-1.8-.157c-2.488 0-4.605.94-6.293 2.796a8.265 8.265 0 00-2.142 5.256c-.076 2.118.551 4.024 1.865 5.664a8.631 8.631 0 002.037 1.822c-.305.22-.628.44-.947.656-.777.528-1.51 1.026-2.067 1.584a2.573 2.573 0 00-.553 2.81 2.64 2.64 0 002.716 1.623 15.2 15.2 0 002.798-.554 15.075 15.075 0 006.886-4.18c1.87-1.973 3.15-4.29 3.809-6.888a8.74 8.74 0 00.285-2.195c0-2.876-1.35-5.34-3.902-7.127zm1.883 8.883c-.585 2.31-1.71 4.342-3.373 6.097a13.27 13.27 0 01-6.098 3.696c-.808.24-1.63.404-2.469.489a.894.894 0 01-.092.004c-.717 0-1.147-.87-.623-1.396.991-.995 3.167-2.06 4.321-3.37.283-.32.139-.847-.265-.988-1.16-.405-2.143-1.1-2.95-2.084-1.045-1.304-1.535-2.798-1.474-4.481a6.506 6.506 0 011.678-4.117c1.34-1.475 2.997-2.212 4.97-2.212.482 0 .982.044 1.501.132.706.12 1.38.401 1.966.812 2.091 1.463 3.139 3.352 3.139 5.662 0 .585-.078 1.171-.23 1.756zM174.277 9.4h-.708c-5.037.034-9.375 1.842-12.906 5.374-3.532 3.533-5.341 7.87-5.376 12.893v5.51c.035 4.9 1.773 9.168 5.166 12.696 3.4 3.502 7.583 5.378 12.44 5.582l.037.001h.684c.452 0 .779.134 1.091.446.314.313.447.64.447 1.093 0 .42-.133.733-.445 1.044-.314.314-.64.447-1.093.447H161.07a5.79 5.79 0 00-5.784 5.784v5.267a5.79 5.79 0 005.784 5.784h12.543c5.058 0 9.431-1.809 12.998-5.375 3.537-3.572 5.327-7.928 5.327-12.951 0-4.922-1.721-9.21-5.116-12.742-1.655-1.703-3.49-3.02-5.495-3.949h4.828a5.79 5.79 0 005.783-5.783v-2.796c0-4.922-1.721-9.209-5.116-12.741-3.436-3.536-7.655-5.412-12.546-5.584zm15.874 21.12a3.995 3.995 0 01-3.995 3.996h-5.22a3.996 3.996 0 01-3.996-3.995v-2.796c0-.892-.322-1.663-.97-2.31-.646-.646-1.432-.97-2.356-.97-.8 0-1.493.248-2.078.74a.818.818 0 00-.23.23h-.047c-.063.063-.123.14-.186.232h-.046a2.68 2.68 0 00-.139.23v.047h-.045c-.062.092-.11.17-.138.23.01-.01.016-.014.019-.014.007 0 0 .02-.02.062-.062.091-.109.168-.138.23l-.047.138-.046.186-.045.184-.047.139a.75.75 0 01-.047.185V33.13c0 .924.324 1.71.972 2.356a3.225 3.225 0 002.308.925l.6.046c4.435.154 8.208 1.833 11.32 5.035 3.078 3.203 4.617 7.038 4.617 11.503 0 4.558-1.601 8.453-4.803 11.687-3.234 3.233-7.146 4.85-11.734 4.85H161.07a3.996 3.996 0 01-3.996-3.995V60.27a3.996 3.996 0 013.996-3.996h12.543c.924 0 1.71-.323 2.356-.97.648-.646.97-1.416.97-2.31 0-.923-.322-1.708-.97-2.355-.646-.647-1.432-.97-2.356-.97h-.646c-4.405-.185-8.147-1.864-11.226-5.036-3.08-3.202-4.635-7.021-4.667-11.456V27.68c.032-4.557 1.65-8.437 4.853-11.64 3.2-3.203 7.081-4.82 11.64-4.852h.646c4.435.155 8.208 1.833 11.32 5.036 3.078 3.203 4.617 7.038 4.617 11.502v2.796zm-12.864 4.486a19.388 19.388 0 00-2.973-.335l-.564-.043-.068-.005h-.068a1.45 1.45 0 01-1.074-.43c-.284-.285-.418-.611-.418-1.063v-5.418l.151-.7.417-.461c.261-.22.547-.317.924-.317.453 0 .78.133 1.091.445.314.313.447.625.447 1.046v2.796c0 1.807.833 3.424 2.135 4.485zM249.492 1.547h-25.085a5.79 5.79 0 00-5.783 5.783v5.267a5.79 5.79 0 005.783 5.783h4.057v47.157a5.79 5.79 0 005.784 5.784h5.22a5.79 5.79 0 005.784-5.784V18.38h4.24a5.79 5.79 0 005.784-5.783V7.33a5.79 5.79 0 00-5.784-5.783zm3.996 11.05a3.996 3.996 0 01-3.996 3.995h-6.028v48.945a3.996 3.996 0 01-3.996 3.996h-5.22a3.996 3.996 0 01-3.996-3.996V16.592h-5.845a3.996 3.996 0 01-3.995-3.995V7.33a3.996 3.996 0 013.995-3.995h25.085a3.996 3.996 0 013.996 3.995v5.267zM276.503 9.353c-5.68 0-10.48 2.273-14.267 6.756-2.648 3.135-4.106 7.316-4.106 11.773v37.655a5.79 5.79 0 005.783 5.784h5.268a5.79 5.79 0 005.783-5.784v-7.475h3.03v7.475a5.79 5.79 0 005.784 5.784h5.267a5.79 5.79 0 005.784-5.784V27.886c0-4.461-1.461-8.645-4.113-11.783-3.787-4.479-8.569-6.75-14.213-6.75zm16.538 56.184a3.996 3.996 0 01-3.996 3.996h-5.267a3.995 3.995 0 01-3.996-3.996v-9.263h-6.606v9.263a3.996 3.996 0 01-3.995 3.996h-5.268a3.996 3.996 0 01-3.995-3.996V27.882c0-3.852 1.198-7.676 3.684-10.62 3.446-4.08 7.744-6.12 12.9-6.12 5.118 0 9.401 2.039 12.848 6.116 2.49 2.945 3.69 6.771 3.69 10.628v37.651z"/><path class="st3" d="M276.503 24.4c-.925 0-1.71.323-2.357.97-.646.646-.97 1.431-.97 2.355v15.292h6.606V27.725c0-.923-.324-1.709-.97-2.355-.647-.647-1.418-.97-2.31-.97zm-1.539 3.325c0-.452.134-.778.447-1.092.312-.311.639-.445 1.092-.445.42 0 .732.134 1.046.447.311.312.445.638.445 1.09V41.23h-3.03V27.725zM329.262 54.533h-10.107v-38.01a5.79 5.79 0 00-5.784-5.783h-5.267a5.79 5.79 0 00-5.784 5.783v49.06a5.79 5.79 0 005.784 5.783h21.158a5.79 5.79 0 005.783-5.783v-5.267a5.79 5.79 0 00-5.783-5.783zm3.995 11.05a3.996 3.996 0 01-3.995 3.995h-21.158a3.996 3.996 0 01-3.996-3.995v-49.06a3.996 3.996 0 013.996-3.995h5.267a3.996 3.996 0 013.996 3.995v39.798h11.895a3.996 3.996 0 013.995 3.995v5.267zM378.458 17.677a5.761 5.761 0 00-1.189-4.813 5.762 5.762 0 00-4.479-2.124h-5.104a5.803 5.803 0 00-5.667 4.627l-3.552 17.406-.012.057-.008.057c-.063.462-.285.846-.699 1.207-.412.36-.83.529-1.316.529h-.106v-18.1a5.79 5.79 0 00-5.784-5.783h-5.267a5.79 5.79 0 00-5.784 5.783v49.06a5.79 5.79 0 005.784 5.783h5.267a5.79 5.79 0 005.784-5.783V51.456h1.076c.455 0 .859.168 1.27.529.412.36.634.755.699 1.245l.097.636 1.775 12.528c.402 2.835 2.864 4.972 5.726 4.972h5.186a5.78 5.78 0 005.727-6.594l-1.665-11.751-.044-.318c-.536-3.784-2.088-7.231-4.62-10.27 1.974-2.72 3.212-5.724 3.686-8.948l3.219-15.808zm-9.23 24.831c2.893 3.049 4.62 6.53 5.174 10.44l.045.324 1.664 11.75a3.996 3.996 0 01-3.956 4.556h-5.186a3.996 3.996 0 01-3.956-3.434l-1.778-12.549-.092-.6c-.122-.924-.554-1.71-1.293-2.356-.74-.647-1.555-.97-2.448-.97h-2.864v15.914a3.996 3.996 0 01-3.996 3.995h-5.267a3.996 3.996 0 01-3.996-3.995v-49.06a3.996 3.996 0 013.996-3.995h5.267a3.996 3.996 0 013.996 3.995v19.888h1.894c.923 0 1.754-.324 2.493-.97.74-.648 1.17-1.417 1.294-2.31l3.552-17.407a3.995 3.995 0 013.915-3.196h5.104a3.995 3.995 0 013.916 4.792l-3.229 15.857c-.493 3.418-1.91 6.529-4.249 9.331z"/></g></g><g><path class="st3" d="M36.843 101.52l-.052-7.634-4.216-.144v7.596h-6.673v-21.17h6.673v6.896l4.18.123-.052-6.929 6.675-.128.14 21.422zM51.325 101.76a6.054 6.054 0 01-3.532-1.123c-1.045-.732-1.88-1.726-2.485-2.953a8.857 8.857 0 01-.904-3.953c0-1.394.329-2.717.98-3.931.647-1.213 1.513-2.198 2.572-2.925 1.08-.743 2.232-1.12 3.422-1.12 1.288 0 2.35.241 3.173.718v-.296h5.698l.687 15.187h-6.228v-.386c-.903.52-2.036.781-3.383.781zm1.37-9.884c-.527 0-.955.168-1.308.515-.35.343-.52.764-.52 1.287 0 .309.08.61.245.918.167.313.392.562.69.763.28.188.588.28.946.28.593 0 1.04-.162 1.368-.494.328-.335.487-.798.487-1.414 0-.59-.167-1.034-.51-1.359-.356-.334-.812-.496-1.398-.496zM62.569 107.664l-.222-21.57 5.547.033.09.629c1.055-.63 2.397-.948 4.005-.948 1.207 0 2.323.346 3.316 1.027.977.67 1.758 1.59 2.319 2.733.556 1.132.838 2.391.838 3.741 0 1.496-.258 2.885-.768 4.128-.525 1.276-1.339 2.316-2.418 3.09-1.093.784-2.447 1.18-4.025 1.18a6.46 6.46 0 01-2.402-.446l.373 6.403h-6.653zm7.575-15.814c-.582 0-1.018.15-1.334.461-.316.309-.468.721-.468 1.262 0 .58.167 1.027.51 1.37.344.344.784.511 1.345.511.505 0 .913-.166 1.247-.506.339-.345.503-.786.503-1.349 0-.538-.16-.953-.49-1.27-.336-.323-.765-.48-1.313-.48zM79.885 107.664l-.223-21.57 5.547.033.091.629c1.055-.63 2.397-.948 4.004-.948 1.208 0 2.324.346 3.317 1.027.977.67 1.758 1.59 2.319 2.733.556 1.132.838 2.391.838 3.741 0 1.496-.259 2.885-.768 4.128-.525 1.276-1.34 2.316-2.418 3.09-1.093.784-2.447 1.18-4.026 1.18a6.46 6.46 0 01-2.401-.446l.372 6.403h-6.652zm7.574-15.814c-.582 0-1.017.15-1.334.461-.315.309-.468.721-.468 1.262 0 .58.168 1.027.511 1.37.344.344.784.511 1.345.511.505 0 .912-.166 1.247-.506.338-.345.502-.786.502-1.349 0-.538-.16-.953-.49-1.27-.335-.323-.764-.48-1.313-.48z"/><path class="st3" d="M100.216 107.874c-.698 0-1.49-.117-2.354-.35a16.944 16.944 0 01-2.446-.861l-.523-.231 2.666-6.784.63.983c.024.039.181.247.88.59.66.326.986.374 1.122.374.419 0 .745-.104.995-.318.235-.201.441-.476.614-.82l-6.766-14.219 7.016-.065 2.14 5.633 1.434-5.656 6.705-.39-4.212 14.646c-.752 2.491-1.811 4.369-3.15 5.587-1.374 1.248-2.972 1.881-4.75 1.881zM132.556 101.76c-2.091 0-3.962-.51-5.562-1.515a10.222 10.222 0 01-3.706-4.04c-.857-1.668-1.292-3.512-1.292-5.479 0-2 .513-3.863 1.522-5.538a11.272 11.272 0 014.033-3.978 10.68 10.68 0 015.426-1.464c1.441 0 2.838.272 4.152.809a9.534 9.534 0 013.5 2.485c.998 1.112 1.722 2.493 2.148 4.107l.148.56-5.987 1.77-.196-.516c-.239-.63-.701-1.21-1.374-1.73-.665-.51-1.463-.758-2.443-.758-.706 0-1.391.175-2.039.522a4.072 4.072 0 00-1.564 1.499c-.397.648-.598 1.408-.598 2.258 0 .765.17 1.492.504 2.159.331.665.789 1.179 1.396 1.57.602.39 1.276.578 2.063.578.701 0 1.345-.133 1.913-.394.575-.264 1.052-.6 1.419-.996.36-.39.6-.767.712-1.122l.18-.562 6 1.87-.13.542a9.005 9.005 0 01-1.945 3.794c-.951 1.11-2.158 1.992-3.586 2.622-1.422.628-3.002.946-4.694.946zM154.233 101.364l-.398-7.681c-.03-.59-.178-1.087-.44-1.478-.133-.198-.384-.46-1.02-.46-.319 0-1.284 0-1.435 2.627l.058 6.975-6.724-.096-.307-22.426 6.837.83.072 6.8c.9-.482 1.992-.726 3.264-.726 1.024 0 2.044.262 3.031.78.992.52 1.82 1.284 2.463 2.27.646.996.993 2.16 1.032 3.459l.227 9.126h-6.66zM162.042 101.285l-.287-15.161h2.309a4.13 4.13 0 01-.61-.281 4.065 4.065 0 01-1.432-1.341 3.399 3.399 0 01-.572-1.893c0-1.037.4-1.914 1.191-2.61.767-.674 1.694-1.017 2.753-1.017 1.039 0 1.89.325 2.53.965.64.64.965 1.482.965 2.503 0 1.1-.346 2.03-1.03 2.765-.39.42-.836.723-1.336.909h1.989l.201 15.161h-6.671zM169.572 101.39l-.086-15.341 6.81-.352v.57c.944-.532 1.91-.802 2.883-.802 2.01 0 3.546.762 4.566 2.265.968 1.43 1.46 3.405 1.46 5.87l.027 7.711h-6.82l.144-6.986c.016-.717-.094-1.26-.324-1.613-.188-.286-.44-.414-.819-.414-.553 0-.735.192-.824.336-.134.217-.293.678-.293 1.65v.596h-.03l-.025 6.51h-6.669zM194.097 101.76a7.803 7.803 0 01-4.09-1.127 8.294 8.294 0 01-2.952-3.036c-.725-1.272-1.093-2.688-1.093-4.209 0-1.492.353-2.836 1.048-3.996a7.3 7.3 0 012.865-2.723c1.198-.641 2.564-.966 4.064-.966 1.617 0 3.034.371 4.215 1.104 1.187.737 2.088 1.784 2.68 3.11.58 1.3.838 2.806.764 4.473l-.024.53-3.949.282 3.942 1.004-.18.596a6.258 6.258 0 01-1.54 2.59 7.725 7.725 0 01-2.61 1.743 8.227 8.227 0 01-3.14.624zm-1.645-6.19a2.47 2.47 0 001.688.701c.516 0 .964-.092 1.314-.275.326-.169.55-.39.69-.679l.004-.01-3.696.264zm1.407-5.144c-.512 0-.926.137-1.268.418a2.272 2.272 0 00-.323.326l2.96-.266a1.676 1.676 0 00-.186-.144c-.333-.225-.72-.334-1.183-.334zM208.197 101.68c-1.265 0-2.5-.236-3.672-.7-1.193-.474-2.141-1.115-2.817-1.907l-.322-.378 3.255-4.01a5.95 5.95 0 01-.688-.414c-1.112-.782-1.675-1.833-1.675-3.123 0-.991.32-1.915.951-2.745.61-.804 1.434-1.45 2.452-1.92a7.7 7.7 0 013.254-.701c1.12 0 2.28.21 3.454.627 1.193.422 2.148.977 2.84 1.65l.36.35-2.66 3.874c.163.094.322.195.473.3 1.192.836 1.796 2.011 1.796 3.494 0 1.02-.318 1.975-.943 2.84-.612.844-1.46 1.525-2.523 2.022-1.05.491-2.24.741-3.535.741zm-3.041-6.666c.376.316.912.584 1.597.796.704.22 1.305.33 1.787.33.358 0 .634-.058.818-.174a.36.36 0 00.119-.106c-.164-.031-.485-.08-1.1-.14-1.375-.172-2.526-.472-3.445-.893l.224.187zm2.777-3.942c.177.038.526.091 1.23.14 1.012.078 1.927.273 2.736.582a7.448 7.448 0 00-1.181-.62c-.454-.181-1.036-.273-1.73-.273-.623 0-.935.09-1.055.171zM223.642 101.76a7.803 7.803 0 01-4.09-1.127 8.294 8.294 0 01-2.951-3.036c-.725-1.272-1.093-2.688-1.093-4.209 0-1.492.352-2.836 1.047-3.996a7.3 7.3 0 012.865-2.723c1.198-.641 2.565-.966 4.064-.966 1.617 0 3.035.371 4.215 1.104 1.188.737 2.089 1.784 2.681 3.11.58 1.3.837 2.806.764 4.473l-.025.53-3.948.282 3.941 1.004-.179.596a6.258 6.258 0 01-1.54 2.59 7.725 7.725 0 01-2.611 1.743 8.227 8.227 0 01-3.14.624zm-1.644-6.19a2.47 2.47 0 001.687.701c.516 0 .964-.092 1.315-.275.326-.169.55-.39.689-.679l.004-.01-3.695.264zm1.407-5.144c-.512 0-.927.137-1.269.418a2.272 2.272 0 00-.322.326l2.96-.266a1.677 1.677 0 00-.186-.144c-.333-.225-.72-.334-1.183-.334zM254.79 101.364h-.302v-.355l-6.132-7.803.252 8.114-7.344.22-.251-21.603 6.645.214 6.49 8.238-.23-8.237 7.195-.127-.139 21.34h-5.55l-.23.454zM269.95 101.76a7.804 7.804 0 01-4.089-1.127 8.294 8.294 0 01-2.952-3.036c-.725-1.272-1.093-2.688-1.093-4.209 0-1.492.353-2.836 1.048-3.996a7.3 7.3 0 012.864-2.723c1.198-.641 2.565-.966 4.064-.966 1.617 0 3.035.371 4.215 1.104 1.188.737 2.089 1.784 2.681 3.11.58 1.3.837 2.806.764 4.473l-.025.53-3.948.282 3.941 1.004-.179.596a6.258 6.258 0 01-1.54 2.59 7.725 7.725 0 01-2.611 1.743 8.227 8.227 0 01-3.14.624zm-1.644-6.19a2.469 2.469 0 001.688.701c.515 0 .963-.092 1.314-.275.326-.169.55-.39.689-.679l.005-.01-3.696.264zm1.407-5.144c-.512 0-.927.137-1.269.418a2.271 2.271 0 00-.322.326l2.96-.266a1.677 1.677 0 00-.186-.144c-.333-.225-.72-.334-1.183-.334zM290.093 101.364l-1.12-3.66-1.136 3.66h-6.389l-4.6-15.055 6.772-.226 1.077 3.608.915-2.915.6-.678h2.793l3.603-.07-.236.701 1.054 3.449 1.311-3.99 6.803-.163-5.095 15.34zM318.085 92.114l-7.26-9.42 6.948-2.823 3.856 5.722 3.718-5.637 6.778 1.613-7.413 10.993.223 8.598-6.877.224z"/><path class="st3" d="M336.315 101.76a7.803 7.803 0 01-4.09-1.127 8.294 8.294 0 01-2.952-3.036c-.725-1.272-1.093-2.688-1.093-4.209 0-1.492.353-2.836 1.048-3.996a7.3 7.3 0 012.864-2.723c1.198-.641 2.565-.966 4.064-.966 1.617 0 3.035.371 4.215 1.104 1.188.737 2.089 1.784 2.681 3.11.58 1.3.837 2.806.764 4.473l-.025.53-3.948.282 3.941 1.004-.179.596a6.258 6.258 0 01-1.54 2.59 7.725 7.725 0 01-2.611 1.743 8.227 8.227 0 01-3.14.624zm-1.645-6.19a2.47 2.47 0 001.688.701c.515 0 .963-.092 1.314-.275.326-.169.55-.39.689-.679l.005-.01-3.696.264zm1.407-5.144c-.512 0-.927.137-1.269.418a2.273 2.273 0 00-.322.326l2.96-.266a1.677 1.677 0 00-.186-.144c-.333-.225-.72-.334-1.183-.334zM351.628 101.76a6.054 6.054 0 01-3.532-1.123c-1.045-.732-1.881-1.726-2.485-2.953a8.857 8.857 0 01-.905-3.953c0-1.394.33-2.717.98-3.931.648-1.213 1.514-2.198 2.573-2.925 1.08-.743 2.232-1.12 3.421-1.12 1.289 0 2.35.241 3.174.718v-.296h5.698l.687 15.187h-6.228v-.386c-.904.52-2.036.781-3.383.781zm1.37-9.884c-.527 0-.956.168-1.308.515-.35.343-.52.764-.52 1.287 0 .309.08.61.245.918.166.313.392.562.69.763.28.188.588.28.945.28.594 0 1.041-.162 1.368-.494.329-.335.488-.798.488-1.414 0-.59-.168-1.034-.511-1.359-.355-.334-.811-.496-1.397-.496zM362.11 86.137l5.885-.129.11.49c.23-.149.477-.28.734-.39a4.697 4.697 0 011.87-.38c.904 0 1.766.22 2.565.653.785.427 1.421.961 1.893 1.589l.208.278-2.382 5.432-.618-.683c-.281-.311-.55-.533-.8-.657a1.662 1.662 0 00-.76-.174c-.785 0-1.331.192-1.622.571-.34.44-.552 1.164-.631 2.148l.002 6.391-6.71.097.256-15.236z"/></g><g><path class="st2" d="M42.786 80.737l.132 20.216-5.483-.027-.052-7.617-5.404-.184v7.617h-5.481V80.763h5.481v6.88l5.377.158-.052-6.958 5.482-.106m1.184-1.215l-1.207.023-5.482.106-1.178.022.009 1.179.043 5.721-2.984-.088V79.571h-7.865v22.363h7.865V94.358l3.028.104.044 6.473.009 1.178 1.178.005 5.483.027 1.205.005-.008-1.205-.132-20.216-.008-1.207z"/><path class="st2" d="M51.378 86.351c1.756 0 3.012.466 3.769 1.397v-.975h4.533l.632 13.995h-5.008v-1.002c-.895.932-2.222 1.397-3.979 1.397a5.44 5.44 0 01-3.19-1.014c-.966-.676-1.73-1.586-2.293-2.728A8.24 8.24 0 0145 93.73c0-1.3.302-2.517.909-3.65.605-1.133 1.4-2.039 2.385-2.715.984-.676 2.011-1.015 3.084-1.015m1.37 9.884c.755 0 1.352-.224 1.792-.672.44-.448.66-1.059.66-1.832 0-.755-.234-1.353-.7-1.792-.465-.44-1.067-.66-1.805-.66-.685 0-1.26.23-1.726.686-.466.457-.698 1.028-.698 1.713 0 .405.104.804.316 1.2.21.395.504.72.883.975.377.255.804.382 1.278.382m-1.37-11.076c-1.313 0-2.577.412-3.76 1.225-1.138.782-2.067 1.837-2.76 3.135a8.832 8.832 0 00-1.05 4.212c0 1.497.324 2.915.965 4.216.649 1.319 1.55 2.388 2.679 3.178a6.636 6.636 0 003.873 1.23c1.046 0 1.977-.149 2.787-.445v.05h7.447l-.056-1.246-.632-13.995-.052-1.138h-6.772c-.763-.28-1.654-.422-2.67-.422zm1.37 9.884c-.238 0-.432-.057-.611-.178a1.493 1.493 0 01-.498-.548 1.335 1.335 0 01-.176-.639c0-.364.105-.63.34-.862.244-.238.519-.344.892-.344.568 0 .836.19.988.334.139.131.324.37.324.925 0 .673-.24.917-.318.998-.132.134-.374.314-.941.314zM71.989 86.404c1.09 0 2.082.307 2.979.923.896.615 1.603 1.449 2.12 2.503.519 1.055.778 2.214.778 3.48 0 1.422-.24 2.723-.724 3.9-.484 1.178-1.222 2.122-2.214 2.833-.993.712-2.219 1.068-3.677 1.068-1.125 0-2.143-.282-3.057-.843l.396 6.8h-5.43l-.211-20.374 4.428.026.158 1.107c1.036-.949 2.521-1.423 4.454-1.423m-1.792 9.646c.667 0 1.225-.228 1.673-.685.448-.457.673-1.045.673-1.766 0-.702-.225-1.27-.673-1.7-.448-.43-1.023-.645-1.726-.645-.738 0-1.323.21-1.752.632-.431.422-.646.984-.646 1.687 0 .738.228 1.335.685 1.792.457.457 1.046.685 1.766.685m1.792-10.838c-1.35 0-2.532.214-3.533.638l-.045-.316-1.027-.006-4.428-.026-1.212-.007.012 1.211.211 20.374.012 1.18h7.874l-.073-1.262-.286-4.905c.562.14 1.149.21 1.757.21 1.705 0 3.176-.434 4.371-1.29 1.173-.842 2.055-1.968 2.622-3.35.54-1.315.814-2.78.814-4.354 0-1.442-.303-2.79-.9-4.004-.606-1.235-1.453-2.232-2.516-2.961a6.342 6.342 0 00-3.653-1.132zm-1.792 9.646c-.52 0-.766-.18-.922-.335-.146-.145-.337-.4-.337-.95 0-.496.164-.714.287-.835.075-.073.298-.292.919-.292.514 0 .76.178.9.313.143.137.307.356.307.84 0 .532-.19.786-.332.931-.222.227-.476.328-.822.328zM89.304 86.404c1.09 0 2.083.307 2.98.923.896.615 1.602 1.449 2.12 2.503.518 1.055.778 2.214.778 3.48 0 1.422-.241 2.723-.724 3.9-.485 1.178-1.223 2.122-2.214 2.833-.993.712-2.22 1.068-3.678 1.068-1.124 0-2.143-.282-3.057-.843l.396 6.8h-5.43l-.21-20.374 4.427.026.159 1.107c1.036-.949 2.521-1.423 4.453-1.423m-1.791 9.646c.667 0 1.224-.228 1.673-.685.448-.457.672-1.045.672-1.766 0-.702-.224-1.27-.672-1.7-.449-.43-1.024-.645-1.727-.645-.738 0-1.322.21-1.752.632-.43.422-.646.984-.646 1.687 0 .738.228 1.335.686 1.792.456.457 1.045.685 1.766.685m1.791-10.838c-1.35 0-2.531.214-3.532.638l-.045-.316-1.028-.006-4.428-.026-1.211-.007.012 1.211.21 20.374.013 1.18h7.874l-.074-1.262-.285-4.905c.562.14 1.149.21 1.756.21 1.706 0 3.176-.434 4.372-1.29 1.172-.842 2.054-1.968 2.622-3.35.54-1.315.814-2.78.814-4.354 0-1.442-.303-2.79-.9-4.004-.607-1.235-1.453-2.232-2.516-2.961a6.342 6.342 0 00-3.654-1.132zm-1.791 9.646c-.52 0-.767-.18-.923-.335-.145-.145-.337-.4-.337-.95 0-.496.164-.714.288-.835.075-.073.298-.292.918-.292.515 0 .761.178.901.313.142.137.306.356.306.84 0 .532-.189.786-.331.931-.223.227-.476.328-.822.328z"/><path class="st2" d="M111.523 86.404l-3.979 13.837c-.721 2.39-1.713 4.16-2.979 5.31-1.265 1.152-2.714 1.727-4.349 1.727-.65 0-1.382-.11-2.2-.33a16.306 16.306 0 01-2.36-.83l2.03-5.165c.158.245.532.514 1.12.803.589.29 1.05.435 1.385.435.56 0 1.023-.153 1.383-.46.36-.309.654-.735.883-1.279l-6.484-13.627 5.667-.052 2.662 7.01 1.792-7.063 5.43-.316m1.61-1.288l-1.68.098-5.43.316-.871.05-.215.847-.862 3.402-1.322-3.48-.294-.776-.83.008-5.668.052-1.868.018.803 1.687 6.232 13.096a1.754 1.754 0 01-.33.39c-.05.043-.205.175-.608.175-.01 0-.237-.006-.857-.312-.528-.26-.662-.404-.667-.41l-1.259-1.968-.83 2.208-2.03 5.165-.419 1.064 1.046.462c.804.356 1.656.656 2.531.892.916.246 1.76.37 2.51.37 1.932 0 3.666-.685 5.151-2.036 1.42-1.292 2.537-3.26 3.318-5.849l3.984-13.852.465-1.617zM132.977 80.342c1.37 0 2.68.255 3.928.764a8.909 8.909 0 013.28 2.333c.94 1.045 1.612 2.332 2.016 3.86l-4.902 1.45c-.28-.737-.803-1.4-1.568-1.99-.765-.588-1.7-.882-2.806-.882-.81 0-1.582.198-2.32.593a4.651 4.651 0 00-1.792 1.713c-.457.747-.685 1.604-.685 2.57 0 .86.188 1.67.566 2.425a4.487 4.487 0 001.608 1.805c.694.448 1.489.672 2.385.672.79 0 1.511-.15 2.162-.448.65-.299 1.185-.676 1.607-1.133.422-.457.702-.905.843-1.344l4.902 1.528a8.373 8.373 0 01-1.818 3.545c-.896 1.046-2.02 1.867-3.374 2.465-1.352.597-2.838.895-4.453.895-1.986 0-3.735-.474-5.246-1.423a9.596 9.596 0 01-3.492-3.808c-.817-1.59-1.226-3.325-1.226-5.206 0-1.897.479-3.641 1.437-5.231a10.62 10.62 0 013.821-3.77 10.045 10.045 0 015.127-1.383m0-1.192c-2.032 0-3.958.52-5.725 1.545a11.85 11.85 0 00-4.244 4.185c-1.067 1.77-1.608 3.737-1.608 5.846 0 2.063.457 3.998 1.358 5.75a10.816 10.816 0 003.918 4.274c1.697 1.065 3.675 1.605 5.88 1.605 1.775 0 3.436-.335 4.935-.997 1.51-.667 2.787-1.602 3.797-2.779a9.59 9.59 0 002.072-4.043l.26-1.084-1.064-.332-4.902-1.528-1.129-.352-.36 1.126c-.088.27-.284.573-.585.9-.312.337-.726.626-1.229.858-.497.228-1.04.339-1.664.339-.668 0-1.237-.158-1.738-.482a3.29 3.29 0 01-1.188-1.336 4.131 4.131 0 01-.441-1.893c0-.75.166-1.386.51-1.947a3.449 3.449 0 011.337-1.284 3.642 3.642 0 011.758-.452c.843 0 1.523.208 2.08.635.583.45.98.944 1.18 1.47l.393 1.032 1.06-.313 4.901-1.45 1.11-.329-.295-1.119c-.451-1.706-1.22-3.171-2.283-4.354a10.128 10.128 0 00-3.715-2.638 11.53 11.53 0 00-4.379-.853z"/><path class="st2" d="M144.572 79.499l5.642.685.078 7.406c.93-.844 2.214-1.265 3.848-1.265.931 0 1.85.237 2.754.712.905.474 1.652 1.164 2.241 2.068.588.905.9 1.955.935 3.15l.212 8.513h-5.483l-.37-7.116c-.034-.702-.215-1.295-.54-1.78-.324-.482-.83-.724-1.515-.724-1.23 0-1.907 1.064-2.029 3.19l.052 6.404-5.535-.08-.29-21.163m-1.21-1.348l.019 1.364.29 21.164.015 1.16 1.16.016 5.534.079 1.22.017-.01-1.219-.053-6.364c.048-.775.22-2.028.837-2.028.394 0 .477.124.527.198.2.3.314.694.338 1.173l.37 7.119.058 1.13h7.837l-.03-1.222-.213-8.512c-.041-1.416-.42-2.683-1.126-3.77-.7-1.074-1.604-1.907-2.687-2.475-1.073-.563-2.186-.848-3.308-.848-.992 0-1.886.14-2.678.416l-.056-5.378-.012-1.045-1.037-.126-5.64-.685-1.355-.164z"/><path class="st2" d="M165.394 79.578c.878 0 1.581.263 2.108.79s.79 1.222.79 2.082c0 .95-.289 1.736-.869 2.36-.58.623-1.3.935-2.16.935-.51 0-1.015-.14-1.516-.422a3.46 3.46 0 01-1.226-1.146 2.804 2.804 0 01-.475-1.568c0-.861.33-1.582.989-2.162.659-.58 1.445-.87 2.36-.87m2.529 7.143l.185 13.969h-5.483l-.263-13.969h5.56m-2.529-8.334c-1.208 0-2.267.392-3.147 1.166-.911.802-1.393 1.859-1.393 3.057 0 .795.226 1.543.67 2.221.165.252.35.485.555.698h-.93l.022 1.214.263 13.97.022 1.169h7.861l-.016-1.208-.185-13.969-.016-1.176h-.72c.733-.832 1.105-1.867 1.105-3.078 0-1.184-.384-2.168-1.14-2.925-.756-.756-1.749-1.14-2.95-1.14z"/><path class="st2" d="M179.18 86.061c1.808 0 3.166.668 4.071 2.004.905 1.335 1.358 3.18 1.358 5.534l.025 7.116h-5.613l.132-6.378c.017-.843-.124-1.493-.422-1.95-.3-.457-.738-.685-1.318-.685-.633 0-1.076.206-1.331.619-.255.413-.382 1.067-.382 1.963h-.027l-.026 6.51h-5.482l-.08-14.18 5.615-.29v1.055c1.142-.878 2.301-1.318 3.48-1.318m0-1.192c-.773 0-1.537.151-2.288.451v-.25l-1.254.064-5.614.29-1.137.059.006 1.138.08 14.18.006 1.185h7.856l.004-1.187.021-5.323h.005l.027-1.192c0-.934.156-1.26.204-1.337.02-.017.116-.053.317-.053.225 0 .267.064.32.146.092.14.244.493.228 1.273l-.132 6.378-.025 1.216h8.026l-.004-1.196-.025-7.116c0-2.582-.526-4.669-1.563-6.199-1.121-1.653-2.87-2.527-5.059-2.527z"/><path class="st2" d="M193.939 86.299c1.51 0 2.81.338 3.9 1.014 1.09.677 1.906 1.626 2.45 2.847.546 1.221.783 2.622.713 4.203l-9.62.686a3.046 3.046 0 002.74 1.818c.634 0 1.17-.114 1.608-.343.44-.228.756-.544.95-.948l4.137 1.054a5.646 5.646 0 01-1.397 2.346 7.09 7.09 0 01-2.41 1.608c-.941.386-1.912.58-2.913.58a7.186 7.186 0 01-3.782-1.041 7.674 7.674 0 01-2.742-2.82c-.676-1.187-1.015-2.491-1.015-3.915 0-1.388.32-2.618.963-3.69a6.687 6.687 0 012.636-2.504c1.115-.597 2.375-.895 3.782-.895m-2.69 5.56l4.983-.447a2.055 2.055 0 00-.857-1.147c-.43-.29-.936-.435-1.516-.435-.65 0-1.199.185-1.647.554-.448.368-.77.86-.962 1.475m2.689-6.752c-1.599 0-3.06.349-4.345 1.037a7.89 7.89 0 00-3.096 2.943c-.75 1.252-1.132 2.7-1.132 4.301 0 1.626.395 3.142 1.172 4.505a8.888 8.888 0 003.161 3.25 8.394 8.394 0 004.398 1.212 8.815 8.815 0 003.365-.669 8.307 8.307 0 002.812-1.878 6.85 6.85 0 001.685-2.836l.356-1.19-.973-.248.804-.057.047-1.061c.078-1.76-.196-3.356-.815-4.742-.64-1.437-1.62-2.572-2.91-3.373-1.276-.793-2.8-1.194-4.53-1.194z"/><path class="st2" d="M208.935 86.378c1.055 0 2.14.197 3.255.592 1.117.396 1.99.901 2.623 1.516l-2.135 3.11c-.632-.44-1.212-.764-1.74-.975s-1.177-.316-1.95-.316c-1.142 0-1.713.28-1.713.843 0 .228.12.382.355.461.238.08.734.145 1.49.198 1.599.123 2.912.545 3.94 1.265 1.029.721 1.542 1.722 1.542 3.005 0 .896-.277 1.726-.83 2.49-.554.765-1.318 1.375-2.293 1.832-.976.457-2.069.685-3.282.685a9.272 9.272 0 01-3.452-.659c-1.107-.439-1.969-1.018-2.583-1.739l2.61-3.216c.438.37 1.04.673 1.805.91.764.237 1.418.356 1.963.356.475 0 .852-.088 1.133-.264.28-.176.422-.413.422-.712 0-.228-.097-.373-.29-.435-.193-.06-.65-.127-1.37-.197-1.81-.229-3.19-.676-4.138-1.344-.95-.668-1.423-1.546-1.423-2.636 0-.86.276-1.656.83-2.385.553-.73 1.296-1.309 2.227-1.74a7.077 7.077 0 013.004-.645m0-1.192c-1.24 0-2.419.254-3.504.755-1.107.512-2.008 1.22-2.677 2.102-.711.936-1.072 1.981-1.072 3.105 0 1.474.667 2.723 1.929 3.61l.13.09-2.505 3.087-.625.77.644.755c.739.866 1.765 1.564 3.05 2.073 1.242.493 2.552.743 3.892.743 1.383 0 2.658-.268 3.788-.797 1.154-.541 2.08-1.285 2.752-2.212.702-.97 1.057-2.043 1.057-3.19 0-1.654-.7-3.024-2.025-3.964l2.027-2.952.568-.83-.72-.7c-.753-.732-1.781-1.332-3.056-1.784-1.237-.439-2.466-.661-3.653-.661z"/><path class="st2" d="M223.484 86.299c1.511 0 2.811.338 3.9 1.014 1.09.677 1.906 1.626 2.451 2.847s.782 2.622.713 4.203l-9.62.686a3.041 3.041 0 002.74 1.818c.633 0 1.169-.114 1.608-.343.44-.228.755-.544.95-.948l4.137 1.054a5.646 5.646 0 01-1.397 2.346 7.09 7.09 0 01-2.411 1.608c-.94.386-1.912.58-2.913.58a7.186 7.186 0 01-3.782-1.041 7.674 7.674 0 01-2.741-2.82c-.676-1.187-1.015-2.491-1.015-3.915 0-1.388.32-2.618.962-3.69a6.687 6.687 0 012.636-2.504c1.115-.597 2.376-.895 3.782-.895m-2.689 5.56l4.982-.447a2.055 2.055 0 00-.857-1.147c-.43-.29-.935-.435-1.515-.435-.65 0-1.2.185-1.647.554-.448.368-.77.86-.963 1.475m2.689-6.752c-1.598 0-3.06.349-4.345 1.037a7.89 7.89 0 00-3.096 2.943c-.75 1.252-1.131 2.7-1.131 4.301 0 1.626.394 3.142 1.171 4.505a8.888 8.888 0 003.162 3.25 8.394 8.394 0 004.397 1.212 8.815 8.815 0 003.366-.669 8.308 8.308 0 002.81-1.878 6.851 6.851 0 001.686-2.836l.357-1.19-.973-.248.804-.057.047-1.061c.077-1.76-.197-3.356-.815-4.742-.641-1.437-1.62-2.572-2.91-3.373-1.277-.793-2.8-1.194-4.53-1.194zM241.616 80.553l5.746.184 7.432 9.436-.263-9.436 5.982-.105-.131 20.136h-5.298v-.053l-.027.053-7.353-9.356.29 9.33-6.14.184-.238-20.373m-1.207-1.232l.015 1.246.237 20.373.014 1.214 1.214-.036 6.14-.185 1.193-.035-.037-1.193-.177-5.705 5.448 6.932 1.335.028h5.775l.008-1.184.131-20.136.008-1.221-1.22.021-5.983.105-1.204.022.034 1.204.162 5.835L248.298 80l-.343-.436-.555-.018-5.746-.185-1.245-.04z"/><path class="st2" d="M269.792 86.299c1.511 0 2.811.338 3.901 1.014 1.09.677 1.906 1.626 2.45 2.847.545 1.221.783 2.622.713 4.203l-9.62.686a3.046 3.046 0 002.74 1.818c.633 0 1.169-.114 1.608-.343.44-.228.755-.544.95-.948l4.137 1.054a5.646 5.646 0 01-1.397 2.346 7.089 7.089 0 01-2.411 1.608c-.94.386-1.911.58-2.912.58a7.186 7.186 0 01-3.783-1.041 7.674 7.674 0 01-2.741-2.82c-.676-1.187-1.015-2.491-1.015-3.915 0-1.388.32-2.618.963-3.69a6.687 6.687 0 012.635-2.504c1.115-.597 2.376-.895 3.782-.895m-2.689 5.56l4.982-.447a2.055 2.055 0 00-.856-1.147c-.431-.29-.936-.435-1.516-.435-.65 0-1.199.185-1.647.554-.448.368-.77.86-.963 1.475m2.69-6.752c-1.599 0-3.06.349-4.346 1.037a7.89 7.89 0 00-3.096 2.943c-.75 1.252-1.131 2.7-1.131 4.301 0 1.626.394 3.142 1.172 4.505a8.888 8.888 0 003.16 3.25 8.394 8.394 0 004.398 1.212 8.815 8.815 0 003.366-.669 8.307 8.307 0 002.811-1.878 6.85 6.85 0 001.686-2.836l.356-1.19-.973-.248.804-.057.047-1.061c.077-1.76-.197-3.356-.815-4.742-.641-1.437-1.62-2.572-2.91-3.373-1.276-.793-2.8-1.194-4.53-1.194z"/><path class="st2" d="M300.708 86.64l-4.693 14.128h-5.481l-1.556-5.087-1.58 5.087h-5.509l-4.244-13.89 5.535-.184 1.503 5.034 1.528-5.034h2.794l2.767-.053 1.635 5.508 1.766-5.376 5.535-.132m1.665-1.232l-1.694.04-5.535.132-.841.02-.263.8-.593 1.806-.819-2.758-3.646.053h-3.622l-.649 2.153-.389-1.302-.263-.881-.918.03-5.536.185-1.555.052.455 1.488 4.244 13.89.258.843h7.269l.26-.838.433-1.394.425 1.389.258.843h7.223l.272-.816 4.692-14.127.534-1.608zM317.55 80.606l4.084 6.062 3.98-6.036 5.536 1.318-7.038 10.437.211 8.197-5.666.184.025-8.856-6.905-8.96 5.773-2.346m.447-1.469l-.896.364-5.773 2.346-1.452.59.957 1.242 6.656 8.638-.024 8.448-.004 1.235 1.235-.04 5.666-.185 1.184-.039-.031-1.183-.202-7.816 6.825-10.12.962-1.428-1.674-.399-5.536-1.318-.811-.193-.46.697-2.995 4.543-3.086-4.58-.54-.802z"/><path class="st2" d="M336.156 86.299c1.511 0 2.811.338 3.901 1.014 1.09.677 1.906 1.626 2.45 2.847.545 1.221.783 2.622.713 4.203l-9.62.686a3.041 3.041 0 002.74 1.818c.633 0 1.169-.114 1.608-.343.44-.228.755-.544.95-.948l4.137 1.054a5.645 5.645 0 01-1.397 2.346 7.09 7.09 0 01-2.41 1.608c-.942.386-1.912.58-2.913.58a7.185 7.185 0 01-3.783-1.041 7.674 7.674 0 01-2.74-2.82c-.677-1.187-1.016-2.491-1.016-3.915 0-1.388.32-2.618.963-3.69a6.687 6.687 0 012.635-2.504c1.115-.597 2.376-.895 3.782-.895m-2.689 5.56l4.982-.447a2.055 2.055 0 00-.856-1.147c-.431-.29-.936-.435-1.516-.435-.65 0-1.199.185-1.647.554-.448.368-.77.86-.963 1.475m2.69-6.752c-1.599 0-3.06.349-4.346 1.037a7.891 7.891 0 00-3.096 2.943c-.75 1.252-1.131 2.7-1.131 4.301 0 1.626.394 3.142 1.172 4.505a8.888 8.888 0 003.16 3.25 8.394 8.394 0 004.399 1.212 8.815 8.815 0 003.365-.669 8.308 8.308 0 002.811-1.878 6.851 6.851 0 001.686-2.836l.356-1.19-.973-.248.804-.057.047-1.061c.077-1.76-.197-3.356-.815-4.742-.641-1.437-1.62-2.572-2.91-3.373-1.276-.793-2.8-1.194-4.53-1.194z"/><path class="st2" d="M351.68 86.351c1.757 0 3.013.466 3.77 1.397v-.975h4.533l.632 13.995h-5.008v-1.002c-.895.932-2.222 1.397-3.979 1.397-1.16 0-2.223-.338-3.19-1.014s-1.73-1.586-2.293-2.728a8.24 8.24 0 01-.843-3.69c0-1.3.303-2.517.91-3.65.605-1.133 1.4-2.039 2.385-2.715.983-.676 2.011-1.015 3.083-1.015m1.37 9.884c.756 0 1.353-.224 1.793-.672.439-.448.659-1.059.659-1.832 0-.755-.233-1.353-.698-1.792-.466-.44-1.068-.66-1.806-.66-.686 0-1.26.23-1.726.686-.466.457-.699 1.028-.699 1.713 0 .405.105.804.317 1.2.21.395.504.72.882.975.377.255.805.382 1.278.382m-1.37-11.076c-1.312 0-2.577.412-3.759 1.225-1.138.782-2.067 1.837-2.76 3.135a8.832 8.832 0 00-1.05 4.212c0 1.497.324 2.915.965 4.216.649 1.319 1.55 2.388 2.679 3.178a6.636 6.636 0 003.873 1.23c1.046 0 1.977-.149 2.787-.445v.05h7.447l-.057-1.246-.632-13.995-.051-1.138h-6.773c-.762-.28-1.653-.422-2.669-.422zm1.37 9.884c-.237 0-.431-.057-.61-.178a1.494 1.494 0 01-.498-.548 1.335 1.335 0 01-.177-.639c0-.364.106-.63.342-.862.242-.238.517-.344.891-.344.568 0 .836.19.988.334.139.131.324.37.324.925 0 .673-.24.917-.319.998-.13.134-.373.314-.94.314z"/><path class="st2" d="M370.71 86.325c.807 0 1.568.194 2.28.58.711.387 1.278.861 1.7 1.423l-1.872 4.27c-.334-.37-.66-.633-.975-.79a2.265 2.265 0 00-1.028-.238c-.984 0-1.683.268-2.095.803-.413.537-.663 1.358-.752 2.465v5.851l-5.508.08.237-14.049 4.823-.105.212.948c.385-.385.833-.689 1.343-.909a4.09 4.09 0 011.635-.33m0-1.191a5.294 5.294 0 00-2.196.466l-.044-.197-.976.021-4.823.105-1.146.025-.02 1.147-.237 14.048-.021 1.23 1.23-.018 5.508-.08 1.175-.016V94.887c.09-1.05.323-1.55.505-1.786.215-.28.744-.34 1.15-.34.183 0 .345.037.495.112.124.062.334.205.624.524l1.236 1.366.74-1.687 1.871-4.27.28-.637-.418-.557c-.523-.696-1.223-1.287-2.083-1.754a5.92 5.92 0 00-2.85-.725z"/></g><path class="st2" d="M0 30.62l7.934 12.397 7.933-12.397-7.933-12.382zM4.357 78.14l5.785 9.04 5.785-9.04-5.785-9.029zM202.702 42.513l5.786 9.04 5.785-9.04-5.785-9.029zM385.783 23.489l5.786 9.04 5.785-9.04-5.785-9.029zM386.407 70.816l8.297 12.963L403 70.816l-8.296-12.948z"/></svg>