<svg version="1.1" id="Layer_1" xmlns="http://www.w3.org/2000/svg" x="0" y="0" viewBox="0 0 452.791 160.282" xml:space="preserve"><style>.st0{fill:#ffd833}.st1{fill:#c2c2ff}.st2{fill:#2c2b60}.st5{fill:#b72934}.st7{fill:#ffe048}.st14{display:inline;fill:#f2f2f2}.st16{fill:#b7b7b7}</style><path class="st0" d="M81.643 149.362c11.05 3.073 20.672-4.328 30.363-8.345 5.124-2.123 10.414-3.054 15.917-2.04 5.422 1 10.511 3.232 15.502 5.499 10.246 4.653 20.378 9.201 31.899 7.404 11.743-1.832 22.13-8.843 34.002-10.033 12.203-1.223 22.767 5.823 33.927 9.472 5.598 1.83 11.373 2.658 17.236 1.848 5.959-.824 11.549-3.068 17.008-5.508 5.66-2.53 11.214-5.362 17.16-7.178a49.343 49.343 0 0120.202-1.79c12.822 1.522 23.189 9.32 35.152 13.395 6.24 2.125 12.793 2.787 19.237 1.187 6.371-1.583 12.128-4.927 17.977-7.791 6.62-3.243 13.247-5.277 20.697-4.974 7.892.32 15.56 2.635 23.074 4.89 2.758.827 3.937-3.48 1.187-4.306-12.8-3.84-26.431-7.494-39.525-2.801-10.954 3.925-20.874 12.355-33.097 11.37-12.18-.98-22.494-9.256-33.826-13.062-12.683-4.26-26.206-3.21-38.473 1.832-11.011 4.526-22.11 11.731-34.512 10.481-11.923-1.201-22.04-8.884-33.737-11.047-12.086-2.235-22.872 2.856-33.993 6.777-5.543 1.955-11.291 3.558-17.225 3.227-5.547-.309-10.914-2.29-15.967-4.48-10.991-4.76-22.312-11.305-34.734-8.685-6.096 1.286-11.601 4.487-17.16 7.16-5.352 2.573-11.132 4.853-17.104 3.193-2.772-.772-3.956 3.535-1.187 4.305z"/><path class="st1" d="M77.245 36.393h3.377c4.503 0 6.755 2.251 6.755 6.754v27.018h6.754c4.503 0 6.755 2.252 6.755 6.754 0 4.504-2.252 6.755-6.755 6.755H77.245c-4.503 0-6.755-2.251-6.755-6.755V43.147c0-4.503 2.252-6.754 6.755-6.754zM139.114 43.147c0 4.503-2.251 6.754-6.755 6.754h-10.13v3.378h10.13c4.504 0 6.755 2.252 6.755 6.754 0 4.504-2.251 6.754-6.755 6.754h-10.13v3.378h10.13c4.504 0 6.755 2.252 6.755 6.754 0 4.504-2.251 6.755-6.755 6.755h-20.262c-4.503 0-6.755-2.251-6.755-6.755V43.147c0-4.503 2.252-6.754 6.755-6.754h20.262c4.504 0 6.755 2.251 6.755 6.754zM167.044 49.901V76.92c0 4.504-2.252 6.755-6.754 6.755h-3.378c-4.504 0-6.753-2.251-6.753-6.755V49.901c-4.504 0-6.756-2.25-6.756-6.754 0-4.503 2.252-6.754 6.756-6.754h16.885c4.503 0 6.755 2.251 6.755 6.754s-2.252 6.754-6.755 6.754zM188.389 60.033h-3.377c-4.503 0-6.755-2.25-6.755-6.754V43.147c0-4.503 2.252-6.754 6.755-6.754h3.377c4.503 0 6.755 2.251 6.755 6.754v10.132c0 4.503-2.252 6.754-6.755 6.754zM215.406 36.393h10.13c4.526 0 6.789 2.251 6.789 6.754s-2.263 6.754-6.789 6.754h-8.441c-2.252 0-3.379.52-3.379 1.554 0 1.216 1.127 1.824 3.379 1.824h3.376c11.257 0 16.886 5.02 16.886 15.062 0 9.142-4.504 14.196-13.509 15.163l-8.442.17h-6.755c-4.435 0-6.652-2.251-6.652-6.755 0-4.502 2.217-6.754 6.652-6.754h8.444c2.25 0 3.376-.608 3.376-1.824 0-1.036-1.126-1.554-3.376-1.554h-1.689c-11.258 0-16.887-5.11-16.887-15.332 0-10.04 5.629-15.062 16.887-15.062zM281.531 36.393h6.755c4.502 0 6.754 2.893 6.754 8.68 0 5.47-2.252 8.206-6.754 8.206h-6.755c-1.87 0-3.462.658-4.779 1.975-1.317 1.318-1.974 2.91-1.974 4.78 0 1.868.657 3.46 1.974 4.778 1.317 1.317 2.91 1.975 4.78 1.975h6.754c4.502 0 6.754 2.782 6.754 8.342 0 5.696-2.252 8.545-6.754 8.545h-6.755c-6.53 0-12.1-2.308-16.716-6.924-4.617-4.615-6.924-10.188-6.924-16.717s2.307-12.1 6.924-16.717c4.615-4.615 10.186-6.923 16.716-6.923zM315.305 66.787V76.92c0 4.504-2.251 6.755-6.755 6.755h-3.377c-4.503 0-6.755-2.251-6.755-6.755V43.147c0-4.503 2.252-6.754 6.755-6.754h3.377c4.504 0 6.755 2.251 6.755 6.754v10.132h6.754V43.147c0-4.503 2.252-6.754 6.755-6.754h3.377c4.503 0 6.753 2.251 6.753 6.754v33.772c0 4.504-2.25 6.755-6.753 6.755h-3.377c-4.503 0-6.755-2.251-6.755-6.755V66.787h-6.754zM364.374 39.67c1.463-2.23 2.939-3.345 4.425-3.345 1.462 0 2.937 1.115 4.423 3.344l19.15 31.847c.877 1.44 1.316 2.781 1.316 4.018 0 2.05-1.215 3.795-3.647 5.236l-2.904 1.755c-1.442.878-2.782 1.318-4.02 1.318-2.025 0-3.748-1.183-5.166-3.547h-18.305c-1.418 2.364-3.142 3.547-5.167 3.547-1.238 0-2.58-.44-4.018-1.318l-2.906-1.755c-2.431-1.441-3.647-3.186-3.647-5.236 0-1.237.44-2.577 1.317-4.018l19.15-31.847zm7.43 27.083l-3.04-6.72-3.005 6.72h6.045zM415.168 49.901V76.92c0 4.504-2.252 6.755-6.754 6.755h-3.378c-4.503 0-6.753-2.251-6.753-6.755V49.901c-4.504 0-6.756-2.25-6.756-6.754 0-4.503 2.252-6.754 6.756-6.754h16.885c4.503 0 6.755 2.251 6.755 6.754s-2.252 6.754-6.755 6.754z"/><g><path class="st2" d="M77.245 31.51h3.377c4.503 0 6.755 2.251 6.755 6.754v27.018h6.754c4.503 0 6.755 2.251 6.755 6.754 0 4.504-2.252 6.754-6.755 6.754H77.245c-4.503 0-6.755-2.25-6.755-6.754V38.264c0-4.503 2.252-6.755 6.755-6.755zM139.114 38.264c0 4.503-2.251 6.754-6.755 6.754h-10.13v3.378h10.13c4.504 0 6.755 2.251 6.755 6.754s-2.251 6.754-6.755 6.754h-10.13v3.378h10.13c4.504 0 6.755 2.251 6.755 6.754 0 4.504-2.251 6.754-6.755 6.754h-20.262c-4.503 0-6.755-2.25-6.755-6.754V38.264c0-4.503 2.252-6.755 6.755-6.755h20.262c4.504 0 6.755 2.252 6.755 6.755zM167.044 45.018v27.018c0 4.504-2.252 6.754-6.754 6.754h-3.378c-4.504 0-6.753-2.25-6.753-6.754V45.018c-4.504 0-6.756-2.25-6.756-6.754 0-4.503 2.252-6.755 6.756-6.755h16.885c4.503 0 6.755 2.252 6.755 6.755s-2.252 6.754-6.755 6.754zM188.389 55.15h-3.377c-4.503 0-6.755-2.251-6.755-6.754V38.264c0-4.503 2.252-6.755 6.755-6.755h3.377c4.503 0 6.755 2.252 6.755 6.755v10.132c0 4.503-2.252 6.754-6.755 6.754zM215.406 31.51h10.13c4.526 0 6.789 2.251 6.789 6.754s-2.263 6.754-6.789 6.754h-8.441c-2.252 0-3.379.519-3.379 1.554 0 1.216 1.127 1.824 3.379 1.824h3.376c11.257 0 16.886 5.02 16.886 15.062 0 9.141-4.504 14.196-13.509 15.163l-8.442.17h-6.755c-4.435 0-6.652-2.251-6.652-6.755 0-4.503 2.217-6.754 6.652-6.754h8.444c2.25 0 3.376-.608 3.376-1.824 0-1.036-1.126-1.554-3.376-1.554h-1.689c-11.258 0-16.887-5.11-16.887-15.332 0-10.041 5.629-15.063 16.887-15.063zM281.531 31.51h6.755c4.502 0 6.754 2.893 6.754 8.68 0 5.47-2.252 8.206-6.754 8.206h-6.755c-1.87 0-3.462.658-4.779 1.975-1.317 1.318-1.974 2.91-1.974 4.779 0 1.869.657 3.461 1.974 4.779 1.317 1.317 2.91 1.975 4.78 1.975h6.754c4.502 0 6.754 2.781 6.754 8.342 0 5.696-2.252 8.544-6.754 8.544h-6.755c-6.53 0-12.1-2.307-16.716-6.923-4.617-4.615-6.924-10.188-6.924-16.717s2.307-12.101 6.924-16.717c4.615-4.615 10.186-6.924 16.716-6.924zM315.305 61.904v10.132c0 4.504-2.251 6.754-6.755 6.754h-3.377c-4.503 0-6.755-2.25-6.755-6.754V38.264c0-4.503 2.252-6.755 6.755-6.755h3.377c4.504 0 6.755 2.252 6.755 6.755v10.132h6.754V38.264c0-4.503 2.252-6.755 6.755-6.755h3.377c4.503 0 6.753 2.252 6.753 6.755v33.772c0 4.504-2.25 6.754-6.753 6.754h-3.377c-4.503 0-6.755-2.25-6.755-6.754V61.904h-6.754zM364.374 34.786c1.463-2.23 2.939-3.344 4.425-3.344 1.462 0 2.937 1.115 4.423 3.344l19.15 31.847c.877 1.44 1.316 2.78 1.316 4.018 0 2.05-1.215 3.795-3.647 5.235l-2.904 1.756c-1.442.878-2.782 1.318-4.02 1.318-2.025 0-3.748-1.183-5.166-3.547h-18.305c-1.418 2.364-3.142 3.547-5.167 3.547-1.238 0-2.58-.44-4.018-1.318l-2.906-1.756c-2.431-1.44-3.647-3.185-3.647-5.235 0-1.237.44-2.578 1.317-4.018l19.15-31.847zm7.43 27.084l-3.04-6.72-3.005 6.72h6.045zM415.168 45.018v27.018c0 4.504-2.252 6.754-6.754 6.754h-3.378c-4.503 0-6.753-2.25-6.753-6.754V45.018c-4.504 0-6.756-2.25-6.756-6.754 0-4.503 2.252-6.755 6.756-6.755h16.885c4.503 0 6.755 2.252 6.755 6.755s-2.252 6.754-6.755 6.754z"/></g><g><path d="M31.65 97.66s3.624 11.503-5.2 20.045" fill="none" stroke="#3a3a3a" stroke-width="1.313" stroke-miterlimit="10"/><path transform="rotate(-11.339 55.222 127.047)" fill="#3a3a3a" d="M53.015 93.599h4.419V160.5h-4.419z"/><path transform="rotate(-11.339 28.808 63.468)" class="st5" d="M13.2 26.375h31.218v74.19H13.2z"/><path class="st5" d="M16.082 0L0 31.413l43.033-8.629z"/><path transform="rotate(-11.339 21.673 27.882)" fill="#772b32" d="M6.064 27.083h31.218v1.599H6.064z"/><path transform="rotate(-11.339 23.214 35.57)" class="st0" d="M7.606 33.173h31.218v4.796H7.606z"/><path transform="rotate(-11.339 34.45 91.61)" class="st0" d="M18.843 89.214h31.218v4.796H18.843z"/><path class="st7" d="M25.827 114.018a12.31 12.31 0 00-.027-2.454c-.02-.18-.06-.332-.192-.464a.667.667 0 00-.464-.193c-.323.015-.697.291-.657.657.09.815.1 1.637.027 2.454-.03.343.324.671.656.656.382-.017.624-.289.657-.656zM22.065 114.64l-2.125-1.999c-.25-.235-.683-.266-.928 0-.234.256-.267.677 0 .928l2.125 1.999c.25.235.683.266.928 0 .234-.256.267-.677 0-.928zM20.843 118.167c-.997.123-2.002.138-3.002.045-.343-.033-.671.324-.656.656.017.383.289.622.656.656 1 .094 2.005.079 3.002-.044.18-.022.33-.058.464-.192.114-.114.2-.3.192-.464-.014-.32-.291-.702-.656-.657zM23.197 121.793l-.103 3.22c-.01.344.31.672.656.657a.67.67 0 00.657-.657l.102-3.22c.011-.343-.31-.671-.656-.656a.67.67 0 00-.656.656zM26.972 121.166l2.185 2.586c.223.263.703.246.929 0 .257-.28.237-.647 0-.928l-2.186-2.587c-.222-.263-.702-.246-.928 0-.257.28-.238.648 0 .929zM30.257 118.477a4.589 4.589 0 002.05.046c.154-.031.314-.17.392-.302a.67.67 0 00.066-.506.664.664 0 00-.302-.392.727.727 0 00-.505-.066c-.084.016-.167.03-.251.042l.174-.023a3.895 3.895 0 01-1.014-.002l.175.023a4.016 4.016 0 01-.436-.086.685.685 0 00-.506.066.669.669 0 00-.302.392c-.077.342.103.717.459.808z"/></g><g><path class="st5" d="M69.98 111.075c.121-.12 2.172-.302 2.172-.302l-.422-12.458s-1.75.06-1.9-.09c-.151-.151.12-4.405.12-4.405l8.718.15.211 4.284-2.112.212.152 3.318 5.821.271-.06-3.71s-1.75-.181-1.78-.181-.392-2.323-.302-4.132c3.017-.905 9.925.09 9.925.09s-.09 4.132-.15 4.132-2.233.363-2.233.363l.392 11.915 2.082.241v4.314s-9.352.12-9.352.06-.09-4.404-.09-4.404l2.111-.21-.09-3.982-6.124-.182s-.06 4.404.09 4.404c.152 0 2.022-.12 2.022.091s.422 3.982.271 4.042c-.15.06-9.08.332-9.411-.15-.332-.483-.182-3.56-.061-3.68zM91.551 107.184c0-5.732 3.68-7.421 6.757-7.421 2.565 0 4.465 1.508 4.465 1.508v-1.508s6.395-.211 6.395-.06c0 .15.211 4.012.181 4.012-.06 0-2.171.452-2.232.513-.09.06.06 6.364.06 6.364.03 0 2.504-.03 2.534.181.06.212.06 4.224-.06 4.224-.09 0-6.847-.12-6.847-.211s-.302-1.54-.302-1.54-1.207 1.992-4.284 1.992c-2.775 0-6.667-1.84-6.667-8.054zm10.076.15c0-1.598-.996-2.926-2.232-2.926-1.509 0-2.504 1.056-2.504 2.866 0 1.75 1.176 2.866 2.383 2.866 1.357 0 2.353-1.116 2.353-2.806zM113.363 117.59l-.03-12.578H111.1c-.03-1.931-.212-4.465-.212-4.465-.03 0 6.667-1.086 6.818-.935.06.181.634 1.327.634 1.327s.874-1.327 3.951-1.327c2.775 0 6.908 1.81 6.908 8.024 0 6.275-3.65 7.723-6.727 7.723-2.564 0-3.499-.966-3.499-.966v2.987s2.926.332 3.046.422c.182.15.09 4.072.121 4.072.06 0-10.95.06-10.89 0l-.18-4.102 2.292-.181zm8.295-6.907c1.448 0 2.112-1.146 2.112-3.167 0-1.992-.814-3.047-1.99-3.047-1.298 0-2.113 1.116-2.113 3.016 0 1.81.815 3.198 1.991 3.198zM132.822 117.59l-.03-12.578h-2.232c-.03-1.931-.212-4.465-.212-4.465-.03 0 6.667-1.086 6.817-.935.06.181.634 1.327.634 1.327s.875-1.327 3.952-1.327c2.775 0 6.908 1.81 6.908 8.024 0 6.275-3.65 7.723-6.727 7.723-2.564 0-3.5-.966-3.5-.966v2.987s2.927.332 3.047.422c.182.15.09 4.072.12 4.072.062 0-10.95.06-10.889 0l-.18-4.102 2.292-.181zm8.295-6.907c1.448 0 2.112-1.146 2.112-3.167 0-1.992-.815-3.047-1.99-3.047-1.298 0-2.113 1.116-2.113 3.016 0 1.81.815 3.198 1.991 3.198zM155.659 113.126s-4.224-6.938-4.676-9.411l-1.659-.091s-.513-2.956-.302-3.922l9.02-.03s.21 3.47.15 3.983l-1.688.06 2.292 4.253 2.172-4.163-1.508-.09-.06-3.922c.15-.15 8.687.12 8.657.12 0 0 .241 1.932.21 3.862l-1.658.09s-8.175 16.109-10.015 18.854c0 0-4.223-.845-5.219-2.564-.18-.03 4.404-6.999 4.284-7.029zM189.387 93.97c2.293 0 3.56 1.268 3.56 1.268l.332-1.78c0 .06 3.438.121 4.736.935.21.151-.152 7.512-.152 7.512l-4.856.603s-.603-3.107-3.318-3.107c-1.569 0-2.896 1.659-2.896 5.007 0 3.56 2.142 4.797 3.65 4.797 1.93 0 3.379-1.629 3.68-2.051 1.357 1.417 3.952 3.74 3.952 3.74s-1.9 4.465-7.632 4.465c-4.706 0-9.834-3.65-9.834-10.95 0-7.633 4.555-10.438 8.778-10.438zM200.49 111.105l1.689-.12.03-13.002c-.06-.06-2.414-.332-2.474-.332-.03 0 .182-3.951.182-4.102 0-.151 7.3-.302 7.3-.302v6.999s1.025-1.117 3.589-1.117c3.077 0 6.184 1.448 6.184 7.723l-.03 3.951 1.267.272s.211 2.956 0 3.922l-7.813-.09s-.211-3.32-.15-3.832l1.477-.272-.03-3.227c0-2.022-.845-3.047-2.293-3.047-1.176 0-2.262 1.237-2.262 3.047l.03 3.318 1.81.392.06 3.62c-.15.15-8.386.06-8.356.06 0 0-.24-1.93-.21-3.86zM219.737 111.105l2.595-.12.03-6.124c-.06-.06-2.353.09-2.413.09-.03 0-.483-3.951-.483-4.102 0-.151 6.365-.452 8.416.03v10.015l2.474.392.06 3.62c-.15.15-10.497.06-10.467.06 0 0-.242-1.93-.212-3.86zm1.93-16.169c-.03-1.93 1.359-3.137 2.958-3.137 1.628 0 3.137 1.388 3.137 2.986 0 1.63-.755 3.228-2.806 3.228-2.081 0-3.227-1.176-3.288-3.077zM232.197 111.105l1.991-.12.03-7.21c-.06-.06-1.75.09-1.81.09-.03 0-.482-4.072-.482-4.223 0-.15 5.973-.784 5.973-.784l.965 2.172s1.388-1.9 3.952-1.9c3.077 0 6.184 1.447 6.184 7.722l-.03 3.951 1.267.272s.21 2.956 0 3.922l-7.814-.09s-.21-3.32-.15-3.832l1.478-.272-.03-3.227c0-2.022-.845-3.047-2.293-3.047-1.176 0-2.262 1.237-2.262 3.047l.03 3.318 1.81.392.06 3.62c-.151.15-8.687.06-8.657.06 0 0-.242-1.93-.212-3.86zM258.202 99.22c3.65 0 6.546 3.107 6.637 4.404l-.815 3.077-5.822 3.198c.422.513 3.409.543 5.34.543-.06 1.99-.664 4.857-.664 4.857-7.723.573-12.398-2.927-12.398-8.387 0-5.49 3.68-7.692 7.722-7.692zm1.358 4.887c-.12-.302-.695-.784-1.298-.784-2.111 0-2.926 1.78-2.383 3.046l3.68-2.262zM266.5 109.477c1.357-.242 3.348-.212 3.74-.152.362 1.147 1.206 1.75 1.84 1.75.603 0 1.116-.272 1.116-.784 0-.966-1.297-1.267-2.504-1.81-1.81-.784-3.891-1.93-3.891-5.068 0-2.111 1.96-4.223 5.49-4.223 1.539 0 2.474.482 2.926.875l.181-1.056s3.016-.09 4.314.362c.12.06-.301 4.827-.301 5.37 0 .24-4.133-.06-4.133-.152-.09-.965-.936-1.327-1.569-1.327-.362 0-.935.09-.935.754 0 .604 1.689 1.056 3.167 1.78 1.81.845 3.77 2.564 3.77 5.249 0 2.443-2.322 4.314-4.976 4.314-2.716 0-3.53-.634-3.922-.996-.06.483-.121 1.237-.151 1.237-.12-.03-4.102-.332-4.102-.332-.06-.452-.06-4.917-.06-5.791zM288.944 99.22c3.65 0 6.547 3.107 6.637 4.404l-.815 3.077-5.822 3.198c.423.513 3.409.543 5.34.543-.06 1.99-.664 4.857-.664 4.857-7.722.573-12.398-2.927-12.398-8.387 0-5.49 3.68-7.692 7.722-7.692zm1.358 4.887c-.12-.302-.694-.784-1.297-.784-2.112 0-2.926 1.78-2.384 3.046l3.68-2.262zM307.83 111.316c.09-.06 1.931-.271 2.022-.331.09-.06-.03-8.266-.181-11.735-.453.06-1.87.03-1.93-.03-.061-.06-.453-5.188-.333-5.28.12-.09 6.154.03 6.245.03.09 0 7.3 10.499 7.42 10.529.121.03-.12-6.275-.12-6.275s-2.444-.15-2.474-.15-.513-4.133-.302-4.194c.212-.06 9.623-.15 9.623-.06s.242 4.103.06 4.103c-.18 0-2.05.18-2.05.241 0 .06.452 17.013.301 17.013-.151 0-4.555.362-4.706.182-.15-.182-6.395-10.74-6.395-10.74s0 5.883.15 6.064c.151.181 2.112.211 2.112.422s.453 3.53.242 3.65c-.212.121-9.533.513-9.442.362.09-.15-.332-3.74-.241-3.8zM335.887 99.22c3.65 0 6.546 3.107 6.636 4.404l-.814 3.077-5.822 3.198c.422.513 3.408.543 5.339.543-.06 1.99-.664 4.857-.664 4.857-7.722.573-12.398-2.927-12.398-8.387 0-5.49 3.68-7.692 7.723-7.692zm1.357 4.887c-.12-.302-.694-.784-1.297-.784-2.112 0-2.926 1.78-2.383 3.046l3.68-2.262zM346.084 103.805l-1.9-.09s-.513-3.047-.302-4.013l9.02.091s.21 3.44.15 3.952l-1.598.06 1.598 3.68 3.62-6.395 2.745.09 4.013 6.366 1.448-3.65-1.72-.09.03-4.013c.151-.15 8.96-.06 8.93-.06 0 0 .24 2.081.21 4.012l-1.81.12s-2.986 8.538-4.826 11.282c0 0-2.444.212-3.71-.09l-4.103-6.576-3.65 6.666s-2.745.212-4.012-.09c0 0-3.68-8.778-4.133-11.252zM389.255 111.015c.06-.03 2.052-.212 2.052-.302v-5.822c0-.15-4.525-6.124-4.586-6.063-.06.06-2.322-.272-2.322-.302l.03-4.706 8.869.15s.391 4.043.331 4.134c-.06.09-1.418.06-1.448.06s2.082 2.383 2.082 2.383 2.081-2.473 1.99-2.534c-.09-.06-1.055-.03-1.206-.03-.15 0-.03-4.163 0-4.193.03-.03 8.054.09 8.265.18.212.092.423 4.043.362 4.104-.06.06-1.749.09-1.84.09-.09 0-5.097 6.817-5.097 6.817s.09 5.34.09 5.642c0 .302 1.689.06 1.84.241.15.181.09 3.922.09 4.042 0 .12-9.35.301-9.41.271-.062-.03-.152-4.132-.092-4.162zM409.71 99.22c3.65 0 6.546 3.107 6.636 4.404l-.814 3.077-5.822 3.198c.422.513 3.409.543 5.34.543-.061 1.99-.664 4.857-.664 4.857-7.723.573-12.399-2.927-12.399-8.387 0-5.49 3.68-7.692 7.723-7.692zm1.357 4.887c-.12-.302-.694-.784-1.297-.784-2.111 0-2.926 1.78-2.383 3.046l3.68-2.262zM417.796 107.184c0-5.732 3.68-7.421 6.757-7.421 2.564 0 4.465 1.508 4.465 1.508v-1.508s6.395-.211 6.395-.06c0 .15.21 4.012.18 4.012-.06 0-2.171.452-2.231.513-.091.06.06 6.364.06 6.364.03 0 2.504-.03 2.534.181.06.212.06 4.224-.06 4.224-.09 0-6.848-.12-6.848-.211s-.302-1.54-.302-1.54-1.206 1.992-4.284 1.992c-2.775 0-6.666-1.84-6.666-8.054zm10.075.15c0-1.598-.995-2.926-2.232-2.926-1.509 0-2.504 1.056-2.504 2.866 0 1.75 1.177 2.866 2.383 2.866 1.358 0 2.353-1.116 2.353-2.806zM437.677 110.803l1.99-.12.03-7.09c-.06-.06-1.748.092-1.809.092-.03 0-.482-3.771-.482-3.922 0-.151 6.093-1.056 6.093-1.056l.965 2.052s1.026-1.448 3.59-1.448c2.715 0 4.766 2.141 4.736 2.352-.06.544-3.107 4.284-3.198 4.193-.392-.392-1.237-1.206-2.292-1.206-1.569 0-2.624 1.236-2.624 3.047 0 1.96.24 2.895.24 2.895l3.078.393.06 3.921c-.151.15-10.196.06-10.166.06 0 0-.241-2.232-.211-4.163z"/></g></svg>