<svg version="1.1" id="Layer_1" xmlns="http://www.w3.org/2000/svg" x="0" y="0" viewBox="0 0 503.959 93.069" xml:space="preserve"><style>.st1{fill:#ff0114}.st3{fill:#fff}.st5{fill:#f3c43e}.st6{fill:#52afa4}</style><path fill="none" d="M464.38 79.76h1.986v1.986h-1.986z"/><path class="st1" d="M47.42 78.294H42.5v-9.84h-4.919v24.615h4.92v-9.856h4.92v9.856h4.919V68.454h-4.92zM68.141 73.374h-4.92c-1.357 0-2.51.47-3.46 1.408-.973.983-1.459 2.154-1.459 3.512v14.775h4.92v-4.92h4.92v4.92h4.919V78.294c-.034-1.392-.523-2.56-1.468-3.504-.944-.944-2.095-1.416-3.452-1.416zm0 9.839h-4.92v-4.92h4.92v4.92zM88.862 73.374h-9.839v19.695h4.92v-4.92h4.919c1.357 0 2.508-.471 3.452-1.416.945-.944 1.434-2.112 1.468-3.503v-4.936c-.034-1.392-.523-2.56-1.468-3.504-.944-.944-2.095-1.416-3.452-1.416zm0 9.839h-4.92v-4.92h4.92v4.92zM109.583 73.374h-9.84v19.695h4.92v-4.92h4.92c1.357 0 2.508-.471 3.452-1.416.945-.944 1.434-2.112 1.467-3.503v-4.936c-.033-1.392-.522-2.56-1.467-3.504-.944-.944-2.095-1.416-3.452-1.416zm0 9.839h-4.92v-4.92h4.92v4.92zM130.304 83.213h-4.92v-9.839h-4.92v9.856c.034 1.391.523 2.56 1.467 3.503.945.945 2.096 1.417 3.453 1.417v4.92h4.92v-4.92c1.357 0 2.508-.472 3.452-1.417.944-.944 1.434-2.112 1.467-3.503v-9.856h-4.92v9.839zM166.826 68.454h-4.92c-1.357 0-2.508.47-3.452 1.408-.944.939-1.434 2.11-1.467 3.512V88.15c.033 1.39.523 2.559 1.467 3.503.944.944 2.095 1.416 3.452 1.416h4.92c1.357 0 2.508-.472 3.452-1.416.945-.944 1.434-2.112 1.467-3.503v-4.937h-4.92v4.937h-4.919V73.374h4.92v4.92h4.92v-4.92c-.034-1.402-.523-2.573-1.468-3.512-.944-.938-2.095-1.408-3.452-1.408zM187.547 80.753h-4.92v-7.379h-4.92v19.695h4.92v-7.38h4.92v7.38h4.92V73.374h-4.92zM198.428 73.374h4.92v19.695h-4.92zM219.15 82.62l-4.87-9.246h-4.97v19.695h4.92v-9.245l4.868 9.245h4.97V73.374h-4.919zM230.031 93.07h14.759v-4.92h-9.84v-2.46h4.92v-4.937h-4.92v-2.46h9.84v-4.919H230.03zM252.219 74.79c-.944.945-1.433 2.112-1.467 3.504v2.459c.034 1.403.523 2.576 1.467 3.52.944.945 2.095 1.417 3.452 1.417h4.92v2.46h-9.84v4.92h9.84c1.357 0 2.508-.473 3.452-1.417.945-.944 1.434-2.112 1.468-3.503v-2.46c-.034-1.403-.523-2.576-1.468-3.52-.944-.944-2.095-1.417-3.452-1.417h-4.92v-2.46h9.84v-4.919h-9.84c-1.357 0-2.508.472-3.452 1.416zM271.473 93.07h14.758v-4.92h-9.839v-2.46h4.92v-4.937h-4.92v-2.46h9.84v-4.919h-14.76zM317.833 80.26l-4.92-11.806h-4.919v24.615h4.92V81.245l4.92 11.824h4.919V68.454h-4.92zM328.715 93.07h14.759v-4.92h-9.84v-2.46h4.92v-4.937h-4.92v-2.46h9.84v-4.919h-14.759zM369.131 78.294l-2.46 7.38-2.46-7.38v-4.92h-4.919v4.92l-2.46 7.38-2.46-7.38v-4.92h-4.936v4.92l4.936 14.775h4.92l2.46-7.38 2.46 7.38h4.92l4.936-14.775v-4.92h-4.937zM405.67 78.294h-4.92v-9.84h-4.919v9.84c.034 1.402.523 2.572 1.467 3.511.945.939 2.096 1.408 3.453 1.408v9.856h4.92v-9.856c1.357 0 2.508-.47 3.452-1.408.944-.939 1.433-2.11 1.467-3.511v-9.84h-4.92v9.84zM416.552 93.07h14.759v-4.92h-9.84v-2.46h4.92v-4.937h-4.92v-2.46h9.84v-4.919h-14.759zM447.112 73.374h-4.92c-1.357 0-2.51.47-3.46 1.408-.973.983-1.459 2.154-1.459 3.512v14.775h4.92v-4.92h4.92v4.92h4.919V78.294c-.034-1.392-.523-2.56-1.468-3.504-.944-.944-2.095-1.416-3.452-1.416zm0 9.839h-4.92v-4.92h4.92v4.92zM472.752 83.23v-4.936c-.033-1.392-.522-2.56-1.467-3.504-.944-.944-2.095-1.416-3.452-1.416h-9.84v19.695h4.92v-4.92h3.682l1.238 4.92h4.92l-1.561-6.243c1.006-.938 1.527-2.137 1.56-3.596zm-4.919-.017h-4.92v-4.92h4.92v4.92z"/><g><path d="M495.446 12.245l1.072 2.173 2.397.348c4.826.701 6.752 6.63 3.26 10.034l-1.734 1.691.41 2.387c.824 4.806-4.22 8.47-8.536 6.202l-2.144-1.127-2.144 1.127c-4.316 2.269-9.36-1.396-8.536-6.202l.41-2.387-1.735-1.69c-3.491-3.404-1.565-9.334 3.26-10.035l2.397-.348 1.073-2.173c2.157-4.372 8.392-4.372 10.55 0z" fill="#d7aa2e"/><circle class="st3" cx="490.171" cy="23.2" r="4.083"/><circle class="st3" cx="490.171" cy="15.2" r=".917"/><circle class="st3" cx="490.171" cy="31.24" r=".917"/><circle class="st3" cx="482.151" cy="23.22" r=".917"/><circle class="st3" cx="498.191" cy="23.22" r=".917"/><circle class="st3" cx="484.5" cy="17.549" r=".917"/><circle class="st3" cx="495.842" cy="28.891" r=".917"/><circle class="st3" cx="484.5" cy="28.891" r=".917"/><circle class="st3" cx="495.842" cy="17.549" r=".917"/><path class="st3" d="M489.992 15.447h.357V31.24h-.357z"/><path transform="rotate(-90 490.17 23.196)" class="st3" d="M489.992 15.3h.357v15.793h-.357z"/><path transform="rotate(-45 490.169 23.343)" class="st3" d="M489.992 15.447h.357V31.24h-.357z"/><path transform="scale(-1) rotate(45 56.105 -1183.12)" class="st3" d="M489.888 15.343h.357v15.793h-.357z"/></g><g><path d="M18.104 61.082L19 62.894l2 .29c4.025.585 5.633 5.532 2.72 8.372l-1.447 1.41.341 1.992c.688 4.01-3.52 7.067-7.12 5.174l-1.79-.94-1.788.94c-3.6 1.893-7.81-1.164-7.121-5.174l.341-1.992-1.447-1.41c-2.913-2.84-1.306-7.787 2.72-8.371l2-.291.894-1.812c1.8-3.648 7.002-3.648 8.802 0z" fill="#ff928b"/><circle class="st3" cx="13.703" cy="70.221" r="3.406"/><circle class="st3" cx="13.703" cy="63.547" r=".765"/><circle class="st3" cx="13.703" cy="76.929" r=".765"/><circle class="st3" cx="7.012" cy="70.238" r=".765"/><circle class="st3" cx="20.394" cy="70.238" r=".765"/><circle class="st3" cx="8.972" cy="65.507" r=".765"/><circle class="st3" cx="18.435" cy="74.969" r=".765"/><circle class="st3" cx="8.972" cy="74.969" r=".765"/><circle class="st3" cx="18.435" cy="65.507" r=".765"/><path class="st3" d="M13.555 63.752h.298v13.176h-.298z"/><path transform="rotate(-90 13.703 70.218)" class="st3" d="M13.555 63.63h.298v13.176h-.298z"/><path transform="rotate(-45 13.703 70.34)" class="st3" d="M13.555 63.752h.298v13.176h-.298z"/><path transform="scale(-1) rotate(45 169.607 -32.873)" class="st3" d="M13.468 63.666h.298v13.176h-.298z"/></g><path class="st5" d="M499.008 61v-.827h-7.29a2.487 2.487 0 00-.144-.527l6.206-3.815-.433-.704-6.214 3.819a2.51 2.51 0 00-.305-.294l3.6-6.344-.72-.408-3.598 6.34a2.472 2.472 0 00-.443-.118v-7.29h-.827v7.29c-.183.03-.36.077-.527.145l-3.815-6.206-.705.433 3.82 6.213a2.508 2.508 0 00-.294.306l-6.344-3.601-.408.72 6.34 3.599a2.47 2.47 0 00-.119.442H479.5v.828h7.29c.03.182.076.36.144.527l-6.206 3.815.433.704 6.214-3.82c.093.108.195.205.306.295l-3.601 6.344.72.408 3.599-6.34c.142.052.289.092.442.118v7.29h.827v-7.29c.183-.03.36-.077.527-.145l3.815 6.206.705-.433-3.82-6.213c.108-.094.205-.196.295-.306l6.344 3.6.408-.72-6.34-3.598c.051-.143.092-.29.118-.442h7.289zm-8.075-.413a1.68 1.68 0 11-3.359 0 1.68 1.68 0 013.36 0zM25.876 21.8v-1.098h-9.668a3.298 3.298 0 00-.192-.7l8.232-5.06-.575-.934-8.241 5.066a3.33 3.33 0 00-.406-.39l4.776-8.415-.955-.541-4.773 8.41a3.28 3.28 0 00-.587-.157V8.313h-1.098v9.668c-.242.04-.477.102-.699.192L6.63 9.941l-.935.575 5.067 8.241c-.142.124-.271.26-.39.406l-8.415-4.776-.541.954 8.41 4.774c-.07.189-.124.384-.158.587H0V21.8h9.668a3.3 3.3 0 00.193.699l-8.232 5.06.574.934 8.242-5.066c.124.142.26.271.405.39l-4.776 8.415.955.542 4.774-8.41c.189.069.383.123.586.157v9.668h1.098V24.52c.242-.041.477-.102.699-.193l5.06 8.232.935-.574-5.066-8.242a3.33 3.33 0 00.39-.406l8.415 4.777.54-.955-8.41-4.774c.07-.189.124-.383.158-.586h9.668zm-10.71-.55a2.228 2.228 0 11-4.456 0 2.228 2.228 0 014.456 0z"/><g><path class="st6" d="M49.988 9.39c-3.478 0-7.93 1.74-7.93 5.774 0 5.008 6.886 6.956 10.712 8.278 14.607 4.869 17.599 11.895 17.599 18.503 0 8.069-5.774 18.016-20.45 18.016-9.879 0-19.895-5.287-19.895-16.347 0-5.912 3.548-9.39 4.243-9.39 1.183 0 0 14.12 14.956 14.12 5.286 0 9.877-2.295 9.877-6.608 0-5.078-6.26-7.165-10.295-8.417-15.233-4.73-16.903-11.616-16.903-17.53C31.902 9.948 35.867 0 49.988 0c10.086 0 17.25 5.356 17.25 7.373 0 1.948-3.616 8.278-5.564 8.278-1.74 0-4.452-6.26-11.686-6.26zM102.297 1.043c11.409 0 13.773 8.278 13.773 12.382 0 18.642-27.198 21.355-27.198 30.12 0 5.843 2.435 14.329 2.435 14.746 0 .835-1.6.626-2.087.626H79.97c-1.74 0-3.826 1.322-3.826-24.763 0-34.362 3.617-33.11 4.8-33.11h21.354zm2.505 14.608c0-4.8-4.174-6.4-8.347-6.4-5.009 0-9.113.766-9.043 16.765 0 1.67.139 3.2 2.156 3.2 3.617 0 15.234-8.557 15.234-13.565zM122.471 58.917c-3.686.14-2.573-2.295-2.921-16.416 0-9.32 3.826-41.458 5.843-41.458H152.8c.834 0 3.338-.208 3.338 1.183 0 .556-4.451 10.295-5.356 10.295-1.182 0-3.269-3.27-10.086-3.27-4.8 0-9.877 2.853-9.877 9.53 0 1.46.278 3.965 2.226 3.965 2.226 0 7.164-3.27 13.007-3.27.835 0 3.13.28 3.13 1.462 0 .07-3.895 11.407-4.73 11.407-.695 0-3.338-1.39-6.051-1.39-3.548 0-8.695 2.573-8.695 9.46 0 5.564 2.921 9.599 8.764 9.599 6.887 0 11.13-4.591 12.8-4.591 1.043 0 5.703 11.756 5.703 12.451 0 1.321-1.74 1.043-2.573 1.043H122.47zM190.988 58.917c-.626 0-2.643.209-2.643-.835 0-1.947 5.356-8.903 5.356-16.833 0-3.13-2.991-4.313-6.121-4.313-6.33 0-16.417 1.113-16.417 9.043 0 5.496 4.522 11.408 4.522 12.451 0 .418-.417.487-1.322.487h-9.947c-3.547 0-4.521-6.26-4.521-15.303 0-29.771 20.66-43.614 23.72-43.614 2.296 0 20.242 9.947 20.242 42.223 0 18.572-2.991 16.694-5.078 16.694h-7.79zm-18.294-30.885c0 .836.487 1.323 1.321 1.323 1.253 0 8-1.809 14.121-1.809 2.435 0 3.548-.348 3.548-2.295 0-4.313-5.148-13.356-7.791-13.356-3.756 0-11.2 11.06-11.2 16.137zM245.455 1.043c.696 0 2.226-.277 2.226.836 0 10.364-11.825 21.215-11.825 22.606 0 1.53 13.355 12.59 13.355 32.971 0 1.879-1.46 1.461-2.99 1.461h-8.487c-1.739 0-1.53-2.017-1.53-2.782-.348-15.79-6.47-23.233-7.652-23.233-1.67 0-7.652 5.147-7.652 9.113 0 2.782 2.366 15.164 2.366 15.72 0 .834-.557 1.182-1.322 1.182h-8.487c-1.739 0-3.826 1.322-3.826-24.763 0-34.362 3.618-33.11 4.8-33.11h7.026c.904 0 2.365-.209 2.365 1.112 0 .07-3.408 10.017-3.408 20.034 0 .765-.21 4.382 1.182 4.382 1.53 0 11.825-11.965 15.164-23.65.487-1.53.418-1.809 2.018-1.879h6.677zM290.183 58.917c-1.321 0-4.382 2.783-4.382-17.39 0-15.511 3.06-25.39 3.06-27.963 0-2.086.348-3.339-1.391-3.339-4.939 0-13.633 8-14.816 8-.626 0-.974.278-.974-1.67 0-2.156 1.878-10.782 2.921-12.73C275.298 2.506 284.688 0 294.078 0c11.2 0 21.147 2.992 21.147 6.26 0 3.061-3.409 9.67-4.174 9.67-1.182 0-4.035-5.774-9.042-5.774-4.244 0-4.94 13.286-4.94 19.686 0 17.876 3.827 26.641 3.827 27.893 0 1.53-2.505 1.182-3.41 1.182h-7.303zM336.511 59.96c-14.05 0-19.546-10.085-19.546-22.12C316.965 19.965 326.982 0 339.99 0c13.007 0 23.024 19.964 23.024 37.84 0 12.035-5.496 22.12-19.547 22.12h-6.956zm15.234-23.65c0-15.372-7.095-25.041-11.755-25.041-4.661 0-11.757 9.669-11.757 25.041 0 8.139 4.383 11.27 11.757 11.27 7.373 0 11.755-3.131 11.755-11.27zM425.34 1.043c1.391 0 4.104 1.113 4.104 26.155 0 20.45-6.26 32.763-21.146 32.763-13.077 0-21.077-10.086-21.077-30.885 0-22.26 2.644-28.033 3.548-28.033h9.669c.695 0 1.53 0 1.53.905 0 1.6-3.478 8.973-3.478 24.971 0 15.791 5.704 20.66 9.808 20.66 3.478 0 10.99-.904 10.99-19.963 0-18.086-3.408-24.416-3.408-25.668 0-1.113 2.017-.904 2.643-.904h6.817zM454 9.39c-3.478 0-7.93 1.74-7.93 5.774 0 5.008 6.887 6.956 10.712 8.278 14.608 4.869 17.6 11.895 17.6 18.503 0 8.069-5.774 18.016-20.451 18.016-9.878 0-19.895-5.287-19.895-16.347 0-5.912 3.548-9.39 4.244-9.39 1.182 0 0 14.12 14.955 14.12 5.286 0 9.877-2.295 9.877-6.608 0-5.078-6.26-7.165-10.294-8.417-15.234-4.73-16.903-11.616-16.903-17.53C435.915 9.948 439.88 0 454 0c10.086 0 17.251 5.356 17.251 7.373 0 1.948-3.617 8.278-5.565 8.278-1.739 0-4.452-6.26-11.686-6.26z"/></g></svg>