<svg version="1.1" id="Layer_1" xmlns="http://www.w3.org/2000/svg" x="0" y="0" viewBox="0 0 454.75 226.158" xml:space="preserve"><style>.st1{display:inline}.st2{fill:#ffd833}.st3{fill:#c2c2ff}.st4{fill:#2c2b60}.st7{fill:#b72934}.st9{fill:#ffe048}.st15{display:inline;fill:#f2f2f2}.st16{fill:#b7b7b7}.st17{fill:#67afbf}.st18{fill:#27c98b}.st19{fill:#c62828}.st20{fill:#ffd979}.st21{fill:#8e1010}</style><path class="st17" d="M61.126 99.376H49.59V48.754h11.536L81.253 80.17h.122V48.754H92.91v50.622H81.375L61.249 67.96h-.123v31.416zM129.228 58.879H111.8v10.063h16.69v10.124h-16.69v10.186h17.427v10.124h-28.962V48.754h28.962v10.125zM164.81 58.879h-17.426v10.063h16.69v10.124h-16.69v10.186h17.426v10.124h-28.962V48.754h28.962v10.125zM186.096 48.754c13.868 0 25.526 10.554 25.526 25.28 0 14.788-11.597 25.342-25.526 25.342H171.43V48.754h14.665zm-1.35 40.314c8.53 0 14.358-6.505 14.42-14.972 0-8.467-5.83-15.034-14.42-15.034h-1.78v30.006h1.78zM244.99 99.376h-11.535V48.754h11.536v20.188h16.321V48.754h11.537v50.622h-11.537v-20.31h-16.321v20.31zM309.166 58.879H291.74v10.063h16.69v10.124h-16.69v10.186h17.426v10.124h-28.962V48.754h28.962v10.125zM327.322 89.252h17.426v10.124h-28.962V48.754h11.536v40.498zM368.918 48.754c9.879 0 17.304 5.093 17.304 15.586 0 10.43-7.425 16.26-17.304 16.26h-6.934v18.776H350.45V48.754h18.47zm-3.681 22.642c4.54 0 8.836-1.534 8.836-6.688 0-5.216-4.296-6.75-8.836-6.75h-3.253v13.438h3.253zM389.037 59.431c0-.307 2.639-11.597 16.322-11.597 9.204 0 17.427 6.013 17.427 14.665 0 6.013-4.48 9.695-10.37 12.21-2.086.921-2.148 2.64-2.148 4.664v3.436h-10.125v-6.688c0-2.7.123-4.909 2.884-6.688 3.743-2.393 7.241-2.578 7.241-6.934 0-2.946-2.209-5.032-4.97-5.032-4.418 0-6.566 3.682-7.24 6.32l-9.021-4.356zm23.195 33.871c0 3.866-3.13 6.995-7.057 6.995a6.992 6.992 0 01-6.995-6.995c0-3.927 3.129-7.056 6.995-7.056a7.019 7.019 0 017.057 7.056z"/><path class="st18" d="M72.598 162.873h17.426v10.124H61.062v-50.622h11.536v40.498zM124.686 132.5H107.26v10.063h16.69v10.124h-16.69v10.186h17.426v10.124H95.724v-50.622h28.962v10.124zM128.116 122.375h35.59v10.124h-12.027v40.498h-11.536V132.5h-12.027v-10.124zM180.634 127.898c0 6.688-4.847 12.149-9.326 15.892l-2.884-2.27s3.375-3.192 4.233-7.855c-2.699-.675-4.786-2.884-4.786-5.767 0-3.56 2.823-6.443 6.32-6.443a6.442 6.442 0 016.443 6.443zM220.085 126.241l-4.663 9.204s-5.032-3.498-10.248-3.498c-3.927 0-6.013 1.78-6.013 4.541 0 2.822 4.786 4.847 10.554 7.302 5.645 2.393 11.843 7.18 11.843 13.806 0 12.088-9.204 16.322-19.083 16.322-11.843 0-19.022-6.689-19.022-6.689l5.768-9.694s6.75 5.706 12.394 5.706c2.516 0 7.303-.245 7.303-4.97 0-3.682-5.4-5.338-11.414-8.345-6.074-3.007-9.634-7.732-9.634-13.009 0-9.45 8.346-15.462 16.507-15.462 9.203 0 15.708 4.786 15.708 4.786zM278.614 159.437l4.91 9.817s-5.646 4.664-16.63 4.664c-14.297 0-27.428-11.659-27.428-26.14 0-14.542 13.07-26.323 27.429-26.323 10.983 0 16.628 4.663 16.628 4.663l-4.909 9.818s-4.05-3.13-9.94-3.13c-11.597 0-16.69 8.1-16.69 14.85 0 6.81 5.093 14.91 16.69 14.91 5.89 0 9.94-3.13 9.94-3.13zM299.469 172.997h-11.536v-50.622h11.536v20.188h16.322v-20.188h11.535v50.622H315.79v-20.31h-16.322v20.31zM380.825 172.997H368.43l-3.743-10.124h-19.268l-3.743 10.124h-12.394l20.433-50.622h10.676l20.434 50.622zm-25.71-34.975h-.123l-5.645 14.727h11.413l-5.645-14.727zM376.645 122.375h35.59v10.124h-12.027v40.498h-11.536V132.5h-12.027v-10.124z"/><g><path class="st19" d="M67.107 219.45c-.745 0-1.346-.197-1.79-.588a2.142 2.142 0 01-.42-.503 2.154 2.154 0 01-.42.503c-.445.391-1.046.589-1.789.589h-8.262c-.745 0-1.346-.198-1.79-.59a2.204 2.204 0 01-.737-1.679c0-1.055.573-1.882 1.574-2.267l.455-.169v-13.348l-.438-.133c-1.017-.39-1.591-1.218-1.591-2.275 0-.68.268-1.284.753-1.7.439-.377 1.036-.568 1.774-.568h8.262c.736 0 1.333.191 1.774.569.174.148.32.321.435.513.116-.193.263-.366.438-.515.437-.376 1.034-.567 1.772-.567h8.261c.738 0 1.335.191 1.776.57.484.413.752 1.016.752 1.698 0 1.057-.575 1.884-1.576 2.268l-.454.168v13.332l.438.15c1.018.393 1.592 1.219 1.592 2.274a2.2 2.2 0 01-.74 1.681c-.442.39-1.043.588-1.788.588h-8.261zm-3.483-4.542c.572.22 1.004.579 1.272 1.038.267-.459.695-.815 1.258-1.032l.455-.168v-3.758h-3.423v3.772l.438.148zm2.985-8.644V201.4l-.438-.135c-.573-.22-1.005-.578-1.273-1.037-.267.459-.696.815-1.26 1.03l-.452.168v4.838h3.423z"/><path class="st19" d="M91.1 219.854c-1.32 0-2.44-.3-3.328-.893a4.523 4.523 0 01-.355-.262 6.628 6.628 0 01-.943.49 8.417 8.417 0 01-3.32.665c-1.638 0-3.003-.43-4.054-1.28-1.12-.901-1.711-2.104-1.711-3.478 0-1.712.785-3.139 2.274-4.134a3.068 3.068 0 01-.67-.441c-.495-.427-1.086-1.213-1.086-2.52 0-.962.404-1.893 1.2-2.768.713-.786 1.759-1.434 3.109-1.927 1.292-.473 2.91-.712 4.81-.712 2.343 0 4.08.45 5.31 1.374 1.306.984 1.996 2.393 1.996 4.075v5.638a1.8 1.8 0 01.41-.047c.618 0 1.15.293 1.458.804.194.326.291.7.291 1.118 0 .678-.226 1.364-.673 2.042-.427.644-1.045 1.187-1.842 1.614-.796.426-1.764.642-2.876.642z"/><path class="st19" d="M97.13 226.158c-.707 0-1.276-.187-1.692-.555-.446-.397-.692-.965-.692-1.598 0-.449.121-.859.36-1.218.222-.333.545-.602.963-.796l.002-13.443c-.431-.16-.762-.401-.998-.724a2.07 2.07 0 01-.384-1.235c0-.741.319-1.202.586-1.457.237-.23.57-.434 1.073-.657l2.92-1.258c.536-.23.976-.388 1.345-.487.413-.11.806-.165 1.166-.165 1.043 0 1.658.42 1.99.773.07.074.135.152.195.233 1.106-.668 2.348-1.006 3.702-1.006 1.389 0 2.657.365 3.768 1.086 1.09.708 1.96 1.691 2.585 2.924.614 1.21.924 2.61.924 4.16 0 1.774-.377 3.365-1.122 4.727-.754 1.379-1.802 2.468-3.114 3.236-1.308.767-2.796 1.156-4.423 1.156a8.4 8.4 0 01-1.532-.136s0 2.23.002 2.273c.407.187.736.456.962.794.24.365.36.773.36 1.22 0 .633-.245 1.201-.691 1.598-.416.368-.985.555-1.691.555H97.13zm7.622-11.26c.107.04.218.06.337.06.1 0 .18-.022.295-.131.076-.073.266-.308.436-.962.159-.61.24-1.455.24-2.512 0-.944-.081-1.694-.241-2.228-.173-.577-.356-.786-.426-.85a.407.407 0 00-.304-.123c-.118 0-.23.021-.337.065v6.681z"/><path class="st19" d="M116.273 226.158c-.707 0-1.276-.187-1.692-.555-.445-.397-.692-.965-.692-1.598 0-.449.121-.859.36-1.218.222-.333.545-.602.963-.796l.002-13.443c-.431-.16-.762-.401-.998-.724a2.07 2.07 0 01-.384-1.235c0-.741.319-1.202.586-1.457.237-.23.57-.434 1.073-.657l2.92-1.258c.537-.23.976-.388 1.345-.487.413-.11.806-.165 1.166-.165 1.043 0 1.658.42 1.99.773.07.074.135.152.195.233 1.106-.668 2.349-1.006 3.702-1.006 1.389 0 2.657.365 3.768 1.086 1.09.708 1.96 1.691 2.585 2.924.614 1.21.924 2.61.924 4.16 0 1.774-.377 3.365-1.122 4.727-.754 1.379-1.802 2.468-3.114 3.236-1.308.767-2.796 1.156-4.423 1.156a8.4 8.4 0 01-1.532-.136s0 2.23.002 2.273c.407.187.737.456.962.794.24.365.36.773.36 1.22 0 .633-.245 1.201-.691 1.598-.416.368-.985.555-1.691.555h-6.564zm7.622-11.26c.107.04.218.06.338.06.1 0 .18-.022.294-.131.076-.073.266-.308.436-.962.159-.61.24-1.455.24-2.512 0-.944-.081-1.694-.241-2.228-.173-.577-.355-.786-.426-.85a.407.407 0 00-.303-.123c-.12 0-.23.021-.338.065v6.681z"/><path class="st19" d="M138.308 226.158c-1.712 0-3.121-.487-4.187-1.446-1.105-.995-1.664-2.265-1.664-3.773 0-1.127.317-2.057.943-2.763.655-.74 1.561-1.131 2.62-1.131 1.312 0 2.085.538 2.502.99.45.487.85 1.128 1.186 1.903l.213.49c.04-.075.083-.155.126-.24l-6.065-12.503c-.12-.252-.186-.326-.189-.33a1.907 1.907 0 00-.332-.193c-.414-.207-.722-.47-.933-.788-.23-.344-.345-.756-.345-1.224 0-.654.267-1.233.753-1.63.423-.347.957-.523 1.587-.523h7.744c.62 0 1.15.176 1.573.522.098.082.188.17.269.266a2.1 2.1 0 01.267-.264c.425-.348.954-.524 1.575-.524h4.045c.63 0 1.164.176 1.587.522.485.398.753.977.753 1.631 0 .443-.138.867-.398 1.225-.211.296-.515.55-.923.772a1.853 1.853 0 00-.562.418c-.067.075-.25.318-.512.972l-4.395 10.65c-.715 1.73-1.351 3.038-1.945 4-.67 1.084-1.44 1.861-2.284 2.31-.828.438-1.84.661-3.009.661zm4.71-18.696l1.28 2.894 1.032-2.577c.077-.189.125-.333.154-.441l-.258-.086a2.357 2.357 0 01-1.122-.738c-.27.31-.648.541-1.126.688l-.057.018c.027.07.058.15.098.242zM168.217 220.027c-2.366 0-4.458-.51-6.217-1.516a10.582 10.582 0 01-4.13-4.237c-.952-1.769-1.435-3.817-1.435-6.087 0-1.698.286-3.293.85-4.743a11.737 11.737 0 012.403-3.83 11.12 11.12 0 013.628-2.554c1.383-.607 2.892-.914 4.484-.914 1.019 0 1.84.09 2.511.277a9.8 9.8 0 011.536.544c.136.064.225.092.275.104.158-.129.319-.257.483-.384.418-.321.922-.483 1.5-.483.577 0 1.094.205 1.494.594.325.314.566.754.737 1.344l1.482 5.093c.192.665.093 1.331-.277 1.88-.334.496-.829.84-1.43.996-.249.06-.473.086-.692.086-.366 0-.719-.075-1.049-.221-.395-.177-.936-.555-1.279-1.355-.43-1.012-.893-1.792-1.377-2.32-.45-.49-.908-.832-1.362-1.012a3.92 3.92 0 00-1.473-.29c-.463 0-.858.103-1.207.316-.377.228-.695.562-.972 1.02-.309.51-.552 1.153-.722 1.91-.18.8-.271 1.725-.271 2.747 0 1.66.216 3.04.642 4.106.393.981.924 1.712 1.58 2.172.652.458 1.396.68 2.274.68.762 0 1.44-.19 2.073-.578.648-.399 1.177-.983 1.618-1.79.283-.53.65-.918 1.085-1.136.31-.155.641-.233.988-.233.16 0 .323.017.485.05a1.891 1.891 0 011.3.847c.23.357.348.789.348 1.28 0 .966-.252 1.93-.748 2.864-.476.895-1.161 1.716-2.037 2.44-.865.715-1.908 1.289-3.102 1.706-1.19.416-2.534.627-3.996.627z"/><path class="st19" d="M189.375 219.45c-.776 0-1.332-.228-1.713-.57-.38.342-.937.57-1.713.57h-6.376c-.707 0-1.276-.186-1.692-.554-.446-.397-.692-.965-.692-1.598 0-.445.125-.866.362-1.22.22-.332.543-.6.96-.794.002-.042.003-14.162.003-14.162-.431-.16-.762-.402-.998-.725a2.07 2.07 0 01-.384-1.235c0-.704.289-1.163.532-1.424.264-.285.64-.516 1.181-.727l3.198-1.239c.533-.208.968-.36 1.299-.455.415-.119.832-.179 1.24-.179 1.002 0 1.605.426 1.934.783.445.483.679 1.105.679 1.802v6.152c.239-.148.47-.28.698-.397 1.176-.606 2.3-.913 3.338-.913 1.654 0 3.018.568 4.055 1.686 1.012 1.093 1.524 2.509 1.524 4.21 0 0 0 6.78.002 6.823.407.187.736.456.961.794.237.357.361.777.361 1.22 0 .633-.246 1.2-.693 1.598-.412.368-.981.555-1.69.555h-6.376zm-2.171-4.13c.17.097.322.209.456.333.13-.12.277-.229.44-.322l.026-.015.002-5.992c0-.395-.084-.509-.085-.51-.022-.024-.12-.043-.238-.043-.163 0-.35.037-.555.111l-.055.021s.001 6.363.003 6.413l.006.003z"/><path class="st19" d="M199.32 219.45c-.707 0-1.276-.186-1.691-.554-.446-.397-.692-.965-.692-1.598 0-.444.125-.866.361-1.22.22-.332.544-.6.961-.794.002-.042.002-6.736.002-6.736-.431-.16-.762-.401-.997-.724a2.07 2.07 0 01-.385-1.235c0-.704.29-1.163.532-1.424.264-.285.64-.516 1.181-.728l1.99-.77a4.507 4.507 0 01-1.65-.82c-.929-.744-1.42-1.799-1.42-3.051 0-1.248.494-2.296 1.429-3.03.854-.67 1.979-1.009 3.344-1.009s2.49.34 3.344 1.01c.935.733 1.429 1.78 1.429 3.029 0 1.252-.491 2.307-1.419 3.05l-.023.02c.275.141.482.313.632.472.454.483.694 1.11.694 1.812l.002 10.134c.408.187.737.456.962.794.237.357.361.777.361 1.22 0 .633-.246 1.2-.692 1.598-.416.368-.985.555-1.691.555h-6.563z"/><path class="st19" d="M219.255 219.45c-.776 0-1.333-.228-1.713-.57-.38.342-.937.57-1.713.57h-6.376c-.707 0-1.276-.186-1.692-.554-.446-.397-.692-.965-.692-1.598 0-.445.125-.866.362-1.22.22-.332.543-.6.96-.794.002-.042.003-6.736.003-6.736-.432-.16-.762-.401-.998-.724a2.07 2.07 0 01-.384-1.235c0-.704.289-1.163.531-1.424.264-.285.64-.516 1.182-.728l3.197-1.238c.534-.209.968-.36 1.3-.455a4.51 4.51 0 011.24-.179c1.002 0 1.605.426 1.934.783.186.202.336.43.446.676.32-.21.63-.391.931-.546 1.175-.606 2.299-.913 3.338-.913 1.654 0 3.018.567 4.055 1.686 1.011 1.093 1.524 2.509 1.524 4.21 0 0 0 6.78.002 6.823.407.187.735.456.96.794.238.357.362.777.362 1.22 0 .633-.246 1.2-.692 1.598-.414.368-.983.555-1.691.555h-6.376zm-2.171-4.13c.17.097.322.209.456.333.13-.12.276-.229.439-.322l.026-.015c.002-.049.003-5.992.003-5.992 0-.395-.084-.509-.085-.51-.023-.024-.12-.043-.238-.043-.164 0-.351.037-.556.111l-.054.021.002 6.413.007.003z"/><path class="st19" d="M235.734 219.854c-1.662 0-3.186-.338-4.53-1.005-1.375-.681-2.48-1.65-3.285-2.882-.818-1.25-1.232-2.715-1.232-4.354 0-1.772.366-3.353 1.089-4.698.742-1.382 1.836-2.47 3.252-3.231 1.38-.743 3.04-1.119 4.937-1.119 1.675 0 3.117.285 4.286.847 1.226.59 2.166 1.422 2.793 2.473.619 1.032.932 2.219.932 3.526 0 .97-.28 1.768-.833 2.375.212.168.387.389.513.654.175.367.262.79.262 1.26 0 1.144-.385 2.217-1.144 3.19-.712.911-1.694 1.644-2.917 2.18-1.19.52-2.577.784-4.123.784zm.413-7.038c.443.22.979.328 1.617.328.513 0 .979-.057 1.382-.169.128-.036.26-.089.393-.16h-3.392zm-.778-4.076c-.044-.972-.2-1.34-.253-1.44a.885.885 0 00-.022-.039c-.074.086-.17.24-.265.55-.078.251-.13.563-.158.929h.698z"/><path class="st19" d="M251.394 219.854c-.85 0-1.529-.07-2.079-.216a8.469 8.469 0 01-1.238-.411c-.056-.024-.1-.04-.131-.048l-.328.246c-.378.284-.837.429-1.362.429-.614 0-1.153-.233-1.518-.657-.245-.283-.435-.671-.597-1.217l-.75-2.55c-.218-.723-.268-1.332-.148-1.853.138-.6.496-1.08 1.025-1.378a4.853 4.853 0 01-.352-.577c-.45-.866-.677-1.872-.677-2.988 0-1.245.348-2.35 1.033-3.288.657-.898 1.556-1.6 2.672-2.084 1.067-.462 2.283-.697 3.615-.697.881 0 1.579.074 2.133.226.505.139.911.277 1.243.423a.736.736 0 00.295.07l.443-.308c.39-.27.852-.41 1.341-.41.564 0 1.086.225 1.472.635.322.343.533.815.647 1.446l.446 2.46c.125.71.121 1.247-.01 1.696a2.05 2.05 0 01-.665 1.006c.238.275.436.567.592.874.432.854.65 1.82.65 2.872 0 1.964-.71 3.538-2.109 4.678-1.32 1.076-3.218 1.621-5.643 1.621zm-1.97-4.85c.148.086.296.16.444.22a2.992 2.992 0 001.488.204c-.256-.083-.697-.197-1.44-.33-.168-.03-.332-.06-.491-.093zm2.257.34zm-.524-8.37c.12.028.26.057.43.086.13.022.258.044.384.067a2.967 2.967 0 00-.814-.153z"/><path class="st19" d="M267.183 219.854c-1.662 0-3.187-.338-4.531-1.005-1.374-.681-2.48-1.65-3.285-2.882-.817-1.25-1.232-2.715-1.232-4.354 0-1.772.367-3.353 1.09-4.698.741-1.382 1.836-2.47 3.252-3.231 1.379-.743 3.04-1.119 4.936-1.119 1.675 0 3.118.285 4.287.847 1.226.59 2.165 1.422 2.793 2.473.618 1.032.931 2.219.931 3.526 0 .97-.28 1.768-.832 2.375.211.168.386.389.513.654.174.367.262.79.262 1.26 0 1.144-.385 2.217-1.144 3.19-.713.911-1.694 1.644-2.918 2.18-1.19.52-2.577.784-4.122.784zm.412-7.038c.443.22.979.328 1.617.328.514 0 .98-.057 1.382-.169.129-.036.26-.089.394-.16h-3.393zm-.778-4.076c-.043-.972-.199-1.34-.252-1.44a.875.875 0 00-.022-.039c-.075.086-.17.24-.266.55-.077.251-.13.563-.157.929h.697zM295.307 219.45c-1.547 0-2.24-1.03-2.24-2.051-.066-.13-.225-.358-.46-.685l-4.978-6.975v4.291c0 .329.044.471.055.503.009 0 .116.099.403.24l.29.137c.988.442 1.57 1.275 1.57 2.272 0 .665-.26 1.26-.734 1.676-.43.377-1.019.576-1.75.593h-4.505c-.756-.017-1.344-.214-1.776-.585-.483-.412-.751-1.01-.751-1.684 0-1.014.587-1.85 1.613-2.292l.294-.134c.27-.125.363-.222.381-.242-.004-.004.043-.148.043-.498v-10.737c0-.31-.031-.422-.033-.43-.002 0-.057-.123-.278-.413l-1.117-1.494a6.844 6.844 0 01-.566-.907 2.476 2.476 0 01-.251-1.089c0-.685.277-1.286.781-1.693.298-.242.82-.531 1.602-.531h4.85c.594 0 1.114.115 1.545.343.431.228.822.595 1.194 1.125l6.105 8.577v-4.611c0-.338-.04-.494-.055-.54-.014 0-.12-.086-.375-.202l-.318-.151c-1.367-.66-1.57-1.707-1.57-2.273 0-.682.268-1.285.756-1.7.437-.377 1.03-.568 1.757-.568h4.476c.738 0 1.335.191 1.776.57.484.413.752 1.016.752 1.698 0 .997-.582 1.83-1.597 2.285l-.311.141c-.268.12-.362.208-.381.23.003.006-.043.155-.043.51v10.709c0 .294.022.548.066.757.025.12.07.224.137.317l.888 1.217c.343.448.547.808.644 1.145.081.287.122.582.122.881a2.2 2.2 0 01-.74 1.681c-.302.268-.838.588-1.658.588h-5.613z"/><path class="st19" d="M311.441 219.854c-1.662 0-3.186-.338-4.531-1.005-1.374-.681-2.479-1.65-3.284-2.882-.818-1.25-1.232-2.715-1.232-4.354 0-1.772.366-3.353 1.089-4.698.742-1.382 1.836-2.47 3.252-3.231 1.38-.743 3.04-1.119 4.936-1.119 1.676 0 3.118.285 4.287.847 1.226.59 2.165 1.422 2.793 2.473.618 1.032.932 2.219.932 3.526 0 .97-.28 1.768-.833 2.375.212.168.387.389.513.654.174.367.262.79.262 1.26 0 1.144-.385 2.217-1.144 3.19-.712.911-1.694 1.644-2.918 2.18-1.19.52-2.576.784-4.122.784zm.412-7.038c.444.22.98.328 1.617.328.514 0 .98-.057 1.383-.169.128-.036.26-.089.393-.16h-3.393zm-.777-4.076c-.044-.972-.2-1.34-.253-1.44a.875.875 0 00-.022-.039c-.075.086-.17.24-.265.55-.078.251-.13.563-.158.929h.698z"/><path class="st19" d="M335.867 219.45a3.24 3.24 0 01-1.761-.493c-.56-.353-.978-.908-1.24-1.646l-.784-2.24-.945 2.41c-.307.775-.778 1.317-1.4 1.614a3.65 3.65 0 01-1.586.356h-2.187c-.66 0-1.252-.164-1.763-.488-.546-.347-.96-.898-1.232-1.637 0 0-3.692-10.008-3.724-10.082l-.169-.08c-.417-.21-.726-.471-.937-.79-.228-.344-.345-.756-.345-1.224 0-.654.268-1.233.753-1.63.423-.347.957-.523 1.588-.523h7.283c.526 0 .986.126 1.372.376.354-.231.824-.376 1.434-.376h7.11c.665 0 1.177.185 1.55.477.412-.316.921-.477 1.516-.477h3.34c.63 0 1.164.176 1.587.522.485.399.753.977.753 1.631 0 .423-.108.813-.322 1.16-.248.4-.644.694-1.18.88l-.023.008c-.124.247-.272.602-.504 1.268l-3.079 8.963c-.334.984-.948 1.447-1.404 1.662-.507.239-1.045.36-1.6.36h-2.101zm-7.387-12.037l.795 2.33.487-1.301-.323-.923a4.052 4.052 0 00-.105-.275l-.168-.08a2.885 2.885 0 01-.401-.241 2.68 2.68 0 01-.381.19c.026.085.058.185.096.3zm10.38 1.823l.44-1.405c.097-.3.16-.526.203-.695-.233-.09-.435-.2-.61-.327-.202.16-.437.28-.697.355.022.075.664 2.072.664 2.072zM357.01 219.45c-.745 0-1.346-.197-1.79-.588a2.204 2.204 0 01-.737-1.68c0-1.055.573-1.882 1.573-2.267l.456-.169v-3.335l-4.744-9.5c-.2-.41-.293-.525-.298-.53l-.482-.22a2.328 2.328 0 01-1.06-.931 2.391 2.391 0 01-.339-1.24c0-.682.268-1.286.755-1.7.437-.377 1.035-.568 1.772-.568h8.161c.738 0 1.335.191 1.776.57.484.414.751 1.018.751 1.698 0 1.029-.544 1.844-1.467 2.215l1.745 4.04 1.698-3.635c.05-.109.07-.19.08-.242-.02-.008-.476-.222-.476-.222a2.262 2.262 0 01-.938-.8 2.349 2.349 0 01-.4-1.356c0-.682.269-1.285.756-1.7.437-.377 1.034-.568 1.772-.568h4.131c.743 0 1.342.195 1.78.58.471.412.733 1.013.733 1.688 0 .48-.117.905-.348 1.265a2.525 2.525 0 01-.893.819l-.237.133c-.104.056-.179.112-.252.184-.04.038-.152.159-.333.445a11.64 11.64 0 00-.595 1.132l-3.79 8.132v3.66l.437.148c1.018.392 1.592 1.219 1.592 2.274 0 .663-.262 1.26-.738 1.68-.445.391-1.046.589-1.79.589h-8.261z"/><path class="st19" d="M377.823 219.854c-1.662 0-3.187-.338-4.532-1.005-1.373-.681-2.478-1.65-3.284-2.882-.818-1.25-1.232-2.715-1.232-4.354 0-1.772.367-3.353 1.09-4.698.74-1.382 1.835-2.47 3.251-3.231 1.38-.743 3.04-1.119 4.937-1.119 1.675 0 3.117.285 4.286.847 1.226.59 2.166 1.422 2.794 2.473.618 1.032.93 2.219.93 3.526 0 .97-.28 1.768-.831 2.375.211.168.386.389.513.654.174.367.262.79.262 1.26 0 1.144-.386 2.217-1.145 3.19-.712.911-1.694 1.644-2.917 2.18-1.19.52-2.577.784-4.122.784zm.412-7.038c.443.22.979.328 1.617.328.514 0 .979-.057 1.382-.169.129-.036.26-.089.393-.16h-3.392zm-.778-4.076c-.044-.972-.2-1.34-.252-1.44a.875.875 0 00-.023-.039c-.074.086-.169.24-.265.55-.078.251-.13.563-.158.929h.698z"/><path class="st19" d="M398.693 219.854c-1.32 0-2.44-.3-3.328-.893a4.519 4.519 0 01-.355-.262 6.63 6.63 0 01-.943.49 8.417 8.417 0 01-3.32.665c-1.638 0-3.003-.43-4.055-1.28-1.119-.901-1.71-2.104-1.71-3.478 0-1.712.785-3.139 2.274-4.134a3.068 3.068 0 01-.67-.441c-.495-.427-1.086-1.213-1.086-2.52 0-.962.404-1.893 1.2-2.768.713-.786 1.759-1.434 3.108-1.927 1.293-.473 2.911-.712 4.811-.712 2.343 0 4.08.45 5.31 1.374 1.306.984 1.996 2.393 1.996 4.075v5.638a1.8 1.8 0 01.41-.047c.618 0 1.15.293 1.457.804.195.326.292.7.292 1.118 0 .678-.227 1.364-.673 2.042-.427.644-1.046 1.187-1.842 1.614s-1.764.642-2.876.642z"/><path class="st19" d="M404.723 219.45c-.707 0-1.276-.186-1.692-.554-.446-.397-.692-.965-.692-1.598 0-.445.125-.866.362-1.22.22-.332.543-.6.96-.794.002-.042.003-6.677.003-6.677-.43-.16-.76-.4-.996-.722a2.077 2.077 0 01-.386-1.238c0-.556.186-1.05.537-1.43.28-.3.659-.53 1.197-.729l3.073-1.201c.745-.294 1.26-.474 1.615-.566.414-.106.735-.156 1.013-.156.681 0 1.27.292 1.66.822.073.1.138.208.198.326.089-.075.18-.146.274-.214a4.786 4.786 0 012.848-.934c1.397 0 2.508.453 3.302 1.346.756.85 1.14 2.066 1.14 3.614 0 1.586-.347 2.767-1.06 3.61-.748.884-1.768 1.35-2.95 1.35-1.172 0-2.1-.341-2.757-1.015l-.027-.027v3.494l.86.175c.56.111 1.005.342 1.327.688.249.265.548.74.548 1.483 0 .663-.268 1.248-.753 1.646-.423.346-.976.522-1.645.522h-7.959z"/><g><path class="st20" d="M61.896 214.966c0 .24.063.435.187.583.125.15.307.271.547.367l.547.202c.5.192.749.547.749 1.064 0 .298-.101.536-.302.713-.202.178-.514.266-.936.266h-8.262c-.422 0-.734-.088-.935-.266-.202-.177-.303-.415-.303-.713 0-.517.25-.872.749-1.064l.546-.202c.25-.096.435-.218.555-.367.12-.148.18-.343.18-.583v-13.76c0-.24-.06-.434-.18-.583-.12-.149-.305-.27-.555-.366l-.546-.202c-.499-.192-.749-.547-.749-1.065 0-.307.101-.548.303-.72.2-.173.513-.259.935-.259h8.262c.422 0 .734.086.936.26.2.171.302.412.302.719 0 .518-.25.873-.75 1.065l-.546.202c-.24.095-.422.217-.547.366-.124.15-.187.344-.187.584v13.759zm-3.886-7.412h12.191v2.144h-12.19v-2.144zm16.566 7.412c0 .24.063.435.188.583.124.15.307.271.547.367l.547.202c.498.192.748.547.748 1.064 0 .298-.1.536-.302.713-.202.178-.513.266-.936.266h-8.261c-.423 0-.735-.088-.936-.266-.202-.177-.303-.415-.303-.713 0-.517.25-.872.75-1.064l.546-.202c.25-.096.434-.218.554-.367.12-.148.18-.343.18-.583v-13.76c0-.24-.06-.434-.18-.583-.12-.149-.304-.27-.554-.366l-.547-.202c-.499-.192-.749-.547-.749-1.065 0-.307.101-.548.303-.72.201-.173.513-.259.936-.259h8.261c.423 0 .734.086.936.26.201.171.302.412.302.719 0 .518-.25.873-.748 1.065l-.547.202c-.24.095-.423.217-.547.366-.125.15-.188.344-.188.584v13.759zM78.678 215.096c0-1.314.595-2.354 1.785-3.116 1.19-.763 2.86-1.144 5.009-1.144.566 0 1.06.038 1.482.114.423.077.768.188 1.037.332l-.49 1.252a2.472 2.472 0 00-.568-.245 2.243 2.243 0 00-.583-.072c-.47 0-.842.156-1.115.468-.274.312-.41.76-.41 1.345 0 .615.133 1.082.402 1.404.27.321.624.482 1.066.482.278 0 .539-.064.784-.194.244-.13.43-.281.554-.453l.345 1.15c-.46.683-1.13 1.21-2.008 1.584a7.103 7.103 0 01-2.814.562c-1.343 0-2.424-.332-3.245-.994-.82-.662-1.23-1.487-1.23-2.475zm8.795 1.094v-.332l-.46-.014v-9.298c0-.364-.1-.657-.296-.878-.197-.22-.463-.331-.799-.331-.25 0-.467.06-.655.18-.186.12-.28.28-.28.482v1.57c0 .805-.276 1.429-.828 1.87-.552.442-1.34.662-2.367.662-.874 0-1.524-.184-1.95-.554-.428-.37-.642-.885-.642-1.547 0-.633.289-1.266.865-1.9.575-.633 1.441-1.16 2.597-1.583 1.156-.422 2.613-.633 4.368-.633 2.035 0 3.546.372 4.534 1.115.988.744 1.483 1.758 1.483 3.044v6.88c0 .183.045.333.137.454.09.12.232.18.424.18a.588.588 0 00.396-.13c.1-.086.195-.173.281-.26a1.4 1.4 0 01.208-.172.448.448 0 01.252-.072c.164 0 .281.06.353.18a.87.87 0 01.108.453c0 .423-.154.867-.46 1.332-.308.465-.766.86-1.375 1.187-.61.326-1.366.49-2.267.49-1.065 0-1.936-.226-2.613-.677-.676-.451-1.014-1.017-1.014-1.698zM103.175 205.15v1.295l.288.547v14.854c0 .384.029.655.086.814a.571.571 0 00.303.338l.317.144c.22.096.378.215.474.36a.892.892 0 01.144.503c0 .268-.086.48-.259.633s-.451.23-.834.23H97.13c-.384 0-.662-.076-.835-.23-.173-.153-.26-.365-.26-.633 0-.192.05-.36.145-.504.096-.144.254-.263.475-.36l.317-.143a.57.57 0 00.302-.338c.057-.159.086-.43.086-.814v-13.472c0-.307-.041-.525-.122-.655a.623.623 0 00-.367-.266l-.317-.1c-.202-.068-.347-.164-.439-.289a.782.782 0 01-.137-.475c0-.23.063-.405.188-.525.124-.12.36-.257.705-.41l2.907-1.252c.47-.202.859-.343 1.166-.425s.585-.122.835-.122c.47 0 .82.122 1.05.367.231.245.346.554.346.928zm-.792 4.001l-1.022-.979c.826-1.343 1.752-2.398 2.778-3.166 1.027-.768 2.203-1.151 3.527-1.151 1.142 0 2.164.293 3.066.878.901.585 1.614 1.394 2.137 2.425.523 1.032.785 2.224.785 3.577 0 1.564-.323 2.934-.965 4.109-.643 1.176-1.52 2.09-2.634 2.742-1.113.652-2.37.979-3.77.979-1.162 0-2.177-.248-3.045-.742-.868-.494-1.62-1.245-2.253-2.252l1.57-1.066c.44.634.858 1.082 1.251 1.347.394.264.821.395 1.281.395.451 0 .847-.163 1.188-.49.34-.325.604-.848.791-1.568.188-.72.28-1.664.28-2.836 0-1.074-.097-1.94-.294-2.597-.197-.658-.463-1.137-.799-1.44a1.691 1.691 0 00-1.166-.453c-.528 0-1.012.18-1.454.54-.44.36-.858.942-1.252 1.748zM122.318 205.15v1.295l.288.547v14.854c0 .384.029.655.086.814a.571.571 0 00.303.338l.317.144c.22.096.378.215.475.36a.892.892 0 01.143.503c0 .268-.086.48-.259.633-.173.154-.451.23-.834.23h-6.564c-.384 0-.662-.076-.835-.23-.173-.153-.26-.365-.26-.633 0-.192.05-.36.145-.504.096-.144.254-.263.475-.36l.317-.143a.57.57 0 00.302-.338c.057-.159.087-.43.087-.814v-13.472c0-.307-.042-.525-.123-.655a.623.623 0 00-.367-.266l-.317-.1c-.202-.068-.347-.164-.439-.289a.782.782 0 01-.137-.475c0-.23.063-.405.188-.525.124-.12.36-.257.705-.41l2.907-1.252c.47-.202.859-.343 1.166-.425.307-.082.586-.122.835-.122.47 0 .82.122 1.05.367.231.245.346.554.346.928zm-.792 4.001l-1.021-.979c.825-1.343 1.75-2.398 2.778-3.166 1.026-.768 2.202-1.151 3.526-1.151 1.142 0 2.164.293 3.066.878.902.585 1.614 1.394 2.137 2.425.523 1.032.785 2.224.785 3.577 0 1.564-.322 2.934-.965 4.109-.643 1.176-1.52 2.09-2.634 2.742-1.113.652-2.37.979-3.77.979-1.162 0-2.177-.248-3.045-.742-.868-.494-1.62-1.245-2.252-2.252l1.568-1.066c.441.634.859 1.082 1.252 1.347.394.264.821.395 1.282.395.45 0 .846-.163 1.187-.49.34-.325.605-.848.791-1.568.188-.72.281-1.664.281-2.836 0-1.074-.098-1.94-.295-2.597-.197-.658-.463-1.137-.799-1.44a1.691 1.691 0 00-1.165-.453c-.529 0-1.013.18-1.454.54-.442.36-.86.942-1.253 1.748zM145.088 215.34l-3.34 5.398-6.606-13.616c-.163-.346-.326-.588-.49-.727a2.935 2.935 0 00-.633-.396 1.044 1.044 0 01-.417-.338c-.086-.13-.13-.3-.13-.51 0-.27.094-.48.28-.634.188-.154.445-.23.771-.23h7.744c.316 0 .568.076.755.23.187.153.281.364.281.633a.76.76 0 01-.166.511c-.11.13-.29.233-.54.31l-.388.115c-.384.114-.61.302-.677.561-.067.259.034.7.303 1.324l3.253 7.37zm-3.253 4.06l.403-.922.777-1.454 3.512-8.765c.25-.614.34-1.082.274-1.403-.068-.322-.298-.545-.692-.67l-.475-.158c-.24-.076-.42-.19-.539-.338a.83.83 0 01-.18-.54c0-.269.094-.48.28-.633.188-.154.44-.23.756-.23h4.045c.326 0 .582.076.77.23.187.153.28.364.28.633 0 .172-.05.329-.15.468-.101.14-.267.27-.497.396a3.096 3.096 0 00-.907.69c-.25.28-.499.73-.748 1.354l-4.39 10.636c-.682 1.65-1.298 2.922-1.85 3.814-.552.893-1.15 1.509-1.792 1.85-.643.34-1.444.51-2.404.51-1.391 0-2.499-.371-3.324-1.115-.826-.744-1.238-1.682-1.238-2.814 0-.806.206-1.442.619-1.907.412-.465.964-.698 1.655-.698.681 0 1.2.192 1.554.576.356.383.672.897.95 1.54l.302.69c.135.317.29.567.468.75.178.181.363.273.555.273a.88.88 0 00.51-.166c.16-.11.353-.362.584-.755.23-.394.527-1.008.892-1.843zM176.81 212.39c0 .758-.2 1.511-.597 2.26-.398.748-.972 1.432-1.72 2.05-.749.62-1.65 1.114-2.706 1.483-1.056.37-2.245.554-3.57.554-2.15 0-4.008-.448-5.577-1.346a9.266 9.266 0 01-3.634-3.728c-.855-1.587-1.281-3.413-1.281-5.476 0-1.545.254-2.97.762-4.275a10.412 10.412 0 012.138-3.411 9.798 9.798 0 013.21-2.26c1.223-.537 2.544-.806 3.965-.806.892 0 1.614.077 2.166.23.552.154.995.31 1.331.468s.624.238.864.238c.278 0 .506-.074.684-.223.177-.149.36-.295.546-.44.188-.143.425-.215.713-.215.24 0 .44.077.598.23.158.154.29.412.395.778l1.483 5.094c.086.298.05.565-.108.8a1.13 1.13 0 01-.683.467 1.366 1.366 0 01-.893-.064c-.269-.12-.475-.348-.619-.684-.49-1.152-1.027-2.047-1.612-2.685-.586-.638-1.197-1.084-1.835-1.338a5.237 5.237 0 00-1.95-.382c-.7 0-1.327.168-1.879.504s-1.02.82-1.404 1.454c-.383.633-.676 1.399-.877 2.295-.202.898-.303 1.908-.303 3.03 0 1.833.245 3.361.735 4.585.489 1.223 1.168 2.14 2.036 2.749.869.61 1.873.914 3.015.914.998 0 1.915-.257 2.75-.77.835-.514 1.525-1.27 2.072-2.268.163-.307.341-.508.533-.604a.947.947 0 01.633-.072c.221.039.38.132.475.281.096.149.144.343.144.583zM185.906 197.723v17.416c0 .383.029.652.086.806a.63.63 0 00.303.346l.287.158c.317.182.475.446.475.792 0 .614-.37.92-1.108.92h-6.376c-.384 0-.662-.076-.835-.23-.173-.153-.26-.364-.26-.633 0-.192.05-.36.145-.504.096-.144.254-.263.475-.36l.317-.143a.572.572 0 00.302-.34c.057-.158.086-.429.086-.812v-14.192c0-.307-.041-.525-.122-.654a.623.623 0 00-.367-.267l-.317-.1c-.202-.068-.348-.164-.439-.289a.782.782 0 01-.137-.475c0-.23.063-.412.188-.547.124-.134.36-.268.705-.403l3.195-1.237c.49-.192.885-.332 1.188-.418a3.21 3.21 0 01.885-.13c.432 0 .76.123.985.368.226.245.339.554.339.928zm-.518 10.939l-.864-.921.432-.403c1.353-1.296 2.528-2.2 3.526-2.713.998-.514 1.915-.77 2.75-.77 1.285 0 2.322.424 3.108 1.273.787.85 1.18 1.96 1.18 3.333v6.678c0 .383.029.654.087.813a.572.572 0 00.302.339l.317.143c.22.096.379.216.475.36a.89.89 0 01.144.504c0 .269-.087.48-.26.633-.172.154-.45.23-.834.23h-6.376c-.74 0-1.108-.307-1.108-.92 0-.346.158-.61.475-.792l.287-.158c.144-.077.245-.193.302-.346s.087-.423.087-.806v-5.815c0-.614-.142-1.074-.425-1.382-.283-.307-.679-.46-1.187-.46-.317 0-.648.063-.993.187s-.653.307-.921.547l-.504.446zM205.653 205.15v9.989c0 .383.029.654.086.813a.573.573 0 00.303.339l.317.143c.22.096.379.216.475.36a.89.89 0 01.144.504c0 .269-.087.48-.26.633s-.451.23-.834.23h-6.563c-.385 0-.663-.076-.836-.23-.172-.153-.259-.364-.259-.633 0-.192.048-.36.145-.504.095-.144.253-.264.475-.36l.316-.143c.144-.067.245-.18.302-.34s.087-.429.087-.812v-6.765c0-.307-.042-.525-.123-.655a.623.623 0 00-.367-.266l-.316-.1c-.202-.068-.348-.164-.44-.289a.782.782 0 01-.136-.475c0-.23.062-.412.187-.547.125-.134.36-.268.705-.403l3.195-1.237a13.53 13.53 0 011.224-.425c.297-.082.561-.122.792-.122.46 0 .806.122 1.036.367.23.245.345.554.345.928zm-3.368-2.562c-1.074 0-1.924-.25-2.548-.748-.623-.5-.935-1.181-.935-2.044 0-.854.312-1.526.935-2.015s1.474-.734 2.548-.734 1.924.244 2.548.734.935 1.16.935 2.014c0 .864-.311 1.546-.935 2.045-.624.498-1.473.748-2.548.748zM215.785 205.15v9.989c0 .383.03.652.087.806a.63.63 0 00.302.346l.288.158c.317.182.475.446.475.792 0 .613-.37.92-1.108.92h-6.376c-.385 0-.663-.076-.835-.23-.173-.153-.26-.364-.26-.633 0-.192.049-.36.145-.504.095-.144.254-.263.475-.36l.316-.143a.572.572 0 00.303-.34c.057-.158.086-.429.086-.812v-6.765c0-.307-.041-.525-.122-.655a.623.623 0 00-.367-.266l-.317-.1c-.202-.068-.348-.164-.44-.289a.782.782 0 01-.136-.475c0-.23.062-.412.187-.547.125-.134.36-.268.706-.403l3.194-1.237c.49-.192.886-.332 1.188-.418s.598-.13.885-.13c.432 0 .76.123.986.368.226.245.338.554.338.928zm-.518 3.512l-.863-.921.431-.403c1.353-1.296 2.529-2.2 3.527-2.713.998-.514 1.914-.77 2.749-.77 1.286 0 2.322.424 3.11 1.273.786.85 1.18 1.96 1.18 3.333v6.678c0 .383.028.654.086.813a.572.572 0 00.302.339l.317.143c.22.096.378.216.475.36a.89.89 0 01.143.504c0 .269-.086.48-.259.633-.172.154-.45.23-.834.23h-6.376c-.74 0-1.109-.307-1.109-.92 0-.346.159-.61.475-.792l.288-.158c.144-.077.245-.193.302-.346s.086-.423.086-.806v-5.815c0-.614-.141-1.074-.424-1.382-.284-.307-.679-.46-1.188-.46-.317 0-.647.063-.993.187s-.652.307-.92.547l-.505.446zM242.686 209.41c0 .672-.182 1.193-.547 1.562-.365.37-.887.554-1.568.554h-8.535v-1.497h3.842c.528 0 .792-.25.792-.748 0-1.209-.139-2.072-.418-2.591-.278-.518-.647-.777-1.108-.777-.336 0-.638.124-.906.374-.27.25-.483.631-.641 1.144-.159.514-.237 1.164-.237 1.95 0 1.747.393 3.025 1.18 3.836.787.811 1.861 1.217 3.224 1.217a6.45 6.45 0 001.727-.216c.518-.144 1.026-.436 1.526-.878.278-.25.49-.418.633-.504a.81.81 0 01.418-.13c.191 0 .333.097.424.288.091.192.137.427.137.705 0 .855-.29 1.653-.871 2.397-.58.744-1.386 1.34-2.418 1.792-1.032.451-2.234.677-3.606.677-1.468 0-2.787-.29-3.958-.872-1.17-.58-2.097-1.39-2.778-2.432s-1.022-2.257-1.022-3.648c0-1.564.312-2.927.936-4.088.623-1.161 1.533-2.063 2.727-2.706 1.195-.643 2.637-.964 4.326-.964 1.487 0 2.73.24 3.728.72.997.48 1.746 1.137 2.245 1.971.499.835.748 1.79.748 2.865zM251.063 205.683c-.566 0-.986.12-1.26.36-.273.24-.41.527-.41.863 0 .202.039.391.116.569.077.177.254.338.532.482.278.143.72.269 1.324.374 1.785.298 3.143.693 4.074 1.187.93.495 1.566 1.078 1.907 1.749.34.672.51 1.435.51 2.288 0 1.565-.544 2.79-1.633 3.678-1.089.888-2.698 1.332-4.829 1.332-.73 0-1.312-.058-1.749-.173a7.37 7.37 0 01-1.05-.346 1.817 1.817 0 00-.713-.172.935.935 0 00-.576.172l-.46.346c-.154.115-.35.173-.59.173s-.42-.07-.54-.21c-.12-.138-.233-.385-.338-.74l-.749-2.548c-.153-.508-.196-.91-.13-1.202.068-.292.25-.496.548-.612.307-.114.576-.12.806-.014.23.106.45.316.662.633.441.643.9 1.176 1.375 1.598.475.422.973.739 1.497.95.522.21 1.062.317 1.619.317.642 0 1.125-.12 1.446-.36.322-.24.482-.561.482-.964 0-.25-.064-.466-.194-.648s-.394-.348-.792-.497c-.398-.148-1-.295-1.806-.439-1.391-.25-2.497-.607-3.318-1.072-.82-.465-1.408-1.041-1.763-1.727-.355-.686-.532-1.485-.532-2.396 0-.97.261-1.812.784-2.527.523-.715 1.238-1.269 2.145-1.662s1.94-.59 3.101-.59c.759 0 1.355.06 1.792.18.437.12.792.24 1.066.36.273.12.544.18.813.18.259 0 .477-.06.654-.18.178-.12.353-.24.526-.36.173-.12.374-.18.604-.18.211 0 .389.076.533.23.144.153.25.417.317.791l.446 2.462c.086.49.093.856.021 1.101-.072.244-.247.425-.525.54-.297.125-.562.122-.792-.007-.23-.13-.465-.363-.705-.699-.671-.969-1.374-1.642-2.109-2.022-.733-.379-1.446-.568-2.137-.568zM274.135 209.41c0 .672-.183 1.193-.547 1.562-.365.37-.888.554-1.569.554h-8.535v-1.497h3.843c.527 0 .791-.25.791-.748 0-1.209-.139-2.072-.417-2.591-.278-.518-.647-.777-1.109-.777-.336 0-.638.124-.906.374-.269.25-.483.631-.64 1.144-.16.514-.238 1.164-.238 1.95 0 1.747.393 3.025 1.18 3.836.787.811 1.861 1.217 3.224 1.217a6.45 6.45 0 001.727-.216c.519-.144 1.027-.436 1.526-.878.278-.25.49-.418.633-.504a.81.81 0 01.418-.13c.191 0 .333.097.424.288.092.192.137.427.137.705 0 .855-.29 1.653-.87 2.397-.582.744-1.387 1.34-2.419 1.792-1.031.451-2.233.677-3.605.677-1.469 0-2.788-.29-3.958-.872-1.17-.58-2.097-1.39-2.778-2.432-.681-1.041-1.022-2.257-1.022-3.648 0-1.564.312-2.927.935-4.088.624-1.161 1.533-2.063 2.728-2.706 1.195-.643 2.636-.964 4.325-.964 1.487 0 2.73.24 3.728.72.998.48 1.746 1.137 2.245 1.971.5.835.749 1.79.749 2.865zM288.657 217.182c0 .298-.099.534-.295.706-.197.173-.506.264-.928.273h-4.476c-.423-.01-.735-.1-.936-.273-.202-.172-.302-.408-.302-.706 0-.498.278-.868.834-1.108l.317-.144c.432-.2.736-.431.914-.69.178-.26.266-.667.266-1.224v-10.737c0-.365-.034-.645-.1-.842-.068-.197-.226-.458-.476-.784l-1.108-1.483a5.44 5.44 0 01-.439-.698 1.187 1.187 0 01-.122-.526c0-.297.1-.527.303-.69.2-.163.465-.245.791-.245h4.85c.384 0 .699.065.943.194.245.13.492.372.741.727l9.313 13.084-.864 2.547v-12.407c0-.537-.077-.936-.23-1.194-.154-.26-.47-.5-.95-.72l-.302-.144c-.557-.269-.835-.638-.835-1.108 0-.307.1-.548.302-.72.202-.173.509-.259.921-.259h4.476c.423 0 .735.086.936.26.202.171.303.412.303.719 0 .489-.279.859-.835 1.108l-.317.144c-.432.192-.736.417-.914.676-.178.26-.266.672-.266 1.238v10.709c0 .383.03.724.093 1.022.063.297.18.566.353.806l.892 1.223c.25.326.398.574.447.742.048.168.072.343.072.524 0 .298-.101.536-.303.713-.201.178-.47.266-.806.266h-5.613c-.633 0-.95-.254-.95-.762 0-.173-.036-.343-.108-.511-.072-.168-.271-.478-.597-.929l-9.356-13.112 2.044-1.28v12.463c0 .519.08.908.238 1.167.158.258.472.503.942.733l.302.144c.557.25.835.62.835 1.108zM318.393 209.41c0 .672-.182 1.193-.547 1.562-.365.37-.887.554-1.569.554h-8.535v-1.497h3.843c.528 0 .792-.25.792-.748 0-1.209-.14-2.072-.418-2.591-.278-.518-.647-.777-1.108-.777-.336 0-.638.124-.907.374s-.482.631-.64 1.144c-.159.514-.238 1.164-.238 1.95 0 1.747.394 3.025 1.18 3.836.787.811 1.862 1.217 3.224 1.217a6.45 6.45 0 001.728-.216c.518-.144 1.026-.436 1.525-.878.278-.25.49-.418.634-.504a.81.81 0 01.417-.13c.192 0 .334.097.425.288.091.192.137.427.137.705 0 .855-.29 1.653-.871 2.397-.581.744-1.387 1.34-2.418 1.792-1.032.451-2.234.677-3.606.677-1.468 0-2.787-.29-3.958-.872-1.17-.58-2.097-1.39-2.778-2.432-.68-1.041-1.022-2.257-1.022-3.648 0-1.564.312-2.927.936-4.088.623-1.161 1.532-2.063 2.727-2.706 1.195-.643 2.636-.964 4.326-.964 1.487 0 2.73.24 3.727.72.998.48 1.747 1.137 2.245 1.971.5.835.75 1.79.75 2.865zM328.151 218.161h-2.187c-.413 0-.77-.096-1.073-.287-.302-.192-.539-.524-.712-.994l-3.613-9.787c-.124-.355-.235-.59-.33-.705a.875.875 0 00-.303-.245l-.302-.144a1.044 1.044 0 01-.417-.338c-.087-.13-.13-.3-.13-.51 0-.27.093-.48.28-.634.188-.154.444-.23.77-.23h7.284c.316 0 .568.076.755.23.187.153.281.364.281.633a.76.76 0 01-.166.511c-.11.13-.29.233-.539.31l-.39.115a.514.514 0 00-.373.431c-.038.221.052.658.273 1.31l2.462 7.225-1.483 1.138 3.368-8.996 1.742 1.108-3.411 8.708c-.183.46-.435.768-.756.921s-.665.23-1.03.23zm9.817 0h-2.101c-.404 0-.761-.098-1.073-.295-.312-.196-.55-.525-.713-.986l-3.425-9.787c-.125-.355-.235-.59-.33-.705a.88.88 0 00-.303-.245l-.302-.144a1.052 1.052 0 01-.418-.338c-.086-.13-.13-.3-.13-.51 0-.577.35-.864 1.051-.864h7.11c.692 0 1.037.287 1.037.863 0 .211-.053.386-.159.525a.713.713 0 01-.446.267l-.633.115c-.211.038-.329.185-.352.439-.025.254.064.693.266 1.317l2.331 7.24-1.338 1.137 2.49-7.974c.25-.768.362-1.298.338-1.591-.024-.292-.161-.472-.41-.54l-.389-.115c-.24-.076-.417-.18-.533-.309a.743.743 0 01-.172-.51c0-.27.094-.48.281-.634.187-.154.438-.23.755-.23h3.34c.326 0 .582.076.77.23.187.153.28.364.28.633a.9.9 0 01-.129.482c-.086.14-.254.252-.504.338l-.274.101c-.172.067-.333.247-.482.54-.148.293-.338.77-.568 1.432l-3.08 8.967c-.154.451-.398.756-.734.914a2.436 2.436 0 01-1.051.237zM363.947 211.958l-5.354.734-5.67-11.356c-.193-.394-.356-.665-.49-.813s-.312-.271-.533-.367l-.388-.173a1.023 1.023 0 01-.475-.41 1.118 1.118 0 01-.158-.583c0-.307.1-.548.302-.72.2-.173.513-.259.935-.259h8.161c.422 0 .735.086.936.26.2.171.302.412.302.719 0 .537-.25.887-.748 1.05l-.375.13c-.297.106-.47.255-.518.446-.048.192.02.5.201.921l3.786 8.765-2.202 1.037 4.29-9.183c.2-.441.253-.84.157-1.194-.096-.356-.374-.629-.834-.82l-.331-.16a1.024 1.024 0 01-.432-.366 1.083 1.083 0 01-.173-.626c0-.307.1-.548.303-.72.2-.173.513-.259.935-.259h4.131c.422 0 .732.086.928.26.197.171.295.412.295.719 0 .23-.048.42-.144.568-.096.149-.244.281-.446.396l-.23.13a2.262 2.262 0 00-.518.38 3.754 3.754 0 00-.526.685c-.187.298-.41.72-.67 1.266l-4.447 9.543zm-6.146-1.266h6.68v4.274c0 .24.061.435.186.583.124.15.307.271.547.367l.547.202c.499.192.749.547.749 1.064 0 .298-.101.536-.303.713-.202.178-.513.266-.935.266h-8.262c-.423 0-.734-.088-.936-.266-.2-.177-.302-.415-.302-.713 0-.517.25-.872.748-1.064l.547-.202c.25-.096.434-.218.555-.367.12-.148.18-.343.18-.583v-4.274zM384.775 209.41c0 .672-.183 1.193-.547 1.562-.365.37-.888.554-1.57.554h-8.534v-1.497h3.842c.528 0 .792-.25.792-.748 0-1.209-.139-2.072-.418-2.591-.277-.518-.647-.777-1.108-.777-.336 0-.638.124-.906.374-.27.25-.483.631-.641 1.144-.158.514-.237 1.164-.237 1.95 0 1.747.393 3.025 1.18 3.836.787.811 1.861 1.217 3.224 1.217a6.45 6.45 0 001.727-.216c.518-.144 1.027-.436 1.526-.878.278-.25.49-.418.633-.504a.81.81 0 01.418-.13c.191 0 .333.097.424.288.092.192.137.427.137.705 0 .855-.29 1.653-.871 2.397-.58.744-1.386 1.34-2.418 1.792-1.031.451-2.234.677-3.605.677-1.469 0-2.788-.29-3.959-.872-1.17-.58-2.097-1.39-2.778-2.432-.68-1.041-1.021-2.257-1.021-3.648 0-1.564.311-2.927.935-4.088.624-1.161 1.533-2.063 2.728-2.706 1.194-.643 2.636-.964 4.325-.964 1.487 0 2.73.24 3.728.72.998.48 1.746 1.137 2.245 1.971.499.835.749 1.79.749 2.865zM386.271 215.096c0-1.314.595-2.354 1.785-3.116 1.19-.763 2.86-1.144 5.009-1.144.566 0 1.06.038 1.482.114.423.077.768.188 1.037.332l-.49 1.252a2.472 2.472 0 00-.568-.245 2.244 2.244 0 00-.583-.072c-.47 0-.842.156-1.115.468-.274.312-.41.76-.41 1.345 0 .615.133 1.082.402 1.404.27.321.624.482 1.066.482.278 0 .539-.064.784-.194.244-.13.429-.281.554-.453l.345 1.15c-.46.683-1.13 1.21-2.008 1.584a7.103 7.103 0 01-2.814.562c-1.343 0-2.424-.332-3.245-.994-.82-.662-1.23-1.487-1.23-2.475zm8.795 1.094v-.332l-.46-.014v-9.298c0-.364-.1-.657-.296-.878-.197-.22-.463-.331-.8-.331-.249 0-.466.06-.654.18-.187.12-.28.28-.28.482v1.57c0 .805-.276 1.429-.828 1.87-.552.442-1.34.662-2.367.662-.874 0-1.524-.184-1.95-.554-.428-.37-.642-.885-.642-1.547 0-.633.289-1.266.864-1.9.576-.633 1.442-1.16 2.598-1.583s2.613-.633 4.368-.633c2.035 0 3.546.372 4.534 1.115.988.744 1.483 1.758 1.483 3.044v6.88c0 .183.045.333.137.454.09.12.232.18.424.18a.588.588 0 00.396-.13c.1-.086.194-.173.28-.26a1.4 1.4 0 01.209-.172.448.448 0 01.252-.072c.164 0 .281.06.353.18a.87.87 0 01.108.453c0 .423-.154.867-.46 1.332-.308.465-.766.86-1.375 1.187-.61.326-1.366.49-2.267.49-1.066 0-1.936-.226-2.613-.677-.676-.451-1.014-1.017-1.014-1.698zM410.653 205.15l.403 3.009v6.98c0 .336.048.574.144.713.095.139.317.242.662.309l1.093.216c.289.057.5.158.634.302.135.144.202.345.202.604 0 .28-.094.495-.281.648-.187.154-.463.23-.828.23h-7.959c-.384 0-.662-.076-.835-.23s-.26-.364-.26-.633c0-.192.049-.36.145-.504.096-.144.254-.264.475-.36l.317-.143a.572.572 0 00.302-.34c.057-.158.086-.429.086-.812v-6.707c0-.307-.041-.526-.122-.655a.623.623 0 00-.367-.266l-.317-.101c-.202-.067-.348-.163-.439-.288a.785.785 0 01-.137-.475c0-.23.065-.415.195-.554.13-.14.362-.271.698-.396l3.094-1.21c.681-.267 1.171-.44 1.468-.517.298-.077.528-.115.691-.115.269 0 .475.098.62.295.143.196.248.53.316 1zm-.158 5.153c0-1.468.191-2.68.575-3.634.384-.955.895-1.663 1.533-2.124a3.503 3.503 0 012.094-.69c1.017 0 1.797.305 2.339.914s.814 1.528.814 2.756c0 1.257-.253 2.183-.756 2.778-.504.595-1.159.892-1.965.892-.816 0-1.428-.209-1.835-.626-.408-.417-.612-.995-.612-1.734v-.605c-.01-.25-.065-.439-.166-.569-.1-.129-.256-.194-.467-.194-.192 0-.362.084-.51.252-.15.168-.267.442-.354.82-.086.38-.13.891-.13 1.533l-.56.23z"/></g></g><path class="st20" d="M235.05 0l5.58 11.307 12.478 1.814-9.03 8.801 2.132 12.428-11.16-5.867-11.162 5.867 2.132-12.428-9.03-8.801 12.479-1.814zM189.646 7.736l6.064 7.913 9.956-.509-5.652 8.213 3.56 9.311-9.556-2.838-7.756 6.264-.254-9.966-8.354-5.44 9.4-3.322zM279.907 7.736l-6.064 7.913-9.956-.509 5.652 8.213-3.56 9.311 9.556-2.838 7.756 6.264.254-9.966 8.354-5.44-9.4-3.322z"/><g><path transform="rotate(-16.647 22.17 95.758)" class="st19" d="M6.483 70.834h31.379v49.851H6.483z"/><path class="st21" d="M27.35 77.688l-19.162 5.73c-1.288.385-2.587.143-3.157-.589L0 76.373l30.064-8.989-.394 8.034c-.046.937-1.007 1.878-2.32 2.27z"/><path transform="rotate(-16.647 17.735 80.922)" class="st20" d="M16.909 79.196h1.655v3.454h-1.655z"/></g><g><path transform="rotate(13.924 433.526 167.107)" class="st19" d="M417.834 142.18h31.379v49.851h-31.379z"/><path class="st21" d="M447.173 154.18l-19.413-4.813c-1.305-.323-2.3-1.192-2.419-2.112l-1.048-8.118 30.457 7.55-4.425 6.718c-.517.784-1.822 1.105-3.152.775z"/><path transform="rotate(13.924 437.253 152.077)" class="st20" d="M436.422 150.349h1.655v3.454h-1.655z"/></g></svg>