<svg version="1.1" id="Layer_1" xmlns="http://www.w3.org/2000/svg" x="0" y="0" viewBox="0 0 494.531 145.929" xml:space="preserve"><style>.st0{fill:#74276f}.st1{fill:#ffcd2c}.st2{fill:#ee51aa}.st3{fill:#fff}.st4{fill:#083a56}.st5{fill:#ffa111}</style><path class="st0" d="M134.132 86.58c-2.397-.046-4.298-.227-5.81-.555-2.077-.45-3.876-1.372-5.352-2.739-1.244-1.15-2.321-2.613-3.29-4.47-.689-1.318-1.587-3.043-2.69-5.172-.444-.904-.875-1.79-1.297-2.67-.353.64-.695 1.267-1.029 1.887a437.918 437.918 0 01-1.702 3.134 26.966 26.966 0 00-.888 1.723 15.096 15.096 0 01-1.63 2.704 13.661 13.661 0 01-3.536 3.423 14.66 14.66 0 01-2.21 1.216c-1.148.503-2.319.756-3.491.756-2.618 0-4.781-.392-6.611-1.196-1.985-.874-3.608-2.164-4.828-3.836-1.077-1.476-1.863-3.21-2.335-5.153a44.224 44.224 0 01-.87-4.873 151.26 151.26 0 01-.799-9.537 182.68 182.68 0 01-.242-9.43c0-.418.02-1.306.062-2.664.04-1.329.121-2.88.244-4.646.123-1.758.287-3.62.487-5.54.214-2.052.51-3.975.879-5.717.41-1.934.913-3.556 1.537-4.959 1.65-3.725 4.32-4.516 5.845-4.643.309-.08.622-.159.955-.237.283-.066.545-.131.79-.196.777-.207 1.351-.293 1.937-.293.783 0 1.64.123 2.697.385.995.25 1.958.606 2.873 1.064 1.001.5 1.915 1.123 2.714 1.852 1.506 1.378 2.332 3.177 2.332 5.073 0 .584-.054 1.268-.164 2.09a36.95 36.95 0 01-.34 2.084c-.11.563-.21 1.116-.298 1.67a82.38 82.38 0 01-.262 1.555 137.537 137.537 0 00-.854 7.822c.283-.344.568-.68.856-1.005 1.293-1.464 2.63-2.694 3.978-3.658 1.91-1.37 3.906-2.067 5.928-2.067.497 0 1.173.021 2.033.065 1.117.06 2.217.24 3.275.533a10.73 10.73 0 013.51 1.687c1.85 1.376 2.859 3.408 2.859 5.734 0 .02.003.384.238 1.3.4-2.967.785-5.986 1.153-9.04.367-3.048.553-6.118.553-9.124l-.06-.339-.022-.185a9.207 9.207 0 01.563-4.412c.645-1.679 1.753-3.056 3.206-3.99a11.936 11.936 0 011.744-.957c1.02-.453 1.982-.673 2.943-.673.823 0 1.73.045 2.777.138 1.264.113 2.482.359 3.625.73 1.52.495 2.851 1.285 3.956 2.35 1.088 1.05 2.38 2.915 2.38 5.864 0 6.143-.433 12.332-1.287 18.397a296.414 296.414 0 01-3.061 17.76c-.358 1.751-.727 3.499-1.104 5.246a143.817 143.817 0 01-1.252 5.318l-.037.135a22.816 22.816 0 01-1.139 3.111 13.529 13.529 0 01-2.118 3.332 11.863 11.863 0 01-3.298 2.637c-1.481.8-3.135 1.203-4.925 1.203l-.098-.001z"/><path class="st0" d="M171.968 82.514c-3.652 0-7.054-.776-10.112-2.305-2.963-1.481-5.524-3.48-7.613-5.942-2.035-2.4-3.628-5.164-4.735-8.216a27.747 27.747 0 01-1.658-9.483c0-2.033.018-4.186.058-6.459.044-2.444.24-4.898.583-7.293a39.4 39.4 0 011.758-7.306 22.721 22.721 0 014.023-7.131 16.127 16.127 0 014.992-3.93c2.06-1.045 4.536-1.552 7.573-1.552 2.551 0 4.927.51 7.059 1.516a17.9 17.9 0 015.344 3.865 23.75 23.75 0 013.646 5.061 31.87 31.87 0 012.354 5.588 36.366 36.366 0 011.3 5.72c.269 1.876.405 3.665.405 5.316 0 2.46-.893 4.649-2.581 6.333-1.179 1.18-2.605 2.132-4.229 2.82a19.82 19.82 0 01-4.36 1.27 46.013 46.013 0 01-3.203.452c-1.123.16-2.263.307-3.422.44.143.685.32 1.372.53 2.053.05.166.105.328.16.485a15.956 15.956 0 012.12-1.161c1.308-.596 2.66-.898 4.016-.898.487 0 1.048.039 1.764.122a15.292 15.292 0 015.138 1.594 9.037 9.037 0 013.115 2.616c.78 1.074 1.6 2.815 1.338 5.358a10.284 10.284 0 01-1.484 4.336l-.136.21c-.81 1.189-1.688 2.216-2.61 3.053a12.354 12.354 0 01-3.504 2.245c-1.17.492-2.458.83-3.831 1.005a30.407 30.407 0 01-3.798.218zM236.36 83.458c-.812 0-1.667-.071-2.542-.212a13.055 13.055 0 01-2.91-.825 11.583 11.583 0 01-2.765-1.62 9.306 9.306 0 01-2.412-2.848 7.497 7.497 0 01-.9-2.896 66.506 66.506 0 00-.11-.955l-.463-4.537-1.179.058c-1.82.093-3.67.193-5.548.302l-.008.07a37.659 37.659 0 00-.21 3.791c0 1.82-.587 3.518-1.7 4.909a10.106 10.106 0 01-2.936 2.483c-1.01.57-2.093.994-3.222 1.26a13.201 13.201 0 01-2.992.37c-3.428 0-5.658-1.377-6.925-2.532-1.358-1.236-2.981-3.49-2.981-7.197 0-1.379.115-3.126.352-5.345.225-2.103.556-4.482.983-7.07.428-2.585.96-5.348 1.582-8.21a125.28 125.28 0 012.212-8.695 99.565 99.565 0 012.826-8.32c1.074-2.752 2.265-5.241 3.54-7.397 1.426-2.406 3.036-4.382 4.791-5.878 2.242-1.912 4.828-2.923 7.478-2.923 3.039 0 5.828.936 8.29 2.783 2.048 1.536 3.896 3.574 5.497 6.058 1.451 2.256 2.766 4.879 3.908 7.797a89.389 89.389 0 012.879 8.694 121.88 121.88 0 012.124 9.05 246.19 246.19 0 011.505 8.493c.419 2.652.765 5.093 1.027 7.254.255 2.098.657 5.34.657 5.34v.314c0 1.645-.46 3.186-1.328 4.456a8.245 8.245 0 01-2.922 2.629c-.898.485-1.867.84-2.883 1.059-.894.192-1.808.29-2.715.29zm-15.069-32.986c-.245.835-.479 1.672-.7 2.505l1.245-.065a69.333 69.333 0 00-.544-2.44z"/><path class="st0" d="M256.468 85.463c-2.036 0-4.11-.513-6.162-1.525-2.4-1.183-4.211-3.014-5.24-5.293-.799-1.75-1.377-3.98-1.76-6.799a94.328 94.328 0 01-.718-7.695c-.141-2.623-.232-5.178-.271-7.59a372.74 372.74 0 01-.06-5.831c0-.976.02-2.276.061-3.902.04-1.65.145-3.47.311-5.407.168-1.955.424-3.958.76-5.952.363-2.16.88-4.168 1.533-5.963.755-2.077 1.746-3.842 2.943-5.243 1.759-2.06 4.165-3.195 6.775-3.195 1.383 0 2.853.152 4.37.45 1.257.248 2.42.495 3.492.742a45.564 45.564 0 016.748 2.086c2.41.96 4.582 2.232 6.46 3.782a18.888 18.888 0 014.831 6.07c1.244 2.461 1.875 5.304 1.875 8.453 0 2.439-.658 4.988-1.954 7.577a45.557 45.557 0 01-3.844 6.304 69.429 69.429 0 01-2.348 3.062c.281.077.561.156.84.235 1.511.432 2.943.976 4.256 1.618 1.526.75 2.815 1.633 3.839 2.628 2.075 2.015 2.512 4.212 2.512 5.7 0 3.73-2.264 5.86-4.383 6.61-1.216.429-2.556.645-3.99.645a21.15 21.15 0 01-4.274-.46 249.295 249.295 0 00-3.178-.636c-1.28-.234-2.577-.482-3.878-.74a9.228 9.228 0 01-.369 4.785c-.867 2.465-2.428 3.689-3.646 4.29a9.873 9.873 0 01-3.154 1.023 16.9 16.9 0 01-2.377.17z"/><path class="st0" d="M303.289 82.514c-3.65 0-7.053-.776-10.111-2.305-2.964-1.481-5.526-3.48-7.614-5.942-2.036-2.4-3.627-5.165-4.734-8.216a27.743 27.743 0 01-1.66-9.483c0-2.033.02-4.186.06-6.459a59.2 59.2 0 01.581-7.291c.357-2.501.949-4.96 1.76-7.306a22.721 22.721 0 014.022-7.133 16.127 16.127 0 014.992-3.93c2.06-1.045 4.536-1.552 7.573-1.552 2.552 0 4.927.51 7.059 1.516a17.918 17.918 0 015.344 3.865 23.742 23.742 0 013.646 5.061 31.79 31.79 0 012.353 5.59 36.245 36.245 0 011.301 5.718c.269 1.876.405 3.665.405 5.316 0 2.46-.893 4.649-2.582 6.333-1.178 1.181-2.604 2.133-4.227 2.82a19.819 19.819 0 01-4.36 1.27 45.804 45.804 0 01-3.204.452c-1.122.16-2.263.307-3.422.44.143.686.32 1.372.53 2.053.05.166.105.328.16.485a16.078 16.078 0 012.12-1.161c1.306-.596 2.658-.898 4.017-.898.487 0 1.048.039 1.765.122.799.092 1.65.271 2.523.533.892.268 1.77.625 2.613 1.061a9.026 9.026 0 013.117 2.62c.777 1.07 1.598 2.81 1.336 5.354a10.283 10.283 0 01-1.484 4.336l-.135.208c-.808 1.186-1.685 2.214-2.609 3.053a12.336 12.336 0 01-3.508 2.248c-1.166.49-2.454.828-3.828 1.004-1.132.144-2.41.218-3.8.218zM343.033 85.463c-3.722 0-6.643-1.015-8.682-3.015-1.972-1.934-3.094-4.734-3.337-8.32l-.475-8.092c-.162-2.76-.245-5.569-.245-8.347 0-3.646.123-7.529.365-11.54.242-4.008.588-7.89 1.029-11.537.112-.899.204-1.762.279-2.607.119-1.391.426-2.711.912-3.91.667-1.637 1.715-2.97 3.12-3.967 1.48-1.052 3.351-1.585 5.56-1.585.838 0 1.75.097 2.789.298a14.29 14.29 0 013.175 1.014 10.698 10.698 0 013.171 2.186 7.355 7.355 0 012.187 5.23c0 2.272-.02 4.533-.061 6.785-.04 2.248-.098 4.51-.178 6.78l-.047 1.623c.28-.064.559-.13.839-.195a62.129 62.129 0 013.641-.74c.005-.644.013-1.33.022-2.056.02-1.617.07-3.336.152-5.144.08-1.826.208-3.558.376-5.143.188-1.763.45-3.243.802-4.523.992-3.624 3.101-4.844 4.75-5.218l1.044-.255c.837-.196 1.572-.288 2.281-.288.806 0 1.711.076 2.769.23 1.157.17 2.285.46 3.353.862 1.317.5 2.482 1.198 3.472 2.08a7.338 7.338 0 012.494 5.556l-.005.234a442.93 442.93 0 00-.465 22.648c.037 7.656.057 15.3.057 22.935 0 1.758-.735 3.416-2.07 4.67-.772.722-1.718 1.313-2.819 1.764a15.615 15.615 0 01-5.784 1.115c-1.083 0-2.168-.123-3.223-.363a10.918 10.918 0 01-3.399-1.39 9.021 9.021 0 01-2.932-2.988c-.82-1.35-1.238-2.91-1.238-4.636V65.63c-.311.073-.621.147-.93.224-1.04.258-2.086.525-3.134.802.04.638.09 1.272.15 1.902l.591 6.221c.133 1.49.02 2.888-.33 4.19-.612 2.262-1.826 3.57-2.77 4.28a10.054 10.054 0 01-3.784 1.804c-1.122.272-2.29.41-3.472.41z"/><path class="st0" d="M400.467 82.514c-3.65 0-7.053-.776-10.11-2.305-2.964-1.481-5.526-3.48-7.614-5.942-2.036-2.4-3.628-5.165-4.734-8.216a27.743 27.743 0 01-1.66-9.483c0-2.033.02-4.186.06-6.459a59.2 59.2 0 01.581-7.291c.357-2.501.948-4.96 1.759-7.306a22.721 22.721 0 014.022-7.133 16.128 16.128 0 014.992-3.93c2.06-1.045 4.537-1.552 7.574-1.552 2.552 0 4.926.51 7.059 1.516a17.918 17.918 0 015.344 3.865 23.744 23.744 0 013.645 5.061 31.79 31.79 0 012.354 5.59 36.242 36.242 0 011.301 5.718c.268 1.87.405 3.66.405 5.316 0 2.46-.893 4.649-2.582 6.333-1.179 1.181-2.604 2.133-4.228 2.82a19.82 19.82 0 01-4.36 1.27 45.801 45.801 0 01-3.203.452c-1.122.16-2.263.307-3.422.44.143.686.32 1.372.53 2.053.05.166.104.328.16.485a16.075 16.075 0 012.12-1.161c1.306-.596 2.658-.898 4.016-.898.488 0 1.049.039 1.765.122.8.092 1.65.271 2.523.533.893.268 1.77.625 2.614 1.061a9.026 9.026 0 013.117 2.62c.777 1.07 1.598 2.81 1.335 5.354a10.283 10.283 0 01-1.484 4.336l-.134.208c-.808 1.186-1.685 2.214-2.609 3.053a12.336 12.336 0 01-3.509 2.248c-1.166.49-2.454.828-3.827 1.004-1.133.144-2.41.218-3.8.218z"/><path class="st0" d="M426.648 85.463c-2.037 0-4.11-.513-6.164-1.525-2.4-1.185-4.211-3.015-5.24-5.295-.797-1.749-1.375-3.978-1.759-6.797a93.912 93.912 0 01-.717-7.695c-.14-2.623-.232-5.178-.271-7.59-.04-2.41-.06-4.355-.06-5.831 0-.976.02-2.276.061-3.902.04-1.65.145-3.47.311-5.407.166-1.946.422-3.949.76-5.952.363-2.16.879-4.168 1.534-5.965.753-2.073 1.743-3.838 2.942-5.241 1.759-2.06 4.165-3.195 6.775-3.195 1.384 0 2.853.152 4.37.45a113.3 113.3 0 013.492.742 45.678 45.678 0 016.748 2.086c2.41.96 4.582 2.232 6.46 3.782a18.888 18.888 0 014.832 6.07c1.243 2.46 1.873 5.303 1.873 8.453 0 2.44-.657 4.989-1.953 7.577a45.526 45.526 0 01-3.843 6.303 69.079 69.079 0 01-2.349 3.063c.281.077.561.156.84.235 1.511.432 2.943.976 4.256 1.618 1.528.752 2.816 1.634 3.839 2.628 2.075 2.015 2.512 4.212 2.512 5.7 0 3.73-2.264 5.86-4.383 6.61-1.215.429-2.556.645-3.99.645-1.365 0-2.802-.155-4.274-.46a251.697 251.697 0 00-3.179-.636 261.064 261.064 0 01-3.877-.74 9.229 9.229 0 01-.369 4.785c-.867 2.465-2.428 3.689-3.645 4.29a9.873 9.873 0 01-3.154 1.023 16.9 16.9 0 01-2.378.17z"/><path class="st0" d="M473.469 82.514c-3.65 0-7.053-.776-10.111-2.305-2.964-1.481-5.525-3.48-7.614-5.942-2.036-2.4-3.627-5.165-4.734-8.216a27.74 27.74 0 01-1.66-9.483c0-2.034.02-4.187.06-6.46.043-2.441.239-4.894.582-7.29a39.454 39.454 0 011.758-7.306 22.713 22.713 0 014.023-7.133 16.127 16.127 0 014.992-3.93c2.06-1.045 4.536-1.552 7.573-1.552 2.551 0 4.927.51 7.059 1.516a17.917 17.917 0 015.345 3.865 23.742 23.742 0 013.645 5.061 31.79 31.79 0 012.354 5.59 36.317 36.317 0 011.3 5.718c.269 1.876.405 3.665.405 5.316 0 2.46-.893 4.649-2.581 6.333-1.179 1.18-2.603 2.131-4.227 2.82a19.817 19.817 0 01-4.36 1.27 45.802 45.802 0 01-3.205.452c-1.122.16-2.263.307-3.422.44.144.686.32 1.372.53 2.053.05.166.105.328.16.485a16.08 16.08 0 012.12-1.161c1.306-.596 2.658-.898 4.017-.898.488 0 1.048.039 1.765.122.8.092 1.65.271 2.523.533.893.27 1.77.626 2.613 1.061a9.036 9.036 0 013.115 2.616c.78 1.074 1.6 2.815 1.338 5.358a10.284 10.284 0 01-1.484 4.336l-.136.21c-.81 1.187-1.687 2.214-2.608 3.051a12.337 12.337 0 01-3.508 2.248c-1.166.49-2.454.828-3.828 1.004a30.454 30.454 0 01-3.8.218z"/><g><path class="st1" d="M136.294 29.796a4.167 4.167 0 01.264-2.005c.256-.668.658-1.179 1.21-1.533a7.093 7.093 0 011.061-.59c.354-.156.648-.235.884-.235.668 0 1.444.04 2.329.118.885.08 1.72.246 2.506.501a5.138 5.138 0 012.006 1.18c.55.53.825 1.267.825 2.21 0 5.937-.412 11.834-1.238 17.691a289.333 289.333 0 01-3.008 17.454c-.353 1.73-.718 3.46-1.091 5.19a137.56 137.56 0 01-1.208 5.13c-.237.826-.53 1.631-.885 2.417a8.455 8.455 0 01-1.326 2.093 6.75 6.75 0 01-1.887 1.504c-.728.393-1.563.59-2.506.59-2.046-.04-3.657-.187-4.836-.442-1.18-.257-2.172-.758-2.978-1.504-.807-.747-1.553-1.779-2.24-3.095-.688-1.318-1.583-3.037-2.684-5.16a367.825 367.825 0 01-2.683-5.603 40.882 40.882 0 01-2.21-5.837c-.552.629-1.2 1.553-1.947 2.772a123.393 123.393 0 00-2.27 3.862 218.773 218.773 0 00-2.183 3.95 413.083 413.083 0 01-1.68 3.096c-.354.63-.699 1.298-1.032 2.005a9.872 9.872 0 01-1.15 1.887 7.568 7.568 0 01-.943 1.121 8.514 8.514 0 01-1.298 1.06c-.47.315-.953.58-1.445.797a3.584 3.584 0 01-1.444.325c-1.887 0-3.41-.257-4.57-.767-1.16-.511-2.083-1.238-2.772-2.182-.688-.943-1.188-2.063-1.504-3.361a38.92 38.92 0 01-.766-4.305 145.41 145.41 0 01-.766-9.169 176.49 176.49 0 01-.236-9.17c0-.392.02-1.228.06-2.506.038-1.277.117-2.761.234-4.452.119-1.69.276-3.479.472-5.366s.463-3.616.796-5.19c.334-1.571.738-2.888 1.21-3.95.47-1.062 1.022-1.611 1.651-1.65.197 0 .442-.04.736-.119.296-.078.61-.157.945-.236.333-.078.648-.156.942-.235.296-.079.502-.118.62-.118.354 0 .845.079 1.474.235a8.932 8.932 0 011.827.678 6.811 6.811 0 011.564 1.062c.45.413.678.855.678 1.326 0 .355-.04.826-.119 1.416-.079.59-.176 1.19-.294 1.798-.118.61-.227 1.22-.325 1.828-.097.61-.186 1.131-.264 1.563-.355 2.556-.64 5.111-.855 7.666a91.56 91.56 0 00-.325 7.724c0 1.77.089 3.538.265 5.307.177 1.77.324 3.539.443 5.308.353-.707.845-1.66 1.474-2.86a124.052 124.052 0 012.153-3.921 73.492 73.492 0 012.653-4.305 35.826 35.826 0 013.006-3.951c1.042-1.18 2.084-2.142 3.127-2.89 1.04-.746 2.034-1.12 2.977-1.12.432 0 1.022.02 1.77.06.746.039 1.474.157 2.18.353a5.652 5.652 0 011.86.884c.53.394.795.944.795 1.651 0 .983.284 2.36.855 4.128a83.197 83.197 0 002.004 5.513 168.542 168.542 0 002.3 5.455 156.167 156.167 0 001.8 3.951c.155-.038.293-.236.412-.59.117-.353.195-.59.235-.707a45.582 45.582 0 001.622-7.548c.334-2.594.679-5.15 1.032-7.666.433-3.184.846-6.407 1.238-9.67.393-3.263.59-6.506.59-9.73 0-.196-.01-.384-.03-.56a7.272 7.272 0 00-.087-.56zM181.933 69.128c.313.433.432 1.032.353 1.798a5.232 5.232 0 01-.766 2.211c-.59.865-1.2 1.584-1.827 2.153a7.233 7.233 0 01-2.064 1.327 9.576 9.576 0 01-2.506.648c-.925.118-1.976.177-3.155.177-2.871 0-5.484-.59-7.843-1.769-2.36-1.18-4.364-2.742-6.015-4.688-1.65-1.946-2.928-4.166-3.833-6.663a22.582 22.582 0 01-1.356-7.754c0-2.005.019-4.128.058-6.37.04-2.24.217-4.46.532-6.662a34.231 34.231 0 011.532-6.369 17.584 17.584 0 013.125-5.542 10.95 10.95 0 013.391-2.654c1.317-.668 3.076-1.002 5.278-1.002 1.808 0 3.439.344 4.895 1.031a12.801 12.801 0 013.832 2.771 18.585 18.585 0 012.86 3.98 26.59 26.59 0 011.975 4.69 31.14 31.14 0 011.121 4.923 32.62 32.62 0 01.353 4.6c0 1.1-.363 2.015-1.09 2.74-.727.729-1.602 1.308-2.624 1.741a14.686 14.686 0 01-3.244.943c-1.14.198-2.122.335-2.947.413a127.16 127.16 0 01-4.216.531 38.624 38.624 0 01-4.217.236c0 .865.098 2.074.294 3.626a27.382 27.382 0 001.004 4.63c.47 1.532 1.11 2.859 1.915 3.98.805 1.12 1.82 1.68 3.037 1.68.237-.236.57-.56 1.003-.973.432-.413.922-.815 1.474-1.208a10.75 10.75 0 011.8-1.033c.646-.295 1.285-.442 1.914-.442.276 0 .669.03 1.18.089.51.058 1.062.176 1.652.353.589.177 1.168.413 1.74.708.57.295 1.032.678 1.385 1.15zm-10.32-21.347c0-.628-.03-1.63-.087-3.007a39.229 39.229 0 00-.413-4.187c-.216-1.415-.542-2.653-.974-3.714-.433-1.062-1.042-1.592-1.828-1.592-.787.04-1.454.58-2.004 1.62-.551 1.043-1.004 2.321-1.357 3.834a35.669 35.669 0 00-.766 4.776 47.686 47.686 0 00-.236 4.453c.236 0 .766-.05 1.591-.148.826-.098 1.69-.236 2.596-.413.903-.176 1.71-.403 2.416-.678.709-.274 1.062-.59 1.062-.944zM228.754 64.293c-2.006.079-3.98.167-5.927.265-1.946.099-3.92.206-5.926.324-.59.08-1.19.128-1.798.148-.611.02-1.21.088-1.8.206-.393 1.297-.668 2.713-.825 4.245a42.475 42.475 0 00-.236 4.305c0 .67-.197 1.25-.59 1.74-.393.492-.885.905-1.474 1.238s-1.218.58-1.887.738a8.11 8.11 0 01-1.827.235c-1.455 0-2.625-.403-3.509-1.209-.884-.805-1.327-1.955-1.327-3.45 0-1.179.107-2.78.324-4.805.216-2.024.531-4.285.944-6.781.413-2.496.923-5.15 1.534-7.96.609-2.811 1.315-5.593 2.123-8.345a94.36 94.36 0 012.682-7.901c.983-2.516 2.044-4.738 3.183-6.664 1.141-1.926 2.38-3.459 3.717-4.6 1.335-1.139 2.732-1.71 4.186-1.71 1.925 0 3.675.59 5.248 1.77 1.572 1.178 2.997 2.762 4.275 4.746 1.277 1.986 2.426 4.286 3.45 6.9a83.924 83.924 0 012.712 8.196c.786 2.851 1.465 5.74 2.034 8.668.57 2.93 1.062 5.7 1.475 8.315a203.5 203.5 0 011.002 7.075c.256 2.105.462 3.785.619 5.042 0 .63-.147 1.16-.443 1.593a3.22 3.22 0 01-1.149 1.031 5.75 5.75 0 01-1.533.56 7.85 7.85 0 01-1.651.178c-.552 0-1.131-.05-1.74-.147a7.92 7.92 0 01-1.768-.502 6.5 6.5 0 01-1.564-.914 4.245 4.245 0 01-1.12-1.327 2.442 2.442 0 01-.295-.973c-.04-.373-.079-.716-.117-1.032-.158-1.571-.315-3.115-.472-4.629a199.087 199.087 0 00-.53-4.57zm-6.958-28.6c-.276 0-.453.098-.532.295a51.717 51.717 0 00-2.27 5.278 121.36 121.36 0 00-1.947 5.72 113.507 113.507 0 00-1.65 5.808 156.345 156.345 0 00-1.326 5.602l13.562-.708c0-.825-.099-1.817-.295-2.978a83.744 83.744 0 00-1.768-7.96c-.395-1.435-.796-2.82-1.21-4.158l-1.15-3.714a57.895 57.895 0 00-.944-2.83c-.04-.237-.196-.355-.47-.355zM261.01 76.027a4.244 4.244 0 01-.15 2.27c-.255.727-.638 1.21-1.148 1.445a4.78 4.78 0 01-1.593.53c-.55.079-1.101.119-1.651.119-1.258 0-2.566-.335-3.921-1.003-1.357-.669-2.31-1.612-2.86-2.83-.59-1.298-1.043-3.096-1.357-5.396a88.576 88.576 0 01-.678-7.282 197.109 197.109 0 01-.264-7.401c-.04-2.377-.06-4.294-.06-5.75 0-.943.02-2.2.06-3.773.038-1.572.137-3.272.294-5.1.157-1.828.393-3.676.708-5.544.314-1.866.746-3.557 1.298-5.071.55-1.512 1.228-2.742 2.033-3.685.806-.944 1.778-1.416 2.92-1.416 1.06 0 2.19.118 3.39.354 1.199.236 2.308.472 3.332.708a40.342 40.342 0 016.014 1.857c1.927.767 3.627 1.76 5.101 2.978a13.78 13.78 0 013.538 4.452c.885 1.75 1.327 3.804 1.327 6.162 0 1.652-.472 3.42-1.416 5.308a40.377 40.377 0 01-3.42 5.601 62.121 62.121 0 01-4.186 5.19 173.354 173.354 0 01-3.774 4.068c.51.04 1.257.138 2.24.295a50.75 50.75 0 013.273.649 72 72 0 013.656.943c1.239.354 2.378.787 3.421 1.297 1.04.512 1.887 1.082 2.534 1.71.649.63.974 1.318.974 2.064 0 .983-.335 1.592-1.002 1.828-.67.237-1.436.355-2.3.355-1.023 0-2.104-.118-3.244-.355a252.82 252.82 0 00-3.242-.648c-1.927-.354-3.843-.728-5.75-1.12s-3.804-.786-5.69-1.18c.078.276.176.688.295 1.238.117.552.254 1.18.412 1.887.157.708.314 1.436.473 2.182.155.748.294 1.436.412 2.064zm-2.36-22.762a83.764 83.764 0 002.713-2.86 32.112 32.112 0 002.742-3.478 23.659 23.659 0 002.123-3.804c.57-1.298.855-2.555.855-3.774 0-1.218-.206-2.172-.619-2.86a3.89 3.89 0 00-1.653-1.533c-.686-.333-1.464-.54-2.327-.619a30.11 30.11 0 00-2.714-.118c-.314 2.556-.58 5.111-.796 7.666a91.557 91.557 0 00-.324 7.725v3.655zM313.254 69.128c.314.433.432 1.032.353 1.798a5.232 5.232 0 01-.766 2.211c-.59.865-1.2 1.584-1.827 2.153a7.233 7.233 0 01-2.064 1.327 9.576 9.576 0 01-2.506.648c-.925.118-1.976.177-3.155.177-2.87 0-5.484-.59-7.843-1.769-2.36-1.18-4.364-2.742-6.015-4.688-1.65-1.946-2.928-4.166-3.833-6.663a22.582 22.582 0 01-1.355-7.754c0-2.005.018-4.128.057-6.37.04-2.24.217-4.46.532-6.662a34.23 34.23 0 011.532-6.369 17.583 17.583 0 013.125-5.542 10.95 10.95 0 013.391-2.654c1.318-.668 3.076-1.002 5.278-1.002 1.808 0 3.439.344 4.895 1.031a12.802 12.802 0 013.832 2.771 18.584 18.584 0 012.86 3.98 26.587 26.587 0 011.975 4.69 31.14 31.14 0 011.121 4.923c.236 1.651.353 3.184.353 4.6 0 1.1-.363 2.015-1.09 2.74-.727.729-1.602 1.308-2.624 1.741a14.687 14.687 0 01-3.244.943c-1.14.198-2.122.335-2.947.413-1.377.197-2.782.374-4.216.531a38.625 38.625 0 01-4.217.236c0 .865.098 2.074.294 3.626a27.382 27.382 0 001.004 4.63c.47 1.532 1.11 2.859 1.915 3.98.805 1.12 1.82 1.68 3.038 1.68.236-.236.57-.56 1.002-.973.432-.413.922-.815 1.474-1.208.55-.393 1.15-.737 1.8-1.033.647-.295 1.285-.442 1.914-.442.276 0 .669.03 1.18.089.51.058 1.062.176 1.652.353.59.177 1.169.413 1.74.708.57.295 1.032.678 1.385 1.15zm-10.32-21.347c0-.628-.03-1.63-.087-3.007a39.242 39.242 0 00-.413-4.187c-.216-1.415-.542-2.653-.974-3.714-.433-1.062-1.042-1.592-1.828-1.592-.787.04-1.454.58-2.004 1.62-.551 1.043-1.004 2.321-1.357 3.834a35.678 35.678 0 00-.766 4.776 47.689 47.689 0 00-.236 4.453c.236 0 .766-.05 1.591-.148.826-.098 1.69-.236 2.596-.413.903-.176 1.71-.403 2.417-.678.708-.274 1.061-.59 1.061-.944zM348.34 75.26c.078.865.019 1.66-.178 2.388-.196.728-.51 1.249-.942 1.563a4.976 4.976 0 01-1.917.915 9.591 9.591 0 01-2.27.265c-2.36 0-4.07-.522-5.131-1.563-1.062-1.042-1.67-2.722-1.828-5.042-.157-2.712-.315-5.395-.472-8.049a136.408 136.408 0 01-.236-8.049c0-3.576.119-7.32.355-11.233.236-3.911.57-7.656 1.002-11.234.117-.943.216-1.866.296-2.771.077-.904.264-1.72.56-2.447a3.866 3.866 0 011.355-1.74c.609-.432 1.484-.648 2.625-.648.51 0 1.12.069 1.827.206a9.119 9.119 0 012.034.649c.649.294 1.21.677 1.68 1.15.473.47.709 1.022.709 1.65a374.981 374.981 0 01-.236 13.386l-.117 4.128a38.245 38.245 0 01-.355 4.127c2.478-.55 4.974-1.12 7.49-1.71a55.655 55.655 0 017.548-1.237v-2.3c0-1.18.008-2.556.03-4.128.018-1.572.067-3.233.146-4.983.078-1.749.197-3.36.354-4.835.157-1.474.373-2.713.648-3.715.275-1.003.61-1.542 1.003-1.622.315-.078.678-.166 1.09-.265a4.827 4.827 0 011.092-.147c.55 0 1.228.058 2.034.176s1.572.316 2.3.59a6.011 6.011 0 011.887 1.12c.531.472.795 1.062.795 1.77a445.133 445.133 0 00-.47 22.908c.038 7.646.058 15.283.058 22.91 0 .353-.157.678-.47.972-.316.295-.739.55-1.269.767a10.44 10.44 0 01-1.8.53c-.668.138-1.355.207-2.063.207-.708 0-1.406-.079-2.093-.236a5.858 5.858 0 01-1.828-.737 3.981 3.981 0 01-1.297-1.326c-.335-.552-.502-1.219-.502-2.005v-16.1a74.568 74.568 0 00-7.223 1.416c-2.379.59-4.748 1.22-7.105 1.887 0 2.085.097 4.157.293 6.221l.592 6.221zM410.433 69.128c.313.433.432 1.032.353 1.798a5.232 5.232 0 01-.766 2.211c-.59.865-1.2 1.584-1.828 2.153a7.233 7.233 0 01-2.063 1.327 9.576 9.576 0 01-2.506.648c-.925.118-1.976.177-3.155.177-2.871 0-5.485-.59-7.844-1.769-2.359-1.18-4.363-2.742-6.014-4.688-1.65-1.946-2.929-4.166-3.833-6.663a22.582 22.582 0 01-1.356-7.754c0-2.005.018-4.128.058-6.37.04-2.24.216-4.46.532-6.662a34.23 34.23 0 011.532-6.369 17.583 17.583 0 013.125-5.542 10.951 10.951 0 013.39-2.654c1.318-.668 3.076-1.002 5.279-1.002 1.807 0 3.439.344 4.895 1.031a12.802 12.802 0 013.831 2.771 18.586 18.586 0 012.861 3.98 26.59 26.59 0 011.975 4.69 31.14 31.14 0 011.12 4.923c.237 1.651.354 3.184.354 4.6 0 1.1-.363 2.015-1.091 2.74-.726.729-1.601 1.308-2.623 1.741a14.686 14.686 0 01-3.244.943c-1.14.198-2.122.335-2.947.413-1.377.197-2.782.374-4.217.531a38.625 38.625 0 01-4.216.236c0 .865.097 2.074.294 3.626a27.38 27.38 0 001.004 4.63c.47 1.532 1.109 2.859 1.915 3.98.805 1.12 1.819 1.68 3.037 1.68.236-.236.57-.56 1.002-.973.433-.413.923-.815 1.475-1.208a10.75 10.75 0 011.8-1.033c.646-.295 1.285-.442 1.914-.442.276 0 .669.03 1.18.089.51.058 1.062.176 1.651.353.59.177 1.17.413 1.74.708.57.295 1.032.678 1.386 1.15zm-10.32-21.347c0-.628-.03-1.63-.088-3.007a39.234 39.234 0 00-.412-4.187c-.217-1.415-.542-2.653-.974-3.714-.433-1.062-1.042-1.592-1.828-1.592-.787.04-1.454.58-2.004 1.62-.552 1.043-1.004 2.321-1.357 3.834a35.669 35.669 0 00-.766 4.776 47.68 47.68 0 00-.236 4.453c.236 0 .766-.05 1.591-.148.826-.098 1.69-.236 2.595-.413.903-.176 1.71-.403 2.417-.678.709-.274 1.062-.59 1.062-.944zM431.19 76.027a4.244 4.244 0 01-.15 2.27c-.255.727-.638 1.21-1.148 1.445a4.78 4.78 0 01-1.593.53c-.55.079-1.101.119-1.651.119-1.258 0-2.566-.335-3.921-1.003-1.357-.669-2.31-1.612-2.86-2.83-.59-1.298-1.043-3.096-1.357-5.396a88.567 88.567 0 01-.678-7.282 197.108 197.108 0 01-.264-7.401c-.04-2.377-.06-4.294-.06-5.75 0-.943.02-2.2.06-3.773.038-1.572.137-3.272.294-5.1.156-1.828.393-3.676.708-5.544.314-1.866.746-3.557 1.297-5.071.55-1.512 1.229-2.742 2.034-3.685.806-.944 1.778-1.416 2.92-1.416a17.6 17.6 0 013.39.354c1.199.236 2.308.472 3.332.708a40.341 40.341 0 016.014 1.857c1.927.767 3.627 1.76 5.101 2.978a13.78 13.78 0 013.538 4.452c.885 1.75 1.327 3.804 1.327 6.162 0 1.652-.472 3.42-1.416 5.308a40.375 40.375 0 01-3.42 5.601 62.121 62.121 0 01-4.186 5.19 173.425 173.425 0 01-3.774 4.068c.51.04 1.257.138 2.24.295a50.75 50.75 0 013.273.649c1.198.276 2.418.59 3.656.943 1.239.354 2.378.787 3.421 1.297 1.04.512 1.887 1.082 2.534 1.71.649.63.974 1.318.974 2.064 0 .983-.335 1.592-1.002 1.828-.67.237-1.436.355-2.3.355-1.023 0-2.105-.118-3.244-.355-1.14-.236-2.222-.451-3.242-.648a268.103 268.103 0 01-5.75-1.12c-1.907-.393-3.804-.786-5.69-1.18.078.276.176.688.295 1.238.117.552.254 1.18.412 1.887.157.708.314 1.436.473 2.182.155.748.294 1.436.412 2.064zm-2.36-22.762a83.764 83.764 0 002.713-2.86 32.112 32.112 0 002.742-3.478 23.659 23.659 0 002.123-3.804c.57-1.298.855-2.555.855-3.774 0-1.218-.206-2.172-.619-2.86a3.89 3.89 0 00-1.653-1.533c-.686-.333-1.464-.54-2.327-.619a30.111 30.111 0 00-2.714-.118c-.314 2.556-.58 5.111-.796 7.666a91.557 91.557 0 00-.324 7.725v3.655zM483.434 69.128c.314.433.432 1.032.353 1.798a5.232 5.232 0 01-.766 2.211c-.59.865-1.2 1.584-1.827 2.153a7.233 7.233 0 01-2.064 1.327 9.576 9.576 0 01-2.506.648c-.925.118-1.976.177-3.155.177-2.87 0-5.484-.59-7.843-1.769-2.36-1.18-4.364-2.742-6.015-4.688-1.65-1.946-2.928-4.166-3.833-6.663a22.582 22.582 0 01-1.355-7.754c0-2.005.018-4.128.057-6.37.04-2.24.217-4.46.532-6.662a34.23 34.23 0 011.532-6.369 17.583 17.583 0 013.125-5.542 10.95 10.95 0 013.391-2.654c1.318-.668 3.076-1.002 5.278-1.002 1.808 0 3.439.344 4.895 1.031a12.802 12.802 0 013.832 2.771 18.584 18.584 0 012.86 3.98 26.587 26.587 0 011.975 4.69 31.14 31.14 0 011.121 4.923c.236 1.651.353 3.184.353 4.6 0 1.1-.363 2.015-1.09 2.74-.727.729-1.602 1.308-2.624 1.741a14.686 14.686 0 01-3.244.943c-1.14.198-2.122.335-2.947.413-1.377.197-2.782.374-4.216.531a38.625 38.625 0 01-4.217.236c0 .865.098 2.074.294 3.626a27.38 27.38 0 001.004 4.63c.47 1.532 1.11 2.859 1.915 3.98.806 1.12 1.82 1.68 3.038 1.68.236-.236.57-.56 1.002-.973.432-.413.923-.815 1.474-1.208.55-.393 1.15-.737 1.8-1.033.647-.295 1.285-.442 1.914-.442.276 0 .67.03 1.18.089.511.058 1.062.176 1.652.353.59.177 1.169.413 1.74.708.57.295 1.032.678 1.385 1.15zm-10.32-21.347c0-.628-.03-1.63-.087-3.007a39.242 39.242 0 00-.413-4.187c-.216-1.415-.542-2.653-.974-3.714-.433-1.062-1.042-1.592-1.828-1.592-.787.04-1.454.58-2.004 1.62-.551 1.043-1.004 2.321-1.357 3.834a35.674 35.674 0 00-.766 4.776 47.68 47.68 0 00-.236 4.453c.236 0 .766-.05 1.591-.148.826-.098 1.691-.236 2.596-.413.903-.176 1.71-.403 2.417-.678.708-.274 1.061-.59 1.061-.944z"/></g><path class="st2" d="M81.425 96.806h413.106v49.123H81.425z"/><g><path class="st3" d="M114.27 109.36c.583.086 1.052.356 1.408.808.355.453.49.97.404 1.553a46.211 46.211 0 00-.47 7.083c.033 2.263.103 4.56.21 6.888a58.2 58.2 0 01.098 1.973c.02.669.043 1.337.065 2.005a1.997 1.997 0 01-.566 1.504c-.4.42-.89.641-1.472.663h-.065c-.56 0-1.046-.199-1.455-.598a2.049 2.049 0 01-.647-1.44 957.24 957.24 0 01-.064-1.972 53.85 53.85 0 00-.098-1.941c-.02-.301-.032-.603-.032-.905s-.01-.603-.032-.906c-.95.13-1.897.194-2.846.194h-.242c-.076 0-.168-.01-.275-.032a19.83 19.83 0 01-1.585-.065 30.708 30.708 0 01-1.747-.194 131.517 131.517 0 01-.258 5.854 2.09 2.09 0 01-.663 1.407c-.4.377-.88.565-1.44.565h-.129a2.07 2.07 0 01-1.455-.727c-.388-.442-.561-.943-.518-1.504.216-2.997.312-6 .292-9.007a130.374 130.374 0 00-.389-9.103 1.995 1.995 0 01.502-1.52 2.038 2.038 0 011.439-.712 2.046 2.046 0 011.536.501c.441.378.684.847.728 1.407.108 1.445.188 2.878.242 4.301.054 1.423.092 2.857.113 4.302a28.67 28.67 0 003.332.307 17.378 17.378 0 003.234-.21c-.022-1.402 0-2.82.064-4.253.065-1.434.205-2.916.42-4.447.087-.56.362-1.019.826-1.374.463-.357.975-.49 1.536-.405zM137.394 129.54a2.045 2.045 0 01-.502 1.537 2.013 2.013 0 01-1.438.727h-.162c-.561 0-1.04-.182-1.44-.55-.399-.366-.62-.829-.662-1.39 0-.15-.012-.27-.033-.356a.696.696 0 01-.129.162 6.076 6.076 0 01-1.116.938 9.277 9.277 0 01-1.245.68c-.927.344-1.833.516-2.716.516-.561 0-1.105-.059-1.634-.178a8.646 8.646 0 01-1.6-.533 8.694 8.694 0 01-1.472-.857 9.304 9.304 0 01-1.31-1.148 10.443 10.443 0 01-2.41-3.897c-.528-1.499-.77-3.121-.727-4.867.043-.798.13-1.574.259-2.329.129-.755.323-1.476.582-2.167.496-1.337 1.164-2.5 2.005-3.493.841-1.012 1.812-1.794 2.91-2.344s2.232-.825 3.397-.825c1.767 0 3.32.604 4.656 1.811a2.12 2.12 0 01.728-1.293 1.956 1.956 0 011.407-.485c.56.021 1.045.242 1.456.662.409.42.603.922.582 1.504-.109 3.407-.087 6.635.064 9.686s.334 5.881.55 8.49zm-7.341-2.845c.56-.583.991-1.396 1.293-2.442.302-1.046.453-2.269.453-3.67 0-1.1-.097-2.092-.29-2.976-.195-.884-.46-1.644-.793-2.28-.335-.636-.734-1.12-1.197-1.456a2.621 2.621 0 00-1.568-.5c-.561 0-1.132.161-1.714.484-.583.324-1.105.793-1.57 1.407-.463.615-.85 1.358-1.163 2.232-.313.873-.48 1.86-.501 2.96-.044 1.163.102 2.236.436 3.217.334.981.835 1.816 1.504 2.507.431.452.91.803 1.439 1.05.528.248 1.05.372 1.569.372.819 0 1.52-.301 2.102-.905zM154.89 111.85c1.035 1.079 1.827 2.35 2.377 3.817.55 1.466.803 3.061.76 4.786a14.313 14.313 0 01-.84 4.528 12.068 12.068 0 01-2.038 3.557c-.906 1.035-1.92 1.833-3.04 2.394-1.121.56-2.275.84-3.46.84a6.914 6.914 0 01-2.588-.517 6.696 6.696 0 01-1.617-.97c-.043 1.509-.08 2.927-.113 4.252a56.998 56.998 0 01-.178 3.477 2.034 2.034 0 01-.663 1.39c-.399.367-.879.55-1.439.55h-.162a2.024 2.024 0 01-1.44-.727 2.047 2.047 0 01-.5-1.536 129.1 129.1 0 00.178-3.412c.053-1.326.091-2.755.112-4.285s.028-3.132.017-4.803l-.033-4.948a322.323 322.323 0 00-.064-4.706c-.032-1.509-.06-2.889-.08-4.14a1.992 1.992 0 01.565-1.503 2.06 2.06 0 011.472-.663 1.991 1.991 0 011.455.517c.409.367.635.82.679 1.358 1.4-1.229 2.986-1.843 4.754-1.843 1.078 0 2.134.227 3.17.68a9.281 9.281 0 012.716 1.907zm-1.067 8.538c.021-1.164-.135-2.22-.47-3.169-.334-.948-.824-1.757-1.47-2.426-.885-.883-1.844-1.325-2.88-1.325-.99 0-1.81.453-2.457 1.358-.345.431-.674 1.105-.986 2.02-.313.918-.48 2.174-.501 3.768-.022 1.424.113 2.658.404 3.704.29 1.046.716 1.849 1.277 2.41.56.56 1.197.84 1.908.84.56 0 1.132-.156 1.714-.47a5.46 5.46 0 001.585-1.309 7.632 7.632 0 001.359-2.41c.323-.916.495-1.912.517-2.99zM174.682 111.85c1.035 1.079 1.827 2.35 2.378 3.817.55 1.466.802 3.061.76 4.786a14.313 14.313 0 01-.842 4.528 12.068 12.068 0 01-2.037 3.557c-.906 1.035-1.92 1.833-3.04 2.394-1.121.56-2.275.84-3.46.84a6.914 6.914 0 01-2.587-.517 6.696 6.696 0 01-1.618-.97c-.043 1.509-.08 2.927-.113 4.252a56.998 56.998 0 01-.178 3.477 2.034 2.034 0 01-.663 1.39c-.399.367-.879.55-1.439.55h-.162a2.024 2.024 0 01-1.439-.727 2.047 2.047 0 01-.501-1.536c.064-.95.124-2.087.178-3.412.053-1.326.091-2.755.113-4.285.021-1.531.027-3.132.016-4.803l-.032-4.948a322.323 322.323 0 00-.065-4.706c-.032-1.509-.06-2.889-.08-4.14a1.992 1.992 0 01.565-1.503 2.06 2.06 0 011.472-.663 1.991 1.991 0 011.455.517c.41.367.636.82.679 1.358 1.401-1.229 2.986-1.843 4.754-1.843 1.078 0 2.135.227 3.17.68a9.281 9.281 0 012.716 1.907zm-1.067 8.538c.022-1.164-.135-2.22-.469-3.169-.335-.948-.824-1.757-1.471-2.426-.885-.883-1.844-1.325-2.879-1.325-.992 0-1.81.453-2.457 1.358-.345.431-.675 1.105-.987 2.02-.313.918-.48 2.174-.501 3.768-.022 1.424.113 2.658.404 3.704.29 1.046.717 1.849 1.277 2.41.56.56 1.197.84 1.909.84.56 0 1.132-.156 1.714-.47a5.46 5.46 0 001.584-1.309 7.632 7.632 0 001.359-2.41c.323-.916.495-1.912.517-2.99zM193.278 109.522c.561.173.97.512 1.23 1.019.258.507.301 1.04.13 1.6a168.82 168.82 0 00-1.796 5.951c-.507 1.81-.976 3.525-1.407 5.142-.367 1.38-.727 2.717-1.084 4.01a88.118 88.118 0 01-1.147 3.833 80.905 80.905 0 01-1.342 3.8 53.283 53.283 0 01-1.666 3.88 2.033 2.033 0 01-.776.874 2.043 2.043 0 01-1.1.324c-.323 0-.625-.065-.905-.195-.54-.237-.9-.63-1.084-1.18a2.197 2.197 0 01.081-1.633c.41-.841.782-1.677 1.116-2.506.334-.83.652-1.656.954-2.475-.022-.022-.032-.054-.032-.097a50.39 50.39 0 01-1.536-5.077c-.4-1.638-.782-3.299-1.149-4.98-.323-1.424-.68-2.938-1.067-4.544a136.35 136.35 0 00-1.423-5.353 1.933 1.933 0 01.162-1.585c.28-.495.7-.83 1.261-1.002a2.08 2.08 0 011.6.194c.507.28.847.69 1.02 1.229.56 2.005 1.04 3.832 1.439 5.482.399 1.649.76 3.196 1.083 4.64.151.647.296 1.278.437 1.892.14.615.286 1.235.437 1.86.107-.41.22-.814.339-1.213.119-.398.231-.814.34-1.245a329 329 0 011.422-5.223 208.517 208.517 0 011.812-6.064c.172-.56.517-.97 1.035-1.229a2.106 2.106 0 011.616-.129zM212.455 131.837c-.41 0-.82-.033-1.229-.097a8.417 8.417 0 01-3.023-1.003 7.718 7.718 0 01-2.377-2.102c-1.488-1.919-2.21-4.538-2.167-7.859.043-3.73.83-6.586 2.361-8.57a7.964 7.964 0 012.652-2.231 7.85 7.85 0 013.007-.776 9.166 9.166 0 014.98 1.196c.842.497 1.515 1.073 2.022 1.73.506.658.803 1.343.89 2.054.064.582-.081 1.1-.437 1.552a1.998 1.998 0 01-1.407.777 1.881 1.881 0 01-1.504-.389 2.19 2.19 0 01-.825-1.358c-.043-.086-.172-.226-.387-.42-.216-.195-.518-.377-.906-.55a4.903 4.903 0 00-1.374-.372 4.289 4.289 0 00-1.343.049c-.755.15-1.364.506-1.827 1.067a6.07 6.07 0 00-1.067 1.924 10.41 10.41 0 00-.501 2.264c-.087.787-.13 1.493-.13 2.118-.043 2.308.389 4.054 1.294 5.24.668.862 1.54 1.358 2.62 1.487a5.59 5.59 0 001.584-.032 5.63 5.63 0 001.552-.486c.431-.215.755-.436.97-.663.216-.226.345-.415.389-.566.15-.56.473-.991.97-1.293a1.954 1.954 0 011.585-.227c.56.151.991.475 1.293.97.302.497.377 1.025.227 1.585-.216.863-.68 1.66-1.391 2.394a8.239 8.239 0 01-2.167 1.552 9.567 9.567 0 01-4.334 1.035zM238.393 131.74a2.02 2.02 0 01-1.44-.566c-.4-.377-.62-.846-.662-1.407a70.209 70.209 0 00-.21-2.231c-.077-.668-.174-1.434-.292-2.296a36.96 36.96 0 00-.469-2.653c-.453-2.07-.949-3.697-1.487-4.883-.324-.711-.594-1.175-.81-1.39-.215-.216-.344-.335-.387-.356-.043.021-.194.14-.453.355-.259.216-.604.701-1.035 1.456-.668 1.186-1.315 2.824-1.94 4.916-.281.905-.529 1.795-.744 2.667a89.69 89.69 0 00-.55 2.346c-.15.69-.302 1.455-.453 2.296-.107.539-.366.975-.776 1.31-.41.334-.895.479-1.455.436a2.027 2.027 0 01-1.358-.647 2.115 2.115 0 01-.583-1.423l-.355-20.051a1.918 1.918 0 01.582-1.488c.41-.409.905-.625 1.487-.646a1.921 1.921 0 011.488.582c.41.41.625.905.647 1.487l.13 6.597c.086-.172.171-.339.258-.5.086-.162.183-.33.291-.502.302-.496.609-.932.922-1.31.312-.376.64-.706.986-.986.603-.474 1.17-.781 1.698-.921s.976-.2 1.342-.178c1.1.064 2.08.496 2.943 1.293.625.604 1.197 1.402 1.714 2.394.754 1.509 1.391 3.481 1.909 5.917.214 1.015.398 2 .55 2.96.15.96.268 1.816.355 2.57.085.756.15 1.37.194 1.844.043.475.064.733.064.776.044.561-.129 1.062-.517 1.504-.388.442-.863.685-1.423.728h-.161zM247.77 110.136c.454.518.68 1.079.68 1.682 0 .626-.226 1.197-.679 1.714-.28.28-.594.496-.938.647-.496.216-1.067.323-1.714.323-.302 0-.604-.027-.905-.08a3.404 3.404 0 01-.81-.243 2.943 2.943 0 01-.517-.291 3.27 3.27 0 01-.42-.356 2.393 2.393 0 01-.68-1.714c0-.625.227-1.185.68-1.682a2.983 2.983 0 01.937-.646c.238-.108.507-.189.81-.243.3-.053.603-.081.905-.081.647 0 1.218.108 1.714.324.344.173.657.387.938.646zm-.485 7.439c.216 1.293.308 2.587.276 3.88s-.081 2.534-.146 3.72a96.55 96.55 0 00-.097 2.36c-.022.755.01 1.38.097 1.877a2.022 2.022 0 01-.392 1.568 2.054 2.054 0 01-1.4.824 1.167 1.167 0 01-.326.033c-.5 0-.951-.167-1.353-.502a2.048 2.048 0 01-.733-1.277 13.962 13.962 0 01-.13-2.393c.022-.862.065-1.767.13-2.716.043-1.078.076-2.195.098-3.348a18.902 18.902 0 00-.228-3.347c-.086-.56.044-1.078.391-1.552a2.144 2.144 0 011.369-.874 2.057 2.057 0 011.564.389c.478.345.771.797.88 1.358zM253.721 131.772h-.032a2.12 2.12 0 01-1.423-.582c-.389-.366-.604-.83-.647-1.39l-1.197-18.079a1.963 1.963 0 01.518-1.52 2.095 2.095 0 011.455-.711 1.966 1.966 0 011.52.517c.431.388.668.873.711 1.456l.194 2.878c.195-.475.4-.917.615-1.326.582-1.143 1.218-2.027 1.908-2.652.625-.56 1.224-.91 1.795-1.051.571-.14 1.073-.2 1.504-.178.41.043.884.167 1.423.372.538.205 1.088.609 1.65 1.213.646.711 1.184 1.627 1.616 2.749.69 1.703 1.197 3.967 1.52 6.791a46.86 46.86 0 01.324 3.363 88.34 88.34 0 01.161 5.03v.889a2.14 2.14 0 01-.63 1.455c-.4.41-.89.614-1.472.614-.022 0-.032-.01-.032-.032a1.95 1.95 0 01-1.472-.63c-.399-.42-.598-.922-.598-1.504a79.573 79.573 0 00-.162-5.547 55.678 55.678 0 00-.29-3.185c-.303-2.48-.723-4.388-1.262-5.724-.258-.626-.485-1.051-.68-1.278-.193-.226-.322-.35-.387-.372-.044.022-.162.119-.356.29-.194.174-.442.546-.744 1.117-.302.572-.636 1.38-1.002 2.426-.367 1.046-.744 2.453-1.133 4.22a50.548 50.548 0 00-.598 3.105c-.162 1.013-.296 1.919-.404 2.716a113.78 113.78 0 00-.323 2.652 2 2 0 01-.663 1.359c-.4.366-.868.55-1.407.55zM278.235 131.804a8.877 8.877 0 01-2.943-.485c-1.94-.69-3.417-1.983-4.43-3.88-1.1-1.984-1.553-4.485-1.359-7.503.108-1.596.383-3.057.825-4.383.442-1.325 1.051-2.474 1.827-3.444a8.265 8.265 0 012.62-2.2c1.056-.517 2.123-.764 3.201-.743 1.1.044 2.135.335 3.105.873a8.15 8.15 0 012.49 2.36c.712.993 1.25 2.168 1.617 3.527.367 1.358.571 2.845.615 4.462 0 .604-.226 1.132-.679 1.585-.475.41-1.014.593-1.617.55a25.069 25.069 0 00-3.477-.08c-1.154.053-2.345.123-3.574.209-.431.044-.872.076-1.325.097l-1.359.065c.13 1.035.388 1.908.776 2.62.474.927 1.186 1.563 2.135 1.907.992.324 2.048.324 3.17 0a4.587 4.587 0 001.325-.565c.389-.248.69-.523.906-.825.323-.474.77-.76 1.342-.857a2.002 2.002 0 011.568.372c.474.323.76.77.858 1.342a2.069 2.069 0 01-.34 1.568 7.174 7.174 0 01-1.892 1.796c-.766.506-1.622.91-2.57 1.212-.476.13-.945.232-1.408.308a8.746 8.746 0 01-1.407.112zm-.42-18.434c-.862 0-1.65.453-2.361 1.359-.302.366-.598.857-.89 1.471-.29.615-.522 1.418-.695 2.41l1.132-.065c.388-.021.776-.054 1.165-.097.861-.043 1.724-.091 2.587-.146.862-.053 1.746-.08 2.652-.08-.13-.842-.313-1.536-.55-2.087a8.028 8.028 0 00-.712-1.342c-.668-.948-1.434-1.423-2.296-1.423h-.032zM296.443 131.772c-1.121 0-2.221-.15-3.3-.453-1.185-.323-2.193-.797-3.023-1.423-.83-.624-1.439-1.368-1.827-2.23a2.056 2.056 0 01-.049-1.618 2.013 2.013 0 011.116-1.165 2.061 2.061 0 011.617-.048c.539.205.927.577 1.164 1.116.13.28.394.539.793.776.399.238.884.432 1.455.582a8.31 8.31 0 001.86.259 7.866 7.866 0 002.005-.194c.129-.022.318-.07.566-.146a4.37 4.37 0 00.744-.307c.247-.13.458-.285.63-.469a.934.934 0 00.26-.663 1.15 1.15 0 00-.082-.323c-.054-.151-.264-.345-.63-.583a8.744 8.744 0 00-1.424-.743 52.414 52.414 0 00-1.778-.711c-.863-.346-1.714-.701-2.555-1.068a11.298 11.298 0 01-2.361-1.39c-1.919-1.445-2.846-3.31-2.781-5.596.107-1.918.83-3.438 2.167-4.56 1.142-.926 2.554-1.476 4.236-1.65.949-.106 1.913-.08 2.894.082.982.161 1.925.426 2.83.792 1.079.453 1.951 1.014 2.62 1.682.668.669 1.1 1.412 1.293 2.232.151.56.07 1.089-.242 1.584-.313.496-.75.82-1.31.97-.56.13-1.083.044-1.568-.258s-.803-.733-.954-1.294c-.044-.107-.2-.27-.47-.485-.27-.215-.684-.43-1.245-.647a7.531 7.531 0 00-1.891-.469 6.067 6.067 0 00-1.828.048c-.56.087-.997.222-1.31.405-.312.183-.544.377-.695.582-.15.205-.242.415-.275.63s-.048.389-.048.518c-.022.432.053.809.226 1.132.173.324.464.637.873.938a8.955 8.955 0 001.796 1.002c.7.303 1.406.604 2.118.906.711.28 1.417.566 2.118.857.7.292 1.342.642 1.924 1.052 1.66 1.12 2.512 2.543 2.556 4.268.042 1.596-.55 2.933-1.78 4.01-.97.841-2.198 1.423-3.686 1.747-.432.108-.879.189-1.343.243s-.933.08-1.406.08zM315.814 131.804a8.877 8.877 0 01-2.943-.485c-1.94-.69-3.417-1.983-4.43-3.88-1.1-1.984-1.553-4.485-1.359-7.503.108-1.596.383-3.057.825-4.383.441-1.325 1.051-2.474 1.827-3.444a8.265 8.265 0 012.62-2.2c1.056-.517 2.123-.764 3.201-.743 1.1.044 2.135.335 3.105.873a8.15 8.15 0 012.49 2.36c.711.993 1.25 2.168 1.617 3.527.367 1.358.571 2.845.615 4.462 0 .604-.226 1.132-.68 1.585-.474.41-1.013.593-1.617.55a25.07 25.07 0 00-3.476-.08c-1.154.053-2.345.123-3.574.209-.431.044-.873.076-1.325.097l-1.36.065c.13 1.035.39 1.908.777 2.62.474.927 1.186 1.563 2.135 1.907.991.324 2.048.324 3.17 0a4.587 4.587 0 001.325-.565c.388-.248.69-.523.906-.825.323-.474.77-.76 1.342-.857a2.002 2.002 0 011.568.372c.474.323.76.77.857 1.342a2.069 2.069 0 01-.34 1.568 7.174 7.174 0 01-1.891 1.796c-.766.506-1.623.91-2.571 1.212-.475.13-.944.232-1.407.308a8.745 8.745 0 01-1.407.112zm-.42-18.434c-.863 0-1.65.453-2.361 1.359-.302.366-.598.857-.89 1.471-.29.615-.522 1.418-.695 2.41l1.132-.065c.388-.021.776-.054 1.164-.097.862-.043 1.725-.091 2.587-.146.863-.053 1.747-.08 2.653-.08-.13-.842-.313-1.536-.55-2.087a8.028 8.028 0 00-.712-1.342c-.668-.948-1.434-1.423-2.296-1.423h-.032zM335.703 131.837c-.56 0-1.04-.189-1.439-.566-.399-.377-.62-.846-.663-1.407 0-.021-.016-.296-.048-.825a95.612 95.612 0 01-.098-2.085 380.81 380.81 0 01-.096-2.927 113.03 113.03 0 01-.049-3.347 80.071 80.071 0 01.016-3.655c.033-1.078.08-2.016.146-2.814.107-1.078.247-1.908.42-2.49.13-.453.291-.841.485-1.164.302-.474.636-.782 1.003-.922.366-.14.668-.22.906-.243.387-.021.738.033 1.05.162a3.389 3.389 0 011.407 1.083c.15.206.26.362.324.47.172.302.366.647.582 1.034.215.389.442.841.679 1.359.409.927.84 1.962 1.294 3.104.452 1.144.905 2.296 1.358 3.46.194.497.388.987.582 1.472.194.486.377.955.55 1.407a42.41 42.41 0 00.032-1.73c0-.636.011-1.33.032-2.086 0-.991-.01-1.951-.032-2.878a322.35 322.35 0 01-.048-2.474 53.371 53.371 0 00-.081-2.41c-.022-.56.168-1.056.57-1.488a2.057 2.057 0 011.483-.678 2.021 2.021 0 011.515.566c.424.399.647.889.669 1.471.042.992.07 1.892.08 2.7.01.809.022 1.726.033 2.75.01 1.023.016 2.085.016 3.185 0 2.587-.065 4.69-.195 6.307-.107 1.38-.265 2.425-.47 3.136-.206.712-.513 1.251-.924 1.618a2.416 2.416 0 01-1.882.614c-.584-.065-1.054-.285-1.41-.663a7.805 7.805 0 01-.893-1.116c-.324-.517-.692-1.25-1.103-2.2-.368-.818-.757-1.74-1.168-2.764a251.388 251.388 0 01-1.265-3.218l-.778-2.005a96.855 96.855 0 00-.778-1.94 132.95 132.95 0 000 4.204c.02 1.013.042 1.983.064 2.91.021.927.048 1.747.08 2.458.033.712.082 1.51.146 2.393a1.941 1.941 0 01-.533 1.52c-.4.432-.89.669-1.472.712h-.097zM359.862 131.804a8.877 8.877 0 01-2.944-.485c-1.94-.69-3.417-1.983-4.43-3.88-1.1-1.984-1.553-4.485-1.358-7.503.107-1.596.382-3.057.825-4.383.441-1.325 1.05-2.474 1.827-3.444a8.265 8.265 0 012.62-2.2c1.055-.517 2.123-.764 3.2-.743 1.1.044 2.136.335 3.106.873a8.15 8.15 0 012.49 2.36c.711.993 1.25 2.168 1.617 3.527.366 1.358.57 2.845.615 4.462 0 .604-.227 1.132-.68 1.585-.474.41-1.013.593-1.617.55a25.07 25.07 0 00-3.477-.08c-1.153.053-2.344.123-3.573.209-.432.044-.873.076-1.326.097l-1.358.065c.13 1.035.388 1.908.776 2.62.474.927 1.185 1.563 2.134 1.907.992.324 2.049.324 3.17 0a4.588 4.588 0 001.326-.565c.388-.248.69-.523.906-.825.323-.474.77-.76 1.341-.857a2.002 2.002 0 011.569.372c.474.323.76.77.857 1.342a2.069 2.069 0 01-.34 1.568 7.174 7.174 0 01-1.891 1.796c-.766.506-1.623.91-2.571 1.212-.475.13-.944.232-1.407.308a8.745 8.745 0 01-1.407.112zm-.42-18.434c-.863 0-1.65.453-2.362 1.359-.302.366-.598.857-.889 1.471-.291.615-.523 1.418-.695 2.41l1.131-.065a20.83 20.83 0 001.165-.097c.862-.043 1.724-.091 2.587-.146.863-.053 1.746-.08 2.652-.08-.13-.842-.313-1.536-.55-2.087a8.028 8.028 0 00-.711-1.342c-.668-.948-1.434-1.423-2.296-1.423h-.032zM374.997 131.804c-.238 0-.453-.032-.647-.096-.604-.173-1.057-.485-1.358-.938a6.65 6.65 0 01-.68-1.262c-.237-.603-.474-1.433-.71-2.49-.174-.82-.34-1.768-.502-2.846a95.623 95.623 0 01-.469-3.654c-.13-1.143-.248-2.259-.356-3.347-.108-1.09-.2-2.06-.275-2.911-.075-.852-.145-1.806-.21-2.863a1.964 1.964 0 01.518-1.52 2.07 2.07 0 011.422-.711 2.017 2.017 0 011.536.518c.442.388.685.873.728 1.455l.178 2.458a179.728 179.728 0 00.501 5.466 97.8 97.8 0 00.324 2.764c.107.809.215 1.526.323 2.151.367-1.272.787-2.9 1.262-4.883.215-1.013.425-1.99.63-2.927.205-.938.377-1.773.517-2.507.14-.732.308-1.541.502-2.425.107-.517.361-.938.76-1.261a1.982 1.982 0 011.374-.453c.54.022.997.21 1.375.566a2 2 0 01.63 1.342c.086.884.179 1.687.275 2.41a150.15 150.15 0 00.825 5.352c.366 2.113.728 3.746 1.084 4.9.355 1.153.651 2.01.889 2.57.086-.28.188-.635.307-1.067.119-.431.242-.948.372-1.552.13-.603.259-1.31.388-2.118.13-.81.26-1.741.388-2.798.13-.991.232-1.956.307-2.894.076-.938.135-1.763.178-2.474.044-.712.086-1.51.13-2.394a2.188 2.188 0 01.695-1.471c.42-.4.922-.588 1.504-.566.56.043 1.04.275 1.439.695.399.42.587.922.566 1.504a61.305 61.305 0 01-.161 3.008 131.05 131.05 0 01-.26 2.927 114.254 114.254 0 01-.388 3.379c-.345 2.76-.787 4.97-1.325 6.63-.367 1.121-.766 1.994-1.197 2.62-.496.69-1.003 1.143-1.52 1.358-.517.215-.97.323-1.359.323-.366 0-.813-.097-1.342-.29-.528-.195-1.04-.626-1.536-1.294-.496-.669-.949-1.531-1.358-2.588-.453-1.229-.895-2.781-1.326-4.657a59.634 59.634 0 01-1.132 4.01c-.431 1.359-.836 2.367-1.213 3.024-.377.658-.803 1.138-1.277 1.44a2.55 2.55 0 01-1.326.387zM414.775 109.328c.54.237.922.62 1.149 1.148a2.02 2.02 0 01.016 1.6c-.367.906-.701 1.753-1.003 2.54a53.517 53.517 0 00-.809 2.247c-.237.712-.458 1.39-.662 2.037-.205.647-.405 1.284-.599 1.909-.237.733-.469 1.466-.695 2.199-.226.733-.48 1.493-.76 2.28s-.593 1.617-.938 2.49a58.546 58.546 0 01-1.197 2.797 2.1 2.1 0 01-.776.922c-.345.227-.722.34-1.132.34-.302 0-.582-.065-.84-.194a2.008 2.008 0 01-1.117-1.164 2.056 2.056 0 01.05-1.618c.366-.84.7-1.627 1.002-2.36.301-.733.57-1.434.808-2.103a119.744 119.744 0 01-1.584-2.522 78.874 78.874 0 01-1.763-3.024 54.448 54.448 0 01-1.681-3.283c-.53-1.12-.977-2.199-1.343-3.234-.194-.56-.167-1.099.081-1.616a2.02 2.02 0 011.213-1.068c.56-.172 1.1-.134 1.617.114s.873.652 1.067 1.212a30.146 30.146 0 001.811 4.14 70.107 70.107 0 002.297 4.075c.387-1.25.808-2.56 1.26-3.93a79.17 79.17 0 011.78-4.77c.236-.538.619-.922 1.148-1.148a2.015 2.015 0 011.6-.016zM426.806 131.804a8.877 8.877 0 01-2.943-.485c-1.94-.69-3.418-1.983-4.43-3.88-1.1-1.984-1.553-4.485-1.36-7.503.109-1.596.384-3.057.826-4.383.441-1.325 1.051-2.474 1.827-3.444a8.265 8.265 0 012.62-2.2c1.055-.517 2.123-.764 3.201-.743 1.1.044 2.135.335 3.105.873a8.15 8.15 0 012.49 2.36c.711.993 1.25 2.168 1.617 3.527.367 1.358.571 2.845.615 4.462 0 .604-.226 1.132-.68 1.585-.474.41-1.013.593-1.617.55a25.07 25.07 0 00-3.476-.08c-1.154.053-2.345.123-3.574.209-.431.044-.873.076-1.326.097l-1.358.065c.13 1.035.388 1.908.776 2.62.474.927 1.186 1.563 2.135 1.907.991.324 2.048.324 3.17 0a4.588 4.588 0 001.325-.565c.388-.248.69-.523.906-.825.323-.474.77-.76 1.342-.857a2.002 2.002 0 011.568.372c.474.323.76.77.857 1.342a2.069 2.069 0 01-.34 1.568 7.174 7.174 0 01-1.891 1.796c-.766.506-1.623.91-2.57 1.212-.476.13-.945.232-1.408.308a8.745 8.745 0 01-1.407.112zm-.42-18.434c-.863 0-1.65.453-2.361 1.359-.302.366-.598.857-.89 1.471-.29.615-.522 1.418-.695 2.41l1.132-.065c.388-.021.776-.054 1.164-.097.862-.043 1.725-.091 2.587-.146.863-.053 1.747-.08 2.653-.08-.13-.842-.313-1.536-.55-2.087a8.028 8.028 0 00-.712-1.342c-.668-.948-1.434-1.423-2.296-1.423h-.032zM455.168 129.54a2.045 2.045 0 01-.501 1.537 2.013 2.013 0 01-1.439.727h-.162c-.56 0-1.04-.182-1.439-.55-.4-.366-.62-.829-.662-1.39 0-.15-.012-.27-.033-.356a.696.696 0 01-.13.162 6.076 6.076 0 01-1.116.938 9.275 9.275 0 01-1.245.68c-.927.344-1.832.516-2.716.516-.561 0-1.105-.059-1.633-.178a8.647 8.647 0 01-1.6-.533 8.694 8.694 0 01-1.472-.857 9.303 9.303 0 01-1.31-1.148 10.444 10.444 0 01-2.41-3.897c-.529-1.499-.77-3.121-.727-4.867.042-.798.129-1.574.258-2.329.13-.755.324-1.476.582-2.167.496-1.337 1.165-2.5 2.005-3.493.842-1.012 1.812-1.794 2.911-2.344 1.1-.55 2.232-.825 3.396-.825 1.767 0 3.32.604 4.657 1.811a2.12 2.12 0 01.728-1.293 1.956 1.956 0 011.407-.485c.56.021 1.045.242 1.455.662.41.42.603.922.582 1.504a119.45 119.45 0 00.065 9.686c.15 3.051.334 5.881.55 8.49zm-7.34-2.845c.56-.583.99-1.396 1.293-2.442.302-1.046.453-2.269.453-3.67 0-1.1-.097-2.092-.291-2.976-.195-.884-.46-1.644-.793-2.28-.334-.636-.733-1.12-1.196-1.456a2.621 2.621 0 00-1.569-.5c-.56 0-1.132.161-1.714.484-.582.324-1.105.793-1.569 1.407-.464.615-.851 1.358-1.164 2.232-.313.873-.48 1.86-.5 2.96-.045 1.163.101 2.236.435 3.217.334.981.836 1.816 1.504 2.507.432.452.911.803 1.44 1.05.528.248 1.05.372 1.568.372.819 0 1.52-.301 2.102-.905zM460.294 131.869h-.098a2.178 2.178 0 01-1.467-.679 1.963 1.963 0 01-.553-1.487c.043-2.695.016-5.396-.08-8.102-.098-2.705-.211-5.406-.34-8.101-.022-.345-.038-.69-.05-1.035-.01-.345-.026-.69-.047-1.035a1.886 1.886 0 01.536-1.504c.4-.42.894-.652 1.48-.695a1.915 1.915 0 011.516.534c.423.399.657.889.7 1.471.022.237.033.485.033.744s.011.506.032.744a7.814 7.814 0 011.815-2.167c1.574-1.272 3.396-1.628 5.465-1.067 1.488.431 2.792 1.315 3.914 2.651.56.647 1.007 1.3 1.342 1.957.334.658.598 1.235.792 1.73.194.561.173 1.1-.065 1.618a2.084 2.084 0 01-1.164 1.099c-.56.215-1.1.205-1.617-.032-.517-.237-.884-.636-1.1-1.197-.15-.388-.334-.781-.55-1.18a7.988 7.988 0 00-.727-1.116 5.699 5.699 0 00-.905-.922 3.062 3.062 0 00-1.051-.566c-.453-.108-.804-.124-1.051-.048a2.011 2.011 0 00-.631.307c-.518.453-1.003 1.229-1.456 2.328a28.15 28.15 0 00-1.099 3.348c-.303 1.153-.55 2.323-.744 3.509s-.35 2.36-.469 3.525a79.355 79.355 0 00-.275 3.395 2.113 2.113 0 01-.652 1.407 1.987 1.987 0 01-1.434.566z"/></g><g><path class="st4" d="M35.28 14.168c-.143-.086-.282-.167-.422-.25-.305-.028-.607-.062-.913-.087a88.3 88.3 0 011.334.337z"/><path class="st4" d="M34.413 13.902c-.112.066-.226.133-.34.202.366-.094.732-.189 1.078-.273-.248.02-.491.048-.738.07z"/><path class="st0" d="M40.028 131.021H29.196v-3.623a4.476 4.476 0 014.476-4.476h1.88a4.476 4.476 0 014.476 4.476v3.623zM33.797 96.806h1.63v24.061h-1.63z"/><path class="st0" d="M29.196 130.458h1.048v15.471h-1.048zM31.521 130.458h1.048v15.471h-1.048zM38.98 130.458h1.048v15.471H38.98zM36.786 130.458h1.048v15.471h-1.048zM34.088 130.458h1.048v15.471h-1.048zM16.448 101.482h36.327v5.796H16.448zM18.728 15.708h31.767V10.31a3.366 3.366 0 00-3.366-3.366H22.095a3.366 3.366 0 00-3.367 3.366v5.4z"/><circle class="st0" cx="34.612" cy="3.744" r="3.744"/><path class="st2" d="M55.642 102.84h-42.06C6.08 102.84 0 96.76 0 89.26V27.75c0-7.5 6.08-13.582 13.582-13.582h42.06c7.501 0 13.582 6.081 13.582 13.582V89.26c0 7.5-6.081 13.581-13.582 13.581z"/><circle class="st0" cx="34.612" cy="121.494" r="2.025"/><path class="st5" d="M0 29.772h69.224v2.056H0zM0 47.719h69.224v2.056H0zM0 67.164h69.224v2.056H0zM0 85.366h69.224v2.056H0z"/></g><path class="st1" d="M81.425 96.806h12.218v49.123H81.425zM482.312 96.806h12.218v49.123h-12.218z"/></svg>