<svg version="1.1" id="Layer_1" xmlns="http://www.w3.org/2000/svg" x="0" y="0" viewBox="0 0 385.095 86.476" xml:space="preserve"><style>.st0{fill:#ed1b1b}.st1{fill:#ffe94d}</style><path class="st0" d="M36.292 86.115V60.823h3.83v10.659h4.553v-10.66h3.83v25.293h-3.83v-11.02H40.12v11.02h-3.829zM60.247 80.515h-4.12l-.83 5.6h-3.83l4.192-25.292h5.13l4.191 25.292h-3.902l-.83-5.6zm-.505-3.686l-1.555-10.587-1.553 10.587h3.108zM67.944 60.823h5.997c3.65 0 5.998 2.384 5.998 6.034v2.963c0 3.649-2.348 6.033-5.998 6.033h-2.168v10.262h-3.83V60.823zM73.76 72.24c1.481 0 2.349-.867 2.349-2.348v-3.108c0-1.48-.868-2.348-2.349-2.348h-1.988v7.804h1.988zM83.155 60.823h5.997c3.65 0 5.998 2.384 5.998 6.034v2.963c0 3.649-2.347 6.033-5.998 6.033h-2.167v10.262h-3.83V60.823zm5.817 11.417c1.482 0 2.35-.867 2.35-2.348v-3.108c0-1.48-.868-2.348-2.35-2.348h-1.987v7.804h1.987zM110.76 60.823l-5.13 14.706v10.586h-3.83V75.53l-5.13-14.706h4.082l2.963 9.647 3.035-9.647h4.01zM120.48 80.478V66.46c0-3.54 2.42-5.998 5.998-5.998 3.577 0 5.998 2.457 5.998 5.998v2.963h-3.759v-2.963c0-1.481-.903-2.384-2.203-2.384-1.301 0-2.204.903-2.204 2.384v14.02c0 1.482.903 2.384 2.204 2.384 1.3 0 2.203-.902 2.203-2.385v-3.613h3.759v3.613c0 3.541-2.421 5.998-5.998 5.998-3.578 0-5.999-2.457-5.999-5.998zM135.981 86.115V60.823h3.83v10.659h4.553v-10.66h3.83v25.293h-3.83v-11.02h-4.554v11.02h-3.829zM152.385 60.823h3.829v25.292h-3.83V60.823zM160.406 60.823h4.228l4.878 16.982V60.823h3.757v25.292h-4.047l-5.058-16.187v16.187h-3.758V60.823zM177.46 60.823h10.876v3.613h-7.047v7.046h5.6v3.613h-5.6v7.408h7.047v3.612H177.46V60.823zM190.685 80.262v-.903l3.685-.397v.939c0 1.842.94 2.962 2.457 2.962 1.518 0 2.457-.939 2.457-2.42 0-1.59-.65-2.746-3.504-5.456-3.795-3.578-4.879-5.529-4.879-8.31 0-3.759 2.168-6.216 5.818-6.216 3.65 0 5.817 2.457 5.817 6.251v.65l-3.685.398v-.723c0-1.95-.759-2.962-2.097-2.962-1.336 0-2.095.83-2.095 2.42 0 1.59.795 2.746 3.505 5.456 3.686 3.686 4.878 5.528 4.878 8.31 0 3.614-2.53 6.215-6.178 6.215-3.65 0-6.18-2.601-6.18-6.214zM206.294 60.823h10.875v3.613h-7.046v7.046h5.6v3.613h-5.6v7.408h7.046v3.612h-10.875V60.823zM227.611 60.823h4.228l4.878 16.982V60.823h3.757v25.292h-4.047l-5.058-16.187v16.187h-3.758V60.823zM244.666 60.823h10.876v3.613h-7.047v7.046h5.601v3.613h-5.6v7.408h7.046v3.612h-10.876V60.823zM277.87 60.823l-3.721 25.292h-4.228l-2.023-16.657-2.023 16.657h-4.228l-3.722-25.292h3.867l2.096 17.09 2.095-17.09h3.902l2.096 17.09 2.096-17.09h3.794zM300.814 60.823l-5.13 14.706v10.586h-3.83V75.53l-5.13-14.706h4.082l2.963 9.647 3.035-9.647h4.01zM303.634 60.823h10.875v3.613h-7.046v7.046h5.6v3.613h-5.6v7.408h7.046v3.612h-10.875V60.823zM325.637 80.515h-4.12l-.83 5.6h-3.83l4.191-25.292h5.13l4.192 25.292h-3.902l-.831-5.6zm-.506-3.686l-1.554-10.587-1.553 10.587h3.107zM341.932 86.115l-2.781-10.442h-1.988v10.442h-3.83V60.823h5.999c3.649 0 5.997 2.384 5.997 6.034v2.782c0 2.349-.975 4.156-2.637 5.167l3.215 11.31h-3.975zm-4.77-14.055h1.989c1.481 0 2.349-.868 2.349-2.349v-2.927c0-1.48-.868-2.348-2.35-2.348h-1.987v7.624z"/><g><path class="st1" d="M17.027 2.596l-2.164 34.75 18.022-.48c1.662 3.544 1.431 6.878-.69 10.002l-26.161.96c-.861-.16-1.393-.79-1.593-1.891l2.463-42.74c2.343-1.182 5.717-1.382 10.123-.601zM71.21 2.236c.98 3.143.81 6.087-.51 8.83l-19.644.63-.54 7.69 16.128-.33c1.502 2.923 1.382 5.686-.36 8.289l-16.43.69-.81 9.312 20.154-.601c1.661 3.544 1.43 6.868-.691 9.972l-28.083 1.11c-.861-.16-1.392-.79-1.593-1.891l2.704-41.178c.22-.781.69-1.342 1.411-1.682l28.264-.841zM111.367 2.296c1.382 3.204 1.302 6.417-.24 9.64l-11.083.151-1.622 34.931c-3.044 1.301-6.378 1.281-10.002-.06l1.953-34.48-10.904.24c-2.221-3.745-2.312-6.928-.27-9.552l32.168-.87zM126.024.643l-1.32 16.94c-2.564 1.523-5.167 1.552-7.81.09l1.381-17.24c2.783-.64 5.366-.57 7.75.21zM131.43 42.603c-1.3-4.545-.54-8.07 2.283-10.573 5.147 3.024 8.88 4.886 11.203 5.587 4.326-.04 6.698-1.121 7.119-3.244.1-1.701-1.222-3.343-3.965-4.926l-7.719-3.754c-4.826-2.563-7.328-6.177-7.509-10.843.18-2.683 1.107-5.096 2.779-7.238 1.671-2.143 3.553-3.549 5.646-4.22 2.092-.67 4.58-.916 7.464-.736 5.286.32 9.921 1.822 13.906 4.505.16 3.785-1.02 7.079-3.544 9.882-4.866-3.644-8.76-5.346-11.684-5.106-2.743-.32-4.195.66-4.355 2.943-.1 1.302 1.833 2.984 5.797 5.046 4.545 1.843 7.915 3.955 10.107 6.338s3.169 5.276 2.929 8.68c-.322 4.605-2.463 8.14-6.428 10.602-2.523 1.762-6.168 2.493-10.934 2.193-4.545-.581-8.91-2.293-13.094-5.136z"/><path class="st0" d="M12.642 2.596l-2.164 34.75 18.022-.48c1.662 3.544 1.431 6.878-.691 10.002l-26.16.96c-.862-.16-1.393-.79-1.593-1.891L2.52 3.197c2.343-1.182 5.717-1.382 10.123-.601zM66.824 2.236c.982 3.143.812 6.087-.51 8.83l-19.644.63-.54 7.69 16.129-.33c1.502 2.923 1.382 5.686-.36 8.289l-16.43.69-.81 9.312 20.154-.601c1.661 3.544 1.43 6.868-.692 9.972l-28.082 1.11c-.861-.16-1.393-.79-1.593-1.891L37.15 4.759c.221-.781.692-1.342 1.412-1.682l28.263-.841zM106.982 2.296c1.382 3.204 1.301 6.417-.24 9.64l-11.083.151-1.622 34.931c-3.044 1.301-6.378 1.281-10.002-.06l1.953-34.48-10.904.24c-2.222-3.745-2.312-6.928-.27-9.552l32.168-.87zM121.64.643l-1.322 16.94c-2.563 1.523-5.166 1.552-7.81.09L113.89.433c2.783-.64 5.366-.57 7.75.21zM127.045 42.603c-1.3-4.545-.54-8.07 2.283-10.573 5.146 3.024 8.88 4.886 11.203 5.587 4.325-.04 6.698-1.121 7.118-3.244.101-1.701-1.22-3.343-3.964-4.926l-7.719-3.754c-4.826-2.563-7.328-6.177-7.509-10.843.18-2.683 1.107-5.096 2.779-7.238 1.671-2.143 3.553-3.549 5.646-4.22 2.092-.67 4.58-.916 7.464-.736 5.286.32 9.921 1.822 13.906 4.505.16 3.785-1.021 7.079-3.545 9.882-4.865-3.644-8.76-5.346-11.683-5.106-2.743-.32-4.195.66-4.355 2.943-.1 1.302 1.833 2.984 5.797 5.046 4.545 1.843 7.915 3.955 10.107 6.338 2.193 2.383 3.169 5.276 2.928 8.68-.32 4.605-2.463 8.14-6.427 10.602-2.524 1.762-6.168 2.493-10.934 2.193-4.545-.581-8.91-2.293-13.095-5.136z"/></g><g><path class="st1" d="M271.983 2.296c1.381 3.204 1.301 6.417-.24 9.64l-11.083.151-1.623 34.931c-3.044 1.301-6.378 1.281-10.001-.06l1.952-34.48-10.903.24c-2.222-3.745-2.313-6.928-.27-9.552l32.168-.87zM302.227 1.995l12.014 43.25c-2.743 1.803-6.307 2.284-10.692 1.443l-2.163-8.05-11.143 1.381-2.763 8.11c-4.465.6-7.79-.03-9.972-1.892l15.739-43.881c3.163-1.983 6.157-2.103 8.98-.361zm-5.136 14.327l-4.715 14.777 7.328-.871-2.613-13.906zM330.281 2.596l-2.163 34.75 18.022-.48c1.662 3.544 1.431 6.878-.691 10.002l-26.16.96c-.862-.16-1.393-.79-1.593-1.891l2.463-42.74c2.343-1.182 5.717-1.382 10.122-.601zM364.58 2.566l-.87 13.605 13.756-13.906c3.785-.26 6.328 1.432 7.629 5.076L369.447 22.99l15.017 18.2c-.36 2.144-1.186 3.726-2.478 4.747s-3.358 1.33-6.202.93l-13.125-17.42-.69 16.97c-2.865 1.642-6.159 1.602-9.883-.12l2.223-43.731c2.463-1.442 5.887-1.442 10.272 0z"/><path class="st0" d="M267.598 2.296c1.38 3.204 1.3 6.417-.24 9.64l-11.084.151-1.622 34.931c-3.044 1.301-6.378 1.281-10.001-.06l1.952-34.48-10.903.24c-2.222-3.745-2.313-6.928-.27-9.552l32.168-.87zM297.842 1.995l12.014 43.25c-2.743 1.803-6.307 2.284-10.693 1.443l-2.162-8.05-11.143 1.381-2.763 8.11c-4.465.6-7.79-.03-9.972-1.892L288.86 2.356c3.164-1.983 6.157-2.103 8.98-.361zm-5.136 14.327l-4.715 14.777 7.328-.871-2.613-13.906zM325.896 2.596l-2.163 34.75 18.022-.48c1.661 3.544 1.431 6.878-.691 10.002l-26.161.96c-.861-.16-1.392-.79-1.592-1.891l2.463-42.74c2.343-1.182 5.717-1.382 10.122-.601zM360.196 2.566l-.871 13.605L373.08 2.265c3.784-.26 6.328 1.432 7.629 5.076L365.062 22.99l15.017 18.2c-.36 2.144-1.186 3.726-2.478 4.747s-3.359 1.33-6.202.93l-13.126-17.42-.69 16.97c-2.864 1.642-6.158 1.602-9.882-.12l2.223-43.731c2.463-1.442 5.886-1.442 10.272 0z"/></g><g><path class="st1" d="M222.266 13.91s-.295.922.416 2.574c.712 1.652 5.053 10.731 5.164 16.32.11 5.587-3.506 12.746-12.513 15.098l-9.008 2.352s-5.08 4.473-11.902 0l-9.817-2.615s-11.293-5.159-11.392-13.148c-.099-7.99 5.206-18.007 5.206-18.007s-.092-2.384-.304-3.953c-.212-1.57-2.057-8.485.852-9.294 2.91-.809 9.904 4.583 13.184 2.712 0 0 6.907-2.89 17.203-.012 0 0 9.003-1.652 10.697-2.7s5.557 1.202 2.214 10.674z"/><path class="st0" d="M194.423 46.424s1.563 2.956 5.951 2.956 5.951-2.956 5.951-2.956-5.729 2.64-11.902 0zM209.986 26.683c-1.064-1.852-1.85-4.092-1.174-6.228-1.844 2.724-.625 6.442 1.02 8.964 1.875 2.756 2.456 4.55 1.98 7.83-.313 1.998-.799 4.085-2.383 5.367-1.681 1.153-4.121.8-5.905-.04-1.253-.554-2.083-1.675-2.895-2.748.03 0 .059.004.09.004 4.387 0 5.95-5.913 5.95-5.913s-5.729 5.28-11.902 0c0 0 1.51 5.696 5.717 5.903-.813 1.075-1.644 2.198-2.9 2.755-1.784.839-4.222 1.192-5.904.039-1.584-1.282-2.07-3.37-2.383-5.366-.476-3.28.104-5.074 1.98-7.831 1.645-2.522 2.864-6.24 1.02-8.964.676 2.136-.11 4.376-1.175 6.228-1.196 1.969-3.034 3.61-3.676 5.946-1.145 4.148.496 12.118 5.925 11.968a9.484 9.484 0 004.562-1.422c1.263-.776 1.982-2.066 2.621-3.335.64 1.27 1.359 2.559 2.622 3.335a9.482 9.482 0 004.562 1.422c5.43.149 7.07-7.82 5.925-11.968-.642-2.336-2.48-3.977-3.677-5.946z"/><circle class="st0" cx="214.104" cy="22.854" r="2.399"/><circle class="st0" cx="187.005" cy="22.854" r="2.399"/><path class="st0" d="M202.727 15.014c-.205.098-.725.346-.922.448l-.28.188c-.277.17-.548.376-.808.595a6.74 6.74 0 00-.807-.594l-.28-.187c-.199-.102-.712-.348-.922-.448-2.268-.92-5.08-.337-6.627 1.58 2.193-.844 4.575-.817 6.498.546.76.552 1.43 1.253 2.135 1.877l.746-.672c.971-.968 2.124-1.842 3.482-2.15 1.44-.366 2.973-.123 4.413.4-1.544-1.921-4.36-2.505-6.628-1.583zM208.67 12.068c-2.373-1.445-5.46-1.426-7.958-.272-3.544-1.64-8.108-.843-10.706 2.115 3.26-1.415 7.05-1.77 10.238-.05l.475.245.473-.245c2.179-1.154 4.68-1.49 7.086-.857.83.206 1.658.504 2.48.907-.544-.76-1.286-1.362-2.089-1.843z"/><path class="st0" d="M187.887 11.233c3.622-2.554 8.313-3.72 12.42-1.682l.432.2c1.947-.993 4.151-1.461 6.323-1.066 2.107.358 4.098 1.315 5.89 2.548-1.28-1.941-3.263-3.403-5.504-4.124-2.16-.71-4.612-.517-6.703.373-4.574-1.974-10.02-.343-12.858 3.75zM219.205 32.803a8.475 8.475 0 001.158-.967c1.871-1.851 3.288-4.491 2.679-7.24-.206-1.046-.854-1.929-1.316-2.856-1.75-3.413-3.067-7.082-4.806-10.57.194 4.017 1.177 7.901 2.976 11.523.394.824.993 1.524 1.25 2.396.515 1.643.015 3.484-.647 5.097-.363.88-.802 1.746-1.294 2.617z"/><path class="st0" d="M222.682 16.484c2.517 5.694 4.751 11.895 4.106 18.105-.66 6.53-5.751 10.653-11.455 13.313a24.808 24.808 0 004.103-1.2c.88-.395 1.95-.892 2.753-1.43 10.523-6.564 7.188-20.654.493-28.788zM181.207 22.693c1.798-3.622 2.781-7.506 2.976-11.522-1.74 3.488-3.055 7.155-4.807 10.57-.461.926-1.11 1.81-1.315 2.856-.609 2.747.807 5.388 2.678 7.24.362.352.741.684 1.158.966a23.683 23.683 0 01-1.293-2.617c-.662-1.614-1.162-3.453-.648-5.097.257-.872.856-1.572 1.25-2.396z"/><path class="st0" d="M174.314 34.59c-.645-6.21 1.59-12.414 4.106-18.106-6.694 8.132-10.03 22.225.494 28.789.804.537 1.87 1.032 2.753 1.43a24.78 24.78 0 004.103 1.2c-5.705-2.662-10.795-6.783-11.456-13.314zM220.632 4.108c3.534-.437 1.94 7.761 1.634 9.803 1.316-2.407 2.244-5.116 2.112-7.908-.172-3.392-2.6-4.607-5.652-3.61-2.566.729-4.727 2.535-7.19 3.325-.933.267-1.994.234-3.083.197 4.265 2.528 8.085-1.303 12.179-1.807zM179.972 4.143c4.099.504 7.908 4.335 12.18 1.806-1.09.038-2.15.07-3.083-.197-2.463-.79-4.625-2.596-7.191-3.324-3.052-.998-5.479.217-5.651 3.61-.133 2.791.795 5.5 2.112 7.907-.309-2.06-1.899-10.236 1.633-9.802z"/></g><path class="st0" d="M381.545 70.324c.51 3.26-3.225 5.632-6.043 6.164-8.656 1.965-16.522-2.938-25.003-1.37 6.693-5.929 16.817-1.522 24.579-1.71 2.548-.045 5.213-.5 6.467-3.084zM.056 70.324c2.738 4.892 9.66 2.717 14.355 2.316 2.77-.332 5.539-.604 8.458-.534 2.893 0 6.147.92 8.234 3.013-1.45-.216-2.81-.447-4.113-.39-4.041.229-7.977 1.447-12.093 1.846-4.093.528-9.461.863-13.053-2.102C.64 73.413-.235 71.81.056 70.324z"/></svg>