<svg version="1.1" id="Layer_1" xmlns="http://www.w3.org/2000/svg" x="0" y="0" viewBox="0 0 445.789 135.87" xml:space="preserve"><style>.st2{fill:#fff}.st3{fill:#c4263d}.st4{fill:#ff485a}.st5{fill:#ff6caf}</style><path d="M434.147 97.733H11.642C5.212 97.733 0 92.521 0 86.091V19.936c0-6.43 5.212-11.643 11.642-11.643h422.505c6.43 0 11.642 5.213 11.642 11.643V86.09c0 6.43-5.212 11.642-11.642 11.642z" fill="#327ca0"/><path d="M434.147 89.44H11.642C5.212 89.44 0 84.227 0 77.798V11.642C0 5.212 5.212 0 11.642 0h422.505c6.43 0 11.642 5.212 11.642 11.642v66.156c0 6.43-5.212 11.642-11.642 11.642z" fill="#6ad8ea"/><path class="st2" d="M25.294 73.85c-2.632-.056-4.748-.472-6.349-1.244s-2.803-2.044-3.603-3.817c-.801-1.772-1.2-4.147-1.2-7.121v-36.29c0-3.03.885-5.504 2.659-7.42 1.772-1.916 4.117-2.875 7.035-2.875 3.431 0 5.962.631 7.592 1.888 1.63 1.259 2.445 3.804 2.445 7.635V59.01h14.67c3.317 0 5.647.486 6.992 1.458 1.343.973 2.017 2.974 2.017 6.006 0 3.088-.773 5.09-2.317 6.005-1.545.915-4.062 1.372-7.55 1.372h-22.39zM83.374 74.365c-6.98 0-12.74-1.802-17.287-5.405-4.548-3.603-6.821-8.522-6.821-14.756 0-6.748 2.244-12.082 6.734-16 4.49-3.916 10.28-5.877 17.374-5.877 6.69 0 11.594 1.188 14.712 3.56 3.117 2.375 4.676 5.62 4.676 9.738 0 .801-.1 1.574-.3 2.316a8.606 8.606 0 01-.944 2.188c-.43.716-1.002 1.373-1.716 1.973a14.06 14.06 0 01-2.445 1.63c-.915.486-2.002.858-3.26 1.115a20.12 20.12 0 01-4.032.387l-12.097.085c.572 1.831 1.601 3.275 3.089 4.333 1.486 1.059 3.374 1.587 5.662 1.587 2.459 0 4.976-.314 7.55-.944 1.086-.285 2.273-.742 3.56-1.373 1.287-.628 2.215-.943 2.789-.943.971 0 1.729.287 2.273.858.543.572.815 1.287.815 2.145 0 1.03-.459 2.273-1.373 3.731-.915 1.459-2.187 2.917-3.818 4.376-1.63 1.458-3.79 2.702-6.477 3.732-2.689 1.03-5.576 1.544-8.664 1.544zm-5.835-24.536c3.947-.056 6.092-.086 6.435-.086.858 0 1.486-.514 1.888-1.545.285-.742.428-1.772.428-3.088 0-3.603-1.087-5.404-3.26-5.404-.802 0-1.587.428-2.359 1.287-.772.857-1.445 2.073-2.016 3.645-.572 1.574-.944 3.303-1.116 5.19zM111.425 55.491V45.368c-1.43-.056-2.573-.3-3.431-.73-.858-.428-1.474-.986-1.845-1.672-.372-.687-.557-1.545-.557-2.574 0-3.26 1.972-5.032 5.919-5.32v-7.978c0-2.173 1.573-4.131 4.719-5.876 3.144-1.744 6.262-2.617 9.35-2.617 1.888 0 3.117.544 3.69 1.63.571 1.087.858 2.718.858 4.89l.085 9.866h2.317c3.145 0 5.304.415 6.477 1.244 1.172.83 1.759 2.331 1.759 4.504 0 .915-.172 1.687-.515 2.316-.343.63-.9 1.115-1.673 1.459-.772.343-1.702.587-2.788.73-1.087.142-2.432.214-4.032.214h-1.545v9.436c0 .916.043 1.673.13 2.274.085.6.213 1.073.385 1.415.172.343.415.573.73.687.313.115.7.171 1.158.171.686 0 1.257-.243 1.715-.73a5.556 5.556 0 001.073-1.629c.257-.6.6-1.144 1.03-1.63.429-.485.929-.729 1.5-.729 1.315 0 2.33.315 3.046.943.715.63 1.072 1.403 1.072 2.317 0 1.544-.3 3.203-.9 4.975-.601 1.774-1.473 3.49-2.617 5.148-1.144 1.66-2.731 3.032-4.761 4.118-2.031 1.087-4.305 1.63-6.82 1.63-5.663 0-9.667-1.429-12.011-4.29-2.346-2.859-3.518-7.549-3.518-14.069zM149.344 17.914c1.6-1.2 3.889-1.801 6.863-1.801 3.09 0 5.605.63 7.55 1.888 1.944 1.258 2.918 3.345 2.918 6.262 0 2.174-.43 4.234-1.288 6.177-.858 1.945-1.96 3.575-3.303 4.89a25.121 25.121 0 01-4.375 3.432c-1.574.973-3.075 1.687-4.504 2.144-1.43.459-2.689.687-3.775.687-1.03 0-1.844-.3-2.445-.901-.6-.6-.9-1.358-.9-2.274 0-1.257.428-2.086 1.286-2.488 2.574-1.257 4.461-2.329 5.663-3.216 1.2-.886 2.258-2.073 3.173-3.561-2.688 0-4.904-.528-6.648-1.587-1.745-1.057-2.617-2.702-2.617-4.933 0-1.944.8-3.517 2.402-4.719zM190.951 32.327c5.32 0 9.751 1.087 13.298 3.26 3.546 2.175 5.318 4.547 5.318 7.122 0 .743-.314 1.43-.944 2.058-.63.63-1.43.944-2.4.944-.859 0-1.803-.3-2.832-.9a30.132 30.132 0 01-2.917-1.931c-.916-.686-2.117-1.315-3.603-1.887a13.047 13.047 0 00-4.72-.859c-2.23 0-3.344.687-3.344 2.06 0 .972.57 1.744 1.715 2.316 1.143.572 2.816 1.172 5.02 1.801 2.2.63 3.873 1.231 5.017 1.802 4.29 1.66 7.236 3.446 8.837 5.362 1.6 1.917 2.403 4.447 2.403 7.592 0 1.544-.43 3.075-1.288 4.59-.858 1.516-2.144 2.947-3.86 4.29-1.716 1.344-4.047 2.431-6.992 3.26-2.947.828-6.305 1.243-10.081 1.243-7.377 0-12.897-1.686-16.557-5.061-1.773-1.659-2.66-3.374-2.66-5.147 0-1.086.357-1.944 1.072-2.574.715-.629 1.73-.943 3.046-.943 1.316 0 3.317.643 6.005 1.93 2.69 1.286 5.175 1.93 7.464 1.93 3.145 0 4.718-.772 4.718-2.316 0-.801-.829-1.444-2.488-1.93a203.621 203.621 0 00-6.52-1.76c-2.688-.686-4.833-1.544-6.433-2.573-2.517-1.086-4.276-2.445-5.276-4.076-1.001-1.63-1.502-3.616-1.502-5.961 0-4.004 1.9-7.279 5.705-9.824 3.804-2.544 8.736-3.818 14.8-3.818zM271.336 31.213c0-1.202-.5-2.231-1.5-3.09-1.002-.857-2.189-1.286-3.562-1.286-2.746 0-5.005 1.559-6.778 4.676-1.772 3.117-2.659 6.648-2.659 10.595 0 3.032.57 5.762 1.717 8.193 1.143 2.43 2.8 4.361 4.974 5.79 2.174 1.431 4.69 2.146 7.551 2.146 2.115 0 4.146-.415 6.091-1.244 1.944-.83 3.518-1.744 4.718-2.746 1.202-1 2.446-1.915 3.732-2.745 1.287-.829 2.416-1.244 3.388-1.244 1.258 0 2.345.501 3.261 1.501.914 1.002 1.373 2.046 1.373 3.131 0 1.201-.36 2.603-1.073 4.204-.715 1.602-1.844 3.303-3.388 5.104-1.544 1.803-3.346 3.462-5.405 4.976-2.06 1.516-4.62 2.775-7.679 3.775-3.06 1-6.277 1.501-9.652 1.501-4.46 0-8.592-.67-12.396-2.016-3.803-1.342-7.108-3.26-9.908-5.748-2.804-2.488-5.006-5.619-6.606-9.393-1.603-3.775-2.402-8.007-2.402-12.698 0-9.265 2.772-16.585 8.32-21.962 5.549-5.375 12.812-8.064 21.792-8.064 4.575 0 8.807.772 12.696 2.316 3.89 1.545 6.978 3.69 9.267 6.434 2.285 2.746 3.431 5.748 3.431 9.008 0 3.775-1.26 7.194-3.775 10.252-2.518 3.06-5.777 4.59-9.78 4.59-2.288 0-4.347-.628-6.177-1.887-1.83-1.257-2.745-3.06-2.745-5.405 0-1.085.527-2.602 1.586-4.547 1.06-1.944 1.588-3.316 1.588-4.117zM325.211 50.858c0-3.26-1.258-4.89-3.774-4.89-.458 0-.874.058-1.244.172a5.6 5.6 0 00-1.03.429c-.315.172-.6.415-.857.729a6.45 6.45 0 00-.688 1.03c-.2.372-.342.814-.427 1.329-.087.515-.13 1.088-.13 1.716v9.437c0 4.69-.772 8.021-2.316 9.995-1.544 1.973-3.919 2.96-7.12 2.96-3.204 0-5.549-.902-7.035-2.703-1.488-1.801-2.232-4.99-2.232-9.565l-.17-36.547c0-3.546.858-6.148 2.573-7.808 1.716-1.657 4.002-2.488 6.863-2.488 1.545 0 2.817.101 3.818.301 1 .2 1.958.63 2.874 1.287.914.658 1.601 1.644 2.058 2.96.458 1.316.688 2.974.688 4.976v12.439c4.23-2.574 9.38-3.86 15.442-3.86 2.745 0 4.947.7 6.606 2.101 1.657 1.403 2.887 3.619 3.688 6.65C343.6 44.54 344 48.513 344 53.431c0 3.547-.087 6.449-.258 8.708-.171 2.26-.443 4.203-.815 5.834-.373 1.63-.958 2.845-1.758 3.646a6.912 6.912 0 01-2.789 1.715c-1.058.343-2.416.515-4.075.515-3.203 0-5.505-.585-6.906-1.759-1.402-1.171-2.102-2.96-2.102-5.361l-.086-15.872zM363.217 74.365c-4.52 0-8.267-1.844-11.24-5.534-2.974-3.689-4.461-8.735-4.461-15.142 0-6.52 1.473-11.71 4.42-15.57 2.943-3.861 6.704-5.792 11.28-5.792 4.633 0 8.922 1.63 12.868 4.89 1.544-2.859 4.032-4.29 7.464-4.29 3.088 0 5.49.674 7.207 2.017 1.716 1.345 2.574 3.818 2.574 7.42V64.67c0 3.432-.717 5.82-2.146 7.164-1.429 1.344-3.945 2.016-7.55 2.016-3.773 0-6.261-1.057-7.463-3.174-3.66 2.46-7.977 3.689-12.953 3.689zm11.667-28.911c-.974-1.659-2.232-2.488-3.776-2.488-1.488 0-2.688 1.087-3.603 3.26-.916 2.174-1.373 4.662-1.373 7.463 0 2.632.43 4.976 1.288 7.036.858 2.058 2.059 3.088 3.603 3.088 1.6 0 2.887-.772 3.86-2.316V45.454zM401.906 55.491V45.368c-1.429-.056-2.573-.3-3.43-.73-.858-.428-1.474-.986-1.846-1.672-.372-.687-.557-1.545-.557-2.574 0-3.26 1.974-5.032 5.92-5.32v-7.978c0-2.173 1.572-4.131 4.718-5.876 3.144-1.744 6.264-2.617 9.352-2.617 1.887 0 3.116.544 3.688 1.63.57 1.087.858 2.718.858 4.89l.086 9.866h2.317c3.144 0 5.304.415 6.476 1.244 1.171.83 1.76 2.331 1.76 4.504 0 .915-.172 1.687-.516 2.316-.343.63-.9 1.115-1.673 1.459-.771.343-1.702.587-2.788.73-1.087.142-2.432.214-4.032.214h-1.544v9.436c0 .916.044 1.673.13 2.274.085.6.214 1.073.385 1.415.17.343.413.573.729.687.314.115.7.171 1.158.171.686 0 1.257-.243 1.716-.73a5.572 5.572 0 001.073-1.629c.256-.6.6-1.144 1.029-1.63.43-.485.928-.729 1.5-.729 1.316 0 2.331.315 3.047.943.713.63 1.073 1.403 1.073 2.317 0 1.544-.3 3.203-.902 4.975-.6 1.774-1.473 3.49-2.616 5.148-1.146 1.66-2.732 3.032-4.761 4.118-2.03 1.087-4.304 1.63-6.822 1.63-5.661 0-9.666-1.429-12.01-4.29-2.345-2.859-3.518-7.549-3.518-14.069z"/><g><path class="st3" d="M36.057 108.138c-10.225.461-8 8.876-8 8.876s-2.225-8.415-11.342-3.76c-4.394 2.243-2.874 7.86-1.024 11.05 1.885 3.253 5.118 6.006 8.605 7.493l8.478 3.051 5.86-6.843c2.297-3.016 3.746-7.008 3.777-10.767.03-3.689-1.425-9.322-6.354-9.1z"/><path class="st4" d="M36.057 105.916c-10.225.46-8 8.875-8 8.875s-2.225-8.414-11.342-3.76c-4.394 2.243-2.874 7.86-1.024 11.051 1.885 3.252 5.118 6.006 8.605 7.492l8.478 3.052 5.86-6.844c2.297-3.016 3.746-7.007 3.777-10.767.03-3.688-1.425-9.321-6.354-9.1z"/><ellipse transform="rotate(-45.449 17.967 114.031)" class="st2" cx="17.966" cy="114.031" rx="2.303" ry="1.197"/></g><g><path class="st3" d="M426.15 111.961c-9.438-3.964-11.032 4.593-11.032 4.593s1.594-8.557-8.637-8.256c-4.932.145-5.965 5.87-5.66 9.547.31 3.746 2.052 7.619 4.566 10.456l6.353 6.39 8.227-3.674c3.367-1.742 6.387-4.728 8.025-8.111 1.608-3.32 2.706-9.034-1.843-10.945z"/><path class="st4" d="M426.15 110.239c-9.438-3.964-11.032 4.593-11.032 4.593s1.594-8.557-8.637-8.257c-4.932.145-5.965 5.871-5.66 9.547.31 3.747 2.052 7.62 4.566 10.457l6.353 6.389 8.227-3.674c3.367-1.741 6.387-4.727 8.025-8.11 1.608-3.32 2.706-9.034-1.843-10.945z"/><ellipse transform="rotate(-48.996 425.267 113.176)" class="st2" cx="425.265" cy="113.175" rx="1.197" ry="2.303"/></g><g><path class="st5" d="M57.515 126.178c0-.918.058-1.433.172-1.548.23-.134.468-.22.717-.259a5.56 5.56 0 01.66-.085 47.6 47.6 0 01-.345-5.729c0-1.827.115-3.646.345-5.455a5.67 5.67 0 01-.66-.085 2.675 2.675 0 01-.717-.258c-.114-.115-.172-.631-.172-1.549 0-1.017.058-1.593.172-1.73.707-.548 1.95-.822 3.728-.822 1.147 0 1.94.115 2.38.345.114.191.252.673.415 1.448.162.774.244 1.362.244 1.763 0 .249-.029.411-.086.487-.42.211-.784.316-1.09.316-.21 0-.373-.01-.487-.029.21 1.301.325 2.555.344 3.763.554-.253 1.635-.38 3.24-.38 1.586 0 2.868.147 3.843.438.057-1.43.161-2.666.314-3.706-.095 0-.314-.028-.659-.086a2.665 2.665 0 01-.717-.258c-.114-.115-.171-.631-.171-1.549 0-.994.057-1.557.171-1.692-.02-.245.287-.45.918-.614.631-.164 1.424-.246 2.38-.246 1.242 0 2.275.115 3.096.345.116.191.254.673.416 1.448.163.774.245 1.362.245 1.763 0 .249-.03.411-.087.487-.42.211-.88.316-1.376.316-.21 0-.373-.01-.487-.029.229 1.522.343 3.174.343 4.957 0 1.486-.114 3.637-.343 6.455.114-.018.276-.029.487-.029.306 0 .669.106 1.09.316.057.076.086.24.086.488 0 .4-.082.989-.245 1.763-.162.774-.3 1.257-.415 1.448-.344.21-.965.315-1.864.315-1.013 0-1.978-.081-2.896-.246-.918-.164-1.367-.36-1.348-.586-.114-.133-.171-.697-.171-1.69 0-.919.057-1.434.171-1.55.23-.133.468-.219.717-.258.345-.055.564-.084.66-.084-.172-1.342-.277-2.864-.315-4.564a28.29 28.29 0 01-3.785.233c-1.645 0-2.773-.078-3.384-.233a142.066 142.066 0 01-.258 4.677c.114-.018.277-.029.487-.029.306 0 .67.106 1.09.316.057.076.086.24.086.488 0 .4-.077.989-.23 1.763-.152.774-.296 1.257-.43 1.448-.44.229-1.31.344-2.609.344-1.95 0-3.116-.274-3.498-.82-.114-.138-.172-.715-.172-1.732zM78.39 122.766c0-1.39.206-2.736.617-4.04.41-1.302 1.07-2.426 1.978-3.373s1.974-1.419 3.198-1.419c.553 0 1.046.098 1.476.291.43.195.765.432 1.004.713.239.282.435.562.588.844.152.281.258.52.315.713.057.194.095.29.115.29 0-1.047-.01-1.735-.029-2.065.389-.33.792-.548 1.21-.654.417-.107.996-.16 1.734-.16.63 0 1.192.02 1.686.058.494.039.866.087 1.119.145a5.239 5.239 0 01.913.291l.063.03c.086.174.128.717.128 1.629 0 .941-.042 1.5-.128 1.676-.063.137-.405.26-1.022.368a9.47 9.47 0 01-1.598.161 4.5 4.5 0 01-.693-.057c.057.115.086.602.086 1.462 0 2.505-.087 3.89-.262 4.157.142-.056.315-.085.518-.085.94 0 1.859.085 2.757.258.17.117.256.945.256 2.483 0 .826-.035 1.352-.105 1.576-.147.207-.606.404-1.378.591-.773.188-1.65.282-2.63.282-1.65 0-2.667-.038-3.055-.113-.135-.356-.202-.656-.202-.9 0-.15.03-.263.087-.338-.23.075-.88.357-1.95.847-1.07.488-1.845.733-2.323.733-1.472 0-2.585-.621-3.34-1.864-.755-1.242-1.132-2.753-1.132-4.53zm3.585-.746c0 1.087.33 2.004.989 2.751s1.352 1.12 2.079 1.12c.401 0 .86-.106 1.376-.32.516-.212.793-.406.832-.58l.157-2.454c.048-.746.086-1.317.115-1.712.029-.395.043-.65.043-.765v-.347c0-.405-.263-.805-.789-1.2a2.86 2.86 0 00-1.763-.593c-.956 0-1.702.438-2.237 1.314-.535.876-.802 1.804-.802 2.786zM95.852 133.862c0-.898.035-1.433.106-1.605.528-.344 1.433-.516 2.717-.516.252 0 .42.009.504.028 0-.975-.02-2.456-.057-4.444a249.086 249.086 0 01-.058-4.501c0-1.513.019-2.653.058-3.42-.15.082-.532.121-1.147.121-1.21 0-1.987-.097-2.326-.292-.17-.117-.255-.948-.255-2.49 0-.821.031-1.344.095-1.568.404-.578 1.55-.868 3.441-.868 1.796 0 2.883.038 3.261.112.094.355.142.682.142.98 0 .15-.01.234-.028.251.287-.092.907-.378 1.858-.856.95-.478 1.665-.716 2.146-.716 1.11 0 2.082.415 2.915 1.247a7.256 7.256 0 011.796 2.91c.363 1.11.546 2.218.546 3.327 0 1.95-.57 3.675-1.71 5.175-1.14 1.501-2.679 2.251-4.615 2.251-.673 0-1.404-.115-2.192-.344 0 .039.015.416.044 1.133s.023 1.476-.015 2.28c0 1.777-.047 2.762-.143 2.953-.67.573-2.132.86-4.387.86-.531 0-1.01-.02-1.434-.058-.424-.038-.738-.085-.94-.143a3.835 3.835 0 01-.494-.172c-.127-.057-.202-.105-.223-.143l-.063-.03c.305-.171.458-.659.458-1.462zm6.854-14.91l.057 2.523.043 1.98c.01.458.023.812.043 1.06 0 .344.25.688.75 1.032a2.88 2.88 0 001.672.516c.654 0 1.196-.243 1.63-.73.432-.488.72-1.023.864-1.607.145-.582.217-1.18.217-1.792 0-1.25-.303-2.24-.909-2.973-.606-.732-1.274-1.099-2.004-1.099-.462 0-.97.137-1.528.409-.557.272-.835.499-.835.68zM113.2 133.862c0-.898.035-1.433.105-1.605.528-.344 1.433-.516 2.718-.516.252 0 .419.009.504.028 0-.975-.02-2.456-.058-4.444a249.086 249.086 0 01-.058-4.501c0-1.513.02-2.653.058-3.42-.15.082-.532.121-1.147.121-1.21 0-1.986-.097-2.326-.292-.17-.117-.255-.948-.255-2.49 0-.821.032-1.344.096-1.568.403-.578 1.55-.868 3.44-.868 1.796 0 2.884.038 3.262.112.094.355.141.682.141.98 0 .15-.01.234-.028.251.288-.092.907-.378 1.858-.856.951-.478 1.666-.716 2.146-.716 1.11 0 2.082.415 2.916 1.247a7.257 7.257 0 011.795 2.91c.364 1.11.547 2.218.547 3.327 0 1.95-.571 3.675-1.71 5.175-1.142 1.501-2.68 2.251-4.615 2.251-.674 0-1.404-.115-2.192-.344 0 .039.015.416.043 1.133a26.12 26.12 0 01-.014 2.28c0 1.777-.048 2.762-.143 2.953-.67.573-2.132.86-4.388.86-.53 0-1.009-.02-1.433-.058-.425-.038-.738-.085-.94-.143a3.835 3.835 0 01-.494-.172c-.128-.057-.202-.105-.223-.143l-.064-.03c.305-.171.459-.659.459-1.462zm6.853-14.91l.058 2.523c.018.861.032 1.52.043 1.98.009.458.023.812.042 1.06 0 .344.25.688.75 1.032a2.88 2.88 0 001.672.516c.654 0 1.197-.243 1.63-.73.432-.488.72-1.023.864-1.607.145-.582.217-1.18.217-1.792 0-1.25-.303-2.24-.909-2.973-.605-.732-1.274-1.099-2.004-1.099-.462 0-.97.137-1.528.409-.556.272-.835.499-.835.68zM130.003 134.431c0-.842.11-1.757.33-2.743.219-.987.481-1.652.788-1.997a1.83 1.83 0 01.832-.187c.745 0 1.452.234 2.122.702.076.058.114.185.114.38 0 .117-.029.292-.086.526.626.546 1.216.907 1.768 1.083.552.175 1.265.262 2.14.262.835 0 1.546-.043 2.136-.13a8.111 8.111 0 001.798-.495 2.72 2.72 0 001.396-1.208c.322-.563.482-1.271.482-2.125 0-.713-.067-1.318-.2-1.82-1.828 1.368-3.742 2.051-5.742 2.051-1.682 0-3.038-.75-4.069-2.254-1.03-1.503-1.544-3.411-1.544-5.728 0-.628.057-1.19.172-1.684-.115.058-.249.086-.402.086s-.382-.034-.688-.1a5.467 5.467 0 00-.516-.1c-.249-.515-.372-1.184-.372-2.006 0-.88.133-1.549.4-2.007 1.492-.363 2.715-.545 3.671-.545.997 0 1.889.162 2.674.487.32.574.48 1.272.48 2.093 0 .708-.127 1.3-.38 1.778a.639.639 0 01-.42.171c-.12 0-.28-.047-.48-.142a9.33 9.33 0 00-.24 2.14c0 2.531.83 3.797 2.49 3.797 1.337 0 2.48-.42 3.428-1.256.949-.837 1.423-1.894 1.423-3.169 0-.456-.076-.96-.23-1.512-.267.152-.611.228-1.032.228-.248 0-.411-.057-.488-.171-.325-.21-.486-.782-.486-1.718 0-.975.087-1.568.263-1.779.448-.668 1.65-1.003 3.607-1.003.88 0 1.774.077 2.682.229.907.153 1.524.306 1.849.459.076.497.115.975.115 1.433 0 .842-.115 1.415-.345 1.721a.859.859 0 01-.63.258c-.134 0-.263-.014-.388-.043-.124-.028-.262-.071-.416-.129s-.258-.095-.314-.115c.114 3.198.171 5.025.171 5.482 0 1.992-.126 3.707-.38 5.143s-.614 2.609-1.08 3.52c-.467.908-1.08 1.631-1.84 2.168a6.924 6.924 0 01-2.45 1.106c-.874.2-1.919.302-3.136.302-2.009 0-3.826-.442-5.45-1.326-.172.62-.278.93-.316.93-.325.264-.803.396-1.434.396-.382 0-.75-.052-1.104-.155-.354-.104-.55-.211-.588-.325a4.373 4.373 0 01-.085-.959zM156.353 110.676c0-.691.147-1.261.441-1.71.25-.224 1.744-.336 4.486-.336 1.953 0 2.93.103 2.93.308.42.262.63 1.01.63 2.243 0 .356-.028.617-.086.785 0 .113-.071.215-.214.309a.955.955 0 01-.531.14c-.555 0-.831-.039-.831-.115-.077 0-.116.096-.116.288 0 .807.479 2.67 1.434 5.592.956 2.921 1.893 5.237 2.81 6.946.918-1.537 1.859-3.785 2.825-6.744s1.448-4.892 1.448-5.794c0-.192-.039-.288-.115-.288 0 .076-.278.114-.831.114a.955.955 0 01-.531-.14c-.143-.093-.215-.195-.215-.308-.057-.168-.086-.43-.086-.785 0-1.234.21-1.981.631-2.243 0-.205 1.166-.308 3.497-.308s3.632.112 3.901.336c.248.3.373.823.373 1.57 0 .954-.177 1.59-.528 1.907-.186.134-.424.2-.713.2-.6 0-.943-.085-1.025-.257-.037 1.019-.894 3.92-2.571 8.705s-2.721 7.274-3.134 7.466c-.862.172-1.79.26-2.782.26-1.045 0-2.07-.088-3.077-.26-.399-.174-1.443-2.686-3.133-7.538-1.691-4.852-2.535-7.7-2.535-8.546 0-.076.009-.124.028-.143-.45.23-.813.343-1.087.343-.216 0-.45-.05-.705-.147-.392-.274-.588-.89-.588-1.85zM177.973 122.766c0-1.39.205-2.736.617-4.04.41-1.302 1.07-2.426 1.978-3.373s1.974-1.419 3.197-1.419c.554 0 1.047.098 1.477.291.43.195.764.432 1.004.713.238.282.434.562.587.844.153.281.259.52.315.713.058.194.096.29.115.29 0-1.047-.01-1.735-.028-2.065.388-.33.791-.548 1.21-.654.417-.107.995-.16 1.734-.16.63 0 1.192.02 1.686.058a8.23 8.23 0 011.118.145 5.239 5.239 0 01.914.291l.063.03c.085.174.127.717.127 1.629 0 .941-.042 1.5-.127 1.676-.064.137-.405.26-1.022.368a9.47 9.47 0 01-1.598.161 4.5 4.5 0 01-.693-.057c.057.115.086.602.086 1.462 0 2.505-.087 3.89-.262 4.157.142-.056.314-.085.517-.085.94 0 1.86.085 2.757.258.171.117.257.945.257 2.483 0 .826-.036 1.352-.106 1.576-.146.207-.605.404-1.378.591-.772.188-1.65.282-2.63.282-1.649 0-2.667-.038-3.055-.113-.134-.356-.2-.656-.2-.9 0-.15.028-.263.085-.338-.229.075-.879.357-1.95.847-1.07.488-1.845.733-2.322.733-1.472 0-2.585-.621-3.34-1.864-.756-1.242-1.133-2.753-1.133-4.53zm3.584-.746c0 1.087.33 2.004.99 2.751s1.351 1.12 2.078 1.12c.402 0 .86-.106 1.377-.32.516-.212.793-.406.831-.58l.158-2.454c.048-.746.086-1.317.115-1.712.028-.395.042-.65.042-.765v-.347c0-.405-.262-.805-.788-1.2a2.86 2.86 0 00-1.763-.593c-.957 0-1.702.438-2.237 1.314-.535.876-.803 1.804-.803 2.786zM195.722 126.086c0-.833.065-1.317.197-1.452a4.026 4.026 0 011.695-.348c-.248-1.257-.372-3.182-.372-5.773 0-3.048.114-5.697.343-7.945-.554 0-.984-.038-1.29-.114a9.429 9.429 0 01-.057-.915c0-.838.2-1.562.603-2.172.82-.19 1.595-.285 2.322-.285.917 0 1.634.095 2.15.285.19 1.791.287 3.687.287 5.687 0 1.41-.062 3.42-.186 6.03-.125 2.61-.196 4.382-.216 5.316a2.55 2.55 0 01.45-.029c.491 0 .89.107 1.202.32.065.155.098.387.098.697 0 .465-.066 1.023-.196 1.671-.132.65-.261 1.11-.393 1.38-.237.194-1.14.291-2.709.291-.905 0-1.719-.078-2.44-.232-.722-.156-1.15-.35-1.286-.582-.135-.232-.202-.842-.202-1.83zM204.868 122.706c0-2.145.78-4.11 2.339-5.894 1.56-1.784 3.305-2.677 5.238-2.677 1.183 0 2.195.357 3.034 1.071.84.714 1.26 1.645 1.26 2.792 0 1.36-.558 2.523-1.672 3.49-1.116.966-2.589 1.45-4.419 1.45-1.046 0-1.777-.164-2.196-.493.02.92.343 1.652.97 2.198s1.35.819 2.167.819c1.066 0 1.932-.421 2.598-1.262 0-.153.029-.316.086-.488.84-.69 1.75-1.035 2.724-1.035.191 0 .334.01.43.03 1.262.688 2.036 1.816 2.323 3.385a1.08 1.08 0 01-.215.488c-.125.171-.254.32-.387.444a4.43 4.43 0 01-.573.43 8.293 8.293 0 01-.588.359 49.91 49.91 0 00-.632.343c-.276.153-.434.24-.472.258a.82.82 0 01-.287-.042.595.595 0 01-.216-.144 1.15 1.15 0 01-.129-.143 2.534 2.534 0 01-.114-.23 1.112 1.112 0 00-.115-.215c-1.41.937-2.926 1.406-4.547 1.406-1.819 0-3.375-.583-4.668-1.75-1.293-1.167-1.939-2.697-1.939-4.59zm4.497-3.373c0 .626.457.938 1.369.938.684 0 1.34-.16 1.967-.483.627-.322.941-.72.941-1.194 0-.321-.109-.658-.327-1.008-.22-.35-.566-.526-1.041-.526-.59 0-1.222.237-1.897.71-.674.474-1.012.996-1.012 1.563zM220.867 126.694c0-1.185.263-1.921.789-2.207.486-.173 1.149-.259 1.987-.259.116 0 .27.02.465.058 0-.549-.02-1.433-.058-2.653a93.878 93.878 0 01-.057-2.767c-.078 0-.4.024-.964.072a20.45 20.45 0 01-.993.072c-.078 0-.195-.02-.35-.06a1.578 1.578 0 00-.351-.06c-.078-.081-.117-.293-.117-.635 0-.519.078-1.168.233-1.947.157-.778.303-1.255.439-1.427.559-.345 1.58-.517 3.064-.517 1.15 0 1.898.063 2.248.187.348.124.523.425.523.903 0 .573-.048 1.147-.142 1.72 1.799-2.064 3.74-3.097 5.827-3.097 3.299 0 4.949 2.325 4.949 6.973 0 .925-.058 1.823-.172 2.692 0-.038.085-.057.258-.057.286 0 .735.047 1.347.141.172.192.258.814.258 1.865 0 1.318-.095 2.131-.287 2.437-1.436.383-2.681.573-3.735.573-.744 0-1.602-.172-2.574-.516-.134-.096-.277-.435-.429-1.018-.153-.583-.23-1.084-.23-1.505 0-.631.172-1.175.515-1.634.208-.134.484-.202.826-.202.267 0 .523.049.77.144 0-.057.005-.303.015-.738.01-.434.014-.709.014-.822 0-1.208-.33-2.269-.993-3.18-.661-.911-1.49-1.368-2.488-1.368-.862 0-1.652.352-2.37 1.052-.718.7-1.077 1.8-1.077 3.298 0 .53.029 1.221.086 2.074.23-.134.526-.201.889-.201.344 0 .554.048.631.143.19 0 .286.383.286 1.147 0 .172-.095.957-.286 2.351-1.363.67-3.095 1.004-5.196 1.004-1.765 0-2.862-.267-3.288-.803-.175-.21-.262-.62-.262-1.233zM240.997 115.06c0-.424.06-.694.178-.81a9.052 9.052 0 011.402-.086h.656V108.8c.97-.076 1.596-.114 1.876-.114.28 0 .85.038 1.709.114l.315 5.42c2.132.097 3.354.232 3.664.405.29.501.436 1.272.436 2.313 0 .423-.058.693-.175.81-.605.075-1.296.113-2.075.113-.254 0-.634-.004-1.14-.014-.508-.009-.887-.014-1.14-.014 0 .633-.005 1.43-.014 2.389-.01.96-.014 1.64-.014 2.043 0 1.498.1 2.413.3 2.75s.75.502 1.649.502c.344 0 .63-.018.86-.056l-.172-.605 2.638-.604c.19.554.287 1.203.287 1.948 0 1.232-.125 2.009-.373 2.332-1.873.265-3.431.398-4.674.398-1.594 0-2.642-.229-3.146-.686a2.162 2.162 0 01-.531-.829c-.131-.343-.22-.833-.267-1.472a43.725 43.725 0 01-.099-1.915l-.086-2.799a162.475 162.475 0 00-.143-3.482c-.64-.057-1.131-.183-1.471-.376-.3-.501-.45-1.271-.45-2.313zM253.641 126.274c0-.994.053-1.56.16-1.696.224-.137.505-.224.842-.264.225-.037.713-.057 1.464-.057a41.015 41.015 0 01-.172-3.895c0-1.536.098-2.512.292-2.929-.94 0-1.562-.038-1.87-.114.02-.512.087-1.052.202-1.62.038-.247.153-.73.344-1.451.715-.132 1.914-.2 3.596-.2.567 0 1.089.039 1.567.115.478.076.842.166 1.093.27.25.105.377.204.377.298.031 0 .048.342.048 1.024 0 1.081-.044 1.764-.132 2.047-.035.115-.141.172-.317.172-.687 0-1.124-.048-1.31-.143-.204 1.327-.305 3.052-.305 5.175 0 .873.027 1.328.084 1.365a3.02 3.02 0 01.473-.028c.687 0 1.242.108 1.662.322.069.077.103.253.103.526 0 .488-.067 1.073-.201 1.756-.135.682-.327 1.15-.576 1.404-.23.234-.979.35-2.245.35-2.994 0-4.654-.283-4.978-.848-.134-.253-.201-.78-.201-1.579zm2.237-17.816c0-.535.291-.803.874-.803.485 0 1.01.143 1.573.43.403-.402.94-.602 1.612-.602.41 0 .771.143 1.087.43.316.287.474.679.474 1.175 0 .25-.052.488-.155.717-.104.23-.213.42-.326.574-.113.153-.302.33-.565.53-.264.2-.467.345-.607.43-.143.086-.392.23-.75.43-.358.201-.586.33-.683.387-.758-.553-1.37-1.18-1.835-1.877-.466-.698-.7-1.305-.7-1.821zM263.934 126.694c0-1.185.263-1.921.789-2.207.486-.173 1.149-.259 1.987-.259.116 0 .27.02.465.058 0-.549-.02-1.433-.058-2.653a93.894 93.894 0 01-.057-2.767c-.078 0-.4.024-.964.072-.565.048-.896.072-.993.072-.078 0-.195-.02-.35-.06a1.578 1.578 0 00-.352-.06c-.077-.081-.116-.293-.116-.635 0-.519.078-1.168.233-1.947.156-.778.302-1.255.439-1.427.559-.345 1.58-.517 3.064-.517 1.15 0 1.898.063 2.247.187s.524.425.524.903c0 .573-.048 1.147-.142 1.72 1.798-2.064 3.74-3.097 5.827-3.097 3.299 0 4.948 2.325 4.948 6.973 0 .925-.057 1.823-.171 2.692 0-.038.085-.057.258-.057.286 0 .735.047 1.347.141.172.192.258.814.258 1.865 0 1.318-.095 2.131-.287 2.437-1.437.383-2.681.573-3.735.573-.744 0-1.602-.172-2.574-.516-.134-.096-.277-.435-.43-1.018-.152-.583-.229-1.084-.229-1.505 0-.631.171-1.175.514-1.634.209-.134.485-.202.827-.202.267 0 .523.049.77.144 0-.057.005-.303.014-.738.01-.434.015-.709.015-.822 0-1.208-.331-2.269-.993-3.18-.661-.911-1.491-1.368-2.489-1.368-.861 0-1.65.352-2.369 1.052-.718.7-1.077 1.8-1.077 3.298 0 .53.029 1.221.086 2.074.23-.134.526-.201.889-.201.344 0 .554.048.631.143.19 0 .286.383.286 1.147 0 .172-.095.957-.286 2.351-1.363.67-3.095 1.004-5.197 1.004-1.764 0-2.86-.267-3.287-.803-.175-.21-.262-.62-.262-1.233zM284.723 122.706c0-2.145.78-4.11 2.338-5.894 1.56-1.784 3.306-2.677 5.238-2.677 1.184 0 2.195.357 3.035 1.071.84.714 1.26 1.645 1.26 2.792 0 1.36-.558 2.523-1.673 3.49-1.116.966-2.588 1.45-4.418 1.45-1.046 0-1.778-.164-2.196-.493.019.92.342 1.652.97 2.198.627.546 1.35.819 2.166.819 1.066 0 1.932-.421 2.599-1.262 0-.153.029-.316.086-.488.84-.69 1.749-1.035 2.724-1.035.19 0 .334.01.43.03 1.261.688 2.036 1.816 2.323 3.385a1.08 1.08 0 01-.216.488 3.04 3.04 0 01-.387.444 4.43 4.43 0 01-.573.43 8.295 8.295 0 01-.588.359c-.144.076-.354.19-.631.343-.277.153-.435.24-.473.258a.82.82 0 01-.287-.042.595.595 0 01-.215-.144 1.15 1.15 0 01-.129-.143 2.535 2.535 0 01-.114-.23 1.112 1.112 0 00-.115-.215c-1.41.937-2.927 1.406-4.547 1.406-1.82 0-3.375-.583-4.668-1.75-1.293-1.167-1.94-2.697-1.94-4.59zm4.497-3.373c0 .626.456.938 1.368.938.684 0 1.34-.16 1.968-.483.627-.322.94-.72.94-1.194 0-.321-.108-.658-.327-1.008-.219-.35-.566-.526-1.04-.526-.59 0-1.222.237-1.897.71-.675.474-1.012.996-1.012 1.563zM300.636 117.318c.02-1.223.098-2.28.24-3.169.14-.889.426-1.849.857-2.881.843-.46 1.519-.688 2.025-.688.318 0 .73.057 1.237.171a10.285 10.285 0 01-1.055 3.04c-.497.918-1.167 1.902-2.01 2.953-.375.383-.806.574-1.294.574zM306.05 127.841c.116-1.988.794-3.354 2.037-4.1.135-.019.34-.029.611-.029 1.023 0 1.803.335 2.344 1.004a.62.62 0 00.014.1c.009.048.014.082.014.1 0 .058-.02.163-.056.316.17.286.48.521.926.702.447.182.927.272 1.44.272.723 0 1.298-.171 1.725-.515.428-.345.643-.755.643-1.233 0-.937-.782-1.443-2.344-1.52a13.88 13.88 0 01-1.436-.104l-1.476-.207c-.624-.088-1.138-.226-1.54-.415a8.628 8.628 0 01-1.219-.71 2.66 2.66 0 01-.932-1.132c-.21-.473-.315-1.021-.315-1.645 0-1.472.592-2.587 1.776-3.342 1.184-.756 2.653-1.133 4.405-1.133 1.521 0 2.813.167 3.878.5.114-.191.27-.382.47-.574.199-.19.356-.305.47-.343 1.41.133 2.345.606 2.804 1.417-.114 1.982-.793 3.345-2.035 4.087-.133.02-.333.03-.6.03-1.005 0-1.774-.34-2.306-1.021a.63.63 0 00-.014-.102.58.58 0 01-.015-.103c0-.058.02-.164.058-.32-.21-.253-.585-.467-1.128-.642a5.396 5.396 0 00-1.667-.263c-1.464 0-2.197.496-2.197 1.488 0 1.167 1.15 1.79 3.448 1.867.653.02 1.123.047 1.409.08l1.156.14c.484.06.909.179 1.27.36.364.183.732.418 1.105.704.372.288.65.667.831 1.136.181.47.272 1.02.272 1.652 0 3.02-2.203 4.53-6.61 4.53-1.49 0-2.731-.172-3.724-.516-.311.574-.534.88-.67.918-1.422-.134-2.362-.612-2.821-1.434zM328.228 111.115c0-.424.086-.741.257-.954a11.27 11.27 0 015.772-1.56c2.01 0 3.765.268 5.268.805 1.502.537 2.707 1.303 3.617 2.3a9.659 9.659 0 012.024 3.436c.439 1.294.66 2.745.66 4.355 0 3.164-.882 5.537-2.645 7.118-1.763 1.583-4.542 2.373-8.336 2.373-2.237 0-4.379-.398-6.424-1.196-.191-.188-.287-.843-.287-1.963 0-.629.033-1.038.098-1.23.064-.285.52-.428 1.365-.428.239 0 .51.02.813.057-.18-1.338-.269-3.115-.269-5.333 0-1.969.108-3.785.323-5.448-.21.057-.469.086-.774.086-.745 0-1.147-.144-1.205-.432-.171-.729-.257-1.391-.257-1.986zm6.03 13.802c.55.19 1.15.286 1.795.286 1.594 0 2.97-.55 4.131-1.649 1.161-1.098 1.742-2.518 1.742-4.258 0-1.777-.575-3.374-1.727-4.789-1.151-1.414-2.533-2.121-4.146-2.121-.664 0-1.263.134-1.796.402.162 1.72.242 3.68.242 5.877 0 2.62-.08 4.703-.242 6.252zM348.32 122.766c0-1.39.205-2.736.616-4.04.411-1.302 1.07-2.426 1.978-3.373s1.974-1.419 3.198-1.419c.554 0 1.047.098 1.477.291.43.195.764.432 1.003.713.24.282.435.562.588.844.153.281.258.52.315.713.058.194.096.29.115.29 0-1.047-.01-1.735-.029-2.065.39-.33.792-.548 1.21-.654.418-.107.996-.16 1.735-.16.63 0 1.192.02 1.685.058a8.23 8.23 0 011.12.145 5.239 5.239 0 01.913.291l.063.03c.085.174.127.717.127 1.629 0 .941-.042 1.5-.127 1.676-.064.137-.405.26-1.023.368a9.47 9.47 0 01-1.597.161 4.5 4.5 0 01-.693-.057c.057.115.085.602.085 1.462 0 2.505-.087 3.89-.262 4.157.143-.056.315-.085.518-.085.94 0 1.86.085 2.757.258.171.117.257.945.257 2.483 0 .826-.036 1.352-.106 1.576-.146.207-.606.404-1.378.591-.773.188-1.65.282-2.63.282-1.65 0-2.667-.038-3.055-.113-.134-.356-.201-.656-.201-.9 0-.15.029-.263.086-.338-.23.075-.88.357-1.95.847-1.07.488-1.845.733-2.322.733-1.473 0-2.585-.621-3.34-1.864-.756-1.242-1.133-2.753-1.133-4.53zm3.584-.746c0 1.087.33 2.004.99 2.751s1.351 1.12 2.078 1.12c.401 0 .86-.106 1.376-.32.517-.212.793-.406.832-.58l.157-2.454c.048-.746.087-1.317.115-1.712.03-.395.043-.65.043-.765v-.347c0-.405-.263-.805-.788-1.2a2.86 2.86 0 00-1.764-.593c-.956 0-1.702.438-2.237 1.314-.534.876-.802 1.804-.802 2.786zM365.237 134.431c0-.842.11-1.757.33-2.743.22-.987.482-1.652.788-1.997a1.83 1.83 0 01.832-.187c.745 0 1.453.234 2.122.702.076.058.114.185.114.38 0 .117-.028.292-.085.526.626.546 1.216.907 1.768 1.083.552.175 1.265.262 2.14.262.835 0 1.546-.043 2.135-.13a8.111 8.111 0 001.799-.495 2.72 2.72 0 001.396-1.208c.321-.563.482-1.271.482-2.125 0-.713-.068-1.318-.2-1.82-1.828 1.368-3.743 2.051-5.742 2.051-1.683 0-3.039-.75-4.069-2.254s-1.545-3.411-1.545-5.728c0-.628.058-1.19.173-1.684-.115.058-.249.086-.402.086s-.383-.034-.688-.1a5.468 5.468 0 00-.516-.1c-.25-.515-.373-1.184-.373-2.006 0-.88.134-1.549.401-2.007 1.491-.363 2.714-.545 3.67-.545.998 0 1.89.162 2.675.487.32.574.48 1.272.48 2.093 0 .708-.127 1.3-.38 1.778a.639.639 0 01-.42.171c-.12 0-.28-.047-.48-.142a9.331 9.331 0 00-.24 2.14c0 2.531.83 3.797 2.49 3.797 1.336 0 2.479-.42 3.428-1.256.948-.837 1.422-1.894 1.422-3.169 0-.456-.076-.96-.229-1.512-.267.152-.612.228-1.032.228-.249 0-.412-.057-.488-.171-.325-.21-.487-.782-.487-1.718 0-.975.087-1.568.264-1.779.448-.668 1.65-1.003 3.607-1.003.879 0 1.773.077 2.681.229.908.153 1.524.306 1.85.459.075.497.114.975.114 1.433 0 .842-.115 1.415-.344 1.721a.859.859 0 01-.63.258c-.135 0-.264-.014-.388-.043-.124-.028-.263-.071-.416-.129s-.258-.095-.315-.115c.114 3.198.172 5.025.172 5.482 0 1.992-.127 3.707-.38 5.143-.254 1.436-.614 2.609-1.08 3.52-.467.908-1.08 1.631-1.841 2.168a6.924 6.924 0 01-2.45 1.106c-.873.2-1.918.302-3.135.302-2.009 0-3.827-.442-5.451-1.326-.172.62-.278.93-.316.93-.325.264-.802.396-1.433.396-.383 0-.75-.052-1.104-.155-.354-.104-.55-.211-.588-.325a4.371 4.371 0 01-.086-.959z"/></g></svg>