<svg version="1.1" id="Layer_1" xmlns="http://www.w3.org/2000/svg" x="0" y="0" viewBox="0 0 444.579 128.481" xml:space="preserve"><style>.st0{fill:#ff066c}.st1{fill:#f7e500}.st2{fill:#fff}</style><path class="st0" d="M56.83 56.078v-.585l-20.406.487-6.25.15-.27-50.793-.003-.607L10.98 5.913l-.364 68.775.575-.001 45.64-.09zM91.763 59.678a9.52 9.52 0 01-1.758.693c-1.127.325-2.39.49-3.791.49-.47-.014-.925-.057-1.372-.122a10.268 10.268 0 01-4.314-1.653c-1.668-1.121-2.927-2.622-3.775-4.503l33.205-2.365c.241-5.458-.577-10.294-2.457-14.51-1.112-2.494-2.563-4.65-4.334-6.487a21.4 21.4 0 00-4.126-3.338c-3.761-2.334-8.249-3.503-13.464-3.503-4.853 0-9.204 1.032-13.054 3.094-3.852 2.062-6.884 4.943-9.098 8.642-2.214 3.7-3.32 7.946-3.32 12.736 0 4.913 1.167 9.415 3.503 13.51a27.002 27.002 0 004.533 5.906 26.536 26.536 0 004.928 3.827c3.971 2.395 8.323 3.594 13.054 3.594 3.457 0 6.807-.669 10.053-2.001 3.243-1.334 6.018-3.185 8.323-5.55 2.204-2.262 3.763-4.831 4.691-7.704.043-.131.091-.26.131-.393l-3.21-.817-11.073-2.821c-.668 1.396-1.76 2.487-3.275 3.275zM79.62 38.48c1.546-1.274 3.44-1.91 5.685-1.91 2.002 0 3.744.5 5.231 1.5 1.486 1.001 2.47 2.32 2.957 3.958l-17.194 1.547c.667-2.123 1.774-3.821 3.32-5.095zM134.61 75.507c4.124 0 7.551-.668 10.28-2.002 2.73-1.333 5.004-3.425 6.823-6.277l-4.39-12.242-.34-.949c-1.51 2.589-3.357 4.024-5.538 4.31a6.353 6.353 0 01-.83.057c-1.578 0-2.881-.605-3.912-1.82-1.032-1.212-1.547-2.759-1.547-4.64 0-.665.03-1.181.091-1.546l1.456-11.553 13.191-.091-1.662-14.52-.067-.581-2.346.045-7.115.137 1-7.733-16.829.819-1 7.277-10.098.182.636 14.647.547-.007 6.913-.084-.873 6.372-.947 6.91c-.304 2.73-.454 4.944-.454 6.64 0 5.973 1.372 10.21 4.11 12.722.07.065.138.134.211.197 2.88 2.487 7.11 3.73 12.69 3.73zM161.992 16.33c1.515-2.396 2.274-4.807 2.274-7.233 0-2.365-.682-4.335-2.047-5.913-.033-.039-.07-.071-.104-.11-1.347-1.5-3.025-2.255-5.036-2.255-1.76 0-3.274.606-4.548 1.819-1.274 1.214-1.91 2.7-1.91 4.457 0 1.579.439 2.882 1.319 3.912.174.205.36.384.553.548.776.663 1.698.999 2.767.999.485 0 .879-.06 1.183-.182l-1.09 2.044-1.822 3.414 2.275 4.549c.073-.046.142-.096.214-.142 2.504-1.612 4.498-3.579 5.972-5.908zM182.96 42.712c-.818-.274-1.228-.804-1.228-1.593 0-1.94 1.97-2.91 5.913-2.91 2.669 0 4.913.363 6.733 1.091 1.819.727 3.82 1.85 6.004 3.366l7.346-10.702.022-.033c-2.183-2.122-5.2-3.866-9.051-5.23-3.852-1.365-7.597-2.047-11.235-2.047-3.7 0-7.157.743-10.371 2.228-3.216 1.487-5.777 3.488-7.687 6.004-1.91 2.518-2.866 5.262-2.866 8.233 0 3.116 1.127 5.729 3.374 7.844.466.439.976.858 1.539 1.253 3.275 2.306 8.035 3.853 14.282 4.64 2.486.243 4.063.47 4.73.682.667.214 1.002.714 1.002 1.501 0 1.033-.487 1.851-1.456 2.457-.717.448-1.617.727-2.697.844a11.23 11.23 0 01-1.215.065c-1.88 0-4.139-.409-6.777-1.228-2.639-.819-4.717-1.865-6.232-3.138l-9.006 11.098c.367.43.77.841 1.187 1.243 1.998 1.918 4.568 3.508 7.728 4.761a32.04 32.04 0 0011.918 2.275c4.184 0 7.96-.789 11.325-2.366 3.366-1.576 6.005-3.684 7.915-6.322 1.91-2.638 2.866-5.504 2.866-8.597 0-3.422-1.065-6.262-3.186-8.525a13.654 13.654 0 00-2.136-1.846c-2.042-1.43-4.42-2.508-7.115-3.256-1.988-.552-4.143-.93-6.486-1.11-2.608-.183-4.32-.41-5.14-.682zM279.071 74.142l-.182-51.672 20.378-.455-1.409-17.61-.047-.584-57.13 1.364 1.273 18.195.53-.013 18.393-.442.022 6.434.16 45.602.569-.026zM313.64 75.689c6.065 0 10.644-1.606 13.737-4.822v3.457h17.285l-2.157-47.735-.026-.57h-15.647v3.365a10.846 10.846 0 00-.485-.555c-2.646-2.844-6.821-4.266-12.524-4.266-2.893 0-5.692.724-8.399 2.151a22.33 22.33 0 00-2.245 1.35c-.138.095-.268.2-.404.297-3.208 2.303-5.822 5.321-7.829 9.074-2.092 3.912-3.138 8.112-3.138 12.6 0 4.548.969 8.794 2.91 12.736 1.32 2.682 2.971 4.982 4.936 6.92.925.91 1.912 1.749 2.98 2.495 3.334 2.335 7.004 3.503 11.007 3.503zm-1.227-31.75c1.606-1.576 3.593-2.365 5.958-2.365 2.548 0 4.624.76 6.232 2.275 1.18 1.113 1.923 2.525 2.237 4.228.113.615.174 1.266.174 1.957 0 2.67-.76 4.777-2.274 6.323-1.517 1.547-3.58 2.32-6.187 2.32a8.23 8.23 0 01-1.924-.225 7.555 7.555 0 01-2.488-1.094 9.258 9.258 0 01-3.047-3.366c-.728-1.365-1.092-2.744-1.092-4.14 0-2.365.803-4.335 2.41-5.913zM365.95 75.689c3.517 0 6.505-.35 8.961-1.046 2.457-.697 4.2-1.652 5.231-2.866l-4.04-15.558-.236-.908c-.562.639-1.289 1.078-2.177 1.321a6.904 6.904 0 01-1.825.226c-1.335 0-2.411-.576-3.23-1.729-.819-1.151-1.228-2.577-1.228-4.276l-.09-44.593-.001-.711-17.83 4.367-.137 35.32-.045 11.622c0 2.38.292 4.58.869 6.608.32 1.126.725 2.2 1.223 3.217.917 1.876 2.083 3.47 3.487 4.793.73.689 1.52 1.308 2.38 1.847 2.517 1.577 5.414 2.366 8.688 2.366zM432.452 74.324l-17.285-26.473 13.414-21.053.323-.507-19.104-1.365-3.231 5.108-6.321 9.993.09-39.429V0l-19.285.91v73.414l19.104-.182v-17.74l6.284 9.059 6.907 9.955.168-.01z"/><path class="st1" d="M108.88 36.934a20.876 20.876 0 00-.571-.572 20.848 20.848 0 00-.572-.57 20.766 20.766 0 00-.57-.572 20.976 20.976 0 00-.572-.571 20.979 20.979 0 00-.572-.572 20.848 20.848 0 00-.57-.57 20.848 20.848 0 00-.572-.572 20.766 20.766 0 00-.571-.572 20.976 20.976 0 00-.572-.57 20.865 20.865 0 00-.571-.572c1.771 1.836 3.222 3.993 4.334 6.487 1.88 4.216 2.698 9.052 2.457 14.51l-33.205 2.365c.848 1.88 2.107 3.382 3.775 4.503a10.268 10.268 0 004.314 1.653c.447.065.903.108 1.372.121 1.402 0 2.664-.164 3.79-.49a9.511 9.511 0 001.76-.692c1.515-.788 2.606-1.88 3.274-3.275l11.073 2.82 10.131-.72c.242-5.46-.577-10.295-2.456-14.511-1.23-2.758-2.871-5.105-4.906-7.058zM168.276 22.613c1.515-2.395 2.274-4.805 2.274-7.232 0-2.365-.682-4.335-2.046-5.913a7.673 7.673 0 00-.676-.68 7.61 7.61 0 00-.571-.572 7.591 7.591 0 00-.571-.571 7.607 7.607 0 00-.572-.571 7.634 7.634 0 00-.571-.572 7.634 7.634 0 00-.571-.57 7.605 7.605 0 00-.572-.572 7.605 7.605 0 00-.57-.571 7.626 7.626 0 00-.572-.572 7.626 7.626 0 00-.571-.571 7.636 7.636 0 00-.572-.571c.034.038.07.07.104.109 1.365 1.578 2.047 3.548 2.047 5.913 0 2.426-.759 4.837-2.274 7.232-1.474 2.33-3.468 4.296-5.971 5.908-.073.046-.142.096-.215.142l6.284 6.284c2.607-1.637 4.67-3.653 6.186-6.05zM213.463 37.644l-.06-.054-.515-.511.004-.006c-.038-.037-.08-.072-.119-.108l-.458-.455.006-.009c-.057-.055-.12-.107-.178-.161l-.402-.398.008-.012c-.075-.073-.158-.143-.237-.215l-.344-.341.01-.015c-.094-.092-.197-.18-.297-.27l-.286-.283.012-.018c-.113-.11-.236-.216-.356-.323l-.23-.228.015-.02c-.133-.13-.275-.253-.416-.378l-.172-.17.016-.024c-.15-.147-.313-.288-.475-.43l-.114-.114.018-.027c-.17-.165-.353-.325-.534-.485l-.058-.057.02-.03c-.188-.183-.392-.36-.593-.538l-7.346 10.702c-2.184-1.516-4.185-2.639-6.004-3.366-1.82-.728-4.064-1.092-6.733-1.092-3.942 0-5.913.97-5.913 2.911 0 .79.41 1.32 1.229 1.592.818.273 2.53.5 5.14.683 2.342.18 4.497.558 6.485 1.11 2.38.056 4.408.413 6.076 1.08 1.819.728 3.82 1.85 6.004 3.366l7.368-10.735-.573-.568.002-.003zM302.775 28.361c.136-.097.266-.202.404-.297.74-.509 1.49-.952 2.245-1.35l-1.328-16.61-6.285-6.284.047.584 1.409 17.611-20.378.455.182 51.672-17.443.793-.57.026 6.285 6.284 18.012-.819-.182-51.672 17.602-.393zM421.452 54.136l13.736-21.561-.894-.064.323-.507-.895-.064.324-.508-.895-.063.323-.508-.894-.064.323-.507-.895-.064.324-.507-.895-.064.323-.508-.894-.064.323-.507-.894-.064.323-.507-.895-.064.324-.508-.895-.063.323-.508-.894-.064-13.414 21.053 17.285 26.473-18.936 1.082-.168.01 6.284 6.284 19.104-1.092zM112.413 39.027l6.285 6.284.302-.003.873-6.372-6.913.084zM170.485 49.535c.181.194.373.384.571.571.181.195.373.384.572.571.18.195.372.385.571.572.18.194.373.384.571.57.181.196.373.385.571.572.181.195.373.385.572.571.18.195.373.385.571.572.181.194.373.384.571.571.181.195.373.384.572.571.605.652 1.308 1.26 2.11 1.824 2.396 1.687 5.59 2.966 9.577 3.84 1.08-.117 1.98-.396 2.697-.844.97-.606 1.455-1.425 1.455-2.457 0-.787-.334-1.287-1-1.5-.668-.212-2.245-.44-4.73-.683-6.248-.787-11.008-2.334-14.284-4.64a13.955 13.955 0 01-1.538-1.253c.18.195.373.385.571.572zM242.485 23.367l-.53.013 6.284 6.284 12.66-.305-.022-6.434zM349.303 56.858l.045-11.622-.585-12.934-6.284-6.284.026.571 2.157 47.735h-17.285v-3.457c-3.093 3.216-7.672 4.822-13.736 4.822-4.003 0-7.673-1.169-11.008-3.503a23.16 23.16 0 01-2.979-2.495c.186.196.38.382.572.57.185.197.38.383.571.572.186.196.38.382.571.572.186.195.38.382.572.57.185.197.38.383.57.572.186.196.38.382.572.571.186.196.38.383.571.572.186.196.38.382.572.57.185.197.38.383.571.572.186.196.38.382.571.571a23.164 23.164 0 003.55 3.067c3.335 2.335 7.005 3.503 11.008 3.503 4.952 0 8.906-1.08 11.877-3.225l.146.146 1.714 1.714h17.284l-.774-17.142c-.577-2.028-.87-4.229-.87-6.608zM400.157 74.142l-19.104.182v-13.7l-.045-.171-5.142-5.142.236.908 4.04 15.558c-1.031 1.214-2.774 2.169-5.23 2.866-2.457.696-5.445 1.046-8.962 1.046-3.275 0-6.171-.79-8.687-2.366a15.292 15.292 0 01-2.381-1.847c.186.196.375.387.57.572.187.195.377.386.572.57.186.196.376.388.571.572.187.195.376.387.572.571.186.196.375.387.571.572.186.195.376.387.571.571.187.195.376.387.572.571.186.196.375.387.57.572.187.195.377.386.572.57.186.196.376.388.572.572.88.924 1.86 1.735 2.952 2.418 2.516 1.577 5.413 2.366 8.687 2.366 3.517 0 6.505-.35 8.961-1.046 1.888-.536 3.348-1.226 4.393-2.067l1.749 1.748 19.104-.182V65.461l-6.284-9.058v17.74zM153.064 12.127l.018.023c.175.205.36.384.553.548.007.007.012.016.018.023.175.205.361.384.554.548.006.008.011.016.018.023.174.205.36.384.553.548l.018.024c.174.205.36.384.553.548l.004.004 1.09-2.044c-.304.122-.698.182-1.183.182-1.07 0-1.99-.336-2.767-.999l.018.024c.174.205.36.383.553.548z"/><path class="st1" d="M90.535 38.071c-1.487-1-3.23-1.5-5.23-1.5-2.245 0-4.14.636-5.686 1.91-1.547 1.274-2.654 2.972-3.321 5.095l17.194-1.547c-.486-1.637-1.471-2.957-2.957-3.958zM314.141 57.358c.77.52 1.6.882 2.488 1.094a8.226 8.226 0 001.924.225c2.607 0 4.67-.773 6.187-2.32 1.515-1.546 2.274-3.653 2.274-6.323 0-.691-.061-1.342-.174-1.957-.314-1.703-1.057-3.115-2.237-4.229-1.608-1.515-3.684-2.274-6.232-2.274-2.365 0-4.352.789-5.958 2.365-1.608 1.578-2.411 3.548-2.411 5.914 0 1.395.364 2.774 1.092 4.139a9.257 9.257 0 003.047 3.366zM30.174 56.13l6.25-.15-.239-44.965-6.284-6.285.004.607zM109.19 60.434c-.928 2.872-2.487 5.442-4.69 7.704-2.306 2.365-5.08 4.216-8.324 5.55-3.246 1.332-6.596 2-10.053 2-4.73 0-9.083-1.198-13.054-3.593a26.533 26.533 0 01-4.928-3.827c.186.195.38.382.571.571.187.195.38.383.572.572.186.194.379.382.571.57.186.196.38.383.571.572.186.195.38.383.572.571.186.195.379.383.57.572.187.195.38.382.572.571.186.195.38.382.571.571.187.195.38.383.572.572.186.194.379.382.571.57a26.447 26.447 0 005.499 4.4c3.971 2.395 8.324 3.593 13.054 3.593 3.457 0 6.807-.668 10.053-2.001 3.243-1.334 6.018-3.185 8.323-5.55 2.305-2.365 3.912-5.063 4.822-8.097l-6.284-6.284c-.04.133-.088.262-.13.393zM140.615 58.404c.282 0 .558-.02.83-.057 0-.04-.005-.078-.005-.118 0-.666.03-1.182.091-1.547l1.456-11.553 13.191-.091-1.729-15.101-6.284-6.284.067.58 1.662 14.52-13.191.092-1.456 11.553c-.06.364-.09.88-.09 1.547 0 1.88.514 3.427 1.546 4.64 1.03 1.214 2.334 1.819 3.912 1.819zM145.989 22.386l-6.284-6.284-1 7.733 7.114-.137zM208.979 54.748a12.613 12.613 0 00-.571-.571 12.65 12.65 0 00-.572-.572 12.634 12.634 0 00-.57-.571 12.636 12.636 0 00-.572-.571 12.635 12.635 0 00-.571-.572 12.597 12.597 0 00-.572-.57 12.65 12.65 0 00-.571-.572 12.65 12.65 0 00-.571-.571 12.65 12.65 0 00-.572-.572c2.12 2.263 3.186 5.103 3.186 8.525 0 3.093-.955 5.959-2.866 8.597-1.91 2.638-4.548 4.746-7.915 6.322-3.365 1.577-7.141 2.366-11.325 2.366-4.126 0-8.097-.76-11.918-2.275-3.16-1.253-5.73-2.844-7.728-4.762.185.194.376.384.571.572.185.194.376.383.572.571.184.194.376.384.571.571.184.194.376.384.571.572.185.194.376.383.572.57.184.195.376.385.57.572.185.194.377.384.572.571.184.194.376.384.572.572.184.194.375.383.57.571.185.194.377.384.572.571 2.069 2.177 4.83 3.958 8.3 5.334A32.039 32.039 0 00191.2 81.7c4.184 0 7.96-.789 11.326-2.365 3.366-1.576 6.004-3.685 7.914-6.323 1.91-2.638 2.866-5.504 2.866-8.597 0-3.716-1.256-6.746-3.757-9.096a12.68 12.68 0 00-.571-.571zM326.832 29.31a10.84 10.84 0 00-.485-.481c.168.18.33.364.485.555v-.074zM367.406 50.853c0 1.699.41 3.125 1.228 4.276.819 1.153 1.895 1.729 3.23 1.729.67 0 1.278-.076 1.825-.226l-.09-44.799-6.284-6.284.001.71.09 44.594zM400.337.598l-.09 39.43 6.322-9.994.054-23.75L400.339 0zM56.83 56.078v18.519l-45.64.09h-.575l1.143 1.143.571.572.572.571 1.713 1.714.572.571.57.571h.001l.571.572.572.571 46.213-.09V61.776l-6.284-6.284z"/><path class="st1" d="M146.983 54.037l.34.95 4.39 12.241c-1.819 2.852-4.094 4.944-6.822 6.277-2.73 1.334-6.157 2.002-10.28 2.002-5.58 0-9.811-1.243-12.691-3.73-.073-.063-.14-.132-.21-.197.182.2.373.39.57.572.184.199.374.39.572.57.183.2.373.39.57.572.184.2.375.39.572.571.184.2.374.39.571.572.184.2.374.39.572.571.183.2.373.39.571.571.183.2.374.39.571.572.184.199.374.39.572.57.183.2.373.39.57.572.25.27.508.53.783.768 2.88 2.488 7.11 3.73 12.69 3.73 4.124 0 7.551-.668 10.28-2.002 2.73-1.333 5.004-3.425 6.823-6.277l-4.73-13.19-6.284-6.285z"/><g><path class="st2" d="M13.508 10.34v57.544c0 1.012 1.573 1.014 1.573 0V10.339c0-1.012-1.573-1.013-1.573 0z"/></g><g><path class="st2" d="M67.225 36.145c-4.993 8.937-3.103 20.895 4.456 27.818.745.682 1.86-.427 1.112-1.113-7.039-6.446-8.872-17.567-4.21-25.91.494-.886-.864-1.68-1.358-.795z"/></g><g><path class="st2" d="M124.951 21.962l-.468 4.015c-.078.669-.14 1.342-.234 2.008-.068.481-.138.698-.638.759-1.303.16-2.643.168-3.954.25l-4.141.258c-1.006.063-1.013 1.637 0 1.573l4.646-.29 2.425-.151c.644-.04 1.351-.017 1.959-.262 1.363-.55 1.285-2.215 1.428-3.442l.55-4.718c.05-.423-.397-.787-.786-.787-.466 0-.737.363-.787.787z"/></g><g><path class="st2" d="M154.458 4.798c-1.236 1.186-1.472 3.318-.447 4.712.243.33.693.529 1.076.282.327-.21.543-.722.282-1.076a2.687 2.687 0 01-.253-.416c-.026-.053-.044-.156.006.025-.009-.033-.025-.064-.037-.096a2.76 2.76 0 01-.125-.47c-.005-.025-.022-.146-.006-.022.018.134 0-.019-.003-.048a3.058 3.058 0 01-.001-.489l.01-.102c.008-.1-.031.175-.003.03a2.995 2.995 0 01.112-.448l.044-.12c.03-.093-.073.152-.01.022.066-.139.138-.274.225-.401.013-.02.081-.151.029-.045-.05.098.013-.014.035-.04a2.79 2.79 0 01.178-.185c.297-.286.308-.83 0-1.113a.802.802 0 00-1.112 0z"/></g><g><path class="st2" d="M176.051 30.33c-2.81 2.445-5.085 5.848-5.204 9.677-.105 3.342 1.602 6.829 4.684 8.314.907.437 1.706-.919.793-1.358-2.688-1.296-4.06-4.282-3.894-7.19.19-3.323 2.304-6.217 4.733-8.33.765-.666-.351-1.774-1.112-1.112z"/></g><g><path class="st2" d="M244.277 8.459c.393 3.7.72 7.405.977 11.117.07 1.004 1.644 1.012 1.573 0a305.259 305.259 0 00-.977-11.117c-.046-.426-.33-.782-.787-.787-.39-.004-.831.365-.786.787z"/></g><g><path class="st2" d="M303.56 32.156c-6.712 6.155-9.615 15.84-7.458 24.677.24.983 1.758.567 1.517-.418-2.029-8.312.754-17.37 7.052-23.147.748-.685-.367-1.795-1.112-1.112z"/></g><g><path class="st2" d="M352.79 13.332v47.886c0 1.012 1.574 1.014 1.574 0V13.332c0-1.012-1.573-1.014-1.573 0z"/></g><g><path class="st2" d="M385.168 4.898v58.508c0 1.013 1.573 1.014 1.573 0V4.898c0-1.012-1.573-1.014-1.573 0z"/></g><g><path class="st0" d="M57.094 97.389h6.482v30.654h-6.482v-10.948h-2.32v10.948h-6.525V97.39h6.524v10.948h2.321V97.389zM74.615 96.95a7.644 7.644 0 017.663 7.664v23.43h-4.599v-1.533h-.437c-.614 1.313-2.146 1.97-3.417 1.97-4.247 0-6.875-3.416-6.875-7.663v-4.292c0-4.204 3.416-7.664 7.665-7.664h1.181v-5.605c0-.613-.525-1.139-1.181-1.139a1.16 1.16 0 00-1.14 1.14v4.465H66.95v-3.109a7.644 7.644 0 017.665-7.663zm-1.14 24.305c0 .657.526 1.14 1.14 1.14.656 0 1.181-.483 1.181-1.14v-5.824h-1.181a1.13 1.13 0 00-1.14 1.139v4.685zM92.879 97.389c4.685 0 8.539 3.81 8.539 8.496v5.254c-.044 4.73-3.854 8.496-8.54 8.496h-.263v8.408h-6.524V97.39h6.788zm-.264 16.553h.133c1.138 0 2.101 0 2.101-2.934v-4.948c0-2.978-.963-2.978-2.101-2.978h-.133v10.86zM111.143 97.389c4.685 0 8.54 3.81 8.54 8.496v5.254c-.045 4.73-3.855 8.496-8.54 8.496h-.263v8.408h-6.525V97.39h6.788zm-.263 16.553h.132c1.138 0 2.102 0 2.102-2.934v-4.948c0-2.978-.964-2.978-2.102-2.978h-.132v10.86zM128.706 108.775h.57l.875-11.386h6.482v.657l-4.379 16.378v13.62h-6.525v-13.62l-4.423-16.378v-.657h6.524l.876 11.386zM157.79 119.285h.569l.832-21.896h6.569v.657l-3.942 29.997h-7.444l-3.941-29.997v-.657h6.524l.832 21.896zM175.091 96.95a7.644 7.644 0 017.663 7.664v23.43h-4.598v-1.533h-.437c-.614 1.313-2.146 1.97-3.417 1.97-4.247 0-6.875-3.416-6.875-7.663v-4.292c0-4.204 3.416-7.664 7.664-7.664h1.182v-5.605c0-.613-.525-1.139-1.182-1.139a1.16 1.16 0 00-1.14 1.14v4.465h-6.524v-3.109a7.644 7.644 0 017.664-7.663zm-1.14 24.305c0 .657.526 1.14 1.14 1.14.657 0 1.182-.483 1.182-1.14v-5.824h-1.182a1.13 1.13 0 00-1.14 1.139v4.685zM193.092 97.389v25.005h5.738v5.65h-12.262V97.388h6.524zM209.43 97.389c4.203 0 7.663 3.415 7.663 7.663v9.372h-8.803v6.831c0 .614.483 1.14 1.14 1.14.613 0 1.094-.526 1.094-1.14v-4.598h6.569v4.204c-.22 4.029-3.59 7.182-7.663 7.182a7.644 7.644 0 01-7.664-7.663v-15.328a7.644 7.644 0 017.664-7.663zm-1.14 11.342h2.234v-4.554c0-.613-.481-1.095-1.094-1.095-.657 0-1.14.482-1.14 1.095v4.554zM227.037 104.177v23.866h-6.568V97.39h5.21v1.532h.44c.437-1.006 2.188-1.97 4.027-1.97 4.117 0 5.65 3.416 5.65 7.663v23.43h-6.525v-23.867a1.13 1.13 0 00-1.138-1.14c-.614 0-1.096.527-1.096 1.14zM238.294 97.389h14.89v5.693h-4.16v24.961h-6.57v-24.961h-4.16v-5.693zM269.258 103.082h-2.846v19.312h2.846v5.65h-12.262v-5.65h2.803v-19.312h-2.803v-5.693h12.262v5.693zM279.77 104.177v23.866h-6.568V97.39h5.21v1.532h.44c.437-1.006 2.188-1.97 4.027-1.97 4.117 0 5.65 3.416 5.65 7.663v23.43h-6.525v-23.867a1.13 1.13 0 00-1.138-1.14c-.614 0-1.096.527-1.096 1.14zM299.13 97.389c4.204 0 7.663 3.415 7.663 7.663v9.372h-8.802v6.831c0 .614.482 1.14 1.14 1.14.612 0 1.094-.526 1.094-1.14v-4.598h6.568v4.204c-.22 4.029-3.59 7.182-7.663 7.182a7.644 7.644 0 01-7.664-7.663v-15.328a7.644 7.644 0 017.664-7.663zm-1.14 11.342h2.235v-4.554c0-.613-.482-1.095-1.095-1.095-.657 0-1.14.482-1.14 1.095v4.554zM311.527 104.614h-1.358l-.438-8.101v-.876h2.19v.876l-.394 8.101zM315.731 104.79v-.176a7.644 7.644 0 017.665-7.663 7.644 7.644 0 017.662 7.663v3.11h-6.481v-3.372c0-.613-.525-1.182-1.182-1.182-.613 0-1.14.569-1.14 1.182 0 .394.133.569.44 1.094l5.43 8.627c1.357 2.146 2.933 4.248 2.933 6.57v.175a7.644 7.644 0 01-7.663 7.663 7.644 7.644 0 01-7.664-7.663v-3.504h6.525v3.722c0 .614.483 1.183 1.14 1.183s1.18-.57 1.18-1.183c0-.525-.086-.788-.48-1.444l-5.256-8.584c-1.182-1.927-3.109-4.335-3.109-6.218zM344.813 128.043V97.39h7.664a7.643 7.643 0 017.663 7.663v15.328a7.644 7.644 0 01-7.663 7.663h-7.664zm7.751-24.961h-1.227v19.312h1.227c.57 0 1.007-.482 1.007-1.007v-17.298c0-.525-.437-1.007-1.007-1.007zM370.918 96.95a7.644 7.644 0 017.663 7.664v23.43h-4.598v-1.533h-.438c-.614 1.313-2.146 1.97-3.416 1.97-4.248 0-6.875-3.416-6.875-7.663v-4.292c0-4.204 3.415-7.664 7.664-7.664h1.181v-5.605c0-.613-.524-1.139-1.181-1.139a1.16 1.16 0 00-1.14 1.14v4.465h-6.524v-3.109a7.644 7.644 0 017.664-7.663zm-1.14 24.305c0 .657.526 1.14 1.14 1.14.657 0 1.181-.483 1.181-1.14v-5.824h-1.181a1.13 1.13 0 00-1.14 1.139v4.685zM387.605 108.775h.57l.875-11.386h6.481v.657l-4.378 16.378v13.62h-6.526v-13.62l-4.423-16.378v-.657h6.525l.876 11.386z"/></g><g><path class="st0" d="M444.496 103.742c-.577-4.592-4.354-8.257-8.96-8.712a10.074 10.074 0 00-10.915 8.114.182.182 0 01-.36 0 10.074 10.074 0 00-10.915-8.114c-4.606.455-8.383 4.12-8.96 8.712a10.057 10.057 0 002.874 8.433l15.046 14.6a3.066 3.066 0 004.27 0l15.046-14.6a10.057 10.057 0 002.874-8.433z"/></g><g><path class="st0" d="M40.193 103.742c-.577-4.592-4.354-8.257-8.96-8.712a10.074 10.074 0 00-10.915 8.114.182.182 0 01-.36 0A10.074 10.074 0 009.043 95.03c-4.606.455-8.383 4.12-8.96 8.712a10.057 10.057 0 002.874 8.433l15.046 14.6a3.066 3.066 0 004.27 0l15.046-14.6a10.057 10.057 0 002.874-8.433z"/></g><g><path class="st2" d="M14.957 119.455a.627.627 0 01-.474-.215c-.97-1.109-2.054-2.164-3.103-3.185-1.445-1.406-2.939-2.86-4.196-4.505-2.648-3.467-3.601-7.264-2.616-10.42a.628.628 0 111.2.375c-1.223 3.92 1.282 7.796 2.416 9.28 1.2 1.573 2.661 2.994 4.073 4.368 1.067 1.038 2.17 2.112 3.174 3.259a.63.63 0 01-.474 1.043z"/></g><g><path class="st2" d="M420.601 119.455a.627.627 0 01-.474-.215c-.97-1.109-2.054-2.164-3.103-3.185-1.445-1.406-2.94-2.86-4.196-4.505-2.648-3.467-3.601-7.264-2.616-10.42a.628.628 0 111.2.375c-1.223 3.92 1.282 7.796 2.416 9.28 1.2 1.573 2.661 2.994 4.073 4.368 1.067 1.038 2.17 2.112 3.174 3.259a.63.63 0 01-.474 1.043z"/></g></svg>