<svg version="1.1" id="Layer_1" xmlns="http://www.w3.org/2000/svg" x="0" y="0" viewBox="0 0 392.018 141.427" xml:space="preserve"><style>.st0{fill:#d84889}.st2{fill:#896be8}.st3{fill:#fff}</style><path class="st0" d="M42.02 111.934s18.509 29.355-35.33 29.493l9.596-21.147L0 99.845l36.518-9.022 5.502 21.111zM349.998 110.6s-18.509 29.354 35.33 29.492l-9.596-21.147 16.286-20.435-36.518-9.022-5.502 21.112z"/><path d="M22.642 73.66l4.644 54.112s61.403-16.734 172.496-5.748 169.207-1.17 169.207-1.17l-3.401-50.132s-62.867 10.705-131.654 5.84c-68.788-4.865-124.535-15.515-211.292-2.902z" fill="#ff64a3"/><path class="st2" d="M47.001 52.505c-2.662 2.877-6.473 4.819-11.292 4.819-5.899 0-8.631-3.31-8.631-8.056 0-4.963 4.028-7.408 9.566-7.408 1.51 0 2.877.072 4.172.216 0-5.97.72-11.796 1.94-17.118-3.163-1.582-5.752-3.884-5.752-5.467 0-.791.36-1.941 1.006-1.941 1.87 0 3.957 1.51 6.33 2.085C47.935 9.062 54.121 1.726 62.32 1.726c5.898 0 11.364 2.014 11.364 9.566 0 5.322-3.812 14.744-21.361 15.176-.575 4.387-.791 9.35-.791 14.313 0 1.51-.216 3.093-.504 4.53 3.38 1.728 6.114 3.454 10.718 3.454 4.89 0 9.566-9.638 11.651-9.638.719 0 1.079 1.079 1.079 2.733 0 5.753-6.618 14.457-16.327 14.457-4.1 0-7.767-1.799-11.148-3.812zm-6.689-3.956c-1.295-.647-2.517-1.007-3.668-1.007-1.366 0-2.59.72-2.59 2.157 0 1.439 1.295 2.014 2.445 2.014 2.374 0 3.309-1.222 3.813-3.164zm13.09-28.266c6.977-.576 12.299-4.676 12.299-7.912 0-2.373-1.15-3.596-3.524-3.596-4.388 0-7.12 4.603-8.775 11.508z"/><path class="st2" d="M103.747 39.343c.72 0 1.008.863 1.008 2.517 0 4.027-5.18 14.672-21.65 14.672-6.472 0-12.73-3.38-12.73-11.22 0-13.737 9.062-23.735 19.06-23.735 5.394 0 8.343 2.877 8.343 6.905 0 8.487-9.206 9.638-16.83 13.162v1.798c0 3.956 4.243 4.82 6.904 4.82 9.495 0 14.241-8.92 15.895-8.92zM81.451 36.68c4.029-2.661 7.409-3.956 7.409-6.905 0-1.078-.72-1.797-2.23-1.797-2.876 0-4.46 4.171-5.179 8.702z"/><path class="st2" d="M106.193 21.937c2.014-6.473 4.46-11.076 7.049-11.076 3.093 0 3.956 2.804 4.675 5.826l-2.95 5.178c3.31.072 5.54.144 7.121.144.72 0 .792.287.792 1.15 0 .935-.935 4.963-2.014 4.963-1.15 0-5.107-.36-7.193-.36-.934 5.539-1.51 12.228-1.51 15.32 0 3.021.504 4.964 1.655 4.964 1.726 0 7.839-3.597 10.141-6.618 1.078-1.438 2.014-2.086 2.59-2.086.719 0 1.005.863 1.005 2.518 0 6.257-10.212 14.457-18.052 14.457-4.747 0-6.69-6.258-6.69-14.097 0-4.316.649-9.35 1.727-14.098h-3.236c-.576 0-.863-.287-.863-.719 0-2.301.215-3.453 1.87-5.394.934 0 2.302 0 3.883-.072zM143.952 0c2.589 0 4.89 1.295 4.89 4.89 0 6.69-6.473 15.68-13.665 15.68-1.295 0-3.309-.431-3.309-1.942 0-2.733 4.675-2.373 5.97-6.041-2.086-1.367-2.446-3.309-2.446-5.035 0-4.531 4.1-7.552 8.56-7.552zM169.916 37.544c2.733 2.877 5.466 5.826 5.466 9.063 0 6.4-5.322 10.07-14.6 10.07-9.566 0-13.378-4.604-13.378-9.135 0-4.388 2.877-8.703 5.322-8.703 4.532 0 .36 11.292 13.593 11.292-2.372-7.336-11.292-9.566-11.292-17.765 0-7.12 6.114-11.149 12.444-11.149s9.494 2.733 9.494 6.546c0 5.25-3.165 8.487-7.049 9.781zm-2.805-2.949c1.294-1.438 2.877-3.452 2.877-4.962 0-1.151-.72-2.23-2.806-2.23-1.15 0-3.452.72-3.452.72 0 2.229 1.44 4.386 3.38 6.472zM224.002 7.768c4.386-3.74 9.71-6.042 15.895-6.042 5.897 0 11.004 1.942 11.004 8.847 0 5.034-4.747 8.99-12.443 8.99-3.308 0-7.12-.647-11.293-2.302-3.307 5.467-5.106 12.588-5.106 18.197 0 8.344 3.38 13.162 10.501 13.162 5.251 0 11.652-2.517 15.464-7.407 1.08-1.439 2.014-2.086 2.59-2.086.718 0 1.078 1.079 1.078 2.733 0 9.35-10.284 14.816-20.355 14.816-12.945 0-20.57-6.977-20.57-18.485 0-9.062 3.237-18.987 9.063-26.18-2.158-2.589-3.597-5.682-3.597-7.624 0-.935.72-1.582 1.44-1.582 1.797 0 3.811 3.38 6.329 4.963zm6.617 5.034c2.877.936 6.04 1.223 8.415 1.223 2.3 0 3.883-.72 3.883-2.373 0-1.943-1.15-2.806-3.523-2.806-3.38 0-6.33 1.51-8.775 3.956z"/><path class="st2" d="M269.815 47.11c0-7.552 2.23-10.932 2.23-15.176 0-1.51-.719-2.59-3.236-2.59-3.957 0-8.56 8.416-9.494 14.314.215 2.23.431 4.531.431 6.401 0 2.302-.575 4.243-2.517 5.323-1.511.863-2.877 1.798-4.46 1.798-2.013 0-3.595-2.59-3.595-6.977 0-11.94.431-24.742 11.292-45.888.79-1.51 1.94-1.942 2.877-1.942 2.949 0 4.386 5.395 4.386 7.049 0 5.179-3.092 8.63-5.825 13.881l-1.079 5.179c2.158-3.596 5.753-6.833 11.364-6.833 6.473 0 9.925 3.164 9.925 8.271 0 6.977-3.02 14.097-3.02 16.903 0 .79.216 1.223.79 1.223 2.806 0 9.207-8.704 10.573-8.704.72 0 1.008.863 1.008 2.518 0 6.257-8.055 14.456-15.895 14.456-4.532 0-5.755-4.387-5.755-9.206z"/><path class="st2" d="M313.761 22.872c.648-1.295 1.438-2.086 2.446-2.086 2.948 0 6.904 3.956 6.904 6.329-.935 2.158-1.87 3.884-2.95 5.683-.502 2.733-.574 5.681-.574 9.35 0 3.308.431 5.898 1.51 5.898 2.95 0 9.639-8.92 10.933-8.92.718 0 1.295 1.08 1.295 2.734 0 6.257-8.991 14.457-16.543 14.457-2.733 0-4.316-2.734-5.107-6.69-2.517 4.1-6.257 7.05-12.875 7.05-6.689 0-11.292-4.46-11.292-11.365 0-5.466 1.655-11.436 5.323-15.895 3.309-3.956 8.487-7.696 14.457-7.696 1.367 0 2.805.144 4.315.432.935.215 1.655.431 2.158.719zm-2.66 17.55c.07-2.95.36-9.207 1.437-13.81-6.977 1.294-14.456 7.12-14.456 16.83 0 2.805.863 5.538 4.099 5.538 3.308 0 7.193-2.445 8.92-8.559z"/><path class="st2" d="M334.761 21.937c2.014-6.473 4.46-11.076 7.05-11.076 3.091 0 3.954 2.804 4.674 5.826l-2.949 5.178c3.309.072 5.538.144 7.12.144.72 0 .792.287.792 1.15 0 .935-.935 4.963-2.014 4.963-1.15 0-5.107-.36-7.192-.36-.935 5.539-1.511 12.228-1.511 15.32 0 3.021.504 4.964 1.654 4.964 1.727 0 7.84-3.597 10.142-6.618 1.078-1.438 2.013-2.086 2.59-2.086.719 0 1.006.863 1.006 2.518 0 6.257-10.213 14.457-18.053 14.457-4.747 0-6.689-6.258-6.689-14.097 0-4.316.648-9.35 1.726-14.098h-3.236c-.576 0-.864-.287-.864-.719 0-2.301.216-3.453 1.87-5.394.935 0 2.302 0 3.884-.072z"/><g><path class="st3" d="M50.546 84.893c.517.01.936.196 1.252.559.316.363.436.809.36 1.336-.307 2.226-.447 4.345-.418 6.356.03 2.011.072 4.068.188 6.107.032.566.066 1.153.086 1.745.02.593.037 1.188.057 1.778.018.514-.149.982-.503 1.402-.356.42-.792.672-1.31.759l-.058.008c-.5.065-.93-.054-1.294-.36-.365-.306-.558-.708-.577-1.203-.02-.571-.038-1.156-.057-1.747a44.192 44.192 0 00-.086-1.716 11.324 11.324 0 01-.029-.802c0-.268-.01-.535-.028-.801a21.104 21.104 0 01-2.75.562c-.067.01-.158.002-.245.006-.418.019-.93.119-1.409.152-.48.034-.998.056-1.555.066a123.094 123.094 0 01-.23 5.246 2.2 2.2 0 01-.59 1.344 2.15 2.15 0 01-1.28.71l-.116.018c-.518.046-.95-.099-1.295-.434-.345-.336-.5-.756-.461-1.262.191-2.699.279-5.386.26-8.059-.02-2.674-.135-5.355-.346-8.045-.038-.512.11-.987.445-1.427.337-.44.764-.722 1.282-.845.517-.122.974-.047 1.367.227.393.273.61.657.647 1.15.097 1.27.168 2.535.216 3.794.049 1.26.081 2.53.1 3.813a27.625 27.625 0 002.965-.175c.94-.109 1.901-.308 2.879-.596-.02-1.245 0-2.51.057-3.793.059-1.284.175-2.63.374-4.009.073-.506.322-.95.734-1.323.413-.372.87-.55 1.368-.54zM70.867 94.537c.08.832.134 1.64.172 2.404.039.765.057 1.44.057 2.025 0 .586-.004 1.057-.014 1.412l-.015.562a2.076 2.076 0 01-.589 1.311 1.93 1.93 0 01-1.281.618l-.086.006c-.518.003-.95-.168-1.295-.514s-.51-.778-.49-1.297a35.228 35.228 0 000-2.835 71.065 71.065 0 00-.086-1.792c-.634.092-1.257.179-1.87.262a43.82 43.82 0 01-1.843.213c-.787.074-1.559.134-2.318.181-.757.047-1.51.092-2.259.133a31.592 31.592 0 00-.215 1.908 41.53 41.53 0 00-.102 1.536l-.057 1.431c-.02.502-.211.954-.575 1.358-.365.405-.796.634-1.296.69l-.028.003c-.518.04-.96-.106-1.325-.438a1.532 1.532 0 01-.517-1.249 59.773 59.773 0 01.143-2.794 47.68 47.68 0 01.288-2.74c.134-1.023.317-2.075.548-3.157.555-2.693 1.305-4.85 2.245-6.469.42-.755.872-1.384 1.353-1.886.478-.501.954-.9 1.423-1.197.47-.297.926-.515 1.368-.654a6.038 6.038 0 011.238-.263c1.554-.146 2.91.322 4.03 1.398 1.035.994 1.866 2.534 2.445 4.552.429 1.492.756 3.277.95 5.282zm-11.255-1.094a166.13 166.13 0 003.598-.244 43.718 43.718 0 003.627-.44c-.46-2.59-1.15-4.335-2.073-5.23-.383-.368-.825-.529-1.323-.482-.519.049-.984.305-1.396.767a7.313 7.313 0 00-1.094 1.664 14.033 14.033 0 00-.805 2.039 28.867 28.867 0 00-.534 1.926zM75.904 102.48a1.822 1.822 0 01-1.31-.534c-.356-.351-.503-.796-.475-1.307.143-2.564.13-5.324.1-8.124-.028-2.8-.097-5.505-.273-8.041a1.836 1.836 0 01.46-1.355 1.987 1.987 0 011.267-.714c1.687-.238 3.262-.287 4.72-.142 1.458.146 2.78.471 3.944.98 1.15.502 2.091 1.153 2.82 1.933.403.426.72.89.95 1.39.23.501.406 1.037.46 1.554.03.275.015.642-.014 1.065-.029.424-.144.883-.345 1.379-.201.495-.514 1.02-.935 1.573-.422.552-.999 1.101-1.727 1.649-1.842 1.378-4.375 2.448-7.6 3.247-.019.596-.033 1.187-.042 1.773-.01.586-.042 1.175-.072 1.745a2.017 2.017 0 01-.562 1.314c-.354.376-.782.58-1.28.61l-.086.005zm1.87-16.518c.115 2.354.173 4.768.173 7.243 1.439-.39 2.595-.794 3.469-1.221.872-.427 1.53-.823 1.97-1.158.487-.37.878-.739 1.138-1.115.26-.375.366-.717.33-1.02-.04-.36-.244-.72-.618-1.068-.375-.348-.869-.653-1.483-.913-1.342-.57-3.003-.824-4.978-.748zM92.482 101.764a1.893 1.893 0 01-1.31-.584c-.356-.364-.503-.816-.474-1.325.143-2.56.129-5.319.1-8.12-.029-2.8-.098-5.51-.274-8.052a1.776 1.776 0 01.46-1.337 1.9 1.9 0 011.268-.666c1.686-.175 3.261-.166 4.72.032 1.457.198 2.779.57 3.943 1.119 1.15.542 2.092 1.224 2.82 2.028.403.44.72.915.95 1.424.23.508.406 1.048.46 1.568.03.276.015.643-.014 1.065-.028.422-.144.878-.345 1.367-.201.489-.514 1.003-.935 1.542-.422.538-.998 1.068-1.727 1.59-1.842 1.315-4.375 2.297-7.599 2.978-.02.595-.034 1.185-.043 1.77-.01.586-.042 1.174-.072 1.743a1.94 1.94 0 01-.561 1.293c-.355.363-.783.55-1.28.563l-.087.002zm1.871-16.45c.115 2.359.172 4.775.172 7.25 1.44-.336 2.596-.7 3.47-1.095.871-.396 1.53-.77 1.97-1.088.486-.353.877-.709 1.137-1.076.26-.366.366-.704.331-1.01-.042-.36-.245-.727-.62-1.088-.373-.361-.867-.684-1.481-.965-1.343-.618-3.004-.93-4.979-.927zM118.903 81.74c.475.211.821.572 1.022 1.047.202.475.206.95.014 1.425-.325.798-.623 1.544-.891 2.238-.27.695-.509 1.355-.72 1.984-.211.628-.408 1.228-.59 1.8-.183.572-.358 1.14-.532 1.687-.206.646-.418 1.297-.62 1.945-.2.648-.427 1.32-.676 2.016-.25.696-.528 1.43-.834 2.202a51.63 51.63 0 01-1.065 2.472 1.833 1.833 0 01-1.7 1.099 1.666 1.666 0 01-.747-.182 1.81 1.81 0 01-.992-1.046 1.828 1.828 0 01.043-1.44c.325-.744.623-1.441.891-2.091.269-.65.509-1.27.72-1.863-.423-.657-.892-1.41-1.41-2.26a75.262 75.262 0 01-1.569-2.705 49.16 49.16 0 01-1.497-2.93c-.47-1-.868-1.961-1.194-2.883-.173-.5-.15-.98.072-1.44.22-.46.586-.787 1.08-.946a1.893 1.893 0 011.439.11c.46.224.777.587.949 1.087.403 1.174.94 2.407 1.612 3.7a64.302 64.302 0 002.043 3.655c.346-1.108.72-2.268 1.123-3.48.402-1.211.93-2.618 1.583-4.216.212-.476.552-.81 1.023-1.002.469-.191.955-.19 1.423.018zM134.905 102.276a2.656 2.656 0 01-.762-.164 3.51 3.51 0 01-.906-.515 4.637 4.637 0 01-.534-.527 6.943 6.943 0 01-.503-.67 12.814 12.814 0 01-.791-1.515 21.756 21.756 0 01-.763-1.973c-.519-1.576-.99-3.436-1.41-5.582-.423-2.146-.768-4.51-1.037-7.091a1.75 1.75 0 01.403-1.367c.326-.39.74-.606 1.237-.643a1.85 1.85 0 011.382.458c.403.344.634.775.691 1.296.23 2.12.508 4.09.834 5.907.328 1.818.691 3.426 1.094 4.826.211.7.404 1.29.576 1.766.173.478.335.875.49 1.189.133-.301.293-.678.475-1.13a22.65 22.65 0 00.59-1.7c.441-1.36.864-2.956 1.266-4.788.403-1.832.796-3.9 1.18-6.203a1.685 1.685 0 01.763-1.17 1.95 1.95 0 01.662-.254c.24-.045.488-.045.734.01.511.113.926.4 1.223.827.297.43.408.891.331 1.386-.46 2.719-.94 5.13-1.44 7.234-.499 2.103-1.018 3.896-1.525 5.36-.485 1.404-.979 2.503-1.496 3.265a6.211 6.211 0 01-.95 1.105c-.518.435-1.055.65-1.612.644a.483.483 0 01-.202.02zM160.292 95.552c.081.843.134 1.66.172 2.43.04.77.058 1.448.058 2.033a53.518 53.518 0 01-.029 1.97 1.77 1.77 0 01-.59 1.224c-.355.32-.781.464-1.28.429l-.087-.006a2.045 2.045 0 01-1.294-.709 1.915 1.915 0 01-.49-1.371 34.896 34.896 0 000-2.835 72.73 72.73 0 00-.086-1.805c-.634-.005-1.257-.014-1.871-.026a39.978 39.978 0 01-1.842-.077 63.973 63.973 0 01-2.318-.192c-.758-.076-1.511-.156-2.26-.24-.096.666-.167 1.29-.214 1.872a40.24 40.24 0 00-.102 1.52c-.019.43-.038.904-.057 1.42-.02.499-.212.919-.575 1.262-.365.343-.797.499-1.296.47l-.029-.002a2.012 2.012 0 01-1.324-.666c-.364-.395-.537-.841-.518-1.34a58.105 58.105 0 01.144-2.769c.057-.791.153-1.69.288-2.689.134-1 .316-2.02.547-3.063.555-2.597 1.305-4.625 2.245-6.085.421-.685.873-1.238 1.353-1.66.479-.42.954-.742 1.424-.962.47-.22.925-.364 1.367-.432.442-.068.854-.09 1.239-.064 1.554.1 2.91.777 4.03 2.024 1.035 1.153 1.865 2.812 2.445 4.918.428 1.555.755 3.385.95 5.42zm-11.254-2.847c1.208.131 2.408.245 3.598.341 1.189.097 2.399.138 3.627.126-.46-2.66-1.151-4.511-2.073-5.55-.383-.429-.825-.659-1.323-.691-.52-.034-.985.147-1.396.543-.414.396-.777.891-1.094 1.486s-.586 1.23-.806 1.906c-.222.677-.399 1.29-.533 1.839zM170.136 104.542c-.768-.06-1.41-.123-1.93-.19a22.38 22.38 0 01-1.268-.198 9.717 9.717 0 01-1.159-.288c-.194-.052-.42-.165-.682-.338-.262-.173-.507-.435-.74-.774a4.078 4.078 0 01-.521-1.104 8.69 8.69 0 01-.247-1.04c-.068-.379-.116-.815-.16-1.292a27.577 27.577 0 01-.115-2.541c0-.96.026-2.04.057-3.22.026-.99.063-1.962.13-2.898.069-.935.131-1.77.19-2.504.057-.735.11-1.335.159-1.802.048-.467.073-.718.073-.757.038-.496.26-.893.666-1.19a1.802 1.802 0 011.392-.327c.515.085.947.359 1.274.786.328.428.463.89.405 1.383 0 .02-.02.215-.057.586-.04.372-.082.867-.13 1.487-.049.62-.1 1.336-.158 2.147a84.42 84.42 0 00-.144 2.507c-.042 1.03-.067 1.972-.087 2.815-.02.843-.01 1.603.029 2.276.037.635.078 1.148.116 1.534.038.386.075.678.115.872.422.09.954.164 1.597.222.642.06 1.319.111 2.03.157.708.045 1.419.08 2.13.108.709.027 1.365.048 1.956.054.515.005.969.192 1.353.568.384.376.595.826.634 1.346.038.522-.116.96-.462 1.317a1.688 1.688 0 01-1.265.531l-.346-.013c-.211-.007-.489-.014-.834-.022-.346-.009-.74-.02-1.181-.036-.441-.015-.928-.06-1.41-.081-.26-.011-.518-.012-.75-.03l-.66-.05zM187.146 89.537c-1.34-.165-2.342-.242-2.993-.22-.653.024-1.262.05-1.325.123-.151.174-.12 1.259-.186 2.17-.068.91-.122 1.894-.16 2.952 1.325.147 2.64.256 3.944.326 1.305.07 2.594.079 3.856.034.498-.017.95.156 1.354.514.402.36.633.798.69 1.317.058.519-.076.965-.402 1.337-.328.372-.74.557-1.238.553a57.227 57.227 0 01-6.275-.18l-.978-.08a17.284 17.284 0 01-.979-.11c.038.981.091 1.74.16 2.272.066.534.093 1.055.157 1.121.085.09.734.138 1.396.23s1.64.16 2.921.214a70.791 70.791 0 002.705.068c.366.001.774.008 1.209 0 .493-.008.95.157 1.353.517s.633.802.691 1.324c.056.503-.077.943-.403 1.319-.327.376-.748.57-1.267.584a17.773 17.773 0 00-.403-.005c-.249-.001-.575-.004-.977-.01l-1.382-.015c-.52-.004-1.062-.026-1.613-.047-.34-.013-.675-.023-.992-.04-.317-.016-.63-.038-.936-.063a20.247 20.247 0 01-.777-.079 18.51 18.51 0 00-.72-.073c-1.414-.193-2.417-.51-3.006-.937-.568-.411-1-1.058-1.285-1.944a7.965 7.965 0 01-.2-.85c-.057-.31-.126-.67-.172-1.048-.072-.6-.105-1.312-.143-2.081-.04-.77-.038-1.643-.029-2.59.009-.815.019-1.65.058-2.481a111.554 111.554 0 01.27-4.231c.048-.562.11-1.001.158-1.296.067-.403.21-.788.457-1.112.247-.324.562-.596.942-.815.248-.132.514-.24.8-.322a6.212 6.212 0 011-.191 16.257 16.257 0 011.727-.088c.651-.004 1.389.048 2.187.124.644.06 1.285.126 1.9.215a49.843 49.843 0 012.835.495c.297.063.464.096.503.099.518.12.936.393 1.252.82.316.426.427.9.36 1.4-.065.481-.293.876-.706 1.157-.412.28-.882.374-1.395.269-.439-.09-.844-.176-1.21-.245a29.46 29.46 0 00-1.251-.206 71.86 71.86 0 00-1.482-.195zM198.341 106.883a1.965 1.965 0 01-1.281-.612 2.037 2.037 0 01-.59-1.301c0-.02-.014-.266-.042-.738a87.371 87.371 0 01-.086-1.864c-.03-.769-.059-1.64-.088-2.612-.028-.971-.035-1.974-.043-2.983a88.918 88.918 0 01.015-3.251 42.36 42.36 0 01.13-2.493c.086-.944.224-1.682.374-2.185.117-.39.258-.727.432-1 .268-.399.565-.648.891-.745.326-.097.599-.15.806-.148.339.003.657.084.936.223a3.392 3.392 0 011.251 1.07c.135.193.231.34.289.441.153.281.325.603.518.965.192.36.393.78.604 1.259.365.856.748 1.809 1.151 2.86.403 1.05.807 2.11 1.21 3.18.172.457.345.907.517 1.353.174.447.335.877.49 1.293.019-.458.028-.971.028-1.537s.02-1.194.03-1.854c.013-.87-.011-1.738-.03-2.564-.019-.826-.033-1.562-.043-2.206a44.335 44.335 0 00-.043-1.544c-.02-.384-.029-.587-.029-.606-.02-.5.15-.928.509-1.282.357-.354.796-.519 1.319-.495.521.025.971.23 1.348.616a2 2 0 01.594 1.358c.035.883.064 1.69.073 2.41.01.72.019 1.537.029 2.45.01.911.014 1.857.014 2.835 0 2.303-.06 4.171-.173 5.599-.097 1.218-.236 2.139-.419 2.757-.182.618-.457 1.078-.822 1.371-.477.383-1.047.523-1.675.408a2.143 2.143 0 01-1.256-.695 7.712 7.712 0 01-.794-1.06c-.29-.478-.612-1.17-.981-2.039a86.588 86.588 0 01-1.04-2.548c-.365-.942-.74-1.928-1.126-2.959l-.692-1.842a97.88 97.88 0 00-.693-1.786c-.019.997-.025 2.252 0 3.743.015.9.039 1.769.058 2.595a79.247 79.247 0 00.2 4.334c.039.521-.119.959-.473 1.313a1.757 1.757 0 01-1.397.516zM226.231 90.552c.065.497-.048.952-.374 1.34a1.655 1.655 0 01-1.237.61c-.724.034-1.43.054-2.101.04a64.917 64.917 0 01-2.015-.07c.133 2.197.182 4.297.144 6.3-.04 2.002-.097 4.017-.172 6.045l-.088 1.979c-.02.498-.213.91-.58 1.235a1.685 1.685 0 01-1.363.425 2.15 2.15 0 01-1.32-.725 1.904 1.904 0 01-.507-1.379l.086-1.979c.077-2.028.135-4.033.174-6.016a75.777 75.777 0 00-.145-6.185c-.748-.08-1.485-.187-2.159-.261-.149-.016-.311-.025-.474-.039-.163-.013-.328-.043-.475-.067-.492-.08-.955-.293-1.31-.697s-.531-.873-.503-1.38c.028-.506.245-.934.62-1.259a1.62 1.62 0 011.337-.394c.148.024.311.054.475.068a4 4 0 01.475.067c1.555.183 3.1.34 4.634.471a35.53 35.53 0 004.807.073c.498-.02.954.145 1.366.493.413.348.639.795.705 1.305zM240.105 106.156c.5.033.93.243 1.296.631.363.388.537.841.546 1.33.01.51-.154.955-.518 1.305-.365.351-.806.5-1.296.478-.489-.023-.979-.03-1.439-.052a25.76 25.76 0 00-1.382-.02 43.245 43.245 0 01-3.223-.108c-.71-.05-1.424-.13-2.144-.239-.72-.109-1.455-.296-2.173-.503a1.948 1.948 0 01-1.165-.892c-.28-.462-.378-.949-.274-1.43.104-.484.392-.858.834-1.105a1.803 1.803 0 011.41-.17c.377.111.758.218 1.123.283.365.065.74.13 1.123.196.057-1.666.082-3.261.071-4.787-.009-1.527-.052-3.106-.071-4.683-.006-.474-.006-.96-.015-1.44s-.014-.97-.014-1.47a1.513 1.513 0 01-.215-.029 2.102 2.102 0 00-.217-.03c-.356-.034-.72-.085-1.065-.12-.345-.034-.7-.084-1.036-.118a1.96 1.96 0 01-1.309-.658 1.954 1.954 0 01-.504-1.375c.01-.508.187-.94.561-1.268a1.73 1.73 0 011.338-.435c.356.036.725.087 1.08.122.355.035.724.077 1.107.123 1.153.14 2.327.256 3.527.348 1.2.092 2.479.09 3.784-.049.514-.054.983.075 1.396.408.414.334.676.769.763 1.287.083.495-.034.957-.331 1.36-.297.403-.71.623-1.223.67-.685.063-1.362.107-2.014.111a42.61 42.61 0 01-1.9-.028c0 .48.005.951.014 1.412.01.461.008.928.014 1.383.02 1.5.063 3.055.073 4.61a119.46 119.46 0 01-.073 4.859l.288.02c.097.006.199-.005.288-.01.423-.022.936.026 1.425.039l1.482.04.058.004zM247.156 110.566a1.91 1.91 0 01-1.281-.58 1.985 1.985 0 01-.59-1.287 86.95 86.95 0 01-.129-2.598c-.029-.768-.058-1.64-.087-2.61-.029-.971-.035-1.973-.043-2.982-.01-1.2-.014-2.294.014-3.252a42.56 42.56 0 01.13-2.496c.087-.946.225-1.687.375-2.193.116-.394.258-.734.431-1.01.269-.406.566-.662.892-.768.326-.106.598-.166.806-.169.338-.005.657.067.936.198a3.257 3.257 0 011.252 1.035c.133.19.23.335.287.434.154.277.326.594.52.95.19.355.391.77.603 1.241.365.846.748 1.787 1.15 2.826.404 1.038.808 2.086 1.21 3.143.173.45.346.896.518 1.336.174.441.335.867.49 1.277.019-.46.028-.972.028-1.538 0-.566.02-1.194.03-1.855.012-.87-.011-1.738-.03-2.563-.02-.826-.034-1.562-.043-2.204a46.073 46.073 0 00-.072-2.148c-.02-.5.15-.933.508-1.299a1.74 1.74 0 011.32-.54c.521.007.97.197 1.347.569.379.373.574.82.595 1.337.035.881.063 1.687.073 2.407.01.72.018 1.536.029 2.448.009.912.014 1.857.014 2.836 0 2.303-.06 4.173-.173 5.604-.097 1.222-.236 2.148-.419 2.773-.182.625-.458 1.095-.822 1.4-.478.4-1.047.56-1.676.465a2.058 2.058 0 01-1.255-.653 7.358 7.358 0 01-.794-1.035c-.29-.468-.612-1.152-.981-2.008a83.454 83.454 0 01-1.04-2.517c-.366-.932-.74-1.907-1.126-2.927-.23-.607-.46-1.215-.692-1.822a90.501 90.501 0 00-.694-1.767 106.33 106.33 0 000 3.742c.016.9.04 1.768.06 2.594a78.926 78.926 0 00.2 4.328c.038.52-.12.963-.475 1.326a1.801 1.801 0 01-1.31.557l-.086-.005zM269.78 95.193c-1.34-.095-2.342-.124-2.994-.07-.653.054-1.26.106-1.324.183-.155.186-.12 1.265-.187 2.178a77.44 77.44 0 00-.159 2.96c1.325.088 2.639.134 3.944.137a40.522 40.522 0 003.856-.176c.498-.046.95.1 1.353.434.403.335.634.76.691 1.275.057.516-.077.97-.403 1.362-.327.392-.739.601-1.237.626a52.269 52.269 0 01-6.276.154l-.977-.035a16.592 16.592 0 01-.98-.064c.038.98.093 1.736.16 2.265.067.53.096 1.052.157 1.114.084.083.734.104 1.397.166.662.061 1.64.08 2.921.067a63.294 63.294 0 002.705-.08c.365-.02.774-.037 1.209-.07.493-.037.95.1 1.353.435.403.336.632.764.69 1.282.057.5-.076.948-.402 1.344a1.777 1.777 0 01-1.267.661c-.019 0-.154.006-.403.019-.25.013-.575.029-.978.047s-.864.04-1.382.062c-.519.025-1.062.031-1.612.039-.34.005-.676.012-.992.012-.317-.001-.63-.007-.936-.017a19.33 19.33 0 01-.777-.041 18.881 18.881 0 00-.72-.04c-1.414-.127-2.418-.402-3.006-.804-.568-.388-1-1.017-1.285-1.892a7.763 7.763 0 01-.201-.842c-.056-.308-.126-.665-.171-1.041-.072-.597-.106-1.308-.143-2.076-.04-.768-.039-1.64-.029-2.588.008-.816.018-1.651.057-2.484a111.57 111.57 0 01.271-4.242c.047-.563.11-1.005.158-1.301.066-.406.209-.797.456-1.131.248-.334.562-.619.943-.853.248-.143.513-.262.799-.356a6.448 6.448 0 011-.235 16.882 16.882 0 011.727-.167c.652-.035 1.39-.02 2.188.015.644.028 1.285.06 1.9.115.613.057 1.165.114 1.653.175.49.06.883.114 1.181.16.298.045.465.068.504.069.517.088.936.336 1.251.743.317.407.427.873.36 1.379a1.725 1.725 0 01-.705 1.2 1.829 1.829 0 01-1.395.352c-.439-.063-.845-.126-1.21-.174a30.222 30.222 0 00-1.251-.136 79.94 79.94 0 00-1.483-.115zM279.881 101.873a1.404 1.404 0 01-.762-.242 1.542 1.542 0 01-.562-.643 1.411 1.411 0 01-.029-1.095c.134-.362.396-.625.777-.792.25-.11.399-.22.447-.325.047-.104.081-.185.1-.243.038-.306-.062-.667-.302-1.084-.24-.416-.504-.747-.791-.976-.321-.256-.514-.575-.562-.96a1.391 1.391 0 01.302-1.06c.25-.322.571-.504.965-.546a1.44 1.44 0 011.08.319c.305.244.603.555.891.904.288.349.533.73.734 1.145.202.416.356.85.462 1.3.105.45.127.9.071 1.34a3.406 3.406 0 01-.69 1.69c-.385.495-.903.882-1.555 1.16a1.27 1.27 0 01-.576.108zM290.617 111.863c-.5.002-.985-.035-1.454-.11-.47-.077-.932-.2-1.373-.346-.72-.239-1.353-.569-1.856-1.013-.657-.579-1.062-1.272-1.218-2.08-.096-.498 0-.963.29-1.393.29-.43.698-.69 1.219-.786a1.803 1.803 0 011.378.277c.414.28.681.659.797 1.138.058.058.196.144.418.259.22.115.551.2.992.257.442.057.893.065 1.353.024.46-.04.874-.142 1.238-.296.514-.216.83-.462.935-.741.106-.28.137-.555.1-.821a1.994 1.994 0 00-.243-.747c-.124-.21-.313-.4-.562-.57s-.566-.337-.95-.497c-.384-.161-.844-.337-1.381-.526a37.622 37.622 0 01-1.773-.674 7.088 7.088 0 01-1.665-.966c-1.353-1.002-2.084-2.404-2.204-4.184-.074-1.092.128-2.147.638-3.076.458-.835 1.15-1.528 1.973-2.065 1.04-.678 2.288-1.11 3.693-1.214a7.582 7.582 0 011.957.117c.633.12 1.217.31 1.756.572.805.413 1.434.96 1.885 1.644s.684 1.469.734 2.32c.03.51-.12.965-.475 1.345a1.95 1.95 0 01-1.31.639c-.507.035-.965-.136-1.339-.488s-.533-.831-.589-1.303c-.01-.089-.054-.216-.102-.359-.047-.143-.215-.29-.503-.442a2.606 2.606 0 00-.848-.266 4.174 4.174 0 00-.98-.023c-.336.03-.662.094-.979.191-.315.097-.6.232-.848.405-.442.288-.71.596-.806.922a2.41 2.41 0 00-.115.834c.023.322.081.6.187.82.105.222.279.427.519.619.238.19.555.373.949.545s.89.365 1.482.569c.554.19 1.122.396 1.699.62a7.337 7.337 0 011.61.876c1.325.943 2.087 2.232 2.303 3.852.113.84.043 1.658-.23 2.421a4.794 4.794 0 01-1.238 1.89c-.902.896-2.12 1.466-3.654 1.708a8.89 8.89 0 01-1.41.122zM308 111.49a1.848 1.848 0 01-1.323-.582 1.749 1.749 0 01-.461-1.337c.16-2.47.182-5.283.173-8.324a187.586 187.586 0 00-.043-3.668c-.028-1.276-.05-2.704-.13-4.212a1.793 1.793 0 01.519-1.372c.346-.36.786-.606 1.323-.627l.087-.003c1.823-.074 3.552.118 5.152.597 1.548.464 2.908 1.159 4.058 2.044 1.11.853 2.048 1.892 2.734 3.104a9.24 9.24 0 011.18 3.774 8.766 8.766 0 01-.389 3.439 8.49 8.49 0 01-1.74 3.04c-.384.428-.859.871-1.425 1.33-.567.456-1.253.877-2.058 1.26-.806.381-1.75.712-2.836.987-1.083.276-2.316.445-3.698.504l-1.122.046zm2.016-16.348c.038 1.092.066 2.123.086 3.09.018.97.025 1.918.029 2.835.009 2.35-.01 4.558-.086 6.595 1.439-.14 2.694-.438 3.77-.889 1.074-.45 1.931-1.042 2.561-1.77.557-.644.903-1.287 1.037-1.92.134-.63.184-1.178.143-1.635a5.731 5.731 0 00-.791-2.412 6.942 6.942 0 00-1.8-2.011c-.498-.394-1.15-.776-1.956-1.148-.806-.371-1.804-.615-2.993-.735zM339.431 100.77c.081.83.134 1.636.172 2.398.039.762.058 1.437.058 2.022 0 .586-.004 1.057-.015 1.412l-.014.563c-.038.504-.235.95-.59 1.337-.355.388-.781.61-1.28.668l-.087.01c-.517.021-.95-.136-1.294-.473-.346-.335-.51-.763-.49-1.284a35.266 35.266 0 000-2.834c-.02-.564-.049-1.161-.087-1.79-.633.108-1.256.208-1.87.3-.614.094-1.228.171-1.842.232-.788.078-1.56.138-2.318.18-.758.041-1.511.076-2.26.103-.096.68-.168 1.315-.214 1.904-.049.59-.083 1.1-.102 1.534-.018.434-.038.91-.057 1.43-.02.5-.212.949-.575 1.344-.365.396-.797.614-1.296.654l-.029.003a1.737 1.737 0 01-1.324-.485 1.593 1.593 0 01-.518-1.27 59.5 59.5 0 01.144-2.788c.058-.8.153-1.71.288-2.728.134-1.018.316-2.063.547-3.137.555-2.673 1.305-4.805 2.245-6.401.421-.746.872-1.365 1.353-1.858a7.675 7.675 0 011.424-1.18 6.038 6.038 0 012.606-.911c1.554-.154 2.91.288 4.03 1.334 1.034.967 1.865 2.476 2.445 4.471.428 1.475.755 3.246.95 5.24zm-11.254-.927a87.866 87.866 0 003.598-.223 35.73 35.73 0 003.627-.49c-.46-2.579-1.152-4.309-2.073-5.192-.383-.364-.825-.52-1.323-.471-.52.051-.985.308-1.397.769-.413.462-.777 1.014-1.093 1.657s-.586 1.32-.806 2.03c-.222.712-.399 1.351-.533 1.92zM354.31 86.916c.474.12.822.415 1.023.851.202.437.206.911.014 1.423a163.31 163.31 0 00-.892 2.408 54.36 54.36 0 00-.72 2.119 148.74 148.74 0 00-.59 1.908c-.182.606-.357 1.204-.532 1.784-.205.683-.418 1.372-.619 2.055a58.002 58.002 0 01-.676 2.135c-.25.74-.528 1.52-.835 2.345a61.734 61.734 0 01-1.065 2.65 2.308 2.308 0 01-.69.924 2.055 2.055 0 01-1.008.448 1.537 1.537 0 01-.749-.065 1.461 1.461 0 01-.992-.897c-.182-.454-.168-.936.043-1.445.326-.793.623-1.535.892-2.227.269-.69.508-1.348.72-1.973a87.153 87.153 0 01-1.411-2.045 59.271 59.271 0 01-1.568-2.476 40.934 40.934 0 01-1.497-2.722 26.97 26.97 0 01-1.194-2.724c-.173-.478-.15-.96.072-1.449.22-.489.584-.863 1.08-1.09.486-.222.977-.247 1.439-.09.46.16.776.476.948.95.403 1.116.941 2.27 1.613 3.46.672 1.189 1.352 2.3 2.043 3.329.345-1.164.72-2.386 1.122-3.666.403-1.28.931-2.777 1.584-4.49a2.392 2.392 0 011.022-1.185c.47-.276.956-.365 1.424-.245z"/></g></svg>