<svg version="1.1" id="Layer_1" xmlns="http://www.w3.org/2000/svg" x="0" y="0" viewBox="0 0 262.299 63.46" xml:space="preserve"><style>.st0{fill:#e02020}.st1{fill:none}.st2{fill:#ff6e6e}.st3{fill:#fff}</style><path class="st0" d="M51.861 60.97v-9.779c0-.496.397-.884.893-.884a.89.89 0 01.902.884v4.015h4.926V51.19c0-.496.415-.884.911-.884s.884.388.884.884v9.78a.89.89 0 01-.902.884.882.882 0 01-.893-.885v-3.969h-4.926v3.97a.89.89 0 01-.902.884.882.882 0 01-.893-.885zM61.75 61.007c0-.136.027-.28.09-.415l4.232-9.735c.153-.351.451-.55.82-.55.353 0 .668.199.813.541l4.185 9.744c.055.135.09.28.09.415 0 .496-.396.848-.874.848a.927.927 0 01-.83-.533l-1.128-2.68h-4.574l-1.11 2.671a.846.846 0 01-.811.542c-.487 0-.902-.334-.902-.848zm6.64-4.16l-1.542-3.671-1.525 3.672h3.067zM73.345 60.97v-9.779c0-.496.397-.884.893-.884h3.022c1.93 0 3.482 1.507 3.482 3.42 0 1.92-1.552 3.391-3.482 3.391h-2.12v3.852a.89.89 0 01-.902.885.882.882 0 01-.893-.885zm3.924-5.647c.92 0 1.678-.776 1.678-1.642 0-.902-.767-1.596-1.687-1.596h-2.12v3.238h2.13zM82.386 60.97v-9.779c0-.496.396-.884.893-.884H86.3c1.93 0 3.482 1.507 3.482 3.42 0 1.92-1.552 3.391-3.482 3.391h-2.12v3.852a.89.89 0 01-.902.885.882.882 0 01-.893-.885zm3.924-5.647c.92 0 1.678-.776 1.678-1.642 0-.902-.767-1.596-1.687-1.596h-2.12v3.238h2.129zM94.187 60.97v-3.906l-3.528-5.223a.918.918 0 01.704-1.506c.244 0 .496.098.659.315l3.058 4.637 3.04-4.655a.874.874 0 01.659-.307c.478 0 .911.415.911.894 0 .198-.072.414-.226.613l-3.482 5.223v3.915a.89.89 0 01-.902.885.882.882 0 01-.893-.885zM108.46 61.304l-4.176-9.743a.83.83 0 01-.081-.352c0-.496.433-.884.91-.884a.9.9 0 01.831.55l3.365 7.84 3.356-7.84a.877.877 0 01.812-.54.88.88 0 01.893.874.985.985 0 01-.072.352l-4.177 9.743a.9.9 0 01-.812.55h-.063a.888.888 0 01-.785-.55zM113.235 61.007c0-.136.027-.28.09-.415l4.231-9.735c.154-.351.451-.55.821-.55.352 0 .668.199.812.541l4.186 9.744c.054.135.09.28.09.415 0 .496-.397.848-.875.848a.927.927 0 01-.83-.533l-1.128-2.68h-4.573l-1.11 2.671a.846.846 0 01-.812.542c-.487 0-.902-.334-.902-.848zm6.64-4.16l-1.543-3.671-1.525 3.672h3.068zM124.83 60.97V51.2c0-.505.396-.893.892-.893s.902.388.902.893v8.868l3.744.01a.89.89 0 01.893.892.868.868 0 01-.857.885H125.614c-.424 0-.785-.451-.785-.885zM132.57 60.961V51.21c0-.505.397-.902.903-.902h4.817c.496 0 .884.397.884.902a.882.882 0 01-.884.894h-3.925v3.12h2.87c.477 0 .857.398.857.885 0 .496-.398.866-.894.866h-2.833v3.094h3.925a.89.89 0 01.884.902c0 .488-.37.885-.848.885H133.4a.877.877 0 01-.83-.894zM140.8 60.97V51.22a.89.89 0 01.893-.894c.378 0 .577.163.802.479l5.359 7.496v-7.109c0-.496.415-.884.911-.884.505 0 .884.388.884.884v9.78c0 .54-.379.82-.893.884-.334 0-.65-.217-.721-.343l-5.44-7.614v7.072a.89.89 0 01-.902.885.882.882 0 01-.894-.885zM153.936 60.97v-8.876h-2.4a.882.882 0 01-.883-.894c0-.496.387-.893.884-.893h6.567c.496 0 .893.406.893.902a.876.876 0 01-.893.885h-2.408v8.876a.89.89 0 01-.903.885c-.496 0-.857-.388-.857-.885zM160.433 60.97v-9.779c0-.496.397-.884.893-.884a.89.89 0 01.902.884v9.78a.89.89 0 01-.902.884.882.882 0 01-.893-.885zM164.575 60.97V51.22a.89.89 0 01.893-.894c.379 0 .577.163.803.479l5.358 7.496v-7.109c0-.496.415-.884.912-.884.505 0 .884.388.884.884v9.78c0 .54-.38.82-.893.884-.334 0-.65-.217-.722-.343l-5.44-7.614v7.072a.89.89 0 01-.902.885.882.882 0 01-.893-.885zM175.438 60.961V51.21c0-.505.397-.902.902-.902h4.817c.497 0 .884.397.884.902a.882.882 0 01-.884.894h-3.924v3.12h2.869c.478 0 .857.398.857.885 0 .496-.397.866-.893.866h-2.833v3.094h3.924a.89.89 0 01.884.902c0 .488-.37.885-.848.885H176.267a.877.877 0 01-.83-.894zM183.17 53.492c0-.154.046-.307.127-.451l1.317-2.274a.901.901 0 01.767-.45c.478 0 .902.396.902.874a.985.985 0 01-.126.46l-1.317 2.283a.893.893 0 01-1.67-.442zM187.79 59.744a1.159 1.159 0 01-.117-.488c0-.45.415-.857.866-.857.28 0 .595.154.83.533.496.794 1.344 1.245 2.418 1.245 1.055 0 2.165-.596 2.165-1.66 0-1.119-1.128-1.354-2.147-1.624-2.184-.415-3.861-1.38-3.861-3.338 0-1.985 1.822-3.329 3.788-3.329 1.417 0 2.797.578 3.447 1.687.072.108.099.225.099.343 0 .469-.388.82-.848.82-.172 0-.38-.026-.533-.17-.667-.623-1.154-.885-2.138-.885-1.082 0-2.002.578-2.011 1.516 0 1.073 1.209 1.326 2.616 1.633 1.696.45 3.374 1.236 3.374 3.248 0 2.038-1.777 3.554-4.023 3.554-1.796 0-3.366-1.002-3.925-2.228zM201.46 60.97v-9.779c0-.496.397-.884.893-.884h1.984c3.248 0 5.882 2.553 5.882 5.792s-2.634 5.756-5.881 5.756h-1.985a.882.882 0 01-.893-.885zm2.887-.92c2.264 0 4.068-1.678 4.068-3.951 0-2.228-1.786-3.951-4.023-3.979h-1.137v7.93h1.092zM210.907 61.007c0-.136.027-.28.09-.415l4.231-9.735c.154-.351.451-.55.821-.55.352 0 .668.199.812.541l4.186 9.744c.054.135.09.28.09.415 0 .496-.397.848-.875.848a.927.927 0 01-.83-.533l-1.128-2.68h-4.573l-1.11 2.671a.846.846 0 01-.812.542c-.487 0-.902-.334-.902-.848zm6.64-4.16l-1.543-3.671-1.525 3.672h3.068zM223.52 60.97v-3.906l-3.527-5.223a.918.918 0 01.704-1.506c.243 0 .496.098.658.315l3.059 4.637 3.04-4.655a.874.874 0 01.658-.307c.479 0 .912.415.912.894 0 .198-.073.414-.226.613l-3.482 5.223v3.915a.89.89 0 01-.902.885.882.882 0 01-.893-.885z"/><g><path class="st1" d="M261.801 55.273v.002l.057.101a11.29 11.29 0 01-.057-.103zM261.726 55.145l.036.064h.005l-.03-.055c-.013-.023-.012-.016-.011-.009zM234.554 45.273c.105.075.168.201.255-.053-.042-.135-.179.007-.255.053z"/><path class="st0" d="M245.098 52.639l.329.182c.013 0-.164-.092-.33-.182zM249.665 53.886c.24-.03.476-.066.707-.105-.337.012-.662.037-.974.074.328-.024.314.006.267.03zM249.857 54.25c.228.052.175.013.37.056-.26-.07-.15-.057-.702-.145-.17-.01.55.107.332.089zM246.24 52.715c0 .056 0 .114-.005.17l.01-.072c.007-.078.003-.086-.005-.098zM245.55 52.442l.046.083v-.002zM245.697 52.696l-.01-.018-.004.004.006.01zM245.829 53.022c.012.009-.036-.03-.036-.033-.039-.027-.309-.229.036.033zM235.678 45.121l-.006.094c.031-.057.04-.096.006-.094zM241.45 43.255l.111-.24c-.253.064-.116.137-.111.24zM243.972 52.467c-.4-.152-.235-.116-.024-.064l-.022-.025a17.346 17.346 0 01-.259-.09c-.086-.031-.176-.064-.269-.096.103.051.185.096.271.143.047.025.104.053.146.077l.157.055zM244.043 52.416l.01.013c.178.045.332.08.154.006.008.025-.058.013-.164-.02zM232.349 46.871c.027.002.055.006.082.005.016-.062.03-.073-.01-.215l.246-.25.002-.06-.339.343c.024.11.015.126.019.177zM245.611 52.793l-.005.007c.089.102.087.09.277.263a2.199 2.199 0 01-.272-.27zM249.767 53.966c.038-.007.296-.03.49-.04a10.221 10.221 0 01-.598-.037c-.04.025-.099.044.108.077zM244.646 52.535l-.04-.015.004.019c.187.071.018-.006.036-.004zM249.014 53.308l-.018.01v.013c.006-.01.012-.014.018-.023zM244.234 52.392a42.62 42.62 0 01-.273-.11l.016.03.314.124c-.445-.183-.283-.125-.057-.044z"/><path class="st0" d="M262.299 56.131a2.919 2.919 0 01-.609-.306c0-.202.02-.4.11-.55l.06.106.024.042-.011-.02.09.159-.091-.162-.07-.128c.014-.022.023-.046.04-.066-.03.01-.05.002-.074.003l-.052-.095-.077-.141.003.007c.004.008.005.02.007.031l.033.058-.003-.003-.007-.007-.011-.014c.006.016.01.033.018.048.024.049.052.083.04.06.008.004.007-.003.007-.008l.036.064c-.166 0-.234-.19-.289-.407-.074-.239-.157-.466-.53-.48-.004-.143.17-.023.209-.136-.223.028-.365-.052-.472-.34l.057-.003c-.534-.62-.58-1.024-1-1.883l-.146.18c-.089-.186-.054-.259-.061-.37-.41-.011.302.49-.124.515.224-.47-.794-1.219-.48-1.661-.18-.27-.16.222-.338-.048l.067-.15-.193.034c-.095-.192-.02-.38.073-.453.019.05.113.103.154.143-.029-.323-.504-.616-.516-.725l.114.31c-.625-.65-1.198-1.675-2.1-2.1l-.02.126c-.316-.169-.427-.261-.515-.393-.1-.12-.174-.286-.562-.445l.039-.007c-.198.01-.4-.056-.592-.164.254-.035-.283-.359.036-.383-.45-.057-.555-.048-.638-.01-.08.038-.14.102-.427.24l-.082-.193c-.2.126-.226.197-.602.205.326-.12-.226-.285.15-.447-.406-.231-.735-.13-.979-.05-.248.086-.425.153-.644-.1-.312.51.72.198.524.324.175.146-.273.371-.511.357-.226.018-.533-.55-1.12-.413.014-.001.046-.045.098-.054a.288.288 0 00-.095-.009.057.057 0 00-.035.008c-.024.013-.047.037-.072.06-.05.045-.119.087-.17-.001-.12.333-.153.029-.289.45l.345-.19c-.12.1-.302.388-.546.534-.066-.047-.129-.151-.166-.315.059-.044.17-.053.23-.057 0-.193-.144-.086-.141-.275.147-.193.204-.06.29.039a.481.481 0 00.235-.217c-.02-.096-.138.077-.197.107-.02-.019-.008-.065.066-.212-.13.251-.174.156-.2.065-.033-.099-.038-.185-.243-.131l.168-.145c-.04.003-.142.043-.239-.085.124 0 .255.01.33-.05-.048.04-.136-.042-.183-.11a1.054 1.054 0 01-.114-.246c-.061-.176-.122-.361-.294-.446.51.543-.08.302.002.638-.794-.426.05-.77-.72-1.371.122.123.226.394.026.333-.117-.165-.272-.398-.307-.567-.618-.385-.04.245-.37.18-.044-.36-.35-.108-.648-.18l.109-.197c-.67-.501-.38.299-.988-.11.13-.065.267-.127.41-.187l-.406-.055.16-.216c-.245.019-.39.003-.527-.029-.137-.02-.266-.072-.468-.14.07.173-.116.393-.453.356-.222-.137.145-.211-.343-.186.112-.136.25-.323.454-.094.03-.07.129-.125.162-.193-.269-.212-.671-.063-.857-.073a.472.472 0 01.2.055c-.247.103-.488.195-.703.33-.113-.074-.034-.15.048-.224-.14.038-.228.15-.429.19.033-.187-.002-.374.293-.49-.222.09-.441.178-.652.272-.053-.07-.364-.156-.291-.237-.19-.02-.397.108-.613.234-.208.134-.423.271-.666.257-.014.04-.053.085-.142.134-.419.073-.855-.04-1.252.348l-.366-.228c-.347.187.485.28-.09.59-.396.238-.245-.214-.423-.253-.159.225-.428.669-.89.535.107-.1.22-.084.333-.146l-.348-.08c.256-.395.555-.385.194-.536.15.618-1.107.424-.957 1.032l-.227-.072c.056-.01.054-.048.109-.058-.449-.187-.148.53-.646.561-.176-.005-.31-.066-.218-.167-.107.08-.219.17-.325.238-.106.007-.102-.106.002-.112l-.528.15v-.019a1.672 1.672 0 01-.29.352c-.144-.078.062-.073.02-.149l-.284.181c-.126-.152.106-.335.3-.33-.164-.302-.208-.257-.299-.175-.091.092-.216.177-.449-.012l.226-.071c-.118-.37-.324-.226-.398-.497.002.058.04.218.09.38.063.146.108.299-.04.374-.066-.058-.13-.107-.29-.008.036-.134.002-.174-.066-.186l-.176-.03.29-.295c.013.014.033.021.06.032l-.028-.122-.371.377-1.94-.333.643 1.648c4.553 4.721 9.213 5.435 9.978 5.523.015-.007.052-.005.12.013h.001l.897.338.197.073c-.057-.02-.113-.042-.17-.064l.17.064-.005-.006a309.15 309.15 0 00-.192-.073l-.21-.08a86.393 86.393 0 00.21.076c-.178-.07-.558-.216-.655-.258l.631.243.023.008c.102.036.084.027 0-.006-.26-.105-1.11-.431-.65-.269l.65.262.122.05-.122-.056-.031-.014.03.012.163.065-.027-.037-.136-.056c-.223-.093-.39-.167-.355-.162.169.065.278.111.354.143.055.022.094.038.115.044-.355-.517-.688-1.453-.046-2.829l.01-.023-.01.023c-.076.188-.566 1.519.211 2.892.26.114.484.21.04.033l.493.206-.006-.023a15.408 15.408 0 01-.542-.26c.2.081.326.143.457.203-.032-.02-.235-.115-.237-.128l.31.143c-.136-.516-.09-1.374.716-2.715.03-.048.05-.084.077-.129l.043-.084s1.355-2.243-.043.084c-.176.36-.859 1.85-.65 2.91l.46.213-.35-.18.584.265c.207.097-.574-.313-.261-.182a1.201 1.201 0 01-.134-.084c.136.04.464.23.217.032l-.016-.014.393.253.003-.008c-.142-.106-.527-.336-.568-.428-.034-.096.35.245.472.324-.176-.146-.413-.447-.099-.216.034.058-.025.015-.022.038l.206.16.04.046.03-.074a3.53 3.53 0 00-.139-.207l.117.12c-.012-.006.01.029-.001.024.017.02.023.025.033.035l.01-.027c-.057-.122-.223-.414-.11-.37.062.04.118.124.129.199 0-.053.004-.107.014-.161.027.007.054.115.03.107.01-.008.023-.016.034-.023l.073-.19c.008-.064.018-.124.029-.16a.13.13 0 01.017.044l1.51-3.895s-.524 2.725-1.471 4.327c.068.235.065-.301.263.011l-.097.083c.067.357.157.225.222.452.02-.119-.202-.566-.08-.724.025.047.097.072.127-.055 0 .226-.005.169.084.169l-.049.294c.11-.071.125-.222.204-.346.106.046.09.279.08.475.16.076-.053-.387.159-.406.076.087.153.076.25.026.418-.821 1.037-2.105 1.247-2.904 0 0-.058 1.443-1.039 2.905-.021.049-.062.09-.053.144l.144-.21c.02.012-.006.08-.02.115.096-.07.083-.287.222-.332.068-.191.12.062.14.194 0 .079.07.14.17.026 0 .093-.086.163-.12.274l.058-.03 2.19-3.786s-.83 2.16-2.02 3.696c.066-.037.124-.077.291-.205l.047.241c.002-.249.243-.427.463-.557l.005-.046.037.02-.042.026-.008.065.074-.077.09.05a1.055 1.055 0 01-.185.225l.02-.198a1.71 1.71 0 00-.333.454.16.16 0 01.094-.042.314.314 0 00-.07.102c-.009.031.04-.018.104-.07l-.118.314.072-.111.119.304c.167-.096.34-.237.5-.348.167-.104.372-.146.531-.099-.216.136-.27.293-.463.509.151-.275-.268-.052-.284-.138.02.054-.07.159-.105.193.077-.06.225-.062.338-.088-.063.072-.082.11-.09.142.681-.429 1.914-1.347 2.365-2.615 0 0 .183 1.366-2.026 2.566.049.02.093.047.149.027-.117.106-.248.2-.274.122-.093.155.017.07.15 0 .128-.074.279-.134.192-.006-.019-.015-.008-.04-.079.002.152-.042.152.125.006.168l-.017-.014c.04.129.257.282.757.224l-.666.111c.28-.03.578-.043.894-.038.107.003.238.008.367.014l.019.016c.777-.152 1.759-.496 2.37-1.282 0 0 .094 1.47-2.744 1.442-.359.066-.284.057-.44.099-.047-.002-.098.006-.173.012.083-.016.892.031.932.082-.129-.013-.797-.044-.894-.06.292.037.601.088.927.152-.185-.042-.71-.068-.936-.082.16.012.055.054.165.08l.169.001c-.04.05 1.424.3 1.583.434-.238-.062-1.308-.278-1.38-.268l.294.069c.362.084.943.227 1.496.379.084.054.166.105.248.155l-.346-.105a73.619 73.619 0 00-1.767-.489c-.206-.03-.354-.075-.277-.036a5.286 5.286 0 01-.499-.13.726.726 0 01-.124-.003c.673.168.767.224 1.366.386l-.857-.27c.328.08.817.206 1.25.333.43.127.811.258.834.287-.254-.06-1.329-.375-1.56-.436.257.073.587.193.412.146l-.445-.139c-.25-.06 1.117.348.442.166-.02 0-.99-.288-.5-.139l2.89.878.137.065-.345-.108.04.017a.385.385 0 01.046.014l.276.086.152.07a22.828 22.828 0 00.718.248c1.794.581 5.276 1.45 8.003.308zm-.498-.858l.057.103-.058-.1.001-.003zm-27.247-10c.076-.046.213-.188.255-.053-.087.254-.15.128-.255.053zm8.913 1.17c-.115.5-.702 2.342-.702 2.342-.235-.924.702-2.342.702-2.342zm-3.075 3.347c-1.071-1.353-.542-2.476-.542-2.476-.081.858.31 1.05.31 1.05-.032-.833.57-1.43.57-1.43-1.03 2.015.484 3.527.484 3.527-.604-.366-.858-.935-.964-1.285l.142.614zm5.523.143l-.31 1.22s-.375-.373.31-1.22zm-.832-2.087l.733-1.308c.11.705-.733 1.308-.733 1.308zm.941 4.489c.027-.259.06-.136.11-.062-.03.047-.085.194-.11.062zm1.06-.964l.794-2.92.068.592s-.126 1.308-.862 2.328zm1.592 1.05c.039.001.07.028.08.1-.061.05-.08-.001-.08-.1zm.53-.825s.016-.638.665-1.065l-.665 1.065zm-.14.722c.808-.849 1.453-2.215 1.453-2.215.008.953-1.452 2.215-1.452 2.215zm4.02-3.377l-.508.61c.08-.725.507-.61.507-.61zm-2.59 4.258s1.467-1.368 1.803-2.268c0 0-.19.86-.844 1.506l.72-.399s-.371.715-1.678 1.16zm5.29-2.056l.459-1.03s.028.66-.459 1.03zm-.617 3.036c.938-.661.859-.987.859-.987-.765.842-1.556.79-1.556.79 2.494-1.092 2.434-2.899 2.434-2.899.158.788-.598 1.925-.598 1.925l.393-.481c-.653 1.358-1.532 1.652-1.532 1.652zm6.593 1.03l-.036-.064c0-.007-.002-.014.011.01l.03.054h-.005z"/><path class="st0" d="M243.998 52.349l.49.184-.493-.188.003.004zM251.978 55.072c-.173-.05-.758-.24-.586-.178.92.295.067.035.805.26.344.117-.107-.026.02.02l.955.313-.046-.056-1.817-.574.669.215zM241.43 43.3l.015-.002a.113.113 0 00.005-.043l-.02.044zM236.73 44.6l-.053.007.167.24zM239.262 43.45c-.114.025-.225.125-.34.15.226-.125.475.165.34-.15z"/><g><path class="st0" d="M251.53 56.377l.116.067.12.03-.235-.097zM251.99 55.877c.15.062.284.132.497.234l-.731-.395.235.161zM252.111 55.73c-.203-.112-.509-.34-.563-.287.213.108.297.223.563.286zM236.245 57.824c.325.022.37.13.433.282l.352-.487c-.26.079-.518.144-.785.205z"/><path class="st0" d="M253.11 56.446l-.013-.003a1.48 1.48 0 00-.47-.057c-.186.008-.395-.004-.736-.148.088.08.198.185.302.262a9.219 9.219 0 01-.794-.052c-.453.264-1.07.83-1.162 1.977-.149 1.846-.556 1.84-.556 1.84s.388-1.266.398-2.41c.01-1.145-.028-1.057-.028-1.057s.034.809-.452 1.734c0 0 .227-.814.014-1.626 0 0-.498 1.242-1.291 2.301 0 0 .932-1.44.835-2.32 0 0-.881.682-1.315 2.346 0 0 .195-1.477.72-2.68 0 0-.915.67-1.052 1.5 0 0 .13-1.249.164-1.547l-.355-.199s-.383 1.218-.845 1.864c0 0 .649-1.656.473-2.072l-.448-.252s-.21 1.029-.52 1.504c0 0 .293-1.18.427-2.098a1.083 1.083 0 01-.411-.117c-.312.425-.694 1.024-.842 1.595 0 0-.146-.573.578-1.822a.84.84 0 01-.025-.034c-.245.147-1.158.779-1.446 2.18 0 0-.398-.586.938-2.321 0 0-1.164.31-1.872 1.672 0 0 .23-1.607 1.323-2.197 0 0-1.416.054-1.883 1.34 0 0-.044-.77.765-1.366.42-.308.756-.592.986-.796-.515.078-2.405.457-2.785 1.904a56.338 56.338 0 00-.377 1.477s-.006.02 0-.005c-.008-.032-.286-1.256.554-2.302.851-1.06 1.481-1.074 1.481-1.074l.19-.241c-.121-.011-.212-.026-.223-.047.073.005.139.004.2 0-.097-.037-.192-.07-.288-.107-.131-.011-.298-.026-.534-.05h.383c-.408-.044-.614-.053-.817-.136.244.045.408.043.599.047-.195-.071-.39-.143-.581-.21-.291-.054-.555-.132-.51-.162-.003-.003.016-.003.021-.005-2.952-.994-5.397-1.443-7.033-1.643l-.088.252c.182-.305.496.005.754.284l.04-.049.015.107-.055-.058-.053.064.117.057.032.236c-.09.013-.197-.03-.307-.092l.158-.201c-.196-.097-.41-.182-.58-.132a.341.341 0 01.102.148c-.053-.024-.1-.038-.127-.02-.03.021.043.063.13.132l-.315.155.135.01-.126.657c.385.414.923.74 1.082 1.487-.253-.176-.4-.023-.69-.013.147-.133.107-.297.041-.422-.07-.143-.174-.31-.162-.495-.013.194-.155.162-.207.12l.162.3c.051.102.098.17.15.296-.237-.017-.17.18-.254.415.442-.198.382.56.614.817-.146.06-.323.028-.372-.366-.246.515.652.403.494.858-.033-.085-.025-.139-.112-.149.187.163.284.67.114.613l-.039-.083c.156.605.864 1.642 1.253 1.455a2.808 2.808 0 01-.525.228c.396.03.777.027 1.155.009.066.081.138.162.209.243-.25.272-.53.606-.856.43.057.138.128.32.421.46-.037-.1.206-.51.31-.433-.031.512.02.31.107.857-.049-.158.43-.42.578-.266-.08.036-.342.4-.443.387.263-.004.519-.013.769-.028-.164-.017-.308.322-.304.521.015-.11.38.315.536.36l-.119-.24c.466.45.926-.222 1.408.114-.117.054-.514.463-.28.691.143-.071.478-.293.838-.478.187.107.376.213.577.315-.41.18-.87.34-1.176.386.147.22-.033.19.288.349.043.187-.278.097-.376.052l.7.488c.11-.295.718-.014.797-.266-.312-.028-.635-.045-.948-.102.057-.147.275-.28.533-.344.263-.072.564-.077.807.065.08.175-.324.466-.359.565.113-.063.582.038.605.12l-.293.065c.26.23.643-.196.894.222.119.07.237.522.315.35-.046-.243.055-.72.189-1.108l.038.015.37.13-.059.11.08.024.037-.114.416.146c-.046.265-.513.445-.436.696.035-.078.18-.14.236-.156.101.113-.14.233.146.292.15-.284.546.22.218-.209.297.008.262.161.58.258-.021-.152.211-.347.457-.46l.344.12.005.034c.545.196.795.453 1.328.585.03.087.266.24.123.347.092-.036.188-.123.355-.09.262.348-.382-.05-.21.333.064-.174.49-.138.754-.219-.023-.285-.536-.157-.8-.112a.738.738 0 01.23-.36 13.98 13.98 0 001.702.291c.371.166 1.375.112 1.963.237.08-.059.194-.132.22-.201a9.124 9.124 0 002.176-.448.251.251 0 00.033.101l.234-.196.03-.01c.01.052-.05.152.045.166-.014-.062.014-.135.057-.203.144-.058.278-.12.41-.183.014.002.024-.004.038-.001.004-.006.004-.013.008-.02.125-.06.243-.123.358-.187.015 0 .023.003.046-.002.013-.028.037-.04.06-.056.629-.364 1.101-.774 1.404-1.156.385-.486 1.436-1.49 2.404-2.384-.973-.614-2.632-1.535-4.48-2.038-.055-.015-.108-.033-.163-.047-.177.073-.409.14-.707.185zm-17.975-4.633a.4.4 0 01-.01.29c-.083-.058-.06-.164.01-.29zm3.911 4.033c-.478-1.129.622-2.034.622-2.034-.621.633-.53 1.63-.53 1.63l.252-.436-.005.018a4.656 4.656 0 011.003-1.324s-.741.95-1.217 2.2l-.033.135c-.005-.007-.007-.014-.01-.021-.115.315-.21.647-.272.986 0 0-.01-.486.19-1.154zm1.678-1.12c-.009.2-.094.74-.094.74-.167-.426.094-.74.094-.74zm-.625 2.007c.318-.021.202 1.552.202 1.552-.54-1.092-.202-1.552-.202-1.552zm3.789 1.659l-.147 1.348c-.315-.609.147-1.348.147-1.348zm6.943 2.398l.391-1.014s.192.511-.391 1.014zm3.164-2.502c.072.215.147.457.223.744.368 1.377-.56 2.468-.56 2.468.982-1.453.19-2.643.19-2.643.224 1.29-.46 1.938-.46 1.938.298-.74.379-1.454.37-2.056l.001-.003c.069-.166.096-.288.104-.381l.1.323.032-.39zm-1.713 3.288c.374-.761.233-2.51.15-3.376.23.71.145 1.683.145 1.683.124-.31.155-.65.146-.974.205 1.545-.44 2.667-.44 2.667z"/><path class="st0" d="M253.351 55.935c-.25-.08-.607-.163-.979-.347.146.078.441.222.41.254-.891-.31-.017-.099-1.054-.485.54.234.63.37.869.54.822.37.355.01.075-.166.291.123.578.25.845.379l.196.097.096.048.008.006-.303-.363a.478.478 0 00-.163.037zM243.624 62.4a.348.348 0 01-.118-.165c-.023.05-.001.108.118.165zM252.107 62.797l.31.008-.098-.03zM248.904 63.42l.17-.096c-.086-.057-.087-.11-.13-.192l-.04.287zM248.087 63.261c-.045.074-.53.141-.097.2.048-.073.394-.08.097-.2zM239.265 60.36c-.277-.034-.35-.167-.431.156.295.325.248-.189.49.136.144-.042-.197-.265-.059-.291z"/><path class="st0" d="M239.265 60.36c.044.007.093.01.147.009a.415.415 0 00-.147-.008zM244.984 54.209s-.496.33-.662.732l.93-.582s-.03-.339-.268-.15zM246.982 55.142c.025.2.097.722.097.722s.265-.477-.097-.722zM248.036 55.92s-.35.728-.218.982l.266-.475s.095-.465-.048-.507zM249.182 56.49l.112.687s.287-.506-.112-.686zM250.424 56.436c-.051-.08-.156.06-.078.237l.373.036s-.233-.175-.295-.273zM250.31 57.384s.347-.355.118-.583c-.044-.044-.063-.086-.082-.128l-.052-.005.016.716zM249.75 56.363l.039.904s.151-.59-.038-.904zM248.607 57.194s.197-.254.138-.513l-.138.513z"/></g></g><g><path class="st2" d="M180.39 2.568v.001l.077.033a8.254 8.254 0 01-.077-.034zM180.29 2.527l.05.02.002-.001-.041-.02c-.017-.006-.014-.003-.01 0zM160.361 8.636c.094-.002.185.043.124-.141-.083-.06-.1.081-.124.141zM169.63 8.3l.268-.037c.007-.006-.135.017-.269.038zM172.8 7.036c.125-.121.245-.244.361-.367a8.813 8.813 0 00-.528.465c.178-.156.183-.132.167-.098zM173.069 7.163c.153-.069.106-.07.237-.129-.18.073-.111.032-.467.221-.103.069.363-.177.23-.092zM170.32 7.849c.025.032.049.066.071.1l-.026-.046c-.03-.048-.035-.05-.045-.054zM169.803 7.991l.063.028v-.002zM170 8.074l-.015-.006v.003l.007.004zM170.216 8.204l-.035-.003c-.034 0-.277.002.035.003zM160.943 8.06l.037.058c-.007-.047-.018-.074-.037-.057zM163.456 4.481l-.04-.186c-.118.146-.007.129.04.186zM168.907 8.69c-.297.086-.186.036-.042-.026l-.024-.005-.188.06c-.063.02-.13.04-.196.062.08-.015.148-.025.218-.035l.117-.02.115-.036zM168.925 8.63l.011.004c.123-.052.227-.098.092-.064.015.011-.028.032-.103.06zM159.786 10.513c.016-.01.034-.02.049-.033-.018-.042-.014-.055-.1-.119l.034-.251-.025-.035-.046.344c.061.053.063.067.088.094zM169.992 8.166v.007c.095.02.09.014.273.031a1.587 1.587 0 01-.273-.038zM172.893 7.038c.02-.02.158-.146.265-.235-.11.078-.23.157-.36.238-.013.032-.038.068.095-.003zM169.324 8.437l-.03.008.01.01c.14-.04.009-.012.02-.018zM172.175 6.986l-.007.014.006.008v-.022zM169.025 8.533a30.91 30.91 0 01-.205.055l.022.01.234-.064c-.335.088-.217.05-.051 0z"/><path class="st2" d="M181.048 2.846a2.104 2.104 0 01-.483.088c-.087-.117-.163-.239-.175-.365l.08.035.032.014-.015-.007.121.052-.123-.053-.095-.043c-.002-.019-.007-.037-.006-.056-.013.019-.028.023-.042.034l-.07-.032-.106-.048.004.003c.006.003.012.01.018.015l.044.019h-.003l-.007-.002-.012-.003c.01.007.02.015.031.02.035.018.066.025.05.017.005 0 .002-.004 0-.007l.048.02c-.096.073-.217-.007-.343-.108-.146-.106-.293-.2-.514-.046-.064-.081.088-.087.062-.17-.116.113-.233.129-.42.01l.032-.027c-.577-.125-.779-.338-1.393-.65l-.006.167c-.132-.069-.143-.125-.196-.186-.24.171.387.15.152.35-.075-.368-.986-.357-.997-.748-.22-.078.004.197-.215.119l-.027-.115-.096.103c-.138-.07-.176-.21-.155-.293.033.021.11.01.151.016-.157-.174-.558-.136-.612-.194l.2.129c-.641-.102-1.416-.444-2.12-.297l.043.081c-.255.04-.359.035-.467-.003-.11-.026-.224-.09-.517-.012l.02-.02a.813.813 0 01-.412.161c.13-.13-.319-.083-.146-.236-.283.162-.34.214-.372.271-.029.057-.035.12-.142.324l-.13-.075c-.061.159-.044.211-.258.38.136-.212-.254-.067-.107-.324-.335.043-.48.244-.585.397-.106.156-.18.272-.415.221.042.43.5-.199.443-.04.164.008.003.332-.14.427-.123.108-.545-.086-.824.248.008-.007.007-.046.033-.074a.208.208 0 00-.058.037.041.041 0 00-.017.02c-.008.017-.011.041-.016.065-.01.048-.03.102-.098.073.076.244-.076.083.03.385l.115-.26c-.026.11-.005.355-.083.545-.058.002-.14-.031-.232-.109.015-.051.075-.104.107-.133-.083-.11-.12.013-.2-.097.001-.175.092-.123.184-.103a.347.347 0 00.041-.228c-.053-.046-.046.105-.067.148-.02-.003-.032-.034-.054-.15.034.2-.032.165-.087.124-.062-.043-.102-.09-.196.029l.034-.156c-.023.02-.064.086-.175.055.071-.054.152-.105.168-.171-.01.042-.097.033-.153.015a.76.76 0 01-.172-.092c-.112-.075-.227-.155-.363-.13.53.092.084.21.278.367-.642.099-.305-.465-1.01-.477.124.018.301.129.16.18-.14-.044-.33-.11-.423-.193-.523.047.083.159-.135.264-.181-.187-.248.09-.451.178l-.023-.16c-.603.002-.089.337-.616.366.046-.095.098-.19.154-.287l-.257.145-.001-.194a1.162 1.162 0 01-.317.212c-.087.048-.184.074-.33.123.116.069.104.276-.106.402-.188.017-.008-.186-.279.04.006-.126.004-.293.221-.25-.014-.053.02-.128.01-.182-.247-.005-.414.256-.525.33a.34.34 0 01.138-.055c-.097.167-.196.324-.26.495-.098.007-.086-.071-.07-.15-.065.083-.067.186-.165.296-.062-.122-.164-.214-.044-.409-.088.148-.177.294-.257.44-.062-.018-.277.068-.271-.01-.118.07-.182.234-.251.4-.062.168-.126.34-.272.437.009.03.006.072-.024.138-.21.224-.51.35-.57.745l-.31.027c-.118.258.402-.05.206.38-.126.308-.235-.018-.354.037.006.199.043.57-.281.695.02-.105.091-.145.129-.23l-.235.106c-.024-.339.152-.463-.121-.394.354.291-.454.725-.104 1.01l-.161.058c.027-.03.01-.052.037-.081-.34.087.145.37-.128.603-.104.074-.207.097-.198-.001-.027.092-.053.192-.084.278-.058.05-.105-.017-.048-.066l-.238.316-.008-.011c.016.095 0 .249-.015.328-.116.018.004-.069-.053-.093l-.085.227c-.138-.033-.084-.24.03-.32-.226-.104-.232-.059-.248.028-.013.093-.048.196-.264.188l.099-.139c-.228-.162-.285.01-.445-.113.026.032.118.108.217.18.1.056.192.125.14.232-.064-.005-.122-.006-.171.121-.038-.092-.075-.1-.119-.078l-.114.06.039-.297c.013.003.028-.002.048-.007l-.069-.058-.05.378-1.262.65 1.086.67c4.67.742 7.664-.87 8.142-1.151.006-.01.028-.025.075-.045l.663-.195.146-.043-.126.037.125-.037-.005-.001-.142.04-.155.045a63.04 63.04 0 00.153-.046c-.132.037-.415.117-.489.135l.47-.134.016-.005c.074-.024.06-.02-.003-.004-.195.053-.826.234-.49.128l.487-.131.091-.025-.094.021-.024.005.023-.006.122-.033-.032-.01-.103.027c-.168.043-.297.074-.274.061.126-.036.208-.057.266-.072a.861.861 0 00.085-.024c-.428-.144-1.026-.538-1.254-1.609l-.005-.018.005.018c.037.141.333 1.12 1.377 1.574.199-.048.37-.09.037 0l.373-.094-.013-.01c-.15.032-.293.061-.426.085.151-.04.25-.06.352-.082-.027.003-.185.036-.192.03l.24-.053c-.302-.238-.647-.752-.765-1.874l-.012-.107-.012-.067s-.193-1.88.012.067c.054.283.308 1.438.89 1.957l.356-.077-.28.048.451-.1c.162-.034-.466.068-.229.008a.864.864 0 01-.113.01c.095-.036.367-.069.139-.076h-.016l.336-.025-.002-.007c-.127 0-.449.036-.512 0-.061-.04.307-.01.412-.018-.165-.008-.432-.078-.15-.081.044.018-.009.02.003.031l.188.002.043.01-.015-.055a2.551 2.551 0 00-.17-.06l.12.018c-.01.003.018.013.01.015l.034.006-.006-.02c-.086-.045-.308-.142-.224-.166a.226.226 0 01.16.059.662.662 0 01-.062-.099c.02-.007.082.043.065.049.002-.01.006-.019.009-.028l-.04-.141a.775.775 0 01-.053-.104.093.093 0 01.028.017l-.82-2.898s.88 1.796 1.03 3.13c.142.106-.092-.202.157-.108l-.02.09c.193.177.188.062.324.164-.04-.077-.362-.238-.36-.382.035.016.087-.001.05-.087.097.13.07.1.12.06l.1.191c.033-.088-.024-.182-.033-.287.082-.02.173.121.253.238.125-.025-.199-.2-.085-.302.082.017.121-.023.155-.094-.115-.654-.316-1.662-.542-2.213 0 0 .593.856.663 2.123.008.038.003.079.031.106l-.008-.183c.016-.002.032.05.04.075.024-.082-.078-.202-.017-.288-.044-.14.095-.016.164.05.034.047.1.052.11-.057.04.052.02.13.05.209l.02-.042-.382-3.13s.46 1.604.44 3.005c.022-.05.038-.099.08-.245l.13.118c-.106-.144-.045-.35.025-.521l-.017-.03.03-.003-.013.033.024.04.01-.076.073-.01a.76.76 0 01-.01.21l-.073-.123c-.016.135-.024.283.005.406a.115.115 0 01.036-.065.226.226 0 00.004.089c.008.022.015-.028.03-.086l.067.232-.006-.095.2.124c.054-.128.093-.284.137-.418a.496.496 0 01.263-.287c-.066.172-.029.286-.046.494-.032-.224-.177.086-.224.044.036.022.03.122.024.156.018-.067.103-.133.157-.197-.005.069 0 .1.01.12.206-.542.517-1.605.226-2.531 0 0 .698.707-.053 2.356.037-.01.074-.013.098-.048-.022.111-.056.222-.105.189.014.13.04.033.086-.065.042-.099.103-.199.108-.087-.017 0-.022-.02-.044.035.069-.09.141.006.076.094h-.016c.079.057.27.05.533-.2l-.335.353a5.141 5.141 0 01.715-.561l.018.001c.382-.425.798-1.05.808-1.767 0 0 .693.805-.954 2.021-.177.194-.138.156-.21.248-.028.02-.054.046-.094.083.04-.046.527-.37.572-.358-.08.048-.478.32-.54.354.184-.106.383-.21.599-.316-.125.057-.439.27-.575.36.097-.062.055.007.13-.026l.098-.072c-.001.045.95-.446 1.1-.438-.164.068-.874.408-.912.445l.2-.088c.245-.109.641-.279 1.025-.431a7.39 7.39 0 00.21-.019l-.244.09c-.52.198-.98.382-1.23.485-.131.073-.236.111-.175.1a3.808 3.808 0 01-.343.141.524.524 0 01-.073.053c.46-.196.539-.204.954-.37l-.61.216c.223-.097.559-.237.864-.351.303-.114.578-.204.604-.197-.172.076-.928.36-1.087.427.18-.07.421-.144.3-.096l-.316.114c-.17.073.794-.285.326-.097-.01.01-.695.264-.348.137l2.045-.748.107-.022-.245.087.03-.008a.277.277 0 01.033-.011l.196-.071.118-.026-.028.01c.142-.044.332-.104.55-.18 1.284-.442 3.666-1.453 4.74-3.294zm-.658-.278l.077.034-.077-.033v-.001zM160.36 8.636c.024-.06.041-.2.124-.141.06.184-.03.139-.124.141zm5.64-3.195c.151.338.612 1.653.612 1.653-.536-.43-.612-1.653-.612-1.653zm-.318 3.262c-1.204-.314-1.386-1.19-1.386-1.19.325.529.634.47.634.47-.38-.466-.293-1.07-.293-1.07.281 1.606 1.81 1.82 1.81 1.82-.507.051-.9-.166-1.113-.322l.348.292zm3.242-2.315l.351.836s-.377-.05-.35-.836zm-1.385-.84l-.145-1.071c.37.357.145 1.07.145 1.07zm2.49 2.175c-.097-.16-.024-.104.037-.083.002.04.035.149-.037.083zm.193-1.015l-.81-2.025.295.311s.496.808.515 1.714zm1.372-.085c.023-.017.052-.015.088.022-.012.056-.045.034-.088-.022zm-.053-.706s-.268-.374-.08-.902l.08.902zm.233.476c.097-.839-.125-1.905-.125-1.905.418.545.125 1.905.125 1.905zm.848-3.688l-.027.57c-.269-.451.027-.57.027-.57zm.357 3.575s.251-1.424.054-2.088c0 0 .263.578.167 1.233l.243-.542s.095.573-.464 1.397zm2.154-3.48l-.183-.791s.303.367.183.791zm.962 2.016c.254-.788.066-.94.066-.94-.075.816-.553 1.129-.553 1.129.962-1.71.143-2.725.143-2.725.434.385.491 1.368.491 1.368l.018-.448c.213 1.065-.165 1.616-.165 1.616zm4.243-2.268l-.048-.021c-.004-.004-.007-.007.01 0l.04.019-.002.002z"/><path class="st2" d="M168.87 8.611l.362-.107-.365.106.003.001zM174.646 6.716c-.12.045-.54.19-.414.151.658-.23.054-.008.576-.2.25-.082-.073.032.02.004l.686-.235-.051-.012-1.295.458.478-.166zM163.464 4.515l.008-.007a.081.081 0 00-.016-.027l.008.034zM161.322 7.304l-.027.027.2.066zM162.281 5.543c-.055.064-.075.17-.13.234.075-.17.345-.111.13-.234z"/><g><path class="st2" d="M174.955 7.661l.096-.012.082-.034-.178.046zM175.003 7.173c.113-.03.22-.047.388-.08l-.593.09.205-.01zM175.009 7.036c-.166.024-.441.025-.449.08.17-.031.268-.001.449-.08zM166.783 15.129c.196-.13.269-.086.372-.026l-.01-.433a8.877 8.877 0 01-.362.459z"/><path class="st2" d="M175.894 7.015l-.009.004a1.067 1.067 0 00-.295.172 1.116 1.116 0 01-.488.233c.086.009.195.021.288.02-.138.1-.3.206-.48.315-.146.349-.255.942.19 1.643.715 1.127.478 1.3.478 1.3s-.326-.897-.817-1.56c-.491-.663-.475-.597-.475-.597s.37.452.493 1.195c0 0-.223-.567-.699-.942 0 0 .254.931.256 1.885 0 0-.088-1.234-.526-1.698 0 0-.211.775.261 1.922 0 0-.528-.936-.748-1.856 0 0-.236.783.045 1.32 0 0-.467-.775-.577-.962l-.29.04s.307.867.322 1.44c0 0-.346-1.236-.628-1.4l-.367.05s.326.684.354 1.092c0 0-.344-.806-.665-1.393a.78.78 0 01-.288.111c.005.38.046.89.208 1.284 0 0-.333-.267-.458-1.3a.624.624 0 01-.03-.009c-.077.191-.328.95.115 1.883 0 0-.484-.165-.468-1.744 0 0-.535.684-.352 1.776 0 0-.565-1.025-.191-1.84 0 0-.793.646-.504 1.59 0 0-.359-.425-.151-1.12.107-.358.178-.668.222-.885-.263.268-1.186 1.307-.777 2.304.324.792.403.975.42 1.012l.004.002s.005.014-.003-.002c-.018-.015-.71-.6-.68-1.567.03-.98.387-1.26.387-1.26l.004-.221c-.074.045-.133.076-.149.07.045-.03.082-.059.116-.087l-.213.062c-.08.051-.183.115-.329.204l.22-.167c-.253.152-.376.237-.528.276.16-.08.253-.152.365-.232l-.426.13c-.191.096-.377.166-.364.13-.003-.002.008-.01.01-.013-2.13.71-3.734 1.512-4.762 2.107l.058.183c-.027-.255.288-.213.558-.164l.002-.046.055.056-.057-.01-.003.06.092-.018.121.122c-.046.046-.126.069-.217.08l.004-.184c-.155.03-.315.074-.391.176a.246.246 0 01.123.041c-.041.009-.074.02-.082.044-.008.024.052.017.132.02l-.114.225.082-.053.213.433c.4.071.852.025 1.268.387-.222.008-.24.16-.403.291.027-.14-.067-.217-.16-.26-.101-.052-.234-.103-.308-.215.077.117-.019.16-.067.159l.224.103c.074.036.13.055.215.105-.144.093-.02.178.034.35.168-.307.462.155.708.203-.058.097-.174.156-.373-.05.082.404.55-.05.656.28-.055-.035-.074-.069-.128-.037.178.013.454.262.331.304l-.058-.031c.352.28 1.21.57 1.352.293a2.026 2.026 0 01-.202.36c.24-.155.458-.322.668-.497.073.018.15.034.226.05-.026.264-.042.579-.306.619.092.055.212.129.442.082-.066-.042-.103-.384-.01-.384.205.309.146.17.434.447-.097-.07.065-.428.217-.404-.03.055-.023.38-.087.415.15-.116.293-.233.43-.35-.101.062-.037.32.052.432-.04-.07.355.017.465-.025l-.173-.087c.464.057.437-.53.86-.545-.044.082-.095.49.14.52.05-.104.147-.377.274-.64.154-.02.309-.04.469-.069-.158.283-.354.574-.51.733.18.062.063.123.317.075.106.09-.118.177-.194.194l.616-.023c-.066-.218.406-.32.343-.499-.192.12-.385.25-.59.353-.031-.11.037-.28.158-.43.12-.155.29-.289.492-.312.122.065.015.408.039.48.038-.085.352-.23.4-.193l-.14.165c.249.02.285-.392.611-.26.098-.012.362.197.333.064-.132-.12-.28-.438-.372-.72l.028-.008.27-.085.014.088.056-.02-.028-.082.303-.097c.089.173-.103.48.05.59-.013-.06.043-.158.069-.191.107.02.02.194.21.104-.036-.23.41-.11.035-.215.175-.124.221-.02.446-.103-.078-.078-.029-.292.064-.464l.25-.08.018.018c.398-.124.654-.085 1.018-.24.054.037.258.023.221.146.038-.06.055-.152.166-.205.302.086-.241.137.023.282-.038-.127.223-.292.34-.453-.137-.154-.377.143-.51.283a.532.532 0 01-.023-.307c.403-.178.77-.37 1.106-.571.286-.066.84-.532 1.233-.716.02-.068.055-.16.04-.211.44-.395.787-.802 1.058-1.202a.181.181 0 00.062.044l.05-.214.013-.02c.028.026.037.11.098.076-.035-.03-.05-.083-.055-.142.058-.095.108-.19.157-.283.008-.005.011-.012.02-.017 0-.005-.003-.009-.003-.014.046-.09.086-.177.125-.264.008-.007.015-.008.025-.02-.004-.023.004-.04.01-.059.204-.483.299-.924.307-1.275.011-.447.18-1.481.35-2.416-.827.069-2.182.259-3.465.771l-.114.043c-.07.12-.174.259-.327.414zm-12.36 5.134a.289.289 0 01.12.171c-.072.004-.105-.068-.12-.17zm4.003.625c-.766-.442-.525-1.441-.525-1.441-.083.634.402 1.168.402 1.168l-.044-.36.005.012c-.06-.35-.08-.75.003-1.197 0 0-.015.868.254 1.795l.04.092c-.006-.002-.01-.005-.015-.008.07.23.16.464.271.686 0 0-.216-.276-.39-.747zm.48-1.373c.081.118.267.467.267.467-.281-.173-.268-.467-.268-.467zm.511 1.426c.174-.15.79.807.79.807-.784-.395-.79-.807-.79-.807zm2.901-.69l.5.841c-.444-.214-.5-.84-.5-.84zm5.039-1.632l-.215-.754s.332.212.215.754zm.736-2.813c.134.092.282.199.451.331.81.633.749 1.664.749 1.664-.066-1.263-1.038-1.604-1.038-1.604.689.646.576 1.316.576 1.316a3.78 3.78 0 00-.68-1.345v-.002a.942.942 0 00-.105-.265l.198.143-.151-.238zm.44 2.636c-.115-.6-.955-1.546-1.378-2.009.44.31.813.906.813.906a1.766 1.766 0 00-.338-.624c.788.8.904 1.727.904 1.727z"/><path class="st2" d="M175.812 6.616c-.179.062-.42.17-.715.225.118-.018.35-.063.347-.031-.648.208-.053-.05-.818.178.413-.1.523-.06.735-.066.634-.144.209-.149-.029-.128.221-.056.441-.107.65-.149l.156-.03.076-.013h.007l-.332-.078a.344.344 0 00-.077.092zM173.017 14.56a.25.25 0 01-.14-.043c.01.039.047.062.14.043zM178.074 11.107l.181-.13-.07.025zM176.5 12.856l.056-.129c-.075.004-.098-.026-.158-.054l.101.183zM175.96 13.12c.007.061-.243.31.03.156-.002-.063.193-.217-.03-.157zM169.623 15.278c-.175.1-.275.055-.181.277.31.059.06-.217.34-.135.065-.086-.228-.067-.16-.142zM169.623 15.278a.63.63 0 00.088-.059.3.3 0 00-.089.059zM170.245 9.254s-.142.405-.063.709l.283-.739s-.164-.182-.22.03zM171.8 8.924l.37.374s-.055-.39-.37-.374zM172.745 8.915s.114.57.3.66l-.052-.39s-.148-.308-.248-.27zM173.652 8.746l.363.346s-.054-.416-.363-.346zM174.343 8.175c-.063-.024-.063.103.059.17l.23-.14s-.21 0-.289-.03zM174.69 8.77s.045-.355-.186-.386c-.044-.007-.073-.023-.102-.039l-.033.02.32.405zM173.924 8.425l.414.504s-.168-.405-.414-.504zM173.627 9.4s.003-.232-.143-.355l.143.355z"/></g></g><g><path class="st0" d="M47.64 52.337v.001l.061.027a7.213 7.213 0 01-.061-.028zM47.561 52.304l.039.017.002-.002-.033-.015c-.014-.005-.01-.003-.008 0zM31.7 57.166c.075-.002.148.035.1-.112-.066-.047-.08.065-.1.112zM39.077 56.9l.213-.03c.006-.005-.107.013-.213.03zM41.6 55.893c.1-.096.195-.194.287-.292-.15.122-.29.245-.42.37.142-.124.146-.106.133-.078zM41.814 55.994c.122-.055.084-.055.189-.102-.143.057-.09.025-.372.176-.082.054.289-.142.183-.074zM39.626 56.54c.02.025.04.052.057.08l-.02-.037c-.024-.038-.029-.04-.037-.043zM39.215 56.653l.05.022v-.001zM39.37 56.719l-.01-.005v.003l.005.002zM39.544 56.822l-.028-.002c-.027 0-.22.002.028.002zM32.164 56.708l.03.046c-.006-.037-.015-.059-.03-.046zM34.164 53.86l-.032-.149c-.094.117-.006.103.032.149zM38.501 57.21c-.235.068-.148.028-.033-.022l-.019-.003-.15.047-.156.05c.065-.012.118-.02.174-.029l.093-.015.091-.029zM38.516 57.161l.009.003c.097-.041.18-.078.073-.05.012.009-.022.026-.082.047zM31.243 58.66l.039-.026c-.014-.034-.011-.044-.08-.095l.028-.2-.02-.028-.037.274c.049.042.05.053.07.075zM39.365 56.793v.005c.076.016.071.011.218.024a1.262 1.262 0 01-.218-.03zM41.674 55.895c.015-.017.125-.117.211-.188a5.866 5.866 0 01-.287.19c-.01.025-.03.054.076-.002zM38.833 57.008l-.023.006.008.008c.11-.032.007-.01.015-.014zM41.102 55.853l-.005.011.004.006.001-.017zM38.595 57.085l-.163.043.018.008.187-.05c-.267.069-.173.04-.042-.001z"/><path class="st0" d="M48.164 52.558c-.12.039-.25.06-.384.07a.618.618 0 01-.14-.29l.064.028.026.011-.013-.006.097.042-.098-.042-.076-.035c-.002-.015-.006-.029-.005-.044-.01.015-.022.018-.033.027l-.056-.026-.084-.038.003.003c.005.002.01.007.015.012l.035.015h-.003l-.006-.002-.01-.002.026.016c.027.014.052.02.039.013.005 0 .002-.003 0-.006l.039.017c-.077.057-.173-.006-.273-.087-.116-.084-.233-.16-.41-.036-.05-.065.07-.07.05-.135-.093.09-.185.102-.334.007l.025-.02c-.459-.1-.62-.27-1.109-.518l-.004.133c-.105-.055-.114-.1-.156-.149-.192.137.307.12.121.28-.06-.294-.785-.285-.794-.596-.175-.062.004.157-.171.094l-.02-.09-.078.08c-.11-.054-.14-.166-.123-.232.026.017.088.008.12.013-.125-.139-.444-.109-.487-.154l.16.102c-.511-.082-1.128-.354-1.688-.237l.034.065c-.203.032-.285.027-.371-.002-.087-.021-.179-.071-.411-.01l.015-.016a.647.647 0 01-.328.129c.105-.104-.253-.067-.116-.189-.225.13-.27.17-.296.216-.023.046-.028.095-.113.258l-.104-.06c-.048.127-.035.168-.205.302.109-.168-.202-.053-.085-.257-.266.034-.382.194-.466.315-.084.125-.142.217-.33.177.034.342.399-.158.353-.032.13.006.002.264-.111.34-.098.086-.435-.069-.657.197.007-.005.006-.036.027-.059a.165.165 0 00-.046.03.033.033 0 00-.014.015c-.006.014-.008.033-.012.053-.008.037-.024.08-.078.057.06.194-.06.067.023.307l.092-.207c-.02.088-.004.282-.066.434-.046 0-.111-.025-.185-.087.012-.04.06-.083.086-.106-.067-.088-.096.01-.16-.077.001-.14.074-.098.147-.082a.276.276 0 00.033-.181c-.043-.038-.037.083-.054.117-.015-.002-.026-.027-.043-.12.027.16-.025.132-.07.1-.048-.035-.08-.073-.155.022l.027-.124c-.018.016-.05.069-.14.044.057-.043.121-.083.134-.136-.008.033-.077.027-.121.012a.605.605 0 01-.138-.073c-.088-.06-.18-.124-.288-.103.42.073.067.166.22.291-.51.08-.242-.37-.803-.38.099.015.24.103.127.144-.11-.035-.262-.088-.336-.154-.416.038.066.127-.108.21-.144-.149-.197.072-.359.142l-.018-.128c-.48.003-.07.269-.49.292.037-.075.078-.151.123-.228l-.205.115-.001-.154a.925.925 0 01-.252.169c-.07.038-.146.058-.263.098.093.054.083.22-.084.319-.15.014-.007-.148-.222.033.005-.101.003-.234.176-.2-.011-.042.016-.102.007-.144-.196-.005-.329.203-.417.262a.27.27 0 01.11-.044c-.078.133-.156.258-.208.394-.077.006-.067-.056-.056-.119-.05.066-.052.147-.13.235-.05-.097-.13-.17-.035-.325-.07.118-.14.234-.205.35-.049-.015-.22.054-.215-.009-.094.056-.145.187-.2.319-.05.134-.1.27-.217.348.008.024.005.057-.018.11-.167.179-.406.278-.454.593l-.246.021c-.095.206.319-.039.163.302-.1.245-.187-.014-.282.03.005.158.035.454-.223.553.015-.083.072-.115.102-.182l-.187.083c-.019-.27.121-.368-.096-.313.282.232-.361.577-.082.804l-.13.046c.023-.024.009-.041.03-.065-.27.07.116.295-.101.48-.083.06-.165.078-.158 0-.022.072-.042.152-.067.22-.046.04-.083-.013-.038-.052l-.19.252-.006-.01a.96.96 0 01-.011.262c-.093.014.003-.055-.043-.074l-.067.18c-.11-.026-.068-.19.023-.254-.18-.083-.184-.047-.197.022-.01.074-.038.156-.21.15l.079-.11c-.182-.13-.227.008-.354-.09.02.025.093.086.172.142.08.045.153.1.111.185-.05-.003-.096-.004-.135.097-.03-.074-.06-.08-.095-.063l-.091.048.031-.236c.01.002.022-.001.038-.006l-.054-.046-.04.3-1.004.519.864.532c3.717.59 6.099-.692 6.48-.916.004-.008.021-.02.059-.035a6760.206 6760.206 0 00.643-.19l-.1.03.1-.03-.004-.001-.113.033-.124.035a48.328 48.328 0 00.122-.037c-.105.03-.33.094-.388.108l.372-.107.014-.004c.059-.019.047-.016-.003-.003-.155.042-.657.186-.39.102l.388-.105.073-.02-.075.017-.02.005.02-.005.096-.027-.025-.007-.082.021c-.134.034-.236.058-.218.048.1-.028.166-.045.21-.056a.684.684 0 00.069-.02c-.341-.114-.817-.428-.998-1.28.03.112.265.891 1.096 1.252.158-.038.294-.07.03 0l.296-.075-.01-.008a8.85 8.85 0 01-.339.068c.12-.032.2-.047.28-.065-.022.002-.147.029-.153.023l.192-.041c-.24-.19-.516-.599-.61-1.491l-.01-.086-.009-.053s-.153-1.496.01.053c.043.225.245 1.144.707 1.558l.284-.062-.222.039.359-.08c.128-.027-.371.054-.183.006a.688.688 0 01-.09.008c.076-.029.292-.054.11-.06l-.012-.001.268-.02-.002-.005c-.102 0-.357.029-.408 0-.048-.032.245-.008.329-.014-.132-.006-.344-.063-.12-.065.035.015-.007.016.002.025l.15.002.034.007-.012-.044a2.033 2.033 0 00-.135-.047l.095.015c-.007.002.015.01.008.011.015.004.02.004.027.005l-.004-.016c-.069-.036-.246-.113-.179-.132a.18.18 0 01.128.047.526.526 0 01-.05-.078c.016-.006.065.034.052.038l.007-.022-.032-.112a.616.616 0 01-.042-.083c.012.005.018.01.023.014l-.653-2.307s.7 1.43.82 2.491c.113.084-.074-.16.125-.085l-.016.071c.154.14.15.049.257.13-.03-.061-.287-.19-.286-.304.028.013.07 0 .04-.069.077.104.055.08.096.048l.08.152c.025-.07-.02-.145-.027-.229.065-.015.137.097.2.19.1-.02-.157-.159-.066-.24.065.013.096-.02.123-.075-.092-.521-.252-1.323-.432-1.761 0 0 .472.68.528 1.69.007.03.002.062.025.084l-.006-.146c.012-.001.024.039.03.06.02-.066-.061-.16-.013-.23-.035-.11.076-.012.131.04.027.037.08.042.087-.045.033.041.017.104.04.166l.016-.034-.304-2.49s.366 1.276.35 2.391c.018-.04.031-.078.064-.195l.104.094c-.085-.114-.036-.279.02-.415l-.014-.023.024-.003-.01.026.019.033.007-.061.059-.008a.605.605 0 01-.008.167l-.058-.098a.982.982 0 00.004.323.092.092 0 01.028-.052.18.18 0 00.003.071c.007.018.012-.022.024-.068l.054.185-.005-.076.16.099c.042-.102.073-.227.108-.333a.395.395 0 01.21-.228c-.053.136-.024.227-.037.392-.026-.178-.14.07-.178.035.028.018.023.097.019.125.014-.054.081-.106.124-.157-.004.055 0 .08.008.096.164-.432.412-1.278.18-2.015 0 0 .556.563-.042 1.876.03-.008.06-.011.078-.04-.017.09-.044.178-.083.152.01.102.032.026.068-.052.034-.079.082-.158.086-.07-.014 0-.017-.015-.035.029.055-.072.112.004.06.074h-.012c.062.045.215.04.424-.16l-.267.282a4.091 4.091 0 01.57-.447l.014.001c.303-.338.635-.835.643-1.406 0 0 .55.641-.76 1.608-.14.155-.11.125-.167.198-.022.015-.043.037-.075.065.033-.036.42-.294.456-.284-.064.038-.38.255-.43.281.146-.084.305-.167.477-.25-.1.044-.35.214-.457.285.077-.049.043.006.103-.02l.078-.058c-.002.036.755-.355.874-.348-.13.054-.695.325-.725.354l.16-.07c.194-.086.51-.222.815-.343a5.92 5.92 0 00.168-.015l-.195.072c-.413.157-.78.304-.978.386-.105.058-.189.088-.14.08-.152.07-.26.107-.273.112a.417.417 0 01-.058.041c.366-.155.428-.162.759-.294l-.486.172a16.2 16.2 0 01.688-.28c.241-.09.46-.161.481-.156-.137.06-.738.287-.865.34.143-.056.335-.115.239-.076l-.252.09c-.135.058.632-.227.26-.077-.009.007-.554.21-.277.11l1.627-.597.086-.017-.196.07.024-.007a.22.22 0 01.026-.009l.156-.056.094-.02-.022.007c.113-.035.264-.083.437-.143 1.023-.352 2.918-1.157 3.773-2.622zm-.524-.221l.061.028-.06-.027-.001-.001zm-15.94 4.83c.02-.048.034-.16.1-.113.048.147-.025.11-.1.112zm4.49-2.544c.12.27.486 1.316.486 1.316-.426-.342-.487-1.316-.487-1.316zm-.254 2.596c-.958-.25-1.103-.947-1.103-.947.259.421.505.374.505.374-.303-.37-.234-.852-.234-.852.224 1.28 1.44 1.45 1.44 1.45a1.284 1.284 0 01-.885-.257l.277.232zm2.58-1.841l.28.665s-.3-.04-.28-.665zm-1.102-.67l-.116-.852c.294.285.116.852.116.852zm1.982 1.732c-.077-.128-.02-.083.029-.066.002.032.028.118-.03.066zm.153-.808l-.645-1.612.235.248s.395.643.41 1.364zm1.092-.068c.018-.013.041-.012.07.018-.01.044-.036.027-.07-.018zm-.042-.562s-.213-.298-.064-.717l.064.717zm.185.38c.077-.668-.1-1.517-.1-1.517.333.434.1 1.516.1 1.516zm.675-2.936l-.022.455c-.213-.36.022-.455.022-.455zm.285 2.845s.199-1.133.042-1.662c0 0 .21.46.133.982l.193-.432s.076.456-.368 1.112zm1.713-2.769l-.145-.63s.24.292.145.63zm.766 1.604c.202-.627.053-.748.053-.748-.06.65-.44.898-.44.898.765-1.36.113-2.168.113-2.168.345.306.391 1.088.391 1.088l.014-.356c.17.848-.13 1.286-.13 1.286zm3.377-1.805l-.039-.017c-.003-.003-.006-.005.008 0l.033.015-.002.002z"/><path class="st0" d="M38.472 57.147l.289-.086-.291.084.002.002zM43.07 55.638c-.097.036-.43.151-.33.12.523-.182.042-.006.458-.158.198-.066-.058.025.016.002l.546-.187-.04-.01-1.031.365c.14-.049.32-.11.38-.132zM34.17 53.887l.006-.006a.065.065 0 00-.012-.021l.006.027zM32.466 56.106l-.022.022.16.052zM33.229 54.705c-.044.05-.06.135-.104.186.06-.136.274-.089.104-.186z"/><g><path class="st0" d="M43.315 56.39l.076-.009.065-.028-.14.037zM43.353 56.002c.09-.023.176-.037.309-.064l-.472.071.163-.007zM43.358 55.893c-.132.02-.351.02-.357.063.134-.024.212 0 .357-.063zM36.811 62.333c.157-.102.214-.068.296-.02l-.007-.345a7.058 7.058 0 01-.289.365z"/><path class="st0" d="M44.062 55.876l-.007.003a.85.85 0 00-.235.137.888.888 0 01-.388.186c.068.007.155.017.229.016-.11.08-.239.164-.382.25-.116.278-.203.75.15 1.308.57.897.382 1.034.382 1.034s-.26-.714-.65-1.241c-.392-.528-.378-.475-.378-.475s.294.36.392.951c0 0-.178-.451-.556-.75 0 0 .201.741.204 1.5 0 0-.07-.982-.42-1.351 0 0-.167.617.208 1.53 0 0-.42-.745-.595-1.478 0 0-.188.624.036 1.05 0 0-.372-.616-.46-.765l-.23.032s.244.69.256 1.146c0 0-.275-.983-.5-1.113l-.291.04s.259.543.281.868c0 0-.273-.641-.53-1.109a.621.621 0 01-.228.089c.004.302.036.709.165 1.021 0 0-.265-.212-.364-1.034a.489.489 0 01-.024-.007c-.061.152-.261.757.091 1.498 0 0-.385-.13-.372-1.387 0 0-.426.544-.28 1.412 0 0-.45-.815-.153-1.463 0 0-.63.514-.4 1.264 0 0-.286-.337-.12-.89a8 8 0 00.176-.705c-.21.213-.944 1.04-.618 1.834a32.311 32.311 0 00.337.807s.004.011-.002-.002c-.015-.012-.565-.477-.541-1.247.023-.78.307-1.003.307-1.003l.004-.176c-.06.037-.106.061-.118.056a.976.976 0 00.092-.07l-.17.05c-.064.041-.145.092-.261.162l.175-.132c-.202.12-.3.188-.421.22.127-.064.202-.121.29-.185-.114.034-.228.069-.338.104-.152.076-.3.131-.29.102-.002 0 .006-.007.008-.01-1.696.565-2.972 1.203-3.79 1.677l.047.146c-.022-.203.229-.17.443-.13l.002-.037.044.044-.046-.008-.002.048.073-.014.097.097c-.037.036-.1.054-.173.064l.003-.147c-.123.023-.25.059-.311.14a.196.196 0 01.098.033c-.033.007-.06.016-.065.034-.007.02.041.014.105.016l-.09.18.064-.043.17.345c.319.057.678.02 1.009.308-.177.007-.192.127-.32.232.02-.112-.054-.173-.128-.207-.08-.042-.187-.082-.245-.171.06.093-.015.127-.054.126l.178.082c.06.029.104.044.171.084-.114.074-.015.141.027.278.134-.244.369.124.564.162-.046.077-.139.124-.297-.04.065.321.438-.04.522.223-.044-.028-.059-.055-.102-.03.142.01.361.209.264.242l-.047-.025c.28.224.963.454 1.077.234-.005.03-.126.249-.161.286.19-.123.365-.256.532-.395.058.014.119.027.18.04-.021.21-.034.46-.244.492.073.044.169.103.352.065-.053-.033-.083-.305-.008-.305.163.245.116.135.345.355-.077-.055.052-.34.173-.321-.024.044-.018.302-.07.33.12-.092.234-.185.343-.278-.08.049-.03.254.041.344-.031-.056.283.013.37-.02l-.137-.07c.368.046.347-.42.684-.433-.035.065-.076.39.11.413.041-.082.118-.3.22-.508.122-.016.245-.033.372-.055a3.085 3.085 0 01-.405.583c.143.05.05.097.252.06.085.07-.094.14-.154.154l.49-.019c-.052-.173.323-.254.273-.397-.153.095-.307.199-.47.281-.025-.087.03-.223.126-.342.095-.124.232-.23.392-.248.097.052.012.325.03.382.03-.068.28-.183.319-.154l-.112.131c.198.016.227-.312.487-.207.078-.01.288.157.265.052-.105-.096-.224-.349-.296-.573l.022-.007.214-.068.012.07.044-.016-.022-.065.241-.077c.07.138-.081.382.04.47-.01-.048.035-.126.055-.153.086.017.016.155.168.083-.03-.182.326-.088.027-.17.14-.1.176-.017.355-.083-.062-.062-.023-.232.05-.369l.2-.063.014.013c.317-.098.52-.067.81-.19.044.03.206.018.177.116.03-.048.043-.12.131-.163.24.068-.192.109.019.225-.03-.102.177-.233.27-.36-.109-.124-.3.112-.406.224a.424.424 0 01-.018-.244c.32-.142.613-.295.88-.455.228-.052.669-.423.982-.57.016-.054.043-.127.031-.168.35-.314.626-.638.842-.956.013.014.03.026.05.035l.04-.17.01-.016c.022.02.03.087.078.06-.028-.023-.04-.066-.044-.113.046-.076.086-.15.125-.225.006-.004.01-.01.016-.013 0-.005-.002-.008-.003-.012.037-.07.069-.14.1-.21.006-.005.012-.006.02-.016-.004-.018.003-.032.008-.047.162-.384.237-.735.244-1.015.009-.355.144-1.178.279-1.922-.659.055-1.737.206-2.758.614l-.09.034a1.736 1.736 0 01-.26.33zm-9.836 4.086a.23.23 0 01.095.136c-.057.003-.083-.054-.095-.136zm3.186.497c-.61-.352-.418-1.147-.418-1.147-.066.505.32.93.32.93l-.035-.286.004.01a2.671 2.671 0 01.002-.953s-.012.69.202 1.428l.032.073-.012-.006c.056.184.127.369.216.546 0 0-.172-.22-.311-.595zm.381-1.093c.065.095.213.372.213.372-.224-.137-.213-.372-.213-.372zm.407 1.136c.139-.12.629.641.629.641-.624-.314-.629-.641-.629-.641zm2.31-.549l.397.669c-.354-.17-.398-.669-.398-.669zm4.009-1.3l-.171-.6s.264.17.17.6zm.585-2.238c.108.073.225.158.36.264.644.503.596 1.324.596 1.324-.053-1.005-.826-1.277-.826-1.277.548.514.458 1.047.458 1.047a3.008 3.008 0 00-.54-1.07v-.002a.75.75 0 00-.085-.21l.158.113-.12-.19zm.351 2.098c-.092-.478-.76-1.23-1.097-1.599.35.246.647.721.647.721a1.405 1.405 0 00-.269-.497c.628.638.72 1.375.72 1.375z"/><path class="st0" d="M43.997 55.559c-.142.049-.335.135-.569.179.094-.014.28-.05.276-.025-.516.166-.042-.04-.65.141.328-.079.416-.047.584-.052.505-.114.166-.118-.023-.102.176-.044.351-.085.518-.118l.123-.024.06-.01h.006l-.263-.063a.275.275 0 00-.062.074zM41.773 61.88a.2.2 0 01-.111-.034c.007.031.036.05.11.035zM45.797 59.133l.144-.104-.055.02zM44.544 60.524l.045-.102c-.06.003-.078-.02-.126-.043l.08.145zM44.115 60.734c.005.05-.194.248.024.125-.002-.05.153-.173-.024-.125zM39.071 62.452c-.139.08-.219.044-.144.22.248.047.049-.172.272-.107.05-.069-.182-.053-.128-.113zM39.071 62.452a.502.502 0 00.07-.047.239.239 0 00-.07.047zM39.567 57.658s-.114.323-.05.564l.225-.588s-.131-.145-.175.024zM40.805 57.395c.08.083.293.298.293.298s-.043-.31-.293-.298zM41.556 57.388s.09.455.24.525l-.043-.31s-.117-.245-.197-.215zM42.278 57.254l.289.275s-.043-.33-.289-.275zM42.828 56.8c-.05-.02-.05.08.047.135l.183-.112s-.167 0-.23-.024zM43.103 57.273s.037-.282-.147-.308c-.035-.005-.058-.018-.081-.03l-.026.016.254.322zM42.495 56.999l.33.4s-.135-.322-.33-.4zM42.258 57.774s.002-.184-.114-.282l.114.282z"/></g></g><g><path class="st3" d="M208.506 24.694a1.518 1.518 0 01-.344.307c.23.163.533.253.896.253.31 0 .618-.114.872-.315a294.14 294.14 0 00-.657-1.16c-.273.294-.534.605-.767.915zM114.151 30.036c0 .214-.066.412-.124.587-2.469 5.507-5.216 10.863-9.392 11.534.251.043.51.072.785.072 4.682 0 7.639-5.718 10.278-11.606.059-.175.125-.373.125-.587 0-.589-.366-1.122-.921-1.33-.176-.058-.374-.125-.588-.125-.295 0-.57.103-.808.28.393.26.645.693.645 1.175zM96.062 29.708c-.243.19-.48.373-.725.512.236.152.529.24.863.24.57 0 1.038-.365 1.533-.752.366-.285.742-.574 1.174-.738a2.973 2.973 0 00-.962-.137c-.761 0-1.331.445-1.883.875zM210.185 18.362c.657-1.047 1.225-2.341 1.225-3.295 0-.163-.035-.211-.036-.211-.036 0-.261.077-.565.38-.595.596-.72 1.505-.72 2.163 0 .31.03.614.096.963zM201.509 34.016c.187-2.856 1.674-4.896 3.81-5.39a2.04 2.04 0 00-.644-.118c-2.677 0-4.622 2.213-4.837 5.508 0 2.965 2.458 5.304 5.596 5.304.316 0 .623-.02.924-.05-2.771-.339-4.848-2.53-4.849-5.254z"/><path class="st3" d="M214.372 15.046c0 1.97-1.08 4.328-2.97 6.518.435.799.836 1.519 1.204 2.18 1.95 3.494 3.023 5.42 3.069 8.565-.103 5.548-3.905 9.494-9.354 9.882.259.023.52.038.784.038 5.922 0 10.133-4.075 10.241-9.92-.046-3.146-1.12-5.07-3.068-8.565-.368-.661-.77-1.381-1.204-2.18 1.89-2.19 2.97-4.549 2.97-6.518-.13-1.863-1.302-3.115-2.918-3.115-.304 0-.6.043-.885.12 1.196.342 2.024 1.453 2.131 2.995z"/><path class="st3" d="M210.143 31.38c0 .52-.24.957-.62 1.216.234.158.52.25.837.25.83 0 1.454-.625 1.454-1.466-.116-3.188-2.593-5.782-5.522-5.782-.328 0-.645.024-.956.059 2.606.381 4.7 2.8 4.807 5.723zM93.193 29.667a1.31 1.31 0 01-.095-.415c-1.469 4.098-2.88 7.988-4.349 11.957-.12.302-.334.547-.593.721.118.092.248.172.397.226l.024.008a1.4 1.4 0 00.368.048 1.62 1.62 0 001.476-1.003c1.326-3.582 2.606-7.107 3.923-10.771-.54-.054-.966-.326-1.15-.77zM191.491 42.167c.257.04.526.062.809.062 2.209 0 4.076-1.108 6-3.773a8.14 8.14 0 01-.75-1.384c-2.002 3.254-3.879 4.786-6.059 5.095zM180.982 42.175c.29.032.589.054.905.054 1.748 0 3.572-.794 5.107-2.146a5.673 5.673 0 01-.452-1.258c-1.523 1.875-3.559 3.096-5.56 3.35zM195.48 16.49a1.4 1.4 0 01.162 1.294c-.698 1.839-1.34 3.605-1.916 5.187a328.308 328.308 0 01-1.121 3.054c-1.997 5.415-3.288 9.864-3.288 11.333 0 1.628.524 1.962 1.311 1.962.322 0 .638-.06.953-.17-.37-.23-.592-.736-.592-1.792 0-1.469 1.29-5.918 3.288-11.333.337-.9.712-1.931 1.12-3.054.576-1.582 1.219-3.348 1.917-5.187a1.4 1.4 0 00-.162-1.294 1.516 1.516 0 00-1.273-.654c-.293 0-.577.097-.813.262.159.104.303.23.415.392zM183.729 16.447c.264.384.317.884.144 1.337-.968 2.574-1.79 4.75-2.489 6.596-3.4 8.992-3.836 10.147-3.836 11.893 0 2.05.873 3.047 2.667 3.047.283 0 .564-.034.844-.098-1.23-.283-1.84-1.248-1.84-2.95 0-1.745.437-2.9 3.837-11.892.698-1.846 1.52-4.022 2.488-6.596.174-.453.12-.953-.144-1.337-.266-.388-.716-.61-1.235-.61-.297 0-.58.093-.813.255.145.096.277.21.377.355zM63.518 18.938a4.429 4.429 0 00-.933-.084c-3.648 0-6.694 5.854-8.062 8.99a45.315 45.315 0 001.987-.704c1.378-2.993 3.942-7.548 7.008-8.202zM142.396 36.327c0-3.928 1.465-8.429 4.242-13.02 1.41-2.432 2.98-3.934 4.496-4.339a3.414 3.414 0 00-.855-.114c-1.76 0-3.648 1.581-5.313 4.453-2.776 4.591-4.242 9.092-4.242 13.02 0 2.993 1.558 2.993 2.07 2.993.27 0 .555-.049.847-.136-.597-.244-1.245-.926-1.245-2.857zM133.311 22.294c-.45 1.257-1.017 2.84-1.716 4.81-2.204 6.235-2.91 8.727-2.91 10.254 0 .733.184 1.962 1.42 1.962.368 0 .724-.053 1.073-.137-.692-.333-.822-1.235-.822-1.825 0-1.527.707-4.02 2.91-10.254.7-1.97 1.267-3.553 1.717-4.81.627-1.747 1.031-2.876 1.252-3.549h-1.671c-.221.673-.626 1.802-1.253 3.55zM140.237 17.29c0 .83-.626 1.455-1.455 1.455h1.671c.83 0 1.455-.625 1.455-1.454 0-.802-.653-1.455-1.455-1.455h-1.671c.802 0 1.455.653 1.455 1.455zM162.65 29.255c.269.406.313.894.123 1.34-2.26 5.185-4.652 7.725-7.664 8.106.281.035.566.057.855.057 3.405 0 6.02-2.517 8.48-8.164.19-.445.146-.933-.122-1.34a1.495 1.495 0 00-1.253-.673c-.3 0-.588.104-.826.273.157.108.3.237.407.4zM131.045 42.171c.235.035.477.058.73.058 2.53 0 4.562-1.105 6.377-3.1a7.51 7.51 0 01-.34-1.668c-1.936 2.733-4.061 4.399-6.767 4.71zM143.543 42.167c.294.039.6.062.923.062 2.182 0 4.702-1.527 6.892-4.13a6.77 6.77 0 01-1.128-.674c-2.069 2.701-4.502 4.415-6.687 4.742zM32.954 36.978c0-1.455.258-2.16.825-3.704.106-.29.223-.607.346-.952 1.857-4.69 4.872-12.293 8.673-13.428a1.589 1.589 0 00-.713-.149c-4.254 0-7.62 8.499-9.632 13.577-.123.345-.24.663-.345.952-.567 1.544-.826 2.25-.826 3.704 0 2.042.644 2.465 1.757 2.505.324.005.652-.033.983-.105-.685-.216-1.068-.827-1.068-2.4zM137.827 7.635c.268.39.33.88.165 1.309l-.032-.013c0 .01-.003.018-.004.027l.024.013-.024-.01c-.108.632-.668 2.29-2.356 6.875h1.672c1.687-4.585 2.248-6.243 2.355-6.875l.024.01-.023-.013c0-.009.003-.018.004-.027l.031.013a1.416 1.416 0 00-.165-1.309c-.274-.4-.729-.64-1.214-.64-.318 0-.61.095-.85.263.15.102.287.223.393.377zM156.073 22.063c0 3.407-1.705 8.693-4.16 12.928.537.577 1.318.858 2.38.858.26 0 .515-.031.766-.093-.611-.122-1.106-.368-1.475-.765 2.456-4.235 4.16-9.52 4.16-12.927 0-3.668-2.195-6.012-5.739-6.12-.295 0-.588.027-.88.07 3.075.411 4.948 2.665 4.948 6.05z"/><path class="st3" d="M150.713 28.836c.129.087.249.188.346.316.118.158.201.334.247.521.15-.357.29-.715.423-1.074-.053-.005-.104-.018-.158-.018-.322 0-.616.096-.858.255zM71.513 35.683c.028-1.37.348-3.141.887-5.017.007-.014.014-.027.02-.042l.03-.09c.033-.09.06-.189.077-.299 1.487-4.911 4.426-10.373 7.581-11.25a3.164 3.164 0 00-.874-.131c-3.45.075-6.767 6.058-8.378 11.381a1.58 1.58 0 01-.077.3l-.03.089-.02.042c-.54 1.876-.86 3.646-.887 5.017 0 3.223.961 3.637 1.8 3.637.329 0 .65-.055.968-.15-.595-.3-1.097-1.16-1.097-3.487zM42.346 28.581c-.31 0-.597.102-.833.269.113.078.219.167.308.277.137.17.234.366.288.574.15-.37.29-.736.422-1.1-.061-.007-.122-.02-.185-.02zM27.54 5.374c-.166 3.29-2.566 6-6.437 7.297.541 1.882 1.416 3.839 2.342 5.843 1.615 3.544 3.445 7.56 3.445 11.847 0 8.124-5.777 14.103-13.873 14.55.232.01.459.03.694.03 8.605 0 14.851-6.132 14.851-14.58 0-4.288-1.83-8.303-3.446-11.847-.925-2.004-1.8-3.961-2.341-5.843 3.87-1.297 6.27-4.007 6.437-7.297.065-1.335-.313-2.506-1.065-3.295-.653-.686-1.557-1.049-2.612-1.049a5.2 5.2 0 00-.868.08c.712.139 1.329.465 1.809.969.752.79 1.13 1.96 1.065 3.295z"/><path class="st3" d="M20.61 9.742a11.176 11.176 0 001.667-.83c.058-1.71.717-3.94 2.047-4.702-.229-.262-.524-.27-.678-.27-2.079 0-3.047 3.112-3.047 5.216 0 .187 0 .39.01.586zM237.56 2.61c.172.355.194.752.06 1.12L227.1 33.558c-.109.298-.302.54-.541.709.105.075.217.142.342.187.16.059.325.086.486.086.597 0 1.164-.377 1.384-.982L239.292 3.73a1.425 1.425 0 00-.06-1.12 1.484 1.484 0 00-1.32-.833c-.225 0-.447.052-.648.156a1.408 1.408 0 00-.185.12c.202.144.37.33.48.558zM225.436 40.503c0 .902-.57 1.674-1.376 1.997a2.2 2.2 0 00.834.163c1.22 0 2.214-.969 2.214-2.16 0-1.2-1.014-2.213-2.214-2.213-.296 0-.578.061-.834.172.799.338 1.376 1.136 1.376 2.041zM2.268 33.127c0 5.16 4.178 8.905 9.935 8.905.27 0 .53-.02.794-.036-5.298-.361-9.058-3.976-9.058-8.869 0-4.745 3.328-8.801 7.45-9.33a5.165 5.165 0 00-.76-.062c-4.532 0-8.361 4.301-8.361 9.392zM2.668 2.398c2.556 5.32 6.95 8.015 13.06 8.015.317 0 .614-.01.906-.022-5.71-.219-9.847-2.9-12.294-7.993-.262-.525-.741-.826-1.313-.826a1.58 1.58 0 00-.837.27c.194.138.36.32.478.556zM16.776 13.301c.243.008.483.02.732.02.27 0 .52-.01.775-.016-.007-.025-.017-.05-.024-.076-.484.032-.977.055-1.483.072zM109.053 17.29c0 .376-.159.724-.472 1.038l-8.62 7.846c2.56.738 2.923 3.049 2.963 4.777 0 .648-.145 1.974-.3 3.377-.145 1.324-.296 2.694-.296 3.3 0 .841.488 1.692 1.42 1.692a2.7 2.7 0 00.983-.197c-.48-.298-.731-.896-.731-1.494 0-.607.15-1.977.296-3.301.154-1.403.3-2.729.3-3.377-.04-1.728-.404-4.039-2.964-4.777l8.62-7.846c.314-.314.473-.662.473-1.037 0-.61-.525-1.455-1.51-1.455-.297 0-.52.03-.834.255.44.297.672.797.672 1.2zM18.538 28.951c0 .232 0 .581-.118 1.053-.083.293-.279.581-.55.783.254.173.562.27.885.27.68 0 1.186-.525 1.337-1.053.118-.472.118-.821.118-1.053 0-4.556-3.474-8.125-7.909-8.125-.276 0-.547.024-.819.046 4.02.424 7.056 3.82 7.056 8.08zM67.51 20.274c0 6.84-10.598 10.06-14.16 10.946-.328 1.254-.485 2.232-.538 3.332-.05 1.447.312 2.6 1.079 3.42.787.843 1.964 1.297 3.498 1.348.355.009.7-.013 1.043-.048-1.229-.141-2.194-.576-2.87-1.3-.766-.82-1.13-1.973-1.078-3.42.052-1.1.21-2.078.538-3.332 3.561-.886 14.16-4.107 14.16-10.946 0-2.67-1.888-4.33-4.926-4.33-.258 0-.514.024-.769.058 2.503.301 4.024 1.878 4.024 4.272zM46.848 22.335c0 3.675-2.129 9.636-4.088 12.703.57.525 1.322.811 2.145.811.284 0 .566-.041.846-.115a3.035 3.035 0 01-1.32-.696c1.96-3.067 4.088-9.028 4.088-12.703 0-4.19-1.73-6.499-4.871-6.499-.281 0-.56.027-.836.066 2.608.386 4.036 2.632 4.036 6.433zM37.28 16.475c.241.353.315.785.206 1.182a9.002 9.002 0 011.537-1.048c-.024-.044-.043-.091-.072-.134a1.473 1.473 0 00-1.215-.639c-.319 0-.613.095-.853.261.151.102.29.224.396.378zM87.358 16.293c.264.397.318.908.14 1.336l-3.302 8.917c-1.679 4.682-3.128 8.726-3.128 10.812 0 1.634.502 1.962 1.311 1.962.315 0 .622-.07.925-.178-.359-.234-.564-.742-.564-1.784 0-2.086 1.449-6.13 3.128-10.812l3.302-8.917a1.44 1.44 0 00-.14-1.336 1.394 1.394 0 00-1.183-.62c-.32 0-.617.095-.86.258.142.097.272.214.37.362zM29.12 40.586c-2.426 6.74-4.447 12.366-4.959 13.902-.1.298-.287.543-.531.713.24.163.52.262.819.262.643 0 1.186-.383 1.384-.975.482-1.447 2.304-6.524 4.542-12.742a3.438 3.438 0 01-1.255-1.16zM85.93 41.024c-.822.586-1.718.987-2.7 1.137.262.044.535.068.82.068.804 0 1.552-.17 2.252-.47a1.482 1.482 0 01-.371-.735zM58.178 42.196c.267.022.54.033.818.033 3.14 0 5.86-1.174 8.276-3.603-.137-.48-.237-1-.289-1.561-2.54 3.226-5.424 4.893-8.805 5.13zM72.563 42.16c.258.043.525.07.804.07 1.79 0 3.535-.858 5.213-2.528a5.697 5.697 0 01-.37-1.46c-1.804 2.306-3.697 3.619-5.647 3.919zM100.193 7.541a1.4 1.4 0 01.162 1.294l-2.445 6.89c-1.582 4.463-3.011 8.496-4.382 12.327a2.1 2.1 0 01.126-.137c.26-.261 1.063-.987 2.365-2.159 1.122-3.146 2.293-6.449 3.563-10.03l2.444-6.891a1.4 1.4 0 00-.161-1.294 1.516 1.516 0 00-1.273-.654c-.293 0-.576.097-.812.262.158.105.302.23.413.392zM45.664 38.695c.282.039.569.063.858.063 1.34 0 2.629-.479 3.797-1.256a8.245 8.245 0 01-.275-1.115c-1.277 1.217-2.781 2.083-4.38 2.308zM84.105 18.384c.17-.46.338-.89.493-1.29-.966-.758-2.197-1.15-3.693-1.15-.25 0-.498.024-.746.06 1.73.204 3.055.999 3.946 2.38zM34.048 42.34c.19.022.382.04.586.052.077.002.154.004.23.004 2.531 0 5.072-1.446 7.396-4.202a4.98 4.98 0 01-1.109-.695c-2.215 2.875-4.652 4.528-7.103 4.84z"/><path class="st2" d="M19.307 9.21c0 .393.034.751.075 1.12-.63.046-1.266.083-1.983.083-.26 0-.511-.012-.765-.022-.292.012-.589.022-.906.022-6.11 0-10.504-2.695-13.06-8.015a1.504 1.504 0 00-.478-.557 1.314 1.314 0 00-.618 1.132c0 .268.067.466.14.68 3.02 6.2 8.09 9.436 15.064 9.648.506-.017 1-.04 1.483-.072.007.025.017.05.024.076.565-.016 1.113-.04 1.648-.076.604 2.104 1.551 4.263 2.563 6.5 1.553 3.426 3.159 6.969 3.159 10.632 0 6.763-4.954 11.67-11.779 11.67-.298 0-.588-.015-.877-.035-.264.015-.525.036-.794.036-5.757 0-9.935-3.745-9.935-8.905 0-5.09 3.829-9.392 8.362-9.392.258 0 .511.025.76.062.3-.039.603-.062.911-.062 1.421 0 2.714.566 3.64 1.592.989 1.097 1.465 2.604 1.306 4.142a1.446 1.446 0 00.623 1.318c.271-.202.467-.49.55-.783.118-.472.118-.821.118-1.053 0-4.26-3.036-7.655-7.056-8.079-5.743.47-10.452 5.81-10.452 12.093 0 6.717 5.003 11.637 11.987 11.946 8.096-.447 13.873-6.426 13.873-14.55 0-4.288-1.83-8.303-3.445-11.847-.926-2.004-1.8-3.961-2.342-5.843 3.871-1.297 6.27-4.007 6.438-7.297.065-1.335-.313-2.506-1.065-3.295a3.338 3.338 0 00-1.809-.97c-3.371.567-5.36 4.39-5.36 8.1zm4.339-5.27c.154 0 .45.008.678.27.298-.17.627-.27.993-.27.27 0 .987 0 .987 1.419 0 .693 0 2.758-4.023 4.383-.01-.196-.01-.399-.01-.586 0-.08.004-.163.006-.245-.462.284-1.006.563-1.668.83-.01-.195-.01-.398-.01-.585 0-2.104.968-5.217 3.047-5.217zM112.995 29.474c-1.52 3.441-4.35 9.846-7.575 9.846-.269 0-.496-.076-.69-.197a2.7 2.7 0 01-.982.197c-.932 0-1.42-.85-1.42-1.691 0-.607.15-1.977.296-3.301.155-1.403.3-2.729.3-3.377-.04-1.728-.404-4.039-2.964-4.777l8.621-7.846c.313-.314.472-.662.472-1.037 0-.403-.233-.903-.672-1.2-.045.033-.087.057-.138.1-4.14 3.798-7.566 6.88-9.833 8.918-1.733 1.559-2.778 2.5-3.085 2.806a2.1 2.1 0 00-.125.137l.82-2.296c-1.303 1.172-2.105 1.898-2.366 2.159-.045.044-.087.09-.126.137 1.37-3.831 2.8-7.864 4.382-12.326l2.445-6.891a1.4 1.4 0 00-.575-1.686c-.23.161-.416.387-.516.655-.374 1.075-1.97 5.616-7.935 22.255-1.713 3.835-4.233 9.261-7.278 9.261-.293 0-.544-.046-.747-.178-.303.108-.61.178-.925.178-.81 0-1.31-.328-1.31-1.962 0-2.086 1.449-6.13 3.127-10.812l3.302-8.917a1.44 1.44 0 00-.14-1.336 1.368 1.368 0 00-.37-.362 1.36 1.36 0 00-.52.65l-.188.486c-.158.408-.329.847-.503 1.317a5.226 5.226 0 00-1.179-1.29c-.155.4-.322.83-.493 1.29-.891-1.381-2.216-2.176-3.946-2.38-4.617.663-8.732 7.34-10.557 13.722-2.884 6.533-6.161 9.597-10.333 9.597-.07 0-.139 0-.209-.003a7.71 7.71 0 01-.628-.048 8.199 8.199 0 01-1.043.048c-1.534-.05-2.71-.505-3.498-1.348-.767-.82-1.13-1.973-1.079-3.42.053-1.1.21-2.078.539-3.332 3.56-.886 14.16-4.107 14.16-10.946 0-2.394-1.52-3.97-4.024-4.272-5.057.675-9.565 7.854-11.237 14.296-1.047 2.847-3.308 5.551-5.673 5.551a3.32 3.32 0 01-.826-.115c-.28.074-.562.115-.846.115-.823 0-1.575-.286-2.145-.811 1.96-3.067 4.088-9.028 4.088-12.703 0-3.801-1.428-6.047-4.036-6.433-1.25.179-2.458.754-3.654 1.755a1.411 1.411 0 00-.135-1.048 9.002 9.002 0 00-1.537 1.048 1.424 1.424 0 00-.207-1.182 1.46 1.46 0 00-.396-.378c-.243.169-.43.41-.527.703l-.324.865c-.391 1.01-1.68 4.557-3.31 9.046-1.093 3.007-2.341 6.442-3.58 9.835l-6.073 16.969c-.165.429-.103.918.166 1.309.105.154.244.275.395.377.244-.17.432-.415.531-.713.512-1.536 2.533-7.162 4.96-13.902.315.49.734.871 1.254 1.16l.417-1.16c.646 1.006 1.705 1.572 3.256 1.754 2.45-.313 4.888-1.966 7.103-4.84.325.273.7.504 1.109.694.189-.224.377-.454.563-.695.747.63 1.755 1.048 2.841 1.196 1.599-.225 3.103-1.091 4.38-2.308.067.386.16.757.275 1.115.488-.325.957-.696 1.397-1.115.26 1.498.878 2.785 1.844 3.774 1.156 1.185 2.741 1.88 4.618 2.035 3.381-.238 6.265-1.905 8.805-5.131.052.56.152 1.08.29 1.561.471-.474.932-.99 1.382-1.561.268 2.873 1.697 4.736 3.908 5.096 1.95-.3 3.843-1.613 5.646-3.92.063.538.196 1.02.371 1.461.438-.435.873-.913 1.3-1.46.256 2.178 1.476 3.603 3.35 3.92.982-.151 1.878-.552 2.7-1.138.05.275.182.528.372.736.453-.194.886-.441 1.3-.736.064.356.261.68.554.906.259-.174.473-.42.593-.72 1.47-3.97 2.88-7.86 4.35-11.958.009.144.04.283.094.415.185.445.612.717 1.15.77.143-.395.284-.785.427-1.185a1.206 1.206 0 00.567.968c.245-.139.482-.322.725-.512.552-.43 1.122-.875 1.883-.875.38 0 .696.046.962.137.22-.084.453-.137.71-.137 1.43 0 2.011.6 2.07 2.143.051.91-.091 1.957-.269 3.141l-.02.157c-.158 1.21-.308 2.354-.308 3.518 0 1.96 1.312 3.976 3.545 4.365 4.176-.67 6.923-6.027 9.392-11.534.058-.175.124-.373.124-.587 0-.482-.252-.916-.646-1.175-.203.15-.38.354-.51.613zm-50.41-10.62c.365 0 .674.027.933.084.243-.052.489-.084.738-.084 1.432 0 2.017.411 2.017 1.42 0 3.489-5.332 6.014-10.079 7.57.097-.221.203-.459.316-.704-.663.253-1.33.488-1.987.704 1.368-3.136 4.414-8.99 8.062-8.99zM41.82 29.127a1.457 1.457 0 00-.308-.277c-.281.198-.488.489-.555.828-.419 1.466-.615 3.609.056 5.313-1.94 2.912-4.173 4.492-6.236 4.492h-.067a2.598 2.598 0 01-.69-.105c-.33.072-.658.11-.982.105-1.113-.04-1.757-.463-1.757-2.505 0-1.455.259-2.16.826-3.704.106-.29.222-.607.345-.952 2.012-5.078 5.378-13.577 9.632-13.577.236 0 .482.035.713.15a3.34 3.34 0 01.959-.15c.837 0 1.799.396 1.799 3.481 0 2.012-.636 4.662-1.775 7.475a1.457 1.457 0 00-1.25-1.1c-.132.364-.272.73-.422 1.1a1.517 1.517 0 00-.288-.574zM73.313 39.32c-.233 0-.475-.035-.703-.15a3.36 3.36 0 01-.969.15c-.838 0-1.8-.414-1.8-3.637.028-1.37.349-3.141.888-5.017l.02-.042.03-.09c.033-.09.06-.189.077-.299 1.611-5.323 4.928-11.306 8.378-11.381.313 0 .6.054.874.132.265-.074.53-.126.797-.132 1.831 0 3.035 1.375 3.153 3.593l-1.278 3.408C80.677 31.218 77.5 39.32 73.313 39.32z"/><path class="st3" d="M42.877 38.44c.138.046.278.089.42.125-.119-.066-.246-.122-.359-.196l-.06.072zM30.95 42.01c.201.075.412.14.64.194a4.167 4.167 0 01-.567-.395l-.073.201zM40.38 16.06a6.402 6.402 0 00-.788.276c.025.05.058.095.08.145.235-.156.471-.294.708-.421zM151.969 38.353c.146.053.294.1.444.142a7.392 7.392 0 01-.38-.218l-.064.076z"/><path class="st2" d="M161.747 29.48c-1.832 4.345-3.67 6.369-5.783 6.369a4.56 4.56 0 01-.905-.093 3.21 3.21 0 01-.766.093c-1.062 0-1.843-.281-2.38-.858 2.455-4.235 4.16-9.52 4.16-12.928 0-3.384-1.873-5.638-4.948-6.05-2.56.37-4.977 2.345-7.037 5.777-1.608 2.632-2.789 5.174-3.56 7.665-2.706 5.923-5.232 9.865-8.752 9.865-.24 0-.431-.057-.598-.137a4.538 4.538 0 01-1.074.137c-1.235 0-1.42-1.23-1.42-1.962 0-1.527.707-4.02 2.91-10.254.7-1.97 1.267-3.553 1.717-4.81.627-1.747 1.032-2.876 1.253-3.549h4.218c.829 0 1.455-.625 1.455-1.454 0-.802-.653-1.455-1.455-1.455H135.6c1.688-4.585 2.248-6.243 2.356-6.875l.024.01-.024-.013.004-.027.032.013a1.416 1.416 0 00-.165-1.309 1.455 1.455 0 00-.394-.377 1.44 1.44 0 00-.539.733c-.101.36-2.305 6.684-2.731 7.845h-3.96c-.802 0-1.455.653-1.455 1.455 0 .829.626 1.454 1.455 1.454h2.969l-2.612 7.326c-1.833 4.696-3.113 9.338-3.113 11.287 0 2.674 1.39 4.488 3.598 4.813 2.706-.311 4.83-1.977 6.768-4.71a7.51 7.51 0 00.34 1.667c.455-.501.898-1.056 1.331-1.667.265 2.783 1.65 4.39 4.06 4.706 2.184-.327 4.617-2.04 6.686-4.742a6.77 6.77 0 001.128.673c.183-.218.365-.44.543-.673a6.706 6.706 0 003.208 1.276c3.012-.38 5.404-2.92 7.664-8.107.19-.445.146-.933-.123-1.34a1.48 1.48 0 00-.407-.4c-.222.158-.4.373-.496.625zm-10.44.193a1.438 1.438 0 00-.248-.52 1.416 1.416 0 00-.346-.317 1.321 1.321 0 00-.585.844c-.404 1.444-.484 3.736.056 5.194-2.015 2.828-4.093 4.446-5.718 4.446-.182 0-.496-.003-.825-.136a2.971 2.971 0 01-.846.136c-.513 0-2.07 0-2.07-2.993 0-3.928 1.465-8.429 4.241-13.02 1.665-2.872 3.552-4.453 5.313-4.453.31 0 .59.047.855.114.275-.073.547-.114.817-.114 1.806 0 2.884 1.18 2.884 3.155 0 2.043-.707 4.906-1.857 7.664a1.438 1.438 0 00-.248-.52 1.424 1.424 0 00-1-.554c-.134.359-.275.717-.424 1.074zM208.85 17.453c0 1.116.248 2.266.757 3.507a34.317 34.317 0 00-1.724 1.89c-.209.28-.334.614-.334.895 0 .482.186.919.472 1.145.042.042.092.076.141.11.127-.085.246-.183.344-.306.233-.31.494-.62.767-.915.235.412.45.793.657 1.16a1.54 1.54 0 00.248-.245c.232-.31.493-.62.767-.915 2.604 4.577 3.44 6.2 3.492 8.473-.102 4.228-3.048 7.068-7.332 7.068-.254 0-.502-.02-.747-.05-.301.03-.608.05-.924.05-3.138 0-5.596-2.339-5.596-5.304.215-3.295 2.16-5.508 4.837-5.508.222 0 .435.049.644.118.328-.076.67-.118 1.027-.118 1.317 0 2.465 1.302 2.559 2.884 0 .513.24.946.619 1.204.379-.259.619-.695.619-1.216-.107-2.924-2.2-5.342-4.807-5.723-2.903.328-5.061 2.163-6.092 5.09-2.87 6.222-4.798 8.573-6.944 8.573-.277 0-.519-.046-.72-.17-.314.11-.63.17-.952.17-.787 0-1.31-.334-1.31-1.962 0-1.469 1.29-5.918 3.287-11.333.338-.9.713-1.931 1.12-3.054.577-1.582 1.22-3.348 1.917-5.187a1.4 1.4 0 00-.576-1.686 1.4 1.4 0 00-.513.65l-1.176 3.222c-2.19 6.013-3.92 10.762-5.537 13.996-1.675 3.453-3.79 5.354-5.953 5.354a3.62 3.62 0 01-.828-.098c-.28.064-.561.098-.844.098-1.794 0-2.667-.997-2.667-3.047 0-1.746.437-2.902 3.836-11.893.698-1.846 1.52-4.022 2.489-6.596.173-.453.12-.953-.144-1.337a1.343 1.343 0 00-.377-.355 1.39 1.39 0 00-.512.651l-.901 2.338c-4.436 11.496-5.629 14.585-5.629 17.192 0 3.505 1.638 5.567 4.672 5.902 2.001-.254 4.037-1.475 5.56-3.35.109.47.266.883.452 1.258.431-.379.843-.795 1.22-1.258.448 1.94 1.568 3.077 3.277 3.342 2.18-.31 4.057-1.841 6.06-5.095.204.487.458.949.75 1.384.305-.422.612-.88.921-1.384 1.169 2.795 3.875 4.831 7.1 5.119 5.448-.388 9.25-4.334 9.353-9.882-.046-3.146-1.12-5.07-3.069-8.565-.368-.661-.769-1.381-1.204-2.18 1.89-2.19 2.97-4.549 2.97-6.518-.107-1.542-.935-2.653-2.131-2.994-1.934.528-3.39 2.748-3.39 5.401zm3.63-2.217c.304-.303.53-.38.565-.38.001 0 .036.048.036.211 0 .954-.568 2.248-1.224 3.295a4.963 4.963 0 01-.097-.963c0-.658.125-1.567.72-2.163zm-1.106-.38s.036.048.036.211c0 .954-.568 2.248-1.225 3.295a4.963 4.963 0 01-.097-.963c0-.658.126-1.567.721-2.163.304-.303.529-.38.565-.38zM222.734 40.503c0 .914.54 1.677 1.326 1.997.806-.323 1.376-1.095 1.376-1.997 0-.905-.577-1.703-1.376-2.041a2.218 2.218 0 00-1.326 2.041zM236.582 2.76l-10.52 29.826c-.134.367-.124.76.027 1.108.103.235.267.427.47.573.239-.17.432-.411.54-.709L237.622 3.73a1.425 1.425 0 00-.061-1.12 1.472 1.472 0 00-.481-.556c-.245.18-.422.425-.497.705z"/><path class="st1" d="M163.07 28.98c-.205 0-.416.07-.596.199a.98.98 0 00-.36.455c-1.902 4.512-3.856 6.614-6.15 6.614-.325 0-.638-.032-.983-.1-.704-.141-1.273-.439-1.689-.885l-.201-.216.148-.256c2.418-4.17 4.107-9.404 4.107-12.728 0-3.428-2.051-5.62-5.341-5.72a5.74 5.74 0 00-.823.065c-2.435.351-4.77 2.283-6.754 5.59-1.601 2.62-2.752 5.099-3.52 7.575l-.007.025-.01.023c-2.77 6.061-5.38 10.098-9.115 10.098-.272 0-.524-.058-.771-.177-.676-.325-1.048-1.1-1.048-2.184 0-1.58.713-4.104 2.934-10.387.624-1.76 1.143-3.21 1.568-4.396l.148-.415c.654-1.824 1.035-2.887 1.25-3.54l.09-.273h4.506c.612 0 1.056-.444 1.056-1.056 0-.582-.473-1.056-1.056-1.056H136.7l.198-.536c1.619-4.4 2.23-6.18 2.336-6.805l.002-.008.001-.011.103-.482.014.005a1.073 1.073 0 00-1.07-1.004 1.033 1.033 0 00-1.006.704c-.112.399-2.343 6.79-2.74 7.876l-.097.261H130.203c-.582 0-1.056.474-1.056 1.056 0 .612.444 1.056 1.056 1.056h3.534l-.19.532-2.616 7.337c-1.817 4.654-3.085 9.236-3.085 11.142 0 2.466 1.217 4.118 3.257 4.419.244.036.464.053.673.053 2.306 0 4.238-.944 6.081-2.97.441-.485.879-1.033 1.302-1.63l.62-.875.102 1.068c.247 2.594 1.497 4.057 3.714 4.349.298.04.583.058.871.058 2.054 0 4.455-1.453 6.587-3.988.18-.214.357-.432.532-.66l.239-.312.315.234a6.276 6.276 0 003.018 1.201c.298.037.562.054.807.054 3.224 0 5.726-2.444 8.113-7.922a.992.992 0 00-.088-.963 1.097 1.097 0 00-.92-.494zm-10.48.789a1.037 1.037 0 00-.178-.377 1.029 1.029 0 00-.725-.396l-.073-.01-.043-.006c-.23 0-.45.066-.639.19a.947.947 0 00-.42.617c-.378 1.35-.464 3.571.046 4.949l.074.198-.123.172c-2.12 2.975-4.266 4.613-6.043 4.613-.184 0-.567 0-.975-.166-.991-.404-1.494-1.489-1.494-3.226 0-4.001 1.487-8.575 4.296-13.22 1.463-2.523 3.102-4.088 4.739-4.524.319-.085.628-.128.919-.128 2.025 0 3.283 1.362 3.283 3.554 0 2.061-.706 4.984-1.888 7.817l-.465 1.115-.29-1.172zM212.724 21.754l-.132-.242.18-.209c1.826-2.115 2.874-4.396 2.874-6.23-.114-1.64-1.126-2.743-2.52-2.743-.26 0-.522.036-.78.106-1.794.49-3.097 2.6-3.097 5.017 0 1.065.238 2.162.727 3.356l.1.244-.185.187a33.883 33.883 0 00-1.689 1.85c-.157.21-.254.46-.254.655 0 .346.129.68.32.832l.019.015.016.016c.022.022.049.038.09.067.166.118.395.18.665.18.216 0 .438-.081.624-.229.071-.056.133-.117.177-.172.243-.323.51-.641.794-.946l.37-.398.268.472c2.59 4.553 3.49 6.25 3.545 8.68-.108 4.46-3.214 7.457-7.73 7.457-.244 0-.497-.017-.796-.054-3.012-.368-5.2-2.744-5.199-5.675.197-3.007 1.775-5.21 4.118-5.753a4.965 4.965 0 011.117-.128c1.524 0 2.85 1.462 2.958 3.283 0 .363.161.682.444.874.175.119.387.182.612.182.612 0 1.056-.45 1.056-1.053-.108-2.976-2.407-5.398-5.124-5.398-.28 0-.579.018-.91.056-2.729.309-4.775 2.023-5.776 4.862-2.96 6.418-4.941 8.804-7.306 8.804-.376 0-.68-.075-.93-.23-.532-.33-.78-1.008-.78-2.131 0-1.535 1.27-5.93 3.313-11.473.338-.9.712-1.929 1.129-3.075.569-1.564 1.214-3.336 1.91-5.17a1.001 1.001 0 00-.119-.924 1.123 1.123 0 00-.943-.481c-.202 0-.41.067-.585.19-.173.12-.3.28-.368.46l-1.175 3.222c-2.194 6.023-3.927 10.78-5.553 14.033-1.746 3.597-3.987 5.579-6.312 5.579-.306 0-.597-.035-.918-.109-1.425-.328-2.148-1.451-2.148-3.337 0-1.82.44-2.983 3.862-12.034l.076-.202c.681-1.802 1.479-3.912 2.413-6.396.127-.33.09-.693-.1-.969-.191-.278-.522-.437-.907-.437a1.024 1.024 0 00-.953.652l-.903 2.341c-4.414 11.439-5.6 14.513-5.6 17.045 0 3.29 1.493 5.194 4.317 5.506.319.035.593.051.86.051 1.625 0 3.346-.726 4.845-2.046.449-.395.832-.79 1.173-1.21l.514-.633.184.794c.411 1.776 1.404 2.798 2.95 3.038.246.038.498.057.748.057 2.125 0 3.876-1.112 5.678-3.607.307-.425.611-.883.905-1.36l.407-.662.3.718c1.144 2.737 3.737 4.605 6.767 4.875.278.024.523.036.748.036 5.692 0 9.74-3.918 9.843-9.515-.045-3.046-1.101-4.94-3.033-8.404a235.6 235.6 0 01-1.191-2.157zm-1.067-2.322l-.192-.995a5.37 5.37 0 01-.104-1.038c0-.733.146-1.752.838-2.445.3-.3.632-.495.843-.497h.096l.086.042c.172.086.256.272.256.568 0 1.315-.899 2.89-1.285 3.507l-.538.858zM114.775 29.084c-.154-.05-.312-.104-.46-.104-.2 0-.392.068-.572.201-.164.122-.296.28-.383.455-1.667 3.77-4.456 10.083-7.94 10.083-.323 0-.626-.087-.9-.257-.567-.353-.919-1.055-.919-1.833 0-.629.152-2.01.298-3.345.147-1.328.298-2.7.298-3.324-.04-1.702-.379-3.74-2.676-4.403l-.685-.197.527-.48 8.608-7.834c.239-.24.355-.486.355-.755 0-.368-.326-1.056-1.11-1.056-.238 0-.375.018-.603.18l-.052.037-.048.032c-4.141 3.799-7.568 6.88-9.837 8.922-.987.888-1.775 1.597-2.317 2.09 0 0-.61 2.848-1.126 2.018.062.15.17.274.32.37.18.116.403.178.647.178.433 0 .829-.31 1.288-.668.365-.285.78-.608 1.278-.797.288-.11.567-.163.85-.163 1.64 0 2.403.78 2.47 2.52.053.945-.093 2.018-.272 3.215l-.02.157c-.157 1.195-.305 2.324-.305 3.466 0 1.696 1.104 3.605 3.214 3.972.258.045.492.066.717.066 4.445 0 7.335-5.617 9.9-11.333.051-.153.104-.311.104-.46 0-.425-.266-.81-.649-.953zM95.137 27.042l.507-1.42c1.121-3.146 2.292-6.448 3.562-10.03l2.448-6.9a1.001 1.001 0 00-.118-.925 1.123 1.123 0 00-.944-.48c-.201 0-.409.067-.584.189a1.002 1.002 0 00-.368.46c-.327.94-1.866 5.327-7.947 22.286-2.052 4.595-4.505 9.497-7.642 9.497-.404 0-.71-.077-.965-.243-.515-.336-.745-.99-.745-2.118 0-2.157 1.46-6.23 3.153-10.95l3.308-8.932a1.037 1.037 0 00-.104-.961 1 1 0 00-.85-.443c-.233 0-.454.066-.637.19a.965.965 0 00-.37.462l-.195.503c-.156.402-.324.833-.496 1.296l-.277.747-.432-.67a4.86 4.86 0 00-1.089-1.192c-.9-.706-2.06-1.064-3.447-1.064-.209 0-.434.017-.69.054-4.576.658-8.51 7.427-10.23 13.438l-.007.026-.011.025c-2.963 6.71-6.362 9.835-10.698 9.835l-.222-.003a8.09 8.09 0 01-.66-.05c-1.328-.154-2.377-.633-3.116-1.425-.842-.9-1.24-2.148-1.185-3.71.054-1.14.213-2.13.55-3.415l.06-.229.23-.057c3.25-.81 13.857-3.962 13.857-10.56 0-2.46-1.692-3.93-4.527-3.93a5.42 5.42 0 00-.716.054c-4.892.653-9.27 7.701-10.916 14.039-1.029 2.799-3.36 5.812-6.047 5.812-.292 0-.585-.04-.925-.127a3.415 3.415 0 01-1.49-.79l-.246-.226.18-.282c1.903-2.98 4.025-8.842 4.025-12.488 0-2.783-.776-6.1-4.473-6.1-.235 0-.483.02-.78.062-1.188.17-2.318.714-3.455 1.665l-.978.819.338-1.23a1.01 1.01 0 00-.1-.751l-.031-.06c-.007-.014-.012-.027-.02-.039a1.074 1.074 0 00-.885-.466c-.231 0-.448.066-.627.19a.998.998 0 00-.38.515l-.326.869c-.39 1.007-1.678 4.551-3.308 9.039l-.096.264c-1.07 2.943-2.28 6.277-3.483 9.569L23.44 53.658c-.117.306-.072.658.122.94.067.097.162.186.29.273.187.126.393.193.596.193.468 0 .863-.276 1.006-.703.461-1.384 2.08-5.905 4.544-12.75l.418-1.16.274-.76.436.68c.581.904 1.524 1.404 2.967 1.573.181.02.366.04.554.05.072.002.145.003.217.003 2.398 0 4.85-1.404 7.09-4.06.185-.22.37-.445.552-.681l.254-.33.318.268c.682.574 1.619.967 2.639 1.106.293.04.556.06.804.06 1.187 0 2.39-.401 3.576-1.19.48-.32.931-.68 1.343-1.072l.54-.515.128.735c.25 1.44.833 2.64 1.736 3.565 1.08 1.107 2.59 1.77 4.366 1.915.257.022.52.032.785.032 3.045 0 5.66-1.14 7.994-3.485.474-.477.929-.99 1.351-1.527l.618-.785.093.995c.25 2.683 1.553 4.41 3.575 4.74.261.042.503.062.74.062 1.665 0 3.324-.81 4.932-2.41.467-.465.881-.93 1.268-1.424l.597-.765.113.964c.232 1.986 1.333 3.288 3.02 3.573.245.041.5.062.754.062.712 0 1.416-.147 2.094-.437.418-.179.83-.412 1.226-.694l.513-.365.11.62c.047.26.191.494.407.661.1.077.194.132.281.164.084.023.173.035.263.035.475 0 .93-.31 1.102-.743 1.217-3.29 2.463-6.71 3.921-10.768l.173-.48.203-1.577s1.3-2.624.793-1.204zm-39.308.642c.097-.223.205-.463.32-.71 1.599-3.476 4.161-7.76 7.286-8.426.293-.062.562-.093.821-.093 1.037 0 2.415.189 2.415 1.819 0 3.022-3.483 5.697-10.353 7.949l-.845.277.356-.816zm-12.434 2.117a1.061 1.061 0 00-.913-.804l-.063-.008c-.024-.004-.048-.009-.073-.009-.213 0-.422.068-.603.196a.967.967 0 00-.402.612c-.395 1.385-.592 3.441.044 5.057l.077.194-.116.173c-2.006 3.012-4.338 4.67-6.567 4.67h-.083a2.98 2.98 0 01-.795-.124c-1.193-.377-1.346-1.684-1.346-2.78 0-1.526.284-2.3.85-3.842.106-.288.221-.604.35-.961 1.966-4.967 4.939-12.472 8.93-13.663a3.71 3.71 0 011.072-.165c1.5 0 2.198 1.232 2.198 3.88 0 2.043-.641 4.75-1.805 7.624l-.452 1.118-.303-1.168zm29.918 9.918c-.336 0-.625-.063-.883-.193-.897-.453-1.316-1.674-1.315-3.851.028-1.393.34-3.163.902-5.119l.014-.035.012-.027.033-.095c.026-.074.045-.147.057-.224l.004-.028.008-.028c1.537-5.073 4.561-10.602 7.856-11.517.338-.094.623-.14.896-.147h.008c2.06 0 3.42 1.522 3.551 3.971l.005.083-.03.078-1.28 3.414c-2.142 5.462-5.379 13.718-9.838 13.718zM238.26 2.237a1.012 1.012 0 00-.813.05c-.048.025-.09.057-.132.088a.938.938 0 00-.357.517l-10.522 29.83c-.098.271-.092.56.019.813.07.16.183.298.336.408.091.065.17.109.246.137.114.04.231.062.35.062.447 0 .853-.29 1.008-.717l10.522-29.83a1.03 1.03 0 00-.044-.81 1.087 1.087 0 00-.613-.548zM224.894 38.688a1.7 1.7 0 00-.676.14 1.814 1.814 0 00-1.085 1.675 1.744 1.744 0 001.76 1.761c1.002 0 1.816-.79 1.816-1.76a1.84 1.84 0 00-1.815-1.816zM24.754 18.682c-.93-2.017-1.812-3.985-2.363-5.9l-.105-.368.362-.121c3.703-1.24 6.008-3.835 6.166-6.938.06-1.226-.28-2.292-.955-3.001-.577-.605-1.38-.925-2.324-.925-.246 0-.5.023-.802.074-3.265.549-5.027 4.38-5.027 7.707 0 .354.028.674.072 1.076l.045.411-.412.03c-.598.044-1.255.084-2.012.084-.226 0-.447-.008-.668-.017l-.112-.004c-5.875-.226-10.127-2.991-12.636-8.214-.195-.39-.534-.605-.956-.605-.194 0-.424.076-.617.203a.912.912 0 00-.439.799c0 .187.042.326.11.527 2.948 6.032 7.895 9.195 14.707 9.403l.225.008c.164.006.327.012.495.012.207 0 .402-.006.597-.012l.167-.005c.56-.015 1.11-.04 1.633-.075l.32-.02.089.308c.599 2.083 1.545 4.237 2.543 6.445 1.57 3.465 3.195 7.048 3.195 10.797 0 6.994-5.122 12.07-12.178 12.07-.322 0-.638-.019-.905-.037-5.551-.379-9.429-4.19-9.429-9.267 0-4.892 3.426-9.164 7.8-9.726a7.5 7.5 0 01.961-.065c1.535 0 2.933.612 3.936 1.724 1.064 1.18 1.577 2.802 1.408 4.44-.024.305.073.592.272.806.05.054.11.105.178.152.192.13.42.2.66.2.483 0 .845-.384.95-.75.106-.425.106-.732.106-.957 0-4.332-3.299-7.726-7.51-7.726-.24 0-.478.02-.73.04l-.056.004c-5.562.456-10.086 5.702-10.086 11.696 0 6.496 4.772 11.245 11.606 11.548l.229.012c.148.008.296.017.447.017 8.374 0 14.452-5.964 14.452-14.18 0-4.201-1.81-8.175-3.409-11.68zm-2.871-8.92a11.807 11.807 0 01-.006-.804l.002-.06c.064-1.902.784-4.196 2.247-5.034a2.374 2.374 0 011.191-.324c1.145 0 1.385.99 1.385 1.819 0 .749 0 3.027-4.272 4.753l-.518.21-.03-.56z"/><path class="st0" d="M26.702 5.359c0-.83-.24-1.819-1.385-1.819-.415 0-.816.11-1.191.324-1.463.838-2.183 3.132-2.247 5.034l-.002.06a11.807 11.807 0 00.006.804l.029.56.518-.21c4.272-1.726 4.272-4.004 4.272-4.753zm-1.912-.228c.15-.094.3-.147.455-.159.014.067.029.187.029.387 0 .442 0 1.548-1.88 2.69.214-1.353.762-2.517 1.396-2.918z"/><path class="st0" d="M115.263 27.741c-.247-.082-.567-.19-.949-.19-.663 0-1.29.278-1.765.783a2.852 2.852 0 00-.476.68c-1.208 2.732-4.02 9.091-6.55 9.268l-.053.004c-.017.002-.034.004-.05.004-.38 0-.39-.654-.39-.661 0-.55.154-1.952.29-3.188.157-1.43.306-2.78.306-3.49-.021-.921-.082-3.576-2.17-5.044l7.49-6.818c.534-.532.809-1.15.809-1.798 0-1.2-1.02-2.485-2.54-2.485-.465 0-.975.046-1.63.593l-.092.083-.083.075c-4.11 3.768-7.466 6.787-9.687 8.784l-.157.142c.932-2.618 1.9-5.349 2.936-8.27l.05-.143 2.445-6.89a2.408 2.408 0 00-.283-2.222c-.48-.7-1.254-1.1-2.122-1.1-.666 0-1.316.283-1.781.777-.23.242-.401.514-.512.807-.335.965-1.89 5.394-7.931 22.247-1.209 2.703-3.748 8.386-6.192 8.582-.035.003-.07.008-.104.014l-.101.003a.38.38 0 01-.099-.008c.003-.003-.102-.144-.102-.922 0-1.908 1.421-5.873 3.067-10.464l3.299-8.907c.297-.713.203-1.587-.25-2.266a2.407 2.407 0 00-2.039-1.078c-.706 0-1.357.274-1.83.77a2.37 2.37 0 00-.513.806l-.08.208a6.991 6.991 0 00-.336-.263c-1.127-.829-2.534-1.25-4.183-1.25-1.11 0-2.233.301-3.34.893-4.382 2.344-7.549 8.767-8.933 13.567-2.22 5.003-4.668 7.833-7.485 8.652a6.725 6.725 0 01-2.062.265c-1.242-.042-2.176-.386-2.77-1.022-.573-.613-.843-1.515-.802-2.68.04-.85.15-1.62.36-2.524 4.499-1.192 14.34-4.62 14.34-11.791 0-3.256-2.339-5.36-5.957-5.36-1.18 0-2.38.315-3.569.936-4.58 2.39-8.03 8.819-9.42 14.139-.817 2.188-2.572 4.536-4.357 4.805a2.271 2.271 0 01-1.079-.094c1.829-3.278 3.718-8.77 3.718-12.365 0-4.785-2.15-7.529-5.901-7.529-1.198 0-2.329.295-3.457.903a10.59 10.59 0 00-.373.21 2.503 2.503 0 00-2.081-1.113c-.685 0-1.346.282-1.814.773a2.385 2.385 0 00-.544.896l-.312.828c-.39 1.01-1.678 4.554-3.308 9.04l-.102.281-.014.039c-.695 1.912-1.451 3.994-2.224 6.116.032-.23.066-.46.089-.695.056-.574.084-1.153.084-1.723 0-4.51-1.88-8.634-3.538-12.272-.757-1.64-1.48-3.243-2.005-4.796 3.713-1.548 6.02-4.466 6.192-7.866.08-1.622-.4-3.063-1.348-4.059C28.041.473 26.88 0 25.535 0a6.083 6.083 0 00-3.116.843c-2.516 1.474-4.142 4.759-4.142 8.367 0 .051 0 .102.002.153-.202.007-.411.013-.627.015l-.103.002-.15.003c-5.68 0-9.762-2.5-12.13-7.431-.443-.885-1.28-1.41-2.242-1.41-.655 0-1.33.289-1.803.772a2.327 2.327 0 00-.682 1.659c0 .448.114.777.197 1.017l.008.022.023.058c1.959 4.02 4.744 6.885 8.296 8.547 2.46 1.151 5.3 1.735 8.442 1.735.343 0 .673-.007.993-.018.232-.008.46-.017.681-.029.622 1.928 1.478 3.867 2.374 5.848 1.508 3.327 3.067 6.767 3.067 10.208 0 4.728-2.665 8.569-6.954 10.022-1.211.41-2.488.619-3.795.619-5.16 0-8.905-3.312-8.905-7.875 0-4.533 3.358-8.362 7.332-8.362.283 0 .566.03.842.087.792.166 1.495.569 2.033 1.165.794.88 1.175 2.1 1.047 3.346-.057.729.173 1.405.646 1.915l.021.022.047.04c.46.469 1.128.747 1.818.747 1.246 0 2.08-.933 2.327-1.8.158-.628.158-1.07.158-1.336 0-5.134-3.926-9.155-8.939-9.155-1.704 0-3.377.396-4.974 1.176C2.877 23.15 0 27.856 0 32.965c0 5.057 2.65 9.37 7.089 11.538 1.994.974 4.222 1.468 6.622 1.468 5.455 0 10.231-2.351 13.103-6.45.131-.188.252-.382.374-.574L22.1 53.167c-.28.73-.174 1.57.287 2.24.08.117.172.21.252.293.509.521 1.142.793 1.81.793 1.095 0 2.022-.66 2.362-1.68.497-1.49 2.52-7.12 4.408-12.37l.164.102c.858.52 1.904.807 3.198.875.107.004.196.006.285.006 2.83 0 5.65-1.573 8.168-4.55l.071.038a7.062 7.062 0 003.418.874c1.437 0 2.867-.454 4.253-1.35.129-.084.249-.164.362-.243a7.61 7.61 0 001.686 2.686 7.452 7.452 0 001.821 1.358c1.265.677 2.729 1.02 4.352 1.02 3.34 0 6.212-1.207 8.777-3.69.098-.094.198-.19.298-.29.482 1.407 1.308 2.5 2.413 3.187.847.526 1.817.793 2.883.793 2.005 0 3.952-.897 5.787-2.667.085-.082.167-.163.246-.242a4.947 4.947 0 001.831 2.12c.823.524 1.772.79 2.82.79 1.02 0 2.04-.25 3.03-.74l.125-.06.004-.002.002.002c.273.298.615.528.989.664l.008.002.067.023c.232.064.445.093.67.093a2.64 2.64 0 002.432-1.652c1.192-3.219 2.389-6.503 3.758-10.31.325.138.685.21 1.064.21.924 0 1.613-.538 2.167-.97.447-.348.832-.649 1.238-.654l.042-.001.01-.002c.726.002.96.072 1.002 1.153.045.826-.09 1.824-.26 2.948l-.022.177c-.163 1.243-.317 2.416-.317 3.65 0 1.907.974 3.7 2.541 4.68.837.523 1.785.788 2.819.788 5.299 0 8.448-6.034 11.218-12.215l.008-.018.02-.047c.08-.24.187-.56.187-.943a2.46 2.46 0 00-1.59-2.295zM13.71 44.542c-.151 0-.3-.009-.447-.017l-.229-.012C6.201 44.21 1.43 39.46 1.43 32.965c0-5.994 4.524-11.24 10.086-11.696l.056-.004c.252-.02.49-.04.73-.04 4.211 0 7.51 3.394 7.51 7.726 0 .225 0 .532-.106.956-.105.367-.467.751-.95.751a1.165 1.165 0 01-.838-.352 1.052 1.052 0 01-.272-.806c.17-1.638-.344-3.26-1.408-4.44-1.003-1.112-2.4-1.724-3.936-1.724a7.5 7.5 0 00-.962.065c-4.373.562-7.799 4.834-7.799 9.726 0 5.078 3.878 8.888 9.43 9.267.266.018.582.037.904.037 7.056 0 12.178-5.076 12.178-12.07 0-3.75-1.624-7.332-3.195-10.797-.998-2.208-1.944-4.362-2.543-6.445l-.089-.308-.32.02a44.35 44.35 0 01-1.633.075l-.167.005c-.195.006-.39.012-.597.012-.168 0-.331-.006-.495-.012l-.225-.008C9.976 12.695 5.028 9.532 2.082 3.5c-.07-.2-.111-.34-.111-.527 0-.338.148-.607.44-.799.192-.127.422-.203.616-.203.422 0 .761.215.956.605 2.509 5.223 6.761 7.988 12.636 8.214l.112.004c.221.009.442.017.668.017.757 0 1.414-.04 2.012-.084l.412-.03-.045-.411a9.435 9.435 0 01-.072-1.076c0-3.327 1.762-7.158 5.027-7.707.301-.05.556-.074.802-.074.944 0 1.747.32 2.324.925.675.71 1.015 1.775.955 3.001-.158 3.103-2.463 5.697-6.166 6.938l-.362.121.105.367c.551 1.916 1.433 3.884 2.363 5.9 1.598 3.506 3.41 7.48 3.41 11.68 0 8.217-6.079 14.181-14.453 14.181zm101.61-14.045c-2.566 5.716-5.456 11.333-9.901 11.333a4.15 4.15 0 01-.717-.066c-2.11-.367-3.214-2.276-3.214-3.972 0-1.142.148-2.271.304-3.466l.02-.157c.18-1.197.325-2.27.273-3.215-.067-1.74-.83-2.52-2.47-2.52-.284 0-.562.053-.85.163-.499.19-.913.512-1.278.797-.459.358-.856.668-1.289.668-.243 0-.467-.062-.646-.177a.809.809 0 01-.32-.37c-.517-.83-1.092.308-1.092.308l-.173.48a1181.955 1181.955 0 01-3.921 10.768 1.213 1.213 0 01-1.102.743c-.09 0-.179-.012-.263-.035a1.08 1.08 0 01-.281-.164 1.08 1.08 0 01-.406-.661l-.111-.62-.513.365a6.603 6.603 0 01-1.226.694 5.298 5.298 0 01-2.094.437c-.255 0-.509-.02-.754-.062-1.687-.285-2.788-1.587-3.02-3.573l-.113-.964-.597.765c-.386.493-.801.96-1.268 1.424-1.608 1.6-3.267 2.41-4.932 2.41-.237 0-.479-.02-.74-.063-2.022-.328-3.325-2.056-3.575-4.74l-.093-.993-.618.784c-.422.537-.877 1.05-1.351 1.527-2.334 2.345-4.949 3.485-7.994 3.485-.264 0-.528-.01-.785-.031-1.776-.147-3.285-.81-4.366-1.916-.903-.925-1.487-2.125-1.736-3.565l-.128-.735-.54.515a9.912 9.912 0 01-1.343 1.072c-1.186.79-2.39 1.19-3.576 1.19-.248 0-.511-.02-.804-.06-1.02-.139-1.957-.531-2.639-1.106l-.318-.268-.254.33c-.183.236-.367.461-.552.681-2.24 2.656-4.692 4.06-7.09 4.06-.072 0-.145-.001-.217-.004a8.702 8.702 0 01-.554-.05c-1.443-.168-2.386-.668-2.967-1.572l-.436-.68-.274.76-.418 1.16c-2.463 6.845-4.083 11.366-4.544 12.75-.143.427-.538.703-1.006.703-.203 0-.41-.067-.596-.193a1.063 1.063 0 01-.29-.273 1.018 1.018 0 01-.121-.94l6.075-16.977c1.202-3.292 2.414-6.626 3.483-9.57l.096-.263c1.63-4.488 2.918-8.032 3.308-9.04l.325-.868a.998.998 0 01.381-.515c.18-.124.396-.19.627-.19.353 0 .685.174.885.466.008.012.013.025.02.038l.03.061c.132.242.168.508.101.75l-.338 1.231.978-.819c1.137-.95 2.267-1.495 3.455-1.665.297-.042.545-.062.78-.062 3.697 0 4.473 3.317 4.473 6.1 0 3.647-2.122 9.508-4.025 12.488l-.18.282.246.226c.407.376.909.641 1.49.79.34.086.633.127.925.127 2.686 0 5.018-3.013 6.047-5.812 1.647-6.338 6.024-13.386 10.916-14.04a5.42 5.42 0 01.716-.052c2.835 0 4.527 1.469 4.527 3.93 0 6.597-10.606 9.75-13.857 10.559l-.23.057-.06.229c-.337 1.286-.496 2.275-.55 3.414-.055 1.563.343 2.81 1.185 3.711.74.792 1.788 1.271 3.115 1.424a8.091 8.091 0 00.883.054c4.336 0 7.735-3.125 10.698-9.835l.011-.025.008-.026c1.718-6.011 5.653-12.78 10.23-13.438a4.84 4.84 0 01.69-.054c1.386 0 2.545.358 3.446 1.064.43.337.796.738 1.09 1.192l.431.67.277-.747c.172-.463.34-.894.496-1.296l.194-.503a.965.965 0 01.37-.463c.184-.123.405-.189.637-.189a1 1 0 01.85.443c.192.286.232.655.105.96l-3.308 8.933c-1.693 4.72-3.153 8.793-3.153 10.95 0 1.129.23 1.782.745 2.118.254.166.56.243.965.243 3.137 0 5.59-4.902 7.642-9.497 6.081-16.96 7.62-21.346 7.947-22.287.067-.176.195-.338.368-.459.175-.122.383-.19.584-.19.39 0 .734.175.944.481.19.277.234.623.118.925l-2.448 6.9c-1.27 3.582-2.44 6.884-3.562 10.03l-.507 1.42c-.507 1.42.699 1.01.699 1.01.542-.493 1.853-1.758 2.84-2.646 2.27-2.041 5.696-5.123 9.837-8.922l.048-.032.052-.036c.228-.163.365-.181.603-.181.784 0 1.11.688 1.11 1.056 0 .269-.116.515-.355.755l-8.608 7.833-.527.48.685.198c2.297.662 2.637 2.701 2.676 4.403 0 .623-.151 1.996-.298 3.324-.146 1.335-.298 2.716-.298 3.345 0 .778.352 1.48.919 1.833.274.17.577.257.9.257 3.484 0 6.273-6.312 7.94-10.083.087-.174.219-.333.383-.455a.948.948 0 01.571-.2c.149 0 .307.052.461.103.383.144.65.528.65.952 0 .15-.054.308-.105.46z"/><path class="st0" d="M66.671 20.274c0-1.63-1.378-1.819-2.415-1.819-.26 0-.528.03-.821.093-3.125.667-5.687 4.95-7.287 8.426-.114.247-.222.487-.32.71l-.355.816.845-.277c6.87-2.252 10.353-4.927 10.353-7.95zm-2.415-.39l.068.002.073.003c.846.021.846.143.846.385 0 1.926-2.498 3.964-7.04 5.752 1.372-2.629 3.654-6.142 6.053-6.142zM84.432 22.587l.029-.078-.005-.083c-.13-2.45-1.49-3.97-3.55-3.97H80.896a3.595 3.595 0 00-.896.146c-3.295.915-6.32 6.444-7.856 11.517l-.008.028-.004.028c-.012.077-.03.15-.057.224l-.033.095-.012.027-.014.035c-.562 1.956-.874 3.726-.902 5.119 0 2.177.418 3.398 1.315 3.85.258.13.546.194.883.194 4.459 0 7.696-8.256 9.838-13.718l1.28-3.414zm-2.616 2.906c-1.798 4.586-4.812 12.27-8.173 12.77a2.23 2.23 0 01-.33.027c-.51 0-.77-.877-.77-2.607.025-1.218.318-2.873.826-4.657l.002-.006.023-.06.03-.09c.045-.123.082-.258.107-.398 1.554-5.093 4.67-10.529 7.397-10.588.013 0 .034.004.054.006.033.005.066.009.1.011 1.099.079 1.8.95 1.933 2.395l-1.2 3.197zM45.955 22.226c0-2.647-.699-3.88-2.198-3.88a3.71 3.71 0 00-1.073.166c-3.99 1.191-6.963 8.696-8.93 13.663-.128.357-.243.673-.35.961-.565 1.542-.849 2.316-.849 3.842 0 1.096.153 2.403 1.346 2.78.227.072.487.112.795.123l.083.001c2.229 0 4.561-1.658 6.567-4.67l.116-.173-.077-.194c-.636-1.616-.44-3.672-.044-5.057a.967.967 0 01.402-.612c.18-.128.39-.196.603-.196.025 0 .05.005.073.009l.063.009a1.061 1.061 0 01.913.803l.303 1.168.452-1.118c1.164-2.873 1.805-5.581 1.805-7.625zM43.4 27.785a2.547 2.547 0 00-.583-.186 2.509 2.509 0 00-.47-.048 2.48 2.48 0 00-1.8.775 2.351 2.351 0 00-.593 1.118c-.191.674-.766 3.083-.082 5.39-1.367 1.924-2.9 3.17-4.327 3.513a3.278 3.278 0 01-.765.106h-.055c-.506-.018-.741-.027-.741-1.475 0-1.272.207-1.838.762-3.35.107-.29.225-.611.349-.96 1.703-4.3 4.883-12.325 8.317-12.863.129-.02.241-.03.345-.03.51 0 .769.825.769 2.451 0 1.488-.398 3.447-1.126 5.559zM163.07 27.551c-.663 0-1.312.284-1.783.778-.228.24-.397.504-.504.788-1.51 3.579-3.047 5.496-4.562 5.684-.085.01-.17.018-.257.018-.406 0-.743-.048-1.021-.146 2.3-4.254 3.831-9.274 3.831-12.61 0-4.218-2.645-7.024-6.738-7.148h-.001c-1.241 0-2.451.311-3.609.925-1.916 1.016-3.673 2.84-5.221 5.42-1.647 2.696-2.839 5.257-3.641 7.827-2.003 4.376-4.242 8.504-7.039 9.112a3.485 3.485 0 01-.75.091c-.106 0-.39 0-.39-.932 0-1.377.72-3.878 2.853-9.91.621-1.753 1.139-3.199 1.562-4.382l.153-.424c.463-1.293.79-2.207 1.02-2.867h3.48a2.458 2.458 0 002.485-2.484 2.488 2.488 0 00-2.485-2.485h-1.706c1.307-3.58 1.689-4.768 1.835-5.382l.043-.111a2.446 2.446 0 00-.278-2.26 2.5 2.5 0 00-2.063-1.087 2.484 2.484 0 00-2.367 1.7c-.09.313-1.742 5.066-2.479 7.14H130.203c-.672 0-1.303.267-1.776.752a2.469 2.469 0 00-.709 1.733c0 .653.247 1.268.695 1.731.469.486 1.104.753 1.79.753h1.508l-2.121 5.95c-1.896 4.857-3.173 9.536-3.173 11.633 0 2.251.912 4.115 2.503 5.113.834.523 1.794.788 2.856.788 2.605 0 4.87-1.052 6.926-3.218a21.9 21.9 0 00.258-.276c.457 1.163 1.197 2.055 2.206 2.657.93.556 2.04.837 3.3.837 2.48 0 5.26-1.625 7.657-4.468l.1.055a7.762 7.762 0 003.741.942c3.871 0 6.778-2.708 9.424-8.782a2.416 2.416 0 00-.206-2.319 2.522 2.522 0 00-2.113-1.136zm1.007 2.886c-2.387 5.478-4.89 7.922-8.113 7.922-.245 0-.51-.017-.807-.054a6.276 6.276 0 01-3.018-1.2l-.315-.235-.24.312c-.174.228-.352.446-.531.66-2.132 2.535-4.533 3.988-6.587 3.988-.288 0-.573-.019-.87-.058-2.218-.292-3.468-1.755-3.715-4.349l-.102-1.068-.62.875c-.423.597-.86 1.145-1.302 1.63-1.843 2.027-3.775 2.97-6.081 2.97-.209 0-.429-.017-.673-.053-2.04-.301-3.257-1.953-3.257-4.42 0-1.905 1.268-6.487 3.085-11.141l2.617-7.337.19-.532h-3.535c-.612 0-1.056-.444-1.056-1.056 0-.582.474-1.056 1.056-1.056H134.44l.096-.261c.398-1.086 2.63-7.477 2.74-7.876.069-.202.203-.386.385-.513.177-.125.392-.19.622-.19a1.073 1.073 0 011.07 1.003l-.014-.005-.103.482-.001.011-.002.008c-.106.625-.717 2.405-2.336 6.805l-.198.536h3.753c.583 0 1.056.474 1.056 1.056 0 .612-.444 1.056-1.056 1.056h-4.506l-.09.274c-.215.652-.595 1.715-1.25 3.539l-.148.415c-.425 1.185-.944 2.635-1.568 4.396-2.221 6.283-2.934 8.807-2.934 10.387 0 1.083.372 1.86 1.048 2.184.247.119.5.177.77.177 3.736 0 6.346-4.037 9.115-10.098l.011-.023.008-.025c.767-2.476 1.918-4.954 3.52-7.575 1.984-3.307 4.319-5.239 6.753-5.59a5.74 5.74 0 01.823-.065c3.29.1 5.34 2.292 5.34 5.72 0 3.324-1.688 8.558-4.106 12.728l-.148.256.201.216c.416.446.985.744 1.69.884.344.069.657.1.982.1 2.294 0 4.248-2.1 6.15-6.613a.98.98 0 01.36-.455c.18-.128.391-.199.595-.199.373 0 .716.185.92.494.196.297.227.64.088.963z"/><path class="st0" d="M155.234 22.01c0-2.193-1.258-3.555-3.283-3.555-.291 0-.6.043-.92.128-1.636.436-3.275 2-4.738 4.524-2.81 4.645-4.296 9.219-4.296 13.22 0 1.737.503 2.822 1.494 3.226.408.166.791.166.975.166 1.777 0 3.923-1.638 6.043-4.613l.123-.172-.074-.198c-.51-1.378-.424-3.598-.046-4.949a.947.947 0 01.42-.618c.189-.123.41-.189.639-.189.014 0 .029.004.043.006l.073.01c.298.031.556.172.725.396.085.113.145.24.179.377l.29 1.172.465-1.115c1.182-2.833 1.888-5.756 1.888-7.817zm-2.629 5.763a2.5 2.5 0 00-.59-.18 2.568 2.568 0 00-2.279.725 2.32 2.32 0 00-.612 1.13c-.374 1.35-.514 3.561-.077 5.237-1.532 2.046-3.133 3.375-4.304 3.567l-.07.012c-.07.012-.14.026-.207.026-.389 0-1.04 0-1.04-1.963 0-3.74 1.415-8.059 4.093-12.487 1.438-2.48 3.093-3.956 4.432-3.956.053 0 .103.004.153.007l.045.004c1.099.074 1.656.786 1.656 2.114 0 1.515-.435 3.595-1.2 5.764zM214.313 21.682c1.758-2.215 2.761-4.621 2.76-6.637V14.996c-.168-2.42-1.79-4.095-3.947-4.095-.863 0-1.69.253-2.459.75-1.756 1.138-2.846 3.36-2.846 5.802 0 1.06.193 2.13.59 3.262-.408.432-.82.893-1.31 1.466l-.009.01-.021.026c-.355.474-.552 1.025-.552 1.528 0 .29.043.574.125.838a7.242 7.242 0 00-.174-.007l-.056-.003a1.864 1.864 0 00-.122-.005c-1.48 0-2.842.33-4.05.98-1.815.975-3.184 2.645-3.959 4.828-2.491 5.391-4.24 7.764-5.836 7.9l-.066.007c-.027.003-.054.007-.081.007-.056 0-.14 0-.165-.01.004 0-.116-.135-.116-.922 0-1.076 1.009-4.97 3.224-10.977.337-.897.713-1.931 1.122-3.058.572-1.571 1.22-3.352 1.912-5.174a2.426 2.426 0 00-.276-2.242c-.48-.7-1.254-1.1-2.122-1.1-.657 0-1.305.282-1.776.775a2.37 2.37 0 00-.515.805l-1.179 3.23c-2.178 5.98-3.898 10.704-5.49 13.888-1.343 2.767-2.954 4.447-4.54 4.735-.185.034-.346.05-.492.05-.863 0-1.637-.154-1.637-2.017 0-1.559.429-2.694 3.77-11.529l.068-.182c.683-1.807 1.484-3.925 2.42-6.416a2.47 2.47 0 00-.258-2.282c-.462-.672-1.222-1.058-2.085-1.058-.669 0-1.319.283-1.783.776a2.39 2.39 0 00-.506.8l-.899 2.328c-4.49 11.638-5.697 14.765-5.697 17.563 0 2.864 1.024 4.972 2.96 6.098 1.015.59 2.242.888 3.647.888 1.94 0 3.964-.823 5.699-2.317.084-.072.165-.144.243-.214.392.72.915 1.298 1.559 1.723.814.536 1.794.808 2.912.808 2.54 0 4.672-1.28 6.71-4.03l.12-.163a9.397 9.397 0 003.533 3.126 9.79 9.79 0 004.442 1.067c6.518 0 11.152-4.495 11.271-10.93-.05-3.44-1.168-5.446-3.198-9.087-.28-.501-.565-1.013-.865-1.56zm-7.208 20.148c-.225 0-.47-.012-.748-.036-3.03-.27-5.623-2.138-6.767-4.875l-.3-.718-.407.662c-.294.477-.598.935-.905 1.36-1.802 2.495-3.553 3.607-5.678 3.607-.25 0-.502-.019-.748-.057-1.546-.24-2.54-1.262-2.95-3.038l-.184-.794-.514.633c-.34.42-.724.815-1.173 1.21-1.5 1.32-3.22 2.046-4.844 2.046-.268 0-.542-.016-.861-.051-2.824-.312-4.317-2.216-4.317-5.506 0-2.532 1.186-5.606 5.6-17.045l.903-2.341a1.024 1.024 0 01.953-.652c.385 0 .716.16.907.437.19.276.227.639.1.969-.934 2.484-1.732 4.594-2.413 6.396l-.076.202c-3.422 9.051-3.862 10.214-3.862 12.034 0 1.886.723 3.009 2.148 3.337.32.074.612.109.918.109 2.325 0 4.566-1.982 6.312-5.58 1.626-3.252 3.359-8.01 5.553-14.032l1.175-3.222a.992.992 0 01.368-.46c.175-.123.383-.19.584-.19.39 0 .734.175.944.48.19.278.235.623.118.926-.695 1.833-1.34 3.605-1.91 5.169a330.904 330.904 0 01-1.128 3.075c-2.044 5.543-3.313 9.938-3.313 11.473 0 1.123.248 1.8.78 2.13.25.156.554.23.93.23 2.365 0 4.345-2.385 7.306-8.803 1.001-2.839 3.047-4.553 5.775-4.862.332-.038.63-.056.911-.056 2.717 0 5.016 2.422 5.124 5.398 0 .604-.444 1.053-1.056 1.053-.225 0-.437-.063-.612-.182a1.033 1.033 0 01-.444-.874c-.108-1.82-1.434-3.283-2.958-3.283-.373 0-.75.043-1.117.128-2.343.542-3.921 2.746-4.118 5.753 0 2.931 2.187 5.307 5.199 5.675.3.037.552.054.795.054 4.517 0 7.623-2.997 7.73-7.458-.054-2.43-.953-4.126-3.544-8.679l-.268-.472-.37.398a11.83 11.83 0 00-.794.946 1.142 1.142 0 01-.177.172 1.017 1.017 0 01-.624.229c-.27 0-.5-.062-.665-.18-.041-.029-.068-.045-.09-.067l-.016-.016-.018-.015c-.192-.152-.321-.486-.321-.832 0-.195.097-.446.254-.655a33.883 33.883 0 011.689-1.85l.185-.187-.1-.244c-.489-1.194-.727-2.291-.727-3.356 0-2.417 1.303-4.527 3.097-5.017.258-.07.52-.106.78-.106 1.394 0 2.406 1.102 2.52 2.743 0 1.834-1.048 4.115-2.874 6.23l-.18.209.132.242c.43.79.826 1.503 1.191 2.157 1.932 3.465 2.988 5.359 3.033 8.404-.104 5.597-4.151 9.515-9.843 9.515zm3.091-15.846a2.915 2.915 0 00.576-.419c2.027 3.61 2.594 4.921 2.635 6.71-.07 2.845-1.663 4.997-4.262 5.738a7.439 7.439 0 01-2.04.277c-2.55 0-4.555-1.87-4.566-4.256.18-2.636 1.62-4.409 3.668-4.488l.076-.005.063-.003c.75 0 1.464.888 1.53 1.9.005.612.247 1.212.68 1.668.47.497 1.112.77 1.804.77 1.416 0 2.484-1.072 2.484-2.496-.076-2.121-1.073-4.119-2.648-5.396z"/><path class="st0" d="M213.224 14.499l-.086-.043-.096.001c-.211.002-.542.197-.843.497-.692.693-.838 1.712-.838 2.445 0 .34.033.67.104 1.038l.192.995.538-.858c.386-.617 1.285-2.192 1.285-3.507 0-.296-.084-.482-.256-.568zM224.894 37.26c-.723 0-1.412.252-1.993.728a3.247 3.247 0 00-1.197 2.515c0 .956.422 1.851 1.157 2.457.581.48 1.284.733 2.033.733 1.789 0 3.244-1.43 3.244-3.19 0-1.758-1.486-3.243-3.244-3.243zm0 5.004a1.744 1.744 0 01-1.761-1.761c0-.733.426-1.391 1.085-1.675a1.7 1.7 0 01.676-.14 1.84 1.84 0 011.815 1.815c0 .971-.814 1.761-1.815 1.761zM240.157 2.16A2.507 2.507 0 00237.91.746a2.45 2.45 0 00-1.12.271c-.232.12-.45.288-.648.5-.265.282-.45.6-.547.942L225.09 32.243a2.502 2.502 0 00.055 1.863 2.4 2.4 0 00.454.678 2.417 2.417 0 001.788.786c1.046 0 1.991-.667 2.352-1.66l10.525-29.837a2.438 2.438 0 00-.107-1.914zm-1.24 1.434l-10.522 29.831a1.083 1.083 0 01-1.008.717 1.02 1.02 0 01-.35-.062 1.018 1.018 0 01-.246-.137.986.986 0 01-.336-.408 1.09 1.09 0 01-.019-.813l10.522-29.83a.938.938 0 01.357-.517c.042-.03.084-.063.132-.088a1.015 1.015 0 01.813-.05c.272.099.489.293.613.548.125.256.14.544.044.81z"/></g></svg>