<svg version="1.1" id="Layer_1" xmlns="http://www.w3.org/2000/svg" x="0" y="0" viewBox="0 0 304.47 158.276" xml:space="preserve"><style>.st0{fill:#c95e28}.st1{fill:#fbf19c}.st2{fill:#048bbf}.st3{fill:#7ae5af}.st4{fill:#8e1638}.st6{fill:#dd506e}</style><path class="st0" d="M51.334 43.191c-1.246 0-2.342-.503-3.169-1.456L29.63 20.388v12.036c0 .423.051 1.803.72 1.803 2.125 0 3.728 1.603 3.728 3.728v1.508c0 2.126-1.603 3.728-3.729 3.728H17.956c-2.126 0-3.729-1.602-3.729-3.728v-1.508c0-2.125 1.603-3.728 3.729-3.728.623 0 .671-1.38.671-1.803V8.52a2.566 2.566 0 00-.177-.005c-2.126 0-3.729-1.603-3.729-3.729V3.28c0-2.123 1.598-3.725 3.718-3.725h8.712a4.1 4.1 0 013.161 1.45l17.216 19.673V10.308c0-.423-.052-1.804-.72-1.804-2.125 0-3.728-1.602-3.728-3.728V3.268c0-2.126 1.603-3.729 3.729-3.729h12.393c2.126 0 3.728 1.603 3.728 3.73v1.507c0 2.126-1.602 3.728-3.728 3.728-.233 0-.282.05-.298.066-.137.14-.392.672-.374 1.685v29.208c0 2.126-1.602 3.728-3.728 3.728h-3.468z"/><path class="st0" d="M51.334 43.191c-1.246 0-2.342-.503-3.169-1.456L29.63 20.388v12.036c0 .423.051 1.803.72 1.803 2.125 0 3.728 1.603 3.728 3.728v1.508c0 2.126-1.603 3.728-3.729 3.728H17.956c-2.126 0-3.729-1.602-3.729-3.728v-1.508c0-2.125 1.603-3.728 3.729-3.728.623 0 .671-1.38.671-1.803V8.52a2.566 2.566 0 00-.177-.005c-2.126 0-3.729-1.603-3.729-3.729V3.28c0-2.123 1.598-3.725 3.718-3.725h8.712a4.1 4.1 0 013.161 1.45l17.216 19.673V10.308c0-.423-.052-1.804-.72-1.804-2.125 0-3.728-1.602-3.728-3.728V3.268c0-2.126 1.603-3.729 3.729-3.729h12.393c2.126 0 3.728 1.603 3.728 3.73v1.507c0 2.126-1.602 3.728-3.728 3.728-.233 0-.282.05-.298.066-.137.14-.392.672-.374 1.685v29.208c0 2.126-1.602 3.728-3.728 3.728h-3.468z"/><path class="st0" d="M73.45 43.794c-9.536 0-16.457-6.885-16.457-16.372 0-10.968 7.497-15.877 14.928-15.877 8.573 0 13.314 7.498 13.314 12.681 0 1.501-.821 2.756-2.197 3.357l-11.336 4.955c.754.649 1.766 1.13 3.11 1.13 1.094 0 2.706-.638 3.944-2.43a3.545 3.545 0 012.879-1.503c1.128 0 1.678.322 3.498 1.39a3.384 3.384 0 011.686 2.95c0 1.03-.437 1.846-.67 2.284-2.605 4.865-6.996 7.435-12.7 7.435zm-2.756-22.32c-.927 0-1.333 1.063-1.473 1.994l2.243-1.13c-.233-.572-.555-.864-.77-.864z"/><path class="st0" d="M73.45 43.794c-9.536 0-16.457-6.885-16.457-16.372 0-10.968 7.497-15.877 14.928-15.877 8.573 0 13.314 7.498 13.314 12.681 0 1.501-.821 2.756-2.197 3.357l-11.336 4.955c.754.649 1.766 1.13 3.11 1.13 1.094 0 2.706-.638 3.944-2.43a3.545 3.545 0 012.879-1.503c1.128 0 1.678.322 3.498 1.39a3.384 3.384 0 011.686 2.95c0 1.03-.437 1.846-.67 2.284-2.605 4.865-6.996 7.435-12.7 7.435zm-2.756-22.32c-.927 0-1.333 1.063-1.473 1.994l2.243-1.13c-.233-.572-.555-.864-.77-.864z"/><path class="st0" d="M99.029 43.794c-9.535 0-16.456-6.885-16.456-16.372 0-10.968 7.497-15.877 14.927-15.877 8.573 0 13.314 7.498 13.314 12.681 0 1.501-.821 2.756-2.197 3.357l-11.336 4.955c.754.649 1.766 1.13 3.11 1.13 1.095 0 2.706-.638 3.944-2.429a3.544 3.544 0 012.879-1.504c1.128 0 1.678.322 3.499 1.39a3.384 3.384 0 011.685 2.95c0 1.03-.436 1.846-.67 2.284-2.605 4.865-6.996 7.435-12.7 7.435zm-2.755-22.32c-.928 0-1.334 1.063-1.474 1.994l2.243-1.13c-.233-.572-.555-.864-.77-.864z"/><path class="st0" d="M99.029 43.794c-9.535 0-16.456-6.885-16.456-16.372 0-10.968 7.497-15.877 14.927-15.877 8.573 0 13.314 7.498 13.314 12.681 0 1.501-.821 2.756-2.197 3.357l-11.336 4.955c.754.649 1.766 1.13 3.11 1.13 1.095 0 2.706-.638 3.944-2.429a3.544 3.544 0 012.879-1.504c1.128 0 1.678.322 3.499 1.39a3.384 3.384 0 011.685 2.95c0 1.03-.436 1.846-.67 2.284-2.605 4.865-6.996 7.435-12.7 7.435zm-2.755-22.32c-.928 0-1.334 1.063-1.474 1.994l2.243-1.13c-.233-.572-.555-.864-.77-.864z"/><path class="st0" d="M129.432 43.845a3.112 3.112 0 01-2.23-.969c-1.396.603-3.04.969-4.94.969-5.672 0-14.11-4.323-14.11-16.232 0-11.918 7.923-16.147 14.709-16.147 1.21 0 2.38.15 3.491.444-.054-.637-.14-.974-.223-1.148l-.039-.005c-1.965-.216-3.287-1.711-3.24-3.652V5.447c0-1.172.479-2.729 2.763-3.486 5.098-1.692 7.668-3.544 8.636-4.24.6-.448 1.254-.677 1.945-.681h.124a3.02 3.02 0 013.056 3.056v30.822c.033 1.25.19 1.761.274 1.948l.035.004c1.966.215 3.288 1.71 3.242 3.652v1.658c0 2.074-1.59 3.638-3.7 3.638-4.247 0-5.88.718-7.948 1.629l-.037.016a3.996 3.996 0 01-1.69.382h-.118zm-5.66-22.597c-1.353 0-3.206 0-3.206 4.739 0 3.72 1.228 7.474 3.972 7.474 1.044 0 1.641-1.19 1.868-1.761v-7.55c-.164-1.153-.727-2.902-2.633-2.902z"/><path class="st0" d="M129.432 43.845a3.112 3.112 0 01-2.23-.969c-1.396.603-3.04.969-4.94.969-5.672 0-14.11-4.323-14.11-16.232 0-11.918 7.923-16.147 14.709-16.147 1.21 0 2.38.15 3.491.444-.054-.637-.14-.974-.223-1.148l-.039-.005c-1.965-.216-3.287-1.711-3.24-3.652V5.447c0-1.172.479-2.729 2.763-3.486 5.098-1.692 7.668-3.544 8.636-4.24.6-.448 1.254-.677 1.945-.681h.124a3.02 3.02 0 013.056 3.056v30.822c.033 1.25.19 1.761.274 1.948l.035.004c1.966.215 3.288 1.71 3.242 3.652v1.658c0 2.074-1.59 3.638-3.7 3.638-4.247 0-5.88.718-7.948 1.629l-.037.016a3.996 3.996 0 01-1.69.382h-.118zm-5.66-22.597c-1.353 0-3.206 0-3.206 4.739 0 3.72 1.228 7.474 3.972 7.474 1.044 0 1.641-1.19 1.868-1.761v-7.55c-.164-1.153-.727-2.902-2.633-2.902zM180.706 43.191c-2.126 0-3.728-1.602-3.728-3.728V37.95c0-2.126 1.602-3.729 3.728-3.729h.251a.833.833 0 00.238-.043c-.01-.006.267-.413.267-1.754v-6.546h-11.214v6.546c0 1.266.247 1.7.295 1.772h.003c.018 0 .085.016.206.025h.25c2.126 0 3.73 1.603 3.73 3.729v1.513c0 2.126-1.604 3.728-3.73 3.728h-15.451c-2.126 0-3.729-1.602-3.729-3.728V37.95c0-2.126 1.603-3.729 3.729-3.729h.213a.81.81 0 00.237-.043c-.01-.007.267-.414.267-1.754V10.32c0-1.267-.248-1.701-.295-1.772h-.004c-.018 0-.084-.016-.204-.026h-.214c-2.126 0-3.729-1.602-3.729-3.728V3.28c0-2.125 1.603-3.728 3.729-3.728h15.451c2.126 0 3.73 1.603 3.73 3.728v1.514c0 2.126-1.604 3.728-3.73 3.728h-.25a.833.833 0 00-.238.044c.01.006-.266.414-.266 1.754v5.598h11.214V10.32c0-1.268-.248-1.701-.296-1.772h-.003c-.017 0-.084-.016-.205-.026h-.252c-2.126 0-3.728-1.602-3.728-3.728V3.28c0-2.125 1.602-3.728 3.728-3.728h15.452c2.126 0 3.729 1.603 3.729 3.728v1.514c0 2.126-1.603 3.728-3.729 3.728h-.213a.81.81 0 00-.237.044c.01.006-.266.414-.266 1.754v22.104c0 1.267.248 1.7.294 1.772h.003c.018 0 .085.016.206.025h.213c2.126 0 3.729 1.603 3.729 3.729v1.513c0 2.126-1.603 3.728-3.729 3.728h-15.452z"/><path class="st0" d="M180.706 43.191c-2.126 0-3.728-1.602-3.728-3.728V37.95c0-2.126 1.602-3.729 3.728-3.729h.251a.833.833 0 00.238-.043c-.01-.006.267-.413.267-1.754v-6.546h-11.214v6.546c0 1.266.247 1.7.295 1.772h.003c.018 0 .085.016.206.025h.25c2.126 0 3.73 1.603 3.73 3.729v1.513c0 2.126-1.604 3.728-3.73 3.728h-15.451c-2.126 0-3.729-1.602-3.729-3.728V37.95c0-2.126 1.603-3.729 3.729-3.729h.213a.81.81 0 00.237-.043c-.01-.007.267-.414.267-1.754V10.32c0-1.267-.248-1.701-.295-1.772h-.004c-.018 0-.084-.016-.204-.026h-.214c-2.126 0-3.729-1.602-3.729-3.728V3.28c0-2.125 1.603-3.728 3.729-3.728h15.451c2.126 0 3.73 1.603 3.73 3.728v1.514c0 2.126-1.604 3.728-3.73 3.728h-.25a.833.833 0 00-.238.044c.01.006-.266.414-.266 1.754v5.598h11.214V10.32c0-1.268-.248-1.701-.296-1.772h-.003c-.017 0-.084-.016-.205-.026h-.252c-2.126 0-3.728-1.602-3.728-3.728V3.28c0-2.125 1.602-3.728 3.728-3.728h15.452c2.126 0 3.729 1.603 3.729 3.728v1.514c0 2.126-1.603 3.728-3.729 3.728h-.213a.81.81 0 00-.237.044c.01.006-.266.414-.266 1.754v22.104c0 1.267.248 1.7.294 1.772h.003c.018 0 .085.016.206.025h.213c2.126 0 3.729 1.603 3.729 3.729v1.513c0 2.126-1.603 3.728-3.729 3.728h-15.452z"/><g><path class="st0" d="M211.397 43.794c-9.536 0-16.456-6.885-16.456-16.372 0-10.968 7.497-15.877 14.927-15.877 8.573 0 13.314 7.498 13.314 12.681 0 1.501-.821 2.756-2.196 3.357l-11.336 4.955c.753.649 1.765 1.13 3.108 1.13 1.096 0 2.707-.638 3.944-2.429a3.549 3.549 0 012.88-1.504c1.128 0 1.678.322 3.5 1.39a3.39 3.39 0 011.684 2.95c0 1.034-.454 1.88-.673 2.288-2.602 4.86-6.992 7.431-12.696 7.431zm-2.755-22.32c-.927 0-1.333 1.063-1.473 1.994l2.242-1.13c-.233-.572-.554-.864-.77-.864z"/><path class="st0" d="M211.397 43.794c-9.536 0-16.456-6.885-16.456-16.372 0-10.968 7.497-15.877 14.927-15.877 8.573 0 13.314 7.498 13.314 12.681 0 1.501-.821 2.756-2.196 3.357l-11.336 4.955c.753.649 1.765 1.13 3.108 1.13 1.096 0 2.707-.638 3.944-2.429a3.549 3.549 0 012.88-1.504c1.128 0 1.678.322 3.5 1.39a3.39 3.39 0 011.684 2.95c0 1.034-.454 1.88-.673 2.288-2.602 4.86-6.992 7.431-12.696 7.431zm-2.755-22.32c-.927 0-1.333 1.063-1.473 1.994l2.242-1.13c-.233-.572-.554-.864-.77-.864z"/></g><g><path class="st0" d="M223.796 43.191c-2.126 0-3.728-1.602-3.728-3.728v-1.508c0-2.125 1.602-3.728 3.728-3.728.233 0 .282-.05.298-.066.137-.14.392-.67.374-1.684l-.001-18.895c0-1.799-.143-2.532-.281-2.82a.57.57 0 00-.038-.005c-1.967-.215-3.29-1.712-3.242-3.654V5.447c0-1.173.48-2.73 2.768-3.487 5.093-1.69 7.665-3.543 8.634-4.24.59-.444 1.248-.676 1.943-.68h.124c1.096 0 2.055.534 2.645 1.466.3.476.46 1.027.46 1.59v32.328c0 .423.051 1.803.72 1.803 2.125 0 3.728 1.603 3.728 3.728v1.508c0 2.126-1.603 3.728-3.728 3.728h-14.404z"/><path class="st0" d="M223.796 43.191c-2.126 0-3.728-1.602-3.728-3.728v-1.508c0-2.125 1.602-3.728 3.728-3.728.233 0 .282-.05.298-.066.137-.14.392-.67.374-1.684l-.001-18.895c0-1.799-.143-2.532-.281-2.82a.57.57 0 00-.038-.005c-1.967-.215-3.29-1.712-3.242-3.654V5.447c0-1.173.48-2.73 2.768-3.487 5.093-1.69 7.665-3.543 8.634-4.24.59-.444 1.248-.676 1.943-.68h.124c1.096 0 2.055.534 2.645 1.466.3.476.46 1.027.46 1.59v32.328c0 .423.051 1.803.72 1.803 2.125 0 3.728 1.603 3.728 3.728v1.508c0 2.126-1.603 3.728-3.728 3.728h-14.404z"/></g><g><path class="st0" d="M239.726 53.242c-2.126 0-3.729-1.602-3.729-3.728v-1.508c0-2.16 1.583-3.728 3.765-3.728.228 0 .276-.05.295-.067.137-.14.394-.673.377-1.68l.009-1.038V25.205c0-1.799-.143-2.532-.28-2.82l-.04-.006c-1.965-.217-3.286-1.711-3.242-3.65V17.07c0-2.074 1.598-3.638 3.717-3.638 4.187 0 5.81-.708 7.863-1.604l.1-.043a3.997 3.997 0 011.683-.38h.118c.83 0 1.67.365 2.234.973 1.397-.605 3.045-.972 4.948-.972 5.672 0 14.11 4.322 14.11 16.232 0 11.925-7.923 16.156-14.709 16.156-1.206 0-2.372-.15-3.479-.441.084.468.264.925.648.925 2.126 0 3.73 1.603 3.73 3.728v1.508c0 2.126-1.604 3.728-3.73 3.728h-14.388zm13.67-22.146c.191 1.289.949 3.482 2.638 3.482 1.041 0 3.206 0 3.206-5.315 0-3.72-1.228-7.474-3.972-7.474-1.052 0-1.605.574-1.871 1v8.307z"/><path class="st0" d="M239.726 53.242c-2.126 0-3.729-1.602-3.729-3.728v-1.508c0-2.16 1.583-3.728 3.765-3.728.228 0 .276-.05.295-.067.137-.14.394-.673.377-1.68l.009-1.038V25.205c0-1.799-.143-2.532-.28-2.82l-.04-.006c-1.965-.217-3.286-1.711-3.242-3.65V17.07c0-2.074 1.598-3.638 3.717-3.638 4.187 0 5.81-.708 7.863-1.604l.1-.043a3.997 3.997 0 011.683-.38h.118c.83 0 1.67.365 2.234.973 1.397-.605 3.045-.972 4.948-.972 5.672 0 14.11 4.322 14.11 16.232 0 11.925-7.923 16.156-14.709 16.156-1.206 0-2.372-.15-3.479-.441.084.468.264.925.648.925 2.126 0 3.73 1.603 3.73 3.728v1.508c0 2.126-1.604 3.728-3.73 3.728h-14.388zm13.67-22.146c.191 1.289.949 3.482 2.638 3.482 1.041 0 3.206 0 3.206-5.315 0-3.72-1.228-7.474-3.972-7.474-1.052 0-1.605.574-1.871 1v8.307z"/></g><g><path class="st0" d="M279.098 44.128c-1.016 0-2.542-.313-4.048-1.804l-1.975-1.975c-1.507-1.509-1.824-3.04-1.824-4.057s.317-2.548 1.822-4.057l1.96-1.972c.24-.238.479-.445.717-.626-1.1-.593-1.828-1.733-1.853-3.102-.002-.078-.013-.162-.026-.302-.043-.486-.123-1.392-.223-3.48-.245-5.025 1.989-7.857 4.083-9.883l-5.2-1.176c-1.662-.374-2.761-1.27-3.359-2.737-.497-1.222-.749-2.441-.749-3.624 0-4.814 5.097-8.308 12.12-8.308 10.451 0 14.16 5.735 14.16 10.646 0 6.104-3.876 8.532-6.707 10.306-2.521 1.58-3.635 2.373-3.635 4.63 0 2.484-.028 3.252-.044 3.712l-.008.221c-.026 1.37-.758 2.513-1.865 3.103.237.182.475.39.712.626l1.964 1.964c1.508 1.51 1.824 3.04 1.824 4.059s-.316 2.55-1.822 4.056l-1.966 1.966c-1.517 1.5-3.044 1.814-4.058 1.814zm1.754-38.396c.013.328.118.943.6 1.874.033.064.064.128.093.193.003-.072.005-.144.005-.219 0-1.66-.375-1.83-.698-1.848z"/><path class="st0" d="M279.098 44.128c-1.016 0-2.542-.313-4.048-1.804l-1.975-1.975c-1.507-1.509-1.824-3.04-1.824-4.057s.317-2.548 1.822-4.057l1.96-1.972c.24-.238.479-.445.717-.626-1.1-.593-1.828-1.733-1.853-3.102-.002-.078-.013-.162-.026-.302-.043-.486-.123-1.392-.223-3.48-.245-5.025 1.989-7.857 4.083-9.883l-5.2-1.176c-1.662-.374-2.761-1.27-3.359-2.737-.497-1.222-.749-2.441-.749-3.624 0-4.814 5.097-8.308 12.12-8.308 10.451 0 14.16 5.735 14.16 10.646 0 6.104-3.876 8.532-6.707 10.306-2.521 1.58-3.635 2.373-3.635 4.63 0 2.484-.028 3.252-.044 3.712l-.008.221c-.026 1.37-.758 2.513-1.865 3.103.237.182.475.39.712.626l1.964 1.964c1.508 1.51 1.824 3.04 1.824 4.059s-.316 2.55-1.822 4.056l-1.966 1.966c-1.517 1.5-3.044 1.814-4.058 1.814zm1.754-38.396c.013.328.118.943.6 1.874.033.064.064.128.093.193.003-.072.005-.144.005-.219 0-1.66-.375-1.83-.698-1.848z"/></g><g><path class="st1" d="M59.202 2.514c.49 0 .754.265.754.754v1.508c0 .49-.264.754-.754.754-2.457 0-3.695 2.047-3.646 4.778v29.155c0 .49-.264.754-.754.754h-3.468c-.396 0-.662-.132-.922-.432l-23.757-27.36v19.999c0 2.73 1.237 4.777 3.694 4.777.49 0 .754.264.754.755v1.507c0 .49-.264.754-.754.754H17.955c-.49 0-.753-.264-.753-.754v-1.507c0-.49.264-.755.753-.755 2.458 0 3.647-2.047 3.647-4.777V6.804c-.975-.852-1.888-1.264-3.152-1.264-.49 0-.754-.264-.754-.753V3.279c0-.49.264-.754.754-.75h8.7c.397 0 .661.134.923.433l22.43 25.631V10.308c0-2.73-1.238-4.778-3.694-4.778-.49 0-.754-.264-.754-.754V3.268c0-.49.263-.754.754-.754h12.393zM67.26 31.233c1.146 2.78 3.64 5.41 7.551 5.41 2.124 0 4.634-1.17 6.392-3.713a.559.559 0 01.432-.22c.304 0 .392.041 1.995.98a.416.416 0 01.214.386c0 .272-.173.608-.32.88-1.877 3.509-4.985 5.864-10.074 5.864-8.337 0-13.482-6.123-13.482-13.398 0-9.322 6.033-12.902 11.953-12.902 6.647 0 10.34 5.916 10.34 9.706 0 .285-.089.49-.414.632L67.26 31.233zm7.471-7.212c0-3.193-1.726-5.522-4.037-5.522-2.762 0-4.509 2.495-4.509 5.758 0 .99.064 2.648.47 3.835l8.076-4.07zM92.839 31.233c1.146 2.78 3.64 5.41 7.551 5.41 2.124 0 4.634-1.17 6.392-3.713a.559.559 0 01.432-.22c.305 0 .392.041 1.995.98a.416.416 0 01.214.386c0 .272-.173.608-.319.88-1.878 3.509-4.986 5.864-10.075 5.864-8.337 0-13.482-6.123-13.482-13.398 0-9.322 6.033-12.902 11.953-12.902 6.647 0 10.34 5.916 10.34 9.706 0 .285-.089.49-.414.632L92.84 31.233zm7.472-7.212c0-3.193-1.727-5.522-4.037-5.522-2.763 0-4.51 2.495-4.51 5.758 0 .99.065 2.648.47 3.835l8.077-4.07zM136.4 30.918c.062 2.393.487 4.64 2.96 4.91.497.054.605.304.59.648v1.704c0 .417-.229.663-.726.663-4.943-.001-6.994.935-9.249 1.926-.088.05-.278.1-.425.1h-.118c-.064 0-.082-.05-.07-.15l.577-4.479c-.546 1.345-2.509 4.63-7.677 4.63-4.532 0-11.135-3.536-11.135-13.258 0-9.308 5.66-13.172 11.734-13.172 2.536 0 4.753.812 6.524 2.346v-3.204c0-2.693-.198-5.48-2.972-5.783-.495-.054-.604-.303-.59-.648V5.447c0-.417.255-.506.727-.663 5.295-1.757 8.088-3.678 9.438-4.65.078-.056.146-.119.224-.12h.118c.064 0 .07.006.07.081v30.823zm-7.02-6.96c-.368-3.122-2.266-5.684-5.608-5.684-4.861 0-6.18 3.554-6.18 7.713 0 6.44 2.83 10.448 6.946 10.448 3.728 0 4.842-4.247 4.842-4.247v-8.23zM192.467 32.424c0 2.645.833 4.648 3.39 4.772h.301c.49 0 .754.264.754.753v1.514c0 .49-.264.754-.754.754h-15.452c-.49 0-.754-.264-.754-.754V37.95c0-.49.264-.753.754-.753h.339c2.558-.124 3.391-2.127 3.391-4.772v-9.521h-17.163v9.52c0 2.646.833 4.65 3.391 4.773h.339c.49 0 .754.264.754.753v1.514c0 .49-.264.754-.755.754H155.55c-.49 0-.753-.264-.753-.754V37.95c0-.49.264-.753.753-.753h.301c2.558-.124 3.391-2.127 3.391-4.772V10.32c0-2.645-.833-4.65-3.39-4.772h-.302c-.49 0-.753-.264-.753-.754V3.28c0-.49.264-.753.753-.753h15.452c.49 0 .755.264.755.753v1.514c0 .49-.264.754-.755.754h-.338c-2.558.123-3.39 2.127-3.39 4.772v8.572h17.162V10.32c0-2.645-.833-4.65-3.391-4.772h-.339c-.49 0-.754-.264-.754-.754V3.28c0-.49.264-.753.754-.753h15.452c.49 0 .754.264.754.753v1.514c0 .49-.264.754-.754.754h-.3c-2.558.123-3.391 2.127-3.391 4.772v22.104zM205.207 31.233c1.146 2.78 3.64 5.41 7.551 5.41 2.124 0 4.634-1.17 6.392-3.713a.559.559 0 01.432-.22c.305 0 .392.041 1.995.98a.416.416 0 01.214.386c0 .272-.173.608-.319.88-1.878 3.509-4.986 5.864-10.075 5.864-8.337 0-13.482-6.123-13.482-13.398 0-9.322 6.034-12.902 11.953-12.902 6.647 0 10.34 5.916 10.34 9.706 0 .285-.088.49-.414.632l-14.587 6.375zm7.472-7.212c0-3.193-1.727-5.522-4.037-5.522-2.763 0-4.51 2.495-4.51 5.758 0 .99.065 2.648.47 3.835l8.077-4.07zM234.505 32.424c0 2.73 1.238 4.777 3.695 4.777.49 0 .754.264.754.755v1.507c0 .49-.264.754-.754.754h-14.404c-.49 0-.754-.264-.754-.754v-1.507c0-.49.264-.755.754-.755 2.457 0 3.695-2.047 3.646-4.777V13.582c0-2.692-.197-5.48-2.971-5.783-.496-.054-.605-.303-.59-.648V5.447c0-.417.254-.506.726-.663 5.296-1.757 8.089-3.678 9.439-4.65.078-.056.146-.119.224-.12h.118c.065 0 .069.006.117.081v32.329zM249.868 19.01c.546-1.345 2.509-4.63 7.676-4.63 4.532 0 11.136 3.536 11.136 13.258 0 9.308-5.66 13.182-11.735 13.182-2.536 0-4.753-.814-6.525-2.35v4.008c0 2.714 1.238 4.774 3.695 4.774.49 0 .754.252.754.754v1.508c0 .502-.264.753-.754.753h-14.39c-.49 0-.753-.25-.753-.753v-1.508c0-.502.263-.754.79-.754 2.456 0 3.694-2.06 3.645-4.774l.01-.954V25.206c.001-2.694-.197-5.48-2.97-5.784-.497-.054-.606-.304-.591-.648V17.07c0-.422.235-.663.741-.663 4.933 0 6.97-.944 9.222-1.926.089-.05.278-.1.425-.1h.118c.065 0 .082.05.07.15l-.564 4.479zm.554 12.281c.372 3.123 2.271 6.262 5.612 6.262 4.862 0 6.181-4.131 6.181-8.29 0-6.44-2.83-10.448-6.947-10.448-3.728 0-4.842 3.31-4.846 3.31v9.166zM273.187 8.793c-.747-.168-1.04-.418-1.26-.958-.352-.864-.53-1.707-.53-2.501 0-3.026 3.812-5.334 9.145-5.334 7.814 0 11.187 3.509 11.187 7.671 0 8.756-10.343 6.79-10.343 14.936 0 3.02-.042 3.45-.05 3.871-.009.41-.253.623-.662.623h-3.142c-.41 0-.654-.214-.662-.623-.009-.42-.105-.853-.252-3.87-.41-8.475 7.907-8.33 7.907-15.028 0-3.97-2.098-4.824-3.781-4.824-1.246 0-2.87 1.048-2.87 2.907 0 .916.273 2.028.935 3.309.093.18.142.38.142.552 0 .307-.154.537-.493.461l-5.27-1.192zm3.957 23.566c.633-.627 1.291-.941 1.948-.941.662 0 1.324.317 1.96.955l1.966 1.964c.634.635.952 1.295.952 1.955 0 .66-.318 1.319-.952 1.954l-1.965 1.965c-.636.628-1.295.942-1.955.942-.66 0-1.32-.314-1.954-.942l-1.965-1.965c-.635-.635-.953-1.294-.953-1.954 0-.66.318-1.32.953-1.955l1.965-1.978z"/></g><g><path class="st2" d="M37.52 108.99a4.038 4.038 0 01-2.437-.834H5.362c-2.365 0-4.148-1.784-4.148-4.149v-1.802c0-2.365 1.783-4.148 4.148-4.148.632 0 1.172 0 1.172-2.465V69.181c0-2.466-.54-2.466-1.112-2.466-2.425 0-4.208-1.783-4.208-4.148v-1.802c0-2.374 1.783-4.163 4.148-4.163H23.59c2.435 0 4.342 1.829 4.342 4.163v1.802c0 2.597-2.505 4.148-4.926 4.148h-.377v28.216c0 2.339.517 2.444.955 2.462h2.26c3.436 0 6.99 0 11.537-7.472l.164-.28c.739-1.317 2.074-2.131 3.545-2.131.74 0 1.463.2 2.15.596l1.94 1.143c1.308.756 2.103 2.082 2.103 3.536 0 .694-.175 1.372-.522 2.016l-5.584 11.798c-.66 1.457-2.07 2.39-3.657 2.39z"/><path class="st2" d="M37.52 108.99a4.038 4.038 0 01-2.437-.834H5.362c-2.365 0-4.148-1.784-4.148-4.149v-1.802c0-2.365 1.783-4.148 4.148-4.148.632 0 1.172 0 1.172-2.465V69.181c0-2.466-.54-2.466-1.112-2.466-2.425 0-4.208-1.783-4.208-4.148v-1.802c0-2.374 1.783-4.163 4.148-4.163H23.59c2.435 0 4.342 1.829 4.342 4.163v1.802c0 2.597-2.505 4.148-4.926 4.148h-.377v28.216c0 2.339.517 2.444.955 2.462h2.26c3.436 0 6.99 0 11.537-7.472l.164-.28c.739-1.317 2.074-2.131 3.545-2.131.74 0 1.463.2 2.15.596l1.94 1.143c1.308.756 2.103 2.082 2.103 3.536 0 .694-.175 1.372-.522 2.016l-5.584 11.798c-.66 1.457-2.07 2.39-3.657 2.39z"/><path class="st2" d="M62.876 108.858c-11.221 0-19.365-8.102-19.365-19.265 0-13.782 9.447-18.671 17.537-18.671 10.05 0 15.608 8.781 15.608 14.85 0 1.67-.913 3.064-2.442 3.732L60.246 95.61c.967.962 2.345 1.761 4.257 1.761 1.388 0 3.423-.798 4.97-3.037a3.923 3.923 0 013.188-1.665c1.265 0 1.85.343 4.027 1.618a3.742 3.742 0 011.861 3.262c0 1.02-.37 1.848-.768 2.59-3.052 5.703-8.208 8.72-14.905 8.72zm-3.294-26.684c-1.53 0-2.046 1.868-2.13 3.224l3.43-1.73c-.307-.927-.821-1.494-1.3-1.494z"/><path class="st2" d="M62.876 108.858c-11.221 0-19.365-8.102-19.365-19.265 0-13.782 9.447-18.671 17.537-18.671 10.05 0 15.608 8.781 15.608 14.85 0 1.67-.913 3.064-2.442 3.732L60.246 95.61c.967.962 2.345 1.761 4.257 1.761 1.388 0 3.423-.798 4.97-3.037a3.923 3.923 0 013.188-1.665c1.265 0 1.85.343 4.027 1.618a3.742 3.742 0 011.861 3.262c0 1.02-.37 1.848-.768 2.59-3.052 5.703-8.208 8.72-14.905 8.72zm-3.294-26.684c-1.53 0-2.046 1.868-2.13 3.224l3.43-1.73c-.307-.927-.821-1.494-1.3-1.494z"/><path class="st2" d="M87.401 108.9c-2.396 0-10.213-.9-10.213-12.487V85.281c0-.988 0-3.04-.358-3.493h-.001c-.019 0-.232-.086-.752-.086-2.365 0-4.148-1.784-4.148-4.148V75.75c0-2.364 1.783-4.148 4.148-4.148h1.111v-.771c0-1.73.815-3.168 2.235-3.945 1.964-1.072 4.787-2.834 6.834-4.575.71-.606 1.51-.915 2.372-.915 1.847 0 3.297 1.303 3.464 3.032l.015.156v7.018h4.793c2.365 0 4.149 1.784 4.149 4.149v2.583c0 2.365-1.784 4.149-4.149 4.149h-4.774v13.93c0 .229.008.425.021.59.398-.172.972-.467 1.776-.97.767-.483 1.551-.718 2.332-.718 1.404 0 2.663.722 3.454 1.98l.964 1.546c.422.636.67 1.438.67 2.247 0 1.403-.721 2.661-1.979 3.453l-1.814 1.139c-1.227.761-5.544 3.219-10.15 3.219z"/><path class="st2" d="M87.401 108.9c-2.396 0-10.213-.9-10.213-12.487V85.281c0-.988 0-3.04-.358-3.493h-.001c-.019 0-.232-.086-.752-.086-2.365 0-4.148-1.784-4.148-4.148V75.75c0-2.364 1.783-4.148 4.148-4.148h1.111v-.771c0-1.73.815-3.168 2.235-3.945 1.964-1.072 4.787-2.834 6.834-4.575.71-.606 1.51-.915 2.372-.915 1.847 0 3.297 1.303 3.464 3.032l.015.156v7.018h4.793c2.365 0 4.149 1.784 4.149 4.149v2.583c0 2.365-1.784 4.149-4.149 4.149h-4.774v13.93c0 .229.008.425.021.59.398-.172.972-.467 1.776-.97.767-.483 1.551-.718 2.332-.718 1.404 0 2.663.722 3.454 1.98l.964 1.546c.422.636.67 1.438.67 2.247 0 1.403-.721 2.661-1.979 3.453l-1.814 1.139c-1.227.761-5.544 3.219-10.15 3.219z"/><path class="st2" d="M102.035 77.106c-1.025 0-1.755-.305-3.716-1.187l-4.927-2.216 4.269-3.311c1.98-1.536 3.072-3.196 3.393-4.053l-1.801-1.802c-1.728-1.728-2.09-3.473-2.09-4.633s.362-2.906 2.09-4.633l2.349-2.348c1.735-1.718 3.472-2.076 4.626-2.076 1.161 0 2.909.363 4.639 2.093l2.343 2.331c1.455 1.444 2.226 3.392 2.226 5.631 0 .771-.09 1.593-.266 2.443-1.15 5.534-9.596 13.76-13.135 13.76z"/><path class="st2" d="M102.035 77.106c-1.025 0-1.755-.305-3.716-1.187l-4.927-2.216 4.269-3.311c1.98-1.536 3.072-3.196 3.393-4.053l-1.801-1.802c-1.728-1.728-2.09-3.473-2.09-4.633s.362-2.906 2.09-4.633l2.349-2.348c1.735-1.718 3.472-2.076 4.626-2.076 1.161 0 2.909.363 4.639 2.093l2.343 2.331c1.455 1.444 2.226 3.392 2.226 5.631 0 .771-.09 1.593-.266 2.443-1.15 5.534-9.596 13.76-13.135 13.76zM123.324 108.986h-2.046c-1.67 0-3.089-.822-3.895-2.256l-5.209-9.742a4.276 4.276 0 01-.534-2.055c0-1.446.785-2.765 2.101-3.525l1.857-1.077c.36-.209.732-.363 1.112-.462-1.836-2.073-2.687-4.541-2.687-7.537 0-6.749 5.572-11.462 13.552-11.462 2.26 0 4.362.411 6.07.93.718-.734 1.745-1.178 2.92-1.178h1.577c1.86.003 3.375 1.035 4.057 2.76l3.01 7.638c.175.443.377 1.05.377 1.788 0 1.488-.809 2.767-2.217 3.507l-.449.246c2.763 1.989 4.8 4.884 4.8 9.279 0 7.647-6.54 12.988-15.902 12.988-1.936 0-3.844-.277-5.638-.812-.67.612-1.58.977-2.612.977-.078 0-.16-.002-.244-.007zm-.284-14.852c2.539 2.81 5.512 4.183 9.024 4.183 1.056 0 1.76-.116 2.188-.235-1.098-.692-3.67-1.434-5.157-1.863a150.23 150.23 0 01-1.282-.374c-1.775-.528-3.363-1.096-4.773-1.711zm5.035-13.12c.626.3 1.727.692 3.633 1.18l1.152.294c-1.683-1.057-3.26-1.486-4.447-1.486-.122 0-.234.004-.338.011z"/><path class="st2" d="M123.324 108.986h-2.046c-1.67 0-3.089-.822-3.895-2.256l-5.209-9.742a4.276 4.276 0 01-.534-2.055c0-1.446.785-2.765 2.101-3.525l1.857-1.077c.36-.209.732-.363 1.112-.462-1.836-2.073-2.687-4.541-2.687-7.537 0-6.749 5.572-11.462 13.552-11.462 2.26 0 4.362.411 6.07.93.718-.734 1.745-1.178 2.92-1.178h1.577c1.86.003 3.375 1.035 4.057 2.76l3.01 7.638c.175.443.377 1.05.377 1.788 0 1.488-.809 2.767-2.217 3.507l-.449.246c2.763 1.989 4.8 4.884 4.8 9.279 0 7.647-6.54 12.988-15.902 12.988-1.936 0-3.844-.277-5.638-.812-.67.612-1.58.977-2.612.977-.078 0-.16-.002-.244-.007zm-.284-14.852c2.539 2.81 5.512 4.183 9.024 4.183 1.056 0 1.76-.116 2.188-.235-1.098-.692-3.67-1.434-5.157-1.863a150.23 150.23 0 01-1.282-.374c-1.775-.528-3.363-1.096-4.773-1.711zm5.035-13.12c.626.3 1.727.692 3.633 1.18l1.152.294c-1.683-1.057-3.26-1.486-4.447-1.486-.122 0-.234.004-.338.011z"/><g><path class="st2" d="M185.44 108.738c-15.312 0-25.6-10.408-25.6-25.898 0-12.423 6.645-26.93 25.372-26.93 11.052 0 19.505 5.937 21.534 15.125l.035.16.085.73v.188c0 2.017-1.294 3.68-3.31 4.277l-7.603 2.653a5.555 5.555 0 01-1.826.327c-1.231 0-2.32-.479-3.062-1.348a3.739 3.739 0 01-.852-2.93l.087-.756.036-.887c-.014-2.899-1.004-6.32-5.6-6.32-6.45 0-8.154 8.565-8.154 13.094 0 7.472 1.697 16.38 9.782 16.38 7.157 0 9.95-4.2 11.583-7.857.757-1.699 2.25-2.715 3.995-2.715.76 0 1.51.196 2.229.583l2.018.932c3.64 1.677 2.586 4.789 2.337 5.396-1.947 4.75-8.091 15.796-23.085 15.796z"/><path class="st2" d="M185.44 108.738c-15.312 0-25.6-10.408-25.6-25.898 0-12.423 6.645-26.93 25.372-26.93 11.052 0 19.505 5.937 21.534 15.125l.035.16.085.73v.188c0 2.017-1.294 3.68-3.31 4.277l-7.603 2.653a5.555 5.555 0 01-1.826.327c-1.231 0-2.32-.479-3.062-1.348a3.739 3.739 0 01-.852-2.93l.087-.756.036-.887c-.014-2.899-1.004-6.32-5.6-6.32-6.45 0-8.154 8.565-8.154 13.094 0 7.472 1.697 16.38 9.782 16.38 7.157 0 9.95-4.2 11.583-7.857.757-1.699 2.25-2.715 3.995-2.715.76 0 1.51.196 2.229.583l2.018.932c3.64 1.677 2.586 4.789 2.337 5.396-1.947 4.75-8.091 15.796-23.085 15.796z"/></g><g><path class="st2" d="M228.994 108.137a4.295 4.295 0 01-1.907-.433 4.303 4.303 0 01-1.908.433h-17.47c-2.365 0-4.148-1.783-4.148-4.147v-1.803c0-2.365 1.783-4.149 4.148-4.149h.133c.408 0 .522-.115.577-.17.26-.267.558-1.011.535-2.238V73.048c0-2.681-.277-3.44-.45-3.654h-.004c-.016 0-.084-.018-.204-.031-2.18-.237-3.65-1.898-3.6-4.053v-1.987c0-1.301.538-3.03 3.097-3.876 6.14-2.037 9.237-4.27 10.402-5.111.252-.187.999-.744 2.134-.756h.163c1.88 0 3.342 1.469 3.342 3.344v15.537a14.129 14.129 0 016.683-1.645c8.908 0 13.436 4.79 13.459 14.237v10.52c.002.918.155 2.465 1.17 2.465h.15c2.365 0 4.148 1.784 4.148 4.149v1.803c0 2.364-1.783 4.147-4.148 4.147h-16.302zm-5.102-12.564c0 .921.152 2.465 1.17 2.465h.117c.696 0 1.343.155 1.908.434a4.247 4.247 0 011.661-.427c.139-.366.314-1.132.29-2.415l.002-9.738c.004-1.06.01-2.628-.2-3.177-.124-.036-.395-.093-.888-.093-1.618 0-3.34 1.033-4.06 2.067v10.884z"/><path class="st2" d="M228.994 108.137a4.295 4.295 0 01-1.907-.433 4.303 4.303 0 01-1.908.433h-17.47c-2.365 0-4.148-1.783-4.148-4.147v-1.803c0-2.365 1.783-4.149 4.148-4.149h.133c.408 0 .522-.115.577-.17.26-.267.558-1.011.535-2.238V73.048c0-2.681-.277-3.44-.45-3.654h-.004c-.016 0-.084-.018-.204-.031-2.18-.237-3.65-1.898-3.6-4.053v-1.987c0-1.301.538-3.03 3.097-3.876 6.14-2.037 9.237-4.27 10.402-5.111.252-.187.999-.744 2.134-.756h.163c1.88 0 3.342 1.469 3.342 3.344v15.537a14.129 14.129 0 016.683-1.645c8.908 0 13.436 4.79 13.459 14.237v10.52c.002.918.155 2.465 1.17 2.465h.15c2.365 0 4.148 1.784 4.148 4.149v1.803c0 2.364-1.783 4.147-4.148 4.147h-16.302zm-5.102-12.564c0 .921.152 2.465 1.17 2.465h.117c.696 0 1.343.155 1.908.434a4.247 4.247 0 011.661-.427c.139-.366.314-1.132.29-2.415l.002-9.738c.004-1.06.01-2.628-.2-3.177-.124-.036-.395-.093-.888-.093-1.618 0-3.34 1.033-4.06 2.067v10.884z"/></g><g><path class="st2" d="M266.72 108.918l-1.027-1.088a3.806 3.806 0 01-.115-.134c-1.675.758-3.667 1.222-5.983 1.222-6.657 0-16.56-5.086-16.56-19.096 0-14.005 9.305-18.974 17.275-18.974 3.862 0 7.35 1.02 10.209 2.97 1.569-.77 2.455-1.413 3.258-1.998l.33-.24a3.533 3.533 0 012.166-.753l.118-.001c1.89 0 3.352 1.469 3.352 3.344v19.604c.053 1.991.37 2.517.439 2.61l.003-.001c.016 0 .084.019.204.032 2.18.237 3.65 1.897 3.6 4.053v1.987c0 2.34-1.74 4.04-4.135 4.04-5.161 0-7.15.88-9.666 1.996a4.53 4.53 0 01-1.888.427h-1.58zm-5.32-27.583c-1.344 0-4.143 0-4.143 6.543 0 4.601 1.564 9.244 5.059 9.244 1.504 0 2.243-.888 2.543-1.398V84.676c-.744-3.34-2.637-3.34-3.458-3.34z"/><path class="st2" d="M266.72 108.918l-1.027-1.088a3.806 3.806 0 01-.115-.134c-1.675.758-3.667 1.222-5.983 1.222-6.657 0-16.56-5.086-16.56-19.096 0-14.005 9.305-18.974 17.275-18.974 3.862 0 7.35 1.02 10.209 2.97 1.569-.77 2.455-1.413 3.258-1.998l.33-.24a3.533 3.533 0 012.166-.753l.118-.001c1.89 0 3.352 1.469 3.352 3.344v19.604c.053 1.991.37 2.517.439 2.61l.003-.001c.016 0 .084.019.204.032 2.18.237 3.65 1.897 3.6 4.053v1.987c0 2.34-1.74 4.04-4.135 4.04-5.161 0-7.15.88-9.666 1.996a4.53 4.53 0 01-1.888.427h-1.58zm-5.32-27.583c-1.344 0-4.143 0-4.143 6.543 0 4.601 1.564 9.244 5.059 9.244 1.504 0 2.243-.888 2.543-1.398V84.676c-.744-3.34-2.637-3.34-3.458-3.34z"/></g><g><path class="st2" d="M293.774 108.9c-2.396 0-10.213-.9-10.213-12.487V85.281c0-.988 0-3.04-.359-3.493-.02 0-.232-.086-.753-.086-2.364 0-4.147-1.784-4.147-4.148V75.75c0-2.364 1.783-4.148 4.147-4.148h1.112v-.771c0-1.73.814-3.167 2.235-3.945 1.964-1.072 4.787-2.835 6.835-4.575.709-.606 1.509-.915 2.37-.915 1.858 0 3.276 1.26 3.462 2.997l.019.173v7.036h4.792c2.365 0 4.149 1.784 4.149 4.149v2.583c0 2.365-1.784 4.149-4.15 4.149H298.5v13.93c0 .229.009.425.022.59.397-.172.97-.467 1.775-.97.764-.483 1.55-.718 2.332-.718 1.401 0 2.66.72 3.452 1.977l.966 1.549c.422.636.67 1.438.67 2.247 0 1.404-.722 2.663-1.98 3.454l-1.813 1.138c-1.227.761-5.543 3.219-10.15 3.219z"/><path class="st2" d="M293.774 108.9c-2.396 0-10.213-.9-10.213-12.487V85.281c0-.988 0-3.04-.359-3.493-.02 0-.232-.086-.753-.086-2.364 0-4.147-1.784-4.147-4.148V75.75c0-2.364 1.783-4.148 4.147-4.148h1.112v-.771c0-1.73.814-3.167 2.235-3.945 1.964-1.072 4.787-2.835 6.835-4.575.709-.606 1.509-.915 2.37-.915 1.858 0 3.276 1.26 3.462 2.997l.019.173v7.036h4.792c2.365 0 4.149 1.784 4.149 4.149v2.583c0 2.365-1.784 4.149-4.15 4.149H298.5v13.93c0 .229.009.425.022.59.397-.172.97-.467 1.775-.97.764-.483 1.55-.718 2.332-.718 1.401 0 2.66.72 3.452 1.977l.966 1.549c.422.636.67 1.438.67 2.247 0 1.404-.722 2.663-1.98 3.454l-1.813 1.138c-1.227.761-5.543 3.219-10.15 3.219z"/></g><g><path class="st3" d="M43.532 92.047c.334.193.504.445.504.737 0 .166-.054.344-.164.531l-5.63 11.894c-.152.336-.425.533-.722.533a.817.817 0 01-.546-.232l-.334-.3c-.35-.301-.705-.301-1.152-.301H5.362c-.586 0-.901-.315-.901-.902v-1.802c0-.586.315-.9.9-.9h.06c3.299 0 4.36-2.448 4.36-5.713V69.181c0-3.266-1.061-5.713-4.36-5.713h-.06c-.585 0-.9-.315-.9-.9v-1.803c0-.586.315-.916.9-.916h18.23c.585 0 1.094.33 1.094.916v1.802c0 .586-1.093.901-1.679.901h-3.624v31.463c0 3.193 1.014 5.604 4.143 5.709h2.319c4.263 0 9.064-.41 14.311-9.03l.194-.332c.195-.348.446-.521.74-.521.164 0 .34.054.528.162l1.915 1.128zM55.475 94.15c1.371 3.323 4.352 6.467 9.028 6.467 2.54 0 5.54-1.398 7.642-4.439a.668.668 0 01.516-.262c.364 0 .469.05 2.385 1.172a.498.498 0 01.256.46c0 .325-.206.727-.381 1.054-2.246 4.194-5.96 7.009-12.045 7.009-9.967 0-16.118-7.32-16.118-16.018 0-11.144 7.213-15.424 14.29-15.424 7.947 0 12.36 7.073 12.36 11.604 0 .34-.104.585-.493.755l-17.44 7.622zm8.933-8.622c0-3.818-2.064-6.601-4.826-6.601-3.303 0-5.391 2.982-5.391 6.883 0 1.184.077 3.166.561 4.585l9.656-4.867zM97.92 100.56c.118.18.177.36.177.529 0 .272-.155.512-.462.705l-1.81 1.136c-2.144 1.331-5.435 2.723-8.424 2.723-3.716 0-6.966-2.15-6.966-9.24V85.28c0-3.22-.003-6.826-4.358-6.826-.586 0-.901-.315-.901-.9V75.75c0-.585.315-.9.9-.9h4.36v-4.02c0-.48.125-.865.547-1.096 1.737-.948 4.918-2.858 7.377-4.949.088-.074.175-.142.268-.142h.082c.077-.001.142.007.151.097v10.11h8.04c.586 0 .902.315.902.9v2.584c0 .586-.316.902-.902.902H88.88v17.177c.003 3.106 1.093 4.079 2.493 4.079 1.374 0 3.043-.936 4.277-1.709l.069-.043c.189-.12.37-.178.537-.178.272 0 .512.155.705.462l.958 1.535zM110.919 57.573c.733.727 1.27 1.764 1.27 3.33 0 .53-.06 1.12-.198 1.78-.986 4.747-8.572 11.176-9.956 11.176-.295 0-.648-.12-2.384-.901 2.876-2.231 4.751-5.109 4.751-7 0-.555-.16-1.024-.504-1.368l-2.35-2.35c-.759-.759-1.139-1.547-1.139-2.336 0-.788.38-1.577 1.14-2.336l2.349-2.35c.756-.748 1.543-1.124 2.33-1.124.79 0 1.58.38 2.343 1.142l2.348 2.337zM140.406 84.236a1.028 1.028 0 01-.477.137c-.28 0-.512-.166-.754-.466-3.629-4.525-7.87-6.152-10.762-6.152-2.132 0-4.203.788-4.203 3.064 0 2.63 3.404 3.679 6.692 4.52 5.576 1.429 13.57 3.204 13.57 10.5 0 5.61-4.818 9.742-12.654 9.742-2.461 0-4.893-.54-6.973-1.555-.21-.1-.381-.145-.518-.145-.377 0-.48.352-.308.897.06.189.093.353.093.49 0 .343-.202.514-.68.471h-2.154c-.5 0-.828-.18-1.065-.6l-5.175-9.682c-.1-.18-.15-.36-.15-.524 0-.29.156-.528.48-.715l1.858-1.077c.183-.106.356-.158.516-.158.284 0 .527.164.715.488 3.864 5.904 8.7 8.093 13.607 8.093 3.702 0 5.78-1.13 5.78-3.426 0-3.086-5.037-4.193-9.104-5.405-9.807-2.92-11.47-6.459-11.47-10.4 0-4.777 4.01-8.216 10.305-8.216 3.737 0 6.914 1.344 7.958 1.952.109.063.196.09.266.09.327 0 .271-.61.084-1.26a1.469 1.469 0 01-.064-.403c0-.402.246-.63.758-.627h1.565c.519 0 .847.225 1.038.707l3.008 7.634c.091.233.15.427.15.598 0 .25-.13.449-.48.633l-1.452.795zM204.827 90.493c.547.253.999.472.693 1.218-2.56 6.249-8.489 13.78-20.08 13.78-14.458 0-22.353-9.72-22.353-22.651 0-10.002 4.863-23.683 22.125-23.683 7.989 0 16.405 3.71 18.363 12.578l.045.378c0 .598-.37 1-1.043 1.179l-7.694 2.685a2.34 2.34 0 01-.756.146c-.487 0-.753-.24-.693-.619l.106-.916.043-1.078c0-4.256-1.976-9.629-8.848-9.629-8.547 0-11.4 9.612-11.4 16.342 0 11.644 4.093 19.626 13.03 19.626 8.93 0 12.615-5.452 14.547-9.778.237-.531.598-.793 1.03-.793.235 0 .49.078.76.233l2.125.982zM245.296 101.285c.586 0 .902.316.902.902v1.802c0 .586-.316.901-.902.901h-16.301c-.586 0-.901-.315-.901-.9v-1.803c0-.586.315-.902.9-.902h.134c2.275 0 3.215-2.447 3.157-5.712v-9.046c0-3.872.277-7.152-4.332-7.152-2.98 0-6.272 1.985-7.308 4.519v11.68c0 3.264 1.48 5.711 4.417 5.711h.117c.585 0 .9.316.9.902v1.802c0 .586-.315.901-.9.901h-17.47c-.585 0-.901-.315-.901-.9v-1.803c0-.586.316-.902.901-.902h.133c2.938 0 4.417-2.447 4.359-5.712V73.048c0-3.22-.236-6.55-3.552-6.913-.593-.065-.723-.364-.705-.776v-2.036c0-.499.304-.606.868-.793 6.33-2.1 9.67-4.397 11.283-5.56.093-.067.175-.142.268-.142l.141-.001c.078 0 .083.007.083.097v23.084c1.068-2.1 4.424-5.945 9.93-5.945 8.587 0 10.198 5.252 10.212 10.998v10.512c.004 3.265 1.48 5.712 4.417 5.712h.15zM276.496 93.774c.074 2.86.583 5.546 3.54 5.869.593.064.723.363.705.775v2.037c0 .505-.28.793-.887.793-5.896 0-8.353 1.11-11.046 2.303-.105.06-.333.12-.508.12h-.141c-.078 0-.094-.06-.083-.18l.697-5.355c-.653 1.608-3 5.535-9.178 5.535-5.418 0-13.313-4.227-13.313-15.85 0-11.128 6.766-15.726 14.028-15.726 3.918 0 7.238 1.212 9.753 3.489 3.345-1.392 4.718-2.487 5.941-3.367.093-.067.175-.143.268-.143h.141c.077 0 .083.006.083.096v19.604zm-8.39-9.43c-.466-2.42-1.969-6.256-6.706-6.256-5.812 0-7.39 4.818-7.39 9.79 0 7.7 3.384 12.492 8.306 12.492 4.456 0 5.79-3.958 5.79-3.958V84.344zM304.292 100.56c.12.18.178.36.178.529 0 .272-.155.512-.462.705l-1.81 1.136c-2.144 1.331-5.435 2.723-8.424 2.723-3.716 0-6.966-2.15-6.966-9.24V85.28c0-3.22-.003-6.826-4.358-6.826-.586 0-.901-.315-.901-.9V75.75c0-.585.315-.9.9-.9h4.36v-4.02c0-.48.125-.865.546-1.096 1.738-.948 4.919-2.858 7.378-4.949.087-.074.175-.142.268-.142h.081c.078-.001.143.007.152.097v10.11h8.04c.586 0 .902.315.902.9v2.584c0 .586-.316.902-.902.902h-8.021v17.177c.003 3.106 1.093 4.079 2.493 4.079 1.374 0 3.043-.936 4.277-1.709l.069-.043c.189-.12.369-.178.537-.178.272 0 .512.155.705.462l.958 1.535z"/></g></g><path class="st4" d="M0 126.153h135.953v2.211H0zM168.126 126.153h135.953v2.211H168.126z"/><g><path d="M156.645 121.188c-2.043-.288-3.581 1.475-4.268 3.193-.017.043-.047.078-.069.12a1.06 1.06 0 01-.103.178c-.032.044-.069.08-.106.12a1.104 1.104 0 01-.162.145c-.052.036-.109.06-.166.086-.04.018-.076.05-.117.061-.02.006-.038 0-.057.004-.067.015-.136.014-.207.014-.071 0-.14.001-.207-.014-.02-.004-.037.002-.057-.004-.041-.011-.077-.043-.117-.06-.058-.027-.114-.05-.166-.087a1.104 1.104 0 01-.162-.146c-.038-.039-.074-.075-.107-.12a1.06 1.06 0 01-.103-.178c-.021-.041-.051-.076-.069-.12-.686-1.717-2.225-3.48-4.267-3.192-1.866.263-2.477 2.352-1.992 3.944.632 2.072 2.59 3.368 4.383 4.363 1.814 1.006 1.634.884 2.874 1.527 1.243-.647 1.036-.52 2.854-1.527 1.793-.995 3.75-2.29 4.383-4.363.485-1.592-.126-3.681-1.992-3.944z" fill="none"/><path class="st4" d="M159.763 120.803c-1.263-1.618-3.497-2.049-5.375-1.33-1.302.499-2.261 1.435-2.998 2.547-.737-1.112-1.697-2.048-2.998-2.547-1.878-.719-4.112-.288-5.376 1.33-1.255 1.607-1.353 3.77-.558 5.603.851 1.963 2.538 3.37 4.338 4.443 2.316 1.38 1.516.877 3.902 2.132.075.04.153.047.23.07.311.139.676.176 1.032-.011 2.387-1.255 1.707-.81 4.024-2.191 1.8-1.073 3.486-2.48 4.338-4.443.794-1.833.697-3.996-.559-5.603zm-1.126 4.329c-.632 2.072-2.59 3.368-4.383 4.363-1.818 1.008-1.611.88-2.854 1.527-1.24-.643-1.06-.521-2.874-1.527-1.793-.995-3.751-2.29-4.383-4.363-.485-1.592.126-3.681 1.992-3.944 2.042-.288 3.581 1.475 4.267 3.193.018.043.048.078.07.12.03.063.06.12.102.178.033.044.07.08.107.12.052.053.101.103.162.145.052.036.108.06.166.086.04.018.076.05.117.061.02.006.037 0 .057.004.066.015.136.014.207.014.071 0 .14.001.207-.014.02-.004.037.002.057-.004.041-.011.077-.043.117-.06.057-.027.114-.05.166-.087.06-.042.11-.092.162-.146.037-.039.074-.075.106-.12a1.06 1.06 0 00.103-.178c.022-.041.052-.076.07-.12.686-1.717 2.224-3.48 4.267-3.192 1.866.263 2.477 2.352 1.992 3.944z"/></g><g><path class="st6" d="M10.096 151.889v3.794c0 1.686-.844 2.53-2.53 2.53H6.301c-1.687 0-2.53-.844-2.53-2.53v-12.648c0-1.686.843-2.53 2.53-2.53h1.265c1.686 0 2.53.844 2.53 2.53v3.794h2.529v-3.794c0-1.686.843-2.53 2.53-2.53h1.265c1.686 0 2.53.844 2.53 2.53v12.648c0 1.686-.844 2.53-2.53 2.53h-1.265c-1.687 0-2.53-.844-2.53-2.53v-3.794h-2.53zM28.473 141.732c.549-.834 1.1-1.252 1.657-1.252.548 0 1.1.418 1.657 1.252l7.172 11.927c.328.54.493 1.042.493 1.505 0 .768-.456 1.422-1.366 1.961l-1.088.658c-.54.33-1.041.493-1.505.493-.759 0-1.404-.442-1.935-1.327h-6.855c-.532.885-1.177 1.327-1.935 1.327-.464 0-.966-.164-1.506-.493l-1.087-.658c-.911-.539-1.367-1.193-1.367-1.96 0-.464.165-.966.494-1.506l7.171-11.927zm2.783 10.144l-1.139-2.517-1.125 2.517h2.264zM47.357 153.153v2.53c0 1.686-.844 2.53-2.53 2.53h-1.265c-1.686 0-2.53-.844-2.53-2.53v-12.648c0-1.686.844-2.53 2.53-2.53h5.06c4.216 0 6.324 2.108 6.324 6.324 0 4.217-2.108 6.324-6.324 6.324h-1.265zm0-7.589v2.53h1.265c.843 0 1.264-.42 1.264-1.265 0-.843-.42-1.265-1.264-1.265h-1.265zM62.535 153.153v2.53c0 1.686-.844 2.53-2.53 2.53H58.74c-1.687 0-2.53-.844-2.53-2.53v-12.648c0-1.686.843-2.53 2.53-2.53h5.06c4.215 0 6.323 2.108 6.323 6.324 0 4.217-2.108 6.324-6.323 6.324h-1.265zm0-7.589v2.53H63.8c.843 0 1.264-.42 1.264-1.265 0-.843-.421-1.265-1.264-1.265h-1.265zM75.018 150.245a.932.932 0 00-.013-.152l-3.124-5.16c-.329-.54-.493-1.042-.493-1.506 0-.767.451-1.42 1.354-1.96l1.087-.658c.54-.329 1.041-.493 1.505-.493.776 0 1.433.455 1.973 1.366l.873 1.455.873-1.455c.54-.91 1.193-1.366 1.96-1.366.464 0 .965.164 1.505.493l1.088.658c.902.54 1.353 1.193 1.353 1.96 0 .464-.164.966-.493 1.505l-3.15 5.212a.21.21 0 01-.012.063c.017.135.025.274.025.417v5.059c0 1.686-.843 2.53-2.53 2.53h-1.264c-1.687 0-2.53-.844-2.53-2.53v-5.059c0-.135.005-.261.013-.38zM93.143 145.059c-.33-.54-.494-1.041-.494-1.505 0-.768.455-1.421 1.366-1.961l1.088-.657c.54-.33 1.042-.494 1.505-.494.767 0 1.42.456 1.96 1.366l3.39 6.274 3.416-6.274c.539-.91 1.192-1.366 1.96-1.366.464 0 .965.165 1.505.494l1.088.657c.91.54 1.365 1.193 1.365 1.96 0 .465-.164.967-.492 1.506l-7.172 11.927c-.557.827-1.11 1.24-1.657 1.24-.557 0-1.109-.413-1.657-1.24l-7.171-11.927zM114.568 141.732c.549-.834 1.1-1.252 1.658-1.252.547 0 1.1.418 1.657 1.252l7.171 11.927c.328.54.493 1.042.493 1.505 0 .768-.456 1.422-1.366 1.961l-1.088.658c-.54.33-1.041.493-1.505.493-.759 0-1.404-.442-1.935-1.327h-6.855c-.532.885-1.177 1.327-1.935 1.327-.464 0-.966-.164-1.506-.493l-1.087-.658c-.911-.539-1.366-1.193-1.366-1.96 0-.464.164-.966.493-1.506l7.171-11.927zm2.783 10.144l-1.138-2.517-1.126 2.517h2.264zM129.658 140.506h1.264c1.687 0 2.53.843 2.53 2.53v10.117h2.53c1.686 0 2.53.844 2.53 2.53s-.844 2.53-2.53 2.53h-6.324c-1.687 0-2.53-.844-2.53-2.53v-12.648c0-1.686.843-2.53 2.53-2.53zM152.829 143.035c0 1.686-.843 2.53-2.53 2.53h-3.794v1.264h3.794c1.687 0 2.53.844 2.53 2.53 0 1.687-.843 2.53-2.53 2.53h-3.794v1.264h3.794c1.687 0 2.53.844 2.53 2.53s-.843 2.53-2.53 2.53h-7.589c-1.686 0-2.53-.844-2.53-2.53v-12.648c0-1.686.844-2.53 2.53-2.53h7.59c1.686 0 2.529.844 2.529 2.53zM160.76 152.395v3.288c0 1.686-.844 2.53-2.53 2.53h-1.265c-1.687 0-2.53-.844-2.53-2.53v-12.648c0-1.686.843-2.53 2.53-2.53h1.265c1.34 0 2.521 1.114 3.541 3.34l1.518 3.351v-4.16c0-1.687.843-2.53 2.53-2.53h1.264c1.687 0 2.53.843 2.53 2.53v12.647c0 1.686-.843 2.53-2.53 2.53h-1.265c-1.188 0-2.331-.97-3.427-2.91l-1.631-2.908zM180.325 145.564v10.119c0 1.686-.843 2.53-2.529 2.53h-1.265c-1.687 0-2.53-.844-2.53-2.53v-10.119c-1.686 0-2.53-.843-2.53-2.529s.844-2.53 2.53-2.53h6.324c1.687 0 2.53.844 2.53 2.53s-.843 2.53-2.53 2.53zM188.319 158.213h-1.265c-1.687 0-2.53-.844-2.53-2.53V143.01c0-1.687.843-2.53 2.53-2.53h1.265c1.686 0 2.53.843 2.53 2.53v12.673c0 1.686-.844 2.53-2.53 2.53zM198.438 152.395v3.288c0 1.686-.844 2.53-2.53 2.53h-1.265c-1.687 0-2.53-.844-2.53-2.53v-12.648c0-1.686.843-2.53 2.53-2.53h1.265c1.34 0 2.521 1.114 3.541 3.34l1.518 3.351v-4.16c0-1.687.843-2.53 2.53-2.53h1.264c1.687 0 2.53.843 2.53 2.53v12.647c0 1.686-.843 2.53-2.53 2.53h-1.264c-1.19 0-2.332-.97-3.428-2.91l-1.631-2.908zM221.798 143.035c0 1.686-.843 2.53-2.53 2.53h-3.794v1.264h3.794c1.687 0 2.53.844 2.53 2.53 0 1.687-.843 2.53-2.53 2.53h-3.794v1.264h3.794c1.687 0 2.53.844 2.53 2.53s-.843 2.53-2.53 2.53h-7.589c-1.686 0-2.53-.844-2.53-2.53v-12.648c0-1.686.844-2.53 2.53-2.53h7.59c1.686 0 2.529.844 2.529 2.53zM227.199 149.36h-1.265c-1.687 0-2.53-.844-2.53-2.53v-3.795c0-1.686.843-2.53 2.53-2.53h1.265c1.686 0 2.53.844 2.53 2.53v3.794c0 1.687-.844 2.53-2.53 2.53zM237.317 140.506h3.794c1.695 0 2.543.843 2.543 2.53 0 1.685-.848 2.528-2.543 2.528h-3.162c-.843 0-1.264.195-1.264.582 0 .456.421.683 1.264.683h1.265c4.216 0 6.324 1.881 6.324 5.642 0 3.424-1.686 5.316-5.059 5.679l-3.162.063h-2.53c-1.66 0-2.491-.844-2.491-2.53s.83-2.53 2.491-2.53h3.162c.843 0 1.265-.227 1.265-.682 0-.389-.422-.582-1.265-.582h-.632c-4.216 0-6.324-1.914-6.324-5.743 0-3.76 2.108-5.64 6.324-5.64zM253.228 155.683v-12.648c0-1.686.843-2.53 2.53-2.53h3.795c5.902 0 8.853 2.952 8.853 8.854s-2.951 8.854-8.853 8.854h-3.795c-1.687 0-2.53-.844-2.53-2.53zm6.325-3.794c1.686 0 2.529-.843 2.529-2.53 0-1.686-.843-2.53-2.53-2.53v5.06zM276.74 141.732c.549-.834 1.101-1.252 1.658-1.252.547 0 1.1.418 1.657 1.252l7.171 11.927c.329.54.493 1.042.493 1.505 0 .768-.455 1.422-1.365 1.961l-1.089.658c-.539.33-1.04.493-1.504.493-.76 0-1.405-.442-1.936-1.327h-6.855c-.531.885-1.176 1.327-1.935 1.327-.464 0-.966-.164-1.505-.493l-1.088-.658c-.91-.539-1.366-1.193-1.366-1.96 0-.464.164-.966.493-1.506l7.172-11.927zm2.783 10.144l-1.138-2.517-1.126 2.517h2.264zM289.351 150.245a.935.935 0 00-.013-.152l-3.124-5.16c-.329-.54-.493-1.042-.493-1.506 0-.767.451-1.42 1.354-1.96l1.087-.658c.54-.329 1.041-.493 1.505-.493.776 0 1.433.455 1.973 1.366l.873 1.455.873-1.455c.54-.91 1.193-1.366 1.96-1.366.464 0 .966.164 1.505.493l1.088.658c.902.54 1.353 1.193 1.353 1.96 0 .464-.164.966-.493 1.505l-3.15 5.212a.21.21 0 01-.012.063c.017.135.026.274.026.417v5.059c0 1.686-.844 2.53-2.53 2.53h-1.265c-1.687 0-2.53-.844-2.53-2.53v-5.059c0-.135.005-.261.013-.38z"/></g></svg>