<svg version="1.1" id="Layer_1" xmlns="http://www.w3.org/2000/svg" x="0" y="0" viewBox="0 0 180.419 83.062" xml:space="preserve"><style>.st0{fill:#991f68}.st1{fill:#fc0073}.st2{fill:#291d9e}</style><path class="st0" d="M107.428 45.32c-.23-.121-.411-.073-.544.145a10.41 10.41 0 00-1.107 2.449c-.279.87-.569 1.73-.871 2.576a6.366 6.366 0 01-.363.817c-.145.29-.308.587-.49.889a9.273 9.273 0 01-1.252 1.505c-.471.448-.967.714-1.488.799-.338.06-.677.012-1.016-.145-.338-.157-.67-.454-.998-.89a6.15 6.15 0 01-.852-1.741 15.067 15.067 0 00-.726-1.869 5.722 5.722 0 00-.526-.907c-.055-.079-.122-.148-.185-.22a5.832 5.832 0 001.636-1.104c.545-.532.932-1.216 1.162-2.05.23-.823.247-1.61.054-2.36a3.65 3.65 0 00-.526-1.142 2.736 2.736 0 00-.944-.871 2.466 2.466 0 00-1.197-.363c-.411 0-.817.073-1.216.218-.75.278-1.44.744-2.068 1.397-.63.641-1.083 1.246-1.36 1.814-.103.21-.195.425-.285.644.062-1.07.095-2.142.085-3.22-.005-.245 0-.486-.002-.73.393-.157.787-.33 1.18-.54a15.493 15.493 0 001.652-1.017 14.326 14.326 0 002.703-2.503 9.493 9.493 0 001.76-3.048c.23-.653.339-1.307.327-1.96 0-.64-.182-1.27-.544-1.887-.388-.665-.986-1.233-1.797-1.705-.556-.315-1.1-.466-1.633-.454-.266 0-.526.036-.78.109-.786.218-1.47.58-2.05 1.089a7.988 7.988 0 00-1.47 1.814c-.484.823-.87 1.736-1.16 2.74a24.66 24.66 0 00-.636 2.975c-.072.52-.127 1.034-.163 1.542-.048.497-.079.962-.09 1.398a262.246 262.246 0 00-.182 4.245c-.06 1.415-.14 2.83-.236 4.246-.008.104-.012.21-.018.315l-.01.03a14.384 14.384 0 01-1.27 2.939 4.02 4.02 0 01-.49.725 3.69 3.69 0 01-.617.617c-.4.339-.841.539-1.325.6-.484.047-.961-.152-1.433-.6-.557-.532-.907-1.24-1.052-2.123a19.373 19.373 0 01-.29-2.394c-.01-.392-.005-.742.01-1.067l.007-.022a6.2 6.2 0 00.273-1.397c.024-.182.036-.363.036-.544 0-.04-.004-.08-.005-.119.028-.11.046-.228.078-.335.108-.339.223-.671.344-.998.073-.17.11-.369.11-.599 0-.218.005-.417.017-.598a2.77 2.77 0 01.11-.635c.06-.206.114-.418.162-.635.06-.23-.012-.424-.217-.58a.533.533 0 00-.327-.128.545.545 0 00-.29.09c-.327.219-.647.454-.962.708-.314.254-.61.52-.889.798-.326.316-.562.72-.708 1.216-.145.496-.266.962-.362 1.397-.121.569-.194 1.15-.218 1.742a9.389 9.389 0 00-.018.599c0 .387.018.768.054 1.143.03.384.087.778.155 1.177a6.282 6.282 0 01-.735.583 2.95 2.95 0 01-.926.4 2.85 2.85 0 01-.961.017 3.138 3.138 0 01-1.615-.744 3.352 3.352 0 01-1.052-1.506 3 3 0 01-.182-1.234c.012-.423.036-.84.073-1.252.024-.471.06-.943.109-1.415.048-.472.138-.937.272-1.396a2.7 2.7 0 01.526-.999c.23-.253.49-.453.78-.598.544-.278 1.161-.375 1.85-.29a6.131 6.131 0 011.924.525c.218.097.393.037.526-.18.12-.219.066-.382-.163-.49a8.452 8.452 0 00-1.724-.654 4.286 4.286 0 00-1.107-.145 4.491 4.491 0 00-2.34.653 9.902 9.902 0 00-1.397 1.07c-.448.412-.793.944-1.034 1.597a46.28 46.28 0 00-.672 1.797 5.136 5.136 0 00-.272 1.669c0 .157.006.32.018.49.025.306.071.599.13.885a13.74 13.74 0 01-1.283 1.618c-1.198 1.295-2.576 2.275-4.137 2.94a8.216 8.216 0 01-2.177.562 2.894 2.894 0 01-2.14-.563 6.943 6.943 0 01-1.053-.907c-.267-.29-.412-.725-.436-1.306-.048-1.221.248-2.425.89-3.61.652-1.198 1.348-2.244 2.086-3.14a3.48 3.48 0 01.889-.816c.302-.206.677-.338 1.125-.4.435-.071.913-.029 1.433.128.52.145.786.502.798 1.07.012.497-.217.938-.689 1.325a8.52 8.52 0 01-1.27.889 5.2 5.2 0 01-1.597.544 8.032 8.032 0 01-1.687.146c-.242-.013-.357.102-.345.344 0 .254.12.387.363.4.992.036 2.014-.115 3.066-.454 1.065-.339 1.893-.938 2.486-1.796.52-.75.647-1.446.381-2.087-.266-.653-.81-1.118-1.633-1.397a4.93 4.93 0 00-1.56-.272c-.642 0-1.252.145-1.833.435a8.464 8.464 0 00-2.703 2.178c-.412.508-.774 1.04-1.089 1.596-.259.442-.474.878-.665 1.312-.123.062-.244.126-.38.176-.565.205-1.108.368-1.64.512a5.826 5.826 0 00-.573-1.873 4.91 4.91 0 00-1.814-2.032 6.132 6.132 0 00-3.375-1.016c-.556 0-1.064.085-1.524.254-.665.254-1.312.672-1.941 1.252l-.089.084.034-.21a8.11 8.11 0 00.073-1.071c0-.496-.06-.986-.181-1.47-.085-.363-.315-.617-.69-.762a1.462 1.462 0 00-.544-.109c-.17 0-.333.036-.49.109a.96.96 0 00-.29.2.903.903 0 00-.2.308 8.813 8.813 0 00-.635 2.45c-.109.858-.224 1.699-.345 2.521-.068.486-.117.973-.174 1.459-.304.246-.622.482-.96.7a12.04 12.04 0 01-3.92 1.633c-.474.1-.947.16-1.42.2.223-.256.45-.51.658-.78.556-.726 1.058-1.61 1.506-2.65.447-1.027.683-2.061.708-3.102a5.22 5.22 0 00-.182-1.615 4.333 4.333 0 00-.744-1.47c-.508-.653-1.082-1.124-1.723-1.415a7.685 7.685 0 00-2.032-.562c-.387-.048-.78-.078-1.18-.09a39.28 39.28 0 00-1.179-.019c-.617 0-1.234-.018-1.85-.054a8.007 8.007 0 01-1.779-.272c-.024 0-.097-.025-.217-.073h-.001l-.049-.03a.88.88 0 01-.06-.079l-.02-.022v-.001a.208.208 0 00-.016-.05.7.7 0 01-.054-.199 4.807 4.807 0 00-.031-.096l-.005-.049a2.083 2.083 0 010-.4v-.235a6.078 6.078 0 01.58-1.924 8.726 8.726 0 011.089-1.741c.23-.278.478-.55.744-.817.254-.253.532-.49.834-.708.351-.241.641-.52.871-.834.242-.326.575-.568.998-.725a5.8 5.8 0 011.397-.29c.52-.05.98.011 1.379.18.484.218.756.49.817.817.06.327 0 .66-.182.998a2.943 2.943 0 01-.363.526c-.145.17-.296.327-.453.472-.182.17-.182.332 0 .49.169.17.344.175.526.018a4.526 4.526 0 001.052-1.197c.278-.46.387-.92.327-1.38a1.638 1.638 0 00-.254-.725 2.4 2.4 0 00-.653-.654 5.71 5.71 0 00-1.107-.598 3.699 3.699 0 00-1.216-.309 4.6 4.6 0 00-1.325.073c-.447.085-.888.151-1.324.2-.447.06-.877.145-1.288.253a3.443 3.443 0 00-1.161.563c-.363.278-.714.58-1.052.907-.327.315-.636.653-.926 1.016-.508.641-.95 1.331-1.324 2.068-.363.75-.63 1.524-.798 2.323a6.69 6.69 0 00-.055 2.14c.097.715.38 1.356.853 1.924.556.653 1.252.998 2.086 1.034a8.573 8.573 0 002.377-.218c.302-.072.617-.15.944-.235.326-.097.647-.182.961-.254.605-.133 1.21-.212 1.815-.236a3.604 3.604 0 011.778.4c.846.41 1.379.979 1.596 1.705.23.737.2 1.53-.09 2.376-.122.351-.303.69-.545 1.016-.254.327-.496.635-.725.925-.243.315-.497.612-.762.89-.28.29-.557.568-.835.834a25.758 25.758 0 01-2.016 1.654 28.221 28.221 0 01-2.556-.747 11.975 11.975 0 00-3.23-.653 7.333 7.333 0 00-2.921.363 7.42 7.42 0 00-2.54 1.524 7.903 7.903 0 00-.944 1.07c-.314.436-.514.89-.598 1.361a1.78 1.78 0 00-.037.345c0 .134.013.267.037.4.06.241.181.471.362.689.134.145.279.26.436.345.17.084.345.163.526.235.266.11.526.236.78.381.254.133.508.272.762.418.557.29 1.155.435 1.796.435h.091a12.85 12.85 0 001.96-.181c2.02-.339 3.949-1.095 5.787-2.268a18.712 18.712 0 002.85-2.24c.055.002.108.008.162.008 1.234.012 2.498-.193 3.792-.617a13.08 13.08 0 003.309-1.66 23.194 23.194 0 00-.087 2.277c.012.81.018 1.621.018 2.431-.012.81-.03 1.62-.054 2.431a66.107 66.107 0 00-.073 3.103v.018c0 1.028.024 2.056.073 3.085.024.725.036 1.457.036 2.195a66.18 66.18 0 000 2.196c0 .18.06.35.181.507.031.04.07.064.104.095 0 .023.009.046.005.068 0 .066.004.046.011-.054l.015.014c.023.216.154.33.41.33h.036c.229-.008.378-.096.453-.258l.014-.007a2.39 2.39 0 01.032-.09c-.003.03-.006.055-.01.078.03-.018.061-.027.092-.05a.67.67 0 00.272-.452c.109-.714.187-1.44.236-2.177.06-.727.181-1.44.363-2.141.12-.497.193-1.005.217-1.524.012-.52.049-1.028.11-1.524a76.49 76.49 0 00.199-1.633c.06-.533.102-1.07.127-1.615.024-.786.054-1.573.09-2.359a30.7 30.7 0 00-.018-2.358 18.35 18.35 0 01.073-2.577c.084-.847.187-1.7.308-2.558.043-.284.088-.576.134-.867.076-.086.154-.177.23-.258.314-.314.652-.64 1.015-.98a3.237 3.237 0 011.198-.708 3.78 3.78 0 011.524-.162c.544.06 1.052.169 1.524.326.556.17.967.496 1.234.98.266.484.453.998.562 1.542.113.527.09 1.065-.046 1.614-.172.024-.341.052-.516.073a6.993 6.993 0 00-2.014.545c-.351.157-.653.387-.908.689-.266.302-.52.587-.762.853-.35.399-.64.84-.87 1.324-.23.484-.43.974-.6 1.47-.169.532-.138 1.004.092 1.415.217.411.586.683 1.106.817.411.108.799.163 1.162.163h.018c.374 0 .762-.11 1.16-.327a8.137 8.137 0 001.616-1.107c.508-.435.955-.919 1.342-1.451a8.073 8.073 0 001.434-3.284c.039-.216.06-.432.075-.647.163-.039.32-.073.487-.115a8.012 8.012 0 001.05-.328c-.134.464-.241.94-.314 1.435a5.531 5.531 0 00-.055.78c0 .544.085 1.083.255 1.615.108.363.266.702.471 1.016.218.315.46.593.726.834.375.34.774.569 1.197.69.411.109.86.193 1.343.254.17.024.339.036.508.036.254 0 .508-.024.762-.073.411-.084.828-.169 1.252-.253a6.696 6.696 0 001.415-.454c.46-.194.901-.411 1.325-.653a14.553 14.553 0 002.558-1.796 15.938 15.938 0 002.147-2.254c.008.02.014.04.022.058.266.63.696 1.252 1.288 1.87.605.616 1.27.937 1.996.96.11.013.224.019.345.019.58 0 1.119-.073 1.615-.218a8.093 8.093 0 001.814-.762c.288-.16.557-.354.817-.565.08.305.17.614.272.928.399 1.185 1.04 2.135 1.923 2.848.58.46 1.185.69 1.814.69h.2a4.081 4.081 0 001.941-.653c.327-.206.635-.442.925-.708.291-.278.55-.568.78-.87.37-.5.695-1.03.976-1.59.027.374.068.747.123 1.117.085.678.255 1.295.509 1.851.224.47.396.976.534 1.505a.743.743 0 00.01.291c.073.29.278.448.617.472h.145a.472.472 0 00.345-.145.843.843 0 00.235-.345l.01-.026c.218-.295.355-.642.408-1.044l.003-.039c.096-.287.17-.616.215-.995a4.013 4.013 0 00-.091-1.361 13.67 13.67 0 01-.196-1.196c.004-.48.05-.966.139-1.46a.832.832 0 00.329-.011c.609-.13 1.24-.27 1.883-.415.389-.03.705.054.947.251.266.206.478.52.635.944.158.411.303.828.436 1.252.06.23.12.453.181.671l.2.562c.399.944.95 1.676 1.65 2.196.702.52 1.585.72 2.65.599 1.004-.122 1.814-.472 2.431-1.053a6.896 6.896 0 001.524-2.086c.206-.436.393-.895.563-1.38.169-.483.326-.967.471-1.45l.672-2.232c.23-.714.501-1.349.816-1.905a.462.462 0 00.073-.218c0-.133-.079-.236-.236-.309zm-77.277-7.312h-.001c-.047-.04-.043-.037 0 0zm.434 14.17c-.484.205-.986.387-1.506.544a8.608 8.608 0 01-1.796.309c-.605.036-1.215.102-1.832.2-.17.024-.484.078-.944.162-.471.085-.834.067-1.088-.054a.445.445 0 01-.2-.163.398.398 0 01-.054-.272c.06-.436.247-.841.562-1.216.327-.375.641-.701.943-.98.29-.278.611-.502.962-.671.35-.17.72-.297 1.107-.381a6.633 6.633 0 012.195-.11c.762.086 1.476.212 2.141.382.806.216 1.597.45 2.38.694-.467.302-.938.594-1.418.866-.472.254-.956.484-1.452.69zm22.8-1.252c-.28.302-.563.58-.854.834-.302.254-.629.484-.98.69-.193.109-.375.217-.544.326-.17.097-.308.212-.417.345.004-.047.007-.094.018-.145.06-.29.151-.58.272-.87.085-.194.175-.37.272-.527.085-.17.157-.302.218-.4.157-.265.363-.561.617-.888.254-.315.52-.556.798-.726.4-.23.865-.38 1.397-.454.147-.016.282-.036.422-.055a9.629 9.629 0 01-1.22 1.87zm39.546-4.01a8.136 8.136 0 01.944-2.268c.399-.677 1.022-1.191 1.869-1.542.52-.218.9-.254 1.143-.109.241.145.38.496.417 1.052.036.46-.085.841-.363 1.143-.266.303-.544.605-.835.908a9.233 9.233 0 01-1.814 1.505 8.2 8.2 0 01-1.747.853c.134-.526.264-1.043.386-1.542zm-.526-8.963c.036-.665.09-1.33.163-1.996.085-.665.2-1.324.345-1.977.072-.315.157-.66.254-1.035.097-.362.212-.725.345-1.088a6.554 6.554 0 011.016-1.85c.435-.545 1.01-.865 1.723-.962.496-.073.92-.037 1.27.108.351.158.642.382.871.672.411.532.623 1.21.635 2.032.024.823-.078 1.518-.308 2.086a9.037 9.037 0 01-1.67 2.686 13.448 13.448 0 01-2.412 2.213c-.484.351-.98.66-1.488.925a11.03 11.03 0 01-.802.398c.006-.741.022-1.48.058-2.212zM140.646 46.207c-.27-.148-.491-.099-.663.147-.503.724-1.245 1.276-2.227 1.656a8.637 8.637 0 01-1.725.447 7.327 7.327 0 00-.079-1.606 5.83 5.83 0 00-.276-1.03 3.055 3.055 0 00-.552-.866c-.503-.552-1.165-.81-1.987-.773-.823.037-1.51.264-2.062.681a2.52 2.52 0 00-.92 1.38c-.172.59-.123 1.142.147 1.657.27.49.681.846 1.233 1.067.565.22 1.098.375 1.602.46a9.613 9.613 0 001.702.103l-.028.21c-.049.27-.086.503-.11.7-.123.699-.436 1.41-.939 2.135-.503.711-1.104 1.183-1.803 1.417-.65.208-1.313.386-1.988.533a4.342 4.342 0 01-2.024-.037c-.639-.159-1.141-.54-1.51-1.14a4.506 4.506 0 01-.644-1.804 6.06 6.06 0 01.092-1.963 38.404 38.404 0 001.297-3.117.298.298 0 00.036-.128.264.264 0 00-.018-.097c.292-.38.648-.694 1.078-.934a5.206 5.206 0 011.95-.626c.246-.024.369-.16.369-.405 0-.233-.117-.35-.35-.35h-.018a6.788 6.788 0 00-2.614.57 9.064 9.064 0 00-2.263 1.418c-.749.614-1.282 1.35-1.602 2.209a9.09 9.09 0 00-.552 2.705v.294c0 .285.024.562.061.836-.206.244-.419.481-.642.71-.834.872-1.864 1.504-3.091 1.896a2.46 2.46 0 01-1.16.055 1.443 1.443 0 01-.938-.625c-.197-.282-.307-.638-.332-1.068-.036-.43-.055-.81-.055-1.14a13.278 13.278 0 01.313-3.314c.245-1.116.435-2.214.57-3.294.16-1.399.338-2.797.534-4.196a480.3 480.3 0 01.858-6.22c.247-.006.494-.01.743 0 .65.012 1.3-.02 1.951-.092.246-.025.368-.166.368-.424 0-.245-.122-.368-.368-.368h-.018c-.65 0-1.3.012-1.95.037-.207.003-.408.021-.613.029.091-.707.12-1.41.078-2.109a71.346 71.346 0 00-.129-1.675 12.96 12.96 0 01-.036-1.693c.012-.343-.148-.527-.479-.552h-.055c-.307 0-.51.141-.607.423a22.077 22.077 0 01-.626 1.712c-.221.565-.436 1.129-.644 1.693a10.712 10.712 0 00-.607 2.56c-.055.013-.111.021-.166.035a20.62 20.62 0 01-1.933.386c-.184.025-.276.13-.276.313a.31.31 0 00.019.093c.024.22.135.33.33.33h.038c.638-.06 1.27-.165 1.895-.312l.003-.001a59.26 59.26 0 01-.242 2.08c-.245 1.706-.497 3.424-.754 5.154a53.37 53.37 0 00-.553 5.171 41.082 41.082 0 00-.073 2.503c0 .331.006.669.018 1.012.025 1.24.289 2.368.792 3.387.478.981 1.153 1.54 2.024 1.674.233.037.466.056.7.056.637 0 1.294-.136 1.969-.405a8.445 8.445 0 001.84-1.05 9.954 9.954 0 001.546-1.416c.025-.029.048-.06.073-.088.092.248.198.493.324.732.527.982 1.233 1.73 2.116 2.245.479.295 1 .497 1.564.608.32.073.65.11.994.11.246 0 .503-.019.773-.056.368-.061.749-.14 1.141-.239.38-.11.736-.251 1.068-.423.355-.196.674-.436.957-.718.282-.282.57-.564.865-.847a8.992 8.992 0 001.454-1.693 5.9 5.9 0 00.865-2.06c.093-.43.172-.905.237-1.426a8.036 8.036 0 002.652-.783 6.822 6.822 0 001.233-.792c.38-.306.712-.668.994-1.085a.508.508 0 00.092-.258c0-.135-.086-.245-.257-.331zm-7.49 2.208a4.753 4.753 0 01-1.363-.515 1.43 1.43 0 01-.497-.424.965.965 0 01-.184-.478c-.037-.405.129-.785.497-1.14.356-.37.76-.584 1.215-.645.429-.062.779-.03 1.049.092.282.123.503.307.662.552.245.356.38.816.405 1.38.03.447.024.885-.001 1.317-.061.001-.122.008-.183.008a8.51 8.51 0 01-1.6-.147zM175.293 46.63c.098-.086.147-.178.147-.276 0-.086-.049-.178-.147-.276-.196-.184-.393-.19-.59-.019-.98.822-2.011 1.417-3.09 1.786-.277.096-.568.173-.851.26a2.706 2.706 0 00-.99-.96 9.004 9.004 0 00-1.675-.736l-.957-.294c-.3-.081-.587-.181-.865-.295.032-.013.06-.023.092-.037.43-.171.797-.398 1.104-.68.172-.148.313-.313.423-.497.099-.185.16-.393.185-.626.048-.601-.062-1.092-.332-1.473-.257-.367-.693-.57-1.306-.607a1.293 1.293 0 00-.203-.018c-.601 0-1.196.19-1.785.57-.638.405-1.129.877-1.473 1.417-.257.418-.294.817-.11 1.197.184.393.436.748.755 1.067.172.172.35.331.533.479.135.107.248.194.363.281-.233.47-.458.944-.667 1.43-.307.7-.639 1.393-.994 2.08-.221.417-.473.89-.755 1.417a9.097 9.097 0 01-.994 1.472 4.441 4.441 0 01-.644.626c-.22.196-.454.344-.7.442-.392.159-.686-.074-.883-.7-.196-.613-.325-1.318-.386-2.116-.062-.65-.092-1.27-.092-1.86 0-.576.006-.956.018-1.14.05-.859.13-1.705.24-2.54.11-.822.11-1.626 0-2.41a5.924 5.924 0 00-.332-1.252 5.737 5.737 0 00-.717-1.215c-.147-.184-.32-.276-.516-.276h-.092c-.245.025-.405.172-.478.442a25.627 25.627 0 00-1.05 5.061 24.637 24.637 0 00-.146 2.65c0 .871.049 1.718.147 2.54l.007.044c-.23.128-.463.258-.688.38-.761.392-1.638.527-2.632.404-.76-.086-1.307-.282-1.638-.589a2.309 2.309 0 01-.7-1.196 4.475 4.475 0 01-.11-.865c-.012-.307-.025-.644-.037-1.013 0-.22.019-.484.056-.79.036-.32.08-.67.129-1.05.085-.699.153-1.441.202-2.226.049-.786-.012-1.491-.184-2.117a2.718 2.718 0 00-.515-1.03c-.246-.295-.583-.485-1.013-.572a.332.332 0 01-.11-.018c-.11 0-.203.03-.276.092a.587.587 0 00-.258.313c-.331.945-.521 1.95-.57 3.019a48.698 48.698 0 01-.203 3.091c-.024.307-.049.638-.073.994-.013.246-.019.497-.019.755v.35a7.89 7.89 0 00.331 2.005c.197.639.571 1.148 1.123 1.528.97.675 1.988 1.012 3.055 1.012h.092a8.334 8.334 0 003.203-.717c.386-.172.765-.373 1.14-.587.084.224.178.45.295.678.319.65.742 1.19 1.27 1.62.282.245.583.436.902.57a2.8 2.8 0 001.049.24h.073c.491 0 .945-.172 1.362-.516a6.606 6.606 0 001.16-1.251c.035-.05.061-.095.095-.144.096.836.44 1.396 1.038 1.671a6.57 6.57 0 002.08.534c.11.012.226.019.35.019.539.012 1.085-.111 1.637-.368a7.322 7.322 0 001.877-1.289 8.065 8.065 0 001.951-2.926c.373-.954.436-1.84.196-2.663.438-.145.866-.304 1.277-.484a11.538 11.538 0 002.889-1.822zm-10.325-3.203c.172-.17.368-.306.59-.404.22-.098.44-.184.662-.258.405.614.589 1.11.552 1.49-.025.381-.258.657-.7.83-.172.072-.343.146-.515.22-.078.033-.155.06-.233.091-.107-.054-.223-.103-.32-.165-.318-.208-.508-.454-.57-.736-.061-.282.117-.638.534-1.068zm-.618 6.24c.344-.748.644-1.5.924-2.254.208.129.419.248.633.358.441.22.865.466 1.27.736.194.122.395.237.601.347a6.165 6.165 0 00-1.834.794c-.687.43-1.338.878-1.951 1.344a7.983 7.983 0 00-.491.41c.293-.564.578-1.14.848-1.736zm4.17.478l-.478.957c-.27.516-.62.963-1.05 1.344-.429.392-.907.699-1.435.92-.184.073-.374.147-.57.22-.184.087-.362.172-.534.259-.552.012-.902-.062-1.05-.222-.146-.147-.097-.38.148-.7.099-.158.209-.312.331-.46.11-.134.233-.269.368-.404a9.418 9.418 0 012.264-1.675c.67-.345 1.37-.607 2.096-.793.035.16.009.344-.09.554zM177.611 50.384h-.092c-.552 0-1.018.221-1.398.663-.405.478-.663.982-.773 1.51a2.463 2.463 0 000 1.03c.073.343.232.65.478.92a1.5 1.5 0 00.902.515 3.086 3.086 0 001.068-.018c.257-.049.478-.203.662-.46.184-.258.27-.516.258-.773a3.095 3.095 0 00-.056-.332 3.375 3.375 0 00-.055-.313.91.91 0 00-.383-.601c.035-.03.07-.06.11-.086l-.113.062c.147-.086.27-.19.368-.313a.975.975 0 00.166-.405c.011-.061.018-.129.018-.202 0-.246-.086-.485-.258-.718-.209-.294-.51-.454-.902-.479zm.288 2.654l.007.015-.007-.015zm.154-.335l-.026.034c.002-.005.008-.01.008-.015.012 0 .018-.006.018-.019zM180.401 28.925a1.026 1.026 0 00-.184-.46 1.297 1.297 0 00-.773-.533 1.736 1.736 0 00-.424-.056c-.196 0-.38.043-.552.129a1.259 1.259 0 00-.736.865 38.39 38.39 0 00-1.122 5.116 61.849 61.849 0 00-.552 5.208l-.074 1.27c-.025.43-.043.853-.055 1.27v.626l.037.644c.024.234.03.491.018.773-.012.295.025.553.11.773.099.283.19.607.277.976.073.368.06.693-.037.975-.123.331-.068.583.165.755.221.172.393.368.516.589.073.147.184.227.33.239a.45.45 0 00.167-.037c.232-.074.35-.22.35-.441v-.258a1.85 1.85 0 00-.02-.258c0-.075 0-.135-.003-.18.021-.031.046-.072.078-.133a1.11 1.11 0 00.128-.534c.012-.196.037-.38.074-.552.037-.196.08-.392.129-.588.061-.197.11-.393.147-.59.098-.392.16-.81.184-1.251.012-.442.037-.859.074-1.252.048-.417.073-.84.073-1.27.012-.428.03-.852.055-1.27.099-1.68.276-3.355.534-5.024a39.659 39.659 0 011.05-4.932c.036-.135.054-.264.054-.386 0-.074-.006-.141-.018-.203z"/><g><path class="st1" d="M55.138 82.89c-.426 0-.639-.279-.639-.835 0-3.193-.073-6.148-.22-8.865a7.097 7.097 0 00-1.265-.123 2.7 2.7 0 00-1.056.196c0 .934.07 2.346.208 4.236.14 1.892.21 3.32.21 4.286a.77.77 0 01-.148.454.458.458 0 01-.393.209c-.459.008-.794-1.429-1.007-4.31-.287-3.905-.43-8.627-.43-14.17 0-.302.143-.454.43-.454.156 0 .323.043.504.13.18.085.307.177.38.276a19.707 19.707 0 00-.086 1.89l.172 5.17-.025.945c0 .238.017.454.05.65l2.443-.183-.098-8.251v-.663c.638 0 1.019.286 1.142.86.057.278.085.986.085 2.123 0 1.138.08 3.551.24 7.238.16 3.688.24 6.448.24 8.282 0 .221-.07.428-.21.62-.139.192-.315.289-.527.289zM63.082 82.497c-.516 0-.774-.217-.774-.651v-3.278c-.237-.164-.665-.303-1.283-.418a14.73 14.73 0 00-1.651-.22c-.172.294-.313.72-.424 1.276-.11.557-.225 1.117-.344 1.682-.118.565-.276 1.011-.472 1.339-.655 0-1.024-.168-1.106-.504.23-.327.602-2.001 1.118-5.022.515-3.02.94-5.383 1.27-7.09s.69-3.142 1.075-4.304c.385-1.162.753-1.744 1.105-1.744s.622.074.81.222c0 .597.164 2.214.492 4.85.327 2.635.49 4.34.49 5.113s.089 2.06.265 3.856c.176 1.797.264 3.145.264 4.045 0 .565-.278.848-.835.848zm-1.056-8.208a379.87 379.87 0 01-.4-4.248c-.118-1.347-.177-2.161-.177-2.444s.004-.444.012-.485c-.262.27-.64 1.772-1.136 4.506-.495 2.734-.759 4.465-.791 5.194.695.188 1.278.282 1.749.282.47 0 .804-.025 1-.073-.024-.336-.11-1.246-.257-2.732zM65.721 81.797l.123-8.975c0-3.946-.216-6.938-.65-8.976.262-.376.585-.565.97-.565.622 0 1.188.14 1.7.418.511.278.927.646 1.246 1.105.664.958.995 2.05.995 3.278 0 1.228-.266 2.343-.798 3.346-.532 1.002-1.314 1.782-2.345 2.339l.196 7.833c0 .696-.278 1.044-.835 1.044a.486.486 0 01-.454-.264 1.175 1.175 0 01-.148-.583zm1.18-9.246c1.276-1.195 1.915-2.615 1.915-4.26v-.013c0-.94-.115-1.6-.344-1.976-.115-.18-.207-.322-.276-.424-.07-.102-.211-.24-.424-.411a29.02 29.02 0 00-1.166-.872c0 .884.049 2.21.147 3.978s.147 3.094.147 3.978zM71.8 81.797l.122-8.975c0-3.946-.216-6.938-.65-8.976.261-.376.584-.565.97-.565.622 0 1.188.14 1.7.418.511.278.927.646 1.246 1.105.664.958.995 2.05.995 3.278 0 1.228-.266 2.343-.798 3.346-.532 1.002-1.314 1.782-2.345 2.339l.196 7.833c0 .696-.278 1.044-.835 1.044a.486.486 0 01-.454-.264 1.175 1.175 0 01-.148-.583zm1.178-9.246c1.277-1.195 1.916-2.615 1.916-4.26v-.013c0-.94-.115-1.6-.344-1.976-.115-.18-.207-.322-.276-.424-.07-.102-.211-.24-.424-.411a29.02 29.02 0 00-1.167-.872c0 .884.05 2.21.148 3.978s.147 3.094.147 3.978zM79.424 82.202l.123-4.862c0-.491-.08-1.217-.24-2.18-.16-.961-.24-1.735-.24-2.32 0-.585-.1-1.297-.3-2.136-.2-.84-.423-1.595-.67-2.266-.646-1.76-.97-3.262-.97-4.506 0-.123.073-.227.216-.313.143-.086.292-.13.448-.13s.32.193.497.578c.176.385.338.876.485 1.473.147.598.285 1.196.412 1.793.127.598.243 1.177.35 1.737.106.561.184.923.233 1.087.033-.147.071-.497.116-1.05.045-.552.097-1.12.154-1.7.065-.59.147-1.179.246-1.768.22-1.35.554-2.026 1-2.026.446 0 .67.09.67.27 0 .941-.202 2.345-.602 4.211-.401 1.866-.602 3.283-.602 4.249l-.074.871v.38l.136 6.668.085 1.252v.565c0 .221-.084.4-.251.534a.855.855 0 01-.547.203.683.683 0 01-.485-.178.572.572 0 01-.19-.436zM86.324 63.318c.459 0 1.233 3.524 2.321 10.572.426 2.758.659 4.244.7 4.457.114-.942.32-2.452.614-4.53.622-4.29.929-7.646.92-10.069.262-.336.57-.503.921-.503l.529.282c-.042.286-.131 1.1-.27 2.443-.14 1.343-.27 2.546-.393 3.61s-.242 2.069-.357 3.014c-.114.946-.239 1.944-.374 2.996s-.264 1.998-.387 2.837-.245 1.606-.368 2.302c-.262 1.465-.475 2.197-.638 2.197a.744.744 0 01-.59-.27c-.41-1.686-1.007-4.958-1.793-9.816-.786-4.858-1.297-7.868-1.534-9.03.098-.328.331-.492.7-.492zM98.468 82.497c-.516 0-.774-.217-.774-.651v-3.278c-.237-.164-.665-.303-1.283-.418a14.73 14.73 0 00-1.652-.22c-.171.294-.312.72-.423 1.276-.11.557-.225 1.117-.344 1.682-.118.565-.276 1.011-.472 1.339-.655 0-1.024-.168-1.106-.504.23-.327.602-2.001 1.118-5.022s.94-5.383 1.27-7.09c.332-1.707.69-3.142 1.075-4.304.385-1.162.753-1.744 1.105-1.744s.622.074.81.222c0 .597.164 2.214.492 4.85.327 2.635.49 4.34.49 5.113s.088 2.06.264 3.856c.176 1.797.265 3.145.265 4.045 0 .565-.279.848-.835.848zm-1.056-8.208c-.147-1.486-.28-2.902-.4-4.248-.118-1.347-.177-2.161-.177-2.444s.004-.444.012-.485c-.262.27-.64 1.772-1.136 4.506-.495 2.734-.759 4.465-.792 5.194.696.188 1.28.282 1.75.282s.804-.025 1-.073c-.024-.336-.11-1.246-.257-2.732zM102.397 72.993l.024.799v.11c.065 1.457.099 3.642.099 6.557v.638h1.915c.36.245.54.479.54.7a.808.808 0 01-.184.546c-.123.143-.25.215-.38.215s-.283-.028-.455-.086a2.112 2.112 0 01-.48.049l-.809-.037c-.172.205-.387.307-.645.307s-.474-.08-.65-.239a.734.734 0 01-.265-.559l.16-1.105c0-1.907-.084-4.765-.252-8.576-.168-3.81-.251-6.67-.251-8.576 0-.156.06-.28.184-.375.123-.094.276-.141.46-.141s.352.07.504.209c.151.139.227.31.227.515l.258 9.05zM108.928 73.3l-.625-.024c-.246 0-.418.061-.516.184v7.76a69.51 69.51 0 011.4-.074c.957 0 1.436.221 1.436.663v.086c-.115.23-.311.405-.59.528a2.326 2.326 0 01-.736.209c-.213.016-.487.024-.823.024h-.785c-.623 0-1.007-.122-1.155-.368a.909.909 0 01-.098-.455v-14.61c0-.287-.057-.713-.172-1.277-.114-.565-.172-.995-.172-1.29v-.085c.279-.459.487-.754.626-.885l1.867-.22c.253 0 .51.075.767.226.258.152.387.35.387.596 0 .5-.38.749-1.142.749l-.724-.025c-.123 0-.213.005-.27.013l.196 4.15c0 .336-.02.825-.062 1.467a25.05 25.05 0 00-.06 1.406c.089-.016.212-.045.368-.086.343-.09.611-.135.804-.135.192 0 .364.07.515.209a.66.66 0 01.227.503.829.829 0 01-.184.528.58.58 0 01-.479.233zM111.765 69.335l.172-4.617v-.16c0-.835.184-1.252.553-1.252.335 0 .786.778 1.35 2.333 1.032 2.824 2.268 7.485 3.708 13.985l.025.123.098-8.768v-7.44c.098-.417.373-.626.823-.626.45 0 .675.327.675.982v.147c-.098.205-.147.45-.147.737l-.16 9.295v7.686c0 .254-.07.503-.209.749-.139.246-.311.368-.516.368-.351 0-1.039-1.725-2.062-5.175a276.269 276.269 0 01-3.033-11.13v8.25c0 .803.06 1.998.178 3.586.119 1.588.178 2.783.178 3.585 0 .156-.094.285-.282.387-.188.102-.428.154-.719.154s-.435-.131-.435-.393l.123-1.805c0-.868-.054-2.276-.16-4.224-.107-1.948-.16-3.139-.16-3.573v-3.204zM123.933 67.91l-.05 3.241.222 5.784.209 4.518c0 .819-.242 1.228-.725 1.228-.278 0-.483-.131-.614-.393s-.196-.552-.196-.872l.196-4.015c0-.867-.057-2.173-.172-3.916-.114-1.744-.171-3.05-.171-3.917l.036-2.198c0-1.204-.078-1.985-.233-2.345l-1.363.135a.918.918 0 01-.57-.19.588.588 0 01-.253-.492c0-.2.2-.37.602-.51.41-.147.9-.253 1.474-.318 1.006-.115 1.853-.172 2.54-.172a.87.87 0 01.56.202.627.627 0 01.251.51.59.59 0 01-.22.485.831.831 0 01-.541.178l-.896-.05c-.115 0-.2.005-.258.013.114.966.172 1.997.172 3.094zM129.728 64.804l-.442-.013c-.164 0-.285.035-.362.105-.078.07-.117.207-.117.411 0 1.637.103 4.089.307 7.355.205 3.266.307 5.717.307 7.354v.97c.172-.024.344-.036.516-.036.695 0 1.043.294 1.043.883v.148l-.625.43-1.707.061c-1.45 0-2.174-.25-2.174-.749 0-.4.254-.601.762-.601l.528.036c.245 0 .368-.196.368-.589 0-1.293-.078-3.231-.233-5.814-.156-2.582-.234-4.52-.234-5.814l.05-2.566c0-.54-.021-1.007-.062-1.4-.22.074-.417.111-.59.111-.392 0-.589-.2-.589-.602 0-.204.127-.382.38-.534.255-.15.57-.26.946-.325.704-.123 1.226-.184 1.566-.184.34 0 .583.067.73.202.148.136.221.295.221.48a.734.734 0 01-.165.478.524.524 0 01-.424.203zM132.159 69.335l.172-4.617v-.16c0-.835.184-1.252.553-1.252.335 0 .786.778 1.35 2.333 1.031 2.824 2.268 7.485 3.708 13.985l.025.123.098-8.768v-7.44c.098-.417.373-.626.822-.626.45 0 .676.327.676.982v.147c-.098.205-.147.45-.147.737l-.16 9.295v7.686c0 .254-.07.503-.209.749-.139.246-.311.368-.516.368-.351 0-1.039-1.725-2.062-5.175a276.27 276.27 0 01-3.033-11.13v8.25c0 .803.06 1.998.178 3.586.119 1.588.178 2.783.178 3.585 0 .156-.094.285-.282.387-.188.102-.428.154-.719.154-.29 0-.435-.131-.435-.393l.122-1.805c0-.868-.053-2.276-.159-4.224-.107-1.948-.16-3.139-.16-3.573v-3.204zM143.983 73.3l-.626-.024c-.245 0-.417.061-.516.184v7.76c.86-.05 1.326-.074 1.4-.074.958 0 1.437.221 1.437.663v.086c-.115.23-.311.405-.59.528a2.325 2.325 0 01-.736.209c-.213.016-.487.024-.823.024h-.785c-.623 0-1.007-.122-1.155-.368a.909.909 0 01-.098-.455v-14.61c0-.287-.057-.713-.172-1.277-.115-.565-.172-.995-.172-1.29v-.085c.279-.459.487-.754.626-.885l1.867-.22c.253 0 .51.075.767.226.258.152.387.35.387.596 0 .5-.38.749-1.142.749l-.724-.025c-.123 0-.213.005-.27.013l.196 4.15c0 .336-.02.825-.062 1.467a25.06 25.06 0 00-.06 1.406c.089-.016.212-.045.368-.086.343-.09.611-.135.804-.135.192 0 .364.07.515.209a.66.66 0 01.227.503.829.829 0 01-.184.528.58.58 0 01-.479.233zM147.102 69.236c-.147-.032-.22-.188-.22-.466 0-.279.085-.84.257-1.682.172-.843.427-1.693.767-2.548.34-.856.69-1.283 1.05-1.283.303 0 .454.184.454.552 0 .712-.123 1.496-.368 2.351-.246.856-.552 1.583-.921 2.18-.368.597-.708.896-1.02.896zM150.748 82.214c0-.45.189-.675.565-.675.189 0 .436.064.743.19.307.128.573.19.798.19s.469-.143.731-.43c.262-.285.466-.642.614-1.067.302-.868.454-1.652.454-2.351 0-.7-.123-1.451-.368-2.254a14.615 14.615 0 00-.897-2.259c-.352-.704-.708-1.407-1.068-2.112-.851-1.678-1.273-3.208-1.265-4.592-.008-1.31.406-2.337 1.24-3.082.442-.393.963-.59 1.56-.59.303 0 .597.085.884.253.286.168.487.386.602.657l-.43.54c-.418 0-.745-.082-.982-.246-.311.033-.582.18-.81.442-.418.483-.627 1.08-.627 1.787 0 .708.09 1.397.27 2.069.18.671.405 1.272.676 1.804.27.533.56 1.11.871 1.732.32.622.614 1.22.884 1.792.63 1.327.946 2.76.946 4.298.008 1.08-.267 2.12-.823 3.119a3.337 3.337 0 01-1.08 1.172c-.459.307-.97.46-1.535.46-.606 0-1.083-.09-1.43-.27-.349-.18-.523-.372-.523-.577zM166.784 73.251l.062.528c.008 1.187-.307 2.587-.946 4.2-.72 1.84-1.571 3.147-2.554 3.916-.557.442-1.13.667-1.719.675a1.69 1.69 0 01-.847-.214.695.695 0 01-.38-.645c.368-.385.552-1.371.552-2.959 0-.933-.078-2.321-.233-4.163-.156-1.841-.234-3.22-.234-4.137l.074-2.75c0-.443-.092-1.038-.276-1.787-.184-.75-.276-1.279-.276-1.59 0-.581.642-.872 1.927-.872h.381c1.71 0 2.951.958 3.72 2.873.54 1.334.81 3.177.81 5.526v1.166a.473.473 0 00-.06.233zm-4.628 5.452v2.406c.63-.409 1.178-.98 1.645-1.712a8.987 8.987 0 001.068-2.4c.458-1.663.687-3.32.687-4.974 0-1.899-.237-3.397-.712-4.493-.483-1.13-1.08-1.875-1.792-2.235a3.105 3.105 0 00-1.498-.332v.025c0 1.514.1 3.794.3 6.84.201 3.044.302 5.336.302 6.875zM173.255 82.497c-.516 0-.774-.217-.774-.651v-3.278c-.237-.164-.665-.303-1.283-.418a14.73 14.73 0 00-1.652-.22c-.171.294-.312.72-.423 1.276-.11.557-.225 1.117-.344 1.682-.118.565-.276 1.011-.472 1.339-.655 0-1.024-.168-1.106-.504.23-.327.602-2.001 1.118-5.022s.94-5.383 1.27-7.09c.332-1.707.69-3.142 1.075-4.304.385-1.162.753-1.744 1.105-1.744s.622.074.81.222c0 .597.164 2.214.492 4.85.327 2.635.49 4.34.49 5.113s.088 2.06.264 3.856c.177 1.797.265 3.145.265 4.045 0 .565-.279.848-.835.848zm-1.056-8.208c-.147-1.486-.28-2.902-.4-4.248-.118-1.347-.177-2.161-.177-2.444s.004-.444.012-.485c-.262.27-.64 1.772-1.136 4.506-.495 2.734-.759 4.465-.792 5.194.696.188 1.28.282 1.75.282s.804-.025 1-.073c-.024-.336-.11-1.246-.257-2.732zM177.073 82.202l.123-4.862c0-.491-.08-1.217-.239-2.18-.16-.961-.24-1.735-.24-2.32 0-.585-.1-1.297-.3-2.136-.201-.84-.424-1.595-.67-2.266-.646-1.76-.97-3.262-.97-4.506 0-.123.072-.227.215-.313.143-.086.293-.13.448-.13s.321.193.498.578c.175.385.337.876.485 1.473.147.598.284 1.196.411 1.793.127.598.243 1.177.35 1.737.106.561.184.923.233 1.087.033-.147.072-.497.117-1.05.045-.552.096-1.12.153-1.7.066-.59.148-1.179.246-1.768.221-1.35.554-2.026 1-2.026.447 0 .67.09.67.27 0 .941-.201 2.345-.602 4.211-.401 1.866-.602 3.283-.602 4.249l-.073.871v.38l.135 6.668.086 1.252v.565c0 .221-.084.4-.252.534a.855.855 0 01-.546.203.683.683 0 01-.485-.178.572.572 0 01-.19-.436z"/></g><g><path class="st2" d="M8.002 27.54H8zM45.392 14.915c-.188.02-.277.112-.268.273a13.72 13.72 0 01-.216 2.696 5.854 5.854 0 01-1.048 2.442c-.101.128-.285.26-.551.4-.274.14-.486.246-.636.314-.305.128-.573.114-.805-.04a7.92 7.92 0 01-.667-.515 2.344 2.344 0 01-.564-.668c-.13-.243-.254-.501-.372-.774a68.464 68.464 0 01-1.07-2.422c-.127-.295-.25-.596-.376-.892.028-.27.106-.595.24-.984.424-1.185.71-2.435.845-3.752.141-1.328.063-2.616-.252-3.867a3.874 3.874 0 00-.275-.714 4.278 4.278 0 00-.424-.731 3.401 3.401 0 00-1.211-1.013c-.488-.242-1.04-.259-1.648-.046a.525.525 0 00-.027.01c-.692.25-1.117.654-1.279 1.202a4.392 4.392 0 00-.163 1.742c.027.319.072.64.132.966.065.314.117.606.158.876.26 1.53.652 3.054 1.163 4.573a49.687 49.687 0 001.718 4.461c.158.364.345.744.559 1.14.163.303.345.59.536.868-.043.052-.075.112-.12.163-.241.293-.516.55-.822.774-.126.101-.32.241-.58.422-.258.19-.52.347-.787.47a3.002 3.002 0 01-.522.185.573.573 0 01-.419-.055c-.516-.277-.894-.715-1.133-1.32a3.777 3.777 0 01-.283-1.798c.03-.316.105-.62.225-.909a1.99 1.99 0 01.504-.752 1.89 1.89 0 01.735-.437c.293-.097.625-.124.995-.079.148.014.239-.051.274-.197.042-.15-.012-.244-.164-.284a3.72 3.72 0 00-1.125-.153 3.23 3.23 0 00-2.556 1.193 3.394 3.394 0 00-.738 1.742c-.09.705.027 1.447.337 2.227.055.147.117.29.187.43.04.078.085.15.127.226-.032.183-.06.365-.104.549a8.086 8.086 0 01-1.405 3.041 5.47 5.47 0 01-1.046 1.037 1.893 1.893 0 01-1.404.385 4.895 4.895 0 01-.914-.165c-.254-.076-.493-.275-.719-.598-.475-.68-.758-1.465-.839-2.362a12.461 12.461 0 01.017-2.51c.028-.296.098-.554.21-.773.1-.222.271-.428.515-.617.232-.192.534-.331.906-.418.368-.094.663.022.882.345.192.282.218.614.08.995a5.66 5.66 0 01-.423.939c-.194.32-.439.604-.734.854-.29.256-.598.476-.923.662-.144.077-.167.182-.07.316.096.144.215.178.359.102a6.16 6.16 0 001.612-1.303c.499-.552.773-1.173.812-1.867.036-.605-.143-1.051-.544-1.332-.405-.288-.911-.372-1.514-.25a3.455 3.455 0 00-1.041.384c-.384.224-.69.52-.92.89a5.127 5.127 0 00-.73 2.186c-.04.432-.042.86-.006 1.286.028.43.086.836.17 1.22.12.518.301 1.03.542 1.538.059.122.131.24.205.358a8.173 8.173 0 01-.92 2.969c-.226.41-.517.796-.87 1.159a1.773 1.773 0 01-1.295.556 4.52 4.52 0 01-.894-.053c-.253-.043-.507-.212-.765-.506a4.744 4.744 0 01-.63-.927 4.968 4.968 0 00-.177-.908 3.782 3.782 0 00-.305-.748c-.025-.047-.056-.092-.082-.138-.133-.71-.223-1.388-.236-2.017-.013-.298.02-.562.097-.794.065-.233.202-.458.41-.676.196-.219.467-.395.812-.526.34-.138.639-.06.893.234.222.257.291.582.21.978-.08.396-.173.723-.28.984-.142.342-.339.655-.589.938-.244.291-.51.548-.796.771-.128.095-.136.202-.024.323.11.132.228.15.355.057a5.95 5.95 0 001.372-1.492c.406-.61.585-1.26.53-1.954-.047-.607-.279-1.026-.702-1.256-.428-.235-.926-.256-1.487-.06a3.26 3.26 0 00-.946.508c-.337.269-.59.601-.761.995a5.25 5.25 0 00-.404 2.26c.02.434.076.86.166 1.277.085.424.194.82.326 1.191.178.49.413.966.7 1.43a4.9 4.9 0 01-.266.894c-.135.32-.327.62-.575.904-.244.29-.52.486-.834.59a1.193 1.193 0 01-.51.077 1.143 1.143 0 01-.53-.16 3.866 3.866 0 01-1.052-.84c-.315-.344-.624-.677-.926-1.001a19.33 19.33 0 01-1.155-1.328c-.363-.46-.74-.91-1.131-1.353a19.06 19.06 0 00-1.291-1.313c-.462-.416-.94-.807-1.436-1.174a7.783 7.783 0 00-.652-.447 11.208 11.208 0 00-.959-.529 5.369 5.369 0 00-.288-.103 1.67 1.67 0 00-.227-.059 1.06 1.06 0 00-.226-.047l-.294-.01c-.258-.013-.278-.007-.062.016-.643-.056-1.189.05-1.63.313a2.995 2.995 0 00-1.025 1.056c-.142.24-.255.494-.341.762-.09.273-.155.554-.192.842-.076.439-.1.88-.075 1.326.03.44.087.842.17 1.209.036.131.08.257.128.383a4.624 4.624 0 00-1.468-.338c-.307-.01-.616.02-.925.089a2.693 2.693 0 00-.87.391c-.257.171-.461.372-.613.6a.648.648 0 00-.063.116 2.695 2.695 0 00-.332.913c-.107.603-.065 1.234.122 1.892.176.66.395 1.23.654 1.71a.303.303 0 00.113.141c.077.049.17.043.283-.014.178-.1.222-.24.132-.419a6.516 6.516 0 01-.483-1.302 5.134 5.134 0 01-.16-1.369c.002-.47.146-.884.435-1.242.284-.351.698-.445 1.233-.277a.517.517 0 01.215.126c.06.059.122.114.186.166.023.024.11.096.258.214.142.113.188.148.137.105.13.115.263.228.397.338l.412.335c.24.202.495.425.763.669.258.246.525.486.8.719.58.508 1.144 1.055 1.691 1.644A28.101 28.101 0 018.8 38.8c.244.323.49.635.738.937a5.4 5.4 0 00.843.818.723.723 0 00.14.112c.011.008.022.012.034.019.004.007.005.01.012.019.045.075.084.15.119.227a5.72 5.72 0 01.299.634c.06.136.123.27.187.399.147.276.34.417.58.427.241.01.419-.075.535-.257l.006-.01a.592.592 0 00.09-.213.757.757 0 00.019-.275 1.977 1.977 0 00-.132-.534 15.38 15.38 0 00-.197-.503 2.251 2.251 0 00-.109-.237 98.072 98.072 0 01-.1-.23l-.065-.113a19.882 19.882 0 00-.053-.131c.084.196.11.237.075.12a2.356 2.356 0 01-.07-.292 3.634 3.634 0 00-.527-1.402 17.027 17.027 0 00-.877-1.25 32.494 32.494 0 00-1.962-2.317 14.703 14.703 0 00-2.157-1.892l-.15-.108c-.283-.195-.594-.38-.919-.558 0-.03 0-.06-.01-.094a10.897 10.897 0 01-.344-1.89c-.063-.698.061-1.32.378-1.861.095-.152.243-.312.444-.48.203-.166.413-.219.628-.157.095.028.19.05.283.065l.223.039c.068.049.131.09.19.121a2.822 2.822 0 00.352.167l.018.009c.999.56 1.905 1.245 2.72 2.046.81.795 1.652 1.54 2.525 2.238.44.352.866.704 1.28 1.057.42.357.851.7 1.293 1.026a7.06 7.06 0 001.052.661c.367.199.752.313 1.154.344.218.015.426-.003.627-.055.2-.062.39-.144.57-.245.301-.165.57-.391.811-.68l.084-.094c.265-.327.488-.656.665-.986.13-.25.232-.515.316-.79.134.12.276.232.428.334.206.144.424.256.654.336.236.076.468.122.696.142.321.026.608-.014.863-.12.244-.108.497-.242.758-.402.093-.054.18-.116.264-.183.125-.1.24-.214.347-.34.169-.208.342-.417.52-.629.203-.242.38-.507.529-.797.155-.284.293-.573.412-.868.267-.632.469-1.285.604-1.963.018-.088.026-.177.042-.266.084.086.166.174.259.253.192.168.403.306.63.415.233.105.466.18.698.228.327.067.628.064.904-.009a6.73 6.73 0 00.833-.301c.102-.042.2-.091.295-.147.142-.084.275-.182.4-.293.202-.184.407-.369.618-.556a4.38 4.38 0 00.648-.721c.196-.26.375-.529.537-.806.357-.59.65-1.21.88-1.864.12-.336.223-.675.309-1.018.156.184.322.358.504.515.314.276.66.489 1.042.639.381.15.79.21 1.227.18a2.744 2.744 0 001.695-.719c.497-.44.932-.944 1.303-1.512.15-.218.284-.444.418-.67.14.139.278.277.43.399.395.329.83.54 1.309.632.265.047.536.053.812.02a2.762 2.762 0 00.898-.265 3.03 3.03 0 001.085-.783c.296-.336.543-.72.744-1.154a7.499 7.499 0 00.656-2.63c.076-.963.087-1.811.03-2.545a.28.28 0 00-.017-.112c-.04-.1-.137-.147-.29-.136zM6.709 27.775c-.025-.017-.02-.013 0 0zm30.161-16.68a14.07 14.07 0 00-.734-1.542 6.35 6.35 0 01-.593-1.58 4.246 4.246 0 01-.118-1.156c.015-.397.13-.763.347-1.097.12-.185.257-.318.412-.398.154-.081.32-.121.497-.12.323.003.644.1.96.294.32.2.56.42.72.657.336.505.554 1.057.656 1.656.107.607.148 1.218.126 1.831-.005.318-.025.637-.06.957-.033.319-.07.621-.11.908-.066.497-.158.99-.275 1.48-.124.49-.27.975-.434 1.455-.036-.086-.075-.17-.112-.257-.214-.514-.431-1.027-.651-1.54-.212-.515-.422-1.031-.63-1.549zM97.37 16.013c-.185-.159-.351-.171-.499-.037-.42.39-.966.591-1.637.608-.462.01-.9 0-1.327-.02a3.678 3.678 0 00-.196-1.361c-.212-.648-.6-1.225-1.164-1.726a5.744 5.744 0 00-2.536-1.337 3.883 3.883 0 00-1.222-.11 4.414 4.414 0 00-1.636.498c-.025.013-.052.03-.077.044l.046-.138c.07-.234.12-.468.15-.703.044-.332.038-.67-.017-1.014-.036-.257-.197-.466-.484-.626a1.469 1.469 0 00-.424-.163 1.047 1.047 0 00-.399-.006.707.707 0 00-.246.087.534.534 0 00-.182.175 4.792 4.792 0 00-.685 1.543c-.151.559-.305 1.105-.462 1.637-.16.557-.306 1.116-.438 1.678l-.007.036a11.375 11.375 0 01-1.766 1.62c-.66.496-1.359.88-2.1 1.153-.26.098-.526.166-.799.206a3.026 3.026 0 01-.854.022 1.303 1.303 0 01-.72-.279 4.18 4.18 0 01-.538-.537c-.306-.367-.462-.812-.469-1.337a26.34 26.34 0 01.013-1.387c.033-.777.112-1.544.211-2.307a.27.27 0 00.217-.07 32.19 32.19 0 003.173-3.006 16.821 16.821 0 002.466-3.503c.254-.475.435-.99.542-1.542.116-.561.067-1.12-.155-1.678-.213-.556-.605-.985-1.175-1.28a6.612 6.612 0 00-2.01-.66 2.072 2.072 0 00-1.362.322c-.455.306-.825.61-1.113.912a7.322 7.322 0 00-1.275 1.8 10.491 10.491 0 00-.715 2.04c-.154.65-.25 1.248-.29 1.792-.048.537-.117 1.12-.205 1.751-.097.606-.19 1.211-.28 1.818-.08.606-.14 1.22-.185 1.837-.007.22-.012.445-.011.673 0 .076.007.152.009.228a8.95 8.95 0 01-.862.971 8.688 8.688 0 01-2.989 1.904c-.48.18-1.01.302-1.584.367a2.444 2.444 0 01-1.611-.372 5.96 5.96 0 01-.836-.598 1.108 1.108 0 01-.252-.34c.163-.448.294-.91.384-1.389.082-.434.141-.866.177-1.297a63.5 63.5 0 00.054-.964c.313-.543.65-1.035 1.014-1.47.191-.24.402-.424.634-.556.221-.139.505-.229.85-.269.336-.047.712-.015 1.129.097.415.103.642.35.682.734.036.336-.12.631-.463.888a6.197 6.197 0 01-.929.59 4.159 4.159 0 01-1.19.364c-.428.074-.854.109-1.279.106-.185-.006-.264.073-.238.236.018.172.118.26.303.266a7.791 7.791 0 002.307-.312c.794-.221 1.4-.615 1.815-1.186.365-.499.431-.967.19-1.407-.242-.447-.696-.772-1.359-.969a4.455 4.455 0 00-1.243-.192 3.283 3.283 0 00-1.405.299 5.42 5.42 0 00-1.93 1.504c-.277.35-.512.717-.706 1.1a6.903 6.903 0 00-.485 1.13 6.164 6.164 0 00-.273 1.592 3.515 3.515 0 00.334 1.606c.036.08.081.155.124.232-.029.046-.052.091-.083.138a2.31 2.31 0 01-1.017.826c-.47.203-.919.226-1.35.069a2.218 2.218 0 01-1.044-.733 1.934 1.934 0 01-.33-.617 1.893 1.893 0 01-.12-.691 5.685 5.685 0 00-.107-1.326c-.08-.445-.132-.89-.157-1.333a30.49 30.49 0 01-.026-1.535c.004-.514-.02-1.029-.075-1.544-.09-.75-.206-1.494-.348-2.231-.142-.736-.23-1.48-.264-2.23a43.526 43.526 0 00-.14-2.385c-.069-.797-.147-1.596-.232-2.4-.023-.196-.156-.309-.4-.338a.697.697 0 00-.121.003c-.169.021-.26.116-.274.283a39.136 39.136 0 00-.14 2.586c-.025.867-.05 1.734-.077 2.6-.02.565-.02 1.129-.012 1.692-.224-.014-.448-.03-.677-.027a52.206 52.206 0 00-1.86.024 17.35 17.35 0 00-1.953.17 2.183 2.183 0 00-.227.026c-.297.052-.587.13-.87.226l-.005-.02c-.105-.408-.22-.817-.348-1.23-.105-.339-.218-.682-.337-1.028a16.701 16.701 0 00-.75-1.771 4.326 4.326 0 00-1.25-1.548 3.388 3.388 0 00-.99-.497c-.362-.12-.78-.161-1.252-.12-.252.019-.513.057-.782.115a6.713 6.713 0 00-.856.253c-.58.197-1.057.469-1.432.812a2.2 2.2 0 00-.493.613c-.12.224-.176.462-.17.715 0 .051.005.092.017.123.039.101.144.147.315.14.218-.02.33-.114.337-.285.016-.199.099-.387.246-.566.139-.177.321-.334.548-.47a4.178 4.178 0 011.487-.537c.568-.107 1.051-.112 1.444-.017a.575.575 0 01.383.3c.074.153.136.287.187.403.086.218.167.437.242.656.085.22.16.435.222.649.193.6.346 1.203.457 1.81.121.604.24 1.21.358 1.815.117.572.224 1.15.321 1.734a18.003 18.003 0 01.228 3.586c-.019.616-.005 1.23.039 1.84.065.806.107 1.615.125 2.422.018.808.026 1.615.024 2.419.002.1.018.189.05.266a.561.561 0 00.143.182c.172.14.381.182.63.13a.646.646 0 01.038-.007c.27-.074.41-.252.421-.538.011-.445.036-.888.075-1.331a9.89 9.89 0 01.173-1.324c.112-.54.191-1.09.235-1.65.034-.564.078-1.125.135-1.678.077-.673.14-1.353.188-2.039.058-.685.059-1.37.002-2.054-.041-.43-.106-.858-.187-1.285.394-.14.803-.252 1.237-.313.586-.082 1.162-.15 1.727-.205.585-.05 1.182-.059 1.788-.028.214.013.426.012.636.008.045.855.03 1.704-.043 2.548a15.895 15.895 0 00.065 3.088c.039.277.089.547.15.812.177.754.464 1.471.856 2.154.23.39.498.747.806 1.07.317.323.696.576 1.139.762.374.153.801.202 1.285.149l.156-.017c.54-.083.992-.215 1.358-.398a3.706 3.706 0 001.232-1.037c.06.051.12.105.182.152.297.22.603.368.92.445.306.067.637.12.995.156a3.242 3.242 0 00.926-.03c.296-.058.598-.115.905-.17.35-.064.69-.163 1.02-.297.33-.126.648-.267.952-.424.661-.328 1.276-.714 1.844-1.159.457-.352.869-.74 1.256-1.148.011.1.017.2.031.302.117.746.36 1.468.728 2.172.34.652.831 1.114 1.475 1.394.407.172.827.284 1.264.334.258.03.518.035.78.018a4.617 4.617 0 002.277-.738c.71-.46 1.343-.918 1.893-1.378.23-.194.45-.4.67-.606-.029.19-.06.38-.08.574-.057.544-.12 1.086-.187 1.628-.077.539-.16 1.078-.249 1.614a44.124 44.124 0 00-.328 2.072 47.01 47.01 0 00-.233 2.065c-.05.487-.112.976-.183 1.467-.08.49-.152.976-.215 1.46a.564.564 0 00.074.363c.017.03.041.052.062.077-.003.015 0 .032-.004.047-.006.04 0 .017.013-.035l.01.011c-.007.147.072.241.247.277l.025.006c.158.026.27-.01.338-.107l.012-.004.026-.046-.011.042c.023-.007.045-.01.068-.02.121-.057.2-.144.235-.261.151-.458.282-.928.393-1.41.118-.474.276-.93.478-1.37.136-.312.24-.638.31-.979.063-.345.14-.677.234-.997.107-.35.21-.703.308-1.056.098-.344.182-.696.253-1.055.096-.52.195-1.039.298-1.557.093-.52.164-1.045.21-1.575.053-.579.15-1.148.292-1.708.142-.551.298-1.104.468-1.658.057-.18.124-.375.184-.56.066-.043.133-.09.197-.13.273-.158.566-.32.88-.482a2.421 2.421 0 011.002-.261c.394-.018.797.038 1.209.171.42.143.805.313 1.157.51.416.22.7.52.85.896.151.374.236.754.255 1.137.024.37-.058.72-.225 1.054-.138-.02-.268-.025-.407-.047a5.648 5.648 0 00-1.598-.029c-.285.039-.54.136-.766.29-.235.153-.458.296-.669.43a3.379 3.379 0 00-.795.727 7.742 7.742 0 00-.601.876c-.182.325-.208.644-.081.956.118.31.36.554.728.734.29.143.57.248.836.313l.013.004c.276.067.573.066.893-.004a6.11 6.11 0 001.327-.426c.43-.189.824-.42 1.181-.693a4.775 4.775 0 001.504-1.875c.058-.134.095-.273.134-.412l.393.029a6.64 6.64 0 001.717-.086c.296-.056.57-.139.82-.25.262-.116.498-.268.709-.459a.283.283 0 00.092-.15c.02-.095-.031-.197-.157-.303zM77.467 7.895c.029-.39.063-.776.101-1.158.039-.38.097-.765.174-1.15a6.16 6.16 0 01.306-1.126c.127-.364.244-.733.352-1.107.108-.375.33-.77.672-1.185a2.037 2.037 0 011.261-.734 2.01 2.01 0 01.658.016c.214.043.402.111.565.205.324.18.576.427.754.738.188.313.293.62.317.92a2.906 2.906 0 01-.26 1.52c-.223.472-.468.926-.736 1.36a20.169 20.169 0 01-2.204 2.97 29.734 29.734 0 01-2.419 2.335c.016-.096.023-.194.04-.29.19-1.088.33-2.192.419-3.314zm13.048 10.12c-.245.148-.49.278-.737.393a5.382 5.382 0 01-.811.277 7.348 7.348 0 00-.442.12.992.992 0 00-.338.15c.008-.03.005-.057.018-.089a2.462 2.462 0 01.56-.831c.081-.098.15-.173.207-.226.147-.149.335-.308.563-.479.226-.161.455-.272.685-.332.329-.077.7-.089 1.113-.032.11.017.214.03.32.046a6.095 6.095 0 01-1.138 1.003zM87.582 24.882c.01-.003.024-.029.039-.07l-.015.004c-.024.04-.036.068-.024.066zM99.766 20.641a.53.53 0 00.126-.043c.189-.092.216-.242.08-.451a1.652 1.652 0 00-.344-.392.995.995 0 00-.48-.246.955.955 0 00-.558.013 1.43 1.43 0 00-.46.245 1.367 1.367 0 00-.526.78c-.085.322-.027.641.172.956.154.239.353.405.6.496.044.017.089.03.135.04.309.08.599.066.87-.047a1.09 1.09 0 00.293-.174.943.943 0 00.224-.24c.026-.05.047-.103.064-.157a.95.95 0 00.024-.408c-.016-.15-.102-.268-.22-.372zM111.6 12.757c.094-.49.087-.986-.02-1.487a5.297 5.297 0 00-.524-1.462c-.466-.887-1.136-1.712-2.006-2.465a11.62 11.62 0 00-2.353-1.603 8.286 8.286 0 00-.422-.202 8.643 8.643 0 00-1.535-.535 6.653 6.653 0 00-1.452-.192c-.863-.009-1.617.184-2.264.573-.613.359-1.046.897-1.305 1.608a.751.751 0 00-.04.155 2.17 2.17 0 00-.11.433 7.54 7.54 0 00-.053.458c-.013.153.078.263.273.327.206.069.325.027.36-.126.13-.577.363-1.09.707-1.537.347-.456.85-.758 1.513-.9.65-.14 1.332-.064 2.039.231a8.35 8.35 0 011.946 1.103 8.816 8.816 0 011.587 1.574 7.776 7.776 0 011.106 1.831c.175.411.243.811.205 1.199-.037.388-.145.75-.323 1.088-.05.11-.144.24-.28.387-.136.147-.271.28-.406.4l-.171.114c-.11.068-.196.118-.256.15-.103.054-.193.101-.268.143l-.183.065c-.199.067-.388.11-.566.133-.182.03-.334.044-.457.041a2.183 2.183 0 01-.96-.174 191.6 191.6 0 01-.952-.409 3.436 3.436 0 00-.967-.257 4.077 4.077 0 00-1.191.019c-.38.072-.735.184-1.067.335-.698.331-1.174.822-1.434 1.461-.264.648-.321 1.36-.183 2.138.021.128.061.233.12.318a.937.937 0 00.218.233.922.922 0 00.834.125c.303-.09.44-.317.404-.682a1.173 1.173 0 01.085-.612c.08-.187.19-.358.332-.514a2.395 2.395 0 011.07-.61 2.51 2.51 0 011.29-.038c.245.067.495.173.749.319.248.132.498.237.752.31.27.084.543.142.818.173.286.029.56.038.822.027 1.167-.06 2.164-.414 2.988-1.08a4.29 4.29 0 001.173-1.47c.165-.346.284-.717.357-1.116z"/></g><g><path class="st2" d="M28.716 66.646c-3.098 1.171-3.432 4.787-3.443 6.175.132.11.269.215.407.32 4.658-2.86 3.036-6.495 3.036-6.495z"/><path class="st1" d="M36.16 74.586a.236.236 0 00-.312-.123c-4.201 1.838-7.64.607-10.168-1.322-.138-.105-.275-.21-.407-.32-1.781-1.467-3.063-3.237-3.786-4.385.444-.357.811-.811 1.057-1.346.571-1.244.608-3.057-1.835-5.13-3.21-2.723-4.289-6.789-4.607-8.44a.219.219 0 00-.42-.04c-.287.729-.661 1.866-.541 2.61l-2.685-1.586a.22.22 0 00-.331.204l.21 3.08c-.609-.437-1.783-.608-2.564-.675-.22-.019-.326.262-.149.395 1.363 1.019 4.555 3.78 5.495 7.877.712 3.106 2.401 3.868 3.806 3.91a3.917 3.917 0 002.176-.585c1.65 2.608 6.05 8.253 12.571 6.946.76-.153 1.551-.4 2.368-.758a.237.237 0 00.122-.312z"/></g><g><path class="st2" d="M145.627 11.513c.445.513 1.076 1.328 1.173 1.923l1.885-1.677c.107-.094.303-.036.34.102l.652 2.412c.407-.44 1.373-.769 2.027-.952.185-.052.352.147.236.28-.9 1.015-2.904 3.683-2.605 7.002.226 2.516-1.023 3.388-2.223 3.658-.55.124-1.13.113-1.689-.004-1.365 3.385-4.776 9.958-11.233 11.897a.26.26 0 01-.149-.496c6.222-1.868 9.538-8.224 10.881-11.54a3.838 3.838 0 01-1.526-.95c-.829-.864-1.351-2.256.193-4.266 2.03-2.642 1.86-5.96 1.688-7.288-.023-.174.225-.246.35-.101z"/><path class="st1" d="M140.803 30.978c-3.681-2.598-1.783-8.042-1.783-8.042 4.642 4.459 1.783 8.042 1.783 8.042z"/></g></svg>