<svg version="1.1" id="Layer_1" xmlns="http://www.w3.org/2000/svg" x="0" y="0" viewBox="0 0 354.599 86.314" xml:space="preserve"><style>.st0{fill:#aa2652}.st1{fill:#e54e79}.st3{fill:#db1b44}.st4{fill:#1a34b5}</style><path class="st0" d="M326.99 72.603l2.268 13.71 5.076-5.407 7.815 1.083L339 72.6zM326.99 72.603l-2.257 13.711-5.081-5.402-7.814 1.09 3.142-9.394z"/><path class="st1" d="M330.678 64.035s12.888-15.15 18.397-9.358-1.199 13.798-1.199 13.798 5.165 6.621 2.07 10.21-19.467-6.613-19.467-6.613l.2-8.037zM323.897 64.038s-12.9-15.14-18.405-9.344 1.21 13.798 1.21 13.798-5.16 6.625-2.06 10.21c3.098 3.587 19.46-6.627 19.46-6.627l-.205-8.037z"/><path class="st0" d="M330.68 67.007s5.4-4.955 7.833-1.984c2.432 2.97-1.35 4.233-2.61 4.323-1.26.09-5.223-2.34-5.223-2.34zM323.965 67.01s-5.404-4.951-7.835-1.978c-2.43 2.972 1.353 4.231 2.614 4.32 1.26.09 5.221-2.342 5.221-2.342z"/><path d="M323.998 73.966l5.984-.003a3.064 3.064 0 003.063-3.065l-.003-6.749a3.064 3.064 0 00-3.065-3.062l-5.984.002a3.064 3.064 0 00-3.062 3.065l.002 6.75a3.064 3.064 0 003.065 3.062z" fill="#ff83ac"/><g><path class="st3" d="M14.127 46.397l-.789 1.434c-.764.334-1.483.502-2.151.502-.67 0-1.23-.06-1.685-.18-.455-.118-.921-.346-1.399-.681-1.243-.956-2.558-4.565-3.943-10.828C3.012 31.385 2.03 25.6 1.219 19.29.406 12.98 0 8.534 0 5.952c0-1.434.18-2.545.538-3.335.359-.788 1.158-1.183 2.403-1.183 2.198 0 3.68.718 4.446 2.152.573 1.052.86 2.677.86 4.876 0 .478-.013.945-.036 1.398-.025.455-.036.897-.036 1.327 0 3.347.155 6.443.467 9.286.31 2.845.847 5.773 1.613 8.785a1928.64 1928.64 0 003.012-8.964c1.815-5.21 3.442-9.345 4.875-12.405 1.96-4.207 3.514-6.311 4.662-6.311 1.29 0 2.401.335 3.334 1.004.932.67 1.733 1.602 2.403 2.797.573 3.538 1.17 7.219 1.792 11.042 1.291 7.745 2.27 12.575 2.94 14.486 1.339-4.923 2.2-8.055 2.582-9.394 1.673-5.736 3.107-10.111 4.302-13.122 1.769-4.398 3.25-6.598 4.446-6.598a5.54 5.54 0 013.37 1.112c1.004.741 1.506 1.733 1.506 2.976 0 1.387-1.028 4.732-3.083 10.04-2.868 7.361-4.757 12.404-5.664 15.13-2.106 6.12-3.156 10.613-3.156 13.481 0 .43.046 1.029.143 1.793l-.932 1.362c-.86.335-1.649.502-2.367.502-2.15 0-4.158-2.151-6.023-6.453-1.387-3.156-2.701-7.554-3.945-13.195-.047-.144-.741-3.681-2.079-10.613a4508.833 4508.833 0 01-5.45 13.983c-1.864 5.45-2.795 10.28-2.795 14.486zM59.949 36.787c0 .91.12 1.841.358 2.797.334.287 1.112.479 2.33.574 1.22.096 1.997.143 2.33.143.957 0 1.974-.024 3.05-.071a83.821 83.821 0 003.333-.216c2.342 0 4.112.192 5.308.574 2.054.67 3.083 1.936 3.083 3.8a4.46 4.46 0 01-.358 1.721 5.385 5.385 0 01-.933 1.506l-1.148.502c-.908 0-1.816-.071-2.725-.215-2.725-.43-4.278-.645-4.66-.645-1.77 0-3.562.072-5.379.215-5.403.43-8.366.645-8.892.645-1.338 0-2.248-.812-2.725-2.438-.478-1.624-.717-3.752-.717-6.382 0-1.481.036-2.784.107-3.908.073-1.123.156-2.402.251-3.837-.573-.812-.956-1.434-1.147-1.864-.335-.717-.502-1.434-.502-2.151 0-.621.167-1.123.502-1.506.334-.382.836-.74 1.506-1.076 0-2.628.216-5.437.646-8.425.43-2.988.86-5.917 1.29-8.785-.143-.287-.347-.776-.609-1.47-.264-.693-.394-1.158-.394-1.398 0-2.055 2.198-3.418 6.597-4.088 2.15-.334 5.115-.502 8.891-.502 3.825 0 6.454.323 7.889.968 1.434.646 2.152 1.782 2.152 3.407 0 .67-.312 1.517-.933 2.545-.623 1.029-1.244 1.398-1.865 1.112a7.872 7.872 0 00-2.151-.538c-.717-.072-1.721-.108-3.011-.108h-1.506a17.18 17.18 0 01-1.579-.072c-1.337 0-2.498.084-3.477.251-.98.169-1.829.515-2.545 1.04-.383 1.052-.742 3.407-1.077 7.064-.334 3.657-.502 6.274-.502 7.852.765 0 1.889-.047 3.37-.144 1.482-.095 2.606-.143 3.371-.143 2.773 0 4.708.143 5.81.43 2.341.622 3.512 1.89 3.512 3.8 0 1.865-.837 3.06-2.509 3.587a24.507 24.507 0 00-5.522-.646c-.957 0-2.39.072-4.302.215-1.913.143-3.324.215-4.23.215 0 .622-.05 1.698-.144 3.227-.097 1.53-.144 2.343-.144 2.438zM133.02 33.704c0 2.007-.789 3.011-2.366 3.011-.383 0-.67-.023-.86-.071a216.574 216.574 0 001.29 3.586 26.283 26.283 0 001.649 3.513c.048.144.167.42.358.825.192.407.288.681.288.825 0 .86-.372 1.566-1.112 2.115a4.056 4.056 0 01-2.474.825c-2.39 0-4.303-2.152-5.737-6.454-.191-.526-.67-2.295-1.434-5.306l-2.223-.072h-3.657c-3.347 0-5.426.43-6.239 1.29-1.051 1.1-1.577 3.73-1.577 7.888 0 .67-.348 1.232-1.04 1.685-.693.455-1.375.682-2.044.682-1.196 0-2.187-.418-2.976-1.255-.788-.836-1.183-1.876-1.183-3.12 0-1.29 1.015-5.353 3.047-12.19 2.032-6.836 4.028-12.955 5.988-18.358 2.39-6.644 4.11-10.493 5.164-11.545.763-.764 1.767-1.147 3.01-1.147 1.436 0 2.654.645 3.658 1.935.096.097.706 3.084 1.829 8.964 1.123 5.88 2.282 11.929 3.478 18.143 2.008.335 3.37.86 4.088 1.577.717.718 1.075 1.603 1.075 2.654zm-15.56-18.43a221.94 221.94 0 00-2.69 7.207 120.009 120.009 0 00-2.402 7.637 64.499 64.499 0 014.05-.43 58.272 58.272 0 014.197-.143c-.24-1.481-.743-3.825-1.506-7.028-.766-3.202-1.316-5.617-1.65-7.243zM137.61 5.163c0-1.147.417-2.044 1.255-2.689.835-.645 1.828-.968 2.975-.968C142.747.502 143.728 0 144.78 0c1.148 0 2.247.479 3.3 1.434 4.397 0 8.34.861 11.832 2.582 4.492 2.2 6.74 5.331 6.74 9.394 0 3.155-1.603 5.976-4.805 8.462-2.39 1.864-5.45 3.418-9.178 4.66a1058.6 1058.6 0 006.668 9.18c2.533 3.155 5.307 5.618 8.318 7.386.096.383.216.741.36 1.075 0 1.053-.492 1.997-1.471 2.833-.98.837-2.02 1.255-3.12 1.255-1.96 0-4.397-1.506-7.314-4.518-3.108-3.202-6.525-7.816-10.254-13.84l-.143 5.737c0 3.155.405 6.645 1.219 10.47a3.23 3.23 0 01-1.434 1.65c-.67.38-1.435.573-2.295.573-1.674 0-2.917-.669-3.73-2.008-.957-1.53-1.433-4.206-1.433-8.032v-2.868c0-4.78.179-9.382.537-13.804.359-4.422.92-8.832 1.686-13.23-.91-.383-1.53-.765-1.864-1.148-.527-.525-.79-1.219-.79-2.08zm22.516 7.745c0-1.912-2.39-3.274-7.17-4.087-1.914-.334-3.587-.502-5.02-.502-.192 1.387-.395 2.88-.61 4.482-.214 1.601-.515 4.386-.896 8.353 3.012-.669 5.737-1.577 8.174-2.724 3.681-1.721 5.522-3.561 5.522-5.522zM179.917 36.787c0 .91.119 1.841.358 2.797.334.287 1.112.479 2.33.574 1.22.096 1.997.143 2.33.143.957 0 1.974-.024 3.05-.071a83.819 83.819 0 003.333-.216c2.342 0 4.112.192 5.308.574 2.054.67 3.083 1.936 3.083 3.8a4.46 4.46 0 01-.358 1.721 5.385 5.385 0 01-.933 1.506l-1.148.502c-.908 0-1.817-.071-2.725-.215-2.725-.43-4.279-.645-4.66-.645-1.77 0-3.562.072-5.379.215-5.403.43-8.366.645-8.892.645-1.338 0-2.248-.812-2.725-2.438-.478-1.624-.717-3.752-.717-6.382 0-1.481.036-2.784.107-3.908.073-1.123.156-2.402.251-3.837-.573-.812-.956-1.434-1.147-1.864-.335-.717-.502-1.434-.502-2.151 0-.621.167-1.123.502-1.506.334-.382.836-.74 1.506-1.076 0-2.628.216-5.437.645-8.425.431-2.988.86-5.917 1.292-8.785-.144-.287-.348-.776-.61-1.47-.264-.693-.394-1.158-.394-1.398 0-2.055 2.198-3.418 6.597-4.088 2.15-.334 5.115-.502 8.891-.502 3.825 0 6.454.323 7.889.968 1.433.646 2.152 1.782 2.152 3.407 0 .67-.312 1.517-.933 2.545-.623 1.029-1.244 1.398-1.865 1.112a7.872 7.872 0 00-2.151-.538c-.717-.072-1.721-.108-3.011-.108h-1.506a17.18 17.18 0 01-1.579-.072c-1.338 0-2.498.084-3.478.251-.979.169-1.828.515-2.545 1.04-.383 1.052-.74 3.407-1.076 7.064-.334 3.657-.502 6.274-.502 7.852.765 0 1.889-.047 3.37-.144 1.482-.095 2.606-.143 3.37-.143 2.774 0 4.71.143 5.81.43 2.342.622 3.513 1.89 3.513 3.8 0 1.865-.837 3.06-2.509 3.587a24.507 24.507 0 00-5.522-.646c-.957 0-2.39.072-4.302.215-1.914.143-3.324.215-4.23.215 0 .622-.05 1.698-.144 3.227-.097 1.53-.144 2.343-.144 2.438zM240.44 34.564c-1.531 0-3.001.013-4.412.036-1.41.025-2.952.18-4.625.466l-.071 4.805c0 .717.143 1.769.43 3.155.287 1.387.43 2.367.43 2.94 0 .717-.406 1.267-1.219 1.65a5.83 5.83 0 01-2.51.573c-1.912 0-3.251-.907-4.016-2.725-.573-1.337-.86-3.298-.86-5.88 0-.62.023-1.458.072-2.51a61.04 61.04 0 00.071-2.08 5.147 5.147 0 01-1.613-1.362c-.455-.574-.682-1.194-.682-1.864 0-.813.24-1.482.718-2.008s1.122-.884 1.936-1.076c0-2.725.334-8.15 1.004-16.278.334-4.063.502-7.338.502-9.824 0-.718.382-1.278 1.148-1.685.763-.406 1.529-.61 2.294-.61 1.195 0 2.318.348 3.37 1.04 1.052.693 1.578 1.59 1.578 2.69 0 2.437-.216 5.354-.645 8.747-1.004 7.985-1.506 12.956-1.506 14.917 1.577 0 4.218-.048 7.923-.144 3.705-.095 5.676-.144 5.917-.144.525-5.64.907-10.158 1.146-13.553.24-3.393.36-7.146.36-11.258 0-.718.382-1.255 1.146-1.614s1.53-.537 2.296-.537c1.194 0 2.33.334 3.406 1.003 1.076.67 1.614 1.603 1.614 2.797 0 2.725-.228 6.216-.682 10.47-.455 4.255-.921 8.677-1.399 13.266-.478 4.59-.716 8.318-.716 11.187 0 1.387.06 2.438.18 3.155.117.717.393 1.913.824 3.586-.288.813-.753 1.398-1.4 1.756-.645.36-1.446.538-2.4.538-1.914 0-3.276-.907-4.089-2.725-.621-1.386-.932-3.322-.932-5.808 0-.621.024-1.266.072-1.937.047-.668.143-1.672.287-3.01l-4.948-.145zM268.692 36.787c0 .91.119 1.841.358 2.797.334.287 1.111.479 2.33.574 1.219.096 1.997.143 2.33.143.957 0 1.973-.024 3.049-.071a83.816 83.816 0 003.334-.216c2.342 0 4.112.192 5.307.574 2.055.67 3.084 1.936 3.084 3.8a4.46 4.46 0 01-.359 1.721 5.385 5.385 0 01-.933 1.506l-1.147.502c-.909 0-1.817-.071-2.725-.215-2.725-.43-4.279-.645-4.66-.645-1.77 0-3.563.072-5.38.215-5.402.43-8.365.645-8.892.645-1.338 0-2.247-.812-2.725-2.438-.477-1.624-.716-3.752-.716-6.382 0-1.481.036-2.784.107-3.908.072-1.123.155-2.402.251-3.837-.573-.812-.956-1.434-1.148-1.864-.335-.717-.502-1.434-.502-2.151 0-.621.167-1.123.502-1.506.334-.382.836-.74 1.506-1.076 0-2.628.216-5.437.646-8.425.43-2.988.86-5.917 1.291-8.785-.143-.287-.348-.776-.61-1.47-.263-.693-.394-1.158-.394-1.398 0-2.055 2.199-3.418 6.598-4.088 2.15-.334 5.114-.502 8.89-.502 3.825 0 6.455.323 7.89.968 1.433.646 2.151 1.782 2.151 3.407 0 .67-.312 1.517-.933 2.545-.622 1.029-1.243 1.398-1.864 1.112a7.872 7.872 0 00-2.152-.538c-.717-.072-1.72-.108-3.01-.108h-1.507a17.18 17.18 0 01-1.578-.072c-1.338 0-2.499.084-3.478.251-.98.169-1.828.515-2.545 1.04-.383 1.052-.741 3.407-1.076 7.064-.334 3.657-.502 6.274-.502 7.852.764 0 1.889-.047 3.37-.144 1.481-.095 2.606-.143 3.37-.143 2.773 0 4.709.143 5.81.43 2.342.622 3.513 1.89 3.513 3.8 0 1.865-.837 3.06-2.51 3.587a24.506 24.506 0 00-5.521-.646c-.958 0-2.391.072-4.302.215-1.914.143-3.324.215-4.231.215 0 .622-.05 1.698-.144 3.227a128.29 128.29 0 00-.143 2.438zM292.5 5.163c0-1.147.418-2.044 1.255-2.689.835-.645 1.828-.968 2.975-.968C297.637.502 298.618 0 299.67 0c1.148 0 2.248.479 3.3 1.434 4.397 0 8.34.861 11.832 2.582 4.492 2.2 6.74 5.331 6.74 9.394 0 3.155-1.603 5.976-4.805 8.462-2.39 1.864-5.45 3.418-9.178 4.66 2.198 3.06 4.42 6.12 6.668 9.18 2.534 3.155 5.308 5.618 8.318 7.386.096.383.216.741.36 1.075 0 1.053-.492 1.997-1.471 2.833-.98.837-2.02 1.255-3.12 1.255-1.96 0-4.397-1.506-7.314-4.518-3.108-3.202-6.525-7.816-10.253-13.84l-.144 5.737c0 3.155.405 6.645 1.219 10.47a3.23 3.23 0 01-1.434 1.65c-.67.38-1.435.573-2.295.573-1.674 0-2.916-.669-3.729-2.008-.957-1.53-1.434-4.206-1.434-8.032v-2.868c0-4.78.179-9.382.537-13.804.359-4.422.92-8.832 1.686-13.23-.91-.383-1.53-.765-1.864-1.148-.527-.525-.79-1.219-.79-2.08zm22.516 7.745c0-1.912-2.39-3.274-7.17-4.087-1.914-.334-3.587-.502-5.02-.502-.192 1.387-.395 2.88-.61 4.482-.214 1.601-.515 4.386-.896 8.353 3.012-.669 5.737-1.577 8.174-2.724 3.681-1.721 5.522-3.561 5.522-5.522zM334.807 36.787c0 .91.12 1.841.358 2.797.334.287 1.112.479 2.33.574 1.22.096 1.997.143 2.33.143.957 0 1.974-.024 3.05-.071a83.825 83.825 0 003.333-.216c2.342 0 4.112.192 5.308.574 2.054.67 3.083 1.936 3.083 3.8a4.46 4.46 0 01-.358 1.721 5.385 5.385 0 01-.933 1.506l-1.148.502c-.908 0-1.816-.071-2.725-.215-2.725-.43-4.278-.645-4.66-.645-1.77 0-3.562.072-5.379.215-5.403.43-8.366.645-8.892.645-1.338 0-2.248-.812-2.725-2.438-.478-1.624-.717-3.752-.717-6.382 0-1.481.036-2.784.107-3.908.073-1.123.156-2.402.252-3.837-.574-.812-.957-1.434-1.148-1.864-.335-.717-.502-1.434-.502-2.151 0-.621.167-1.123.502-1.506.334-.382.836-.74 1.506-1.076 0-2.628.216-5.437.646-8.425.43-2.988.86-5.917 1.29-8.785-.143-.287-.347-.776-.609-1.47-.264-.693-.394-1.158-.394-1.398 0-2.055 2.198-3.418 6.597-4.088 2.15-.334 5.115-.502 8.891-.502 3.825 0 6.454.323 7.889.968 1.434.646 2.152 1.782 2.152 3.407 0 .67-.312 1.517-.933 2.545-.623 1.029-1.244 1.398-1.865 1.112a7.872 7.872 0 00-2.151-.538c-.717-.072-1.721-.108-3.011-.108h-1.506a17.18 17.18 0 01-1.579-.072c-1.337 0-2.498.084-3.477.251-.98.169-1.829.515-2.545 1.04-.383 1.052-.742 3.407-1.077 7.064-.334 3.657-.502 6.274-.502 7.852.765 0 1.89-.047 3.37-.144 1.482-.095 2.606-.143 3.371-.143 2.773 0 4.708.143 5.81.43 2.341.622 3.512 1.89 3.512 3.8 0 1.865-.837 3.06-2.509 3.587a24.507 24.507 0 00-5.522-.646c-.957 0-2.39.072-4.302.215-1.913.143-3.324.215-4.23.215 0 .622-.05 1.698-.144 3.227a128.29 128.29 0 00-.144 2.438z"/></g><g><path class="st4" d="M4.707 73.721c.092-.092 1.661-.231 1.661-.231l-.323-9.53s-1.338.045-1.454-.07c-.115-.115.093-3.37.093-3.37l6.67.116.16 3.277-1.615.162.115 2.538 4.454.208-.046-2.838s-1.339-.14-1.361-.14c-.023 0-.3-1.776-.23-3.16 2.306-.693 7.59.069 7.59.069s-.069 3.16-.115 3.16-1.708.278-1.708.278l.3 9.115 1.592.185v3.3s-7.152.092-7.152.046l-.07-3.37 1.615-.16-.068-3.047-4.685-.139s-.046 3.37.07 3.37c.114 0 1.546-.092 1.546.069 0 .162.322 3.046.207 3.092-.115.047-6.946.254-7.2-.115-.254-.37-.139-2.723-.046-2.815zM21.756 73.651l1.523-.369c1.015-5.7 2.862-12.738 2.862-12.738.83-.323 4.684.139 4.684.139l4.5 12.715h1.338v3.392s-6.208.3-6.46.161c-.231-.161-.463-3.253-.324-3.3.138-.069 1.177-.069 1.177-.069l-.624-1.869-3.114-.046-.3 1.523 1.568.208s.254 3.253.185 3.253l-6.692.324c-.323-.693-.323-3.324-.323-3.324zm8.007-4.938l-1.153-3-.9 3.115 2.053-.115zM38.32 73.398c.254-.139 1.615-.116 1.615-.116s-.208-8.953-.276-8.977c-.07-.023-1.57.046-1.57.046s-.254-3.738-.092-3.784c.16-.046 3.9-.115 5.792-.115 3.3 0 6.576.76 6.53 5.169-.046 4.777-4.2 5.215-6.437 5.215-.024 1.338.023 2.284.023 2.33s2.169.393 2.238.393c.069 0 .161 3.046.046 3.185s-7.615-.046-7.615-.046c-.024 0-.507-3.162-.254-3.3zm8.03-7.777c0-1.616-2.538-1.246-2.538-1.246l.093 2.861c0 .023 2.446.139 2.446-1.615zM52 73.398c.255-.139 1.615-.116 1.615-.116s-.207-8.953-.276-8.977c-.07-.023-1.569.046-1.569.046s-.254-3.738-.092-3.784c.16-.046 3.899-.115 5.792-.115 3.3 0 6.576.76 6.53 5.169-.046 4.777-4.2 5.215-6.437 5.215-.024 1.338.022 2.284.022 2.33s2.17.393 2.24.393c.068 0 .16 3.046.045 3.185-.115.138-7.615-.046-7.615-.046-.024 0-.509-3.162-.254-3.3zm8.032-7.777c0-1.616-2.539-1.246-2.539-1.246l.092 2.861c0 .023 2.447.139 2.447-1.615zM69.235 73.675c.047-.024 1.57-.162 1.57-.231V68.99c0-.115-3.462-4.685-3.509-4.639-.045.047-1.777-.207-1.777-.23l.024-3.6 6.785.115s.3 3.093.253 3.162c-.045.069-1.084.046-1.107.046-.023 0 1.592 1.823 1.592 1.823s1.592-1.892 1.524-1.938c-.07-.046-.809-.024-.924-.024-.115 0-.023-3.184 0-3.207.023-.024 6.162.069 6.323.138.162.07.323 3.093.277 3.139-.046.046-1.338.069-1.408.069-.07 0-3.9 5.215-3.9 5.215s.07 4.085.07 4.315c0 .231 1.292.046 1.407.185.115.139.07 3 .07 3.092 0 .093-7.155.231-7.2.208-.047-.023-.115-3.161-.07-3.184zM91.107 64.329s-1.224-.185-1.408-.185c-.184 0-.046-3.623 0-3.623 0 0 7.061.046 7.153.07.093.022.323 3.622.323 3.622s-1.107.162-1.245.162c-.14 0 1.754 5.261 1.754 5.261s1.915-5.377 1.845-5.377c-.068 0-1.107.046-1.177.046-.068 0-.345-3.669-.3-3.738.047-.07 7.154-.046 7.177.023.023.07 0 3.715-.023 3.785-.023.069-1.454.069-1.546.069s-4.015 12.138-4.177 12.254c-.162.115-3.76.069-3.876 0-.116-.07-4.5-12.37-4.5-12.37zM104.049 73.651l1.523-.369c1.015-5.7 2.862-12.738 2.862-12.738.83-.323 4.684.139 4.684.139l4.5 12.715h1.339v3.392s-6.209.3-6.462.161c-.23-.161-.462-3.253-.323-3.3.138-.069 1.177-.069 1.177-.069l-.624-1.869-3.114-.046-.3 1.523 1.568.208s.254 3.253.185 3.253l-6.693.324c-.322-.693-.322-3.324-.322-3.324zm8.007-4.938l-1.153-3-.9 3.115 2.053-.115zM120.152 73.329c.046-.047 1.546-.07 1.593-.116.046-.046.091-6.992.23-9.184 0-.116-1.384.022-1.431 0-.046-.024-.3-3.485-.068-3.624.138-.069 7.752.139 7.752.162 0 .023.162 3.37.024 3.416-.139.046-1.893.253-1.893.253-.23 1.662-.368 8.954-.345 8.954s2.354-.046 2.376-.092c.023-.047.785-2.885.785-2.978 0-.091 3 .347 3.07.393.069.046.138 6.23.069 6.23-.07 0-12.116.208-12.116-.045 0-.254-.092-3.324-.046-3.37zM134.364 73.329c.138-.139 1.431-.116 1.431-.116s.208-9.254.116-9.3c-.093-.046-1.547.138-1.547.138s-.347-3.484-.3-3.646c.046-.16 12.277-.115 12.277-.115.553.715.161 5.33.161 5.4 0 .07-3.161.092-3.322.07-.162-.024-.254-1.662-.277-1.731-.024-.07-2.562-.116-2.631-.046-.07.069-.023 2.63.045 2.653.07.023 2.378.07 2.378.138 0 .07.184 3.162.115 3.185-.07.024-2.538.115-2.584.185-.047.069-.047 2.93-.047 3.023s2.792-.047 2.792-.115c0-.07.647-2.4.647-2.447 0-.046 3.761.346 3.761.416 0 .069-.415 5.815-.46 5.838-.047.023-12.578-.161-12.67-.092-.093.07-.023-3.3.115-3.438zM148.506 73.905c.07-.046 1.477-.207 1.546-.254.068-.046-.024-6.322-.14-8.976-.345.046-1.43.023-1.476-.024-.046-.046-.346-3.968-.253-4.038.092-.069 4.708.023 4.776.023.07 0 5.585 8.031 5.677 8.054.093.023-.092-4.8-.092-4.8s-1.87-.115-1.892-.115-.392-3.162-.232-3.208c.162-.046 7.362-.115 7.362-.046 0 .07.185 3.138.047 3.138-.14 0-1.57.139-1.57.185s.346 13.015.231 13.015c-.115 0-3.484.277-3.6.139-.116-.14-4.892-8.216-4.892-8.216s0 4.5.115 4.638c.115.139 1.615.162 1.615.324 0 .161.347 2.7.185 2.792-.16.093-7.292.393-7.223.277.07-.115-.254-2.862-.184-2.908zM167.61 73.559c.046-.023 2.815-.161 2.815-.392 0-.23-.185-9.07-.185-9.07l-1.916.024s-.115 2.838-.115 2.93c0 .093-3.253-.046-3.391-.046-.14 0-.093-6.069.138-6.346.23-.276 14.446-.715 14.469-.622.022.091.115 6.807.092 6.922-.023.116-3.023.046-3.092-.046-.07-.092-.3-2.861-.3-2.861s-1.593.023-1.708.046c-.115.023.347 9.161.347 9.23 0 .07 2.354-.092 2.446 0 .091.092.23 3.07.138 3.3-.093.23-9.784.185-9.808.139-.023-.047.024-3.185.07-3.208zM181.589 73.582c.092-.092 1.662-.07 1.662-.07l-.323-9.553s-1.339.046-1.454-.069c-.115-.115.092-3.37.092-3.37l7.592-.115.162 3.278-2.077.392.3 9.323c.116 0 2.008 0 2.008.161 0 .162.162 3.046.046 3.092-.115.047-7.707.254-7.961-.115-.255-.37-.138-2.861-.047-2.954zM191.28 73.905c.07-.046 1.476-.207 1.546-.254.068-.046-.024-6.322-.14-8.976-.345.046-1.43.023-1.476-.024-.046-.046-.346-3.968-.253-4.038.092-.069 4.708.023 4.776.023.07 0 5.585 8.031 5.677 8.054.093.023-.092-4.8-.092-4.8s-1.87-.115-1.892-.115-.392-3.162-.232-3.208c.162-.046 7.362-.115 7.362-.046 0 .07.185 3.138.047 3.138-.14 0-1.57.139-1.57.185s.346 13.015.23 13.015-3.483.277-3.6.139c-.115-.14-4.891-8.216-4.891-8.216s0 4.5.115 4.638c.115.139 1.615.162 1.615.324 0 .161.347 2.7.185 2.792-.161.093-7.292.393-7.223.277.07-.115-.254-2.862-.185-2.908zM208.605 73.329c.138-.139 1.432-.116 1.432-.116s.207-9.254.115-9.3c-.093-.046-1.547.138-1.547.138s-.347-3.484-.3-3.646c.046-.16 12.277-.115 12.277-.115.553.715.161 5.33.161 5.4 0 .07-3.161.092-3.322.07-.162-.024-.254-1.662-.277-1.731-.024-.07-2.562-.116-2.631-.046-.07.069-.023 2.63.045 2.653.07.023 2.378.07 2.378.138 0 .07.184 3.162.116 3.185-.07.024-2.54.115-2.585.185-.047.069-.047 2.93-.047 3.023s2.792-.047 2.792-.115c0-.07.647-2.4.647-2.447 0-.046 3.761.346 3.761.416 0 .069-.415 5.815-.46 5.838-.047.023-12.578-.161-12.67-.092-.092.07-.023-3.3.115-3.438zM224.11 64.79c2.238-.208 2.514-2.792 1.222-2.792-1.592 0-2.077-.9-2.122-2.354-.024-1.477 1.038-2.4 2.261-2.4 1.246 0 2.215 1.085 2.4 2.284.692 4.339-.462 6.6-3.184 7.131-.232-.461-.577-1.869-.577-1.869zM229.762 71.02c1.57-.345 3.161-.415 3.623-.345.415 1.57 1.36 2.4 2.1 2.4.67 0 1.269-.37 1.269-1.062 0-1.315-1.477-1.73-2.861-2.492-2.054-1.085-4.039-2.262-4.039-5.562 0-2.284 1.892-4.153 4.984-4.153 1.339 0 2.17.507 2.561.923l.162-1.108s2.4-.093 3.531.392c.115.046-.277 4.5-.277 5.239 0 .346-3.6.323-3.6.23-.116-1.338-.9-1.846-1.615-1.846-.415 0-1.27.208-1.27 1.131 0 .831 1.732 1.338 3.439 2.353 2.054 1.2 3.785 2.424 3.785 5.262 0 2.608-2.261 4.57-4.57 4.57-2.376 0-3.23-.9-3.576-1.293-.047.508-.093 1.43-.115 1.43-.117-.045-3.486-.207-3.486-.207-.045-.508-.045-4.661-.045-5.861zM251.01 72.96c.137-.116 1.822-.232 1.822-.232l.254-7.96s-1.777.16-1.823.16c-.046 0-.693-3.784-.53-3.9.161-.115 2.284-.669 5.377-.576 3.437.069 9.322-.324 9.322 8.307 0 7.477-3.854 8.47-7.892 8.47-2.377 0-6.208-.462-6.346-.416.023.046-.324-3.739-.184-3.854zm9.714-4.016c0-4.662-2.47-4.177-3.439-4.084-.115 1.984-.322 6.83-.16 8.123 1.869.23 3.599-.439 3.599-4.04zM266.42 73.651l1.524-.369c1.015-5.7 2.862-12.738 2.862-12.738.83-.323 4.683.139 4.683.139l4.5 12.715h1.338v3.392s-6.207.3-6.46.161c-.23-.161-.462-3.253-.323-3.3.138-.069 1.177-.069 1.177-.069l-.624-1.869-3.114-.046-.3 1.523 1.568.208s.254 3.253.184 3.253l-6.692.324c-.323-.693-.323-3.324-.323-3.324zm8.008-4.938l-1.153-3-.9 3.115 2.053-.115zM286.538 73.675c.047-.024 1.57-.162 1.57-.231V68.99c0-.115-3.462-4.685-3.509-4.639-.045.047-1.777-.207-1.777-.23l.024-3.6 6.785.115s.3 3.093.253 3.162c-.045.069-1.084.046-1.107.046-.023 0 1.592 1.823 1.592 1.823s1.592-1.892 1.523-1.938c-.07-.046-.808-.024-.923-.024s-.023-3.184 0-3.207c.023-.024 6.162.069 6.322.138.162.07.324 3.093.278 3.139-.046.046-1.338.069-1.408.069-.07 0-3.9 5.215-3.9 5.215s.07 4.085.07 4.315c0 .231 1.292.046 1.407.185s.07 3 .07 3.092c0 .093-7.155.231-7.2.208-.047-.023-.116-3.161-.07-3.184z"/></g></svg>