<svg version="1.1" id="Layer_1" xmlns="http://www.w3.org/2000/svg" x="0" y="0" viewBox="0 0 197.073 79.408" xml:space="preserve"><style>.st0{fill:#ffad9f}.st1{fill:#ff795a}.st2{fill:#bf5437}.st3{fill:#a0442e}.st4{fill:#f8ff99}.st8{fill:#d37f75}</style><path class="st0" d="M10.357 24.154V11.271c0-.821-.36-1.117-1.175-.965l-.447.084v14.066l1.622-.302zM39.099 28.651c-4.464.55-8.922 1.163-13.372 1.837.13.456.487.62 1.119.525 5.07-.756 10.15-1.432 15.236-2.027.823-.096 1.185-.498 1.185-1.32v-3.848c0-.822-.362-1.143-1.185-1.047l-.45.053v2.987c0 1.564-.97 2.648-2.533 2.84zM36.437 19.944c-1.686.217-3.37.443-5.054.678v.127a485.93 485.93 0 017.716-1.014c.471-.058.881-.01 1.235.114.182-.215.27-.515.27-.914v-3.518c0-.822-.363-1.141-1.184-1.04l-.45.055v2.658c0 1.563-.972 2.653-2.533 2.854zM45.862 10.536c.132.461.49.64 1.124.572l.5-.053v-.693c-.542.057-1.083.115-1.624.174zM97.073 12.107c.193.69.295 1.456.295 2.306v3.453c0 4.473-3.065 7.13-8.2 7.227-2.857.055-5.714.135-8.571.24.132.471.491.676 1.128.654 3.48-.12 6.962-.204 10.443-.25 4.265-.053 6.843-2.077 6.843-5.828v-3.453c0-2.171-.717-3.517-1.938-4.35zM93.63 7.632c-.883.009-1.766.02-2.65.034l.074.008c.967.129 1.816.349 2.558.652 1.007-.01 2.013-.018 3.019-.022.827-.003 1.19-.365 1.19-1.187V3.204c0-.822-.364-1.184-1.19-1.18l-.452.001v3.053c0 1.564-.977 2.538-2.548 2.554zM108.427 7.773c.133.479.493.704 1.13.718l.5.012v-.694a481.15 481.15 0 00-1.63-.036zM135.16 20.597v3.253c0 1.564-.974 2.46-2.542 2.349-.994-.07-1.988-.137-2.983-.2.132.484.492.724 1.128.767 1.617.107 3.233.223 4.85.346.824.064 1.187-.269 1.187-1.091v-4.604l1.489.12v-.693a485.15 485.15 0 00-3.128-.247zM161.588 20.194V7.312c0-.822-.361-1.232-1.183-1.338l-.45-.057v14.066l1.633.211zM182.734 23.639v6.18c0 1.563-.965 2.363-2.52 2.097a486.627 486.627 0 00-3.218-.537c.13.496.486.772 1.117.877 1.69.28 3.38.57 5.068.87.817.144 1.176-.153 1.177-.975v-7.53l1.05.19v-.694c-.891-.162-1.783-.321-2.674-.478zM184.057 9.874c-.192-.216-.479-.355-.876-.425l-.447-.08v3.284l1.323-2.779zM195.233 21.163c.142.574.222 1.174.222 1.795v9.274c0 1.563-.961 2.337-2.51 2.03a487.11 487.11 0 00-3.175-.618c.13.5.485.786 1.114.908 1.673.324 3.346.657 5.017.999.813.166 1.172-.121 1.172-.943v-9.273c0-1.729-.684-3.19-1.84-4.172zM193.85 18.404a9452.46 9452.46 0 012.54-5.344c.292-.63.032-1.08-.717-1.232-.398-.082-.797-.162-1.195-.243l-2.483 5.234a6.773 6.773 0 011.854 1.585zM21.347 19.238a1.552 1.552 0 00-.595-.002l-.449.073v9.498c0 1.564-.966 2.69-2.522 2.953-4.932.831-9.855 1.74-14.766 2.724.13.45.484.596 1.112.472a485.855 485.855 0 0116.625-2.994c.818-.132 1.178-.551 1.178-1.373v-.31V20.23c0-.583-.186-.9-.583-.992zM42.815 5.381c-.184-.084-.426-.107-.733-.07l-.45.052V8.35c0 .28-.04.538-.1.784-.276 1.133-1.15 1.898-2.433 2.056l-1.627.203c.399.094.722.292.97.572 1.213-.151 2.426-.298 3.64-.44.623-.073.98-.322 1.118-.795a1.89 1.89 0 00.067-.526 6529.973 6529.973 0 000-3.847c0-.516-.143-.833-.452-.976zM65.32 3.478c-.192-.204-.496-.288-.932-.257a398.434 398.434 0 00-.452.032v3.119c0 1.563-.974 2.602-2.542 2.722-1.165.09-2.33.183-3.493.28V24.17c0 1.564-.974 2.615-2.541 2.754-1.158.104-2.315.211-3.472.323.131.463.49.646 1.125.586 1.779-.167 3.559-.325 5.34-.473.823-.068 1.186-.458 1.186-1.28V9.933c1.616-.13 3.232-.253 4.849-.366.152-.011.283-.037.405-.07.536-.15.783-.526.783-1.197v-.293-3.685c0-.388-.084-.664-.256-.845zM76.993 2.716c-.192-.137-.46-.198-.819-.182l-.452.021v5.322c0 3.957-2.335 6.418-6.243 6.65l-.676.041c.13.483.489.663 1.13.626.848-.05 1.695-.098 2.543-.144 1.949-.104 3.44-.87 4.237-2.33.42-.766.65-1.719.65-2.873V3.665c0-.464-.12-.772-.37-.95zM126.999 2.854l-.453-.026v3.118c0 1.564-.974 2.477-2.544 2.394a485.332 485.332 0 00-3.499-.17v14.795c0 1.563-.975 2.489-2.546 2.426-1.16-.047-2.32-.09-3.482-.127.133.48.492.71 1.13.732 1.783.062 3.567.135 5.35.217.826.039 1.19-.305 1.19-1.127V8.94a485.145 485.145 0 014.854.26c.825.049 1.188-.29 1.188-1.112V4.82 4.11c0-.822-.363-1.207-1.188-1.255zM149.789 16.369c-.21-.907-.534-1.954-.995-3.194-.954-2.587-1.91-5.172-2.865-7.753-.208-.618-.584-.983-1.154-1.15l2.292 6.197c.951 2.558 1.375 4.375 1.375 5.887v8.681c0 1.564-.972 2.433-2.538 2.28a484.165 484.165 0 00-3.203-.303c.143.488.533.742 1.219.806 1.658.155 3.316.32 4.973.492.823.086 1.185-.236 1.185-1.059v-.76-7.921c0-.634-.094-1.358-.29-2.203zM172.618 18.749a1.801 1.801 0 00-.597-.19l-.448-.069v9.498c0 1.564-.968 2.386-2.527 2.157a485.924 485.924 0 00-14.859-1.945c.132.49.49.75 1.124.824 5.58.656 11.15 1.41 16.71 2.26.82.126 1.18-.18 1.18-1.001v-.311-10.048c0-.582-.186-.959-.583-1.175z"/><g><path class="st1" d="M17.781 17.683c-1.58.267-3.16.54-4.74.823-.816.146-1.175.574-1.175 1.396v5.327c-1.491.27-2.982.547-4.471.832V9.783c0-.822-.359-1.115-1.174-.958-1.685.326-3.368.661-5.05 1.005C.359 9.997 0 10.433 0 11.255v21.309c0 .822.358 1.109 1.172.942a485.908 485.908 0 0116.61-3.097c.817-.138 1.177-.558 1.177-1.38V18.67c0-.822-.36-1.125-1.178-.987zM39.099 3.624a485.882 485.882 0 00-15.227 2.122c-.82.128-1.18.547-1.18 1.369v21.308c0 .823.36 1.127 1.18 1A485.868 485.868 0 0139.099 27.3c.821-.102 1.183-.506 1.183-1.329v-3.847c0-.822-.362-1.14-1.183-1.04-3.024.373-6.046.774-9.064 1.204v-2.828c2.133-.303 4.266-.593 6.402-.868.821-.106 1.182-.513 1.182-1.335V13.74c0-.822-.36-1.139-1.182-1.033-2.136.275-4.27.565-6.402.868v-2.532c3.018-.43 6.04-.831 9.064-1.204.821-.1 1.183-.506 1.183-1.328V4.664c0-.822-.362-1.14-1.183-1.04zM61.394 1.397A485.89 485.89 0 0044 3.046c-.823.093-1.185.497-1.185 1.319v3.979c0 .822.362 1.141 1.185 1.048 1.612-.182 3.224-.356 4.837-.522v16.146c0 .822.363 1.146 1.186 1.063 1.778-.178 3.557-.347 5.337-.505.824-.074 1.186-.466 1.186-1.289V8.14c1.616-.14 3.232-.273 4.848-.396.824-.064 1.187-.452 1.187-1.274V2.491c0-.822-.363-1.157-1.187-1.094zM73.177.638c-2.223.116-4.446.247-6.669.394-.825.055-1.188.442-1.188 1.264v4.867c0 .822.363 1.158 1.188 1.104 1.2-.08 2.399-.154 3.598-.225v.493c0 .592-.297.939-.891.975-.76.045-1.519.093-2.278.143-.824.053-1.188.44-1.188 1.262v1.315c0 .856.364 1.16 1.188 1.105.847-.055 1.694-.108 2.542-.159 2.971-.177 4.886-1.878 4.886-5.233V1.761c0-.822-.363-1.166-1.188-1.123zM90.854 9.014a495.78 495.78 0 00-4.925-.555c-.561-.052-.892-.437-.892-1.029 0-.592.33-.996.892-1.01 2.567-.067 5.134-.113 7.702-.139.826-.008 1.19-.372 1.19-1.194V1.173c0-.822-.364-1.181-1.19-1.173a485.6 485.6 0 00-9.255.182c-4.296.127-6.839 2.289-6.839 6.035V9.67c0 3.684 2.016 4.906 5.12 5.264 1.653.176 3.305.36 4.958.554.562.053.86.343.86 1.1 0 .525-.298.959-.86.971-2.964.067-5.926.16-8.889.282-.825.033-1.189.411-1.189 1.233v3.848c0 .822.364 1.167 1.19 1.134 3.48-.142 6.96-.247 10.442-.314 4.263-.08 6.842-2.12 6.841-5.871v-3.453c0-3.682-2.05-4.993-5.156-5.404zM124.002.643a485.901 485.901 0 00-17.445-.601c-.827-.014-1.19.343-1.19 1.165v3.98c0 .821.363 1.188 1.19 1.201 1.62.027 3.239.062 4.858.105v16.145c0 .823.364 1.194 1.19 1.217 1.784.052 3.568.114 5.352.185.826.033 1.19-.313 1.19-1.135V6.76a485.6 485.6 0 014.855.23c.825.044 1.188-.297 1.188-1.12V1.892c0-.822-.363-1.204-1.188-1.248zM142.939 3.094c-.263-.78-.79-1.158-1.648-1.234a485.927 485.927 0 00-8.871-.702c-.89-.062-1.42.232-1.683.97l-2.871 7.283c-.892 2.248-1.288 3.87-1.288 5.185v8.682c0 .822.364 1.204 1.189 1.254 1.617.097 3.234.203 4.85.316.826.058 1.188-.276 1.189-1.099v-4.603c1.946.142 3.892.295 5.837.46v4.604c0 .822.396 1.217 1.286 1.294 1.659.146 3.317.3 4.975.462.823.08 1.186-.244 1.186-1.066v-8.682c0-1.315-.396-3-1.285-5.388-.955-2.582-1.91-5.16-2.866-7.736zm-8.803 10.091l1.55-4.882c.165-.382.363-.531.627-.51l.824.065c.264.02.462.201.626.609l1.55 5.126a485.278 485.278 0 00-5.177-.408zM169.046 16.069c-1.585-.233-3.171-.457-4.758-.674-.82-.112-1.182.202-1.182 1.024v5.327c-1.5-.201-3-.395-4.5-.582V4.886c0-.821-.362-1.229-1.183-1.33a485.793 485.793 0 00-5.098-.594c-.823-.092-1.184.231-1.184 1.053v21.309c0 .822.361 1.222 1.184 1.314a485.9 485.9 0 0116.72 2.157c.82.12 1.181-.187 1.181-1.01V17.427c0-.822-.36-1.238-1.18-1.358zM190.11 17.43c1.108-2.342 2.216-4.68 3.323-7.013.294-.632.033-1.079-.716-1.227-1.673-.33-3.347-.652-5.022-.965-.848-.158-1.305.055-1.632.784-1.12 2.348-2.242 4.701-3.364 7.058a484.46 484.46 0 00-1.308-.228V8.275c0-.822-.359-1.246-1.177-1.386-1.69-.288-3.38-.567-5.072-.837-.818-.13-1.179.175-1.179.997v21.309c0 .822.36 1.24 1.18 1.37 1.69.27 3.382.55 5.071.838.818.14 1.177-.16 1.177-.982v-7.53c1.439.249 2.877.504 4.313.766.686.125 1.045.586 1.045 1.31v6.412c0 .822.36 1.25 1.175 1.402 1.675.314 3.348.636 5.02.967.816.162 1.174-.128 1.174-.95v-9.273c0-2.63-1.563-4.657-4.009-5.259z"/></g><g><path class="st2" d="M15.309 60.846c.295 0 .54.098.737.295a1 1 0 01.295.737V75.89c0 .28-.098.519-.295.716a1.001 1.001 0 01-.737.295h-1.644a1 1 0 01-.737-.295.976.976 0 01-.295-.716v-5.352c0-.281-.063-.523-.19-.727-.126-.203-.273-.306-.442-.306-.168 0-.313.103-.432.306-.12.204-.179.446-.179.727v5.352c0 .28-.098.519-.295.716a1.002 1.002 0 01-.737.295H8.693a1 1 0 01-.737-.295.974.974 0 01-.296-.716V61.878c0-.295.099-.54.296-.737.196-.197.442-.295.737-.295h1.665c.295 0 .54.098.737.295a1 1 0 01.295.737v5.373c0 .295.056.54.169.737.112.197.259.295.442.295.169 0 .316-.098.442-.295.127-.196.19-.442.19-.737v-5.373a1 1 0 01.295-.737c.197-.197.443-.295.737-.295h1.644zM26.075 69.948c.14.337.21.66.21.969v4.973c0 .294-.098.54-.294.737a1.001 1.001 0 01-.738.295H20.24c-.282 0-.594-.07-.938-.21-.344-.142-.615-.31-.811-.507l-.147-.147a2.592 2.592 0 01-.517-.79 2.34 2.34 0 01-.221-.959v-.927c0-.28.07-.59.21-.927.141-.337.317-.611.528-.822l.147-.147c.21-.21.477-.386.8-.527.324-.14.64-.21.949-.21h1.285c.295 0 .54-.057.738-.169.196-.112.294-.26.294-.443 0-.168-.098-.315-.294-.442-.198-.126-.443-.19-.738-.19h-.4c-.296 0-.542-.055-.738-.168-.197-.112-.295-.26-.295-.443 0-.168.102-.312.305-.431.204-.12.446-.18.727-.18h2.529c.126 0 .274.018.442.053a2.927 2.927 0 01.959.38c.147.09.27.186.369.284l.126.147c.211.197.386.464.527.8zm-3.519 3.076c0-.295-.056-.54-.168-.737-.113-.197-.26-.295-.443-.295-.168 0-.313.102-.432.305-.12.204-.179.446-.179.727v1.665c0 .28.06.52.179.716.12.197.264.295.432.295.169 0 .313-.098.432-.295.12-.197.18-.435.18-.716v-1.665zM35.999 69.969c.14.351.21.667.21.948v3.392c0 .282-.07.594-.21.938-.14.344-.31.615-.506.811l-.147.147c-.197.197-.471.365-.822.506-.351.14-.667.211-.948.211H32.29a1 1 0 00-.737.295 1 1 0 00-.295.737v.422c0 .295-.098.54-.295.737a1.002 1.002 0 01-.737.295h-1.644a1 1 0 01-.737-.295 1 1 0 01-.295-.737v-9.06a1 1 0 01.295-.738c.197-.196.443-.295.737-.295h4.994c.28 0 .597.07.948.211.351.14.625.31.822.506l.147.147c.196.197.365.471.506.822zm-3.498.569c0-.295-.056-.54-.168-.738-.113-.196-.268-.295-.464-.295-.168 0-.313.103-.431.306-.12.204-.18.446-.18.727v4.15c0 .282.06.52.18.717.118.197.263.295.43.295.17 0 .317-.098.443-.295.127-.197.19-.435.19-.716v-4.151zM45.922 69.969c.14.351.21.667.21.948v3.392c0 .282-.07.594-.21.938-.14.344-.31.615-.506.811l-.147.147c-.197.197-.47.365-.822.506-.351.14-.667.211-.948.211h-1.285a1 1 0 00-.738.295 1 1 0 00-.295.737v.422c0 .295-.098.54-.294.737a1.002 1.002 0 01-.738.295h-1.643a1 1 0 01-.738-.295 1 1 0 01-.295-.737v-9.06a1 1 0 01.295-.738c.197-.196.443-.295.738-.295h4.993c.28 0 .597.07.948.211.351.14.625.31.822.506l.147.147c.197.197.366.471.506.822zm-3.497.569c0-.295-.057-.54-.17-.738-.111-.196-.266-.295-.463-.295-.168 0-.313.103-.431.306-.12.204-.18.446-.18.727v4.15c0 .282.06.52.18.717.118.197.263.295.431.295.169 0 .317-.098.443-.295.126-.197.19-.435.19-.716v-4.151zM55.772 68.61a.993.993 0 01.305.727v7.458c0 .296-.07.611-.21.948-.14.337-.316.609-.527.816l-.147.124c-.197.207-.464.38-.8.518-.338.138-.662.207-.97.207h-2.528c-.296 0-.542-.055-.738-.165-.197-.112-.295-.256-.295-.436 0-.166.098-.31.295-.435.196-.124.442-.186.738-.186h.42c.296 0 .541-.056.739-.169.196-.112.294-.26.294-.442 0-.169-.098-.316-.294-.442-.198-.127-.443-.19-.738-.19H50.03c-.282 0-.598-.07-.949-.21-.35-.141-.625-.31-.821-.506l-.147-.148c-.198-.196-.366-.467-.506-.811-.14-.344-.211-.657-.211-.938v-4.993a1 1 0 01.295-.738c.197-.196.443-.295.738-.295h1.643c.295 0 .54.099.737.295.197.197.295.443.295.738v5.373c0 .28.06.52.18.716.118.197.27.295.452.295.169 0 .313-.098.432-.295.12-.197.18-.435.18-.716v-5.373c0-.295.098-.54.294-.738.197-.196.443-.295.738-.295h1.664c.281 0 .523.103.727.306zM71.394 61.14a1 1 0 01.295.738v11.188c0 .295-.07.611-.21.948-.141.338-.317.611-.528.822l-1.369 1.37a2.726 2.726 0 01-.832.505c-.345.14-.657.211-.938.211h-.927c-.281 0-.597-.07-.948-.21-.352-.142-.625-.31-.822-.507l-1.37-1.37c-.196-.21-.368-.48-.515-.81a2.338 2.338 0 01-.222-.959V61.878c0-.295.098-.54.295-.737.197-.197.443-.295.738-.295h1.643c.295 0 .54.098.738.295a1 1 0 01.294.737v12.81c0 .268.064.503.19.706.126.204.274.306.442.306.17 0 .313-.098.432-.295.12-.197.18-.435.18-.716v-12.81a1 1 0 01.294-.738c.197-.197.443-.295.738-.295h1.664a1 1 0 01.738.295zM81.423 69.948c.14.337.21.66.21.969v4.973c0 .294-.098.54-.294.737a1.001 1.001 0 01-.738.295h-5.014c-.282 0-.594-.07-.938-.21-.344-.142-.615-.31-.811-.507l-.147-.147a2.592 2.592 0 01-.517-.79 2.34 2.34 0 01-.221-.959v-.927c0-.28.07-.59.21-.927.141-.337.317-.611.528-.822l.147-.147c.211-.21.477-.386.8-.527.324-.14.64-.21.949-.21h1.285c.295 0 .54-.057.738-.169.196-.112.295-.26.295-.443 0-.168-.099-.315-.295-.442-.197-.126-.443-.19-.738-.19h-.4c-.295 0-.541-.055-.738-.168-.196-.112-.295-.26-.295-.443 0-.168.102-.312.306-.431.203-.12.445-.18.726-.18H79c.127 0 .274.018.443.053a2.926 2.926 0 01.959.38c.147.09.27.186.368.284l.126.147c.211.197.387.464.527.8zm-3.518 3.076c0-.295-.057-.54-.17-.737-.111-.197-.26-.295-.442-.295-.168 0-.312.102-.432.305-.12.204-.179.446-.179.727v1.665c0 .28.06.52.18.716.119.197.263.295.431.295.169 0 .313-.098.432-.295.12-.197.18-.435.18-.716v-1.665zM86.31 61.14a1 1 0 01.296.738V75.89c0 .294-.099.54-.295.737a1.002 1.002 0 01-.737.295H83.93a1 1 0 01-.737-.295 1 1 0 01-.296-.737V61.878c0-.295.098-.54.296-.737.196-.197.442-.295.737-.295h1.644c.294 0 .54.098.737.295zM96.319 69.969c.14.351.21.667.21.948v.927c0 .281-.07.594-.21.938-.141.344-.31.615-.506.811l-.147.147c-.211.211-.482.387-.812.527-.33.14-.65.21-.959.21H92.61c-.295 0-.54.057-.737.17-.197.112-.295.26-.295.442 0 .155.098.295.295.421.196.127.442.19.737.19h.421c.296 0 .541.056.738.168.196.113.295.26.295.443 0 .168-.102.312-.306.432a1.416 1.416 0 01-.727.179h-2.528c-.281 0-.597-.07-.948-.21-.35-.142-.625-.31-.822-.507l-.147-.147c-.197-.197-.365-.467-.506-.811-.14-.344-.21-.656-.21-.938v-3.392c0-.28.07-.597.21-.948.14-.35.309-.625.506-.822l.147-.147c.197-.197.471-.365.822-.506.35-.14.667-.21.948-.21h3.392c.281 0 .597.07.949.21.35.14.624.31.822.506l.147.147c.196.197.365.471.506.822zm-3.498.569c0-.295-.057-.54-.169-.738-.112-.196-.267-.295-.463-.295-.169 0-.313.103-.432.306-.12.204-.18.446-.18.727v1.664c0 .295.057.541.17.738.112.197.259.295.442.295.168 0 .316-.098.442-.295.127-.197.19-.443.19-.738v-1.664zM106.263 69.948c.141.337.21.66.21.969v4.973c0 .294-.097.54-.294.737a1.001 1.001 0 01-.737.295h-1.665a1 1 0 01-.737-.295 1.001 1.001 0 01-.295-.737v-5.352c0-.295-.057-.54-.169-.738-.112-.196-.26-.295-.442-.295-.169 0-.316.099-.442.295-.127.197-.19.443-.19.738v5.352c0 .294-.099.54-.295.737a1.002 1.002 0 01-.737.295h-1.644a1 1 0 01-.737-.295 1 1 0 01-.296-.737v-6.574a1 1 0 01.296-.738c.196-.196.442-.295.737-.295h5.014c.127 0 .27.018.432.053.162.035.324.084.485.147.161.064.316.141.464.232.147.092.27.187.368.285l.148.147c.21.197.386.464.526.8zM115.66 68.452c.197.113.295.26.295.442 0 .17-.101.313-.305.432-.204.12-.446.18-.727.18h-.421a1 1 0 00-.738.294.999.999 0 00-.295.738v5.352c0 .294-.098.54-.295.737a1 1 0 01-.737.295h-1.644a1 1 0 01-.737-.295 1.001 1.001 0 01-.295-.737v-5.352c0-.295-.098-.54-.295-.738a1.002 1.002 0 00-.737-.295h-.422c-.294 0-.54-.055-.737-.168-.197-.112-.295-.26-.295-.443 0-.168.102-.312.306-.431.203-.12.445-.18.726-.18h.422a1 1 0 00.737-.295 1 1 0 00.295-.737v-.421a1 1 0 01.295-.738c.196-.196.442-.295.737-.295h1.644a1 1 0 01.737.295c.197.197.295.442.295.738v.421c0 .295.098.54.295.737a1 1 0 00.738.295h.421c.295 0 .54.057.737.17zM120.633 63.606c.196.197.294.442.294.737v1.665a1 1 0 01-.294.737 1 1 0 01-.738.295h-1.643a1 1 0 01-.738-.295.998.998 0 01-.295-.737v-1.665a1 1 0 01.295-.737 1 1 0 01.738-.295h1.643c.295 0 .54.098.738.295zm0 4.972c.196.197.294.443.294.738v6.574c0 .294-.098.54-.294.737a1.002 1.002 0 01-.738.295h-1.643a1 1 0 01-.738-.295 1 1 0 01-.295-.737v-6.574a1 1 0 01.295-.738c.197-.196.443-.295.738-.295h1.643c.295 0 .54.099.738.295zM130.661 69.948c.14.337.21.66.21.969v4.973c0 .294-.098.54-.294.737a1.001 1.001 0 01-.737.295h-1.665a1 1 0 01-.737-.295 1.001 1.001 0 01-.295-.737v-5.352c0-.295-.057-.54-.17-.738-.111-.196-.259-.295-.442-.295-.168 0-.316.099-.442.295-.126.197-.19.443-.19.738v5.352c0 .294-.098.54-.294.737a1.002 1.002 0 01-.738.295h-1.643a1 1 0 01-.738-.295 1 1 0 01-.295-.737v-6.574a1 1 0 01.295-.738c.197-.196.443-.295.738-.295h5.014c.127 0 .27.018.432.053.162.035.323.084.485.147.16.064.316.141.464.232.147.092.27.187.368.285l.147.147c.211.197.387.464.527.8zM140.585 69.969c.14.351.21.667.21.948v.927c0 .281-.07.594-.21.938-.14.344-.31.615-.506.811l-.147.147c-.21.211-.481.387-.811.527-.33.14-.65.21-.959.21h-1.285c-.295 0-.541.057-.738.17-.196.112-.295.26-.295.442 0 .155.099.295.295.421.197.127.443.19.738.19h.421c.296 0 .54.056.737.168.197.113.296.26.296.443 0 .168-.102.312-.306.432a1.416 1.416 0 01-.727.179h-2.528c-.282 0-.597-.07-.948-.21-.351-.142-.626-.31-.822-.507l-.147-.147c-.197-.197-.366-.467-.506-.811-.14-.344-.211-.656-.211-.938v-3.392c0-.28.07-.597.211-.948.14-.35.309-.625.506-.822L133 69c.197-.197.47-.365.822-.506.35-.14.667-.21.948-.21h3.392c.281 0 .597.07.948.21.351.14.625.31.822.506l.147.147c.197.197.366.471.506.822zm-3.497.569c0-.295-.057-.54-.17-.738-.111-.196-.266-.295-.463-.295-.168 0-.312.103-.431.306-.12.204-.18.446-.18.727v1.664c0 .295.057.541.17.738.111.197.259.295.441.295.169 0 .317-.098.443-.295.126-.197.19-.443.19-.738v-1.664zM145.494 61.14a1 1 0 01.295.738v2.887a1 1 0 01-.295.737 1 1 0 01-.737.295h-1.665a1 1 0 01-.737-.295.999.999 0 01-.296-.737v-2.887c0-.295.098-.54.296-.737.196-.197.442-.295.737-.295h1.665c.294 0 .54.098.737.295zM153.942 74.488c0 .238-.07.51-.21.819s-.316.56-.527.755l-.126.146c-.197.196-.47.364-.822.504-.351.14-.667.21-.948.21h-3.771c-.296 0-.54-.056-.738-.168-.197-.113-.295-.26-.295-.443 0-.169.102-.313.305-.432.204-.12.446-.18.728-.18h1.664c.295 0 .54-.094.738-.284a.966.966 0 00.295-.726v-.422c0-.295-.099-.54-.295-.737a1.003 1.003 0 00-.738-.295h-1.306c-.282 0-.59-.07-.927-.211a2.51 2.51 0 01-.822-.527L146 72.35a2.703 2.703 0 01-.527-.759 1.963 1.963 0 01-.211-.842c0-.576.246-1.11.738-1.602l.147-.147c.196-.197.464-.365.8-.506.338-.14.654-.21.949-.21h3.771c.295 0 .541.056.738.168s.295.26.295.442c0 .17-.102.313-.306.432-.204.12-.446.18-.727.18h-1.643a1.014 1.014 0 00-1.032 1.041v.424a1.014 1.014 0 001.032 1.042h1.285c.295 0 .611.07.948.21.337.14.611.315.822.524l.126.126c.492.49.737 1.028.737 1.615zM169.313 62.51c.14.337.21.66.21.97v10.83c0 .294-.07.607-.21.937-.14.33-.316.6-.527.811l-.147.147a2.466 2.466 0 01-.801.506c-.337.14-.654.211-.949.211h-5.014a1 1 0 01-.737-.295 1 1 0 01-.296-.737V61.878c0-.295.099-.54.296-.737.196-.197.442-.295.737-.295h5.014c.281 0 .594.07.938.21.344.141.614.31.812.506l.147.148c.21.197.386.463.527.8zm-3.519.59c0-.28-.06-.523-.18-.727-.119-.203-.263-.305-.431-.305-.169 0-.313.102-.432.305-.12.204-.18.446-.18.727V74.69c0 .28.06.52.18.716.119.197.263.295.432.295.168 0 .312-.098.432-.295.119-.197.179-.435.179-.716V63.1zM179.257 69.948c.14.337.21.66.21.969v4.973c0 .294-.098.54-.295.737a1.001 1.001 0 01-.737.295h-5.014c-.282 0-.594-.07-.938-.21-.344-.142-.615-.31-.811-.507l-.147-.147a2.592 2.592 0 01-.517-.79 2.34 2.34 0 01-.221-.959v-.927c0-.28.07-.59.21-.927.141-.337.317-.611.528-.822l.147-.147c.21-.21.477-.386.8-.527.323-.14.64-.21.949-.21h1.284c.296 0 .541-.057.738-.169.197-.112.295-.26.295-.443 0-.168-.098-.315-.295-.442-.197-.126-.442-.19-.738-.19h-.4c-.295 0-.54-.055-.737-.168-.197-.112-.295-.26-.295-.443 0-.168.102-.312.305-.431.204-.12.446-.18.727-.18h2.529c.126 0 .273.018.442.053a2.926 2.926 0 01.959.38c.147.09.27.186.369.284l.126.147c.21.197.386.464.527.8zm-3.519 3.076c0-.295-.056-.54-.169-.737-.112-.197-.26-.295-.442-.295-.168 0-.313.102-.432.305-.12.204-.179.446-.179.727v1.665c0 .28.06.52.179.716.12.197.264.295.432.295.169 0 .313-.098.432-.295.12-.197.18-.435.18-.716v-1.665zM189.107 68.61a.993.993 0 01.305.727v7.458c0 .296-.07.611-.21.948-.14.337-.316.609-.527.816l-.147.124c-.197.207-.464.38-.8.518-.338.138-.662.207-.97.207h-2.528c-.296 0-.542-.055-.738-.165-.197-.112-.295-.256-.295-.436 0-.166.098-.31.295-.435.196-.124.442-.186.738-.186h.42c.296 0 .541-.056.738-.169.197-.112.295-.26.295-.442 0-.169-.098-.316-.295-.442-.197-.127-.442-.19-.738-.19h-1.284c-.282 0-.598-.07-.949-.21-.35-.141-.625-.31-.821-.506l-.148-.148c-.197-.196-.365-.467-.505-.811-.14-.344-.211-.657-.211-.938v-4.993a1 1 0 01.295-.738c.197-.196.443-.295.737-.295h1.644c.295 0 .54.099.737.295.197.197.295.443.295.738v5.373c0 .28.06.52.18.716.118.197.27.295.452.295.169 0 .313-.098.432-.295.12-.197.18-.435.18-.716v-5.373c0-.295.098-.54.294-.738.197-.196.443-.295.737-.295h1.665c.281 0 .523.103.727.306z"/></g><g><path class="st3" d="M121.055 50.774c1.492-.162 2.465 1.525 1.58 2.735.885 1.21-.088 2.897-1.58 2.735-.605 1.372-2.552 1.372-3.158 0-1.49.162-2.465-1.525-1.579-2.735-.886-1.21.088-2.897 1.58-2.735.605-1.372 2.552-1.372 3.157 0z"/><circle class="st4" cx="119.476" cy="53.509" r="1.338"/><path d="M115.843 41.552c1.491-.162 2.465 1.524 1.579 2.735.886 1.21-.088 2.897-1.58 2.735-.604 1.372-2.552 1.372-3.157 0-1.491.162-2.465-1.525-1.58-2.735-.885-1.21.089-2.897 1.58-2.735.605-1.373 2.553-1.373 3.158 0z" fill="#893420"/><circle class="st4" cx="114.264" cy="44.287" r="1.338"/><path class="st2" d="M105.19 35.205c1.492-.162 2.466 1.525 1.58 2.735.886 1.21-.088 2.897-1.58 2.735-.605 1.372-2.552 1.372-3.157 0-1.492.162-2.465-1.525-1.58-2.735-.885-1.21.088-2.897 1.58-2.735.605-1.372 2.552-1.372 3.158 0z"/><circle class="st4" cx="103.612" cy="37.94" r="1.338"/><path class="st1" d="M113.122 43.344c1.492-.162 2.465 1.525 1.58 2.735.885 1.21-.088 2.897-1.58 2.735-.605 1.372-2.552 1.372-3.158 0-1.49.162-2.465-1.525-1.578-2.735-.887-1.21.087-2.897 1.578-2.735.606-1.372 2.553-1.372 3.158 0z"/><circle class="st4" cx="111.543" cy="46.079" r="1.338"/><path class="st1" d="M118.476 46.922c1.49-.162 2.465 1.525 1.579 2.735.886 1.21-.088 2.897-1.58 2.735-.605 1.372-2.552 1.372-3.157 0-1.492.162-2.465-1.525-1.58-2.735-.885-1.21.088-2.897 1.58-2.735.605-1.372 2.552-1.372 3.158 0z"/><circle class="st4" cx="116.897" cy="49.657" r="1.338"/><path class="st3" d="M108.539 40.386c1.564-.17 2.586 1.6 1.656 2.87.93 1.269-.092 3.038-1.656 2.868-.635 1.44-2.679 1.44-3.313 0-1.565.17-2.587-1.6-1.657-2.869-.93-1.27.092-3.04 1.657-2.87.634-1.44 2.678-1.44 3.313 0z"/><circle class="st4" cx="106.882" cy="43.255" r="1.403"/><path class="st2" d="M111.418 37.178c1.543-.168 2.55 1.577 1.634 2.83.917 1.252-.09 2.997-1.634 2.83-.626 1.42-2.641 1.42-3.268 0-1.543.167-2.55-1.578-1.633-2.83-.917-1.253.09-2.998 1.633-2.83.627-1.42 2.642-1.42 3.268 0z"/><circle class="st4" cx="109.784" cy="40.008" r="1.384"/><path class="st2" d="M114.064 49.668c1.492-.162 2.465 1.524 1.58 2.735.885 1.21-.089 2.897-1.58 2.735-.605 1.372-2.552 1.372-3.158 0-1.491.162-2.465-1.525-1.579-2.735-.886-1.21.088-2.897 1.58-2.735.605-1.373 2.552-1.373 3.157 0z"/><circle class="st4" cx="112.485" cy="52.403" r="1.338"/><path d="M113.22 48.817c.07.032.14.058.205.1-.005-.032-.007-.064-.01-.096-.063.003-.13 0-.195-.004z" fill="none"/><path d="M109.327 52.403c-.886 1.21.088 2.897 1.58 2.735.605 1.372 2.552 1.372 3.157 0 1.203.13 2.067-.94 1.893-1.995.064.041.133.066.201.098.045.091.097.181.16.268-.886 1.21.088 2.897 1.58 2.735.605 1.372 2.552 1.372 3.157 0 1.491.162 2.465-1.525 1.58-2.735.885-1.21-.089-2.897-1.58-2.735a1.672 1.672 0 00-.84-.85 1.797 1.797 0 00-.16-.267c.575-.785.364-1.768-.26-2.32-1.547 5.338-9.322 3.15-10.314 2.848-.542.563-.695 1.478-.154 2.218z" fill="#d8d8d8"/><path class="st8" d="M108.255 42.875l-10.19 3.707s6.486 5.158 6.884 4.841c.398-.317 3.96-3.535 4.04-4.007s-.734-4.541-.734-4.541zM115.054 50.73s-3.726 1.612-8.887 1.988c-5.565.406.715 3.57.715 3.57s7.099-.043 7.382-.121c.283-.077 1.212.087 1.295-.57s-.505-4.867-.505-4.867z"/><path class="st0" d="M115.779 51.696c-.433-.56-.725-.966-.725-.966s-.587 5.725-3.568 4.48c-2.981-1.246-1.107-4.012-.263-6.199.844-2.186-2.968-6.136-2.968-6.136s-.505 6.278-3.118 3.204c-.914-1.076-1.298-2.09-1.41-2.954-.338-2.596-1.645-4.97-3.447-6.868l-.094-.1-22.292 19.897.802 1.793s36.94.068 40.977 0c1.069-.018 1.455-.649 1.45-1.563l-.007.004c-2.85 1.075-5.337-4.592-5.337-4.592z"/><path class="st8" d="M111.005 46.858a29.54 29.54 0 00-1.436-2.415c-.688-.916-1.314-1.568-1.314-1.568s-.367 4.546-2.088 4.003l-5.58 1.662-15.39 4.584 16.255-3.933 7.54-1.824 2.021-.489-.008-.02z"/><path class="st1" d="M119.673 57.847c1.069-.018 1.455-.649 1.45-1.563l-.007.004c-2.85 1.075-5.337-4.592-5.337-4.592-.433-.56-.725-.966-.725-.966s-.505 4.907-2.948 4.642c0 0-12.235 1.605-20.485 2.475l1.247.02c10.886.013 24.448.02 26.805-.02z"/><path class="st0" d="M77.894 56.054l-7.29-6.397v4.647l-2.93-.795v4.368h11.022z"/><path class="st1" d="M70.604 54.304l7.29 1.75-7.29-6.397zM91.082 29.847c-.899-.258-1.891.452-2.217 1.585a2.663 2.663 0 00-.068.339 2.66 2.66 0 00-.28-.201c-1.011-.609-2.221-.452-2.704.349-.482.801-.055 1.944.956 2.552l3.996 2.306 1.356-4.41c.325-1.134-.14-2.262-1.039-2.52zm-1.477 3.978h-.002v-.002l.003.001-.001.001z"/><path class="st2" d="M72.19 34.787c-1.113.365-1.643 1.799-1.183 3.203.046.14.106.27.167.4a3.334 3.334 0 00-.432-.012c-1.476.08-2.62 1.094-2.557 2.264.063 1.17 1.31 2.054 2.786 1.974l5.767-.42-1.698-5.527c-.46-1.405-1.736-2.247-2.85-1.882zm1.267 5.164l-.002.002v-.004h.003v.002zM129.366 37.55c-.214-.982-1.39-1.56-2.628-1.29-.123.027-.24.066-.355.107.022-.12.042-.24.048-.367.061-1.265-.703-2.33-1.706-2.379-1.003-.048-1.866.938-1.927 2.203l-.148 4.953 4.861-.962c1.238-.27 2.068-1.283 1.855-2.265zm-4.514.627l-.002-.002h.003v.003l-.001-.001z"/></g></svg>