<svg version="1.1" id="Layer_1" xmlns="http://www.w3.org/2000/svg" xmlns:xlink="http://www.w3.org/1999/xlink" x="0" y="0" viewBox="0 0 251.221 68.365" xml:space="preserve"><style>.st0{fill:#ff547e}.st1{fill:#51e6db}.st3{fill:#b58145}.st5{fill:#78ff78}.st6{fill:#feffc5}.st8{fill:#ce9867}</style><path class="st0" d="M13.76 40.439H0c.016-.377.025-.762.025-1.155s.049-1.687.147-3.882c.082-2.13.197-4.644.344-7.543.41-9.058.647-14.586.713-16.585.065-2.146.18-4.16.344-6.044l.098-.59.024-.073c0-.033.082-.09.246-.173.18-.049.5-.073.958-.073.606 0 1.343.04 2.212.123l3.12.319v.098l.344.025-.123 2.359c-.049 1.605-.41 6.388-1.08 14.349-.673 7.862-1.058 12.039-1.156 12.53-.033.148-.048.27-.048.369 0 .082.007.147.024.196.54-.016 2.604-.384 6.191-1.106.574-.113.901-.18.984-.196h.098l.147.05.024.048h.025v.05l.025.073.172-.024.147-.05c.033.034.057.37.074 1.008.016.639.025 2.539.025 5.7h-.345v.197zM.687 40.095v-.934c0-.688.172-4.463.516-11.327.311-6.732.54-12.252.688-16.56.131-3.751.287-5.954.467-6.61l-.05.025c-.163 0-.254.009-.27.025-.016.016-.032.024-.049.024l-.073.516c-.148 1.196-.27 3.203-.369 6.02-.147 4.308-.385 9.837-.712 16.585l-.344 7.543c-.098 2.13-.148 3.694-.148 4.693h.344zm19.677.393l.221-2.482c.098-1.064.278-3.669.54-7.813.246-3.914.467-6.87.664-8.87.278-3.44.516-6.732.712-9.877.246-4.078.442-6.33.59-6.757l.049-.122.123-.074h.098c.017-.017.04-.025.074-.025.41-.065 1.065-.123 1.966-.172a125.3 125.3 0 014.864-.245l6.954-.246v.172l.344-.024v2.555c0 1.293-.05 2.182-.148 2.665-.098.483-.377.758-.835.823a1.52 1.52 0 01-.615.222c-.327.032-.843.049-1.548.049a53.35 53.35 0 01-4.52-.27 13.731 13.731 0 00-1.646-.124c-.115 0-.214.009-.295.025-.083.361-.148 1.204-.197 2.53a107.64 107.64 0 00-.123 4.817c0 .917.025 1.548.074 1.891.671 0 1.588-.056 2.752-.172.852-.098 1.58-.155 2.186-.171l.91-.025c.032 0 .057.008.074.025.015 0 .044.008.086.024.04.016.061.05.061.098.213 0 .331.017.356.05.025.032.037.205.037.515 0 .115-.004.353-.012.713-.009.36-.128 1.794-.357 4.3h-.344l-.024.196h-5.848l-.221 4.644a89.431 89.431 0 00-.123 4.128 11 11 0 00.025.933c.737 0 2.039-.114 3.907-.343 1.768-.23 2.973-.344 3.611-.344.442 0 .729.057.86.171.246.017.385.066.418.148.163.574.246 1.81.246 3.71 0 1.244-.074 1.916-.221 2.015l-.32.024c0 .082-.065.131-.196.148-.017.016-.066.024-.148.024-.082 0-.27.017-.565.05l-1.696.073c-1.768.082-6.036.221-12.8.418zm.368-.344l.344-.024.197-2.114c.147-1.572.331-4.18.552-7.826.221-3.644.434-6.604.64-8.881.204-2.277.445-5.57.724-9.878.23-3.816.418-6.035.565-6.658a1.873 1.873 0 00-.295.05c-.049.016-.09.18-.122.49-.164 1.213-.337 3.268-.516 6.168-.263 4.308-.5 7.6-.713 9.877-.213 2.277-.43 5.233-.651 8.87s-.398 6.24-.528 7.813l-.197 2.113zm29.897.639h-3.194l-.024-1.106c0-.442.048-1.851.147-4.226.327-7.944.573-13.587.737-16.929.098-2.26.237-4.725.417-7.396h-5.085l.049-2.947c0-1.049.123-1.745.368-2.09.164-.228.426-.384.787-.466.54-.115.99-.172 1.35-.172 1.573-.164 3.58-.315 6.02-.454 2.44-.14 4.309-.217 5.603-.234l2.014-.025.344.172.074 5.21-.344.024v.123c-3.014.295-4.693.475-5.037.54h-.05c-.097.868-.18 5.71-.245 14.521-.082 9.435-.172 14.398-.27 14.89-.033.098-.205.18-.516.245-.312.213-1.36.32-3.145.32zm-6.314-30l.024-1.892c.016-.934.057-1.622.123-2.064.065-.443.221-.737.467-.885h-.025c-.295.066-.491.181-.59.344-.213.262-.319 1.139-.319 2.63l-.025 1.867h.345zm3.783 29.68v-.81c0-.426.05-1.835.148-4.227.458-11.744.843-19.91 1.155-24.496h-.344l-.172 2.408c-.115 1.736-.332 6.351-.651 13.845-.32 7.494-.48 11.659-.48 12.494v.786h.344zM66.905 4.227C66.905 1.962 68.565 0 70.88 0c2.717 0 4.026 2.365 4.026 4.981 0 3.522-2.567 7.497-7.297 7.9l-.452-1.46c1.409-.653 2.868-1.61 3.32-3.622-2.113 0-3.572-1.51-3.572-3.572zM82.707 40.34c-1.097 0-2.178-.294-3.243-.884v.074c-1.081-.688-2.006-1.45-2.776-2.285-.836-.868-1.254-1.515-1.254-1.941 0-.115.041-.254.124-.418 0-.18.417-1.139 1.253-2.875l1.474-2.899.467.442.098-.197.91.86c1.031.983 1.981 1.491 2.85 1.524.933 0 1.62-.5 2.063-1.499.328-.753.492-1.416.492-1.99 0-.31-.05-.598-.148-.86-.262-.737-1.057-1.548-2.384-2.432-1.785-1.18-3.08-2.338-3.881-3.477-.803-1.138-1.344-2.592-1.622-4.361a11.819 11.819 0 01-.172-1.99c0-1.41.299-2.977.897-4.705a9.134 9.134 0 013.059-4.288c1.326-.983 2.686-1.49 4.078-1.524a6.66 6.66 0 012.015.32c1.49.36 2.973 1.278 4.447 2.752.394.41.73.79 1.008 1.142.278.353.418.578.418.676 0 .098-.194.373-.578.823-.385.45-.864.954-1.437 1.511l-1.99 1.99-.148-.123-.368.369-1.057-.958a6.088 6.088 0 00-.848-.664c-.303-.196-.549-.327-.737-.393a1.779 1.779 0 00-1.094-.024c-1.146.671-1.776 1.965-1.89 3.882v.221c0 .754.253 1.437.76 2.052.508.614 1.564 1.429 3.17 2.445 1.933 1.195 3.235 2.227 3.907 3.095.671.869 1.114 2.08 1.326 3.636.083.623.123 1.229.123 1.819 0 3.063-1.154 5.864-3.464 8.402-1.065 1.115-2.212 1.876-3.44 2.286a6.62 6.62 0 01-2.408.467zm-1.425-.442c-1.294-.426-2.628-1.36-4.005-2.8-.77-.836-1.154-1.442-1.154-1.82 0-.13.135-.51.405-1.141.27-.63.962-2.052 2.076-4.264l-.221-.196-1.253 2.506c-.606 1.196-1.024 2.122-1.253 2.777l-.098.368c0 .328.384.893 1.155 1.696 1.473 1.572 2.923 2.53 4.348 2.874zm2.457-8.108c.72-.18 1.253-.667 1.597-1.462.345-.794.516-1.494.516-2.1 0-.345-.102-.783-.307-1.315-.205-.532-.979-1.24-2.322-2.125-1.768-1.163-3.042-2.302-3.82-3.415-.779-1.115-1.315-2.556-1.61-4.325a12.607 12.607 0 01-.147-1.917c0-1.392.295-2.943.884-4.655a9.05 9.05 0 012.998-4.239 8.646 8.646 0 011.573-.909 7.22 7.22 0 00-1.99 1.081c-1.36 1.081-2.392 2.63-3.097 4.644-.475 1.392-.712 2.769-.712 4.128 0 .622.049 1.245.147 1.867.279 1.753.803 3.174 1.573 4.263.77 1.09 2.03 2.216 3.784 3.378 1.359.885 2.203 1.745 2.53 2.58.115.311.172.656.172 1.032 0 .623-.172 1.319-.516 2.088-.295.656-.712 1.123-1.253 1.401zm4.595-18.157l.147-.148-.54-.516a5.736 5.736 0 00-.86-.663c-.41-.262-.762-.417-1.057-.467.508.23 1.016.573 1.524 1.032l.786.762z"/><path class="st1" d="M118.147 40.685c-.753 0-1.466-.09-2.137-.27h-.05c-.917-.23-1.67-.55-2.26-.958-.59-.41-1.262-1.073-2.015-1.99-2.588-3.03-3.882-7.396-3.882-13.097 0-4.815.802-8.976 2.408-12.481 1.556-3.44 3.669-5.676 6.339-6.708a8.617 8.617 0 012.875-.467c.426 0 .86.033 1.302.098 1.638.295 2.981.885 4.03 1.77 1.752 1.457 2.629 3.44 2.629 5.945l.024 2.457c-2.85 1.18-4.296 1.774-4.337 1.782a.495.495 0 01-.086.012l-.54.221c-.066.017-.11.03-.135.037a.16.16 0 00-.062.037h-.147l-.049-.05-.061-.06c-.025-.025-.038-.078-.038-.16-.048-.295-.073-.82-.073-1.573 0-2.03-.574-3.489-1.72-4.373-.295-.197-.59-.295-.885-.295-.114 0-.23.017-.343.049-.934.491-1.774 1.606-2.519 3.341-.745 1.737-1.29 3.907-1.634 6.511-.115.984-.172 2.04-.172 3.17 0 5.078.688 8.46 2.064 10.148.524.655 1.048 1.114 1.572 1.376.017 0 .025.008.025.024.786 0 1.487-.54 2.1-1.622s1.06-2.628 1.34-4.644l.221-1.72 2.58.517c1.146.245 1.965.45 2.457.614.376.115.598.205.663.27.065.066.098.23.098.492 0 .704-.147 1.695-.442 2.973-.213.868-.45 1.67-.712 2.407-.459 1.148-1.122 2.24-1.99 3.28-.869 1.04-1.712 1.749-2.53 2.126a3.954 3.954 0 00-.382.135.053.053 0 01-.037.012c-.016 0-.024.008-.024.025-1.049.425-2.204.639-3.465.639zm-2.334-.664c-.672-.213-1.253-.516-1.744-.909s-1.073-.99-1.745-1.793c-2.555-2.965-3.833-7.29-3.833-12.973 0-4.668.762-8.73 2.285-12.187 1.474-3.358 3.464-5.593 5.97-6.708-.016 0-.024.009-.024.025h-.073c-2.556.982-4.604 3.162-6.143 6.535-1.572 3.457-2.359 7.576-2.359 12.36 0 5.634 1.27 9.926 3.808 12.874.705.868 1.323 1.494 1.855 1.88s1.2.683 2.003.896zm3.416-4.742c1.556-.458 2.604-2.571 3.144-6.339l.172-1.278-.32-.073-.196 1.376c-.278 2.03-.737 3.62-1.375 4.766-.41.737-.885 1.253-1.425 1.548zm3.046-18.574l.344-.123a10.24 10.24 0 01-.074-1.377c0-1.032-.156-1.944-.467-2.74-.31-.793-.745-1.378-1.302-1.756a1.744 1.744 0 00-.737-.294l.295.171c.606.393 1.069 1 1.388 1.819.32.819.48 1.76.48 2.825 0 .688.024 1.18.073 1.475zm18.717 23.415h-3.44c-1.458 0-2.383-.034-2.776-.099-.476-.066-.713-.278-.713-.638v-.173l.025-.294.025-1.106.171-3.784c.131-3.374.557-13.038 1.278-28.992l1.327-.222a22.113 22.113 0 012.973-.196h1.916v.147h.344c0 6.307.008 9.918.025 10.836 0 1.72.065 2.785.197 3.194.048.213.13.344.245.393a6.19 6.19 0 001.45.172c.556 0 .99-.049 1.302-.148l.32-.147.024-.196a3.56 3.56 0 00.024-.468c.098-1.113.172-3.25.222-6.412.098-3.8.147-5.946.147-6.437l.024-.074v-.614a.448.448 0 01.246-.32c.328-.163 1.13-.246 2.408-.246l2.604-.024v.172h.369l.246 19.902.049 15.11h-.369v.172l-6.265.197.295-14.767h-3.489l-.172 1.573c-.148 1.179-.221 2.604-.221 4.275 0 .737-.017 1.646-.05 2.727-.049 1.016-.18 3.12-.393 6.315h-.343l-.025.172zm-6.093-.418a.425.425 0 01-.148-.344c0-.688.5-12.047 1.499-34.079l-.369.05a16041.13 16041.13 0 00-1.425 32.506l-.049 1.548c0 .049.008.102.025.16.016.057.147.11.393.159h.074zm10.81-.197l.369-.024.295-14.595h-.344l-.32 14.62zm.099-20.122c.294-.065.467-.164.515-.295.115-.377.217-2.748.308-7.113.09-4.365.143-6.736.16-7.113 0-.05.024-.099.073-.148-.246.066-.377.107-.393.123l-.024.05-.172 7.1c-.082 3.67-.164 5.979-.246 6.928l-.025.148a.49.49 0 01-.196.32zm25.696 20.663c-.263 0-.443-.082-.541-.246l-.025-.024v-.074c-.049-.05-.106-.377-.171-.983-.148-1.032-.222-1.736-.222-2.113-.115-1.965-.27-3.145-.466-3.538a1.02 1.02 0 00-.541-.467 5.763 5.763 0 00-1.007-.27.82.82 0 01-.221-.074c-.705-.18-1.213-.27-1.524-.27h-.05l-.024.049c-.18.312-.344 1.385-.491 3.219-.147 1.835-.279 3.03-.393 3.587a1.056 1.056 0 01-.234.491c-.106.115-.274.189-.503.222-.164.147-.451.22-.86.22-.557 0-1.433-.122-2.63-.368-.802-.131-1.38-.275-1.731-.43-.353-.156-.528-.38-.528-.676 0-.54 1.793-8.87 5.38-24.987l2.138-9.705h4.349l.024.171h.344l1.622 7.986c3.489 17.134 5.233 25.905 5.233 26.314 0 .164-.352.369-1.056.614l-.025.025c-.426.18-.974.352-1.646.516-2.26.54-3.661.811-4.201.811zm-10.91-1.18c-.376-.163-.565-.352-.565-.565v-.049c0-.556 2.482-11.99 7.445-34.3h-.344l-2.088 9.436c-3.571 16.036-5.357 24.34-5.357 24.913 0 .05.017.107.05.172.098.131.384.262.86.394zm8.55-11.031c.198-.017.32-.041.37-.074h.024l.05-.516c0-.819-.059-1.695-.173-2.63-.18-1.572-.36-3.61-.54-6.117l-.148-1.376a77.822 77.822 0 00-.59 4.03c-.376 3.112-.565 5.118-.565 6.02 0 .213.008.343.025.392l.172.123c.409.098.786.148 1.13.148h.246zm.64.147c.18-.016.303-.053.368-.11.066-.058.099-.308.099-.75 0-.622-.05-1.466-.148-2.53-.23-2.015-.418-4.055-.565-6.119a20.743 20.743 0 00-.196-1.965c-.083-.508-.164-.77-.247-.787v-.024c-.032 0-.09.156-.171.467l.049.22a27.9 27.9 0 01.221 2.102c.065.876.151 1.888.258 3.034.106 1.147.205 2.162.295 3.047s.143 1.638.16 2.26c0 .311-.01.558-.025.737l-.024.27c0 .05-.025.099-.074.148zm1.842 11.72c-.114-.213-.245-1.22-.393-3.022 0-.148-.008-.287-.024-.418a43.374 43.374 0 00-.234-2.42c-.073-.532-.213-.9-.417-1.106-.206-.204-.529-.356-.97-.454h.048c.328.13.573.344.738.638.229.476.384 1.508.466 3.096l.049.664c.147 1.638.262 2.596.344 2.875l.025.073c0 .066.082.09.246.074h.122zm18.497.787h-3.194l-.025-1.106c0-.442.049-1.852.148-4.226.327-7.945.573-13.588.737-16.93.098-2.26.237-4.725.417-7.395h-5.085l.048-2.948c0-1.048.123-1.745.369-2.089.164-.229.426-.384.786-.467.54-.114.99-.171 1.352-.171 1.572-.164 3.579-.316 6.019-.455 2.44-.14 4.308-.217 5.602-.234l2.015-.024.344.172.074 5.209-.344.024v.123c-3.014.295-4.693.476-5.037.54h-.05c-.098.869-.18 5.71-.245 14.522-.082 9.434-.172 14.398-.27 14.89-.034.097-.205.179-.516.245-.312.212-1.36.32-3.145.32zm-6.315-30l.025-1.893c.016-.933.057-1.622.123-2.064.065-.442.22-.737.466-.884h-.024c-.295.065-.492.18-.59.344-.213.262-.319 1.138-.319 2.63l-.025 1.866h.344zm3.784 29.68v-.811c0-.426.05-1.834.147-4.226.459-11.744.844-19.91 1.156-24.496h-.345l-.171 2.407c-.116 1.737-.332 6.352-.652 13.846-.32 7.493-.48 11.658-.48 12.494v.786h.345z"/><path d="M1.352 47.774l3.79-.086.431 9.563 4.739-.775v-9.391h3.704v20.763h-3.704V60.18l-4.652.776.344 6.289-3.79.085-.862-19.556zm20.416-.086l6.117-.775 3.532 20.59-3.704.603-.862-5.686h-4.393l-1.12 5.6-3.791-.775 4.221-19.557zm4.394 11.113l-1.379-7.58-1.464 7.58h2.843zm9.131-10.251l8.615-1.465 4.91 5.427-3.445 9.736-6.203-1.12.086 6.978-3.705.086-.258-19.642zm7.581 9.562l1.81-4.652-2.24-2.326-3.36.603.086 5.686 3.704.69zm9.82-9.562l8.615-1.465 4.911 5.427-3.446 9.736-6.203-1.12.086 6.978-3.704.086-.259-19.642zm7.582 9.562l1.809-4.652-2.24-2.326-3.36.603.086 5.686 3.705.69zm15.074 9.305c0-2.499.087-4.825.087-7.323-.086-.086-.086-.173-.172-.345l-.603-1.206c-.431-1.034-1.034-2.412-1.723-3.704a90.748 90.748 0 00-2.67-6.03l-.173-.604 3.446-1.378 3.705 8.357 3.962-8.444 3.532 1.551-3.876 8.012c-.345.776-.69 1.293-.948 1.896-.258.517-.517 1.033-.775 1.809v3.446c-.086 1.895-.086 3.79-.086 4.049v.603l-3.705-.086v-.603zm24.379-2.757v-.087c0-5.34.086-10.596.344-15.851v-.517l9.822-1.378.603 3.532-6.806 1.033-.172 5.428 6.72-.172.086 3.618-6.806.173-.086 3.187.086.086 7.064.776-.345 3.618-8.96-.948-1.55-2.498zm18.952-16.972l6.117-.775 3.532 20.59-3.704.603-.861-5.686h-4.394l-1.12 5.6-3.791-.775 4.221-19.557zm4.394 11.113l-1.378-7.58-1.465 7.58h2.843zm9.304 3.964l2.928-2.24 2.67 3.187 2.5-1.034-.431-2.584-7.668-2.068-.172-7.064 8.615-4.222 3.619 6.806-3.274 1.81-1.982-3.791-3.187 1.55.086 2.24 7.409 1.896 1.12 7.495-7.84 3.532-4.393-5.513zm20.157-11.717l-4.307.172-.087-3.618 12.837-.517.087 3.618-4.825.172.345 16.973-3.705.085-.345-16.885zm12.319 13.612v-.087c0-5.34.086-10.596.345-15.851v-.517l9.821-1.378.603 3.532-6.806 1.033-.172 5.428 6.72-.172.086 3.618-6.806.173-.086 3.187.086.086 7.064.776-.344 3.618-8.96-.948-1.551-2.498zm14.73-17.145l7.582-.43 6.03 4.652-1.895 7.667-4.997.862 5.686 5.427-2.67 2.672-5.773-5.6v4.565h-3.704l-.259-19.815zm8.615 8.788l.862-3.101-3.102-2.413-2.67.173.172 6.202 4.738-.861z" fill="#2be06c"/><path class="st3" d="M249.91 41.455a1.07 1.07 0 01-1.061-1.208c.019-.154 1.913-15.474-6.008-24.495-3.861-4.398-9.473-6.627-16.68-6.627-7.213 0-12.834 2.231-16.707 6.632-7.939 9.017-6.089 24.318-6.069 24.472a1.07 1.07 0 01-2.12.273c-.086-.665-2-16.397 6.576-26.15 4.299-4.887 10.462-7.365 18.32-7.365 7.854 0 14.009 2.477 18.293 7.362 8.56 9.758 6.602 25.51 6.514 26.176a1.07 1.07 0 01-1.059.93z"/><path class="st1" d="M217.784 32.962c0 5.615 4.756 7.616 7.749 7.562 3.553-.064 7.908-1.742 7.908-7.358s-3.6-12.979-7.908-12.979c-4.309 0-7.75 7.159-7.75 12.775z"/><path d="M228.69 28.514l.002-.003h-.004z" fill="none"/><path class="st5" d="M222.591 28.736l3.021-4.647 3.018 4.647c.004.224 1.243-4.82 1.243-4.82l2.287 2.893c-.756-1.928-1.805-3.676-3.035-4.892-1.613.419-4.11.716-7.136-.057-1.33 1.302-2.433 3.237-3.175 5.36l2.537-3.304 1.24 4.82z"/><path class="st6" d="M230.44 26.536l-1.088 4.238 2.808 5.162.548-6.584z"/><path class="st0" d="M230.775 28.23l-.6 2.313 1.613 3.253.372-4.024z"/><path class="st6" d="M220.84 26.536l1.088 4.238-2.807 5.162-.548-6.584z"/><path class="st0" d="M220.506 28.23l.6 2.313-1.614 3.253-.371-4.024z"/><path class="st6" d="M225.612 26.536l2.312 3.82-2.312 7.468-2.312-7.468z"/><path class="st0" d="M225.612 28.23l1.348 2.126-1.348 4.656-1.252-4.656zm-6.176-2.56zm12.724 1.14zm-6.627-6.623c-1.281 0-2.484.636-3.544 1.673 3.025.773 5.52.476 7.132.058-1.082-1.07-2.302-1.73-3.588-1.73zm3.592 1.73l-.004.001.003.002z"/><path class="st6" d="M231.506 31.632c-3.304 4.542-.635 8.957 1.818 10.674 2.911 2.038 7.42 3.242 10.724-1.3s4.723-12.612 1.238-15.146-10.477 1.23-13.78 5.772z"/><circle class="st0" cx="240.561" cy="36.308" r="2.606"/><circle class="st5" cx="245.81" cy="31.947" r="1.18"/><circle class="st1" cx="238.636" cy="28.842" r="1.925"/><circle class="st1" cx="233.839" cy="38.554" r="1.925"/><path class="st0" d="M231.39 33.852a1.178 1.178 0 00-.276-1.631 7.77 7.77 0 00-.922 2.11c.445.089.92-.083 1.198-.48zm10.892 7.624c-.294.42-.272.961.007 1.356a8.484 8.484 0 001.626-1.651 1.179 1.179 0 00-1.633.295z"/><g><path class="st0" d="M206.03 37.953c1.384 4.972 6.089 5.572 8.726 4.786 3.13-.933 6.572-3.492 5.188-8.465s-6.386-10.604-10.2-9.542c-3.816 1.062-5.098 8.248-3.714 13.22z"/><path class="st5" d="M208.601 33.997c1.374-.454 2.773-.754 4.193-1.015 1.22-.226 2.446-.473 3.57-1.018a5.987 5.987 0 001.92-1.459c-.145-.24-.296-.477-.451-.71l-.005.007c-.784 1.029-1.998 1.6-3.215 1.946-1.291.367-2.631.52-3.938.82-1.267.29-2.52.672-3.725 1.162-.461.187-.957.41-1.448.669.011.309.032.616.06.92.949-.568 1.993-.977 3.04-1.322zm11.198-.206c-.645.464-1.235.977-1.724 1.378-2.16 1.768-4.465 3.565-7.05 4.67-1.143.489-2.369.817-3.616.824.235.285.48.549.746.776 1.362-.134 2.696-.586 3.932-1.192 2.58-1.267 4.854-3.095 7.063-4.91.246-.204.544-.455.874-.708-.028-.12-.046-.233-.08-.355a12.53 12.53 0 00-.145-.483zm-8.499-5.803c.796-.852 1.687-1.677 2.75-2.176a8.822 8.822 0 00-.835-.508c-1.812 1.027-3.18 2.91-4.517 4.42-.862.975-1.947 2.01-3.157 2.679-.024.317-.04.637-.047.957.27-.12.537-.25.793-.404 2.05-1.233 3.409-3.251 5.012-4.968z"/></g><path d="M246.152 34.987h-16.093c.035-.217.08-.435.138-.656h-.005l.021-.07c.023-.086.051-.171.078-.257.054-.172.116-.345.186-.519.032-.08.062-.16.098-.242a8.155 8.155 0 01.464-.891c.026-.044.048-.087.075-.131l.006.006c.122-.198.241-.396.386-.595a15.75 15.75 0 011.554-1.808c-.096-.445-.203-.89-.331-1.332a19.001 19.001 0 00-2.379 2.663c-.167.23-.306.46-.448.69l-.007-.006c-.031.05-.057.101-.087.152a9.923 9.923 0 00-.539 1.036c-.041.094-.076.187-.114.281-.08.202-.153.403-.216.603-.03.1-.063.199-.09.298-.008.027-.018.055-.025.082h.006c-.061.234-.11.466-.148.696H221.6c-.013-.061-.023-.12-.037-.183-.035-.144-.056-.283-.098-.43l-.01-.035a15.318 15.318 0 00-.166-.55v-.002c-.431-1.338-1.066-2.7-1.841-3.994h-.001a21.72 21.72 0 00-.547-.862v-.001c-.137-.206-.28-.408-.423-.608-.172.606-.306 1.22-.417 1.831.075.118.152.233.224.352a15.952 15.952 0 011.507 3.292l.008-.006c.052.162.1.323.145.483.034.122.052.236.08.355.03.124.039.237.062.358H205.54l.012.188c.004.048.005.097.01.145l.004-.003c.084.913.233 1.807.464 2.636a7.391 7.391 0 001.068 2.29h11.746a5.704 5.704 0 001.091-1.891c.392.375.824.68 1.27.95.072.045.14.098.214.14l.002-.006c.638.36 1.306.631 1.966.807h4.443a9.01 9.01 0 001.516-.493l.001.002c.102-.044.2-.098.3-.146.12-.057.243-.11.361-.175.065-.035.125-.078.189-.115.151-.089.304-.175.45-.275.195.427.426.828.68 1.202h13.232c.977-1.545 1.75-3.39 2.223-5.256h-.63z" fill="#92c4ff"/><g><path class="st3" d="M237.765 67.62h-23.297c-5.77 0-10.446-4.676-10.446-10.446V42.165a.28.28 0 01.28-.28h43.628a.28.28 0 01.281.28v15.01c0 5.769-4.677 10.446-10.446 10.446z"/><path class="st8" d="M245.277 59.26l-3.323-3.322 3.31-3.309 2.922 2.923c.007-.164.025-.325.025-.49v-.493l-2.444-2.444 2.444-2.444v-1.008l-2.948 2.948-3.309-3.309 3.323-3.323 2.934 2.934v-1.008l-2.43-2.43 2.43-2.43v-.17h-.837l-2.097 2.096-2.097-2.097h-1.008l2.601 2.601-3.323 3.323-3.322-3.322 2.601-2.602h-1.008l-2.097 2.098-2.098-2.098h-1.007l2.6 2.602-3.308 3.309-3.364-3.365 2.546-2.546h-1.008l-2.042 2.043-2.042-2.043h-1.008l2.546 2.546-3.323 3.323-3.322-3.323 2.545-2.546h-1.007l-2.042 2.042-2.042-2.042h-1.008l2.546 2.546-3.364 3.364-3.309-3.308 2.601-2.602h-1.007l-2.098 2.098-2.097-2.098h-1.008l2.601 2.602-3.323 3.322-3.323-3.322 2.602-2.602h-1.008l-2.097 2.098-2.098-2.098h-.836v.172l2.43 2.43-2.43 2.43v1.007l2.934-2.934 3.322 3.323-3.308 3.31-2.948-2.95v1.009l2.444 2.444-2.444 2.444v.493c0 .165.018.326.024.49l2.924-2.923 3.308 3.309-3.322 3.323-2.861-2.862c.042.403.101.8.181 1.19l2.176 2.175-1.035 1.035c.114.22.236.434.362.646l1.177-1.177 3.322 3.323-1.386 1.386c.19.148.379.295.577.432l1.313-1.314 3.272 3.271c.39.08.787.14 1.189.182l-.089-.089 3.323-3.323 3.323 3.323-.162.162h1.332l-.162-.162 3.308-3.309 3.31 3.31-.163.16h1.332l-.162-.16 3.323-3.324 3.323 3.323-.09.089c.403-.043.8-.102 1.19-.182l3.272-3.27 1.313 1.313c.198-.137.387-.284.577-.432l-1.387-1.386 3.323-3.322 1.177 1.176c.126-.212.248-.426.361-.646l-1.034-1.034 2.175-2.176c.08-.39.14-.787.182-1.19l-2.861 2.862zm-.518-7.135l-3.309 3.309-3.309-3.309 3.31-3.309 3.308 3.309zm-3.813 3.813l-3.322 3.322-3.31-3.308 3.323-3.323 3.31 3.309zm-3.322-10.948l3.322 3.322-3.309 3.31-3.322-3.323 3.309-3.31zm-.49 7.135l-3.323 3.323-3.323-3.323 3.323-3.323 3.322 3.323zm-3.827 3.827l-3.364 3.364-3.323-3.323 3.364-3.364 3.323 3.323zm-3.364-11.018l3.364 3.365-3.323 3.322-3.364-3.364 3.323-3.323zm-.463 7.191l-3.364 3.364-3.364-3.364 3.364-3.364 3.364 3.364zm-3.868 3.868l-3.322 3.323-3.364-3.364 3.322-3.323 3.364 3.364zm-3.322-11.059l3.322 3.323-3.364 3.364-3.322-3.323 3.364-3.364zm-.546 7.191l-3.322 3.323-3.323-3.323 3.323-3.323 3.322 3.323zm-3.826 3.827l-3.309 3.308-3.323-3.322 3.309-3.309 3.323 3.323zm-3.309-10.962l3.309 3.308-3.323 3.323-3.309-3.309 3.323-3.322zm-7.135 7.135l3.308-3.309 3.31 3.309-3.31 3.309-3.308-3.309zm-.014 7.64l3.322-3.323 3.323 3.322-3.323 3.323-3.322-3.323zm7.19 7.19l-3.364-3.364 3.323-3.323 3.364 3.364-3.323 3.323zm.463-7.19l3.309-3.31 3.364 3.365-3.309 3.308-3.364-3.364zm7.19 7.19l-3.322-3.323 3.309-3.308 3.322 3.322-3.308 3.309zm.49-7.135l3.323-3.323 3.323 3.323-3.323 3.322-3.322-3.322zm7.136 7.135l-3.309-3.309 3.323-3.323 3.309 3.31-3.323 3.322zm.518-7.135l3.364-3.365 3.309 3.31-3.364 3.363-3.31-3.308zm7.136 7.135l-3.323-3.323 3.364-3.364 3.323 3.323-3.364 3.364zm3.868-3.868l-3.323-3.323 3.322-3.322 3.323 3.323-3.322 3.322z"/><path d="M204.022 41.884h44.189v5.031h-44.189z" fill="#84592f"/><defs><path id="SVGID_1_" d="M248.124 41.884h-44.016a1.784 1.784 0 01-1.783-1.783v-1.688c0-.985.798-1.784 1.783-1.784h44.016c.985 0 1.784.799 1.784 1.784V40.1c0 .985-.799 1.783-1.784 1.783z"/></defs><clipPath id="SVGID_00000094585523619127961810000009335267137724656045_"><use xlink:href="#SVGID_1_" overflow="visible"/></clipPath><g clip-path="url(#SVGID_00000094585523619127961810000009335267137724656045_)"><path class="st3" d="M202.325 36.629h47.583v5.255h-47.583z"/><path class="st3" d="M202.325 41.884h1.52l-1.52-1.519z"/><path d="M202.388 36.63l5.255 5.254h1.008l-5.255-5.255zm-.063 3.735l1.52 1.52h1.007l-2.527-2.528zm3.91-3.735l5.255 5.254h1.008l-5.255-5.255zm3.9 0l5.255 5.254h1.008l-5.255-5.255zm3.85 0l5.255 5.254h1.008l-5.255-5.255zm3.87 0l5.255 5.254h1.008l-5.255-5.255zm3.783 0l5.255 5.254h1.008l-5.255-5.255zm3.93 0l5.256 5.254h1.008l-5.256-5.255zm3.698 0l5.255 5.254h1.008l-5.255-5.255zm3.754 0l5.255 5.254h1.008l-5.256-5.255zm3.898 0l5.255 5.254h1.008l-5.255-5.255zm3.935 0l5.255 5.254h1.008l-5.255-5.255zm5.299 0h-1.008l4.764 4.763v-1.008zm3.698 0h-1.007l1.065 1.064v-1.008z" fill="#ffc892"/></g></g><g><path class="st8" d="M201.18 32.152c.619 2.67 2.006 3.784 2.006 3.784a45.71 45.71 0 01.252-4.647l-1.792-2.861a42.976 42.976 0 00-.466 3.724zm1.46-8.019c.292 1.654.88 2.784 1.364 3.474.253-1.248.582-2.52 1-3.786l-1.455-2.322a31.101 31.101 0 00-.91 2.634zm2.53-6.013c.266 1.155.675 2.015 1.056 2.626.462-.978.992-1.931 1.599-2.846l-1.236-1.972c-.517.71-.991 1.441-1.42 2.191zm3.403-4.553a8.56 8.56 0 00.89 2.18 18.228 18.228 0 012.255-2.153l-1.199-1.785a20.331 20.331 0 00-1.946 1.758zm7.146-4.75c-.817.326-1.601.696-2.354 1.109-.2 1.102-.078 1.881.128 2.408a18.983 18.983 0 012.514-1.308c-.24-.604-.298-1.459-.288-2.209zm3.465-1.078c-.44.849-.491 1.737-.457 2.324a24.542 24.542 0 012.885-.604c.12-.73.367-1.552.607-2.243-1.047.124-2.06.297-3.035.523zm6.977-.752c-.412 0-.816.01-1.219.024a9.616 9.616 0 00-.596 2.17 32.864 32.864 0 011.815-.056c.641 0 1.265.024 1.88.06.09-.6.244-1.377.496-2.112a34.827 34.827 0 00-2.376-.086zm5.574.464c-.29.594-.607 1.317-.835 2.037 1.052.167 2.06.393 3.024.677.253-.654.613-1.374 1.093-1.905a25.485 25.485 0 00-3.282-.809zm9.285 3.782a20.484 20.484 0 00-3.078-1.821c-.471.425-1.006 1-1.432 1.702 1.003.447 1.949.97 2.836 1.568.484-.587 1.06-1.142 1.673-1.45zm3.434 3.116a20.755 20.755 0 00-.984-1.04c-.66.073-1.537.28-2.217.846a18.26 18.26 0 012.236 2.38 4.31 4.31 0 012.09-.778c-.356-.48-.725-.952-1.125-1.408zm4.863 8.771c-.582.243-1.3.66-1.837 1.347.27.892.494 1.785.683 2.668.56-.391 1.305-.853 1.98-1.074a33.86 33.86 0 00-.826-2.94zm-.686 6.663a43.3 43.3 0 01.351 3.56c.643-.163 1.434-.332 2.148-.398a43.973 43.973 0 00-.407-3.858c-.673.139-1.478.37-2.092.696zm-.47-9.621a25.715 25.715 0 00-1.24-2.375c-.576.123-1.344.374-1.965.885.508.846.94 1.726 1.333 2.617.745-.74 1.872-1.127 1.872-1.127z"/></g><g><path class="st5" d="M12.288 48.052h-.004a.406.406 0 00-.406.401l-.1 9.086-7.743 1.208-.452-8.895c-.012-.223-.205-.405-.426-.384a.406.406 0 00-.385.426l.79 15.53c.01.217.19.385.405.385h.02a.406.406 0 00.385-.426l-.295-5.82 7.692-1.201-.089 8.057a.406.406 0 00.402.41h.004a.406.406 0 00.406-.4l.197-17.966a.406.406 0 00-.401-.41zm10.912.78l-3.81 16.944a.406.406 0 00.792.178l1.17-5.203h6.629l1.014 5.483a.406.406 0 10.798-.147l-3.306-17.873-3.287.618zM21.534 59.94l2.34-10.408 1.963-.369L27.83 59.94h-6.296zm98.405-11.108l-3.81 16.944a.406.406 0 00.792.178l1.17-5.203h6.628l1.015 5.483a.406.406 0 10.798-.147l-3.306-17.873-3.287.618zm-1.666 11.107l2.34-10.408 1.963-.369 1.993 10.777h-6.296zM36.71 49.97l.175 16.852a.406.406 0 00.406.402h.005a.406.406 0 00.401-.41l-.077-7.435 6.813 1.289 2.802-7.804-4.082-4.19-6.442 1.296zm7.194 9.772l-6.266-1.186a.304.304 0 00-.027-.004l-.082-7.92 5.351-1.074 3.42 3.51-2.396 6.674zm10.148-9.772l.175 16.852a.406.406 0 00.406.402h.004a.406.406 0 00.401-.41l-.077-7.435 6.813 1.289 2.803-7.804-4.083-4.19-6.442 1.296zm7.193 9.772l-6.266-1.186a.291.291 0 00-.027-.004l-.082-7.92 5.35-1.074 3.421 3.51-2.396 6.674zM82.517 48.39a.407.407 0 00-.544.186l-4.62 9.394-4.621-9.394a.406.406 0 00-.729.358l4.942 10.046-.146 7.633a.406.406 0 00.397.414h.008a.406.406 0 00.406-.398l.146-7.642 4.946-10.053a.406.406 0 00-.185-.543zm26.21 10.505a.406.406 0 100-.812h-6.586l.268-7.927 6.38-1a.406.406 0 00.339-.464.409.409 0 00-.464-.338l-7.044 1.105-.305 9.03-.167 4.928-.003.084.912 2.278 6.624.753a.406.406 0 00.091-.807l-6.142-.697-.668-1.67.151-4.463h6.614zm65.143 0a.406.406 0 100-.812h-6.587l.267-7.927 6.382-1a.406.406 0 10-.125-.802l-7.044 1.105-.473 13.958-.002.084.91 2.278 6.625.753a.406.406 0 10.092-.807l-6.143-.697-.668-1.67.151-4.463h6.614zm-39.4-2.765V52.3l5.552-2.658 1.84 3.639a.406.406 0 00.724-.366l-2.198-4.347-6.73 3.22v4.945l7.85 2.382.62 4.138-4.531 2.07-2.39-2.835a.406.406 0 00-.62.524l2.786 3.306 5.647-2.58-.784-5.25-7.767-2.357zm25.215-7.43h-.01l-10.53.262a.406.406 0 00.01.812h.01l4.835-.12.198 16.511a.406.406 0 00.406.401h.005a.406.406 0 00.4-.41l-.198-16.523 4.885-.122a.406.406 0 00-.01-.812zm31.604 3.094l-4.663-3.309a.407.407 0 00-.28-.072l-4.88.552a.406.406 0 00-.36.41l.263 16.167a.407.407 0 00.406.399h.006a.406.406 0 00.4-.412l-.092-5.625 7.05 6.22a.405.405 0 00.574-.035.406.406 0 00-.036-.573l-6.84-6.035 6.99-1.576a.405.405 0 00.304-.298l1.317-5.385a.406.406 0 00-.16-.428zm-1.886 5.375l-7.332 1.653-.148-9.092 4.36-.493 4.311 3.06-1.191 4.872z"/></g></svg>