<svg version="1.1" id="Layer_1" xmlns="http://www.w3.org/2000/svg" x="0" y="0" viewBox="0 0 241.507 105.206" xml:space="preserve"><style>.st1{fill:#358d96}.st4{fill:#ffbbc8}</style><path d="M28.514 60.458c0 .91-.28 1.927-.838 3.052-.559 1.125-1.508 2.194-2.849 3.207-1.34 1.014-3.104 1.864-5.29 2.55-2.186.686-4.93 1.03-8.234 1.03-.336 0-.723-.009-1.161-.025a6.268 6.268 0 01-1.317-.191 5.516 5.516 0 01-1.293-.515 2.878 2.878 0 01-1.04-.97c-.751-1.149-1.29-2.876-1.617-5.182-.327-2.306-.49-4.88-.49-7.72 0-1.771.107-3.475.323-5.11.215-1.636.47-3.12.766-4.453a35.07 35.07 0 01.933-3.471c.327-.982.602-1.72.826-2.215.367-.781 1.014-1.451 1.94-2.01.925-.559 2.01-.838 3.255-.838.99 0 1.76.255 2.31.766s.826 1.42.826 2.729c0 .574-.032 1.133-.096 1.675-.064.543-.144 1.15-.24 1.82-.095.67-.179 1.428-.25 2.274a37.344 37.344 0 00-.109 3.088c0 1.867.116 3.455.348 4.764.23 1.308.626 2.242 1.184 2.8.224.224.67.32 1.341.288.67-.032 1.432-.104 2.286-.216.853-.111 1.743-.235 2.67-.371a17.383 17.383 0 012.489-.203c.91 0 1.691.255 2.346.766.654.51.981 1.404.981 2.68zm26.81-5.218c0 1.244-.25 2.341-.753 3.29s-1.15 1.736-1.94 2.359-1.647 1.089-2.573 1.4c-.925.311-1.819.467-2.68.467-1.294 0-2.359-.148-3.197-.443-.838-.295-1.508-.614-2.01-.958-.503-.343-.87-.662-1.102-.957-.231-.295-.394-.443-.49-.443-.064 0-.12.148-.168.443-.048.295-.072.69-.072 1.185 0 .478.08 1.021.24 1.628.16.606.442 1.172.85 1.699.407.527.977.962 1.71 1.305.735.343 1.677.515 2.826.515.781 0 1.436-.14 1.963-.42a9.861 9.861 0 001.424-.91c.423-.326.846-.63 1.269-.909.422-.279.913-.419 1.472-.419.718 0 1.324.196 1.82.587.494.391.741.93.741 1.616 0 .463-.14.93-.419 1.4-.28.47-.762.902-1.448 1.293-.686.39-1.612.718-2.777.981s-2.625.395-4.38.395c-1.931 0-3.863-.212-5.793-.634-1.931-.423-3.663-1.102-5.195-2.035a11.533 11.533 0 01-3.746-3.65c-.966-1.5-1.448-3.328-1.448-5.482 0-2.203.506-4.054 1.52-5.554 1.013-1.5 2.253-2.709 3.722-3.627a15.465 15.465 0 014.728-1.963c1.683-.39 3.18-.586 4.488-.586 1.676 0 3.216.22 4.62.658 1.404.44 2.613 1.038 3.627 1.796 1.013.758 1.795 1.652 2.346 2.68.55 1.03.825 2.127.825 3.292zm-7.013-1.7c0-.846-.407-1.548-1.221-2.107-.814-.559-1.78-.838-2.897-.838-.718 0-1.336.088-1.855.264a4.144 4.144 0 00-1.317.706c-.359.295-.63.614-.813.957a2.143 2.143 0 00-.276 1.018c0 .75.391 1.42 1.173 2.01.782.591 1.796.886 3.04.886 1.117 0 2.091-.247 2.921-.742.83-.495 1.245-1.212 1.245-2.154zm29.802-3.639c0 1.995-1.189 2.992-3.566 2.992-.655 0-1.333-.08-2.035-.239-.703-.16-1.333-.24-1.891-.24-.287 0-.431.176-.431.527 0 .367.048.778.144 1.233.095.455.215.918.359 1.388.143.471.299.93.466 1.377.168.447.3.846.396 1.197.319.957.626 1.983.92 3.076.296 1.093.444 2.127.444 3.1 0 .894-.244 1.715-.73 2.465a6.922 6.922 0 01-1.832 1.903 9.236 9.236 0 01-2.43 1.221c-.885.295-1.72.443-2.5.443-.751 0-1.381-.251-1.892-.754-.51-.503-.937-1.157-1.28-1.963a12.388 12.388 0 01-.778-2.669 36.898 36.898 0 01-.575-5.613c-.016-.838-.024-1.497-.024-1.975 0-.766.008-1.508.024-2.227.016-.718.024-1.451.024-2.202 0-.287-.044-.498-.132-.634-.088-.136-.291-.204-.61-.204-.224 0-.435.017-.635.048-.2.032-.394.048-.586.048-1.053 0-1.847-.283-2.382-.85-.534-.566-.802-1.272-.802-2.118 0-.798.252-1.353.754-1.664a2.974 2.974 0 011.592-.467c.559 0 1.113.06 1.664.18.55.12 1.057.18 1.52.18.191 0 .303-.096.335-.288.367-1.771.714-3.227 1.042-4.369a9.578 9.578 0 011.472-3.052 6.144 6.144 0 011.879-1.735c.774-.47 1.583-.706 2.43-.706.845 0 1.515.251 2.01.754.495.503.742 1.185.742 2.046a6.67 6.67 0 01-.18 1.532c-.119.511-.235 1.01-.346 1.497-.112.487-.224.993-.336 1.52a7.819 7.819 0 00-.167 1.627c0 .224.04.435.12.635.08.2.247.3.502.3.655 0 1.277-.069 1.867-.204a8.117 8.117 0 011.82-.204c.973 0 1.819.248 2.537.742.718.495 1.077 1.277 1.077 2.346zm-.287-8.331c0-.494.096-.985.288-1.471.191-.487.486-.926.885-1.317.4-.39.89-.71 1.472-.958.583-.247 1.25-.37 2-.37.398 0 .81.071 1.232.215a3.46 3.46 0 011.15.658c.342.295.622.69.837 1.185.215.495.323 1.085.323 1.771 0 .846-.148 1.66-.443 2.442a6.963 6.963 0 01-1.22 2.083 6.297 6.297 0 01-1.76 1.448 4.31 4.31 0 01-2.107.539c-.463 0-.842-.124-1.136-.371-.296-.248-.443-.547-.443-.898 0-.4.099-.702.299-.91a2.2 2.2 0 01.706-.49c.271-.12.547-.22.826-.3.279-.08.498-.168.658-.263.176-.128.255-.26.24-.395-.016-.135-.144-.164-.383-.084-.942.192-1.748.056-2.418-.407-.67-.462-1.006-1.164-1.006-2.106zm29.611 20.994c0 .718-.14 1.525-.419 2.418-.279.894-.762 1.744-1.447 2.55-.687.805-1.617 1.476-2.79 2.01-1.172.535-2.644.802-4.416.802-2.09 0-3.83-.36-5.219-1.077-1.388-.718-2.505-1.576-3.35-2.573-.847-.998-1.453-2.027-1.82-3.089-.367-1.06-.55-1.918-.55-2.573 0-.462.147-.922.442-1.376.295-.455.722-.682 1.28-.682.4 0 .803.179 1.21.538s.87.75 1.388 1.173c.519.423 1.09.814 1.712 1.173.622.359 1.324.539 2.106.539.559 0 .97-.136 1.233-.407a1.33 1.33 0 00.395-.958c0-.782-.36-1.436-1.077-1.963a37.995 37.995 0 00-2.406-1.615 11.315 11.315 0 01-2.406-2.011c-.718-.79-1.077-1.816-1.077-3.076 0-.655.132-1.3.395-1.94.263-.637.674-1.228 1.233-1.77.558-.543 1.277-.978 2.154-1.305.878-.327 1.923-.491 3.136-.491 1.9 0 3.467.327 4.704.981 1.237.655 1.855 1.572 1.855 2.753 0 .56-.195 1.058-.586 1.496-.391.44-.946.659-1.664.659-.526 0-.993-.116-1.4-.347a6.196 6.196 0 01-1.102-.79 14.385 14.385 0 00-.933-.778 1.574 1.574 0 00-.97-.335c-.526 0-.897.123-1.113.37-.215.248-.323.515-.323.802 0 .527.363.994 1.09 1.4.725.408 1.687.859 2.884 1.353.43.16 1.08.403 1.95.73.87.328 1.744.802 2.622 1.425a9.306 9.306 0 012.298 2.37c.654.957.981 2.162.981 3.614zm45.961-1.244a7.968 7.968 0 01-.766 3.41c-.51 1.094-1.256 2.052-2.238 2.873-.981.822-2.182 1.476-3.603 1.963-1.42.487-3.048.73-4.883.73-.942 0-2.043-.088-3.303-.263a20.186 20.186 0 01-3.878-.958 20.561 20.561 0 01-3.914-1.867 13.296 13.296 0 01-3.423-3.016c-.998-1.229-1.808-2.693-2.43-4.393-.622-1.7-.933-3.69-.933-5.972 0-2.681.474-5.035 1.424-7.062.95-2.026 2.238-3.718 3.866-5.075 1.628-1.356 3.53-2.377 5.709-3.064 2.178-.686 4.513-1.03 7.002-1.03 3.287 0 5.757.5 7.409 1.497 1.652.998 2.477 2.135 2.477 3.411 0 1.006-.327 1.732-.981 2.179-.655.446-1.34.67-2.059.67-.782 0-1.424-.18-1.927-.539a51.867 51.867 0 01-1.544-1.149 13.016 13.016 0 00-1.82-1.16c-.686-.368-1.603-.551-2.752-.551-2.123 0-3.87.67-5.242 2.01-1.373 1.34-2.059 3.32-2.059 5.937 0 1.309.247 2.462.742 3.459.494.997 1.125 1.816 1.891 2.454a8.007 8.007 0 002.621 1.448c.982.327 1.96.49 2.933.49.957 0 1.755-.123 2.394-.37a12.415 12.415 0 001.759-.838 19.954 19.954 0 011.568-.826c.51-.24 1.109-.36 1.795-.36.75 0 1.385.189 1.903.564.519.375.95.853 1.293 1.436a6.46 6.46 0 01.742 1.927c.152.702.227 1.38.227 2.034zm29.037-5.53c0 1.468-.148 2.833-.443 4.093-.295 1.261-.658 2.382-1.089 3.364-.43.98-.89 1.83-1.376 2.549-.487.718-.946 1.309-1.377 1.771-1.596 1.692-3.391 2.538-5.386 2.538-.942 0-1.684-.172-2.226-.515-.543-.343-.814-.81-.814-1.4 0-.463.092-.938.275-1.425.184-.486.387-1.049.61-1.687.224-.638.428-1.365.611-2.179.183-.813.275-1.763.275-2.848 0-2.155-.375-3.846-1.125-5.075s-1.651-1.843-2.705-1.843c-1.962 0-2.944 1.013-2.944 3.04 0 .75.132 1.544.395 2.382.263.837.558 1.68.886 2.525.327.846.622 1.68.885 2.502.264.822.395 1.608.395 2.358 0 1.564-.53 2.697-1.592 3.399-1.061.702-2.35 1.053-3.866 1.053a5.58 5.58 0 01-2.345-.515c-.75-.343-1.42-1.06-2.011-2.154-.59-1.093-1.058-2.685-1.4-4.776-.344-2.09-.515-4.883-.515-8.378a41 41 0 01.275-4.74c.183-1.58.415-3.072.694-4.476.28-1.404.599-2.657.958-3.759.359-1.1.698-1.938 1.017-2.513.399-.654.982-1.145 1.747-1.472.767-.327 1.445-.49 2.035-.49 1.245 0 2.127.298 2.645.897.519.598.779 1.735.779 3.411 0 1.181-.08 2.326-.24 3.435a45.385 45.385 0 01-.515 2.956 74.354 74.354 0 00-.419 2.083c-.095.527-.095.79 0 .79.128 0 .396-.195.803-.587.406-.39.96-.817 1.663-1.28.702-.463 1.568-.89 2.597-1.28 1.03-.392 2.215-.587 3.555-.587 1.373 0 2.633.207 3.782.622 1.15.415 2.131 1.006 2.945 1.771a7.908 7.908 0 011.89 2.765c.447 1.078.671 2.302.671 3.675zm31.79 2.394c0 .718-.024 1.536-.072 2.453a25.845 25.845 0 01-.287 2.73 16.769 16.769 0 01-.635 2.62c-.28.847-.634 1.565-1.065 2.155a4.527 4.527 0 01-2.202 1.664c-.91.326-1.828.49-2.753.49-.32 0-.726-.016-1.22-.048a6.005 6.005 0 01-1.425-.263 3.085 3.085 0 01-1.15-.634c-.31-.28-.466-.666-.466-1.161 0-.559.092-1.15.275-1.772.184-.622.371-1.224.563-1.807.191-.582.379-1.097.562-1.544.184-.447.276-.75.276-.91 0-.127-.048-.191-.144-.191-.064 0-.124.04-.18.12-.056.08-.131.207-.227.383a47.244 47.244 0 01-1.963 2.836 17.163 17.163 0 01-2.25 2.478 9.987 9.987 0 01-2.74 1.759c-1.014.44-2.175.658-3.484.658-1.373 0-2.63-.235-3.77-.706a9.006 9.006 0 01-2.968-1.963 8.706 8.706 0 01-1.94-2.968c-.454-1.14-.682-2.398-.682-3.77 0-2.25.415-4.245 1.245-5.985.83-1.739 1.96-3.196 3.388-4.368 1.428-1.173 3.087-2.055 4.978-2.645 1.892-.59 3.882-.886 5.973-.886.75 0 1.691.024 2.825.071 1.133.048 2.278.172 3.435.372s2.242.47 3.256.814c1.013.343 1.783.81 2.31 1.4a7.171 7.171 0 011.208 1.867c.327.718.59 1.46.79 2.226.2.766.34 1.54.42 2.322.079.783.119 1.517.119 2.203zm-11.131-4.07c0-.622-.128-1.145-.383-1.568a3.34 3.34 0 00-1.006-1.053 4.366 4.366 0 00-1.4-.61 6.553 6.553 0 00-1.568-.192c-.718 0-1.445.092-2.178.275a6.671 6.671 0 00-2.011.862 4.849 4.849 0 00-1.472 1.46c-.376.583-.563 1.305-.563 2.167 0 .59.116 1.089.347 1.496.232.407.543.75.934 1.03.39.278.83.482 1.316.61.487.127.994.191 1.52.191.655 0 1.365-.1 2.13-.3a8.208 8.208 0 002.107-.861 5.186 5.186 0 001.592-1.436c.423-.582.635-1.273.635-2.07zm33.92-4.213c0 1.995-1.19 2.992-3.567 2.992-.655 0-1.333-.08-2.035-.239-.702-.16-1.333-.24-1.89-.24-.288 0-.432.176-.432.527 0 .367.048.778.144 1.233.096.455.215.918.359 1.388.144.471.3.93.467 1.377.167.447.299.846.395 1.197.319.957.626 1.983.921 3.076s.443 2.127.443 3.1c0 .894-.243 1.715-.73 2.465a6.922 6.922 0 01-1.831 1.903 9.236 9.236 0 01-2.43 1.221c-.885.295-1.72.443-2.502.443-.75 0-1.38-.251-1.89-.754-.512-.503-.938-1.157-1.281-1.963a12.388 12.388 0 01-.778-2.669 36.898 36.898 0 01-.575-5.613c-.016-.838-.024-1.497-.024-1.975 0-.766.008-1.508.024-2.227.016-.718.024-1.451.024-2.202 0-.287-.044-.498-.132-.634-.087-.136-.29-.204-.61-.204-.224 0-.435.017-.634.048-.2.032-.395.048-.587.048-1.053 0-1.847-.283-2.382-.85-.534-.566-.802-1.272-.802-2.118 0-.798.252-1.353.755-1.664a2.974 2.974 0 011.592-.467c.558 0 1.113.06 1.663.18s1.057.18 1.52.18c.192 0 .303-.096.335-.288.367-1.771.714-3.227 1.042-4.369a9.577 9.577 0 011.472-3.052 6.144 6.144 0 011.88-1.735c.773-.47 1.583-.706 2.429-.706.845 0 1.516.251 2.01.754.495.503.743 1.185.743 2.046a6.67 6.67 0 01-.18 1.532c-.12.511-.236 1.01-.347 1.497a90.72 90.72 0 00-.335 1.52 7.819 7.819 0 00-.168 1.627c0 .224.04.435.12.635.08.2.247.3.502.3.655 0 1.277-.069 1.868-.204a8.117 8.117 0 011.819-.204c.973 0 1.82.248 2.537.742.719.495 1.078 1.277 1.078 2.346z" fill="#ff7186"/><path class="st1" d="M38.505 106.746c-1.246-.107-2.014-.655-2.44-1.096a4.916 4.916 0 01-1.063-1.692 6.454 6.454 0 01-.392-1.83 21.474 21.474 0 01-.051-1.14c-.02.393-.06.781-.116 1.156a5.63 5.63 0 01-.693 2.004 4.692 4.692 0 01-1.627 1.643c-.689.425-1.535.672-2.515.736a3.61 3.61 0 01-.198.003c-.976-.034-1.806-.27-2.47-.698a4.62 4.62 0 01-1.492-1.552 5.295 5.295 0 01-.667-1.974 12.602 12.602 0 01-.114-1.693c0-1.098.04-2.198.116-3.272.075-1.046.16-2.083.256-3.108.094-.998.177-1.996.25-2.993.07-.962.105-1.934.105-2.887 0-.535-.023-1.017-.067-1.429-.06-.546-.09-1.098-.09-1.636 0-.54.038-1.078.115-1.602a5.82 5.82 0 01.537-1.758 3.936 3.936 0 011.487-1.616c.643-.395 1.415-.595 2.293-.595.88 0 1.645.197 2.27.584.598.371 1.07.866 1.407 1.473a4.96 4.96 0 01.562 1.696c.067.467.1.939.1 1.406 0 .402-.013.789-.036 1.165-.019.3-.028.595-.028.89 0 .238.023.465.067.672a.967.967 0 00.06.198c.22-.003.283-.028.284-.029a.684.684 0 00.2-.23 2.84 2.84 0 00.276-.733c.099-.426.188-.848.268-1.265.007-.036.014-.07.023-.106.079-.315.163-.686.251-1.11a9.02 9.02 0 01.511-1.65 4.988 4.988 0 011.134-1.674c.463-.445 1.277-.971 2.541-.971 1.495 0 2.723.658 3.457 1.852.564.92.85 1.989.85 3.18 0 1.28-.094 2.514-.278 3.667a18.599 18.599 0 00-.228 2.938c0 1.234.036 2.407.107 3.488a54.09 54.09 0 01.115 3.527c0 .531-.017 1.158-.05 1.877a10.78 10.78 0 01-.389 2.428 6.136 6.136 0 01-1.294 2.406c-.547.62-1.541 1.356-3.174 1.356-.057 0-.113-.002-.17-.006zm-4.047-9.214c.008.328.025.644.05.973.036.5.059 1 .066 1.488.011-.287.03-.576.054-.863.038-.445.076-.941.115-1.485a2.537 2.537 0 00-.01-.068 1.427 1.427 0 00-.275-.045z"/><path class="st1" d="M57.728 106.278c-1.12 0-2.09-.308-2.887-.914a6.086 6.086 0 01-1.621-1.876 9.104 9.104 0 01-.852-2.104 19.448 19.448 0 01-.405-1.835 37.256 37.256 0 01-.123-.864c0 .007-.002.013-.003.02a8.36 8.36 0 00-.077.676 9.516 9.516 0 01-.122.989c-.104.546-.255 1.11-.453 1.691a7.866 7.866 0 01-.893 1.825 5.97 5.97 0 01-1.473 1.54 4.137 4.137 0 01-2.467.79c-.867 0-1.66-.197-2.36-.585a5.194 5.194 0 01-1.63-1.404 5.827 5.827 0 01-.938-1.826 6.59 6.59 0 01-.294-1.951c0-.197.007-.393.02-.59a5.48 5.48 0 01.166-.94l.255-1.008c.109-.425.267-.998.474-1.72l.74-2.6 1.074-3.81c.226-.805.458-1.684.696-2.633a15.747 15.747 0 011.105-3.08 8.375 8.375 0 012.035-2.692c1.006-.87 2.297-1.312 3.84-1.312 1.179 0 2.161.168 3.002.513a6.027 6.027 0 012.24 1.585c.554.627 1.021 1.386 1.388 2.258.311.739.607 1.574.878 2.482a580.624 580.624 0 012.91 9.53c.1.4.19.73.289 1.075.109.385.212.762.31 1.131.112.422.197.81.259 1.167.028.163.05.315.067.457a2 2 0 01.042.407v.57a2 2 0 01-.065.508 5.545 5.545 0 01-1.403 2.895 5.18 5.18 0 01-1.639 1.183c-.651.3-1.353.452-2.085.452z"/><path class="st1" d="M65.343 106.657c-.866 0-1.63-.179-2.272-.53a4.084 4.084 0 01-1.583-1.527 5.848 5.848 0 01-.672-1.715 9.78 9.78 0 01-.22-1.713 41.54 41.54 0 01-.064-1.426c-.022-.622-.043-1.334-.064-2.131-.021-.796-.037-1.655-.048-2.572a233.23 233.23 0 01-.016-2.74c-.021-2.088-.042-4.386-.063-6.872.033-1.21.345-2.178.926-2.946a5.211 5.211 0 012.01-1.607 7.638 7.638 0 012.267-.626 16.724 16.724 0 011.98-.125c1.248 0 2.486.168 3.679.5a11.15 11.15 0 013.563 1.747 7.206 7.206 0 011.698 1.763 8.672 8.672 0 011.007 2.014c.23.665.399 1.372.501 2.098.096.687.146 1.381.146 2.063 0 1.49-.237 2.72-.725 3.768a7.188 7.188 0 01-2.037 2.616 10.33 10.33 0 01-2.718 1.532c-.837.323-1.728.632-2.654.917a4.045 4.045 0 00-.02.298 63.87 63.87 0 01-.098 1.75 9.473 9.473 0 01-.403 2.182c-.26.827-.667 1.538-1.21 2.116-.501.532-1.413 1.166-2.91 1.166z"/><path class="st1" d="M80.7 106.657c-.866 0-1.63-.179-2.273-.53a4.09 4.09 0 01-1.581-1.525 5.857 5.857 0 01-.673-1.717 9.719 9.719 0 01-.221-1.713c-.02-.283-.042-.774-.063-1.426-.022-.622-.043-1.334-.064-2.131-.022-.796-.038-1.655-.049-2.572a250.54 250.54 0 01-.015-2.74c-.021-2.088-.043-4.386-.063-6.872.033-1.212.345-2.179.927-2.947a5.207 5.207 0 012.01-1.606 7.652 7.652 0 012.265-.626 16.744 16.744 0 011.98-.125c1.248 0 2.486.168 3.68.5a11.15 11.15 0 013.562 1.747 7.21 7.21 0 011.7 1.764 8.77 8.77 0 011.005 2.01c.231.669.4 1.374.501 2.1.098.692.146 1.386.146 2.064 0 1.467-.243 2.733-.723 3.767a7.175 7.175 0 01-2.039 2.617 10.32 10.32 0 01-2.718 1.532c-.835.323-1.727.632-2.653.917a4.058 4.058 0 00-.02.296 65.094 65.094 0 01-.098 1.752 9.493 9.493 0 01-.403 2.182c-.26.827-.667 1.538-1.21 2.116-.501.532-1.413 1.166-2.91 1.166z"/><path class="st1" d="M100.48 106.657c-.944 0-1.766-.172-2.444-.512a4.57 4.57 0 01-1.693-1.428 4.899 4.899 0 01-.83-1.96 9.468 9.468 0 01-.162-1.765c0-.858.076-1.694.224-2.486a8.988 8.988 0 00.155-1.653c0-.393-.05-.763-.152-1.1a6.377 6.377 0 00-.482-1.168c-.223-.42-.48-.835-.765-1.234-.333-.468-.667-.932-1-1.39a31.12 31.12 0 01-1.12-1.528c-.39-.57-.75-1.161-1.067-1.76a10.894 10.894 0 01-.832-2.052 8.59 8.59 0 01-.333-2.408c0-1.588.674-2.575 1.239-3.124.791-.773 1.842-1.182 3.037-1.182 1.002 0 1.923.337 2.663.973a6.556 6.556 0 011.415 1.746c.32.567.61 1.184.866 1.84.183.471.365.91.547 1.317.2-.32.405-.66.612-1.02.258-.451.53-.912.812-1.38.332-.55.701-1.057 1.096-1.505a6.262 6.262 0 011.536-1.273 4.44 4.44 0 012.27-.604c.72 0 1.38.165 1.964.487a4.24 4.24 0 011.341 1.164c.347.463.598.99.748 1.567.127.498.19.99.19 1.468 0 .773-.111 1.516-.33 2.204a9.382 9.382 0 01-.785 1.79 10.542 10.542 0 01-1.093 1.56l-1.009 1.199c-.349.393-.65.753-.94 1.122a8.126 8.126 0 00-.686 1.016 5.6 5.6 0 00-.456 1.015c-.09.268-.135.57-.135.9 0 .35.032.713.096 1.079.078.45.17.9.278 1.356.125.538.233 1.072.324 1.607.103.606.155 1.213.155 1.804 0 .617-.066 1.207-.196 1.757-.166.7-.478 1.33-.925 1.871-.468.566-1.076 1-1.81 1.294-.67.267-1.428.396-2.324.396zm20.286.285c-1.167 0-2.229-.404-3.069-1.17-.687-.626-1.246-1.44-1.663-2.417-.363-.85-.645-1.836-.84-2.93a33.987 33.987 0 01-.403-3.122 44.554 44.554 0 01-.149-3.212c-.01-1.038-.016-2.003-.016-2.894 0-1.258.038-2.478.115-3.625.089-1.331.361-2.529.81-3.558a6.455 6.455 0 012.323-2.815c1.053-.712 2.45-1.072 4.155-1.072.67 0 1.4.028 2.237.084a10.9 10.9 0 012.654.506c.96.315 1.789.807 2.462 1.463.587.574 1.283 1.61 1.283 3.297 0 1.486-.615 2.393-1.132 2.892a4.832 4.832 0 01-.903.69c.54.596 1.024 1.515 1.024 2.896 0 1.075-.27 1.976-.802 2.678a5.36 5.36 0 01-.2.246 4.179 4.179 0 011.834 1.208 4.537 4.537 0 011.19 3.072c0 1.348-.519 2.58-1.502 3.563a12.86 12.86 0 01-1.926 1.558 18.29 18.29 0 01-2.306 1.312 15.93 15.93 0 01-2.531.958c-.928.26-1.816.392-2.645.392z"/><path class="st1" d="M145.538 106.278c-1.12 0-2.09-.308-2.887-.914a6.108 6.108 0 01-1.622-1.876 9.14 9.14 0 01-.851-2.104 19.49 19.49 0 01-.405-1.835 39.193 39.193 0 01-.123-.865l-.005.027a9.15 9.15 0 00-.074.67c-.028.368-.07.695-.123.989a12.393 12.393 0 01-.453 1.691 7.864 7.864 0 01-.893 1.825 5.989 5.989 0 01-1.473 1.54 4.131 4.131 0 01-2.466.79c-.866 0-1.66-.197-2.36-.584a5.194 5.194 0 01-1.631-1.407 5.81 5.81 0 01-.938-1.825 6.586 6.586 0 01-.294-1.95c0-.196.007-.393.02-.59.018-.257.071-.56.166-.94l.256-1.008c.107-.423.265-.997.473-1.718.2-.695.446-1.562.742-2.603l1.073-3.81c.224-.803.457-1.683.695-2.633a15.648 15.648 0 011.106-3.08 8.396 8.396 0 012.035-2.69c1.005-.872 2.296-1.313 3.839-1.313 1.178 0 2.16.168 3.003.513a6.028 6.028 0 012.239 1.584 8.203 8.203 0 011.388 2.26c.311.736.607 1.572.878 2.482a558.687 558.687 0 012.91 9.53c.1.397.189.728.289 1.072.11.39.214.766.311 1.136.111.42.196.809.258 1.167.028.162.05.314.067.458.028.13.041.266.041.403v.57c0 .175-.022.343-.064.505a5.545 5.545 0 01-1.402 2.898 5.19 5.19 0 01-1.64 1.183 4.95 4.95 0 01-2.085.452z"/><path class="st1" d="M156.692 106.53a11.51 11.51 0 01-3.175-.44 9.145 9.145 0 01-2.865-1.378 7.322 7.322 0 01-2.147-2.45c-.548-1.005-.827-2.178-.827-3.482 0-.76.12-1.475.359-2.126a5.412 5.412 0 011.053-1.77 5.097 5.097 0 011.221-1 7.27 7.27 0 01-.96-1.713c-.355-.893-.536-1.934-.536-3.091 0-1.21.228-2.368.676-3.442a9.034 9.034 0 011.846-2.815 8.673 8.673 0 012.786-1.928 8.515 8.515 0 013.423-.704c.968 0 1.945.144 2.907.43.97.289 1.862.706 2.653 1.24a7.188 7.188 0 012.098 2.187c.585.949.882 2.015.882 3.167 0 .653-.091 1.292-.269 1.904a5.268 5.268 0 01-.945 1.829 4.898 4.898 0 01-.632.648c.187.164.362.339.528.524.547.609.977 1.363 1.275 2.239.285.84.423 1.8.423 2.935 0 1.465-.269 2.794-.8 3.949a8.672 8.672 0 01-2.156 2.926 9.094 9.094 0 01-3.152 1.786 11.57 11.57 0 01-3.666.576z"/><path class="st1" d="M174.355 106.689c-1.13 0-2.109-.32-2.91-.95a5.731 5.731 0 01-1.595-1.955 8.058 8.058 0 01-.718-2.188c-.125-.7-.189-1.36-.189-1.963 0-.739.05-1.472.144-2.18a55.05 55.05 0 01.296-1.92c.101-.59.193-1.174.274-1.754.071-.511.108-1.03.108-1.54l-.001-.067a1.39 1.39 0 00-.516-.116c-.395-.018-.78-.03-1.149-.03-1.02 0-1.933-.318-2.64-.918a5.083 5.083 0 01-1.347-1.805 7.321 7.321 0 01-.566-1.937 11.169 11.169 0 01-.133-1.636c0-.917.094-1.68.287-2.335.246-.828.656-1.5 1.22-2.003.549-.487 1.23-.818 2.027-.985.595-.124 1.272-.185 2.068-.185.455 0 .914.012 1.38.035.477.023.918.059 1.318.106.752.05 1.554.08 2.295.08.994 0 1.92-.01 2.779-.03a106.41 106.41 0 012.624-.033c1.193 0 2.184.304 2.943.903.745.588 1.274 1.449 1.578 2.563a10.672 10.672 0 01.297 3.865c-.05.52-.173 1.02-.368 1.48a4.42 4.42 0 01-.866 1.329 3.595 3.595 0 01-1.778 1.007c-.486.137-1.095.218-1.8.231a7.6 7.6 0 00-1.189.113l-.06.01c.031.465.126.93.283 1.407.28.85.519 1.653.714 2.39.182.637.328 1.334.426 2.036.096.701.145 1.41.145 2.109 0 .737-.055 1.46-.167 2.15a6.553 6.553 0 01-.76 2.224 5.027 5.027 0 01-1.693 1.77c-.756.479-1.684.722-2.76.722z"/><path class="st1" d="M188.006 106.942c-1.168 0-2.23-.404-3.07-1.17-.687-.626-1.246-1.44-1.662-2.417-.364-.852-.646-1.838-.84-2.93a33.525 33.525 0 01-.403-3.124 43.226 43.226 0 01-.15-3.21c-.01-1.038-.015-2.003-.015-2.894 0-1.27.04-2.49.115-3.626.088-1.33.36-2.527.81-3.557a6.452 6.452 0 012.324-2.816c1.053-.711 2.45-1.07 4.154-1.07.668 0 1.4.027 2.236.083a10.94 10.94 0 012.654.506c.962.316 1.791.808 2.464 1.465.585.57 1.282 1.607 1.282 3.295 0 1.486-.615 2.393-1.132 2.892a4.807 4.807 0 01-.904.69c.54.595 1.024 1.514 1.024 2.896 0 1.074-.268 1.973-.798 2.675a5.01 5.01 0 01-.203.25 4.181 4.181 0 011.833 1.207 4.537 4.537 0 011.19 3.072c0 1.347-.518 2.579-1.5 3.562a12.907 12.907 0 01-1.928 1.559 18.34 18.34 0 01-2.305 1.312c-.824.395-1.675.716-2.533.958-.926.26-1.815.392-2.643.392z"/><path class="st1" d="M201.813 106.341c-1.184 0-2.257-.546-3.021-1.538-.54-.697-.963-1.556-1.291-2.622a20.156 20.156 0 01-.67-3.124 41.617 41.617 0 01-.332-3.352 65.85 65.85 0 01-.114-3.239 257.36 257.36 0 01-.016-2.723c0-1.17.058-2.244.173-3.194.135-1.116.427-2.101.868-2.93a5.453 5.453 0 012.177-2.224c.9-.506 2.033-.762 3.364-.762 1.18 0 2.39.146 3.593.434 1.258.302 2.423.783 3.467 1.432a8.91 8.91 0 012.724 2.625c.77 1.156 1.158 2.517 1.158 4.05 0 1.028-.22 2.059-.653 3.066a8.657 8.657 0 01-1.388 2.188c.288.29.608.595.956.91.543.493 1.086.967 1.628 1.428.609.518 1.078.94 1.431 1.295a5.26 5.26 0 011.144 1.688 4.88 4.88 0 01.39 1.875 4.22 4.22 0 01-.515 2.05 4.774 4.774 0 01-1.189 1.43 5.174 5.174 0 01-1.558.871c-.568.2-1.165.303-1.772.303-.893 0-1.754-.23-2.56-.682a8.924 8.924 0 01-1.84-1.39 14.468 14.468 0 01-1.447-1.647l-.074-.098a6.51 6.51 0 01-.433 1.253 4.641 4.641 0 01-1.513 1.838c-.722.523-1.627.79-2.687.79z"/><path d="M39.56 82.033c.8 0 1.384.3 1.753.9.368.6.553 1.312.553 2.133 0 1.18-.084 2.297-.253 3.35a20.544 20.544 0 00-.253 3.254c0 1.286.037 2.492.111 3.618.074 1.127.11 2.26.11 3.397 0 .506-.015 1.101-.047 1.786a8.719 8.719 0 01-.316 1.974 4.116 4.116 0 01-.869 1.628c-.4.452-.958.68-1.674.68-.506-.044-.896-.206-1.17-.49a2.924 2.924 0 01-.631-1.012 4.42 4.42 0 01-.27-1.264 17.75 17.75 0 01-.046-1.216c0-.485.02-.975.063-1.47.042-.494.084-1.048.126-1.658-.042-.801-.29-1.354-.742-1.66-.454-.305-1.027-.458-1.722-.458-.59 0-1.043.106-1.36.316-.315.211-.473.611-.473 1.201 0 .506.02 1.043.063 1.612.042.568.063 1.127.063 1.674 0 .527-.037 1.033-.11 1.517a3.627 3.627 0 01-.443 1.295c-.221.38-.537.696-.948.949-.41.252-.943.4-1.595.442-.612-.021-1.096-.148-1.454-.38a2.623 2.623 0 01-.853-.884 3.27 3.27 0 01-.41-1.232 10.51 10.51 0 01-.096-1.422c0-1.054.037-2.096.11-3.129.075-1.032.159-2.054.254-3.065.095-1.01.178-2.022.252-3.033.074-1.011.111-2.022.111-3.033 0-.611-.026-1.159-.079-1.644a13.054 13.054 0 01-.079-1.421c0-.443.032-.88.095-1.312.063-.431.179-.816.347-1.153.169-.337.416-.605.743-.806.326-.2.743-.3 1.248-.3.506 0 .911.095 1.217.284.305.19.542.438.71.743.169.305.28.643.332 1.011.053.369.08.743.08 1.122 0 .358-.011.706-.032 1.042-.021.338-.032.675-.032 1.011 0 .38.037.743.11 1.09.074.348.195.654.364.917.169.264.384.474.648.632.263.158.595.237.995.237.569 0 1.032-.121 1.39-.363.359-.242.643-.553.854-.933.21-.379.368-.794.474-1.248.105-.452.2-.9.284-1.343.084-.336.174-.731.269-1.184.095-.453.226-.88.395-1.28.168-.4.395-.737.679-1.011.285-.274.668-.411 1.153-.411zm21.36 18.859a3.528 3.528 0 01-.932 2.39 3.177 3.177 0 01-1.012.727c-.39.18-.806.27-1.248.27-.674 0-1.232-.17-1.675-.506a4.088 4.088 0 01-1.09-1.264 7.075 7.075 0 01-.664-1.644 17.658 17.658 0 01-.363-1.643 33.97 33.97 0 01-.126-.9 3.453 3.453 0 00-.237-.9 1.877 1.877 0 00-.474-.68c-.2-.179-.49-.269-.869-.269-.295 0-.6.053-.916.158a2.565 2.565 0 00-.759.38c-.21.168-.369.374-.474.616-.106.242-.179.5-.221.774a10.36 10.36 0 00-.095.837 7.458 7.458 0 01-.095.774c-.084.443-.21.912-.379 1.406-.169.496-.39.948-.663 1.359a3.96 3.96 0 01-.98 1.027c-.38.274-.811.411-1.295.411-.527 0-.99-.11-1.39-.332a3.214 3.214 0 01-1.012-.87 3.817 3.817 0 01-.616-1.203 4.578 4.578 0 01-.205-1.36c0-.148.005-.296.015-.444.01-.147.048-.348.111-.601s.147-.585.253-.997c.105-.411.257-.965.458-1.661.2-.696.447-1.566.743-2.61l1.074-3.814a95.42 95.42 0 00.71-2.69c.243-.97.564-1.866.965-2.689.4-.822.916-1.508 1.548-2.056.632-.549 1.474-.824 2.528-.824.905 0 1.653.122 2.243.364a4.02 4.02 0 011.501 1.06c.41.465.759 1.034 1.043 1.71s.553 1.434.805 2.278A570.117 570.117 0 0160.034 97c.085.337.18.69.285 1.06.105.369.205.733.3 1.091.095.359.168.691.221.997.053.306.08.554.08.743v.348-.57.222zm-7.11-11.118c0-.61-.2-1.058-.6-1.343a2.29 2.29 0 00-1.36-.426c-.547 0-.994.19-1.342.569a1.94 1.94 0 00-.522 1.359c0 .189.058.368.174.537.116.169.3.252.553.252.21 0 .495-.015.853-.047s.7-.079 1.027-.142c.327-.063.611-.158.854-.285.242-.126.363-.284.363-.474zm8.531-4.36c.02-.716.194-1.29.521-1.722a3.223 3.223 0 011.248-.995 5.62 5.62 0 011.675-.459c.61-.073 1.19-.11 1.738-.11 1.074 0 2.122.142 3.144.426a9.112 9.112 0 012.923 1.438c.484.358.89.78 1.216 1.264.327.485.585 1 .775 1.548a9.09 9.09 0 01.41 1.722c.084.6.127 1.196.127 1.786 0 1.18-.18 2.154-.537 2.923a5.17 5.17 0 01-1.47 1.895 8.311 8.311 0 01-2.196 1.233 38.64 38.64 0 01-2.717.932c-.4.106-.7.31-.9.616-.201.306-.312.795-.333 1.47a62.892 62.892 0 01-.094 1.674 7.459 7.459 0 01-.316 1.722c-.17.537-.422.985-.759 1.343s-.821.537-1.453.537c-.527 0-.964-.094-1.311-.284a2.112 2.112 0 01-.822-.79 3.864 3.864 0 01-.442-1.138 7.675 7.675 0 01-.174-1.359 44.872 44.872 0 01-.063-1.405 245.55 245.55 0 01-.064-2.118c-.021-.79-.037-1.637-.047-2.543-.01-.906-.016-1.812-.016-2.718a3529.89 3529.89 0 01-.063-6.888zm6.794 5.056c.4 0 .79-.095 1.169-.285.379-.19.568-.494.568-.916a.913.913 0 00-.252-.648 1.906 1.906 0 00-.6-.427 3.444 3.444 0 00-.743-.237 3.574 3.574 0 00-.68-.078c-.463 0-.79.09-.98.268a.86.86 0 00-.284.648c0 .379.174.753.522 1.122a1.69 1.69 0 001.28.553zm8.563-5.056c.02-.716.194-1.29.521-1.722a3.223 3.223 0 011.248-.995 5.62 5.62 0 011.675-.459c.61-.073 1.19-.11 1.738-.11 1.074 0 2.122.142 3.144.426a9.112 9.112 0 012.923 1.438c.484.358.89.78 1.216 1.264.326.485.585 1 .774 1.548.19.548.327 1.122.411 1.722.084.6.126 1.196.126 1.786 0 1.18-.179 2.154-.537 2.923a5.17 5.17 0 01-1.47 1.895 8.311 8.311 0 01-2.195 1.233c-.843.326-1.749.637-2.718.932-.4.106-.7.31-.9.616-.2.306-.311.795-.332 1.47a62.937 62.937 0 01-.095 1.674 7.458 7.458 0 01-.316 1.722c-.169.537-.421.985-.758 1.343s-.822.537-1.454.537c-.526 0-.963-.094-1.31-.284a2.112 2.112 0 01-.823-.79 3.864 3.864 0 01-.442-1.138 7.675 7.675 0 01-.174-1.359 44.84 44.84 0 01-.063-1.405 298.57 298.57 0 01-.063-2.118 164.59 164.59 0 01-.048-2.543c-.01-.906-.015-1.812-.015-2.718a3529.89 3529.89 0 01-.063-6.888zm6.793 5.056c.4 0 .79-.095 1.17-.285.378-.19.568-.494.568-.916a.913.913 0 00-.253-.648 1.906 1.906 0 00-.6-.427 3.444 3.444 0 00-.742-.237 3.574 3.574 0 00-.68-.078c-.464 0-.79.09-.98.268a.86.86 0 00-.284.648c0 .379.174.753.521 1.122a1.69 1.69 0 001.28.553zm13.239 6.383a5.83 5.83 0 00-.236-1.675 8.38 8.38 0 00-.633-1.533c-.263-.495-.563-.98-.9-1.453s-.674-.943-1.011-1.407a29.72 29.72 0 01-1.09-1.485 15.86 15.86 0 01-.948-1.564 8.855 8.855 0 01-.68-1.674 6.577 6.577 0 01-.253-1.849c0-.716.21-1.28.633-1.69.42-.411.968-.616 1.643-.616.526 0 .98.163 1.358.49.38.326.706.731.98 1.216.273.484.521 1.011.743 1.58.22.569.442 1.095.663 1.58.221.484.458.89.711 1.216.253.327.569.49.948.49.463 0 .885-.279 1.264-.837.38-.558.769-1.185 1.17-1.88.252-.443.515-.89.79-1.343.273-.453.568-.859.884-1.217a4.247 4.247 0 011.043-.869c.379-.221.8-.332 1.264-.332.379 0 .71.08.995.237.284.158.521.364.71.616.19.253.327.543.412.87.083.326.126.647.126.963a5.22 5.22 0 01-.237 1.596 7.307 7.307 0 01-.616 1.406 8.554 8.554 0 01-.885 1.264l-1.011 1.2c-.337.38-.664.77-.98 1.17-.315.4-.6.821-.853 1.264-.252.442-.458.9-.616 1.374a4.811 4.811 0 00-.237 1.533c0 .463.042.937.126 1.422.084.485.185.974.3 1.469.116.495.216.99.3 1.485a8.8 8.8 0 01.127 1.47c0 .463-.047.895-.142 1.295a2.56 2.56 0 01-.522 1.058c-.252.306-.59.543-1.01.711-.422.169-.948.253-1.58.253-.632 0-1.149-.1-1.549-.3a2.58 2.58 0 01-.964-.806 2.903 2.903 0 01-.49-1.169 7.407 7.407 0 01-.126-1.39c0-.737.063-1.443.19-2.117.126-.674.19-1.348.19-2.022zm24.3-14.725c.631 0 1.332.026 2.1.079a8.87 8.87 0 012.165.41c.674.222 1.237.553 1.69.996.454.442.68 1.064.68 1.864 0 .632-.174 1.117-.521 1.453-.348.338-.774.58-1.28.727a7.91 7.91 0 01-1.675.285c-.611.042-1.169.09-1.674.142a6.14 6.14 0 00-1.28.253c-.348.116-.521.332-.521.647 0 .316.231.501.695.553.463.053 1.316.08 2.56.08.8 0 1.447.19 1.943.568.494.38.742.97.742 1.77 0 .632-.132 1.121-.395 1.47-.264.347-.6.62-1.011.82a5.467 5.467 0 01-1.312.443c-.463.095-.9.2-1.31.316-.412.116-.749.274-1.012.474-.264.2-.395.49-.395.869 0 .358.126.658.38.9.252.243.547.364.884.364.274 0 .579-.048.916-.142a12.98 12.98 0 001.012-.332c.336-.127.663-.237.979-.332.316-.095.6-.142.853-.142.716 0 1.3.253 1.754.758.453.506.68 1.085.68 1.738 0 .822-.306 1.538-.917 2.149-.443.442-.985.88-1.627 1.311-.643.432-1.328.822-2.054 1.17a13.91 13.91 0 01-2.212.837c-.748.21-1.449.316-2.101.316-.675 0-1.249-.217-1.723-.648-.474-.432-.864-1.006-1.169-1.722-.305-.716-.542-1.548-.71-2.497a31.666 31.666 0 01-.38-2.938 41.831 41.831 0 01-.142-3.065c-.011-1.032-.016-1.99-.016-2.876 0-1.221.037-2.385.11-3.491.074-1.106.29-2.07.649-2.892a4.46 4.46 0 011.611-1.959c.716-.484 1.727-.726 3.034-.726zm26.7 18.764a3.528 3.528 0 01-.932 2.39 3.177 3.177 0 01-1.012.727c-.39.18-.805.27-1.248.27-.674 0-1.232-.17-1.675-.506a4.089 4.089 0 01-1.09-1.264 7.074 7.074 0 01-.663-1.644 17.364 17.364 0 01-.364-1.643 34.009 34.009 0 01-.126-.9 3.453 3.453 0 00-.237-.9 1.877 1.877 0 00-.474-.68c-.2-.179-.49-.269-.869-.269-.295 0-.6.053-.916.158a2.565 2.565 0 00-.758.38c-.211.168-.37.374-.475.616-.105.242-.179.5-.22.774a10.36 10.36 0 00-.095.837 7.46 7.46 0 01-.095.774 10.43 10.43 0 01-.38 1.406c-.168.496-.39.948-.663 1.359-.274.411-.6.754-.98 1.027-.379.274-.81.411-1.295.411-.527 0-.99-.11-1.39-.332a3.214 3.214 0 01-1.012-.87 3.817 3.817 0 01-.616-1.203 4.578 4.578 0 01-.205-1.36c0-.148.005-.296.016-.444s.047-.348.11-.601c.064-.253.147-.585.253-.997.105-.411.258-.965.458-1.661.2-.696.447-1.566.743-2.61l1.074-3.814c.232-.822.469-1.719.711-2.69.242-.97.563-1.866.964-2.689.4-.822.916-1.508 1.548-2.056.632-.549 1.475-.824 2.528-.824.905 0 1.653.122 2.243.364a4.02 4.02 0 011.501 1.06c.411.465.759 1.034 1.043 1.71.285.674.553 1.434.806 2.278A569.748 569.748 0 01147.845 97c.084.337.179.69.285 1.06.104.369.205.733.3 1.091.094.359.168.691.22.997.053.306.08.554.08.743v.348-.57.222zm-7.11-11.118c0-.61-.2-1.058-.6-1.343a2.29 2.29 0 00-1.359-.426c-.548 0-.995.19-1.343.569a1.94 1.94 0 00-.521 1.359.94.94 0 00.173.537c.116.169.3.252.553.252.21 0 .495-.015.854-.047.357-.032.7-.079 1.027-.142.326-.063.61-.158.853-.285.242-.126.363-.284.363-.474zm16.779 6.857c0-.084-.074-.179-.222-.284a4.656 4.656 0 00-.521-.316 6.771 6.771 0 00-.664-.3 13.795 13.795 0 00-.647-.237 19.519 19.519 0 01-2.26-1.027 7.208 7.208 0 01-1.753-1.296 5.19 5.19 0 01-1.122-1.738c-.264-.663-.395-1.448-.395-2.354 0-.948.174-1.837.521-2.67a7.018 7.018 0 011.438-2.196 6.66 6.66 0 012.149-1.485 6.498 6.498 0 012.622-.537c.78 0 1.56.116 2.339.347.779.232 1.48.559 2.1.98a5.173 5.173 0 011.518 1.58 3.95 3.95 0 01.584 2.117c0 .463-.063.912-.19 1.343a3.239 3.239 0 01-.584 1.137c-.263.327-.595.59-.995.79-.4.2-.864.3-1.39.3-.38 0-.738-.1-1.075-.3a8.56 8.56 0 01-.963-.663 11.014 11.014 0 00-.933-.664 1.81 1.81 0 00-.98-.3c-.231 0-.415.063-.552.19-.137.126-.206.252-.206.379 0 .274.18.537.538.79a7.5 7.5 0 001.232.695c.463.21.921.395 1.374.553.453.158.775.269.964.332.59.19 1.138.41 1.643.663.506.253.943.585 1.312.996.368.41.658.927.868 1.548.21.622.316 1.385.316 2.29 0 1.18-.205 2.218-.616 3.113a6.655 6.655 0 01-1.659 2.26c-.695.61-1.516 1.074-2.464 1.39s-1.96.474-3.034.474c-.906 0-1.78-.122-2.622-.364a7.129 7.129 0 01-2.244-1.074 5.311 5.311 0 01-1.564-1.785c-.39-.716-.584-1.559-.584-2.528 0-.527.078-1.006.237-1.438a3.42 3.42 0 01.663-1.122c.285-.316.606-.558.964-.726a2.714 2.714 0 011.169-.253c.442 0 .848.1 1.216.3.369.2.722.422 1.059.664.337.242.68.463 1.027.663.348.2.743.3 1.185.3.231 0 .49-.041.774-.126.284-.084.427-.221.427-.41zm10.616-14.409c.421 0 .848.011 1.28.032.432.021.827.053 1.185.095a35.52 35.52 0 002.528.095c1.011 0 1.954-.01 2.828-.032a112.7 112.7 0 012.575-.031c.737 0 1.306.157 1.707.473.4.316.695.822.884 1.517.19.738.285 1.454.285 2.149 0 .337-.016.669-.048.995a3.067 3.067 0 01-.221.9 2.407 2.407 0 01-.474.728c-.2.21-.469.358-.806.442a5.498 5.498 0 01-1.358.174 9.748 9.748 0 00-1.501.142c-.474.084-.88.248-1.217.49-.337.242-.506.637-.506 1.184 0 .759.132 1.538.396 2.339.263.8.49 1.56.68 2.275a13.434 13.434 0 01.505 3.634c0 .632-.048 1.243-.143 1.832a4.549 4.549 0 01-.521 1.549c-.253.442-.596.8-1.027 1.074-.432.274-.995.41-1.69.41-.675 0-1.233-.173-1.675-.52a3.731 3.731 0 01-1.043-1.28 6.023 6.023 0 01-.537-1.643 9.202 9.202 0 01-.158-1.612c0-.653.042-1.29.126-1.912.084-.62.179-1.237.285-1.848.105-.61.2-1.217.284-1.817.084-.6.126-1.206.126-1.817 0-.547-.116-.969-.347-1.264a2.148 2.148 0 00-.885-.663 3.572 3.572 0 00-1.185-.253c-.432-.02-.848-.032-1.248-.032-.548 0-.995-.147-1.343-.442a3.1 3.1 0 01-.821-1.106 5.258 5.258 0 01-.411-1.406 9.134 9.134 0 01-.11-1.343c0-.716.067-1.306.204-1.77.137-.463.348-.821.633-1.074.284-.253.652-.426 1.106-.521.452-.095 1.005-.143 1.658-.143zm20.255-.094c.631 0 1.331.026 2.1.079a8.87 8.87 0 012.165.41c.674.222 1.237.553 1.69.996.453.442.68 1.064.68 1.864 0 .632-.174 1.117-.522 1.453-.347.338-.774.58-1.28.727a7.91 7.91 0 01-1.674.285c-.611.042-1.169.09-1.675.142a6.14 6.14 0 00-1.28.253c-.347.116-.52.332-.52.647 0 .316.23.501.694.553.464.053 1.316.08 2.56.08.8 0 1.448.19 1.943.568.495.38.743.97.743 1.77 0 .632-.132 1.121-.395 1.47-.264.347-.6.62-1.011.82a5.482 5.482 0 01-1.312.443c-.463.095-.9.2-1.311.316-.41.116-.748.274-1.011.474-.264.2-.395.49-.395.869 0 .358.126.658.379.9.253.243.548.364.884.364.274 0 .58-.048.917-.142a12.69 12.69 0 001.011-.332c.337-.127.664-.237.98-.332.316-.095.6-.142.853-.142.716 0 1.3.253 1.754.758.452.506.679 1.085.679 1.738 0 .822-.306 1.538-.916 2.149-.443.442-.985.88-1.628 1.311-.642.432-1.327.822-2.054 1.17-.726.347-1.464.626-2.211.837-.748.21-1.449.316-2.102.316-.674 0-1.248-.217-1.722-.648-.474-.432-.864-1.006-1.169-1.722-.306-.716-.543-1.548-.711-2.497a31.662 31.662 0 01-.38-2.938 41.826 41.826 0 01-.141-3.065 272.05 272.05 0 01-.016-2.876c0-1.221.036-2.385.11-3.491.074-1.106.29-2.07.648-2.892a4.46 4.46 0 011.612-1.959c.716-.484 1.727-.726 3.033-.726zm20.127 12.228c0 .253.205.6.616 1.043.411.442.895.916 1.454 1.422.558.505 1.116.995 1.674 1.47a22.8 22.8 0 011.312 1.184c.315.316.553.664.71 1.043.159.38.238.748.238 1.106 0 .4-.09.763-.27 1.09a2.81 2.81 0 01-.694.837 3.3 3.3 0 01-2.07.727 3.178 3.178 0 01-1.58-.426 6.822 6.822 0 01-1.422-1.075 12.454 12.454 0 01-1.248-1.422c-.39-.516-.742-.995-1.058-1.437a12.949 12.949 0 01-.49-.775 39.307 39.307 0 00-.711-1.137c-.253-.39-.5-.732-.743-1.027-.242-.295-.426-.443-.553-.443-.084 0-.126.095-.126.285 0 .548.042 1.09.126 1.627a10.552 10.552 0 01.032 3.034 4.705 4.705 0 01-.395 1.39c-.2.432-.49.785-.869 1.058-.379.274-.885.411-1.517.411-.568 0-1.048-.252-1.437-.758-.39-.506-.711-1.17-.964-1.99a18.186 18.186 0 01-.6-2.813 39.698 39.698 0 01-.316-3.191 65.027 65.027 0 01-.111-3.144c-.01-1.022-.016-1.923-.016-2.702 0-1.095.053-2.08.158-2.954.105-.875.321-1.617.648-2.228a3.477 3.477 0 011.39-1.422c.6-.337 1.395-.506 2.386-.506 1.032 0 2.074.127 3.128.38a9.688 9.688 0 012.876 1.184 6.875 6.875 0 012.117 2.038c.547.822.821 1.802.821 2.939a5.7 5.7 0 01-.49 2.275c-.326.759-.848 1.496-1.564 2.212l-.3.3a.534.534 0 00-.142.395zm-5.877-6.288c0 .17.015.353.047.553.032.2.084.385.158.553.074.169.179.311.316.427.137.116.31.173.521.173.169 0 .374-.005.617-.015.242-.01.474-.042.695-.095.22-.052.405-.132.553-.237a.484.484 0 00.22-.41c0-.254-.068-.475-.204-.664a2.076 2.076 0 00-.538-.506 2.594 2.594 0 00-.71-.332 2.59 2.59 0 00-.728-.11c-.274 0-.5.052-.679.158-.179.105-.268.274-.268.505z" fill="#ffea6e"/><g><path d="M102.016 42.031S98.84-11.453 84.544 2.244s8.736 39.787 8.736 39.787h8.736zm11.846 0s3.177-53.484 17.472-39.787-8.736 39.787-8.736 39.787h-8.736z" fill="#d3eff4"/><path class="st4" d="M100.766 42.031S98.644 3.219 89.092 13.159 94.93 42.03 94.93 42.03h5.837zm14.346 0s2.123-38.812 11.674-28.872-5.837 28.872-5.837 28.872h-5.837z"/></g><g><path class="st4" d="M240.737 86.059c-1.187-3.537-3.67-6.14-6.892-6.71-3.301-.583-6.603 1.106-8.942 4.157 3.498 1.57 8.907 3.142 15.834 2.553zm-2.006 6.198l-4.391 5.669-2.586-7.029-5.647 5.517-1.804-6.616-2.659 3.327a15.73 15.73 0 00.523 4.467c3.576 1.644 9.254 3.349 16.596 2.613.67-1 1.238-2.124 1.685-3.341l-1.717-4.607z"/><path class="st4" d="M224.819 87.305l1.885 6.914 5.518-5.39 2.481 6.745 4.385-5.66 1.914 5.135c.09-.368.173-.74.24-1.121.42-2.372.327-4.678-.177-6.735a34.52 34.52 0 01-9.169-.361 31.597 31.597 0 01-7.662-2.373c-1.107 1.718-1.93 3.777-2.333 6.054-.032.182-.055.364-.081.545l2.999-3.753zm4.571 13.719a31.796 31.796 0 01-6.74-1.97c1.265 3.192 3.633 5.505 6.649 6.037 3.113.55 6.226-.92 8.532-3.649a34.43 34.43 0 01-8.441-.418z"/></g><g><path class="st4" d="M.77 86.059c1.188-3.537 3.67-6.14 6.893-6.71 3.3-.583 6.603 1.106 8.941 4.157-3.497 1.57-8.907 3.142-15.834 2.553zm2.006 6.198l4.391 5.669 2.586-7.029 5.648 5.517 1.803-6.616 2.66 3.327a15.73 15.73 0 01-.524 4.467c-3.575 1.644-9.253 3.349-16.595 2.613-.67-1-1.239-2.124-1.686-3.341l1.717-4.607z"/><path class="st4" d="M16.689 87.305l-1.885 6.914-5.519-5.39-2.48 6.745-4.385-5.66-1.915 5.135a17.38 17.38 0 01-.24-1.121c-.42-2.372-.327-4.678.177-6.735a34.52 34.52 0 009.17-.361 31.597 31.597 0 007.661-2.373c1.108 1.718 1.931 3.777 2.333 6.054.032.182.055.364.081.545l-2.998-3.753zm-4.572 13.719a31.795 31.795 0 006.74-1.97c-1.265 3.192-3.633 5.505-6.649 6.037-3.112.55-6.226-.92-8.532-3.649 3.13.223 5.956.02 8.441-.418z"/></g></svg>