<svg version="1.1" id="Layer_1" xmlns="http://www.w3.org/2000/svg" x="0" y="0" viewBox="0 0 320.42 83.904" xml:space="preserve"><style>.st0{fill:#2c6821}.st1{fill:#ced6c1}.st2{fill:#f4ffe7}.st4{fill:#212121}.st5{fill:#abffb3}.st6{fill:#51d122}.st7{fill:#2eb307}</style><path class="st0" d="M215.214 11.875c.186.982.362 1.938.533 2.88l2.247-.002c.942 4.984 1.696 9.435 2.262 13.35-3.958-.167-7.57-.25-10.837-.25.214 7.425.298 14.24.255 20.456a358.4 358.4 0 01-.255 11.583h-11.622a69.95 69.95 0 01-.288-2.878h-2.493c-.378-3.053-.623-7.28-.735-12.679-.085-4.157-.092-9.007-.018-14.555l-.025-1.805c-2.84.058-5.768.206-8.786.443.11-1.075.225-2.098.342-3.093-1.03.061-2.07.131-3.123.214.566-5.528 1.236-10 2.01-13.413 8.565-.167 18.743-.251 30.533-.251m1.443-1.741h-1.443c-11.741 0-22.025.084-30.567.251l-1.362.027-.302 1.329c-.786 3.466-1.474 8.049-2.044 13.621l-.212 2.076 2.08-.163 1.022-.077c-.038.354-.075.7-.11 1.043l-.212 2.076 2.081-.164a155.39 155.39 0 016.933-.39v.017c-.073 5.528-.066 10.438.02 14.591.111 5.435.363 9.761.747 12.857l.19 1.527h2.44c.048.48.098.929.15 1.352l.19 1.527h14.835l.066-1.673c.141-3.572.227-7.488.256-11.64.04-5.715-.03-12.004-.206-18.72 2.756.025 5.765.106 8.973.242l2.098.089-.3-2.078c-.567-3.922-1.332-8.44-2.275-13.424l-.268-1.418h-2.239l-.273-1.46-.268-1.418z"/><path class="st0" d="M234.597 24.666c2.949 0 5.232 1.328 6.86 3.965 2.677 1.634 4.429 5.112 5.248 10.45.372 2.675.702 5.219.99 7.633.474 3.975.836 7.6 1.083 10.87l-10.334 3.015-.346-1.979c-2.838 1.111-5.859 1.666-9.061 1.666h-.174c-3.34-.595-5.704-2.086-7.096-4.469-2.547-1.62-3.958-4.281-4.228-7.991 0-.282.012-.556.034-.823.299-3.517 2.567-5.772 6.797-6.77l-4.114-3.256c.1-.15.206-.288.308-.434l-3.088-2.444c4.239-6.286 9.648-9.429 16.229-9.429.15 0 .3.002.45.005.15-.006.296-.01.442-.01M229.75 39.61c.264-.007.527-.01.788-.01 1.162 0 2.297.067 3.397.216a23.22 23.22 0 00-.253-2.631c-1.143.31-2.453 1.118-3.932 2.425m.969 9.831c1.118-.084 2.394-.263 3.844-.547l-.017-.172-.25.003c-1.644.011-2.834.251-3.577.716m3.877-26.517c-.152 0-.305.003-.459.01-.145-.004-.29-.005-.433-.005-7.164 0-13.11 3.43-17.673 10.196l-.902 1.338 1.265 1.001 1.813 1.436-.297.441 1.264 1.001 1.647 1.304c-3.691 1.837-4.78 4.81-4.984 7.21-.027.32-.04.646-.04.97v.063l.004.064c.3 4.101 1.873 7.16 4.68 9.102 1.679 2.627 4.394 4.29 8.076 4.945l.146.026h.149l.184.001a26.89 26.89 0 007.697-1.098l.33 1.887 1.868-.545 10.334-3.016 1.355-.395-.106-1.408a256.996 256.996 0 00-1.091-10.945c-.289-2.42-.623-5-.994-7.665-.865-5.637-2.785-9.485-5.711-11.468-1.93-2.913-4.731-4.45-8.122-4.45zm40.974-10.908l11.433 3.99c-.092.618-.177 1.216-.262 1.816l3.043 1.062c-.717 4.822-1.24 9.04-1.578 12.68l8.66-4.25 1.216 3.646 1.565-.768 2.701 8.104-8.996 5.557a77.502 77.502 0 012.823 2.92c.367.36.737.73 1.11 1.114a101.586 101.586 0 014.718 5.205l-7.413 6.942-2.774-2.885-.006.006-5.86-6.094a498.972 498.972 0 00-1.758 9.193H273.92l.287-2.879h-3.067c.461-4.619.9-9.051 1.321-13.305a8036.269 8036.269 0 003.108-32.054m-1.524-2.376l-.21 2.212c-.866 9.158-1.912 19.94-3.107 32.047-.42 4.253-.86 8.685-1.32 13.303l-.192 1.915h3.068l-.096.964-.191 1.914h13.65l.258-1.432a457.11 457.11 0 011.106-5.886l3.543 3.685 1.198 1.246.006-.006 1.577 1.639 1.19 1.238 1.255-1.174 7.413-6.942 1.21-1.134-1.073-1.265a103.782 103.782 0 00-4.799-5.294c-.372-.38-.74-.75-1.105-1.11a99.837 99.837 0 00-1.295-1.376l7.133-4.406 1.172-.724-.436-1.308-2.701-8.104-.63-1.89-1.565.767-.585-1.756-.63-1.89-1.79.878-5.84 2.866c.32-2.87.737-6.043 1.247-9.477l.212-1.426-1.36-.474-1.69-.59.058-.389.211-1.425-1.36-.475-11.434-3.99-2.098-.731z"/><path class="st0" d="M264.484 11.639a739.426 739.426 0 00-.718 3.11l3.498-.232c-3.727 16-5.591 26.23-5.591 30.69 0 .5.025.95.07 1.362.818-.193 1.524-.67 2.113-1.445l2.43 3.284a4.8 4.8 0 00.35-.405l4.743 6.408c-1.939 3.856-5.297 5.784-10.078 5.784-.126 0-.254-.002-.382-.004-4.06 0-6.715-1.32-7.973-3.95-1.52-.799-2.567-2.04-3.132-3.735-.645-1.628-1.039-3.665-1.187-6.101a37.583 37.583 0 01-.069-2.286c-.209-9.13 1.308-19.705 4.555-31.726l11.37-.754m2.23-1.893l-2.344.156-11.372.753-1.241.083-.324 1.201c-3.272 12.114-4.824 22.948-4.615 32.2 0 .792.025 1.59.072 2.372.158 2.596.592 4.814 1.289 6.592.648 1.912 1.81 3.389 3.46 4.397 1.648 2.938 4.76 4.428 9.262 4.432.135.003.269.004.401.004 5.47 0 9.384-2.269 11.634-6.743l.481-.957-.637-.861-4.743-6.408-1.38-1.864-.33.432-1.07-1.447-1.38-1.864-.313.41c.507-5.203 2.316-14.5 5.397-27.721l.533-2.288-2.344.155-1.16.077.19-.823.534-2.288zm37.956 1.642c7.12 2.325 10.837 3.644 11.151 3.958l-.178 1.677c1.815.645 2.803 1.046 2.959 1.201-2.01 18.973-3.173 28.742-3.487 29.308-.168.03-.319.04-.476.057-.634.105-1.828.353-3.573.745 1.85.651 2.812 1.622 2.886 2.913 1.86.68 2.796 1.69 2.796 3.038 0 3.058-2.324 5.152-6.974 6.283h-.69c-2.052 0-3.124-.978-3.243-2.91-1.862-.152-2.804-1.222-2.804-3.236v-.69c0-2.06 1.085-3.581 3.253-4.566h-.002c.014-.273.029-.626.044-1.058.022-.59.044-1.335.068-2.224-.81.187-1.698.394-2.672.623 0-.147-.074-.22-.22-.22.014-.273.028-.626.044-1.057.147-4.082.363-15.288.647-33.622l.47-.22m-.113-1.869l-.623.291-.471.22-.988.461-.016 1.09c-.283 18.22-.5 29.521-.646 33.586-.015.42-.03.765-.043 1.03l-.095 1.831h.312v.677l2.14-.503.462-.109c-2.692 1.613-3.293 3.911-3.293 5.638v.691c0 2.376 1.114 4.054 3.043 4.7.61 2.02 2.307 3.187 4.746 3.187h.9l.202-.05c6.863-1.669 8.303-5.257 8.303-7.974 0-1.325-.55-3.08-3.02-4.284a4.162 4.162 0 00-.32-.714c.084-.01.178-.024.278-.042l.81-.148.4-.72c.301-.543.643-1.158 3.696-29.97l.088-.827-.59-.588c-.27-.27-.541-.478-2.312-1.14l.034-.323.088-.827-.59-.589c-.41-.41-.766-.764-11.84-4.38l-.655-.214z"/><path class="st1" d="M160.574 26.672s-2.078-15.283 5.947-16.906c1.264-.256 1.35-2.043.127-2.452a14.323 14.323 0 00-2.064-.507c-5-.875-15.683-1.122-8.494 21.347 7.189 22.468 5.062.404 4.484-1.482z"/><path class="st2" d="M147.364 49.237a2.035 2.035 0 00-2.035-2.035c-.023 0-.045.003-.068.004a2.034 2.034 0 00-3.566-.741 2.035 2.035 0 00-1.43 3.763 2.035 2.035 0 002.747 2.815 2.035 2.035 0 003.446-2.111c.546-.366.906-.988.906-1.695zm-4 .52l-.005-.004h.003l.001.004z"/><path class="st1" d="M143.359 49.753l.004.004v-.004z"/><path class="st1" d="M143.012 53.042a2.035 2.035 0 003.446-2.111 2.035 2.035 0 00-1.128-3.729c-.024 0-.046.003-.07.004a2.04 2.04 0 00-1.222-1.378c-.169.736-.744 1.919-.675 5.382.016.783-1.069 1.691-2.721 1.568a2.025 2.025 0 002.37.264zm.347-3.29h.003l.001.005-.004-.004z"/><path class="st2" d="M149.779 30.568c.46-4.064 3.858-7.159 7.948-7.208l.201-.001c6.71 0 7.926 3.996 7.927 3.999.004.001 4.32 1.799 4.142 5.499-.23 4.784-5.165 6.022-5.165 6.022s7.665 17.616-2.476 20.115c-4.006.988-8 .827-11.371-.05-5.64-1.466-8.526-7.744-6.049-13.02 1.928-4.105 4.227-9.92 4.843-15.356z"/><path d="M143.362 49.753h-.003l.004.004z" fill="#c9b59a"/><path class="st4" d="M169.627 31.336c-.008.486 0 1.424.167 1.937.057.178.29.228.41.084.171-.203.368-.574.369-1.206 0-.175-.08-.432-.103-.482a1.462 1.462 0 00-.476-.534.24.24 0 00-.367.2z"/><circle class="st4" cx="161.713" cy="30.357" r="2.214"/><circle class="st2" cx="161.177" cy="30" r="1.107"/><path class="st2" d="M157.178 23.073s-3.99-15.387 4.04-18.002c1.269-.413 1.192-2.217-.113-2.496a14.566 14.566 0 00-2.248-.284c-5.214-.285-16.158.763-6.08 22.842 10.079 22.078 5.221-.203 4.4-2.06z"/><path class="st1" d="M164.832 38.88s2.294-.577 3.827-2.46c0 0-3.91 5.328-11.017 1.114-4.925-2.92-2.237.488 1.857 3.06 4.095 2.57 9.388 7.77 7.408 14.501 2.38-5.972-2.075-16.216-2.075-16.216z"/><path class="st1" d="M161.497 42.935s2.873 6.024 1.53 8.524c-1.343 2.5-4.985 2.071-6.057-2.642 0 0-.07 5.284 4 4.999 4.07-.286 4.41-5.48.527-10.881z"/><path class="st0" d="M32.443 46.477l-4.881.062-3.594.046-4.893.063-1.57.02 2.387-31.82L6.29 16.606 5 49.637l-.406 10.381 32.04-1.445c0-1.696.168-5.748.503-12.156l-2.582.033-2.112.027zM104.1 10.104l-6.282 4.932c3.142 3.79 3.8 7.654 1.979 11.59l3.455 1.729c6.89-7.476 7.172-13.56.848-18.25zm13.412 25.821c1.822 0 4.565 1.414 8.23 4.24l5.56-5.59c-4.189-4.943-8.45-7.361-12.785-7.257-7.895.356-11.937 3.403-12.125 9.141 0 4.189 2.188 7.371 6.565 9.55a49.42 49.42 0 011.869.672c3.21 1.23 4.822 2.326 4.822 3.285-.293.712-.91 1.068-1.853 1.068-1.466 0-3.948-1.33-7.445-3.99l-5.026 6.377c3.245 3.938 7.047 6.231 11.403 6.88 2.617.188 4.753.115 6.408-.22 4.481-.503 7.182-2.796 8.104-6.88a9.267 9.267 0 00-.724-4.507c-1.045-2.418-3.168-4.59-6.375-6.518-5.361-2.157-8.188-3.727-8.481-4.712.02-.816.638-1.33 1.853-1.54zM56.563 50.877c-2.817-.063-4.623-.554-5.419-1.476l3.147-1.43 4.618-2.1 10.266-4.669c-.084-4.523-1.79-8.135-5.12-10.837-2.87-1.885-6.388-2.69-10.555-2.419-5.13-.062-9.287 2.315-12.47 7.13-1.404 2.975-2.031 6.692-1.885 11.152.173 1.266.43 2.453.764 3.568 1.522 5.082 4.71 8.596 9.57 10.536 7.204 1.634 13.864-.607 19.978-6.722l-2.386-8.041c-4.19 3.602-7.692 5.37-10.508 5.308zm-5.01-15.392c3.308-1.047 5.842-.523 7.601 1.571l-5.584 2.469-.964.426-4.037 1.785c-.294-2.931.7-5.015 2.983-6.25zM86.826 49.62c-1.698-.456-2.39-2.6-2.076-6.427.19-2.311.745-5.236 1.668-8.776l6.502-.22-.848-8.167-3.707-.283 1.508-11.214-11.685 1.194-1.194 9.77-5.34.345-1.414 8.293 5.246.188c-.805 4.917-1.167 9.269-1.09 13.063.054 2.717.332 5.15.839 7.292 1.088 3.707 3.947 5.56 8.575 5.56 4.021 0 7.466-1.434 10.335-4.304l-4.775-7.067c-.712.586-1.56.838-2.544.754z"/><path class="st5" d="M9.135 40.09s2.259 2.72 1.882 7.492c0 0 3.156-.77 5.278-3.813l-1.57.02 2.386-31.82-13.6 1.76-1.291 33.03c2.758-.907 6.073-2.79 6.915-6.67zM25.7 47.582l-.918-3.921-3.594.046c1.445 1.944 3.143 3.76 4.513 3.875zm6.075-4.011l-2.113.027-1.2 3.984zm12.375 3.136c2.007.377 3.011-4.747 3.011-4.747s2.833 3.821 4.35 3.132c1.109-.505-.657-5.416-1.685-8.02l-4.038 1.786c-.293-2.932.702-5.015 2.984-6.251 3.309-1.047 5.843-.523 7.602 1.57l-5.584 2.47c1.788 1.394 4.517 3.845 5.338 6.345l10.267-4.668c-.085-4.523-1.79-8.136-5.12-10.837-2.87-1.885-6.388-2.691-10.555-2.42-5.131-.062-9.288 2.315-12.47 7.131-1.404 2.974-2.031 6.691-1.885 11.152.173 1.266.43 2.453.764 3.568l3.883-5.425s1.13 4.838 3.137 5.214zm29.742-3.388c0-.753 1.506 3.765 4.267 3.012 2.761-.753 2.887-7.473 2.887-7.473s.365.632.924 1.457c.19-2.311.745-5.236 1.667-8.776l6.502-.22-.848-8.167-3.706-.283 1.508-11.214-11.685 1.194-1.194 9.769-5.34.345-1.414 8.293 5.246.189c-.806 4.917-1.167 9.268-1.09 13.062 1.155-.37 2.276-.823 2.276-1.188zm23.125-19.571l3.455 1.728c6.89-7.476 7.172-13.559.848-18.25l-6.282 4.931c3.141 3.791 3.8 7.655 1.979 11.591zm24.565 22.582c1.004-1.129 0-5.35 0-5.35s2.391 5.576 6.153 4.836c-1.045-2.418-3.168-4.591-6.376-6.518-5.36-2.157-8.187-3.728-8.48-4.712.02-.817.638-1.33 1.853-1.54 1.821 0 4.565 1.414 8.23 4.241l5.56-5.591c-4.189-4.942-8.45-7.36-12.785-7.256-7.895.356-11.937 3.403-12.126 9.14 0 4.19 2.189 7.372 6.566 9.55.676.228 1.295.452 1.869.672.99-.164 1.768-.4 2.131-.734 0 0 6.401 4.392 7.405 3.263z"/><path class="st6" d="M33.854 55.695c0-1.697.168-5.749.503-12.157l-2.582.033-3.313 4.011 1.2-3.984-4.88.063.919 3.921c-1.37-.116-3.068-1.93-4.513-3.875l-4.893.062c-2.122 3.044-5.278 3.813-5.278 3.813.377-4.773-1.882-7.492-1.882-7.492-.842 3.88-4.157 5.762-6.915 6.669l-.406 10.38 32.04-1.444zM50.79 36.647l-.964.426c1.028 2.603 2.794 7.514 1.685 8.019l4.618-2.1c-.822-2.5-3.551-4.951-5.34-6.345z"/><path class="st6" d="M46.7 57.454c7.203 1.633 13.862-.607 19.977-6.723l-2.387-8.04c-4.189 3.601-7.691 5.37-10.508 5.308-2.816-.063-4.622-.555-5.418-1.476l3.147-1.431c-1.517.69-4.35-3.132-4.35-3.132s-1.004 5.124-3.012 4.747c-2.008-.376-3.137-5.214-3.137-5.214l-3.883 5.425c1.521 5.081 4.71 8.595 9.57 10.536zM81.03 57.36c4.021 0 7.466-1.435 10.335-4.304l-4.775-7.068c-.712.587-1.56.838-2.545.754-1.697-.457-2.388-2.6-2.075-6.427-.56-.825-.924-1.457-.924-1.457s-.126 6.72-2.887 7.473c-2.76.753-4.267-3.765-4.267-3.012 0 .365-1.121.818-2.277 1.188.055 2.718.332 5.151.84 7.293 1.088 3.706 3.947 5.56 8.575 5.56zm35.838-10.272c-.294.712-.911 1.068-1.854 1.068-1.465 0-3.947-1.33-7.444-3.99l-5.026 6.377c3.245 3.937 7.046 6.23 11.403 6.88 2.617.188 4.753.114 6.407-.22 4.482-.503 7.183-2.796 8.105-6.88a9.267 9.267 0 00-.724-4.507c-3.762.74-6.153-4.836-6.153-4.836s1.004 4.221 0 5.35c-1.004 1.13-7.405-3.262-7.405-3.262-.363.335-1.142.57-2.131.734 3.21 1.23 4.822 2.327 4.822 3.286z"/><g><path class="st0" d="M220.256 28.104c-.566-3.916-1.32-8.367-2.262-13.35-11.79 0-21.968.083-30.532.25-.775 3.414-1.445 7.885-2.01 13.414 4-.314 7.842-.472 11.528-.472l.063 4.712c-.073 5.548-.067 10.399.019 14.556.11 5.398.356 9.626.735 12.678h11.622a358.4 358.4 0 00.255-11.583c.043-6.216-.041-13.031-.255-20.457 3.266 0 6.879.084 10.837.252zm26.449 10.978c-1.215-7.916-4.471-11.758-9.769-11.528-6.785-.147-12.345 2.995-16.68 9.423l6.785 5.372c3.204-3.602 5.79-5.372 7.759-5.309 1.11.147 1.748 2.032 1.916 5.654-2.324-.314-4.786-.303-7.382.032-5.641.688-8.634 3.073-8.98 7.156a9.72 9.72 0 00-.035.822c.397 5.445 3.246 8.639 8.544 9.581 3.267.02 6.345-.534 9.235-1.665l.346 1.98 10.334-3.016c-.247-3.27-.609-6.895-1.083-10.87a398.056 398.056 0 00-.99-7.632zm-14.041 13.287c-1.57-.02-2.524-.387-2.859-1.1-.146-1.674 1.351-2.522 4.493-2.544l2.732-.03.314 3.077c-1.822.357-3.382.555-4.68.597zm66.983-22.177l-11.78 5.78c.252-4.481.89-10.177 1.917-17.088l-11.434-3.99c-.87 9.189-1.906 19.876-3.109 32.054-.42 4.254-.86 8.687-1.32 13.306h10.27a498.573 498.573 0 011.76-9.204l8.639 8.984 7.413-6.942a101.572 101.572 0 00-4.718-5.205 71.809 71.809 0 00-2.045-2.017c-.157-.15-.311-.288-.467-.432-.55-.51-1.096-1-1.629-1.456l9.204-5.686-2.701-8.104zm7.331-15.706c-.284 18.334-.5 29.54-.647 33.622-.015.432-.03.785-.044 1.057.146 0 .22.074.22.22 4.338-1.02 7.046-1.617 8.131-1.796.157-.017.308-.027.476-.057.314-.566 1.476-10.335 3.487-29.308-.315-.314-4.032-1.633-11.152-3.958l-.471.22zm12.808 29.497c.012-.08.014-.124.014-.124l-.014.124zm-55.883 5.559c-1.046 0-1.722-.718-2.032-2.147-.131-.603-.198-1.33-.198-2.188 0-4.46 1.864-14.69 5.591-30.69l-11.371.754c-3.246 12.021-4.764 22.597-4.555 31.727 0 .799.025 1.558.07 2.285.148 2.437.541 4.473 1.187 6.102 1.067 3.204 3.842 4.806 8.324 4.806 4.984.104 8.47-1.822 10.46-5.78l-4.743-6.408c-.733.963-1.644 1.476-2.733 1.54zm49.357 1.476h-.47c-4.65.713-6.974 2.576-6.974 5.592v.69c0 2.18 1.088 3.268 3.267 3.268h.69c4.65-1.131 6.974-3.225 6.974-6.283 0-1.507-1.162-2.596-3.486-3.267z"/><path class="st7" d="M312.333 44.653c-.084 0-.245.02-.475.058.157-.017.308-.027.475-.058z"/><path class="st5" d="M200.074 45.816c1.612.138 4.122-5.76 4.122-5.76s1.04 3.442 2.698 5.374c.043-6.215-.041-13.03-.255-20.456 3.266 0 6.879.084 10.837.251-.566-3.916-1.32-8.366-2.262-13.35-11.79 0-21.968.084-30.533.251-.774 3.414-1.444 7.885-2.01 13.413 4-.314 7.843-.471 11.529-.471l.063 4.712c-.074 5.548-.067 10.398.018 14.555 1.467-.767 2.887-1.895 2.887-1.895s1.293 3.237 2.906 3.376zm22.194 0s6.024.138 6.275-3.627c0 0 5.145 4.116 7.405 3.627 2.259-.49 2.384-6.958 2.384-6.958s3.124 8.245 4.894 6.958c.682-.496 1.248-1.246 1.689-1.98a398.437 398.437 0 00-.99-7.633c-1.215-7.915-4.472-11.758-9.77-11.528-6.784-.146-12.344 2.995-16.68 9.424l6.786 5.371c3.204-3.601 5.79-5.371 7.759-5.308 1.11.146 1.748 2.031 1.916 5.654-2.325-.314-4.786-.303-7.382.031-5.641.688-8.634 3.074-8.98 7.156 2.314-.048 4.264-.333 4.694-1.187zm28.614 1.766c2.133-1 5.02-8.724 5.02-8.724s.69 6.845 2.667 5.967c.177-.08.35-.188.522-.308-.131-.603-.198-1.33-.198-2.188 0-4.46 1.863-14.69 5.59-30.69l-11.37.754c-3.247 12.02-4.764 22.596-4.555 31.726 0 .8.025 1.559.07 2.286.734.926 1.53 1.517 2.254 1.177zm40.411-1.766c.666.248 2.005-.239 3.212-.808a71.809 71.809 0 00-2.045-2.017c-.97 1.113-1.979 2.522-1.167 2.825zm-12.801.691c2.76.2 2.51-4.932 2.51-4.932s4.894 5.985 5.773 4.24c.878-1.743 1.004-4.24 1.004-4.24s1.039 4.227 2.51 2.497a8.66 8.66 0 011.704-1.513c-.551-.51-1.096-1-1.629-1.455l9.204-5.686-2.701-8.104-11.78 5.78c.252-4.482.89-10.178 1.916-17.089l-11.434-3.989c-.87 9.188-1.905 19.875-3.108 32.054 1.8-.376 3.27-.751 3.27-.751s0 2.987 2.76 3.188zm28.613-5.314s.63 3.97 4.753 3.518c.23-.038.391-.058.475-.058.314-.565 1.477-10.334 3.488-29.307-.315-.314-4.032-1.634-11.152-3.958l-.471.22c-.284 18.334-.5 29.54-.647 33.622 1.936-1.86 3.554-4.037 3.554-4.037z"/><path d="M317.005 41.104c.013-.08.015-.124.015-.124l-.015.124z"/><path class="st6" d="M206.639 57.014a358.4 358.4 0 00.255-11.584c-1.658-1.932-2.698-5.374-2.698-5.374s-2.51 5.898-4.122 5.76c-1.613-.139-2.906-3.376-2.906-3.376s-1.42 1.128-2.887 1.895c.112 5.399.357 9.626.735 12.679h11.623zm19.444.393c3.267.02 6.345-.534 9.235-1.665l.346 1.979 10.334-3.016c-.247-3.27-.609-6.894-1.083-10.87-.44.735-1.007 1.485-1.689 1.98-1.77 1.288-4.894-6.957-4.894-6.957s-.125 6.469-2.384 6.958c-2.26.489-7.405-3.627-7.405-3.627-.25 3.765-6.275 3.627-6.275 3.627-.43.854-2.38 1.14-4.695 1.187a9.72 9.72 0 00-.034.823c.397 5.445 3.245 8.638 8.544 9.58zm5.434-11.56l2.733-.031.314 3.078c-1.822.356-3.382.555-4.68.597-1.571-.021-2.524-.387-2.859-1.1-.147-1.675 1.351-2.523 4.492-2.544zm26.622 11.465c4.983.105 8.47-1.821 10.46-5.78l-4.743-6.408c-.734.964-1.645 1.477-2.733 1.54-1.046 0-1.722-.718-2.032-2.147-.171.12-.345.229-.522.308-1.976.878-2.667-5.967-2.667-5.967s-2.887 7.724-5.02 8.724c-.725.34-1.52-.25-2.255-1.177.148 2.436.542 4.473 1.187 6.101 1.068 3.204 3.843 4.806 8.325 4.806zm23.273.063a498.557 498.557 0 011.76-9.204l8.638 8.984 7.413-6.942a101.572 101.572 0 00-4.718-5.205c-1.207.57-2.546 1.056-3.212.808-.812-.303.197-1.712 1.167-2.825-.157-.149-.311-.287-.467-.432a8.66 8.66 0 00-1.704 1.513c-1.471 1.73-2.51-2.497-2.51-2.497s-.126 2.497-1.004 4.24c-.879 1.745-5.773-4.24-5.773-4.24s.25 5.132-2.51 4.932c-2.761-.201-2.761-3.188-2.761-3.188s-1.47.375-3.27.75c-.42 4.255-.86 8.687-1.32 13.306h10.27zm29.068-9.235h-.471c-4.649.712-6.973 2.576-6.973 5.591v.691c0 2.179 1.088 3.267 3.266 3.267h.691c4.65-1.13 6.974-3.224 6.974-6.282 0-1.508-1.163-2.596-3.487-3.267zm-6.753-1.633c4.338-1.02 7.045-1.618 8.131-1.796-4.123.452-4.753-3.518-4.753-3.518s-1.618 2.178-3.554 4.037c-.016.431-.03.784-.044 1.057.146 0 .22.073.22.22z"/></g><path class="st0" d="M157.68 2.258c.414 0 .81.013 1.176.033.879.049 1.621.15 2.249.284 1.305.28 1.382 2.083.112 2.496a6.048 6.048 0 00-2.86 1.959c1.052-.375 2.177-.506 3.253-.506 1.08 0 2.111.132 2.974.283.807.141 1.489.315 2.064.507 1.223.409 1.137 2.196-.127 2.452-5.716 1.156-6.306 9.238-6.173 13.796 4.59.807 5.506 3.793 5.507 3.796.003 0 2.973 1.246 3.88 3.786a.247.247 0 01.14-.045.22.22 0 01.12.036c.222.143.407.389.475.534a1.6 1.6 0 01.103.482c-.001.632-.198 1.003-.368 1.206a.216.216 0 01-.17.08.266.266 0 01-.1-.021 5.935 5.935 0 01-1.609 3.378l-.015.016.015-.016c.114-.12.226-.243.333-.375 0 0-1.322 1.796-3.82 2.477a1.7 1.7 0 00-.008-.017l.038-.01-.038.01.008.017.01.023.01.026.042.098.023.056.075.185.016.039a31.897 31.897 0 01.41 1.07l.06.164.162.457.068.197a45.967 45.967 0 01.31.936l.08.252c.059.191.119.387.179.59l.072.249a44.915 44.915 0 01.31 1.131l.08.312c.046.19.092.383.137.578a31.724 31.724 0 01.187.856c.024.114.046.23.069.346a29.264 29.264 0 01.349 2.303 22.31 22.31 0 01.092 1.155c.008.166.013.33.018.495.002.099.007.197.008.296.002.243-.001.485-.01.725-.003.105-.01.21-.016.314a14.36 14.36 0 01-.064.786c-.018.157-.04.312-.063.467-.014.094-.026.188-.042.28-.041.23-.089.457-.144.679-.021.086-.047.168-.07.253a8.836 8.836 0 01-.233.72c-.02.053-.036.109-.057.161.005-.016.007-.032.011-.049-.736 1.881-2.135 3.35-4.562 3.948-1.89.466-3.779.677-5.6.677a23.03 23.03 0 01-5.771-.726c-2.845-.74-4.986-2.705-6.094-5.146-.091.012-.181.028-.276.028a2.03 2.03 0 01-1.603-.785 2.023 2.023 0 01-1.4.226c-.056-.01-.107-.032-.161-.047-.07-.02-.14-.037-.206-.064-.066-.027-.126-.062-.189-.096-.048-.026-.097-.048-.143-.078a4.344 4.344 0 01-.264-.205 2.023 2.023 0 01-.384-2.551 2.034 2.034 0 011.43-3.762 2.03 2.03 0 011.599-.78c.263 0 .768.158.781.163.12.05.233.112.34.183.022.015.045.028.067.044.104.076.204.159.292.253.056-.134.1-.27.162-.404 1.928-4.105 4.227-9.92 4.843-15.356a8.116 8.116 0 013-5.431.098.098 0 01-.002-.004c-9.369-20.525-.57-22.876 4.902-22.875m9.277 35.652c-.002 0-.004.002-.005.003l.004-.003M157.68 0c-4.556 0-7.808 1.466-9.667 4.358-2.696 4.193-2.023 10.826 2.06 20.248a10.31 10.31 0 00-2.536 5.707c-.514 4.537-2.308 9.42-3.949 13.13a3.126 3.126 0 00-.293-.015c-.88 0-1.719.264-2.423.748a4.299 4.299 0 00-3.906 4.276c0 .888.277 1.738.767 2.445a4.269 4.269 0 001.403 3.556l.003-.003a3.597 3.597 0 00.846.598l.032.018c.079.042.21.114.38.183.168.069.314.109.4.133l.005.001.011.004c.077.024.205.065.365.096a4.275 4.275 0 001.335.053c.3.169.619.3.952.393a11.448 11.448 0 006.953 5.2c2.038.53 4.17.8 6.339.8 2.077 0 4.143-.25 6.14-.743 2.907-.716 5.015-2.534 6.101-5.257l.007.002c.026-.065.05-.133.073-.2a11.086 11.086 0 00.295-.914l.019-.064a6.71 6.71 0 00.068-.25c.067-.27.125-.548.175-.827.015-.084.028-.172.04-.26l.011-.075a14.222 14.222 0 00.15-1.467l.005-.085a18.858 18.858 0 00.018-1.344l-.003-.09a22.618 22.618 0 00-.046-.949 24.643 24.643 0 00-.04-.5l-.007-.072a19.404 19.404 0 00-.104-.936 27.867 27.867 0 00-.217-1.403 31.829 31.829 0 00-.27-1.355 33.903 33.903 0 00-.235-1.005l-.072-.28-.012-.05a46.046 46.046 0 00-.327-1.193l-.027-.093-.049-.17a43.588 43.588 0 00-.19-.623l-.06-.19-.023-.073a49.418 49.418 0 00-.12-.374l-.086-.259-.12-.352-.02-.058-.052-.152-.053-.15c1.697-.979 2.62-2.18 2.752-2.36h-.001a8.211 8.211 0 001.487-2.984c.401-.491.865-1.336.868-2.619a3.735 3.735 0 00-.315-1.442 3.708 3.708 0 00-1.11-1.345c-1.048-1.922-2.804-3.11-3.853-3.687-.642-1.134-2.06-2.9-4.955-3.874.076-3.591.787-9.104 4.37-9.828a3.47 3.47 0 002.802-3.228 3.501 3.501 0 00-2.407-3.578 16.673 16.673 0 00-2.39-.59 24.249 24.249 0 00-.644-.104c.049-.27.067-.549.052-.834a3.507 3.507 0 00-2.803-3.278 16.913 16.913 0 00-2.598-.33 23.951 23.951 0 00-1.3-.037z"/><g><path class="st0" d="M101.32 7.226c1.32.979 2.348 2.019 3.092 3.12 5.996 4.657 5.613 10.66-1.16 18.009l-3.455-1.728c.192-.416.35-.83.488-1.244l-3.268-1.635c1.822-3.936 1.162-7.8-1.979-11.59l6.282-4.932m-.03-2.19l-1.045.82-6.282 4.932-1.407 1.104 1.141 1.376c2.7 3.257 3.268 6.446 1.74 9.75l-.71 1.532 1.511.756 1.829.914-.56 1.209 1.511.755 3.456 1.728 1.171.586.888-.963c4.231-4.592 6.133-8.695 5.813-12.545-.244-2.935-1.809-5.575-4.652-7.851-.84-1.178-1.96-2.291-3.336-3.312l-1.068-.792z"/><path class="st0" d="M116.007 24.436c4.22 0 8.371 2.399 12.453 7.19a30.54 30.54 0 012.842 2.948l-5.56 5.592c-3.665-2.827-6.408-4.241-8.23-4.241-.862.149-1.417.453-1.678.907 1.37.713 3.21 1.534 5.526 2.466 2.347 1.41 4.108 2.954 5.296 4.628 1.826 1.467 3.119 3.055 3.859 4.768a9.267 9.267 0 01.724 4.508c-.922 4.083-3.623 6.376-8.104 6.879-1.06.214-2.316.321-3.77.321-.817 0-1.697-.033-2.638-.101-4.356-.649-8.158-2.942-11.403-6.88l.014-.017a23.01 23.01 0 01-2.794-2.861l5.026-6.377c3.497 2.66 5.979 3.99 7.444 3.99.764 0 1.31-.238 1.648-.705a29.09 29.09 0 00-1.836-.77 49.535 49.535 0 00-1.869-.673c-2.295-1.142-3.982-2.563-5.073-4.257-2.847-2.07-4.272-4.793-4.272-8.17.188-5.738 4.23-8.785 12.125-9.141.09-.002.18-.004.27-.004m0-1.74h-.002c-.103 0-.206 0-.31.003h-.018l-.018.001c-11.118.502-13.635 6.163-13.788 10.823v.058c0 3.767 1.527 6.873 4.542 9.24l-.21.268-5.027 6.376-.869 1.103.893 1.083a25.039 25.039 0 002.789 2.888c3.51 4.256 7.71 6.774 12.481 7.484l.066.01.066.005c.978.07 1.908.106 2.763.106 1.528 0 2.887-.115 4.04-.341 5.159-.603 8.454-3.443 9.533-8.218l.027-.118.01-.122a11.032 11.032 0 00-.862-5.341c-.82-1.898-2.226-3.675-4.181-5.285a14.57 14.57 0 00-1.034-1.246l.079-.08 5.56-5.59 1.127-1.135-1.034-1.22a32.582 32.582 0 00-2.919-3.038c-4.387-5.119-8.997-7.715-13.704-7.715zM17.112 11.969l-.246 3.27 3.026-.392-2.168 28.904 3.464-.044 3.594-.046 4.88-.063 2.113-.027 2.582-.033-.15 2.916.348-.004L37 46.418a23.69 23.69 0 01-.636-3.068c-.146-4.46.481-8.178 1.885-11.152 3.142-4.754 7.232-7.132 12.273-7.131h.197a23.73 23.73 0 011.545-.05c3.499 0 6.502.823 9.01 2.47a14.09 14.09 0 012.645 2.798c.044.028.091.051.135.08 3.33 2.702 5.036 6.314 5.12 10.837l-4.693 2.134 1.04 3.505a43.2 43.2 0 001.549-1.272l2.387 8.04c-4.827 4.827-9.99 7.24-15.495 7.24a20.24 20.24 0 01-4.483-.517c-2.959-1.181-5.294-2.949-7.015-5.295-2.532-1.997-4.313-4.702-5.336-8.12-.006-.018-.01-.038-.015-.057-.32 6.148-.48 10.057-.48 11.713l-32.04 1.445.118-3.009-2.898.13.406-10.38 1.29-33.03 13.602-1.76m32.454 25.219l.26-.115.964-.426 3.801-1.681c-.928.001-1.94.172-3.038.52-.837.452-1.496 1.021-1.987 1.702m4.68 10.802c2.241-.105 4.894-1.312 7.959-3.618l-3.296 1.499-4.618 2.1-.044.02M19.007 9.967l-2.119.274-13.6 1.76-1.46.188-.058 1.47L.48 46.69.074 57.072 0 58.965l1.892-.086 1.006-.045-.044 1.116-.074 1.893 1.893-.085 32.04-1.445 1.663-.075v-1.665c0-.932.053-2.622.158-5.047a16.56 16.56 0 002.668 2.73c1.9 2.515 4.466 4.43 7.632 5.693l.127.051.134.03a22.02 22.02 0 004.868.56c5.957 0 11.584-2.607 16.726-7.749l.733-.733-.295-.994-2.387-8.04-.46-1.552 1.616-.735 1.042-.473-.022-1.144c-.094-5.04-2.033-9.13-5.764-12.157l-.01-.008a16.015 16.015 0 00-2.77-2.87l-.068-.056-.073-.048c-2.785-1.829-6.138-2.756-9.966-2.756-.52 0-1.056.017-1.596.051h-.146c-5.638 0-10.256 2.662-13.726 7.912l-.069.104-.053.113c-1.34 2.839-2.034 6.31-2.07 10.339l-.27.003-2.583.033-2.112.027-4.88.063-3.594.046-1.564.02 2.026-27.008.16-2.132-2.12.274-.905.118.085-1.139.16-2.131z"/><path class="st0" d="M87.093 11.655l-.431 3.206 3.211-.328-1.153 8.575.571.044.28 2.687 2.5.191.849 8.167-6.502.22c-.923 3.54-1.478 6.465-1.668 8.776-.115 1.408-.093 2.587.064 3.539a3.286 3.286 0 001.776-.744l2.204 3.263c.2-.107.393-.234.576-.384l4.775 7.068c-2.87 2.869-6.314 4.303-10.335 4.303-3.928 0-6.576-1.34-7.955-4.01-1.667-.919-2.802-2.392-3.4-4.428-.508-2.142-.785-4.575-.84-7.293-.061-3.065.168-6.5.681-10.299l-2.056-.073.471-2.762-3.25-.117 1.413-8.293 5.34-.345 1.194-9.77 11.685-1.193m2.02-1.957l-2.197.225-11.685 1.193-1.383.142-.169 1.38-1.018 8.335-3.9.253-1.373.089-.23 1.356-1.414 8.292-.335 1.962 1.989.071 1.262.046-.136.8-.335 1.961 1.989.072.155.005c-.357 3.146-.51 6.052-.459 8.662.058 2.842.356 5.418.886 7.659l.01.045.014.044c.674 2.295 1.943 4.04 3.776 5.194 1.752 2.984 4.861 4.495 9.25 4.495 4.48 0 8.372-1.62 11.566-4.813l1.016-1.016-.804-1.19-4.775-7.068-1.072-1.587-.537.442-1.171-1.734-1.072-1.586-.511.42c.01-.166.022-.337.036-.512.158-1.926.594-4.351 1.298-7.222l5.194-.175 1.866-.063-.192-1.857-.848-8.168-.15-1.445-1.45-.11-1.052-.081-.129-1.242-.15-1.446-.181-.014.907-6.747.294-2.188-2.197.224-1.014.104.137-1.018.294-2.189z"/></g><g><path class="st2" d="M124.795 74.513v.263c0 .085-.007.172-.017.263.248-.079.418-.192.509-.34l.084-.169a2.242 2.242 0 00-.28-.017h-.296zm60.722 7.126a96.002 96.002 0 01-1.833-4.216 307.592 307.592 0 01-1.696-4.267c-.012-.034-.06-.187-.144-.458a21.707 21.707 0 00-.306-.9 12.96 12.96 0 00-.373-.924c-.13-.288-.246-.467-.348-.534-.023 0-.04-.003-.05-.009s-.03-.008-.052-.008l-.118-.051H179.4c-.22 0-.442.002-.662.008a6.12 6.12 0 00-.602.043.439.439 0 00-.28.025c-.097.04-.156.121-.178.246a97.063 97.063 0 01-1.214 3.147 56.775 56.775 0 00-1.179 3.181c-.17.408-.36.817-.568 1.23-.21.413-.41.826-.602 1.239-.193.413-.368.831-.526 1.255a7.484 7.484 0 00-.357 1.298v.034c0 .012.006.017.017.017a.26.26 0 00.025.212.35.35 0 00.195.162c.397.135.826.197 1.29.186.464-.011.9-.022 1.307-.034.124-.011.237-.022.34-.034.1-.011.163-.096.186-.254v-.102c.034-.17.144-.444.33-.823.187-.379.37-.857.552-1.433.69 0 1.363-.003 2.019-.009s1.323-.008 2.002-.008c.112.328.231.684.356 1.068.124.385.238.713.34.984a.335.335 0 00.042.263c.05.085.144.139.28.162.509 0 .984-.004 1.425-.009.441-.006.91-.008 1.408-.008a.369.369 0 00.297-.297c.04-.164-.003-.286-.127-.365v-.017zm-7.38-4.615a5.43 5.43 0 01.22-.73c.09-.237.19-.477.297-.72.107-.244.218-.5.33-.772.114-.272.227-.572.34-.9.226.588.45 1.12.67 1.595.22.475.41.967.569 1.476l-2.426.051zm16.736.296a4.116 4.116 0 00-.415-.586 5.606 5.606 0 00-.458-.485c-.102-.09-.28-.212-.535-.365s-.563-.309-.924-.467a19.233 19.233 0 00-.95-.357 11.795 11.795 0 01-.9-.349 2.952 2.952 0 01-.661-.382.614.614 0 01-.255-.493c0-.181.113-.374.34-.578.226-.125.452-.19.678-.195.226-.006.47-.009.73-.009a3.22 3.22 0 011.815.527c.068.057.153.06.255.009.101-.051.186-.15.254-.298.057-.328.136-.628.238-.9.101-.27.231-.537.39-.797.011-.011.017-.023.017-.034s.006-.028.017-.051l.068-.085a.317.317 0 00.067-.313c-.033-.12-.146-.218-.339-.297a5.052 5.052 0 00-1.23-.501 6.913 6.913 0 00-2.68-.178 5.087 5.087 0 00-1.18.288c-.35.113-.681.283-.992.509a3.494 3.494 0 00-.798.806c-.22.311-.39.66-.509 1.044a3.187 3.187 0 00-.127 1.206c.079.499.22.918.424 1.258.204.34.444.632.721.875s.583.448.917.612c.333.164.673.315 1.018.45.344.137.684.27 1.017.4.334.13.648.28.942.45a.895.895 0 01.314.417c.05.153.076.263.076.33 0 .296-.127.508-.381.639s-.529.2-.823.212a3.547 3.547 0 01-.883-.008 6.94 6.94 0 01-.899-.179 9.002 9.002 0 01-.865-.28 13.074 13.074 0 01-.797-.332.59.59 0 00-.348.102c-.097.068-.105.181-.026.34 0 .363-.056.683-.17.96-.113.278-.231.564-.356.858-.056.16-.065.295-.025.409.04.113.088.17.144.17.306.113.636.215.993.306.356.09.73.17 1.12.238a10.551 10.551 0 002.383.136 6.939 6.939 0 001.468-.29c.47-.147.888-.368 1.255-.663.368-.294.659-.67.874-1.13.215-.458.322-1.022.322-1.69a1.336 1.336 0 00-.05-.63 3.065 3.065 0 00-.28-.629zm-23.761 2.403c-.01-.068-.04-.111-.084-.128a4.869 4.869 0 00-.17-.06c-.057 0-.116-.003-.178-.008a.76.76 0 00-.195.008c-.78 0-1.564.009-2.35.026s-1.575.025-2.367.025v-2.07c.69 0 1.374.003 2.053.009.679.005 1.369.008 2.07.008a.36.36 0 00.254-.152.652.652 0 00.154-.219 2.52 2.52 0 00.101-.497 5.3 5.3 0 000-1.214 2.518 2.518 0 00-.101-.498.584.584 0 00-.12-.118.675.675 0 00-.152-.067 17.64 17.64 0 00-1.035-.043 39.15 39.15 0 00-1.154 0l-1.111.017c-.357.006-.665.009-.925.009a9.33 9.33 0 00-.008-.882 15.94 15.94 0 01-.026-.883c.826 0 1.646.006 2.46.017s1.635.017 2.46.017c.193-.034.298-.133.315-.297.017-.164-.066-.28-.246-.347.022-.295.027-.586.017-.874-.012-.289-.017-.58-.017-.874.01-.147-.024-.263-.102-.348-.08-.085-.26-.127-.544-.127-1.538 0-3.07.017-4.597.05-.102 0-.283-.005-.543-.016l-.823-.034a8.388 8.388 0 00-.831.008c-.266.017-.456.049-.569.094-.124.045-.2.116-.229.212a.326.326 0 00.026.264c-.012.011-.017.028-.017.05.034.601.056 1.235.067 1.903.012.668.017 1.34.017 2.014v1.979c0 .646.017 1.24.051 1.784.023.6.037 1.203.043 1.81.006.605.008 1.208.008 1.809.012.124.054.215.127.272a.276.276 0 00.246.05c.012 0 .02.003.026.009a.037.037 0 00.025.008h5.362c.124 0 .308.006.552.017.242.012.497.017.762.017.266 0 .52-.011.764-.034.243-.022.422-.068.535-.136.056-.091.087-.185.093-.281s-.025-.185-.093-.265a7.49 7.49 0 000-2.014zm36.207-9.171c-.034-.086-.12-.128-.255-.128h-9.026c-.113 0-.21.068-.289.204a.75.75 0 00-.118.373v1.68a.8.8 0 00.11.348c.074.141.172.212.297.212.543 0 1.05-.006 1.519-.017l1.416-.034a99.705 99.705 0 00-.11 4.275c-.006 1.414-.008 2.868-.008 4.36 0 .068.03.13.093.187a.286.286 0 00.195.085h2.528c.102 0 .223-.04.365-.119.14-.079.212-.18.212-.305-.08-1.437-.139-2.836-.178-4.2-.04-1.362-.06-2.728-.06-4.096h3.173a.257.257 0 00.204-.102c.056-.068.084-.17.084-.306.068-.305.09-.616.068-.933-.023-.316-.045-.65-.068-1.001a5.819 5.819 0 00-.152-.483zm-70.02 3.961v.263c0 .085-.006.172-.017.263.249-.079.418-.192.509-.34l.084-.169a2.242 2.242 0 00-.28-.017h-.296z"/><path class="st2" d="M129.189 72.887a4.58 4.58 0 00-.45-.948 2.441 2.441 0 00-.704-.736c-.26-.17-.58-.32-.958-.45a8.804 8.804 0 00-1.205-.313 12.289 12.289 0 00-1.29-.168c-.435-.034-.84-.052-1.213-.052-.532 0-1.007.04-1.425.12a20.404 20.404 0 01-1.374.212.118.118 0 01-.05.008.326.326 0 00-.213.077.392.392 0 00-.127.229c0 .769.002 1.512.008 2.23a16863.1 16863.1 0 00.034 4.285c.006.724.009 1.464.009 2.222 0 .249-.003.492-.009.73s-.003.475.009.712c0 .09.005.226.017.407a3.06 3.06 0 010 .458c-.012.09.014.19.076.297.062.108.2.162.416.162l.746-.034a8.57 8.57 0 01.764 0c.124.01.251.022.381.034.13.01.257 0 .382-.034.113-.035.195-.126.246-.273.051-.148.082-.318.094-.511.022-.319.03-.597.025-.836a13.114 13.114 0 00-.034-.69 82.833 82.833 0 01-.05-.681 11.254 11.254 0 01-.026-.81l1.425-.067a9.742 9.742 0 001.357-.161c.441-.085.868-.22 1.281-.407.413-.186.8-.454 1.162-.804a2.268 2.268 0 00.713-1.117c.056-.192.096-.395.119-.61.022-.214.05-.44.084-.678a3.37 3.37 0 000-.83 4.561 4.561 0 00-.22-.973zm-3.292 1.635c-.023.163-.084.32-.186.466a1.223 1.223 0 01-.586.467 2.853 2.853 0 01-.738.161c-.09.011-.249.017-.475.017-.226 0-.384-.006-.475-.017a9.737 9.737 0 01.009-1.222 12.4 12.4 0 00.025-1.221c.204 0 .435-.003.696-.009.26-.005.509.015.746.06.238.045.447.13.628.254.181.125.3.311.356.56.023.159.023.32 0 .484zm28.724-4.081h-2.273l-.11.008a.97.97 0 00-.441.17.35.35 0 00-.145.213 61.966 61.966 0 00-.822 1.891c-.266.64-.58 1.23-.942 1.773l-2.41-3.919a.344.344 0 00-.27-.11.51.51 0 00-.272.093c-.475-.023-.91-.04-1.307-.051-.396-.011-.831 0-1.306.034-.136 0-.229.06-.28.178-.051.119-.06.223-.025.314v.11c0 .04.005.077.017.11.35.566.698 1.143 1.043 1.731a84.246 84.246 0 002.095 3.385c.35.538.707 1.032 1.07 1.485a14.85 14.85 0 00.016 1.883c.045.61.034 1.244-.034 1.9a.52.52 0 00.111.28c.074.107.185.161.333.161h2.557c.08 0 .148-.054.205-.161a.621.621 0 00.086-.28c0-.69-.029-1.326-.085-1.909-.057-.582-.125-1.219-.204-1.908l.017-.017a138.386 138.386 0 001.374-2.214c.272-.447.543-.902.815-1.366.271-.464.517-.905.738-1.324.22-.418.399-.794.534-1.128.136-.333.204-.585.204-.755a.552.552 0 000-.381c-.046-.13-.141-.196-.289-.196zm-12.928 2.446a4.58 4.58 0 00-.45-.948 2.441 2.441 0 00-.704-.736c-.26-.17-.58-.32-.958-.45a8.804 8.804 0 00-1.205-.313 12.289 12.289 0 00-1.29-.168c-.435-.034-.84-.052-1.213-.052-.531 0-1.006.04-1.425.12a20.403 20.403 0 01-1.374.212.118.118 0 01-.05.008c-.08 0-.15.026-.213.077a.392.392 0 00-.127.229c0 .769.003 1.512.008 2.23a18962.545 18962.545 0 00.034 4.285c.006.724.009 1.464.009 2.222 0 .249-.003.492-.009.73a9.96 9.96 0 00.009.712c0 .09.005.226.017.407a3.06 3.06 0 010 .458c-.012.09.014.19.076.297.062.108.201.162.416.162l.746-.034a8.11 8.11 0 01.764 0c.124.01.252.022.381.034.13.01.258 0 .382-.034.113-.035.195-.126.246-.273.051-.148.082-.318.094-.511.022-.319.03-.597.025-.836a13.092 13.092 0 00-.034-.69 186.42 186.42 0 01-.05-.681 11.26 11.26 0 01-.026-.81l1.425-.067a9.741 9.741 0 001.357-.161c.441-.085.868-.22 1.281-.407.413-.186.8-.454 1.162-.804a2.267 2.267 0 00.713-1.117 3.47 3.47 0 00.119-.61c.022-.214.05-.44.084-.678a3.371 3.371 0 000-.83 4.558 4.558 0 00-.22-.973zm-3.292 1.635c-.022.163-.084.32-.186.466a1.223 1.223 0 01-.586.467 2.853 2.853 0 01-.738.161c-.09.011-.249.017-.475.017-.226 0-.384-.006-.475-.017a9.739 9.739 0 01.009-1.222c.028-.396.037-.803.025-1.221.204 0 .436-.003.696-.009.26-.005.509.015.746.06.238.045.447.13.628.254.181.125.3.311.356.56.023.159.023.32 0 .484zm93.332 6.76a4.954 4.954 0 01-.594-.85c-.17-.306-.33-.617-.483-.934a38.126 38.126 0 00-.475-.952 7.07 7.07 0 00-.569-.918c.374-.17.69-.39.95-.662s.467-.57.62-.892a3.75 3.75 0 00.314-1.037 5.29 5.29 0 00.05-1.112 2.52 2.52 0 00-.313-1.096 6.249 6.249 0 00-.755-1.045 4.051 4.051 0 00-.908-.74 5.846 5.846 0 00-1.06-.492 6.596 6.596 0 00-1.146-.288 9.06 9.06 0 00-1.162-.112 21.196 21.196 0 00-1.79.009 8.194 8.194 0 00-1.705.28c-.125.046-.195.125-.212.239s.003.22.06.322c0 1.824-.007 3.617-.018 5.378a218.398 218.398 0 01-.102 5.377c0 .148.063.247.187.298a.377.377 0 00.34-.009h.033c.215 0 .405.006.569.017.164.011.322.02.475.026.152.005.31.002.475-.009.164-.011.353-.034.568-.068a.9.9 0 00.399-.119.684.684 0 00.314-.288c0-.567-.003-1.136-.008-1.708a18.028 18.028 0 00-.094-1.673c.136-.023.283-.032.441-.027.159.007.305.009.442.009.146.272.276.504.39.697a25.527 25.527 0 01.534.951c.073.136.15.272.229.408.18.295.359.612.535.952.175.34.37.594.584.764.046.046.198.074.46.085.259.011.544.014.856.009a24.997 24.997 0 001.552-.077 1.41 1.41 0 00.11-.331.496.496 0 00-.076-.382h-.017zm-3.953-6.268c-.159.163-.35.28-.577.348a2.572 2.572 0 01-.738.101h-.704a5.04 5.04 0 00.042-1.11 20.932 20.932 0 01-.059-1.112c.237 0 .492.002.763.008.272.006.518.037.739.094.22.056.404.155.551.296.147.142.22.348.22.62 0 .34-.079.59-.237.755zm-125.83 5.828a8.39 8.39 0 010-.56c.005-.181.008-.35.008-.51v-2.536c0-.57-.003-1.179-.008-1.824l-.017-1.849-.017-1.603a95.57 95.57 0 01-.009-1.111c0-.16-.014-.28-.042-.365s-.074-.15-.136-.195a.445.445 0 00-.237-.077 6.426 6.426 0 00-.365-.009h-.373c-.159 0-.326-.002-.5-.008-.176-.006-.36-.009-.552-.009a8.28 8.28 0 00-.526.017c-.193.023-.311.1-.357.23-.045.13-.011.24.102.33a129.882 129.882 0 01.068 3.988c-.61 0-1.185.005-1.722.017s-1.111.017-1.722.017a58.656 58.656 0 00-.102-1.968 19.273 19.273 0 01-.034-1.985c.011-.012.017-.023.017-.034.045-.136.028-.252-.05-.348-.08-.096-.199-.127-.357-.093-.43 0-.86-.003-1.29-.009-.43-.006-.865-.008-1.306-.008a.48.48 0 00-.305.127.518.518 0 00-.187.297c.023 1.889.07 3.766.144 5.632.074 1.867.122 3.739.145 5.616-.057.09-.06.19-.009.297.051.107.155.173.314.195l2.24-.034c.214-.034.367-.076.458-.127a.377.377 0 00.178-.187.66.66 0 00.034-.271 2.11 2.11 0 01.025-.399 6.39 6.39 0 00.051-.857c0-.322-.006-.653-.017-.992l-.034-1.018c-.011-.34-.017-.656-.017-.95h3.275c.01.77.013 1.527.008 2.273-.006.747.014 1.493.06 2.24a.382.382 0 00.11.254c.061.057.138.097.229.12s.186.03.288.025c.102-.006.198-.009.289-.009a19.306 19.306 0 001.883-.102 1.04 1.04 0 00.39-.16c.102-.074.141-.225.119-.45a1.614 1.614 0 01-.11-.467 8.233 8.233 0 01-.034-.551z"/><path class="st2" d="M227.092 74.649a.283.283 0 01.009.068v.136a.826.826 0 00.34-.272h-.357c0 .023.003.045.008.068zm-8.084 5.074c-.011-.068-.04-.111-.084-.128a4.869 4.869 0 00-.17-.06c-.057 0-.116-.003-.178-.008a.76.76 0 00-.195.008c-.78 0-1.564.009-2.35.026s-1.575.025-2.367.025v-2.07c.69 0 1.374.003 2.053.009.679.005 1.369.008 2.07.008a.36.36 0 00.254-.152.652.652 0 00.153-.219 2.52 2.52 0 00.102-.497 5.3 5.3 0 000-1.214 2.518 2.518 0 00-.102-.498.584.584 0 00-.119-.118.675.675 0 00-.152-.067 17.64 17.64 0 00-1.035-.043 39.15 39.15 0 00-1.154 0l-1.111.017c-.357.006-.665.009-.925.009a9.41 9.41 0 00-.008-.882 15.94 15.94 0 01-.026-.883c.826 0 1.646.006 2.46.017.815.011 1.635.017 2.46.017.193-.034.297-.133.314-.297.017-.164-.065-.28-.246-.347a7.53 7.53 0 00.017-.874c-.01-.289-.017-.58-.017-.874.011-.147-.023-.263-.102-.348-.079-.085-.26-.127-.543-.127-1.538 0-3.07.017-4.597.05-.102 0-.283-.005-.543-.016l-.823-.034a8.388 8.388 0 00-.831.008c-.267.017-.456.049-.569.094-.124.045-.201.116-.229.212a.326.326 0 00.026.264c-.012.011-.017.028-.017.05.034.601.056 1.235.067 1.903.012.668.017 1.34.017 2.014v1.979c0 .646.017 1.24.051 1.784.023.6.037 1.203.043 1.81.005.605.008 1.208.008 1.809.012.124.054.215.127.272a.276.276 0 00.246.05c.012 0 .02.003.026.009.005.005.014.008.025.008h5.362c.124 0 .308.006.551.017.243.012.498.017.763.017.266 0 .52-.011.764-.034.243-.022.422-.068.534-.136a.592.592 0 00.094-.281.364.364 0 00-.094-.265 7.49 7.49 0 000-2.014zm-101.916 1.916a96.015 96.015 0 01-1.833-4.216 307.717 307.717 0 01-1.696-4.267l-.144-.458a21.707 21.707 0 00-.306-.9 12.956 12.956 0 00-.373-.924c-.13-.288-.246-.467-.348-.534-.022 0-.04-.003-.05-.009s-.029-.008-.052-.008l-.118-.051h-1.196c-.22 0-.442.002-.662.008s-.421.02-.602.043a.439.439 0 00-.28.025c-.096.04-.156.121-.178.246a97.087 97.087 0 01-1.214 3.147 56.775 56.775 0 00-1.179 3.181c-.17.408-.359.817-.568 1.23-.21.413-.41.826-.602 1.239-.193.413-.368.831-.526 1.255a7.483 7.483 0 00-.357 1.298v.034c0 .012.006.017.017.017a.26.26 0 00.026.212.35.35 0 00.195.162c.396.135.826.197 1.29.186.463-.011.899-.022 1.306-.034.124-.011.237-.022.34-.034.1-.011.163-.096.186-.254v-.102c.034-.17.144-.444.33-.823.187-.379.371-.857.552-1.433.69 0 1.363-.003 2.019-.009.656-.005 1.323-.008 2.002-.008.113.328.232.684.356 1.068.125.385.238.713.34.984a.335.335 0 00.042.263c.051.085.144.139.28.162.509 0 .984-.004 1.425-.009.442-.006.91-.008 1.409-.008a.369.369 0 00.297-.297c.039-.164-.004-.286-.128-.365v-.017zm-7.38-4.615a5.43 5.43 0 01.22-.73c.09-.237.19-.477.297-.72.108-.244.218-.5.33-.772.114-.272.227-.572.34-.9.227.588.45 1.12.67 1.595.22.475.41.967.569 1.476l-2.426.051z"/><path class="st0" d="M103.264 81.503c0-.09.003-.18.009-.271a4.91 4.91 0 00.008-.272v-4.224c0-.51-.003-1.021-.008-1.536a946 946 0 00-.034-2.672c-.006-.362-.008-.65-.008-.866-.012-.43-.08-.729-.204-.898a1.999 1.999 0 00-.17-.187c-.08-.08-.16-.164-.246-.254s-.17-.176-.254-.255a7.927 7.927 0 01-.178-.17.62.62 0 00-.4-.187 4.133 4.133 0 00-.67-.017h-.678c-.203 0-.421-.002-.653-.008a8.203 8.203 0 00-.636.008 1.144 1.144 0 00-.5.162.8.8 0 00-.29.313.743.743 0 00-.076.4.77.77 0 00.153.398c.023.611.04 1.174.051 1.688.011.515.017 1.05.017 1.604h-.373c-.091 0-.178.002-.263.008a3.946 3.946 0 01-.263.009h-.34a1.291 1.291 0 01-.212.017h-.229a.534.534 0 00-.008-.085.618.618 0 01-.009-.102c-.023-.418-.042-.82-.059-1.205-.017-.384-.02-.78-.008-1.187.101-.283.078-.527-.068-.73a2.23 2.23 0 00-.424-.441 2.426 2.426 0 01-.442-.458c-.192-.226-.475-.3-.848-.22-.17 0-.373-.003-.61-.009s-.436-.009-.594-.009c-.216-.01-.442-.017-.68-.017h-.695a1.396 1.396 0 00-.619.298.816.816 0 00-.314.567v.085a231.699 231.699 0 00.135 5.65c.035.928.066 1.841.094 2.74.028.9.048 1.807.06 2.723a.85.85 0 00.017.645.842.842 0 00.17.23 14.07 14.07 0 00.61.61c.102.096.18.167.238.212a.894.894 0 00.509.238l2.34-.034c.283-.057.504-.116.662-.178a.877.877 0 00.348-.221.532.532 0 00.128-.305c.01-.12.016-.263.016-.433v-.119c0-.045.006-.102.017-.17a9.067 9.067 0 00.043-1.705 23.42 23.42 0 01-.06-1.67h1.46c0 .554.002 1.097.008 1.628.005.532.026 1.063.06 1.595.01.17.044.305.101.407.023.045.085.124.187.238a11.087 11.087 0 00.695.678c.114.102.187.164.221.187.158.102.334.158.526.17.192.01.368.01.526 0a18.048 18.048 0 00.9-.033c.169-.013.338-.024.508-.035l.458-.034c.158-.034.302-.074.433-.12a.942.942 0 00.34-.203.745.745 0 00.203-.356c.04-.147.053-.334.042-.56a1.877 1.877 0 01-.136-.509 4.367 4.367 0 01-.034-.543zm-1.289.806a1.04 1.04 0 01-.39.161c-.317.034-.656.06-1.018.077s-.65.025-.865.025c-.091 0-.187.003-.289.009-.102.005-.198-.003-.288-.026s-.168-.062-.23-.119a.382.382 0 01-.11-.254 32.45 32.45 0 01-.059-2.24c.005-.746.002-1.504-.008-2.273h-3.275c0 .294.006.61.017.95.01.34.022.679.034 1.018.01.34.017.67.017.992 0 .323-.017.608-.05.857a2.11 2.11 0 00-.026.399.66.66 0 01-.034.271.377.377 0 01-.178.187c-.091.05-.244.093-.458.127l-2.24.034c-.159-.022-.263-.088-.314-.195-.05-.107-.048-.207.009-.297-.023-1.877-.071-3.75-.145-5.616a205.14 205.14 0 01-.144-5.632.518.518 0 01.187-.297.48.48 0 01.305-.127c.441 0 .876.002 1.307.008.43.006.859.009 1.289.009.158-.034.277-.003.356.093.079.096.096.212.051.348 0 .01-.006.022-.017.034-.023.667-.011 1.329.034 1.985.045.655.079 1.312.102 1.968.61 0 1.184-.006 1.722-.017s1.111-.017 1.722-.017a119.89 119.89 0 00-.068-3.987c-.113-.09-.147-.201-.102-.331.046-.13.164-.207.357-.23a8.28 8.28 0 01.526-.017c.192 0 .376.003.551.009.175.006.342.009.5.009h.374c.147 0 .268.002.365.008a.445.445 0 01.237.077c.062.045.107.11.136.195s.042.206.042.365c0 .26.003.63.009 1.11l.017 1.604c.005.588.01 1.205.017 1.85.005.644.008 1.252.008 1.823v2.536c0 .16-.003.329-.008.51a8.39 8.39 0 000 .56c.005.192.017.376.034.55.017.176.053.332.11.468.022.225-.017.376-.119.45zm14.557-4.275c-.554-1.386-1.114-2.791-1.68-4.216l-.017-.068a12.244 12.244 0 00-.543-1.587 8 8 0 00-.449-.907c-.164-.283-.331-.481-.5-.595a6.695 6.695 0 01-.501-.516 1.976 1.976 0 00-.314-.314l-.187-.068h-1.976c-.22 0-.433.01-.636.034a.703.703 0 00-.569.118c-.186.125-.314.317-.382.577-.158.43-.316.849-.475 1.256-.158.407-.328.825-.509 1.255-.249.622-.492 1.247-.73 1.875a57.89 57.89 0 00-.678 1.892v-.034c-.113.271-.226.531-.34.78-.112.249-.237.503-.372.764a68.707 68.707 0 00-.815 1.756 7.299 7.299 0 00-.543 1.824c0 .033.003.067.009.101a.476.476 0 01.008.085c0 .158.04.3.12.424.044.079.12.178.228.297a8.788 8.788 0 00.713.687c.119.102.212.17.28.204l.034.017c.26.09.528.147.806.17.276.022.545.033.805.033h.365c.142 0 .27-.005.382-.016.08 0 .147-.004.203-.009.057-.006.125-.008.204-.008h.102c.215 0 .41-.034.585-.102.176-.068.286-.277.331-.628v-.102c.011.023.037-.03.076-.16.04-.131.083-.253.128-.366.09-.192.184-.396.28-.61a12.6 12.6 0 00.28-.68h.458c.135 0 .263-.002.381-.008.12-.005.24-.008.365-.008h1.527l.255.797c0 .226.073.419.22.577.113.113.218.215.314.306.096.09.195.178.297.262.102.085.215.17.34.255.124.085.265.178.423.28h1.493c.227 0 .464-.003.713-.009.249-.005.498-.008.747-.008a.75.75 0 00.399-.22.99.99 0 00.229-.382c.044-.142.061-.286.05-.433a.768.768 0 00-.135-.39 90.835 90.835 0 01-1.799-4.182zm.39 4.284c-.498 0-.966.002-1.408.008-.441.005-.916.009-1.425.009-.135-.023-.229-.077-.28-.162a.335.335 0 01-.043-.263 24.83 24.83 0 01-.339-.984c-.124-.384-.243-.74-.356-1.068-.679 0-1.346.003-2.002.008-.656.006-1.33.009-2.02.009a10.27 10.27 0 01-.55 1.433c-.187.38-.297.653-.331.823v.102c-.023.158-.085.243-.187.254-.102.012-.215.023-.34.034-.406.012-.842.023-1.306.034a3.692 3.692 0 01-1.29-.186.35.35 0 01-.194-.162.26.26 0 01-.026-.212c-.011 0-.017-.005-.017-.017v-.034c.08-.44.198-.873.357-1.298.158-.424.333-.842.526-1.255.192-.413.393-.826.602-1.239.209-.413.399-.822.568-1.23a56.78 56.78 0 011.18-3.18 97.119 97.119 0 001.213-3.148c.022-.125.082-.206.178-.246a.439.439 0 01.28-.025c.18-.023.381-.037.602-.043s.441-.008.662-.008h1.196l.118.05c.023 0 .04.003.051.009s.029.009.051.009c.103.067.218.246.349.534.13.288.254.596.372.925.12.328.221.627.306.899l.144.458c.554 1.425 1.12 2.847 1.696 4.267a95.997 95.997 0 001.833 4.216v.017c.124.08.167.2.128.365a.369.369 0 01-.297.297z"/><path class="st0" d="M110.9 73.902a16.34 16.34 0 01-.34.9c-.113.271-.223.528-.33.772a14.39 14.39 0 00-.298.72 5.43 5.43 0 00-.22.73l2.426-.05a11.948 11.948 0 00-.569-1.477 25.75 25.75 0 01-.67-1.595zm14.641-.424a1.643 1.643 0 00-.628-.254 3.637 3.637 0 00-.746-.06c-.26.006-.492.009-.696.009.011.418.003.825-.025 1.221a9.739 9.739 0 00-.009 1.222c.09.011.249.017.475.017.226 0 .384-.006.475-.017a2.87 2.87 0 00.738-.161c.232-.085.427-.24.586-.467.102-.147.163-.303.186-.466s.023-.325 0-.484a.887.887 0 00-.356-.56zm-.254 1.222c-.091.147-.26.26-.51.34.011-.092.018-.179.018-.264v-.263h.297c.095 0 .189.006.28.017l-.085.17z"/><path class="st0" d="M130.156 72.845a3.638 3.638 0 00-.348-.508 11.644 11.644 0 00-.492-.576 9.873 9.873 0 00-.534-.542 5.918 5.918 0 00-.475-.406 4.692 4.692 0 00-1.027-.475A10.422 10.422 0 00126 70c-.453-.09-.908-.158-1.367-.202a12.715 12.715 0 00-1.264-.069c-.396 0-.75.02-1.06.06-.311.04-.614.087-.908.144l-.797.135a3.328 3.328 0 00-.594.204c-.17.079-.283.254-.34.525v1.483c0 .48.003.963.009 1.449l.017 1.432c.006.469.009.912.009 1.33 0 .509.002 1.02.008 1.533.006.515.009 1.043.009 1.585 0 .395-.003.712-.009.95-.006.236-.003.496.009.779.01.09.02.186.025.288a.988.988 0 01-.008.236.934.934 0 00.008.28.77.77 0 00.11.28c.023.045.082.118.179.22a16.243 16.243 0 00.661.661 4.5 4.5 0 00.246.22 1.04 1.04 0 00.628.187c.316 0 .588-.009.814-.026a9.05 9.05 0 01.68-.025c.157 0 .307.011.449.034a.9.9 0 00.45-.051c.248-.068.423-.218.525-.45s.164-.495.187-.789a10.036 10.036 0 00.034-.763c0-.192-.006-.379-.017-.56l-.034-.543-.068-.678c.464-.012.922-.034 1.374-.068a8.326 8.326 0 001.315-.203 5.762 5.762 0 001.23-.45 4.65 4.65 0 001.154-.838h-.017a3.37 3.37 0 00.492-.567c.124-.186.22-.379.288-.576a3.78 3.78 0 00.153-.593l.102-.601.05-.356c.046-.35.023-.779-.067-1.287-.091-.508-.26-1-.51-1.474zm-.747 1.846a17.24 17.24 0 00-.084.677 3.47 3.47 0 01-.12.61c-.056.191-.138.38-.245.567-.108.186-.263.37-.467.55-.362.35-.75.618-1.162.804-.413.187-.84.322-1.28.407a9.739 9.739 0 01-1.358.16l-1.425.068c0 .307.008.577.025.81l.051.682a9.423 9.423 0 01.009 1.525 1.934 1.934 0 01-.094.511c-.05.147-.133.238-.246.273a1.092 1.092 0 01-.382.034l-.381-.034a8.57 8.57 0 00-.764 0c-.249.01-.498.022-.746.034-.215 0-.354-.054-.416-.162a.477.477 0 01-.076-.297 3.06 3.06 0 000-.458 7.108 7.108 0 01-.017-.407c-.012-.237-.015-.475-.009-.712s.009-.48.009-.73c0-.758-.003-1.498-.009-2.222a11388.897 11388.897 0 00-.034-4.284c-.006-.719-.008-1.462-.008-2.231a.393.393 0 01.127-.23.324.324 0 01.212-.076c.023 0 .04-.003.051-.008a20.404 20.404 0 001.374-.212c.418-.08.893-.12 1.425-.12.374 0 .778.018 1.214.052.435.034.865.09 1.289.168.424.08.826.184 1.205.314.378.13.698.28.958.449.283.191.518.437.704.736a4.622 4.622 0 01.67 1.922 3.37 3.37 0 010 .83zm13.251-1.846a3.64 3.64 0 00-.347-.508 11.634 11.634 0 00-.493-.576 9.87 9.87 0 00-.534-.542 5.915 5.915 0 00-.475-.406 4.692 4.692 0 00-1.027-.475 10.422 10.422 0 00-1.28-.339c-.453-.09-.908-.158-1.367-.202a12.715 12.715 0 00-1.264-.069c-.395 0-.749.02-1.06.06-.31.04-.614.087-.908.144l-.797.135c-.226.057-.424.125-.594.204s-.283.254-.34.525v1.484c0 .48.004.963.01 1.449l.016 1.432c.006.469.009.912.009 1.33 0 .509.003 1.02.008 1.533.006.515.009 1.043.009 1.585 0 .395-.003.712-.009.95-.005.236-.003.496.009.779.011.09.02.186.025.288a.987.987 0 01-.008.236.934.934 0 00.008.28.77.77 0 00.11.28c.023.045.082.118.179.22a16.216 16.216 0 00.661.661 4.5 4.5 0 00.246.22 1.04 1.04 0 00.628.187c.317 0 .588-.009.814-.026.226-.017.453-.025.68-.025.157 0 .307.011.449.034a.9.9 0 00.45-.051.766.766 0 00.525-.45c.102-.232.164-.495.187-.789a10.017 10.017 0 00.034-.763c0-.192-.006-.379-.017-.56l-.034-.543-.068-.678c.464-.012.922-.034 1.374-.068s.891-.102 1.315-.203a5.762 5.762 0 001.23-.45 4.65 4.65 0 001.154-.838h-.017a3.37 3.37 0 00.492-.567c.125-.186.22-.379.288-.576a3.78 3.78 0 00.153-.593l.102-.601.05-.356c.046-.35.024-.779-.067-1.287-.09-.508-.26-1-.509-1.474zm-.747 1.846c-.034.236-.062.463-.084.677a3.47 3.47 0 01-.119.61 2.267 2.267 0 01-.713 1.117c-.362.35-.749.618-1.162.804-.413.187-.84.322-1.28.407a9.739 9.739 0 01-1.358.16l-1.425.068c0 .307.008.577.025.81l.051.682c.017.221.028.451.034.69.006.238-.003.516-.025.835a1.933 1.933 0 01-.094.511c-.05.147-.133.238-.246.273a1.096 1.096 0 01-.382.034l-.381-.034a8.571 8.571 0 00-.764 0c-.249.01-.497.022-.746.034-.215 0-.354-.054-.416-.162a.477.477 0 01-.076-.297 3.06 3.06 0 000-.458 7.108 7.108 0 01-.017-.407 9.96 9.96 0 01-.009-.712c.006-.238.009-.48.009-.73 0-.758-.003-1.498-.009-2.222a11395.595 11395.595 0 00-.034-4.284c-.005-.719-.008-1.462-.008-2.231a.393.393 0 01.127-.23.324.324 0 01.212-.076c.023 0 .04-.003.051-.008a20.403 20.403 0 001.374-.212c.419-.08.894-.12 1.425-.12.374 0 .778.018 1.214.052.435.034.865.09 1.289.168.424.08.826.184 1.205.314.379.13.698.28.958.449.283.191.518.437.704.736.187.3.337.616.45.948.113.334.186.658.22.974.034.316.034.593 0 .83z"/><path class="st0" d="M138.045 73.478a1.643 1.643 0 00-.628-.254 3.637 3.637 0 00-.746-.06c-.26.006-.492.009-.696.009a12.4 12.4 0 01-.025 1.221 9.739 9.739 0 00-.009 1.222c.091.011.25.017.475.017.226 0 .385-.006.475-.017a2.86 2.86 0 00.738-.161c.232-.085.427-.24.586-.467.102-.147.164-.303.186-.466s.023-.325 0-.484a.887.887 0 00-.356-.56zm-.254 1.222c-.09.147-.26.26-.51.34.012-.092.018-.179.018-.264v-.263h.297c.096 0 .19.006.28.017l-.085.17zm18.256-3.665a9.59 9.59 0 00-.425-.432 37.99 37.99 0 01-.44-.434.76.76 0 00-.56-.22h-2.274c-.012 0-.07.006-.178.017a1.379 1.379 0 00-.356.094c-.13.05-.258.121-.382.212a.599.599 0 00-.238.373c-.203.475-.398.925-.585 1.349-.187.424-.376.84-.568 1.247l-1.29-2.12-.135-.103a2.272 2.272 0 01-.162-.135 4.042 4.042 0 01-.22-.222 9.6 9.6 0 01-.314-.355 1.173 1.173 0 00-.56-.315.79.79 0 00-.526.06 9.49 9.49 0 00-.746-.034h-1.248a4.12 4.12 0 00-.552.034c-.283.023-.492.144-.628.364a.848.848 0 00-.119.671v.136c0 .045.012.096.035.153l.067.152c.204.328.408.664.611 1.01.203.345.407.687.611 1.026v-.017c.486.815.964 1.598 1.434 2.35.469.752.952 1.456 1.45 2.112-.011.69 0 1.324.034 1.9.034.577.023 1.149-.034 1.714a.946.946 0 00.22.577c.046.068.111.147.196.237a12.147 12.147 0 00.806.78.813.813 0 00.543.187h2.545c.101 0 .2-.034.297-.101.095-.068.178-.15.246-.246a1.66 1.66 0 00.17-.306.754.754 0 00.067-.28c0-.09-.003-.237-.008-.44a45.552 45.552 0 00-.068-1.502 91.852 91.852 0 00-.051-.78 7.093 7.093 0 00-.068-.628 2.065 2.065 0 00-.076-.348l.644-1.01a66.36 66.36 0 001.587-2.621c.265-.464.502-.902.712-1.315.21-.413.379-.789.51-1.128.129-.34.2-.611.211-.814a1.005 1.005 0 000-.45.97.97 0 00-.186-.399zm-1.137-.017c0 .17-.068.422-.204.755-.135.334-.314.71-.534 1.128-.22.419-.467.86-.738 1.324-.272.464-.543.919-.815 1.366a138.386 138.386 0 01-1.374 2.214l-.017.017c.079.69.147 1.326.204 1.908a19.8 19.8 0 01.085 1.909c0 .08-.03.173-.086.28-.057.107-.125.161-.205.161h-2.557c-.148 0-.26-.054-.333-.161a.517.517 0 01-.11-.28c.067-.656.078-1.29.033-1.9a14.849 14.849 0 01-.017-1.883 18.943 18.943 0 01-1.069-1.485 84.246 84.246 0 01-2.095-3.385 86.312 86.312 0 00-1.043-1.73.345.345 0 01-.017-.111v-.11c-.034-.09-.026-.195.025-.314.051-.118.144-.178.28-.178.475-.034.91-.045 1.306-.034.396.011.832.028 1.307.051a.51.51 0 01.271-.093.344.344 0 01.272.11l2.409 3.92a10.42 10.42 0 00.942-1.774c.265-.639.54-1.27.822-1.891a.35.35 0 01.145-.212.969.969 0 01.551-.179h2.273c.148 0 .243.065.289.196a.552.552 0 010 .381zm17.594 10.553a7.614 7.614 0 00-.068-1.069c-.011-.192-.062-.333-.152-.424l-.196-.195c-.084-.085-.17-.173-.255-.263a4.787 4.787 0 00-.432-.407.406.406 0 00-.204-.11 7.42 7.42 0 01-.254-.06h-.204c-.022 0-.053.003-.093.009s-.077.008-.11.008h-.136l.085-.017a90.462 90.462 0 00-2.376.034c-.18.012-.353.017-.517.017h-.5v-.237h1.56c.34 0 .693.003 1.061.008.367.006.727.009 1.078.009.112-.023.22-.063.321-.12a.705.705 0 00.238-.203.796.796 0 00.136-.178c.034-.062.073-.139.118-.23a2.13 2.13 0 00.12-.542 6.83 6.83 0 00-.009-1.425 3.104 3.104 0 00-.128-.61 1.66 1.66 0 00-.22-.484c-.09-.13-.192-.24-.306-.331a1.803 1.803 0 00-.373-.23 14.104 14.104 0 00-.407-.177h1.323a.917.917 0 00.467-.212c.119-.108.2-.23.246-.365a.804.804 0 00-.203-.815 1.07 1.07 0 00.008-.212 1.7 1.7 0 01-.009-.229c0-.079-.002-.155-.008-.229-.006-.074-.009-.155-.009-.246s-.002-.172-.008-.246a3.217 3.217 0 01-.009-.246c.091-.294.023-.554-.203-.78a16.966 16.966 0 01-.424-.441 4.209 4.209 0 00-.475-.441 1.021 1.021 0 00-.424-.238c-.78 0-1.62.003-2.52.008-.9.006-1.745.02-2.536.042h-.204c-.09 0-.17-.005-.237-.017-.159-.01-.351-.019-.577-.025a28.756 28.756 0 00-.645-.008c-.26 0-.506.008-.738.025-.232.017-.41.054-.534.11h.016c-.249.103-.412.246-.492.433a.945.945 0 00-.067.552v.051c.045.644.07 1.317.076 2.019.005.7.008 1.408.008 2.12 0 .634.003 1.253.009 1.858.005.606.02 1.162.042 1.671a42.011 42.011 0 01.068 2.376c0 .192-.003.401-.008.627a24.35 24.35 0 00-.009.645.813.813 0 00.22.509c.193.215.413.421.662.62s.487.352.713.466c.034.022.062.03.085.025s.05-.008.085-.008h5.36c.046 0 .1.003.162.008.062.006.139.009.23.009h.763c.328 0 .659-.017.992-.051.334-.034.602-.114.806-.238.271-.362.328-.707.17-1.035.034-.271.051-.56.051-.865zm-1.392.712c-.112.068-.29.114-.534.136a8.231 8.231 0 01-.764.034c-.265 0-.52-.005-.762-.017a12.92 12.92 0 00-.552-.017h-5.362c-.011 0-.02-.003-.025-.008-.006-.006-.014-.009-.026-.009a.276.276 0 01-.246-.05c-.073-.058-.115-.148-.127-.272 0-.6-.002-1.204-.008-1.81a63.835 63.835 0 00-.043-1.81 28.694 28.694 0 01-.05-1.783v-1.98c0-.673-.006-1.345-.018-2.013a48.261 48.261 0 00-.067-1.903c0-.022.005-.04.017-.05a.326.326 0 01-.026-.264c.028-.096.105-.167.23-.213.112-.044.301-.076.568-.093a8.43 8.43 0 01.83-.009l.824.034c.26.012.44.017.543.017a206.45 206.45 0 014.597-.05c.283 0 .464.042.543.127.08.085.113.2.103.348 0 .294.005.585.017.873.01.289.005.58-.017.875.18.067.263.183.246.347-.017.164-.122.263-.315.297-.825 0-1.645-.006-2.46-.017s-1.634-.017-2.46-.017c0 .283.009.577.026.883.017.305.02.599.008.882.26 0 .568-.003.925-.009l1.11-.017c.386-.006.77-.006 1.155 0 .384.006.73.02 1.035.043a.675.675 0 01.152.067.584.584 0 01.12.118c.044.135.078.3.1.498a5.3 5.3 0 010 1.214 2.518 2.518 0 01-.1.497.651.651 0 01-.154.22.36.36 0 01-.254.151c-.701 0-1.391-.003-2.07-.008a245.63 245.63 0 00-2.053-.009v2.07c.792 0 1.58-.008 2.367-.025.786-.017 1.57-.026 2.35-.026a.76.76 0 01.195-.008c.062.005.121.008.178.008.068.023.125.043.17.06.045.017.073.06.084.128a7.463 7.463 0 010 2.014c.068.08.1.168.094.264s-.037.19-.094.282zm8.212-8.381c-.113.328-.226.628-.34.9-.112.271-.223.528-.33.772a14.39 14.39 0 00-.297.72 5.43 5.43 0 00-.22.73l2.426-.05a11.95 11.95 0 00-.569-1.477 25.732 25.732 0 01-.67-1.595z"/><path class="st0" d="M195.747 77.347a6.406 6.406 0 00-.72-.823 27.386 27.386 0 00-.688-.637 4.392 4.392 0 00-.62-.432 7.77 7.77 0 00-.992-.5l-.916-.357-.424-.136a1.57 1.57 0 01.356-.068c.136-.01.266-.016.39-.016h.204c.294 0 .571.036.831.11.26.073.481.172.662.297.102.09.212.144.33.16a.74.74 0 00.366-.042 1.02 1.02 0 00.356-.229c.113-.107.209-.246.288-.415a4.79 4.79 0 01.23-.874 4.53 4.53 0 01.347-.721c0-.011.003-.023.009-.034a.076.076 0 00.008-.034l.017-.034c.136-.158.204-.345.204-.56s-.09-.407-.272-.577a31.473 31.473 0 01-.44-.45 8.31 8.31 0 00-.408-.398 1.724 1.724 0 00-.373-.237 5.688 5.688 0 00-1.536-.569 7.781 7.781 0 00-2.858-.085 5.492 5.492 0 00-1.07.28l.035-.017a3.728 3.728 0 00-1.137.577 4.05 4.05 0 00-1.485 2.155c-.13.452-.178.927-.144 1.425.102.588.283 1.092.543 1.51.09.158.218.33.382.518a14.55 14.55 0 001.078 1.085c.18.165.338.291.474.382.328.226.676.416 1.044.568.367.153.732.303 1.094.45l.746.288a.475.475 0 01-.28.17 1.71 1.71 0 01-.432.05 2.96 2.96 0 01-.806-.007 7.367 7.367 0 01-1.697-.467c-.277-.113-.54-.226-.789-.34-.158 0-.311.023-.458.068a.99.99 0 00-.373.204.601.601 0 00-.195.33c-.028.131-.008.287.06.467a2.385 2.385 0 01-.12.645 5.567 5.567 0 01-.237.594l-.119.288.017-.017c-.012.028-.016.056-.026.083a89.84 89.84 0 01-1.246-2.941c-.555-1.386-1.114-2.791-1.68-4.216l-.017-.068a12.234 12.234 0 00-.543-1.587 8 8 0 00-.45-.907c-.163-.283-.33-.481-.5-.594a6.693 6.693 0 01-.5-.517 1.976 1.976 0 00-.314-.314l-.187-.068h-1.976c-.22 0-.433.01-.636.034a.703.703 0 00-.569.118c-.186.125-.314.317-.382.577-.158.43-.316.849-.475 1.256-.158.407-.328.825-.509 1.255-.249.622-.492 1.247-.73 1.875a57.891 57.891 0 00-.678 1.892v-.034c-.113.271-.226.531-.34.78-.112.249-.237.504-.372.764a68.673 68.673 0 00-.815 1.756 7.299 7.299 0 00-.543 1.824c0 .033.003.067.008.101a.475.475 0 01.009.085c0 .158.04.3.119.424.045.079.121.178.229.297a7.557 7.557 0 00.713.687c.119.102.211.17.28.204l.034.017c.26.09.528.147.806.17.276.022.545.033.805.033h.365c.141 0 .269-.005.382-.016.079 0 .146-.004.203-.009.057-.006.125-.008.204-.008H177c.214 0 .41-.034.585-.102.175-.068.286-.277.331-.628v-.102c.01.023.036-.03.076-.16.04-.131.082-.253.128-.366.09-.192.183-.396.28-.61.095-.215.189-.442.28-.68h.458c.135 0 .263-.002.381-.008.12-.005.24-.008.365-.008h1.527l.255.797c0 .226.073.419.22.577.113.113.218.215.314.306.096.09.195.178.297.262.102.085.214.17.34.255.123.085.264.178.423.28h1.493c.226 0 .464-.003.713-.009s.497-.008.746-.008a.75.75 0 00.4-.22.99.99 0 00.228-.382c.045-.142.062-.286.051-.433a.82.82 0 00-.034-.17c.202.162.4.333.594.526.554.192 1.187.359 1.9.5.713.142 1.425.213 2.138.213h.322a7.063 7.063 0 001.968-.339c.52-.17.984-.42 1.391-.747.408-.328.733-.746.976-1.255.243-.51.37-1.132.382-1.867a2.67 2.67 0 00-.212-1.128 4.91 4.91 0 00-.569-.992zm-10.4 4.97c-.498 0-.967.003-1.408.01-.441.004-.916.008-1.425.008-.136-.023-.23-.077-.28-.162a.335.335 0 01-.043-.263 23.306 23.306 0 01-.339-.984 65.31 65.31 0 00-.356-1.068c-.679 0-1.347.003-2.002.008s-1.33.009-2.02.009a10.27 10.27 0 01-.55 1.433c-.187.38-.297.653-.331.823v.102c-.023.158-.085.243-.187.254-.102.012-.215.023-.34.034-.406.012-.842.023-1.306.034a3.692 3.692 0 01-1.29-.186.35.35 0 01-.194-.162.26.26 0 01-.026-.212c-.011 0-.017-.005-.017-.017v-.034c.08-.44.198-.873.357-1.298.158-.424.333-.842.526-1.255.192-.413.392-.826.602-1.239.209-.413.399-.822.568-1.23a56.78 56.78 0 011.18-3.18 97.096 97.096 0 001.213-3.148c.022-.125.081-.206.178-.246a.439.439 0 01.28-.025c.18-.023.381-.037.602-.043.22-.006.441-.008.662-.008h1.196l.118.05c.023 0 .04.003.051.009s.028.009.051.009c.102.067.218.246.348.534.13.288.255.596.373.925.12.328.22.627.306.899.085.271.132.424.144.458.554 1.425 1.12 2.847 1.696 4.267a95.997 95.997 0 001.833 4.216v.017c.124.08.166.2.127.365a.369.369 0 01-.297.297zm9.857-3.739c0 .669-.107 1.233-.322 1.691-.215.46-.506.836-.874 1.13a3.815 3.815 0 01-1.255.664c-.47.147-.959.243-1.468.289a10.551 10.551 0 01-2.384-.136c-.39-.069-.763-.148-1.12-.238a9.797 9.797 0 01-.992-.306c-.056 0-.105-.057-.144-.17-.04-.114-.031-.25.025-.409.125-.294.243-.58.357-.858.113-.277.17-.597.17-.96-.08-.159-.072-.272.025-.34a.59.59 0 01.348-.102c.248.114.514.224.797.331.283.108.571.202.865.281.294.08.594.139.9.179.305.04.599.042.882.008.294-.011.568-.082.823-.212s.381-.343.381-.638a1.21 1.21 0 00-.076-.331.895.895 0 00-.314-.417 6.878 6.878 0 00-.942-.45c-.333-.13-.673-.263-1.017-.4a13.45 13.45 0 01-1.018-.45c-.334-.164-.64-.368-.917-.612s-.517-.535-.72-.875c-.204-.34-.346-.76-.425-1.258-.034-.42.009-.822.127-1.206.12-.385.289-.733.51-1.044.22-.31.486-.58.797-.806.31-.226.641-.396.992-.509.35-.135.744-.231 1.18-.288a6.938 6.938 0 012.68.178c.447.119.857.286 1.23.5.193.08.306.179.34.298a.317.317 0 01-.068.313l-.068.085c-.011.023-.017.04-.017.051s-.006.023-.017.034a4.62 4.62 0 00-.39.797 4.911 4.911 0 00-.238.9c-.068.148-.153.247-.254.298-.102.05-.187.048-.255-.009a3.22 3.22 0 00-1.815-.527c-.26 0-.503.003-.73.009-.226.005-.452.07-.678.195-.227.204-.34.397-.34.578 0 .192.085.357.255.493.17.136.39.263.661.382.272.12.572.236.9.349.327.113.644.232.95.357.361.158.67.314.924.467s.433.275.535.365c.147.136.3.298.458.485.158.187.297.383.415.586.12.204.213.414.28.63.068.215.085.424.051.628zm13.625-6.236a3.2 3.2 0 01-.026-.272 5.505 5.505 0 01-.008-.305 3.005 3.005 0 00-.11-.475 4.148 4.148 0 00-.06-.137 2.084 2.084 0 00-.424-.458 3.776 3.776 0 01-.526-.526.689.689 0 00-.22-.169.901.901 0 00-.39-.068h-9.027c-.294 0-.518.116-.67.348a1.29 1.29 0 00-.229.721v1.68c0 .124.048.271.144.441.096.17.206.337.331.5a5.348 5.348 0 00.713.772.81.81 0 00.543.187h.763c.271 0 .531-.006.78-.017a50 50 0 00-.042 1.586c-.006.515-.008 1.03-.008 1.544v4.132c0 .09.017.172.05.246a.97.97 0 00.136.212c.113.135.26.29.441.466.18.175.334.32.458.433.08.068.164.124.255.17a.6.6 0 00.271.067h2.528c.272 0 .518-.09.738-.271.22-.181.331-.402.331-.662a192.026 192.026 0 01-.16-3.927c-.041-1.284-.066-2.57-.077-3.86h2.68a.79.79 0 00.543-.195c.147-.13.226-.342.238-.636a2.27 2.27 0 00.06-.4 7.625 7.625 0 000-.746 8.138 8.138 0 00-.026-.381zm-1.358.627c0 .136-.028.238-.084.306a.257.257 0 01-.204.102h-3.173c0 1.368.02 2.734.06 4.097.04 1.363.098 2.762.178 4.199 0 .124-.071.226-.212.305a.786.786 0 01-.365.12h-2.528a.286.286 0 01-.195-.086.25.25 0 01-.093-.186c0-1.493.002-2.947.008-4.36.006-1.415.043-2.84.11-4.276-.475.01-.947.023-1.417.034-.469.01-.975.017-1.518.017-.125 0-.223-.07-.297-.212a.8.8 0 01-.11-.348V71a.75.75 0 01.118-.373c.08-.136.176-.204.289-.204h9.026c.136 0 .22.042.255.128.034.085.085.246.152.483.023.35.045.685.068 1.001a3.2 3.2 0 01-.068.933zm12.929 8.602a7.614 7.614 0 00-.068-1.069c-.011-.192-.062-.333-.153-.424l-.195-.195a12.59 12.59 0 01-.255-.263 4.787 4.787 0 00-.432-.407.406.406 0 00-.204-.11 7.408 7.408 0 01-.254-.06h-.204c-.022 0-.053.003-.093.009s-.077.008-.11.008h-.136l.085-.017a90.462 90.462 0 00-2.376.034c-.18.012-.353.017-.517.017h-.5v-.237h1.56c.34 0 .693.003 1.06.008.368.006.728.009 1.078.009a1.11 1.11 0 00.322-.12.705.705 0 00.238-.203.796.796 0 00.136-.178c.034-.062.073-.139.118-.23a2.13 2.13 0 00.12-.542 6.83 6.83 0 00-.01-1.425 3.104 3.104 0 00-.127-.61 1.66 1.66 0 00-.22-.484c-.09-.13-.192-.24-.306-.331a1.803 1.803 0 00-.373-.23 14.104 14.104 0 00-.407-.177h1.323a.917.917 0 00.467-.212c.119-.108.2-.23.246-.365a.804.804 0 00-.203-.815 1.07 1.07 0 00.008-.212 1.7 1.7 0 01-.009-.229c0-.079-.002-.155-.008-.229-.006-.074-.009-.155-.009-.246s-.002-.172-.008-.246a3.217 3.217 0 01-.009-.246c.091-.294.023-.554-.203-.78a16.966 16.966 0 01-.424-.441 4.209 4.209 0 00-.475-.441 1.021 1.021 0 00-.424-.238c-.78 0-1.62.003-2.52.008-.9.006-1.745.02-2.536.042h-.204c-.09 0-.17-.005-.237-.017-.159-.01-.351-.019-.577-.025a28.756 28.756 0 00-.645-.008c-.26 0-.506.008-.738.025-.232.017-.41.054-.534.11h.016c-.249.103-.412.246-.492.433a.945.945 0 00-.067.552v.051c.044.644.07 1.317.076 2.019.005.7.008 1.408.008 2.12 0 .634.003 1.253.009 1.858.005.606.02 1.162.042 1.671a42.011 42.011 0 01.068 2.376c0 .192-.003.401-.008.627a24.35 24.35 0 00-.009.645.813.813 0 00.22.509c.193.215.413.421.662.62s.486.352.713.466c.034.022.062.03.085.025s.05-.008.085-.008h5.36c.046 0 .1.003.162.008.062.006.139.009.23.009h.763c.327 0 .658-.017.992-.051.334-.034.602-.114.806-.238.271-.362.328-.707.17-1.035.034-.271.05-.56.05-.865zm-1.392.712c-.112.068-.291.114-.534.136a8.23 8.23 0 01-.764.034c-.266 0-.52-.005-.763-.017a12.92 12.92 0 00-.551-.017h-5.362c-.011 0-.02-.003-.025-.008-.006-.006-.014-.009-.026-.009a.276.276 0 01-.246-.05c-.073-.058-.115-.148-.127-.272 0-.6-.003-1.204-.008-1.81a63.835 63.835 0 00-.043-1.81 28.694 28.694 0 01-.05-1.783v-1.98c0-.673-.006-1.345-.018-2.013a48.261 48.261 0 00-.067-1.903c0-.022.005-.04.017-.05a.326.326 0 01-.026-.264c.028-.096.105-.167.23-.213.112-.044.301-.076.568-.093a8.43 8.43 0 01.83-.009l.824.034c.26.012.44.017.543.017a206.45 206.45 0 014.597-.05c.283 0 .464.042.543.127.08.085.113.2.102.348 0 .294.006.585.017.873.011.289.005.58-.017.875.181.067.263.183.246.347-.017.164-.121.263-.314.297-.826 0-1.645-.006-2.46-.017-.814-.011-1.634-.017-2.46-.017 0 .283.009.577.026.883.017.305.02.599.008.882.26 0 .568-.003.925-.009l1.11-.017c.386-.006.77-.006 1.155 0 .384.006.73.02 1.035.043a.675.675 0 01.152.067.584.584 0 01.12.118c.044.135.078.3.1.498a5.3 5.3 0 010 1.214 2.518 2.518 0 01-.1.497.651.651 0 01-.154.22.36.36 0 01-.254.151c-.701 0-1.391-.003-2.07-.008a245.63 245.63 0 00-2.053-.009v2.07c.792 0 1.58-.008 2.367-.025.786-.017 1.57-.026 2.35-.026a.76.76 0 01.195-.008c.062.005.121.008.178.008.068.023.125.043.17.06.045.017.073.06.084.128a7.463 7.463 0 010 2.014c.068.08.1.168.094.264a.592.592 0 01-.094.282zm8.238-8.94a3.24 3.24 0 00-.739-.094 36.693 36.693 0 00-.763-.008c.011.396.031.766.06 1.111a5.04 5.04 0 01-.043 1.111h.704c.266 0 .512-.034.738-.101.226-.068.418-.185.577-.348.158-.164.238-.416.238-.755 0-.272-.074-.478-.221-.62a1.218 1.218 0 00-.551-.296zm-.145 1.51v-.136a.283.283 0 00-.009-.068.271.271 0 01-.008-.068h.356a.826.826 0 01-.339.272z"/><path class="st0" d="M232.352 80.926a19.677 19.677 0 01-.5-.967c-.102-.226-.21-.45-.322-.67a8.504 8.504 0 00-.374-.653c.328-.215.605-.47.832-.763.226-.295.407-.611.543-.95a4.52 4.52 0 00.28-1.07c.05-.373.07-.746.059-1.12a2.84 2.84 0 00-.348-1.246 7.121 7.121 0 00-.84-1.18c-.35-.339-.678-.658-.984-.958a5.194 5.194 0 00-.967-.755l-.17-.102a6.171 6.171 0 00-1.637-.61 9.932 9.932 0 00-1.722-.222 8.34 8.34 0 01-.398-.008 14.372 14.372 0 00-1.799.06 8.146 8.146 0 00-1.45.288c-.272.102-.445.263-.518.484a.851.851 0 00.025.636c0 1.821-.006 3.594-.017 5.319a173.038 173.038 0 01-.119 5.319.73.73 0 00.187.509c.057.056.136.138.237.246.102.107.21.215.323.322.113.107.22.206.322.297.102.09.187.153.255.187.203.09.413.107.627.05h.348c.108 0 .212.006.314.017.09 0 .187.003.289.009a5.474 5.474 0 001.17-.06 1.54 1.54 0 00.679-.262c.204-.142.35-.326.441-.552v-1.187c0-.396-.011-.792-.034-1.188l.509.9c.136.237.277.474.425.712.146.237.316.435.509.594.158.113.299.248.424.407.124.158.26.299.407.424.09.068.26.121.509.161.248.04.52.06.814.06a21.746 21.746 0 001.773-.077l.416-.042c.045-.09.09-.195.136-.314.044-.119.078-.243.101-.373a1.56 1.56 0 00.017-.4.857.857 0 00-.118-.372 4.657 4.657 0 01-.654-.9zm-.526.738c-.028.13-.065.24-.11.331a24.975 24.975 0 01-1.553.077c-.31.005-.596.002-.856-.009s-.413-.04-.459-.085c-.214-.17-.41-.424-.584-.764a15.05 15.05 0 00-.535-.952c-.08-.136-.156-.272-.229-.408l-.237-.433a25.5 25.5 0 00-.298-.518 22.12 22.12 0 01-.39-.697c-.136 0-.282-.002-.441-.009a2.243 2.243 0 00-.441.027c.057.543.087 1.1.094 1.673.005.572.008 1.141.008 1.708a.684.684 0 01-.314.288.893.893 0 01-.399.12 6.64 6.64 0 01-.568.067 4.81 4.81 0 01-.475.009 19.104 19.104 0 01-.475-.026 8.37 8.37 0 00-.569-.017h-.034a.377.377 0 01-.34.009c-.123-.051-.186-.15-.186-.298.057-1.823.091-3.616.102-5.377.011-1.761.017-3.554.017-5.378-.056-.101-.076-.209-.06-.322s.088-.193.213-.238a8.194 8.194 0 011.705-.281 21.56 21.56 0 011.79-.009c.384.012.772.05 1.162.112.39.061.772.158 1.146.288.372.13.726.294 1.06.493.333.198.636.445.908.739.316.363.568.71.755 1.045.186.334.29.7.314 1.096a5.29 5.29 0 01-.051 1.112 3.75 3.75 0 01-.314 1.037c-.153.323-.36.62-.62.892s-.576.493-.95.662c.215.295.405.601.569.918.163.318.322.635.475.952.153.317.314.628.483.934.17.306.367.59.594.85h.017a.496.496 0 01.076.382z"/></g></svg>