<svg version="1.1" id="Layer_1" xmlns="http://www.w3.org/2000/svg" x="0" y="0" viewBox="0 0 268.713 78.322" xml:space="preserve"><style>.st1{fill:#49bebd}.st2{fill:#896c62}</style><path d="M66.654 37.26c-.07.341-1.668.35-2.151.319-2.733-.091-5.99-.187-8.723-.296-2.899-.108-6.624-.108-9.431-.744-.248-.072-.296-.91-.296-1.49.42-9.17.924-18.477 1.383-27.645l.106-2.092s.083-2.044.496-2.116c1.726-.284 5.556.154 7.636.485.39.059.295 2.057.295 2.057-.4 7.632-.771 15.438-1.17 23.07 3.186.118 6.798.225 9.987.331 0 0 2.187.036 2.223.485.163 1.736.163 5.59-.355 7.635zm28.889-15.392c.095.319-1.37.922-1.37.922v-.012c-3.034 1.299-4.68 1.842-7.785 2.982-.773.283-3.359 1.216-3.643.936-.785-.773-1.744-2.467-2.063-4.157-.06-.33 1.56-1.195 2.037-1.482 1.04-.626 1.838-.995 2.75-1.404-2.102-1.544-4.643-.609-6.011.512-1.755 1.652-1.687 4.634-.863 6.748.177.284.319.58.555.804 2.153 2.3 5.89 1.442 8.357.023.023.048 1.335-.91 1.642-.579 1.147 1.313 3.652 4.267 4.432 6.23.166.39-1.867 1.737-1.914 1.69-12.167 7.144-25.49-1.848-21.31-15.886 2.963-9.717 17.865-12.252 23.06-3.096.13.233.322.504.424.792 1.029 1.997 1.525 3.877 1.702 4.977zm25.651 10.597c0 .402-1.395 1.832-1.513 1.88-4.444 4.243-13.037 5.306-16.453-.71-.697-1.158-.91-2.588-.922-3.912l.296-10.578-1.727.225s-1.96.272-2.08-.13c-.483-1.655-.543-5.532-.472-7.612 0-.39 1.927-.437 1.927-.437.402-.012 2.21-.047 2.565-.06.047-1.76.105-4.183.165-5.944 0 0 .035-2.01.449-2.08 1.714-.32 5.555.058 7.635.342.39.06.308 2.022.308 2.022-.083 1.607-.178 3.876-.26 5.483l1.193-.023s2.01-.083 2.092.271c.296 1.371.65 4.374.355 6.052-.047.33-1.926.567-1.926.567v-.012c-.048.012-1.986.26-2.033.273-.166 3.604-.355 7.516-.52 11.121.024.78.46 1.064 1.075 1.064 1.312 0 3.427-1.241 4.196-1.631.083-.047 1.5-.863 1.667-.615 1.122 1.005 3.321 2.896 3.97 4.385.013.012.013.036.013.06zm9.102-17.702c-1.73.207-5.59.335-7.646-.097-.4-.085-.389-2.023-.389-2.023V2.313s-.013-2.03.396-2.12c1.702-.374 5.557-.127 7.646.096.399.043.399 2.024.399 2.024v10.33s.043 2.067-.406 2.12zm25.668 14.479c-.07 5.63-6.329 8.886-11.393 8.545-3.103-.258-5.802-1.164-8.582-2.659-.484-.284-.957-.662-.91-.827.434-1.383 1.895-3.849 2.837-5.011.095-.13.473-.036.852.07 1.669.567 2.987 1.002 4.68 1.241a6.219 6.219 0 003.085-.189c.798-.154 2.43-1.314.886-1.796-2.81-.746-5.932-1.024-8.427-2.73-3.955-2.63-4.708-8.646-1.62-12.221 3.943-4.537 12.624-4.255 16.89-.415-.291 1.47-2.234 3.661-3.013 4.918-.095.236-1.377-.225-1.454-.225-2.056-.609-4.65-.878-6.513.272a.328.328 0 00-.118.142c-.059.035-.036.118-.094.153.011.071-.06.107-.036.19-.024.059-.024.13-.024.189-.011.035 0 .07.012.106a.584.584 0 00.06.272c.011.07.058.094.07.142 0 .035.048.035.06.059.01.012.01.047.035.059.06.012.06.07.13.083 5.172 1.853 11.738 1.543 12.564 8.663 0 .012.011.024 0 .047.023.308.013.615.023.922zm41.673-18.592c-.07.402-1.962.402-1.962.402h-2.02c-.092 0-4.021.024-4.114.023.254 7.907.508 16.088.768 23.993 0 0 .107 2.116-.342 2.186-1.714.272-5.567.52-7.636.142-.2-.035-.319-.555-.39-1.051-.368-8.398-.55-16.844-.838-25.234-1.66-.004-3.964.014-5.627.023 0 0-1.986.012-2.08-.343-.414-1.465-.26-4.798-.094-6.618.035-.355 1.973-.45 1.973-.45 6.664-.326 13.512-.685 20.176-1.004 0 0 2.01-.153 2.08.295.249 1.714.474 5.58.106 7.635zm31.967 21.418c-.424 1.695-2.12 2.977-3.522 4.066-2.81 2.057-7.043 1.662-9.408-.898-5.158 2.85-12.335 2.695-16.205-2.198-7.736-10.66.477-26.65 14.301-21.866-.058-1.818 6.5.181 7.931.355.39.082.107 2.056.107 2.056-.628 4.793-1.403 9.85-1.348 14.68.042 1.23.611 1.98 1.63 1.217.186-.108 1.18-1.33 1.514-1.17 1.336.786 4.042 2.392 5 3.758zM214.05 18.654c-2.636-.367-5.943-.4-6.962 2.529-.63 2.037-.643 4.496.378 6.394.132.132.242.335.39.45.059.047.095.106.143.152 1.707 1.19 3.962.745 5.873.308v-.012c-.23-3.095-.03-6.348.153-9.431l.025-.39zm28.12-13.385l-.594 29.664s.002 2.12-.449 2.167c-1.735.176-5.598.23-7.642-.253-.4-.095-.348-2.083-.348-2.083l.594-29.664s.03-2.082.44-2.166c1.709-.35 5.558-.019 7.642.253.397.051.356 2.083.358 2.082zm26.516 27.911c-.91 1.098-3.108 3.261-4.669 4.041-.405.092-1.748-1.332-1.76-1.323-1.886-1.926-4.168-4.197-6.064-6.11.044 1.396.137 3.584.177 4.987 0 0 .118 2.128-.33 2.187-1.715.236-5.58.437-7.636.023-.379-.07-.39-1.856-.39-2.045v-2.139c.024-6.951.02-18.25.024-25.447l.012-2.116s-.012-2.08.33-2.186c1.454-.402 4.74-.2 6.525-.012.343.047.413 2.068.413 2.068.143 3.713.288 8.18.426 11.879l5.366-4.279s1.737-1.43 2.009-1.205c1.063.85 3.132 2.931 3.852 4.432.143.295-1.335 1.785-1.335 1.785-1.47 1.53-3.45 3.511-4.928 5.035 2.17 2.711 4.619 5.732 6.796 8.438 0 0 1.418 1.703 1.182 1.986z" fill="#cba676"/><path class="st1" d="M60.805 48.044c.171-.321.46-.546.868-.675.407-.128.92-.193 1.543-.193.62 0 1.114.054 1.478.161.365.107.643.236.836.386.193.15.343.364.45.643.107.364.16.921.16 1.671v17.839c0 .493-.015.863-.047 1.109s-.134.53-.305.851c-.301.579-1.137.868-2.508.868-1.5 0-2.378-.396-2.635-1.189-.129-.364-.193-.92-.193-1.671v-6.525h-8.518v6.557c0 .493-.016.863-.048 1.109s-.135.53-.306.851c-.3.579-1.136.868-2.506.868-1.5 0-2.38-.396-2.636-1.189-.129-.364-.193-.92-.193-1.671v-17.84c0-.492.016-.861.048-1.108.033-.246.134-.53.306-.852.3-.578 1.135-.868 2.507-.868 1.499 0 2.388.397 2.668 1.19.106.364.16.921.16 1.671v6.557h8.518v-6.59c0-.492.016-.861.048-1.108.032-.246.133-.53.305-.852zm18.899 7.554c.129-1.2.975-1.8 2.54-1.8.835 0 1.456.064 1.863.192.407.129.692.354.853.676s.257.605.289.851c.032.247.048.617.048 1.11v11.249c0 .493-.016.863-.048 1.109s-.124.53-.273.851c-.301.558-1.034.836-2.202.836s-1.95-.144-2.346-.434c-.397-.289-.627-.712-.691-1.27-.794 1.137-2.117 1.704-3.97 1.704-1.854 0-3.573-.846-5.158-2.539-1.587-1.693-2.38-3.659-2.38-5.898 0-2.24.799-4.2 2.395-5.882 1.597-1.682 3.348-2.523 5.256-2.523.728 0 1.392.129 1.992.386.6.257 1.018.498 1.254.723.235.225.428.445.578.659zm-5.85 6.685c0 .707.28 1.345.836 1.912.557.569 1.232.852 2.025.852s1.452-.29 1.977-.868.788-1.215.788-1.912c0-.696-.253-1.344-.756-1.945-.503-.6-1.179-.9-2.025-.9-.847 0-1.532.3-2.057.9-.526.6-.787 1.254-.787 1.961zm14.014 13.05V56.562c0-.493.016-.857.048-1.093a2.66 2.66 0 01.273-.803c.3-.579 1.018-.868 2.154-.868s1.902.144 2.298.434c.396.289.627.712.69 1.27.815-1.115 2.095-1.672 3.842-1.672 1.747 0 3.401.825 4.966 2.475 1.563 1.65 2.346 3.567 2.346 5.753s-.776 4.104-2.33 5.754c-1.554 1.65-3.209 2.474-4.966 2.474-1.758 0-3.033-.492-3.825-1.478V75.3c0 .492-.016.856-.048 1.092-.032.236-.129.509-.29.82-.16.31-.433.53-.819.659-.385.129-.911.193-1.575.193s-1.195-.064-1.591-.193c-.396-.129-.675-.343-.835-.643a2.443 2.443 0 01-.29-.804 8.956 8.956 0 01-.048-1.092zm6.364-15.14c-.493.58-.739 1.212-.739 1.897 0 .686.251 1.313.755 1.88.503.568 1.146.852 1.928.852s1.447-.278 1.993-.835c.547-.557.82-1.19.82-1.897 0-.707-.257-1.344-.772-1.912-.514-.568-1.183-.852-2.008-.852s-1.484.29-1.977.868zm12.342 15.14V56.562c0-.493.016-.857.048-1.093a2.66 2.66 0 01.273-.803c.3-.579 1.018-.868 2.154-.868s1.902.144 2.298.434c.397.289.627.712.691 1.27.814-1.115 2.095-1.672 3.841-1.672s3.402.825 4.966 2.475c1.564 1.65 2.347 3.567 2.347 5.753s-.777 4.104-2.33 5.754c-1.555 1.65-3.21 2.474-4.967 2.474s-3.032-.492-3.824-1.478V75.3c0 .492-.016.856-.049 1.092-.032.236-.128.509-.289.82-.16.31-.434.53-.82.659-.385.129-.91.193-1.575.193s-1.194-.064-1.59-.193c-.397-.129-.675-.343-.836-.643-.161-.3-.257-.568-.29-.804a8.966 8.966 0 01-.048-1.092zm6.364-15.14c-.493.58-.739 1.212-.739 1.897 0 .686.251 1.313.755 1.88.504.568 1.147.852 1.929.852s1.447-.278 1.993-.835c.546-.557.82-1.19.82-1.897 0-.707-.258-1.344-.772-1.912-.515-.568-1.184-.852-2.009-.852s-1.484.29-1.977.868zm27.127-6.203c1.265.558 1.897 1.233 1.897 2.026 0 .385-.086.75-.257 1.092-.172.343-.257.526-.257.547l-8.421 18.835c-.172.407-.317.717-.435.932-.117.214-.305.418-.562.61s-.579.29-.964.29-.954-.16-1.704-.482c-1.264-.558-1.896-1.222-1.896-1.993 0-.514 1.028-2.968 3.085-7.36l-6.395-10.768c-.43-.707-.643-1.232-.643-1.575 0-.686.578-1.371 1.735-2.057.728-.429 1.296-.643 1.703-.643.407 0 .74.086.997.257.257.172.444.349.563.53.117.183.707 1.18 1.767 2.99a258.893 258.893 0 003.038 5.062c.106-.343.685-1.666 1.735-3.97a386.28 386.28 0 011.688-3.68c.075-.15.197-.332.37-.546.278-.364.669-.547 1.172-.547.504 0 1.098.15 1.784.45zm17.485 11.057h9.9c.493 0 .862.016 1.11.048.245.033.53.135.85.306.58.3.868 1.136.868 2.507 0 1.5-.397 2.378-1.189 2.636-.365.128-.922.192-1.671.192H154.69c-1.5 0-2.38-.406-2.636-1.221-.129-.342-.193-.889-.193-1.64v-17.87c0-1.093.203-1.837.611-2.234.406-.396 1.178-.595 2.314-.595h12.664c.493 0 .862.017 1.11.049.245.032.53.134.85.305.58.3.868 1.136.868 2.507 0 1.5-.397 2.379-1.189 2.636-.365.128-.922.193-1.671.193h-9.868v3.246h6.365c.492 0 .862.016 1.108.048.247.032.53.134.852.306.578.3.867 1.135.867 2.506 0 1.5-.407 2.379-1.22 2.636-.365.129-.922.193-1.672.193h-6.3v3.246zm25.809-9.449c.129-1.2.975-1.8 2.54-1.8.835 0 1.456.064 1.863.192.407.129.692.354.852.676s.257.605.29.851c.032.247.048.617.048 1.11v11.249c0 .493-.016.863-.049 1.109a2.97 2.97 0 01-.273.851c-.3.558-1.034.836-2.201.836s-1.95-.144-2.347-.434c-.397-.289-.626-.712-.69-1.27-.794 1.137-2.117 1.704-3.97 1.704-1.854 0-3.573-.846-5.159-2.539-1.586-1.693-2.379-3.659-2.379-5.898 0-2.24.798-4.2 2.395-5.882 1.596-1.682 3.348-2.523 5.256-2.523.728 0 1.392.129 1.992.386.6.257 1.018.498 1.254.723.235.225.428.445.578.659zm-5.85 6.685c0 .707.279 1.345.836 1.912.557.569 1.232.852 2.025.852s1.451-.29 1.976-.868c.525-.578.789-1.215.789-1.912 0-.696-.253-1.344-.756-1.945-.504-.6-1.18-.9-2.025-.9-.847 0-1.532.3-2.057.9-.526.6-.788 1.254-.788 1.961zm14.143 6.943c-.407-.257-.61-.664-.61-1.222s.406-1.403 1.22-2.539c.236-.364.616-.546 1.142-.546.524 0 1.237.262 2.137.787.9.526 1.714.788 2.443.788 1.307 0 1.96-.258 1.96-.772 0-.406-.718-.707-2.153-.9-1.35-.193-2.689-.696-4.018-1.51-.622-.386-1.136-.991-1.543-1.816-.407-.825-.61-1.806-.61-2.941 0-3.386 2.325-5.079 6.975-5.079 1.52 0 3.085.365 4.692 1.093.75.343 1.125.771 1.125 1.286 0 .514-.236 1.146-.706 1.896-.472.75-.954 1.125-1.447 1.125-.258 0-.735-.16-1.43-.482a5.339 5.339 0 00-2.266-.482c-1.265 0-1.897.236-1.897.707 0 .643.728 1.06 2.186 1.253 1.414.15 2.785.558 4.114 1.222.62.3 1.141.82 1.559 1.559.418.739.627 1.666.627 2.78s-.21 2.063-.627 2.845c-.418.782-1.002 1.366-1.752 1.751-1.372.665-3.091.996-5.159.996-2.068 0-4.055-.599-5.962-1.8zm24.91-9.739l-2.09-.129v4.436c0 .578.092.996.274 1.253.182.258.525.386 1.028.386.504 0 .89.016 1.157.048.268.032.552.134.852.305.493.28.74.997.74 2.154 0 1.35-.3 2.175-.9 2.475-.322.15-.606.241-.852.273a8.927 8.927 0 01-1.077.048c-2.229 0-3.921-.503-5.078-1.51-1.158-1.007-1.736-2.71-1.736-5.11v-4.758a8.471 8.471 0 01-1.318.097c-.471 0-.863-.182-1.173-.547-.31-.364-.466-.985-.466-1.864 0-.879.053-1.516.16-1.912.108-.397.258-.68.45-.852.343-.279.772-.418 1.286-.418l1.061.128v-3.31c0-.493.016-.857.048-1.093.032-.235.134-.492.305-.771.279-.536 1.104-.804 2.476-.804 1.457 0 2.324.397 2.603 1.19.107.343.16.889.16 1.639v3.15c.943-.086 1.656-.13 2.138-.13s.846.017 1.093.05c.246.031.53.133.852.305.557.278.835 1.103.835 2.474 0 1.35-.289 2.175-.867 2.475a2.99 2.99 0 01-.852.274 9.389 9.389 0 01-1.11.048zm20.282.755c0 1.318-.327 2.293-.981 2.925-.653.632-1.377.948-2.17.948h-7.617c0 .6.354 1.104 1.06 1.511.708.407 1.415.61 2.122.61 1.242 0 2.218-.128 2.925-.385l.353-.129c.514-.235.943-.353 1.286-.353.685 0 1.275.482 1.768 1.446.278.579.418 1.072.418 1.479 0 1.907-2.283 2.86-6.847 2.86-1.586 0-2.994-.273-4.226-.82-1.233-.546-2.191-1.269-2.877-2.169-1.35-1.736-2.025-3.675-2.025-5.818 0-2.7.873-4.858 2.62-6.476 1.746-1.618 3.926-2.427 6.54-2.427 2.979 0 5.164 1.05 6.557 3.15a6.537 6.537 0 011.094 3.648zm-6.783.948c.814 0 1.222-.342 1.222-1.028a1.45 1.45 0 00-.563-1.19c-.375-.3-.91-.45-1.606-.45-.697 0-1.388.285-2.074.852-.686.568-1.028 1.173-1.028 1.816h4.05zm20.379-7.2c.406.129.744.349 1.012.66.268.31.402.808.402 1.494 0 .686-.204 1.436-.61 2.25-.408.815-.997 1.221-1.769 1.221-.385 0-.755-.085-1.109-.257-.354-.171-.82-.257-1.398-.257s-1.12.204-1.623.61c-.503.408-.755.9-.755 1.48v6.75c0 .492-.016.862-.048 1.108-.033.247-.135.53-.306.852-.321.557-1.157.835-2.507.835-1.028 0-1.768-.181-2.218-.546-.342-.3-.536-.76-.578-1.382V56.594c0-.493.016-.862.048-1.109.032-.246.123-.52.273-.82.3-.578 1.136-.867 2.507-.867 1.286 0 2.09.246 2.411.74.235.342.353.696.353 1.06.107-.15.263-.332.466-.547.204-.214.638-.503 1.302-.868.664-.364 1.249-.546 1.752-.546.503 0 .927.027 1.27.08.342.054.717.145 1.124.273zM29.537 28.677c.818 10.941-4.183 16.718-12.764 17.36S.893 42.6.075 31.66 5.23 7.058 13.812 6.417s14.908 11.32 15.725 22.26z"/><circle class="st2" cx="3.372" cy="32.35" r="1.169"/><circle class="st2" cx="6.823" cy="38.041" r="1.169"/><circle class="st2" cx="11.893" cy="35.499" r="1.169"/><circle class="st2" cx="15.966" cy="40.281" r="1.169"/><circle class="st2" cx="19.693" cy="34.821" r="1.169"/><circle class="st2" cx="25.008" cy="37.783" r="1.169"/><circle class="st2" cx="27.204" cy="32.612" r="1.169"/><g><path d="M40.58 53.464c-1.223 10.903-7.208 15.653-15.76 14.693S9.853 61.838 11.077 50.935s9.626-23.22 18.177-22.26S41.805 42.56 40.581 53.464z" fill="#cbe5b5"/><circle class="st2" cx="14.188" cy="52.224" r="1.169"/><circle class="st2" cx="16.525" cy="58.456" r="1.169"/><circle class="st2" cx="21.978" cy="56.898" r="1.169"/><circle class="st2" cx="25.094" cy="62.351" r="1.169"/><circle class="st2" cx="29.768" cy="57.677" r="1.169"/><circle class="st2" cx="34.443" cy="61.572" r="1.169"/><circle class="st2" cx="37.559" cy="56.898" r="1.169"/></g></svg>