<svg version="1.1" id="Layer_1" xmlns="http://www.w3.org/2000/svg" x="0" y="0" viewBox="0 0 226.373 71.973" xml:space="preserve"><style>.st1{fill:#65c8ef}.st3{fill:#f6ddb3}.st4{fill:#dcaadd}</style><path d="M26.802 34.074v-.05L23.755 13.49l-2.898 20.534v.05l-2.398.599a532.575 532.575 0 01-4.397-16.862A2332.514 2332.514 0 009.866.85l2.398-.6a3660.89 3660.89 0 013.447 13.815 1277.06 1277.06 0 003.497 13.814l3.298-23.281c.066-.333.216-.6.45-.8.232-.2.499-.3.799-.3.732 0 1.149.367 1.249 1.1l3.447 23.331c1.2-4.629 2.365-9.243 3.497-13.839C33.08 9.493 34.23 4.88 35.396.249l2.398.6c-1.4 5.696-2.79 11.35-4.172 16.962A586.553 586.553 0 0129.2 34.673l-2.398-.6zm12.141-1.999h1.049a5246.035 5246.035 0 00.3-31.825h2.498v1.149l8.793.1v2.498l-8.793-.1a81.31 81.31 0 00-.05 2.823v2.823l6.295-.1v2.498l-6.345.1-.1 9.992-.1 10.042h8.693v2.498h-12.24v-2.498zM80.81 1.05c.266 1.398.566 2.764.899 4.096a390.95 390.95 0 011 4.097c.132.533.257 1.058.374 1.574.116.516.258 1.041.425 1.573h1.349v2.499h-.75c.2.799.4 1.59.6 2.373.2.783.4 1.573.6 2.373l2.098 8.343c.266.967.507 1.907.724 2.823.216.917.475 1.824.774 2.723l-2.398.75-.15-.45c-.866-3.13-1.698-6.27-2.498-9.418a723.95 723.95 0 01-2.348-9.517h-5.745l-6.745 19.934-2.348-.9c.966-2.797 1.906-5.57 2.823-8.318.915-2.748 1.856-5.537 2.822-8.368a1276.05 1276.05 0 002.573-7.495 195 195 0 012.723-7.494c.133-.366.275-.74.425-1.124.15-.382.308-.757.475-1.124l2.298 1.05zm.1 11.34c-.2-.799-.4-1.606-.6-2.423-.2-.816-.4-1.623-.6-2.423-.1-.4-.2-.79-.299-1.174-.1-.382-.184-.774-.25-1.174a73.723 73.723 0 00-1.024 2.873 76.666 76.666 0 01-1.024 2.873l-.45 1.448h4.247zm28.027 22.133c-.067-1.632-.491-3.48-1.273-5.546a39.06 39.06 0 00-2.973-6.12 47.815 47.815 0 00-3.947-5.67c-1.433-1.765-2.815-3.164-4.147-4.197a766.414 766.414 0 00-.125 10.692c-.017 3.53-.042 7.094-.075 10.691H93.9c.033-5.728.083-11.416.15-17.061.067-5.646.117-11.333.15-17.062h2.498v1.499c.866 0 1.824.042 2.873.125 1.05.083 2.023.283 2.923.6a5.68 5.68 0 012.273 1.448c.616.65.924 1.524.924 2.623 0 .833-.175 1.566-.524 2.198a5.379 5.379 0 01-1.374 1.624 7.97 7.97 0 01-1.949 1.124c-.733.3-1.499.55-2.298.75 1.3 1.166 2.63 2.648 3.997 4.446a49.954 49.954 0 013.772 5.77 43.178 43.178 0 012.873 6.196c.765 2.082 1.182 4.005 1.249 5.77l-2.499.1zM96.647 4.247v2.848c0 .933-.017 1.882-.05 2.847.067.068.167.134.3.2a17.088 17.088 0 002.098-.35 10.23 10.23 0 002.024-.674 5.273 5.273 0 001.549-1.05c.416-.415.624-.924.624-1.523 0-.566-.267-1.007-.8-1.324a6.114 6.114 0 00-1.848-.7 11.44 11.44 0 00-2.123-.25 78.907 78.907 0 00-1.674-.024h-.1zm17.686 27.828h1.05a5242.777 5242.777 0 00.3-31.825h2.497v1.149l8.794.1v2.498l-8.794-.1a81.31 81.31 0 00-.05 2.823v2.823l6.295-.1v2.498l-6.344.1a54228.424 54228.424 0 00-.2 20.034h8.693v2.498h-12.24v-2.498zM162.145.25c0 1.532-.008 3.065-.024 4.596a408.576 408.576 0 00-.025 4.597h.899v2.498h-.95l-.1 11.216a39946.6 39946.6 0 00-.1 11.216h-2.497l.1-11.216.1-11.216-12.44.1c-.034 3.73-.068 7.453-.1 11.166-.034 3.714-.068 7.436-.1 11.166h-2.499a5728.002 5728.002 0 00.3-34.123h2.498c0 1.566-.008 3.115-.025 4.646a413.2 413.2 0 00-.025 4.647l12.44-.1c0-1.532.008-3.064.026-4.597.016-1.531.025-3.064.025-4.596h2.497zm4.897 31.825h1.049a5242.767 5242.767 0 00.3-31.825h2.498v1.149l8.793.1v2.498l-8.793-.1a81.31 81.31 0 00-.05 2.823v2.823l6.295-.1v2.498l-6.345.1a54228.424 54228.424 0 00-.2 20.034h8.693v2.498h-12.24v-2.498zm32.924 2.448c-.067-1.632-.492-3.48-1.274-5.546a39.061 39.061 0 00-2.973-6.12 47.814 47.814 0 00-3.947-5.67c-1.432-1.765-2.814-3.164-4.146-4.197a766.414 766.414 0 00-.125 10.692c-.017 3.53-.043 7.094-.075 10.691h-2.498c.033-5.728.083-11.416.15-17.061.066-5.646.116-11.333.15-17.062h2.498v1.499c.865 0 1.823.042 2.872.125 1.05.083 2.024.283 2.923.6.9.316 1.657.799 2.273 1.448.616.65.925 1.524.925 2.623 0 .833-.175 1.566-.525 2.198a5.378 5.378 0 01-1.374 1.624 7.97 7.97 0 01-1.948 1.124c-.733.3-1.5.55-2.299.75 1.3 1.166 2.631 2.648 3.997 4.446a49.953 49.953 0 013.772 5.77 43.18 43.18 0 012.873 6.196c.766 2.082 1.182 4.005 1.25 5.77l-2.5.1zm-12.29-30.276v2.848c0 .933-.018 1.882-.05 2.847.066.068.166.134.3.2a17.088 17.088 0 002.098-.35c.732-.166 1.406-.39 2.023-.674a5.273 5.273 0 001.55-1.05c.415-.415.623-.924.623-1.523 0-.566-.266-1.007-.799-1.324a6.113 6.113 0 00-1.849-.7 11.44 11.44 0 00-2.123-.25 78.907 78.907 0 00-1.673-.024h-.1zm17.686 27.828h1.049a5242.767 5242.767 0 00.3-31.825h2.498v1.149l8.793.1v2.498l-8.793-.1a81.31 81.31 0 00-.05 2.823v2.823l6.295-.1v2.498l-6.345.1a55126.502 55126.502 0 00-.2 20.034h8.693v2.498h-12.24v-2.498z" fill="#fea485"/><path class="st1" d="M48.672 54.324H32.143l5.242 7.74-5.242 9.91h10.406a6.123 6.123 0 006.123-6.124V54.324zm136.513 0h16.529l-5.242 7.74 5.242 9.91h-10.406a6.123 6.123 0 01-6.123-6.124V54.324z"/><path class="st1" d="M43.681 46.669s62.659-11.753 146.018 0v19.892s-70.051 8.28-146.018 2.734V46.67z"/><path d="M52.845 57.27c.778.087 1.58.138 2.409.152.828.015 1.667-.05 2.517-.194v-.8a406.035 406.035 0 01.216-6.179c.014-.417.13-.763.346-1.037.216-.273.504-.46.864-.562a1.94 1.94 0 011.09.055c.354.122.61.342.768.658.1.203.173.415.216.638.043.223.065.443.065.659.014.374.01.753-.011 1.134-.022.382-.04.767-.054 1.156a1155.918 1155.918 0 00-.324 10.003 2.173 2.173 0 01-.236.929c-.143.274-.38.49-.709.648-.658.288-1.266.21-1.824-.238a1.328 1.328 0 01-.473-.626 2.399 2.399 0 01-.128-.8v-2.333h-4.71a3.712 3.712 0 00-.043.561 17.76 17.76 0 00-.011 1.103c.007.36-.004.727-.033 1.102-.029.576-.22 1.026-.572 1.35-.353.324-.803.464-1.35.421-.404-.043-.739-.202-1.005-.475s-.414-.62-.443-1.037a2.155 2.155 0 010-.432c.014-.144.022-.288.022-.432a524.231 524.231 0 01-.022-4.807c0-1.592-.015-3.194-.043-4.807-.015-.418-.04-.843-.076-1.275a82.36 82.36 0 01-.097-1.275 4.242 4.242 0 01-.01-.8c.02-.258.132-.496.334-.712.475-.547 1.037-.735 1.685-.562.778.187 1.21.67 1.296 1.448.058.504.105 1.008.14 1.512.037.504.069 1.008.098 1.512.029.605.043 1.21.043 1.815a75.828 75.828 0 00.033 2.15c.007.108.018.234.032.378zm16.42-.626c0-.965-.13-1.692-.39-2.182-.259-.49-.58-.785-.96-.886-.383-.1-.79-.017-1.221.249-.432.267-.814.68-1.145 1.242-.246.418-.591.68-1.037.789-.447.108-.88.04-1.297-.206-.417-.244-.68-.575-.788-.993-.108-.418-.033-.843.227-1.275a5.91 5.91 0 01.95-1.188c.72-.662 1.487-1.142 2.301-1.437.814-.295 1.599-.414 2.355-.356a4.396 4.396 0 012.096.713c.64.418 1.148 1 1.523 1.75.23.446.403.95.518 1.512.115.561.198 1.138.249 1.728.05.59.09 1.174.119 1.75a41.1 41.1 0 00.108 1.6c.043.575.068 1.112.075 1.608a4.462 4.462 0 01-.27 1.545c-.13.36-.375.623-.734.789-.36.166-.728.198-1.102.097a1.27 1.27 0 00-.584-.032 3.01 3.01 0 00-.561.183 6.73 6.73 0 01-2.117.702c-.72.108-1.47.084-2.247-.075-.649-.13-1.181-.37-1.6-.724a3.339 3.339 0 01-.928-1.22 3.514 3.514 0 01-.292-1.48 4.481 4.481 0 01.292-1.534 4.2 4.2 0 01.842-1.361 4.144 4.144 0 011.383-.984 5.475 5.475 0 012.085-.464 11.08 11.08 0 012.15.14zm-.173 3.63a1.311 1.311 0 00-.713-.659 2.379 2.379 0 00-1.016-.184c-.345.015-.658.108-.94.281s-.435.425-.464.756c-.029.274.115.497.432.67.317.173.785.166 1.405-.021.244-.072.482-.177.713-.314.23-.136.424-.313.583-.53zm8.815 5.099c0 .115.007.227.021.334.014.109.014.22 0 .336-.029.46-.184.838-.464 1.134-.281.295-.645.457-1.091.486-.462.028-.85-.087-1.167-.346-.317-.26-.511-.62-.583-1.08-.03-.187-.054-.375-.076-.562a2.928 2.928 0 01-.01-.562c.028-4.177.071-8.339.129-12.487 0-.605.162-1.084.486-1.437.324-.353.752-.508 1.286-.464.186.014.367.057.54.13.173.072.338.165.497.28a1.5 1.5 0 00.334.162.81.81 0 00.4.01 7.006 7.006 0 012.463.13c.778.188 1.512.548 2.204 1.08a5.68 5.68 0 011.555 1.87c.39.742.594 1.527.616 2.354.021.829-.173 1.653-.584 2.474-.41.821-1.083 1.556-2.02 2.204-1.325.922-2.837 1.383-4.536 1.383v2.57zm0-5.769c.417.101.864.097 1.339-.01a3.425 3.425 0 001.286-.584c.381-.28.68-.644.896-1.091.216-.446.274-.95.173-1.512-.072-.433-.216-.781-.432-1.048a2.411 2.411 0 00-1.675-.897 4.09 4.09 0 00-.94.022c-.273.043-.45.112-.529.205-.079.094-.111.285-.097.573.029.777.033 1.53.011 2.257a70.49 70.49 0 00-.032 2.085zm12.185 5.769c0 .115.007.227.021.334.014.109.014.22 0 .336-.03.46-.184.838-.464 1.134-.281.295-.645.457-1.092.486-.46.028-.85-.087-1.166-.346-.317-.26-.512-.62-.583-1.08-.03-.187-.055-.375-.076-.562a2.929 2.929 0 01-.01-.562c.028-4.177.071-8.339.129-12.487 0-.605.162-1.084.486-1.437.324-.353.752-.508 1.285-.464a1.7 1.7 0 01.54.13c.173.072.339.165.497.28.115.073.227.126.335.162a.81.81 0 00.4.01 7.006 7.006 0 012.463.13c.778.188 1.512.548 2.204 1.08a5.68 5.68 0 011.555 1.87c.39.742.594 1.527.616 2.354.021.829-.173 1.653-.584 2.474-.41.821-1.083 1.556-2.02 2.204-1.325.922-2.837 1.383-4.536 1.383v2.57zm0-5.769c.417.101.864.097 1.339-.01a3.425 3.425 0 001.285-.584c.382-.28.681-.644.897-1.091.216-.446.274-.95.173-1.512-.072-.433-.216-.781-.432-1.048a2.411 2.411 0 00-1.675-.897 4.09 4.09 0 00-.94.022c-.273.043-.45.112-.529.205-.079.094-.111.285-.097.573.029.777.033 1.53.011 2.257a70.49 70.49 0 00-.032 2.085zm15.317.994c-.59.475-1.21.781-1.858.918a3.981 3.981 0 01-1.869-.032 3.819 3.819 0 01-1.61-.886c-.474-.432-.828-.986-1.058-1.664-.173-.532-.295-1.101-.367-1.706a12.68 12.68 0 01.086-3.597c.101-.584.23-1.113.389-1.588a1.53 1.53 0 01.886-.919c.432-.18.864-.205 1.296-.075.461.144.792.407.994.788.202.382.216.803.043 1.264a7.544 7.544 0 00-.291 1.048c-.08.382-.134.767-.162 1.156-.044.792 0 1.419.13 1.88.129.46.302.792.518.993.216.202.46.278.734.227.274-.05.544-.198.81-.443a3.47 3.47 0 00.713-.972c.21-.403.364-.864.465-1.383.1-.532.176-1.116.227-1.75.05-.633.133-1.274.248-1.923.087-.518.314-.903.68-1.155a1.91 1.91 0 011.167-.357c.411.015.774.159 1.091.432.317.274.468.692.454 1.253 0 .274-.014.62-.043 1.037-.029.418-.061.85-.097 1.297-.036.446-.072.878-.108 1.296a44.49 44.49 0 00-.162 3.133 31.854 31.854 0 01-.13 2.311 18.218 18.218 0 01-.357 2.28 7.216 7.216 0 01-.766 2.02c-.289.518-.634.947-1.038 1.285s-.839.58-1.306.724a3.507 3.507 0 01-1.48.119 3.922 3.922 0 01-1.513-.53c-.418-.245-.695-.55-.832-.918a1.453 1.453 0 01.033-1.112c.173-.404.425-.703.756-.897.331-.194.72-.22 1.167-.076.46.173.832.199 1.112.076.281-.122.497-.349.649-.68.15-.332.255-.75.313-1.254a14.44 14.44 0 00.086-1.62zm16.246-10.132c.03.749.047 1.483.054 2.203a73.9 73.9 0 00.054 2.182c.331 0 .648-.003.95-.01.303-.008.598-.004.887.01.173.015.342.03.508.043.165.015.327.05.486.108.389.13.687.36.896.692.209.331.277.677.205 1.037a1.597 1.597 0 01-1.555 1.318 9.992 9.992 0 01-.81.01c-.267-.007-.537-.01-.81-.01-.116 0-.238.003-.368.01-.13.008-.273.019-.432.033-.029.547-.05 1.095-.065 1.642a63.418 63.418 0 01-.064 1.642c.273.043.597.065.972.065.374 0 .76-.004 1.156-.011a28.63 28.63 0 001.156-.044c.374-.021.691-.046.95-.075.418-.029.76.061 1.026.27.267.209.443.465.53.767.086.302.064.62-.065.95-.13.332-.375.605-.735.822a2.469 2.469 0 01-1.058.367c-.764.043-1.61.076-2.539.097-.929.022-1.775.04-2.539.054-.1 0-.198-.007-.291-.022a2.308 2.308 0 01-.292-.064c-.518-.115-.922-.346-1.21-.692-.288-.345-.425-.784-.41-1.318 0-.763.01-1.515.032-2.257.022-.742.04-1.494.054-2.258l.043-2.074a73.99 73.99 0 00-.043-4.386 30.65 30.65 0 00-.151-2.074c-.029-.302 0-.594.087-.875a1.92 1.92 0 01.399-.724c.18-.201.4-.36.66-.475a1.95 1.95 0 01.885-.151l2.927.076c.872.021 1.732.06 2.582.118.245.03.483.069.713.12.23.05.44.136.626.258.188.123.339.278.454.465.115.187.18.425.195.713.014.374-.094.71-.324 1.005-.23.295-.555.479-.973.55a5.611 5.611 0 01-1.199.087 16.207 16.207 0 01-1.188-.087 33.695 33.695 0 00-1.188-.107 7.99 7.99 0 00-1.178 0zm13.915 6.178c0-.965-.13-1.692-.39-2.182s-.58-.785-.961-.886c-.382-.1-.789-.017-1.22.249-.433.267-.815.68-1.146 1.242-.245.418-.59.68-1.037.789-.447.108-.879.04-1.296-.206-.418-.244-.68-.575-.789-.993-.108-.418-.032-.843.227-1.275a5.91 5.91 0 01.95-1.188c.72-.662 1.488-1.142 2.301-1.437.814-.295 1.6-.414 2.355-.356a4.396 4.396 0 012.096.713c.64.418 1.149 1 1.523 1.75.23.446.403.95.519 1.512.115.561.198 1.138.248 1.728.05.59.09 1.174.119 1.75.029.577.065 1.11.108 1.6.043.575.068 1.112.075 1.608a4.461 4.461 0 01-.27 1.545c-.129.36-.374.623-.734.789-.36.166-.727.198-1.102.097a1.27 1.27 0 00-.583-.032c-.173.036-.36.097-.562.183a6.73 6.73 0 01-2.117.702c-.72.108-1.47.084-2.247-.075-.648-.13-1.181-.37-1.599-.724a3.34 3.34 0 01-.929-1.22 3.513 3.513 0 01-.291-1.48 4.481 4.481 0 01.291-1.534 4.2 4.2 0 01.843-1.361 4.13 4.13 0 011.382-.984 5.475 5.475 0 012.085-.464c.742-.022 1.459.025 2.15.14zm-.174 3.63a1.311 1.311 0 00-.713-.659 2.379 2.379 0 00-1.015-.184c-.346.015-.66.108-.94.281s-.436.425-.464.756c-.03.274.114.497.432.67.316.173.784.166 1.404-.021.245-.072.482-.177.713-.314.23-.136.424-.313.583-.53zm9.463-.367c-.332-.274-.663-.53-.994-.767a55.413 55.413 0 01-.972-.713c-.317-.238-.62-.487-.908-.746a4.775 4.775 0 01-.756-.864 3.196 3.196 0 01-.518-1.026 3.327 3.327 0 01-.13-1.059c.014-.352.083-.702.205-1.048.122-.345.278-.67.465-.972.288-.446.63-.842 1.026-1.188s.82-.648 1.275-.907c.453-.26.929-.487 1.426-.68.496-.195.982-.364 1.458-.509.46-.143.864-.173 1.21-.086.345.086.619.238.82.454.202.216.336.471.4.767.065.295.05.583-.043.864s-.27.529-.53.745c-.258.216-.597.353-1.015.41a5.497 5.497 0 00-.713.174 6.217 6.217 0 00-1.739.842 2.27 2.27 0 00-.604.594.929.929 0 00-.152.67c.036.237.198.472.486.702.288.245.58.468.875.67.295.202.584.407.864.616.281.209.551.432.81.67.26.237.497.5.714.788.302.418.547.85.734 1.296.187.447.273.93.26 1.448a3.179 3.179 0 01-.27 1.188 3.35 3.35 0 01-.67.994 3.208 3.208 0 01-1.005.691 3.666 3.666 0 01-1.275.302c-.518.03-1.04.03-1.566 0a58.277 58.277 0 00-1.588-.064.482.482 0 01-.097-.011.51.51 0 00-.098-.01 1.76 1.76 0 01-1.026-.638 1.497 1.497 0 01-.313-1.113c.043-.417.223-.76.54-1.026.317-.266.706-.392 1.167-.378l.875.043.875.043c.518.03.842-.064.972-.28.13-.217-.029-.512-.475-.886zm8.878-2.917c-.259 0-.5.004-.723.01-.223.008-.45.004-.68-.01a73.056 73.056 0 01-.465-.043 2.259 2.259 0 01-.443-.087c-.374-.13-.651-.338-.832-.626a1.55 1.55 0 01-.226-.972c.043-.39.173-.684.388-.886a1.78 1.78 0 01.778-.421c.303-.08.623-.123.962-.13.338-.007.644-.025.918-.054.086 0 .176-.003.27-.01a8.88 8.88 0 00.31-.033c.115-1.037.229-2.049.344-3.036.114-.986.243-1.97.386-2.949.043-.273.129-.518.258-.734.129-.216.293-.39.494-.519.2-.13.418-.212.654-.248.236-.036.483-.018.74.054.39.115.692.32.908.615.216.296.302.667.26 1.113a43.62 43.62 0 01-.303 2.83c-.13.922-.245 1.851-.346 2.787.202 0 .385-.003.551-.01a3.69 3.69 0 01.486.01c.26.015.515.05.767.108.252.058.476.148.67.27.195.123.353.281.475.476.122.194.191.435.206.723.014.332-.076.63-.27.897a1.597 1.597 0 01-.79.573 1.58 1.58 0 01-.431.108l-.432.043a7.46 7.46 0 01-.703.01 25.82 25.82 0 00-.766-.01c-.03.807-.083 1.65-.163 2.528a31.05 31.05 0 00-.097 3.11c0 .419-.071.782-.215 1.092-.142.31-.4.537-.772.68-.344.13-.662.162-.955.097a1.569 1.569 0 01-.752-.388 2.066 2.066 0 01-.494-.735 2.334 2.334 0 01-.182-.897c.014-1.109.046-2.08.096-2.916.05-.835.09-1.642.119-2.42zm11.97 2.506c.057.36.216.652.475.875.26.224.565.378.918.465a3.18 3.18 0 001.113.064 2.77 2.77 0 001.102-.367c.245-.144.49-.248.734-.313.245-.065.511-.061.8.01a1.7 1.7 0 01.745.422c.195.195.331.414.41.659.08.245.087.5.022.767a1.656 1.656 0 01-.421.745 3.77 3.77 0 01-1.07.789 4.973 4.973 0 01-1.285.421c-1.138.216-2.164.194-3.079-.065-.914-.259-1.692-.687-2.333-1.285a6.05 6.05 0 01-1.48-2.16 7.014 7.014 0 01-.518-2.69c0-.922.136-1.79.41-2.604a6.43 6.43 0 011.178-2.128 6 6 0 011.858-1.47c.727-.373 1.544-.59 2.452-.647 1.037-.057 1.908.108 2.614.497s1.238.896 1.599 1.523c.36.627.55 1.318.572 2.074a4.514 4.514 0 01-.432 2.106c-.31.649-.792 1.192-1.447 1.632-.656.439-1.473.666-2.452.68-.39.015-.786.018-1.189.011a75.1 75.1 0 00-1.296-.01zm-.216-3.24a24.916 24.916 0 002.01.086c.546 0 .971-.115 1.274-.346.302-.23.472-.482.508-.756.035-.273-.062-.526-.292-.756-.23-.23-.605-.346-1.124-.346-.273 0-.54.058-.799.173-.26.115-.493.27-.702.464a3.196 3.196 0 00-.875 1.48zm11.601-3.046c.706-.75 1.419-1.283 2.14-1.6.72-.316 1.404-.457 2.052-.421a3.628 3.628 0 011.782.573c.54.345.99.814 1.35 1.404.36.59.609 1.278.746 2.063.136.786.119 1.631-.054 2.539a1.63 1.63 0 01-.368.777 1.698 1.698 0 01-.658.476 1.9 1.9 0 01-.81.13 1.493 1.493 0 01-.8-.281c-.533-.36-.764-.857-.691-1.491a4.54 4.54 0 00-.087-1.405c-.1-.446-.267-.802-.497-1.069-.23-.266-.53-.41-.896-.432-.368-.022-.803.148-1.307.508-.375.288-.641.702-.8 1.242a7.092 7.092 0 00-.27 1.76 10.39 10.39 0 00.108 1.891 14.6 14.6 0 00.314 1.588c.057.216.1.44.13.67.028.446-.062.828-.27 1.145-.21.317-.516.533-.919.648a2.207 2.207 0 01-1.243-.01c-.424-.123-.723-.371-.896-.746a2.373 2.373 0 01-.184-.67 5.969 5.969 0 00-.14-.713 29.975 29.975 0 01-.778-4.45l-.432-4.45c-.043-.476.08-.883.367-1.221.288-.339.67-.537 1.145-.595.432-.057.825.047 1.178.314.353.266.572.63.659 1.09.014.116.032.227.054.335l.075.4z" fill="#fff"/><path class="st3" d="M29.033 57.201c.97 7.4-2.21 11.514-8.014 12.274-5.804.76-10.917-1.734-11.885-9.134s2.573-16.906 8.377-17.666c5.805-.76 10.554 7.126 11.522 14.526z"/><path class="st4" d="M42.442 41.026a2.9 2.9 0 00-4.306-1.666 2.9 2.9 0 10-5.634 1.35c.018.063.041.123.063.184a2.908 2.908 0 00-.46.09 2.9 2.9 0 00.242 5.631 2.9 2.9 0 003.633 3.42 2.893 2.893 0 001.89-1.715c.699.51 1.616.705 2.511.448a2.9 2.9 0 001.26-4.828 2.898 2.898 0 00.8-2.914zm-5.043 5.106a2.595 2.595 0 11-1.436-4.988 2.595 2.595 0 011.436 4.988zM10.753 25.369a2.508 2.508 0 00-3.723-1.44 2.508 2.508 0 10-4.871 1.168c.015.053.035.105.054.157a2.508 2.508 0 00-.188 4.947A2.508 2.508 0 006.8 31.675c.604.441 1.397.61 2.171.387a2.508 2.508 0 001.089-4.174 2.506 2.506 0 00.693-2.52zm-4.36 4.414A2.244 2.244 0 115.15 25.47a2.244 2.244 0 011.241 4.313z"/><path class="st3" d="M204.008 57.201c-.969 7.4 2.21 11.514 8.014 12.274 5.804.76 10.917-1.734 11.885-9.134.969-7.401-2.573-16.906-8.377-17.666-5.805-.76-10.554 7.126-11.522 14.526z"/><path class="st4" d="M192.785 44.497a2.791 2.791 0 001.212 4.645c.862.248 1.744.06 2.416-.43a2.784 2.784 0 001.818 1.65 2.791 2.791 0 003.497-3.29 2.789 2.789 0 00-.21-5.506c.021-.059.043-.116.06-.177a2.791 2.791 0 10-5.42-1.3 2.791 2.791 0 00-3.372 4.407zm2.373-.982a2.497 2.497 0 114.8 1.382 2.497 2.497 0 01-4.8-1.382zm22.166-19.372a2.256 2.256 0 002.932 3.407 2.256 2.256 0 004.295-1.326 2.254 2.254 0 00-.169-4.45c.017-.047.035-.094.05-.143a2.256 2.256 0 10-4.382-1.05 2.256 2.256 0 00-2.725 3.562zm1.918-.793a2.018 2.018 0 113.879 1.116 2.018 2.018 0 01-3.879-1.116z"/></svg>