<svg version="1.1" id="Layer_1" xmlns="http://www.w3.org/2000/svg" x="0" y="0" viewBox="0 0 330.094 66.76" xml:space="preserve"><style>.st0{fill:#a4ffc4}.st1{fill:#26bfb8}.st2{fill:#d9ffee}</style><path class="st0" d="M55.445 22.458a11.252 11.252 0 00-.54-.54 11.247 11.247 0 00-.541-.542 11.252 11.252 0 00-.541-.54 11.243 11.243 0 00-.541-.541c-3.777-4.074-10.818-5.31-15.045-7.611a4.17 4.17 0 01-.224-1.37c0-2.671 2.617-4.142 5.505-4.142a8.7 8.7 0 013.23.6c.2.734.185 1.534-.098 2.368l3.245 3.245 1.144.872 5.069-5.232-.541-.541-.54-.54-.541-.542-.541-.54-.541-.541-.54-.54-.025.11-.047-.037.071-.074-1.144-.872c-1.58 1.635-5.396-2.834-12.045-2.834-8.012 0-12.699 3.815-12.699 9.701 0 2.425 1.085 4.285 2.752 5.835.173.184.352.365.54.54.174.185.353.366.542.541.173.184.351.365.54.541.173.184.352.365.541.54.173.185.352.366.54.542 3.443 3.66 10.144 5.594 14.527 8.634a6.549 6.549 0 01.947 3.429c0 3.324-2.889 5.994-7.14 5.994-1.97 0-3.62-.356-4.919-.929a3.156 3.156 0 01-.12-.84c0-3.16 3.706-2.67 5.286-1.253.968-2.369.295-4.957-1.579-6.612a6.138 6.138 0 00-.54-.54 6.138 6.138 0 00-.541-.542 6.138 6.138 0 00-.541-.54 6.14 6.14 0 00-.54-.541 6.14 6.14 0 00-.542-.54c-1.194-1.355-3.062-2.269-5.447-2.269-4.47 0-6.213 3.761-6.213 6.432 0 2.295 1.038 4.175 2.645 5.662.172.186.352.366.54.541a10 10 0 00.542.54c.172.186.352.367.54.542a10 10 0 00.541.54c.172.186.352.367.541.541 3.092 3.333 8.962 4.906 13.265 4.906 7.63 0 15.424-4.85 15.424-13.08 0-3.29-1.242-5.623-3.12-7.39a11.252 11.252 0 00-.54-.541zm29.997-2.536a13.795 13.795 0 00-.541-.54 13.788 13.788 0 00-.54-.542 13.788 13.788 0 00-.542-.54 13.795 13.795 0 00-.54-.541 13.788 13.788 0 00-.541-.54c-2.476-2.616-5.964-4.245-9.818-4.245-3.379 0-5.777 1.2-8.72 1.2-1.635.053-2.398-.383-3.434-1.2l-1.144.872c1.09 1.58 1.199 2.126 1.199 4.415v24.852c0 1.962-.273 2.943-1.254 4.415l3.245 3.244.006-.124.049.037-.055.087 1.144.872c.709-.654 1.472-.817 3.543-.817h1.417c2.07 0 2.997.218 3.542.817l1.145-.872-.381-.6c-.655-1.035-.873-2.125-.873-3.814v-3.434c1.2.381 2.508.545 3.816.545 7.466 0 13.57-6.104 13.57-13.57a13.68 13.68 0 00-4.293-9.977zm-9.29 17.035c.165.195.346.376.54.54.158.187.33.36.513.52-1.378.488-2.837.79-4.34.79-.173 0-.344-.013-.516-.02v-20.77c.873-.272 2.017-.545 3.76-.49a6.56 6.56 0 012.606.621 5.77 5.77 0 01.473 2.293c0 4.033-4.742 8.066-4.742 12.753 0 1.517.661 2.875 1.706 3.763zM149.5 19.686a6.027 6.027 0 00-.542-.541 6.025 6.025 0 00-.54-.54 6.027 6.027 0 00-.541-.542 6.028 6.028 0 00-.54-.54 6.028 6.028 0 00-.542-.541c-1.736-1.982-6.253-4.008-11.962-4.008-5.831 0-10.137 2.235-12.263 3.815l.6.499-.059.042.6.499-.059.042.6.498-.06.043.6.498-.058.042.6.499-.06.042.6.499-.059.042 3.759 3.126c-4.012.322-8.42 2.51-8.42 7.963 0 2.741.997 4.908 2.677 6.444.171.189.352.368.541.54.171.19.352.369.541.542.171.188.352.368.54.54.172.189.353.369.542.541.17.189.351.368.54.54 1.886 2.082 4.88 3.2 8.436 3.2 3.27 0 6.759-1.036 9.484-1.036 2.234 0 3.597.326 4.196 1.035l1.09-.872c-.98-1.417-1.253-2.07-1.253-4.415V24.34c.054-2.289 1.035-3.16 1.798-3.815a5.52 5.52 0 00-.787-.838zM136.958 38.37c-.471.074-.942.147-1.409.215a3.13 3.13 0 00.021-.35c0-3.051-3.107-4.904-3.107-7.357 0-2.725 2.507-2.997 3.38-2.997.362 0 .737.047 1.115.13v10.36zm0-13.407a11.748 11.748 0 00-5.89-1.836c.427-3.629 2.743-5.329 4.665-5.329.25 0 .489.031.722.078.326.931.503 2.02.503 3.218v3.87zm43.464 6.793a5.452 5.452 0 00-.54-.54 5.452 5.452 0 00-.541-.541 5.452 5.452 0 00-.541-.541 5.451 5.451 0 00-.54-.54 5.452 5.452 0 00-.542-.542 5.498 5.498 0 00-2.499-1.635c.764 2.07-.545 4.415-3.106 4.415-1.033 0-2.07-.624-3.133-1.537a45.94 45.94 0 00-.835-.842c-.179-.183-.36-.363-.54-.54-.18-.183-.36-.364-.541-.542-.18-.182-.36-.362-.541-.54-.18-.183-.36-.363-.54-.541l-.378-.38c1.938-.558 4.294.427 7.027.427 3.652 0 6.486-2.562 6.486-5.56 0-1.538-.75-2.958-1.904-3.98a6.12 6.12 0 00-.54-.54 6.123 6.123 0 00-.541-.541 6.123 6.123 0 00-.541-.541 6.125 6.125 0 00-.54-.54 6.12 6.12 0 00-.542-.542c-1.125-1.279-2.823-2.12-4.632-2.12-2.371 0-4.373 1.18-6.075 2.963v-5.33c0-1.69.218-2.78.872-3.816l.382-.6-.541-.54-.54-.541-.542-.54v-.001l-.54-.54-.541-.541-.54-.541-1.145-.872c-.545.6-1.472.817-3.543.817h-1.417c-2.071 0-2.834-.163-3.543-.817l-1.144.872c.98 1.472 1.253 2.452 1.253 4.415v27.577c0 1.962-.272 2.943-1.253 4.415l3.245 3.244 1.144.872c.709-.654 1.471-.817 3.542-.817h1.417c2.072 0 2.998.218 3.543.817l1.145-.872-.382-.6c-.654-1.035-.872-2.125-.872-3.815v-9.92c1.974 3.482 2.68 8.252 5.272 10.575.17.194.352.372.54.541.17.194.352.372.541.54.17.195.352.372.541.542a6.4 6.4 0 00.54.54c.17.194.353.372.541.541 1.032 1.177 2.388 1.928 4.342 1.928 3.216 0 6.268-2.67 6.268-7.303 0-1.647-.676-3.292-1.966-4.41zm-10.91-11.319c-.354 1.293-1.666 1.857-2.74 1.857-.141 0-.284-.008-.429-.018.947-1.006 2.026-1.732 3.169-1.839zM120.37 32.9l-.541-.54-.541-.541-.541-.54v-.001l-.54-.54-.542-.541-.065.078c.022-.027.041-.051.066-.078l-.535-.408h3.289c0-3.87-1.643-7.371-4.263-9.85a13.652 13.652 0 00-.54-.54 13.658 13.658 0 00-.541-.54 13.658 13.658 0 00-.541-.542 13.658 13.658 0 00-.541-.54 13.652 13.652 0 00-.54-.541c-2.479-2.62-5.98-4.262-9.85-4.262-7.575 0-13.68 6.104-13.68 13.57 0 3.951 1.645 7.452 4.255 9.925.175.185.355.365.54.54.175.186.356.366.541.541.175.186.356.366.54.54.176.186.357.366.542.542.175.185.355.365.54.54a13.68 13.68 0 009.967 4.297c5.723 0 11.282-3.161 12.699-7.685.218-.708.49-1.362 1.362-2.343l-.54-.54zm-10.39.839c-.915 2.602-2.684 4.563-5.305 5.058a4.958 4.958 0 00.539-2.25c0-2.56-1.254-4.632-2.453-6.758h6.701l-.462.353.436.654c.545.872.98 1.69.545 2.943zm-9.311-8.502a5.959 5.959 0 01-.197-1.443c0-3.76 2.889-6.158 5.832-6.158.916 0 1.729.162 2.45.458.938 1.893 1.4 4.374 1.5 7.143h-9.585zm13.508 4.905h-1.362c-.862 0-1.525-.033-2.073-.353h5.174c-.443.25-.966.353-1.739.353z"/><path class="st1" d="M34.769 8.069c0-2.67 2.616-4.142 5.504-4.142 4.306 0 7.522 2.834 6.377 6.213l1.145.872 5.068-5.232-1.144-.872c-1.58 1.635-5.396-2.834-12.045-2.834-8.012 0-12.699 3.815-12.699 9.701 0 10.682 20.929 10.464 20.929 20.602 0 3.324-2.889 5.995-7.14 5.995-5.287 0-8.284-2.562-8.284-5.015 0-3.16 3.706-2.67 5.287-1.253 1.58-3.87-1.2-8.339-6.486-8.339-4.47 0-6.213 3.761-6.213 6.432 0 6.866 9.265 10.028 15.37 10.028 7.63 0 15.423-4.85 15.423-13.08 0-13.571-21.092-10.9-21.092-19.076zm38.151 4.905c-3.379 0-5.777 1.2-8.72 1.2-1.635.054-2.398-.383-3.434-1.2l-1.144.872c1.09 1.58 1.199 2.126 1.199 4.415v24.852c0 1.962-.273 2.943-1.254 4.415l1.145.872c.708-.654 1.471-.818 3.542-.818h1.417c2.071 0 2.998.218 3.543.818l1.144-.872-.381-.6c-.654-1.035-.872-2.125-.872-3.815V39.68c1.199.38 2.507.545 3.815.545 7.467 0 13.57-6.105 13.57-13.571 0-7.576-6.103-13.68-13.57-13.68zm4.796 24.853c-1.526.599-3.161.98-4.85.98-1.309 0-2.562-.217-3.761-.6V14.774c.872-.273 2.016-.545 3.76-.491 2.998.055 6.323 2.452 6.323 6.159 0 4.033-4.742 8.066-4.742 12.753 0 2.18 1.362 4.033 3.27 4.633zm36.461-7.685h-1.362c-1.2 0-2.017-.055-2.67-.872l-1.145.872.436.654c.545.872.98 1.69.545 2.943-1.036 2.943-3.161 5.069-6.377 5.178-1.744 0-3.379-.382-4.905-.982 1.853-.6 3.27-2.452 3.27-4.632 0-2.561-1.253-4.633-2.452-6.758h17.658c0-7.467-6.104-13.571-13.57-13.571-7.576 0-13.68 6.104-13.68 13.57 0 7.686 6.212 13.68 13.68 13.68 5.722 0 11.281-3.16 12.698-7.684.218-.708.49-1.363 1.362-2.343l-1.144-.873c-.6.6-1.2.818-2.344.818zm-11.118-15.75c5.014 0 6.977 4.74 7.194 10.845H98.808c-.872-1.58-1.58-3.161-1.58-4.687 0-3.76 2.888-6.159 5.831-6.159zm31.774-1.418c-5.831 0-10.137 2.235-12.263 3.815l5.178 4.306c0-4.47 2.616-6.54 4.742-6.54 2.67 0 4.469 2.724 4.469 6.54v3.87c-1.635-1.036-3.76-1.854-6.322-1.854-4.251 0-9.483 2.071-9.483 8.012 0 5.832 4.469 9.102 10.573 9.102 3.27 0 6.758-1.036 9.483-1.036 2.234 0 3.597.327 4.196 1.036l1.09-.872c-.98-1.418-1.253-2.071-1.253-4.415V21.095c.055-2.29 1.036-3.161 1.799-3.816-1.526-2.07-6.214-4.305-12.209-4.305zm2.126 25.398c-1.744.272-3.488.545-5.014.545-1.58 0-2.616-.11-3.434-.382 2.29.218 3.815-1.798 3.815-3.543 0-3.052-3.106-4.905-3.106-7.357 0-2.725 2.507-2.998 3.379-2.998 1.471 0 3.16.763 4.36 1.69v12.045zm38.261-10.955c.763 2.07-.546 4.415-3.107 4.415-3.162 0-6.377-5.832-10.192-8.012 2.017-.872 4.524.272 7.467.272 3.651 0 6.485-2.561 6.485-5.559s-2.834-5.56-5.995-5.56c-4.087 0-7.085 3.489-9.32 7.577V7.36c0-1.69.219-2.78.872-3.815l.382-.6-1.144-.871c-.545.6-1.472.817-3.543.817h-1.417c-2.071 0-2.834-.163-3.543-.817l-1.144.872c.98 1.472 1.253 2.452 1.253 4.415v27.577c0 1.962-.272 2.943-1.253 4.415l1.144.872c.71-.654 1.472-.818 3.543-.818h1.417c2.07 0 2.998.218 3.543.818l1.144-.872-.382-.6c-.653-1.035-.872-2.125-.872-3.815V24.91c6.268 3.215 4.47 15.315 12.318 15.315 3.215 0 6.267-2.671 6.267-7.303 0-2.344-1.362-4.688-3.924-5.505zm-8.666-10.246c1.471 0 3.052.98 3.052 2.561 0 1.799-1.58 2.562-2.835 2.562-1.58 0-3.378-.763-6.213.545 1.254-2.562 3.488-5.668 5.996-5.668z"/><path class="st2" d="M28.44 11.555s.818 5.508 10.406 8.776c0 0-9.237-6.554-8.184-12.868 0 0-2.69 1.052-2.222 4.092zm22.215-5.028l-2.397 2.631s-.116-3.274-2.104-4.326l4.501 1.695zm-23.092 20.67s1.695-2.43 4.735-1.786c3.04.643 3.684 2.63 3.684 3.683 0 0-2.748-3.099-8.419-1.897zm20.842-8.32s10.333 4.429 2.923 15.522c0 0 3.537-9.208-2.923-15.522zm14.147 0v20.477l1.783-3.859V16.378zm20.024 1.453s1.987 4.907-2.485 15.165c0 0 8.067-7.273 2.485-15.164zm13.679 15.165s-8.067-5.551-2.572-15.681c0 0-1.036 9.623 2.572 15.681zm12.628-20.198s4.91 3.627 5.612 9.94h1.421s-.018-7.251-7.033-9.94zm4.447 16.48s-1.056 4.222-4.915 6.32c0 0 4.804-1.088 6.782-6.32h-1.868zm11.922-5.236s-2.572 1.02-2.338 5.236 3.39 5.735 3.39 5.735-3.61-4.38-1.052-10.97zm17.071-8.742v18.193l1.637 1.52V18.22zm-17.305-.629l1.754 1.4s.125-1.455 1.739-3.273c0 0-2.09.24-3.493 1.874zm28.997-11.11v30.634l1.637-3.46V5.24zm16.837 8.331s4.648 3.408.176 7.903c0 0 3.496-.96 3.332-4.074s-3.508-3.829-3.508-3.829zm.79 24.195s4.121.241 5.524-2.915c1.403-3.157-.35-5.882-.35-5.882s1.052 5.486-5.174 8.797z"/><path class="st0" d="M235.518 19.905a13.83 13.83 0 00-.54-.54 13.836 13.836 0 00-.541-.541 13.836 13.836 0 00-.541-.54 13.836 13.836 0 00-.54-.542 13.836 13.836 0 00-.542-.54c-2.477-2.62-5.979-4.263-9.849-4.263-7.576 0-13.68 6.105-13.68 13.571a13.65 13.65 0 004.292 9.94c.175.185.355.366.54.54.176.186.356.366.541.542.175.185.356.365.54.54.176.186.356.366.542.541.175.185.355.366.54.541a13.627 13.627 0 009.93 4.28c7.466 0 13.57-6.104 13.57-13.68 0-3.87-1.642-7.37-4.262-9.849zm-11.47 18.83a4.957 4.957 0 00.527-2.222c0-4.687-4.742-8.72-4.742-12.753 0-3.178 2.765-5.43 5.168-6.007a5.036 5.036 0 00-.51 2.217c0 4.687 4.741 8.72 4.741 12.753 0 3.186-2.776 5.44-5.183 6.012z"/><path class="st0" d="M208.183 38.542l-1.623-1.622-.927-.709a5.02 5.02 0 01-.624.499V19.454c.461 0 2.446.005 3.838 1.131.048.06.1.117.145.182l.54.54h.545l-.054-4.796-.54-.54-.542-.541-.54-.541-.541-.54-.54-.541h-.001l-.54-.541h-.546c-.33.431-.761.747-1.224.98v-7.11l-.541-.54-.54-.541-.542-.541-.54-.541-.541-.54-.54-.542h-.546c-.763 3.38-4.414 6.486-8.339 6.486.545 1.471.6 3.052.6 4.524h-2.453v1.308l2.163 2.163h.29v13.315c0 4.469-1.145 5.613-2.016 6.377l3.244 3.244.076-.108.025.018-.1.09c1.416 1.036 3.105 2.126 7.03 2.126 3.87 0 7.03-2.017 8.066-3.27l-1.622-1.623z"/><path class="st1" d="M206.288 18.063h.545l-.055-4.796h-.545c-1.253 1.635-3.924 1.635-4.469 1.635V3.892h-.545c-.763 3.38-4.414 6.486-8.339 6.486.545 1.471.6 3.052.6 4.524h-2.453v1.308h2.453v15.478c0 4.47-1.145 5.613-2.016 6.377 1.416 1.035 3.106 2.125 7.03 2.125 3.87 0 7.03-2.017 8.066-3.27l-.927-.709c-.762.71-1.47 1.036-2.343 1.036-1.035 0-1.526-.926-1.526-2.126V16.21c.545 0 3.216 0 4.524 1.853zm16.677-5.123c-7.576 0-13.68 6.104-13.68 13.57 0 7.521 6.104 13.68 13.68 13.68 7.467 0 13.571-6.104 13.571-13.68 0-7.466-6.104-13.57-13.571-13.57zm-.054 25.942c-1.745 0-3.38-.327-4.851-.981 1.853-.6 3.27-2.453 3.27-4.633 0-4.686-4.742-8.72-4.742-12.753 0-3.706 3.76-6.158 6.323-6.158 1.689 0 3.324.381 4.85.98-1.907.6-3.27 2.453-3.27 4.633 0 4.687 4.741 8.72 4.741 12.753 0 3.707-3.76 6.159-6.321 6.159z"/><path class="st2" d="M194.89 13.816v20.476l1.782-3.859V11.316zm35.8 3.32s4.443 3.02 4.443 9.483-4.443 9.572-4.443 9.572 6.08-8.646 0-19.055zm-19.526 6.528s-.994 8.663 4.443 12.527c0 0 3.625-1.18 2.338-4.449-1.286-3.267-5.1-.385-6.781-8.078z"/><path class="st0" d="M280.766 17.656l.38-.6-.54-.54-.54-.541-.541-.54v-.001l-.541-.54-.541-.541-.54-.541-1.145-.873c-.545.6-1.471.818-3.543.818h-1.417c-2.07 0-2.834-.163-3.542-.818l-1.145.873c.981 1.471 1.254 2.452 1.254 4.414v20.057c-.868.108-2.384.593-4.386.598-.225-1.072-.327-2.416-.327-4.057V21.47c0-1.69.218-2.78.872-3.815l.382-.6-.541-.54-.54-.541-.542-.54v-.001l-.54-.54-.541-.541-.54-.541-1.145-.873c-.545.6-1.472.818-3.543.818h-1.417c-2.071 0-2.834-.163-3.543-.818l-1.144.873c.98 1.471 1.253 2.452 1.253 4.414V31.58c0 1.744 0 3.652-2.507 4.578l3.245 3.245.078-.063.025.02c-.036.013-.066.03-.103.043 4.251 3.597 11.064 4.033 14.28 4.033 2.997 0 6.103-1.036 8.72-1.036 1.853 0 3.378.164 4.141 1.036l1.145-.872c-.926-1.418-1.253-2.126-1.253-4.415V21.471c0-1.69.218-2.78.872-3.815zm26.716 11.981a7.575 7.575 0 00-.541-.541 7.569 7.569 0 00-.54-.54 7.569 7.569 0 00-.542-.542 7.569 7.569 0 00-.54-.54 7.565 7.565 0 00-.541-.541c-2.761-3.056-8.2-3.78-11.715-5.267-.017-.135-.035-.27-.035-.413 0-2.017 1.581-3.216 3.434-3.216.893 0 1.673.187 2.363.494.465.878.784 1.789.987 2.584l3.244 3.244 4.143-2.725c-.388-.802-.968-1.537-1.685-2.192a8.633 8.633 0 00-.54-.541 8.614 8.614 0 00-.541-.54 8.614 8.614 0 00-.54-.542 8.614 8.614 0 00-.542-.54 8.614 8.614 0 00-.54-.541c-2.137-2.33-5.974-3.799-9.594-3.799-4.578 0-9.919 2.835-9.919 8.448 0 2.135.871 3.684 2.197 4.888.17.188.35.368.541.54.17.188.35.369.54.541.171.188.351.368.542.541.17.188.35.368.54.54.17.189.35.369.541.542 2.584 2.853 7.623 3.893 10.968 5.495.03.173.045.352.045.539 0 2.016-1.907 3.324-4.469 3.324-1.387 0-2.684-.507-3.863-1.313a22.124 22.124 0 01-1.612-2.527l-.027.025-.454-.462-.06-.104-.022.02-.471-.477-.048-.084-.018.017-.487-.495-.035-.063-.014.013-.503-.512c-.008-.013-.017-.027-.024-.041l-.01.008-.519-.528-.012-.021-.004.004-.537-.545-4.742 4.414 3.245 3.245.111-.112a.143.143 0 01.006.004l-.117.108c4.524 3.052 8.502 4.524 13.462 4.524 7.848 0 11.772-4.905 11.772-8.503 0-2.383-.902-4.051-2.278-5.295z"/><path class="st1" d="M277.52 14.411l.382-.6-1.144-.872c-.545.6-1.471.818-3.543.818h-1.417c-2.07 0-2.834-.163-3.542-.818l-1.145.873c.981 1.471 1.254 2.452 1.254 4.414v20.057c-.872.108-2.398.599-4.415.599-2.616 0-3.543-2.289-3.543-7.303V18.226c0-1.69.219-2.78.873-3.815l.381-.6-1.144-.872c-.545.6-1.472.818-3.543.818h-1.417c-2.071 0-2.834-.163-3.543-.818l-1.144.873c.98 1.471 1.253 2.452 1.253 4.414V31.58c0 1.744 0 3.652-2.507 4.578 4.251 3.597 11.064 4.033 14.28 4.033 2.997 0 6.104-1.035 8.72-1.035 1.853 0 3.379.163 4.142 1.035l1.144-.872c-.926-1.417-1.253-2.125-1.253-4.415V18.226c0-1.69.218-2.78.872-3.815zm12.264 3.597c0-2.016 1.58-3.216 3.433-3.216 4.088 0 5.941 3.761 6.595 6.323l4.142-2.725c-1.58-3.27-6.322-5.45-10.737-5.45-4.578 0-9.919 2.834-9.919 8.447 0 9.156 15.914 7.63 15.914 13.626 0 2.016-1.907 3.324-4.469 3.324-3.76 0-6.867-3.706-8.72-7.085l-4.742 4.414c4.524 3.053 8.503 4.524 13.462 4.524 7.848 0 11.772-4.905 11.772-8.502 0-10.3-16.731-7.358-16.731-13.68z"/><path class="st2" d="M273.192 17.765v18.193l1.637 1.52V18.185zm-19.819-1.685v5.961s2.192-4.382 4.297-5.96h-4.297zm33.323 1.056s-2.77 2.452-1.602 5.726c1.17 3.274 6.104 4.502 6.104 4.502s-6.139-4.846-4.502-10.228zm13.914 8.532s4.748 6.21-.935 11.81c0 0 4.031-.432 5.378-4.677 1.347-4.246-4.443-7.133-4.443-7.133z"/><g><path class="st1" d="M3.283 34.393c3.632 5.584 9.655 4.498 12.596 2.508 3.49-2.362 6.736-6.847 3.104-12.431S7.012 13.893 2.727 16.68s-3.076 12.129.556 17.713z"/><path class="st0" d="M6.939 23.086l6.293.376 1.02-4a22.216 22.216 0 00-1.893-1.31l-.777 3.05-6.098-.363L3.18 26.92l-2.89-.353c.13.745.302 1.494.512 2.236l3.796.464 2.341-6.182z"/><circle class="st0" cx="12.208" cy="31.054" r="1.399"/><circle class="st0" cx="9.693" cy="18.678" r="1.399"/><circle class="st0" cx="1.696" cy="24.088" r="1.399"/><path class="st0" d="M10.186 28.152l6.293.375 1.414-5.545a21.04 21.04 0 00-1.745-1.888l-1.319 5.174-6.098-.364-2.304 6.082-4.71-.576c.342.81.73 1.588 1.156 2.315l4.972.609 2.341-6.182zm-4.493 7.309a1.398 1.398 0 00-1.924-.385 9.216 9.216 0 001.947 1.916 1.398 1.398 0 00-.023-1.53zm13.062-8.836c.34.503.95.709 1.506.566a10.055 10.055 0 00-1.142-2.5 1.398 1.398 0 00-.364 1.934z"/></g><g><path class="st1" d="M311.351 7.816c-3.918 5.387-.752 10.625 2.157 12.66 3.453 2.418 8.802 3.847 12.72-1.54 3.918-5.387 5.602-14.96 1.469-17.967-4.133-3.006-12.428 1.46-16.346 6.847z"/><path class="st0" d="M323.217 7.192l1.898 6.012 4.1-.477c.221-.741.406-1.49.547-2.235l-3.127.364-1.838-5.826-6.504.021-.703-2.826c-.65.388-1.288.816-1.905 1.277l.922 3.712 6.61-.022z"/><circle class="st0" cx="317.658" cy="14.96" r="1.399"/><circle class="st0" cx="328.318" cy="8.189" r="1.399"/><circle class="st0" cx="320.409" cy="2.653" r="1.399"/><path class="st0" d="M319.646 12.034l1.897 6.012 5.685-.66c.42-.728.8-1.503 1.14-2.305l-5.304.617-1.838-5.826-6.504.021-1.145-4.605a19.849 19.849 0 00-1.748 1.906l1.207 4.862 6.61-.022zm-8.432-1.585a1.398 1.398 0 00-.328-1.935 9.217 9.217 0 00-1.094 2.503 1.398 1.398 0 001.422-.568zm12.919 9.043a1.395 1.395 0 00.01 1.609c.667-.505 1.313-1.152 1.927-1.96a1.398 1.398 0 00-1.937.351z"/></g><path class="st1" d="M314.376 37.908s-1.566-5.41 5.425-9.348c0 0 .435 6.72-5.425 9.348zM171.752 9.167s-.28-5.626 7.43-7.851c0 0-1.122 6.64-7.43 7.85zm-81.75 4.651s-5.296.392-7.567-6.823c0 0 6.282.907 7.567 6.823zm146.414-4.112s.382-4.487 6.73-5.422c0 0-1.603 5.14-6.73 5.422zm-214.929.132s-5.007 1.88-9.248-4.45c0 0 6.33-.905 9.248 4.45z"/><g><path class="st1" d="M108.037 56.134l-1.09.1c-.049.247-.148 1.006-.148 1.336v5.759c0 .825.116 1.682.149 1.913l1.072.1-.082 1.253s-1.337-.082-3.202-.082c-.775 0-1.65.082-1.65.082l-.082-1.154 1.089-.199c.016-.164.149-1.088.149-1.419V61.53H99.67v1.799c0 .825.116 1.682.148 1.913l1.073.1-.083 1.253s-1.336-.082-3.201-.082c-.775 0-1.65.082-1.65.082l-.082-1.154 1.088-.199c.017-.164.149-1.088.149-1.419v-5.758c0-.825-.115-1.568-.149-1.831l-1.072-.2.083-1.237s.875.084 1.65.084c1.865 0 3.2-.084 3.2-.084l.083 1.337-1.089.1c-.05.247-.148 1.006-.148 1.336v2.525l4.57-.067v-1.963c0-.825-.115-1.568-.148-1.831l-1.073-.2.083-1.237s.874.084 1.65.084c1.864 0 3.201-.084 3.201-.084l.083 1.337zm13.34 10.461s-.808-.082-1.386-.082c-1.963 0-3.366.082-3.366.082l-.082-1.204.973-.149-.082-.857-.231-.825h-3.12l-.28 1.056-.099.626.958.199-.083 1.154s-.973-.082-1.749-.082c-1.402 0-2.294.082-2.294.082l-.082-1.204.743-.115.692-1.42 3.12-8.975 1.847-.182 3.3 9.702.38.89.924.15-.083 1.154zm-6.848-4.388l2.245-.034-1.056-3.877-1.189 3.911zm18.488-3.879c0 2.343-2.129 3.714-4.471 3.714h-.908v1.287c0 .825.116 1.682.149 1.913l1.237.1-.083 1.253s-1.5-.082-3.366-.082c-.775 0-1.65.082-1.65.082l-.082-1.154 1.089-.199c.016-.164.148-1.088.148-1.419v-5.758c0-.825-.115-1.568-.148-1.831l-1.072-.2.082-1.237s.858.084 1.633.084c.892 0 2.64-.166 3.548-.166 2.31 0 3.894 1.304 3.894 3.613zm-5.379 2.36h.28c1.502 0 2.442-.858 2.442-2.376 0-1.55-.66-2.244-2.194-2.244-.1 0-.264.016-.462.016a28.65 28.65 0 00-.066 1.486v3.119zm17.2-2.36c0 2.343-2.13 3.714-4.472 3.714h-.907v1.287c0 .825.115 1.682.148 1.913l1.238.1-.083 1.253s-1.501-.082-3.366-.082c-.775 0-1.65.082-1.65.082l-.083-1.154 1.09-.199c.016-.164.148-1.088.148-1.419v-5.758c0-.825-.115-1.568-.149-1.831l-1.072-.2.083-1.237s.858.084 1.633.084c.891 0 2.64-.166 3.547-.166 2.31 0 3.895 1.304 3.895 3.613zm-5.38 2.36h.28c1.502 0 2.443-.858 2.443-2.376 0-1.55-.66-2.244-2.194-2.244-.1 0-.264.016-.462.016a28.65 28.65 0 00-.066 1.486v3.119zm17.679-4.57s-.743.89-1.023 1.419l-2.524 4.851v.94c0 .826.115 1.683.148 1.914l1.072.1-.082 1.253s-1.337-.082-3.202-.082c-.775 0-1.65.082-1.65.082l-.082-1.154 1.089-.199c.017-.164.15-1.088.15-1.419v-1.418l-2.939-5.412c-.23-.397-.792-.891-.792-.891l-.99-.15.083-1.155s.907.084 1.518.084c1.865 0 3.432-.084 3.432-.084l.083 1.206-.875.147s.116.546.28.859l1.733 3.415 1.816-3.646c.065-.132.065-.628.065-.628l-.726-.197.083-1.156s1.039.084 1.815.084c1.37 0 2.426-.084 2.426-.084l.082 1.206-.99.115zm8.128-1.321s1.056.084 1.65.084h4.422c.33 0 1.881-.166 1.881-.166l.313.297.116 2.575-1.188.082c-.033-.264-.083-.726-.149-.973a1.702 1.702 0 00-.165-.397 13.44 13.44 0 00-1.303-.065h-1.815c-.017.297-.066 1.072-.066 1.336v2.36c.165.016.346.016.429.016h.924c.33 0 .726-.148.726-.148l.149-1.056 1.023.082s-.017 1.04-.017 1.369c0 .825.05 2.096.05 2.096l-1.056.1-.149-.99s-.726-.1-1.056-.1h-.512c-.05 0-.395 0-.511.016v2.014c0 .626.033 1.419.049 1.75h2.063c.478 0 .94-.068 1.27-.134.166-.297.264-.544.314-.71.066-.246.165-.675.198-.94l1.155.084-.248 2.903-.313.297s-1.551-.066-1.88-.066h-4.654c-.792.016-1.667.082-1.667.082l-.083-1.154 1.09-.199c.05-.164.149-1.088.149-1.419v-5.758c0-.825-.067-1.485-.15-1.831l-1.072-.2.083-1.237zm21.919 11.798s-.809-.082-1.386-.082c-1.963 0-3.366.082-3.366.082l-.083-1.204.974-.149-.082-.857-.231-.825h-3.12l-.28 1.056-.099.626.957.199-.082 1.154s-.974-.082-1.749-.082c-1.402 0-2.294.082-2.294.082l-.082-1.204.742-.115.693-1.42 3.12-8.975 1.847-.182 3.3 9.702.38.89.924.15-.083 1.154zm-6.848-4.388l2.245-.034-1.057-3.877-1.188 3.911zm10.914.66s.016.956.016 1.155c0 .098.115.395.23.676.348.181.941.462 1.783.462.94 0 1.717-.446 1.717-1.386 0-2.425-5.248-1.931-5.248-5.858 0-2.029 1.633-3.283 3.878-3.283 1.155 0 2.475.248 3.63.594l-.231 3.185-1.37-.084v-1.22c0-.066-.082-.28-.198-.561-.363-.198-.742-.38-1.336-.38-.99 0-1.65.495-1.65 1.336 0 2.212 5.247 1.849 5.247 5.644 0 2.26-1.865 3.613-4.24 3.613-2.228 0-3.845-.791-3.845-.791l.247-3.186 1.37.084zm17.76-5.033c-.016-.247-.082-.891-.148-1.138-.017-.066-.082-.215-.149-.38a11.513 11.513 0 00-1.253-.082h-.842c-.05.263-.149 1.006-.149 1.336v5.759c0 .825.116 1.682.149 1.913l1.073.1-.083 1.253s-1.337-.082-3.2-.082c-.777 0-1.651.082-1.651.082l-.082-1.154 1.089-.199c.016-.164.148-1.088.148-1.419v-5.758c0-.809-.116-1.55-.148-1.831h-.776c-.495 0-.99.05-1.32.082-.066.165-.132.314-.149.38-.066.247-.132.89-.148 1.138l-1.188-.082.116-2.74.313-.297s1.55.166 1.88.166h5.38c.33 0 1.881-.166 1.881-.166l.314.297.131 2.74-1.187.082zm3.835-3.037s1.056.084 1.65.084h4.422c.33 0 1.881-.166 1.881-.166l.313.297.116 2.575-1.188.082c-.033-.264-.082-.726-.148-.973a1.703 1.703 0 00-.165-.397 13.44 13.44 0 00-1.304-.065h-1.815c-.017.297-.066 1.072-.066 1.336v2.36c.165.016.346.016.429.016h.924c.33 0 .726-.148.726-.148l.149-1.056 1.023.082s-.017 1.04-.017 1.369c0 .825.05 2.096.05 2.096l-1.056.1-.149-.99s-.726-.1-1.056-.1h-.511c-.05 0-.396 0-.512.016v2.014c0 .626.033 1.419.05 1.75h2.062c.479 0 .94-.068 1.27-.134.166-.297.265-.544.314-.71.066-.246.165-.675.198-.94l1.155.084-.248 2.903-.313.297s-1.55-.066-1.88-.066h-4.654c-.792.016-1.667.082-1.667.082l-.082-1.154 1.089-.199c.05-.164.149-1.088.149-1.419v-5.758c0-.825-.067-1.485-.15-1.831l-1.071-.2.082-1.237zm20.781 3.4c0 1.402-.825 2.508-2.014 3.135.776 1.535 1.684 2.888 1.767 3.02l.577.924.792.066-.082 1.253s-1.287-.082-3.152-.082c0 0-.594-1.518-.808-1.914l-1.37-2.657h-.248a6.52 6.52 0 01-.726-.05v1.437c0 .825.116 1.682.149 1.913l1.072.1-.083 1.253s-1.336-.082-3.2-.082c-.776 0-1.65.082-1.65.082l-.083-1.154 1.089-.199c.017-.164.148-1.088.148-1.419v-5.758c0-.809-.115-1.518-.148-1.831l-1.072-.2.082-1.237s.875.084 1.7.084c.94 0 2.508-.166 3.4-.166 2.293 0 3.86 1.304 3.86 3.482zm-5.165-2.113c-.05.496-.099 1.255-.099 1.486v2.986h.396c1.568 0 2.212-.808 2.212-2.326 0-1.452-.677-2.162-2.162-2.162-.083 0-.198 0-.347.017zm10.204 4.168c3.518-.942 7.07-.95 10.587 0-3.517.949-7.07.941-10.587 0zm-157.823 0c3.518-.942 7.07-.95 10.587 0-3.517.949-7.069.941-10.587 0z"/></g></svg>