<svg version="1.1" id="Layer_1" xmlns="http://www.w3.org/2000/svg" x="0" y="0" viewBox="0 0 242.488 117.747" xml:space="preserve"><style>.st3{fill:#ff7449}.st4{fill:#c1958c}</style><path d="M30.266 75.845c.814-.062 1.58-.117 2.3-.164a97.865 97.865 0 002.158-.164c.219-.031.43-.063.634-.094a1.23 1.23 0 01.586.047c.783.063 1.424.336 1.924.821.5.485.736 1.087.705 1.807 0 .72-.251 1.33-.751 1.83s-1.142.782-1.924.845a16.51 16.51 0 01-1.971-.024 11.267 11.267 0 00-1.925.024c-.625 0-1.33.078-2.114.234a10.555 10.555 0 01-4.2 0c-1.007-.156-1.794-.531-2.36-1.126-.566-.594-.975-1.439-1.227-2.534a1.151 1.151 0 01-.094-.422v-.376c0-1.877.007-3.832.023-5.866s.055-4.075.118-6.124c.064-2.049.173-4.09.33-6.124.157-2.034.378-3.99.661-5.867.032-.5.095-.985.19-1.454.093-.47.203-.939.33-1.408.251-.876.692-1.556 1.32-2.042.63-.484 1.352-.71 2.17-.68.85.063 1.565.36 2.147.891.583.533.952 1.252 1.11 2.159.125.689.22 1.408.283 2.16.218 2.94.297 6.084.234 9.432-.062 3.348-.22 6.492-.47 9.432a20.707 20.707 0 00-.117 1.713c-.016.58-.04 1.134-.07 1.666v1.408zm19.476-6.476c-.188.157-.321.438-.4.845a8.564 8.564 0 00-.14 1.337 6.79 6.79 0 00.118 1.478c.093.501.226.915.398 1.244.172.329.376.54.61.634.235.093.524-.016.869-.329.312-.281.593-.578.845-.892l.75-.938c.156-.156.313-.336.47-.54a2.17 2.17 0 01.516-.492c.75-.564 1.549-.58 2.393-.048.344.251.594.556.75.916.157.36.157.758 0 1.196-.5 1.408-1.18 2.644-2.04 3.708-.862 1.063-2.026 1.814-3.497 2.252-1.69.47-3.277.439-4.763-.094-1.486-.531-2.746-1.58-3.778-3.144a12.435 12.435 0 01-1.385-3.19 21.628 21.628 0 01-.633-3.427 17.792 17.792 0 01.117-4.575c.236-1.455.775-2.87 1.62-4.247a32.9 32.9 0 01.633-.962c.203-.297.43-.587.68-.869.752-.938 1.573-1.658 2.465-2.158a8.428 8.428 0 012.792-.986 9.106 9.106 0 012.91 0c.969.157 1.907.422 2.815.798.907.345 1.588.868 2.041 1.572.454.704.728 1.525.822 2.464a8.817 8.817 0 01-.094 2.581 11.23 11.23 0 01-.75 2.393c-.658 1.533-1.832 2.472-3.52 2.816-.564.157-1.143.274-1.737.352-.595.078-1.22.18-1.877.305zm3.472-7.603c-.844.533-1.4 1.15-1.665 1.854l-.822 2.182c.688-.062 1.243-.164 1.667-.305.421-.14.727-.359.914-.657.188-.297.266-.687.235-1.173-.031-.485-.14-1.118-.329-1.9zm9.433 1.221c-.282 0-.548.008-.798.023a3.96 3.96 0 01-.751-.023c-.563-.063-1.04-.242-1.43-.54-.393-.297-.604-.664-.635-1.103-.062-.438.063-.829.375-1.173.313-.344.751-.594 1.315-.75.187-.063.375-.102.563-.118a10 10 0 00.61-.07c.406-.063.844-.11 1.313-.142.095-.813.189-1.602.283-2.37.093-.766.218-1.54.375-2.322.156-.814.32-1.588.493-2.323.171-.735.382-1.478.634-2.23.28-.844.727-1.485 1.337-1.924.61-.437 1.306-.625 2.088-.563.845.063 1.564.345 2.159.845.594.501.938 1.205 1.032 2.112.125.814.188 1.627.188 2.44 0 .814.016 1.659.047 2.534v3.285h1.478c.454 0 .915.016 1.384.047 1.063.063 2.112.157 3.145.282.563.125 1.001.352 1.314.68.312.329.485.712.516 1.15.062.438-.055.853-.352 1.244-.298.391-.727.665-1.29.82-.533.095-1.056.158-1.573.189l-1.525.094c-.5 0-.985-.024-1.455-.071-.47-.047-.97-.086-1.502-.117-.03.157-.062.29-.093.399-.032.11-.032.195 0 .258.063 1.345.117 2.667.164 3.965.047 1.299.117 2.605.211 3.919.063 1.408.306 2.284.727 2.628.423.344 1.134.016 2.136-.986a6.58 6.58 0 00.328-.445 2.99 2.99 0 01.376-.447c.375-.343.852-.546 1.431-.61a3.142 3.142 0 011.62.235c.468.251.813.571 1.032.962.219.392.265.838.14 1.338a6.15 6.15 0 01-.985 2.158 9.838 9.838 0 01-1.643 1.784c-1.22 1.032-2.534 1.666-3.942 1.9-1.407.235-2.91.118-4.505-.352-1.095-.343-2.034-.852-2.816-1.525a11.152 11.152 0 01-2.064-2.37 11.512 11.512 0 01-1.55-3.73 12.953 12.953 0 01-.234-3.966c.063-.72.125-1.455.188-2.206.062-.75.125-1.485.187-2.205.031-.094.016-.297-.046-.61zm22.197-5.491c-.627 0-1.166-.25-1.62-.75-.453-.501-.602-1.096-.445-1.784.282-1.095.54-2.23.774-3.403.235-1.173.634-2.229 1.197-3.167.344-.5.782-.837 1.314-1.01a2.254 2.254 0 011.595.071c.5.157.884.462 1.15.915.266.454.383.962.352 1.525 0 .251-.046.517-.14.798-.313.845-.61 1.698-.892 2.558-.281.86-.595 1.697-.939 2.51-.219.533-.508.947-.868 1.244-.36.298-.853.462-1.478.493zm15.58 23.136c-3.754-.156-6.601-1.752-8.54-4.787-.44-.688-.635-1.376-.588-2.065.047-.687.336-1.282.868-1.783.564-.532 1.213-.813 1.949-.845.734-.03 1.461.204 2.18.704.158.157.337.298.541.423.203.125.414.219.633.281.594.125 1.127.079 1.596-.14a4.432 4.432 0 001.268-.892c.343-.313.492-.696.444-1.15a1.579 1.579 0 00-.586-1.103 6.919 6.919 0 00-.821-.634 31.682 31.682 0 00-.868-.539 32.6 32.6 0 00-1.736-1.08 20.27 20.27 0 01-1.737-1.126c-1.002-.657-1.791-1.415-2.37-2.276a6.315 6.315 0 01-1.056-2.745c-.125-.97-.016-1.948.329-2.933.344-.986.939-1.901 1.783-2.745.907-.94 1.884-1.65 2.933-2.136a9.149 9.149 0 013.192-.845 8.717 8.717 0 013.261.4 11.07 11.07 0 013.144 1.595c.845.626 1.439 1.392 1.784 2.3.187.469.242.907.164 1.314a1.611 1.611 0 01-.587.985c-.375.313-.767.477-1.173.493a2.911 2.911 0 01-1.267-.258 1.887 1.887 0 01-.493-.352 1.887 1.887 0 00-.493-.352 16.168 16.168 0 01-1.197-.516 5.539 5.539 0 00-1.243-.423c-.563-.156-1.157-.07-1.783.258-.626.328-1.064.712-1.314 1.15-.439.782-.266 1.377.516 1.783.594.251 1.197.501 1.807.75a26.3 26.3 0 013.402 1.69c.532.314 1.048.674 1.548 1.08 1.658 1.314 2.8 2.823 3.426 4.528.626 1.706.72 3.59.282 5.656-.344 1.752-1.103 3.105-2.276 4.059-1.173.954-2.59 1.619-4.247 1.994-.439.063-.884.11-1.338.141-.453.031-.9.078-1.337.14zm33.834-15.017a8.44 8.44 0 00.306 2.886c.266.923.586 1.838.962 2.745.406 1.033 1.08 1.8 2.018 2.3 1.126.5 2.018.266 2.675-.704a3.17 3.17 0 00.516-.798c.125-.282.265-.563.422-.845.188-.281.384-.578.587-.891.203-.313.43-.594.68-.845a2.4 2.4 0 011.478-.704 2.868 2.868 0 011.62.281c1.095.595 1.549 1.534 1.361 2.816-.22 1.753-.791 3.262-1.713 4.529-.923 1.267-2.057 2.214-3.403 2.839-1.345.626-2.8.908-4.364.845-1.565-.063-3.082-.547-4.552-1.455-1.377-.845-2.519-1.861-3.426-3.05a15.91 15.91 0 01-2.205-3.99c-1.221-3.034-1.713-5.983-1.479-8.845.235-2.863 1.15-5.702 2.746-8.518 1.22-2.19 2.822-3.746 4.81-4.67 1.986-.922 4.247-1.212 6.78-.868 1.47.188 2.746.689 3.825 1.502 1.08.814 1.901 1.924 2.465 3.332.155.345.257.727.305 1.15.047.422.054.837.023 1.243 0 .47-.15.845-.446 1.127a1.961 1.961 0 01-1.103.516c-.938.157-1.596-.25-1.97-1.22-.095-.125-.173-.344-.235-.657-.22-.782-.627-1.314-1.22-1.596-.595-.281-1.252-.25-1.972.094a9.162 9.162 0 00-1.713 1.103 5.296 5.296 0 00-1.29 1.572 16.14 16.14 0 00-1.807 4.224 20.904 20.904 0 00-.68 4.552zm27.611 1.032c-1.179 1.471-2.064 3.16-2.653 5.069a33.35 33.35 0 00-.582 2.064c-.172.689-.349 1.393-.536 2.112v.282a7.853 7.853 0 01-.802 1.97c-.346.595-.992.97-1.934 1.127-2.17.282-3.744-.376-4.719-1.971a7.756 7.756 0 01-.802-2.159 27.878 27.878 0 01-.378-2.252 3.945 3.945 0 01-.093-.868v-.869c.062-2.596.124-5.177.187-7.743l.188-7.696c.063-.813.157-1.62.283-2.417a57.73 57.73 0 01.425-2.37c.22-1.001.605-1.728 1.156-2.182.55-.453 1.235-.696 2.053-.728.819 0 1.52.235 2.101.704.583.47 1 1.173 1.251 2.112.346 1.096.55 2.206.614 3.332l.189 3.426c.062.938.117 1.877.164 2.816.047.938.101 1.955.164 3.05.249-.25.452-.461.608-.634.156-.171.311-.335.467-.493 1.091-1.188 2.267-1.892 3.53-2.111 1.263-.219 2.657-.03 4.185.563A4.53 4.53 0 01168.71 62a6.429 6.429 0 011.123 1.83 9.33 9.33 0 01.584 2.112c.108.72.18 1.408.21 2.065a83.43 83.43 0 01.094 3.918c0 1.3-.016 2.605-.046 3.92-.032.813-.275 1.509-.728 2.087-.455.58-1.04.994-1.76 1.244s-1.447.266-2.182.047a3.926 3.926 0 01-1.854-1.173c-.407-.47-.642-.978-.703-1.526a7.661 7.661 0 010-1.712c.093-1.157.164-2.292.21-3.403.047-1.11.101-2.229.165-3.355.062-1.439 0-2.26-.186-2.464-.187-.203-.777.15-1.77 1.056zm26.31-6.711c.156-.344.273-.664.352-.962a2.33 2.33 0 01.352-.774c.187-.344.391-.657.61-.939.219-.281.47-.5.75-.657.407-.281.83-.43 1.268-.446.438-.015.837.063 1.197.235.36.172.656.439.892.798.234.36.382.774.445 1.244.063.406.079.806.047 1.196-.031.392-.047.775-.047 1.15-.093 2.691-.18 5.35-.257 7.978a458.28 458.28 0 01-.306 7.93c-.032 1.221-.594 2.05-1.69 2.488a2.747 2.747 0 01-1.665.14c-.58-.124-1.04-.405-1.384-.844-.22-.312-.4-.64-.54-.985-.141-.344-.29-.688-.446-1.033a4.324 4.324 0 01-.211-.774 42.332 42.332 0 00-.165-.868 313.33 313.33 0 00-1.994 1.572 9.826 9.826 0 01-1.9 1.196 5.994 5.994 0 01-2.089.564c-.735.062-1.588-.047-2.557-.329-1.565-.532-2.81-1.321-3.732-2.37-.923-1.048-1.556-2.353-1.9-3.918a9.727 9.727 0 01-.188-2.98c.094-.954.36-1.9.798-2.84.344-.844.75-1.65 1.22-2.416a11.274 11.274 0 011.642-2.089c2.128-2.127 4.63-3.08 7.51-2.862.75.031 1.446.18 2.087.445a7.93 7.93 0 011.901 1.15zm-1.314 5.773c-.845-.157-1.47-.227-1.877-.212a2.5 2.5 0 00-1.173.352c-.47.282-1.017.744-1.643 1.385a14.416 14.416 0 00-1.689 2.088c-.5.75-.853 1.486-1.056 2.206-.204.72-.102 1.283.305 1.689.563.563 1.189.688 1.877.375.75-.28 1.408-.727 1.971-1.337s1.04-1.29 1.432-2.041a20.98 20.98 0 001.032-2.323c.297-.798.57-1.526.821-2.183zm12.202-2.722c-.282 0-.548.008-.798.023a3.96 3.96 0 01-.75-.023c-.564-.063-1.041-.242-1.432-.54-.392-.297-.602-.664-.634-1.103-.063-.438.063-.829.376-1.173.312-.344.75-.594 1.314-.75.188-.063.375-.102.563-.118.188-.016.39-.04.61-.07.406-.063.845-.11 1.314-.142.094-.813.188-1.602.282-2.37.093-.766.219-1.54.376-2.322.155-.814.32-1.588.492-2.323a25.2 25.2 0 01.633-2.23c.282-.844.728-1.485 1.338-1.924.61-.437 1.306-.625 2.088-.563.845.063 1.565.345 2.16.845.593.501.937 1.205 1.032 2.112.124.814.187 1.627.187 2.44 0 .814.015 1.659.047 2.534v3.285h1.478c.453 0 .915.016 1.385.047 1.063.063 2.112.157 3.144.282.563.125 1 .352 1.314.68.312.329.485.712.516 1.15.063.438-.055.853-.352 1.244s-.728.665-1.29.82c-.533.095-1.056.158-1.572.189l-1.526.094c-.5 0-.986-.024-1.455-.071a37.6 37.6 0 00-1.501-.117 5.01 5.01 0 01-.095.399c-.03.11-.03.195 0 .258.063 1.345.118 2.667.165 3.965.047 1.299.118 2.605.211 3.919.062 1.408.305 2.284.728 2.628.422.344 1.133.016 2.135-.986a6.34 6.34 0 00.328-.445 2.98 2.98 0 01.376-.447c.376-.343.852-.546 1.431-.61a3.142 3.142 0 011.62.235c.47.251.812.571 1.032.962.218.392.265.838.14 1.338a6.139 6.139 0 01-.985 2.158 9.864 9.864 0 01-1.642 1.784c-1.22 1.032-2.534 1.666-3.943 1.9-1.407.235-2.909.118-4.505-.352-1.095-.343-2.034-.852-2.815-1.525a11.153 11.153 0 01-2.065-2.37 11.544 11.544 0 01-1.549-3.73 12.931 12.931 0 01-.234-3.966l.187-2.206c.062-.75.125-1.485.188-2.205.03-.094.015-.297-.047-.61z" fill="#0f3484"/><path d="M53.2 37.619c0 .537-1.201.805-3.603.805s-3.706-.192-3.91-.575l-6.401-11.96v11.922c0 .46-1.182.69-3.546.69s-3.546-.23-3.546-.69V12.166c0-.383 1.01-.574 3.028-.574.792 0 1.72.07 2.78.21 1.06.141 1.706.403 1.935.786l6.133 11.806V12.358c0-.485 1.189-.728 3.566-.728 2.376 0 3.565.243 3.565.728V37.62zm18.131-.192c-1.61.946-3.68 1.419-6.21 1.419-2.529 0-4.663-.863-6.4-2.588-1.739-1.725-2.607-4.114-2.607-7.168 0-3.053.837-5.513 2.51-7.379 1.674-1.865 3.789-2.798 6.345-2.798 2.555 0 4.529.652 5.922 1.955 1.392 1.303 2.089 2.888 2.089 4.753 0 4.14-2.376 6.21-7.13 6.21h-2.645c0 .767.21 1.297.633 1.59.421.295 1.04.442 1.859.442 1.788 0 3.488-.409 5.098-1.227.025-.025.14.153.345.537.613 1.099.92 2.025.92 2.779s-.243 1.245-.729 1.475zm-4.79-11.077c0-1.074-.525-1.61-1.572-1.61-.486 0-.9.147-1.246.44-.345.294-.518.723-.518 1.284v1.189h2.07c.843 0 1.265-.435 1.265-1.303zM89.96 37.427c-1.61.946-3.68 1.419-6.21 1.419-2.529 0-4.663-.863-6.4-2.588-1.739-1.725-2.607-4.114-2.607-7.168 0-3.053.837-5.513 2.51-7.379 1.674-1.865 3.788-2.798 6.345-2.798 2.555 0 4.529.652 5.922 1.955 1.392 1.303 2.089 2.888 2.089 4.753 0 4.14-2.376 6.21-7.13 6.21h-2.645c0 .767.21 1.297.632 1.59.422.295 1.042.442 1.86.442 1.788 0 3.488-.409 5.098-1.227.025-.025.14.153.345.537.613 1.099.92 2.025.92 2.779s-.243 1.245-.729 1.475zM85.17 26.35c0-1.074-.524-1.61-1.571-1.61-.487 0-.901.147-1.246.44-.345.294-.518.723-.518 1.284v1.189h2.07c.843 0 1.265-.435 1.265-1.303zm18.628-14.49c0-.384 1.01-.575 3.028-.575.69 0 1.488.045 2.396.134.907.09 1.36.21 1.36.364v20.201h1.342c.639 0 1.06.575 1.265 1.725.051.333.077.786.077 1.36 0 .576-.18 1.273-.537 2.09-.511 1.125-1.329 1.687-2.453 1.687-.843 0-1.59-.167-2.242-.498-.652-.332-1.093-.677-1.323-1.035l-.344-.499c-1.407 1.355-3.17 2.032-5.29 2.032-2.122 0-3.936-.882-5.444-2.645-1.508-1.764-2.261-4.223-2.261-7.38 0-3.155.792-5.596 2.377-7.32 1.583-1.726 3.564-2.588 5.94-2.588.69 0 1.393.076 2.109.23V11.86zm-1.265 13.186c-1.432 0-2.147 1.29-2.147 3.872 0 1.303.205 2.242.613 2.817.409.575.863.863 1.361.863.499 0 .978-.217 1.438-.652V25.43c-.435-.255-.857-.383-1.265-.383zm41.475 12.764c0 .436-1.29.652-3.871.652-2.582 0-3.872-.216-3.872-.651v-8.817h-5.366v8.817c0 .435-1.291.651-3.872.651s-3.872-.216-3.872-.651V12.396c0-.536 1.29-.804 3.872-.804s3.872.268 3.872.804v9.008h5.366v-8.93c0-.359.638-.614 1.917-.768a26.05 26.05 0 011.955-.076l1.955.076c1.277.154 1.916.41 1.916.767v25.338zm18.132-.383c-1.61.946-3.68 1.419-6.21 1.419s-4.664-.863-6.402-2.588c-1.738-1.725-2.606-4.114-2.606-7.168 0-3.053.837-5.513 2.51-7.379 1.674-1.865 3.788-2.798 6.345-2.798 2.555 0 4.528.652 5.922 1.955 1.392 1.303 2.088 2.888 2.088 4.753 0 4.14-2.376 6.21-7.13 6.21h-2.644c0 .767.21 1.297.632 1.59.422.295 1.041.442 1.86.442 1.788 0 3.488-.409 5.098-1.227.025-.025.14.153.345.537.613 1.099.92 2.025.92 2.779s-.243 1.245-.729 1.475zm-4.792-11.077c0-1.074-.524-1.61-1.571-1.61-.487 0-.901.147-1.247.44-.344.294-.517.723-.517 1.284v1.189h2.07c.843 0 1.265-.435 1.265-1.303zm15.907 11.806c0 .23-1.303.345-3.91.345-2.044-.026-3.067-.128-3.067-.307V12.09c0-.384 1.24-.575 3.72-.575 2.171.077 3.257.204 3.257.383v26.258zm11.691 7.283c0 .178-1.092.268-3.277.268s-3.278-.09-3.278-.268V25.698h-1.303c-.613 0-1.035-.562-1.265-1.687-.077-.357-.115-.817-.115-1.38 0-.562.179-1.227.537-1.993.511-1.124 1.328-1.687 2.453-1.687.74 0 1.424.173 2.051.518.626.345 1.06.664 1.303.958.243.294.364.467.364.517 1.712-1.328 3.565-1.993 5.559-1.993 1.993 0 3.705.773 5.136 2.32 1.431 1.546 2.147 3.935 2.147 7.167 0 3.234-.716 5.738-2.147 7.514-1.431 1.776-3.246 2.664-5.443 2.664-.997 0-1.904-.052-2.722-.154v6.977zm1.572-19.78c-.435 0-.857.141-1.265.422v6.785c.434.051.786.077 1.054.077h.632c1.048-.102 1.572-1.444 1.572-4.025 0-2.172-.665-3.258-1.993-3.258zm18.437 5.214c-2.019 0-3.028-.243-3.028-.729v-1.456c0-1.15.958-2.62 2.875-4.408a14.748 14.748 0 001.974-2.262c.6-.843.9-1.61.9-2.3 0-1.278-.734-1.917-2.203-1.917-1.47 0-2.946.486-4.428 1.457-.971-.97-1.648-2.07-2.031-3.297-.154-.408-.23-.772-.23-1.092 0-.32.063-.62.191-.901.205-.664 1.156-1.29 2.856-1.878 1.7-.588 3.494-.882 5.386-.882 2.862 0 5.008.613 6.44 1.84 1.43 1.227 2.146 2.9 2.146 5.022 0 .971-.236 1.923-.709 2.855a10.079 10.079 0 01-1.725 2.454 47.773 47.773 0 01-2.013 1.974c-1.61 1.533-2.414 2.696-2.414 3.488v1.15c0 .306-.473.53-1.419.67-.945.141-1.801.212-2.568.212zm3.757 7.743c0 .153-1.054.23-3.163.23s-3.162-.064-3.162-.192v-6.018c0-.204 1.054-.307 3.162-.307s3.163.064 3.163.192v6.095z" fill="#57d2fe"/><path d="M40.264 100.492c.692-.04 1.374-.084 2.047-.134a120.2 120.2 0 012.077-.133c.06-.574.123-1.128.193-1.662s.153-1.058.253-1.572c.098-.613.217-1.222.355-1.825a50.09 50.09 0 01.446-1.796c.078-.276.182-.538.311-.786.129-.247.272-.48.43-.697a2.28 2.28 0 01.86-.712 1.6 1.6 0 011.098-.09c.851.179 1.375.703 1.573 1.573.08.317.134.634.164.95.03.316.044.643.044.98-.04 2.175-.084 4.336-.134 6.482-.05 2.147-.094 4.298-.133 6.454-.02.633-.09 1.266-.208 1.899a6.54 6.54 0 01-.623 1.81c-.317.634-.757 1.079-1.32 1.335a2.056 2.056 0 01-1.707.03c-.732-.316-1.236-.87-1.513-1.662a8.562 8.562 0 01-.474-3.353c.039-.633.064-1.27.074-1.913.01-.643.024-1.281.044-1.915a.513.513 0 00-.014-.118 9.1 9.1 0 01-.045-.178c-.574 0-1.153.025-1.736.074-.584.05-1.182.134-1.795.252v1.128c.04.574.078 1.128.118 1.661l.12 1.633a5.452 5.452 0 01-.03 1.498c-.08.485-.199.985-.357 1.499-.158.494-.39.9-.697 1.216-.307.317-.717.505-1.231.563-1.127.12-1.988-.335-2.582-1.364a5.308 5.308 0 01-.682-2.967c.158-2.334.307-4.649.445-6.943.138-2.295.286-4.59.445-6.884.04-.337.069-.668.09-.995.019-.326.049-.647.088-.964.158-1.009.683-1.533 1.572-1.572.416-.04.777.059 1.084.296.306.238.519.594.637 1.068.1.297.164.608.194.935.029.326.054.658.074.994.079.89.143 1.786.193 2.685.048.9.104 1.806.163 2.715.02.1.034.183.045.252.01.07.024.154.044.253zm20.918-1.068c.1-.218.173-.42.223-.609.05-.187.123-.35.222-.49a4.42 4.42 0 01.386-.593c.139-.178.297-.316.475-.415.257-.178.524-.272.801-.282.277-.01.529.04.757.148.227.11.415.278.564.505.148.227.242.49.281.786.04.257.05.51.03.757-.02.247-.03.49-.03.727a1042.57 1042.57 0 00-.163 5.044 307.95 307.95 0 01-.192 5.014c-.02.772-.376 1.297-1.068 1.573a1.736 1.736 0 01-1.054.09 1.468 1.468 0 01-.875-.535 3.117 3.117 0 01-.341-.623 20.12 20.12 0 00-.282-.653 2.735 2.735 0 01-.134-.49c-.03-.167-.064-.35-.104-.548-.455.356-.876.688-1.261.994-.386.306-.787.559-1.202.756s-.856.317-1.32.356c-.465.04-1.004-.029-1.617-.207-.99-.336-1.776-.836-2.36-1.499-.583-.662-.983-1.488-1.2-2.477a6.147 6.147 0 01-.12-1.884 5.52 5.52 0 01.505-1.796c.217-.534.475-1.043.771-1.528a7.093 7.093 0 011.04-1.32c1.344-1.345 2.926-1.948 4.746-1.81.475.02.915.114 1.32.282.406.168.807.41 1.202.727zm-.83 3.649c-.534-.098-.93-.143-1.187-.133a1.58 1.58 0 00-.742.222c-.296.178-.643.47-1.039.876a9.17 9.17 0 00-1.068 1.32c-.316.475-.539.94-.667 1.394-.129.456-.065.812.192 1.069.357.356.752.435 1.188.237a3.22 3.22 0 001.246-.845 5.96 5.96 0 00.904-1.292c.247-.474.465-.964.653-1.468.189-.504.36-.964.52-1.38zm10.504-6.587a6.954 6.954 0 012.107-.875 10.18 10.18 0 012.284-.252c1.266.02 2.34.242 3.22.667.88.426 1.587.98 2.121 1.662s.896 1.459 1.084 2.329a7.71 7.71 0 01.103 2.656 8.41 8.41 0 01-.816 2.64 7.668 7.668 0 01-1.705 2.27 8.103 8.103 0 01-2.538 1.558c-.98.386-2.082.559-3.308.52a4.14 4.14 0 01-.49-.03 9.41 9.41 0 01-.578-.09v.832c.019.435.024.87.014 1.305-.01.436.005.87.045 1.305.04.554 0 1.079-.119 1.573-.118.494-.267.99-.445 1.484a3.253 3.253 0 01-.8 1.172c-.338.306-.763.48-1.277.52a2.178 2.178 0 01-1.439-.312 3.496 3.496 0 01-1.068-1.054 5.178 5.178 0 01-.653-1.424 5.173 5.173 0 01-.222-1.424c.019-1.978.029-3.951.029-5.92 0-1.968.02-3.941.06-5.92.02-.672.083-1.335.192-1.987.11-.653.242-1.296.4-1.929.16-.712.486-1.226.98-1.543.495-.316 1.049-.395 1.661-.237.179.04.362.108.55.207.188.1.39.198.608.297zm1.336 9.465c.493.297 1.042.376 1.646.238a4.838 4.838 0 001.736-.801 6.744 6.744 0 001.484-1.469c.435-.583.736-1.176.904-1.78.168-.604.168-1.177 0-1.721s-.568-.974-1.202-1.291c-1.246-.594-2.532-.613-3.857-.06a1.914 1.914 0 00-.8.564.924.924 0 00-.268.683l.074 1.261c.03.484.06.989.09 1.513.029.524.059 1.034.089 1.528.03.495.064.94.104 1.335zm15.725-9.465a6.954 6.954 0 012.107-.875 10.18 10.18 0 012.285-.252c1.266.02 2.339.242 3.22.667.879.426 1.586.98 2.12 1.662s.896 1.459 1.084 2.329a7.71 7.71 0 01.103 2.656 8.41 8.41 0 01-.815 2.64 7.668 7.668 0 01-1.706 2.27 8.103 8.103 0 01-2.538 1.558c-.979.386-2.082.559-3.308.52-.158 0-.322-.01-.49-.03a9.04 9.04 0 01-.578-.09v.832c.02.435.024.87.015 1.305-.01.436.004.87.044 1.305.04.554 0 1.079-.118 1.573-.119.494-.267.99-.445 1.484a3.253 3.253 0 01-.802 1.172c-.336.306-.762.48-1.276.52-.534.059-1.014-.045-1.438-.312a3.496 3.496 0 01-1.068-1.054 5.178 5.178 0 01-.653-1.424 5.173 5.173 0 01-.223-1.424c.019-1.978.03-3.951.03-5.92 0-1.968.019-3.941.059-5.92.02-.672.083-1.335.192-1.987.11-.653.243-1.296.401-1.929.159-.712.485-1.226.98-1.543.494-.316 1.048-.395 1.66-.237.179.04.362.108.55.207.188.1.39.198.608.297zm1.336 9.465c.494.297 1.043.376 1.647.238a4.838 4.838 0 001.735-.801 6.744 6.744 0 001.484-1.469c.435-.583.737-1.176.905-1.78.168-.604.168-1.177 0-1.721s-.569-.974-1.202-1.291c-1.246-.594-2.533-.613-3.857-.06a1.914 1.914 0 00-.802.564.924.924 0 00-.266.683c.02.356.044.776.074 1.261.03.484.059.989.089 1.513l.089 1.528c.03.495.064.94.104 1.335zm19.524 2.077c-.159.08-.292.144-.4.193a3.16 3.16 0 00-.313.164c-.988.633-1.88.984-2.67 1.053s-1.488-.079-2.092-.445c-.603-.366-1.103-.905-1.498-1.617-.396-.712-.693-1.529-.89-2.448s-.293-1.904-.282-2.953a15.72 15.72 0 01.341-3.115c.098-.514.396-.965.89-1.35a3.321 3.321 0 011.617-.698 2.533 2.533 0 011.647.327c.514.296.831.86.95 1.691.039.277.054.549.044.816s-.025.54-.044.816c-.1 1.563-.09 2.76.03 3.59.118.831.296 1.37.533 1.618.238.247.51.247.816 0 .307-.247.603-.658.89-1.232.287-.573.54-1.27.757-2.092.218-.82.356-1.676.415-2.566.02-.376.104-.747.253-1.113a3.95 3.95 0 01.563-.98c.228-.286.5-.513.817-.682a1.84 1.84 0 011.068-.193c.89.159 1.463.623 1.72 1.395.1.277.179.549.238.816.06.267.109.54.148.816.159 1.365.263 2.77.312 4.213a20.612 20.612 0 01-.282 4.229 14.964 14.964 0 01-1.231 3.902c-.584 1.226-1.42 2.304-2.508 3.234a5.598 5.598 0 01-2.18 1.083 5.928 5.928 0 01-2.42.119 4.795 4.795 0 01-2.135-.905c-.634-.475-1.068-1.128-1.306-1.958a19.336 19.336 0 01-.297-1.425c-.04-.356.016-.668.164-.935.148-.267.38-.45.697-.549.316-.099.628-.083.934.045.307.13.54.361.698.697.099.158.178.326.237.505.06.178.109.356.149.534.06.257.187.465.385.623.198.158.416.262.653.311.238.05.475.034.713-.044.237-.08.434-.218.593-.415.296-.337.53-.698.697-1.084a6.9 6.9 0 00.4-1.231 9.96 9.96 0 00.209-1.32 7.171 7.171 0 00-.03-1.44zm21.927-2.996c-.08.791-.159 1.568-.238 2.329-.08.761-.168 1.548-.267 2.359.396-.06.772-.119 1.128-.178.355-.06.701-.109 1.038-.149a9.833 9.833 0 011.84.06c.138 0 .267.025.386.074.118.05.226.114.326.193.553.277.82.712.801 1.305-.04.594-.326.99-.86 1.187-.337.1-.678.193-1.024.282a5.44 5.44 0 01-1.054.164c-.89.039-1.77.054-2.64.044s-1.75-.005-2.641.015c-.396.02-.762-.04-1.098-.179a4.477 4.477 0 01-.95-.533c-.355-.277-.593-.604-.711-.98-.119-.375-.159-.781-.119-1.216a38.15 38.15 0 00.37-4.57c.03-1.502.084-3.016.164-4.54.039-1.008.099-2.012.178-3.011.078-.999.168-2.003.267-3.012.039-.514.203-.96.49-1.335.286-.376.608-.732.964-1.068.138-.159.312-.277.519-.356a3.65 3.65 0 01.638-.178 44.49 44.49 0 011.766-.149l1.795-.119c.336-.019.672-.024 1.008-.014.337.01.673.014 1.01.014a.32.32 0 00.103-.014.254.254 0 01.074-.015c.594.02 1.098.208 1.514.563.415.357.642.792.682 1.306.02.515-.163.965-.549 1.35-.386.386-.875.599-1.468.638-.515.04-1.015.05-1.499.03-.485-.02-.984-.03-1.498-.03h-.535l.12 3.012.118 3.012h.682c.416.02.826.034 1.232.044.405.01.815.044 1.231.104.197.04.39.114.58.223.187.109.36.232.518.37.218.219.366.45.445.698.079.247.094.495.045.741-.05.248-.159.475-.327.683s-.38.37-.638.49a6.123 6.123 0 01-1.201.4 3.72 3.72 0 01-1.291.045c-.218-.04-.44-.06-.668-.06s-.48-.01-.756-.03zm16.022-5.608c.099-.218.173-.42.223-.609.049-.187.123-.35.222-.49a4.42 4.42 0 01.386-.593 1.56 1.56 0 01.475-.415c.257-.178.523-.272.801-.282.276-.01.529.04.756.148.228.11.416.278.564.505.149.227.243.49.282.786.04.257.05.51.03.757-.02.247-.03.49-.03.727-.06 1.701-.114 3.382-.163 5.044-.05 1.662-.114 3.333-.193 5.014-.02.772-.376 1.297-1.068 1.573a1.736 1.736 0 01-1.053.09 1.468 1.468 0 01-.876-.535 3.117 3.117 0 01-.34-.623c-.09-.218-.184-.435-.283-.653a2.734 2.734 0 01-.134-.49c-.03-.167-.064-.35-.104-.548-.455.356-.875.688-1.26.994a6.258 6.258 0 01-1.202.756 3.788 3.788 0 01-1.32.356c-.466.04-1.005-.029-1.617-.207-.99-.336-1.776-.836-2.36-1.499-.583-.662-.983-1.488-1.2-2.477a6.147 6.147 0 01-.12-1.884c.06-.604.227-1.202.504-1.796.218-.534.475-1.043.772-1.528a7.093 7.093 0 011.039-1.32c1.344-1.345 2.927-1.948 4.747-1.81.475.02.915.114 1.32.282.406.168.807.41 1.202.727zm-.831 3.649c-.534-.098-.93-.143-1.187-.133a1.58 1.58 0 00-.741.222c-.297.178-.644.47-1.04.876a9.172 9.172 0 00-1.067 1.32 5.01 5.01 0 00-.668 1.394c-.128.456-.064.812.193 1.069.356.356.752.435 1.187.237a3.22 3.22 0 001.247-.845 5.96 5.96 0 00.904-1.292c.247-.474.465-.964.653-1.468s.36-.964.519-1.38zm11.632 9.436c-2.374-.098-4.174-1.108-5.401-3.026-.277-.435-.4-.87-.37-1.306.029-.435.211-.81.548-1.128a1.863 1.863 0 011.232-.534c.464-.02.924.13 1.38.445a1.798 1.798 0 00.741.445c.375.08.712.05 1.009-.088a2.79 2.79 0 00.801-.565.82.82 0 00.282-.727 1 1 0 00-.37-.697 4.49 4.49 0 00-.52-.4 22.039 22.039 0 00-.549-.341 21.404 21.404 0 00-1.098-.683 12.687 12.687 0 01-1.097-.712c-.634-.416-1.133-.895-1.499-1.44a3.986 3.986 0 01-.668-1.735 3.997 3.997 0 01.208-1.854c.217-.624.593-1.202 1.128-1.736.573-.594 1.191-1.043 1.854-1.35a5.778 5.778 0 012.018-.535 5.504 5.504 0 012.062.253 7.001 7.001 0 011.988 1.009c.534.395.91.88 1.127 1.453.119.297.154.574.104.831a1.02 1.02 0 01-.37.623c-.238.199-.485.302-.742.312a1.837 1.837 0 01-.801-.163 1.197 1.197 0 01-.312-.223 1.18 1.18 0 00-.311-.222 10.27 10.27 0 01-.757-.327 3.522 3.522 0 00-.786-.267c-.357-.098-.732-.044-1.128.163-.396.208-.673.45-.831.727-.277.495-.168.871.326 1.128.376.159.757.317 1.143.475a16.68 16.68 0 012.151 1.068 8 8 0 01.98.682c1.047.831 1.77 1.786 2.165 2.864.396 1.078.455 2.27.178 3.575-.218 1.108-.697 1.964-1.44 2.567-.74.603-1.636 1.023-2.684 1.261-.277.04-.56.07-.846.089-.287.02-.568.05-.845.089zm9.02-11.157a8.03 8.03 0 00-.505.015 2.5 2.5 0 01-.475-.015 1.787 1.787 0 01-.905-.34c-.247-.189-.38-.421-.4-.698a.875.875 0 01.237-.742c.198-.217.475-.376.831-.475a1.55 1.55 0 01.356-.074c.119-.01.247-.025.386-.044.256-.04.534-.07.83-.09.06-.514.12-1.013.178-1.498.06-.484.138-.974.238-1.469.099-.514.203-1.004.311-1.469.11-.464.242-.934.4-1.409.179-.534.461-.94.847-1.216a1.93 1.93 0 011.32-.357c.534.04.99.218 1.365.534.375.317.593.762.653 1.336.079.514.119 1.028.119 1.543 0 .514.01 1.049.03 1.602v2.077h.934c.287 0 .578.01.875.03.673.04 1.336.099 1.989.178.355.079.632.222.83.43.198.208.307.45.326.727.04.277-.035.54-.222.786-.188.248-.46.42-.816.52a8.645 8.645 0 01-.994.118l-.965.06c-.316 0-.623-.015-.92-.045s-.612-.054-.949-.074c-.02.1-.04.183-.059.252-.02.07-.02.124 0 .164.04.85.074 1.686.104 2.507.03.82.074 1.647.133 2.478.04.89.193 1.444.46 1.66.267.219.717.011 1.35-.622.08-.1.149-.193.208-.282.06-.089.138-.183.238-.282.237-.218.538-.346.904-.386.367-.039.708.01 1.024.149.296.158.515.36.653.608.138.247.168.53.09.846-.12.494-.327.95-.624 1.364a6.224 6.224 0 01-1.039 1.128c-.771.653-1.602 1.054-2.492 1.202-.89.148-1.84.074-2.849-.223a4.962 4.962 0 01-1.78-.964 7.028 7.028 0 01-1.306-1.499 7.284 7.284 0 01-.979-2.358 8.18 8.18 0 01-.148-2.508c.039-.454.079-.92.118-1.395l.12-1.394c.018-.06.009-.188-.03-.386zm18.218 4.036c-.118.099-.202.277-.252.533-.05.258-.08.54-.089.847-.01.307.015.618.075.934.059.317.143.579.252.787.108.207.237.34.385.4.149.06.332-.01.55-.208.197-.178.375-.365.534-.564l.474-.593c.1-.099.197-.212.297-.341.099-.129.208-.233.326-.312.475-.356.98-.366 1.513-.03.218.16.376.352.475.579.1.228.1.48 0 .757a7.89 7.89 0 01-1.29 2.344c-.545.672-1.281 1.147-2.211 1.424-1.068.297-2.072.277-3.012-.06-.94-.335-1.735-.998-2.388-1.987a7.812 7.812 0 01-.876-2.018 13.633 13.633 0 01-.4-2.166 11.235 11.235 0 01.074-2.893c.148-.92.49-1.815 1.024-2.685.138-.218.272-.42.4-.608.129-.188.272-.372.43-.55.475-.593.995-1.048 1.558-1.364a5.328 5.328 0 011.766-.623 5.74 5.74 0 011.84 0 7.97 7.97 0 011.78.504c.573.218 1.004.549 1.29.994.287.445.46.964.52 1.558.06.574.04 1.118-.06 1.631a7.062 7.062 0 01-.475 1.514c-.415.97-1.156 1.563-2.224 1.78a8.02 8.02 0 01-1.098.223c-.377.05-.772.114-1.188.193zm2.196-4.807c-.533.336-.885.727-1.053 1.171l-.52 1.38c.435-.039.787-.103 1.054-.192.267-.09.46-.228.579-.415.118-.188.168-.435.148-.742a7.565 7.565 0 00-.208-1.202zm10.682 1.217a5.274 5.274 0 00-.504 1.172 3.232 3.232 0 00-.09 1.32c.08.672.134 1.335.164 1.988s.054 1.325.074 2.017c0 .376-.025.753-.074 1.128-.05.376-.134.742-.252 1.098-.219.593-.54 1.064-.965 1.41-.426.346-.975.538-1.646.578-.575.04-1.114-.123-1.617-.49a3.005 3.005 0 01-1.084-1.468 7.212 7.212 0 01-.326-2.315 220 220 0 01.282-4.51c.108-1.503.212-3.007.311-4.51.04-.316.09-.633.148-.95l.179-.949c.138-.554.38-.984.727-1.29.346-.307.766-.47 1.261-.49.514-.02.949.118 1.305.415s.613.722.772 1.276c.02.04.034.089.044.148s.035.139.075.238c.098-.06.193-.12.281-.179.09-.059.183-.108.282-.148.396-.217.781-.44 1.158-.667.375-.227.771-.42 1.186-.579.87-.336 1.657-.37 2.359-.104.702.267 1.281.806 1.736 1.617.495.93.821 1.89.98 2.878.157.99.177 2.008.058 3.057a2.73 2.73 0 00-.074.519c-.01.188-.035.361-.074.519-.158.792-.613 1.267-1.365 1.424a1.7 1.7 0 01-1.928-.801 4.871 4.871 0 01-.267-.652 3.036 3.036 0 01-.149-.713c-.02-.395-.02-.8 0-1.216.02-.415.05-.82.09-1.217.078-.89.014-1.458-.194-1.706-.208-.247-.474-.291-.8-.133-.327.158-.678.455-1.054.89s-.712.9-1.009 1.395z" fill="#fed674"/><path class="st3" d="M228.527 79.847s4.192-27.262-2.462-21.388-.765 20.748-.765 20.748l3.227.64zm2.686.533s6.539-26.796 10.444-18.826-7.218 19.467-7.218 19.467l-3.226-.64z"/><path class="st3" d="M238.192 95.573c-1.278 8.138-5.925 11.503-12.307 10.5-6.383-1.003-11.02-5.234-9.741-13.372s7.988-17.1 14.37-16.097 8.957 10.831 7.678 18.969z"/><g><path class="st4" d="M9.677 20.634S4.827-4.115.927 3.001s5.776 18.083 5.776 18.083l2.974-.45zm2.476-.374S9.466-4.817 15.297.828s-.17 18.982-.17 18.982l-2.974.45z"/><path class="st4" d="M22.868 31.162c1.424 7.396-1.529 11.731-7.33 12.848-5.8 1.117-11.101-1.084-12.525-8.48S4.58 18.345 10.38 17.228s11.062 6.538 12.487 13.934z"/></g></svg>