<svg version="1.1" id="Layer_1" xmlns="http://www.w3.org/2000/svg" x="0" y="0" viewBox="0 0 276.5 102.6" xml:space="preserve"><style>.st26{fill:#fff}.st390,.st391{fill:#6e6d6e}.st391{opacity:.75;fill-rule:evenodd;clip-rule:evenodd}</style><path class="st390" d="M274.3 50.3c0-.6.5-1.1 1.1-1.1.6 0 1.1.5 1.1 1.1"/><path class="st390" d="M261.5 71.5V46c0-4.1 3.4-7.5 7.5-7.5s7.5 3.4 7.5 7.5v50.5c0 .6-.5 1.1-1.1 1.1-.6 0-1.1-.5-1.1-1.1V46c0-2.9-2.4-5.3-5.3-5.3s-5.3 2.4-5.3 5.3v25.5c0 .6-.5 1.1-1.1 1.1-.6-.1-1.1-.5-1.1-1.1zM222.5 54.4c0-.6.5-1.1 1.1-1.1H249c4.1 0 7.5 3.4 7.5 7.5 0 .6-.5 1.1-1.1 1.1-.6 0-1.1-.5-1.1-1.1 0-2.9-2.4-5.3-5.3-5.3h-25.5c-.6 0-1-.5-1-1.1z"/><path class="st390" d="M232.5 101.5c0 .6.5 1.1 1.1 1.1H269c4.1 0 7.5-3.4 7.5-7.5 0-.6-.5-1.1-1.1-1.1-.6 0-1.1.5-1.1 1.1 0 2.9-2.4 5.3-5.3 5.3h-35.5c-.6.1-1 .5-1 1.1zM254.4 74.9V60.8c0-.6.5-1.1 1.1-1.1.6 0 1.1.5 1.1 1.1v14.1c0 1.4 1.1 2.5 2.5 2.5s2.5-1.1 2.5-2.5V60.8c0-.6.5-1.1 1.1-1.1.6 0 1.1.5 1.1 1.1v14.1c0 2.5-2.1 4.6-4.6 4.6-2.7 0-4.8-2.1-4.8-4.6z"/><path class="st391" d="M0 0h32.4v32.4H0zM38.4 0h32.4v32.4H38.4zM76.7 0h32.4v32.4H76.7zM115.1 0h32.4v32.4h-32.4zM153.5 0h32.4v32.4h-32.4zM191.8 0h32.4v32.4h-32.4zM0 37.7h32.4v32.4H0zM38.4 37.7h32.4v32.4H38.4zM76.7 37.7h32.4v32.4H76.7zM115 37.7h32.4v32.4H115z"/><path fill-rule="evenodd" clip-rule="evenodd" fill="#bacf38" d="M153.5 37.7h71v32.4h-71z"/><path class="st26" d="M9.6 6.7h5.3v16.1h6.6v4.3H9.6V6.7zM17.7 49.9c0-2.3-.4-3-1.5-3-1.6 0-1.8 1.5-1.8 7s.2 7 1.8 7c1.3 0 1.6-1.1 1.6-5H23v1.5c0 5.7-3.3 7.1-6.8 7.1-6 0-7.3-3-7.3-10.6 0-7.8 1.8-10.6 7.3-10.6 4.8 0 6.6 2.5 6.6 6.5v1.3h-5.1v-1.2zM46.6 43.7h5.3v7.5h3.3v-7.5h5.3v20.4h-5.3v-8.4h-3.3v8.4h-5.3V43.7zM88.3 43.7H95l5 20.4h-5.7l-.5-3.6h-4.2l-.5 3.6h-5.7l4.9-20.4zm3.3 4.2l-1.5 8.7h3l-1.5-8.7zM128.6 48.2h-4v-4.5h13.3v4.5h-4v15.9h-5.3V48.2z"/><g><path class="st26" d="M47.6 6.7h12.1V11h-6.8v3.5h6.4v4.2h-6.4v4.1h7v4.3H47.6V6.7z"/></g><g><path class="st26" d="M89.8 11.3h-4V6.7h13.3v4.5h-4v15.9h-5.3V11.3z"/></g><g><path class="st26" d="M170.9 12.6v-.5c0-1.2-.5-2.2-1.5-2.2-1.1 0-1.7.9-1.7 1.8 0 4 8.7 2.1 8.7 9.5 0 4.3-2.5 6.3-7.2 6.3-4.4 0-6.9-1.5-6.9-5.8V21h5.1v.5c0 1.7.7 2.4 1.7 2.4 1.1 0 1.7-.9 1.7-2 0-4-8.4-2-8.4-9.3 0-4.1 2.2-6.4 6.7-6.4 4.6 0 6.6 1.9 6.6 6.3h-4.8z"/></g><g><path class="st26" d="M136.5 18.2c0 7.4-2.9 11-9.6 11.1v-4.9c2.7-.3 3.7-1.8 3.7-4.8v-.7h-3.7v-11h9.6v10.3z"/></g></svg>