<svg version="1.1" id="Layer_1" xmlns="http://www.w3.org/2000/svg" x="0" y="0" viewBox="0 0 244 80.3" xml:space="preserve"><style>.st169{fill:#3c4e58}</style><path d="M5.4 37.6L0 24.6h6.1L8.2 32h.1l2.1-7.5h6.1l-5.4 13V46H5.4v-8.4zM23.5 24.2c5.7 0 7.6 3.1 7.6 11.1s-1.9 11.1-7.6 11.1c-5.7 0-7.6-3.1-7.6-11.1s1.9-11.1 7.6-11.1zm0 18.4c1.7 0 1.9-1.6 1.9-7.3 0-5.8-.2-7.3-1.9-7.3s-1.9 1.6-1.9 7.3c0 5.8.2 7.3 1.9 7.3zM38.5 24.6V40c0 2.1.6 2.6 1.7 2.6s1.7-.5 1.7-2.6V24.6h5.6v14c0 6-2.6 7.8-7.2 7.8-4.7 0-7.2-1.8-7.2-7.8v-14h5.4zM49.8 24.6h8.7c4.3 0 5.9 2.4 5.9 5.7 0 2.8-1.1 4.7-3.7 5.1v.1c2.7.2 3.5 1.9 3.5 4.8V42c0 1.1 0 2.5.3 3 .1.2.3.5.6.7v.3h-5.9c-.5-1.1-.5-3.2-.5-4.1v-1.4c0-2.4-.5-3.1-1.8-3.1h-1.5V46h-5.6V24.6zm5.6 9h1.1c1.6 0 2.3-1 2.3-2.5 0-1.7-.7-2.5-2.4-2.5h-1.1v5zM83.1 30.8v-.5c0-1.3-.5-2.3-1.6-2.3-1.2 0-1.7.9-1.7 1.9 0 4.2 9.1 2.2 9.1 10 0 4.6-2.7 6.6-7.6 6.6-4.6 0-7.2-1.6-7.2-6v-.7h5.4v.5c0 1.8.7 2.5 1.8 2.5s1.8-.9 1.8-2.1c0-4.2-8.7-2.1-8.7-9.7 0-4.3 2.3-6.7 7-6.7 4.8 0 6.9 2 6.9 6.6h-5.2zM96.2 24.6V40c0 2.1.6 2.6 1.7 2.6s1.7-.5 1.7-2.6V24.6h5.6v14c0 6-2.6 7.8-7.2 7.8-4.7 0-7.2-1.8-7.2-7.8v-14h5.4zM107.3 24.6h8.4c4.3 0 6.2 2.8 6.2 6.6 0 4.4-2.5 6.6-7 6.6H113V46h-5.6V24.6zm5.6 9.2h1c1.4 0 2.2-.8 2.2-2.6s-.7-2.6-2.2-2.6h-1v5.2zM123.4 24.6h8.4c4.3 0 6.2 2.8 6.2 6.6 0 4.4-2.5 6.6-7 6.6h-1.9V46h-5.6V24.6zm5.5 9.2h1c1.4 0 2.2-.8 2.2-2.6s-.7-2.6-2.2-2.6h-1v5.2zM146.7 24.2c5.7 0 7.6 3.1 7.6 11.1s-1.9 11.1-7.6 11.1c-5.7 0-7.6-3.1-7.6-11.1-.1-8 1.9-11.1 7.6-11.1zm0 18.4c1.7 0 1.9-1.6 1.9-7.3 0-5.8-.2-7.3-1.9-7.3s-1.9 1.6-1.9 7.3c0 5.8.2 7.3 1.9 7.3zM156.3 24.6h8.7c4.3 0 5.9 2.4 5.9 5.7 0 2.8-1.1 4.7-3.7 5.1v.1c2.7.2 3.5 1.9 3.5 4.8V42c0 1.1 0 2.5.3 3 .1.2.3.5.6.7v.3h-5.9c-.5-1.1-.5-3.2-.5-4.1v-1.4c0-2.4-.5-3.1-1.8-3.1h-1.5V46h-5.6V24.6zm5.6 9h1.1c1.6 0 2.3-1 2.3-2.5 0-1.7-.7-2.5-2.4-2.5h-1.1v5zM175.8 29.3h-4.2v-4.7h14v4.7h-4.2V46h-5.6V29.3z"/><g><path d="M4.7 49.7h6.2v23.8H4.7V49.7zM13.6 49.7h6.9l4 14.7h.1V49.7h5.8v23.8h-6.8l-4.1-14.7h-.1v14.7h-5.8V49.7zM49.8 49.3c6.3 0 8.5 3.5 8.5 12.4s-2.2 12.4-8.5 12.4-8.5-3.5-8.5-12.4c0-9 2.1-12.4 8.5-12.4zm0 20.5c1.9 0 2.1-1.7 2.1-8.2s-.2-8.2-2.1-8.2-2.1 1.7-2.1 8.2.2 8.2 2.1 8.2zM60.5 49.7h6.9l4 14.7h.1V49.7h5.8v23.8h-6.8l-4.1-14.7h-.1v14.7h-5.8V49.7zM80.2 49.7h14.1v5.1h-7.9v4.1h7.4v4.9h-7.4v4.7h8.2v5.1H80.2V49.7zM115.1 57c0-2.7-.5-3.5-1.7-3.5-1.9 0-2.1 1.7-2.1 8.2s.2 8.2 2.1 8.2c1.5 0 1.9-1.3 1.9-5.8h6v1.8c0 6.7-3.9 8.3-7.9 8.3-7 0-8.5-3.5-8.5-12.4 0-9.1 2.1-12.4 8.5-12.4 5.6 0 7.7 2.9 7.7 7.5v1.5h-6V57zM123.5 49.7h6.2v18.7h7.6v5.1h-13.8V49.7zM138.7 49.7h6.2v23.8h-6.2V49.7zM157.1 57c0-2.7-.5-3.5-1.7-3.5-1.9 0-2.1 1.7-2.1 8.2s.2 8.2 2.1 8.2c1.5 0 1.9-1.3 1.9-5.8h6v1.8c0 6.7-3.9 8.3-7.9 8.3-7 0-8.5-3.5-8.5-12.4 0-9.1 2.1-12.4 8.5-12.4 5.6 0 7.7 2.9 7.7 7.5v1.5h-6V57zM165.2 49.7h6.2v9.1h.1l4.6-9.1h6.6l-6 10.4 6.7 13.4h-7.1l-3.6-8.3-1.3 2v6.3h-6.2V49.7z"/></g><g><path class="st169" d="M237.8 49.4h6.2v6.2h-6.2zM225.4 0h6.2v6.2h-6.2zM225.4 12.4h6.2v6.2h-6.2zM225.4 24.7h6.2v6.2h-6.2zM225.4 37.1h6.2v6.2h-6.2zM225.4 49.4h6.2v6.2h-6.2zM225.4 61.8h6.2V68h-6.2zM213.1 0h6.2v6.2h-6.2zM213.1 12.4h6.2v6.2h-6.2zM213.1 24.7h6.2v6.2h-6.2zM213.1 37.1h6.2v6.2h-6.2zM213.1 49.4h6.2v6.2h-6.2zM213.1 61.8h6.2V68h-6.2zM213.1 74.2h6.2v6.2h-6.2zM200.7 0h6.2v6.2h-6.2zM200.7 12.4h6.2v6.2h-6.2zM200.7 24.7h6.2v6.2h-6.2zM200.7 37.1h6.2v6.2h-6.2zM200.7 49.4h6.2v6.2h-6.2zM200.7 61.8h6.2V68h-6.2zM188.3 49.4h6.2v6.2h-6.2z"/></g></svg>