<svg version="1.1" id="Layer_1" xmlns="http://www.w3.org/2000/svg" x="0" y="0" viewBox="0 0 218.2 138.5" xml:space="preserve"><style>.st62{fill:#eb622b}.st63{fill:#52c0e2}</style><path class="st62" d="M18.8 110.7h3.9l1.7 11.3 1.1-11.3h4.1l-2.8 16.4h-4.7l-1.4-11-1.4 11h-4.7l-2.8-16.4h4.1l1.3 11.3 1.6-11.3zM30.2 110.7h9.7v3.5h-5.4v2.8h5.1v3.3h-5.1v3.3h5.6v3.5h-9.9v-16.4zM48.5 110.7h5.4l4 16.4h-4.5l-.4-2.9h-3.4l-.4 2.9h-4.5l3.8-16.4zm2.8 3.4L50 121h2.4l-1.1-6.9zM58.2 110.7h6.7c3.3 0 4.5 1.8 4.5 4.4 0 2.2-.8 3.6-2.8 3.9 2.1.2 2.7 1.5 2.7 3.7v1.4c0 .8 0 1.9.2 2.3.1.2.2.4.5.5v.2h-4.5c-.4-.9-.4-2.4-.4-3.1v-1.1c0-1.9-.4-2.3-1.4-2.3h-1.1v6.6h-4.3v-16.5zm4.2 7h.8c1.2 0 1.8-.8 1.8-1.9 0-1.3-.5-1.9-1.8-1.9h-.8v3.8zM70.9 110.7h9.7v3.5h-5.4v2.8h5.1v3.3h-5.1v3.3h5.6v3.5h-9.9v-16.4zM92.7 110.4c4.4 0 5.8 2.4 5.8 8.5s-1.5 8.5-5.8 8.5-5.8-2.4-5.8-8.5 1.5-8.5 5.8-8.5zm0 14.1c1.3 0 1.4-1.2 1.4-5.6 0-4.4-.1-5.6-1.4-5.6-1.3 0-1.4 1.2-1.4 5.6 0 4.5.1 5.6 1.4 5.6zM99.7 110.7h4.8l2.8 10.1v-10.1h4v16.4h-4.7l-2.8-10.1v10.1h-4v-16.4zM112.8 110.7h4.3v12.9h5.3v3.5h-9.5v-16.4zM122.8 110.7h4.3v16.4h-4.3v-16.4zM128.5 110.7h4.8l2.8 10.1v-10.1h4v16.4h-4.7l-2.8-10.1v10.1h-4v-16.4zM141.6 110.7h9.7v3.5h-5.4v2.8h5.1v3.3h-5.1v3.3h5.6v3.5h-9.9v-16.4zM158.1 110.7h4.8l2.8 10.1v-10.1h4v16.4H165l-2.8-10.1v10.1h-4v-16.4zM176.6 110.4c4.4 0 5.8 2.4 5.8 8.5s-1.5 8.5-5.8 8.5-5.8-2.4-5.8-8.5 1.4-8.5 5.8-8.5zm0 14.1c1.3 0 1.4-1.2 1.4-5.6 0-4.4-.1-5.6-1.4-5.6-1.3 0-1.4 1.2-1.4 5.6-.1 4.5.1 5.6 1.4 5.6zM189.5 110.7h3.9l1.7 11.3 1.1-11.3h4.1l-2.8 16.4h-4.7l-1.4-11-1.4 11h-4.7l-2.8-16.4h4.1l1.3 11.3 1.6-11.3zM201.5 116.2v-5.5h4v5.5l-.5 6.1h-3.1l-.4-6.1zm.1 7.3h3.9v3.6h-3.9v-3.6z"/><g><path class="st63" d="M12.6 71.5c.2-2 .4-4.8.6-6.8.8-6.9-.2-11.6-3.5-17.5l-.3-.5c-1.6-2.7-3.2-5.5-4.2-8.4l-.2-.7C3 32.1.7 25.8 2.4 20c2.4-7.8 7.9-13.5 15.3-15.6 1.6-.4 3.3-.7 5-.9V13c0 .1.2.2.4.2h1.2v13h-.5c-.3 0-.5.1-.6.4-.1.1-.2.4-.2.6v.7c-5.1 2-8.7 7-8.7 12.8 0 7.3 5.8 13.3 13 13.7 0 .4 0 .8.1 1.2.2 3.6.4 7.4-1.1 10.6-.4.9-1 1.8-1.6 2.7-1.1 1.6-2.2 3.2-2.4 5.4-.4 3.5.9 7.4 2.1 10.8.3.9.6 1.8.9 2.6 1.2 4 2.7 8.2 6 10.8 2.2 1.7 5.4 2.5 8.5 2.5 2 0 3.9-.3 5.5-.9 5.7-2.1 4.3-9.2 3.4-12.2-1-3.4-1.4-9.4-1.3-13.1.1-3.1 1.2-4.8 3.9-6.3 1.7-.9 3.3-1.4 5.6-1.8 2-.3 4-.8 5.1-2.7 1.1-1.8.5-3.7 0-5.3-.4-1.3-.8-2.5-.4-3.7.1-.3.3-.6.4-.9.3-.6.7-1.3.4-2.1-.2-.4-.5-.7-.8-.8.8-1.3.4-2.2.2-3.1-.2-.6-.4-1.1-.3-1.8.1-1 .9-1.5 2.1-2 1.3-.6 3.2-1.5 2.2-4.3-.6-1.7-1.9-3.2-3.2-4.6-.8-.9-1.5-1.7-2.1-2.5-1.6-2.4-2.5-3.9-2.5-6.8 0-2.6-.2-7.5-1.4-11.5-2.1-7-10.2-10.7-17-11.8l-.9-.1c-1.9-.3-3.7-.6-5.6-.7V.2c0-.1-.2-.2-.4-.2H23c-.2 0-.4.1-.4.2V2c-1.9.2-3.7.5-5.4 1C9.4 5.2 3.5 11.2 1 19.5c-1.9 6.3.5 12.8 2.6 18.5l.2.7c1.1 3 2.7 5.9 4.3 8.7l.3.5c3.2 5.6 4.1 10.2 3.4 16.8-.2 2.1-.4 4.3-.6 6.4m15.4-58h2.5v13h-2.5v-13zm36.2 29.6c-1.2.5-2.6 1.2-2.8 3.1-.1 1 .1 1.7.3 2.4.3 1 .5 1.5-.4 2.6l-.7.8 1 .3c.7.2.8.4.8.4.1.1-.2.6-.4.9-.2.3-.4.7-.5 1.1-.5 1.6 0 3.1.4 4.5.5 1.6.9 2.9.1 4.2-.8 1.4-2.4 1.8-4.1 2-2.4.4-4.2 1-6 1.9-3.1 1.6-4.4 3.8-4.6 7.4-.2 3.8.2 9.9 1.3 13.6l.7-.2-.7.3c.8 2.6 2.1 8.9-2.6 10.6-3.6 1.3-9.5 1.1-12.7-1.4-3-2.3-4.3-6.2-5.5-10.1-.3-.9-.6-1.7-.9-2.7-1.1-3.3-2.3-7-2-10.2.2-1.8 1.2-3.3 2.2-4.8.6-.9 1.2-1.8 1.7-2.9 1.7-3.5 1.4-7.5 1.2-11.3 0-.4 0-.7-.1-1.1 7.3-.3 13.2-6.3 13.2-13.7 0-5.8-3.6-10.8-8.8-12.8v-.8c0-.4-.3-.8-.8-.8h-.9V13h1.1c.2 0 .4-.1.4-.2V3c1.8.1 3.6.4 5.4.7l.9.1c6.4 1 14 4.4 15.9 10.8 1.2 3.8 1.3 8.6 1.3 11.1 0 3.2 1 5 2.7 7.5.6.9 1.4 1.8 2.2 2.7 1.2 1.3 2.4 2.7 2.9 4.2.8 1.7.1 2-1.2 2.6z"/></g><g><path class="st63" d="M9.8 74.6v8.8h.1v.4h.9v3.3h1.8v-3.3h.9v-.4h.1v-8.8c0-.2 0-.5-.1-.7l-.1-.5H10l-.1.5c-.1.2-.1.5-.1.7zM13 71.8l-.1-.8h-2.3l-.2.8zM13.3 72.9l-.1-.7h-2.9l-.1.7zM10.8 87.6h1.8v2.6h-1.8zM10.8 93.1c0 .2.4.3.9.3s.9-.2.9-.3l-.3-2.6h-1.2l-.3 2.6z"/></g><path d="M136.3 92.9h70.9c5.7 0 10.3 4.6 10.3 10.3v24.3c0 5.7-4.6 10.3-10.3 10.3H11c-5.7 0-10.3-4.6-10.3-10.3v-24.3c0-5.7 4.6-10.3 10.3-10.3h14" fill="none" stroke="#52c0e2" stroke-width="1.5" stroke-miterlimit="10"/><g><path class="st63" d="M53.6 83.1h1.8v8.8h5.3v1.6h-7.1V83.1zM62 83.1h7.5v1.6h-5.7v2.7H69v1.5h-5.2v3h5.8v1.6H62V83.1zM70.1 83.1h8.4v1.6h-3.3v8.8h-1.8v-8.8h-3.3v-1.6zM79.8 86.3c.7-.1.9-.7.9-1.3h-.9v-2h1.8v2c0 1.1-.7 2-1.8 2.1v-.8zM85 90c0 1.6 1.2 2.2 2.6 2.2 1.6 0 2.2-.8 2.2-1.6s-.4-1.1-.9-1.3c-.7-.3-1.7-.5-3.1-.9-1.8-.5-2.3-1.6-2.3-2.6 0-2.1 1.9-3.1 3.8-3.1 2.2 0 4 1.1 4 3.3h-1.8c-.1-1.3-1-1.8-2.2-1.8-.8 0-1.9.3-1.9 1.4 0 .7.5 1.1 1.2 1.3.2 0 2.5.6 3 .8 1.4.4 2 1.6 2 2.6 0 2.3-2.1 3.3-4.1 3.3-2.4 0-4.3-1.1-4.3-3.7H85zM96.3 83.1h8.4v1.6h-3.3v8.8h-1.8v-8.8h-3.3v-1.6zM107.3 83.1h1.9l4 10.4h-2l-1-2.8h-4.1l-1 2.8h-1.9l4.1-10.4zm-.6 6.2h3.2l-1.6-4.5-1.6 4.5zM114.3 83.1h1.8v8.8h5.3v1.6h-7.1V83.1zM122.6 83.1h1.8v4.7l4.6-4.7h2.2l-4.1 4.1 4.4 6.2h-2.3l-3.4-5-1.5 1.5v3.5h-1.8V83.1z"/></g></svg>