<svg version="1.1" id="Layer_1" xmlns="http://www.w3.org/2000/svg" x="0" y="0" viewBox="0 0 212.9 104.4" xml:space="preserve"><style>.st26{fill:#fff}.st107{fill:#221e20}</style><path class="st26" d="M184.1 67.6c-2.3 0-4.1-1-5-1.5l-.3-.2h-.1c-3.4-2.2-5-7.3-3.8-11.9.3-1 .7-1.9 1.2-2.7 1.2-1.8 2.9-2.9 4.8-2.9.4 0 .9.1 1.3.2l1.3.3c.4.1.7.4.9.8.1.4 0 .8-.2 1.1l-.8 1c-.4.4-.7.8-.9 1.2-1.2 1.8-1.7 3.8-1.6 5.7.1 1.8.9 3.2 2.1 3.9.7.4 1.5.7 2.4.7.2 0 .5 0 .8-.1l2.1-1.1c.2-.1.4-.1.5-.1.3 0 .5.1.7.2.3.2.5.6.5 1 0 .1 0 .2.1.4.1.4.1.6.1.8 0 .2-.1.4-.1.5 0 .4-.3.8-.7 1l-1.9.9h-.1c-1.2.6-2.3.8-3.3.8z"/><path class="st26" d="M206.7 61.6c-.3 0-.6-.1-.8-.3-2-1.6-2.3-6.7-.9-15.6.2-1.2-.2-1.7-.4-2-.7-.7-2.6-1.6-7.4-1.6-3.8 0-8.4.5-12.1 1-4.1.5-8.1 1.1-12.1.2-2.7-.6-6.6-1.1-8.2-3.6-5.7-.9-9.9-4.4-10.1-4.5-.6-.5-.7-1.3-.2-1.9l1.5-1.8c.2-.3.5-.5.9-.5h.1c.3 0 .6.1.8.3 0 0 3.2 2.5 7.2 3.4.2-.3.4-.5.6-.8 1.2-1.5 3-2.4 5-2.4.8 0 1.6.1 2.3.4 1.8.7 2.8 2.2 2.7 3.8-.1 1.1-.7 2-1.7 2.7.4.1 1.8.4 1.8.4.2 0 .6.1 1.3.1 1.9 0 4.9-.4 7.7-.7 4.3-.5 8.7-1 12.6-1 5.5 0 9 1 11 3.1 1.5 1.6 2.1 3.8 1.8 6.2-1.3 8.4-.6 11.1-.5 11.5.2.6 0 1-.2 1.3l-.1.1-1.4 1.7c-.2.3-.5.5-.9.5h-.3z"/><path class="st107" d="M206.3 45.9c.2-1.4 0-2.4-.8-3.2-3-3.1-13.2-1.9-20.6-1-4.6.5-7.7.7-10.2.5l-.5-.1c-4.5-1-7.7-1.7-8.6-3.8-5.6-.7-9.9-4.2-10.1-4.3l1.5-1.8s3.9 3.1 8.7 3.8c.2-.5.5-1 .9-1.5 1.6-2 4.1-2.2 5.7-1.6 1.2.5 1.9 1.4 1.8 2.5-.1 1.4-1.5 2.3-4.1 2.8-.3.1-.6.1-.9.1 1.4.5 3.6 1 5.6 1.5l.5.1c1.6.3 5.4-.1 9.5-.6 8.8-1 18.7-2.2 22.5 1.7 1.3 1.3 1.7 3 1.4 5.1-1.6 10.1-.4 12.2-.4 12.2l-1.4 1.8c-.8-.4-2.2-2.9-.5-14.2zM170.6 35c-.5 0-1.5.1-2.3 1l-.1.1c.4 0 .9-.1 1.3-.2 1.3-.2 1.8-.5 2.1-.7-.1 0-.5-.1-1-.2z"/><path class="st107" d="M208.5 53.6c-1-.7-2-.9-3-.8l.2-.2-1.4-.3c-2.2-.5-4.2.4-5.5 2.5-.5.8-.9 1.7-1.2 2.7-1.2 4.7.4 9.8 3.8 11.9l.4.2c.6.4 1.7.9 3 1.3-2.5 8.5-7.2 15.8-13.9 21.6-.7-.8-1.5-1.4-2-1.7l-.3-.2c-3.4-2.2-8.8-1.6-12.5 1.5-.8.7-1.5 1.4-2 2.2-1.3 2.1-1.3 4.3 0 6l1.4 1.6c.3.4.7.7 1.2 1 .9.6 2.1 1 3.3 1.2 1.7.5 4.7.4 6.3-.4 15.1-7.3 25-23 26.3-38.8 1.1-4.2-1-9.3-4.1-11.3zM127 0h2.9v8.2H127zM140.5 0h2.9v8.2h-2.9z"/><path class="st107" d="M115 25.2c-6.2 9.2-2.6 17.5 9.5 17.9 7.4.2 14.8.1 22.2-.2 12.1-.7 15.8-8.8 9.7-17.8-1.9-3.2-3.7-6.4-5.3-9.6-5.1-9.3-7.6-10.3-15.4-10.3-8.6 0-10 .8-15.1 10.2-1.8 3.2-3.6 6.5-5.6 9.8z"/><path d="M126.9 25.9c0 4.9 3.9 8.8 8.8 8.8s8.8-3.9 8.8-8.8-3.9-8.8-8.8-8.8-8.8 4-8.8 8.8z" fill="none" stroke="#fff" stroke-width="5" stroke-miterlimit="10"/><path class="st26" d="M139.8 25.9c0 2.3-1.8 4.1-4.1 4.1s-4.1-1.8-4.1-4.1 1.8-4.1 4.1-4.1 4.1 1.9 4.1 4.1z"/><g><path d="M0 53.6h5.7v17.1h7v4.6H0V53.6zM19.7 53.6h12.9v4.6h-7.2v3.7h6.8v4.4h-6.8v4.3h7.5v4.6H19.7V53.6zM43.5 58.4h-4.3v-4.8h14.2v4.8h-4.3v16.9h-5.7V58.4zM60.4 53.6h5.1V59c0 3.9-1.5 5.9-5.1 5.9v-2.6c1.5-.2 2-.9 2-2.6v-.4h-2v-5.7zM82.4 59.8v-.5c0-1.3-.5-2.3-1.6-2.3-1.2 0-1.8.9-1.8 1.9 0 4.3 9.3 2.2 9.3 10.1 0 4.6-2.7 6.7-7.7 6.7-4.7 0-7.3-1.6-7.3-6.1v-.8h5.5v.5c0 1.9.8 2.5 1.9 2.5 1.2 0 1.8-.9 1.8-2.1 0-4.3-8.9-2.2-8.9-9.9 0-4.4 2.3-6.8 7.1-6.8 4.9 0 7 2 7 6.7h-5.3zM111.2 58.4h-4.3v-4.8h14.2v4.8h-4.3v16.9h-5.7V58.4zM129.9 53.6h7.1l5.3 21.8h-6l-.6-3.8h-4.5l-.6 3.8h-6l5.3-21.8zm3.6 4.4l-1.6 9.2h3.2l-1.6-9.2zM148.9 53.6h5.7v17.1h7v4.6H149V53.6zM168.4 53.6h5.7v8.3h.1l4.2-8.3h6l-5.5 9.5 6.2 12.2h-6.5l-3.3-7.6-1.2 1.8v5.8h-5.7V53.6z"/></g></svg>