<svg version="1.1" id="Layer_1" xmlns="http://www.w3.org/2000/svg" x="0" y="0" viewBox="0 0 250.6 99.7" xml:space="preserve"><style>.st12{fill:#000100}</style><path class="st12" d="M113.7 99.7h-9.6c-5.7 0-10.3-4.6-10.3-10.3V69c0-.9-.6-2.3-1.2-2.9l-5.8-5.8 5.8-5.8c.6-.6 1.2-2 1.2-2.9V31.3c0-5.7 4.6-10.3 10.3-10.3h9.6v2.6h-9.6c-4.3 0-7.7 3.5-7.7 7.7v20.3c0 1.6-.8 3.6-2 4.8l-4 4 4 4c1.1 1.1 2 3.2 2 4.8v20.3c0 4.3 3.5 7.8 7.7 7.8h9.6v2.4zM233.3 99.7h-9.6v-2.6h9.6c4.3 0 7.7-3.5 7.7-7.8V69c0-1.6.8-3.6 2-4.8l4-4-4-4c-1.1-1.1-2-3.2-2-4.8V31.3c0-4.3-3.5-7.7-7.7-7.7h-9.6V21h9.6c5.7 0 10.3 4.6 10.3 10.3v20.3c0 .9.6 2.3 1.2 2.9l5.8 5.8-5.8 5.8c-.6.6-1.2 2-1.2 2.9v20.3c0 5.7-4.6 10.4-10.3 10.4zM84.6 99.1h-3.2v-2.4h3.2v2.4zm-6.3 0h-3.2v-2.4h3.2v2.4zm-6.6-.4c-1.1-.3-2.2-.8-3.2-1.4l1.3-2c.8.5 1.7.9 2.6 1.1l-.7 2.3zm-5.9-3.6c-.8-.9-1.5-1.8-2-2.9l2.1-1.1c.4.8 1 1.6 1.6 2.3l-1.7 1.7zm-3.1-6.2c-.1-.7-.2-1.5-.2-2.2v-1.1h2.4v1.1c0 .6.1 1.2.2 1.8l-2.4.4zm2.2-6.5h-2.4v-3.2h2.4v3.2zm0-6.3h-2.4v-3.2h2.4v3.2zm0-6.3h-2.4v-3.2h2.4v3.2zm0-6.3h-2.4v-3.2h2.4v3.2zm0-6.4h-2.4V54h2.4v3.1zm0-6.3h-2.4v-3.2h2.4v3.2zm0-6.3h-2.4v-3.2h2.4v3.2zm0-6.3h-2.4V35h2.4v3.2zm0-6.3h-2.4v-3.2h2.4v3.2zm0-6.3h-2.4v-3.2h2.4v3.2zm0-6.3h-2.4v-3.2h2.4v3.2zm0-6.3h-2.4v-.2c0-.9-.1-1.7-.3-2.6l2.3-.6c.3 1 .4 2.1.4 3.2v.2zm-3.8-5.4c-.5-.8-1.1-1.6-1.7-2.2L61 3.6c.9.8 1.6 1.7 2.2 2.7l-2.1 1.3zm-4-3.8c-.8-.4-1.7-.7-2.7-.9l.5-2.4c1.1.2 2.3.6 3.3 1.1l-1.1 2.2zm-5.6-1.1h-3.2V.3h3.2v2.4zm-6.3 0H42V.3h3.2v2.4zM1 8.9C1 4.1 4.5 0 9.3 0c5.7 0 8.4 5.2 8.4 10.8 0 9-5.9 19.2-16.7 21.5l-1-3.1c5.4-2.3 8.9-6.8 8.9-12.2C4.2 17 1 13.5 1 8.9zm20.8 0C21.8 4.1 25.2 0 30 0c5.7 0 8.4 5.2 8.4 10.8 0 9-5.9 19.2-16.7 21.5l-.9-3.1c5.4-2.3 8.9-6.8 8.9-12.2-4.7 0-7.9-3.5-7.9-8.1z"/><path d="M107.6 57.5h5.2v15.8h6.4v4.3h-11.7V57.5zM120.8 57.5h11.9v4.3H126v3.4h6.2v4.1H126v4h6.9v4.3h-12.2V57.5zM137.6 62h-3.9v-4.4h13.1V62h-3.9v15.6h-5.2V62zM148.2 57.5h4.7v5.1c0 3.6-1.4 5.4-4.7 5.5v-2.4c1.4-.1 1.8-.9 1.8-2.4V63h-1.8v-5.5zM163.4 63.3v-.5c0-1.2-.5-2.2-1.5-2.2-1.1 0-1.6.9-1.6 1.8 0 4 8.6 2 8.6 9.4 0 4.3-2.5 6.2-7.1 6.2-4.3 0-6.8-1.5-6.8-5.7v-.7h5.1v.5c0 1.7.7 2.3 1.7 2.3 1.1 0 1.7-.8 1.7-1.9 0-4-8.2-2-8.2-9.1 0-4.1 2.2-6.3 6.6-6.3 4.6 0 6.5 1.9 6.5 6.2h-5zM179.9 62H176v-4.4h13V62h-3.9v15.6h-5.2V62zM192.1 57.5h6.6l4.9 20.1H198l-.5-3.5h-4.2l-.5 3.5h-5.6l4.9-20.1zm3.3 4.1l-1.5 8.5h2.9l-1.4-8.5zM204.6 57.5h5.2v15.8h6.4v4.3h-11.7V57.5zM217.6 57.5h5.2v7.7h.1l3.9-7.7h5.6l-5.1 8.8 5.7 11.3h-6l-3.1-7-1.1 1.7v5.3h-5.2V57.5z"/><g><path d="M106.4 40.8h1.4l3 11.6 3.2-11.6h1.6l3.2 11.6 3-11.6h1.3L119.4 54h-1.3l-3.4-11.9-3.3 11.9H110l-3.6-13.2zM125 40.8h9.1v1.1h-7.9v4.8h7.4v1.1h-7.4V53h8v1.1H125V40.8zM146 40.8h1.4l5.2 13.2h-1.4l-1.6-4.1h-6L142 54h-1.4l5.4-13.2zm-2 8.1h5.2l-2.6-6.8-2.6 6.8zM154.2 40.8h6.1c2.2 0 4 1.1 4 3.5 0 1.7-.9 3-2.6 3.4 1.7.2 2.2 1.4 2.3 3 .1.9.1 2.7.6 3.4h-1.4c-.3-.5-.3-1.5-.4-2.1-.1-1.9-.3-3.9-2.7-3.8h-4.8v5.9H154V40.8zm1.3 6.3h4.7c1.5 0 2.9-1 2.9-2.6s-1-2.6-2.9-2.6h-4.7v5.2zM167.1 40.8h9.1v1.1h-7.9v4.8h7.4v1.1h-7.4V53h8v1.1h-9.2V40.8zM184.2 40.8h1.3v5.8h7.9v-5.8h1.3V54h-1.3v-6.4h-7.9V54h-1.3V40.8zM197.7 40.8h9.1v1.1H199v4.8h7.4v1.1H199V53h8v1.1h-9.2V40.8zM209.2 40.8h6.1c2.2 0 4 1.1 4 3.5 0 1.7-.9 3-2.6 3.4 1.7.2 2.2 1.4 2.3 3 .1.9.1 2.7.6 3.4h-1.4c-.3-.5-.3-1.5-.4-2.1-.1-1.9-.3-3.9-2.7-3.8h-4.8v5.9H209V40.8zm1.2 6.3h4.7c1.5 0 2.9-1 2.9-2.6s-1-2.6-2.9-2.6h-4.7v5.2zM222 40.8h9.1v1.1h-7.9v4.8h7.4v1.1h-7.4V53h8v1.1H222V40.8z"/></g></svg>