<svg version="1.1" id="Layer_1" xmlns="http://www.w3.org/2000/svg" x="0" y="0" viewBox="0 0 263.9 99.2" xml:space="preserve"><style>.st26{fill:#fff}</style><path fill="#e40659" d="M52.4 3.9L.4 6.1 0 61.6l53.6 2.7z"/><path fill="#e40659" stroke="#fff" stroke-width=".75" stroke-miterlimit="10" d="M2.9 58.9l.3-50.1 46.4-1.9 1.1 54.4z"/><path fill="#c80e57" d="M30.9 7.7l21.5-3.8 1.2 60.4-23.1 4.9z"/><path d="M31.2 7.4C34 7.8 263.9 0 263.9 0l-.3 70.7-233.1-1.5.7-61.8z" fill="#e61c63"/><path d="M33.4 66.4l.6-56.2C58.6 9.8 234.9 3.8 261.1 3l-.2 64.9-227.5-1.5z" fill="none" stroke="#fff" stroke-width=".75" stroke-miterlimit="10"/><path class="st26" d="M69.2 31.8v-.5c0-1.2-.5-2.2-1.5-2.2-1.2 0-1.7.9-1.7 1.8 0 4.1 8.9 2.1 8.9 9.7 0 4.4-2.6 6.4-7.4 6.4-4.5 0-7-1.5-7-5.9v-.7h5.2v.5c0 1.8.7 2.4 1.8 2.4s1.8-.9 1.8-2c0-4.1-8.5-2.1-8.5-9.4 0-4.2 2.2-6.5 6.8-6.5 4.7 0 6.7 2 6.7 6.4h-5.1zM76.5 25.8h8.1c4.1 0 6 2.8 6 6.4 0 4.3-2.4 6.5-6.8 6.5H82v7.9h-5.4V25.8zm5.5 9h1c1.4 0 2.1-.8 2.1-2.5s-.7-2.5-2.1-2.5h-1v5zM92.4 25.8h12.3v4.4h-6.9v3.6h6.5V38h-6.5v4.1h7.2v4.4H92.4V25.8zM110.4 25.8h6.8l5.1 20.8h-5.8L116 43h-4.3l-.6 3.6h-5.8l5.1-20.8zm3.4 4.3l-1.5 8.8h3l-1.5-8.8zM123 25.8h5.4v8h.1l4-8h5.8l-5.2 9.1 5.9 11.7h-6.2l-3.2-7.3-1.1 1.8v5.5H123V25.8zM148.7 30.4h-4.1v-4.6h13.6v4.6h-4.1v16.2h-5.4V30.4zM166.2 25.4c5.5 0 7.4 3 7.4 10.8 0 7.8-1.9 10.8-7.4 10.8s-7.4-3-7.4-10.8c0-7.8 1.9-10.8 7.4-10.8zm0 18c1.7 0 1.8-1.5 1.8-7.1s-.2-7.1-1.8-7.1-1.8 1.5-1.8 7.1.1 7.1 1.8 7.1zM188.4 25.8v15c0 2 .6 2.5 1.6 2.5s1.6-.5 1.6-2.5v-15h5.4v13.6c0 5.8-2.5 7.6-7.1 7.6s-7.1-1.8-7.1-7.6V25.8h5.6zM207.5 31.8v-.5c0-1.2-.5-2.2-1.5-2.2-1.2 0-1.7.9-1.7 1.8 0 4.1 8.9 2.1 8.9 9.7 0 4.4-2.6 6.4-7.4 6.4-4.5 0-7-1.5-7-5.9v-.7h5.2v.5c0 1.8.7 2.4 1.8 2.4s1.8-.9 1.8-2c0-4.1-8.5-2.1-8.5-9.4 0-4.2 2.2-6.5 6.8-6.5 4.7 0 6.7 2 6.7 6.4h-5.1zM215.8 32.8v-7h5.1v7l-.6 7.8h-3.9l-.6-7.8zm.1 9.2h4.9v4.6h-4.9V42zM225 32.8v-7h5.1v7l-.6 7.8h-3.9l-.6-7.8zm.1 9.2h4.9v4.6h-4.9V42z"/><g><path fill="#299da5" d="M223.7 80.2l-12.5-4.1-12.5-4 .1.4 3.9 12.1 4.1 12.5 4.4-8.6 6.7 6.7 1.8-1.8 2.1-2.1-6.7-6.7z"/><path fill="#c0e1de" d="M219.5 82.3L207 78.2l-12.6-4 4.1 12.5 4.1 12.5 4.4-8.5 6.7 6.6 3.9-3.9-6.7-6.7z"/><path class="st26" d="M207 78.2l-12.6-4 .2.4 20.9 20.9 2.1-2.1-6.7-6.7 8.6-4.4z"/></g></svg>