<svg version="1.1" id="Layer_1" xmlns="http://www.w3.org/2000/svg" xmlns:xlink="http://www.w3.org/1999/xlink" x="0" y="0" viewBox="0 0 239.6 122.7" xml:space="preserve"><style>.st284{fill:#ba2283}</style><defs><path id="SVGID_94_" d="M149.8 87.7C135.8 33.1 153 0 192.8 0c41.7 0 56.7 48.1 40.3 86.9-.6 1.5 1.9 3 2.9 2.8-12.5 1.8-26.9 4.2-43.1 4.4-16.6.3-31.7-2-44.8-3.9.6.2 1.9-1.6 1.7-2.5z"/></defs><clipPath id="SVGID_1_"><use xlink:href="#SVGID_94_" overflow="visible"/></clipPath><g clip-path="url(#SVGID_1_)"><linearGradient id="SVGID_2_" gradientUnits="userSpaceOnUse" x1="192.04" y1="121.402" x2="192.04" y2="9.322"><stop offset="0" stop-color="#f8f8f8"/><stop offset="1" stop-color="#eaeaea"/></linearGradient><path d="M230.5 33.7c-2.1-4.8-5.1-9.1-8.9-12.7-3.8-3.6-8.3-6.4-13.2-8.3-5.1-1.9-10.6-2.7-16.2-2.7-5.6.1-11.1.8-16.2 2.8-5 1.9-9.4 4.6-13.3 8.2-3.8 3.6-6.8 7.9-8.9 12.7-2.2 5-3.3 10.3-3.3 15.8 0 7.7 2.2 15.3 6.4 21.9 3.7 5.8 8.9 10.7 15 14v32.3c0 1.7 1.4 3.1 3.1 3.1h34.4c1.7 0 3.1-1.4 3.1-3.1V85.4c6.1-3.4 11.2-8.2 15-14.1 4.2-6.6 6.4-14.1 6.4-21.9-.2-5.3-1.3-10.7-3.4-15.7z" fill="url(#SVGID_2_)"/><linearGradient id="SVGID_3_" gradientUnits="userSpaceOnUse" x1="192.042" y1="121.324" x2="192.042" y2="9.25"><stop offset="0" stop-color="#56ae31"/><stop offset="1" stop-color="#0a9f39"/></linearGradient><path d="M192 13c-21.3.2-38.6 15.8-38.6 36.7 0 14.8 8.7 27.8 21.4 34.1v34.1h34.5V83.8c12.7-6.3 21.4-19.2 21.4-34.1 0-21-17.3-36.8-38.7-36.7z" fill="url(#SVGID_3_)"/></g><image width="302" height="19" xlink:href="F1FEB75934A3A3CA.png" transform="matrix(.24 0 0 .24 155.787 90.447)" overflow="visible"/><path d="M192.6 95.1c13.4-.2 25.2-2.5 35.4-4-10.3 1.5-22.1 3.4-35.4 3.7-13.7.2-26.1-1.6-36.8-3.2 10.8 1.6 23.2 3.7 36.8 3.5z" fill="#fff"/><radialGradient id="SVGID_4_" cx="192.15" cy="83.964" r="36.755" gradientUnits="userSpaceOnUse"><stop offset="0" stop-color="#afaeae"/><stop offset=".329" stop-color="#9a9a9a"/><stop offset=".728" stop-color="#868787"/><stop offset="1" stop-color="#7f8080"/></radialGradient><path d="M192.2 122.7c18.1-.2 33.8-14.6 35.9-31.6-10.3 1.5-22.1 3.8-35.4 4-13.7.2-26.1-1.9-36.8-3.5 2.2 17 18.1 31.3 36.3 31.1z" fill="url(#SVGID_4_)"/><path d="M177.3 53c.1-.2.2-.3.2-.4.3-.4.3-.8.3-1.2-.2-1.9-.3-3.8-.5-5.6-.1-.7 0-1.4-.2-2.1-.1-.4 0-.8 0-1.3-.1-.5 0-1-.1-1.5v-.3c.2-1.1.3-2.3.3-3.5 0-.6.1-1.2.2-1.8.1-.6.2-1.2.2-1.9v-2.2c0-.7-.1-1.4-.5-2.1-.2-.3-.2-.6 0-.8.1-.1.1-.3.2-.4.2 0 .3 0 .5-.1.3-.1.7 0 .9.2.9.6 1.8.7 2.8.6.8-.1 1.6-.3 2.5-.4.9-.1 1.7-.3 2.6-.4.8-.1 1.6-.2 2.5-.4.7-.2 1.4-.3 2.1-.3.6-.1 1.2 0 1.7 0 .7 0 1.4 0 2.1-.2.3-.1.7-.1 1-.2 1-.2 2-.3 3 0 .6.1 1.1 0 1.6-.1.3-.1.6-.3.8-.7.1-.4.4-.5.8-.3.1 0 .1.1.2.1.6.2.9.7 1 1.3 0 .3 0 .6.1.9.1.6.1 1.3.2 1.9.1 1 .1 2 0 2.9 0 .8.1 1.5.2 2.2.2.8.2 1.6.2 2.5 0 1.7.1 3.5.4 5.2.4 2.6.5 5.2.3 7.8v2.4c.2.9.2 1 1.2 1.1h.2c1.2.4 2.4.2 3.6.2 1.2 0 2.4-.1 3.6-.2 1.3-.2 2.7-.1 4 .1.6.1 1.2.1 1.8.2.3 0 .5.1.8.2.2.1.4.1.7 0 .2-.1.4-.2.7 0 .3.2.7.3.8.7 0 .1.1.2.1.3-.2.3-.3.6-.5.9-.1.1-.3.2-.4.2-.5 0-.9.3-1.2.6-1.3 1.1-2.7 2.1-4.1 2.9-1.5.9-2.9 2.1-4.3 3.2-1.1.9-2.1 1.8-3.2 2.8-1.1 1-2.1 2-3.1 3-1.2 1.2-2.5 2.3-3.9 3.4-1.2.9-2.2 1.9-3.2 2.9-.7.7-1.4 1.4-2.2 2.1-.9.8-1.7 1.5-2.6 2.3-.5.4-1 .9-1.4 1.3l-1.6 1.6c-.4.5-.8 1-1.2 1.6.2.1.3.1.4.2.3.2.3.4.1.6-.5.6-1.3.6-2 .2-1.2-.8-2.1-2-3-3.1-.4-.5-.8-1-1.3-1.5l-2.4-2.7c-.8-.9-1.5-1.9-2.2-2.9-1-1.4-2-2.8-3.2-4-.7-.7-1.2-1.5-1.8-2.2-1.2-1.5-2.3-3.1-3.6-4.5-.7-.7-1.3-1.5-2-2.3-.8-1-1.7-1.8-2.6-2.7-1-.9-2-1.8-2.8-2.9l-.9-1.2c-.3-.4-.2-.8.3-1.1.3-.2.7-.2 1-.1.4.1.9.2 1.3.2h.2c.5-.2.9-.1 1.4-.1 1 0 1.9-.1 2.9-.1.5 0 1 .1 1.4.1h2.3c.7-.2 1.4-.2 2.1-.3.5-.1 1.1-.3 1.6-.4.1-.3.3-.4.6-.4zm7.5.2c-.1 0-.1 0 0 0-.1 0-.1 0 0 0-.1 0 0 0 0 0s-.1 0 0 0v-.1.1zm-6.6 7.4c.1-.1.2-.2.1-.3.1 0 .2.1.2 0 .2-.2.4-.3.5-.6.2-.4.4-.8.6-1.1.6-.8 1-1.8 1.7-2.6.3-.7.9-1.2 1.1-1.9.6-.7 1-1.5 1.4-2.3.9-1.6 1.9-3.2 2.8-4.8.7-1.3 1.5-2.5 2.4-3.7l.9-1.2c.5-.8 1.1-1.5 1.7-2.3.4-.6.9-1.1 1.3-1.7.7-.9 1.3-1.9 1.9-2.8 1.3-1.8 2.3-3.7 3.3-5.6.1-.1.1-.2.1-.3.1-.3.2-.5.4-.8.1-.2.3-.4.2-.7-.8-.2-1.5-.2-2.3 0-.3.1-.5.1-.8.2-1.1.2-2.2.3-3.3.3-.7 0-1.4 0-2 .1-1.5.3-2.9.6-4.4.8-.1 0-.1.1-.2.1 0 .3-.1.7-.1 1 0 .3-.1.6-.1.8-.3 1-.7 2-1.2 3-.6 1.3-1.2 2.6-1.8 3.8 0 .1-.1.2-.1.3.2-.1.3-.2.4-.3.4-.6.8-1.1 1.3-1.7.4-.6.9-1.2 1.3-1.8.5-.8.9-1.6 1.3-2.4.1-.2.2-.3.3-.4.2-.1.4-.3.6-.4.2-.1.4.1.5.3.1.1.2.1.2.2.3.2.3.3.2.6-.2.4-.3.9-.5 1.3-.6 1.1-1.2 2.2-1.7 3.3-.5.9-.9 1.8-1.3 2.7-.7 1.5-1.4 3.1-2.1 4.6-.2.3-.3.7-.5 1-.4.8-.9 1.7-1.4 2.5-.1.1-.2.2-.1.4.2 0 .3-.2.4-.3.4-.7.8-1.3 1.2-2 .9-1.4 1.9-2.9 2.8-4.3 1.2-1.9 2.4-3.7 3.6-5.6.4-.7.8-1.3 1.2-2 .5-.9 1.1-1.8 1.6-2.7.3-.5.6-1.1.8-1.6.2-.4.4-.7.9-.8.3.2.5.3.8.5.2.1.2.3.1.5-.4.9-.7 1.8-1.2 2.6-.6 1.1-1.2 2.3-1.9 3.4-.3.5-.6 1.1-.9 1.7-.9 1.5-1.9 3-2.7 4.5-.8 1.4-1.5 2.7-2.2 4.1-1 1.9-1.9 3.9-2.9 5.8-.8 1.5-1.6 2.9-2.4 4.4-.7 1.2-1.4 2.4-2.1 3.7.1.3.1.4.1.5 0 .1 0 .1 0 0v0zm6.9-8.3c.3.1.4-.2.5-.4.6-1 1.3-1.9 1.8-2.9.7-1.3 1.5-2.4 2.1-3.7.1-.3.3-.6.5-.8 0-.1.1-.2-.1-.2-.2.4-.4.7-.7 1.1-.9 1.2-1.5 2.5-2.3 3.7-.2.4-.5.8-.7 1.2-.4.6-.7 1.3-1.1 2v.2l.1-.1c-.1 0-.1-.1-.1-.1zm-1.2-12.7c-.3 0-.4.1-.5.3l-1.8 2.4c-.1 0-.2.1-.4.1-.9 0-1.7-.6-1.3-1.7.1-.5.3-1 .6-1.5.6-1.3 1.3-2.6 2-3.9.1-.1.2-.3.1-.5-.7 1-1.3 2.1-1.9 3.1-.2 0-.3 0-.5.1h-.2c-.7-.2-1-.5-.8-1.1.1-.5.3-1 .4-1.4l1.2-3c.1-.3.2-.6.3-.8.2-.6.6-.7 1.1-.4l.3.3v.7c.6-.7.8-1.6 1.2-2.4-.7-.1-1.4.2-2.1.1h-2.1c-.3.5-.3.5-.2 1v.8c-.1.7-.1 1.3-.1 2 0 .9 0 1.7-.2 2.6-.1.6-.2 1.1-.2 1.7 0 1.1-.1 2.2-.1 3.3 0 1.5.2 3 .3 4.5 0 .5.1 1.1.1 1.6 0 .3.1.6.2 1 .1-.1.2-.2.2-.3.3-.5.5-.9.8-1.4 1-1.6 1.8-3.2 2.5-4.9.2-.4.4-.9.7-1.2.1-.1.1-.2.1-.3-.1-.4.1-.6.3-.8.1-.1.1-.3.2-.4-.1-.1-.2 0-.2.1-.1.1 0 .2 0 .3zm11.9 5.1c-.1.1-.2.1-.2.2-.3.5-.7 1-1 1.5-.8 1.2-1.6 2.4-2.4 3.7-.9 1.4-1.9 2.9-2.8 4.3l-3.3 5.1c-.8 1.2-1.5 2.3-2.3 3.5-.5.8-1.1 1.5-1.7 2.2-.1.2-.3.3-.5.5-.5.3-.9.7-1.4 1-1.3.8-2.5 1.6-3.7 2.6.4.6.9 1 1.3 1.5.5.5.8 1.1 1.4 1.5.3-.8.7-1.5 1.2-2.2.7-.9 1.3-1.9 2-2.8.5-.7.8-1.6 1.5-2.2l.1-.1c.7-1.1 1.3-2.2 2-3.4.4-.6.8-1.3 1.2-1.9.8-1.4 1.6-2.8 2.4-4.1l1.2-1.8c.7-1.1 1.3-2.2 2-3.3.9-1.6 1.9-3.2 2.8-4.8 0-.5 0-.8.2-1 0-.1 0-.1 0 0 .1-.1 0-.1 0-.1v.1zm-5.1 11l.1-.1s0-.1-.1-.1v.2c0 .1 0 .2-.1.3-.4.7-.8 1.5-1.2 2.2 0 .1-.1.1-.1.2-.1.1-.2.3-.3.4-.2.5-.4 1-.9 1.2 0 0-.1.1-.1.2.1.2 0 .3-.2.5-.1.1-.2.2-.2.4-.1.5-.4 1-.7 1.4-.4.6-.7 1.2-1 1.7-.3.6-.6 1.3-1.1 1.8 0 0-.1.1-.1.2-.1.4-.4.8-.6 1.2-.3.6-.6 1.1-.9 1.6 0 .1 0 .2-.1.4.8-.7 1.3-1.5 1.9-2.2 0-.1.1-.1.1-.2.1-.2.3-.5.4-.6.3-.3.6-.7.9-1 .2-.3.4-.6.8-.8.1 0 .1-.1.1-.2.1-.4.3-.6.6-.8.1 0 .1-.2.2-.2.2-.4.5-.7.8-1 .6-.5 1-1.2 1.6-1.8.2-.2.4-.5.6-.8l.3-.3 1.2-1.5c.6-.7 1.2-1.3 1.7-2 .6-.8 1.1-1.5 1.7-2.3.2-.2.3-.4.4-.6.2-.4.5-.7.7-1 .3-.3.6-.7.9-1 .3-.4.5-.8.8-1.2.3-.4.5-.9.8-1.3.9-1.1 1.5-2.4 2.1-3.6.3-.6.6-1.3.9-2 .1-.1.2-.3.3-.3.2-.1.2-.3.2-.5 0-.4-.1-.7-.2-1.1-.2-1.1-.2-2.3-.2-3.5 0-.5-.1-1.1-.1-1.6h-.1c-.2 0-.2.1-.3.2-.3.4-.6.8-.8 1.2-.9 1.6-1.9 3.3-2.7 5-.3.7-.6 1.3-1 2l-1.5 2.7c-.3.5-.5 1-.8 1.4-.4.7-.7 1.4-1.3 2-.1.1-.1.3-.2.4-.2.5-.5.8-.8 1.2-.3.4-.9.8-.7 1.4-.1.2-.2.4-.4.7-.1.1-.1.3-.3.3-.1.1-.3 0-.5.1.2.4.1.7-.1.9-.3-.1-.4 0-.4.2zm9.9-27.8c.1.3 0 .5-.2.7-.1.2-.2.3-.3.5-.6 1.4-1.2 2.7-2 4-.5.8-1 1.6-1.5 2.5-.4.6-.8 1.2-1.2 1.9-.3.6-.6 1.2-.9 1.7-1 1.7-1.9 3.3-2.9 5-.7 1.2-1.3 2.3-2 3.5-.7 1.2-1.3 2.4-2 3.6-.6 1.1-1.3 2.1-1.9 3.2-.5.8-1 1.5-1.6 2.3-.7 1.1-1.4 2.1-2.1 3.2-1 1.7-2 3.4-2.9 5.1-.1.1-.2.2-.1.3h.1c.9-.5 1.6-1 2.2-1.9.3-.5.8-.8 1.1-1.3.4-.2.5-.7.9-1 .2-.2.4-.5.6-.8.7-1.2 1.4-2.2 2.2-3.3.4-.6.8-1.1 1.1-1.7.5-.8.9-1.5 1.5-2.2.3-.3.5-.7.7-1.1.2-.5.5-.9.8-1.3l.6-.9c.2-.2.3-.5.4-.7.1-.2.3-.5.4-.7.1-.1.1-.3.2-.4.3-.4.6-.9.9-1.3.2-.4.4-.8.7-1.2.8-1.2 1.7-2.5 2.6-3.7.5-.7 1-1.5 1.5-2.2l.9-1.2c.7-1 1.3-2.1 2-3.1.4-.5.7-1.2 1.5-1.3v-1.4c.1-.8.1-1.6 0-2.4-.1-.6-.1-1.3-.2-1.9 0-.2-.1-.3-.2-.5-.2-.2-.5-.1-.9 0zM194.5 67l-.1-.1c0 .1-.1.1-.1.2-1 1.2-2 2.4-2.9 3.6-.4.6-.9 1.1-1.4 1.7-.6.8-1.3 1.5-1.9 2.2-.4.5-.9 1-1.4 1.5-.5.6-1.1 1-1.7 1.5-.1.1-.3.2-.4.1-.5-.1-1-.2-1.2-.7-.3-.6-.5-1.2-.2-1.9.2-.4.4-.7.6-1.1.4-.6.8-1.2 1.2-1.7.4-.6.8-1.1 1.2-1.7.3-.3.6-.7.8-1.1.2-.4.5-.8.9-1.1.1 0 .1-.1.1-.2 0-.3.3-.5.4-.8.2-.4.4-.8.7-1.1.3-.3.5-.6.6-.9.1-.3.2-.6.5-.8.1-.1.2-.3.2-.5s.1-.4.3-.5c.3-.2.4-.5.6-.8.2-.4.2-.9.7-1.1l.1-.1c.1-.4.6-.6.6-1.1 0 0 .1-.1.1-.2.1-.1.2-.2.2-.3.1-.3.2-.5.4-.7.1-.1.1-.3.2-.4.1-.3.1-.6.4-.7.1 0 .4-.7.4-1.1-.4.5-.8.7-1.1 1.2-.3.5-.7.9-1.1 1.4-1.4 1.7-2.8 3.5-4.2 5.3-.6.8-1.1 1.6-1.7 2.3-.6.8-1.2 1.7-1.9 2.4-1 1.1-2.1 2.2-3.2 3.2-.3.3-.6.5-1 .5-.1 0-.1.1-.2.2.4.6.9 1.3 1.3 1.9.5.6 1 1.2 1.6 1.9 1.2 1.4 2.4 2.7 3.6 4.1.3.4.7.7 1 1 .5-.1.7-.5.9-.8.1-.1.2-.3.3-.4.5-.4.9-.8 1.3-1.3.6-.6 1.1-1.2 1.7-1.7 1-.8 2-1.5 2.9-2.4l1.3-1.3c-.4-.1-.7-.2-.9-.4-.1-.3-.1-.6.1-.9.4-.5.7-.9 1.1-1.4.5-.6 1-1.2 1.5-1.9v-.1s-.1-.1-.2-.1c-.2 0-.3.1-.4.2-.1.2-.2.3-.3.4-.4.4-.9.8-1.1 1.3 0 .1-.1.1-.2.1-.1.4-.6.5-.7 1-.1.6-.4 1-1 1-.1.4-.2.7-.6.9-.2.1-.4.3-.4.5-.1.3-.3.5-.5.7-.2.3-.5.6-.7.9-.5.6-1 1.2-1.4 1.7-.7.1-1.2.2-1.7.6-.3.3-.7.2-1.1.1-.1-.1-.3-.1-.4-.2-.4-.3-.5-.9-.1-1.3.8-.9 1.5-1.9 2.2-2.8.6-.7 1.1-1.4 1.6-2.2.1-.2.2-.4.4-.6.3-.4.6-.9.9-1.3.7-1.2 1.3-2.4 2-3.6.3.2.4 0 .5-.2zm8.6-21.5c-.1.2-.2.3-.3.5-.2.4-.5.8-.7 1.2-.5.7-.9 1.5-1.3 2.3-.2.5-.5 1-.8 1.5-.5.9-1.1 1.9-1.6 2.8-.2.3-.3.7-.6 1 0 0-.1.1-.1.2l-.3.6-1.5 2.4c-.3.6-.7 1.1-1 1.7-.6 1-1.3 2.1-1.9 3.1-.4.8-.9 1.5-1.4 2.2-.4.7-.8 1.4-1.2 2-.3.4-.6.8-.8 1.2 0 .1-.1.2-.2.3-.3.3-.5.5-.6.9 0 .1-.1.2-.2.3-.6.8-1.1 1.6-1.7 2.5-.4.6-.8 1.3-1.3 1.9-.1.2-.3.4-.4.7-.1.1-.1.2 0 .4.2-.2.5-.4.7-.6 1.1-1.1 2.1-2.2 3-3.5.4-.5.7-1 1.2-1.3.4-.6.9-1.2 1.3-1.8.4-.6 1-1 1.3-1.7h.1c.4-.2.4-.7.8-.9.2-.5.6-.9 1-1.3.7-.8 1.4-1.7 1.8-2.6 0-.1.1-.2.2-.2l.3-.3c.3-.5.7-1.1 1.1-1.6.4-.5.5-1.1.9-1.5 0-.5.4-.7.6-1.1.2-.3.4-.7.6-1 .1-.1.2-.2.2-.3.2-.5.5-1 .8-1.5.2-.3.3-.6.5-.9.1-.2.2-.5.4-.7.1-.2.3-.3.6-.3.2 0 .4 0 .6.1v-1c0-1.6.1-3.2.1-4.8 0-.4 0-.7-.2-.9zm-12.2 30.6l.9-.9c.5-.6 1-1.2 1.6-1.8.3-.4.6-.7.9-1.1 0-.1.2-.1.2-.1.1-.5.5-.8.8-1.2l3.6-4.8c.3-.5.7-.9 1-1.4.4-.5.7-1 1.1-1.5.3-.5.7-.9 1-1.4.3-.5.8-.9 1-1.5.1-.3.4-.6.6-.9.6-1 1.1-1.9 1.7-2.9.2-.3.4-.7.5-1 .1-.1.1-.3.1-.4-.3-.3-.6-.2-.9-.3-.3-.1-.7-.1-.9-.2-.3-.1-.5-.4-.7-.6-.5 1-1 2.1-1.6 3.1-.5.7-.8 1.6-1.3 2.3-.5.9-1 1.7-1.5 2.5-.7 1.3-1.5 2.7-2.2 4-.1.2-.2.3-.3.4-.1.1-.4.2-.5.2-.1.3-.3.5-.4.7-.1.2-.2.3-.3.5-.4.9-.9 1.8-1.4 2.6-.2.3-.3.6-.3.9 0 .2 0 .4-.2.5-.5.3-.7.8-1 1.2-.4.6-.8 1.1-1.2 1.7l-.1.1c-.4.6-.3.9-.2 1.3zm-12.3-13.2c-.1 0-.1 0 0 0l-.1-.1c-.6.7-1.2 1.4-1.9 2.1-.1.1-.2.3-.3.4-.2.4-.4.5-.8.4-.7-.1-1.1-.7-.9-1.4 0-.1.1-.2.1-.4l.9-1.8 2.1-3.9c.5-.8.9-1.6 1.4-2.4.2-.3.4-.6.4-1.1h-.8c-.8 1.2-1.6 2.4-2.4 3.7-.4.6-.7 1.2-1.1 1.8-.5.7-.9 1.5-1.4 2.2l-1.2 1.5c0 .1 0 .2.1.2.8 1 1.5 2.1 2.3 3.1l.3.3c.5-.5.8-1.1 1.2-1.6.4-.5.7-1.1 1-1.7.4-.2.8-.8 1.1-1.3zm21.9 5.3c.3-.1.3-.3.4-.5.1-.2.3-.3.4-.4.6-.7 1-1.5 1.8-2.1.1 0 .1-.1.1-.2.1-.4.4-.7.8-1 .1 0 .1-.1.1-.2.3-.4.5-.8.8-1.2.1-.1.2-.2.3-.4.2-.7 1-1.1 1.1-1.8.6-.6 1-1.3 1.4-2 .5-.8.9-1.5 1.4-2.3l.3-.6c-.6-.2-1.1 0-1.7-.1-.1.1-.2.2-.2.3-.3.5-.6 1.1-.9 1.6-.6 1-1.2 2.1-1.9 3.1l-.6.9c-.4.7-.7 1.4-1 2.1-.2.4-.4.7-.6 1.1-.1.3-.2.6-.5.9-.1.1-.2.2-.2.4-.5.7-.9 1.5-1.3 2.4zM165 55.8c.8 1.1 2.2 2.5 2.9 2.9.1-.2.2-.4.4-.5.2-.3.5-.5.7-.8.2-.2.4-.5.6-.7.3-.3.8-.3 1.1-.1.2.1.3.2.5.4.2-.1.3-.3.4-.4.1-.2.2-.3.4-.5.4-.6.9-.6 1.4-.1.1.1.2.2.3.4.2-.2.3-.4.4-.6.3-.4.5-.4 1-.2.2.1.4.3.6.4.1.1.2.2.4.3.3-.4.6-.8.8-1.2v-.2h-.3c-1.1.2-2.2.4-3.4.5h-.5c-.8 0-1.6-.1-2.4-.1-.7 0-1.5-.1-2.2 0-.8.1-1.7.2-2.5.3-.3.1-.5.1-.6.2zm32.9 17l.1.1c.1-.1.2-.1.3-.2.4-.3.8-.7 1.1-1 .8-.6 1.6-1.3 2.4-1.9.4-.4.9-.7 1.2-1.2-.2-.4-.1-.8.1-1.1.3-.5.5-.9.9-1.3.3-.3.5-.6.6-1-.2.2-.4.3-.6.4-.3.2-.6.3-.6.8 0 .1-.1.2-.2.2-.2.2-.3.4-.5.5-.2.2-.4.3-.5.6 0 .1-.1.2-.2.2-.4.2-.6.6-.9 1-.6.8-1.2 1.6-1.9 2.2l-.3.3c-.2.4-.6.7-1 1 .1.2.1.3 0 .4zm-13.7-26.3s-.1 0-.1-.1l-.6.9c-.5.8-1 1.7-1.5 2.5-.3.5-.7.9-1.2 1.1-.2.1-.3.2-.4.3-.2.2-.3.4-.4.5-.2.1-.4.3-.5.4.1.3 0 .5.2.7.2.3.5.6.7 1 .2-.3.4-.5.5-.8 1.1-1.9 2-3.9 3.1-5.8.1-.3.1-.5.2-.7zm-15.5 13c.1.2.1.2.2.3.4.5.8.9 1.2 1.4.3.4.6.8 1 1.2.1.1.2.1.4.2v-.7c-.1-.1-.2-.1-.4-.2-.1 0-.2-.1-.3-.2-.3-.2-.5-.4-.3-1 .1-.2.3-.4.1-.6-.4-.1-.7-.3-1.1-.4h-.8zm47.2-4.2c-.5-.1-1-.1-1.6 0 .3.4.8.6.8 1.2-.1.2-.3.5-.4.8 0 .1-.1.2-.1.4.7-.7 1.1-1.4 1.3-2.4zm1.4 1.7c.2-.1.3-.1.4-.1.4-.3.8-.7 1.2-1 .1-.1.1-.2.1-.3-.6-.2-1.2-.2-1.8-.3.1.4.6.7.5 1.1 0 .2-.2.3-.4.6zm-5-1.5c-.3.6-.5 1.1-.8 1.7 0 0 0 .1.1.2.6-.6 1.1-1.3 1.6-1.9-.3-.1-.6-.1-.9 0zm-13.8 13.3c.5-.5.7-.7.8-1.3-.3.4-.6.7-.9 1.1 0 0 .1.1.1.2zm.9-17.3s-.1 0 0 0c-.1 0 0 .1 0 0 0 .1 0 0 0 0zm-9.3 25s-.1 0 0 0c-.1.1 0 .1 0 .1v-.1c0 .1 0 0 0 0zm8.2-7.1c0-.1-.1-.1 0 0-.1 0-.1 0 0 0-.1 0 0 0 0 0zm-8.1-25.5s.1 0 0 0c0 0 0-.1 0 0 0-.1 0 0 0 0z" fill-rule="evenodd" clip-rule="evenodd" fill="#fff"/><g><path class="st284" d="M8.4 71.4V71c0-1.1-.4-2-1.4-2-1.1 0-1.5.8-1.5 1.7 0 3.7 8 1.9 8 8.8 0 4-2.4 5.8-6.7 5.8C2.7 85.3.5 83.9.5 80v-.7h4.8v.4c0 1.6.7 2.2 1.6 2.2 1 0 1.6-.8 1.6-1.8 0-3.7-7.7-1.9-7.7-8.6 0-3.8 2-5.9 6.2-5.9 4.3 0 6.1 1.8 6.1 5.8H8.4zM15.2 65.9h7.4c3.8 0 5.4 2.5 5.4 5.8 0 3.9-2.2 5.9-6.2 5.9h-1.7v7.2h-4.9V65.9zm4.9 8.2h.9c1.2 0 1.9-.7 1.9-2.3 0-1.6-.7-2.3-1.9-2.3h-.9v4.6zM29.6 65.9h11.2v4h-6.3v3.2h5.9V77h-5.9v3.8H41v4H29.6V65.9zM46.1 65.9h6.2l4.6 18.9h-5.2l-.5-3.3h-3.9l-.5 3.3h-5.2l4.5-18.9zm3.1 3.9l-1.4 8h2.7l-1.3-8zM57.6 65.9h4.9v7.2h.1l3.6-7.2h5.2l-4.8 8.2L72 84.8h-5.6l-2.9-6.6-1 1.6v5h-4.9V65.9zM81.1 70.1h-3.7v-4.2h12.3v4.2H86v14.7h-4.9V70.1zM97.1 65.6c5 0 6.7 2.7 6.7 9.8 0 7.1-1.7 9.8-6.7 9.8s-6.7-2.7-6.7-9.8c0-7.1 1.7-9.8 6.7-9.8zm0 16.2c1.5 0 1.7-1.4 1.7-6.5s-.2-6.5-1.7-6.5-1.7 1.4-1.7 6.5.2 6.5 1.7 6.5zM117.5 65.9v13.6c0 1.8.6 2.3 1.5 2.3s1.5-.5 1.5-2.3V65.9h4.9v12.4c0 5.3-2.3 6.9-6.4 6.9s-6.4-1.6-6.4-6.9V65.9h4.9zM134.9 71.4V71c0-1.1-.4-2-1.4-2-1.1 0-1.5.8-1.5 1.7 0 3.7 8 1.9 8 8.8 0 4-2.4 5.8-6.7 5.8-4.1 0-6.3-1.4-6.3-5.3v-.7h4.8v.4c0 1.6.7 2.2 1.6 2.2 1 0 1.6-.8 1.6-1.8 0-3.7-7.7-1.9-7.7-8.6 0-3.8 2-5.9 6.2-5.9 4.3 0 6.1 1.8 6.1 5.8h-4.7z"/></g><g><path d="M0 49.3h2.4l1.4 9.1 1.5-9.1h2.4l1.5 9.1 1.4-9.1H13l-2.2 12.4h-3l-1.4-9-1.4 9H2.2L0 49.3zM21.2 49.3v2h-4.4v2.9H21v2h-4.2v3.3h4.6v2h-7.1V49.3h6.9zM30 49.3h3.1l3.3 12.4h-2.6l-.6-2.6h-3.3l-.6 2.6h-2.6L30 49.3zm.4 7.7h2.4l-1.2-5.6-1.2 5.6zM37.7 49.3h4.6c2 0 3.3 1.1 3.3 3.2 0 1.6-.7 2.8-2.1 3 1.7.2 2 1.2 2 3.8 0 1.3.1 2 .6 2.2v.1h-2.7c-.2-.3-.3-.8-.3-1.3L43 58c0-1-.5-1.6-1.5-1.6h-1.3v5.2h-2.5V49.3zm2.5 5.4h1c1.2 0 1.9-.5 1.9-1.9 0-1.1-.6-1.7-1.7-1.7h-1.2v3.6zM54.6 49.3v2h-4.4v2.9h4.2v2h-4.2v3.3h4.6v2h-7.1V49.3h6.9zM63.5 49.3h3.1l3.3 12.4h-2.6l-.6-2.6h-3.3l-.6 2.6h-2.6l3.3-12.4zm.3 7.7h2.4L65 51.5 63.8 57zM72.8 49.3l1.7 9.1h.1l1.8-9.1H79l-2.8 12.4H73l-2.8-12.4h2.6zM82.1 49.3h3.1l3.3 12.4h-2.6l-.6-2.6H82l-.6 2.6h-2.6l3.3-12.4zm.4 7.7h2.4l-1.2-5.6-1.2 5.6zM89.9 61.7V49.3h2.5v12.4h-2.5zM94.7 61.7V49.3h2.5v10.3h4.4v2h-6.9zM105.5 49.3h3.1l3.3 12.4h-2.6l-.6-2.6h-3.3l-.6 2.6h-2.6l3.3-12.4zm.3 7.7h2.4l-1.2-5.6-1.2 5.6zM113.2 49.3h4.2c2 0 3.5.8 3.5 3.1 0 1.3-.6 2.4-1.9 2.7 1.4.2 2.2 1.2 2.2 2.9 0 1.9-1 3.6-3.9 3.6h-4.2V49.3zm2.5 5.1h.7c1.4 0 2-.5 2-1.6 0-1.2-.6-1.6-1.8-1.6h-.9v3.2zm0 5.5h1c1.2 0 2-.4 2-1.9 0-1.4-.8-1.9-1.9-1.9h-1.1v3.8zM123.2 61.7V49.3h2.5v10.3h4.4v2h-6.9zM138.6 49.3v2h-4.4v2.9h4.2v2h-4.2v3.3h4.6v2h-7.1V49.3h6.9z"/></g></svg>