<svg version="1.1" id="Layer_1" xmlns="http://www.w3.org/2000/svg" x="0" y="0" viewBox="0 0 246.9 116" xml:space="preserve"><style>.st26{fill:#fff}</style><path d="M102.1 108.9c1-.5 2-1 3-1.3 1-.3 1.9-.8 2.6-1.5 1.5-1.6 3.2-3.1 3.8-5.3.2-.8 1-1.5 1.3-2.3.9-2.2 2.2-4.2 3.2-6.3.6-1.3 1.2-2.7 1.7-4.1 1.1-3 2.2-6.1 3.2-9.2.7-2.2 1.2-4.4 1.8-6.6.4-1.7.8-3.4 1.7-5 .3-.6.6-1.2.7-1.9.7-3.3 2-6.5 3.2-9.6.7-1.9 1.6-3.8 2.6-5.6 2-3.6 3.3-7.5 5.2-11.2l2.1-3.9c.7-1.2 1.4-2.4 2-3.7 1.1-2.4 2.8-4.3 4.3-6.4 1.3-1.7 2.8-3.2 4.5-4.5 2.8-2.2 5.7-4.2 8.9-5.8 2.5-1.3 5-2.4 7.7-3.4 3.2-1.2 6.6-2.2 9.9-3.2 1.3-.4 2.7-.6 4.1-.9 2.5-.6 5-1.3 7.5-2 .8-.2 1.6-.3 2.4-.1 1.7.2 3.4.4 5 .6.6.1 1.2.2 1.7.5 2.2 1 4.5 1.9 6.7 2.9 2.8 1.3 5.5 2.9 7.7 5.1 2.2 2.2 4.6 4.1 6.7 6.4 2.2 2.4 3.7 5.1 4.7 8.1.8 2.4 1.9 4.6 3.1 6.8 1.5 2.7 2.5 5.4 3.1 8.5.3 1.9.9 3.7 1.4 5.6l1.2 4.2c.1.4.2.7.2 1.1.3 5.1.5 10.2.8 15.2 0 .1-.1.3-.2.4-1.2-.6-2.5-1.9-3.1-3.4-.3-.8-.7-1.5-1.4-1.9-.2-.1-.4-.3-.6-.3-1.4.1-2.9-.2-4.3.7-.1.9-.1 1.7.4 2.5s.7 1.8.8 2.7c1 6.5 2.6 12.9 4.8 19 .7 1.9 1.2 3.8 1.8 5.7.2.6.2 1.3.4 2l.9 4.5c.1.4.3.9.7 1.1 1.6.9 3.3 1.6 5.2 1.2.9-.2 1.4-1 1.3-2-.1-.9-.3-1.7-.5-2.6-.3-1.2-.2-2.3 0-3.5 1.2-5.2 2.6-10.4 4.4-15.5.5-1.5 1.2-2.9 1.8-4.3.6-1.3 1.3-2.6 1.6-4.1.1-.6.3-1.1.6-1.6.6-1.1.4-2-.6-2.7l-2.1-.3c-1.6-.2-2.7.2-3.6 1.8-1 1.8-1.8 2.5-4 2.1-.1-.4-.3-.8-.3-1.2-.1-2.3-.2-4.6-.3-6.8-.2-4.9-.6-9.7-2.3-14.4-.6-1.8-1-3.7-1.5-5.5-.4-1.3-.7-2.7-1.2-4-1-2.4-2.2-4.8-3.2-7.2-1-2.4-2.1-4.7-3.1-7.1-1.3-3.2-3.4-5.8-5.7-8.3-2.1-2.2-4.4-4.2-6.6-6.2-1.9-1.8-4-3.2-6.3-4.4-1.9-1-3.9-1.7-5.6-3-.2-.1-.4-.3-.6-.3-2.7-.7-5.2-2.1-7.9-2.6-.9-.2-1.9-.2-2.9-.2-2.1-.1-4.1 0-6.2-.1-1 0-1.9-.3-2.8-.3-3.8.1-7.6.6-11.1 2.5-1.2.7-2.6 1-3.9 1.4-.8.3-1.7.5-2.5.9-2.1.9-4.2 1.9-6.2 2.9-.8.4-1.5.9-2.3 1.4-1.4 1-2.7 2.1-4.1 2.9-1 .7-1.9 1.5-2.4 2.5-.8 1.6-2 2.8-3.3 3.8-2 1.6-3.4 3.7-4.7 5.8-1 1.7-2 3.2-3 4.9-1.8 3.1-3.5 6.3-5.3 9.4-.2.4-.4.8-.5 1.2-1.1 3.1-2.4 6.2-4 9.1-1 1.8-1.8 3.7-2.7 5.6-.3.6-.4 1.3-.5 1.9-.2.7-.4 1.3-.9 1.9-.5.7-.7 1.7-.9 2.7-.6 2.5-.9 5.1-2.1 7.4-.3.6-.4 1.3-.5 1.9-.2 1.1-.3 2.2-.6 3.3-.1.5-.2 1.2-.6 1.4-.9.6-1 1.5-1.3 2.5-.5 1.6-1.2 3.1-1.9 4.7-.4 1-.8 1.9-.7 3 0 .4-.1.9-.3 1.3-.5 1.2-1.1 2.4-1.4 3.7-.1.7-.7 1.3-1.2 1.8-2.1 2.3-4.2 4.7-6.8 6.6-1.1.8-2.1 1.8-2.7 3.2-.2.5-.5.9-.9 1.2" fill-rule="evenodd" clip-rule="evenodd" fill="#f59d18"/><linearGradient id="SVGID_1_" gradientUnits="userSpaceOnUse" x1="0" y1="100.782" x2="19.971" y2="100.782"><stop offset="0" stop-color="#6b454c"/><stop offset=".436" stop-color="#573843"/><stop offset="1" stop-color="#382335"/></linearGradient><path d="M7.5 116h-.3c-.5 0-.8-.1-1.1-.3-.4-.1-.8-.2-1.1-.4-.4-.1-.7-.3-1-.6 0 0-.1 0-.1-.1l-.6-.3c-.4-.2-.7-.6-.9-1-.3-.2-.6-.5-.8-.8-.2-.3-.3-.5-.4-.8-.1-.1-.2-.2-.2-.4-.1-.3-.2-.6-.3-1-.1-.3-.1-.6-.1-.8-.2-.4-.3-.8-.3-1.3 0-.3.1-.6.2-.9v-.1-.4c-.1-.3-.1-.6-.1-.8v-1.2-1.1c0-.4.1-.7.2-1-.1-.3-.1-.6-.2-.9v-1-1.1-.3c-.4-.2-.4-.5-.4-.8L.1 97c0-1 0-1.7.1-2.3 0-.2 0-.4.1-.6v-1c0-.3 0-.5.1-.8l.1-.3c0-.1.1-.1.1-.2s.1-.2.1-.2c.1-.2.2-.5.4-.7.1-.2.2-.4.4-.6 0-.1.1-.1.1-.2 0 0 .1-.1.1-.2 0 0 0-.1.1-.1.1-.3.3-.6.5-.9.1-.2.4-.4 1-1 .2-.2.5-.5.8-.6.1 0 .2-.1.3-.1.3-.1.6-.2.9-.2.3-.2.6-.3.9-.4.2-.1.3-.1.5-.2.1-.1.3-.2.5-.2.4-.3.9-.4 1.4-.4h2.3c.4 0 .8 0 1.2.1.3 0 .5.1.8.1h.3c.3 0 .6-.1.9-.1h1.8c.4 0 .7.1 1 .2h.2c.4 0 .9.1 1.3.3l.2.1c.6.3 1 .9 1.1 1.5l.1.3v.4c0 .2.1.3.1.5.1.2.1.5.1.7v.1c0 .2 0 .4-.1.5V91.4c.1.7 0 1.4-.5 2-.1.2-.2.3-.3.5-.1.4-.3.8-.6 1.2-.4.5-.9.9-1.5 1 0 0-.1 0-.2.1-.3.1-.6.2-1.2.3l-.7.1H14.3l-.8-.1h-.1s-.8-.1-.9-.1c-.2 0-.3 0-.5-.1l-.3-.1c-.4-.1-.8-.3-1.1-.7v8.4l.1-.1c.1-.1.2-.2.3-.4.1-.1.2-.3.3-.4l.3-.3c.4-.4 1-.7 1.6-.7h.1c.4-.3.8-.5 1.4-.5l1-.1.9-.1h.2c.4 0 .8.1 1.2.3l.9.3c.4.3.8.7 1 1.1.1.1.1.3.2.5s.1.4.1.7c.1.3.2.5.1.8 0 .4-.1.8-.3 1.1v.4c0 .4 0 .7-.1 1v.2c0 .3 0 .5-.1.7 0 .3-.1.6-.2.9 0 .1-.1.2-.1.3-.1.3-.2.5-.4.8-.1.2-.2.4-.4.5-.1.2-.3.5-.6.7l-.1.1c-.1.4-.3.8-.5.9-.2.3-.5.6-.8.8-.2.3-.5.6-1 .8-.1.1-.2.1-.3.1l-.3.1c-.2.2-.5.3-.7.4-.3.2-.7.4-1.2.5-.5.1-.8.2-1.2.2-.2 0-.4 0-.6-.1h-1.1c-.3.1-.5.1-.7.2-.3 0-.6.1-1 .1-.5.3-.8.3-1.1.3z" fill="url(#SVGID_1_)"/><linearGradient id="SVGID_2_" gradientUnits="userSpaceOnUse" x1="17.106" y1="100.792" x2="40.283" y2="100.792"><stop offset="0" stop-color="#6b454c"/><stop offset=".436" stop-color="#573843"/><stop offset="1" stop-color="#382335"/></linearGradient><path d="M21.2 116c-.2 0-.5-.1-.7-.1-1.5 0-2.7-1-3-2.4-.3-.5-.3-1.1-.3-1.4v-.9-.9c0-.6.1-1 .3-1.4 0-.2.1-.3.2-.5.2-.5.6-.9 1-1.2 0-.3-.1-.7-.1-1.2 0-.7-.1-1.5-.1-2.2v-2c0-.7 0-1.1.1-1.4v-6c-.3-.2-.5-.5-.7-.7-.4-.4-.6-1-.6-1.8v-1.1l-.1-1.4c0-.7.2-1.3.7-1.8.2-.5.6-.8 1.1-1.1.2-.1.5-.2.8-.2.2 0 .3-.1.5-.1.4-.4.9-.5 1.5-.5h3.6c.2-.1.5-.1.7-.1.2 0 .5 0 .7.1.7.2 1.2.7 1.6 1.3.2.3.3.6.4.9.1.3.1.6.2 1.1l.3-.9c.2-.4.4-.7.6-.8.4-.4.7-.7 1.1-.9.3-.1.6-.2.9-.2.4-.3.9-.5 1.5-.5h1.8c.5 0 .9.1 1.3.1.5 0 .9.1 1.2.1l.5.1c1 .1 1.8.9 2 1.9l.1.5v2.3c0 .4-.1.9-.3 1.2l-.2.1c-.1.1-.2.3-.3.4l-.5.5v8.5c0 .3-.1.6-.1.9.1.2.1.5.1.7v.5c0 .2 0 .5-.1.7 0 .2-.1.4-.1.6v.3c.1.3.2.5.2.8v.4c.1.1.2.2.4.3.4.3.7.8.8 1.4l.1.4V110.1c.1.9 0 1.3 0 1.6-.1.7-.4 1.2-.8 1.6 0 .1-.1.2-.2.3-.2.5-.6.9-1.1 1.3-.2.1-.4.3-.7.4-.2.1-.3.1-.5.2-.3.1-.7.3-1.2.3-.5.1-1 .1-1.4.1h-1.8-.1l-1.4-.1c-.5 0-1-.3-1.4-.6l-.2-.2c-.3-.2-.5-.5-.7-.8-.1-.2-.3-.5-.3-.8 0-.1-.1-.2-.1-.3l-.1.1-.1.1c-.2.7-.7 1.4-1.3 1.8-.1 0-.1.1-.2.1-.5.5-1.1.7-1.8.7h-.8c-.3 0-.5 0-.8.1-.8.1-1.3.1-1.6.1-.3-.1-.4-.1-.5-.1z" fill="url(#SVGID_2_)"/><linearGradient id="SVGID_3_" gradientUnits="userSpaceOnUse" x1="37.221" y1="100.765" x2="59.346" y2="100.765"><stop offset="0" stop-color="#6b454c"/><stop offset=".436" stop-color="#573843"/><stop offset="1" stop-color="#382335"/></linearGradient><path d="M41.9 116h-1.3c-.8 0-1.3-.2-1.7-.4-1-.4-1.6-1.3-1.6-2.5v-.7-.6-.3V110.6c0-.4 0-.9.2-1.4.3-.8.7-1.3 1.1-1.6l.2-.2.3-.3v-.1c0-.1.1-.3.1-.4 0-.1 0-.1.1-.2 0-.5.1-.9.3-1.2 0-.2 0-.4.1-.6 0-.2.1-.5.1-.7 0-.1 0-.1.1-.2v-.1c0-.4.1-.8.2-1.1 0-.1 0-.2.1-.3 0-.2.1-.4.1-.7 0-.2.1-.4.1-.5 0-.2.1-.5.2-.8v-.4-.3-.4c0-.3.1-.5.1-.6 0-.2.1-.3.2-.5 0-.2 0-.4.1-.6 0-.3.1-.5.1-.7 0-.2.1-.5.2-.7v-.3c0-.3.1-.6.2-1 .1-.3.1-.6.2-.8 0-.2.1-.4.2-.6.1-.4.1-.7.2-1 0-.5.1-.9.2-1.3 0-.1 0-.2.1-.3 0 0 .1-.4.1-.6 0-.2.1-.4.1-.6 0-.2.1-.4.1-.5 0-.2.1-.7.3-1.1 0-.1 0-.1.1-.2.1-.2.2-.3.3-.5.2-.3.5-.7 1.1-.9.3-.1.7-.3 1.1-.3.4-.4 1-.7 1.7-.7h1.8c.1 0 .2 0 .3-.1.3 0 .6-.1.9-.1h.7c.3 0 .7.1 1 .2 1 .1 1.8.8 2 1.7.1.2.1.3.2.5.1.3.1.5.1.7v.1c.1.2.2.5.2.7 0 .2 0 .3.1.5 0 .1.1.3.1.4.1.4.1.7.1.9.1.2.1.5.1.7 0 .1.1.3.1.4.1.3.2.7.3 1.1l.1.3c.1.2.1.5.2.7.1.3.3.7.2 1.2.1.3.1.5.1.7v.9l.3.9c0 .3 0 .5-.1.8v.1c0 .2.1.4.1.7v1c0 .1.1.4.1.4 0 .1.1.2.1.2.1.2.1.4.1.6v.1c0 .1.1.3.1.4 0 .1.1.2.1.3 0 .1.1.2.1.4.1.3.2.5.2.8V104.3c0 .2.1.3.1.5s.1.5.1.7c.9.2 1.6 1 1.7 2 .1.2.1.4.1.5.1.5.1.9.1 1.3v1c0 .5-.2 1-.5 1.4-.1.2-.1.3-.2.5 0 .1-.1.2-.1.3 0 0 0 .1-.1.1l-.3.6-.1.1c-.1.2-.2.4-.4.6l-.2.2c-.4.4-1 .7-1.6.7l-1.4.1c-.9 0-1.6.1-2.1.1h-.2c-.3.1-.6.2-.9.2-.4 0-.7-.1-1-.2-.6-.2-1.1-.6-1.5-1.2-.1-.3-.3-.5-.3-.8-.1-.1-.1-.3-.2-.4-.2.3-.4.5-.7.7v.1c-.2.4-.4.7-.7 1-.4.4-.9.6-1.4.7-.2 0-.4.1-.7.1-.5.2-1 .2-1.4.2-.2.6-.7.6-1.2.6z" fill="url(#SVGID_3_)"/><linearGradient id="SVGID_4_" gradientUnits="userSpaceOnUse" x1="53.864" y1="100.774" x2="75.337" y2="100.774"><stop offset="0" stop-color="#6b454c"/><stop offset=".436" stop-color="#573843"/><stop offset="1" stop-color="#382335"/></linearGradient><path d="M62.1 116c-.4 0-.8-.1-1.1-.3l-.3-.2c-1.1-.6-1.7-1.7-1.6-2.9V111.7v-.3-.4-1-1.2-1.6c0-.8 0-1.6.1-2.2-.1-.4-.1-.8-.1-.9v-.3-.3c0-.1 0-.3.1-.4v-.4-.2c0-.3-.1-.6-.1-.9v-5.9h-.3-.1c-.2.1-.5.1-.7.1-.2 0-.4 0-.7-.1l-.5-.1c-.1 0-.2-.1-.3-.1l-.7-.2c-.6-.2-1.1-.7-1.3-1.2l-.1-.3c-.3-.6-.4-1.2-.4-1.7v-.2c-.1-.4-.1-.8-.1-1.3 0-.4 0-.9.1-1.4 0-.4.2-.7.4-1 0-.1.1-.2.1-.3.2-.4.6-.7 1-1 .1 0 .1-.1.2-.2.4-.3.8-.5 1.2-.6.2 0 .3-.1.5-.1h.1c.4-.4 1-.6 1.6-.6h1.6c.6 0 1.4 0 2.4.1 1 0 2.2.1 3.6.1s2.9 0 4.5.1h1.6c1.3 0 2.3 1 2.3 2.3v.3c.1.3.2.6.2.9V91c.2.6.2 1.2-.1 1.7-.1.3-.4.7-.7 1-.2.6-.6 1.1-1.1 1.5-.4.3-.8.5-1.3.6-.3.1-.5.2-.8.2-.3.1-.7.1-1.2.1h-.5v8.5c0 1.5.1 1.9.1 1.9v3.2c.1.3.2.6.2.9 0 .4-.1.7-.2 1 0 .3-.1.5-.2.8l-.2.5c-.2.4-.4.8-.8 1 0 .1-.1.1-.1.2-.1.1-.1.2-.2.3-.6 1-1.3 1.3-1.9 1.4-.3.1-.6.1-1 .1h-1.8l-1.4.1c.1 0 .1 0 0 0z" fill="url(#SVGID_4_)"/><linearGradient id="SVGID_5_" gradientUnits="userSpaceOnUse" x1="82.326" y1="100.803" x2="116.142" y2="100.803"><stop offset="0" stop-color="#6b454c"/><stop offset=".436" stop-color="#573843"/><stop offset="1" stop-color="#382335"/></linearGradient><path d="M91.1 116c-.2 0-.4 0-.7-.1-.1 0-.3-.1-.5-.1l-.7-.1c-.7-.2-1.4-.7-1.7-1.4l-.3-.6c-.2-.4-.2-.8-.1-1.3 0-.1.1-.3.1-.4v-.2c0-.2-.1-.4-.1-.7 0-.2-.1-.5-.1-.7v-.2c-.5-.7-.6-1.6-.6-2.4-.1-.2-.1-.5-.1-.8-.1-.1-.1-.3-.1-.4-.1-.4-.1-.8-.1-1.1v-.6c0-.2-.1-.3-.1-.5v-.3c0-.1 0-.1-.1-.2-.1-.3-.2-.6-.2-.9v-.1c0-.1 0-.2-.1-.3v-.1c0-.2-.1-.4-.1-.6v-.3c-.1-.2-.1-.4-.2-.7 0-.1-.1-.3-.1-.4 0-.3-.1-.6-.2-.9 0-.1 0-.2-.1-.3-.1-.2-.1-.3-.1-.5-.1-.4-.1-.8-.1-1.1v-.3-.1c-.1-.2-.1-.5-.2-.7 0-.3-.1-.5-.1-.8-.1-.1-.1-.2-.1-.4-.1-.2-.1-.4-.2-.7v-.2c-.1 0-.1-.1-.2-.1l-.6-.6c-.3-.4-.5-.8-.6-1.2-.4-.6-.4-1.3-.4-1.5 0-.3 0-.5.1-.7V89c0-.5.2-.9.4-1.3.1-.3.3-.5.5-.8.4-.4.9-.6 1.4-.7.2 0 .4-.1.5-.1.6-.5 1.3-.5 1.6-.5H90.7c.4 0 .7 0 .9.1.1 0 .2 0 .3.1.5.2.9.4 1.2.8.3.4.5.8.6 1.3l.1-.1c.1-.2.2-.3.4-.5.3-.3.6-.5.9-.6.3-.2.6-.3 1-.3.1-.1.2-.1.3-.2l.1-.1c.3-.2.7-.2 1-.2h.5c.3 0 .6-.1.9-.1H99.8c.2 0 .3-.1.5-.1h.2c.2 0 .5 0 1 .1H102.3c.8 0 1.6.4 2 1 .2.3.3.6.4 1 0 0 0 .1.1.1.1-.2.2-.4.3-.5.3-.4.9-.9 2-1.1.4-.4 1-.6 1.5-.6.2 0 .4 0 .7.1.3 0 .5-.1.8-.1.5 0 1-.1 1.5-.1h1.3c.3 0 .8 0 1.3.2 1 .3 1.7 1.2 1.7 2.2v1.7c0 .1-.1.4-.2.7 0 .1-.1.2-.1.3 0 .1-.1.2-.2.3-.2.7-.7 1.2-1.3 1.5-.1 0-.1.1-.2.1v.1c0 .3-.1.5-.1.8 0 .3 0 .5-.1.8v.3c0 .3-.1.5-.1.7 0 .3-.1.5-.2.8v1c0 .4-.1.7-.1.9v.5c0 .1 0 .2-.1.3v.4c0 .3-.1.7-.2 1 0 .1 0 .2-.1.3-.1.7-.2 1.2-.2 1.4 0 .1 0 .2-.1.4v.2c0 .4-.1.8-.3 1.1v.2c0 .2-.1.5-.1.7V105.1c0 .3 0 .6-.2 1 0 .1-.1.3-.1.4 0 .1-.1.3-.1.4 0 .3-.1.5-.1.7v.5c0 .3-.1.7-.3 1v.5c0 .5-.1.9-.2 1.3s-.1.9-.4 1.3l-.2.5c-.1.4-.4.7-.6.9 0 .1-.1.1-.1.2-.1.3-.3.6-.5.8-.2.3-.5.7-1 .9-.4.3-.9.3-1.3.4H102c-.7-.1-1.2-.3-1.5-.5l-.9-.6c-.5-.5-.9-1-1-1.6v-.1c-.1.2-.2.3-.4.5-.1 0-.1.1-.2.1v.1c-.1.4-.3.7-.5 1-.4.7-1.2 1.2-2 1.2h-4.4z" fill="url(#SVGID_5_)"/><linearGradient id="SVGID_6_" gradientUnits="userSpaceOnUse" x1="112.799" y1="100.8" x2="125.704" y2="100.8"><stop offset="0" stop-color="#6b454c"/><stop offset=".436" stop-color="#573843"/><stop offset="1" stop-color="#382335"/></linearGradient><path d="M116.2 116c-.4 0-.7-.1-1-.2l-.3-.1c-.8-.4-1.4-1.1-1.6-2-.1-.4-.1-.9-.1-2.1v-1.1-.4c0-.3.1-.5.2-.8.2-.5.4-.8.8-1.2v-.2c0-.2-.1-.4-.1-.6v-.9-1.6-1.9-.2c-.1-.3-.1-.5-.1-.7v-.6c0-.3 0-.6.1-.9v-.2-.4-5c-.5-.4-.8-.8-.9-1.2-.2-.4-.2-.9-.2-1.5v-1.3-1.4c0-.5.1-.9.2-1.3.3-1.1 1.2-1.8 2.4-2 .1 0 .1 0 .2-.1.3-.3.7-.5 1.1-.5l.4-.1h.2c.2-.1.4-.1.6-.1h2.1c.4 0 .7 0 1.1.1h.8c.1 0 .2 0 .3-.1h.4c.4 0 .8.1 1.2.3.1.1.2.1.3.2l.2.1c.6.4 1 1.2 1 1.9v.8c.1.3.1.6.1 1v.8c0 .5-.1 1.2-.7 1.8-.1.1-.1.3-.2.4-.1.2-.2.3-.3.4v1.3c0 .1 0 .2.1.4v1.6c0 .2-.1.4-.1.6v3.2c.2.5.2 1.1.1 1.6.1.2.1.5.1.7v.4c0 .3.1.5.1.7v3.2c.2.2.4.4.6.7.4.5.7 1.1.6 1.7l-.1 1.1c0 .7 0 1.3-.2 1.8-.1.6-.4 1.2-.9 1.6 0 .1 0 .2-.1.2-.2.5-.5 1-.9 1.3-.7.6-1.7.6-2.2.7-.5 0-1.4.1-2.7.1h-2.6z" fill="url(#SVGID_6_)"/><linearGradient id="SVGID_7_" gradientUnits="userSpaceOnUse" x1="122.626" y1="100.774" x2="144.097" y2="100.774"><stop offset="0" stop-color="#6b454c"/><stop offset=".436" stop-color="#573843"/><stop offset="1" stop-color="#382335"/></linearGradient><path d="M130.9 116c-.4 0-.8-.1-1.1-.3l-.3-.2c-1.1-.6-1.7-1.7-1.6-2.9V111.7v-.3-.4-1-1.2-1.6c0-.8 0-1.6.1-2.2-.1-.4-.1-.8-.1-.9v-.3-.3c0-.1 0-.3.1-.4v-.4-.2c0-.3-.1-.6-.1-.9v-5.9h-.3-.1c-.2.1-.5.1-.7.1-.2 0-.4 0-.7-.1l-.5-.1c-.1 0-.2-.1-.3-.1l-.7-.2c-.6-.2-1.1-.7-1.3-1.2l-.1-.3c-.3-.6-.4-1.2-.4-1.7v-.2c-.1-.4-.1-.8-.1-1.3 0-.4 0-.9.1-1.4 0-.4.2-.7.4-1 0-.1.1-.2.1-.3.2-.4.6-.7 1-1 .1 0 .1-.1.2-.2.4-.3.8-.5 1.2-.6.2 0 .3-.1.5-.1h.1c.4-.4 1-.6 1.6-.6h1.6c.6 0 1.4 0 2.4.1 1 0 2.2.1 3.6.1s2.9 0 4.5.1h1.6c1.3 0 2.3 1 2.3 2.3v.3c.1.3.2.6.2.9V91c.2.6.2 1.2-.1 1.7-.1.3-.4.7-.7 1-.2.6-.6 1.1-1.1 1.5-.4.3-.8.5-1.3.6-.3.1-.5.2-.8.2-.3.1-.7.1-1.2.1h-.5v8.5c0 1.5.1 1.9.1 1.9v3.2c.1.3.2.6.2.9 0 .4-.1.7-.2 1 0 .3-.1.5-.2.8l-.2.5c-.2.4-.4.8-.8 1 0 .1-.1.1-.1.2-.1.1-.1.2-.2.3-.6 1-1.3 1.3-1.9 1.4-.3.1-.6.1-1 .1h-1.8l-1.3.1h-.1z" fill="url(#SVGID_7_)"/><linearGradient id="SVGID_8_" gradientUnits="userSpaceOnUse" x1="140.39" y1="100.792" x2="163.566" y2="100.792"><stop offset="0" stop-color="#6b454c"/><stop offset=".436" stop-color="#573843"/><stop offset="1" stop-color="#382335"/></linearGradient><path d="M144.5 116c-.2 0-.5-.1-.7-.1-1.5 0-2.7-1-3-2.4-.3-.5-.3-1.1-.3-1.4v-.9-.9c0-.6.1-1 .3-1.4 0-.2.1-.3.2-.5.2-.5.6-.9 1-1.2 0-.3-.1-.7-.1-1.2 0-.7-.1-1.5-.1-2.2v-2c0-.7 0-1.1.1-1.4v-6c-.3-.2-.5-.5-.7-.7-.4-.4-.6-1-.6-1.8v-1.1l-.1-1.4c0-.7.2-1.3.7-1.8.2-.5.6-.8 1.1-1.1.2-.1.5-.2.8-.2.2 0 .3-.1.5-.1.4-.4.9-.5 1.5-.5h3.6c.2-.1.5-.1.7-.1.2 0 .5 0 .7.1.7.2 1.2.7 1.6 1.3.2.3.3.6.4.9.1.3.1.6.2 1.1l.3-.9c.2-.4.4-.7.6-.8.4-.4.7-.7 1.1-.9.3-.1.6-.2.9-.2.4-.3.9-.5 1.5-.5h2c.5 0 .9.1 1.3.1.5 0 .9.1 1.2.1l.5.1c1 .1 1.8.9 2 1.9l.1.5v2.3c0 .4-.1.9-.3 1.2l-.1.2c-.1.1-.2.3-.3.4l-.5.5v8.5c0 .3-.1.6-.1.9.1.2.1.5.1.7v.5c0 .2 0 .5-.1.7 0 .2-.1.4-.1.6v.3c.1.3.2.5.2.8v.4c.1.1.2.2.4.3.4.3.7.8.8 1.4l.1.4V110.2c.1.9 0 1.3 0 1.6-.1.7-.4 1.2-.8 1.6 0 .1-.1.2-.2.3-.2.5-.6.9-1.1 1.3-.2.1-.4.3-.7.4-.2.1-.3.1-.5.2-.3.1-.7.3-1.2.3-.5.1-1 .1-1.4.1h-1.8-.1l-1.4-.1c-.5 0-1-.3-1.4-.6l-.2-.2c-.3-.2-.5-.5-.7-.8-.1-.2-.3-.5-.3-.8 0-.1-.1-.2-.1-.3l-.1.1-.1.1c-.2.7-.7 1.4-1.3 1.8-.1 0-.1.1-.2.1-.5.5-1.1.7-1.8.7h-.8c-.3 0-.5 0-.8.1-.8.1-1.3.1-1.6.1-.7-.2-.7-.2-.8-.2z" fill="url(#SVGID_8_)"/><linearGradient id="SVGID_9_" gradientUnits="userSpaceOnUse" x1="171.202" y1="100.774" x2="194.005" y2="100.774"><stop offset="0" stop-color="#6b454c"/><stop offset=".436" stop-color="#573843"/><stop offset="1" stop-color="#382335"/></linearGradient><path d="M180.7 116c-.5 0-1 0-1.4-.1-.4-.1-.8-.2-1.1-.5-.2-.1-.3-.1-.5-.2s-.4-.2-.6-.4c-.1 0-.1-.1-.2-.2l-.1-.1c-.5-.1-1-.3-1.3-.7-.3-.3-.6-.7-.8-1.1-.1-.1-.2-.2-.2-.4-.3-.3-.5-.7-.6-1.2-.1-.2-.1-.4-.2-.6-.1-.1-.1-.2-.1-.3-.1-.3-.1-.5-.2-.8 0 0 0-.1-.1-.2-.1-.2-.1-.4-.1-.6v-.2-.6c-.1-.3-.2-.6-.2-1v-.7-.7-.2c0-.3 0-.5.1-.7 0-.2-.1-.4-.1-.7v-1.3-1.4-.4-.2c0-.3 0-.5-.1-.9l-.1-.9c0-.2 0-.5.1-.7 0-.3-.1-.6-.1-1.1v-.7l-.1-1.9c-.4-.3-.8-.8-.9-1.3l-.1-.3-.3-.9c0-.1 0-.3-.1-.4-.1-.3-.2-.6-.2-1 0-.2 0-.3.1-.5v-.3c0-.5.1-.9.4-1.2.3-.6.6-1 1.1-1.3.3-.2.6-.4 1-.5.1 0 .1 0 .2-.1.2-.1.5-.2.8-.2.1 0 .1-.1.2-.1s.1-.1.2-.1.1-.1.2-.1c.2-.1.3-.2.5-.2.4-.1.8-.2 1.1-.2h1.1c.3 0 .7 0 1.1.1h.4c1.3 0 2.2.5 2.7 1 .4.3.7.6.9 1l.2-.2.1-.1c.3-.4.8-.7 1.3-.9l.9-.3c.1-.1.2-.1.3-.1h.1c.2-.1.5-.2.7-.2.2 0 .4-.1.5-.1.3-.1.6-.2.9-.2h3c.5 0 .9.1 1.3.4.7.2 1.2.8 1.5 1.5.1.3.1.6.1.9V89c0 .3 0 .6-.1 1.1 0 .4-.1.7-.2 1 0 .2-.1.4-.2.6-.1.2-.2.4-.4.6-.2.3-.4.5-.7.7-.1 0-.1.1-.2.1v.5c0 1.8.1 3.1.1 3.9v.7c.1.2.1.5.1.7.1.2.1.5.1.7l-.1 1.6c0 .5 0 1-.1 1.7 0 .3-.1.5-.2.8v1.9c0 .2 0 .4-.1.6 0 .4 0 .8-.1 1.2 0 .5-.1.9-.3 1.4-.1.3-.1.6-.2.9-.1.2-.1.4-.2.5-.1.3-.3.6-.5.9l-.3.6c-.1.3-.3.5-.5.8 0 .1-.1.3-.2.4-.1.2-.3.5-.6.8 0 0 0 .1-.1.1-.3.4-.6.7-1 .9l-.6.3c-.4.3-.8.6-1.4.8-.5.2-1.1.3-1.7.3-.2.1-.4.1-.6.1-.2 0-.4.1-.7.1-.3 0-.7.1-1 .1H180.7z" fill="url(#SVGID_9_)"/><linearGradient id="SVGID_10_" gradientUnits="userSpaceOnUse" x1="190.795" y1="100.772" x2="210.913" y2="100.772"><stop offset="0" stop-color="#6b454c"/><stop offset=".436" stop-color="#573843"/><stop offset="1" stop-color="#382335"/></linearGradient><path d="M194.9 116c-1.7 0-2.8-.6-3.2-1.8-.1-.2-.2-.5-.2-.7v-.1c0-.2-.1-.5-.1-.7v-.1c-.1-.3-.2-.6-.2-.9 0-.3.1-.6.2-.9v-.3c0-.7.1-1.3.2-1.7.2-.7.5-1.4 1.1-1.9.2-.1.3-.3.5-.4.1 0 .2-.1.4-.2s.4-.3.7-.3c.4-.5 1.1-.8 1.8-.8h.1c.2-.1.3-.1.5-.2-.3-.1-.5-.3-.8-.5-.1-.1-.2-.2-.4-.3-.1 0-.1-.1-.2-.1-.3-.2-.6-.4-.8-.6l-.2-.1c-.2-.2-.4-.3-.5-.5-.4-.3-.8-.7-.9-1.2 0-.1-.1-.1-.1-.2-.1-.1-.2-.2-.2-.3-.1-.2-.2-.4-.3-.7 0-.1-.1-.1-.1-.2-.1-.2-.3-.4-.3-.7 0-.1-.1-.3-.2-.7l-.1-.3c-.1-.3-.2-.5-.2-.6 0-.1-.1-.3-.1-.4-.3-.4-.4-.8-.4-1.3v-.6c0-.5 0-1 .3-1.6.1-.8.1-1.1.2-1.2.1-.3.1-.5.2-.7.1-.2.1-.4.2-.7.1-.3.2-.5.4-.7v-.1l.3-.6c.2-.5.5-.9.9-1.2l.5-.5c.1-.1.4-.3.6-.5l.2-.2c.6-.6 1.3-.7 1.7-.7h.1c.2-.2.5-.3.8-.4 0 0 .1 0 .2-.1s.3-.2.5-.3c.2-.1.5-.1.7-.2.4-.1.7-.1.9-.1h.7c.3-.1.6-.2 1-.2h1.5c.3-.1.6-.1.9-.1h1.9c1.1 0 1.9.1 2.4.4.5.1.8.4 1.1.7.2.1.3.3.4.5l.1.2c.2.4.3.8.3 1.2v2.7c0 .6-.2 1.2-.7 1.6l-.1.1-.2.2c-.1.3-.3.6-.5.9-.3.5-.7.8-1 .9-.4.3-.8.5-1.3.5l-2.6.1h-.1c-.4 0-.7-.1-1-.2l-.2-.1c-.2-.1-.5-.2-.6-.4.1.1.2.3.2.4l.1.1c.2.1.3.2.5.3.2.1.3.1.4.2l.1.1s.1 0 .1.1c.5.1 1 .3 1.4.6.3.1.6.2.8.4.2.1.3.1.5.2.1 0 .2.1.3.1.1.1.3.1.4.2h.1c.2.1.3.1.5.2s.4.3.6.5c.4.2.6.4.7.5v.1c.1.1.3.2.4.4l.6.6c.4.3.7.8.8 1.3v.1c0 .1.1.3.1.4.1.2.1.3.2.5 0 .1 0 .2.1.3 0 .1.1.2.1.3.2.4.3.8.3 1.3v.1c.1.2.1.5.1.7 0 .2 0 .5-.1.7 0 .3-.1.6-.2.9v.3c-.1.9-.1 1.8-.4 2.5-.1.2-.1.3-.2.4-.1.5-.3 1-.7 1.4-.2.2-.5.4-.7.5l-.1.1c0 .5-.2 1-.6 1.5-.2.3-.4.5-.5.6-.1.1-.3.3-.5.4-.2.2-.5.3-.7.4-.2.1-.3.2-.5.2-.3.2-.6.3-1 .4l-.5.1c-.6.4-1.5.4-2.8.4H196c-.6.3-.9.3-1.1.3z" fill="url(#SVGID_10_)"/><path class="st26" d="M4.9 89.5c0-.1.1-.1.3-.2.2-.1.3-.1.3-.1s-.1 0-.1.1-.1.2-.1.3c0 .1-.1.2-.1.3-.1.1-.1.1-.2.1s-.2.1-.4.3c-.2.2-.3.4-.3.4 0 .1-.1.2-.1.3-.1.1-.1.2-.1.3 0 0 0 .1-.1.2s-.1.2-.2.2c-.1.2-.2.3-.2.3l-.1.1c-.1.1-.1.2-.2.5 0 .1-.1.2-.1.3 0 .1-.1.2-.1.2v.4c0 .2 0 .5-.1.7v.8c0 .2 0 .2-.1.3 0 0-.1.1-.1.4V97l-.1 1.6h-.4l.1-1.6c0-1.2 0-1.7.1-1.7 0 0 .1-.2.1-.3 0-.2 0-.5.1-.8v-1.1l.1-.4c.1-.3.2-.4.2-.5.1-.1.1-.2.2-.3.1-.2.2-.3.3-.4.1-.1.1-.2.1-.3l.1-.1c.1-.1.1-.2.2-.4s.2-.3.3-.5c0-.1.2-.4.7-.7zm-2.4 12.6s0-.1-.1-.4v-.9-.9c0-.3.1-.4.1-.4H2.8v1.7c0 .2.1.3.1.3v.2s-.1 0-.1.1v.2s.1.3.1.9v.8c-.1 0-.1.4-.1 1.2 0 .8.1 1.1.1 1.2v.1c0 .1 0 .1-.1.1s-.1 0 0 0c0 0 0 .1.1.2 0 .1 0 .3.1.5 0 .2 0 .4.1.6v.8h-.2.1l.1.1v.3c0 .2.1.4.1.7 0 .3.1.5.1.6 0 .1.1.1.2.1s.1.1.1.2v.2c0 .1.1.1.1 0 .1 0 .2 0 .2.1.1 0 .1.1.2.3.1.2.2.4.3.5.1.1.2.3.3.4l.1.1c0 .1.1.1.1.1s0 .1.1.1l.1.1c.1 0 .1.1.1.1 0 .1 0 .1.1.1h.1l-.1-.3-.1-.3h.1c.1 0 .1 0 .1.1 0 0 .1.1.4.3.3.1.4.2.4.3 0 0 .1 0 .1.1.1 0 .1 0 .1.1s0 .1.1.1.2.1.3.1c.1.1.2.1.3.2.1 0 .2.1.3 0 .1 0 .2-.1.3-.1h1s.1-.1.2-.1h1c.2 0 .3-.1.4-.1H12.2c.1-.1.2-.1.2-.1 0-.1.2-.1.3-.2h.2c.1 0 .1-.1.2-.1.1-.1.2-.1.3-.1 0 0 .1 0 .2-.1 0-.1 0-.1.1-.1 0 0 .1 0 .3-.1.2-.1.3-.2.3-.2s.1 0 .1-.1c.1 0 .1 0 .1-.1.1-.1.2-.1.3-.1.1 0 .2-.1.3-.1l.1-.1s0 .1-.1.3l-.2.2-.2.2c-.1.1-.2.2-.2.3 0 0 0 .1-.1.1s-.2.1-.3.2c-.1.1-.3.1-.4.2-.1.1-.2.1-.2.1-.1.1-.2.1-.3.1-.1.1-.3.1-.3.2-.1.1-.3.2-.6.2-.3.1-.5.1-.6.1-.1 0-.2-.1-.5-.1H9.6c-.2 0-.4.1-.4.1s-.1.1-.3.1H7.2c-.2 0-.3-.1-.4-.2-.2 0-.3-.1-.3-.1-.2 0-.4 0-.4-.1l-.2-.2c0-.1 0-.1-.1-.1s-.1 0-.2.1c-.1 0-.1.1-.1.1 0-.1 0-.1-.1-.1 0 0-.1 0-.1-.1-.1-.1-.1-.1-.2-.1 0 0-.1-.1-.2-.1-.1-.1-.2-.1-.3-.1l-.2-.2c-.1 0-.1-.1-.1-.1s0-.1-.2-.3c-.1-.2-.2-.3-.3-.3 0 0-.1-.1-.2-.1s-.1-.1-.2-.1-.1-.1-.2-.2-.1-.2-.1-.3c0 0-.1-.1-.2-.3-.1-.2-.1-.2-.2-.2 0-.1-.1-.2-.1-.5 0-.2-.1-.4-.1-.6 0-.2 0-.4-.1-.6-.1-.2-.1-.4-.2-.4 0 0-.1 0-.1-.1s0-.2.1-.2v-.2-.6-.6-.3s-.1-.2-.1-.5v-1-1c0-.3 0-.4.1-.4 0 0 .1-.1.1-.2v-.5-.5c.2-.2.2-.3.2-.3zm5.6-13.9h.2c.1 0 .1-.1.2-.1l.1-.1H12c.4 0 .7.1.7.2 0 0 .1.1.2.1.2 0 .3 0 .3-.1 0 0 .1-.1.3-.1.2 0 .5 0 .8-.1h1.5c.2 0 .3.1.3.1 0 .1.1.1.4.2h.5c.1-.1.2-.1.3 0l.1.1.1.3V90c0 .1 0 .2-.1.4v1.2c0 .2 0 .3.1.3 0 .1 0 .1-.1.2 0 .1-.1.1-.1.2l-.1.1h-.3s-.1.1-.2.1h-.3c-.3 0-.5.1-.5.1h-.4c-.2 0-.3 0-.3-.1-.1 0-.2 0-.3-.1h-.6l-.3-.1-.1-.7c0-.4-.1-.7-.1-.7H10.4c-.2 0-.3.1-.3.1 0 .1-.1.1-.3.2l-.2.2c-.1 0-.1.1-.1.1 0 .1-.1.1-.1.1s-.1 0-.2.1c-.2.3-.2.4-.3.5 0 .1-.1.1-.1.1l-.2.2c-.1.2-.1.3-.2.6 0 .1 0 .2-.1.4l-.1.1c0 .1 0 .1-.1.1v.6c0 .1-.1.6-.1 1.4v8.5c0 .2 0 .3.1.5v1c0 .6.1.9.3.9.1 0 .1.1.2.3l.1.3.2.2c.1 0 .2.1.3.2.1.1.2.2.3.2l.3.3.7.1h1.1c.4 0 .5-.1.5-.2.2-.1.3-.1.4-.1.3-.1.4-.2.4-.3 0 0 .1 0 .1-.1.1 0 .2-.1.3-.2l.2-.2c0-.1 0-.1.1-.1 0 0 .1 0 .1-.1v-.3-.3c0-.1.1-.2.1-.3.1-.2.1-.4 0-.7-.1-.3-.1-.5-.1-.6 0-.1.1-.2.3-.2.1 0 .2-.1.2-.1.1 0 .1-.1.1-.3v-.1l1-.1.9-.1.2.1c.2.1.3.1.5.1h.1l.1.1c0 .1 0 .1.1.1 0 .1 0 .2.1.4 0 .3 0 .4.1.4s.1.1 0 .1-.1 0-.2.1c0 .1-.1.1-.1.1v2.2s-.1.1-.1.2 0 .2-.1.3v.3c-.1 0-.1.1-.1.4-.1.2-.1.3-.1.3s-.1 0-.1.1v.1s0 .1-.1.1l-.1.1c-.1.1-.1.1-.1.2 0 0 0 .1-.1.2s-.2.1-.2.2c-.1.1-.2.1-.3.2-.1.1-.1.1-.2.1-.1.1-.2.1-.3.2-.1 0-.2.1-.2.1s0 .1-.1.1h-.2c-.1 0-.1.1-.2.1s-.1.1-.1.1-.1.1-.4.3c-.3.1-.4.2-.5.2-.1 0-.1 0-.1.1h-.6c0-.1-.1-.1-.2-.1s-.2.1-.2.1 0 .1-.1 0c-.1 0-.2 0-.2-.1l-.1-.1h-.2c-.2 0-.3 0-.3.1 0 0-.2.1-.5.1s-.8.1-1.3.1c-.2 0-.5.1-.6.1-.2 0-.3 0-.3.1h-.2c-.1 0-.3-.1-.5-.2-.1 0-.1 0-.1-.1 0 0-.1-.1-.3-.2-.2-.1-.3-.1-.4-.1l-.2-.2c0 .1-.1 0-.2 0s-.2 0-.2.1c-.1 0-.1-.1-.1-.1-.2-.2-.3-.3-.5-.3-.1-.1-.2-.2-.3-.2-.1-.1-.1-.2-.2-.5-.1-.2-.1-.2-.1-.3-.1 0-.1 0-.1-.1 0 0 0-.1-.1-.1h-.1c-.1 0-.1 0-.1-.1s-.1-.2-.1-.2c-.2 0-.3-.4-.3-1.1 0-.1-.1-.2-.1-.3 0-.1 0-.2-.1-.2s-.1 0 0 0 .1-.1.1-.1c0-.1 0-.1-.1-.1h-.1.1c.1 0 .1-.2.1-.4 0-.3 0-.4-.1-.4s-.1-.7-.2-2.2c0-1.4-.1-3-.1-4.8v-4.8c0-1.5.1-2.3.2-2.3.1-.1.1-.1.1-.2s.1-.3.2-.6c.2-.5.2-.7.3-.7.1 0 .1-.1.1-.1l.1-.1c.1-.1.2-.2.2-.3v-.1c0-.1 0-.1.1-.2s.1-.2.2-.3c0-.1.2-.3.3-.5l.3-.3c.1 0 .1-.1.1-.1.1-.1.2-.1.3-.1 0 0 .1 0 .2-.1 0 0 .1-.1.3-.1.2 0 .3-.1.3-.1.3-.4.4-.4.6-.4zm1.9 4c.1 0 .3 0 .5-.1 0-.1.2-.1.4-.1h.3s0 .1.1.1h.2c.1 0 .1-.1.1-.1h.8l.1.3v.8l.1.4.2.1c.7.1 1.1.2 1.4.2.2 0 .5 0 .8-.1.1 0 .3-.1.4-.1h.2c.1 0 .1 0 .1-.1h.1c.1 0 .2-.1.3-.1 0-.1.1-.2.1-.1.1 0 .1-.1.1-.1.1-.1.1-.1.3-.1h.1v.2c0 .1-.1.3-.2.5s-.3.3-.3.3h-.1s-.1.1-.2.1-.4.1-.9.2l-.7.1-.8-.1c-.2 0-.5-.1-.7-.1h-.4l-.3-.1-.1-.2c0-.1-.1-.2-.1-.3v-.3c0-.3 0-.4-.1-.5 0-.1-.1-.1-.1-.1-.1 0-.1 0-.1.1H11c0-.1-.1-.1-.2-.1s-.2 0-.2.1-.3.1-.7.1l-.7.1V93c0-.7.3-.8.8-.8zm2.5 12.9c.1-.1.2-.2.3-.4l.3-.3h.6v.2l-.1.2h-.2c-.1 0-.2.1-.3.1 0 0 0 .1-.1.1h-.1c-.3.1-.3.5-.2 1.1l.1.5-.1.4c0 .2-.1.3-.1.4 0 .1-.1.1-.1.1-.3.1-.4.1-.4 0v-.2-.3-.2c0-.1.1-.1.1-.1v-.1s0-.1-.1-.1c0-.2-.1-.4-.1-.6v-.5l.1-.1.1-.1c.2 0 .3-.1.3-.1zM20.1 88.6c.2 0 .3 0 .3-.1h.3l.2-.1-.1.3v.3h-.3c-.2 0-.2.1-.2.1 0 .1-.1.1-.1.1H20v.6c0 .4-.1.8-.1 1.2 0 .4 0 .7.1.8 0 .2.1.2.2.2h.5c.2-.1.4-.1.4-.2.1 0 .1.2.1.6v.6l.1.1h.2v7l-.2.1h-.5v-6.8l-.1-.2c-.1-.1-.1-.2-.1-.4l.1-.2h-.9c-.1-.1-.2-.1-.2-.2s-.1-.1-.2-.2c0 0-.1-.1-.1-.3v-1.1l-.1-1.5.2-.2c.2-.2.2-.3.2-.4.4-.1.5-.1.5-.1zm-.1 20.7c.2 0 .4-.1.6-.1l.4-.2v.5c-.1.1-.2.1-.4.1l-.5.2v1.4c-.1.5-.1.9 0 .9 0 .1.1.2.1.3 0 .3 0 .4.1.5.1.1.3.1.8.2H23.5c.3 0 .4 0 .6-.1.2 0 .3 0 .4.1.2.1.3 0 .4-.2 0-.2.1-.2.2-.2.2-.1.3-.1.3-.2s.1-.1.1-.2h.1c0 .1.1.1.2.1h.1l-.1.2c0 .2-.1.3-.4.4-.1.1-.2.2-.3.2-.1.1-.2.1-.2.2-.1.1-.2.1-.5.1h-.6c-.3 0-.6 0-1 .1-.8.1-1.3.1-1.5.1-.1 0-.2-.1-.4-.1s-.3-.1-.4-.1c-.5 0-.8-.2-.8-.7-.1-.2-.1-.3-.2-.4v-.4-.8-.8-.4s.1 0 .1-.1.1-.1.1-.1c0-.1 0-.3.1-.4.1-.1.2-.1.2-.1zm1-1.8c0-.3-.1-.8-.1-1.5s-.1-1.4-.1-2.2v-2-1c0-.1.1-.1.3-.1h.2V105.1c0 .9.1 1.6.1 2.1s0 .8-.1.8c0 .1-.1.1-.2.2l-.2.2.1-.9zM23.7 88h1.4c.4 0 .7 0 .7-.1h.2c.1 0 .1.1.1.2 0 .2 0 .2.1.2s.1 0 .1.1.1.4.1 1c0 .5.1 1 .1 1.6 0 1.5.1 2.6.1 3.3 0 .7 0 1 .1 1s.1.1.1.2 0 .2-.1.2-.1 0 0 .1c.1 0 .1.1.1.2s0 .1-.1.2h-.1.1c.1.1.1.1 0 .1s-.1.1-.2.3c0 .1 0 .1.1.1h.1c.1 0 .1.1.2.2v.8l1.4-.1h1.9c.5 0 .8 0 1-.1.2 0 .4-.1.4-.1.1 0 .1-.1.1-.1 0-.1 0-.1.1-.2s.2-.1.3 0c.1 0 .1 0 .1-.1.1-.1.2-.1.2-.2h.2v-3-2.5-1.8l.1-1.4.2-.2.2-.2H35c.5 0 1 .1 1.4.1.4 0 .7 0 .9.1l.5.1.1.5v.6c0 .2 0 .4.1.6v.7l-.1.2c-.2.2-.2.2-.2.1s-.1-.1-.2-.1-.2 0-.2.1h-.2s-.1 0-.1.1c-.1 0-.1.1-.1.1-.1 1.1-.1 2-.1 2.7v2.7l-.1.1-.1.1h.1s.1.1.1.3V99l-.1.1h-.1.1c.1 0 .1.1.1.1v.1c-.1 0-.1 0-.1.1s0 .2.1.2c0 0 .1.1.1.3v1.5s-.1.1-.1.3v.9c0 .1 0 .2.1.2v1c0 .1 0 .2-.1.2 0 0-.1.1-.1.2v1.4c0 .1 0 .2.1.2s.1.1.1.2v.1c-.1 0-.1.1-.1.2s0 .2.1.2.1 0 0 .1c-.1 0-.1.1-.1.3 0 .1 0 .2.1.2s.1.2.2.5c0 .3 0 .4.1.5 0 .1.2.1.4.1h.3V108.5H38.2l.1.4V111.5c0 .2-.1.3-.2.3s-.2 0-.4.1c-.1.1-.2.1-.2.1h-.7c-.2 0-.4 0-.5.1-.2 0-.2.1-.2.1h-.5c-.1 0-.3-.1-.6-.1s-.6-.1-.8-.1h-.8c-.2 0-.3 0-.3-.1h-.2c-.1 0-.1-.2-.2-.6v-1.5-2.9-2.9-1.5c-.1-.5-.2-.8-.5-.8h-.1c-.1 0-.1 0-.1-.1 0 0-.1-.1-.3-.1-.2 0-.3 0-.5.1s-.3.1-.4.1c0 0-.1-.1-.2-.1-.2 0-.3-.1-.5-.1h-.6c-.1 0-.2 0-.2.1s-.3.1-1.1.1h-1.1v.2l-.1.1c-.2 0-.3 0-.3.1V111.3l-.1.2s-.1.1-.2.1H26.1v.1c0 .1 0 .1-.1.1s-.1 0-.1-.1-.1-.1-.2-.1-.2 0-.3.1c-.1.1-.4.1-1 .1h-1.5s-.1-.1-.2-.1-.2-.1-.4-.1c-.3 0-.5 0-.6-.1-.1-.1-.2-.2-.2-.4 0-.1 0-.2-.1-.2 0-.1-.1-.1-.1-.1l-.1-.1c.1-.1.1-.2.2-.5v-.5c0-.2 0-.4.1-.6l.1-.6h.4c.1 0 .2 0 .2-.1.2-.1.3-.1.3-.1.1.1.1.1.2.1l.1-.1-.1-2.8c0-.4 0-.9-.1-1.5v-2.1-2.3-2.3-4.2c0-.8 0-1.2-.1-1.2s-.1-.2-.1-.7v-.7c-.1 0-.1.1-.1.2h-.2c-.1 0-.2 0-.2.1s-.1.1-.4.2h-.3v-.2c0-.1-.1-.2-.2-.2s-.1 0 0 0c0 0 .1-.1.1-.3 0-.2.1-.5.1-.9v-1.1l.1-.2.2-.1h2.2zm3.6 15c.2 0 .4-.1.5-.1 0 0 .1-.1.3-.1h.7c.5 0 .8.1.8.2s0 .1.1 0c0-.1.2-.1.5-.1h.4s0 .1.1.1H31c.1 0 .1.1.2.1l.2.2v3.6c0 .5 0 .8.1 1 0 .4 0 .6-.1.7v2c0 .7 0 1.2-.1 1.5 0 .3-.1.4-.1.4-.1 0-.1 0 0 0 0 0 .1 0 .1.1s.1.1.1.1c0 .2 0 .3.1.3s.3.1.8.1 1.1.1 1.9.1h.6c.2 0 .5 0 .7-.1.2 0 .4 0 .6-.1.2 0 .2-.1.2-.1 0-.1.1-.1.3-.2l.2-.2c0-.1.1-.1.3-.1.2 0 .3 0 .3.1s-.1.1-.1.1v.1c0 .1-.1.2-.2.3-.1.1-.3.2-.4.2-.2 0-.3.1-.4.1 0 0-.2.1-.7.1-.4.1-.8.1-1.1.1H32.8l-1.4-.1-.2-.2c-.1-.1-.2-.2-.2-.3-.1-.1-.1-.2-.1-.2 0-.2 0-.3-.1-.3s-.1 0 0-.1c.1 0 .1-.2.1-.5v-1.7-2.2-2.1-1.6-.7s0-.1-.1-.1l-.1-.1c-.1 0-.1-.1-.2-.1 0 0-.1-.1-.2 0-.1 0-.2 0-.2.1 0 0-.1 0-.4.1-.1 0-.2 0-.3-.1 0 0-.1-.1-.2-.1h-.8c-.1 0-.2 0-.2.1 0 0-.1 0-.2.1h-.9c0-.1 0-.2.1-.3-.1 0 0-.1.1-.1zm3.9-13.9c0-.1.1-.2.2-.3.1-.2.2-.2.3-.3h.5l.3.1-.1.2v.2h-.3c-.2 0-.3.1-.4.1l-.2.1V97.1c0 .1-.1.1-.2.1H31l-.1-.8c0-.5-.1-1.1-.1-1.9v-2.4c0-.8.1-1.4.1-2 0-.6.1-.9.2-.9 0 0 .1 0 .1-.1zM40.9 109.1c.1 0 .1 0 .1-.1h.2l-.1.1s-.1 0-.1.1v.2c0 .2 0 .3-.1.3s-.2.1-.3.1c-.2.1-.2.1-.3.1-.1 0-.1.1-.1.2s0 .1-.1.2c0 .4-.1.8-.1 1.3 0 .3 0 .8-.1 1.3 0 .1.2.1.6.1h2.1c.7 0 1.3 0 1.6-.1h.6v-.1c-.1 0-.1-.1-.1-.2s0-.1.1-.2c0 0 .1 0 .2.1l.2.2v.3c0 .1-.1.2-.2.3H44.4c-.3 0-.5.1-.6.1H40c0-.1-.1-.1-.1-.1-.2 0-.3-.1-.3-.3v-.5-.8c0-.3.1-.6.1-.8v-.5c0-.1 0-.3.1-.5l.2-.4c.1 0 .1 0 .1-.1 0 0 0-.1.1-.1s.1-.1.2-.2c.2-.1.3-.1.3-.2.1.2.2.2.2.2zm2.2-9.3c0-.2 0-.3.1-.4h.5v1.2c0 .1-.1.1-.1.1v.1s0 .2-.1.4c0 .2-.1.3-.1.4 0 0-.1.1-.1.2v.4c0 .2-.1.4-.1.5 0 .2-.1.3-.1.4-.1.2-.1.3-.1.5s-.1.3-.1.3c-.1 0-.1 0 0 0s.1.1.1.1-.1 0-.1.1v.3c0 .1 0 .3-.1.5 0 0 0 .1-.1.2 0 .1-.1.3-.1.4 0 .2-.1.3-.1.4v.3s0 .1-.1.1c0 0-.1.2-.2.6-.1.4-.2.7-.2 1l-.1.3-.2.1c-.2.1-.3.1-.3.1v-.1-.3c.1 0 .1-.1.1-.1 0-.2 0-.3.1-.6 0-.1.1-.2.1-.3v-.4c0-.2.1-.4.1-.5 0 0 .1-.1.1-.2v-.4-.5c0-.2.1-.3.1-.5 0-.1.1-.2.1-.4v-.4c0-.2 0-.3.1-.4 0-.1.1-.2.1-.2v-.2c0-.1 0-.1.1-.2 0-.2.1-.5.1-.9 0-.2.1-.4.1-.5 0-.2.1-.2.1-.3.1-.2.1-.3.1-.4v-.4-.3c0-.1.1-.2.1-.3.2.3.2.3.2.2zm5.5-11.9h1.1s.1-.1.2-.1h1.2v.1l.1.1.4-.1h.3v.1l.1.1s0 .1.1.1c0 .2.1.4.1.6 0 .2.1.3.1.5 0 .1.1.2.1.3V90.2c0 .1.1.2.1.3 0 .1 0 .1.1.1 0 .3.1.5.1.7v.5c0 .1.1.2.1.2v.4c.1 0 .1.1.1.3v.3c.1 0 .1 0 .1.1s0 .1.1.1.1.2.1.6c0 .2.1.4.1.5 0 .2.1.3.1.4v.6c0 .2.1.3.1.3s.1 0 0 .1c0 .1 0 .1-.1.2-.1 0-.1.1-.1.2s.1.1.1.1c.1 0 .1.2.2.7 0 .2 0 .5.1.9 0 .4.1.6.1.6.1 0 .1.1.1.1v.1c-.1 0-.1.1-.1.3v.4s.1.1.1.3c0 .2.1.4.1.6v.7c0 .3.1.5.1.6 0 .1.1.2.1.3v.2s0 .1.1.1c0 .2.1.3.1.4 0 .1.1.2.1.3 0 .1 0 .2.1.2v.2c0 .1.1.2.1.4 0 .1 0 .3.1.6.1 0 .1.1.1.2v.1c-.1 0-.1.1-.1.1 0 .1 0 .1.1.1 0 0 .1 0 .1.1s0 .2.1.3c0 .2 0 .4.1.5 0 0 .1.1.1.3v.6c0 .2.1.5.1.7.1.1.1.3.2.7 0 .1.1.3.1.6 0 0 .1 0 .2.1h1v.2c0 .2.1.3.1.3 0 .4.1.7.1 1v1l-.1.1c-.1.2-.1.3-.2.3v.1h-3c-.1.1-.3.1-.7.1l-.6.1v-.1c0-.1 0-.1-.1-.1 0 0-.1-.1-.1-.3-.1-.2-.1-.4-.1-.7 0-.3-.1-.5-.1-.8-.1-.2-.1-.4-.1-.4-.1-.3-.1-.6-.1-.8 0-.4-.1-.7-.1-.9 0-.2-.1-.3-.1-.5 0-.1 0-.1-.1-.1 0 0-.1 0-.1-.1v-.1c0-.2-.1-.3-.2-.3-.1-.1-.1-.2-.2-.3l-.1-.1-.9.1c-.3 0-.6 0-.9.1 0 .1-.1.1-.1.1H49s0-.1-.1-.1h-.3c-.3 0-.4.1-.4.1h-1v.6c0 .1-.1.3-.1.4 0 .2-.1.4-.1.6 0 .2-.1.4-.1.6 0 .3-.1.5-.1.6 0 0-.1.2-.1.4s-.1.5-.1.9c0 .6-.1.9-.3 1-.1 0-.1 0-.1.1s0 .2.1.2l.1.1-.2-.1H45.6c-.1 0-.4.1-.7.1h-2.3-.6l-.6.1.1-.1v-.5-.9c0-.9 0-1.3.1-1.3 0 0 .1 0 .1-.1v-.1-.2s0-.1.1-.1c.2-.1.3-.1.3-.2s.1-.1.3-.1c.2 0 .4 0 .3-.1.1-.2.1-.3.1-.3 0-.1.1-.2.1-.3 0-.1.1-.3.1-.4 0-.2 0-.3.1-.3 0 0 .1-.1.1-.2v-.4c.1-.3.1-.6.2-.9.1-.2.1-.4.1-.4s.1-.1.1-.2 0-.3.1-.5c0-.2 0-.4.1-.7.1 0 .1-.1.1-.3 0-.2 0-.5.1-1v-.3c0-.1.1-.1.1-.1s.1-.1.1-.2.1-.4.2-.9c0-.2.1-.5.1-.8l.1-.1s0-.1.1-.2c0-.1 0-.2.1-.3 0-.2.1-.4.1-.6 0-.4.1-.7.1-.9.1-.3.1-.4.1-.4s.1 0 .1-.1 0-.2.1-.3v-.5c0-.2.1-.3.1-.5.1-.2.1-.4.1-.6 0-.1 0-.2.1-.2 0 0 .1 0 .1-.1v-.3c0-.3.1-.6.1-.9.1-.3.1-.4.1-.4 0-.1.1-.2.1-.3v-.2s0-.1.1-.1c.1-.3.1-.6.1-.8v-.6c0-.2.1-.3.1-.4 0-.1 0-.3.1-.6 0-.1.1-.2.1-.3 0-.1 0-.1.1-.1 0 0 0-.1.1-.1v-.2c0-.1 0-.3.1-.5.1-.1.1-.3.1-.4v-.4c0-.2.1-.3.1-.4 0-.1.1-.1.1-.1l.1-.1.1-.1h1.3zm-3.3 1.2c0-.1.1-.1.1-.2s.1-.1.2-.1c0 0 .1-.1.2-.1h.6v.4h-.2c-.2 0-.3 0-.4.1-.1.1-.2.1-.2.2v.1s-.1 0-.1.1V90.2c0 .2-.1.3-.1.5 0 .1-.1.3-.1.5v.5c0 .1-.1.2-.1.4-.1 0-.1.2-.2.5 0 .3-.1.6-.2.9v1.1c0 .1-.1.2-.1.3 0 .1 0 .1-.1.2 0 0-.1.1-.1.2v.3c-.1.5-.2.9-.2 1.2v.5s0 .1-.1.2c-.1 0-.2.4-.3 1.1l-.1.3h-.5v-.3c0-.1.1-.2.1-.4 0-.1 0-.2.1-.3 0-.1.1-.1.1-.2v-.2-.1c0-.1.1-.1.1-.1v-.2c0-.1 0-.2.1-.5 0-.3.1-.5.1-.8.1-.3.1-.6.2-.8.1-.2.1-.4.1-.4.1-.5.2-1 .3-1.4 0-.4.1-.8.1-1.1 0 0 0-.1.1-.3 0-.2.1-.4.1-.6 0-.2.1-.4.1-.7 0-.2.1-.4.1-.6 0-.2 0-.3.1-.3.1-.3.2-.4.2-.5zm2.1 18.5h.2c.1 0 .3 0 .5-.1.5-.1.9-.1 1.2 0 .3.1.5.2.5.3 0 .1 0 .1.1.2.1 0 .1.1.2.3v.2c0 .1.1.3.1.4.1.1.1.3.1.5v.5c0 .1 0 .3.1.5 0 0 .1.2.2.6.1.4.1.7.2 1v.4c0 .1.1.2.1.2.1.1.1.2.1.3l.1.3.6-.1c.4 0 .7 0 .7-.1 0 0 .1-.1.2-.1h1.2c.3 0 .6 0 .8-.1h.9l.1-.1c0-.1 0-.2.1-.3 0-.1 0-.1.1-.1s.2 0 .3-.1h.2v.1c0 .1-.1.1-.1.2 0 0 0 .1-.1.1 0 .1-.1.1-.1.2-.1.2-.2.3-.2.3l-.2.2-1.4.1c-.9 0-1.6.1-2.2.1-.6 0-.9.1-.9.2s0 .1 0 0-.1-.1-.2-.1-.2-.1-.3-.2c-.1-.1-.1-.3-.2-.4 0-.2-.1-.3-.1-.3s-.1-.1-.1-.2v-.4c-.1-.5-.2-.9-.2-1.1 0-.2-.1-.3-.1-.3 0-.2-.1-.3-.1-.3v-.8c0-.3-.1-.6-.2-.8-.1-.2-.2-.4-.3-.5l-.2-.2-.3-.1h-.4c-.2 0-.4.1-.5.1h-.6s-.1-.1-.1-.3l.2-.2zm2.4-11.9c0-.3-.1-.6-.1-1 0-.1 0-.1-.1-.1s-.2 0-.2.1-.1.2-.1.5v.3c0 .1-.1.1-.1.1s0 .1-.1.1c0 .1 0 .3-.1.6 0 .1-.1.3-.1.5s-.1.4-.1.6v.5c0 .1-.1.2-.1.2s-.1.3-.1 1c-.1.5-.1.9-.2 1.2-.1.4-.1.6-.1.6-.1 0-.1.2-.1.4s0 .4.1.4h.1-.1s-.1 0-.1.1V102.1c0 .1-.1.1-.1.2-.1.3 0 .5.2.5.1 0 .2.1.2.1.3 0 .6.1.8.1.5 0 .8-.1.8-.1h.2c0 .1 0 .1.2.1.1 0 .2 0 .3-.1.1 0 .2-.1.2-.1l.1-.1-.1-.7c0-.2-.1-.4-.1-.7v-.6c-.1-.3-.1-.5-.2-.6-.1 0-.1 0 0 0s.1-.1.1-.1c0-.1 0-.1-.1-.1s-.1-.2-.2-.6-.1-1.1-.2-2c0-.1 0-.2-.1-.4 0 0-.1-.1-.1-.3-.2-.3-.2-.6-.3-.9zm-1.1 4.7c0-.2 0-.4.1-.6l.1-.4.1.3c0 .3.1.5.1.7 0 .1.1.2.1.2 0 .2.1.4.1.5v.5c0 .2.1.3.1.4 0 .2 0 .3.1.3-.1 0-.2.1-.3.1-.1 0-.2 0-.3-.1 0-.1-.1-.3-.2-.8 0-.4 0-.7-.1-.7s-.1 0 0-.1c.1 0 .1-.1.1-.3zM57 88.7s.1-.1.2-.1c.1-.1.1-.1.2-.1h.3s.1.1.1.2c0 .2-.1.3-.1.3-.1 0-.2.1-.2.1-.1.1-.2.2-.2.3-.1.1-.1.1-.2.1s-.1.1-.2.3v1c0 .6 0 .9.1.9 0 0 .1 0 .1.1v.2c0 .2 0 .4.1.5 0 .2.1.3.2.3h.2c.1 0 .2.1.2.1.1 0 .2.1.3.1.1 0 .1 0 .2-.1h1.5l.2-.2c.1-.1.1-.2.1-.3 0-.1 0-.1.1-.1h.4l.2-.1-.1.3c0 .1 0 .2-.1.3-.1.1-.1.1-.1.2 0 0-.1.1-.1.2s-.1.1-.1.2-.1.2-.2.2h-.4c-.1 0-.3-.1-.6 0-.3 0-.5 0-.6.1h-.3c-.2 0-.3-.1-.5-.1l-.7-.2-.2-.4c-.1-.3-.2-.5-.2-.7v-.4c-.1 0-.1-.4-.1-1.1 0-.3 0-.7.1-1.1 0 0 .1 0 .1-.1v-.1s0-.1.1-.1c0-.1.1-.1.2-.1s.1-.1.2-.1c-.3-.4-.2-.5-.2-.5zm1.9-.7c.1 0 .1-.1.1-.1h.6s.3 0 .9.1c.6 0 1.4 0 2.4.1 1 0 2.2.1 3.6.1s2.9 0 4.5.1h1.6v1c0 .1.1.1.1.1v.2c-.1 0-.1.1-.1.2s0 .2.1.2.1 0 0 0-.1.1-.1.2 0 .2.1.2v.2c-.1 0-.1.2-.1.4v.4c0 .1.1.1.1.1h.1v.1c0 .1-.1.1-.4.2s-.6.1-1 .1-.6 0-.6.1-.1.1-.1.1h-.1c0-.1-.1-.1-.1-.1-.1 0-.2.1-.1.1H70l-.1-.1c0-.1-.1-.1-.2-.2 0-.1-.1-.2-.1-.3 0-.1 0-.1.1-.2 0-.1.1-.1.1-.1.1 0 .1-.1-.1-.2h-1.4c-.2 0-.3.1-.5.1-.1 0-.2 0-.2.1 0 0-.1.3-.1.9 0 .5-.1 1.3-.1 2.3 0 .3 0 .4-.1.5v9.7c0 1.3.1 2 .1 2.2v3.8l.2.1c.1 0 .1 0 0 0s-.1.1-.2.4v.3c0 .1 0 .2-.1.4l-.1.4h-1.8l-1.8.1v-.4c0-.2 0-.3-.1-.4-.1 0-.1-.2-.1-.4v-.4c.1 0 .1-.1.1-.2v-.2c-.1 0-.1-.2-.1-.5v-1.3-.6-.4-.2-.3-.4c0-.1 0-.2.1-.2v-.9c0-.6 0-.9.1-1v-.5c0-.3-.1-.5-.1-.6 0-.1 0-.2.1-.4 0-.2 0-.3-.1-.3 0 0-.1-.1 0-.2 0-.1 0-.2.1-.2v-.1-.1c-.1 0-.1-.1 0-.2 0-.1.1-.3 0-.4 0-.1 0-.2-.1-.3-.1-.1-.1-.6 0-1.5v-.3-.2-.2-.4-.4-.2s0-.1.1-.1c0-.1 0-.1-.1-.1v-.3-.6-.6-.4-.6l-.1-.5.1-.3c0-.1.1-.2.1-.4v-.8c0-.5-.1-.8-.1-.9 0-.1 0-.3.1-.5v-.7c-.1-.2-.1-.3-.2-.3-.2.1-.7.1-1.5.1l-.6.1.1.4v.4l-.1.1c-.1 0-.2.1-.1.1 0 0 0 .1-.1.1h-.8c-.2 0-.4 0-.5.1L59 92l-.1-.1c-.1-.1-.2-.2-.3-.2-.1 0-.2-.1-.3-.2-.1-.1-.2-.2-.2-.3v-.4-.8-1.3c0-.2.1-.3.2-.3h.2c.1 0 .1-.1.2-.1 0-.3.1-.3.2-.3zm2.8 3.8h.1c.1 0 .1-.1.1-.1l.1-.1c.1 0 .1.1.1.2 0 0 0 .1.1.1 0 .1.1.1.1.1.1 0 .1.2.1.4s-.1.4-.2.5c-.1.1-.1.2-.1.3 0 .1.1.2.1.3 0 .3.1.6.1.8v.9l-.1.1H62v6.9h.1c.1 0 .1.1.1.2v.2l-.2.1h-.1s-.1.1 0 .1l-.1.1c-.1 0-.1 0-.1-.1v-.1c.1 0 .1-.1.1-.2s0-.2-.1-.2c0 0-.1-.3-.1-.8v-6.6l.1-.1s.1-.1.1-.2V94c0-.5 0-.8-.1-.8s-.1-.1-.1-.3v-.3s.1 0 .1-.1v-.2l.1-.2h-.4c-.1 0-.1-.1-.1-.1s0-.1.1-.2c.1.1.2.1.3 0zm0 12.2c-.1 0-.1-.1-.1-.2s.1-.1.2-.2h.2c.2 0 .2.1.2.5-.1 0-.1 0-.1.1v.2c.1.1.1.2.1.5s0 .4-.1.5c-.1.6-.1 1.3-.1 2v2.5c0 .3-.1.6 0 .9 0 .3 0 .4.1.5V111.9c-.1.3-.1.4-.1.6 0 .1.1.2.2.2 0 0 .1 0 .1.1v.3c0 .1-.1.1-.1.1H62c.1 0 .2.1.3.2h.4c.1 0 .3-.1.5-.1s.5 0 .7.1h.6c.2 0 .4 0 .4-.1h.6l.3.1.1-.2c0-.1.1-.1.1-.1v-.1-.1c0-.1 0-.1.1-.1H66.4v.2c-.1 0-.1.1-.1.1 0 .1-.1.2-.2.4s-.2.3-.3.3h-2.3l-1.5.1-.3-.2c-.3-.2-.4-.4-.4-.7.1-.1.1-.3 0-.4v-.3-.4c0-.1.1-.2.1-.3 0-.1 0-.2-.1-.2v-.3-.7-1.2-1.7c0-1.4 0-2.1.1-2 .1 0 .1-.2.1-.4s0-.3-.1-.3c0 0-.1-.1 0-.3.2-.4.2-.5.3-.5zM68 92.5c-.1 0-.1-.1-.1-.1v-.3h.7l.1.6v.4c0 .1 0 .2.1.2 0 0 .1 0 .2.1.8 0 1.3-.1 1.6-.1.3 0 .4-.1.4-.1.1 0 .2-.1.3-.1.2 0 .3-.1.4-.1.1-.1.1-.1 0-.1s-.1-.1-.1-.1v-.1h.3c.1 0 .2 0 .3.1v.3c0 .1-.1.3-.3.4-.1.1-.3.2-.5.2s-.3.1-.4.1c0 0-.1.1-.3.1H70c-.3 0-.6 0-1 .1-.1 0-.2 0-.4-.1-.2 0-.3-.1-.4-.3-.1-.1-.1-.3-.2-.6.1-.3 0-.5 0-.5zM84.8 88.8c0-.1.1-.2.1-.2s.1-.1.2-.1c.2-.1.4-.1.6-.1.2 0 .3 0 .3.1v.1c.1 0 .1.1.1.1v.1h-.7c-.1 0-.2.1-.2.1l-.2.1v.3c0 .2 0 .3.1.4v1l-.1.1h-.1.1s.1.1.1.4c0 .3.1.5.2.5.1.1.2.1.5.1.2 0 .3.1.3.1 0 .1.1.1.1.2.1 0 .1 0 .1.1v.2s.1.1.1.2.1.3.1.5.1.4.1.6c0 .2.1.3.1.3 0 .1 0 .1.1.2v.1s.1.1.1.2v1.1c0 .2.1.4.1.5 0 .1.1.2.1.3v.3c0 .2.1.3.1.4.1 0 .1 0-.1.1-.1 0-.1 0 0 .1s.1.3.1.7v.4c0 .1.1.2.1.2v.5c.1.8.1 1.3.2 1.4 0 .2.1.3.1.4v.5c0 .2.1.4.1.6.1.2.1.3.2.5 0 .2.1.3.1.3v.3c.1 0 .1.1.1.1v.2c0 .1 0 .1.1.2v1.3c0 .3.1.7.1 1.1.1.1.1.3.1.5v.7l.1.2-.2.1c-.2.2-.2.3 0 .3.2.1.2.1.1.2v.2c0 .1-.1.1-.1.1v.3c0 .1-.1.1-.1.1-.1 0-.2-.3-.1-1.1v-.6c0-.2-.1-.2-.1-.2v-.4c0-.3-.1-.5-.1-.5 0-.3-.1-.6-.1-.8v-.6c0-.2 0-.4-.1-.5v-.4-.4c0-.1 0-.2-.1-.3 0 0-.1 0-.1-.1s0-.1-.1-.2v-.4c0-.2-.1-.3-.1-.5s-.1-.4-.1-.6v-.4c0-.1 0-.2-.1-.3 0 0-.1-.1-.1-.2s0-.2-.1-.4c0-.3-.1-.7-.2-1.1-.1-.4-.1-.7-.2-.7 0-.3-.1-.6-.1-.8v-.6c0-.2-.1-.4-.1-.5 0-.1-.1-.3-.1-.4v-.6c0-.4-.1-.6-.1-.7 0 0-.1-.1-.1-.2s-.1-.3-.1-.5-.1-.4-.1-.5v-.4c0-.2 0-.3-.1-.4-.2-.1-.3-.2-.6-.2 0-.1 0-.1-.1-.1s-.2-.1-.3-.2c-.1-.1-.2-.3-.2-.5-.1-.2-.1-.4-.2-.5 0 0-.1-.2-.1-.3 0-.2 0-.3.1-.3s.1-.2.1-.4 0-.3-.1-.3v-.4-.4s.1 0 .1-.1c.4.2.4.1.4.1zm1.8-.8s.1-.1.3-.1c.2 0 .4 0 .6-.1h3.7c.1 0 .2.1.2.1 0 .1 0 .1-.1.1v.6c.1 0 .1.1.1.3v.3c0 .1 0 .3.1.4 0 .1.1.3.1.6v.7c0 .2.1.5.1.9 0 0 .1.1.1.4.1.3.1.6.2 1s.1.8.1 1.1c0 .4.1.7.1 1 0 0 .1.1.1.2v.4c0 .1 0 .3.1.6.1.2.1.5.1.7 0 .2.1.5.1.7v.7s.1.2.1.6c.1.4.1.8.1 1.2 0 .2.1.4.1.6.1.1.1.2.1.3 0 .3.1.6.1 1 .1.4.1.7.1.9 0 .2.1.4.1.5.1.2.1.5.1.6v.6c0 .2.1.4.1.6l.1.6.1-.1c.1 0 .1 0 .1-.1 0 0 0-.1.1-.3 0-.3.1-.6.1-.9.1-.3.1-.4.1-.4 0-.3.1-.5.1-.7.2-1.2.3-1.8.4-1.8v-.3c0-.1 0-.3.1-.6 0-.3.1-.6.1-.9.1-.3.1-.6.2-.8.1-.2.1-.4.1-.4s.1-.3.1-.8c0-.4.1-.9.2-1.3s.1-.7.2-.7.1 0 0 0c-.1-.1-.1-.2 0-.3.1-.3.1-.6.1-.9 0-.7.1-1.2.1-1.6.1-.4.1-.6.1-.6v-.2c0-.1 0-.3.1-.4 0-.1.1-.2.1-.4s.1-.4.1-.5v-.5c0-.1.1-.2.1-.2.1 0 .1-.2.1-.4s0-.3-.1-.3v-.3-.1c.1 0 .1-.1.1-.1V89c0-.1.1-.2.1-.3l.2-.4.1-.1h1.3c.1 0 .3 0 .6-.1.1 0 .1 0 .2.1H99.2c.1-.1.3-.1.4-.1h.8c.2 0 .4.1.6.1h.3c.1 0 .2 0 .1.1v.2c-.1 0-.1.1-.1.2s0 .1.1.1h.1s0 .1.1.2c0 .1.1.2.1.2 0 .2.1.3.1.4v.7s.1.1.1.2v.3c0 .1.1.2.1.4v.6l.1.7h.2l-.1.3v.3c0 .1 0 .3.1.4v.9c0 .3.1.5.1.5 0 .1.1.1.2.2.1 0 .1 0 .1.1s0 .1-.1.1-.2.1-.1.1c0 0 .1 0 .1.1s.1.1.1.1c0 .1.1.2.1.3 0 .1 0 .2-.1.3-.1.3-.1.5 0 .6 0 0 .1.1.1.3v.8c0 .1.1.2.1.2.1.4.1.7.1.9.1.6.1 1.1.2 1.5.1.4.1.6.2.6v.3c0 .1 0 .3.1.5 0 .2.1.5.1.7 0 .2.1.5.1.6 0 .2.1.3.1.3s.1.2.1.6V104.7c.1.1.1.1.1.2s0 .3.1.6c0 .3.1.5.2.5 0 0 0 .1.1.4v.5c0 .1.1.2.1.2s.1-.1.1-.2 0-.1.1-.2c0 0 .1-.2.2-.7.1-.4.2-.9.2-1.3 0-.1 0-.3.1-.6 0 0 .1-.2.1-.4s.1-.6.2-1.1c0-.4.1-.7.1-.9 0-.2.1-.3.1-.3 0-.3.1-.6.1-.9 0-.2.1-.5.1-.8 0-.3.1-.5.1-.7 0-.2.1-.4.1-.6v-.6c0-.2 0-.4.1-.6 0 0 .1-.2.2-.7.1-.5.2-1.1.2-1.7 0-.2.1-.4.1-.5 0-.3.1-.6.1-.8.1-.5.1-.9.2-1.3s.1-.6.2-.6c0-.2.1-.3.1-.4v-.4c0-.2 0-.3.1-.5.1-.4.1-.7.2-1v-.5s-.1 0-.1-.1v-.1c0-.1 0-.2.1-.2v-.3l-.1-.2.1.1h.2c.4 0 .8-.1 1.3-.1s1-.1 1.4-.1h1.2c.3 0 .5 0 .5.1 0 0 .1 0 .2.1h.1v1.2c0 .1-.1.2-.1.2-.1.1-.1.1-.1.2l-.1.1c0 .1 0 .1-.1.1 0 .1-.1.2-.1.4 0 .1-.1.1-.1.1-.1 0-.1.1-.2.1-.1.1-.3.1-.5.2l-.4.1-.1.8c-.1.2-.1.4-.2.6 0 .2-.1.3-.1.3v.1c-.1 0-.1.1-.1.3v.6c0 .1-.1.2-.1.3v.4c0 .3-.1.5-.1.6 0 .1-.1.2-.1.2-.1.4-.1.6-.1.9v.8c0 .3-.1.5-.1.6 0 .1-.1.3-.1.4v.3c0 .1-.1.1-.1.1v.4c0 .3 0 .4.1.4s.1 0 0 0c0 0-.1.1-.1.3 0 .2-.1.4-.1.7-.1.8-.2 1.3-.2 1.5 0 .2-.1.3-.1.3-.1 0-.1.1-.1.2s0 .2.1.2.1 0 0 0c-.1.1-.1.3-.2.5v.5c0 .2-.1.4-.1.6 0 .2-.1.4-.1.6v.4c0 .1 0 .2-.1.4 0 0-.1.1-.1.3 0 .2-.1.4-.2.7 0 .3-.1.6-.1.8 0 .2-.1.3-.1.3v.1c0 .1 0 .1.1.2.1 0 .1 0-.1.1 0 0-.1.2-.1.4s-.1.6-.1 1-.1.8-.1 1.2c-.1.4-.1.6-.1.6s-.1.1-.1.4l-.1.4-.3.1c-.1 0-.4.1-.7.1s-.6 0-.8-.1h-.6c-.2.1-.3.1-.3 0h-.3c-.2 0-.4 0-.6.1h-1.1c-.2 0-.4-.1-.5-.2 0 0 0-.1-.1-.1h-.1c-.1 0-.2 0-.2-.1v-.1c0-.1-.1-.1-.1-.1-.1 0-.3-.4-.4-1.2 0-.1 0-.3-.1-.5 0 0-.1-.3-.1-.7-.1-.4-.1-.9-.1-1.3 0-.2-.1-.5-.1-.8 0 0-.1-.1-.1-.3v-.6c-.1-.6-.2-1.2-.2-1.7-.1-.5-.2-.7-.2-.7 0-.1 0-.2-.1-.4v-.4c0-.2 0-.3-.1-.5 0-.1-.1-.3-.1-.5v-.4c0-.2 0-.5-.1-.8 0-.3-.1-.5-.2-.5 0-.4-.1-.6-.1-.9-.1-.9-.2-1.8-.3-2.5 0 0-.1-.1-.1-.2s0-.3-.1-.4c0-.6-.1-1.1-.2-1.4-.1-.3-.1-.5-.2-.5 0 0-.1.1-.2.4-.1.3-.2.8-.3 1.5 0 .2-.1.3-.1.4-.1.4-.1.6-.1.9v.7c0 .2-.1.3-.1.3v.5s-.1.2-.2.7c-.1.4-.1.8-.1 1.2v.6c-.1.2-.1.3-.1.5 0 .1 0 .2-.1.3 0 0-.1.1-.1.2s-.1.2-.1.4c0 .1-.1.3-.1.4v.4c0 .1-.1.2-.1.4 0 .1-.1.3-.1.4 0 .1 0 .2-.1.2 0 0-.1.1-.1.2s0 .3-.1.4c0 .4 0 .6-.1.6-.1.1-.1.3-.1.6 0 .1 0 .2-.1.4-.1.1-.1.2-.2.4s-.1.3 0 .4v.2c0 .1-.1.1-.1.1v.6c0 .1-.1.2-.2.3-.1.1-.1.4-.1.9s-.1.9-.2 1.4c-.1.5-.2.8-.2.8-.1.1-.1.1-.2.1s-.2 0-.2.1-.1.1-.1 0c0 0-.1-.1-.2-.1h-.4c-.3 0-.5.1-.6.1-.5 0-1 .1-1.4.1H92l-.1-.1s-.1 0-.1-.1v-.1c0-.1 0-.2-.1-.3-.1-.1-.2-.1-.2-.1s-.1-.1-.1-.2 0-.3-.1-.7c0-.2-.1-.5-.1-.8 0-.3-.1-.5-.1-.7l-.1-.6-.1-.1c-.1-.1-.2-.1-.1-.1 0 0 .1 0 .1-.1v-.1-.5c0-.2-.1-.2-.1-.2-.1 0-.2 0-.3-.1 0-.1 0-.1.1-.2.1 0 .1-.1.1-.2s-.1-.2-.2-.2-.1 0-.1-.1c0 0 .1-.1.2-.1l.1-.1-.1-.3c0-.1 0-.2-.1-.3-.1-.1-.1-.3-.1-.6 0-.1 0-.3-.1-.6-.1 0-.1-.1-.1-.3v-.5c0-.3 0-.5-.1-.8 0-.3-.1-.6-.1-.8 0-.2-.1-.4-.1-.4-.2-.8-.2-1.4-.3-1.6 0-.1-.1-.2-.1-.3 0-.1 0-.1-.1-.1s-.1-.1-.1-.1c0-.1 0-.1.1-.1 0 0 .1 0 0-.1 0-.1 0-.1-.1-.2-.1 0-.1-.1-.1-.4 0-.2 0-.6-.1-.9-.1-.4-.1-.6-.2-.6v-.4c0-.2-.1-.3-.1-.4-.1 0-.1 0 0 0 .1-.1.2-.2.1-.3-.1 0-.1-.2-.1-.5V95c0-.2-.1-.3-.1-.3v-.4-.4c0-.2 0-.3-.1-.4-.1-.1-.1-.2-.1-.3v-.3c0-.1 0-.2-.1-.3 0-.3-.1-.6-.1-.9-.1-.3-.1-.5-.1-.6 0 0 0-.1-.1-.2-.1 0-.1-.1-.1-.1v-.1c0-.1 0-.1-.1-.1l-.2-.2c0-.1-.1-.2-.3-.1-.2 0-.4 0-.5-.1-.1-.1-.2-.2-.2-.4 0-.1 0-.2-.1-.3 0 0-.1-.1-.1-.3 0-.2 0-.4-.1-.7v-.7c.1.4.2.2.2.2zm2.9 23.7s-.1-.1-.1-.3c0-.2-.1-.4-.1-.6 0-.2-.1-.4-.1-.6v-.4c.1-.1.1-.1.2-.1h.2l.1.4c.1.3.1.6.1 1v.4c0 .1.1.2.1.2s0 .1.1.4v.4l.1.1c.3.2.3.3 0 .3-.1 0-.2 0-.1.1 0 .1 0 .1.1.1.2 0 .3 0 .5.1s.3.1.4.1c0 0 .1-.1.3-.1h1.5c.4 0 .7 0 1-.1h1.3c.2-.1.3-.3.3-.6v-.2h.2c.2 0 .3.1.3.2v.4c-.1.2-.1.3-.2.4l-.1.2h-4c-.2 0-.3 0-.3.1H91c-.2 0-.3-.1-.5-.1l-.7-.1-.1-.2v-.1c0-.1-.1-.1-.1-.1l-.1-.1c0-.1.1-.1.1-.1v-.2-.4-.4c-.1 0-.1 0-.1-.1zm2 .1h0zm4.6-23.1c.1 0 .1 0 0 0 .1-.1.2-.1.4-.1h.3l-.1.1v.2c0 .1-.1.1-.1.2l-.1.1c-.1 0-.2 0-.3.1-.1 0-.2.2-.3.4l-.1.4v.8c0 .5 0 .7-.1.7 0 0-.1 0-.1.1v.1c0 .1 0 .2-.1.4 0 0-.1.2-.1.4s-.1.4-.1.6c-.1.5-.1.8-.2.9 0 .5-.1.9-.1 1.2-.1.7-.1 1.2-.1 1.5 0 .3-.1.4-.1.4s0 .1-.1.2v.4c0 .2 0 .4-.1.7 0 .2-.1.5-.1.7-.1.3-.1.5-.1.6 0 .2 0 .3-.1.4 0 0-.1.1-.1.2 0 .2-.1.5-.2 1.1l-.1.3-.1-.2c0-.2-.1-.3-.1-.4 0 0-.1-.2-.1-.5s0-.5.1-.5c0 0 .1-.2.1-.5.1-.3.1-.6.1-1.1.1-.4.1-.7.2-1 0-.3.1-.4.1-.4s.1-.3.1-.7c0-.4.1-.9.1-1.3s.1-.8.1-1.2c0-.4.1-.5.2-.5 0-.1.1-.2.1-.3v-.3c0-.2 0-.3.1-.5s.1-.4.1-.5v-.3-.1c0-.1.1-.1.1-.1s0-.2.1-.6l-.1-.6.2-.5c.1-.1.1-.3.2-.4 0-.1.1-.1.1-.1l.1-.1c0-.1 0-.1.1-.2.2-.1.2-.2.3-.2zm3.1 12v-.5c0-.2.1-.2.1-.1v.4s0 .1.1.2c0 0 .1.1.1.2v.6c0 .2.1.5.1.8 0 .3.1.5.1.7 0 .1.1.3.1.5v.4c0 .2 0 .3.1.3 0 0 .1.2.2.7.1.5.1 1 .2 1.6 0 .4.1.7.1.9 0 .1.1.2.1.2v.3c0 .2 0 .4.1.6 0 .2 0 .4.1.6v.3c0 .1 0 .2.1.3 0 0 .1.1.1.2v.2c0 .1 0 .2.1.3.1 0 .1.1.1.3 0 .1 0 .4.1.7.1.3.1.6.1.8 0 .1.1.3.3.4.1.2.3.3.4.3.1 0 .2.1.3.1l.1.1h1c.7 0 1 0 1-.1s.1-.1.2-.1.1 0 .2.1c0 .1.1.1.2.1s.2-.1.2-.1c0-.1.1-.1.1 0s0 .2.1.1.2-.1.3 0h1.4s0-.1.1-.1h.2s0-.1.1-.2c.1-.3.4-.4.6-.3l.1.1s-.1 0-.1.1v.1c0 .2-.1.3-.2.5s-.2.2-.3.3c0 0-.1 0-.3.1h-4.9c-.3 0-.4-.1-.4-.2s-.1-.1-.3-.1c-.1-.1-.3-.2-.5-.3-.2-.1-.2-.2-.2-.3v-.1s-.1-.1-.1-.3c-.1-.2-.1-.4-.1-.7-.1-.3-.1-.5-.1-.5s-.1-.1-.1-.2v-.4-.5c0-.2-.1-.3-.1-.4-.1-.2-.1-.3-.1-.3v-.3c0-.2 0-.3-.1-.5 0-.2-.1-.4-.1-.8 0 0-.1-.1-.1-.3 0-.2-.1-.6-.1-1.2 0-.2-.1-.4-.1-.6v-.5c0-.1-.1-.2-.1-.3v-.3-.3s-.1-.1-.1-.4v-.5c0-.2-.1-.5-.1-.7 0-.3-.1-.6-.1-.7 0-.1 0-.3.1-.4v-.3c-.4-.5-.4-.5-.4-.6zm7.6-11.3c0-.3.1-.5.2-.7.1-.1.3-.2.6-.2h.6c.1 0 .1 0 .1.1v.2c0 .1 0 .1-.1.1s-.1 0-.1.1-.1.1-.1.1h-.1s0-.1-.1-.1h-.2v.3c0 .2 0 .3-.1.5 0 .1 0 .2.1.2s.1.1.1.2-.1.5-.2 1.1c0 .2-.1.4-.1.6v.8c0 .1-.1.1-.1.1s0 .1-.1.2v.4c0 .2 0 .4-.1.6 0 .2-.1.5-.1.7v.7c0 .4-.1.7-.1.8 0 0-.1.1-.1.2v.2c-.2 1.3-.3 2-.4 2 0 0 0 .2-.1.6v.6c0 .2 0 .3-.1.4v.6c0 .3-.1.6-.1.8 0 .2-.1.5-.1.7 0 .2-.1.3-.1.3v.2c0 .2 0 .2-.1.1s-.1-.3-.1-.7c0-.3-.1-.6 0-.9 0-.3 0-.7.1-1.3 0-.1.1-.3.1-.4v-.5c0-.1 0-.3.1-.5.1-.1.1-.4.2-1s.1-1 .2-1.3c.1-.3.1-.4.1-.4v-.4c0-.1 0-.3.1-.7 0-.4.1-.7.1-1.1.1-.4.1-.8.2-1.1 0-.3.1-.5.1-.5s.1-.1.1-.3c0-.2.1-.4.1-.6 0-.4.1-.6.1-.8V90c-.5.1-.6-.2-.5-.6zm.6 23.6h0zM115.9 88.6h.3c0-.1.1-.1.2-.1h.3v.6h-.2-.2c0 .1-.1.1-.2.2h-.3V91l-.1 1.7.2.1.1.1.2-.1c.2-.1.3-.1.4 0 .1.1.1.2.2.4v5.5c0 .1.1.3.1.4 0 .1 0 .2-.1.2 0 .1 0 .2.1.2.1.1.1.1 0 .2s-.1.2-.1.2c.1 0 .1.1.1.4 0 .2 0 .4-.1.4v.4c0 .2 0 .4-.1.5 0 .2 0 .2.1.2l.1.1v2.7l.1 2.7.1.1c.1 0 .1.1.1.3v.3s-.1.1-.1.2c0 .2 0 .3-.1.6 0 .4 0 .7-.1.9 0 .1-.1.2-.2.2s-.2.1-.4.2c-.1.1-.2.2-.2.3 0 .1-.1.2-.1.3 0 .2 0 .3-.1.3v1.9s.1 0 .1.1v.1c0 .2.1.2.3.2h5.1l.5-.1v-.2l.1-.2.2.1h.2s.1 0 .1.1v.5c0 .1-.1.1-.1.1-.1.1-.4.2-.9.2s-1.4.1-2.7.1h-2.5l-.3-.1c-.2-.1-.3-.3-.4-.5-.1-.2-.1-.7 0-1.5v-1-.6c.1-.2.2-.3.3-.4 0 0 .1 0 .2-.1s.2-.1.2-.2l.2-.2V108s.1 0 .1-.1v-.1s0-.1-.1-.2c0 0-.1 0-.1-.1s0-.2-.1-.4v-.9-1.5-1.9c0-.5 0-.7-.1-.7v-.3-.5-.5c0-.2.1-.3.1-.3v-.4s-.1-.1-.1-.3v-.6-1.3-2l-.1-2.5-.2-.1c-.2 0-.3 0-.5-.1s-.3-.2-.3-.3v-.6-1.2-1.2c0-.4.1-.6.1-.7.1-.4.3-.6.7-.6zm1.7-.6h.3c.1 0 .1 0 .1-.1h2.6s.1.1.3.1h1.4c.2 0 .4 0 .4-.1.1 0 .2 0 .3.1l.2.1V89.4c.1 0 .1.2.1.6v.5c0 .1-.1.2-.1.2v.1c0 .1 0 .1.1.1s0 .1-.1.2c-.2.1-.3.2-.4.2-.3.1-.3.2-.1.4l.1.1-.2-.1h-.2c0 .1 0 .1-.1.1-.1-.1-.1 0-.1.3v.3c0 .1-.1.6-.1 1.4V95s.1.1.1.2v1c0 .1 0 .2-.1.2 0 0-.1.2-.1.5v4.1l.2.1v.1s-.1 0-.2.1l-.1.1.1.7c0 .1 0 .3.1.4 0 .1.1.2.1.2.1 0 .1 0 0 0s-.1.1-.1.2 0 .2.1.2c0 0 .1.2.1.6v2.1c0 .9.1 1.6.1 2 0 .4 0 .6.1.7.1.1.2.1.4.1h.3v.2c0 .1.1.1.1.2l.1.1.1.1-.1 1.2c0 .8 0 1.2-.1 1.2 0 0-.1 0-.1.1V112l-.4.1h-5.2s-.1-.1-.1-.2c-.1-.1-.1-.1-.1-.2 0-.2-.1-.5 0-1 0-.5 0-.9.1-1.2 0-.2.1-.4.1-.4 0-.1 0-.1.1-.1l.1-.1c.1 0 .1 0 .1-.1s.1-.1.1-.1c.1 0 .1-.1.1-.1 0-.1.1-.1.2-.1s.1-.1.2-.4v-1.2-1.3-1.7-1.6c0-.3 0-.5-.1-.5-.1-.1-.2-.2-.1-.3 0 0 .1 0 .1-.1v-.3l.1-.4h-.1l-.2-.1v-.6c0-.4 0-.6.1-.6s.1-.2.1-.4 0-.4-.1-.4-.1 0 0 0c0 0 .1 0 .1-.1v-.1-.1c0-.1 0-.1-.1-.1s-.1 0 0 0c0 0 .1 0 .1-.1V98v-.1c0-.1 0-.1-.1-.1 0 0-.1-.2-.1-.7v-2.4c0-.9 0-1.5-.1-1.9 0-.4 0-.8-.1-1 0-.2-.1-.3-.1-.3h-.2l-.2.1-.1-.1c-.1-.1-.1-.1-.2-.1v-.1c-.1 0-.1-.1-.1-.1 0-.1.1-.1.1-.1V91v-.1c-.1 0-.1-.1-.1-.1 0-.1.1-.1.1-.1v-.1-.1c-.1 0-.1-.1-.1-.3V90c0-.1.1-.1.1-.1v-.2-.4-.4c0-.1 0-.2-.1-.2s-.1 0 0-.1c0-.1.1-.2.1-.3V88h.4zM125.7 88.7s.1-.1.2-.1c.1-.1.1-.1.2-.1h.3s.1.1.1.2c0 .2-.1.3-.1.3-.1 0-.2.1-.2.1-.1.1-.2.2-.2.3-.1.1-.1.1-.2.1s-.1.1-.2.3v1c0 .6 0 .9.1.9 0 0 .1 0 .1.1v.2c0 .2 0 .4.1.5 0 .2.1.3.2.3h.2c.1 0 .2.1.2.1.1 0 .2.1.3.1.1 0 .1 0 .2-.1h1.5l.2-.2c.1-.1.1-.2.1-.3 0-.1 0-.1.1-.1h.4l.2-.1-.1.3c0 .1 0 .2-.1.3-.1.1-.1.1-.1.2 0 0-.1.1-.1.2s-.1.1-.1.2-.1.2-.2.2h-.4c-.1 0-.3-.1-.6 0-.3 0-.5 0-.6.1h-.3c-.2 0-.3-.1-.5-.1l-.7-.2-.2-.4c-.1-.3-.2-.5-.2-.7v-.4c-.1 0-.1-.4-.1-1.1 0-.3 0-.7.1-1.1 0 0 .1 0 .1-.1v-.1s0-.1.1-.1c0-.1.1-.1.2-.1s.1-.1.2-.1c-.2-.4-.2-.5-.2-.5zm2-.7c.1 0 .1-.1.1-.1h.6s.3 0 .9.1c.6 0 1.4 0 2.4.1 1 0 2.2.1 3.6.1s2.9 0 4.5.1h1.6v1c0 .1.1.1.1.1v.2c-.1 0-.1.1-.1.2s0 .2.1.2.1 0 0 0-.1.1-.1.2 0 .2.1.2v.2c-.1 0-.1.2-.1.4v.4c0 .1.1.1.1.1h.1v.1c0 .1-.1.1-.4.2-.2.1-.6.1-1 .1s-.6 0-.6.1-.1.1-.1.1h-.1c0-.1-.1-.1-.1-.1-.1 0-.2.1-.1.1h-.4l-.1-.1c0-.1-.1-.1-.2-.2 0-.1-.1-.2-.1-.3 0-.1 0-.1.1-.2 0-.1.1-.1.1-.1.1 0 .1-.1-.1-.2-.1-.1-.2-.1-.5-.1h-1.1c-.2 0-.4.1-.5.1-.1 0-.2 0-.2.1 0 0-.1.3-.1.9 0 .5-.1 1.3-.1 2.3 0 .3 0 .4-.1.5v9.7c0 1.3.1 2 .1 2.2v3.8l.2.1c.1 0 .1 0 0 0s-.1.1-.2.4v.3c0 .1 0 .2-.1.4l-.1.4H134l-1.8.1v-.4c0-.2 0-.3-.1-.4-.1 0-.1-.2-.1-.4v-.4c.1 0 .1-.1.1-.2v-.2c-.1 0-.1-.2-.1-.5v-1.3-.6-.4-.2-.3-.4c0-.1 0-.2.1-.2v-.9c0-.6 0-.9.1-1v-.5c0-.3-.1-.5-.1-.6 0-.1 0-.2.1-.4 0-.2 0-.3-.1-.3 0 0-.1-.1 0-.2 0-.1 0-.2.1-.2v-.1-.1c-.1 0-.1-.1 0-.2v-.4c0-.1 0-.2-.1-.3-.1-.1-.1-.6 0-1.5v-.3-.2-.2-.4-.4-.2s0-.1.1-.1c0-.1 0-.1-.1-.1v-.3-.6-.6-.4-.6l-.1-.5.1-.3c0-.1.1-.2.1-.4v-.8c0-.5-.1-.8-.1-.9 0-.1 0-.3.1-.5v-.7c-.1-.2-.1-.3-.2-.3-.2.1-.7.1-1.5.1l-.6.1.1.4v.4l-.1.1c-.1 0-.2.1-.1.1 0 0 0 .1-.1.1h-.8c-.2 0-.4 0-.5.1l-.6.1-.1-.1c-.1-.1-.2-.2-.3-.2-.1 0-.2-.1-.3-.2-.1-.1-.2-.2-.2-.3v-.4-.8V89c0-.2.1-.3.2-.3h.2c.1 0 .1-.1.2-.1 0-.6.1-.6.2-.6zm2.7 3.8h.1c.1 0 .1-.1.1-.1l.1-.1c.1 0 .1.1.1.2 0 0 0 .1.1.1 0 .1.1.1.1.1.1 0 .1.2.1.4s-.1.4-.2.5c-.1.1-.1.2-.1.3 0 .1.1.2.1.3 0 .3.1.6.1.8v.9l-.1.1-.1.1v6.9h.1c.1 0 .1.1.1.2v.2l-.2.1h-.1s-.1.1 0 .1l-.1.1c-.1 0-.1 0-.1-.1v-.1c.1 0 .1-.1.1-.2s0-.2-.1-.2c0 0-.1-.3-.1-.8V95l.1-.1s.1-.1.1-.2v-.6c0-.5 0-.8-.1-.8s-.1-.1-.1-.3v-.3s.1 0 .1-.1v-.2l.1-.2h-.4c-.1 0-.1-.1-.1-.1s0-.1.1-.2c0 0 .1 0 .2-.1zm0 12.2c-.1 0-.1-.1-.1-.2s.1-.1.2-.2h.2c.2 0 .2.1.2.5-.1 0-.1 0-.1.1v.2c.1.1.1.2.1.5s0 .4-.1.5c-.1.6-.1 1.3-.1 2v2.5c0 .3-.1.6 0 .9 0 .3 0 .4.1.5V111.9c-.1.3-.1.4-.1.6 0 .1.1.2.2.2 0 0 .1 0 .1.1v.3c0 .1-.1.1-.1.1h-.2.1c.1 0 .2.1.3.2h.4c.1 0 .3-.1.5-.1s.5 0 .7.1h.6c.2 0 .4 0 .4-.1h.6l.3.1.1-.2c0-.1.1-.1.1-.1v-.1-.1c0-.1 0-.1.1-.1H135.2v.2c-.1 0-.1.1-.1.1 0 .1-.1.2-.2.4s-.2.3-.3.3h-2.3l-1.5.1-.3-.2c-.3-.2-.4-.4-.4-.7.1-.1.1-.3 0-.4v-.3-.4c0-.1.1-.2.1-.3 0-.1 0-.2-.1-.2v-.3-.7-1.2-1.7c0-1.4 0-2.1.1-2 .1 0 .1-.2.1-.4s0-.3-.1-.3c0 0-.1-.1 0-.3.1-.4.2-.5.2-.5zm6.3-11.5c-.1 0-.1-.1-.1-.1v-.3h.7l.1.6v.4c0 .1 0 .2.1.2 0 0 .1 0 .2.1.8 0 1.3-.1 1.6-.1.3 0 .4-.1.4-.1.1 0 .2-.1.3-.1.2 0 .3-.1.4-.1.1-.1.1-.1 0-.1s-.1-.1-.1-.1v-.1h.3c.1 0 .2 0 .3.1v.3c0 .1-.1.3-.3.4-.1.1-.3.2-.5.2s-.3.1-.4.1c0 0-.1.1-.3.1h-.7c-.3 0-.6 0-1 .1-.1 0-.2 0-.4-.1-.2 0-.3-.1-.4-.3-.1-.1-.1-.3-.2-.6.2-.3.1-.5 0-.5zM143.4 88.6c.2 0 .3 0 .3-.1h.3l.2-.1-.1.3v.3h-.3c-.2 0-.2.1-.2.1 0 .1-.1.1-.1.1h-.2l-.1.6c0 .4-.1.8-.1 1.2 0 .4 0 .7.1.8.1.2.1.2.2.2h.5c.2-.1.4-.1.4-.2.1 0 .1.2.1.6v.6l.1.1h.2v7l-.2.1h-.5v-6.8l-.1-.2c-.1-.1-.1-.2-.1-.4l.1-.2h-.9c-.1-.1-.2-.1-.2-.2s-.1-.1-.2-.2c0 0-.1-.1-.1-.3v-1.1l-.1-1.5.2-.2c.2-.2.2-.3.2-.4.5-.1.6-.1.6-.1zm-.1 20.7c.2 0 .4-.1.6-.1l.3-.1v.5c-.1.1-.2.1-.4.1l-.5.2v1.4c-.1.5-.1.9 0 .9 0 .1.1.2.1.3 0 .3 0 .4.1.5.1.1.3.1.8.2H146.7c.3 0 .5 0 .6-.1.2 0 .3 0 .4.1.2.1.3 0 .4-.2 0-.2.1-.2.2-.2.2-.1.3-.1.3-.2s.1-.1.1-.2h.1c0 .1.1.1.2.1h.1l-.1.2c0 .2-.1.3-.4.4-.1.1-.2.2-.3.2-.1.1-.2.1-.2.2-.1.1-.2.1-.5.1h-.6c-.3 0-.6 0-1 .1-.8.1-1.3.1-1.5.1-.1 0-.2-.1-.4-.1s-.3-.1-.4-.1c-.5 0-.8-.2-.8-.7-.1-.2-.1-.3-.2-.4v-.4-.8-.8-.4s.1 0 .1-.1.1-.1.1-.1c0-.1 0-.3.1-.4.2-.2.2-.2.3-.2zm1-1.8c0-.3-.1-.8-.1-1.5s0-1.4-.1-2.2v-2-1c0-.1.1-.1.3-.1h.2V105.1c0 .9.1 1.6.1 2.1s0 .8-.1.8c0 .1-.1.1-.2.2l-.2.2.1-.9zM147 88h1.4c.4 0 .7 0 .7-.1h.2c.1 0 .1.1.1.2 0 .2 0 .2.1.2s.1 0 .1.1.1.4.1 1c0 .5.1 1 .1 1.6 0 1.5.1 2.6.1 3.3 0 .7 0 1 .1 1s.1.1.1.2 0 .2-.1.2-.1 0 0 .1c.1 0 .1.1.1.2s0 .1-.1.2h-.1.1c.1.1.1.1 0 .1s-.1.1-.2.3c0 .1 0 .1.1.1h.1c.1 0 .1.1.2.2v.8l1.4-.1h1.9c.5 0 .8 0 1-.1s.4-.1.4-.1c.1 0 .1-.1.1-.1 0-.1 0-.1.1-.2s.2-.1.3 0c.1 0 .1 0 .1-.1.1-.1.2-.1.2-.2h.2v-3-2.5-1.8l.1-1.4.2-.2.2-.2h1.8c.5 0 1 .1 1.4.1s.7 0 .9.1l.5.1.1.5v.6c0 .2 0 .4.1.6v.7l-.1.2c-.2.2-.2.2-.2.1s-.1-.1-.2-.1-.2 0-.2.1h-.2s-.1 0-.1.1c-.1 0-.1.1-.1.1-.1 1.1-.1 2-.1 2.7v2.7l-.1.1-.1.1h.1s.1.1.1.3V99l-.1.1h-.1.1c.1 0 .1.1.1.1v.1c-.1 0-.1 0-.1.1s0 .2.1.2c0 0 .1.1.1.3v1.5s-.1.1-.1.3v.9c0 .1.1.2.1.2v1c0 .1 0 .2-.1.2 0 0-.1.1-.1.2v1.4c0 .1 0 .2.1.2s.1.1.1.2v.1c-.1 0-.1.1-.1.2s0 .2.1.2.1 0 0 .1c-.1 0-.1.1-.1.3 0 .1 0 .2.1.2s.1.2.2.5c0 .3 0 .4.1.5 0 .1.2.1.4.1h.3V108.5H161.4l.1.4V111.5c0 .2-.1.3-.2.3s-.2 0-.4.1c-.1.1-.2.1-.2.1h-.7c-.2 0-.4 0-.5.1-.2 0-.2.1-.2.1h-.5c-.1 0-.3-.1-.6-.1s-.6-.1-.8-.1h-.8c-.2 0-.3 0-.3-.1h-.2c-.1 0-.1-.2-.2-.6v-1.5-2.9-2.9-1.5c-.1-.5-.2-.8-.5-.8h-.1c-.1 0-.1 0-.1-.1 0 0-.1-.1-.3-.1-.2 0-.3 0-.5.1s-.3.1-.4.1c0 0-.1-.1-.2-.1-.2 0-.3-.1-.5-.1h-.6c-.1 0-.2 0-.2.1s-.3.1-1.1.1h-1.1v.2l-.1.1c-.2 0-.3 0-.3.1V111.3l-.1.2s-.1.1-.2.1h-.2-.1v.1c0 .1 0 .1-.1.1s-.1 0-.1-.1-.1-.1-.2-.1-.2 0-.3.1c-.1.1-.4.1-1 .1h-1.5s-.1-.1-.2-.1-.2-.1-.4-.1c-.3 0-.5 0-.6-.1-.1-.1-.2-.2-.2-.4 0-.1 0-.2-.1-.2 0-.1-.1-.1-.1-.1l-.1-.1c.1-.1.1-.2.2-.5v-.5c0-.2 0-.4.1-.6l.1-.6h.4c.1 0 .2 0 .2-.1.2-.1.3-.1.3-.1.1.1.1.1.2.1l.1-.1-.1-2.8c0-.4 0-.9-.1-1.5v-2.1-2.3-2.3-4.2c0-.8 0-1.2-.1-1.2s-.1-.2-.1-.7v-.7c-.1 0-.1.1-.1.2h-.2c-.1 0-.2 0-.2.1s-.1.1-.4.2h-.3v-.2c0-.1-.1-.2-.2-.2s-.1 0 0 0c0 0 .1-.1.1-.3 0-.2.1-.5.1-.9v-1.1l.1-.2.5-.1h2zm3.6 15c.2 0 .4-.1.5-.1 0 0 .1-.1.3-.1h.7c.5 0 .8.1.8.2s0 .1.1 0c0-.1.2-.1.5-.1h.4s0 .1.1.1H154.3c.1 0 .1.1.2.1l.2.2v3.6c0 .5 0 .8.1 1 0 .4 0 .6-.1.7v2c0 .7 0 1.2-.1 1.5 0 .3-.1.4-.1.4-.1 0-.1 0 0 0 0 0 .1 0 .1.1s.1.1.1.1c0 .2 0 .3.1.3s.3.1.8.1 1.1.1 1.9.1h.6c.2 0 .5 0 .7-.1.2 0 .4 0 .6-.1.2 0 .2-.1.2-.1 0-.1.1-.1.3-.2l.2-.2c0-.1.1-.1.3-.1.2 0 .3 0 .3.1s-.1.1-.1.1v.1c0 .1-.1.2-.2.3-.1.1-.3.2-.4.2-.2 0-.3.1-.4.1 0 0-.2.1-.7.1-.4.1-.8.1-1.1.1H156.1l-1.4-.1-.2-.2c-.1-.1-.2-.2-.2-.3-.1-.1-.1-.2-.1-.2 0-.2 0-.3-.1-.3s-.1 0 0-.1c.1 0 .1-.2.1-.5v-1.7-2.2-2.1-1.6-.7s0-.1-.1-.1l-.1-.1c-.1 0-.1-.1-.2-.1 0 0-.1-.1-.2 0-.1 0-.2 0-.2.1 0 0-.1 0-.4.1-.1 0-.2 0-.3-.1 0 0-.1-.1-.2-.1h-.8c-.1 0-.2 0-.2.1 0 0-.1 0-.2.1h-.9c0-.1 0-.2.1-.3-.2 0-.1-.1.1-.1zm3.9-13.9c0-.1.1-.2.2-.3.1-.2.2-.2.3-.3h.5l.3.1-.1.2v.2h-.3c-.2 0-.3.1-.4.1l-.2.1-.1.8v7.1c0 .1-.1.1-.2.1h-.2l-.1-.8c0-.5-.1-1.1-.1-1.9v-2.4c0-.8.1-1.4.1-2 0-.6.1-.9.2-.9l.1-.1zM174.2 88.7s.1-.1.2-.1.3-.1.4-.2h.2v.5l-.1.1s-.1 0-.1.1l-.1.1s-.1.1-.2.1h-.2c-.1 0-.1.1-.1.1 0 .1 0 .1-.1.1v1c0 .2 0 .5.1.7 0 .2.1.3.1.3v.2c0 .1.1.2.2.2h.3c.1 0 .1.1.1.1v.3c0 .1.1.1.2.1.2-.1.3.1.4.4.1.3.1 1 .1 2v1c0 .2.1.3.1.3.1 0 0 .1-.1.1s-.1 0 0 .1.1.2 0 .3c-.1 0-.1 0 0 .1.1 0 .1.1.1.2s0 .1-.1.1v.6l-.2.1h-.3V97v-.8-1-.9-.7l-.1-.5-.1-.1c-.1 0-.1 0-.2-.1l-.1-.1c0-.1-.1-.2-.2-.3l-.3-.1-.1-.4c-.1-.1-.1-.3-.2-.4v-.5c0-.3-.1-.5-.1-.5-.1 0-.1 0 0 0s.1-.1.1-.2-.1-.1-.1-.1v-.2-.3s.1 0 .1-.1v-.2c.1-.3.3-.4.4-.4v-.4zm.9 9.7l.3-.1h.2s.1.1.1.2V107.6l.1.4c0 .1.1.3.1.4v.5c0 .1.1.1.1.1s.1 0 .1.1 0 .2.1.3c0 .3.1.5.1.7.1.2.1.4.2.4 0 0 0 .1.1.1 0 0 .1 0 .1.1 0 0 .1 0 .1.1s.1.1.1.2c.1.1.1.2.1.3.1.2.1.3.2.4.1.1.2.1.4.2h.2c.1 0 .1.1.1.1h.2c.1 0 .1.1.2.2 0 .1.1.1.1.1.1 0 .1.1.2.1 0 .1 0 .1.1.1h.1c.1 0 .1 0 .1.1s.1.1.2.1.2.1.3.1c.1.1.2.1.3.2 0 0 .2 0 .4.1h1.5c.2 0 .4 0 .4-.1h.6l.4.1v-.1c0-.1.1-.1.4-.1.2 0 .4 0 .6-.1.2-.1.3-.1.4-.2 0-.1.1-.1.2-.1s.1.1.1.2v.1l.3-.1c.2-.1.4-.1.4-.2.1-.1.2-.1.3-.1l.1-.1c.1 0 .1-.1.1-.1.1-.1.2-.1.2-.1h.1c0-.1.1-.1.3-.2.3-.1.5-.2.6-.3.1-.1.2-.2.3-.2.1 0 .1 0 .1.1 0 0-.1 0-.1.1-.1 0-.1.1-.1.1-.1.2-.2.3-.2.3l-.3.3c-.1.1-.3.1-.5.2h-.2c-.1 0-.1.1-.1.1 0 .1-.1.2-.1.2-.2.1-.4.3-.7.4-.3.1-.6.2-.9.2-.1 0-.3 0-.5.1 0 0-.1.1-.3.1-.2 0-.4.1-.7.1-.3 0-.5.1-.8.1h-1.5c-.3 0-.6 0-.8-.1-.2 0-.3-.1-.3-.1-.1-.1-.2-.1-.3-.2-.1-.1-.2-.1-.3-.1 0 0-.1 0-.2-.1s-.2-.1-.3-.2c-.2-.2-.4-.3-.6-.4-.2-.1-.4-.2-.6-.2-.2 0-.3-.1-.4-.2-.1-.1-.2-.2-.2-.4 0-.1-.1-.1-.1-.2s-.1-.1-.1-.1-.1 0-.1-.1-.1-.2-.1-.3l-.3-.3c0-.1 0-.2-.1-.3 0-.1-.1-.3-.1-.4-.1-.3-.1-.5-.2-.5 0-.1-.1-.2-.1-.3 0-.1-.1-.4-.1-.6v-.4-.6c0-.4-.1-.6-.1-.6v-.3-.6-.6c0-.2.1-.3.1-.3.1 0 .1 0 0-.1-.1 0-.1-.1-.1-.2v-.1c.1 0 .1-.1.1-.3 0-.2 0-.3-.1-.3v-.6-1.3-1.3c0-.4.1-.6.1-.6v-.1s-.1-.2-.1-.3v-1.7zm13.4-10.5s.1.1.2.1.2 0 .3-.1c0 0 .1-.1.2-.1h1.8l.1.1c.1.1.2.1.3.1.1 0 .2 0 .2.1v.4c0 .1 0 .3.1.4v.8c0 .3-.1.5-.1.6v.1l-.1.1c-.1 0-.1 0-.1.1s0 .1-.1.1c0 0-.1.1-.2.1 0 .1-.1.1-.2.1h-.9l.1 2.4c0 1.8.1 3.1.1 3.9 0 .8.1 1.2.1 1.2v.2c0 .1 0 .1-.1.1 0 0-.1.1 0 .2 0 .1 0 .2.1.3h.1l-.1 1.7c0 .4 0 1-.1 1.6-.1.1-.1.2-.2.5v2.1c0 .2 0 .3-.1.3v.2c0 .3 0 .7-.1 1.1 0 .4-.1.7-.1.7-.1.1-.1.2-.1.4s-.1.4-.2.7c-.1.2-.1.4-.2.4 0 0 0 .1-.1.1 0 .1 0 .1-.1.2 0 0-.1.1-.1.2v.1s-.1 0-.1.1V109.9c0 .1-.1.1-.1.2-.1.1-.1.2-.1.3 0 0 0 .1-.1.1l-.1.1h-.1l-.1.1c0 .1 0 .1-.1.1s-.1.1-.1.1-.1 0-.1.1c-.1 0-.2 0-.3.1 0 0-.1.1-.2.1-.1-.1-.1 0-.1.1s-.1.2-.4.3c-.1 0-.2.1-.4.1-.1 0-.1.1-.1.1v-.1c0-.1-.1-.2-.1-.1-.1 0-.2 0-.3.1-.1.1-.2.1-.3.2-.2 0-.3.1-.4.1h-.5s-.2.1-.4.1c-.3 0-.8 0-1.6.1h-1l-.3-.1c-.2-.1-.3-.1-.3-.2l-.1-.1c-.2 0-.3-.1-.4-.1-.1-.1-.2-.1-.2-.2l-.2-.2c-.1-.1-.2-.2-.3-.2-.1 0-.2 0-.2-.1 0 0-.1-.1-.2-.1s-.2-.1-.2-.1c-.2 0-.3-.1-.4-.1-.1-.1-.2-.2-.3-.5l-.1-.5h-.2l-.1-.3c0-.1 0-.1-.1-.2-.1 0-.1-.1-.2-.4-.1-.3-.1-.6-.2-1 0-.4 0-.6-.1-.7 0 0-.1-.1-.1-.3 0-.2 0-.4-.1-.7v-.8-.8-.7-1c0-.3-.1-.6-.1-1s0-.8.1-1v-1c0-.4 0-.6-.1-.8v-1.1-1.4-1.3c0-.3 0-.4-.1-.4s-.1-.1-.1-.2 0-.1.1-.1v-.4-.5c-.1 0-.1-.3-.1-.8s0-.8-.1-1c0-.2-.1-.3-.3-.3h-.2V91c.1-.2 0-.3-.3-.3-.1 0-.2 0-.2-.1s0-.2-.1-.3c-.1-.1-.1-.2-.1-.3v-1.1-.6s0-.1.1-.1c0-.1.1-.1.2-.1s.2 0 .2-.1c0 0 0-.1.1-.1h.1c.1 0 .2 0 .2-.1.2 0 .3-.1.4-.1.3 0 .4.1.4.1h.2c0-.1.2-.1.4-.1.1 0 .3 0 .5.1 0 0 .1.1.2.1.2 0 .4 0 .6.1.8 0 1.3.2 1.4.5l.2.1h-.1c-.1 0-.2.1-.1.2 0 .1 0 .2.1.2s.1.3.1.8c0 0 .1.2.1.5s0 .7-.1 1.1v1.9c0 .6 0 1.2.1 1.8v.5c0 .1.1.1.2.1s.1.1 0 .1v1s.1.1.1.2v1c0 .1-.1.2-.1.2s-.1 0-.1.1c0 0 0 .1.1.1 0 0 .1.1.1.3 0 .2 0 .4.1.7v.9c0 .4 0 .7.1.9V107.1c0 .2.1.2.1.2 0 .1.1.2.1.2.1.1.2.3.3.5.2.2.3.2.3.2h.2c0 .1.1.1.2.2.1 0 .3.1.5.1h.5c.1 0 .2 0 .3-.1 0 0 0-.1.1-.1s.2 0 .3-.1c.2 0 .3-.1.4-.1 0-.1.1-.1.1-.1.3 0 .6-.2 1-.6.1-.1.2-.2.3-.2.1 0 .1-.1.1-.1s.1-.1.1-.3c0-.1.1-.2.1-.2.1-.1.1-.2 0-.3-.1 0-.1 0 0 0 0 0 .1 0 .1-.1v-.2-.2-.3c0-.1.1-.5.1-1.2v-2.6c0-2 .1-3.5.1-4.4 0-1 .1-1.4.1-1.4v-.1-.1s-.1-.3-.1-.8-.1-1.2-.1-1.9v-2.3-2.5l.2-.1c.1 0 .1-.1.3-.1h.4c.1 0 .3 0 .4-.1 0-.1.1-.1.2-.1s.1 0 .2.1c0 .1 0 .1.1 0h-.2zm-3.2.8c.2 0 .3-.1.3-.1.1 0 .1-.1.2-.1H186.1v.3l.1.3-.2-.1h-.3c-.1.1-.2.1-.3.2l-.1.1.1.5v.4l-.1.1-.1.1s.1.3.1.9c0 .6.1 1.3.1 2.2V104.4c0 .8 0 1.5-.1 2.2-.1.1-.1.3-.1.6l-.1.4-.3.1c-.1.1-.2.1-.2 0v-.2-.5c0-.2.1-.3.1-.5v-.5c0-.3 0-.4.1-.4v-.7-.7c-.1 0-.1-.1-.1-.3 0-.2 0-.3.1-.4v-.6c0-.4 0-.9.1-1.6 0-.6 0-1.3.1-2.1v-2.1-1.9-1.8V92v-.5s-.1-.1-.1-.2v-.5-.5c0-.1 0-.2.1-.2 0 0 0-.2.1-.5v-.5l.2-.2c0-.1.1-.1.1-.2h-.1zM196.1 89.5l.1-.1.1-.1h.1v.1c0 .1-.1.1-.1.1h-.1c-.1 0-.1.1-.2.2v.3c0 .1 0 .1-.1.1 0 0-.1 0-.1.1s-.1.2-.2.3c-.1.3-.2.4-.3.4-.1 0-.1 0-.2.1s-.1.1-.1.2 0 .1-.1.2c0 0-.1.1-.1.2-.1.1-.1.2-.1.3 0 .1-.1.2-.1.2-.1.1-.1.2-.1.2-.1.1-.2.2-.2.4 0 .1 0 .2-.1.3-.1 0-.1.1-.2.4 0 .3-.1.6-.1.9 0 .3 0 .5-.1.5-.1.1-.1.1 0 .2s.1.1 0 .1-.1.1-.1.3c0 .2 0 .3.1.4 0 0 .1.1.1.2V96.9c0 .2.1.4.1.4s.1.1.1.2.1.4.2.7c.1.2.1.3.2.4 0 0 .1 0 .1.1s.1.2.1.3c.1.2.2.3.2.3v.1l.2.4.2.4c.1.1.1.2.1.3 0 .1-.1.2-.2.3h-.2c-.1-.1-.1-.1-.1-.3-.1-.1-.2-.2-.3-.4 0-.1-.1-.1-.1-.2s-.1-.1-.1-.1v-.1c0-.1 0-.2-.1-.2 0 0-.1-.1-.1-.2s0-.1-.1-.2-.2-.2-.2-.3c0-.1-.1-.3-.2-.6s-.1-.5-.1-.5-.1-.1-.1-.3v-.5c0-.2-.1-.4-.1-.5 0-.1-.1-.2-.1-.2l-.2-.1v-.6c0-.4 0-.6.1-.7.1-.2.1-.4.2-.5.1-.6.1-1 .2-1.2 0-.2.1-.3.1-.3s0-.1.1-.2c0-.1.1-.3.2-.5s.1-.3.2-.3.1 0 .1-.1.1-.2.1-.3c.1-.3.2-.4.3-.4 0-.1.1-.2.1-.2 0-.1.1-.2.3-.3.2-.1.2-.1.2-.2s.1-.2.3-.4c.2-.2.4-.3.4-.3s.1 0 .1-.1c0 .1 0 0 0 0zm-1.5 18.9h.1c.1 0 .1-.1.1-.1h.1c.1 0 .1 0 .1.1v.1c-.1 0-.1.1-.2.2 0 .1 0 .2-.1.2 0 0-.1.1-.2.1l-.2.1-.1.3v1.9c0 .1 0 .2-.1.3-.1 0-.2 0-.1.1 0 0 .1.1.1.2v.5l.1.7.1.1h.7c.1 0 .4-.1.7-.1h.9c.7 0 1.1 0 1.2-.1 0-.1 0-.1.1 0s.3.1.6 0h4.5c-.1 0-.1-.1-.1-.1s.2-.1.5-.1c.4-.1.7-.1.9-.1.2 0 .3-.1.3-.1s.2-.1.4-.3c.2-.1.4-.2.5-.2 0 0 .1-.1.3-.2.2-.2.3-.2.3-.1 0 0 0 .1-.1.3-.1.2-.2.3-.4.4 0 0-.1.1-.2.1s-.1.1-.2.1-.2 0-.3.1l-.1.1c-.1 0-.1.1-.1.1-.2 0-.3.1-.4.1 0 .1-.2.1-.4.2-.2 0-.5.1-.8.2-.1 0-.2.1-.3.1 0 .1-.8.1-2.4.1H194.8c-.7 0-1-.1-1.1-.4v-.3-.5c0-.4-.1-.7-.1-.8-.1 0-.1 0 0-.1 0 0 .1-.1.1-.3v-.8c0-.6.1-1 .1-1.3.1-.3.2-.5.4-.6.1-.1.2-.1.2-.2h.2zm7.7-20.4c.3 0 .7 0 1.1-.1 0-.1.1-.1.4-.1h1.8c.9 0 1.3 0 1.3.1s.1.1.3.1c.1 0 .2 0 .2.1s.1.1.2.2l.1.2v2.9l-.1.1c-.1.1-.2.2-.3.2l-.1.1c0 .1 0 .1-.1.1H205.9c-.3 0-.5.1-.8.1-.2 0-.3 0-.3-.1h-.1c-.1 0-.1 0-.1-.1s0-.1.1-.1.1-.1.1-.2 0-.2-.1-.4V91c0-.1-.1-.1-.1-.1h-.1c0-.1-.1-.1-.4-.1-.2 0-.4 0-.4.1-.3 0-.6.1-.9.1-.5 0-.9 0-1.1.1-.2 0-.4.1-.5.2-.1.1-.2.1-.3.1-.1 0-.1 0-.2.1-.2.1-.3.2-.4.4-.1.1-.2.2-.2.3-.1.1-.2.2-.2.3-.1.2-.1.3-.1.4-.1 0-.1.1-.1.1v.3c0 .2-.1.3-.1.5s-.1.4-.1.6v.4c0 .1 0 .2-.1.2 0 0-.1 0-.1.1v.4c0 .1.1.1.1.1l.1.2c0 .1 0 .2.1.4s.2.3.2.3v.1c0 .1 0 .1.1.1 0 0 .1 0 .1.1v.1c0 .1.1.3.3.4.2.2.4.3.6.4.2.1.3.1.4.2.2.1.3.2.4.2.1.1.2.1.3.2.1.1.2.1.2.2.2.1.3.1.4.1.2 0 .4.1.5.1.1.1.2.2.4.3.2.1.3.1.4.2h.1c.1 0 .1 0 .1.1 0 0 0 .1.1.1s.2.1.3.1c.1 0 .2 0 .4.1 0 0 0 .1.1.1h.2c.1 0 .1.1.1.1 0 .1.1.1.1.1.1 0 .2.1.2.1H205.9c.1 0 .1.1.1.1s0 .1.1.1.2.1.4.2l.2.2v.1c.1 0 .2.1.3.2.1.1.2.2.2.3 0 .1.1.1.2.1s.1.1.2.2.1.2 0 .3c-.1.1 0 .1.2.1l.2.1.1.3c0 .1.1.2.1.2v.2c0 .1 0 .2.1.2s.1.1.1.1v.2c0 .2.1.4.1.4l.1.1c0 .1 0 .1.1.2s.1.2.1.3c0 .1 0 .2-.1.3-.1 0-.1 0 0 .1l.1.1h-.1l-.1.1.1.1.1.1-.1.1c-.1 0-.1.1-.1.2v.2c.1 0 .1 0 .1.1s0 .1-.1.1c-.1.4-.1.7-.1.9-.1 1.1-.1 1.6-.2 1.7-.1 0-.1.1-.1.1s0 .1-.1.2-.1.2-.1.2c-.1.2-.2.4-.1.4v.2s-.2.1-.3.2c-.1 0-.1.1-.2.1-.1.1-.1.1-.2.1-.1.2-.3.3-.5.6l-.4.4s-.1.1-.4.2c-.3.1-.4.2-.5.2-.1 0-.1.1-.1.1-.2.2-1 .3-2.7.4h-1c-.3 0-.4.1-.4.1s0 .1-.1 0c-.1 0-.1 0-.2-.1 0-.1 0-.1 0 0s-.1.1-.2.1-.2 0-.2-.1c0 0-.1-.1-.2-.1s-.2 0-.2.1c0 0 0 .1-.1.1s-.1 0-.2.1c-.2 0-.3 0-.3-.1s-.1-.1-.1 0c-.5 0-1 .1-1.5.1H196l-.1-.1c-.1-.1-.2-.1-.3-.2-.1 0-.2-.1-.2-.2s0-.1.1-.2c.1 0 .1 0 0 0 0 0-.1-.1-.1-.2v-.4-.4-.2c.1 0 .1-.1.1-.2s0-.2-.1-.2-.1 0 0-.1c.1 0 .1-.1.1-.2v-.2c-.1 0-.1-.1-.1-.4 0-.3 0-.4.1-.5l.1-.1c0-.1 0-.1.1-.1 0-.1 0-.2.1-.3 0-.1.1-.1.2-.1h.1V107.3h.4c.4 0 .6-.1.7-.2 0-.1 0-.1.1 0s.2.1.3.1c.5.1.8.2 1.1.2.2.1.3.1.3.2s.1.1.1.2c0 0 0 .1.1.4v.4l.1.1c.6.1 1 .1 1.2.1.1 0 .2-.1.5-.1h1.9c0-.1.1-.1.4-.2.1 0 .2-.1.3-.1.1-.1.2-.1.2-.1.1-.1.1-.1.2-.1s.2 0 .3-.1l.1-.1c0-.1.1-.1.1-.1.1-.1.1-.2.1-.4s0-.3.1-.3c0-.2.1-.3.1-.4 0-.1.1-.2.1-.3 0-.1.1-.1.1-.1s0-.1.1-.1c0-.2-.1-.3-.2-.3-.1.1-.1 0-.1-.1 0-.2 0-.3-.1-.3v-.1c.2-.1.1-.3-.1-.5-.1 0-.1-.1-.2-.2v-.2-.2c0-.1-.1-.1-.1-.1h-.1v-.2l-.2-.2c-.1-.2-.2-.3-.2-.4 0-.1-.1-.2-.2-.3-.2-.1-.3-.2-.3-.2h-.1c-.1 0-.1-.1-.1-.1s0-.1-.1-.1h-.1c-.2 0-.3 0-.3-.1l-.1-.1c-.1 0-.2-.1-.3-.2 0 0-.1 0-.2-.1-.1 0-.2 0-.2-.1s-.1-.1-.4-.1c-.2 0-.3-.1-.3-.1h-.2c-.1 0-.2 0-.3-.1-.1 0-.2-.1-.2-.2s0-.1-.1-.1-.2 0-.2-.1h-.2c-.1 0-.2 0-.4-.1l-.3-.3-.1-.1-.1-.1c-.1 0-.1 0-.1-.1 0 0 0-.1-.1-.1s-.1-.1-.1-.1c-.1 0-.3-.1-.5-.3-.2-.2-.3-.3-.3-.4v-.2l-.1.1c-.1 0-.3-.1-.4-.2-.1-.1-.2-.2-.3-.4-.1-.2-.2-.3-.2-.3 0-.1 0-.1-.1-.2 0 0-.1 0-.1-.1s-.1-.2-.1-.3c0-.1-.1-.2-.1-.3 0-.1-.1-.1-.1-.1-.1-.1-.1-.2-.2-.4-.1-.4-.2-.7-.3-1-.1-.1-.1-.3-.1-.7 0-.2-.1-.3-.1-.5 0-.1 0-.2-.1-.3-.1 0-.1-.1-.1-.3 0-.2 0-.3.1-.3v-.1-.1c0-.1 0-.1.1-.1V94v-.3-.5c0-.2 0-.3.1-.4 0-.1 0-.2.1-.2.1-.1.1-.2.1-.4.1-.2.1-.4.2-.5.1-.1.1-.1.1-.2v-.1c.1 0 .1-.1.2-.3 0-.1.1-.2.2-.4.1 0 .1-.1.1-.2s.1-.2.2-.2c0 0 .1-.1.2-.1s.1-.1.2-.2c.1-.2.2-.3.3-.5.1-.1.2-.2.3-.2.1 0 .2-.1.3-.2 0 0 0-.1.1-.1l.1-.1h.1s0-.1.1-.1.1-.1.2-.1h.1c.1 0 .1-.1.1-.1l.1-.1h.2c.1 0 .2 0 .2-.1.1 0 .2-.1.4-.1h1.2c.1 0 .2-.1.2-.1s.1-.1.3-.1c-.2-.1.1-.1.6-.1zm-6.5 13.6l.2-.1.1-.1.2.1.2.2c0 .1 0 .1.1.2.1 0 .2.1.3.1.3.1.4.2.4.3 0 .1.1.1.1.1.1 0 .1.1.1.1 0 .1.1.1.4.2.2 0 .4 0 .4.1s.1.1.1.1c.1.1.2.1.2.1.1.1.2.1.3.1.1 0 .2 0 .2.1.2 0 .3.1.4.1h.3v.1c0 .1.1.1.3.1.2 0 .4.1.6.2.1.1.2.1.4.1.1 0 .2.1.3.1 0 .1.1.1.1.1.1 0 .1 0 .1.1s.1.1.2.2.1.2.1.3c0 0 .1 0 .1.1s.1.1.2.1c0 0 .1.1.1.2s.1.1.1.2c.1.1.2.2.1.3 0 .1.1.2.1.2v.2c0 .1.1.2.1.3.1.1.1.2 0 .3l-.1.1s.1 0 .1.1v.2c0 .1.1.1.1.1.1 0 .2.1.2.2v.2s-.1 0-.1.1v.2l-.1.3-.2.1c-.1.1-.3.1-.4.1h-.2s0-.1.1-.1c0 0 .1 0 .1-.1.1-.1.1-.1.1-.2l.1-.3-.1-.4c-.1-.2-.1-.4-.2-.5-.1 0-.1 0 0-.1.1 0 .1-.1.1-.2v-.2c-.1 0-.1-.1-.1-.2s0-.2-.1-.4-.2-.3-.2-.4l-.2-.2-.2-.2c-.1-.2-.1-.3-.2-.3h-.1s-.1-.1-.3-.2c-.2-.1-.3-.2-.4-.2 0 0-.1 0-.1-.1 0 0-.1-.1-.2-.1-.1-.1-.2-.1-.3-.1h-.2c-.1 0-.1-.1-.1-.1h-.3c-.1 0-.2 0-.3-.1 0-.1-.1-.1-.4-.2-.1 0-.2-.1-.3-.1-.1 0-.2-.1-.2-.1s-.1-.1-.2-.1c-.1-.1-.2-.1-.2-.1-.2 0-.4-.1-.5-.1 0-.1-.1-.1-.1-.1-.1 0-.1-.1-.1-.1s-.1-.1-.2-.1c-.1-.1-.1-.1-.2-.1s-.2-.1-.3-.2l-.3-.3-.1-.3zm4.7-9.6h1.3c.2 0 .3 0 .3-.1h.5c.3 0 .4.1.5.1.1.1.1.2.1.4v.4l-.1.1.1.1.1.1 1-.1h1.2c.2 0 .4-.1.6-.4.1-.1.2-.2.4-.2h.1c.1 0 .1 0 .1.2 0 .1-.1.3-.2.4-.1.2-.2.3-.3.3 0 0-.1 0-.1.1l-.1.1-1.3.1-1.3.1-.3-.1c-.2-.1-.3-.2-.4-.3 0-.1-.1-.1-.1-.1s-.1-.1 0-.3c0-.2 0-.3.1-.3h-2.5c-.1.1-.1 0 0-.3l.2-.3h.1z"/></svg>