<svg version="1.1" id="Layer_1" xmlns="http://www.w3.org/2000/svg" x="0" y="0" viewBox="0 0 223.8 94.7" xml:space="preserve"><style>.st104{fill:#393e4b}</style><path d="M208 15.9C207.8 7 201.3 0 190 0h-47.6c0 13.6-1 26.5 0 40.7.8 11.4 9.9 15.9 18 15.9H208V15.9z" fill="#f1dc25"/><path class="st104" d="M7.7 52.2v-.4c0-1.1-.4-2-1.4-2-1 0-1.5.8-1.5 1.6 0 3.6 7.8 1.8 7.8 8.5 0 3.9-2.3 5.6-6.5 5.6-3.9 0-6.1-1.4-6.1-5.1v-.6h4.6v.4c0 1.6.6 2.1 1.6 2.1s1.5-.8 1.5-1.8c0-3.6-7.5-1.8-7.5-8.3 0-3.7 2-5.7 6-5.7 4.1 0 5.9 1.7 5.9 5.6H7.7zM13.6 46.9h7.1c3.6 0 5.3 2.4 5.3 5.6 0 3.7-2.1 5.7-6 5.7h-1.7v7h-4.8V46.9zm4.8 7.9h.9c1.2 0 1.8-.7 1.8-2.2 0-1.5-.6-2.2-1.8-2.2h-.9v4.4zM27 46.9h10.8v3.9h-6.1v3.1h5.7v3.7h-5.7v3.6H38v3.9H27V46.9z"/><path class="st104" d="M42.3 46.9h6l4.5 18.3h-5.1l-.5-3.2h-3.8l-.5 3.2h-5.1l4.5-18.3zm3 3.7l-1.4 7.7h2.7l-1.3-7.7zM52.8 46.9h4.8v7h.1l3.5-7h5.1l-4.6 8 5.2 10.3h-5.4l-2.8-6.4-1 1.5v4.8h-4.8V46.9zM74.3 50.9h-3.6v-4h11.9v4H79v14.2h-4.8V50.9zM89.2 46.5c4.9 0 6.5 2.7 6.5 9.5s-1.7 9.5-6.5 9.5-6.5-2.7-6.5-9.5 1.6-9.5 6.5-9.5zm0 15.8c1.5 0 1.6-1.3 1.6-6.3s-.2-6.3-1.6-6.3-1.6 1.3-1.6 6.3.1 6.3 1.6 6.3zM107.6 46.9v13.2c0 1.8.5 2.2 1.4 2.2.9 0 1.4-.5 1.4-2.2V46.9h4.8v12c0 5.1-2.2 6.6-6.2 6.6s-6.2-1.5-6.2-6.6v-12h4.8zM123.8 52.2v-.4c0-1.1-.4-2-1.4-2-1 0-1.5.8-1.5 1.6 0 3.6 7.8 1.8 7.8 8.5 0 3.9-2.3 5.6-6.5 5.6-3.9 0-6.1-1.4-6.1-5.1v-.6h4.6v.4c0 1.6.6 2.1 1.6 2.1s1.5-.8 1.5-1.8c0-3.6-7.5-1.8-7.5-8.3 0-3.7 2-5.7 6-5.7 4.1 0 5.9 1.7 5.9 5.6h-4.4zM130.6 53v-6.1h4.5V53l-.5 6.9h-3.4l-.6-6.9zm.1 8.1h4.3v4h-4.3v-4zM208 70.6V18c0-11.4-7.2-17.9-16.2-18-16.9-.1-45.7.1-49.3 0 10.3 1.9 13.8 11.5 13.8 25.7v44.8h-14.9l41.2 24.1 41.2-24.1H208z"/></svg>