<svg version="1.1" id="Layer_1" xmlns="http://www.w3.org/2000/svg" x="0" y="0" viewBox="0 0 130.1 122.9" xml:space="preserve"><style>.st26{fill:#fff}.st54{fill:#ffd004}.st55{fill:#d9b306}</style><linearGradient id="SVGID_1_" gradientUnits="userSpaceOnUse" x1="66.337" y1="122.918" x2="66.337" y2="77.461"><stop offset="0" stop-color="#ffd004"/><stop offset=".775" stop-color="#ffd004"/><stop offset="1" stop-color="#b4940c"/></linearGradient><path fill="url(#SVGID_1_)" d="M78.7 80.7l-18.4 42.2L54 77.5z"/><path class="st54" d="M78.1 82.4l.6-1.7 4.3.5z"/><path class="st55" d="M83 81.2l-68-8.8 70.2-4.8z"/><path class="st54" d="M113.2 65.7L15 72.4l-1-18.3z"/><path class="st55" d="M113.6 52.7l-.4 13L0 52.4zM124.1 56.7v-4l6 .1z"/><path class="st54" d="M1.1.2L126.7 0l3.4 52.8L0 52.4z"/><g><path class="st26" d="M16.6 28.8c-.7-.8-2-1.4-3.5-1.4-2.3 0-3.2.9-3.2 2.4s1.1 1.9 3.6 2.4c2.7.6 4.4 1.3 4.4 3.6 0 2.4-1.9 3.4-4.6 3.4-2 0-3.7-.6-5.1-1.8l.6-1c.9 1 2.6 1.8 4.5 1.8 2 0 3.2-.7 3.2-2.2 0-1.6-1.3-2.1-3.9-2.6-2.6-.7-4-1.3-4-3.4 0-2.4 1.9-3.7 4.5-3.7 1.7 0 3 .5 4.1 1.5l-.6 1zM20.1 39.2V26.5h5.3c2.2 0 3.8 2 3.8 4 0 2.1-1.5 4-3.7 4h-4.1v4.7h-1.3zm1.2-5.8h4.1c1.5 0 2.5-1.4 2.5-2.9 0-1.6-1.2-2.9-2.6-2.9h-4v5.8zM39.8 38.1v1.1h-8.6V26.5h8.4v1.1h-7.2v4.6h6.2v1.1h-6.2v4.9h7.4zM40.9 39.2l5.3-12.7h1l5.3 12.7h-1.3l-1.7-4h-5.7l-1.6 4h-1.3zm5.9-11.3l-2.6 6.3h5.2l-2.6-6.3zM54.4 39.2V26.5h1.2v7.4l7-7.4H64l-5.2 5.6 5.5 7.1H63l-4.9-6.4-2.4 2.5v3.9h-1.3zM78.9 27.6h-4.5v11.6h-1.3V27.6h-4.5v-1.1h10.3v1.1zM79.4 32.8c0-3.4 2.6-6.5 6-6.5 3.6 0 6 3.3 6 6.5 0 3.4-2.6 6.4-6 6.4-3.5.1-6-3.1-6-6.4zm6 5.4c2.9 0 4.7-2.7 4.7-5.3 0-2.8-2-5.3-4.7-5.3-2.9 0-4.7 2.7-4.7 5.3 0 2.7 1.9 5.3 4.7 5.3zM107.7 32.9v-6.4h1.3v6.4c0 3.4-1.5 6.4-5.4 6.4-4.1 0-5.4-3.2-5.4-6.4v-6.4h1.2v6.4c0 2.7 1 5.3 4.1 5.3 3.3 0 4.2-2.7 4.2-5.3zM119.5 28.8c-.7-.8-2-1.4-3.5-1.4-2.3 0-3.2.9-3.2 2.4s1.1 1.9 3.6 2.4c2.7.6 4.4 1.3 4.4 3.6 0 2.4-1.9 3.4-4.6 3.4-2 0-3.7-.6-5.1-1.8l.6-1c.9 1 2.6 1.8 4.5 1.8 2 0 3.2-.7 3.2-2.2 0-1.6-1.3-2.1-3.9-2.6-2.7-.6-4.1-1.3-4.1-3.3 0-2.4 1.9-3.7 4.5-3.7 1.7 0 3 .5 4.1 1.5l-.5.9z"/></g><g><path class="st26" d="M14.1 10.4h1.1l1.7 4.2 1.7-4.2h1.1l-2.1 5.1 2.3 5.4 4.3-10.5h1.3l-5 11.9h-1L17 16.4l-2.5 5.9h-1l-5-11.9h1.2L14 20.9l2.3-5.4-2.2-5.1zM35.2 21.2v1h-8V10.3H35v1h-6.7v4.3h5.8v1h-5.8v4.5h6.9zM39.9 22.2l5-11.9h1l5 11.9h-1.3l-1.5-3.7h-5.3l-1.5 3.7h-1.4zm5.5-10.5L43 17.6h4.8l-2.4-5.9zM52.6 22.2V10.3h5c2.1 0 3.5 1.9 3.5 3.7 0 1.7-1.1 3.3-2.7 3.6l2.9 4.6H60l-2.8-4.4h-3.5v4.4h-1.1zm1.1-5.4h3.9c1.4 0 2.3-1.3 2.3-2.7 0-1.4-1.1-2.7-2.4-2.7h-3.8v5.4zM71.7 21.2v1h-8V10.3h7.8v1h-6.7v4.3h5.8v1h-5.8v4.5h6.9zM87.6 10.3v11.9h-1.2v-5.6h-7.1v5.6h-1.2V10.3h1.2v5.3h7.1v-5.3h1.2zM98.6 21.2v1h-8V10.3h7.8v1h-6.7v4.3h5.8v1h-5.8v4.5h6.9zM100.9 22.2V10.3h5c2.1 0 3.5 1.9 3.5 3.7 0 1.7-1.1 3.3-2.7 3.6l2.9 4.6h-1.3l-2.8-4.4H102v4.4h-1.1zm1.2-5.4h3.9c1.4 0 2.3-1.3 2.3-2.7 0-1.4-1.1-2.7-2.4-2.7h-3.8v5.4zM120 21.2v1h-8V10.3h7.8v1h-6.7v4.3h5.8v1h-5.8v4.5h6.9z"/></g></svg>