<svg version="1.1" id="Layer_1" xmlns="http://www.w3.org/2000/svg" x="0" y="0" viewBox="0 0 251.9 90.4" xml:space="preserve"><style>.st26{fill:#fff}.st276{fill:#0e303f}.st427{fill:#f49921}</style><path class="st427" d="M0 60.6h144.7v24H0z"/><path d="M121.5 45.2c0 25-20.2 45.2-45.2 45.2-25 0-45.2-20.2-45.2-45.2C31.1 20.2 51.4 0 76.3 0c25 0 45.2 20.2 45.2 45.2z" fill="#1aafbe"/><path d="M76.3 0c25 0 45.2 20.2 45.2 45.2 0 25-20.2 45.2-45.2 45.2" fill="#1995a4"/><path class="st26" d="M111.5 45.2c0 19.4-15.7 35.1-35.1 35.1-19.4 0-35.1-15.7-35.1-35.1-.1-19.4 15.6-35.2 35-35.2s35.2 15.8 35.2 35.2z"/><path d="M44.9 47.7c0-19.4 15.7-35.1 35.1-35.1 6.4 0 12.4 1.7 17.6 4.7-5.9-4.6-13.3-7.3-21.3-7.3-19.4 0-35.1 15.7-35.1 35.1 0 13 7.1 24.4 17.6 30.4-8.4-6.3-13.9-16.4-13.9-27.8z" fill="#d1ebfa"/><path class="st276" d="M82.6 45.2c0 3.5-2.8 6.3-6.3 6.3S70 48.7 70 45.2s2.8-6.3 6.3-6.3 6.3 2.8 6.3 6.3zM91.3 19.8c-.1 0-.2 0-.3-.1-.2-.1-.3-.4-.2-.7l1-1.7c.1-.2.4-.3.7-.2.2.1.3.5.2.7l-1 1.7c-.1.2-.3.3-.4.3zM60.4 73.3c-.1 0-.2 0-.3-.1-.2-.1-.3-.4-.2-.7l1-1.7c.1-.2.4-.3.7-.2.2.1.3.4.2.7l-1 1.7c0 .2-.2.3-.4.3zM103.9 61.6c-.1 0-.2 0-.3-.1l-1.7-1c-.2-.1-.3-.5-.2-.7.1-.2.4-.3.7-.2l1.7 1c.2.1.3.5.2.7-.1.2-.2.3-.4.3zM50.4 30.7c-.1 0-.2 0-.3-.1l-1.7-1c-.2-.1-.3-.4-.2-.7.1-.2.4-.3.7-.2l1.7 1c.2.1.3.4.2.7 0 .3-.2.3-.4.3z"/><g><path class="st276" d="M61.4 19.8c-.2 0-.3-.1-.4-.3l-1-1.7c-.1-.2-.1-.6.2-.7.2-.1.6-.1.7.2l1 1.7c.1.2.1.6-.2.7-.1.1-.2.1-.3.1zM92.3 73.3c-.2 0-.3-.1-.4-.3l-1-1.7c-.1-.2-.1-.6.2-.7.2-.1.6-.1.7.2l1 1.7c.1.2.1.6-.2.7-.2 0-.3.1-.3.1zM48.8 61.6c-.2 0-.3-.1-.4-.3-.1-.2-.1-.6.2-.7l1.7-1c.2-.1.6-.1.7.2.1.2.1.6-.2.7l-1.7 1c-.2.1-.2.1-.3.1zM102.2 30.7c-.2 0-.3-.1-.4-.3-.1-.2-.1-.6.2-.7l1.7-1c.2-.1.6-.1.7.2.1.2.1.6-.2.7l-1.7 1c-.1.1-.2.1-.3.1z"/></g><g><path class="st276" d="M46.4 45.7h-1.9c-.3 0-.5-.2-.5-.5s.2-.5.5-.5h1.9c.3 0 .5.2.5.5s-.2.5-.5.5zM106.2 45.7c-.3 0-.5-.2-.5-.5s.2-.5.5-.5h1.9c.3 0 .5.2.5.5s-.2.5-.5.5h-1.9zM76.3 77.5c-.3 0-.5-.2-.5-.5v-1.9c0-.3.2-.5.5-.5s.5.2.5.5V77c0 .3-.2.5-.5.5zM76.3 15.8c-.3 0-.5-.2-.5-.5v-1.9c0-.3.2-.5.5-.5s.5.2.5.5v1.9c0 .3-.2.5-.5.5z"/></g><g><path class="st276" d="M76.3 46.9c-.9 0-1.7-.8-1.7-1.7V20.3c0-.9.8-1.7 1.7-1.7.9 0 1.7.7 1.7 1.7v24.9c0 .9-.7 1.7-1.7 1.7z"/><path class="st276" d="M65.4 57.8c-.4 0-.9-.2-1.2-.5-.7-.7-.7-1.7 0-2.4l10.5-10.5c.7-.7 1.7-.7 2.4 0s.7 1.7 0 2.4L66.6 57.3c-.3.3-.7.5-1.2.5z"/></g><path class="st26" d="M80.2 45.2c0 2.1-1.7 3.9-3.9 3.9-2.1 0-3.9-1.7-3.9-3.9 0-2.1 1.7-3.9 3.9-3.9s3.9 1.7 3.9 3.9z"/><path class="st427" d="M78.2 45.2c0 1.1-.9 1.9-1.9 1.9-1.1 0-1.9-.9-1.9-1.9 0-1.1.9-1.9 1.9-1.9 1.1 0 1.9.8 1.9 1.9z"/><g><path class="st427" d="M76.3 46c-.4 0-.7-.2-.8-.6-.1-.4.1-.9.6-1l21.7-6.6c.4-.1.9.1 1 .6.1.4-.1.9-.6 1L76.6 46h-.3z"/></g><g><path d="M158.8 41.8h5.1l3.8 15.6h-4.3l-.4-2.7h-3.2l-.4 2.7H155l3.8-15.6zm2.5 3.1l-1.2 6.6h2.3l-1.1-6.6z"/><path class="st427" d="M174.5 54.5c0-1.3-1-1.5-1.5-1.5v-2.9c.5 0 1.5-.1 1.5-1.3v-4.1c0-2 1.2-3 3.3-3h2.6v2.8h-1.2c-.9 0-1 .8-1 1.4v3.7c0 1.6-1.6 2-2.4 2 .8.1 2.4.2 2.4 2.2v3.5c0 .6.1 1.4 1 1.4h1.2v2.8h-2.6c-2.1 0-3.3-1-3.3-3v-4zM180.9 47.1c0-1.6.2-2.9 1-3.8.7-.9 2-1.4 4.1-1.4 4.1 0 5 1.9 5 4.2 0 2.1-.8 3.4-1.9 4.6l-2.4 2.3c-.3.3-.9.8-1 1.3h5.3v3.1h-10.2c0-2.1.5-4.1 2.3-5.9l2.7-2.8c.8-.8 1.1-1.4 1.1-2.5 0-1.3-.4-1.7-1-1.7s-1.1.3-1.1 2.1v.7h-3.9zM192.1 51.4l4.9-9.2h4.4v9.4h1.4v2.9h-1.4v2.9h-3.8v-2.9h-5.5v-3.1zm5.6.2v-5.2l-2.5 5.2h2.5zM208.3 41.5h3.3l5 16.2h-3.3l-5-16.2zM222.3 47.1c0-1.6.2-2.9 1-3.8.7-.9 2-1.4 4.1-1.4 4.1 0 5 1.9 5 4.2 0 2.1-.8 3.4-1.9 4.6L228 53c-.3.3-.9.8-1 1.3h5.3v3.1h-10.2c0-2.1.5-4.1 2.3-5.9l2.7-2.8c.8-.8 1.1-1.4 1.1-2.5 0-1.3-.4-1.7-1-1.7s-1.1.3-1.1 2.1v.7h-3.8zM233.5 51.4l4.9-9.2h4.4v9.4h1.4v2.9h-1.4v2.9H239v-2.9h-5.5v-3.1zm5.6.2v-5.2l-2.5 5.2h2.5zM244.5 58.6h1.2c.9 0 1-.8 1-1.4v-3.7c0-1.6 1.6-2 2.4-2-.8-.1-2.4-.2-2.4-2.2v-3.5c0-.6-.1-1.4-1-1.4h-1.2v-2.8h2.6c2.1 0 3.3 1 3.3 3v3.9c0 1.3 1 1.5 1.5 1.5v3c-.5 0-1.5.1-1.5 1.3v4.1c0 2-1.2 3-3.3 3h-2.6v-2.8z"/><g><path d="M160.8 69v-.5c0-1.2-.5-2.2-1.5-2.2-1.2 0-1.7.9-1.7 1.8 0 4.1 8.8 2.1 8.8 9.6 0 4.4-2.6 6.4-7.3 6.4-4.5 0-6.9-1.5-6.9-5.8v-.7h5.2v.5c0 1.8.7 2.4 1.8 2.4s1.7-.9 1.7-2c0-4.1-8.5-2.1-8.5-9.4 0-4.2 2.2-6.5 6.8-6.5 4.7 0 6.7 1.9 6.7 6.4h-5.1zM168.3 63.1h12.2v4.4h-6.9V71h6.4v4.2h-6.4v4.1h7.1v4.4h-12.5V63.1zM182.8 63.1h8.4c4.1 0 5.7 2.3 5.7 5.5 0 2.8-1.1 4.5-3.5 4.9v.1c2.6.2 3.4 1.9 3.4 4.6V80c0 1.1 0 2.5.3 2.9.1.2.3.5.6.6v.3H192c-.5-1.1-.5-3.1-.5-3.9v-1.4c0-2.3-.5-3-1.8-3h-1.4v8.3h-5.4V63.1zm5.4 8.7h1.1c1.5 0 2.3-1 2.3-2.5 0-1.7-.7-2.4-2.3-2.4h-1v4.9zM197.7 63.1h5.7l2.2 15.6h.1l2.2-15.6h5.7l-4.5 20.7h-6.9l-4.5-20.7zM214.3 63.1h5.4v20.7h-5.4V63.1zM230.2 69.3c0-2.3-.4-3-1.5-3-1.6 0-1.8 1.5-1.8 7.1s.2 7.1 1.8 7.1c1.3 0 1.6-1.2 1.6-5.1h5.2v1.5c0 5.8-3.4 7.2-6.8 7.2-6 0-7.4-3-7.4-10.7 0-7.9 1.8-10.7 7.4-10.7 4.9 0 6.7 2.5 6.7 6.5v1.3h-5.2v-1.2zM237.5 63.1h12.2v4.4h-6.9V71h6.4v4.2h-6.4v4.1h7.1v4.4h-12.5V63.1z"/></g></g></svg>