<svg version="1.1" id="Layer_1" xmlns="http://www.w3.org/2000/svg" x="0" y="0" viewBox="0 0 132.3 170.6" xml:space="preserve"><style>.st285{fill:#8dc9ef}</style><path class="st285" d="M5.7 16.7h5.2v15.8h6.4v4.3H5.7V16.7zM18.8 16.7h11.9V21H24v3.4h6.2v4.1H24v4h7v4.3H18.8V16.7zM35.7 21.2h-3.9v-4.4h13.1v4.4H41v15.6h-5.2V21.2zM46.2 16.7H51v5.1c0 3.6-1.4 5.4-4.7 5.5v-2.4c1.4-.1 1.8-.9 1.8-2.4v-.3h-1.8v-5.5zM61.5 22.5V22c0-1.2-.5-2.2-1.5-2.2-1.1 0-1.6.9-1.6 1.8 0 4 8.6 2 8.6 9.4 0 4.3-2.5 6.2-7.1 6.2-4.3 0-6.8-1.5-6.8-5.7v-.7h5.1v.5c0 1.7.7 2.3 1.7 2.3 1.1 0 1.7-.8 1.7-1.9 0-4-8.2-2-8.2-9.1 0-4.1 2.2-6.3 6.6-6.3 4.6 0 6.5 1.9 6.5 6.2h-5zM77.9 21.2H74v-4.4h13.1v4.4h-3.9v15.6H78V21.2zM90.2 16.7h6.6l4.9 20.1h-5.6l-.5-3.5h-4.2l-.5 3.5h-5.6l4.9-20.1zm3.3 4.1L92 29.3h2.9l-1.4-8.5zM102.7 16.7h5.2v15.8h6.4v4.3h-11.7V16.7zM115.6 16.7h5.2v7.7h.1l3.9-7.7h5.6l-5.1 8.8 5.7 11.3h-6l-3.1-7-1.1 1.7v5.3h-5.2V16.7z"/><g><path class="st285" d="M4.9 0h1.4l3 11.6L12.5 0h1.6l3.2 11.6 3-11.6h1.3L18 13.2h-1.3L13.3 1.4 10 13.2H8.6L4.9 0zM23.5 0h9.1v1.1h-7.9v4.8h7.4V7h-7.4v5.2h8v1.1h-9.2V0zM44.5 0h1.4l5.2 13.2h-1.4l-1.6-4.1h-6l-1.6 4.1h-1.4L44.5 0zm-2 8.1h5.2l-2.6-6.8-2.6 6.8zM52.8 0h6.1c2.2 0 4 1.1 4 3.5 0 1.7-.9 3-2.6 3.4 1.7.2 2.2 1.4 2.3 3 .1.9.1 2.7.6 3.4h-1.4c-.3-.5-.3-1.5-.4-2.1-.1-1.9-.3-3.9-2.7-3.8h-4.8v5.9h-1.3V0zm1.3 6.3h4.7c1.5 0 2.9-1 2.9-2.6s-1-2.6-2.9-2.6h-4.7v5.2zM65.6 0h9.1v1.1h-7.9v4.8h7.4V7h-7.4v5.2h8v1.1h-9.2V0zM82.7 0H84v5.8h7.9V0h1.3v13.2h-1.3V6.8H84v6.4h-1.3V0zM96.3 0h9.1v1.1h-7.9v4.8h7.4V7h-7.4v5.2h8v1.1h-9.2V0zM107.7 0h6.1c2.2 0 4 1.1 4 3.5 0 1.7-.9 3-2.6 3.4 1.7.2 2.2 1.4 2.3 3 .1.9.1 2.7.6 3.4h-1.4c-.3-.5-.3-1.5-.4-2.1-.1-1.9-.3-3.9-2.7-3.8H109v5.9h-1.3V0zm1.3 6.3h4.7c1.5 0 2.9-1 2.9-2.6s-1-2.6-2.9-2.6H109v5.2zM120.6 0h9.1v1.1h-7.9v4.8h7.4V7h-7.4v5.2h8v1.1h-9.2V0z"/></g><path d="M33.6 99.5c.2-.4.3-.7.5-.9.6-.8.7-1.7.6-2.7-.4-4.1-.7-8.3-1.2-12.4-.2-1.5-.1-3.1-.5-4.6-.2-.9 0-1.9-.1-2.8-.1-1.1 0-2.2-.2-3.2-.1-.2 0-.4 0-.7.4-2.5.6-5 .6-7.6 0-1.3.2-2.6.5-3.9.3-1.4.3-2.7.4-4.1v-4.8c0-1.6-.3-3.2-1.1-4.6-.4-.6-.5-1.2 0-1.8.2-.3.3-.6.5-.9.4-.1.7-.1 1-.2.8-.3 1.4-.1 2 .3 1.9 1.3 4 1.5 6.2 1.3 1.8-.2 3.6-.6 5.4-.9 1.9-.3 3.8-.7 5.7-1 1.8-.3 3.6-.4 5.4-.8 1.5-.3 3-.6 4.6-.7 1.3-.1 2.5-.1 3.8-.1 1.6 0 3.1-.1 4.6-.4.8-.2 1.5-.3 2.3-.4 2.2-.5 4.4-.6 6.6-.1 1.2.3 2.4 0 3.6-.3.7-.2 1.4-.6 1.7-1.5.3-.9 1-1.1 1.9-.7.2.1.3.2.4.2 1.3.5 2 1.5 2.1 2.9.1.7.1 1.3.1 2 .1 1.4.3 2.8.4 4.1.3 2.1.2 4.3.1 6.4-.1 1.7.1 3.3.5 4.9.4 1.8.5 3.6.5 5.4 0 3.8.2 7.6.8 11.4.9 5.7 1 11.3.7 17-.1 1.6.1 3.1.1 4.6 0 .2 0 .4.1.7.5 1.9.5 2.2 2.6 2.4h.3c2.6.8 5.3.4 7.9.5 2.7.1 5.3-.2 7.9-.5 2.9-.3 5.8-.2 8.7.3 1.3.2 2.6.3 3.9.5.6.1 1.2.3 1.8.4.5.1 1 .3 1.5.1.5-.2.9-.3 1.4-.1.7.4 1.5.6 1.7 1.4.1.2.2.4.3.7-.4.7-.7 1.4-1.2 2.1-.2.2-.6.4-.8.5-1.1 0-1.9.6-2.7 1.2-2.8 2.4-5.9 4.5-9 6.5-3.3 2.1-6.4 4.6-9.4 7.1-2.3 2-4.7 4-7 6.1-2.3 2.1-4.6 4.3-6.8 6.5-2.7 2.7-5.5 5.1-8.5 7.4-2.5 1.9-4.8 4.1-7.1 6.3-1.6 1.5-3.1 3.1-4.7 4.6-1.9 1.7-3.8 3.4-5.8 5-1.1.9-2.1 1.9-3.1 2.9-1.2 1.2-2.3 2.3-3.4 3.6-.9 1.1-1.8 2.2-2.7 3.5.3.2.6.3.8.4.6.4.6.9.2 1.4-1.2 1.3-2.8 1.4-4.3.4-2.6-1.8-4.5-4.3-6.6-6.7-.9-1.1-1.9-2.2-2.8-3.3-1.7-2-3.5-4-5.2-6-1.7-2.1-3.2-4.2-4.7-6.4-2.1-3.1-4.3-6.1-6.9-8.9-1.4-1.5-2.7-3.2-4-4.9-2.7-3.3-5.1-6.8-8-10-1.5-1.6-2.9-3.3-4.3-5-1.8-2.1-3.8-4-5.8-5.9-2.1-2-4.3-4-6.1-6.3-.7-.9-1.3-1.8-1.9-2.7-.6-1-.4-1.8.6-2.3.7-.3 1.4-.5 2.2-.2 1 .3 1.9.4 2.9.5h.5c1-.4 2.1-.3 3.1-.3 2.1-.1 4.2-.1 6.3-.1 1 0 2.1.2 3.1.2h4.1c.3 0 .6 0 .8-.1 1.5-.4 3.1-.5 4.6-.7 1.2-.2 2.4-.6 3.5-.9.6 0 1-.2 1.5-.3zm16.5.6c-.1 0-.1.1-.2.1v-.1c.1-.1.2-.1.2 0 0-.1 0-.1-.1-.2h.1v.2zm-14.5 16.2c.3-.2.4-.4.2-.7.2 0 .4.1.5 0 .4-.4.8-.7 1-1.3.4-.8.8-1.7 1.4-2.4 1.4-1.8 2.3-3.9 3.7-5.7.6-1.6 2.1-2.6 2.5-4.2 1.3-1.5 2.1-3.3 3.1-5.1 2-3.6 4.1-7.1 6.1-10.6 1.6-2.8 3.4-5.4 5.3-8 .7-.9 1.3-1.8 1.9-2.7 1.2-1.7 2.4-3.3 3.6-5 1-1.3 2-2.5 2.9-3.8 1.4-2 2.8-4.1 4.3-6.1 2.8-3.9 5-8.1 7.3-12.3.1-.2.2-.5.3-.8.3-.6.5-1.2.8-1.8.2-.5.6-.9.5-1.5-1.7-.5-3.3-.5-4.9-.1-.6.1-1.2.2-1.8.4-2.4.5-4.8.7-7.2.8-1.5 0-3-.1-4.5.2-3.2.7-6.4 1.3-9.6 1.7-.1 0-.3.1-.5.2-.1.8-.1 1.5-.2 2.3-.1.6-.1 1.2-.3 1.8-.7 2.3-1.5 4.5-2.5 6.7l-3.9 8.4c-.1.2-.1.5-.2.7.5-.1.8-.4 1-.7.9-1.2 1.9-2.5 2.8-3.7.9-1.3 2-2.5 2.8-3.9 1-1.7 1.9-3.5 2.9-5.2.2-.3.4-.7.6-1 .4-.3.8-.6 1.2-.8.5-.2.8.3 1.1.6.2.2.4.2.5.4.6.5.7.7.5 1.4-.4 1-.7 2-1.2 2.9-1.2 2.5-2.6 4.9-3.8 7.3-1 2-2 3.9-2.9 5.9-1.6 3.3-3.1 6.7-4.7 10-.4.8-.7 1.5-1.1 2.2-1 1.9-2 3.7-3 5.6-.1.3-.4.5-.2.9.5 0 .6-.3.8-.7.9-1.5 1.7-2.9 2.7-4.4 2-3.2 4.1-6.3 6.1-9.5 2.7-4.1 5.3-8.1 8-12.2.9-1.4 1.9-2.9 2.7-4.3 1.2-2 2.3-4 3.5-6 .6-1.2 1.3-2.3 1.8-3.5.4-.9 1-1.4 1.9-1.9.6.4 1.2.7 1.8 1.1.4.3.5.7.3 1.2-.8 1.9-1.6 3.9-2.6 5.8-1.3 2.5-2.7 4.9-4.1 7.4-.7 1.2-1.3 2.4-2 3.6-2 3.3-4.1 6.6-6 9.9-1.7 3-3.3 6-4.8 9.1-2.1 4.3-4.1 8.6-6.3 12.8-1.7 3.2-3.5 6.4-5.2 9.6-1.5 2.7-3.1 5.3-4.6 8-.1.6-.3.8-.3 1 0 .1.1.1.1.2h-.1v-.2zM50.7 98c.7.2.8-.5 1.1-.8 1.4-2.1 2.8-4.2 4-6.5 1.4-2.7 3.2-5.3 4.6-8 .3-.6.7-1.2 1.1-1.9.1-.2.2-.4-.2-.5-.5.8-.9 1.6-1.4 2.3-1.9 2.6-3.4 5.4-5.1 8.2-.5.8-1 1.7-1.5 2.6-.8 1.5-1.7 3.1-2.6 4.6v.5c.1-.1.2-.1.2-.2 0 0-.1-.2-.2-.3zm-2.6-27.8c-.6-.1-.9.3-1.2.7-1.3 1.8-2.6 3.6-3.9 5.3-.3.1-.5.1-.8.1-2 0-3.6-1.2-2.9-3.7.3-1.1.8-2.2 1.3-3.2 1.4-2.9 2.9-5.7 4.3-8.6.2-.3.4-.6.2-1.1-1.5 2.3-2.9 4.5-4.3 6.7-.4 0-.8.1-1.1.1h-.5c-1.5-.5-2.1-1-1.7-2.5.3-1.1.6-2.1 1-3.2l2.7-6.6c.2-.6.5-1.2.7-1.9.5-1.3 1.3-1.5 2.5-.9.3.2.5.4.8.6 0 .3-.1.5-.1.7v1c1.4-1.6 1.8-3.4 2.6-5.2-1.6-.2-3.1.4-4.5.3-1.5-.1-3.1-.1-4.6-.1-.6 1.4-.6 1.4-.6 2.3 0 .6.1 1.1 0 1.7-.3 1.4-.2 2.9-.2 4.3 0 1.9-.1 3.7-.5 5.6-.3 1.2-.5 2.5-.5 3.8-.1 2.4-.2 4.9-.2 7.3 0 3.3.5 6.6.6 9.9 0 1.2.2 2.3.3 3.5 0 .7.2 1.4.4 2.3.2-.3.4-.5.5-.6.6-1 1.1-2 1.7-3 2.1-3.4 3.9-7.1 5.5-10.7.4-1 .8-2 1.6-2.7.1-.1.3-.4.3-.6-.1-.8.3-1.2.6-1.6.2-.3.3-.6.5-.9-.3-.2-.5 0-.5.2-.1.2 0 .4 0 .7zm26.1 11.1c-.2.1-.4.2-.5.4-.8 1.1-1.5 2.2-2.2 3.3-1.7 2.7-3.5 5.4-5.2 8.1-2 3.2-4.1 6.3-6.1 9.5-2.4 3.8-4.9 7.5-7.3 11.3-1.7 2.5-3.3 5.1-5 7.6-1.2 1.7-2.5 3.3-3.7 4.9-.3.4-.7.8-1 1.1-1 .8-2 1.5-3.1 2.2-2.8 1.7-5.4 3.6-8 5.7.9 1.2 1.9 2.2 2.9 3.2 1 1.1 1.8 2.4 3 3.3.7-1.8 1.6-3.4 2.7-4.8 1.5-2 3-4.1 4.3-6.2 1.1-1.6 1.7-3.6 3.3-4.9.1-.1.1-.2.2-.3 1.4-2.5 2.9-4.9 4.3-7.4.8-1.4 1.8-2.8 2.6-4.2 1.7-3 3.4-6 5.3-9 .9-1.3 1.7-2.7 2.6-4 1.5-2.4 2.9-4.8 4.3-7.3 2.1-3.5 4.1-7.1 6.1-10.6.1-.8.3-1.4.5-1.9 0-.1.1-.1.2-.2-.1 0-.1-.1-.2-.1v.3zM63 105.4c.1-.1.1-.2.2-.3 0 0-.1-.1-.1-.2v.2c-.1.1-.1.2-.1.3-.1.2-.1.4-.2.6-.9 1.6-1.8 3.3-2.7 4.9-.1.1-.2.3-.3.4-.3.2-.4.6-.6.9-.5 1-.9 2.1-2 2.7-.1.1-.2.3-.2.4.1.4-.1.7-.3 1-.2.2-.5.5-.5.8-.3 1.2-.9 2.1-1.5 3.1-.8 1.3-1.6 2.5-2.3 3.8-.7 1.3-1.4 2.8-2.5 3.9-.1.1-.2.3-.3.4-.2 1-.9 1.7-1.3 2.6l-2.1 3.6c-.1.2-.1.4-.2.8 1.8-1.6 2.8-3.4 4.2-4.8.1-.1.1-.3.2-.5.3-.5.6-1 1-1.3.8-.7 1.3-1.5 1.9-2.3.5-.7.9-1.4 1.6-1.8.1-.1.3-.2.3-.4.1-.8.6-1.4 1.3-1.8.2-.1.3-.3.4-.5.4-.9 1.1-1.6 1.8-2.1 1.4-1.1 2.3-2.7 3.5-4 .5-.5.9-1.1 1.3-1.7.2-.3.5-.5.7-.7.9-1.1 1.7-2.2 2.5-3.2 1.2-1.5 2.7-2.8 3.8-4.3 1.2-1.7 2.5-3.4 3.7-5 .3-.4.6-.9.9-1.4.5-.8 1-1.6 1.6-2.3.6-.8 1.3-1.4 1.9-2.2.6-.8 1.1-1.8 1.7-2.6.7-.9 1.1-1.9 1.7-2.8 1.9-2.5 3.2-5.3 4.7-8 .8-1.4 1.4-2.9 2-4.3.1-.3.3-.6.6-.7.5-.3.5-.7.5-1.1-.1-.8-.3-1.6-.4-2.5-.4-2.5-.3-5.1-.5-7.6-.1-1.2-.2-2.3-.3-3.5l-.1-.1c-.3 0-.4.3-.6.5-.6.9-1.2 1.7-1.8 2.6-2.1 3.6-4.1 7.2-5.9 10.9-.7 1.4-1.4 2.9-2.2 4.3-1.1 2-2.1 4-3.2 6-.6 1.1-1.2 2.1-1.8 3.1-.9 1.5-1.6 3.1-2.8 4.5-.2.2-.3.6-.4.9-.5 1-1.1 1.8-1.8 2.7-.7.9-1.9 1.7-1.6 3.1-.3.5-.5 1-.8 1.5-.2.3-.3.6-.6.8-.2.1-.6.1-1 .1.5.8.3 1.4-.3 2-.3.1-.5.4-.7.6zm21.7-60.9c.1.7 0 1.1-.4 1.6-.3.3-.4.8-.6 1.2-1.3 3-2.7 5.9-4.4 8.7-1.1 1.8-2.1 3.6-3.2 5.4-.8 1.4-1.7 2.7-2.5 4.1-.7 1.2-1.3 2.6-2 3.8-2.1 3.6-4.2 7.3-6.4 10.9-1.5 2.5-2.9 5.1-4.4 7.6-1.5 2.6-2.9 5.2-4.4 7.8l-4.2 6.9c-1.1 1.7-2.3 3.4-3.4 5.1-1.5 2.4-3.1 4.7-4.6 7.1-2.2 3.7-4.3 7.5-6.5 11.2-.1.2-.3.5-.1.8h.1c1.9-1.1 3.6-2.3 4.9-4.1.7-1 1.7-1.8 2.3-3 .9-.5 1.2-1.5 1.9-2.3.5-.5 1-1.1 1.3-1.7 1.4-2.5 3.1-4.9 4.8-7.3.8-1.2 1.7-2.4 2.5-3.7 1-1.7 2-3.4 3.3-4.9.6-.7 1.2-1.6 1.6-2.5.5-1 1-1.9 1.7-2.8.5-.6.9-1.4 1.4-2.1.3-.5.7-1 1-1.5.3-.5.7-1 1-1.5.2-.3.3-.6.5-.8.6-1 1.3-1.9 1.9-2.8.5-.8.9-1.7 1.5-2.6 1.9-2.7 3.7-5.5 5.6-8.2 1.1-1.6 2.2-3.3 3.4-4.9.6-.9 1.3-1.8 1.9-2.7 1.5-2.2 2.8-4.6 4.4-6.7.9-1.2 1.6-2.5 3.3-2.9 0-1.1-.1-2.1 0-3.2.1-1.8.2-3.5 0-5.3-.2-1.4-.3-2.7-.5-4.1 0-.4-.2-.7-.4-1.1-.7.1-1.4.3-2.3.5zm-13.2 85.7c-.1-.1-.2-.1-.3-.2-.1.1-.2.3-.3.4-2.1 2.7-4.3 5.3-6.4 8-1 1.3-2 2.5-3 3.7-1.4 1.7-2.8 3.3-4.2 4.9l-3 3.3c-1.1 1.2-2.4 2.3-3.8 3.2-.3.2-.6.4-.9.3-1-.2-2.1-.5-2.7-1.5-.7-1.3-1.1-2.7-.4-4.1.4-.8.8-1.6 1.3-2.3.8-1.3 1.7-2.6 2.6-3.8.9-1.2 1.7-2.5 2.6-3.6.6-.8 1.2-1.5 1.7-2.4.5-.9 1.1-1.8 2-2.4.1-.1.3-.2.3-.4 0-.8.7-1.1 1-1.7.4-.9.9-1.8 1.6-2.4.6-.6 1.1-1.3 1.4-2 .3-.6.5-1.2 1.1-1.7.3-.3.5-.8.5-1.2 0-.5.3-.9.6-1.1.6-.4.9-1.1 1.2-1.7.4-.8.4-2 1.6-2.4.1 0 .1-.2.2-.3.2-.9 1.3-1.4 1.2-2.5 0-.1.2-.2.3-.3.2-.2.5-.4.5-.6.1-.6.5-1.1 1-1.5.2-.2.3-.6.4-.9.2-.6.3-1.3 1-1.6.2-.1.8-1.6 1-2.4-.8 1.1-1.8 1.6-2.4 2.6-.6 1.1-1.6 2-2.4 3-3.1 3.8-6.2 7.7-9.2 11.5-1.3 1.6-2.4 3.4-3.7 5.1-1.4 1.8-2.7 3.7-4.2 5.3-2.2 2.5-4.6 4.8-7 7-.6.6-1.3 1-2.2 1-.1 0-.2.2-.4.4 1 1.4 1.9 2.9 2.9 4.2 1.1 1.4 2.3 2.7 3.4 4.1l7.8 9c.7.8 1.4 1.5 2.1 2.2 1-.3 1.5-1 2.1-1.7.2-.3.4-.7.7-.9 1.1-.8 1.9-1.8 2.8-2.8 1.2-1.3 2.4-2.6 3.8-3.7 2.2-1.7 4.4-3.3 6.3-5.3l2.8-2.8c-.8-.2-1.5-.5-1.9-1-.2-.7-.3-1.3.2-1.9.8-1 1.5-2 2.3-3 1.1-1.4 2.2-2.7 3.4-4.1.1-.1.1-.3 0-.3-.1-.1-.3-.2-.4-.2-.4 0-.7.2-.8.5-.1.4-.4.6-.7.9-.8.9-1.9 1.7-2.4 2.9 0 .1-.3.2-.4.3-.3.8-1.3 1.2-1.4 2.2-.1 1.3-.8 2.1-2.1 2.3-.3.9-.5 1.6-1.4 2.1-.4.2-.8.7-.9 1.1-.1.7-.6 1.2-1 1.6-.5.6-1.1 1.3-1.6 1.9-1 1.3-2.1 2.6-3.1 3.8-1.5.1-2.7.5-3.8 1.4-.8.6-1.6.5-2.3.1-.3-.1-.6-.3-.8-.5-.9-.7-1-1.9-.3-2.8 1.8-2 3.2-4.2 4.9-6.2 1.2-1.5 2.5-3.1 3.5-4.8.3-.5.5-1 .8-1.4.6-1 1.3-1.9 1.9-2.9 1.5-2.6 2.9-5.2 4.3-7.8.2-.2.4-.7.7-1.2zm18.8-47.1c-.3.4-.5.7-.7 1.1-.5.9-1 1.9-1.6 2.7-1 1.6-2 3.3-2.8 5-.5 1.1-1.1 2.2-1.7 3.2-1.1 2.1-2.3 4.1-3.5 6.2-.4.8-.7 1.6-1.4 2.2-.1.1-.1.3-.2.4-.2.4-.4.9-.6 1.3l-3.3 5.4c-.8 1.2-1.5 2.4-2.3 3.7-1.4 2.3-2.8 4.5-4.1 6.8-1 1.7-2.1 3.2-3 4.9-.8 1.5-1.7 3-2.7 4.4-.6.9-1.4 1.7-1.8 2.7-.1.2-.3.5-.5.7-.6.6-1 1.2-1.3 1.9-.1.2-.3.5-.4.7-1.2 1.8-2.5 3.6-3.7 5.4-.9 1.4-1.8 2.7-2.7 4.1-.3.5-.6 1-.8 1.4-.1.2-.3.5 0 .8.5-.5 1.1-.9 1.6-1.4 2.4-2.4 4.6-4.9 6.7-7.6.8-1 1.5-2.2 2.7-2.9.9-1.4 2-2.7 2.9-4 .9-1.3 2.2-2.3 2.9-3.7l.1-.1c.9-.4.9-1.4 1.7-1.9.4-1.2 1.4-2 2.1-2.9 1.5-1.8 3-3.6 4-5.8.1-.2.3-.3.4-.5.2-.2.4-.3.6-.6.8-1.2 1.5-2.4 2.3-3.5.8-1 1.1-2.4 2.1-3.3 0-1 .8-1.6 1.3-2.4.4-.8.9-1.5 1.4-2.3.1-.2.3-.5.4-.7.3-1.2 1-2.2 1.7-3.2.4-.7.7-1.4 1-2.1.3-.5.5-1.1.8-1.6.3-.5.7-.7 1.2-.7.4 0 .8.1 1.3.2V95c.1-3.5.2-7 .3-10.4 0-.4.1-.9-.4-1.5zm-26.8 67.1c.7-.8 1.3-1.3 1.9-2 1.2-1.3 2.3-2.7 3.5-4l2.1-2.4c.1-.1.4-.2.4-.3.3-1.1 1.2-1.7 1.8-2.6l7.8-10.5c.8-1 1.5-2 2.3-3 .8-1.1 1.5-2.2 2.3-3.2.7-1 1.6-2 2.2-3.1.7-1.1 1.7-2 2.2-3.2.3-.7.9-1.3 1.3-1.9l3.6-6.3c.4-.7.8-1.5 1.1-2.2.1-.3.1-.6.2-.9-.6-.6-1.3-.5-2-.7-.7-.2-1.4-.2-2.1-.5-.6-.3-1.1-.8-1.6-1.3-1.2 2.3-2.2 4.7-3.6 6.9-1 1.6-1.8 3.4-2.8 5.1-1.1 1.9-2.2 3.7-3.3 5.6-1.6 2.9-3.2 5.9-4.8 8.9-.2.3-.3.7-.6 1-.3.3-.8.4-1 .5-.3.6-.6 1.1-.9 1.5-.2.4-.5.7-.7 1.1-.8 2.1-2.1 3.9-3.1 5.8-.4.6-.7 1.2-.6 2 .1.4-.1.8-.4 1-1.1.6-1.6 1.7-2.1 2.7-.8 1.3-1.8 2.5-2.5 3.8-.1.1-.1.2-.2.2-.7.5-.6 1.2-.4 2zm-27-28.8c-.1-.1-.1-.2-.1-.2h-.2c-1.4 1.5-2.7 3.1-4.1 4.6-.3.3-.5.6-.7.9-.5.8-.9 1-1.7.8-1.5-.3-2.4-1.6-2-3.1.1-.3.2-.5.3-.8.6-1.3 1.2-2.6 1.9-3.8 1.5-2.9 3.1-5.7 4.7-8.6 1-1.8 2.1-3.5 3.1-5.2.4-.7.9-1.4.8-2.3-.6 0-1.2.1-1.7.1-1.8 2.7-3.5 5.4-5.2 8-.8 1.3-1.6 2.6-2.5 3.9-1 1.6-2 3.3-3.1 4.9-.8 1.2-1.8 2.2-2.6 3.3.1.2.1.3.2.4 1.7 2.3 3.4 4.5 5.1 6.8.2.2.5.4.8.7 1.1-1 1.8-2.3 2.6-3.5.8-1.2 1.5-2.4 2.2-3.7.8-1 1.5-2.1 2.2-3.2zm48 11.6c.8-.3.7-.7.9-1.1.2-.4.6-.6.8-1 1.3-1.6 2.3-3.4 3.9-4.6.1-.1.3-.2.3-.4.3-.9 1-1.5 1.7-2.2.1-.1.2-.3.3-.4.6-.9 1.2-1.7 1.8-2.6.2-.3.5-.5.6-.8.5-1.6 2.1-2.4 2.5-4 1.3-1.3 2.1-2.9 3.1-4.4 1.1-1.7 2.1-3.4 3.1-5.1.2-.4.4-.9.7-1.4-1.3-.4-2.5 0-3.7-.2-.2.3-.4.5-.5.7-.7 1.1-1.3 2.3-2 3.5-1.4 2.3-2.7 4.5-4.1 6.8-.4.7-.9 1.3-1.2 1.9-.8 1.5-1.6 3-2.3 4.5-.4.8-1 1.6-1.3 2.5-.3.7-.5 1.4-1.2 1.9-.2.2-.4.5-.5.8-.9 1.9-1.8 3.6-2.9 5.6zM6.6 105.6c1.7 2.4 4.9 5.6 6.5 6.4.3-.4.5-.8.9-1.2.5-.6 1.1-1.1 1.6-1.7.4-.5.8-1.1 1.3-1.5.6-.7 1.7-.7 2.4-.2.3.3.7.5 1 .8.3-.3.6-.6.9-.8.3-.3.5-.7.8-1 1-1.2 1.9-1.3 3-.1.2.2.4.5.6.8.4-.5.7-.8 1-1.2.7-.9 1.2-1 2.2-.5.5.2.9.6 1.3 1 .2.2.5.4.8.7.7-.9 1.3-1.8 1.8-2.7.1-.1 0-.3 0-.5H32c-2.5.4-4.9.8-7.4 1.2-.4.1-.8.1-1.2.1-1.8-.1-3.5-.2-5.3-.3-1.6-.1-3.2-.2-4.8 0-1.9.2-3.7.4-5.6.6-.3-.1-.7.1-1.1.1zm72.3 37.5c.1.1.1.2.2.2.2-.1.4-.3.6-.4.8-.7 1.7-1.4 2.5-2.1 1.8-1.4 3.6-2.8 5.3-4.2 1-.8 2-1.5 2.7-2.6-.4-.9-.3-1.7.2-2.5.6-1 1.2-2 1.9-2.9.5-.6 1.1-1.3 1.4-2.2-.5.4-.9.7-1.3.9-.7.4-1.4.7-1.3 1.7 0 .2-.2.4-.4.5-.4.4-.8.8-1.2 1.1-.5.4-1 .7-1.1 1.4 0 .2-.2.4-.4.5-.9.5-1.4 1.4-1.9 2.2-1.2 1.8-2.5 3.4-4.2 4.8-.3.2-.5.4-.7.7-.5.9-1.3 1.6-2.1 2.3.1.1 0 .4-.2.6zm-30-57.9c-.1 0-.2-.1-.2-.1-.4.6-.9 1.3-1.3 1.9-1.1 1.8-2.3 3.7-3.4 5.5-.7 1-1.4 1.9-2.6 2.5-.3.2-.6.4-.9.7-.3.4-.6.8-1 1.1-.3.3-.8.6-1.2.8.1.6.1 1.1.3 1.5.4.7 1 1.3 1.6 2.1.4-.7.8-1.2 1.1-1.7 2.7-4.1 4.7-8.5 7-12.8l.6-1.5zm-34.1 28.6c.2.3.3.5.4.7.8 1 1.7 2 2.6 3 .7.8 1.4 1.7 2.1 2.5.2.2.4.2.8.4v-1.6c-.3-.1-.5-.2-.8-.3-.3-.1-.5-.2-.8-.3-.7-.5-1.2-1-.7-2.1.2-.4.6-.9.3-1.4-.8-.3-1.6-.6-2.5-.9h-1.4zm103.6-9.2c-1.2-.1-2.3-.3-3.6 0 .6.9 1.7 1.3 1.7 2.6-.3.5-.6 1.1-.9 1.8-.1.2-.1.4-.2.8 1.6-1.5 2.7-3.1 3-5.2zm3.1 3.7c.5-.2.7-.2.8-.3.9-.7 1.8-1.4 2.7-2.2.1-.1.2-.3.3-.5-1.3-.5-2.5-.4-3.8-.6.2 1 1.3 1.4 1 2.5-.2.2-.5.5-1 1.1zm-11-3.3c-.6 1.2-1.2 2.5-1.8 3.7 0 .1.1.2.1.4l3.6-4.2c-.6-.1-1.2-.1-1.9.1zm-30.3 29.2c1.1-1.1 1.4-1.6 1.9-2.8-.8.9-1.4 1.6-2.1 2.4 0 .1.1.3.2.4zm1.9-37.9s-.1 0-.1.1l.1.1c.1 0 .1-.1.1-.1 0-.1 0-.1-.1-.1zm-20.3 54.9s-.1 0-.1.1v.2c.1 0 .1-.1.2-.1 0-.1-.1-.2-.1-.2zm17.9-15.6v-.1h-.1v.2c0-.1.1-.1.1-.1zM62 79.6s0 .1.1.1l.1-.1c0-.1-.1-.1-.1-.1-.1 0-.1 0-.1.1z" fill-rule="evenodd" clip-rule="evenodd" fill="#8dc9ef"/></svg>