<svg version="1.1" id="Layer_1" xmlns="http://www.w3.org/2000/svg" x="0" y="0" viewBox="0 0 160.4 119.6" xml:space="preserve"><style>.st170{fill-rule:evenodd;clip-rule:evenodd}.st172{fill:#5ec0cc}</style><path class="st170" d="M74.4 91.6H86v4H74.4v-4zM39.7 119.6c.3-2.7 3.5-6.5 5.7-6.5H52c1.4 0 2.1-.7 2.4-1.9l1.5-5.3h48.6l1.5 5.3c.3 1.2 1 1.9 2.4 1.9h6.6c2.2 0 5.4 3.9 5.7 6.5h-81z"/><path d="M146.8 0H0v101.8h160.4V0h-13.6zm.1 85.6H13.5V12h133.4v73.6z" fill-rule="evenodd" clip-rule="evenodd" fill="#5ec0cc"/><path class="st172" d="M55.5 43.5c0 .7-.1 1.4-.4 2.1s-.7 1.2-1.1 1.7c-.5.5-1.1.9-1.7 1.2-.7.3-1.4.4-2.1.4-.6 0-1.3-.1-2-.3-.7-.2-1.3-.5-1.8-.9s-1-1-1.3-1.7c-.3-.7-.5-1.6-.5-2.7v-13c0-.8.1-1.5.4-2.2.3-.7.6-1.2 1.1-1.7s1.1-.9 1.7-1.1c.7-.3 1.4-.4 2.2-.4.8 0 1.5.1 2.2.4.7.3 1.2.7 1.7 1.2s.9 1.1 1.1 1.8.4 1.5.4 2.3V32H52v-1.1c0-.7-.2-1.2-.6-1.7-.4-.5-.9-.7-1.5-.7-.8 0-1.4.3-1.7.8-.3.5-.4 1.2-.4 2v12.1c0 .7.1 1.3.4 1.7.3.5.8.7 1.6.7.2 0 .5 0 .7-.1s.5-.2.7-.4.4-.4.5-.7c.1-.3.2-.7.2-1.2v-1.2h3.4v1.3zM61 25.2h2.8L69 48.8h-3.4l-1-5.1H60l-1 5.1h-3.4L61 25.2zm1.4 6.8l-1.7 8.5H64L62.4 32zM69.6 25.2h3.2l5.1 14.2h.1V25.2h3.4v23.6h-3.2L73 34.6h-.1v14.2h-3.4V25.2zM102.6 48.8h-3.2l-2.6-15.3h-.1l-2.5 15.3H91l-3.5-23.6h3.6l1.7 15h.1l2.6-15h2.6l2.7 15.3h.1l1.6-15.3h3.6l-3.5 23.6zM107.2 25.2h10.1v3.2h-6.7v6.9h5.8v3.2h-5.8v6.9h6.7v3.4h-10.1V25.2zM38.1 57.1h-3.4v-.8c0-.8-.2-1.4-.5-2-.4-.6-1-.8-1.8-.8-.5 0-.8.1-1.1.3-.3.2-.5.4-.7.7-.2.3-.3.6-.3 1-.1.4-.1.7-.1 1.1v1.2c0 .3.1.6.2.8.1.2.3.4.6.6.3.2.6.4 1 .5l2.6 1c.8.3 1.4.6 1.8 1 .5.4.8.8 1.1 1.4.3.5.4 1.1.5 1.8.1.7.1 1.4.1 2.3 0 1-.1 1.9-.3 2.8-.2.8-.5 1.6-1 2.2-.5.6-1.1 1.1-1.8 1.4-.8.4-1.7.5-2.7.5-.8 0-1.6-.1-2.3-.4-.7-.3-1.3-.7-1.8-1.2s-.9-1.1-1.2-1.8c-.3-.7-.4-1.4-.4-2.2v-1.3H30v1.1c0 .6.2 1.2.5 1.7.4.5 1 .7 1.8.7.6 0 1-.1 1.3-.2.3-.2.6-.4.7-.7.2-.3.3-.7.3-1.1 0-.4.1-.9.1-1.5s0-1.1-.1-1.5c0-.4-.1-.7-.3-1-.1-.2-.3-.4-.6-.6-.3-.2-.6-.3-1-.5l-2.4-1c-1.5-.6-2.4-1.4-2.9-2.4s-.7-2.2-.7-3.7c0-.9.1-1.7.4-2.5.2-.8.6-1.5 1.1-2.1s1.1-1 1.8-1.4 1.6-.5 2.5-.5c.8 0 1.6.2 2.3.5.7.3 1.3.7 1.8 1.2s.9 1.1 1.1 1.7c.3.6.4 1.3.4 1.9v1.8zM39.6 50.4h10.1v3.2H43v6.9h5.8v3.2H43v6.9h6.7V74H39.6V50.4zM50.9 50.4h5.4c4 0 6 2.3 6 6.9 0 1.4-.2 2.5-.6 3.5-.4 1-1.2 1.8-2.3 2.4L63 73.9h-3.6l-3.1-10.1h-2v10.1h-3.4V50.4zm3.3 10.5h1.9c.6 0 1.1-.1 1.4-.2.4-.2.6-.4.8-.7.2-.3.3-.7.4-1.1.1-.5.1-1 .1-1.6s0-1.1-.1-1.6-.2-.8-.4-1.2c-.2-.3-.5-.6-.9-.7-.4-.2-.9-.2-1.5-.2h-1.8v7.3zM70.6 73.9h-3l-4.8-23.6h3.6l2.7 16.5h.1l2.7-16.5h3.6l-4.9 23.6zM76.5 50.4h10.1v3.2h-6.7v6.9h5.8v3.2h-5.8v6.9h6.7V74H76.5V50.4zM96 64l-4.6-13.6H95l2.7 9.4h.1l2.7-9.4h3.6L99.4 64v10H96V64zM104.5 55.9c0-.9.2-1.8.5-2.5s.8-1.3 1.3-1.8 1.1-.8 1.8-1.1c.7-.2 1.4-.4 2-.4.7 0 1.4.1 2 .4.7.2 1.3.6 1.8 1.1s1 1.1 1.3 1.8c.3.7.5 1.6.5 2.5v12.4c0 1-.2 1.8-.5 2.5s-.8 1.3-1.3 1.8-1.1.8-1.8 1.1c-.7.2-1.4.4-2 .4-.7 0-1.4-.1-2-.4-.7-.2-1.3-.6-1.8-1.1s-1-1.1-1.3-1.8c-.3-.7-.5-1.6-.5-2.5V55.9zm3.4 12.5c0 .8.2 1.4.7 1.8.5.4 1 .6 1.6.6.6 0 1.2-.2 1.6-.6.5-.4.7-1 .7-1.8V55.9c0-.8-.2-1.4-.7-1.8-.5-.4-1-.6-1.6-.6-.6 0-1.2.2-1.6.6-.5.4-.7 1-.7 1.8v12.5zM128.8 68.6c0 .8-.1 1.5-.4 2.2-.3.7-.7 1.2-1.2 1.7s-1.1.9-1.7 1.2c-.7.3-1.4.4-2.1.4-.8 0-1.5-.1-2.1-.4-.7-.3-1.2-.7-1.7-1.2s-.9-1.1-1.2-1.7c-.3-.7-.4-1.4-.4-2.2V50.4h3.4v17.9c0 .8.2 1.5.6 1.9.4.4.9.6 1.5.6s1.1-.2 1.5-.6c.4-.4.6-1 .6-1.9V50.4h3.4v18.2zM130.4 55.2c0-.7.1-1.3.4-2 .3-.6.6-1.2 1.1-1.6.5-.5 1-.8 1.6-1.1.6-.3 1.3-.4 2-.4.8 0 1.6.2 2.2.5.7.3 1.2.8 1.7 1.4.2.3.4.6.5.9s.3.5.3.8c.1.3.1.6.2 1v2.7c0 .4 0 .7-.1 1 0 .3-.1.5-.2.7l-.3.6-2.3 3.9c-.2.3-.3.5-.4.8-.1.3-.2.6-.2.9v2.6h-3.4V65c0-.5.1-.9.2-1.4.2-.4.4-.9.6-1.3l2.1-3.4c.2-.3.3-.6.3-.9.1-.3.1-.7.1-1v-1.8c0-.5-.2-.9-.5-1.2-.3-.3-.7-.5-1.2-.5-.4 0-.8.1-1.2.4-.4.3-.6.7-.6 1.3v1.9h-3.4v-1.9zm3.4 15.3h3.4v3.4h-3.4v-3.4z"/><path fill-rule="evenodd" clip-rule="evenodd" fill="none" stroke="#221e20" stroke-width="2" stroke-miterlimit="10" d="M13.5 12h133.4v73.7H13.5z"/></svg>