<svg version="1.1" id="Layer_1" xmlns="http://www.w3.org/2000/svg" x="0" y="0" viewBox="0 0 252.3 68.8" xml:space="preserve"><style>.st26{fill:#fff}.st141{fill:#2d5166}</style><path class="st141" d="M0 37.4h251.3v31.4H0zM0 0h251.3v31.4H0z"/><path class="st26" d="M51.7 5.5h4.9l2.1 14.3h.1l1.5-14.3h5.2L62 26.2h-5.9l-1.8-13.9h-.1l-1.8 13.9h-5.9L42.8 5.5H48l1.6 14.3h.1l2-14.3zM66.7 5.5H79v4.4h-6.9v3.5h6.4v4.2h-6.4v4.1h7.1v4.4H66.7V5.5zM91.1 5.5h6.8l5.1 20.7h-5.8l-.6-3.6h-4.3l-.6 3.6H86l5.1-20.7zm3.4 4.2L93 18.5h3l-1.5-8.8zM103.8 5.5h8.5c4.1 0 5.7 2.3 5.7 5.5 0 2.8-1.1 4.6-3.5 4.9v.1c2.6.2 3.4 1.9 3.4 4.6v1.8c0 1.1 0 2.5.3 2.9.1.2.3.5.6.6v.3h-5.7c-.5-1.1-.5-3.1-.5-3.9v-1.4c0-2.4-.5-3-1.8-3h-1.4v8.3H104V5.5zm5.4 8.8h1.1c1.5 0 2.3-1 2.3-2.5 0-1.7-.7-2.4-2.3-2.4h-1v4.9zM120.5 5.5h12.3v4.4h-6.9v3.5h6.4v4.2h-6.4v4.1h7.1v4.4h-12.5V5.5zM142.5 5.5h5.4v7.6h3.3V5.5h5.4v20.7h-5.4v-8.5h-3.3v8.5h-5.4V5.5zM159.2 5.5h12.3v4.4h-6.9v3.5h6.4v4.2h-6.4v4.1h7.1v4.4h-12.5V5.5zM173.7 5.5h8.5c4.1 0 5.7 2.3 5.7 5.5 0 2.8-1.1 4.6-3.5 4.9v.1c2.6.2 3.4 1.9 3.4 4.6v1.8c0 1.1 0 2.5.3 2.9.1.2.3.5.6.6v.3H183c-.5-1.1-.5-3.1-.5-3.9v-1.4c0-2.4-.5-3-1.8-3h-1.4v8.3h-5.4V5.5zm5.4 8.8h1.1c1.5 0 2.3-1 2.3-2.5 0-1.7-.7-2.4-2.3-2.4h-1v4.9zM190.4 5.5h12.3v4.4h-6.9v3.5h6.4v4.2h-6.4v4.1h7.1v4.4h-12.5V5.5zM205.7 12.4V5.5h5.1v6.9l-.6 7.8h-3.9l-.6-7.8zm.1 9.2h4.9v4.6h-4.9v-4.6z"/><g><path class="st26" d="M57.7 50.2c-.1-3.4-2.7-5.1-6.4-5.1-2.2 0-5.4.9-5.4 4.2 0 3.2 3.4 3.7 6.7 4.4 3.4.7 6.8 1.6 6.8 5.5 0 4.1-3.9 5.6-7 5.6-4.6 0-8.4-1.9-8.4-7h1.2c-.2 4.3 3.2 6 7.1 6 2.4 0 5.7-1.1 5.7-4.5s-3.4-3.9-6.8-4.6c-3.4-.7-6.7-1.5-6.7-5.3s3.5-5.3 6.7-5.3c4.1 0 7.4 1.8 7.6 6.1h-1.1zM62.3 44.6h8.4c2.2 0 5.8.8 5.8 5.6 0 3.5-2.3 5.4-6.2 5.4h-6.8v8.8h-1.2V44.6zm1.2 9.9h7c3.6 0 4.8-2.4 4.8-4.4 0-1.5-.7-4.5-4.6-4.5h-7.1v8.9zM92.1 63.3v1.1H78.7V44.6H92v1.1H79.9v7.9h11.4v1.1H79.9v8.7h12.2zM101.4 44.6l7.8 19.8H108l-2.5-6.4H96l-2.5 6.4h-1.3l8-19.8h1.2zm3.7 12.4l-4.2-11.2h-.1L96.4 57h8.7zM110.7 44.6h1.2V56l12.5-11.4h1.6l-9.1 8.2 9.6 11.6H125l-9-10.7-4.1 3.7v7h-1.2V44.6zM133.3 45.6v-1.1h15.2v1.1h-7v18.8h-1.2V45.6h-7zM158.4 64.9c-5.9 0-9.4-4.6-9.4-10.4 0-5.8 3.5-10.4 9.4-10.4s9.4 4.6 9.4 10.4c0 5.8-3.5 10.4-9.4 10.4zm0-1.1c5.2 0 8.2-4.2 8.2-9.3s-3-9.3-8.2-9.3c-5.2 0-8.2 4.2-8.2 9.3s3 9.3 8.2 9.3zM179.4 44.6v11.9c0 2.4.5 7.4 6.2 7.4 4.9 0 6.5-2.9 6.5-7.4V44.6h1.2v11.9c0 4.7-1.8 8.4-7.7 8.4-7.1 0-7.4-5.8-7.4-8.4V44.6h1.2zM209.7 50.2c-.1-3.4-2.7-5.1-6.4-5.1-2.2 0-5.4.9-5.4 4.2 0 3.2 3.4 3.7 6.7 4.4 3.4.7 6.8 1.6 6.8 5.5 0 4.1-3.9 5.6-7 5.6-4.6 0-8.4-1.9-8.4-7h1.2c-.2 4.3 3.2 6 7.1 6 2.4 0 5.7-1.1 5.7-4.5s-3.4-3.9-6.8-4.6c-3.4-.7-6.7-1.5-6.7-5.3s3.5-5.3 6.7-5.3c4.1 0 7.4 1.8 7.6 6.1h-1.1z"/></g><path class="st26" d="M.1 7.2h31.6v7.2H.1zM.1 16.9h31.6v7.2H.1zM220.7 7.2h31.6v7.2h-31.6zM220.7 16.9h31.6v7.2h-31.6zM246.4 50.9c0 5.1-3.2 9.8-9.5 13.9-.1.1-.2.1-.3.1-.1 0-.3 0-.4-.1l-3.3-2.7c-.1-.1-.2-.3-.2-.4 0-.2.1-.3.2-.5 2.2-2.2 3.5-4.2 3.9-6h-5.6c-.3 0-.6-.3-.6-.6V42.8c0-.3.3-.6.6-.6h14.7c.3 0 .6.3.6.6v8.1zM8.9 50.9c0 5.1 3.2 9.8 9.5 13.9.1.1.2.1.3.1.1 0 .3 0 .4-.1l3.3-2.7c.1-.1.2-.3.2-.4 0-.2-.1-.3-.2-.5-2.2-2.2-3.5-4.2-3.9-6h5.6c.3 0 .6-.3.6-.6V42.8c0-.3-.3-.6-.6-.6H9.5c-.3 0-.6.3-.6.6v8.1z"/></svg>