<svg version="1.1" id="Layer_1" xmlns="http://www.w3.org/2000/svg" x="0" y="0" viewBox="0 0 133.7 133.5" xml:space="preserve"><style>.st26{fill:#fff}.st109{fill:#61bfbc}.st111{fill:#e6247a}</style><path class="st26" d="M30 94.1c1.6 1.7 2.3 4 2.1 6.3l-1.9 21.5M64.7 77.6c-13.4 0-24.9-18.9-28.9-36.6-3.3-14.7-1-25.4 6.1-28.8.4-.2.9-.3 1.4-.3.4 0 .8.1 1.1.2.8.3 1.5.9 1.8 1.7L52.9 30c.2.6.3 1.2.2 1.9-2.2 10.9 1.1 18.8 9.7 23.5.6.3 1.1.9 1.4 1.6l6.7 15.9c.3.8.3 1.8-.1 2.6s-1.1 1.4-2 1.7c-1.3.2-2.7.4-4.1.4zm-22.6-57c-1.9 3.8-2 10.8-.1 19 3.3 14.5 12.2 30.1 21.3 31.5l-4.5-10.8c-10.2-6-14.3-16-12.1-28.8l-4.6-10.9z"/><path class="st26" d="M65.9 81.1c0 2-.8 3.8-2.2 5.2-1.4 1.4-3.2 2.2-5.2 2.2h-36c-2 0-3.8-.8-5.2-2.1-1.4-1.4-2.1-3.2-2.1-5.2V7.7c0-2.1.8-4 2.3-5.5C18.9.8 20.8 0 22.9 0h103.4c4.1 0 7.4 3.3 7.4 7.4v83c0 4.1-3.3 7.4-7.4 7.4h-63c-.6 0-1.2.1-1.8.4-.6.2-1.1.6-1.5 1l-33.4 33.4c-.6.6-1.4.9-2.2.9-.5 0-.9-.1-1.3-.3-1.2-.6-1.9-1.8-1.8-3.1L24 99.9c0-.6-.1-1.1-.5-1.5"/><path class="st109" d="M64.7 76.2c-12.7 0-23.6-18.3-27.5-35.5-3.1-14-1.2-24.2 5.3-27.2.4-.2.9-.2 1.4-.1.4.2.8.5 1 1l6.7 16.1c.1.3.2.7.1 1-2.3 11.6 1.2 20 10.4 25 .3.2.6.5.8.9l6.7 15.9c.2.5.2 1 0 1.4-.2.5-.6.8-1.1.9-1.3.4-2.5.6-3.8.6zM42.5 17.8C39 21.1 38.3 29.5 40.6 40c3.7 16.5 14.1 33.6 24.9 32.7l-5.6-13.3c-10-5.7-14.1-15.4-11.7-28l-5.7-13.6z"/><path class="st26" d="M54.1 29.1c-.3 0-.7 0-1-.1-1.1-.3-2-1.1-2.4-2.1l-4.5-10.7c-.4-1-.4-2.1.1-3.1s1.4-1.7 2.5-1.9l1.9-.4c.3-.1.5-.1.8-.1 1.5 0 2.8.9 3.4 2.3L59 23c.7 1.6.1 3.4-1.3 4.4l-1.5 1.1c-.6.3-1.4.6-2.1.6z"/><path class="st109" d="M57.7 23.4l-4.1-10c-.4-.9-1.2-1.4-2.1-1.4-.2 0-.3 0-.5.1l-1.9.4c-.7.1-1.2.6-1.5 1.2-.3.6-.3 1.3-.1 1.9L52 26.3c.3.6.8 1.1 1.5 1.3.2.1.4.1.6.1.5 0 .9-.1 1.3-.4l1.5-1.1c.9-.7 1.2-1.8.8-2.8zm-3.6 2l-4.5-10.7 1.9-.4 4.1 10-1.5 1.1z"/><path class="st26" d="M72.9 72.5c-.3 0-.7 0-1-.1-1.1-.3-2-1.1-2.4-2.1L65 59.5c-.4-1-.4-2.1.1-3.1s1.4-1.7 2.5-1.9l1.9-.4c.2-.1.5-.1.8-.1 1.5 0 2.8.9 3.4 2.3l4.1 10c.7 1.6.1 3.4-1.3 4.4L75 71.8c-.6.4-1.4.7-2.1.7z"/><path class="st109" d="M76.5 66.8l-4.1-10c-.4-.9-1.2-1.4-2.1-1.4-.2 0-.3 0-.5.1l-1.9.4c-.7.1-1.2.6-1.5 1.2-.3.6-.3 1.3-.1 1.9l4.5 10.7c.3.6.8 1.1 1.5 1.3.2.1.4.1.6.1.5 0 .9-.1 1.3-.4l1.5-1.1c.9-.7 1.2-1.8.8-2.8zm-3.6 2l-4.5-10.7 1.9-.4 4.1 10-1.5 1.1z"/><path d="M59.1 92.3c1.3-.6 2.8-.8 4.2-.8h63c.6 0 1-.5 1-1v-83c0-.6-.5-1-1-1H22.9c-.4 0-.7.1-1 .4-.3.3-.4.6-.4 1v73.5c0 .3.1.5.3.7.2.2.4.3.7.3h36c.3 0 .5-.1.7-.3.2-.2.3-.5.3-.7" fill="none" stroke="#fff" stroke-miterlimit="10"/><path class="st109" d="M24.3 132.1c-.3 0-.5-.1-.7-.2-.7-.3-1.1-1-1-1.7l2.7-30.2c.1-1-.2-1.9-.9-2.6-.6-.7-1.5-1.1-2.5-1.1H6c-3.3 0-6-2.7-6-6v-83c0-1 .8-1.8 1.8-1.8s1.8.8 1.8 1.8v83c0 1.4 1.1 2.5 2.5 2.5h16c1.9 0 3.8.8 5.1 2.2 1.3 1.4 1.9 3.3 1.8 5.2l-2.2 25.4 30-30c.9-.9 1.9-1.6 3.1-2.1 1.2-.5 2.4-.7 3.7-.7h63c1.4 0 2.5-1.1 2.5-2.5v-83c0-1.4-1.1-2.5-2.5-2.5H22.9c-.7 0-1.5.3-2 .8s-.8 1.2-.8 2v73.5c0 .6.2 1.2.7 1.7.5.5 1.1.7 1.7.7h36c.7 0 1.3-.3 1.7-.7.5-.5.7-1.1.7-1.7V75c0-1 .8-1.8 1.8-1.8s1.8.8 1.8 1.8v6.1c0 1.6-.6 3.1-1.7 4.2s-2.6 1.8-4.2 1.8h-36c-1.6 0-3.1-.6-4.2-1.7s-1.7-2.6-1.7-4.2V7.7c0-1.7.7-3.3 1.8-4.5C19.7 2 21.3 1.4 23 1.4h103.4c3.3 0 6 2.7 6 6v83c0 3.3-2.7 6-6 6h-63c-.8 0-1.6.2-2.3.5-.7.3-1.4.8-2 1.3l-33.4 33.4c-.5.3-.9.5-1.4.5z"/><path class="st111" d="M114.8 83.1v-2.6h6.2v-3.7h2.1v6.3h-8.3zM114.8 75.7v-6.9h2.1v4.3h1v-3.9h2v3.9h1v-4.5h2.1v7.1h-8.2zM117 65.5v2.3h-2.1v-7.3h2.1v2.3h6.2v2.6H117zM116.8 57.5c1.2 0 2.2.3 2.5 2.2h-1c-.1-.7-.5-.9-1.1-1v1h-2.3v-2.2h1.9zM120.4 54.1c.2 0 .4 0 .6-.1.5-.2.6-.8.6-1.2 0-.4-.1-1.1-.8-1.1-.4 0-.6.4-1 1.8-.4 1.3-.7 2.8-2.4 2.8-1.9 0-2.8-1.7-2.8-3.4 0-1.8.7-3.4 2.7-3.5v2.4c-.3 0-.5.1-.7.3-.2.2-.2.5-.2.8 0 .4.1.9.6.9.6 0 .7-1.2 1.1-2.4.3-1.2.9-2.4 2.4-2.4 2.2 0 2.9 2 2.9 3.9 0 .9-.3 3.7-3 3.7v-2.5zM117 42.5v2.3h-2.1v-7.3h2.1v2.3h6.2v2.6H117zM114.8 35.1v-2.5l8.4-3v2.7l-1.2.4v2.7l1.2.4v2.6l-8.4-3.3zm5.4-2l-2.6.8 2.6.8v-1.6zM114.8 29v-2.6h6.2v-3.7h2.1V29h-8.3zM114.8 21.6V19h2.9l-2.9-2.3v-3.2l3.3 3 5.1-3.5v3.2l-3.3 2.1.8.7h2.5v2.6h-8.4z"/></svg>