<svg version="1.1" id="Layer_1" xmlns="http://www.w3.org/2000/svg" x="0" y="0" viewBox="0 0 228 174.2" xml:space="preserve"><style>.st170{fill-rule:evenodd;clip-rule:evenodd}</style><path class="st170" d="M211.4 148.8c1.2.4 2.3.6 3.4.6 1 0 2.1.2 3-.6.7.2 1.3.4 2 .7.7 1.6 2 2.6 3.5 3.5.2.1.4.2.5.3.3.3.4.7.1 1.1-.2.3-.5.6-.9.9l-1.8 1.2c-3 1.9-5.8 4.1-8.9 5.9-1.2.7-2.4 1.7-3.5 2.5-2 1.4-3.9 2.9-5.9 4.3-2.2 1.5-4.4 2.9-6.6 4.3-.5.3-.9.6-1.6.6.3-1.5-.6-2.6-1.5-3.6-.5-.6-1-1-1.5-1.5-.3-.3-.7-.6-1-.9-.4-.3-.5-.7-.6-1.2 0-.6.6-.7.9-1 .2-1.8.6-3.7.6-5.6 0-.8.2-1.6.5-2.4.6-1.8.9-3.6.9-5.5s.3-3.8.4-5.7V145c0-.5.1-.8.5-1 2.9.5 3.6.8 8.2 3.5l.3-.3c.3-1.2.7-2.4.5-3.7-.1-.6-.1-1.2 0-1.7.4-2 .2-4 .3-6 .1-2 0-3.9-.2-5.9-.2-3.7-.6-7.3-.9-11 0-.5-.1-.9-.3-1.4-.6-2.2-1.3-4.4-2-6.5-.6-1.9-1.2-3.8-1.9-5.8-1.8-5.2-4.6-9.8-7.9-14.1-.6-.8-1.2-1.7-1.8-2.5-1.8-2.6-3.6-5.2-5.8-7.5-.8-.8-1.5-1.7-2.2-2.6l-6.6-6.9c-.7-.7-1.4-1.4-2.2-1.9-2.1-1.6-4.1-3.3-6.4-4.6-.3-.1-.5-.4-.7-.6-.4-.3-.8-.7-1.2-.9-1.6-1-3.2-2.1-4.7-3.3-.4-.3-.9-.6-1.3-.8-2.6-1.4-5.3-2.7-7.8-4.2-2.3-1.3-4.7-2-7.1-3.1-1.1-.5-2.4-.8-3.5-1.1l-1.8-.6c-1.2-.5-2.3-1.1-3.7-1.1-.2 0-.5-.1-.7-.2-.5-.2-.8-.7-.7-1.2.1-.5.5-1 1-1.1.6-.1 1.2 0 1.8-.3 1-.5 2.1-1 3.1-1.5l4.8-2.4c1.2-.6 2.5-1.3 3.7-1.9 2.5-1.1 4.7-2.7 7-4.3 2.4-1.7 4.8-3.4 7.1-5.2.7-.5 1.4-1 1.7-2 .1-.3.3-.6.5-.7.7-.4 1-1.2 1.5-1.7.3-.3.4-.7.4-1.1.1-1.4.2-2.8.2-4.2 0-2.4-.1-4.9-.1-7.3 0-.6.2-1.1.2-1.7l.6-5.7c.1-.8.1-1.6.1-2.5 0-.8 0-1.6-.7-2.1-.1-.1-.1-.2-.2-.3-.2-.4 0-.9.4-1 .5-.1 1-.1 1.5-.1.8 0 1.4-.1 1.8-.9 0-.1.2-.1.3-.2 4.2.3 8.4 1.2 12.3 3.2 2.2 1.1 4.4 2.2 6.6 3.4 1.2.6 2.2 1.3 3.2 2.2.9.8 1.8 1.6 2.7 2.3 1.3 1 2.4 2.2 3.4 3.4 1.1 1.2 2.3 2.4 3.4 3.6.2.2.5.4.6.7 1.4 2.4 3.3 4.4 4.9 6.6.3.5.7.9 1 1.4.7.9 1.3 1.8 2 2.8.6.8 1.2 1.6 1.7 2.4 2.3 3.6 4.4 7.3 6.1 11.2l.9 1.8c.7 1.4 1.2 3 1.6 4.5.6 2.3 1.3 4.6 2.2 6.8.8 1.9 1.4 3.8 2.1 5.7.4 1.1.9 2.1 1.2 3.2.4 1.8.7 3.5 1.1 5.3.3 1.6.6 3.3.8 4.9.4 3.4 1.4 6.8 1.5 10.3 0 1.1 0 2.3-.2 3.4-.4 3.6-.7 7.2-.8 10.8-.1 1.9-.5 3.7-.8 5.5-.4 2.3-.9 4.7-1.2 7-.2 1.6-.9 3.1-1.3 4.6-.5 1.9-1.1 3.9-1.7 5.8-.3 1-.7 1.9-1.1 2.9-.4 1.2-.8 2.3-1.2 3.5-.8 2.1-1.5 4.2-2.7 6.1-.5.7-.8 1.6-1.2 2.4-.4.8-.7 1.6-1.1 2.4-.5 1-1 1.9-1.3 3-.5 1.6-1.1 3.2-1.7 4.8.1.4 0 .7-.1 1.1zm4.1 3.3c.8.3 1.6.2 2.4.2.1-.3 0-.5-.2-.5-.8-.2-1.5.2-2.2.3-.2-.3-.6-.3-.9-.4-1.2-.2-2.3-.5-3.3-.7.9 1.2.4 1 2.2 1.2.5.1 1 .1 1.5.1.2 0 .4-.1.5-.2zm-7.1.4c.1-.4 0-.7.2-1 .7-1.1 1-2.3 1.4-3.4.7-1.9 1.4-3.8 2-5.7.3-1 .8-1.9 1.2-2.9.5-1.1 1-2.2 1.5-3.2.3-.7.6-1.3 1-1.9.6-.9 1.1-1.9 1.5-2.9.3-.9.8-1.8 1.1-2.7.8-2.6 1.8-5.1 2.7-7.6.5-1.6 1-3.2 1.4-4.7.3-.9.7-1.8.9-2.8.4-1.7.6-3.4.9-5 .3-1.7.6-3.4.9-5 .2-1.2.5-2.4.6-3.7.1-1.5.1-3.1.2-4.6.1-1.5.3-3.1.4-4.6.2-2.3.5-4.5.2-6.8l-1.2-7.8c-.2-1.4-.5-2.8-.6-4.1-.3-2.2-.6-4.4-1.3-6.5-.4-1.1-.7-2.3-1.2-3.4-.7-1.9-1.2-3.8-2.1-5.7-.5-1-.9-2.1-1.3-3.2-.3-1-.5-2.1-.8-3.2-.4-1.6-.9-3.2-1.7-4.7l-1.2-2.4c-.6-1.3-1.2-2.6-1.9-3.9-2.1-3.9-4.6-7.6-7.2-11.2-1.9-2.5-3.8-5.1-5.7-7.6-.7-.9-1.3-1.7-2.1-2.5-1-1.2-2.1-2.3-3.1-3.4-.7-.8-1.4-1.5-2.3-2.1-.6-.4-1.2-.9-1.8-1.5-2.2-2.1-4.8-3.6-7.5-4.9-2.3-1.1-4.6-2.3-7.1-3.1-1.4-.5-2.9-.9-4.4-1.1-.2 0-.4 0-.6.1 0 .3 0 .4.1.5.4.8.6 1.6.7 2.5.1 1.2.3 2.5.4 3.7.3 2.6.1 5.3.2 7.9 0 1.3 0 2.6-.2 3.9-.2 2-.6 4-.9 6-.1.9-.4 1.8-1 2.6-.2.3-.4.6-.5 1-.2.9-.4 1.9-.7 2.8-.1.2-.3.5-.5.5-.4.1-.5-.3-.6-.6 0-.1-.1-.1-.3-.2-.3.1-.5.2-.8.4-2.7 1.3-5.5 2.7-7.9 4.5-1.2.9-2.4 1.7-3.7 2.6-2.3 1.5-4.7 2.5-7.2 3.6-.9.4-2 .7-2.8 1.3-1.9 1.2-3.8 2.2-5.8 3.2-.2.1-.3.2-.6.4.9.3 1.6.5 2.4.5.5 0 1 0 1.4.2.7.3 1.4.4 2.1.6 1.5.4 3.1.9 4.6 1.4 1.2.4 2.3 1.1 3.5 1.5 1.5.6 2.9 1.4 4.3 2.1.5.3 1 .6 1.5.8 1.1.4 2.1 1.1 3.1 1.8 2.6 1.6 4.9 3.6 7.6 5.1.2.1.4.3.6.5 1.2 1.1 2.5 2.1 3.9 3 .3.2.5.4.7.6 1.2 1.1 2.4 2.2 3.7 3.3 1.9 1.6 3.4 3.6 5.5 5 .1.1.2.1.2.2 2.2 2.4 4.5 4.7 6.4 7.3 1.4 2 3.1 3.7 4.6 5.6 1.2 1.5 2.7 2.9 3.7 4.6.7 1.3 1.6 2.5 2.3 3.9.7 1.5 1.3 3 1.9 4.6.1.2.2.5.2.7.5 1.8 1.1 3.7 1.5 5.5.6 2.6 1.4 5.1 1.5 7.8 0 .7.1 1.3.3 2 .6 2.2.7 4.5.8 6.8.1 2.5.1 5.1.3 7.6.1 1.7 0 3.4-.2 5.1-.1 1.9-.3 3.8-.4 5.7-.1 1.3-.2 2.6-.4 3.8-.1.4-.2.8-.2 1.2-.2 1.9-1.1 3.5-2 5.1-.3.4-.6.5-1.1.3-1.1-.7-2.3-1-3.3-1.8-.5-.4-1.2-.7-1.8-1-.2-.1-.4-.3-.7 0v.5c.4 3.2.1 6.3 0 9.4-.1 2.5-.5 4.9-.7 7.4-.1.8-.3 1.5-.6 2.2-.2.5-.4 1-.5 1.4 0 .2 0 .4.1.7.5-.2 1-.4 1.4-.6l2.4-1.5c2.9-1.8 5.6-3.9 8.4-5.8.9-.6 1.8-1.3 2.8-2 3.3-2.1 6.6-4.3 9.7-6.8.1-.1.1-.3.2-.5-.9.2-1.7.6-2.6.2-.1-.3-.1-.5-.2-.8-.6 0-1.2-.1-1.7-.1-1.1 0-2.2-.1-3.2-.1s-2 0-2.9.2c-.7.1-1.1 0-1.4-.5 0-.1-.2-.3-.6-.6zM143.3 50.7c0 .1-.1.2-.1.3.6.3 1.3.7 1.9.9 1.6.5 3.2 1.2 4.7 2 1.1.6 2.3 1.3 3.4 1.9l3.3 1.8c.8.4 1.5.8 2.2 1.4 1.2.9 2.4 1.7 3.7 2.5 1.7 1 3.3 2.3 5 3.4l.1.1c.7.6 1.5 1.1 2.2 1.7.7.6 1.5 1.1 2.2 1.7 2.2 1.8 4.3 3.7 6.1 6 .1.1.2.3.3.4 1.9 1.6 3.5 3.5 5.1 5.4.5.7 1.3 1.2 1.8 1.9 1.3 1.7 2.7 3.2 3.8 5.1.3.4.6.9.9 1.3.7.9 1.5 1.8 2.2 2.8.9 1.3 1.7 2.6 2.6 3.9 1.2 1.9 2.3 3.8 3.2 5.9.8 1.9 1.6 3.8 2.2 5.8 1.1 3.3 2.2 6.6 3.1 9.9.3 1.2.5 2.4.7 3.7.2 1.8.3 3.7.4 5.6.2 2.8.3 5.7.4 8.5.1 1.8-.2 3.5 0 5.3.1.4 0 .8-.1 1.2-.2.9-.2 1.7-.2 2.6 0 .8 0 1.7-.1 2.5s-.5 1.5-.6 2.2c-.1.8-.2 1.5-.6 2.3l.9.3c.2-.5.3-1 .6-1.3.7-.8.9-1.6 1-2.6.1-.5.2-.9.2-1.4.3-1.6.7-3.2.6-4.9 0-.3 0-.6.1-.9.2-1.6.4-3.2.5-4.8.1-2.2 0-4.3-.1-6.5-.1-1.9-.2-3.7-.3-5.6 0-.7 0-1.3-.1-2-.3-2.6-.9-5.1-1-7.7 0-.1 0-.2-.1-.3-.5-2.5-.9-5-1.8-7.4-.6-1.8-.9-3.6-1.8-5.3-.7-2.7-2-5-3.6-7.2-1-1.4-2.1-2.7-3.1-4-.6-.8-1.1-1.6-1.8-2.3-.7-.7-1.2-1.4-1.8-2.1-2.8-3.6-5.6-7.1-9-10-.4-.4-.8-.8-1.3-1.2-1.3-1.2-2.5-2.5-3.8-3.7-1.6-1.4-3.1-3-5.1-4.1-.4-.2-.6-.5-.9-.8-.6-.5-1.2-1.1-1.9-1.6-2-1.1-3.8-2.5-5.7-3.8-1.2-.9-2.5-1.7-3.8-2.4-1.3-.8-2.7-1.5-4.1-2.2l-2.1-.9c-.7-.3-1.4-.5-2-.8-2.5-1.4-5.2-2.1-7.9-2.6-.1.1-.4.1-.6.1zm21-21.2c1.1.2 1.9.3 2.8.4.4 0 .7 0 1.1-.1.4-.1.7-.3 1-.7 1.1-1.7 1.7-3.5 1.8-5.5 0-.8.2-1.6.3-2.4.1-1 .3-2 .3-3.1v-7.9c0-.5.1-.9 0-1.4-.2-1.6-.5-3.2-.8-4.7-.1-.7-.4-1.4-1-1.9-1-.3-1.8.2-2.7.4-.1 1.2-.1 2.2-.2 3.3-.2 2.1-.5 4.2-.8 6.3-.1.6-.1 1.1-.1 1.7 0 1.9-.1 3.8-.1 5.7 0 2.1-.1 4.2-.2 6.3.1 1.4-.3 2.5-1.4 3.6zm31 140c.7-1 1-2 1-3.2 0-1.4.2-2.8.4-4.2.3-2.5.4-4.9.5-7.4 0-1-.1-2.1-.2-3.1 0-.3-.2-.6-.2-.8-.5-.4-1.2 0-1.4-.7.4-.6.5-1.3.5-2 0-.2-.1-.5-.2-.7-.1-.2-.3-.3-.5-.3-.1 0-.4.2-.4.4-.1.5-.1.9-.1 1.4-.2 2.6-.1 5.3-.9 7.8-.5 1.8-.9 3.6-.8 5.5 0 .2 0 .3-.1.5-.1.9-.3 1.7-.3 2.6 0 .5 0 .9-.4 1.3-.3.4-.2.7.1 1 1 .7 1.6 1.7 3 1.9zm-32-139.1c-.8 1-1.7 1.7-2.8 2.3l-.9.6c-2.3 1.7-4.6 3.4-6.9 5-.7.5-1.4 1-2.2 1.4-1.5.9-3 1.7-4.5 2.5-.9.5-1.8.8-2.6 1.3-1.5.8-3 1.6-4.5 2.3l-1.2.6c-.4.2-.8.4-1.3.6.3.1.5.2.6.2 1.1-.3 2.2-.4 3.3-.8 1-.4 1.9-.9 2.9-1.5 1.2-.6 2.3-1.4 3.5-1.9 2.4-1.1 4.8-2.2 7.1-3.5.7-.4 1.4-.9 2.1-1.3 1.4-.9 2.7-1.9 4.1-2.8 2.1-1.3 4.3-2.6 6.4-3.7.2-.1.4-.3.7-.5-.7-.3-1.3-.4-1.9-.5-.6.1-1.2-.1-1.9-.3zm38.2 118.8c-.1-.1-.1-.3-.2-.4-1-1-2.2-1.7-4.6-2.7.3.3.4.5.5.6.3.2.7.3.9.6.8 1.2 2.1 1.5 3.4 1.9zm17 3.1c.5 0 .8.1 1.1.1.1 0 .1-.1.2-.2-.4-.7-.6-.7-1.3.1z"/><path class="st170" d="M194 168.1c-.1-.1-.1-.1 0 0 0-.1 0-.1.1-.1v.1h-.1z"/><path d="M8.2 122.6h4.5l2 13.2h.1l1.3-13.2h4.8l-3.3 19.1h-5.5l-1.7-12.9h-.1l-1.7 12.9H3.3L0 122.6h4.8l1.5 13.2h.1l1.8-13.2zM22 122.6h11.3v4.1H27v3.3h5.9v3.9H27v3.8h6.6v4.1H22v-19.2zM44.5 122.6h6.3l4.7 19.1h-5.3l-.5-3.3h-4l-.5 3.3h-5.3l4.6-19.1zm3.2 3.9l-1.4 8.1H49l-1.3-8.1zM56.3 122.6h7.8c3.8 0 5.2 2.1 5.2 5.1 0 2.5-1 4.2-3.3 4.6v.1c2.4.2 3.1 1.7 3.1 4.3v1.6c0 1 0 2.3.2 2.7.1.2.2.4.6.6v.3h-5.3c-.5-1-.5-2.8-.5-3.6V137c0-2.2-.4-2.7-1.6-2.7h-1.3v7.7h-5v-19.4zm5 8.1h1c1.4 0 2.1-.9 2.1-2.3 0-1.6-.6-2.2-2.1-2.2h-1v4.5zM71.6 122.6H83v4.1h-6.3v3.3h5.9v3.9h-5.9v3.8h6.6v4.1H71.6v-19.2zM92 122.6h5v7h3.1v-7h5v19.1h-5v-7.9H97v7.9h-5v-19.1zM107.4 122.6h11.3v4.1h-6.3v3.3h5.9v3.9h-5.9v3.8h6.6v4.1h-11.6v-19.2zM120.8 122.6h7.8c3.8 0 5.2 2.1 5.2 5.1 0 2.5-1 4.2-3.3 4.6v.1c2.4.2 3.1 1.7 3.1 4.3v1.6c0 1 0 2.3.2 2.7.1.2.2.4.6.6v.3h-5.3c-.5-1-.5-2.8-.5-3.6V137c0-2.2-.4-2.7-1.6-2.7h-1.3v7.7h-5v-19.4zm4.9 8.1h1c1.4 0 2.1-.9 2.1-2.3 0-1.6-.6-2.2-2.1-2.2h-1v4.5zM136.1 122.6h11.3v4.1h-6.3v3.3h5.9v3.9h-5.9v3.8h6.6v4.1h-11.6v-19.2z"/><g><path d="M156 136.4v-17.2h12.5v17.2l-1.5 19.2h-9.6l-1.4-19.2zm.2 22.7h12.1v11.3h-12.1v-11.3z"/></g><g><path d="M.8 146.9h6.3v18.9h7.7v5.1H.8v-24zM16.4 146.9h14.2v5.1h-8v4.1h7.5v4.9h-7.5v4.8H31v5.1H16.4v-24zM36.4 152.2h-4.7v-5.3h15.7v5.3h-4.7v18.7h-6.3v-18.7zM48.9 146.9h5.7v6.1c0 4.3-1.7 6.5-5.7 6.5v-2.9c1.6-.2 2.2-1 2.2-2.8v-.4h-2.2v-6.5zM66.9 153.8v-.6c0-1.4-.6-2.6-1.8-2.6-1.3 0-2 1-2 2.1 0 4.7 10.2 2.4 10.2 11.2 0 5.1-3 7.4-8.5 7.4-5.2 0-8.1-1.8-8.1-6.8v-.8h6.1v.6c0 2.1.8 2.8 2.1 2.8s2-1 2-2.3c0-4.7-9.8-2.4-9.8-10.9 0-4.8 2.6-7.5 7.9-7.5 5.5 0 7.8 2.3 7.8 7.4h-5.9zM86.3 152.2h-4.7v-5.3h15.7v5.3h-4.7v18.7h-6.3v-18.7zM100.8 146.9h7.9l5.9 24h-6.7l-.6-4.2h-5l-.6 4.2H95l5.8-24zm4 4.9L103 162h3.5l-1.7-10.2zM115.6 146.9h6.3v18.9h7.7v5.1h-14v-24zM130.9 146.9h6.3v9.2h.1l4.6-9.2h6.7l-6.1 10.5 6.8 13.5h-7.1l-3.7-8.4-1.3 2v6.4h-6.3v-24z"/></g></svg>