<svg version="1.1" id="Layer_1" xmlns="http://www.w3.org/2000/svg" x="0" y="0" viewBox="0 0 245.3 61.1" xml:space="preserve"><style>.st56{fill:#003f5c}.st57{fill:#ffd035}</style><path class="st56" d="M123 56.2h3.9v4.6H123v-4.6zM129 56.2h3.9v4.6H129v-4.6zM135 56.2h3.9v4.6H135v-4.6zM141 44.3h4.3v13h5.3v3.5H141V44.3zM151.7 44.3h9.8v3.5H156v2.8h5.1V54H156v3.3h5.7v3.5h-10V44.3zM165.4 48h-3.2v-3.7H173V48h-3.2v12.9h-4.3V48zM174 44.3h3.9v4.2c0 3-1.2 4.4-3.9 4.5v-2c1.1-.1 1.5-.7 1.5-1.9v-.3H174v-4.5zM186.4 49.1v-.4c0-1-.4-1.8-1.2-1.8-.9 0-1.3.7-1.3 1.5 0 3.3 7 1.7 7 7.7 0 3.5-2.1 5.1-5.8 5.1-3.6 0-5.5-1.2-5.5-4.6V56h4.2v.4c0 1.4.6 1.9 1.4 1.9.9 0 1.4-.7 1.4-1.6 0-3.3-6.8-1.6-6.8-7.5 0-3.3 1.8-5.2 5.4-5.2 3.7 0 5.3 1.5 5.3 5.1h-4.1zM204.9 49.3c0-1.9-.3-2.4-1.2-2.4-1.3 0-1.5 1.2-1.5 5.7s.1 5.7 1.5 5.7c1.1 0 1.3-.9 1.3-4h4.2v1.2c0 4.6-2.7 5.7-5.5 5.7-4.8 0-5.9-2.4-5.9-8.6 0-6.3 1.4-8.6 5.9-8.6 3.9 0 5.3 2 5.3 5.2v1h-4.2v-.9zM210.8 44.3h4.3v6.1h2.6v-6.1h4.3v16.5h-4.3V54h-2.6v6.8h-4.3V44.3zM226.7 44.3h5.4l4 16.5h-4.6l-.4-2.9h-3.4l-.4 2.9h-4.6l4-16.5zm2.8 3.4l-1.2 7h2.4l-1.2-7zM237.8 48h-3.2v-3.7h10.8V48h-3.2v12.9h-4.3V48z"/><g><path class="st57" d="M83.2 55.2V31.9c0-1.3-.5-2.6-1.5-3.5-.9-.9-2.2-1.5-3.5-1.4L5 27.1c-1.3 0-2.6.5-3.5 1.5-1 .9-1.5 2.2-1.5 3.5v23.3c0 1.3.5 2.6 1.5 3.5.9.9 2.2 1.4 3.5 1.4l73.2-.2c2.7.1 5-2.2 5-4.9zm-5 3.3L5 58.6c-.9 0-1.7-.3-2.3-1-.6-.6-1-1.4-1-2.3V32c0-.9.3-1.7 1-2.3.6-.6 1.4-1 2.3-1l73.2-.1c.9 0 1.7.3 2.3 1 .6.6 1 1.4 1 2.3v23.3c0 1.8-1.5 3.3-3.3 3.3z"/><path class="st57" d="M9 37.1h2.8c.5 0 .8-.4.8-.9v-3.1c0-.5-.4-.8-.9-.8H8.9c-.5 0-.8.4-.8.9v3.1c0 .4.4.8.9.8zM13.8 36.2c0 .5.4.8.9.8h2.8c.5 0 .8-.4.8-.8v-3.1c0-.5-.4-.8-.9-.8h-2.8c-.5 0-.8.4-.8.9v3zM19.5 36.2c0 .5.4.8.9.8h2.8c.5 0 .8-.4.8-.8v-3.1c0-.5-.4-.8-.8-.8h-2.8c-.5 0-.8.4-.8.9l-.1 3zM25.2 36.2c0 .5.4.8.8.8h2.8c.5 0 .8-.4.8-.8v-3.1c0-.5-.4-.8-.9-.8h-2.8c-.5 0-.8.4-.8.9l.1 3zM30.9 36.2c0 .5.4.8.9.8h2.8c.5 0 .8-.4.8-.9V33c0-.5-.4-.8-.9-.8h-2.8c-.5 0-.8.4-.8.9v3.1zM36.6 36.2c0 .5.4.8.9.8h2.8c.5 0 .8-.4.8-.9V33c0-.5-.4-.8-.9-.8h-2.8c-.5 0-.8.4-.8.9v3.1zM42.3 36.2c0 .5.4.8.9.8H46c.5 0 .8-.4.8-.9V33c0-.5-.4-.8-.9-.8h-2.8c-.5 0-.9.4-.8.9v3.1zM47.9 36.2c0 .5.4.8.9.8h2.8c.5 0 .8-.4.8-.9V33c0-.5-.4-.8-.9-.8h-2.8c-.5 0-.8.4-.8.9v3.1zM53.6 36.2c0 .5.4.8.9.8h2.8c.5 0 .8-.4.8-.9V33c0-.5-.4-.8-.9-.8h-2.8c-.5 0-.8.4-.8.8v3.2zM59.3 36.2c0 .5.4.8.9.8H63c.5 0 .9-.4.8-.9V33c0-.5-.4-.8-.9-.8h-2.8c-.5 0-.8.4-.8.9v3.1zM65 36.1c0 .5.4.8.8.8h2.8c.5 0 .9-.4.8-.9v-3.1c0-.5-.4-.8-.9-.8h-2.8c-.5 0-.8.4-.8.9l.1 3.1zM70.7 36.1c0 .5.4.8.9.8h2.8c.5 0 .8-.4.8-.9v-3.1c0-.5-.4-.9-.9-.8h-2.8c-.5 0-.8.4-.8.8v3.2zM9.7 42.4v-3.1c0-.5-.4-.8-.9-.8H6c-.5 0-.8.4-.8.9v3.1c0 .5.4.8.9.8h2.8c.4 0 .8-.4.8-.9zM14.5 38.5h-2.8c-.5 0-.8.4-.8.9v3.1c0 .5.4.8.9.8h2.8c.5 0 .8-.4.8-.9v-3.1c0-.4-.4-.8-.9-.8zM17.4 43.3h2.8c.5 0 .8-.4.8-.9v-3.1c0-.5-.4-.9-.9-.8h-2.8c-.5 0-.8.4-.8.9v3.1c.1.4.4.8.9.8zM25.9 38.5h-2.8c-.5 0-.8.4-.8.9v3.1c0 .5.4.8.9.8H26c.5 0 .8-.4.8-.9v-3.1c-.1-.5-.4-.8-.9-.8zM31.6 38.4h-2.8c-.5 0-.8.4-.8.9v3.1c0 .5.4.8.9.8h2.8c.5 0 .8-.4.8-.9v-3.1c-.1-.4-.4-.8-.9-.8zM37.3 38.4h-2.8c-.5 0-.8.4-.8.8v3.1c0 .5.4.8.8.8h2.8c.5 0 .8-.4.8-.9v-3.1c0-.3-.4-.7-.8-.7zM43 38.4h-2.8c-.5 0-.8.4-.8.9v3.1c0 .5.4.8.9.8h2.8c.5 0 .9-.4.8-.9v-3.1c-.1-.4-.5-.8-.9-.8zM48.7 38.4h-2.8c-.5 0-.8.4-.8.9v3.1c0 .5.4.9.9.8h2.8c.5 0 .9-.4.8-.9v-3.1c-.1-.4-.5-.8-.9-.8zM54.4 38.4h-2.8c-.5 0-.8.4-.8.9v3.1c0 .5.4.8.9.8h2.8c.5 0 .8-.4.8-.9v-3.1c-.1-.4-.5-.8-.9-.8zM60 38.4h-2.8c-.5 0-.9.4-.8.9v3.1c0 .5.4.8.9.8h2.8c.5 0 .8-.4.8-.9v-3.1c0-.4-.4-.8-.9-.8zM65.7 38.4h-2.8c-.5 0-.8.4-.8.8v3.1c0 .5.4.8.9.8h2.8c.5 0 .8-.4.8-.9v-3.1c0-.3-.4-.7-.9-.7zM68.6 43.2h2.8c.5 0 .8-.4.8-.9v-3.1c0-.5-.4-.8-.9-.8h-2.8c-.5 0-.8.4-.8.9v3.1c.1.4.5.8.9.8zM73.5 42.3c0 .5.4.8.9.8h2.8c.5 0 .8-.4.8-.9v-3.1c0-.5-.4-.8-.9-.8h-2.8c-.5 0-.8.4-.8.8v3.2zM9.7 45.1c0-.5-.4-.8-.9-.8H6c-.5 0-.8.4-.8.8v3.1c0 .5.4.8.9.8h2.8c.5 0 .8-.4.8-.9v-3zM15.4 48.2v-3.1c0-.5-.4-.9-.9-.8h-2.8c-.5 0-.8.4-.8.9v3.1c0 .5.4.8.9.8h2.8c.4 0 .8-.4.8-.9zM16.6 48.2c0 .5.4.8.9.8h2.8c.5 0 .8-.4.8-.9V45c0-.5-.4-.8-.9-.8h-2.8c-.5 0-.9.4-.8.9v3.1zM23.1 49h2.8c.5 0 .8-.4.8-.9V45c0-.5-.4-.8-.9-.8H23c-.5 0-.9.4-.8.9v3.1c.1.5.4.8.9.8zM28.8 49h2.8c.5 0 .8-.4.8-.9V45c0-.5-.4-.8-.9-.8h-2.8c-.5 0-.8.4-.8.9v3.1c.1.5.4.8.9.8zM34.5 49h2.8c.5 0 .8-.4.8-.9V45c0-.5-.4-.8-.9-.8h-2.8c-.5 0-.8.4-.8.9v3.1c0 .4.4.8.9.8zM40.2 49H43c.5 0 .8-.4.8-.9V45c0-.5-.4-.8-.9-.8h-2.8c-.5 0-.8.4-.8.8v3.1c0 .5.4.9.9.9zM45.9 49h2.8c.5 0 .9-.4.8-.9V45c0-.5-.4-.8-.9-.8h-2.8c-.5 0-.8.4-.8.9v3.1c0 .4.4.8.9.8zM51.6 49h2.8c.5 0 .8-.4.8-.9V45c0-.5-.4-.8-.9-.8h-2.8c-.5 0-.8.4-.8.8v3.1c0 .5.4.9.9.9zM57.3 49h2.8c.5 0 .8-.4.8-.9V45c0-.5-.4-.8-.9-.8h-2.8c-.5 0-.8.4-.8.8v3.1c0 .5.4.9.9.9zM63 49h2.8c.5 0 .8-.4.8-.8v-3.1c0-.5-.4-.8-.9-.8h-2.8c-.5 0-.8.4-.8.9v3.1c0 .3.4.7.9.7zM68.6 48.9h2.8c.5 0 .8-.4.8-.8V45c0-.5-.4-.8-.9-.8h-2.8c-.5 0-.8.4-.8.8v3.1c.1.5.5.9.9.8zM73.5 45v3.1c0 .5.4.8.9.8h2.8c.5 0 .8-.4.8-.9v-3.1c0-.5-.4-.8-.9-.8h-2.8c-.4.1-.8.4-.8.9zM15.4 51.2c0-.5-.4-.8-.9-.8h-2.8c-.5 0-.8.4-.8.9v3.1c0 .5.4.8.9.8h2.8c.5 0 .8-.4.8-.9v-3.1zM21.1 51.1c0-.5-.4-.8-.9-.8h-2.8c-.5 0-.8.4-.8.9v3.1c0 .5.4.8.9.8h2.8c.5 0 .8-.4.8-.9v-3.1zM26.8 51.1c0-.5-.4-.8-.9-.8h-2.8c-.5 0-.8.4-.8.9v3.1c0 .5.4.8.9.8H26c.5 0 .8-.4.8-.9v-3.1zM55.1 51.1c0-.5-.4-.8-.8-.8H29.4c-.5 0-.8.4-.8.8v3.1c0 .5.4.8.8.8h24.8c.5 0 .8-.4.8-.8l.1-3.1zM60.9 51.1c0-.5-.4-.8-.9-.8h-2.8c-.5 0-.8.4-.8.9v3.1c0 .5.4.8.9.8h2.8c.5 0 .8-.4.8-.9v-3.1zM66.6 51c0-.5-.4-.8-.9-.8h-2.8c-.5 0-.8.4-.8.9v3.1c0 .5.4.8.9.8h2.8c.5 0 .8-.4.8-.9V51zM72.3 51c0-.5-.4-.8-.9-.8h-2.8c-.5 0-.8.4-.8.9v3.1c0 .5.4.8.9.8h2.8c.5 0 .8-.4.8-.9V51zM38.3 10.5l1.4 14.8h2.5l-1.4-15c-.2-2.7-.3-6 1.7-7.3 1.6-1 3.9-.3 5.3 1 1.6 1.6 2.4 4 3 6 .5 1.8 1.2 3.9 3 5.2.9.6 2.1 1 3.6 1 3.4.2 6.9-.9 9.7-3 .6-.4.7-1.2.2-1.8-.4-.6-1.2-.7-1.8-.2-2.3 1.7-5.2 2.6-8 2.5-1.1-.1-1.8-.2-2.3-.6-1.1-.7-1.5-2.3-2-3.8-.7-2.4-1.6-5.1-3.6-7.1S43.9-.9 41.2.8C38 2.9 38 7.1 38.3 10.5z"/></g><g><path class="st57" d="M66.2 13.9c3.1-2 6-4.2 9.8-4.2 3.7 0 7 1.9 9.7 4.3 6.2 5.4 8.1 12.3 8.6 20.3.4 7.1 1.2 13.8 5.9 19.4 4.1 4.9 10.7 7.7 17 6.7 1.6-.3.9-2.6-.7-2.4-8 1.3-15.4-4.9-18.1-12-2.7-7.3-1-15.5-3.5-22.9-2-5.9-6.9-11.4-12.4-14.2-2.6-1.4-5.7-1.8-8.6-1.5-3.4.4-6.2 2.6-9 4.4-1.3.8-.1 3 1.3 2.1z"/></g></svg>