<svg version="1.1" id="Layer_1" xmlns="http://www.w3.org/2000/svg" x="0" y="0" viewBox="0 0 170.9 159.6" xml:space="preserve"><style>.st57{fill:#ffd035}.st142{fill:#1aafbe}</style><path class="st142" d="M85.4 30.7C55.4 30.7 31 55 31 85.1c0 30.1 24.4 54.4 54.4 54.4 30.1 0 54.4-24.4 54.4-54.4.1-30.1-24.3-54.4-54.4-54.4z"/><path class="st57" d="M13.3 131.6L12 129l9.1-6.6-10.6 3.6-1.5-2.6 9-6.7-10.6 3.7-1.3-2.6 14.5-4.5 1.6 3-8.9 6.5 10.4-3.6 1.6 3-12 9.4zM2.6 106.6l2.4-.7 1.6 5.1 3.4-1.1-1.5-4.8 2.4-.7 1.5 4.8 3.8-1.2-1.7-5.3 2.4-.7 2.6 8.2-14.3 4.5-2.6-8.1z"/><path class="st142" d="M12.2 93.6l3.2-.4.4 2.7-3.2.4-.4-2.7z"/><path class="st57" d="M0 83.8l.1-3.7 15.1-3.4-.1 3.1-3.1.6-.1 4 3.1.8-.1 3.1L0 83.8zm9.4 0l.1-2.9L2.7 82l6.7 1.8zM.7 73.3l1.1-5.5c.5-2.4 2-3.7 4.6-3.2 2 .4 3.1 1.4 3.1 3.2.7-2 1.8-2.1 5-1.5 1.5.3 2.4.4 2.8-.1h.1l-.6 3.2c-.5.2-1 .2-1.6.1l-2.9-.5c-1.2-.2-2 .2-2.2 1.4L9.8 72l6.2 1.2-.6 3L.7 73.3zm7-1.7l.2-1.2c.3-1.4-.2-2.3-1.8-2.7-1.3-.3-2.1.3-2.4 1.6l-.3 1.4 4.3.9zM6.4 52.3l2.3.8-1.8 5 3.3 1.2 1.7-4.8 2.3.8-1.7 4.8 3.8 1.4 1.9-5.2 2.3.8-2.9 8.1-14.1-5 2.9-7.9z"/><path class="st142" d="M21.9 47.7l2.9 1.6-1.4 2.4-2.9-1.6 1.4-2.4z"/><path class="st57" d="M18 32.6l2.4-2.9 14.1 6.4-2 2.4-2.9-1.5-2.5 3.1 2 2.5-2 2.4L18 32.6zm7.5 5.6l1.9-2.3-6.1-3.1 4.2 5.4zM35 35.8l-10.1-11 2.2-2 8.5 9.2 3.9-3.6 1.7 1.8-6.2 5.6zM31.4 18.4l2.4-1.6 7.5 8.3-4.7-10.2 2.4-1.6 7.6 8.2L42 11.3l2.4-1.6 6.1 14-2.8 1.9-7.4-8.1 4.7 10-2.8 1.9-10.8-11zM49.9 7.4l3.4-1.5 9.6 12.2-2.9 1.2-1.9-2.6-3.7 1.6.6 3.2-2.9 1.2-2.2-15.3zm4 8.4l2.7-1.2-4-5.6 1.3 6.8zM60.7 3.3l3.4 5.1.5-6.1 3.2-.9-1.3 9.8 1.6 5.7-2.9.8-1.6-5.7-6.2-7.7 3.3-1zM73.9 10.8l.1.4c.2 1.4.7 2.2 2.3 2 .9-.1 1.7-.8 1.6-2.1-.2-1.4-.9-1.8-3-2.2-2.8-.6-4.2-1.5-4.5-4-.4-2.9 1.2-4.6 4-5 2.7-.3 4.7.6 5.1 3.4l.1.4-2.9.4c-.2-1.4-.8-2.1-1.9-2-1.4.2-1.6 1.1-1.5 1.9.1.9.5 1.4 1.8 1.8l2.4.7c2.4.7 3.1 1.8 3.3 3.6.4 3.1-1.3 4.8-4.6 5.2-3.4.4-4.9-1-5.3-3.7l-.1-.6 3.1-.2z"/><path class="st142" d="M90.4 11.5l-.2 3.3-2.8-.1.2-3.3 2.8.1z"/><path class="st57" d="M102.2 1.3l3.6.8.6 15.5-3.1-.7v-3.2l-3.9-.9-1.4 2.9-3.1-.7 7.3-13.7zm-1.6 9.2l2.9.6.1-6.9-3 6.3zM119.4 6.5l-.9 2.3-3.1-1.1-4.3 11.8-2.8-1 4.3-11.7-3.1-1.1.9-2.3 9 3.1z"/><path class="st142" d="M123.4 21.9l-1.6 2.8-2.4-1.4 1.6-2.8 2.4 1.4z"/><path class="st57" d="M134.2 14.9l-1.8 5.8 5.1-3.4 2.6 1.9-8.5 5.1-3.5 4.8-2.4-1.8 3.5-4.8 2.2-9.6 2.8 2zM145.6 24c3.2 3.2 1.4 5.9-1.8 9.1-3.2 3.2-5.9 5.2-9.1 2s-1.4-5.9 1.8-9.1c3.2-3.3 5.8-5.2 9.1-2zm-9.4 9.5c1.3 1.3 2.6.4 5.4-2.5 2.8-2.9 3.7-4.2 2.4-5.4-1.3-1.3-2.6-.4-5.4 2.5-2.8 2.8-3.7 4.1-2.4 5.4zM153 32.8l-8.4 6.2c-1.2.9-1.9 1.8-1 3 .8 1.1 1.9.8 3.1-.1l8.4-6.2 1.8 2.4-8.4 6.2c-3.1 2.3-5.3 1-6.7-1s-2.2-4.3 1-6.7l8.4-6.2 1.8 2.4zM158.9 41.2l2.6 4.9c1.2 2.2.7 4.1-1.6 5.3-1.8.9-3.3.8-4.4-.5.7 1.9-.1 2.8-2.9 4.3-1.4.8-2.1 1.2-2.1 1.8l-.1.1-1.5-2.9c.2-.5.7-.8 1.2-1.1l2.5-1.4c1-.6 1.4-1.4.8-2.5l-.8-1.4-5.6 2.9-1.4-2.7 13.3-6.8zm-4.4 5.7l.6 1.1c.7 1.3 1.6 1.7 3 1 1.2-.6 1.5-1.6.9-2.8l-.7-1.3-3.8 2z"/><path class="st142" d="M156.3 64.6l-3.1 1-.8-2.6 3.1-1 .8 2.6z"/><path class="st57" d="M159.6 73l-.4.1c-1.4.2-2.2.7-2 2.3.1.9.8 1.7 2.1 1.5 1.4-.2 1.8-.9 2.2-3 .6-2.8 1.5-4.2 4-4.5 2.9-.4 4.6 1.2 5 4 .4 2.7-.5 4.8-3.4 5.1l-.4.1-.4-2.9c1.4-.2 2.1-.8 2-1.9-.2-1.4-1.1-1.6-2-1.5-.9.1-1.4.5-1.8 1.8l-.7 2.4c-.7 2.4-1.7 3.1-3.6 3.4-3.1.4-4.8-1.3-5.3-4.5-.5-3.4.9-4.9 3.7-5.3l.6-.1.4 3zM170.8 90.1h-2.5l.1-5.4-3.5-.1-.1 5h-2.5l.1-5-4-.1-.1 5.6h-2.5l.1-8.6 15 .2-.1 8.4zM170.6 93.5l-.8 5.5c-.4 2.4-1.9 3.7-4.4 3.4-2-.3-3.2-1.3-3.3-3-.6 2-1.8 2.1-4.9 1.7-1.6-.2-2.4-.3-2.8.3h-.1l.5-3.2c.5-.2 1-.2 1.6-.1l2.9.4c1.2.1 2-.3 2.1-1.5l.2-1.6-6.3-1 .5-3 14.8 2.1zm-6.9 1.9l-.2 1.2c-.2 1.4.3 2.3 1.9 2.6 1.4.2 2.2-.4 2.4-1.8l.2-1.4-4.3-.6zM167.6 108.8l-11.2-1.3v.1l9.9 5.5-.9 3-13.3-7.8 1.2-3.7 15.3 1.2-1 3zM150.5 112.3l13.7 6.1-1.2 2.8-13.7-6.1 1.2-2.8zM153.9 127.3c1.9 1.1 2.9 1.2 3.6 0 .8-1.3-.4-2.4-4-4.6-3.9-2.3-4.9-2.2-5.6-1-.6.9-.5 1.9 2.3 3.6l-1.5 2.6c-2.8-1.6-4.8-3.7-2.8-7.2 2.3-3.9 5.4-2.8 9.3-.5s6.4 4.4 4.1 8.3c-2.2 3.7-5.1 2.4-7 1.3l1.6-2.5zM149.4 141.9l-1.9-1.5 3.4-4.2-2.8-2.2-3.2 3.9-1.9-1.5 3.2-3.9-3.1-2.5-3.5 4.3-1.9-1.5 5.4-6.7 11.7 9.4-5.4 6.4z"/><path d="M85.4 42.2c-23.7 0-42.8 19.2-42.8 42.8 0 23.7 19.2 42.8 42.8 42.8 23.7 0 42.8-19.2 42.8-42.8.1-23.6-19.1-42.8-42.8-42.8z" fill="#fff"/><g><path class="st142" d="M104.5 93.8c-4.3-2.1-9-3.4-13.8-3.9.2-1.1.3-2.3.5-3.4 1.1-.7 1.8-1.7 1.9-2.5.1-1.1.2-2.1.4-3.1.1.2.3.3.6.3.5 0 1-.3 1-.8l.5-4.8c.1-.5-.3-.9-.8-1-.2 0-.4 0-.5.1.1-.9.2-1.8.3-2.8.1-1.2.7-4.6-1.7-6.8-3.5-3.4-11.2-3.4-14.7 0-2.4 2.2-1.8 5.5-1.7 6.8.1.9.2 1.8.3 2.8-.2-.1-.3-.1-.5-.1-.5.1-.9.5-.8 1l.5 4.8c.1.5.5.9 1 .8.2 0 .4-.1.6-.3.1 1 .2 2.1.4 3.1.1.8.8 1.8 1.9 2.5.2 1.1.3 2.3.5 3.4-4.7.6-9.4 1.9-13.8 3.9-1.6.8-2.6 2.7-2.5 4.2.2 1.7.3 3.4.5 5.1.2 1.5 1.4 2.9 2.8 3.2 11.9 1.9 24 1.9 36 0 1.4-.3 2.7-1.7 2.8-3.2.2-1.7.3-3.4.5-5.1.2-1.5-.8-3.4-2.2-4.2z"/><path d="M104.5 93.8c-4.3-2.1-9-3.4-13.8-3.9.2-1.1.3-2.3.5-3.4 1.1-.7 1.8-1.7 1.9-2.5.1-1.1.2-2.1.4-3.1.1.2.3.3.6.3.5 0 1-.3 1-.8l.5-4.8c.1-.5-.3-.9-.8-1-.2 0-.4 0-.5.1.1-.9.2-1.8.3-2.8.1-1.2.7-4.6-1.7-6.8-1.7-1.6-4.3-2.5-6.9-2.6v45.2c5.9 0 11.7-.5 17.5-1.4 1.4-.3 2.7-1.7 2.8-3.2.2-1.7.3-3.4.5-5.1.1-1.5-.9-3.4-2.3-4.2z" fill="#1995a4"/></g><path class="st142" d="M15 148.8h135.6v10.7H15z"/></svg>