<svg version="1.1" id="Layer_1" xmlns="http://www.w3.org/2000/svg" x="0" y="0" viewBox="0 0 211.3 130.1" xml:space="preserve"><style>.st26{fill:#fff}.st113{fill:#60bb9f}</style><path d="M210.3 54.9c0-21.6-17.5-39.1-39.1-39.1-7.9 0-15.2 2.3-21.3 6.3C139.9 9.3 124.3 1 106.8 1 92.4 1 79.4 6.6 69.6 15.7c-6.8-4-14.7-6.3-23.1-6.3C21.4 9.4 1 29.8 1 54.9s20.4 45.5 45.5 45.5c8.2 0 15.9-2.2 22.5-6a54.6 54.6 0 0023.1 13.3c8 12.8 22.3 21.4 38.5 21.4 21.6 0 39.7-15 44.3-35.2 19.9-1.9 35.4-18.7 35.4-39z" fill="#221e20" stroke="#fff" stroke-width="2" stroke-miterlimit="10"/><path d="M171.2 20.7c-8.8 0-16.8 3.3-22.8 8.7-8.7-13.8-24-23-41.5-23-14.3 0-27.2 6.1-36.1 15.9-6.8-5-15.1-8-24.2-8-22.4 0-40.5 18.1-40.5 40.5s18.1 40.5 40.5 40.5c8.8 0 17-2.8 23.7-7.6 6.4 7.3 15 12.6 24.8 15.1 6.9 12.7 20.3 21.3 35.7 21.3 20.5 0 37.5-15.3 40.2-35.1h.4c18.9 0 34.2-15.3 34.2-34.2-.3-18.8-15.6-34.1-34.4-34.1z" fill="#221e20"/><path class="st26" d="M130.6 124.9c-15.1 0-28.9-8.2-36.2-21.4-9.4-2.4-17.8-7.5-24.3-14.7-6.9 4.8-15.1 7.4-23.6 7.4-22.8 0-41.3-18.5-41.3-41.3 0-22.8 18.5-41.3 41.3-41.3 8.7 0 17.1 2.7 24.1 7.8 9.4-10 22.5-15.7 36.2-15.7 16.9 0 32.4 8.4 41.7 22.6 6.3-5.4 14.3-8.4 22.7-8.4 19.3 0 34.9 15.7 34.9 34.9s-15.5 34.8-34.7 34.9c-3 20.1-20.5 35.2-40.8 35.2zM70.3 86.8l.4.5c6.5 7.4 14.9 12.5 24.4 14.9l.3.1.2.3c7 12.9 20.4 20.9 35 20.9 19.8 0 36.8-14.8 39.4-34.4l.1-.7h1.1c18.4 0 33.4-15 33.4-33.4s-15-33.4-33.4-33.4c-8.3 0-16.2 3-22.3 8.5l-.7.6-.5-.7c-8.9-14.2-24.2-22.7-40.9-22.7C93.3 7.3 80.3 13 71.2 23l-.5.5-.4-.5c-6.9-5.2-15.1-7.9-23.8-7.9-22 0-39.8 17.9-39.8 39.8s17.9 39.8 39.8 39.8c8.4 0 16.4-2.6 23.2-7.5l.6-.4z"/><path class="st113" d="M47 74.8c-6.8 0-11.8-1.3-14.8-3.8l-.1-.1-.1.2-5.9.9c-2.9 0-5.3-1.8-5.3-3.9v-9.4c0-3.4.1-7.1 1.5-8.5.4-.4.8-.6 1.3-.6H25c.6-1.8 1.9-3.7 4.6-5.2 1.2-.6 2.5-1.1 3.8-1.4.7-.1 6.8-1.4 9.9-1.5h.8c1.6-.1 2.9-.1 3.9-.1.9 0 1.5 0 2.1.1l7.5 2.2c.9.4 1.6.8 2.1 1.3h22.1c2.1 0 3.7 1.7 3.7 3.7 0 2.1-1.7 3.7-3.7 3.7H56.2c-1.9 0-3.4 1.5-3.4 3.4 0 1.4.9 2.7 2.3 3.2l1.1.4-1.1.4c-1.4.5-2.3 1.8-2.3 3.2 0 1.4.9 2.7 2.2 3.2l1 .4-1 .4c-1.3.5-2.2 1.8-2.2 3.2 0 1.4.9 2.7 2.2 3.2l1.5.6-1.6.2c-1.9.3-4.7.6-7.9.6z"/><path class="st26" d="M48 41.8c.8 0 1.5 0 2 .1l7.4 2.2c.9.4 1.6.8 2 1.3l.1.1.1.1c.2.2.3.5.4.8V47.5c-.2 1.5-1.5 2.6-3 2.6h-.4L49.4 48h-.1l-5.2.1c-.1 0-.3.1-.3.2-1.1 5.7-3.6 7.8-5.6 9v.2c.1.1.2.1.3.1h.2c3.1-1.9 4.9-4.7 5.8-9.2l5-.1 7.2 2.1h.5c1.8 0 3.3-1.3 3.6-3.1.1-.8 0-1.6-.5-2.2h21.6c1.8 0 3.3 1.5 3.3 3.3s-1.5 3.3-3.3 3.3H56.2c-2.1 0-3.8 1.7-3.8 3.8 0 1.7 1.1 3.1 2.6 3.6-1.5.5-2.6 1.9-2.6 3.6 0 1.6 1 3 2.4 3.6-1.4.6-2.4 1.9-2.4 3.6 0 1.6 1 3 2.5 3.6-1.7.2-4.6.5-7.8.5-5.1 0-11-.7-14.6-3.7.5-.8 1-1.8 1.5-3.1.1-.2 0-.3-.2-.4h-.1c-.1 0-.2.1-.3.2-.6 1.5-1.2 2.6-1.7 3.3L26 71.6c-2.6 0-4.8-1.6-4.8-3.5v-8.9c0-1.9-.2-9.1 2.4-9.1h1.1c-.3 1.1-.4 2.2-.3 3 0 .2.1.3.3.3.1 0 .2-.1.3-.2v-.1-.1-.1-.1-.2-.2-.2-.2-.2c.2-2.1 1.2-4.9 4.8-6.8 1.2-.6 2.4-1.1 3.7-1.4.2 0 6.7-1.4 9.8-1.5h.8c1.6-.2 2.9-.3 3.9-.3m0-.8c-1 0-2.3.1-3.9.1h-.8c-3.1.1-9.3 1.4-10 1.5-1.3.3-2.6.8-3.8 1.5-2.7 1.4-4.1 3.3-4.7 5.1h-1.1c-.6 0-1.1.2-1.6.7-1.5 1.5-1.7 5.3-1.6 8.8V68c0 2.4 2.5 4.3 5.6 4.3h.2l5.7-.9h.2c3.1 2.5 8.1 3.7 14.9 3.7 3.2 0 6.1-.3 7.9-.5l3.2-.4-3-1.2c-1.2-.4-1.9-1.6-1.9-2.8 0-1.2.8-2.4 1.9-2.8l2-.8-2-.8c-1.2-.4-1.9-1.6-1.9-2.8 0-1.2.8-2.3 1.9-2.8h4.7l-4.5-1.6c-1.2-.4-2-1.6-2-2.8 0-1.7 1.3-3 3-3H81.7c2.3 0 4.2-1.9 4.2-4.2s-1.9-4.2-4.2-4.2H59.8c-.5-.5-1.2-.9-2-1.2L50.4 41H48z"/><path class="st113" d="M56.3 59.7c-2.1 0-3.8-1.7-3.8-3.8 0-2.1 1.7-3.8 3.8-3.8h14.3c2.1 0 3.8 1.7 3.8 3.8 0 2.1-1.7 3.8-3.8 3.8H56.3z"/><path class="st26" d="M70.6 52.6c1.9 0 3.4 1.5 3.4 3.4 0 1.8-1.5 3.4-3.4 3.4H56.3c-1.9 0-3.4-1.5-3.4-3.4 0-1.8 1.5-3.4 3.4-3.4h14.3m0-.9H56.3c-2.3 0-4.3 1.9-4.3 4.2s1.9 4.2 4.3 4.2h14.3c2.3 0 4.3-1.9 4.3-4.2s-1.9-4.2-4.3-4.2z"/><g><path class="st113" d="M56.3 66.9c-2.1 0-3.8-1.7-3.8-3.8 0-2.1 1.7-3.8 3.8-3.8h11.1c2.1 0 3.8 1.7 3.8 3.8 0 2.1-1.7 3.8-3.8 3.8H56.3z"/><path class="st26" d="M67.4 59.8c1.9 0 3.4 1.5 3.4 3.4 0 1.8-1.5 3.4-3.4 3.4H56.3c-1.9 0-3.4-1.5-3.4-3.4 0-1.8 1.5-3.4 3.4-3.4h11.1m0-.9H56.3c-2.3 0-4.3 1.9-4.3 4.2 0 2.3 1.9 4.2 4.3 4.2h11.1c2.3 0 4.3-1.9 4.3-4.2 0-2.3-2-4.2-4.3-4.2z"/></g><g><path class="st113" d="M56.3 74.1c-2.1 0-3.8-1.7-3.8-3.8 0-2.1 1.7-3.8 3.8-3.8h8.5c2.1 0 3.8 1.7 3.8 3.8 0 2.1-1.7 3.8-3.8 3.8h-8.5z"/><path class="st26" d="M64.8 66.9c1.9 0 3.4 1.5 3.4 3.4 0 1.8-1.5 3.4-3.4 3.4h-8.5c-1.9 0-3.4-1.5-3.4-3.4 0-1.8 1.5-3.4 3.4-3.4h8.5m0-.8h-8.5C54 66.1 52 68 52 70.3c0 2.3 1.9 4.2 4.3 4.2h8.5c2.3 0 4.3-1.9 4.3-4.2-.1-2.3-2-4.2-4.3-4.2z"/></g><g><path class="st26" d="M93.9 65.8h3.6v10.8h4.4v2.9h-8V65.8zM102.9 65.8h8.2v2.9h-4.6v2.4h4.3v2.8h-4.3v2.7h4.7v2.9h-8.3V65.8zM114.5 68.9h-2.7v-3h9v3h-2.7v10.7h-3.6V68.9zM121.7 65.8h3.2v3.5c0 2.5-1 3.7-3.2 3.7v-1.7c.9-.1 1.2-.6 1.2-1.6v-.2h-1.2v-3.7zM132.1 69.8v-.3c0-.8-.3-1.5-1-1.5-.8 0-1.1.6-1.1 1.2 0 2.7 5.9 1.4 5.9 6.4 0 2.9-1.7 4.2-4.9 4.2-3 0-4.6-1-4.6-3.9v-.5h3.5v.3c0 1.2.5 1.6 1.2 1.6s1.2-.6 1.2-1.3c0-2.7-5.6-1.4-5.6-6.3 0-2.8 1.5-4.3 4.5-4.3 3.1 0 4.5 1.3 4.5 4.2h-3.6zM147.8 70c0-1.6-.3-2-1-2-1.1 0-1.2 1-1.2 4.7s.1 4.7 1.2 4.7c.9 0 1.1-.8 1.1-3.4h3.5v1c0 3.9-2.3 4.8-4.6 4.8-4 0-4.9-2-4.9-7.2 0-5.3 1.2-7.2 4.9-7.2 3.2 0 4.5 1.7 4.5 4.4v.9h-3.5V70zM152.8 65.8h3.6v5.1h2.2v-5.1h3.6v13.8h-3.6v-5.7h-2.2v5.7h-3.6V65.8zM166.2 65.8h4.5l3.4 13.8h-3.8l-.4-2.4H167l-.4 2.4h-3.8l3.4-13.8zm2.3 2.8l-1 5.8h2l-1-5.8zM175.6 68.9h-2.7v-3h9v3h-2.7v10.7h-3.6V68.9z"/></g><g><path class="st26" d="M94 44h4.8v6.7h2.9V44h4.8v18.4h-4.8v-7.6h-2.9v7.6H94V44zM108.9 44h10.9v3.9h-6.1V51h5.7v3.8h-5.7v3.7h6.3v3.9h-11.1V44zM125.1 55.1L120.4 44h5.3l1.8 6.4h.1l1.8-6.4h5.3L130 55.2v7.2h-4.8v-7.3zM144.5 55.1L139.8 44h5.3l1.8 6.4h.1l1.8-6.4h5.3l-4.7 11.2v7.2h-4.8v-7.3zM160.1 43.6c4.9 0 6.6 2.7 6.6 9.6s-1.7 9.6-6.6 9.6c-4.9 0-6.6-2.7-6.6-9.6s1.7-9.6 6.6-9.6zm0 15.9c1.5 0 1.6-1.3 1.6-6.3s-.2-6.3-1.6-6.3c-1.5 0-1.6 1.3-1.6 6.3s.2 6.3 1.6 6.3zM173.1 44v13.3c0 1.8.5 2.2 1.4 2.2.9 0 1.4-.5 1.4-2.2V44h4.8v12c0 5.2-2.2 6.7-6.2 6.7s-6.2-1.5-6.2-6.7V44h4.8z"/></g></svg>