<svg version="1.1" id="Layer_1" xmlns="http://www.w3.org/2000/svg" x="0" y="0" viewBox="0 0 252.3 56.7" xml:space="preserve"><style>.st26{fill:#fff}.st219{fill:#4db173}</style><path class="st219" d="M0 .3h49.4v56.4H0zM56.1.5h7.1v21.4h8.7v5.8H56.1V.5zM73.7.5h16.1v5.8h-9V11h8.4v5.6h-8.4V22h9.4v5.8H73.7V.5zM96.3 6.5H91v-6h17.7v6h-5.3v21.2h-7.1V6.5zM110.4.5h6.4v6.8c0 4.9-1.9 7.3-6.4 7.4v-3.3c1.8-.2 2.4-1.2 2.4-3.2v-.4h-2.4V.5zM130.8 8.4v-.7c0-1.6-.6-2.9-2-2.9-1.5 0-2.2 1.2-2.2 2.4 0 5.4 11.6 2.7 11.6 12.7 0 5.8-3.4 8.4-9.6 8.4-5.9 0-9.1-2-9.1-7.7v-1h6.9v.6c0 2.3 1 3.2 2.3 3.2 1.4 0 2.3-1.1 2.3-2.6 0-5.4-11.1-2.7-11.1-12.3 0-5.5 2.9-8.5 8.9-8.5 6.2 0 8.8 2.6 8.8 8.4h-6.8zM161.1 8.4v-.7c0-1.6-.6-2.9-2-2.9-1.5 0-2.2 1.2-2.2 2.4 0 5.4 11.6 2.7 11.6 12.7 0 5.8-3.4 8.4-9.6 8.4-5.9 0-9.1-2-9.1-7.7v-1h6.9v.6c0 2.3 1 3.2 2.3 3.2 1.4 0 2.3-1.1 2.3-2.6 0-5.4-11.1-2.7-11.1-12.3C150.1 3 153 0 159 0c6.2 0 8.8 2.6 8.8 8.4h-6.7zM171 .5h7.1v10h4.3V.5h7.1v27.2h-7.1V16.5h-4.3v11.2H171V.5zM197.3.5h8.9l6.6 27.2h-7.5l-.7-4.8H199l-.7 4.8h-7.5L197.3.5zm4.5 5.6l-2 11.5h4l-2-11.5zM214 .5h11.1c5.4 0 7.5 3 7.5 7.2 0 3.6-1.4 6-4.6 6.5v.1c3.4.3 4.5 2.5 4.5 6.1v2.3c0 1.4 0 3.2.3 3.8.2.3.3.6.8.8v.4h-7.5c-.7-1.4-.7-4-.7-5.2v-1.8c0-3.1-.6-3.9-2.3-3.9h-1.9v10.9H214V.5zm7.1 11.5h1.4c2 0 3-1.3 3-3.2 0-2.2-.9-3.2-3-3.2h-1.4V12zM235.8.5h16.1v5.8h-9V11h8.4v5.6h-8.4V22h9.4v5.8h-16.4V.5z"/><g><path class="st219" d="M61.3 32.1c6.1 0 8.2 3.4 8.2 12s-2.1 12-8.2 12-8.2-3.4-8.2-12c0-8.7 2.1-12 8.2-12zm0 19.9c1.8 0 2-1.7 2-7.9s-.2-7.9-2-7.9-2 1.7-2 7.9.2 7.9 2 7.9zM77.5 32.5v16.7c0 2.2.7 2.8 1.8 2.8s1.8-.6 1.8-2.8V32.5h6v15.1c0 6.5-2.8 8.4-7.8 8.4s-7.8-1.9-7.8-8.4V32.5h6zM89.7 32.5h9.4c4.6 0 6.3 2.6 6.3 6.1 0 3.1-1.2 5.1-3.9 5.5v.1c2.9.3 3.8 2.1 3.8 5.2v2c0 1.2 0 2.7.3 3.2.2.3.3.5.7.7v.3h-6.4c-.6-1.2-.6-3.4-.6-4.4v-1.6c0-2.6-.5-3.3-2-3.3h-1.6v9.3h-6V32.5zm6 9.8h1.2c1.7 0 2.5-1.1 2.5-2.8 0-1.9-.7-2.7-2.6-2.7h-1.2v5.5zM118.5 37.6H114v-5.1h15.1v5.1h-4.5v18h-6v-18zM130.4 32.5h6V41h3.7v-8.5h6v23.1h-6v-9.5h-3.7v9.5h-6V32.5zM156.6 32.1c6.1 0 8.2 3.4 8.2 12s-2.1 12-8.2 12-8.2-3.4-8.2-12c-.1-8.7 2-12 8.2-12zm0 19.9c1.8 0 2-1.7 2-7.9s-.2-7.9-2-7.9-2 1.7-2 7.9c-.1 6.2.1 7.9 2 7.9zM172.7 32.5v16.7c0 2.2.7 2.8 1.8 2.8s1.8-.6 1.8-2.8V32.5h6v15.1c0 6.5-2.8 8.4-7.8 8.4s-7.8-1.9-7.8-8.4V32.5h6zM192.7 43.1h7.8v12.6h-4.1l-.1-2h-.1c-.8 2-2.9 2.5-5 2.5-6.1 0-6.7-4.4-6.7-12 0-7.7 1.5-12 8.6-12 4.3 0 7.3 2.2 7.3 7.8h-5.8c0-1.2-.1-2.1-.3-2.7-.2-.6-.7-1-1.4-1-2 0-2.2 1.7-2.2 7.9s.2 7.9 2 7.9c1.3 0 2-.8 2-4.9h-2.1v-4.1zM202.9 32.5h6V41h3.7v-8.5h6v23.1h-6v-9.5H209v9.5h-6V32.5zM224.6 37.6H220v-5.1h15.1v5.1h-4.5v18h-6v-18zM245.4 39.2v-.6c0-1.4-.5-2.5-1.7-2.5-1.3 0-1.9 1-1.9 2 0 4.6 9.8 2.3 9.8 10.8 0 4.9-2.9 7.1-8.2 7.1-5 0-7.8-1.7-7.8-6.5v-.8h5.8v.6c0 2 .8 2.7 2 2.7s1.9-1 1.9-2.2c0-4.6-9.4-2.3-9.4-10.5 0-4.7 2.5-7.2 7.6-7.2 5.2 0 7.5 2.2 7.5 7.1h-5.6z"/></g><g><path class="st26" d="M11.7 34c-3 0-5.5-2.5-5.5-5.5S8.7 23 11.7 23s5.5 2.5 5.5 5.5-2.4 5.5-5.5 5.5zm0-9.3c-2.1 0-3.9 1.7-3.9 3.9 0 2.1 1.7 3.9 3.9 3.9 2.1 0 3.9-1.7 3.9-3.9s-1.7-3.9-3.9-3.9zM37.6 20.1c-3 0-5.5-2.5-5.5-5.5s2.5-5.5 5.5-5.5 5.5 2.5 5.5 5.5-2.4 5.5-5.5 5.5zm0-9.4c-2.1 0-3.9 1.7-3.9 3.9 0 2.1 1.7 3.9 3.9 3.9 2.1 0 3.9-1.7 3.9-3.9 0-2.1-1.7-3.9-3.9-3.9zM37.6 47.9c-3 0-5.5-2.5-5.5-5.5s2.5-5.5 5.5-5.5 5.5 2.5 5.5 5.5c0 3.1-2.4 5.5-5.5 5.5zm0-9.3c-2.1 0-3.9 1.7-3.9 3.9 0 2.1 1.7 3.9 3.9 3.9 2.1 0 3.9-1.7 3.9-3.9s-1.7-3.9-3.9-3.9z"/><g><path class="st26" d="M32.8 40.8c-.1 0-.3 0-.4-.1l-16.6-9.6c-.4-.2-.5-.7-.3-1.1.2-.4.7-.5 1.1-.3l16.6 9.6c.4.2.5.7.3 1.1-.1.2-.4.4-.7.4zM16.2 27.5c-.3 0-.6-.1-.7-.4-.2-.4-.1-.9.3-1.1l16.6-9.6c.4-.2.9-.1 1.1.3.2.4.1.9-.3 1.1l-16.6 9.6c-.1.1-.3.1-.4.1z"/></g></g></svg>