<svg version="1.1" id="Layer_1" xmlns="http://www.w3.org/2000/svg" x="0" y="0" viewBox="0 0 245.4 138.9" xml:space="preserve"><style>.st12{fill:#000100}.st26{fill:#fff}</style><path class="st12" d="M3.2 126H0v-3.6h10.6v3.6H7.4v12.7H3.2V126zM13 122.4h5.3l4 16.3h-4.5l-.4-2.8H14l-.4 2.8H9l4-16.3zm2.7 3.3l-1.2 6.9h2.4l-1.2-6.9zM23 122.4h4.2v12.8h5.2v3.5H23v-16.3zM33.4 122.4h4.2v6.2l3.1-6.2h4.5l-4.1 7.1 4.6 9.2H41l-2.5-5.7-.9 1.4v4.3h-4.2v-16.3zM53.4 126h-3.2v-3.6h10.6v3.6h-3.2v12.7h-4.2V126zM67.1 122c4.3 0 5.8 2.4 5.8 8.4 0 6.1-1.5 8.4-5.8 8.4s-5.8-2.4-5.8-8.4 1.5-8.4 5.8-8.4zm0 14.1c1.3 0 1.4-1.2 1.4-5.6 0-4.4-.1-5.6-1.4-5.6-1.3 0-1.4 1.2-1.4 5.6 0 4.4.1 5.6 1.4 5.6zM84.4 122.4v11.7c0 1.6.5 2 1.3 2s1.3-.4 1.3-2v-11.7h4.2V133c0 4.6-2 5.9-5.5 5.9-3.6 0-5.5-1.4-5.5-5.9v-10.7h4.2zM99.4 127.1v-.4c0-1-.4-1.8-1.2-1.8-.9 0-1.3.7-1.3 1.4 0 3.2 6.9 1.6 6.9 7.6 0 3.5-2 5-5.8 5-3.5 0-5.5-1.2-5.5-4.6v-.6h4.1v.4c0 1.4.6 1.9 1.4 1.9.9 0 1.4-.7 1.4-1.6 0-3.2-6.6-1.6-6.6-7.4 0-3.3 1.8-5.1 5.3-5.1 3.7 0 5.3 1.5 5.3 5h-4zM104.5 134.1h3.8v4.5h-3.8v-4.5zM121.4 122.4h3.8l1.7 11.2 1.1-11.2h4.1l-2.8 16.3h-4.6l-1.4-10.9-1.4 10.9h-4.6l-2.8-16.3h4.1l1.3 11.2 1.5-11.2zM133.1 122.4h9.6v3.5h-5.4v2.8h5.1v3.3h-5.1v3.2h5.6v3.5h-9.8v-16.3zM152.3 122.4h5.3l4 16.3H157l-.4-2.8h-3.4l-.4 2.8h-4.5l4-16.3zm2.6 3.3l-1.2 6.9h2.4l-1.2-6.9zM162.3 122.4h6.6c3.2 0 4.5 1.8 4.5 4.3 0 2.2-.8 3.6-2.8 3.9 2 .2 2.7 1.5 2.7 3.6v1.4c0 .8 0 1.9.2 2.3.1.2.2.4.5.5v.2h-4.5c-.4-.9-.4-2.4-.4-3.1v-1.1c0-1.8-.4-2.3-1.4-2.3h-1.1v6.5h-4.2v-16.2zm4.2 6.8h.8c1.2 0 1.8-.8 1.8-1.9 0-1.3-.5-1.9-1.8-1.9h-.8v3.8zM175.3 122.4h9.6v3.5h-5.4v2.8h5.1v3.3h-5.1v3.2h5.6v3.5h-9.8v-16.3zM192.6 122.4h4.2v6h2.6v-6h4.2v16.3h-4.2V132h-2.6v6.7h-4.2v-16.3zM205.7 122.4h9.6v3.5h-5.4v2.8h5.1v3.3h-5.1v3.2h5.6v3.5h-9.8v-16.3zM217.1 122.4h6.6c3.2 0 4.5 1.8 4.5 4.3 0 2.2-.8 3.6-2.8 3.9 2 .2 2.7 1.5 2.7 3.6v1.4c0 .8 0 1.9.2 2.3.1.2.2.4.5.5v.2h-4.5c-.4-.9-.4-2.4-.4-3.1v-1.1c0-1.8-.4-2.3-1.4-2.3h-1.1v6.5h-4.2v-16.2zm4.2 6.8h.8c1.2 0 1.8-.8 1.8-1.9 0-1.3-.5-1.9-1.8-1.9h-.8v3.8zM230.2 122.4h9.6v3.5h-5.4v2.8h5.1v3.3h-5.1v3.2h5.6v3.5h-9.8v-16.3zM241.6 134.1h3.8v4.5h-3.8v-4.5z"/><circle transform="rotate(-26.839 80.818 58.302)" cx="80.8" cy="58.3" fill="#f1dc25" r="58.3"/><g><path class="st26" d="M70.5 18.7h20.6v60H70.5z"/><path class="st26" d="M80.8 97.9l30.5-31.3V46.1L80.9 77.4C70.7 67 60.6 56.5 50.4 46.1l-.1 20.6 30.5 31.2z"/></g></svg>