<svg version="1.1" id="Layer_1" xmlns="http://www.w3.org/2000/svg" x="0" y="0" viewBox="0 0 199.7 283.3" xml:space="preserve"><style>.st26{fill:#fff}.st107{fill:#221e20}.st396{fill:#373a1a}.st398{fill:none;stroke:#fff;stroke-width:1.5;stroke-dasharray:4}</style><path class="st396" d="M0 198.5c18.7-2.1 32.5-9.6 32.5-18.5V3h128.9v177c0 8.9 13.9 16.5 32.5 18.5l-97.8 84.8L0 198.5z"/><path d="M5.7 195.5c18.7-2.1 32.5-9.6 32.5-18.5V0h128.9v177c0 8.9 13.9 16.5 32.5 18.5l-97.8 84.8-96.1-84.8z" fill="#758f2a"/><path class="st398" d="M21.5 199.9c14.6-4.5 23.4-12.8 23.4-22.9V7.5h115.6V177c0 10 8.8 18.3 23.3 22.9l-81.9 71-80.4-71z"/><path class="st396" d="M158.1 35.6c-.1 0-.2 0-.2.1.1.1.2.1.2.1.1-.1.1-.2 0-.2zm-21.7-2.3v.1c0-.1.1-.1 0-.1zm-14.8-6c0 .1 0 .1 0 0 0 .1 0 .1 0 0zm5 .4c-.2.7-.4 1.3-.5 1.9.2.2.4.4.7.6.4-1.1.2-1.9-.2-2.5zm27.7 4.8c.2-.2.5-.7.4-1 0 0-.1-.1-.2-.1l.1-.1c.2-.2.2-.4.1-.5-.3.4-.5.9-.8 1.4.1.1.3.3.4.3zm-7.1-.4c-.2-.1-.3 0-.3.4.1-.2.2-.3.3-.4zm0 .4v.4c.1-.2.1-.3 0-.4.2-.3 0-.3 0 0zm-11.3 1.1c.3-.2.5-.3.5-.4 0-.3-.4-.2-.5.4zM110.3 5.8c-.6 0-1.2.1-1.9.2 0 .2.1.4.3.4.4 0 1.1-.2 1.5-.5l.1-.1zm14.2 2.6c0 .2.1.3 0 0zm-20.6 2.3c.1.1.1.1 0 0 .1-.1 0 0 0 0zM124.4 8c.1-.1 0-.4-.1-.6-.1 0-.2-.1-.3-.1-.3.3-.6.6-.5.8 0 .5.8.8 1 .3-.1-.1-.1-.3-.1-.4zM73.8 194.1c-.1-.2-.3-.6-.4-.7-.1.1 0 .5.1.7 0 0 0 .1.1.1-.2 0-.3.1-.2.2.1 0 .2.1.4.2.1-.1.2-.2.3-.2-.1-.2-.2-.3-.3-.3zm9.3-1.1c-.1 0-.1.2 0 .2s.3-.1.4-.2c-.1 0-.3-.1-.4 0zm-26.8-.2c-.1 0-.1.1-.1.1 0-.1 0-.1.1-.1zm13.7.1c-.1 0-.1 0 0 0h.1c-.1-.1-.1-.1-.1 0zm56.6-181.6c.3.1.5.1.8.2-.2-.3-.6-.4-.8-.2zM85.8 193c0 .1-.1.2-.1.3.1.1.2.2.3.2 0-.2-.1-.4-.2-.5zm-15.9-.1h-.1c0 .1 0 .1.1.1-.1.1-.1 0 0-.1zM131 17.8c.1.4.1.3.3-.2 0-.2-.2-.4-.5-.7-.1.1-.1.2-.2.2.2.3.4.6.4.7zm-42.3-3.2h-.1l-.1-.1c-.1.1-.3.2-.4.4.2-.1.3-.1.4-.2 0 .1-.1.4 0 .5.1-.1.2-.3.2-.5.1 0 0-.1 0-.1zm15 .1c-.2 0-.2.1-.1.3l.2-.2-.1-.1zm-36.4 8.9c.1 0 .1-.1.1-.1 0-.2-.3-.4-.4-.5 0 .1-.1.2-.1.4.2.1.3.1.4.2zm37.2-9.2c-.3-.4-.9-.5-.6-.2 0 .1.1.3.2.6.1-.1.2-.3.4-.4zm-16.9 1.1c-.1.1-.1.2-.2.2l.3.6c.4.1.1-.3-.1-.8zm13.3.4c-.1.5-1.2 1.7-1.1 2.2 0-.4 1-1.7 1.1-2.2zm25.7 1.1c.1.1.4.4.6.8.1-.1.2-.3.3-.4-.4-.3-1.1-.5-.9-.4zm-25.7-1.1c.1-.5 0-.5 0 0zm2.3 11.1c.1.1.1.3.1.4.3 0 .4-.2-.1-.4zm-12-11.6c-.4-.3-1.4-.5-1.7-.3-.3.3 0 .9.4 1.3.5-.4.9-.7 1.3-1zm6.1.9c.6-.4-.4-.4-1.8-.2.3-.4.2-.7-.3-.3-1 .3-2.3.8-3 1.1h3.3c.8-.1 1.6-.3 1.8-.6zm15.3-6.6c.1 0 .1 0 0 0 0-.3 0-.3 0 0zm-23.4 1h.1-.1zm.6.1h-.6c-.7.2-.6.5.2.5.4-.1 1-.4 1.6-.7-.5-.1-1 0-1.2.2zm-.5 7.7c.5.4.1.2 0-.4.1-.5.1-1.4-.4-1.7-.5-.5-1.6-.5-1.5.1-.5.5.6 1.6 1.1 2-.1.7.3.6.8 0zm43.4-5.3c-.2-.1-.6 0-.8.2.1.2.4.4.6.5.2-.2.3-.5.2-.7zM98.3 4.8c0-.3 0-.7.2-.9.3-.3-.5.2-.2.9zm58.7.4c.2.6 0 .5.2-.1.2-.5 2.1-1.5 1.9-2 .1-.5-.2-.4-.3.2-.2.6-1.8 1.5-1.8 1.9zm-33 11.4c.1.2.1.3 0 0zM78.9 3.1c.5-.1.4-.1 0 0zm84.2 3.8c-.9 0-1.9.2-2.3.5-.1.1 0 .4.1.6.9-.2 1.7-.3 2.6-.5-.1-.2-.3-.4-.4-.6zm-50.5 2.8c-.6-.7 0 .7.6 2.3.2.2.3.4.5.6-.2-.2-.3-.4-.3-.5-.3-1.1-.6-2-.8-2.4zm-3.5-4.8c-.3 0-.9-.1-1.5-.4 0 .1.1.1.1.2.5.7 1 1.3 1.4 1.6.2-.2.3-.4.5-.7-.1-.2-.2-.4-.5-.7zM51.8 23.7c-.2-.1-.3-.3-.5-.4l-.1-.1c-.2-.2-.4-.4-.7-.6-.1.1-.2.1-.2.2h-.1c-.1-.1-.4-.2-.6-.2 0 .1.2.2.4.3h.1c0 .1.1.1.1.2.2.3.8.8 1.1.9l.1-.1s0 .1.1.1c.1.3.1.4.1.2 0 0 .2-.3.2-.5zm93.8.2c-.1-.3-.3-.7-.4-1v.3c-.1.4.1.6.4.7zm-37.8-.6c-.1-.2-.2-.4-.3-.5-.2.1-.4.2-.4.1 0 .4.5.6.7.4zm39.7-.7l.4-.4c-.2.1-.3.3-.4.4zm-43.9.6c-.2-.1-.3-.2-.4-.3-.3 0-.1.3.2.7 0 .1.1.1.1.2h-.1c-.4.2-.5.8-.2 1 .2.1.9 0 1.2-.2.2.1.4 0 .6-.1.1 0 .1 0 .1-.1v-.1l.1-.1-.4-.4v.1c-.2-.1-.3-.2-.6-.3-.1-.3-.2-.6-.4-.9-.3-.5-1.1-.6-.7-.3.3.1.4.4.5.8zm20.7-8.6c.1-.4-1.2-.3-1 .2.1.1.2.3.3.5.3-.2.6-.5.7-.7zm26.8 2.3c.2-.5.3-.9.4-1.4-.4.5-.8.9-.7 1 0 .2.1.4.3.4zm-23.8 3.7c-.2-1.1-1-1.6-1.4-.9-.4.8-1.1 2.5-1 3.6.8-.7 2.3-1.9 2.4-2.7zm-3.3-4c0-.1-.1-.3-.1-.4.1-.2-.1-.5-.3-.8-.4.3-.8.7-.7.9 0 .4.8.7 1.1.3zm1 7v-.3c-.2.1-.3.3-.4.4-.5 1.1.2 1.1.4-.1zM101.1 4.8c.2.2.4.3.5.5 0-.2-.2-.3-.5-.5zm-8.8 186.1h-.4c.3 0 .6 0 .9.1 1 0 .8-.1-.5-.1zM109.6 15c.2-.1.7-.2 1-.2-.2-.1-.5-.2-.8-.2-.1.1-.2.2-.2.4-.1 0 0 0 0 0zm21.2 202.7c-.2-1.1-1-1.6-1.4-.9-.4.8-1.1 2.5-1 3.6.8-.7 2.2-1.9 2.4-2.7zm-2.4 3v-.3l-.4.4c-.4 1.1.2 1.1.4-.1zm22.6-1.1l.4-.4c-.3.2-.4.3-.4.4zm-77.8-.7c0-.1 0-.1 0 0 0-.1 0-.1 0 0zm75.9 2.1c-.1-.3-.3-.7-.4-1v.3c-.2.3 0 .5.4.7zm-97.2-3.1c-.1 0-.1 0-.2.1.1 0 .2.1.2.1.1 0 .1 0 .1-.1.1 0 0-.1-.1-.1zM134 223c.1.4.1.3.3-.2-.1-.4-1.3-1.4-1.4-1.7-.2.5.9 1.6 1.1 1.9zm-67.5-5.7c.6.5 1.3 1 1.9 1.6.2-.2.3-.4.3-.5 0-.7-1.1-1-2.2-1.1zm-11.3 3.5c-.2-.1-.3-.3-.5-.4l-.1-.1c-.2-.2-.4-.4-.7-.6-.1.1-.2.1-.2.2h-.1c-.1-.1-.4-.2-.6-.1 0 .1.2.2.4.3h.1c0 .1.1.1.1.2.2.3.8.8 1.1.9l.1-.1s0 .1.1.1c.1.3.1.4.1.2.1-.2.2-.4.2-.6zm-11-2zm2.9-.2c-.3-.2-.4-.2 0 0zm56.7 2.6c.1-.6 0-.6 0 0zm0 0c-.1.5-1.2 1.7-1.1 2.2.1-.5 1.1-1.7 1.1-2.2zm23.7-7.6c-.1 0-.1 0 0 0 0 .3.1.3 0 0zm-.1.1c0-.1-.1-.3-.1-.4.1-.2-.1-.5-.3-.8-.4.3-.8.7-.7.9.1.4.9.7 1.1.3zm-6.6 17.4c-1.1-.9-2.1-1.8-3-2.7-.1.8 1.7 2.4 2.5 3.1.6.2.5 0 .5-.4zm6.9-19.4c.1-.4-1.2-.3-1 .2.1.1.2.3.3.5.3-.3.6-.5.7-.7zM91.5 220v.1l.2.2c.1-.1.1-.2.1-.3-.1-.1-.1-.1-.1-.2h-.1c-.2-.2-.4-.3-.6-.4.2.2.3.4.5.6-.1 0 0 0 0 0zm-20.8.7c.1 0 .1-.1.1-.1 0-.2-.3-.4-.4-.5 0 .1-.1.2-.1.4.2 0 .3.1.4.2zm40.5-.4c-.1-.2-.2-.4-.3-.5-.2.1-.4.2-.4.1.1.4.5.6.7.4zm-4.1 0c-.2-.1-.3-.2-.4-.3-.3 0-.1.3.2.7 0 .1.1.1.1.2h-.1c-.4.2-.5.8-.2 1.1.2.1.9 0 1.2-.2.2.1.4 0 .6-.1.1 0 .1 0 .1-.1v-.1l.1-.1-.4-.4v.1c-.2-.1-.3-.2-.6-.3-.1-.3-.2-.6-.4-.9-.3-.5-1.1-.7-.7-.3.2 0 .3.3.5.7zm-31.3 1c-.1-.2.2-.8.1-1 0-.1-.6.1-.5.3.1.3.5.7.4.7zm-.3-1.1c.2-.1 0-.4-.3-.5-.3.1-.5.3-.6.4.2.2.7.2.9.1zm8 7.4c.7-1.2-2.7-1.4-4-.9 1.4.9 2.8 1.7 4.2 2.5.3-.5.3-1.2-.2-1.6zm-4.6 29c-.1 0-.1 0 0 0zm16.2-6.9l1.6 1.6c.3-.3.6-.5.8-.8-.7-.3-1.5-.5-2.4-.8zm-9.8 6.1c-.1.2-.3.9-.1 1.2.2-.1.3-.1.5-.2-.2-.4-.2-.8-.4-1zm-17.7-9.2c-.5 0-.7.9-.6 2.1.2.1.3.2.5.3.5-1.3 1-2.4.1-2.4zm31 6.7c-.2-.4-1-1.2-1.9-2-1 .8-2.2 1.6-2.5 2.1 0 .3 0 .5.1.7 1.5-.3 3-.5 4.3-.5v-.3zm11.6-25.3c0 .2-.1.4-.2.6.6-.5.5-.7.2-.6zm-7.6 33.2c-.5-.1-1.1-.1-1.8-.2-1 .1-2 .3-3 .5 2.1.1 4.8 0 4.8-.3zm-9-70.4h-.5 1.7-1.2zm-14.5 66.6c0-.4-.2-.2 0 .1v-.1zm38-8.7c0-.2 0-.2 0 0zM79 258.8zm-.2-2.2c-.1-.1-.1-.1 0 0-.1 0 0 .1 0 .1.1 0 0-.1 0-.1zm63.4-23.1c-.7-1.1-1.1-.7-.8.6h.8c-.1-.3-.1-.5 0-.6zM93 240.3c0 .4-.1.8-.1 1.1 1.1.2 2.1.3 3.1.4.1-.1.1-.3.2-.4-1-.4-2.1-.7-3.2-1.1zm-42-13.5c-.2-.1-.8-.3-.9-.3 0 .1.2.4.4.5.2.1.6 0 .5-.2zm28.1-.4c-.4-.4-.9-.8-1.5-1 .5.4 1 .7 1.5 1zm58.9 1l.1-.1 2.1-.9c.3-.1.7-.3 1-.4-.8-.1-1.8.3-2.1.8-.8-.6-2-.2-1.1.6zm16.5-13.4c.2-.5.3-.9.4-1.4-.4.5-.8.9-.7.9 0 .3.1.4.3.5zm-29.9 27.6c.2-.4.5-.8.8-1.1-.2 0-.5-.1-.7-.1v.1c-.1.3-.1.7-.1 1.1zm-32.1-1.5c-.6.4-.7.5.4.1-.1 0-.3 0-.4-.1zm-9.9-3.7c-.3-.1-.6-.3-.9-.4-.1.1-.2.1-.3.1-1.4.5-1 .9.3.6.1-.1.5-.2.9-.3zm14.2-.4c.9.4 1.8.8 2.6 1.2-.2-.8-1.4-1.3-2.6-1.2zm-17.9 22.8c.1 0 0 0 0 0zm41.3-77.2c.1.3.3.6.6.9l.1.1c-.3-1.5-1.2-2-.7-1zm48 17.3c0-.1-.2-.1-.2-.1 0 .1.1.2.1.3.1 0 .1-.1.1-.2zm-28.6-15.5c-.1.1-.1.2-.1.3 0 .1.3.1.3 0 0 0-.1-.2-.2-.3zm-18.8-1.2zm37.9-.1c.1-.1 0-.3 0-.4-.1.1-.3.3-.3.4-.1.1.2.1.3 0zm-2.2 2.3c.7-.1.4-1 .2-1.8.5-.2 1-.3 1.3-.3.4-.3-.7-.3-1.4.1 0-.3.2-.5.3-.7-.8.1-1.8.8-1.7 1.6.1.6.7 1.2 1.3 1.1zM78 195.7s-.1.1-.2.1c.7.2 1 .2.2-.1zm101.6 3.9s.1-.1 0 0c0-.1-.1-.2-.2-.3 0 .1.1.2.2.3zm-20.7-15.7c.3.3.4.4.6.1-.2-.3-.8-.7-1-1-.3.2.1.6.4.9zm-2-2.2h.2c.5-.5.1-.4-.2 0zm1 .6s-.1.1-.2.1c.4-.1.4-.1.2-.1zm-9.5-.5c0 .1.1.2.2.2-.1-.1-.1-.2-.2-.2zM52 184c-.1.4-.3.8-.4 1.2l.2.2c.1-.2.2-.3.3-.5.1-.3 0-.6-.1-.9zm25 2.3c-.7-.4-2 0-2.7.6-1.3-.2-1.5-.2-.6.1-1.2.5-1.6.9-.3 1 1-.3 2.9-1.1 3.9-1.6s1.1-.5-.3-.1zm-25.1-.9c-.2.3-.3.5-.4.6.1-.1.3-.3.4-.6.1 0 0 0 0 0zm75.2 2.8c-.1-.2-.3-.4-.4-.4 0 .2-.1.6 0 .8 0 0 .4-.2.4-.4zm-30.4-7.8c.3.2.6.3 1 .5 0-.6-.5-.8-1-.5zm23.4 5.8l.1.1c.5.5 2.3 1.2 3.1 1.3-.4-.5-2.1-1.3-2.8-1.8-.3-.1-.4-.1-.5-.1l-.4-.4c-.2-.1-.5-.2-.7-.3l-.2.5c.6.6 1.2.8 1.4.7zm-10.1-5.3h.1c-.1-.2-.1-.3-.2-.4 0 .1.1.2.1.4zm45.8-.5c0-.1-.1-.1-.1-.2 0 .1.1.2.1.2zm-103.5 4.7s0-.1 0 0c-.1 0-.2.2-.3.3.1 0 .2-.1.3-.3zm109.3-7.1c-.1 0-.2 0-.2.1.1.1.2.1.2.1v-.2zm-82 20.1zm2.7 2.1c.5-.1.4-.1 0 0zm30.3 1.8c-.3 0-.9-.2-1.5-.4 0 .1.1.1.1.2.5.7 1 1.3 1.4 1.6.2-.2.3-.4.5-.7-.1-.3-.3-.5-.5-.7zm47.9.3c.2.6 0 .5.2-.1.2-.5 2.1-1.5 1.9-2 .1-.5-.2-.4-.3.2-.3.5-1.8 1.5-1.8 1.9zm-55.9-.5c.2.2.4.3.5.5l-.5-.5zm-2.9 0s.1 0 0 0c0-.3 0-.7.2-.9.3-.3-.5.2-.2.9zm64.8 2.2c-.9 0-1.9.2-2.3.5-.1.1 0 .4.1.6.9-.1 1.7-.3 2.6-.5-.1-.2-.2-.4-.4-.6zm-30.3 6.3c-.2-.1-.6 0-.8.2.1.2.4.4.6.5.2-.2.3-.6.2-.7zm-20.1-3.6c-.6-.7 0 .7.6 2.2.2.2.3.4.5.6-.2-.2-.3-.4-.3-.5-.4-.9-.7-1.9-.8-2.3zm-22.9 1.1h-.6c-.7.2-.6.5.2.5.4-.1 1-.4 1.6-.7-.4 0-1 .1-1.2.2zm-.6 0h.1c-.3-.1-.3 0-.1 0zm23.5-1.1c-.1-.3-.1-.2 0 0zm-23.4 8.8c.5.4.1.2 0-.4.1-.6.1-1.4-.4-1.7-.5-.5-1.6-.5-1.5.1-.5.5.6 1.6 1.1 2-.1.7.3.7.8 0zm60-18.2c-.2 1-.1 1 0 .3v-.3zm26.4-.2c-.9.2-.5.7.2 1.1-.2.2-.3.3-.5.4.7.4 1.5.3 2-.3.9 0 1.6-.3.8-.6.4-.6-.2-1.2-1-1.1-.6-.6-1.2-.2-1.5.5zm-97.6.9c-.1 0-.1 0 0 0 0 .1 0 .1 0 0 .1.1.1.1.2.1-.1 0-.1-.1-.2-.1zm-3.7.7c.1 0 .1-.1.1-.1 0-.1 0-.2-.2-.2.2 0 .4 0 .6-.1.2-.2-.6-.1-2.8.3-.3 0-.6.1-.9.1.5.3.9.6 1.4.8 1-.2 1.7-.6 1.8-.8zm100.9-.2c-.6.2-.4.3 0 0zm-96.6-.4c-.1-.1-.2-.1-.2 0 .1 0 .3.1.4.2.1-.1-.1-.2-.2-.2zm60.6-1.1c.1.1.2.1.3.2l.9-.3c-.7-.5-1.9-.4-1.2.1zm9.9 2.4c0-.1-.2-.3-.4-.4v.2c.1.2.3.4.4.6.1 0 .1-.2 0-.4zm-27.6-2.6c0 1.4 0 1.4.2.1-.1.1-.2 0-.2-.1zm-6.9-.4c-.1 0-.1.1 0 .2 0 0 .1-.1 0-.2zM104.9 56.6c.6-.4-.4-.4-1.8-.2.3-.4.2-.7-.3-.3-1 .3-2.3.8-3 1.1h3.3c.8-.1 1.5-.3 1.8-.6zm-25.2 61.5c.2-.1 0-.4-.3-.5-.3.1-.5.3-.6.4.1.2.6.2.9.1zm.2 1.1c-.1-.2.2-.8.1-1 0-.1-.6.1-.5.3.1.3.5.7.4.7zm15.7-1.3v.1l.2.2c.1-.1.1-.2.1-.3-.1-.1-.1-.1-.1-.2h-.1c-.2-.2-.4-.3-.6-.4.2.2.3.4.5.6zm12.4 1.2c-.1.5-1.2 1.7-1.1 2.2 0-.5 1-1.7 1.1-2.2-.1 0 0 0 0 0zm47.1-1.6l.4-.4c-.3.2-.4.3-.4.4zm-39.8.8c-.1-.2-.2-.4-.3-.5-.2.1-.4.2-.4.1.1.3.5.6.7.4zm-56 .4c-.2-.1-.3-.3-.5-.4l-.1-.1c-.2-.2-.5-.4-.7-.6-.1.1-.2.1-.2.2h-.1c-.1-.1-.4-.2-.6-.2 0 .1.2.2.4.3h.1c0 .1.1.1.1.2.2.3.8.8 1.1.9l.1-.1s0 .1.1.1c.1.3.1.4.1.2.1-.1.2-.3.2-.5zm15.5-.1l.1-.1c0-.2-.3-.4-.4-.5 0 .1-.1.2-.1.4.2 0 .3.1.4.2zm78.4.3c-.1-.3-.3-.7-.4-1v.3c-.1.3 0 .6.4.7zm-42-.7c-.2-.1-.3-.2-.4-.3-.3 0-.1.3.2.7 0 .1.1.1.1.2h-.1c-.4.2-.5.8-.2 1.1.2.1.9 0 1.2-.2.2.1.4 0 .6-.1.1 0 .1 0 .1-.1v-.1l.1-.1-.4-.4v.1c-.2-.1-.3-.2-.6-.3-.1-.3-.2-.6-.4-.9-.3-.5-1.1-.7-.7-.3.2 0 .3.3.5.7zm26.9 2.8c.1.4.1.3.3-.2-.1-.4-1.3-1.4-1.4-1.6-.2.3 1 1.4 1.1 1.8zm-30.1-1.9c0-.6-.1-.6 0 0zm-20.4 6.4c.7-1.2-2.7-1.4-4-.9 1.4.9 2.8 1.7 4.2 2.5.3-.5.3-1.1-.2-1.6zm-32.5-.7c-.2-.1-.8-.3-.9-.4 0 .1.2.4.4.5.2.1.6 0 .5-.1zm28.1-.4c-.4-.4-.9-.8-1.5-1 .5.3 1 .6 1.5 1zm58.9.9l.1-.1 2.1-.9c.3-.1.7-.3 1-.4-.8-.1-1.8.3-2.1.8-.8-.6-2-.2-1.1.6zm-71.5-10.1c.6.5 1.3 1 1.9 1.6.2-.2.3-.4.3-.5 0-.6-1.1-1-2.2-1.1zm54.3 13.8c-1.1-.9-2.1-1.8-3-2.7-.1.8 1.7 2.4 2.5 3.1.6.2.5 0 .5-.4zm-73.7-12.5c-.3-.2-.4-.2 0 0zm-2.9.2zm7.8-.9c-.1 0-.1 0-.2.1.1 0 .2.1.2.2 0 0 .1 0 .1-.1s-.1-.1-.1-.2zm21.2 1s.1 0 0 0c.1-.1 0-.1 0 0 0-.1 0 0 0 0zm37 9.1c0 .2-.1.4-.2.7.6-.6.5-.8.2-.7zM81.9 96.6c.1 0 .1 0 .1-.1s0-.2-.2-.2c.2 0 .4 0 .6-.1.2-.2-.6-.1-2.8.3-.3 0-.6.1-.9.1.5.3.9.6 1.4.8 1-.2 1.7-.6 1.8-.8zm24 3.1c0 .1 0 .1 0 0 0-.3 0-.7.2-.9.2-.3-.6.2-.2.9zm10.8.2c-.3 0-.9-.1-1.5-.4 0 .1.1.1.1.2.5.7 1 1.3 1.4 1.6.2-.2.3-.4.5-.7-.1-.2-.3-.5-.5-.7zm-30.2-1.8c.4-.1.3-.1 0 0zm78.1 2.1c.2.6 0 .5.2-.1.2-.5 2.1-1.5 1.9-2 .1-.5-.2-.4-.3.2-.3.6-1.8 1.5-1.8 1.9zm-55.9-.5c.2.2.4.3.5.5l-.5-.5zm11.5 4.9c-.6-.7 0 .7.6 2.2.2.2.3.4.5.6-.2-.2-.3-.4-.3-.5-.4-.9-.7-1.9-.8-2.3zm8.9-9.8c0 1.4 0 1.4.2.1-.1 0-.2-.1-.2-.1zm5.8 20.8c-.2-1.1-1-1.6-1.4-.9-.4.8-1 2.5-1 3.6.8-.7 2.3-1.9 2.4-2.7zm-12.6-21.2c-.1-.1-.1-.1 0 0-.1 0-.1.1 0 .2v-.2zm34.4 2.9c0-.2-.2-.3-.4-.4v.2c.1.2.3.4.4.6.1 0 .1-.2 0-.4zm-10.4 34.1c-.7-1.1-1.1-.7-.8.6h.8c-.1-.3-.1-.5 0-.6zm.5-36.4c.1.1.2.1.3.2l.9-.3c-.7-.6-1.8-.5-1.2.1zm-15.3 16.6c0-.1-.1-.3-.1-.4.1-.2-.1-.5-.3-.8-.4.3-.8.7-.7.9.1.4.9.7 1.1.3zm.4-2c.1-.4-1.2-.3-1 .2.1.1.2.3.3.5.3-.3.6-.5.7-.7zm26.7 2.3c.2-.5.3-.9.4-1.4-.4.5-.8.9-.7.9 0 .3.2.5.3.5zm-26 6.7v-.3l-.4.4c-.5 1.1.1 1.1.4-.1zm-1-7.1s0 .1 0 0c0 .3.1.3 0 0zm-34.8 1.9c.5.4.1.2 0-.4.1-.6.1-1.4-.4-1.7-.5-.5-1.6-.5-1.5.1-.5.5.6 1.6 1.1 2 0 .7.4.7.8 0zm-.1-7.7h.1-.1zm.6 0h-.6c-.7.2-.6.5.2.5.4-.1 1-.4 1.6-.7-.4 0-.9.1-1.2.2zm22.9-1.1c0 .1 0 .1 0 0-.1-.3-.1-.2 0 0zm20.1 3.6c-.2-.1-.6 0-.8.2.1.2.4.4.6.5.2-.2.3-.5.2-.7zM130 159.4c.1.1.4.4.6.8.1-.1.2-.3.3-.4-.4-.3-1.1-.5-.9-.4zm-22.1-2.6c-.3-.4-.9-.5-.6-.2 0 .1.1.3.2.6.1-.1.2-.3.4-.4zm-24.9-.1c.1 0 .1 0 0 0zm.1 0zm17.8-22.8c.9.4 1.8.8 2.6 1.2-.2-.8-1.4-1.3-2.6-1.2zm5.7 35.5c.1.1.1.3.1.4.4 0 .4-.1-.1-.4zm-11.9-11.6c-.4-.3-1.4-.5-1.7-.3-.3.3 0 .9.4 1.2.4-.3.9-.6 1.3-.9zm18.3-.4c.2 0 .7-.2 1-.2-.2-.1-.5-.1-.8-.1-.1 0-.1.1-.2.3zm12.1 12.3c0 .1-.1.1 0 0-.1.1 0 .1 0 0zM91 157.9c-.1.1-.1.2-.2.2l.3.6c.5.1.1-.3-.1-.8zm9.8.8c.6-.4-.4-.4-1.8-.2.3-.4.2-.7-.3-.3-1 .3-2.3.8-3 1.1H99c.8-.1 1.5-.3 1.8-.6zm-8.7-1.7H92h-.1c-.1.1-.3.2-.4.4.2-.1.3-.1.4-.2 0 .2-.1.4 0 .5.1-.1.2-.3.2-.5.1-.1.1-.2 0-.2zm15.1.2c-.2 0-.2.1-.1.3l.2-.2c0-.1-.1-.1-.1-.1zm-23.9 15.3zm46.9.1c.5-1.1.3-1.9-.2-2.6-.2.7-.4 1.3-.5 1.9.2.3.4.5.7.7zm9.7 3.1v0zm-.6.3c.3-.2.5-.3.5-.4.1-.3-.3-.2-.5.4zm-55.6-2.9c.1 0 .1.1.2.1-.1 0-.1-.1-.2-.1zm67 1.8v0c.1-.2-.1-.3 0 0zm-61.7 0v-.2c-.2.1-.5 0-.8-.2.1.1 0 .1-.2.1 0 .1 0 .1-.1.2.2.1.3.2.4.4v-.1c.2-.2.5-.3.7-.2zm33.4-3.3c-.1 0-.2.1-.2.1.6.7 1.1 1.3 1.2 1.8.2-.2.5-.4.7-.5-.2-.3-.9-.8-1.7-1.4zm28 3.3c0-.2.1-.3.3-.4-.2 0-.3.1-.3.4zm7.3 0c.2-.2.5-.7.4-1 0 0-.1-.1-.2-.1l.1-.1c.2-.2.2-.4.1-.5-.3.4-.5.9-.8 1.4.2.1.3.3.4.3zm-22.6-12.4c.3-.3.3-.2 0 0zm-35.8-14.9l1.6 1.6c.3-.3.6-.5.8-.8-.8-.3-1.6-.5-2.4-.8zm3.4 3.6c-.2-.4-1-1.2-1.9-2-1 .8-2.2 1.6-2.5 2.1 0 .2 0 .5.1.7 1.5-.3 3-.5 4.3-.5v-.3zm47.5-2.4c0-.1 0-.1 0 0 .7-2 .5-2.8-.2-1.6-.3.2-.3.9-.4 1.7.2 0 .4-.1.6-.1zm-38.3-.5c0 .2.1.4.3.5.4 0 1.1-.2 1.5-.5.1 0 .1-.1.1-.1-.7 0-1.3 0-1.9.1zm15 2.2c0 .5.8.8 1 .3 0-.1-.1-.3-.1-.4.1-.1 0-.4-.1-.6-.1 0-.2-.1-.3-.1-.3.3-.6.6-.5.8zm-40.2-16.2c-.3-.1-.6-.3-.9-.4-.1.1-.2.1-.3.2-1.4.5-1 .9.3.6.1-.2.5-.3.9-.4zm41.2 16.5c.1.2.2.3 0 0zm-30.8-12.6c0 .4-.1.8-.1 1.1 1.1.2 2.1.3 3.1.4.1-.1.2-.3.2-.4-1-.4-2.1-.7-3.2-1.1zm59.7-42.7v-.3c-.2 1-.1 1 0 .3zm-28.1 44c.2-.4.5-.8.8-1.1-.2 0-.5-.1-.7-.1v.1c-.1.3-.1.7-.1 1.1zM96.6 138c-.6.4-.7.5.4.1-.1 0-.3 0-.4-.1zm24.6 8.6c0-.2 0-.2 0 0zm-16.9 11.7c.1-.5 0-.5 0 0zm26.6-4.4c-.3-.3-.6-.4-.8-.2.2.1.5.2.8.2zm-47.7 1.4c0-.4-.2-.2 0 .1v-.1c0 .1 0 0 0 0zm-11.5-10.8c-.5 0-.7.9-.6 2.1.2.1.3.2.5.3.6-1.3 1-2.4.1-2.4zm62.8 15.7c.1.4.1.3.3-.2 0-.2-.2-.4-.5-.7l-.2.2c.1.3.3.6.4.7zm-27.8-1.1c-.5-.1-1.1-.2-1.8-.2-.3 0-.5.1-.8.1.1-.3.3-.5.3-.6 0 .2-.2.4-.3.7l-2.1.3c.6.1 1.2.1 1.8.1-.3.4-.5.9-.5 1.1 0-.2.3-.6.6-1.1 1.5-.1 2.8-.2 2.8-.4zm-23.8-4.6c-.1 0-.1 0 0 0-.1 0 0 .1 0 .1.1 0 0-.1 0-.1zm24.4-1.4c.1.1.1.1 0 0 .1 0 .1 0 0 0zm-17.9.6c-.1.2-.3.9-.1 1.2.2-.1.3-.1.5-.2-.1-.3-.2-.8-.4-1zm-6.4.9s0-.1 0 0c-.1-.1-.1-.1 0 0zm55.8-118.2c-.7-1.1-1.1-.7-.8.6h.8c-.1-.3-.1-.5 0-.6zm-30.4 19.9c-.1.5-1.2 1.7-1.1 2.2.1-.5 1.1-1.8 1.1-2.2zm0 0c.1-.6 0-.6 0 0zm-12.3-.7c.1-.1.2-.3.2-.5l-.1-.1h-.1-.1c-.1.1-.3.2-.4.4.2-.1.3-.1.4-.2.1 0 0 .2.1.4zm38.1 1.7c.1.1.4.4.6.8.1-.1.2-.3.3-.4-.5-.3-1.2-.5-.9-.4zm-36.7-.7c.4-.3.9-.6 1.3-.9-.4-.3-1.4-.5-1.7-.3-.3.2 0 .9.4 1.2zm-33.3-7.1c-.5 0-.7.9-.6 2.1.2.1.3.2.5.3.5-1.3 1-2.4.1-2.4zm74.4 8.6c.1.4.1.3.3-.2 0-.2-.2-.4-.5-.7-.1.1-.1.2-.2.2.1.4.3.6.4.7zm-6.6-9.8c.1-.1 0-.4-.1-.6-.1 0-.2-.1-.3-.1-.3.3-.6.6-.5.8 0 .5.8.8 1 .3-.1-.1-.1-.2-.1-.4zm.1.4c-.1 0-.1 0 0 0 0 .2.1.3 0 0zm-20.8 6.4c-.2 0-.2.1-.1.3l.2-.2-.1-.1zm-35.7 6.6c-.1 0 0 0 0 0zm-.1-2.1c-.1-.1-.1-.1 0 0zm42.4-13.5c-.6 0-1.3.1-1.9.2 0 .2.1.4.3.5.4 0 1.1-.2 1.5-.5 0-.1.1-.2.1-.2zm-4.2 5.5c-.1-.1 0-.1 0 0zm3.4 3.7c.2 0 .7-.2 1-.2-.2-.1-.5-.1-.8-.1-.1 0-.1.2-.2.3zm-35.2 3.4c-.1.2-.3.9-.1 1.2.2-.1.3-.1.5-.2-.2-.3-.3-.8-.4-1zm-6.2 1.6c0-.4-.2-.2 0 .1-.1 0-.1 0 0-.1 0 .1 0 0 0 0zm-.4-.8s-.1-.1-.1 0c0 0 .1.1.1.2.1-.1.1-.1 0-.2zm59.7-7.7c-.3-.3-.6-.4-.8-.2.2.1.5.2.8.2zm-39.8 4.9c.4.1.1-.4-.1-.8l-.1.1c-.3-.4-1-1.1-1.7-1.8-1 .8-2.2 1.6-2.5 2.1 0 .2 0 .5.1.7 1.5-.3 2.9-.5 4.2-.5.1.1.1.1.1.2zm16.2-2.2c0 .1.1.3.2.6.1-.1.3-.2.4-.4-.3-.4-.9-.4-.6-.2zm31.2-.7s.1-.1 0 0c.7-2 .5-2.8-.2-1.6-.3.2-.3.9-.4 1.7.2 0 .4-.1.6-.1zm-57 42.1c-.1 0-.1.1 0 0 0 .1 0 .1 0 0 .1.1.1.1.2.1-.1 0-.1 0-.2-.1zm25.9-45c0 .1 0 .1 0 0 0 .2 0 .2 0 0zM43.6 21.5c.1 0 .1 0 0 0-.2-.2-.3-.2 0 0zm-2.8.2c0 .1 0 .1 0 0 0 .1 0 .1 0 0zM63 20.3c.6.5 1.3 1 1.9 1.5.2-.2.3-.3.3-.5.1-.6-1-1-2.2-1zm-14.5.5c-.1 0-.1.1-.2.1.1 0 .2.1.2.1.1 0 .1 0 .1-.1l-.1-.1zm21.3 1zm2.6 2.5c-.1-.2.2-.7.1-1 0-.1-.6.1-.5.3.1.3.4.6.4.7zm15.7-1.4v.1l.2.2c.1-.1.1-.2.1-.3-.1-.1-.1-.1-.1-.2h-.1c-.2-.2-.4-.3-.6-.4.2.2.3.4.5.6-.1.1-.1 0 0 0zm18.7 8c0 .2-.1.4-.2.6.5-.4.5-.6.2-.6zm-6.4-6.8c-.1.5-1.2 1.7-1.1 2.2.1-.4 1.1-1.7 1.1-2.2zm30.1 1.9c.1.4.1.3.3-.2-.1-.4-1.3-1.4-1.4-1.6-.2.3 1 1.4 1.1 1.8zm-30.1-1.9c.1-.5 0-.5 0 0zm-20.3 6.4c.7-1.2-2.7-1.4-4-.9 1.4.9 2.8 1.7 4.2 2.5.2-.5.2-1.1-.2-1.6zm-8-7.4c.2-.1 0-.4-.3-.5-.2.1-.5.3-.6.4.2.2.7.3.9.1zm7 16.2c-.3-.1-.6-.3-.9-.4-.1 0-.2.1-.3.1-1.4.5-1 .9.3.6.2-.1.5-.2.9-.3zm14.3-.4c.9.4 1.8.8 2.6 1.2-.3-.8-1.5-1.3-2.6-1.2zm-3.8 4.3c0 .4-.1.8-.1 1.1 1.1.2 2.1.3 3.1.4.1-.1.1-.3.2-.4-1.1-.3-2.2-.7-3.2-1.1zm27.7-9.2c-1.1-.9-2.1-1.8-3-2.7-.1.8 1.7 2.4 2.5 3.1.6.2.6 0 .5-.4zm3.9 10.5c.2-.4.5-.8.8-1.1-.2 0-.5-.1-.7-.1v.1c-.2.3-.2.7-.1 1.1zm-32.1-1.4c-.6.4-.7.5.4.1-.2-.1-.3-.1-.4-.1zM47.6 29.8c-.2-.1-.8-.3-.9-.3 0 .1.2.4.4.5.1 0 .5-.1.5-.2zm87 .6l.1-.1 2.1-.9c.3-.1.7-.3 1-.4-.8-.1-1.8.3-2.1.8-.9-.6-2-.3-1.1.6zm-59-1c-.4-.4-.9-.8-1.5-1 .6.4 1 .7 1.5 1zm16.1 23.3l1.6 1.6c.3-.3.6-.5.8-.8-.8-.3-1.6-.6-2.4-.8zm60.8 27c0 .1.1.2.2.2 0-.1-.1-.2-.2-.2zm-27.5.4zm-43.5-.2v-.2c-.2.1-.5 0-.8-.2.1.1 0 .1-.2.1 0 .1 0 .1-.1.2.2.1.3.2.4.4v-.1c.2-.2.4-.2.7-.2zm62.2 1.4c0 .1-.1.2-.1.3 0 .1.3.1.3 0 0 0-.1-.2-.2-.3zm-19.4-1.8c.1.3.3.6.6.9l.1.1c-.2-1.5-1.2-2-.7-1zm-68.2 2.4c-.1.4-.3.8-.4 1.2l.2.2c.1-.2.2-.3.3-.5.1-.3 0-.6-.1-.9zm68.1 2.2l.1.1c.5.5 2.3 1.2 3.1 1.3-.4-.5-2.1-1.3-2.8-1.8-.3-.1-.4-.1-.5-.1l-.4-.4c-.2-.1-.5-.2-.7-.3l-.2.5c.6.6 1.2.8 1.4.7zm-26.5 4.6h-.5 1.7-1.2zM56.4 83c-.1 0-.2.2-.3.3.1 0 .2-.1.3-.3zm24.8 1.2c-.7-.4-2 0-2.7.6-1.3-.2-1.5-.2-.6.1-1.2.5-1.6.9-.3 1 1-.3 2.9-1.1 3.9-1.6.9-.5 1-.5-.3-.1zm50 1.9c-.1-.2-.3-.4-.4-.4 0 .2-.1.6 0 .8.1 0 .4-.2.4-.4zM56 83.3c-.2.3-.3.4-.4.6.1-.1.3-.3.4-.6.1 0 0 0 0 0zm26.1 10.3s-.1.1-.2.1c.7.2 1.1.2.2-.1zM74 90.8h-.1s0 .1.1.1c-.1.1-.1 0 0-.1zm13.2.1c-.1 0-.1.2 0 .2s.3-.1.4-.2c-.1 0-.3-.1-.4 0zm9.2-2.1H96c.3 0 .6 0 .9.1 1 .1.8-.1-.5-.1zM83.7 96s.1 0 0 0c.1 0 0 0 0 0zm2.5 0H86c.1 0 .3.1.4.2.1-.1-.1-.1-.2-.2zm-8.3-4c0-.2-.3-.6-.4-.7 0 .1 0 .5.1.7 0 0 0 .1.1.1-.2 0-.3.1-.2.2.1 0 .2.1.4.2.1-.1.2-.2.3-.2-.1-.2-.2-.3-.3-.3zm-3.8-1.2c-.1 0-.1 0 0 0h.1c-.1-.1-.1-.1-.1 0zm-13.7-.1c-.1 0-.1.1-.1.1 0-.1 0-.1.1-.1zm29.5.2c0 .1-.1.2-.1.3.1.1.2.2.3.2 0-.2-.1-.4-.2-.5zm70-12.6c0-.1-.1-.1-.1-.2 0 .2.1.2.1.2zm-5.1-5.5v0c.1-.2-.1-.2 0 0zm10.9 3.1c-.1 0-.2 0-.2.1.1 0 .2.1.2.1.1-.1 0-.2 0-.2zm-10.9-3.4c-.2-.1-.3 0-.3.4 0-.2.2-.4.3-.4zm8.2 9.3c.3.3.4.4.6.1-.2-.3-.8-.7-1.1-1-.2.3.2.6.5.9zM143.4 74c.3-.2.5-.3.5-.4.1-.4-.3-.3-.5.4zm18.5-1.2c.2-.2.5-.7.4-1 0 0-.1-.1-.2-.1l.1-.1c.2-.1.2-.3.1-.5-.3.5-.5.9-.8 1.4.1.1.2.3.4.3zm-51.1-5.5c.1.1.1.3.1.4.3 0 .4-.1-.1-.4zm23.3.7c-.2.7-.4 1.3-.5 1.9.2.2.4.4.7.6.4-1 .3-1.9-.2-2.5zm-36.8-4.1c-1 .1-2 .3-3 .5 2.1.2 4.8 0 4.8-.3-.4 0-1.1-.1-1.8-.2zm31.9 3.8zm-1.6-.2c.3-.3.2-.2 0 0zm16.4 6.1v0zm18.1 6.6s-.1.1-.2.1c.3 0 .3-.1.2-.1zm-1.5 2.1c.7-.1.4-1 .2-1.8.5-.2 1-.3 1.3-.3.4-.4-.7-.3-1.4.1 0-.3.2-.5.3-.7-.8.1-1.8.8-1.7 1.6.1.6.7 1.2 1.3 1.1zm.4-2.7h.2c.5-.5.1-.4-.2 0zm1.8.4c.1-.1 0-.3 0-.4-.1.1-.3.3-.3.4-.1.1.2.2.3 0zm-87.1-2.4zm38.5 1.2h.1c-.1-.2-.1-.3-.2-.4 0 .1 0 .2.1.4zm-13.3-.4c.3.2.6.3 1 .5-.1-.7-.6-.9-1-.5zM75.4 61.8c.1 0 .1 0 0 0 .2-.1.1-.1 0 0zm.7 16.3c.1 0 .1.1.2.2 0-.1-.1-.1-.2-.2zm40.5-.1c-.2-.3-.9-.8-1.7-1.3-.1 0-.2.1-.2.1.6.7 1.1 1.3 1.2 1.8.2-.3.4-.4.7-.6z"/><path class="st107" d="M66.1 54.1h5.8L74.4 71h.1l1.7-16.9h6.2l-4.2 24.5h-7L69 62.2l-2.1 16.5h-7l-4.2-24.5h6.2l1.9 16.9h.1l2.2-17zM83.9 54.1h14.5v5.2h-8.1v4.2h7.6v5h-7.6v4.9h8.4v5.2H83.9V54.1zM101.1 54.1h5.8v6.2c0 4.4-1.7 6.6-5.8 6.7v-3c1.6-.2 2.2-1.1 2.2-2.9v-.4h-2.2v-6.6zM109.9 54.1h10c4.9 0 6.7 2.7 6.7 6.5 0 3.3-1.3 5.4-4.2 5.8v.1c3.1.3 4 2.2 4 5.5v2.1c0 1.3 0 2.9.3 3.4.2.3.3.5.7.8v.3h-6.8c-.6-1.3-.6-3.6-.6-4.7v-1.6c0-2.8-.5-3.5-2.1-3.5h-1.7v9.8h-6.4V54.1zm6.4 10.4h1.3c1.8 0 2.7-1.2 2.7-2.9 0-2-.8-2.8-2.7-2.8h-1.2v5.7zM129.6 54.1h14.5v5.2H136v4.2h7.6v5H136v4.9h8.4v5.2h-14.8V54.1zM59.7 81.8h6.4v9H70v-9h6.4v24.5H70V96.2h-3.9v10.1h-6.4V81.8zM79.4 81.8h14.5V87h-8.1v4.2h7.6v5h-7.6v4.9h8.4v5.2H79.4V81.8zM96.6 81.8h10c4.9 0 6.7 2.7 6.7 6.5 0 3.3-1.3 5.4-4.2 5.8v.1c3.1.3 4 2.2 4 5.5v2.1c0 1.3 0 2.9.3 3.4.2.3.3.5.7.8v.3h-6.8c-.6-1.3-.6-3.6-.6-4.7V100c0-2.8-.5-3.5-2.1-3.5H103v9.8h-6.4V81.8zm6.4 10.4h1.3c1.8 0 2.7-1.2 2.7-2.9 0-2-.8-2.8-2.7-2.8H103v5.7zM116.3 81.8h14.5V87h-8.1v4.2h7.6v5h-7.6v4.9h8.4v5.2h-14.8V81.8zM134.3 90v-8.2h6V90l-.7 9.2H135l-.7-9.2zm.1 10.9h5.8v5.4h-5.8v-5.4z"/><g><path class="st26" d="M57.5 140.2c.1 1.1.2 4.1 4.5 4.1 2.7 0 3.8-1 3.8-2.7 0-1.3-1.1-1.7-2.6-2.2l-5.1-1.5c-1.3-.4-5.2-1.5-5.2-5.9 0-4.1 3.4-7 8.9-7 5.1 0 8.4 2.5 8.6 7.6h-5.2c-.1-1.1-.3-3.3-3.8-3.3-1.5 0-3.2.5-3.2 2.2 0 1 .5 1.5 1.8 1.8l6.1 1.7c2.8.8 5.2 2.5 5.2 6 0 4-2.5 7.5-9.4 7.5-5.7 0-9.4-2.5-9.7-8.4h5.3zm-4.6.7c.3 4 3.1 7 9 7 5.4 0 8.7-2.5 8.7-6.8s-4-5.2-5.9-5.7l-3.6-1c-2.8-.8-3.6-1.3-3.6-2.8 0-2.2 2.3-2.9 3.9-2.9 3.8 0 4.3 2.4 4.4 3.3h3.9c-.4-4.1-3.5-6.2-7.9-6.2-6 0-8.1 3.3-8.1 6.3 0 3.5 2.5 4.5 4.7 5.2l5.1 1.5c3 .9 3.1 1.9 3.1 2.8 0 2.4-2.1 3.4-4.6 3.4-4.5 0-5.1-3.1-5.2-4.1h-3.9zM71.4 125.6h10.3c4.8 0 8 2.3 8 7.3s-3.2 7.3-8 7.3h-4.9v7.8h-5.4v-22.4zm.7 21.9H76v-7.8h5.6c4.3 0 7.3-1.8 7.3-6.7s-3.1-6.7-7.3-6.7H72v21.2zm4-17.9h5.1c1.2 0 4.1.2 4.1 3.5s-2.9 3.5-4.1 3.5h-5.1v-7zm.7 6.3h4.3c1 0 3.4-.1 3.4-2.8 0-2.7-2.3-2.8-3.4-2.8h-4.3v5.6zM89.9 125.6h17.7v4.7H95.3v4h11v4.5h-11v4.5H108v4.9H90v-22.6zm.7 21.9h16.6V144H94.6v-5.9h11V135h-11v-5.4H107v-3.3H90.6v21.2z"/><path class="st26" d="M114 125.6h5.4l8.5 22.5h-5.7l-1.7-5h-7.6l-1.7 5h-5.5l8.3-22.5zm-7.5 21.9h4l1.7-5h8.6l1.7 5h4.2l-7.9-21.1h-4.4l-7.9 21.1zm13.6-7.8h-6.9l3.5-9.5 3.4 9.5zm-3.4-7.5l-2.5 6.8h4.9l-2.4-6.8z"/><path class="st26" d="M127.1 125.6h5.4v8.4l8.2-8.4h6.9l-9 9 9.6 13.5h-6.8l-6.5-9.6-2.5 2.3v7.3H127v-22.5zm.7 21.9h3.9v-6.9l3.3-3.2 6.7 10h5.1l-9.1-12.9 8.2-8.3H141l-9.2 9.5v-9.5h-3.9v21.3zM86.2 159.4h-6.8v-4.9h18.9v4.9h-6.8v17.7h-5.4v-17.7zm.7 17h3.9v-17.7h6.8v-3.5H80.1v3.5h6.8v17.7z"/><path class="st26" d="M118.8 165.8c0 7.2-4.7 11.8-11.1 11.8-6.4 0-11.1-4.6-11.1-11.8 0-7.2 4.7-11.8 11.1-11.8 6.4 0 11.1 4.6 11.1 11.8zm-.7 0c0-7-4.7-11.1-10.4-11.1s-10.4 4-10.4 11.1c0 7 4.7 11.1 10.4 11.1s10.4-4.1 10.4-11.1zm-16.9 0c0-5.4 3.1-8 6.5-8 3.3 0 6.5 2.6 6.5 8s-3.1 8-6.5 8c-3.3 0-6.5-2.6-6.5-8zm12.2 0c0-5.4-3.1-7.3-5.7-7.3s-5.7 1.9-5.7 7.3 3.1 7.3 5.7 7.3c2.7 0 5.7-1.9 5.7-7.3zM81 183.4h5.4v13.3c0 3.1.6 5.2 4.3 5.2s4.3-2.1 4.3-5.2v-13.3h5.4v13.2c0 6.7-3 9.8-9.7 9.8s-9.7-3.1-9.7-9.8v-13.2zm.7 13.3c0 6.3 2.6 9.1 9 9.1 6.3 0 9-2.8 9-9.1v-12.5h-3.9v12.6c0 3.8-1.1 5.9-5 5.9s-5-2.2-5-5.9v-12.6h-3.9v12.5zM105.8 198c.1 1.1.2 4.1 4.5 4.1 2.7 0 3.8-1 3.8-2.7 0-1.3-1.1-1.7-2.6-2.2l-5.1-1.5c-1.3-.4-5.2-1.5-5.2-5.9 0-4.1 3.4-7 8.9-7 5.1 0 8.4 2.5 8.6 7.6h-5.2c-.1-1.1-.3-3.3-3.8-3.3-1.5 0-3.2.5-3.2 2.2 0 1 .5 1.5 1.8 1.8l6.1 1.7c2.8.8 5.2 2.5 5.2 6 0 4-2.5 7.5-9.4 7.5-5.7 0-9.4-2.5-9.7-8.4h5.3zm-4.6.7c.3 4 3.1 7 9 7 5.4 0 8.7-2.5 8.7-6.8s-4-5.2-5.9-5.7l-3.6-1c-2.8-.8-3.6-1.3-3.6-2.8 0-2.2 2.3-2.9 3.9-2.9 3.8 0 4.3 2.4 4.4 3.3h3.9c-.4-4.1-3.5-6.2-7.9-6.2-6 0-8.1 3.3-8.1 6.3 0 3.5 2.5 4.5 4.7 5.2l5.1 1.5c3 .9 3.1 1.9 3.1 2.8 0 2.4-2.1 3.4-4.6 3.4-4.5 0-5.1-3.1-5.2-4.1h-3.9z"/></g><path class="st398" d="M54.9 113.5h90.5"/></svg>