<svg version="1.1" id="Layer_1" xmlns="http://www.w3.org/2000/svg" x="0" y="0" viewBox="0 0 211.1 437.4" xml:space="preserve"><style>.st26{fill:#fff}</style><path d="M13.9 294.4c1-.4 2.6 0 3.7-.9-.3 1.6-2.3 1.5-3.9 1.6-.3.9-.5 2-.7 3.2.5 0 1.1-.1 1.6-.2-.4.6-1 1-1.8 1.2-.1.4-.1.8-.2 1.3 4-.5 8.1-.5 10.2-2.7.4 2.5 1.3-.3 2.1-.8-.1 4.1-7.5 3.5-10.6 4.5-.5 1-1.2 1.6-2.1 1.9-.3 2.3-.6 4.9-.8 7.8.7-.2 1.1-.6.6-2 1.2-.4 2.3-.9 3.5-1.3-.7 2 .4 0 2-.2-.6 1.3 1.4 2.5 2.8 2.3-1.1 3.4-5 3.2-8.5 3.7 0-.7.8-1 1.3-1.5-1-.6-1.5-.3-1.8.3-.9 10.8-1.5 24.6-1.6 39.1.1-.1.2-.1.3-.2.2.5 0 .8-.3 1v2.8c.2 0 .5-.1.7-.1.4.2.7.2 1-.1 1.9-.2 3.9-.3 5.3-.3 3.3.1 2.9-.7-.6 1.2-.2.1-.2.2-.1.4-.2 0-.4-.1-.6-.1-1.8-1.4-3.7-.7-5.7.2V363.7c1.4-.1 2.5.1 3.2.9-.6.3-2 .2-1 1.3-.7-.3-1.5-.5-2.2-.6.1 35.6 2.5 70 7.1 66.5-3.3 2.6 18.9 4.3 48.6 5-1.8-4.6-3.1-8.9-4.6-12.8.3.3.5.6.8 1 0-1.1.6-2.2 2.3-3.3 2.3 3.5 1.1 6.3 2.9 9.7-.8-.9-2.2-1.9-3.3-3.1.8 1.7 1.5 3.6 2.2 5.6 1-.1.2-1.9 1.8-2.5.6 1.9 1.1 3.7.9 5.4 2.8.1 5.6.1 8.5.2-1.2-2.4-1.9-4.6-.3-1.5.4.5.7 1 1.1 1.5 16.1.3 33.5.3 49.9.1-.5-1.9-.6-4-1.7-5.6 1-.2 1 1 2.4.1-2.4.5-.3-2.7-2.9-2.1 1.1-1.9-.6-4-.1-6.5 1.4-.4 4.4 4.1 2.4 5.5 2.1 3.1 3.5 5.4 3.7 8.5 29.7-.4 55.4-1.7 62.7-3.7-4.4-3.1-9.2-6.3-14-9.4-1.4-.4.1 1.1-1.2.9-1-.2-2-.4-3.1-.8.6-.8 2 0 2.8-.5.5-.6-1.5-.9-2-1.4 3.1-.8 7.5 2.6 10.6 4.7l8.7 5.8c.4-.3.4-.6 0-.9 1.3 1 2.4-1.1 3.4-5.4-1.5-1-2.9-2.2-4.1-3.1 1.5.4 2.9 1.2 4.3 2.1.5-2.5 1-5.7 1.3-9.4-.4-.4-.7-.7-.5-1.1l.6.3c1.2-12.1 1.9-29.2 2.1-47-.7.2-1.9-.2-2.2-.5.5-1.1 1.2.1 2.2.1.1-16.9-.3-34.3-1.1-48.1-.3-.1-.7-.2-1-.2.2-.4.5-.5.9-.6 0-.3 0-.6-.1-.9-.6 0-1.1.6-1.6 1.1-1.3-.1-1.7-1.3-3.1-1.3.2-.5.9-.5.8-1.3.7.4 1.2 1 1.5 1.8.1-1.7 1.3-1.1 2.3-1 0-.6-.1-1.1-.1-1.6h-.1c-.1-.1-.1-.2-.2-.3.1 0 .2.1.3.2-.1-1.1-.2-2.1-.2-3.1-.5-1-1-2-1.3-3 .4.2.8.5 1.1.8-.1-.8-.2-1.6-.2-2.3-.3-.1-.6-.2-.8-.4.2-.1.5-.1.7-.1-.1-.9-.2-1.7-.3-2.5h-.4c.1-.5-.1-.8-.4-.9-.6-.6.1-.4.7-.1 0-.2-.1-.4-.1-.7v.2c-1.5-.6-.4-1.4 0-.7-.3-2-.6-3.8-.9-5.3-1.3 0-2.6 0-3.8.1-.7-.5-.9-.9-.8-1.6-.5.7-.5 1.5-.3 2.4-.6-.1-1.3-.2-1.8-.2-.2-.2-.3-.5-.5-.7-.8-1.3-2.3-.1-3.3-.7-.4.6-.8 1.2 0 2.4-2.8-3.1-6.7-2.1-10.3-1.9-.4-.8-.9-1.5-1.1-2.6.1 0 .2 0 .3-.1 1.1.1 2.4-.2 3.3.6.2-.3.3-.6.5-.8 2.7 0 5.2.2 7.9.2 0-.4-.1-.7-.2-1 1 .3 2 .6 3 .8.6.6 1.3 1.1 1.9 1.4.7.1.3-.5-.2-1.1h.3c.7.4 1.7.6 3 .7.5.3 1 .3 1.5.3-.8-3.1-1.8-4.5-2.9-3.7 1.3-1-1.4-1.9-7.1-2.7.1.1.1.3.2.4-.4.2-.8.5-1 .7-.2-.4-.5-.9-.8-1.3-8.8-1-23.3-1.7-40.2-2.2.3.7.7 1.3 1 2l-1.8-.3c-.3-.6-.6-1.1-.9-1.7-15.2-.4-32.2-.5-48.7-.4.9 1.4 1.8 2.8 2.8 4.4.8.4 1.5.8 2.2 1.2.2-.2.4-.3.3-.6.8 2.1 2.8 0 4.7 1.1-.3.3-1.4.6-2.6.8 2.1 1.2 4.1 2.5 6.4 4.6l.4 2c.3-.1.6-.3 1-.5.2 1.1-.1 1.7-.7 2l1.7 9.3c-2.2-3.4-4.5-6.8-6.9-10.1 0 .3 0 .7-.5.8-.7-1.7-.4.2-1.6.1.1-1 .8-1.4 1.7-1.6-3.3-4.6-6.8-9.1-10.3-13.4h-3c.5.5 1.1.9 2 .1 1.6 1.4 3 3.4 4.4 5.5.1 0 .2 0 .2.1h-.2c1.1 1.7 2.3 3.5 3.5 5.1-1.1-1.4-2.6-2.6-4.1-3.7-1.8 1.5-5.2 1.7-7.5 1.8-.4-.6 0-.8-.3-1.4.4-.1.4.3.2.4 2.1-.3 4.2-.6 6.9-1.3-.3-.2-.7-.5-1-.7-1.8.3-3.6.7-5.1.3.9-.6 2.6-1 4.2-1-1.9-1.5-3.5-3.1-4.1-5.1-11.7.1-23.1.3-33.3.7.2 1 .6 2 1.1 2.9-.6.3-1 .7-1 1.3-.8-.1-.4-.7-.6-1.2-.2 1.2-1.3 1.6-2.4.9-.2.4.1 1.1-.6 1.2.7 1.8 2.2.5 3.3.7.6 1.4-1.8 1.7-2.4.9-.2.2-.1.5-.5.7 1.9 1.6 4.8-.1 6.3.1 0 .4 0 .9.4.8-.3 1.2-.8 2.3-2.3 2.8-.2-.6.3-.9.1-1.5-1.2.9-4.8-1.5-5.9-.2-1.2-.1-1.1-2.2.2-2-2.3-.7 1.3-2.7-1.6-4.8.6-.4.4-1.2 1.3-1.5.2 1.4.5 1.7 1.6 2.3.4-1.1.6-2.2.7-3.4-24.5.9-41.4 2.4-38.5 4.7-1.7-.9-2.6.1-3.3 2.4zm3.1 3.8c-1.7 0 1.1-1 0 0zm-5.4 43.9c-1.6 0 1.2-1 0 0zm-1.1 7.7c-.9-2 1.8-.5 2.6-1.5.2 1.1-1.8.9-2.6 1.5zm1.1 2c-.5-.7 1.4-1.4 1.6-.2v.1c-.7.5-1.1.1-1.6.1zm3.5-.3c.2 0 .4-.1.5-.1 0 0-.2 0-.5.1zm186.2 11.4c-1.5-.5 1.5-.5 0 0zm-6.3-70.2c-.1 0-.2-.1-.3-.1v-.3c.1.1.2.2.3.4zm-.3-.5c-.1 0-.3.1-.4.1-.4-.4-.7-.9-1.1-1.4.8-.7 1.1.4 1.5 1.3zm-6.5-.9c-.1-.3-.2-.5-.4-.8.4.2.5.5.4.8zm-72.8 66c.4 0 .9 0 1.3-.1-.4.2-.9.2-1.3.1zm3.1.3c-1.2-.7 1.5-1.1 0 0zm2.7 20.1c.8-1 2.8.3 3.4.9-.8 1-2.4-.8-3.4-.9zm4.6 1.3h.1c-.5-.1-.8-.1-.1 0zm.2 0c.7.2.5.1 0 0zm-2.1-21.9c4.6-.3 7.1 1.8 11.4 1.8-3.4.6-9.8 4.3-11.4-1.8zm9.8 18.3c-1.6 0 1.2-1 0 0zm.1 12.5c.3 0 .4.1.5.1-.4-.1-1.5-.2-.5-.1zm1.9 3.6c-1.5-.5 1.5-.5 0 0zm-.1-30.5c1.5.6.9 2.8 0 0zm1.2 6.4c1.6-.6 2.7 2.9 3 4.2-1.2-.8-2.1-2.4-3-4.2zm.7-1.7c.2 0 .3.2.5.2-.1 0-.2.1-.3.1 0-.1-.1-.2-.2-.3zm.6.3c.3.2.7.6 1 1.1-.3.1-.6-.1-.8-.3.1 0 .2-.1.2-.1-.1-.2-.3-.5-.4-.7zm4.1-3.5c-2.4-1.6-2.5-.3-5.3-.9 2.2-1.6-1.3-1.3-1.1-3.1 2.7.4 5.4.9 7.2 2.2-.3 1.3-1-.6-1.9 0-.6 1.7 1.6.1 1.1 1.8zm-2.7-4.5c.1-1 1.7-.3 1.9 0-.1 1.1-1.7.3-1.9 0zm3.1 5.3c.6 0 .1.4.4.8-.5.1-.8-.6-.4-.8zm-2-12.9c-1.5-1-4.3-2-4.2-3.6 2.3-1.4 4.4 1.4 6.9 1.3-.5 1.5-3.1 1-2.7 2.3zM136 306c.8-.2 1 1.7 1.6 2.3-1.3.2-1.3-1.4-1.6-2.3zm4.2-1.6l.3.3h-.2c-.1-.1-.1-.2-.1-.3zm.4.6h.3c2.5 2.3 3 6.2.3.6-.1-.3-.4-.4-.6-.6zm9.6 33.1c-1 0-3-2.1-1.2-2.5.4.8.8 1.6 1.2 2.5zm-.5-32.9c.2-.4.5-.4.9-.4-.3.1-.4.3-.5.5-.1 0-.2-.1-.4-.1zm.9 33.6c-.6 1.4-2.9.7-4.6.9.1-1.9 3.2-.4 4.6-.9zm-4.2 10c.2.1.3.1.3.2l.1.1c.6.6-.8 1.5-.4-.3zm-1.1-27.9c.9-.3 1.6 1.2 1.4 1.9-.7.4-.9-1.4-1.4-1.9zm1.9-16.5c-.1-.2-.2-.4-.3-.5.4.1.7.2 1.1.3l.1.1c-.3 0-.6.1-.9.1zm-.1 12.7c-.3 0-.6 0-.9.1-.4-1.7.8-.7.9-.1zm-1.3-5.6c1.6.5 1 2.8 0 0zm-.8-1.6c.4-.1.7.6 1 1.1-.5.1-.7-.7-1-1.1zm.8 43.5c-.1 1.3 1.2 3.2-.7 3.6l-.8-.7c-.6-1.5.7-2.1 1.5-2.9zm-1 10.9c-1.4-1.1 1.3-.7 0 0zm-1.2-57.3c.3-.1.5.4.8.7-.4.1-.6-.4-.8-.7zm.2 58.8c.7 2.4 1.8 4.5 3.3 6.5-1.3 0-4.2-5.7-3.3-6.5zm4.5-15.4c1.7-1.3 5.3-1.1 7.6-2.7-.3.6-.3.8-.2.8 0-.2.2-.4.7-.6 0 .1.1.2.1.3-.3.1-.6.2-.8.3.3 0 1-.5 1.7-.4.4.9-.4 1.2-.9 1.4-.1 0-.1-.1-.2-.1-.6.2-.5.3-.2.4.1 0 .3.1.5.1-.1.6-1 .4-1.5.5 1.1-1.7-.9.3-1.5-.9.1 2 2.4 1.4 3.4 2.2-.3 1.8.6 2.3 1.9 2.2-1.9 2-4.8-.8-8.4-.4-.4-2-.4-2.3-2.2-3.1zm2.5-10.5v-.3c.1.1.3.4.4.5-.1.1-.3-.1-.4-.2zm1.1 1.4c-1.6.1 1.1-1 0 0zm11.6-1.3c.4.3.7.7 1.1 1-3.1-.1-5.2-1.5-8.6-1.3 1-.6 4.9-.4 7.5.3zm-1.5-12.8c.4-1 2.6-.4 2.3.9-1.2.2-1.5-.6-2.3-.9zm11.1 4.9c-1.5-.3 2.3.3 0 0zm1.1 20.1c-.1.2-.2.3-.3.5-.2-.2-.3-.4-.5-.6.3.1.6.1.8.1zm-2.3-17.8c2.9.6-1.3-.4 0 0zm-.7-5.4c.5.2.8.6.8 1.3-.9.2-.8-.6-.8-1.3zm.2 12.7c-.6 0-1.1 0-1.4-.2.1-.5.2-.8.4-.9.3.4.6.8 1 1.1zm.5 2.5c-.4 1.2-1.2-.6-2.3 0 0-2 2-.4 2.3 0zm-.7 4h-.8v-.8c.2.3.5.6.8.8zm.5 3.3c.4.7 1 1.4 1.5 1.8-1.4.8-3-1.1-4-.3-.6-.1-.1-1.3-.8-1.3.6-1 1.9-.6 3.3-.2zm4.8 15.9c-2-2.1-4.9-2.4-8.1-2.7-.1.7.1 1.3.3 1.9.8.1.4.1 0 0 .4.9.9 1.6.5 1.9-1.2-1.5-1.4-2.3-2-3.9-.7-.1-1.5-.2-2.2-.3.6-.1 1.3-.1 2-.1-.1-.3-.3-.6-.5-1 .8.1 1.3 1.5 2.4.6.1.2 0 .3-.1.4h2.5c-.3-.4-.6-.8-1.2-.4-.9-1.5 1.2-.5 1.8.4 2.9.2 5.5.8 6 2.4-.5 0-1.8-.6-1.4.8zm.4 4.9c-.4 0-.3-.5-.4-.9.4 0 .3.6.4.9zm-1.3 21.5c.4 0 .7.1 0 0zm-.1-.1c-.4-.1-.8-.1-.1 0h.1zm-16.2-28.1c-1.2-.8-1.1-.5-2.7-.9.8-.4.9-1.2.9-2.2-.4 0-.6-.6-.9-1.1.4-.1.6.5.9 1-.1-1.4-.4-2.9 1.1-4 .5.1-1 1.5-.4 3.1 1.4 1.1 3.6 1.2 5.7 1.3-.3 2.5-5.2-.6-4.6 2.8zm-.7 11.6c-.7.2-.6-2 .4-1.3v.9c-.4-.1-.4.1-.4.4zm-.4 3.1c1.2 2.9-.5 4.8 0 0zm-1.2-24.5c1.4-1.4 2 1.1 0 0zm1.5 2c-1.8-.5.9-1 0 0zm3.2 1.1c.2.1.4.3.7.5h-1.1c-.8-.4-.3-.5.4-.5zm0-8c1.5.5.9 2.6 0 0zm-1.6 5.9c.4-.1.7.6 1 1.1-.5.1-.7-.7-1-1.1zm0-5.9h-2.3c-.2-1 .5-.9 1.1-.9.5-.3.5-1.1.7-1.8.1.1.3.2.4.4.3.8.4 1.9.1 2.3zm-.4 2.2c-.8.2-1-.3-1.5-.4-.1-.8 2.1-.8 1.5.4zm-.4 5.4c.8 1.2.1 1.7 1.1 3-1.1.4-2.1-2.6-1.1-3zm1.5 6.3c.2.4.5.2.8.2-.2-.3 1.7-.2.4.2-.2-.1-.3-.1-.3-.1-.2 1.1-1.4 0-1.3-1.1.5-.2 1.7.6.4.8zm1.7.8c1.5.6.7 2.6 2.1 4.1-.2.2-.8.1-.9-.1.8 3.7 5.4 10.6 7 13-6.5-1.4-8.1-12.3-10.1-16.7.4-.1 2.1 1.1 1.9-.3zm3.7-.9c.6 1.4.8 2.7-.5 3.1-.2-1.2-1.1-2.8.5-3.1zm.9 3.6c1.5.5.9 2.7 0 0zm3.3 24.5c-.1.4.1.4.4.4-.1.5-.7.4-1.1.4-.2-.6.2-.7.7-.8zm-1.5-27.6c.1-1 1.7 2.8 2.4.6.6 1.5-1.6 1.6.3 3.8-.4 1-2-3.3-2.7-4.4zm4.2 11.5c.3 1.1-1.7.9-1.8-.3.6.1 1.1.3 1.8.3zm-4.6-23.1c1 .1 1.5.6 1.5 1.8h-.3c-.4-.3-.8-.7-1.3-1 .2-.1.3-.4.1-.8zm2.5 2.8c.2 0 .4-.1.6-.2-.1.2-.2.4-.3.5-.2-.1-.2-.2-.3-.3zm.5 4.7c0-.4.4-.5 1-.5.5.5 1 .7 1.5.1 1.2.2 2.4.4 3.2.4-1.5 1.4-3.5-.6-5.7 0zm0-5.3h-1.1c-.6-1.3 1.7-1.3 1.1 0zm-2.6-14.7c-.1.6-1 .4-1.5.4-.4-1.6 1.2-.8 1.5-.4zm-.4-5c-1.5-.5 1.5-.5 0 0zm-1.1 19.5c.6.5 1.2.8 1.6 1.3-1-.3-2-.8-2.4-1.1 0-.3.3-.3.8-.2zm-1.6-27c.2-2 2.2.4 0 0zm.2 28.4c-.5 1.2 2.3 4 1.8 5.2-1.5-.4-4.4-8.1-1.8-5.2zm-2.5-1.2c.6-.9 0-.6 0-1.8.4.1.7-.1.8-.4 1.1-.2.4 1.7 1.1 1.8.1.9-1.3.1-1.9.4zm1.1-10c-.6.4-1.4-1.7-.3-1.4.1.3.3.5.4.8-.3.1-.3.4-.1.6zm-7.1-3.2c-.2-.3-.5-.5-.7-.7.4-.1.8.2.7.7zm-1.1 4.4c.5 1.1-.9-.3-1.4.5-.5-1.1-1.1-2.2-1.6-3.3.8.3 1.3 1.5 2.2 1.1.7.7-.4 1.8.8 1.7zm1.3-9.7c-.2-.2-.5-.7-.8-1.3.2.1.4.2.6.2.3.6.3.9.2 1.1zm-.4.4c-.4.2-.8.3-.5 1.3-.2-.1-.4-.2-.6-.4-.6-1.3-1.2-2.6-1.9-3.9.7.5 1.4.8 2.1 1.1.3.6.6 1.2.9 1.9zm-2.8 4.6c-.8.2-1-1.7-1.6-2.3.8-.2 1 1.7 1.6 2.3zm-1.7.7c.3-.1.7-.1.1.4h-.1v-.4zm.5-10.5c-.3-.6-.5-1.1-.8-1.7.3.1.7 0 1 0 .1.2.2.4.4.6-.1.4-.4.7-.6 1.1zm-.6 7.3c-.1 0-.1 0-.3-.1-.5-.1-.1 0 .3.1zm3.2 19.1c-.4 0-.3-.5-.4-.9.4 0 .3.6.4.9zm-.8-1.3c-.7.6-2.3 1.3-3 .4.3-1 2.1-.2 3-.4zm-3.8 2.2c-.1.6-1 .4-1.5.4.1-1 1-1 1.5-.4zm-1.1 28.1c.4-.7 1-1 1.5-.4-.1.6-1 .3-1.5.4zm3.4-23.6h-.8v-.9h.8v.9zm-3.4-2.7c.9-.8 2-.9 3.1-.4 0-.8-.3-1.2-.8-1.3.4-.6 1.7-.3 2.7.4-1.3.7.1 1.5 1.1 1.8-.4.5-.3.9.4.9-.3 1.2-1.2 1.6-2.7 1.3v-2.2c-1 .2-2.6.6-3.8-.5zm6 27.8c.2.3.7.7 1 1.1-.2-.4-.2-.8-.1-1.2h1.1c.5 1-1 1.7 0 1.8-.1.4-.4.3-.7 0 .1.3 0 .6-.4.9-2.1-2.7-3.4-7.4-.9-2.6zm5.6 13.7c-2.2-.8-4.2-1.2-6.4-2.1l1-.6c1.5-.2 11.2 5.5 5.4 2.7zm13.3 16.8c.1 0 .3.1.4.1-.1.2-.3.1-.6 0-.1.1-.3.1-.5 0 .1.2.5.3.7.5-.6.5-2.3-1-3.3-1.3.7 0 1.6.2 2.4.4 0-1.5.1-2.1-1.2-1.4 0-1.4.8-1.7 1.1-2.7.6.7-.3 2.2 1.5 2.2-.1.8-.1 1.8-.5 2.2zm-2.4-3.9c-1.3-.6 1.4-1.1 0 0zm4.2 2.2c-1.6-.5 1.5-.5 0 0zm1.5 2.7h-.8v-.9h.8v.9zm-1.2-14.7c-1 0-.6-1.7-1.1-2.2-1.9.7-.1 2.3-.8 3.1.1.8 1.3.3 1.5.9-.8 1.3-1.8 2.3-2.7 3.6-1-2.9-1-6 0-8-.2-.9-1.5-.4-1.1-1.8 1-.1 2.3.2 3.4.1-4.7-2.7-9.6-6.6-15.4-9l.6-.9c6.3 2.9 11.5 6.4 16.2 9.5.6-.3 1.1-.9 1.3-2 1.4-.7 2.3 1.4 2.7.4.9 1.5-.6 2.1-1.4 3.2.7.5 1.4.9 2.2 1.4-.8-.2-1.6-.5-2.5-.9-.2.4-.3 1-.2 1.7-1.1.1-2.6-.4-2.7.9zm6.1-26.9c-.2 0-.5-.1-1.1-.3-.6-.2.7.2 1.1.3.3.1.2 0 0 0zm.4 25.1c-.4 0-.3-.5-.4-.9.4 0 .3.6.4.9zm-1.1-4c1.4 1.3-1.4 1.8 0 0zm-.3-8.6c-2.7 0-1.2-1.7 0 0zm-2-25.3l-.2-.2c.3-.4.7-.6 1.3-.7 0 .6-.5.9-1.1.9zm-.5 11.1c1.3.1.7 2.3 0 0zm-.4-8.1c.3-.1.5.4.8.7-.4.1-.6-.4-.8-.7zm-1-7c-.1-1.9 2-.5 2.7-.4-.2.9-1.9.1-2.7.4zm1.8 50.7c.8-1.6 3.2.3 5.2 1.1-1.5 1.4-2.9-1.1-5.2-1.1zm4.7-42.6c-.4-.4-.8-.7-1.2-1.1.3-.2.6-.5.4-.8-.1-.1-.5.3-.6.6-.6-.6-1.2-1.1-1.9-1.7.4-.2.6-.4-.2-.7.9-1.1 1.3-.5 2.7-.4.1 1-.3 1.4-1.1 1.3 1.6.6 1.9 2.8 4.6 2.2-.5 1.4-1.5.6-2.7.6zm-3.1-7.7c1.8-1.5 2.6 1.1 0 0zm.4-.7c.3-.1.4 0 .1.3-.1-.1-.1-.2-.1-.3zm3.8 7c-1.5-.5 1.5-.5 0 0zm-.5-5.5c-.2-.3-.4-.7-.6-1.1v-.2h.3c.4.3.8.5 1.1.8-.1.5-.5.6-.8.5zm-.8-3.5c.8-.1 1.1 1.5 2 .7.1 1.5-2.7.7-2-.7zm.2 7.7c.1.3.3.5.4.8-.2.1-.5.2-.7.3-.1-.3-.3-.5-.4-.8.2-.1.4-.2.7-.3zm2.3 10.4c.3-.1.5.4.8.7-.4.1-.6-.4-.8-.7zm-2.3-18.5c-.2 0-.3.1-.3.3-.2-.1-.3-.2-.5-.3-1.9-3.5-7.5-.5-11-2.3.4.2 1.2-1.2-1.1-1.8.4-1 1.8.6 3 0 .2 1.2.3 1.9 2.3 1.8.1-1.2-2.1.4-1.5-1.3 1.1.1 2.7.5 4.4.9.3.3.6.4 1 .2 1.8.5 3.7 1 5 1.6 2.8 1.2 2.8.4-1.3.9zm-6.9-9.4c-1.4 0-3.1.3-2.7-1.8 1.2.3 2.8.2 2.7 1.8zm-1.3-5.3c.2 0 .4.1.2.2-.2 0-.2-.1-.2-.2zm4.8 8.5c-.4 2-3.3-.1-5.3 0 1.2-1.2 3.2.6 5.3 0zm-3.3-37.8v-.6c0 .2.1.4.2.6-.1.1-.1 0-.2 0zm1 15c-1.5-.5 1.5-.5 0 0zm.3-14.4c-1.6.1 1.2-1 0 0zm.9-.8c-.4-1 .5-1.3 1.2-.9.1.6-.7.7-1.2.9zm1.8 35.3c-.1 1-1 1-1.9.9v-1.3c.9-.3.8.7 1.9.4zm-1.1-20.1c.8.2-.7 2-1.1.9 0-.7 1.1-.2 1.1-.9zm4.6 6.7h.1c.2.4.4.8.3 1.2h.1s0 .1-.1.1c0 .4.5.3.8.4-.5 1.9-1.6 0-2.3-.4-.2-1 1-.5 1.1-1.3zm-.5-19.8c-1.7.1 1.1-1 0 0zm6.7 2.1c-.4-.2-.7-.7-.9-1.3.3.4.6.8.9 1.3zm-.8-6.8c.1 0 .1 0 0 0 .2.1.2.2.3.4-.1-.1-.2-.2-.3-.4zm-2.4 58.4c-1.5-.5 1.5-.5 0 0zm0-8c.3 0 .3.3.3.6l-.3-.3v-.3zm-.2-5.6c-.1-.4-.3-.3-.6-.3-.5-.7 1.3-1.2 1.3 0-.3.2-.5.2-.7.3zm-.9-12.3c-1.5-.5 1.5-.5 0 0zm1.9 10.3c2.2.4-1.6-.3 0 0zm.4-39.4c.3 0 .6.3.8.7-.2-.1-.4-.2-.5-.2-.1-.2-.2-.4-.3-.5zm.7 45.5c-1.7.1 1.1-1 0 0zm0-1.2c-1.5-.3 2.3.4 0 0zm.1-46.5c-.5.1-.5 1.3 0 1.3-.1.7-1.6-.5-2.7 0 1.4-1.6 1.4-.8.4-3.1 1.4-.4 3.6 3.2 2.3 1.8zm-3.3-5.8c.1-.1.2-.2.3-.4.7.8 1.6 1.9 2.3 3.1-.8-.7-1.5-2-2.6-2.7zm2.1 8.9c-.7-.8-1 .4-2.3 0-.4-1.8 2.7-1.8 2.3 0zm-1.2 1.1c.2.4.3.8.4 1.3-.2.1-.4.2-.6.5-.6-1.1-1-2.5-1.9-2.2.1-1 1.1-.1 2.1.4zm-1.3 37h-.2H186.5h.5zm-1-3.6c-.3 1-2.1.2-3 .4.1-2.1 1.9.1 3-.4zm-1.5 3v.1c-.8.2-1-.3-1.5-.4-.1-.8 2-.8 1.5.3zm3.8 69.4c.3-.3 1 .2 1.5.4-.3.3-1-.2-1.5-.4zm.7-32.5c-.9-1.6 1.7-2.6 2.4-.9l-2.4.9zm2.8-19.8c-.7-.3-.2-.4.5-.5l.5.5h-1zm.1-7.2h.2c.2 0 .4.1.5.1-.1 0-.3 0-.5-.1h-.2c-.2-.1-.2-.1 0 0zm1.6 8.1l.3.3-.1.1c-.7-.2-.5-.4-.2-.4zm-.8-1.4h.9c.6.3.3.4-.2.4-.2-.1-.4-.3-.7-.4zm2.5 56.7c-.6.8-2.6-.4-1.6-1.2 1 .4 1.1.8 1.6 1.2zm0-58.5c.6-1.2 1.7.6 3.1 0-.4.9-2.7.5-3.1 0zm3.4 4c-1.5-.5 1.5-.5 0 0zm-2.6-.9c.3-1.2 1.3.5 1.9.4.1.9-1.2.3-1.8.4l-.1-.1c.2-.2.4-.6 0-.7zm-.1 46.4v-2.7h1.5c-.6.8-.3 2.6-1.5 2.7zm0-3.1c-.1-1.8 1.3-1.3 1.5-1.8 1 .6-.3 2.2-1.5 1.8zm-.4-5.8c-.3-4.1 1.9-5.2 3.4-7.1.6 2.5-.2 8.9-3.4 7.1zm3.5-11.6c.8 1-.7 2.5.4 3.6-.1.7-.7-.4-.8.5-.4-.2.3-2.9 0-4.5.4.1.7-.1.8-.5.6.3.2 1-.4.9zm-3.8-35.7c2.7-1.2-2.6-2.4-4.2-1.3 2.1-2.1 6.2-.2 8.4.4-1.5.5-2.4.2-4.2.9zm-.9-53.5c-.2.1-.4.1-.6.2-.3-1.1-.7-2.2-1.3-3.2h.6c1.9.7 2.5 4.4 3.6 6.7-.1.2-.2.4-.5.5-.1-.1-.3-.1-.4-.2 0-.8-.3-.9-.7-.7-.5-.6-.7-1.5-1-2.5 0 0 .1.1.1.2.2-.1.5-.2.7-.3-.3-.2-.4-.4-.5-.7zm1.3 7.9c1.2.5-1 .5-1.5.4-1.2-.4 1-.4 1.5-.4zm1.7 42.1c-.1 0-.3 0-.5-.1-1-.1 0 .1.5.1zm-4-43.4c1.7-1.3 2.9-.4 3.8 0-1 1.5-2.5.5-3.8 0zm7.2-1.6c-.9.1-1.2-2-1.8-2.7 1.5-.3 2.3 1.8 1.8 2.7zm-1.5-6.9c-.1 0-.2-.1-.3-.1 0 .1.1.2.1.3-.1-.1-.2-.3-.4-.4-3.5-1-7.6-1.3-11.3-2.1 3-.5 8-.2 11.1 1.8h.3c0 .1 0 .1.1.2.2.2.3.2.4.3zm-9.9-5.7c-.1-.2-.2-.5-.4-.9.6.2.9.6.9 1 1.9.2 3.9.9 5.8 1.1-.2-.3-.4-.6-.5-.9.4-.1.8-.1 1.2-.2.3.5.6.9.8 1.4.1-.2.4-.2.7-.3-.1.4.1.4.4.4 0 .4-.4.4-.7.4.3.5.5 1 .8 1.5-.4-.1-.8-.1-1.1-.2l-1.2-1.8c-2.6 1.1-6.2-1.2-9.2-1.3.7-.2 1.6-.3 2.5-.2zm-3.4-.5c.1-1 1-1 1.5-.4-.1.5-.9.3-1.5.4zm1.1-1.7c-.6-.1-1.1-.6-1.5-1.4.9-.8 1.1.7 1.5 1.4zm-1.5 10.1c-1.3-.6 1.5-1.1 0 0zm1.5.5c1.2.6-1.3.4-1.9.5-1.2-.7 1.4-.5 1.9-.5zm-3.4 2.2c.7-.1 3.1-1.4 3 .5-1.5-.4-3.8-.9-4.6.4.8 1 3.2.2 4.6.4 0 .8.3 1.2.8 1.3-.3 1.2-1.3-.5-1.9-.4-.3 1.2.8.9 1.1 1.3-.3.9-2.7.5-3 0 .1-.6 1.1-.2 1.1-.9-1.5-.7-3.5-.5-5.7-1.3.1-.9 2.2-1.4 0-1.3 0-2.1 5.8-1.8 4.6 0zm-.8-11.6c.1 1-1.4.2-1.9.4.4-1.4.7-.2 1.9-.4zm-1.5 2.7c-1.1.7-2.1-.1-4.2 0 .1-1.8 3.2-.1 4.2 0zm-4.9-.5c-1.5-.5 1.5-.5 0 0zm-8.2-14.4c.3.2.7.3 1.1.5.1.1.2.3.2.5-.3.2-.4.2-.6.1-.4-.3-.8-.5-1.2-.8 0-.2.2-.3.5-.3zm.1 4.2l-.3.3c-.2-.1-.5-.3-.8-.7.6 0 .9.2 1.1.4zm3.5 19.2c2-.4 4.1-2.3 6.1-.9v2.7c-.8 1.1-2.5-1-2.7 1.3-.9-.1-1.4-.7-2.7-.4-.6-.9 0-.6 0-1.8-3 3.1-7.8-.5-11.8 0 .2-.9 1.5-.4 1.1-1.8-.4 2.1-3-.9-3.4 1.3-.2-.2-.4-.3-.6-.5 1.1 2.1 2 4.6 2.8 6.2h-.1c-1.1-2.2-2.1-4.4-3.2-6.5-1.6-.8-3.8-.8-5.8-1.9.1-.4.7-.7 1.5-.9-.1-.1-.2-.3-.2-.4.1 0 .2-.1.3-.1.1.1.2.3.2.4 1.9-.3 4.6 0 5 1.4 5.4-.3 8.9-.4 13.5 1.9zm-19.2-6.4c.5-.1.8.7.4.8-.6 0-.1-.4-.4-.8zm7.9-8.3c.1.3 0 .4-.2.5-.1-.2-.2-.5-.4-.6.2.1.4.2.6.1zm-2.2-1.1c.2-.1.3 0 .4.1 0 .1.1.1.1.2l.1-.1c.3.2.5.5.8.7-.2-.1-.4-.3-.7-.2.2.3.4.8.6 1.1-.8 0-1.8-.2-1.1 1.1-1.3.4-2.1-.9-3.3-.7-.4-2.1 2.8-.5 3.1-2.2zm-3.4.8c-1.4-.2.9-1.5 0 0zm-1.1 6.7c-.1 0-.3-.1-.4-.1-.2-.5-.5-1-.7-1.5l.9-.3c.2.7 0 1.2.2 1.9zm-5.2-13.6c1.3 2.6 2.7 5.3 4 8.1-.7 0-1.6-.7-1 .5.3.7 1.1-.1 1.5.4-.5.7-1 .9-1.4.9-.2-.4-.4-.8-.5-1.2h.1-.1c-1.4-3-2.8-6-4.3-8.9.5 0 1.1.1 1.7.2zm-1.9 13.6c-.1.2-.1.4-.1.7-3.2-.1-6.1-2.2-9.9-3-.5-2.6 2.9.4 2.3-1.1.2 0 .4.1.5.1.3.5.7.9 1.1.6 0-.1-.1-.3-.1-.4.6.1 1.2.2 1.8.2 1.3 1.3 2.8 2.3 4.4 2.9zm-4.6-9.4c-.6-.9-1.2-1.9-1.7-2.8v-.3c.9 0 1.3 2.2 2 3.1-.1.1-.2 0-.3 0zm.5-6.8c-.3.1-.5-.4-.8-.7.4-.1.6.4.8.7zm-1.6.3h-.3c-.1-.2-.3-.4-.4-.9.7 0 .8.7.7.9zm-.6 5.9c0 .1.1.2.1.3-.5-.1-.9-.3-1.4-.3.2 1.3.6 2.4 1 3.5h-.1c-.6.5-.1.5.2.3.3.7.7 1.4 1.1 2-.4 0-.7 0-1.1-.1-.6-2-1.6-4.3-2.8-6.6.4 3-1-.4-1.9-2.2 1.8.4 3.3 2 4.9 3.1zm-3.7 9.1c.2 1.2-1.7.3-2-.7.6.3 1.2.9 2 .7zm-4.6 8.1l-.3-.3c.3-.2.8-.2.3.3zm-4.7 7.6c.2 0 .3 0 .5-.2.1.5-.1.6-.5.5v-.3zM125 294c.5-.1.7 1.2 1.3 1 .3.9-2-.2-1.3-1zm-1.2 11.7c.9 1.8.5 2.9 1.6 4.8-1.2-.2-2.1-3.7-1.6-4.8zm-.4-5.3c.1 0 .1-.1.2-.1.1.3.3.5.4.8-.1 0-.2.1-.3.1-.1-.2-.2-.5-.3-.8zm-.6-11.4c.7-.2 1.4.9 1.6 1.9-.4-.1-.8-.2-1-.7-.1.1-.2.2-.3.2-.2-.6-.4-1.1-.3-1.4zm-.4 8.9s-.1 0 0 0c-.1 0-.1 0 0 0zm-.3-.9c-.1 0-.1 0-.2.1-.4-.6-.5-1.1-.6-1.5.3.3.6.8.8 1.4zm12.1 49.9c-3.1 3.1-9.1-.9-13.7-1.3 4.6-3 8.9 2.5 13.7 1.3zm-14.5-6.7c-1.6-.6 1.5-.6 0 0zm-1.6-43.7c.7.7 1.3 1.5 1.9 2.3-.9-.4-1.7-.9-2.4-2-1.9 1-3.4.2-4.7-1.1 0-1.5 3.2 1 5.2.8zm-93.2 10.9c.1.8-.6.3-1 .4-.1-.9.6-.3 1-.4zm1.1-.4c4.2-.7 1.9 1.2 6-1.3.4 2.8 4.4.1 5.6 3.7-2 .5-3.9.4-5.9.7-.8-1 .3-1.1.4-1.6-.4-.5-.9-.7-1.5-.4-.7.3.7 1.8.9 2.6-2.5.3-3.2.8-5.4.1.5-2.5-2.1-.9-3.1-1.3-.2-1.5 4.2-.6 3-2.5zm-.9-7.5c3.5-1.4 6.9-1.7 10.6-2-1.4 2.1-7.5 1.6-10.6 2zm8.5 3.7c.6-.1.4-.1 0 0zm-.2 0h-.1c-.4.1-.6.1 0 0 0 .1 0 .1.1 0zm-1.8 1.7c-1.6 0 1.1-1 0 0zm.8 60.1s0-.1 0 0c-.1-.4-.1-.8-.5-.8-.2-1.2 1.4 0 2-.2.5.8-1 .6-1.5 1zm.1 29.1c1.9.7-.5 2.1 0 0zM28.4 364c.4-.1.7-.2.9-.3.6.1.5.3.1.5-.4-.1-.7-.1-1-.2zm.1.5c-.4.1-.7.2-.9.3-.8-.1-.4-.3.2-.6.3.1.5.2.7.3zm1.2.6c.1.1.3.1.4.2l-.1.1c-.6 0-.5-.2-.3-.3zm.1-3.5c0-1.4 1.9 0 2.8-1 .1.9-2.2 1.3-2.8 1zm2.5-8.3c-1.6.1 1.1-.9 0 0zm-5.3-1.8c-.1 0-.2 0-.3.1-.1 0-.2 0-.3.1-.8.1-.2 0 .3-.1.1 0 .2-.1.3-.1zm3.1 1.7c-1.2 1-2.1.9-3.4 2.3 1.9-2.1-3.4-1.3-4.5.2 1-2.7 5.7-2.4 7.9-2.5zm-4.8 4.8c-.1 0-.3.1-.4.1h-.1c-.7.1-.3.1.1 0 .1 0 .3-.1.4-.1zm-3.8-3c-1.6.2 2.2-.5 0 0zm0 3.5c-.1-.1-.3-.1-.4-.2-.1-.1-.1-.2-.2-.2.3-.1.5.1.6.4zm-.3 5.8c-1.6 0 1.1-1 0 0zm-3.1-13.5c2.3-.4-1.5.3 0 0zm-.8 7.6c.5.1.9.2 1.4.3.1.4-.2.7-.6.7-.4-.2-.7-.5-1-.8 0-.1-.1-.1-.1-.2.1.1.2.1.3 0zm-6.2 2.4c-1-1.7 1.7-1.1 2.2-1.3.4.9-1.6.8-2.2 1.3zm2.4 8.8c.3-.1.5.4.8.7-.4.1-.6-.4-.8-.7zm1.2-5.8c-.1 0-.2-.1-.3-.1.1-.5.4-.8.9-1.1.3.6 0 1-.6 1.2zm-.2-3.8c.8-1.9 2.8.2 0 0zm3 32.4c-.5-.6-.1-.9.3-1.1.1.4.3.3.6.3.1.6-.5.6-.9.8zm1.8-27c.2-.3.3-.7-.1-.9-.2-.1-.3.4-.3.8-.8-.3-1.6-.6-2.5-.9.3-.3.3-.6-.5-.6.3-1.3 1-1 2.2-1.3.5.9.4 1.4-.4 1.6 1.8 0 3.1 1.9 5.2.5.2 1.4-1.1 1-2.1 1.4l-1.5-.6zm3.5 25.1h.1c-.4 0-.8.1-.1 0zm.3-.1c.1 0 .2 0 .3-.1h0c-.1.1-.2.1-.3.1zm.3-15.9c-.2 0-.5 0-1.1.1-.2 0-.2 0 0 0s.8-.1 1.1-.1h.1c.1 0 .1 0 0 0h-.1zm1.3-9.1c-1.6.1 1.1-1 0 0zm1.5 34.5c-.5-.7-1.5.2-1.9-1.2 1.8-.8 5.5-.8 4.6-4.1.9-1.1 2.8.5 2.7-.5 2.2 1.6-1.2 3.1.7 5.6-1 .4-2.6.5-2 1.7-.9.3-1.3-1.3-2.1-1.7-1.4 1.3 1 2.1.7 3.1.4.7 1.3-.2 1.8.3-.2 1.5-.6 2.7-.8 4.2-2.2-2.4-3.6-5.2-3.7-7.4zm4.4 12c-1.4-.2.9-1.6 0 0zm.8 7.5c.2-.5.2-1-.3-1.7 1.2-.5 1.6 1.2.3 1.7zm2.5-4.4c-.8-1.6-1-2.4-1.9-1.2-.6-1.2-.1-1.9-.2-2.8.9.4.7 2.2 2.4 1.5.2.9 1.3 2.4-.3 2.5zm.9-50.9c-1.6 0 1.2-1 0 0zm-.2 32.6c.3-.1.5.4.8.7-.4.1-.5-.4-.8-.7zm.9 15.8c-1.6 0 1.1-1 0 0zm-1.6-54.4c-.1-1.4 1.6 0 2.4-.9.2.9-1.9 1.2-2.4.9zm3.5 56.6c-.1-.3-.3-.5-.4-.8.2-.1.5-.2.7-.3.1.3.3.6.4.8-.2.1-.4.2-.7.3zm.6-54.2c-1.6 0 1.1-1 0 0zm3.3 71.9c0 .1 0 .1 0 0-.1-.2-.2-.5 0 0zm0 .3c.1.3.2.6 0 0zm0-1.3c-1.4-.2-.3-2.2-.5-3.1 1.3.2.8 2.3.5 3.1zm3.5-124.2c.8-.1 1.6-.4 2 .7-.7.1-1.5.4-2-.7zm1.8 78.7c.7 0 .7.9.1 1 1.2.7.5 2.5 2 3.1.2.7-.8-.1-.5.7-.5-.1-1.1-2.8-2.1-4.1.5-.1.6-.3.5-.7zm2.3 12.8c-2.1-3.6-.6-5.4-.2-7.7 1.7 2.1 3.9 8.2.2 7.7zm3.6 3c1.1.2.6 2.1-.6 2.2-.9-1.7.6-1.7.6-2.2zm-.5 32.8c2.2 1.3-.2 1.9 0 0zm1.4-27.8c-.4-.8-.8-1.6-1.2-2.5.5-.2.9-.3 1.4-.5-.3 1 .8 2.5-.2 3zm5.4 3.1c-.6.3-1.3.5-1.9.8-1-1.1.6-2.5 2.2-2.3 0 .5-1.3.8-.3 1.5zm-3.3-20.4c1.2 2.2 1.1 3.8 1.6 5.7-.5-.6-3.3-5.1-1.6-5.7zm1.7 6.7c.4-.1.7.6 1 1.1-.5.1-.7-.7-1-1.1zm1 2c.1.3.3.5.4.8-.2.1-.5.2-.7.3-.1-.3-.3-.5-.4-.8.2-.1.5-.2.7-.3zm-.6-9.5c1.6-.1.8 1.4 1.8 2.7-.9.2-1.2-1.9-1.8-2.7zm3.2 29.1c.1-1.2 1.8.7 0 0zm-1.3-24.4c2.3 1.8 3.1 6.4 3.8 9.3-2-2.3-2.5-6.4-3.8-9.3zm4.9.6c.2-.1.5-.2.7-.3.1.3.3.6.4.8-.2.1-.5.2-.7.3-.1-.3-.3-.5-.4-.8zm.5 20.7c2.1-.3 1.6 2.4 3.5 3.6-1.8.9-2.5-1.8-3.5-3.6zm1.4-16.1c1-.3 1.8 1.6.5 1.8-.6-.8-.3-1.2-.5-1.8zm2 5.6c.4-.1.7.6 1 1.1-.5.1-.7-.6-1-1.1zm1.7 31.7c-1.1.4-1-1.2-.8-1.5 1.1-.4.9 1.2.8 1.5zm-5.8-53c-1.4.7.1 2.9-1 3.8-.9-2.1-.8-1.3-2-.7-1.6-2.6-1.2-2-2.5-4.9.1 2-2.3 1.1-2.9-.8 1 .5.9-1.2 1.7.8 1.3-.7 1.2-2.1.6-3.7 2.2.4 1.7-.9 3.4-.8-1.4-9.4-6.8-19.3-9.6-29 4.6 8.7 7.1 18.9 11.5 27.8 2 .6 3.1.8 4.1-1 .2.4.6.2.9.1-.1 1.8 4.3 1.1 4.7.2.4-.5 1.5 1.7.8 1.6.5.3.7-.1 2-.2.9 1 0 1.2.7 2.2-1.7-.7-4.9-1.8-3.3 1.7-1.2.1-2-1.2-2.7-2.9.1 1-.3 1.7-.4 2.6 1.8 1.7 3.5 5.2 1.7 6.7-.9-1.8-2.3-1.5-3.5-2.1.2.6 1.2 2.6 2.1 2.6-.2.8-1.5 1.1-1.5 2 .9 1.6 1.6 4.2 3.1 3.7.3 1.4-1.2-.1-1.6.1 1.5 5.4 3.6 11.2 5.6 16.9.9 1 .6-.9 1.6-.1.7.7 1.3 1.3 1.9 2.2-1 .3-1.6-1-2.6-1-.8.2.6 1.5.7 2.2-3-.9-4.3-5.9-5.5-9.2-2.3-6.7-4.9-15-8-20.8zm-3.4-46.5c2.9-.4-1.4.2 0 0zm2.3-.4c.9-2.1 2.7.5 0 0zm2.8-.1c.5-2 4.5-.8 6.9-2.1-.4 2-4.6.5-6.9 2.1zm15.5-36.9c.3 1.3 1.2 2.3 2.5 2.5.9 1.7-1.6 3-1.5 1.1-.5.5-1.3.8-1.3 1.5-1.5.1-.8-1.1-1.6-2.3.9 0 1.5.6 2.5 0-.5-2.2-2.2.4-2.8-1.4 1.2-.3 1.4-1 2.2-1.4zm-.6-1.2c-1.7 0 1.1-1 0 0zm5.5 2.8c-1.6.3-1.6 1.6-2.7.5-.5-1.3 2.3-2.4 2.7-.5zM81 333.6c-2.3.3-4.5.4-6.9 1.1.4-1.8 5.2-2.1 6.9-1.1zm-1.4 77.7c-.1-1.4 1.2.9 0 0zm-3.8-28.5c1.3.3.9.9 1.6 2.3-1.2.7-1.7-1.6-3.1-.3-.1-.7 0-1.2-.1-1.9.5-.2 1.9 1.3 1.6-.1zm1.6 32c.9-.1 1.2 2 1.8 2.7-.9-.6-1.7-1.5-2.5-2.5.3-.1.5.4.8.7.3-.1 0-.6-.1-.9zm-3.1-.7c5 2.4 1.1 8.1 4.4 11.3-4.6-1.1-3-7.5-4.4-11.3zm3.3 17.9c.4-1.6.3-4.2 2-4.8 2.5 1.2.4 4 1.5 5.9-1.7.2-2.3-2-3.5-1.1zm3.8-40.6c-.1-.3-.3-.5-.4-.8.2-.1.5-.2.7-.3.1.3.3.6.4.8-.2.1-.4.2-.7.3zm.6-27c1.5.5.9 2.8 0 0zm.8 2.6c.8-.2 1 1.7 1.6 2.3-.8.3-1-1.6-1.6-2.3zm2.7 20.9c.6 0 .1.4.4.8-.5.1-.8-.6-.4-.8zM83.9 370c2.7 6.4 6.4 14.3 8 20.8-1.6-1.9-4.2-4.7-5.9-8.5.6-1 1.3-.2 1.9-1.2-1.1-3.5-3.4-7.7-4-11.1zm2.8 1.4c-1.5.3 2.3-.4 0 0zm1.9-1.2c.1.3.3.5.4.8-.2.1-.5.2-.7.3-.1-.3-.3-.6-.4-.8.3-.1.5-.2.7-.3zm-.4-.8c0-2.1 1.8-1.6 3.8-2.4.8 1.5-.4 2-.5 3.1-1.3.5-2.2-.6-3.3-.7zm5.7 67.3c-.1-.5 0-.2 0 .2.1-.1 0-.1 0-.2zm-2.7-5.1c2.1-.7 1.8 2.3 2.9 3.2-1.8.2-2.1-1.9-2.9-3.2zm1.5-37.6c.3-.1.5.4.8.7-.4.1-.5-.4-.8-.7zm1.9-72.3c-1.7.1 1.1-1 0 0zm.6 61.6c-.6-.8.1-1 .6-1.2.1.4-.1.5.1 1-.2 0-.4.1-.7.2zm5.8-15.8c-3.1 0-3.9-5.5-5.2-8.7 1.8 1.8 5.3 6.9 5.2 8.7zm-4.4-52.4c-1.4.2 3-.4 0 0zm2-.2c-1.6 0 1.1-1 0 0zm.8 14.7c-1.6.1 1.1-1 0 0zm-1 .4c-1.7.1 1.1-1 0 0zm-1.3 40.5c-.8-.3-1.4-1.2-1.9-2.2 1-.9 1.2 1.4 1.9 2.2zm.6 11.9c-1.3-.8-2.8-3.2-1.2-3.9 1.5.4 1.9 2.9 1.2 3.9zm.8-1.7c-.5-1.1-.3-1.8.6-2.2-.2.8.6 1.9-.6 2.2zm1-2.9c.4-.1.7-.3 1-.4.6.8.3 1.2.5 1.8-.6.1-1.1-.4-1.5-1.4zm6.4 3c0-1.3 2-.8 1.9.4-.4-.4-1-.6-1.9-.4zm.5-21.6c-.7-.8.4-.8.1-1.5 1.2-.4 2.8.9 2.6 1.9-1.1.4-1.8-.6-2.7-.4zm3-1.6c-1.6.3-2.4-1.5-1.5-2.7.6.2.3 1.4 1.5.9v1.8zm1.1-35.5c-1.2 1.5-2.9 1-5 .9 0-2.7 3.5.2 5-.9zm-4.9 23.3c.6.3 1.1 1.3 1.6 2.3-1.3 0-2.5-.4-2.7.5-.7-.1-.2-.6-1.2-1.5.8-.4 1-1.1 2.3-1.3zm-1.9 25c-1 .6-1.5-.8-2.4-.6-.1-.4.1-.5-.1-.9.2-.1.5-.2.7-.3.4 1.4 1.4.5 1.8 1.8zm-2.2-68.8c.2-1-.3-.5-.8-1.6 1-.8 1.7-.1 2.5 0-.2.8-.9 1.2-1.7 1.6zm-11.7-1c-.3.7-.6.8-1.4.5.3 1.4 1.1.4 1.8.3.6-.3-.5-1.5-.1-1.9.2 1.2 5.2 2.8 5.2.5-.4-1.5-1.6-.2-2.2-1.1-2.9.4.7-.3 1.4-.5 1.8-.5 5.2-1.1 6.9-1.1-.1.4 0 1.3.6 1.2-.1 1.7-1.7-.5-2.7.5-1.2.6.6 1.1-.1 1.5.4 1 1.5-.8 1.7.8-1 .6-1.5-.8-2.4-.6 1.2 2.3-3.7 2-5.9.7.1 1-.8 1.4-2 1.7-.3-1.8-1.3-.5-1.9-1.2 0 .8-.4 1.4-1.7 1.6.3-1.1-1.3-1.2-2.2-1.1.3-1.7 1.7-.9 3.3-1.7-.6-.3-1.1-.6-1.7-.8.3-1.2 2.7-.6 3.4.7zm-1.9-6.1c-1.6.1 1.2-1 0 0zm1.6-2.5c-1.2 1.4-3.4.8-4.8 1.3-.2-2.3 3.4-.3 4.8-1.3zm-4.7-3.6c-1.6 0 1.2-1 0 0zm-4.5 5.1c-.6.2-1.2.4-1.8.7-1.1-1.1 1.7-2.2 1.8-.7zm-2.5-5.9c-1.7 0 1.1-1 0 0zm8.4 6.1c.5 2.6-.9.9-2.2 2.3-.4-.6 0-.8-.3-1.4-4 .8-7.3 2.9-10.9.7 4.2-1.3 8.5-.2 13.4-1.6zm-8.5 7.1c-1.6 0 1.2-1 0 0zm-4 1c-.4-1 .5-1.3 1.2-.9.2.5-.7.6-1.2.9zm-1.5-6.3c.4.9-.4 1.2-1.3 1.5-.7-1.2.8-1.8 1.3-1.5zm-2.7.5c-1.9 1.6 2.3-2.1 0 0zm-.3 2.6c-1.6-.9 1.6.7 0 0zm-.1-8.6c-.1 0-.3.1-.5.1-.9.1.1-.1.5-.1zm-3 3.4c-1.6.1 1.2-1 0 0zm3.1.3c-.2 1.1-2.7 1.1-3.1 2.1.2-1.5-2.2-.4-3.3-.7 1.2-1.5 4.3-.3 6.4-1.4zm-2.5 3.4c-1.6 0 1.2-1 0 0zm-.2 2c-1.6 0 1.2-1 0 0zm-8.2 1.1c3.5-.3-1.1.1 0 0zm-.9-.1c-.4.1-.7.3-1.1.4-1-1 1.1-1.8 1.1-.4zM52 305c.9-.2-.2-1.3.4-1.6 5.7 2.4 8.2-1.9 14.9-1.7-.1 1-2 1-2.4 1.9 1.2.7 1.5-1.3 2.9-.1.8-.4-.8-2 .6-2.2-.4 2.1 1.6-1.2 2.9-.1.6.8-.1 1-.6 1.2.6.9 2.1-.3 1.5-1.1 1.8 2.8 5.1-.3 7.1 1.7-3.6 1.9-8.6 1-11.1 2.7-.3-.5-.6-1.1-.8-1.6.2 3.4-4.5 1.2-6.6 2.5-1.1-1.2.8-1 1.3-1.5-2.8-.8-6.6 1.7-9.3.6.3 2.2-2.5 1-3.2 2.7-.9-.2-2.6-.7-2.3-2.1-.4.1-3.3 1-4.2-.9-.2.6-1.1.9-1.3 1.5.4.5 1.3-1.1 2.2.2-.6 1.4-3.3 2.7-4.9 1.8.2-.9 1.6-1.2 1.8-2.1-1-.9-2.2.7-2.8 1-.3-1.2-1.1-.5-1.7-.8.3-1.3 2.9-.7 5-.9 1.2-2.5 4.1-1.3 7.3-2.8.7.6 1.7.8 1.4 1.9.7-.4 1.4-.4 1.9-.2zm-8.3-3.2c3.5-.3-1.1.1 0 0zm3.2-1.2c-2.1 2.2 1.3-1.9 0 0zm3.2-.2c.2.6-.7.7-1.2.9-1-1.3.8-1.1 1.2-.9zm.8 4.1c-.4.1-.5-.4-.8-.7.4-.2.6.4.8.7zm-1.4-12.7c.3-1.9 1.8.8 0 0zm-9.8 5.2c-.4-.9 1.4-.7 1.9-1.2-.3 1.2.5.8 1.5.4-1.5-2.3-4.3.5-5.8-1.7 2.5.3 2.7-1.5 4-2-.3-.3-.7-.6-1.1-.6.2-1.2 2.9-1.6 3.7-.9.8 1.2.4 1.8 0 2.4 2.1.6 3.3.5 5 .1-.4 1.6-2.8.4-4.2 1.6 1.4 2 4.6.5 5.4.9 1.4 1.4-1.4.7-.8 1.8-.4.1-.4-.3-.2-.4-3.8-.7-7.6 1.3-12.5.8-.3-2.1 3.4-.5 4.8-1.3-.5-.5-1.2 0-1.7.1zm-3.1-2.8c.4 2.9-2.4.6-4.3 2.1.4-2.5 3.2-.2 4.3-2.1zm-4.7 1.3c-1.5-.1.8-1.5 0 0zm-10.2 1.4c-.4-.4-.9-.7-1.5-.4.4-2.8 3.6-.6 5.5-1.6.6.8-.4.8-.1 1.5-1.7-.7-2.8 1.7-5 2.4.1-.6-.1-1-.8-.7-.9-1.9 1.2-.2 1.9-1.2zm-2.7 2c-1.6 0 1.1-1 0 0z" fill="#221e20"/><path class="st26" d="M50.6 372.7c-.5 11.5-9.4 16.5-9.3 16.5 0 0-1.3.8-1.8-.2-.4-.8.4-1.2.4-1.2s8.1-5 8.4-13.6c.1-3-.5-9.6-7.3-9.8-11.6-.4-11.5 15.4-11 25.5.2 4.6-1 10.6-2.6 14.3 5.2 2 9.9 4.2 12.4 5 5.1 1.7 10.6 3 13.3 3.4.5.1 1.4-.4.7.8 0 0-.7 1.2-2.3 1-9.8-1.6-20.1-5.8-25.5-7.9-2.5 3.7-8.1 8.1-16.5 7.8-8.5-.4-9.7-5.6-9.6-7.3.1-2.5 2.4-7.3 10.8-7 4.3.1 9.2 1.5 13.9 3.2 2.6-5.8 2.7-15.9 2.7-26.1 0-10.6 7.4-15.6 13.9-15.4 6.6.2 9.6 6.2 9.4 11zm-40.1 29.8c-7.2-.3-8.1 3.4-8.1 4.3-.1 1-.4 5 7.3 5.3 6.5.2 11.2-3.2 13.6-6.6-3.8-1.5-6.2-2.8-12.8-3z"/><path class="st26" d="M64.3 399c.7-1.2 1.6.5.1 3.5-.5 1-4.4 9-10.1 8.9-6.8-.1-7.6-5.5-7.5-9.5.2-4 3.7-12 7.9-9.4 3.1 2 1.3 5.6.3 8.3-1.2 3.1-3.3 5.6-4.3 6.9.7.6 1.9 1 3.1 1 5.4.1 8.7-6.5 10.5-9.7zm-11.1-4.4c-1.5-.2-4.6 7-3.6 11.2 2.5-2.8 2.7-4.1 3.4-5.9.8-2.3 1.5-5 .2-5.3z"/><path class="st26" d="M69.5 410.3c-5.5-.2-6-7.3-5.8-11 .1-2.3 1.2-9.2 2-14.2H54.1s-2.2-.1-2.2-1.1c.1-1.6 2.2-1 2.7-1l11.5-.1c.3-1.8.6-3 .6-3.1.3-1.3.4-1.9 1.6-1.6.7.2 1.1 1.8 1 2.5 0 0-.1.7-.2 2.2l11.8-.1s1.8-.3 1.8.9c-.1 1.3-2.5 1.3-2.5 1.3H68.7c-.1 1.3-.4 2.8-.6 4.5-.2 1.4-1.6 8.1-1.8 10.2-.2 2.1.3 7.9 3.4 8.2 4.6.4 7.5-5.5 9.2-8.7.7-1.2 1.7.4.2 3.4-.5 1.2-3.6 8-9.6 7.7z"/><path class="st26" d="M83.6 368.1c.7.4.6 1 .6 1.5-.1.5-2 12.5-2.1 12.7-.1.2-.7 1.1-1.2 1-1-.4-1.2-1-1.2-1.7.1-.7 1.9-12.1 2.2-13.2.2-1 .8-.7 1.7-.3zM87.8 403.4c.3 1.1.8 2.1 1.3 2.9.1-.1.3-.1.4-.1 2.7-.2 3.4-2 3.4-4.3 0-4.3-1.5-5.4-2.3-6.9-.2 2.4-1.5 5.2-2.5 6.9-.3.5-1.9-.2-1.3-1.3.4-1 1.9-3.1 2.7-7.8.2-1.6.6-3 2-3 2.5.1 2.2 3 2.2 4.2.1 1.6 2.2 6.7 2.1 8.3-.4 3.7-3.2 5.9-5.3 5.5 1.1 1 2.5 1.6 4.1 1.6 5.5 0 9.1-7 10.9-10.2.7-1.2 1.7.5.2 3.5-.6 1-4.6 9.3-12 8.8-5.1-.3-7.3-3.6-8.4-7.9 0 0 0-1 1-1.3 1.2-.3 1.4.6 1.5 1.1zM121.9 410.3c-5.5-.2-6-7.3-5.8-11 .1-2.3 1.2-9.2 2-14.2h-11.6s-2.2-.1-2.2-1.1c.1-1.6 2.2-1 2.7-1l11.5-.1c.3-1.8.6-3 .6-3.1.3-1.3.4-1.9 1.6-1.6.7.2 1.1 1.8 1 2.5 0 0-.1.7-.2 2.2l11.8-.1s1.8-.3 1.8.9c-.1 1.3-2.5 1.3-2.5 1.3h-11.5c-.1 1.3-.4 2.8-.6 4.5-.2 1.4-1.6 8.1-1.8 10.2-.2 2.1.3 7.9 3.4 8.2 4.6.4 7.5-5.5 9.2-8.7.7-1.2 1.7.4.2 3.4-.5 1.2-3.6 8-9.6 7.7z"/><path class="st26" d="M144.8 411.3c-4.5.1-5.2-4.5-5.2-4.5s-2.7 4.9-5.3 4.9c-1.4 0-5-1.3-4.1-8.3s5.6-10.2 8-10.1c4.3.1 4 3.9 3.9 4.3-.6 1.9-1.3 1.4-1.9 1.2 0 0 .4-3.1-2.1-3.2-2.2-.1-4.3 3.2-5.1 6.6-.8 3.4-.3 7 1.5 7 2.8 0 5.1-7.5 5.4-9.4.1-.7 2.9-.2 2.8 1-.1 0-2.8 8 2.2 8 2.2 0 5.2-2.3 9.1-9.6.7-1.2 1.7.5.1 3.4-1.1 2.4-4.9 8.6-9.3 8.7z"/><path class="st26" d="M168.5 399.2c.7-1.2 1.7.5.1 3.4-.5 1-4.5 9.3-11.8 8.9-8.8-.4-9.1-10.3-9-18.5.1-7.3 4.4-22.1 10.2-21.7 3.7.2 5 4.7 3.9 12.1-1.4 10-7.3 19.8-9.7 22.5 1.3 2.1 3.2 3.4 5.4 3.4 5.6 0 9.2-7 10.9-10.1zM158 374.1c-2.8-.2-6.9 9-7.9 19.1-.2 3.1.2 8.2 1.2 10.9 3.9-5.6 5.1-8.5 7.8-19.2.5-1.9 1.7-10.6-1.1-10.8z"/><path class="st26" d="M181.7 411.5c-6.2.1-7.6-4.2-8-5.2-.8-2.5.9-2.5 1.4-2.7 3.4-.7 6-3.9 6.3-6 .1-.7.1-2.4-1.6-2.3-2.4.1-7.9 7.8-9.5 14.3-.7 2.8-1.3 2.7-1.7 2.7-1.5 0-1.6-4.2-1.3-7.9s4.1-27.6 4.5-29.9c.4-2.2 0-2.5 1.9-2 1.6.4.9 3.4.9 3.4s-3.7 15.1-4.4 28.5c1-1 5.2-11.7 9.9-11.4 3.1.2 4 2.6 3.5 4.7-1.1 5.6-7.6 8-7.6 8s1.3 3.3 6.2 3.3c8.8 0 11.6-6.9 13.4-10 .6-1.2 1.6.4.1 3.4-.6 1-4 8.9-14 9.1zM198.9 410.2c0 1.2-1.3 2-2.5 1.9-1 0-1.7-.9-1.7-1.9 0-1.3 1.1-2.2 2.3-2.1v.1c1.1.1 1.9.9 1.9 2zM205 410.2c0 1.2-1.3 2-2.5 1.9-1 0-1.7-.9-1.7-1.9 0-1.3 1.1-2.2 2.3-2.1v.1c1.1.1 1.9.9 1.9 2zM211.1 410.2c0 1.2-1.3 2-2.5 1.9-1 0-1.7-.9-1.7-1.9 0-1.3 1.1-2.2 2.3-2.1v.1c1.1.1 1.9.9 1.9 2z"/><path d="M118.6 5.8c-.6.1-.8-.9-1.7 0-.3 4.9 3.8 6.6 5.8 8.4-.7-.1-1.6.3-1.2-.7-.9.2-.2.9-.8 1.2.5.1 2.2-.5 2.7 1.2-1.6 1.3 2.1 2.1 2.8 4.4 1.1-.5-1.6-2.3.2-2.5 0 2.6 2.4 1.7 3.6 3.3-1.2.2-.8 1.1-2 1.3-.8 2.5 2.9 4.7 4.4 6.2-.6.1-1.1-.1-1.7 0 2.2.9 2.3 2.7 4.6 3.6-.9 1.9.6 4.4 2.2 5.1-.5.2-1 .4-1.4.6 1.7.6.6 2.6 2.5 3.8.2 2.4.4 8 2.4 10.3-.8.9-.6 2.2-1.3 3.8.5.9 1.3 1.1 1.8 2.1-1.6 1.3-.4 2.1.4 3.9 1.5-3.4.5 4.7 2.5 6.6-.5.2-1 .4-1.4.6 2.5 2.5-.5 6.5 1.8 8.9.2.7-1.1.7-1.1 1.3.6.5 1.4.4 1.6 1.7-1 .8-1.3 0-2.1.1 1.8 1.2 2 1.7 3.6 3.3-1.9 4 2 9.2-.5 12.4 2 1.3-.8 4.1 1.5 5.4-.9 1-2 1.9-1 3.7-.5.1-.8-.3-1.4-.2.5 1.2 1.5 1.1 2.3 1.4-.4.8-.9 1.6-2.1 2.1 2.3 2.6-.6 6.6 2 9.3-1.2 1.4-.8 7.8.4 8.7-.5.8-1.8 3.3.1 3.2-.2 1.2-.8.7-2 1.3.2 2.4-.9 4.2.3 5.5-.6.4-.6 1.1-1.5 1.5.9 1.4.2 2.2 1.1 3.6-2.1.4-1.9 1.6-2.8 2.4 1.8 2.8-.2 2.9 1.3 5.9-3.5.8-.6 3.3-2.5 5.1.7.2 1.4.4 2 .7-.7 1.4-2 1.2-.9 2.8-.8-.2-2.2 1.1-2.6-.1.4 1.7-1.5 6.1.7 7.4-.2 1.1-1.7 1.2-.3 2.2-1.2.8-2.5-.1-3 .9.5 1.1-.6 3.4.8 5.7-.5.2-1 .4-1.4.6.3.5.4 1.4 1 1.2-.2 1.1-2.2 1.2-1.6 3.1-2.9 1.3-2.1 4.2-2.2 5.8-1.2 1.9-1.6 2.4-.9 4.8-2.2.2-1.4 2.9-.2 3.3-.6 1.1-1.6 2.1-1 3.7-.7.2-1.1-.7-2.1.1-1 .7-.5 2.6.5 2.2.2.7-1.1.7-1.1 1.3.1.6.6.5 1 .4-1.4 1.5-2.2 3.2-3.2 5.5.3 1.4 2.8 1.9.8 2.9 2.2.3 1.9-5.2 2.2-6.7 1.7-.3 2.2 0 3.1-1.8.1.3.3.3.5.2.2.3.3.7.5 1-.3.1-.5-.2-.9 0 .6.3.9 1.1 1.7.9-.1-1.3 2-1.8 2.7-.8 0-3.1 2.4-5.5 3.2-8.3 3.9 2.1 2.2-3.5 3.5-5.6.9 0 1.7.1 2.6.1.9-.8.7-2.1 2.8-2.4.1-1.6.3-3.1.5-4.7 1.4-.4 2.4.3 3.8-.1 1.2-1.7.7-3.9 1.3-5.8.8-.5 1.4-.5 1.7 0 .7-.7.9-1.6.5-2.7.6-.2 1.3-.8 1.6-.3.8-.3-.4-1.3-.4-1.9 2.1-.5 1.4-.1 2.6-1.9-.2-.6-.5-1.1-.7-1.7.4-1 .8-.2 1.6-.3.4-1.4.9-2.7 1.7-4 .4-.1.5.6 1 .4 1.2-1-.3-3 1.8-3.6 1.2.4.5 1.4 1 2.4 1.3-.2.4-1.2 1-1.7 1.2-.7 1.4.8 2.6.1.7 1.4 1.3 2.7 1.3 3.9 1.7-.3 2.5-2 4.4-.7.1 1.1-.4.6-1.3 1 .7.6 1.7.5 2.1 1.9-1.6.3-.7 1.5-.7 2.3 1.2.1 2.5 0 3.2 1.4-1-.3-1.8-.9-3.3.3.8.7 1.4 1.8 2.1 2.7-2.1.5.4.8-1.1 1.3.6.5 1.1 1 1.6 1.7-.9 1.3-.2 4.2-2.8 3.3.2-.7.9-1.2.3-2.2-.9 1.1.1 3.4-2 3.3.7-.1 1 .8 1.7.9.4 1.2-1.6.9-2.5 1.1-.5.6.1 1.8-1.1 1.3.3 1 1.3.7 1.6 1.7-1.7.5-2.7 1.2-1.4 2.6-.5.1-.8-.3-1.4-.2.5.8 1.6.4 1.8 2.1-1.1.5-2.4 2.3-3.4 1.1-.6.9-.2 1.1.4 1.9-2.1 1.3-3.3.5-4.5-.4-1.3.9.7 1.6.2 2.4-2.1.2-1.2 1.1-2.9 1.3.8.2 1.5.7 2 1.6-1.8.2-2 1.2-3.7 1.2.4 1.6.6-.6 1 .4.2 1.8-1.7 1.4-3.3 2.3.1.5.1 1.4-1.7 2 .2 1.2 1.4-.1 1.5 1.4-1.8.6-2.8 1-3.7 1.2.1 1.1.9.7 1.1 1.5-1.5-.3-.7 1.5-2.3.6.4 1 1.5.1 1.6 1.7-1.6 1.1-2.4.3-3.7.4-1.2 1.3 1 5-2.2 4.6-.7.4.2 1.4-.5 1.8-1 0-1.9-.1-3 .1.6.8 2.2.9 1.8 2.1-.8-.2-2.2 1.1-2.6-.1-.7 1.5.8 1.9.3 2.7.2.8-1.7.9-2.4 1.4-.6-1.2-2-.3-3.1-.2 2.3 1.2-.8 1-1.4 2.6.8 1.1.3 1.8.3 2.7-1.6.5-3.5 1.7-4.4.7-.3.7-.7 2.1-1.9 1.6-.8.3.4 1.3.4 1.9-.5.1-.8-.3-1.4-.2.4 1 1.5.1 1.6 1.7-.7.1-1.9 1.3-2.3.6-.7.4.9.7.2 1.5-1.8-.3-2.1 2.2-4.1 1.4-.4.3.1 1 .2 1.5-1.8.5-3.3.4-4.5-.4-.3 1.4 1.4 4.1-.8 4 .4 1.2 1.4.9 2 1.6-.5 1.7-2.3.5-3.4 1.1-.5.9.9 1.8-1 1.7.2 1.2 1.4-.1 1.5 1.4-.6.3-1.8.1-.7.3.4.6-1.4 1.2-1.2.1.1 1.3-1.5 1.9-1.1 3.3-2.5 1.5-4 .8-5.6 0-.4.5-1.6 2.3-.2 2.5-1.6 1-1.6 2.5-1.2 4.2-1.7.3-2.6.8-2.9 2.1-2.2.7-4.4-.4-6 1-.9-2.2-4.3-2.9-6.9-3 .4-1.8-1.3-4.6-3.2-4.3-.4-.5 0-.8.4-1-3.2-2.1-.1-5.7-3.3-7.5 2.3-1.5-.4-4.2.6-5.5-3.1-.2-.8-5.6-3.9-6 2.3-.2.3-2.7-.3-3.5 1.4-1.1 0-1.6-.5-3 .7.2.6-.1 1.1-.5-.5-1.5-1.8-1.2-2.2-3.1 1-.6-1.1-3.5-1.4-5.1 0-.3.8-.9.8-1.2-.1-1.3-1.6-.8-2.3-2.2-.9-2-1.7-6.2-2.2-7.9-.3-.9-.4-2.9-2.8-2.4-1.2-1.9-1.1-3.4-.9-4.9-2.8 0-.9-3.4-3-3.9-.2-1.1 1.1-1.7.4-3-2.4.4-4.4-.3-6-1.8.5-.1.8.3 1.4.2-.6-1.5-1.2-.8-2.1-2.7.5-.4.8 0 1.2-.1-.3-1.7-1.4-1.5-.6-3.4-3.6-.7-5.1-4.4-6.3-6.5.4-.2.7-.3 1.1-.5-.4-.6-1.2-.5-1.5-1.4.6-.4.8 0 1 .4-.2-4.4-1.2-6.8-.3-10.4 1.2-1.2.5 1.8 1 .4.6-.1.1.5.4 1 .6-.4 1.5-1.8 3.4-1.1-.1-1.2.4-2.2.2-3.4 1.7-.8 3 .5 4.3-1.1-.2.6.7 1.2 2.4.6.5 1.2.9 2.4 1.9 2.4 0 .8-.1 1.7-.2 2.5.8-.4.8.9 2.8.4-.8 1.2.6 1.5.3 2.7 1.3-.2.4-1.2 1-1.7 1.2-.6 1.7.6 2.8.4.1.5-.8.7-1.3 1 1.9.2 1.7 2.8 4 3.1-1.2 2.8.4 4.9.1 8.1.9.4 2 .3 2.9.7-.7 2.2 2.1 2.8 3 3.9.1.5-.8.7-1.3 1 1.2.6 1.3 1.4 2.8 2.4-1.5 1-.6-.4-1.4-.2-.5 1.7 2.8.3 3.1 2.3-.4.2-.7.3-1.1.5.9.8 2.3.5 3 1.9-.5-.4-1.7.9-1.9-.4-.3.7 2.9 2.7.9 4.1-.3-.6-.5-1.1-.8-1.7-.9 2.5 2.5 2.9 3.7 4.5-.9.9-2.7-1-2.2 1 .5.7.4-.7 1.2-.1.8 1.2.3 1.8.8 2.9-.5.4-.8 0-1.2.1 1.1 2 3.4 1.2 4.7 2.8-.8.4-1.3.2-1.5-.5-.5.6-.8 1.3-.8 2 .7-.2.6-.7 1.3-1 .8 1.2.3 1.8.8 2.9-1-.3-.7-1.2-1.7 0 1.5 1.1 2 2.3 1.8 4.1.9.1 1.5 1 2.5.9.1 1.3-.9-.1-1.2.1-.1 1.1 1.6 1.2 2.6 2.9 2.2-3.3-1.2-7.2 2.3-10.3-1.2-.4.2-1.2 0-2 1.3.6 1.3-.6 2.9-1.3-.3-.7-1.2 0-1.3-1 2.4-1.5-.7-8.5 3.6-9.3.2-1.5.1-3 .7-4.3.6 0 1.1.1 1.5.5.5-3.1-.3-5 .4-7.9.8-.2 1.1.6 1.9.4-.9-2.5.4-4.2-.4-6.7 1.1-.7 1.7-.4 2 .7-.3.1-.5-.2-.9 0 .3.6.5 1.1.8 1.7 1.7-1.6.4-4.3 1.1-6.2.5-.1.8.3 1.4.2-.2-1.7-1.8-2.1-.1-3.2-3.6-4.9 3.3-8.7 1.4-12.4 1.2-2.1.4-5 1-7.4.7.1 1.1.5 1.5 1.4-1.3-.6-.8-.1-.1.8 3.6-3-.6-8.4 3-10.7-1.5-4.2-.6-5-1.3-8.8 5.4-1.7-3-6.7 2.2-8.7-.1-2.9-1.5-4.8.2-7.4-.5-4.1.9-6.9-.7-10.3 1.8-.6-.3-2.6 1.6-3.1 0-2-1.6-.4-2-1.6.4-.2.7-.2.9 0 .3-3.3.3-6.4-1.2-9.6 2.1-2.5.7-6.6-.3-8.4.4-.2.7-.3 1.1-.5-1.1-1.3-1.5-3.7-.7-5.4-2.7-2.8.7-11-4.1-13.2.6-.9.4-1-.4-1.9.5-.4.8 0 1.2-.1-.2-.6-1-.6-.4-1-.4-.4-.4.3-1.1.5-.1-3.5 1-4-.8-6.6.9-1.6.8-4.3-1.2-5.6 1.8.2.6-1.2 1.2-2.2-.7-.8-2.1-.1-2.7-1.2 2.1.4.6-2.5-.1-4-.3.4 0 .9-.8 1.2.6-.6-.5-1.9.7-2.3-1.2-.9-2.2-2-1.1-3.6-1.4-.3-1.3-2.5-3.3-2.6 1.3-.6 1.2-4.5-.7-5.4.4-.2.7-.3 1.1-.5-1.2-2.1-1.6-1.8-3.3-2.6.5-.2 1-.4 1.4-.6-.2-.5-.5-.9-.1-1.2-1.4-.8-5.2-.2-4.2-2.6-.9.2-.5 1-1.6 1.1-.4-2.7-2-2.9-3.9-4 2.7-.6-1.7-3.6-.5-5.9-.6.6.2 1.1-.9.8-.5.4.3.4.5 1-2.2.8-.6-1.6-1.7-2.9 1.1-.7 1.4.5 2.2.2-.3-1.1-1.3-.6-2-.7-.3-.8 1.5-.9 1.8-.8-2.1-.9-.8-1.5-2.4-2.6 1-.6-1.1-3 .8-4 .4.2.7.6 1 1.2-1.9.5 1.6 1.8.7 2.5.5.8.8-.8 1.3-1-.2-.6-.8-.5-1-1.2 2.1-1.4.6-6.6 3.1-4.6-1.6-.2 0 .5.2 1.5 1.2-.8 1-2.5 2.7-1.6.8-1.1.4-2.5 1-3.7 2.1-.2 1.4 2.2 2.1 2.7 1.3-.2 0-1.3.5-1.8 1.1-.3 2-.2 2.8.4-.1 2.7 1.7 3.2 3.4 4.8zM81.1 171.6c-.6.3-1.2.5-1.8.8.4.6-.2.9-.3 1.3 1.4 0 1.9-1 2.1-2.1zm59.3-19.3c.3.9.8 1.4 1.7.9-.3-1-.8-1.4-1.7-.9z" fill-rule="evenodd" clip-rule="evenodd" fill="#f7ad41"/><g><path class="st26" d="M32.6 316.3h7.7v10.9H45v-10.9h7.7V346H45v-12.2h-4.7V346h-7.7v-29.7zM55.9 316.3h17.6v6.3h-9.9v5.1h9.2v6.1h-9.2v5.9h10.2v6.3h-18v-29.7zM81.2 334.3l-7.6-18h8.5l2.9 10.4h.1l2.9-10.4h8.5l-7.6 18V346h-7.7v-11.7zM110.9 334.3l-7.6-18h8.5l2.9 10.4h.1l2.9-10.4h8.5l-7.6 18V346h-7.7v-11.7zM135.4 315.7c7.9 0 10.6 4.3 10.6 15.4s-2.7 15.4-10.6 15.4-10.6-4.3-10.6-15.4 2.7-15.4 10.6-15.4zm0 25.6c2.4 0 2.6-2.2 2.6-10.2 0-8-.2-10.2-2.6-10.2s-2.6 2.2-2.6 10.2c-.1 8.1.2 10.2 2.6 10.2zM155.6 316.3v21.4c0 2.9.9 3.6 2.3 3.6s2.3-.7 2.3-3.6v-21.4h7.7v19.5c0 8.3-3.6 10.8-10.1 10.8s-10.1-2.5-10.1-10.8v-19.5h7.9zM171.8 326.2v-10h7.2v10l-.9 11.2h-5.6l-.7-11.2zm.1 13.2h7v6.6h-7v-6.6z"/></g></svg>