<svg version="1.1" id="Layer_1" xmlns="http://www.w3.org/2000/svg" x="0" y="0" viewBox="0 0 238.8 338.8" xml:space="preserve"><style>.st107{fill:#221e20}</style><path d="M148.6 291.6c-.2.6.5.3.9 0-2.4-1.7-4.3-.6-5.4-2.8-1.7-3.2-6.1-5.3-10.4-8.1-1.3-3.1-4-4.3-5.6-5.7-2.2-1.9-4.9-5-9.4-6.7.2-2.3-1.6-2-2.3-3.9-1 .1-3.1.3-2.9-1.1-1.7.3-3.3 1.2-5.4.4-.6-2.5-2.1-3.6-1.7-5.9-4-1.4-7-5.9-11.5-9.2.6-1.1.3-3.5 1.6-4.6 8.8 1.8 12.2 13.3 21.4 11.6-.3-1-.6-2-.6-3-.8-.8-1.1 0-1.9-.5-.1-2-.8-2.1.5-4.3 3.7-2.7 5.4 1.6 8.3 3 1.9.9 4.5-.7 5.6 1.6 1-.9 2.5 0 3.6-.4.3-.5.3-.9.2-1.2 3.3.1 5.1.4 6.1-1.8 1.9-.4 4.3 1 5.7-1.1-2-1.4.9-2.6 1.7-3.2-1.4-2.4-.1-5.8-.7-8.6-.3.9-.8 1.3-1.4 1.1.2-1.8-.6-4.5-2.8-3.7.1-3.7-1.1-6.9-1.5-10.3.5-.7 1.2-.6 1.8-.9-3.1-2.8-4-6.4-5.7-9.8.2-1.2 1-.7 1.3-1.6-2-.8-1-3.7-2.7-5.5-1.7-1.7-2.3-1.9-2.3-3.9.3-1.2 1.3-.2 1.6-1.4-.6-1.9-.3-4.2-2.7-5.5 0-1.1 1.6-.9.7-1.4-1.4-.9-2.2.4-3.1 1.1-.3-1-.5-2.9 1-3.6-.1-1.2-2.1-1.8-2.3-3 .7 0 1.2-.5 1.6-1.4-.8-.6-.5-1.6-1.5-2.1-.3.9-.1 1.9-1.3 1.6-.6-1.6-.8-3.4-2.3-3.9-.7-1.4 2.5-.6 1.6-2.3-1.1-.9-1.2 1.8-2.4.6 1.2-4.4-6-7.9-.8-10.9l-2.4-1.2c-.3.9-.1 1.9-1.3 1.6-.7-2.5-.5-4.1-2.7-5.5.1-3.9.8-8.1-3-10.7-.9 1.3-1.9 2-2.9 3-4-1.1-4.5-5.6-1.3-6.6-4.6-1.4-4.2-4.6-4.7-7.5-2 .8-3.3-3.4-4.6-1.9-.3.8 1.5.9.8 1.8-1.7-1.2-3-1-4.4-1.4.4-1.8-1-3-.5-4.8-1.2 1.2-2.1-1.6-2.9-.2-1.6-2.1-2.1-4.5-3.9-6.6-1.8-1.3-3.2 1-4.3-.9-.3.8-.9 1-1.6.5-1.5-1.5-1.1-3.7-4.5-4.6l.9-1.8c-1.9-.4-.9-1.9-2.1-2.5.1.4-.2 2.6-1.3 1.6-.6-1.9-2.1-2.6-3.6-4.6-4.8 3.3-7.4 1.1-14.2-2.4-.1-.7.3-1.7-.1-2.3-.7 0-1.1.9-1.9.4.5-.9 1-1.7.3-2.1-1 .7-2.3-.1-2.8 2.2-.9-.4-1.4-.9-.8-1.8.3-.9 1.4 1 1.6-.5.4-1.6-3.2-1.3-2.4-3.6 1.5-.3 2.9-.6 4-2-.5-1.1-2.5-.7-3.2-2.1 1.1-2.1 2.2-.2 3.1-1.1-.6-1-.6-2.1-.9-3.2 1.5-.5 3.1-.5 4.4-1.8-.8.2-3.3.3-2.8-2.8 3-1.1 6.8.4 9.7-1.3-.8-1.1 0-2.8.5-4.3-1.2-.3-1-1-1.8-1.4.4-1.2 1.4-.5 1.9-1.3.1-.7-.7-1.1-.8-1.8 2.8-.1 4.3-.7 4.8-4.3.8 0 1.7.8 2.4.3-.5-.8 1.1-.6 1.1-1.7-.9-.5-1.8-.9-2.7-1.4-.2.4.1.6 0 .9-1.2-.5-1.9-1.3-1.8-2.3 3.8-1.6 6.7 1 9.2 3 .8-2.8 3-1.1 4.1-2.9 1.5.9 1.2 1 2.7 1.4-.2-.7.4-2 1.3-1.6.4.6.1 1.5.6 2.1 2-.7 6.2 2 4.9 3 2.7-.5 6.1 0 8 1.9.5-.4 1-.6 1.4-1.1 1 .9 2.1 1.8 2.8 2.8 2-.9 4.3 1.6 5.7-.2-.5 2.3 1.5.7 3.2 2.1.5.7.1 1.7.4 2.5 2.3.2 3.5 1.7 4.4 3.2.7-.3 7.2.5 4.1 2.1.1-.5.1-1-.1-1.4-.9 1.4-.2 1.9-1.5 2 1.2.5 2.2.4 3.1-.2.8 1.6 1.3 3.3 2.2 4.8 1.4-1.2 2.9.7 2.9 1.1-.3-.1-.5.1-.7.5 1.1.7 1 1.8 2.7 2.3.2-.8-.6-1.2.3-2.1 1.2 1 .5 2.6 1.6 3.6 1.1-.6 2.5-.1 3.3-1.4 1.1.2.3 1.1 1 1.4.6-.9 1.6-.5 2.4-.6.4 1.4-.9.2-1.4 1.1 3.7 2.8 4.4 5.7 4.8 10.7.7.1 1.8 1.5 2.2.7.1-.5-.1-.9.4-1.6 1.9.6.5 2.4 1.8 3.2 2.1-1.8 2.2 2.7 3.7 1.9-.4-.3-1-.4-.8-.9.3.1.5-.1.7-.5 1.8.2-.1 1.8.9 2.3 1.6.8 2.8.3 4.4 1.4-.5 2.1.6 3.7 1.5 5.3-.4 2.1-2.3 4.7-.1 5.9.4-.7-.7-.9.1-1.8 1.7 1.8.9 2.8 4 3 1.2 2.2.8 4.9 3.4 5.9-.2 1.3-1 .6-1.4 1.1 2.2-.3-.2 1.8 1.8 2.3-.1-.4.1-2.2 1.1-1.3-.2 1.5 2 2.2 3 3.4.7-.2 1-1.9 2.1-.7-.2 1.7-1.3.3-1.8.9 1.6.6 2.6 1.5 3 2.5l-.9 1.8c2.5.8 2 4.9 4.2 6.7-.5 2-1.8 1-2.5 2.3 5.6-.8.2 6.8 4.9 7.1-.8 2.4 2.4 3.5.6 6.2 2.4.2 2.4 3.4 5.3 2.3 1.7 2.9.1 7 2.2 9.8 2 .6 1.8 2.7.1 2.3.2-.4.6-1 .2-1.2-.6.9-.7 1.6.3 2 .5.2.7-.8 1.4-.2 1.5 2.6 1.5 7.3-1.6 9.6.8 3 5.1 2.3 6.5 4.8-4.1 5.6 0 8 .7 11.8.3-.4.7-.4 1-.4-.1 2.7-.3 5.4 1.3 7.5-2 4.3-2.1 8-1.7 11.4-1.2 1.7-1.1 1.6-2.2 3.4-.6.6-1.8-1.1-2.4-.3 1.7 3.8 8.9 2.7 10.2-1.5 2.7.4 5.2.2 8.2 1.6 1.2-.9 3.9-1.8 5.5-4 2.3.4 3.5 2.4 5.5 1-.4-1.5 1.1-4.6 2.8-4.5-.6-1 0-2.4.1-3.6 2.4.2 4.4-.7 7.1.5 1.2 2.5-3.5 6.1-1 7.7.6-1.1.5-1.9.6-2.9 2.5-.9 5.3-.8 8.4.3-1.7 8.9-6.4 14.1-8 22.7-.9-.4-1.6-.2-2.1.7.3 1.5-.1 5.7-2.5 5.5-.2 2 .5 2.4-.5 4.3-.7-.5-1.3-.6-1.7 0 .2.7-.3 1.5-.9 1.8.6.5.4 1.2 1.3 1.6-1 1.4-.8 1.8-1.5 3.8-.7.2-1.6-.3-2.2.2 1.7 1.7-1.4 3.4-.2 5.4-.6 1.3-2-.1-2.5 1.4 1.1.5.7 1.5.4 2.5-1.1-.9-1.5.8-2.3 1.1 2.3 3-1.5 4.9-1.2 8-.9-.1-1.3.7-2.6.9 1.8 1.9-.1 4.7-1.9 5.4.6 5.1-1 10-4.8 13.4.4.9 1.1 1.8.6 3-2.1 2.3-1.2 9.6-4.1 11.1 1.5.7-.2.9-.6 1.1.6 2.1-.4 8.1-3.2 7.9.2.7 1.3 1.1 2.2 1.6-.1 1.1-.1 2.2-1 3.6-1.6-1.3-2.2.8-2.3 2-4.1.6-7.2-4.2-6.8-6.7-2.8-3.6-9.3-3-9.5-7.2-.9-.1-1.7.1-2.7-.5-3.3-5-6.7-8.3-8.4-13.5-2.3-.4-1.9-2.1-3.5-3.2-1.3 2.4-3.6 2.3-5.7 4.3-1.4-1.1-2.1 0-3.4-.9-.2-.6-.1-1.3-1.3-1.6 1-2.1 3.2-5.4 5.4-6.3-1.1-.1-2.1 0-3.4-.9-.1-5.1-7.7-8.7-9.2-10.8zm40.2 34.1c.9 1 1.1-.1 1.7 0 .3-.8-1.7-1.5-1.7 0zm1.8-.9c1.4-1.1-.7-2.5 1-2.7-.1-1.1-.5-1-1.5-1.2-.6 1.6-.6 3 .5 3.9zm-9-12.4c1 .7 1.5-.2 1.9-1.3-.6-.6-.6-1.6-1.5-1.2-1.1.4 0 1.5-.4 2.5zm-3.9-15.6c-.9-1-1.4-2-1.2-3.4-1.4.3-1.6 2.5-3.3 3.8 1 .7 1.5 1.6 2.7 2.3.1-1.1-.3-2.5 1.8-2.7zm-41.1-21c.4.2.9.5 1.4.7.6-.9-.2-1.3-.8-1.8-.2.4-.4.8-.6 1.1zm-7.4-8c1.1.2.4-1.3.9-1.8-2.7-.4-3.6-3.3-6.5-2.5 1.8 1.6 4.1 2.2 5.6 4.3zm77-24c.7.2 1.1-.7 2.1.2.8-1 0-1.6 1-2.7-1.1-.4-2-.2-2.8.4-1 1-.1 1.3-.3 2.1zm21.7-3.7c-.3-.8-.5-2.2-1.7-1.8-.3 1 .5 2.2 1.7 1.8zm-1.1-2.8c1.1.4 2.1-1.9 1-2.7.1.7-.6 1.7-1 2.7z" fill-rule="evenodd" clip-rule="evenodd" fill="#f7ad41"/><path class="st107" d="M16.5 24.5l9.1-1.8 9.3 25.9h.1l-2.6-27.3 9.7-1.9 1.1 39.9-11 2.2-8.5-25.3h-.1l1.8 26.6-11 2.2L0 27.8l9.7-1.9L18.1 52h.1l-1.7-27.5zM44.5 19l22.9-4.6 1.6 8.2-12.8 2.6 1.3 6.6 12-2.4 1.6 7.9-12 2.4 1.5 7.7 13.3-2.7 1.6 8.2-23.4 4.7L44.5 19zM71.6 13.5l9.1-1.8 1.9 9.7c1.4 7-.6 10.9-7 12.3l-.9-4.7c2.5-.8 3.1-2.4 2.6-5.2l-.1-.6-3.5.7-2.1-10.4zM85.6 10.8l15.7-3.1c7.7-1.5 11.5 2.2 12.6 8.2 1 5.1-.3 8.9-4.8 10.5v.1c5-.5 7 2.3 8.1 7.4l.7 3.3c.4 2 .9 4.6 1.6 5.3.4.4.7.8 1.4 1l.1.5-10.8 2c-1.4-1.9-2.1-5.5-2.4-7.2l-.5-2.6c-.9-4.4-2-5.3-4.4-4.9l-2.6.5 3.1 15.5-10.1 2-7.7-38.5zm13.3 14.3l2-.4c2.9-.6 3.9-2.7 3.3-5.4-.6-3.1-2.1-4.2-5.2-3.6l-1.9.3 1.8 9.1zM116.6 4.6L139.5 0l1.6 8.2-12.8 2.6 1.3 6.6 12-2.4 1.6 7.9-12 2.4 1.5 7.7 13.3-2.7 1.6 8.2-23.4 4.7-7.6-38.6zM15.1 70.2l10.1-2L28 82.4l6.2-1.2L31.4 67l10.1-2 7.7 38.6-10.1 2-3.2-15.9-6.2 1.2 3.2 15.9-10.1 2-7.7-38.6zM46.2 64l22.9-4.6 1.6 8.2-12.8 2.6 1.3 6.6 12-2.4 1.6 7.9-12 2.4 1.5 7.7 13.3-2.7 1.6 8.2-23.4 4.7L46.2 64zM73.2 58.6L89 55.5c7.7-1.5 11.5 2.2 12.6 8.2 1 5.1-.3 8.9-4.8 10.5v.1c5-.5 7 2.3 8.1 7.4l.7 3.3c.4 2 .9 4.6 1.6 5.3.4.4.7.8 1.4 1l.1.5L98 93.9c-1.4-1.9-2.1-5.5-2.4-7.2l-.6-2.6c-.9-4.4-2-5.3-4.4-4.9l-2.6.5 3 15.5-10.1 2-7.7-38.6zm13.3 14.3l2-.4c2.9-.6 3.9-2.7 3.3-5.4-.6-3.1-2.1-4.2-5.2-3.6l-1.9.4 1.8 9zM104.3 52.4l22.9-4.6 1.6 8.2-12.8 2.6 1.3 6.6 12-2.4 1.6 7.9-12 2.4 1.5 7.7 13.3-2.7 1.6 8.2L112 91l-7.7-38.6zM135.3 59.7l-2.6-12.9 9.4-1.9 2.6 12.9 1.8 14.7-7.2 1.4-4-14.2zm3.6 17.1L148 75l1.7 8.5-9.1 1.8-1.7-8.5z"/></svg>