<svg version="1.1" id="Layer_1" xmlns="http://www.w3.org/2000/svg" x="0" y="0" viewBox="0 0 230.2 288.5" xml:space="preserve"><style>.st107{fill:#221e20}.st441{fill:none;stroke:#000;stroke-width:7}</style><radialGradient id="SVGID_1_" cx="5520.67" cy="491.961" r="158.269" gradientTransform="rotate(90 2917.61 -2410.032)" gradientUnits="userSpaceOnUse"><stop offset=".006" stop-color="#961914"/><stop offset="1" stop-color="#641b0a"/></radialGradient><path fill="url(#SVGID_1_)" d="M34.5 196.7H57V38.9L46.8 0l-6.9 4.1v175.5H13.7l23.9 21.1z"/><radialGradient id="SVGID_2_" cx="5595.244" cy="449.929" r="261.49" gradientTransform="rotate(90 2917.61 -2410.032)" gradientUnits="userSpaceOnUse"><stop offset=".006" stop-color="#961914"/><stop offset="1" stop-color="#641b0a"/></radialGradient><path d="M223.3 179.6h-39.9V4.1L49.9 2.7 61 32.8l-4-11.6h109.3v175.5h22.5l-74.3 60.8c-.8 1.1-2.1.6-3.3.4-1.3-.2-2.4 1-2.4 2.3v1.3l6.3 14.2c.9 2.7 4.5 3.3 6.3 1l101.9-97.1z" fill="url(#SVGID_2_)"/><radialGradient id="SVGID_3_" cx="5611.765" cy="502.317" r="135.815" gradientTransform="rotate(90 2917.61 -2410.032)" gradientUnits="userSpaceOnUse"><stop offset=".006" stop-color="#961914"/><stop offset="1" stop-color="#641b0a"/></radialGradient><path d="M117 280l-8-21.9c-.1-.4-.3-.7-.5-1l-70.9-56.3-30.7-25.3-6.9 4.1L109.7 287c1.1 1.5 3.1 1.9 4.7.9v-1c2.4-1.4 3.5-4.3 2.6-6.9z" fill="url(#SVGID_3_)"/><radialGradient id="SVGID_4_" cx="5464.118" cy="389.798" r="168.982" gradientTransform="rotate(90 2917.61 -2410.032)" gradientUnits="userSpaceOnUse"><stop offset="0" stop-color="#f8f5ee"/><stop offset="1" stop-color="#e1d4b4"/></radialGradient><path d="M60.1 187.9l.6-176.2 116.2-.3 2.7 174.6 24.6 4.8-84.4 70.7c-1.5 1.9-4.3 1.8-5.8-.1l-79.3-72.2 25.4-1.3z" fill="url(#SVGID_4_)"/><radialGradient id="SVGID_5_" cx="5521.987" cy="473.338" r="29.397" gradientTransform="rotate(90 2917.61 -2410.032)" gradientUnits="userSpaceOnUse"><stop offset=".006" stop-color="#961914"/><stop offset="1" stop-color="#641b0a"/></radialGradient><path fill="url(#SVGID_5_)" d="M59.9 194.8l4-2.2-31.1-10.4 7.7 12.6z"/><radialGradient id="SVGID_6_" cx="5588.578" cy="439.443" r="253.329" gradientTransform="rotate(90 2917.61 -2410.032)" gradientUnits="userSpaceOnUse"><stop offset=".006" stop-color="#961914"/><stop offset="1" stop-color="#641b0a"/></radialGradient><path d="M226.2 177.7h-39.9V2.2H60.7l1.6 17.1h106.9v175.5h22.5L117 256.2c-.9 1.2-1 2.7-.3 4l5.4 9.3c1.3 2.2 4.4 2.4 6 .4l98.1-92.2z" fill="url(#SVGID_6_)"/><radialGradient id="SVGID_7_" cx="5340.452" cy="286.832" r="342.784" gradientTransform="rotate(90 2917.61 -2410.032)" gradientUnits="userSpaceOnUse"><stop offset="0" stop-color="#961914"/><stop offset="1" stop-color="#be1818"/></radialGradient><path d="M6.9 175.5h39.9V0h143.5v175.5h39.9L121.4 281.7c-1.4 1.9-4.3 1.9-5.7 0L6.9 175.5zm57-158.4v175.5H41.4l74.3 60.8c1.4 1.9 4.3 1.9 5.7 0l74.3-60.8h-22.5V17.1H63.9z" fill="url(#SVGID_7_)"/><linearGradient id="SVGID_8_" gradientUnits="userSpaceOnUse" x1="5352.223" y1="463.155" x2="5589.427" y2="421.698" gradientTransform="rotate(90 2917.61 -2410.032)"><stop offset="0" stop-color="#be1818"/><stop offset=".03" stop-color="#c32222"/><stop offset=".142" stop-color="#d24243"/><stop offset=".259" stop-color="#de5b5d"/><stop offset=".378" stop-color="#e76d6f"/><stop offset=".502" stop-color="#ec787a"/><stop offset=".639" stop-color="#ee7b7e"/><stop offset=".7" stop-color="#eb7578"/><stop offset=".779" stop-color="#e46568"/><stop offset=".869" stop-color="#d74b4d"/><stop offset=".966" stop-color="#c52727"/><stop offset="1" stop-color="#be1818"/></linearGradient><path fill="url(#SVGID_8_)" d="M40.5 192.2l22.6-.4.8-174.7v175.5l-22.2.1 76.2 62.3z"/><path class="st107" d="M83.4 43.1h5.8L91.7 60h.1l1.7-16.9h6.2l-4.2 24.5h-7l-2.1-16.5h-.1l-2.1 16.5h-7L73 43.1h6.2L81 60h.1l2.3-16.9zM101.1 43.1h14.5v5.2h-8.1v4.2h7.6v5h-7.6v4.9h8.4v5.2h-14.8V43.1zM118.3 43.1h5.8v6.2c0 4.4-1.7 6.6-5.8 6.7v-3c1.6-.2 2.2-1.1 2.2-2.9v-.4h-2.2v-6.6zM127.2 43.1h10c4.9 0 6.7 2.7 6.7 6.5 0 3.3-1.3 5.4-4.2 5.8v.1c3.1.3 4 2.2 4 5.5v2.1c0 1.3 0 2.9.3 3.4.2.3.3.5.7.8v.3H138c-.6-1.3-.6-3.6-.6-4.7v-1.6c0-2.8-.5-3.5-2.1-3.5h-1.7v9.8h-6.4V43.1zm6.4 10.3h1.3c1.8 0 2.7-1.2 2.7-2.9 0-2-.8-2.8-2.7-2.8h-1.2v5.7zM146.9 43.1h14.5v5.2h-8.1v4.2h7.6v5h-7.6v4.9h8.4v5.2h-14.8V43.1zM77 70.8h6.4v9h3.9v-9h6.4v24.5h-6.4V85.2h-3.9v10.1H77V70.8zM96.7 70.8h14.5V76h-8.1v4.2h7.6v5h-7.6V90h8.4v5.2H96.7V70.8zM113.8 70.8h10c4.9 0 6.7 2.7 6.7 6.5 0 3.3-1.3 5.4-4.2 5.8v.1c3.1.3 4 2.2 4 5.5v2.1c0 1.3 0 2.9.3 3.4.2.3.3.5.7.8v.3h-6.8c-.6-1.3-.6-3.6-.6-4.7V89c0-2.8-.5-3.5-2.1-3.5h-1.7v9.8h-6.4V70.8zm6.4 10.3h1.3c1.8 0 2.7-1.2 2.7-2.9 0-2-.8-2.8-2.7-2.8h-1.2v5.7zM133.5 70.8H148V76h-8.1v4.2h7.6v5h-7.6V90h8.4v5.2h-14.8V70.8zM151.6 79v-8.2h6V79l-.7 9.2h-4.6l-.7-9.2zm.1 10.8h5.8v5.4h-5.8v-5.4z"/><g><path class="st107" d="M81.9 154.7v-.6c0-1.4-.6-2.6-1.8-2.6-1.4 0-2 1.1-2 2.2 0 4.8 10.4 2.5 10.4 11.4 0 5.2-3.1 7.5-8.7 7.5-5.3 0-8.2-1.8-8.2-6.9v-.9h6.2v.6c0 2.1.9 2.8 2.1 2.8 1.3 0 2.1-1 2.1-2.4 0-4.8-10-2.4-10-11.1 0-4.9 2.6-7.6 8-7.6 5.6 0 7.9 2.3 7.9 7.5h-6zM90.5 147.6h9.6c4.9 0 7.1 3.3 7.1 7.5 0 5-2.8 7.6-8 7.6H97v9.3h-6.4v-24.4zm6.4 10.6h1.2c1.6 0 2.5-.9 2.5-3 0-2-.9-3-2.5-3h-1.2v6zM109.2 147.6h14.5v5.2h-8.1v4.2h7.6v5h-7.6v4.9h8.4v5.2h-14.8v-24.5zM130.3 147.6h8l6 24.5h-6.8l-.7-4.3h-5.1l-.7 4.3h-6.8l6.1-24.5zm4.1 5l-1.8 10.4h3.6l-1.8-10.4zM145.1 147.6h6.4v9.4h.1l4.7-9.4h6.8l-6.2 10.7 6.9 13.8h-7.3l-3.7-8.5-1.3 2.1v6.5h-6.4v-24.6zM82.7 180.7h-4.8v-5.4h16v5.4H89v19.1h-6.4v-19.1zM103.3 174.8c6.5 0 8.7 3.6 8.7 12.7s-2.2 12.7-8.7 12.7c-6.5 0-8.7-3.6-8.7-12.7s2.2-12.7 8.7-12.7zm0 21.1c2 0 2.2-1.8 2.2-8.4s-.2-8.4-2.2-8.4-2.2 1.8-2.2 8.4.3 8.4 2.2 8.4zM125.9 175.3V193c0 2.4.7 3 1.9 3s1.9-.6 1.9-3v-17.7h6.4v16c0 6.9-2.9 8.9-8.3 8.9-5.3 0-8.3-2.1-8.3-8.9v-16h6.4zM148.4 182.4v-.6c0-1.4-.6-2.6-1.8-2.6-1.4 0-2 1.1-2 2.2 0 4.8 10.4 2.5 10.4 11.4 0 5.2-3.1 7.5-8.7 7.5-5.3 0-8.2-1.8-8.2-6.9v-.9h6.2v.6c0 2.1.9 2.8 2.1 2.8 1.3 0 2.1-1 2.1-2.4 0-4.8-10-2.4-10-11.1 0-4.9 2.6-7.6 8-7.6 5.6 0 7.9 2.3 7.9 7.5h-6z"/></g><path fill="none" stroke="#000" stroke-width="7" stroke-dasharray="3" d="M72.2 120.5h90.5"/><path class="st441" d="M72.2 109.5h90.5M72.2 132.5h90.5"/></svg>