<svg version="1.1" id="Layer_1" xmlns="http://www.w3.org/2000/svg" x="0" y="0" viewBox="0 0 237.7 120.5" xml:space="preserve"><style>.st12{fill:#000100}</style><path d="M55.9 80.2c-.6.1-1 .5-1.9.3-.3-.4-.3-1.2-.3-2 .9.4 1.5.9 2 .3.4.4 0 .6.2 1.4V7.3c0-4-3.3-7.3-7.5-7.3s-7.5 3.3-7.5 7.3v86.3L22.4 75.8c0 .3-.3.5-.7.5v-1.2L13 66.8c-3-2.9-7.8-2.9-10.8 0-3 2.8-3 7.5 0 10.3l26.2 25.2c.1-1.2.6-1.9.5-3.3.7.4.2 2.5-.4 3.4l6.7 6.4c.1 0 .2-.1.3-.1l2-6.7c.3 2.8.7 5.7 1.2 8.5.1-.2.3-.4.6-.4-.1 1.3.4-.1 1.1.3-.4.6-1 .7-1.6.6.1.5.2.9.2 1.4l1.6 1.6 3.2 3c1.3.1 2.6.5 3.6.9.1.5-.3.6-.3 1-.3-.1-.2-.3 0-.3-.7-.2-1.4-.3-2.2-.5l2 2c.8-.2 1.6.1 2.3.3l.5-.4h-.3c.4-1.3.7-1 1.3-.9l3.4-3.3c-.1-.2-.3-.3-.5-.4 0-1.3 1.9-1.6 1.5-.5l.9-.8 18.1-17.4c-.7-.2-1.4-.3-2-.2.5-.7 1.3-.4 2.3-.1l17.4-16.7c.3-2.9.6-5.8.7-8.7-1.1-.9-1.8-1.3-3.1-.3 0-.3-.3-.3-.6-.3.6-1.2-2.5-1.8-3.1-1.3-.5.2-.5-1.5 0-1.3-.3-.4-.5-.1-1.4-.3-.2-.8.3-.9.3-1.4-.3.2-.6.4-.9.7L55.9 93.6V80.2zm-39.4-6.3l-.3-.3c0-.4.1-.6.2-.7 0 .1.1.5.1 1zm.1 15.2c.2.1.4.1.6.2-.2 1.2-.7.2-.6-.2zm1-10.5c-.2-.1-.4-.2-.7-.3 0-.2 0-.3-.1-.5.2-.3.5-.4.8-.6.1.5.1.9 0 1.4zm.1-3.1c-.3-.5-.6-.9-1-1.3 0-.5 0-1 .1-1.5.3 0 .6 0 .8-.8.1.1.2.2.3.4-.1 1.2-.1 2.2-.2 3.2zM19.1 87c-.7 0-.7-1.2-.3-1.6.7-.1.2 1.1.3 1.6zm5.6 10.1c0 .1.1.2.1.3-.2 0-.5-.1-.1-.3zm5.8-3.9c-.1-.1-.2-.1-.4 0 .1-.4.3-.4.5-.2 0 0-.1.1-.1.2zm24-84.9c-.2 0-.4-.1-.5-.3h.2c0-.2 0-.4-.1-.6.2.2.3.5.4.9zm-.6-1V7c.1.1.2.2.2.3h-.2zm-.2-3.9c.9.7-.1 2.1 0 0zm0 8.2c-.5-.9-.8-2.1-.9-3.5 1.3-.1 1.1 2.5.9 3.5zm-.8 81c1.1.4-1.1.4 0 0zm-1.4-22.5l-.9-.3c.3 0 .6.1.9.3zm-1.7 33c1 .2-2.1-.5 0 0zM48.6 13c-1.2-.3 1-.5 0 0zm-.2 89.8c1.1.3-1.1.3 0 0zm-3.1-49.4c1.1.4-1.1.4 0 0zm1.2 42.2c-.8 1.8-2.2-1-3.6-.7 1.3-.6 2.2.1 3.6.7zM42 110.9c-.5.7 0 .4 0 1.3-1 .3-1.2-.4-1.7-.7.4-.4 1-.6 1.7-.6zm6.7 8.2c1.1.3-1.1.3 0 0zm.8-4.6c.4-.4.7-.4 1.1 0 .3-1-.6-.6-1.1-.7-.5 0-.2 1.1-.6 1.3.3-.8-2.5-3.2-3.3-1.6-.2 1.1 1 .5 1.1 1.3 2.1.5-.6.1-1.1 0-1.4-.1-3.9-.5-5-1 .2-.3.4-.9 0-1 .6-1.1 1 .8 2 .3 1-.1 0-.9.6-1 .1-.8-1.3.2-.8-1 .9-.2.7.9 1.4 1 0-1.9 3.2-.4 4.2 1 .2-.7 1-.8 1.9-.7-.4 1.3.7.7.8 1.3.3-.6.8-.8 1.7-.7-.6.7.5 1.1 1.1 1.3-.8 1-1.5.2-2.8.3.3.3.6.7.8 1-.6 1-2-.1-2-1.1zm2.2 1c1.2.2 1.6-.7 2 .3 0 1-2.3 1-2-.3zm1.7-16.3c1.1.3-1.1.3 0 0zm.3-6.6c1.1.4-1.1.4 0 0zm17.8 3c-.9 1.1-4.2.1-5-1 1.6.4 3.2.9 5 1z" fill="#eb6661"/><path class="st12" d="M102.3 91h5.5v16.7h6.8v4.5h-12.3V91zM116.2 91h12.6v4.5h-7v3.6h6.6v4.3h-6.6v4.2h7.3v4.5h-12.8V91zM134 95.7h-4.2V91h13.8v4.7h-4.2v16.5H134V95.7zM145.1 91h5v5.3c0 3.8-1.5 5.7-5 5.8v-2.6c1.4-.1 1.9-.9 1.9-2.5v-.4h-1.9V91zM161.2 97.2v-.5c0-1.2-.5-2.3-1.6-2.3-1.2 0-1.7.9-1.7 1.9 0 4.2 9 2.1 9 9.9 0 4.5-2.6 6.5-7.5 6.5-4.6 0-7.1-1.6-7.1-6v-.7h5.3v.5c0 1.8.7 2.5 1.8 2.5s1.8-.9 1.8-2c0-4.2-8.7-2.1-8.7-9.6 0-4.3 2.3-6.6 6.9-6.6 4.8 0 6.9 2 6.9 6.5h-5.1zM185.4 97.5c0-2.4-.4-3.1-1.5-3.1-1.7 0-1.9 1.5-1.9 7.3s.2 7.3 1.9 7.3c1.4 0 1.7-1.2 1.7-5.2h5.3v1.6c0 5.9-3.5 7.4-7 7.4-6.2 0-7.6-3.1-7.6-11 0-8.1 1.8-11 7.6-11 5 0 6.9 2.6 6.9 6.7v1.3h-5.3v-1.3zM193 91h5.5v7.8h3.4V91h5.5v21.2h-5.5v-8.7h-3.4v8.7H193V91zM213.7 91h6.9l5.2 21.2h-5.9l-.6-3.7h-4.4l-.6 3.7h-5.9l5.3-21.2zm3.5 4.4l-1.6 9h3.1l-1.5-9zM228 95.7h-4.2V91h13.8v4.7h-4.2v16.5H228V95.7z"/><g><path class="st12" d="M102.5 57.4h7.4v10.4h4.5V57.4h7.4v28.3h-7.4V74.1h-4.5v11.7h-7.4V57.4zM125.5 57.4h16.8v6h-9.4v4.8h8.8V74h-8.8v5.6h9.7v6h-17.1V57.4zM150.3 74.6l-7.2-17.2h8.1l2.8 9.9h.1l2.8-9.9h8.1l-7.2 17.2v11.1h-7.4V74.6zM180.2 74.6L173 57.4h8.1l2.8 9.9h.1l2.8-9.9h8.1l-7.2 17.2v11.1h-7.4V74.6zM204.3 56.9c7.5 0 10.1 4.1 10.1 14.7s-2.6 14.7-10.1 14.7-10.1-4.1-10.1-14.7 2.6-14.7 10.1-14.7zm0 24.4c2.3 0 2.5-2.1 2.5-9.7s-.2-9.7-2.5-9.7-2.5 2.1-2.5 9.7.2 9.7 2.5 9.7zM224.3 57.4v20.4c0 2.7.8 3.4 2.2 3.4 1.4 0 2.2-.7 2.2-3.4V57.4h7.4V76c0 7.9-3.4 10.3-9.6 10.3-6.2 0-9.6-2.4-9.6-10.3V57.4h7.4z"/></g></svg>