<svg version="1.1" id="Layer_1" xmlns="http://www.w3.org/2000/svg" x="0" y="0" viewBox="0 0 249.6 147.3" xml:space="preserve"><style>.st12{fill:#000100}</style><path d="M231.7 140c.1-2.1-1.8-.1 0 0z" fill="#01aeb4"/><path d="M157.8 122c1.1-.3 3 2 3.3 4h55.7c1.5-.2 3-.5 4.5-.9-1.1-.7-2.1-1.4-3.2-2.1-1.6-.4.1 1.2-1.3 1-1.1-.2-2.2-.4-3.4-.9.7-.8 2.2 0 3-.6.5-.6-1.6-1-2.2-1.6 2.6-.7 6.2 1.4 9.2 3.5.6-.2 1.2-.4 1.7-.6.1-.1.1-.2.2-.3.9-1 1.6-1.9 2.2-2.9.1 0 .3 0 .4.1-.1.7-.3 1.4-.6 2.2l1.2-.6c.1-.5 1.4-1.3 1.8-1.9.4.2.5.4.6.6 3.6-2.1 6.8-4.9 9.4-8v-.1h.1c4.9-6 7.9-13.5 7.9-21.7 0-17.5-13.3-31.9-30.6-34.7-2.3-10.7-11.7-19-23.2-20.3C188 15.3 167.8 0 143.9 0 125 0 108.4 9.6 99.1 24.1c.4-.1.8-.2 1.2-.4-.1.7-.8 1-1.6 1.2-.2.4-.5.8-.7 1.2-.6-.3-1.2-.7-1.8-1-1.2.1-2.4.3-3.4.9.2-1 1.2-1.2 2.5-1.4-4.9-2.3-10.4-3.7-16.2-3.7-17 0-31.3 11.1-35.4 26.2.5-.1 1.9-.4.2 0h-.2c0 .1-.1.2-.1.3.5.6 1.7-1 2.4-1.3v.2c.7-.5 1.6-.7 2.6-.9.2-.7 2.2-1.5 2.8-2.2-.3.7-.8 1.4-1.4 2 1.3-.1 2.5-.1 3.4-.2-1.3 1.1-2.4 1-3.8 2.5.9-.9.4-1.3-.5-1.4-.9 0-2.3.3-3.3.8-.4 1.1-1.5 2.1-2.8 3-.4 2-.6 4-.6 6.1v.5c-.6-.1-1.2-.2-1.8-.2-.1.3-.3.6-.8.7 2 0 3.4 2.1 5.8.5.2 1.5-1.2 1.1-2.4 1.5-.6-.2-1.1-.4-1.7-.6.2-.3.3-.8-.1-1-.2-.1-.3.4-.3.8-.9-.3-1.8-.7-2.7-1 .1-.2.2-.3.2-.4-.1.1-.2.2-.3.2-.1-.1 0-.3.1-.4-.1 0-.2-.1-.4-.1.1-.2.1-.4.2-.6h-.9c-.1.2-.4.4-.7.6-.1 0-.2-.1-.3-.1 0-.2.1-.3.2-.5-1.6 0-3.3.1-4.8.4-.1 0-.2.1-.3.1 1.3 0 2.3.3 2.9 1-.6.4-2.2.3-1.1 1.5-1.7-.7-3.4-.8-5.2-.6-5.3 2.9-10.6 6-14.6 9 1.3 1 3.5-1 4.9-.2-2.3 1.4-1.4 1.1-.2 2-2.6 2.3-2.1 1.7-5.3 3.8 2.4-.7 2 1.7-.2 2.9.4-1.1-1.7-.4.5-1.8-1.2-.9-2.9-.4-4.7.5-.1-2.2-1.6-1.3-2-2.8-.1 0-.2.1-.3.1-3.8 5.6-6 12.2-6 19.3 0 1.6.1 3.1.3 4.6.3-.1.4-.1.6-.1-.2 0-.4.1-.6.1 2.1 15.3 14.4 27.5 30.2 30.1h7.5c2.2 12.1 13.2 21.4 26.4 21.4 10.8 0 20-6.1 24.3-14.9.6.5 1.3 1.1 1.9 1.6-1.4-3.9-2.6-7.6-3.9-11 .3.3.6.7.8 1.1 0-1.2.6-2.4 2.5-3.6 2.5 3.8 1.2 6.9 3.2 10.7-.8-1-2.4-2.1-3.7-3.4.9 1.9 1.6 4 2.4 6.2 1.1-.1.2-2.1 1.9-2.7.6 1.8 1.1 3.7 1.1 5.4 3.1 1.5 6.6 2.3 10.3 2.5-1.7-3-3.5-7.5-1.2-3.4.8 1.3 1.7 2.3 2.6 3.4.8 0 1.6 0 2.3-.1 0-.2 0-.5.1-.8.4.2.8.4 1.1.7 4.4-.6 8.5-2.2 12-4.6-.8-.7-1.1-2.1-1.8-3 1.7-.6 2 1.2 2.5 2.5 2.9-2.1 5.3-4.8 7.1-7.8h28c-.2-1.2-.5-2.5-.2-4zm81.7-33.2v.1c.1 0 .2-.1.3-.2.2 0 .4-.1.7-.3.5.8-1.8 2.1-2.1 1.1.4-.6.8-.6 1.1-.7zm-2.6 1.7c-.2-1.8 1.6.2 0 0zm-2.2 1.3l.5-.5c.6.2.1.8.5 1.1l-.8.8c-.5-.2-.3-.6-.4-.9 0-.2.1-.4.2-.5zm-3.9-5.4c-.9.3-1.8.7-2.7 1-1-1.8 1.9-2.8 2.7-1zm-2.2 28.3v.2c-.3.4-.5.7-.7 1-.1-.2-.2-.3-.3-.5.3-.3.7-.5 1-.7zM227 73.4c-.4.1-.6-.4-.8-.8.3-.1.5.4.8.8zm-37.2-30.1c.4-.1.6.4.8.8-.3.1-.5-.5-.8-.8zm2.2 41.5c.4.8 2.5 1.8 1 2.8-2.3-2.9-3.7-8-1-2.8zm6.2 15.1c-2.4-.9-4.6-1.4-7-2.3l1.1-.7c1.7-.2 12.3 6.1 5.9 3zm10.6 4.6c.4-.4.8-.5 1.1-.1.7-1.1-1.9-1.3-1.3-2.4 2.4-1.1 1.5 1.4 2.3 2.5-.5.3-1.1 1.2-1.6 1.7-.3-.5-.4-1.1-.5-1.7zm3.3 13.8c-.2.3.4.5.8.8-.7.6-2.5-1.1-3.7-1.4 1.2 0 2.6.4 4.1.8-.2.3-.8-.1-1.2-.2zm7.9 3.8c-.7-.2-.5-.5-.2-.9.1.3.2.5.3.7-.1.1-.1.2-.1.2zm-1.6-11.1c.9-1.7 3.6.3 5.8 1.3-1.7 1.4-3.2-1.2-5.8-1.3zm5.2-49.8c.2.3.3.6.5.9-.3.1-.5.2-.8.3-.2-.3-.3-.6-.5-.9.3-.1.5-.2.8-.3zm-2.9 26.3c-2.9 0-1.3-1.9 0 0zM218 71.9c1.4.1.8 2.5 0 0zm.4-8.2c-.4.1-.6-.4-.8-.8.4-.1.6.5.8.8zm2.6 37.8c-7.5-2-14.5-9.1-23.6-12.9l.6-.9c9.3 4.2 16.4 9.6 23 13.8zm-12.4-30.9c.7 0 1.3.3 2 .3.3 1.2-1.8 1-2-.3zm1.1-13.3c-.9.5-1.2-1.6-2.2-.8-1.1-1.8 1.8-.2 2.2.8zm-1.1 1.5c.7 1.7-1.8 1.8.3 4.2-.3 1.1-2.1-3.5-2.9-4.8.2-1.1 1.9 3.1 2.6.6zm-2.5-2.3c.2.5-.3.5-.5.7-.7 2 1.7 3.9.9 4.5-1.7-2.1-1.5-2.9-3-5.9.9.2 1.4 1.7 2.6.7zm-2 5.1c1.7.5 1 3 0 0zm-1.6-.5c-.2-1.3-1.2-3.1.6-3.4.6 1.5.9 2.9-.6 3.4zm.4-11.9c-.5 1.3 2.6 4.4 2 5.7-1.7-.5-4.9-8.9-2-5.7zm-1.7 14c-.3.2-.9.2-1-.2.9 4 6 11.7 7.7 14.3-7.1-1.5-8.9-13.6-11.1-18.3.5 0 2.4 1.3 2.2-.3 1.6.6.7 2.8 2.2 4.5zm-3.1-20.8c1.6.6 1 3 0 0zm-1 15.3c.2.4.6.2 1 .2-.1 1.4-1.6.2-1.4-1.1.6-.2 1.9.8.4.9zm.3-7.6c-.5.1-.7-.7-1.1-1.2.5-.1.8.7 1.1 1.2zm-1.9.8c.9 1.3.1 1.9 1.2 3.3-1.2.3-2.3-2.9-1.2-3.3zm-.9-.8c-2-.6 1-1.1 0 0zm-1 5.2c-.5.1-.7-.7-1.1-1.2.5-.1.8.7 1.1 1.2zm-2-15.4c0-.3.2-.5.8-.7.1.1.1.2.2.3-.4.1-.7.3-1 .4zm-.3-3.6c.8.7-.4 1.9.9 1.8.5 1.2-1-.4-1.5.6l-1.8-3.6c.8.4 1.4 1.6 2.4 1.2zm-1.2-3.3c-.9.3-1.1-1.8-1.8-2.6 1-.2 1.2 1.9 1.8 2.6zm-1.8.8c.4-.1.7-.1.1.4h-.2c.1-.1.1-.3.1-.4zm-1-1.8c-1.8 0 1.3-1.1 0 0zm-1.1-2c.2.2.3.4.5.6-.2.1-.4-.1-.5-.3V30zm-2.1-4.4c.5.9.9 1.8 1.4 2.7-1.1 0-3.3-2.2-1.4-2.7zm-2.9 14.5c.2.1.3.1.4.2.1 0 .1.1.2.1.6.8-.9 1.7-.6-.3zm-.6 5.1c-.1 1.4 1.3 3.6-.7 4l-.8-.8c-.8-1.7.6-2.3 1.5-3.2zm-2.2 13.6c.8 2.6 2 4.9 3.6 7.2-1.4 0-4.6-6.2-3.6-7.2zm-1.3-2.7c.7 0 .2.4.5.9-.6.1-.9-.7-.5-.9zm-3.9 4.1c-.3.1-.6-.1-.9-.3.1 0 .2-.1.2-.1-.1-.3-.3-.5-.4-.8.4.3.8.7 1.1 1.2zM172 59c-.1 0-.2.1-.3.1-.1-.1-.2-.2-.2-.4.2.1.4.2.5.3zm1.9 6.3c-1.2-1-2.3-2.7-3.3-4.7 1.9-.5 3.1 3.3 3.3 4.7zm-4.5-11.7c1.7.6 1 3.1 0 0zm-2.1 15.8c-1.8.1 1.3-1.1 0 0zm-7.2-62.6c.2 0 .4 0 .5-.2.1.6-.1.7-.5.6v-.4zM49.3 43.3c-1 .2.1 0 .6-.1-.2 0-.3 0-.6.1zm-5.8 13.9c-1.8.1 1.3-1.1 0 0zm-.1-6.6c-.1-.1-.1-.2-.2-.3.3-.1.5.2.6.4-.1 0-.2 0-.4-.1zM4.1 98.7c-1.8.1 1.2-1 0 0zm57-11.5c-1.3 1-2.3.6-3.4 1 .2-.9 2.4-1.3 1.1-2.7 1.2-.4 2.6-1.9 3.3-.5-1.8 1.3-2.8 1.8-1 2.2zm-2 1.9c.3 1.3-2.1-.4 0 0zm-.7-4.7c.6 1.5-1.6-.7 0 0zm.1-27.4c-1.8 0 1.2-1.1 0 0zm1.1 25.6c-.2-.2-.4-.4-.5-.6l.9-.6c.2.2.4.4.5.6l-.9.6zm.6-33.2c.2 1.1-2.2 1.3-2.7 1-.2-1.5 1.8 0 2.7-1zm-2.7 7.4c.5.9-1.1.8-1.6 1.1h-.1c0-.5 0-.9-.5-.8-.2-1.4 1.6-.1 2.2-.3zM55.9 90c2.1.8-.5 2.3 0 0zm-.2-44.8c-1.8 0 1.3-1.1 0 0zm-1.6 9.1c-.5.1-.9 0-1.1-.1 0-1.1 1-.6 2-.7.2-.2.3-.5.5-.7.2.1.3.3.4.5.1-.1.2-.1.3-.2 0 .2-.1.4-.2.5 0 1-1.8 2-3.2 3.1.3.1.1.3-.2.4-.4-.1-.7-.1-1-.2.2-.1.4-.2.6-.2-.5-1 .8-1.6 1.9-2.4zm-.8 4s0 .1 0 0c-.8.1-.7-.1-.4-.2.1.1.3.1.4.2zm-2.4-1.2c.2.1.5.2.7.3-.4.1-.8.3-1 .3-.8 0-.4-.3.3-.6zm-3.5-6.7c.3-.1.5-.1.6-.1-.2 0-.4.1-.6.1-.7.1-.4.1 0 0zm-.1 8.1c-1.7 0 1.3-1.1 0 0zm-2.6 10.1c-1.3.1 3.8-.4 0 0zm1.2 1.3c-.9.6-1.8 1.3-2.6 1.9l-1.1-1.1c1.2-.1 2.8-1.5 3.7-.8zm.1 16c-.1 0-.2 0-.4.1.2-.1.3-.1.4-.1zm-.6.1c-.2 0-.4.1-.5.1-.1 0-.1 0 0 0s.2 0 .4-.1h.1zm-2.6-13.9c-1.8 1.3-2.2 0-2.8.1-.1-1.1 2.4-1.2 2.8-.1zm-3 14.9c.1.4.4.4.6.3.2.6-.5.6-.9.9-.6-.7-.2-1 .3-1.2zm-.5 3c-.3-.3.3-.6.6-.9.3.3-.3.6-.6.9zm-5.4-30.3c-.8.8-1.3.6-2 1-.7-.9 1.4-2.2 2-1zm1.3 3.6c-.1-.1-.1-.2-.2-.2.2 0 .3 0 .4.1.8-.4 1.6-.8 2.3-1.1-.5.6-1.2 1.1-1.9 1.7v.1h-.1c-2.4 1.7-5.9 3.1-8.3 4.6 1.3-2.1 4.7-3.8 7.8-5.2zm.1 4.8l-.9.6c-.2-.2-.4-.4-.5-.6l.9-.6c.1.2.3.4.5.6zm-3.6 1.6c-.2-.4.6-.8 1.1-1.2.2.4-.6.8-1.1 1.2zm-1.2.3c-.7.6-5.3 4.6-6.5 3.2 2.4-1.7 4.4-2.1 6.5-3.2zm-3.4-7.4c.2.2.4.4.5.6l-.9.6c-.2-.2-.4-.4-.5-.6l.9-.6zm-2.7-1.5c-1.6.4 2.5-.4 0 0zm.8 8c.4.8-2.1 1.6-2.8 2.5-.6-1.4 1.5-1.1 2.8-2.5zm-8.3 20.6c0-.9.5-1.4 1.3-1 .2.6-.8.7-1.3 1zm3-14c-.7.5-1.6-1.8-.3-1.5.2.3.3.6.5.9-.4 0-.3.3-.2.6zm4.6 12.7c.4-.1.8-.3 1.2-.4 1 .8-.1 2.1.9 1.8.2 1-1.9 0-2.1-1.4zm-1.1-5.8c-.2-.4-.6-.4-1-.2-.1-.3.1-.5.3-.6-.3-.1-.8-.9-1.6-2.8 1.3 1.2 1.8 2.4 1.7 2.8.3-.1.6 0 .7.3.5-1.3 3-1.2 3.3-2.8.8-.4.1.8 1 .2 0 .5-3.1 1.8-4.4 3.1zm4.5-3.7c2.1-2.2 9-6.1 9.4-2.5-3.7 3.1-6.4 2.2-9.4 2.5zm8.9 13.9c.3-2 2.7-.3 0 0zM49 96.4c-.3-.5-.8-.3-1.3-.4-.7.3-1.4.6-2 .8-.7.7.7 1.3-1 2.1-1.6-1.3-2.7-4.7-6.5-2.9-1.6-.5-.2-2.7-1.4-2.3 1.3-2.5 4.1.2 6.6-2.4.8.7 1.5 2.2 2.7 1.3.6.8-1.2 1.6-1.4 2.4 2.1.9 2.3-1.6 3.6-1.6.8-.6-.6-1.1-.2-1.7 1.3-.2 2.6-.3 3.9-.4 0-.3-.1-.5-.1-.8 1-1.2 3 .6 2.9-.6 2.4 1.8-1.3 3.4.8 6.1-1.1.5-2.8.6-2.2 1.9-1 .3-1.5-1.4-2.3-1.8-1.6 1.5 1.1 2.3.8 3.4.5.8 1.4-.2 2 .3-.2 1.6-.7 3-.9 4.6-2.3-2.5-3.9-5.6-4-8zm4.9 13.2c-1.6-.2.9-1.7 0 0zm.8 8.2c.2-.6.2-1.2-.4-1.8 1.5-.6 1.9 1.3.4 1.8zm2.8-4.8c-.9-1.8-1.1-2.7-2.1-1.4-.7-1.4-.1-2.1-.2-3.1 1 .4.8 2.4 2.7 1.7.1 1.1 1.3 2.7-.4 2.8zm.8-20.1c.4-.1.6.4.8.8-.4.1-.6-.5-.8-.8zm.7 50.3c.1.2.1.4.1.5-.1-.4-.4-1.4-.1-.5zm.2-33c-1.7.1 1.3-1.1 0 0zm2.2 2.4c-.2-.3-.3-.6-.5-.9.3-.1.5-.2.8-.3.2.3.3.6.5.9-.3.1-.6.2-.8.3zM62 53c-1.8 0 1.2-1.1 0 0zm53.6 12c-1.7.4 2.5-.4 0 0zm-6.3-41.6c-2.5.3-5 .4-7.6 1.2.4-1.9 5.8-2.2 7.6-1.2zm-1.5 85.5c-.1-1.5 1.3 1.1 0 0zm-4.2-31.3c1.5.4 1 1 1.8 2.6-1.4.8-1.8-1.8-3.4-.3-.1-.7 0-1.3-.1-2.1.4-.4 2 1.3 1.7-.2zM89.6 26c1-2.4 3 .5 0 0zm-2.6.4c3.2-.4-1.5.2 0 0zM65.6 132.2c-.1-.3-.2-.6 0 0zm.1.3c.2.6.1.3 0 0zm-.1-1.5c-1.6-.2-.3-2.4-.6-3.4 1.5.2.9 2.6.6 3.4zm5.9-50c.8.1.8.9.1 1 1.3.8.6 2.8 2.2 3.5.2.8-.9-.1-.5.7-.5-.1-1.2-3-2.3-4.5.4-.1.6-.3.5-.7zM74 95.1c-2.4-4-.7-5.9-.2-8.5 1.9 2.3 4.3 9.1.2 8.5zm4 3.3c1.3.2.7 2.3-.6 2.4-1.1-1.9.6-1.9.6-2.4zm-.6 36.1c2.4 1.4-.2 2.1 0 0zm1.6-30.6c-.5-.9-.9-1.8-1.4-2.7l1.5-.6c-.3 1 .9 2.7-.1 3.3zm1.4-41.2c1-2.4 2.5-.4 0 0zm.8 22.2c1.3 2.5 1.2 4.2 1.8 6.3-.5-.8-3.6-5.7-1.8-6.3zm3.7 22.4c-.7.3-1.4.6-2.1.8-1.1-1.2.7-2.8 2.4-2.6.1.7-1.5 1-.3 1.8zm-1.8-15.1c.5-.1.7.7 1.1 1.2-.5.1-.8-.7-1.1-1.2zm1.1 2.2c.2.3.3.6.5.9-.3.1-.5.2-.8.3-.1-.3-.3-.6-.5-.9.3-.1.6-.2.8-.3zM83.5 84c1.7-.1.8 1.5 2 3-.9.1-1.3-2.2-2-3zm3.6 32c.1-1.4 1.9.8 0 0zm-1.5-26.9c2.5 1.9 3.4 7 4.2 10.2-2.2-2.5-2.7-7-4.2-10.2zm5.4.7c.3-.1.5-.2.8-.3.2.3.3.6.5.9-.3.1-.5.2-.8.3-.2-.3-.3-.6-.5-.9zm.6 22.8c2.3-.3 1.8 2.6 3.8 3.9-1.9 1-2.7-2-3.8-3.9zm1.5-17.7c1.2-.3 2 1.8.5 1.9-.6-.9-.3-1.3-.5-1.9zm2.2 6.1c.5-.1.7.7 1.1 1.2-.5.1-.7-.7-1.1-1.2zm1.9 34.9c-1.3.4-1.1-1.3-.9-1.6 1.2-.5 1.1 1.3.9 1.6zm-6.4-58.4c-1.5.8.1 3.2-1.1 4.2-1-2.3-.9-1.4-2.2-.8-1.8-2.8-1.3-2.2-2.7-5.4.2 2.2-2.5 1.2-3.2-.9 1.1.6.9-1.3 1.8.9 1.4-.8 1.3-2.3.7-4 2.4.5 1.9-1 3.7-.8-1-7-4.1-14.3-6.9-21.5-5.6 3.5-11.1 6.3-15.8 9.1 3.4-3.8 9.5-6.6 15.4-10.1-1.2-3.1-2.3-6.2-3.2-9.2-2.8 2.1-6.5 4.2-2.7 1.4 1.8-1.6 3.1-3.3 4.9-4.9l.4 1.2c-.1.4-1.2 1.4-2.5 2.3 1.5 2.8 2.8 5.8 4 8.8 2.1-1.3 4.1-2.6 6-4.2l.8.8c-2.1 1.6-4.2 3.1-6.3 4.4 2.7 6.9 5 14.1 8.3 20.7 2.2.6 3.5.9 4.5-1.1.2.4.6.2 1 .2-.1 2 4.7 1.2 5.1.2.5-.6 1.7 1.9.9 1.8.6.4.8-.1 2.1-.3 1 1.2 0 1.4.8 2.4-1.8-.8-5.4-2-3.6 1.9-1.3.1-2.2-1.3-3-3.2.1 1.1-.3 1.9-.4 2.8 2 1.8 3.9 5.7 1.9 7.3-1-1.9-2.6-1.6-3.9-2.3.2.7 1.4 2.9 2.4 2.9-.2.9-1.7 1.2-1.6 2.2 1 1.8 1.8 4.7 3.4 4.1.3 1.5-1.3-.1-1.8.1 1.6 6 4 12.3 6.2 18.6 1 1.1.7-1 1.8-.1.7.7 1.5 1.4 2.1 2.4-1.1.3-1.8-1.1-2.8-1.1-.9.2.6 1.7.8 2.4-3.3-1-4.7-6.5-6-10.1-3-7.5-5.9-16.7-9.3-23.1zm14.6 35.3c1-.1 1.3 2.2 2 3-1-.7-1.9-1.6-2.7-2.7.4-.1.6.4.8.8.3-.2 0-.7-.1-1.1zm-3.5-.7c5.5 2.7 1.2 8.9 4.8 12.4-5-1.3-3.2-8.3-4.8-12.4zm3.7 19.6c.4-1.8.4-4.6 2.2-5.3 2.7 1.4.5 4.4 1.6 6.5-1.8.2-2.5-2.2-3.8-1.2zm4.2-44.7c-.2-.3-.3-.6-.5-.9.3-.1.5-.2.8-.3.2.3.3.6.5.9-.3.1-.6.2-.8.3zm.6-29.6c1.6.5 1 3 0 0zm.9 2.8c.9-.3 1.1 1.9 1.7 2.6-.8.2-1-1.9-1.7-2.6zm3 23c.7 0 .2.4.5.9-.6.1-.9-.7-.5-.9zm.5-6.1c.6-1.1 1.4-.2 2.1-1.3-1.3-4-3.7-8.6-4.4-12.3 3 7.1 7 15.7 8.8 22.9-1.7-2-4.6-5.2-6.5-9.3zm2.1-13.1c.3-.1.5-.2.8-.3.2.3.3.6.5.9-.3.1-.5.2-.8.3-.2-.3-.3-.6-.5-.9zm3.9-.4c-1.4.5-2.4-.6-3.6-.8 0-2.3 2-1.7 4.2-2.6.8 1.7-.5 2.2-.6 3.4zm8.8-44.5c-1.8 0 1.2-1.1 0 0zm-.9-16.3c-1.8.1 1.2-1.1 0 0zm-.3 16.7c-1.8.1 1.3-1.1 0 0zm-1.9-16.4c-1.5.2 3.2-.4 0 0zm4.8 57.7c-3.4-.1-4.3-6-5.8-9.6 2.1 2 5.9 7.6 5.8 9.6zM127 64c-.8-.4-1.5-1.3-2.1-2.4 1.1-1 1.4 1.6 2.1 2.4zm-4.8 25.9c.4-.1.6.4.8.8-.3.1-.5-.5-.8-.8zm2-79.5c-1.7 0 1.3-1.1 0 0zm.8 67.7c-.7-.9.1-1.1.7-1.3.1.4-.2.6.1 1-.3.2-.6.2-.8.3zm2.7-1c-1.4-.9-3.1-3.5-1.3-4.3 1.6.5 2.1 3.2 1.3 4.3zm.8-1.9c-.5-1.2-.3-2 .6-2.4-.1.9.7 2.2-.6 2.4zm1.2-3.1c.4-.1.8-.3 1.2-.4.6.9.3 1.3.5 1.9-.8.1-1.3-.4-1.7-1.5zm2-8.8c-.1-.4.2-.6-.1-1 .3-.1.5-.2.8-.3.4 1.5 1.5.5 1.9 2-1.1.6-1.6-.9-2.6-.7zm3.5-23.8c-.8-.2-.2-.7-1.3-1.7.8-.5 1.1-1.3 2.5-1.5.7.4 1.2 1.4 1.7 2.6-1.4 0-2.7-.4-2.9.6zm2 12.1c-.7-.9.4-.9.1-1.6 1.3-.4 3.1 1 2.9 2.1-1.2.4-1.9-.7-3-.5zm-.8-39.9c-.1-2.9 3.7.3 5.5-1-1.4 1.6-3.3 1.1-5.5 1zm10.7 37.8c.5 0 1-.1 1.5-.1-.5.2-1 .2-1.5.1z" opacity=".75" fill="#f8b01e"/><path d="M57 71.4c-.5 12-9.8 17.4-9.8 17.4s-1.4.9-1.9-.2c-.4-.9.5-1.3.5-1.3S54.3 82 54.6 73c.1-3.1-.6-10.1-7.7-10.3-12.3-.5-12.1 16.1-11.7 26.8.2 4.8-1.1 11.1-2.8 15 5.5 2.1 10.4 4.4 13.1 5.3 5.4 1.8 11.1 3.1 14 3.5.6.1 1.5-.4.8.9 0 0-.8 1.3-2.4 1-10.3-1.7-21.2-6.1-26.8-8.3-2.6 3.9-8.5 8.5-17.3 8.2-8.9-.4-10.2-5.9-10.1-7.7.1-2.7 2.5-7.6 11.3-7.3 4.5.2 9.7 1.6 14.6 3.4 2.8-6.1 2.8-16.7 2.8-27.5 0-11.2 7.8-16.5 14.6-16.2s10.1 6.5 10 11.6zm-42.2 31.3c-7.6-.3-8.5 3.5-8.5 4.5-.1 1-.4 5.3 7.6 5.6 6.9.2 11.7-3.4 14.3-6.9-4-1.6-6.5-2.9-13.4-3.2z"/><path d="M71.4 99.1c.7-1.3 1.7.6.1 3.7-.6 1.1-4.6 9.4-10.6 9.4-7.2-.2-8-5.8-7.9-10 .2-4.2 3.9-12.6 8.3-9.9 3.2 2.1 1.4 5.9.3 8.7-1.3 3.2-3.5 5.9-4.6 7.2.7.6 2 1.1 3.3 1.1 5.7 0 9.1-6.9 11.1-10.2zm-11.7-4.7c-1.6-.2-4.8 7.3-3.8 11.8 2.6-2.9 2.8-4.3 3.5-6.2 1-2.4 1.7-5.2.3-5.6z"/><path d="M76.8 110.9c-5.8-.2-6.3-7.6-6.1-11.6.1-2.4 1.3-9.7 2.1-14.9H60.6s-2.3-.1-2.3-1.2c.1-1.7 2.4-1 2.8-1l12-.1c.3-1.9.6-3.1.6-3.2.3-1.3.5-2 1.7-1.7.7.2 1.2 1.9 1.1 2.6 0 0-.1.8-.2 2.4l12.4-.1s1.9-.3 1.9.9c-.1 1.3-2.6 1.3-2.6 1.3H76c-.2 1.3-.4 2.9-.6 4.7-.2 1.5-1.7 8.5-1.9 10.7-.2 2.2.3 8.3 3.5 8.6 4.9.4 7.9-5.8 9.7-9.1.7-1.3 1.8.5.2 3.6-.5 1.3-3.8 8.4-10.1 8.1z"/><path d="M91.6 66.6c.8.5.6 1.1.6 1.6-.1.6-2.1 13.1-2.2 13.4s-.8 1.2-1.3 1c-1-.4-1.3-1.1-1.3-1.8.1-.7 2-12.7 2.3-13.9.4-1.1 1.1-.8 1.9-.3zM96.1 103.7c.3 1.2.9 2.2 1.4 3.1.2-.1.3-.1.5-.1 2.8-.2 3.6-2.1 3.6-4.6 0-4.5-1.6-5.7-2.4-7.2-.2 2.5-1.6 5.4-2.7 7.2-.3.6-2-.2-1.4-1.3.5-1 2-3.3 2.8-8.2.2-1.7.6-3.1 2.1-3.1 2.7.1 2.3 3.1 2.4 4.4.1 1.7 2.3 7 2.2 8.7-.4 3.9-3.4 6.2-5.6 5.8 1.2 1.1 2.7 1.7 4.3 1.7 5.8 0 9.5-7.4 11.4-10.7.7-1.3 1.8.6.2 3.7-.6 1.1-4.9 9.8-12.6 9.3-5.4-.3-7.7-3.8-8.8-8.3 0 0 0-1.1 1.1-1.4 1.1-.5 1.4.5 1.5 1zM162.6 84.4c.8-.3 11.9-4.9 12.2-12.1 0-.1 1.1-4.4-9.2-4.8-19.1-.7-37.3 15-37.8 29.7 0 1.1-1.9 17.2 16.4 17.9s33.7-12 33.7-12 .7-.6 1.1.2c0 .1.2 1.5-2.5 3.8-.9.8-15.6 11.4-31.3 10.8-11.8-.5-21.1-6.5-20.5-20.7.6-16.1 20.5-33.2 40.8-32.4.8 0 12.4.2 12.4 7.5.1 7.2-11.3 13.6-12.4 14.2-1 .6-3.9 1.7-4.6.1-.8-1.7.1-1.7 1.7-2.2zM195.6 112.9c-9.1.2-4.7-12.7-5.6-12.8-1.2-.2-5.8 10.6-5.8 11.2 0 2.4-3 1.3-3.4-.5-.9-3.5 1-12.2 1-12.3 0 0 .1-4.9 1-14.3s3.3-15.3 6.3-15.2c.9 0 4.3 1 3.6 5.3-.9 5.8-8.4 25-8.4 25l-.6 7.9s3.8-10.7 7-10.7c4.3 0 2 3.3 1.8 6.1-.2 2-.4 7.4 3.2 7.4 4.6-.1 8.4-7.6 10.2-10.9.7-1.3 1.8.6.2 3.7-.4 1.1-4.6 9.9-10.5 10.1zm-10.7-22.3s7.2-18.2 4.3-18.7c-2.7-.4-4.3 18.7-4.3 18.7z"/><path d="M220.4 111.9c-4.7.1-5.4-4.7-5.4-4.7s-2.8 5.2-5.6 5.1c-1.5 0-5.3-1.3-4.3-8.7.9-7.4 5.9-10.7 8.4-10.6 4.6.2 4.2 4.1 4.1 4.5-.6 2-1.4 1.5-2 1.3 0 0 .5-3.3-2.2-3.4-2.3-.1-4.6 3.4-5.4 6.9-.9 3.6-.3 7.3 1.6 7.3 2.9 0 5.4-7.9 5.7-9.8.2-.8 3.1-.2 2.9 1.1-.1 0-2.9 8.4 2.4 8.4 2.4 0 5.4-2.4 9.6-10.1.7-1.3 1.8.6.2 3.6-1.5 2.5-5.4 9-10 9.1z"/><path d="M235.6 110.9c-5.8-.2-6.3-7.6-6.1-11.6.1-2.4 1.3-9.7 2.1-14.9h-12.2s-2.3-.1-2.3-1.2c.1-1.7 2.4-1 2.8-1l12-.1c.3-1.9.6-3.1.6-3.2.3-1.3.5-2 1.7-1.7.7.2 1.2 1.9 1.1 2.6 0 0-.1.8-.2 2.4l12.4-.1s1.9-.3 1.9.9c-.1 1.3-2.6 1.3-2.6 1.3h-12.1c-.2 1.3-.4 2.9-.6 4.7-.2 1.5-1.7 8.5-1.9 10.7-.2 2.2.3 8.3 3.5 8.6 4.9.4 7.9-5.8 9.7-9.1.7-1.3 1.8.5.2 3.6-.4 1.3-3.7 8.4-10 8.1z"/><g><path class="st12" d="M69.6 37.1h6.3v8.8h3.8v-8.8H86v24h-6.3v-9.9h-3.8v9.9h-6.3v-24zM88.4 37.1h14.2v5.1h-8v4.1h7.5v4.9h-7.5V56h8.3v5.1H88.4v-24zM108.9 51.7l-6.1-14.6h6.9l2.4 8.4h.1l2.4-8.4h6.9l-6.1 14.6v9.5h-6.3v-9.5zM132.9 51.7l-6.1-14.6h6.9l2.4 8.4h.1l2.4-8.4h6.9l-6.1 14.6v9.5h-6.3v-9.5zM152.7 36.6c6.4 0 8.6 3.5 8.6 12.5s-2.2 12.5-8.6 12.5c-6.4 0-8.6-3.5-8.6-12.5s2.2-12.5 8.6-12.5zm0 20.7c1.9 0 2.1-1.7 2.1-8.2 0-6.5-.2-8.2-2.1-8.2s-2.1 1.7-2.1 8.2c-.1 6.5.1 8.2 2.1 8.2zM169 37.1v17.3c0 2.3.7 2.9 1.9 2.9s1.9-.6 1.9-2.9V37.1h6.3v15.7c0 6.7-2.9 8.7-8.1 8.7-5.2 0-8.1-2-8.1-8.7V37.1h6.1z"/></g></svg>