<svg version="1.1" id="Layer_1" xmlns="http://www.w3.org/2000/svg" x="0" y="0" viewBox="0 0 251.2 199.1" xml:space="preserve"><style>.st26{fill:#fff}.st124{fill:#3a3a3a}.st443{fill:#020202}</style><path class="st443" d="M229.5 77.4l21.7-27.9h-60.3V27.3h-130v22.2H0l21.7 27.9L0 104.2h60.9v50l65 44.9 65-44.9v-50h60.3zM61.1 15.5h129.5v7.7H61.1zM190.6 12.4H61.1L59.6 0l13.7 4.6L81.8 0l9 4.6L99 0l9.1 4.6 8.7-4.6 9.1 4.6 8.7-4.6 8.5 4.6 8.8-4.6 9 4.6 8.8-4.6 8.8 4.6L192.2 0z"/><path class="st124" d="M242.2 53.9l-19.1 21.9 9.8 13.2-21.1-16zM9.5 54.9l19.1 22L18.8 90 40 74zM88.3 166.6l36.8 25.2 34.8-23.2-35.2 13.1z"/><path class="st26" d="M70.9 34.7h111v1.5h-111zM101.9 146.3h42.9v1.6h-42.9zM101.9 103.8h42.9v1.6h-42.9zM83.9 95.9c-.1-.1-.2-.2-.3-.4 0-.2-.1-.4-.1-.6s0-.4.1-.6c0-.2.1-.4.1-.5.2-.9.5-1.7.9-2.5l1.2-2.4c.4-.8.9-1.6 1.3-2.4s.9-1.6 1.4-2.4c.5-.7.9-1.5 1.3-2.3.4-.8.8-1.5 1.2-2.3.3-.4.5-.9.7-1.3.2-.4.5-.9.7-1.3.5-1 .9-2.1 1.3-3.1s.8-2.1 1.2-3.2c.2-.6.4-1.2.5-1.8.2-.6.3-1.2.3-1.8v-1.2c0-.4-.1-.8-.3-1.1-.1-.3-.3-.6-.6-.9s-.6-.5-1-.6c-.5-.2-.9-.2-1.4-.2-.5 0-.9.1-1.3.3-.5.1-.9.3-1.3.5s-.8.4-1.2.7c-.8.5-1.5 1-2.2 1.6-.7.6-1.3 1.3-1.9 2l-.9 1.2c-.3.4-.6.8-.8 1.3-.3.5-.6.9-.8 1.4-.3.5-.5 1-.7 1.5-.2.5-.4 1-.6 1.6-.2.6-.3 1.2-.4 1.8s-.1 1.2-.1 1.8c0 .6.2 1.2.4 1.7s.5.9 1.1 1.1c.5.3 1 .4 1.5.5.7 0 1.4-.1 2-.4.6-.3 1.2-.7 1.7-1.1.1-.1.3-.2.5-.5s.5-.5.8-.7c.3-.2.5-.4.8-.5.2-.1.4-.1.5.1.1.2 0 .4-.1.7-.1.3-.2.5-.3.6-.4.7-1 1.3-1.7 1.9-.7.6-1.4 1.1-2.1 1.5-.7.4-1.5.8-2.2 1-.8.2-1.6.3-2.4.3-.5 0-.9-.1-1.3-.3-.4-.2-.8-.4-1.1-.7-.4-.4-.8-.8-1-1.3-.3-.5-.4-1-.6-1.5s-.2-1.1-.2-1.6 0-1.1.1-1.6c.2-1.3.5-2.5 1-3.7.5-1.1 1-2.3 1.7-3.4.5-.8 1-1.5 1.6-2.2.6-.7 1.2-1.3 1.9-2 1-1.1 2.2-2 3.5-2.9 1.3-.8 2.7-1.5 4.2-1.9.9-.3 1.9-.4 2.9-.5 1-.1 1.9 0 2.9.4.9.3 1.7.8 2.3 1.5.6.7 1.1 1.5 1.3 2.4.1.5.2 1 .2 1.5s.1 1 0 1.6c0 .7-.1 1.5-.3 2.3s-.4 1.5-.7 2.2c-.5 1.5-1.1 2.9-1.9 4.3L96 79.3c-.4.6-.9 1.2-1.3 1.8-.4.5-.8 1-1.1 1.5-.3.5-.7 1-1.1 1.5-.3.5-.7.9-1.1 1.4s-.7 1-1 1.5c.2-.1.3-.2.5-.3.1-.1.2-.1.3-.2.1-.1.2-.1.2-.2 1.2-1.1 2.4-2.2 3.5-3.5 1.1-1.2 2.2-2.5 3.2-3.7.9-1.1 1.7-2.2 2.5-3.3l2.4-3.3c.3-.5.7-1 1.1-1.5s.7-1 1.1-1.5l.9-1.2.9-1.2c.2-.3.4-.6.7-.8s.4-.5.6-.8c.1-.1.2-.3.3-.5.1-.2.3-.4.4-.5.2-.1.3-.3.5-.3.2-.1.4 0 .5.1.1.1.2.2.2.4s0 .3-.1.4c-.1.2-.1.3-.2.5s-.2.3-.3.4c-.5.7-.9 1.5-1.2 2.3s-.5 1.6-.8 2.4c-.2.5-.3.9-.3 1.4 0 .5-.1 1-.2 1.4-.2 1-.3 1.9-.4 2.9-.1 1-.3 1.9-.6 2.8l-.6 1.8-.6 1.8c-.2.5-.3 1-.5 1.6-.2.6-.4 1.1-.7 1.5 0 0-.1.2-.2.3-.1.2-.1.4-.2.6v.2c.6-.4 1-1 1.5-1.6s.9-1.2 1.4-1.7c.3-.3.5-.6.7-.9.2-.3.5-.6.7-.9.3-.3.5-.6.7-1 .2-.3.5-.6.8-.9.5-.5 1-1 1.5-1.6.4-.6.9-1.1 1.3-1.7.3-.4.6-.9.9-1.3.3-.5.6-.9.8-1.4.3-.6.6-1.2 1-1.9.3-.6.6-1.3.9-1.9.2-.5.4-1.1.5-1.8 0-.2.1-.4.1-.6v-.7c-.1-.2-.2-.4-.4-.5s-.3-.3-.5-.4c-.2-.2-.3-.3-.4-.5-.1-.2-.1-.4-.2-.6-.1-.4 0-.9.1-1.3.1-.5.3-.9.6-1.2.4-.5.8-.8 1.3-.9.5-.1 1-.1 1.6 0 .4.1.8.3 1 .5.2.3.4.6.5.9s.2.7.2 1.1c0 .4.1.8.1 1.2 0 1-.1 1.9-.4 2.8-.3.9-.7 1.7-1.1 2.5-.3.5-.6 1.1-.9 1.6s-.7 1-1 1.5c-.3.4-.5.9-.8 1.3-.3.4-.6.9-.9 1.2-.4.5-.8.9-1.2 1.4-.4.5-.8.9-1.2 1.4-.7.8-1.4 1.6-2.2 2.3-.8.7-1.5 1.5-2.1 2.3-.7.8-1.4 1.6-2.2 2.4-.7.8-1.5 1.6-2.2 2.4-.4.4-.8.9-1.2 1.3-.4.4-.8.9-1.2 1.3-.4.4-.8.9-1.1 1.4-.4.5-.7 1-.9 1.5-.1.3-.2.5-.2.6 0 .1-.2.3-.4.5-.1.1-.3.2-.5.3-.2.1-.4.1-.5.1-.3-.1-.4-.3-.4-.6s0-.7.1-1.1c.1-.4.2-.8.3-1.1s.2-.6.3-.7c.6-1.7 1.2-3.4 1.6-5.2.2-1 .4-1.9.5-2.9.1-1 .3-1.9.5-2.9.2-.6.3-1.2.5-1.8.2-.6.4-1.2.5-1.8 0-.1.1-.2.1-.3 0-.2.1-.3.2-.5s.1-.3.2-.5l.1-.2s.1-.1.1-.2 0-.1-.1 0-.2.3-.5.7c-.1.1-.2.2-.2.3l-.2.2c-.3.3-.6.7-.8 1.1-.2.4-.5.7-.8 1-.3.2-.5.5-.7.8-.2.3-.4.5-.7.8-.7.7-1.3 1.4-1.9 2.1-.6.7-1.3 1.5-1.9 2.1-.7.8-1.5 1.5-2.3 2.3l-2.4 2.1c-.3.3-.7.6-1 .8-.3.3-.7.6-1 .9l-1 1c-.3.3-.7.7-1 1.1-.1.1-.2.3-.4.7-.2.3-.4.6-.6 1-.2.3-.4.6-.7.8.2.4-.1.5-.3.4zM110.7 96c-.6 0-1.2-.2-1.7-.5-.7-.4-1.1-.9-1.4-1.5-.2-.6-.3-1.2-.3-1.9s.2-1.4.4-2 .5-1.3.7-1.8c.6-1.4 1.4-2.8 2.3-4 .9-1.2 2.1-2.3 3.4-3.2.8-.6 1.7-1.1 2.6-1.5s1.9-.7 2.9-.8c1.1-.1 1.8.1 2.1.7.3.6.5 1.2.5 1.8s-.2 1.1-.5 1.7-.7 1-1.2 1.5c-.5.4-1.1.9-1.7 1.2s-1.2.7-1.8 1c-.6.3-1.1.5-1.6.7-.5.2-1 .4-1.4.6-.4.2-.8.4-1.1.6-.3.2-.6.5-.8.9-.2.4-.4.8-.6 1.4-.1.4-.2.7-.2 1.1 0 .4.1.7.2 1 .1.3.4.5.6.7.3.2.6.3 1.1.3.4 0 .9-.1 1.3-.2l1.2-.6c.4-.2.7-.5 1.1-.8.3-.3.6-.6.9-1 .7-.7 1.3-1.5 2-2.3s1.2-1.6 1.8-2.4c0-.1.1-.2.3-.5s.3-.5.4-.7c.1-.2.3-.3.4-.3.1 0 .2.1.3.4.1.4 0 .8-.3 1.2-.3.4-.5.7-.8 1-.6.7-1.2 1.5-1.7 2.3-.6.8-1.2 1.5-1.8 2.2-.6.7-1.3 1.4-2.1 2-.8.6-1.6 1.1-2.5 1.5-.5.2-1 .3-1.5.4-.5-.2-1-.1-1.5-.2zm2.9-9.2c.2 0 .4-.1.6-.2l.4-.2c.7-.4 1.3-.9 1.9-1.4s1.1-1.1 1.6-1.7c.3-.3.5-.7.8-1.2.3-.4.4-.9.4-1.4 0-.2 0-.4-.2-.5-.1-.2-.3-.2-.5-.2-.3.1-.6.2-.8.5s-.5.5-.7.7c-.1.2-.3.3-.4.5-.1.2-.3.3-.4.4-.4.5-.7.9-1.1 1.4-.3.5-.7.9-1 1.4 0 .1-.1.2-.3.5s-.3.5-.4.7c-.1.3-.2.5-.2.6s0 .2.3.1zM133.1 95.9c-.5-.2-.8-.4-1.1-.7-.2-.3-.4-.7-.5-1.1-.1-.4-.2-.8-.2-1.2 0-.4 0-.8.1-1.2.1-.6.2-1.1.4-1.7.3-.8.6-1.5 1-2.2.6-1 1.3-2 2-3 .7-.9 1.5-1.8 2.5-2.6.3-.2.5-.4.8-.7l.9-.6c.4-.3.9-.5 1.3-.8.5-.3.9-.5 1.4-.7.4-.2.8-.3 1.3-.5.4-.2.9-.2 1.3-.2.2 0 .4 0 .6.1s.4.1.6.1c.3.1.5.3.7.6.1.3.3.5.5.8 0 0 0-.2.2-.4s.2-.3.3-.4c.1-.2.3-.4.6-.5.3-.1.7-.2 1.2-.2h1.2c.2 0 .4 0 .6-.1.2-.1.4-.1.6.1.1.1.2.2.2.3v.3c0 .1-.1.2-.2.3-.1.1-.1.2-.2.3-.7 1.1-1.4 2.1-2 3.2-.6 1.1-1.3 2.2-1.9 3.3-.2.3-.4.6-.6 1-.2.3-.4.6-.6 1-.4.7-.9 1.4-1.3 2.1-.5.7-.8 1.5-1 2.3 0 .1-.1.3-.1.5s.1.3.3.4c.1.1.3.1.5 0l.6-.3c.2-.1.4-.3.5-.4s.3-.2.4-.3l1.5-1.5c.5-.5.9-1 1.4-1.5.4-.5.8-.9 1.1-1.4.4-.5.7-.9 1-1.5 0-.1.1-.2.2-.3l.3-.3c.1-.1.2-.1.3-.1s.2.1.3.2c.1.1.1.2.1.4 0 .1-.1.3-.2.4l-.3.3c-.1.1-.2.2-.2.3-.2.3-.5.6-.7.9-.2.3-.4.6-.7.9-.2.2-.3.5-.5.7-.2.2-.4.4-.5.6-.4.5-.8 1-1.3 1.4-.4.5-.9.9-1.3 1.4l-1.1 1.1c-.4.4-.9.7-1.4.9s-1 .4-1.5.4-1-.2-1.4-.6c-.4-.4-.6-.8-.7-1.3s-.1-1.1 0-1.6c0-.1.1-.2.1-.3 0-.1.1-.2 0-.3-.1 0-.2.1-.3.2l-.3.3c-.2.2-.4.3-.5.5l-.5.5c-.7.8-1.5 1.4-2.4 1.9-.5.3-1 .5-1.6.6s-1.2 0-1.8-.1zm3.2-2.4c.6-.3 1.2-.7 1.7-1.2s1-1 1.4-1.5c.7-.9 1.4-1.9 2.1-2.8.7-1 1.3-2 1.9-3 .3-.5.5-.9.8-1.4s.5-.9.7-1.5c.1-.3.2-.6.2-1 .1-.3 0-.7-.2-.9-.3-.3-.6-.4-1-.3-.4.1-.8.2-1.1.4-.8.5-1.6 1.1-2.2 1.9s-1.3 1.6-1.8 2.4c-.3.4-.6.8-.9 1.3-.3.4-.6.9-.9 1.3-.3.4-.6.9-.8 1.4-.3.5-.5.9-.8 1.4-.1.2-.2.4-.3.7-.1.3-.2.5-.3.8-.1.3-.2.5-.2.8 0 .3 0 .5.1.7.2.4.4.6.7.7.2 0 .6-.1.9-.2z"/><path class="st26" d="M143.3 95.6c-.1-.3-.1-.6.1-.8.2-.2.5-.4.7-.6.3-.2.6-.4.9-.5s.6-.4.9-.6c.6-.5 1.2-1 1.7-1.6.5-.6 1-1.3 1.4-1.9.3-.5.7-1 1.1-1.5.4-.5.7-1 1.1-1.5.3-.5.7-1.1 1-1.6.3-.5.7-1 1-1.6.4-.6.8-1.3 1.1-2 .3-.7.7-1.3 1.1-2 .2-.3.4-.6.6-.7.2-.2.5-.1.9.1.8.5 1.6.8 2.5.7.9-.1 1.7-.3 2.6-.5.3-.1.5-.1.7 0 .2.1.3.3.3.6s-.2.6-.5.9c-.3.3-.5.5-.7.8-.3.3-.5.6-.8 1-.3.3-.5.6-.8 1-1 1.4-1.9 2.7-2.7 4.1-.3.4-.5.8-.7 1.2l-.6 1.2c-.1.1-.2.3-.3.7-.1.3-.3.7-.3 1.1-.1.4-.1.7-.1 1 0 .3.1.5.4.6.3.1.5.1.7 0 .2-.1.5-.2.7-.3.2-.2.4-.3.6-.5l.5-.5c.7-.7 1.4-1.5 2-2.4s1.2-1.7 1.8-2.5c.1-.2.3-.4.5-.7.2-.3.4-.4.6-.4.3 0 .4.2.4.4s-.1.5-.3.8c-.2.3-.3.6-.5.8s-.3.4-.4.5c-.3.4-.6.8-1 1.2-.3.4-.6.8-1 1.2-.3.3-.5.7-.8 1.1s-.6.7-.8 1c-.6.7-1.3 1.3-2 1.9-.7.6-1.6 1-2.5 1.2-.3 0-.7.1-1 0-.3 0-.6-.1-.9-.2s-.5-.3-.7-.5c-.2-.2-.4-.5-.5-.8-.1-.4-.2-.8-.1-1.2 0-.4.1-.8.2-1.2.1-.4.3-.8.4-1.2s.3-.8.5-1.1c.5-1 1.2-2 2-2.9.8-.9 1.6-1.8 2.4-2.6.1-.1.4-.3.6-.5.3-.2.5-.4.5-.6.1-.1.1-.2 0-.3-.1 0-.1-.1-.2-.1h-.6c-.2 0-.5-.1-.7-.2s-.4-.2-.7-.2c-.3 0-.6 0-.7.2-.2.2-.3.4-.5.7-.2.3-.4.7-.6 1-.2.3-.4.7-.6 1-.4.7-.9 1.5-1.3 2.2-.5.7-.9 1.4-1.4 2.1-.3.4-.6.8-.9 1.1-.3.4-.6.7-.9 1.1-.1.1-.3.3-.5.6s-.6.6-.9 1c-.4.4-.7.7-1.2 1.1-.4.4-.8.7-1.2.9s-.7.4-1 .5c-.3.1-.5 0-.6-.3z"/><path class="st26" d="M163.9 96c-.6 0-1.2-.2-1.7-.5-.7-.4-1.1-.9-1.4-1.5-.2-.6-.3-1.2-.3-1.9s.2-1.4.4-2 .5-1.3.7-1.8c.6-1.4 1.4-2.8 2.3-4 .9-1.2 2.1-2.3 3.4-3.2.8-.6 1.7-1.1 2.6-1.5s1.9-.7 2.9-.8c1.1-.1 1.8.1 2.1.7.3.6.5 1.2.5 1.8s-.2 1.1-.5 1.7-.7 1-1.2 1.5c-.5.4-1.1.9-1.7 1.2s-1.2.7-1.8 1c-.6.3-1.1.5-1.6.7-.5.2-1 .4-1.4.6-.4.2-.8.4-1.1.6-.3.2-.6.5-.8.9-.2.4-.4.8-.6 1.4-.1.4-.2.7-.2 1.1 0 .4.1.7.2 1 .1.3.4.5.6.7.3.2.6.3 1.1.3.4 0 .9-.1 1.3-.2l1.2-.6c.4-.2.7-.5 1.1-.8.3-.3.6-.6.9-1 .7-.7 1.3-1.5 2-2.3s1.2-1.6 1.8-2.4c0-.1.1-.2.3-.5s.3-.5.4-.7c.1-.2.3-.3.4-.3.1 0 .2.1.3.4.1.4 0 .8-.3 1.2-.3.4-.5.7-.8 1-.6.7-1.2 1.5-1.7 2.3-.6.8-1.2 1.5-1.8 2.2-.6.7-1.3 1.4-2.1 2-.8.6-1.6 1.1-2.5 1.5-.5.2-1 .3-1.5.4-.5-.2-1-.1-1.5-.2zm2.9-9.2c.2 0 .4-.1.6-.2l.4-.2c.7-.4 1.3-.9 1.9-1.4s1.1-1.1 1.6-1.7c.3-.3.5-.7.8-1.2.3-.4.4-.9.4-1.4 0-.2 0-.4-.2-.5-.1-.2-.3-.2-.5-.2-.3.1-.6.2-.8.5s-.5.5-.7.7c-.1.2-.3.3-.4.5-.1.2-.3.3-.4.4-.4.5-.7.9-1.1 1.4-.3.5-.7.9-1 1.4 0 .1-.1.2-.3.5s-.3.5-.4.7c-.1.3-.2.5-.2.6s0 .2.3.1z"/><g><path class="st26" d="M99.3 113.9h6.5v23.2h-6.5v-9.4h-3.1v9.4h-6.5v-23.2h6.5v8.4h3.1v-8.4zM108.3 113.9h14v5.3h-7.5v3.6h7v5.1h-7v4h7.8v5.3h-14.3v-23.3zM124.6 113.9h9.8c4.5 0 6.4 2.2 6.4 6.1 0 3.7-1.6 5.3-3.9 5.6v.1c1.3.1 2.5.8 3.1 1.9.6 1 .6 2.6.6 4v1.9c0 1.3.1 2.4.3 2.7.2.3.4.6.7.7v.3h-6.9c-.4-.5-.5-2.2-.5-3.4 0-1.1-.1-2.3-.1-3.4 0-2-.7-2.3-1.8-2.3h-1.2v9.1h-6.5v-23.3zm6.5 9.8h.9c1.1 0 2.2-.5 2.2-2.7 0-1.9-.9-2.4-2.4-2.4h-.7v5.1zM143.3 113.9h14v5.3h-7.5v3.6h7v5.1h-7v4h7.8v5.3h-14.3v-23.3z"/></g></svg>