<svg version="1.1" id="Layer_1" xmlns="http://www.w3.org/2000/svg" x="0" y="0" viewBox="0 0 191.1 160.5" xml:space="preserve"><style>.st26{fill:#fff}</style><path fill="#020202" d="M95.8 32.8L48.3 0 0 33.4v94.3h95.3l47.4 32.8 48.4-33.4V32.8z"/><path class="st26" d="M12.1 108.8h169.1v2.6H12.1zM12.8 51.1h169.1v2.6H12.8z"/><path fill="#ffd902" d="M113.4 126.8l29.5 18.4 25.6-18.1z"/><g><path class="st26" d="M32.2 40h-10c.1-2 .5-3.9 2.1-5.4l2.5-2.6c.3-.3.9-1 1.1-1.6.1-.4.1-.8.1-1.3 0-.8-.2-1.3-.9-1.3-.8 0-.9.9-.9 1.5v.9h-3.9c0-1.8.3-3 1.1-3.9.8-.8 2-1.2 3.8-1.2 4.4 0 5 2.2 5 4.1 0 2.1-.7 3.3-1.7 4.3s-2.2 1.9-3.2 3.3h5V40zM37.4 25.5h4.7v8.8h1.3v3.1h-1.3V40h-3.8v-2.6h-5.5v-3.1l4.6-8.8zM36 34.3h2.3v-4.6L36 34.3zM47.9 24.8h3.4l-4.6 15.5h-3.4l4.6-15.5zM61.4 40h-10c.1-2 .5-3.9 2.1-5.4L56 32c.3-.3.9-1 1.1-1.6.1-.4.1-.7.1-1.2 0-.8-.2-1.3-.9-1.3-.8 0-.9.9-.9 1.5v.9h-3.9c0-1.8.3-3 1.1-3.9.8-.8 2-1.2 3.8-1.2 4.4 0 5 2.2 5 4.1 0 2.1-.7 3.3-1.7 4.3s-2.2 1.9-3.2 3.3h5V40zM66.5 25.5h4.7v8.8h1.3v3.1h-1.3V40h-3.8v-2.6h-5.5v-3.1l4.6-8.8zm-1.3 8.8h2.3v-4.6l-2.3 4.6z"/></g><g><path class="st26" d="M18.1 76.4H13v-5.8h17.1v5.8H25v20.4h-6.8V76.4zM33.9 70.6h8.6l6.4 26.2h-7.3l-.7-4.6h-5.4l-.7 4.6h-7.3l6.4-26.2zm4.4 5.4l-1.9 11.1h3.8L38.3 76zM50.1 70.6h6.8v20.6h8.4v5.6H50.1V70.6zM66.8 70.6h6.8v10.1h.1l5.1-10.1h7.3l-6.6 11.5 7.4 14.8h-7.8l-4-9.1-1.4 2.2v6.9h-6.8V70.6zM99.2 76.4H94v-5.8h17.1v5.8H106v20.4h-6.8V76.4zM121.3 70.1c7 0 9.4 3.8 9.4 13.6s-2.4 13.6-9.4 13.6-9.4-3.8-9.4-13.6 2.4-13.6 9.4-13.6zm0 22.6c2.1 0 2.3-1.9 2.3-9s-.2-9-2.3-9c-2.1 0-2.3 1.9-2.3 9s.2 9 2.3 9zM149.2 70.6v18.9c0 2.5.8 3.2 2.1 3.2s2.1-.7 2.1-3.2V70.6h6.8v17.2c0 7.3-3.2 9.6-8.9 9.6s-8.9-2.2-8.9-9.6V70.6h6.8zM173.3 78.2v-.6c0-1.5-.6-2.8-1.9-2.8-1.5 0-2.1 1.1-2.1 2.3 0 5.2 11.2 2.6 11.2 12.2 0 5.6-3.3 8.1-9.3 8.1-5.7 0-8.8-1.9-8.8-7.4v-1h6.6v.6c0 2.2.9 3 2.2 3 1.4 0 2.2-1.1 2.2-2.5 0-5.2-10.7-2.6-10.7-11.9 0-5.3 2.8-8.2 8.6-8.2 6 0 8.5 2.5 8.5 8.1h-6.5z"/></g></svg>