<svg version="1.1" id="Layer_1" xmlns="http://www.w3.org/2000/svg" x="0" y="0" viewBox="0 0 236.6 199.2" xml:space="preserve"><style>.st26{fill:#fff}.st135{fill:#3a322e}.st445{fill:#f7eee8}</style><path class="st135" d="M235.4 147.7l.2-.5c.1-.2.1-.4 0-.6.8-6.3.3-13.9-.2-19.2h-.3c.4-.5.5-1.1.4-1.7-.1-.4-.3-.8-.6-1v-.1l-.1-.3v-1c0-.7 0-1.4-.1-2.2h.1c.4-.9 2.1-3 .5-4.2-.7 1.9-.1-1.5-1-1 .4 2-1.4 1.8-2.1 2.6v.1s-.1 0-.1.1c-.4.2-.8.6-1.3 1.1l-.1-.2c-1-.5-1.7 1.6-2.1 0 4.2-2 2.7-4.1 4.2-8.3.8 0 .3 1.4 1 1.5v1.3c0 .2.1.3.3.3.2 0 .3-.1.3-.3v-1.3c2.5 1.9 1.9-5 .5-5.2-.2-.6.1-1 .5-1.6.4-.6 1-1.5.5-2.6V86.2l-.2.1c.1-.5.1-1 .2-1.5v-.3-2.2c0-1.2.1-2.5-.2-3.8l.2.1V44.8c0-12.1 1.6-25.1 0-34.3-.8-4.6-4.9-9.1-9.9-9.4l-.2.2c-.6-.7-1.7-1-2.6-.7-.3 0-.6-.1-.9-.1h-.1c-.7-.3-1.4-.2-2 .1-.3-.1-.7-.1-1 0-.6-.3-1.2-.3-1.6-.1h-.1c-.1 0-.1 0-.2.1h-.1c-2-.2-4-.4-6.1-.3-.2 0-.4.2-.4.4s.2.4.4.4c2-.1 3.9.1 6 .3.2.5.6.8 1.2.9.2 0 .3.1.5.1h.4c.2.1.3.2.5.2h.1c.3.2.5.3.9.5.1 0 .1 0 .2.1.2.2.5.4.7.5.4.2.5.2.5.4s.2.4.4.4.4-.2.4-.5c-.1-.7-.6-.9-1-1.1-.1 0-.2-.1-.3-.1.1-.4 0-.8-.4-1l-.6-.3c.4-.1.8-.1 1.1 0 .1.2.3.3.5.3s.4 0 .6.1c0 .2 0 .3.1.5v.1l.1.1c.2.2.5.3.8.3.3 0 .6-.1 1-.3l.2-.1c.2 1.3 1 2.1 2.1 2.6-1.3 1.2-1.1 1.4-1.6 2.6-.2-.1-.5-.2-.7-.2l-.4-.1.1-.2c-.4-1-.7-2.1-1.6-2.6-2.1-.7-1.6 1.1-3.1 1-.7-.7-1.6-1-.5-2.1-5.5-.2-12.3 1-16.7.2-.1-.1-.2-.2-.4-.2h-.4c-.4 0-.8 0-1.2-.1 0-.6.1-1.4-.5-1.4-.6.7-1.8 1-3.1 1l.1.3c-.7-.4-1.4-.4-1.8 0l-.1.1-.2.2-.2-.1c-3 1.1-7.4.4-10.9.5-1.8 0-4.6 1.9-5.7-.5 0-.8 1.3-.4 1.5-.9 5.5-1.2 11.1-1.2 17.1-1.2h1.7c.3 0 .5-.2.5-.5s-.2-.5-.5-.5h-1.7c-6.1 0-11.9 0-17.6 1.3l.1-.2c-2.8-2.2-4.4.1-7.3.5-2-.3.7-2-2.1-1.6-2.5-.6-.9 2.6-3.7 1.6l.1.3c-.3-.1-.6-.2-.9-.2-.1-.2-.2-.6-.1-.9h.2c.2 0 .4-.3.3-.5 0-.2-.3-.4-.5-.3l-.6.1-.1.2c-.3.5-.2 1.6.2 2.1l.1.1h.1c.2 0 .4.1.7.2h-.1c0 .7.7.7.5 1.6.4.1.6.4.5 1-.4-.1-.6-.4-.5-1-1 0-.7 1.4-2.1 1-1.3-1.9-2.7-2.2-5.2-3.6-1.1 1.8-5.2 1.7-2.6-.5l-.1-.1c.3 0 .6-.1 1-.2.9-.2 1.4-.3 1.6.2.1.1.2.2.3.2h.2c.2-.1.3-.3.2-.5-.4-1.2-1.5-1-2.4-.8-.3.1-.6.1-.8.1l.1-.1H45c-1.2 1-1.9 2.6-4.2 2.6-.6-1.5 3.1-2.4.5-2.6C27.5 2.4 11-3.7 3.9 4.1-2.2 10.7 2.1 23.2.8 35.3h.1c-.1.7-.1 1.5 0 2.1H.8v5.2c1.5.6 2.7.6 4.2 0l.2-.1c.1.5.6.8.8.9l.1.1h.2c.1 0 .2 0 .3-.1.4-.1.8-.2 1.2-.4h.1l.1-.1c0-.1.1-.2.2-.3 2.1.1 2.6-1.5 4.5-1.6 0 .2.1.4.1.6h-.1C9.4 44 5.1 45.4.7 46.8v15.1l.2-.1c-.1.5-.2 1.1 0 1.7H.8v.5l.2-.1c-.1.5-.2 1.1 0 1.7H.9V76H1c-.3 1-.3 2.1 0 3.2H.9v1.6l.1-.3v.1c-.2 1-.5 2-.2 3.1.3 4.5-.7 10.4.5 14 .1-.6-.1-1.5.5-1.6v1c5.8-2.3 10.3-6 16.1-8.3C13.3 93.4 6.6 95.9.7 99.2v34.9c0 12.1-1.7 25 0 35.4.2 1.5.9 3.3 2.1 4.7v-.1c.3.4.7.8 1.1 1.1h-.1c1 2.1 2.9 3.4 5.7 3.6l-.1-.3c.4.2.9.3 1.3.3.2 0 .4 0 .7-.1.1 0 .1.1.2.1h.2c.4-.2.8-.4 1.1-.6l.1-.1v-.1c.2-.7 0-1.7-.2-2.1-.1-.3-.4-.4-.6-.3-.3.1-.4.4-.3.6.2.5.2 1 .2 1.4-.1.1-.3.2-.5.2-.1-.1-.1-.2-.2-.3l-.1-.1h-.1c-.4-.1-.7-.2-1.1-.4-.8-.7-1.1-1.9-1.5-3 0-.5-.1-1.2-.3-1.8v-.1-.1c.1 0 .2-.1.2-.1h.1c.6.5 1.4.7 2.1.7h.3v.2c2.9 1.4 1.7-1.4 3.1-2.1.4 2.1 1.2.6 2.6 1.5v.6c-.7 1.1-.8 3.1-2 1 .3.9-.6 3.1.5 3.1.1-.4 0-1 .5-1 .7 2.9 3.5 3.6 5.1 5.6.1.2.1.5.2.7h-.1c-1.6.7-3.1-1.3-3.6 0l.1.3c-.1-.1-.3-.1-.4-.2-.1 0-.2-.1-.2-.1.1-1-2.6-1.8-2.1.1.3.6.6 1.2 1 1.6.1-.4 0-1 .5-1v-.1c.1.1.3.2.4.3h.1c0 .6 0 1.3-.5 1.4.3 1.6 1.1-.5 2.1 0v3.6c3.8 3.3 5.4 8.8 9.9 11.4 4.4-6.7 8.5-13.7 13.5-19.8 15.8-.3 32.9.7 47.9-.5.1-.4 0-1 .5-1v1c.6 0 .7-.5 1.3-.5.1.1.1.2.2.3.1.1.1.3.2.4l.1.1.1.1c.2.1.5.1.8.1.3 0 .7-.1 1-.1v.1h7.3l-.1-.3c.4.2.8.3 1.3.3.2 0 .4 0 .7-.1.1 0 .1.1.2.1.2.1.5.1.9.1.5 0 1-.1 1.6-.2.3.1.6.1.8.1.5 0 .9-.1 1.3-.3H108.1c.3-.1 1.3-.2 2.1-.2.4 0 .7-.3.7-.8 0-.4-.3-.7-.8-.7-.9 0-1.9.2-2.3.2l-.4-.4c.1-.8-.2-1.5-.4-2.1l.2.1c.8-1.2 1.1-1 .5-2.6-.9.2-1.8-2 0-1.6 0 .1.1.2.1.3-.1.6.3 1.1.9 1.2.2 0 .4.1.6.1h.2c.1.1.1.3.2.5.4.8.8 1.8 1.9 2h.1c.2 0 .4-.1.4-.3 0-.2-.1-.4-.3-.5-.7-.2-1-.8-1.3-1.5l-.3-.6c.1-.2.2-.4.2-.6v-.1c.6-.7.9-1.4.9-2.2l.3-.3c2 0 1.5 2.5 4 2.1.1-.8-.1-1.8 1-1.6.3.3.6.5 1 .7-.2.8-.9 1-2 .9.6 1.7-1.7.4-1 2.1.9 2.8 6.5 1 7.2 4-.1.3-.3.5-.5.8-.2.3-.1.7.2.9.1.1.2.1.4.1s.4-.1.5-.3c.2-.3.4-.6.5-.9 3.3 2 9.2 1.5 14.5 1.5 1.6-1.6 3.8-2.8 6.2-3.6v.3c0 .4.4.8.8.8h.1c.4 0 .8-.4.8-.8 0-.3-.1-.5-.1-.8h.1c0-.3.1-.6.5-.5 2.8.5 2.1 1.4 3.1 3.1-.4.1-.9 0-1 .4-.6.1-1.2.1-1.8.1-.3 0-.6.2-.6.5s.2.6.5.6h.7c.6 0 1.1 0 1.8-.2v.2h2.1v-.1c.2.1.5.1.7.1.3 0 .6 0 .9-.1l-.1.2c6.6-.6 15.9 1.3 20.8-1 .6 0 1.1-.3 1.5-.5.3-.1.5-.3.6-.5.3 0 .6.4 0 .5 0 .7-.2 1.1-.5 1.6h1.6l-.1-.3c.4.2.7.3 1.1.3.4 0 .8-.1 1.2-.3l-.1.3h1.6v-.1c.3 0 .6.1.9.1.2 0 .5 0 .7-.1v.1c5.3.5 9.7-.9 12.5 0v-.1c.3 0 .6.1.9.1.2 0 .5 0 .7-.1v.1c11.5-1.3 31.7 3.1 36.4-3.1.4 0 .7-.1 1-.4.5-.4.6-1.2.6-1.8 4.6-5 2-19.3 1.9-26.9zm-17-146.4c.1 0 .2 0 .3.1h-.1c-.1-.1-.1-.1-.2-.1zm5.5.4s0-.1 0 0c.1-.1.2 0 .4 0h-.4zM7 64.9v-1h.5v-.1c.2 0 .4.1.5.1v1H7zm3.6 2.6l.1.2c-.2-.1-.4-.3-.6-.4.2-.5 1.5-.1.5.2zm-1-7.8c2.6 0-.9 2.2-1.5 2.6-.2 0-.3 0-.5-.1.1-.3.1-.8-.1-1.4.9-.1 2.6.5 2.1-1.1zM1.9 78.5c-.1-.7-.2-1.5 0-2.1h.9c-.1.9.5 2.5-.9 2.1zm.9-14.1c-.1.4-.4.6-.9.5 0-.3 0-.5.1-.8.2 0 .4-.1.6-.1h.1c.1.1.2.3.3.5l-.2-.1zm1.1-.5l-.1.3c-.1-.2-.3-.4-.4-.6 0-.1.1-.2 0-.3 0-.1 0-.1-.1-.2 0-.1.1-.1.1-.2h1.4c0 .5-.5.8-.9 1zm-.8-1.6c-.1.2-.2.4-.3.5h-.3c-.2 0-.3 0-.5.1v-.6h1.1zM1.9 83.2c-.1-.7.1-1.4.2-2.2l.1.1h.5l.4-.1c-.1.6 0 1.1.3 1.7h-.1c-.6-.1-.7.5-1.4.5zm2.5-1.6c0 .2-.1.5-.2.5-.2-.2-.2-.4-.3-.5h.5c-.5-2.2 1.5-.1 0 0zm2.1-2.1c.1-.5.5-.7.9-.9.1.3.2.6.2.8 0 .2.1.5.2.7h-.3c-.5-.1-.6-.5-1-.6zm2.6.5c-.4 0-.6-.3-.8-.4 0-.1 0-.2-.1-.3-.1-.4-.2-.9-.4-1.4H8c1.7-.9 1.3.4 1.1 2.1zm-.5-9.3c-.1-1.3-.1-2.5 1-2.6l-.1-.3c.2.1.4.2.5.3-.3 1 .1 2.7-1.4 2.6zm2 98.8c.7.1.4 1 .1 1.5-.4 0-.8-.2-1-.4v-.1c.5-.1.7-.6.9-1-.7-.2-1.1-.7-1-1.6.9 0 1.2.6 1 1.6zM8.2 171c-.1 0-.2.1-.3.1-.4-.2-.8-.4-1-.6-.2-.2-.6-.2-.8-.1h-.2c-.1-.5-.6-.7-1-.9.2-1.1 2.5-.1 2.1 1 .7 0 .7-.7 1.6-.5h.1c-.1.2-.1.4-.1.5-.1.1-.2.3-.2.4-.1.1-.1.1-.2.1zm-2.3-35.3c.1 0 .1 0 0 0 .1 0 .2.1.3.1h.1c.3-.1.5-.2.8-.3l-.1.2c0 .9-.1 1.6-.5 2.1-.8-.1-.5-1.3-.6-2.1zm-.4 24.5c0-.1 0-.2.1-.2.4.1.9.2 1.4.2v3.6c-2.1.4-.4-3.1-1.5-3.6zm2.5-12c-.6-.1-.4-.9-.5-1.6.9-.2 1 .4 1 1-.4 0-.4.3-.5.6zm-.5 7.3c-.2.8-.5-.1-1 0 .1-.7 1-.6 1 0zm-1.6-16.7c0-.5.6-.4 1-.5.1.5-.5.4-1 .5zM7 156.5c.7-.3.8 1.6.3 2h-.1c-.3 0-.5 0-.8-.1 0-.8.2-1.5.6-1.9zm2.6-23.4c1.3.2 0 2-1 1.6.1-.7.9-.9 1-1.6zm-.5 3.6c-.3-.2.3.4 0 0zm-1.6 8.4c.4-1.2.5-2.7 1-3.6.3 1.1 2 3.2-1 3.6zm-1.6-30.2c.4.1.5-.2.5-.5 1-.2.8 2.4-.5 1.6v-1.1zm.6 20.1c-.1.1-.2.1-.3.1-.1 0-.1.1-.2.1-.2-.9.5-1.3.5-.2zm-2.1 24.6h.1c-.1.2-.1.4-.1.6-.8 0-.4-1.6 0-.6zm.1 14.5c-.2-.2-.5-.4-.7-.7-.2-1.3 1.8-.5 1.6-1.8v-.1c.2.1.4.1.6.1.4.3.8.6 1.5.9h.2c.1.3.2.7.2 1.2-1.8.4-2.3 0-3.4.4zm6.7 4.1c-.3.1-.7.1-1.1-.1v-.5c.3.1.6.3 1 .3 0 .2.1.2.1.3zM145.9 63.9c-.2.6-.7 1.1-1.6 1 .3-.6.7-1 1.6-1zm-2.2 95.7c.1.2.2.4.4.6l-.3-.1c0 .3-.1.6-.5.5-.1-.6-.8-1 .4-1zm.8 0c-.1-.2-.2-.4-.4-.5l.2.1c.1-1 .9 0 .2.4zm-2.3-63.5h1v1h-1v-1zm0 55.7c-.5.3-.9.6-1 0 .1-.6 1-.5 1 0zm-2.7-10.9c.1.2.2.4.4.6l-.3-.1c-.6 1.6-1.5-.5-.1-.5zm.8 0c-.1-.2-.3-.4-.4-.6l.2.1c.9-.1 1.3.5.2.5zm-.7-71.8c-.4-.1-.5.2-.5.5-.6-.1-.4-.9-.5-1.6.9-.1 1 .5 1 1.1zm-1-2.1c-.2-.2.3.4 0 0zm-8.5 94.7h-1.2c0-.1-.1-.2-.1-.2v-.5c.4-.6 2.4-1.7 2 .1-.3.2-.5.4-.7.6zm.7-7.3c-.4-.1-.5-.5-1-.5.2-1.2 2.4-.3 1 .5zm-1-7.3c1.7-1.2-1.3 1.8 0 0zm-.6 2.1c1.8-1.2-1.2 1.8 0 0zm-1 11.5c0 .1-.1.2-.1.3v.2h-.1c-.4 0-.9 0-1.3-.1.2-.5.9-.5 1.5-.4zm-4.7-48.4c.4.3-.2-.2 0 0zm-1.5 41.1l.1.3c-.3-.2-.6-.3-1-.5 0 0-.1 0-.1-.1.2-.7 1.3-1.3 1 .3zm-2.1-23.4c0 .5-.6.4-1 .5 0-.5.6-.4 1-.5zm-4.2-56.7l-.2-.4c.5-.2 1.4-.6 2.8-1.7-.1 1.4-.9 2.2-2.6 2.1zm-1 .5l.2.3c-.2.1-.5.3-.7.7.1-.4 0-1 .5-1zm-2.1 84.3c0 .1-.1.2-.1.3v.1c-.1 0-.3-.1-.4-.1.1-.3.2-.4.5-.3zm-5.2-8.4c.9.2 1.3-.8 1.6 0h.1c0 .2-.1.4-.1.5-.6 0-1 .2-1.4.4v-.1c-.1-.3-.3-.6-.5-1l.3.2zm-.2 6.4c0-.3-.1-.7-.3-1.1.4.1.6.4.5 1l-.2.1zm-.5-5.8c.1.2.2.4.2.5l.3.6-.3-.1c-.5 0-.6-.8-.2-1zm1.2 6.7l.3-.2c.1.5.4 1.2 1.2 2.2-1.7.6-1.6-.6-1.5-2zm.5-25.5l-.1-.3c.3-.1.7-.3 1.1-.7-.1 2-1 1-1 1zm-1.5.5l.1.4c-.2.1-.5.3-.6.7.1-.4 0-1 .5-1.1zm-3.7 13.6V144c1.1-.1 1.7.4 1.6 1.6h-1.6zm1.1 10.4c-.8.1-.9-.5-1.6-.5.1-.4.5-.5.5-1 .7.1 1.1.6 1.1 1.5zm0-20.8l.1.2c-.2-.1-.4-.3-.6-.4.1-.2.4-.3.5.2zm-1.1.5l-.1-.3c.2.1.4.2.5.3-.6.9-1.1 2-2.5 2-.2-1.6.5-2.3 2.1-2zm-4.1 15.6c-.6-2.4 2.4.6 0 0 1.5 1 1.4 4.3-1 4.2-.2-1.2-1.2-3.5 1-4.2zm-2.6-4.7c.2-.2-1.6-.6-1.6-.5-.1-.8 2.8-.7 1.6.5zm1 13.5c-.1 1.3-1 1.6 0 2.6 1.5-.1 1.6 1.2 3.1 1v-.1c.2.4.5.8.7 1.1l-.2.1c-.5 1.3-2.3-1-2.1 1.6-1-.1-1.7-.3-2.1-1l-.2.1c-.1-.3-.5-.5-.8-.7-.1 0-.1-.1-.2-.1-.8-2.1-1.7-4-3-5.5h.5c1.6.7 2.9-.5 4.3.9zm5.7 8.4l-.1.2-.7-.7.2-.1c.4.1.7.1.6.6zm-3.1 2.6c0 .5-.6.4-1 .5 0-.5.6-.4 1-.5zm-4.7-5.8c.1 0 .2 0 .2.1.1 0 .2.1.3.1-.2 1.8-2.5.5-.5-.2zm-2.6-7.3c-.5-.1-.5-.8-.4-1.5.6.2 1.1.7 1 1.5h-.6zm-1-5.1c-.1-.9.6-1.1.5-2.1.9-.2.9 2.9-.5 2.1zm-2.5-7.1c.3-.1.6-.1.9 0 .1.1.2.3.3.4l-.3-.1c-.3-.1-.8-.1-.9-.3zm1.6-.2c-.1-.1-.1-.2-.2-.3l-.1-.1h-.1c-.6-.2-1.2-.1-1.9.2l.1-.3c.7-2-.5-2.5.5-4.2 1.8.9-.2 3.6 2.6 4.2-.1.3-.4.5-.9.5zm.9-130.1c-.2.7-.9.8-1 1.6-1.4-.2-.1-2 1-1.6zM89.7 4.6c1.7-1.3-1.3 1.7 0 0zm1 131.6c.7 0 .4.8 0 0-1.6.6-1.3-.8-2.1-1 .2-1.1 2.5-.1 2.1 1zM79.3 16v-.2c0-.1 0-.2.1-.4.8-.5 1.4-1.2 2.4-1.5.1.2.2.4.3.5l-.3-.1c-.5 1-1.4 2.8-2.5 1.7zm3.3-2.1c-.1-.2-.2-.4-.4-.6l.2.1c.3 0 .5.4.2.5zM78.3 15h.1c-.1.2-.1.4-.1.6-.3 1-.8 1-1.5.5 0-.8 1-.7 1.5-1.1zm1.9 7.3c0 .1.1.2.1.3-.4.1-1.4.4-3.6 1.3.3-2.5 1.3-1.8 3.5-1.6zM78 58.1c-.1 0-.1-.1 0 0-.2-.4-.3-.7-.5-1l.3.1c.4-.1.6.6.2.9zm-6.5-42.6v.5c.6-.4 1.4-.7 2.6-.5.5 1.7-1.6.8-2.6 1V16c-2.9 1.4-5.9 2-8.8 2.1-1.5-.9-2.1-1.2-3.6 0l-.2.1c-.1-.4-.2-.8-.3-1 .4-.3.8-.7 1.1-1.1 4.6.3 7.3-2.6 11.8-.6zm-2.6 8.9c.6-2 3-2.2 4.2-3.6.9 1.4-1.9 3.6-4.2 3.6zm-7.3 5.2c.2-1.4 2.2-.9 2.6-2.1 1.3.8-1.2 2.2-2.6 2.1zM45.5 51.4c.9-.1 1.1.6 2.1.5.1 1.6-1.3 1.8-2.6 2.1.4-.6.6-1.4.5-2.6zm2.6-17.2c1.7-1.2-1.3 1.8 0 0zm.5-7.8v-.5c3-1.3 6.7-3.8 9.4-2.6-1.9 3.1-6.6 3.1-9.4 3.1zM59 15.5l.2-.1c-.3.5-.7.9-1.1 1.2-.1-.1-.2-.1-.4-.1H57l-.1-.1c-.1-.4-.2-.7-.4-1.1l.4.1c.7.1 1.4.1 2.1.1zm-2.8.5c.1.2.1.3.1.5l-.1.1c-.7-.1-.9-.5 0-.6zm-.8 2.6c.1-.4.4-.6 1-.5V18h.1l.5-.3.1-.1h.3c0 .1.1.3.1.5-.1.8-1.3.5-2.1.5 0 .7-.8.4 0 0zm-4.2 0c-.1 1.6-1.8 1.6-3.1 2.1.3-1.4 1.4-2 3.1-2.1zm-5.7 2.6c.6-2 .6 2.1 0 0zm1.5 4.7v.6c-1.6.4-3.7 2.1-5.2 1 .1-.4 0-1 .5-1v-.1c.2-.1.7-.5 1-1v.1c1.2.2 3.5-.7 3.7.4zm-5.1-.5c0-.6.2-1.4.5-.6h.1c-.2.4-.5.6-.6.6zM45 14c-.7.8-1.8 1.3-3.1 1.6l.1.2-.1-.1c-.3-.3-.6-.5-.8-.7l.3.1c.4-1.3 2.2-2.4 3.6-1.1zm-7.8-1.6h1v1h-1v-1zm-1.1 5.7c0-.7-.7-.7-.5-1.6 1.7-1.5 3.2 0 5.2-1 .2.2.4.4.6.5v1c-2.5-.2-3.1 1.2-5.3 1.1-.1 1.6-2.1-.5 0 0zm5.2 2.6v1h-1v-1h1zm-5.7 2.6l-.5.2H35c-.2-.1-.5-.2-1-.2-.2-1.9 2.8-3.1 1.6 0zM28.8 9.8c1.1-.2 1.4.4 2.1.5.2.9-2.9.9-2.1-.5zm-3.6-1c.6-2.1.6 2 0 0zm1.6 20.8c2.7-.8 4.5-2.5 6.2-4.2 1.8 0 2.2.9 3.1-.5h2.1c0 .9.4 1.3 1 1.6-3.1 2.3-8.1 2.7-9.9 6.2.8.9 1.7 1.8 2.1 3.1-1.6.6-2.7.7-4.9 1l-.7-.4c-.4-.2-.8 0-1 .3 0 .1 0 .1-.1.2-.3.1-.6.2-1 .3-.3.1-.7.1-1 .3h-.1l-.1-.1c-.7-.7-2.3-1.4-3.1-.5l.1.2c-.6-.2-1.3 0-1.8.1-.3.1-.6.2-.9.2-.1-.6-.8-.5-1.5-.5 1.8-2 4.5-3.1 7.8-3.6.5 1 1 2.1 1.6 3.1-.2-2.3 2.8-1.4 3.1-3.1-.4-.5-1.8.2-2.6-1 1.1-1.9-.7-1.4-.5-3.6 1.4-.6 1 .9 2.1.9zm4.3 35.6c-.2.1-.5.3-.8.5l.1-.2c-1.9-1.9 2.2-2 .7-.3zm.3.6v.2c0 .3-.4.5-.5.1.2-.1.4-.2.5-.3zm.6-26.4c.2-.7.7-1 .5-2.1h2.1v2.1H32zm6.2-3.6l-.1-.4c.2-.1.5-.3.6-.7-.1.5 0 1.1-.5 1.1zm-1.6.5c0 .3-.1.6-.5.5 0-.3.1-.6.5-.5zm2.6 21.9c-.1 1.6-1.8 1.6-3.1 2.1.6-1.2 1.6-1.9 3.1-2.1zm-.5-13c-.4-.1-.5-.5-1-.5.1-.4.5-.5.5-1 .4.1.5.5 1 .5-.1.3-.5.4-.5 1zM23.6 69.6c.6-2 .6 2.1 0 0zm0 15.1l.3-.1c-.1.2-.2.3-.3.4h-.3c-.1-.3-.2-.6-.5-1l.3.1c.3.1.6.2.5.6zm-2.4-38.4c0-.2.1-.3.1-.4l.2-.2c.3-.2.7-.5 1-.7v.1c.6-.1.8-.6 1-1l-.1-.3c.4.2.7.3 1 .4-.4 1.1-2.2 3-3.2 2.1zm1.1 135.5v-.1c-.1-.3-.2-.5-.3-.8h.1c1-1.1 2-.1 1.2.9h-1zm1.3-60.7c1.8-1.2-1.2 1.8 0 0zm0 49.4c.5 1.5-1 1-1.9 1-.1-.2-.3-.4-.4-.6l.2.1c1 .2 1.2-.5 2.1-.5zm-5.7-31.6c-.1.4-.4.6-1 .5v-1.6c.4.1.9 0 1 .4v.7zm.1 9.8c.3 0 .5.4 0 .5v-.5zm3-12.5c.1-.6.9-.4 1.6-.5-.1.6-1 .4-1.6.5zm.6-20l-.1.3v1.6c-.6-.2-1-.6-1-1.3.1 0 .1-.1.2-.1.3-.2.6-.4.9-.5zm1.5 10.6c-.8-.4-.8-1.7-1-2.6 1.7-.5.8 1.7 1 2.6zm-2-11.1l-.6.3-.6.3.1-.3v-1.6c.9-.1 1.2.4 1.1 1.3zM15.8 40c0-.7.2-1.1.5-1.6l-.1-.2c.2 0 .3.1.5.1.4 0 .8-.1 1.2-.2.4-.1.7-.2 1-.2 0 1.6-1.1 2.3-3.1 2.1zm-3.4-9.1c-.1-.2-.3-.6-.5-.9l.2.1c.3-.7 2-.1 2.1-1 1.4.6-.7 2.6-1.8 1.8zm-.7-5c-1.7-1.1.9-2.2 1-3.1 1.7 1.1-.9 2.2-1 3.1zm3.1-6.7l.2.3c-.2.1-.5.3-.7.7.1-.4 0-1 .5-1zm10.3 18.6l.6.3v1s-.1 0-.1.1c-.2.1-.4.2-.6.4-.3.2-.7.4-1 .6-1 .2-2-1.4-.8-1.6l-.1-.1c.3-.1.6-.2.9-.2.3-.3.7-.4 1.1-.5zm-3.5 6.3c-.3.2-.5.4-.8.5h-.1c-.2-.1-.4-.3-.6-.4-.1-.1-.3-.1-.5 0v-.1c0-.7-.7-.7-.5-1.6 1-1 1.3-.1 2.6 0-.1.6-.1 1.1-.1 1.6zm-1.8 1.2c.1.1.2.2.3.2-.1.2-.1.5-.2.7-.4-.1-.5-.7-.1-.9zm5.6-2.9c-.3-.1-.5-.2-.9-.3h.1v-.5l-.1-.1c.4-.2.8-.5 1.2-.7.1-.1.2-.1.3-.2.3.1.4.4.7.5v1c-.5-.1-.9.1-1.3.3zm-.7-19.1c1.4 1.4-3 3.7-4.7 2.1.8-2.5 3.4 0 4.7-2.1zm-8.9-4.7l-.2-.4c.3-.2.8-.7 1.3-1.7 1.7.3 1 2.8-1.1 2.1zm-1-14.5c.8-.6 1.3-.6 2.1 0-.1 1.2-1.4 1.2-2.1.5v-.5c-.7 0-1.1-.2-1.6-.5.2-1.5 1.8-1.2 1.6.5zm-1.1 8.3c1.7 1.2-1.5 2-2.1 2.6-1.6-.6.6-1.8 0-3.1.8-.1 1.6 2.1 2.1.5zm-3.6-6.3c.4.1.5.5 1 .5-.1.4-.5.5-.5 1-.4-.1-.5-.5-1-.5.1-.3.5-.4.5-1zM6.5 42.6h-.2l-.3-.3v-.8h1.6v.5c-.1.1-.2.2-.2.3l-.9.3zm2.6-9.4c-3.9-.1-2.9 4.7-6.2 5.2 0-.7.7-.7.5-1.6h-1v-1.1c2.1-.3 2.4-2.4 3-4.1 1.7.7 2.7-2 3.6-.5v.8c0 .2.1.5.1.7H9c.1.3.1.4.1.6zm2-1h-.5v-1c.5 0 .6-.3.9-.5.1.2.2.3.3.5h-.1c0 .4-.5.5-.6 1zm2.7 8.8v-.1c.1-.3.5-.5 1-.4-.1.4-.4.6-1 .5zm2.6 9.4c-1.5-.6.7-1.7 1.6-1.6-.1-.6.8-.3 0 0 .1 1.2-1.6.6-1.6 1.6zm1 78.5c2 .6-.2 3.7.5 6.2-1.6-1.1-1.8-4.9-.5-6.2zm-2.6-23.4c1.5-.8 1.5 2.3 0 1.6v-1.6zm-.7 34.9c.1 0 .1 0 .2-.1.1.8-.5 1.2-.5.2.1 0 .2 0 .3-.1zm.2 19.2c1 .3 1.1.7.7 1.4-.2 0-.4 0-.7-.1v-1.3zm-1.1-20.8h1v1h-.1c-.1-.1-.2-.1-.3-.1-.3 0-.5.2-.8.3l.1-.3c.1-.2.1-.5.1-.9zm1.6 25.5c-.8-.4-1.1-1.3-1-2.6l-.1-.3c.4.2.8.3 1.1.3.2 0 .4-.1.6-.1v.2c.1 1.2-1 1-.6 2.5zm1.6-16.1c.5 0 .6.4 1 .5v.6c-.7.8-.8 2.3-1 3.6-1.7-.2-.4-3.4 0-4.7zm1 24.4v-.6c.9-1.2 1.8.9 0 .6zm1.6-33.8v-.5c.8-.1 1.2.6 0 .5zm1.9 32.8c.1.2.2.4.4.6l-.3-.1c-.8.1-1.2-.5-.1-.5zm2.2 14c.6-2 .6 2.1 0 0zm-.5-2.9h1.2l-.1.3c-.1.7-1.2.6-1.1-.3zm2.1-37.1c0-.5.6-.4 1-.5 0 .5-.6.4-1 .5zm2.1 40c.6-2 .6 2.1 0 0zm2-16.1c.6-2.1.6 2.1 0 0zm.6-4.2c.1-.7 1-.5 1 0-.5.4-.9.7-1 0zm.5-12.4c.6-2.1.6 2 0 0zm1.5 17.1c-.2-.2.4.4 0 0zm2.6-10.9l.2-.1-.1.1c-.2.3-.5.5-.7.8l.1-.3c-.5 0-.4-.6.5-.5zm1.1-26.5h-1v-1h1v1zM34 160.7v-.4c.2-.2.4-.4.5-.6h1c-.1.6-.6 1-1.5 1zm3.3 6.2c-.1 0-.1 0 0 0h-.1c0-.6.2-1.3.5-.5h.1l-.5.5zm.4.5c.2-.1.3-.3.5-.5 1 .1 1.1-.6 2.1-.5-.4 1.3-3.8 2.7-2.6 1zm3.6-18.7c.2-.8.5.1 1 0-.1.6-1 .5-1 0zm1.1-18.2c.1-.7 1-.5 1 0-.2.7-.5-.1-1 0zm1 5.7c.6-2.1.6 2.1 0 0zm4.1 24.5c.1.2.2.4.4.6l-.3-.1c-.7 1.5-1.6-.5-.1-.5zm.7-.1c-.1-.2-.2-.4-.4-.6l.2.1c.6-.1.8-.6 1-1 .2-.2.4-.3.6-.6.6-.2 1-.7 2-.5-.6 1.3-1.8 2.2-3.4 2.6zm1.1-2.5c-.1.2-.3.4-.6.6 0 0-.1 0-.1.1v-.1c-1.5.3.8-2 .5-.5h.2zm4-81.7c-1.3-.2 0-2 1-1.6.3 1.2-1 .8-1 1.6zm4.2 88.4c.6-2 .6 2.1 0 0zm3.6-27c-.4-2.1 2.2-1.7 2.1 0h-2.1zm8.8-65.6c.8-1.6 1.6 1.1 2.6 1-.8 1.7-1.6-1-2.6-1zM20.5 88.9c-.5 0-.6-.4-1-.5.5-1.6 2.5-1.6 2.6-3.6h.4c.1.3.2.5.3.7v.2l.2.1c.2.1.3.1.5.1.1 0 .3 0 .4-.1h.1l.1-.1c.1-.1.2-.3.3-.4 3.4-2.2 7.7-3.5 10.7-6.1-.6.1-.3-.8 0 0 6.1-2.7 11.6-6.1 17.2-9.4-1.6-.1.5-2.2 0 0 2.9-.8 4.8-2.5 7.3-3.6-.1-.4-.4-.6-1-.5.9-1.7 1.7-1.3 3.6-1 2.2-2 4.6-2.3 7.8-3.6 1.8-.7 3-2.3 5-2.1l.3.6.3.6-.3-.1c-19.5 8.3-36.8 18.8-54.8 28.8zm55.4-29.8s-.1-.1 0 0c-.2-.4-.3-.7-.5-1l.3.1c.6 0 1-.2 1.4-.4.1.2.2.3.2.5l.3.6-.3-.1c-.7-.1-1.1.1-1.4.3zm3.9 118.2c-1.1.2-1.4-.4-2.1-.5-.2-1.4 1.9-.5 2.1-1.6 1.3.1.2 1.8 0 2.1zm1-154.5c.1-.1.1-.2.1-.3-.1-.3-.2-.5-.3-.8l.3.1c2-2 6-2 8.3-3.6-1.2 3.1-5.8 2.8-8.4 4.6zm2.7 150.3c-1.4-.5.2-2.1 1.6-1.6.1 1.3-1.6.7-1.6 1.6zm3.1 1.6h2.7l-.3.6v.1c-.9.8-2.5 1.4-2.4-.7zm6.8 3.5c-.2 0-.4.1-.6 0v-.1c-.1-.2-.3-.5-.6-.8h.1c.2-.7.6-.9 0-1.6h-2.7l.1-.1c.1-.2.1-.3.2-.4 1.6-.6 3.6-.4 6.6-.5l.2-.1c-.3.5-.5.9-.5 1.2l-.2-.1c.4 2.2-2.4 1-2.6 2.5zm3.6-2.5c0-.1.1-.3.2-.5.6.2.9.7 1.9.5.3.9-2.5.9-2.1 0zm6.5 2.5c-.3-.1-.7.1-.7.5-.3.1-.7.1-1-.1v-.8c-1.1-.2-1-1.4-2.1-1.6 1.6-1.8 5 1.3 6.8-.5l.1-.2c.3.6.4 1.1.4 1.6h-.1v.1c-.4 0-.7.1-1 .3l-.1.1-.1.1c0 .1-.1.2-.1.3-1 .3-1.8.3-2.1.2zm2.7 0c.1-.1.4-.1.6-.1l.1.1h-.7zm4.3-10.3c-.1.2-.3.4-.5.6-.2.3-.2.6 0 .9 0 .4-.2.8-.5 1.1 0-.1-.1-.1-.1-.2v-.8h-.8c.1-.3.2-.6.2-.9.2-.1.3-.3.2-.5-.2-.5-.2-.9-.2-1.5 0-.3-.3-.5-.5-.5-.3 0-.5.2-.5.5 0 .6.1 1 .3 1.7 0 .1 0 .1.1.2 0 .1-.1.3-.1.4-3-1.3-3.9-3.9-6.1-4.9-.1-.2-.3-.4-.5-.7v-.5c2.2.4 1.6-1.9 3.6-1.6 0 1.5 1.2 1.9 2.1 2.6 1.7-.2 1.5-2.3 3.6-2.1v-.1c.2 0 .3.1.5.1l.1.1v.5c1.6.1-.5 2.2 0 0-1.8.9 0 3.2 1 4.2.4 1.3-2.7-.6-1.9 1.4zm3.1-6.7h-.6c0-.1-.1-.2-.2-.3l-.4-.4c-.1-.2-.3-.4-.6-.4h-.3v-1l-.1-.3c.3.2.7.2 1 .3.1 0 .2 0 .2.1h.2c.2 0 .3-.1.3-.3v-.3c2.2-.1 5.1-3 7.2-4.7l-.1-.3c.2.1.4.2.6.2l.6.3c.1 3.1-4.5 1.6-4.7 4.5l.2.1c-.5.3-1.2.8-1.6 1.6l-.1-.1c-.6.2-1.2.5-1.6 1zm3.4.6l.4.4-.2-.1c0 .9-.7.1-.2-.3zm.8-.1c-.2-.2-.4-.4-.6-.5-.1-.1-.3 0-.4.1v-.5c.2-.2.4-.4.6-.5.5.5 1.9.2 1.5 1.5-.4-.1-.8-.1-1.1-.1zm2.1 6.2c-.2-1.7 1.9-.8.5.1v.1c-.2-.1-.3-.2-.5-.2zm-2.8 1l.2.1c.5 0 .6-.4 1-.5l.2-.1c-.2.4-.4.9-.5 1.2-.3-.1-.6-.3-.9-.7zm1.7.9c.1-.3.2-.6.4-1h.1c.2.1.4.1.6.2 0 .2-.1.3-.1.5-.4.1-.5.4-.9.5-.1-.1-.1-.1-.1-.2zm4.2 3.3c-1.4-.1-1.2-1.9-2.1-2.6l-.2-.1.3-.9c1.2.3 2.6.4 3.5 1-.4 1-1.2 1.6-1.5 2.6zm.5-7.2c-.2-1 1.6-2.2-.5-2.1.5-1.5.8-.6 2.1-.5v-1.6h1l-.1-.3c.7.3 1.3.4 1.9.4h.3l.3.6-.3-.1c.1 1.1-.4 1.7-1.6 1.6.1 1 1.8.3 2.1 1-1.2 1.6-2.9-.6-5.2 1zm7.3-3.2h-.1c.3-.3.7-.5 1.1-.7l.1.2h1c.1-.6-.8-.8 0-1 .4.1 1 0 1 .5 2.1.1-.2-.8 1-1.6.8 1 3.7 0 4.6 1 0 .2.1.4.1.6h-.1c-1.6 1.1-5.3 2.2-8.7 1zm12 .6c-2 .8-.2-2.1-1.5-2.1 0-.2-.1-.4-.1-.5h.1c.2-2 .7-.8 1.2 0 0 .1 0 .2.1.3l.2.2.1.1c-1 .9-.1.5-.1 2zm1.5-24c-1.7-1.5 3-1 1-3.1 1.2-.2.6 1.5 1.6 1.6.3 1.6-2.4.4-2.6 1.5zm6.8-1.5c-.5.3-.9.6-1 0 .1-.7 1-.6 1 0zm-3.1 23.4c0-.5.6-.4 1-.5 0 .5-.6.4-1 .5zm3.1 17c.1-.2.3-.3.4 0h-.4zm1-53.4c.1-.7 1-.5 1 0-.4.3-.9.6-1 0zm6.3 11.4c0-.5.6-.4 1-.5 0 .5-.6.4-1 .5zm1-77.5c.2-.6.7-1.1 1.6-1-.3.6-.7 1-1.6 1zm2.6 116c.6-2.1.6 2.1 0 0zm10.3 2.1c-.2-.1-.3-.3-.1-.4.1.1.1.2.1.4zm1.2-.2c-.2.1-.4.2-.5.2-.1-.4-.2-.8-.4-1.1l.4.1c.3 0 .5.3.5.8zm-4.2-145.5c.9.1 1.2.9 1 2.1-.9-.1-1.1-.9-1-2.1zm-.5 77c0 .5-.6.4-1 .5 0-.5.6-.4 1-.5zm-1.1 69.2c.1-1.1 1.4-1 1.6-2.1 1.3.5-.4 2.3-1.6 2.1zm3.2-43.2c1.7 1.4-2.7 1.3 0 0zm61 15.6c-.1-.3-.2-.6-.2-.9.6 0 1.1-.1 1.6-.2v1.2c-.5-.1-.9-.1-1.4-.1zm-9-57.2c.5-.8.8-1.7 2.1-1.6v2.6c-1.7.7-.4-1.6-2.1-1zm1.5 48.9c.6-2 .6 2.1 0 0zm0-3.6c1.8-1.3-1.2 1.7 0 0zm0-56.2c.5 0 .6.4 1 .5 0 .3.1.5.1.8l-.1.1-.1.2c-.8 0-1-.6-.9-1.6zm2.8 2.1c.6.2.4 1.2.4 2h-.6c.1-1-.5-1.1-.5-2h.7zm-1.7 61.9c.6-2.1.6 2 0 0zm1-58.8H227.8c.2.1.4.4-.1.5.1.6-.1 1.5.5 1.6.1-.4 0-1 .5-1h.2c-.1.3-.2.6-.3 1h-.5c0 .5-.4.6-.5 1-1.1-.4-2.1-2.1-1.1-3.1zm4.7-56.2c0-.5.6-.4 1-.5 0 .5-.6.4-1 .5zm.5-6.8h-1v-1h1v1zm-.5 29.7c0 .5-.6.4-1 .5 0-.5.6-.4 1-.5zm0 33.8c-.4-.1-.5-.5-1-.5v-1c1.1-.3 1 .7 1 1.5zm-.9 1.4c.2.2.5.5.9.7-.3-.1-.8-.1-1-.3.1-.1.1-.3.1-.4zm-2.2 51.7c.1-.7 1-.5 1 0-.4.3-.9.6-1 0zm.5-4.7c-.9-.4-.1-.9 0-1.6.9.4.1 1 0 1.6zm-.5 10.4c0-.3.1-.6.5-.5v.5h-.5zm4.1-21.3v-.2c.3.1.7.2 1.1.2l.1.2c-.2.3-.3.5-.3.9 0 .5.2 1 .5 1.5h-.3v4.2c-2.3-.4-.5-4.8-1.1-6.8zm.3-3.1s.1 0 0 0c.3 0 .5-.1.7-.1.1.5.1 1.1.1 1.7v.9c-.2 0-.4-.1-.6-.1-.3-.6-.5-1.3-.4-2.4h.2zm1.8 4.9c-.1-.2-.2-.4-.2-.6v-.2h.2c0 .1.1.1.1.2.1.1 0 .4-.1.6zm-1.5-6.5v.4c-.1 0-.2.1-.3.1-.1 0-.1 0-.2.1v-.2c.1-.2.3-.4.5-.4zm-.6 23.4c-.1.4-.4.6-1 .5.3-.1.6-.3 1-.5zm1.6 3.6c-.5.1-.7.5-.9.9-.3.1-.7.1-1.1.1 0-.3-.1-.5-.2-.8l.6-.9v.1c.7.2 1.5 0 1.6.6zm-3.1-2v.5h.1c-.1.2-.3.4-.4.5h-.3v.2c-.1-.1-.3-.2-.5-.3v-.5c.2-.3.5-.5 1.1-.4zm-1.6-17.2c1.8-1.3-1.2 1.7 0 0zm-.5 3.6c.3-2.1-.4 3.1 0 0zm2.6-40.6c.3 1.7-.4 2.4-.5 3.6h-.1c-.3 0-.6.1-1 .1v-.1h-1c.8-1.2.6-3.4 2.6-3.6zm3.2 14.5c-.4.6-.8 1.2-.7 2.1-.8-.5-1-1.6-.9-3.1-1.2-.2.3 2.4-1.6 1.6v-2c.4-.1.8-.2 1-.4.1-.2.2-.3.1-.5 0-.2-.2-.3-.4-.2-.2 0-.3.2-.2.3-.1.1-.2.1-.5.1-.7-2.2-1-4.7-1-7.6.2 0 .3 0 .5-.1h.2c.5.2.2 1.3.8 1.5.3.5.8.9 1.4 1h.2c.2 0 .4 0 .7-.2l-.1.2c-.7 2.2-.8 4.7 1 5.7.1.6-.1 1-.5 1.6zm-.6-26.4h.9c.2 1 .1 2 .1 3.1 0 .8-.1 1.6 0 2.3v.3c0 .3 0 .6-.1.9-.3-.1-.5-.4-.4-1-1.2-.8-.2-3.9-.5-5.6zm-.5 18.6h-.2c-.4-.1-.9-.5-1.1-.9h.2c.7 0 1.2.1 1.1.9zm-2.6-90.4c1.1.1 1 1.4 2.1 1.6-.3 1.1-.8 1.1-1.6.5v1.6c-2.3-.3-1.3-2.6-.5-3.7zm-1.1 57.7h1v1h-1v-1zm1.1 14.6c-.2.8-.5-.1-1 0 .1-.7 1-.5 1 0zM229.1 54c0 .5-.6.4-1 .5 0-.5.6-.4 1-.5zM227 82.6c-.3 0-.6 0-.8.1 0-.2-.1-.3-.1-.5.4 0 .9 0 .9.4zm-5.2-74.4c.6.4 1.4.7 2.6.5v-.1c.2.1.3.1.5.1-.7 1-1.2 2.2-3.1 2 1.4-1.1-1.3-1.3 0-2.5zm-7.2 131.1c-.3-.8.6-2.7-.5-2.6-.1-.3-.2-.7-.3-1v-.1l.3.1v-1c-.6.1-1.4-.1-1.5.4h-.1c-1.3-1.1 1.2-2.1 1.1-3.5.2 0 .4-.1.5-.1v.1c.9 1.3.7.6 2.6.5-.4 1-.3 3.4-1.6 2.1-.9 2.5 2.6 4.9-.5 5.1zm-4.7 19.3v.5l-.1.3-.1-.1c-.2-.2-.3-.5-.5-.7h.7zm-1.1 1c0 .2-.1.4-.2.5h-.6c-.1-.2-.2-.3-.3-.5h.1c.4 0 .6-.3.9-.5.1.2.2.3.3.5h-.2zm-2 1.1l-.3.1c.2-.2.3-.5.5-.7.1.2.2.3.3.5l-.2.1h-.3zM200 4.6l-.1-.2c.5.1 1 .1 1.6.2.5 1.2-3.5.3-1.5 0zm.4 127.7v.3c0 .2 0 .3-.1.5h-.4c-.6-.2 0-.8.6-1 0 0 0 .1-.1.2zm-.9-15.9c1.7-1.2-1.3 1.8 0 0zm.9 17.7l.1.1c-.1.2-.4.3-.5-.1h.4zm1 .1c-.1-.2-.2-.4-.4-.6 0-.1 0-.2-.1-.2.1-.2.1-.4.1-.7v-.3c.2-.5.9-.2 1.3.1.1.1.1.3.2.5s.2.5.3.8l-.3-.1c-.5 0-.6.4-1 .5h-.1zm1.8-1.5l-.3-.6h.2c.5 0 .6.7.2 1 0-.2 0-.3-.1-.4zm-.1-38.6c.9.1 1.2.9 1 2.1-1.5.5-.9-1.2-1-2.1zm.5-3.2c1.8-1.2-1.2 1.8 0 0zm.6 15.1c1.7-1.2-1.3 1.8 0 0zm4.2-22.3c.2 0 .4.1.5.3-.2.1-.3.1-.5.2v-.5zm1.5 32.7c-.1.7-1 .5-1 0 .2-.7.4.1 1 0zm-1.1-1c.4.3-.2-.2 0 0zm.8 13.5l.5.5-.2.1c-.4.8-1.5.8-1.6 1.9l-.6.3-.6.3.1-.3c0-.7-.7-.7-.5-1.6 1.6.1 1.3-1.5 2.9-1.2zm3.4-24.4c1.3.2 0 2-1 1.6.1-.8.9-.9 1-1.6zm.5-86.9c1.5.1 1.3 2.5-.5 2.1-.2-1.1.4-1.4.5-2.1zm5.7 134l-.3.6h-.1l-.1.1-.2.1c-.1-.1-.2-.1-.3-.2.1-.6.2-1.2 1-1h.1l-.1.4zm-3.6-53.9c.6-2 .6 2.1 0 0zm0-49.9c-.1.9-.8-.1-.1-.5h.2l.3.6-.4-.1zm1 79.2v-.2c0-.5.7-.6 1-.2-.1 0-.2.1-.3.1-.3.1-.5.2-.7.3zm0-1.7c.2-.6.7-1.1 1.6-1-.2.6-.7 1-1.6 1zm-3.6 2.1c0-.3.4-.5.5-.1-.2 0-.3 0-.5.1zm0-8.9v2.1h-1v-2.1h1zm.1 10.1c.2 0 .5-.1.7-.1.4.3 0 1-.2 1.4-.2 0-.4.1-.6.1v-.1h-.5l-.3-.1c.4-.4.7-.8.9-1.2zm-5.1 3.6c.3-.1.6-.3 1-.5l-.1.3c.2 1.2-.9 1.1-.6 2.5-.2.1-.4.2-.6.4l.1-.2v-2.3c.1-.1.1-.2.2-.2zm.9 2.7l-.1.3c0 .3-.4.5-.5.1.2-.2.4-.3.6-.4zm.4 5.2l.1-.3c0-.5.7-.6 1-.2-.4.2-.8.3-1.1.5zm2.3.7c-.1-.3-.2-.6-.3-.8v-.2h.2c.4.1.6.8.1 1zm-6.4-23.8c.6-2.1.6 2 0 0zm.6 31.1c1.1-.5 1.3-1.9 3.3-1.6.1.2.2.4.2.6-1.1.6-2.9 2.9-3.5 1.1v-.1zm4.1-7.5c.3-.1.6-.2.8-.3.1.4.3.8.5 1.2l-.3-.1h-1v-.8zm3.1-4.5v.1h.3c.1.2.1.3.1.5-.4-.1-.9 0-.9-.5.2 0 .4-.1.5-.1zm4.1-8.6c.1 0 .2-.1.4-.1.3-.1.5-.2.8-.3l-.1.3c1.3.2-.5 1.5-1.6 1 0-.5.4-.6.5-.9zm3.2 25.4s0-.1 0 0c0-.3.1-.4.2-.6.4-.1.5-.4.9-.5l.3.1c-.2.4-.6.8-1 .9-.2.1-.3.1-.4.1zm1.5-49.5c0 .5-.6.4-1 .5 0-.5.6-.4 1-.5zm-3.1-88.9c1.8-1.3-1.2 1.7 0 0zm-2.6 31.2v1c.7-.2 1-.7 2.1-.5.5 1.5-1 1-1.9 1 0-.1-.1-.2-.1-.3v-.1-.1h-.1-.6c-.1 0-.2 0-.2.1-.2-.7-.1-1.3.8-1.1zM214 9.3l-.3.1c.1-.2.2-.4.4-.6 1.7-.3.8 1.8-.1.5zm-.5-1.1l.2-.1c-.1.2-.3.4-.4.6-.7.1-1-.5.2-.5zm-.9 23.4c-.1-.2-.3-.4-.4-.6l.2.1c.7-1.5 1.6.5.2.5zm-.8 0c.1.2.2.4.4.6l-.3-.1c-.8.2-1.2-.5-.1-.5zm-.4 96.3v.1c-.1.1-.2.3-.3.4h-.5l-.4-.4.2-.1h1zm-4.6-46.3c.6-2.1.6 2 0 0zm0 1.5c.5 0 .6.4 1 .5V84.4c0 .2.1.3.3.3h.1c.5 0 .9-.2 1.3-.4l-.1.3c-.5.9-1 1.8-2.5 1.6V86c.1-.5.6-.6.5-1.4-.5 0-.6-.4-1-.5-.2-.4.3-.5.4-1zm-1.1-56.7c-.1.7-1 .5-1 0 .2-.7.4.1 1 0zm-.5 59.9c0 .2.1.4.1.5h-.1c0 .3-.1.6-.5.5.1-.1.1-.2.1-.3-.1-.3-.2-.5-.3-.8l.3.1h.4zm-1.2.5c0 .1.1.1.1.2-.2 0-.5.1-.9.3 0-.4.3-.5.8-.5zm-.9-67.1c-.2-.2.4.3 0 0zm-1.5 18.2c.1 2.3-2.1.1 0 0 0-.7.9-.5 1-1 1.4.4-.4 2.2-1 1zm-2.1 69.7c1.7-.5.8 1.6 1 2.6-2.3-.1-.9-.9-1-2.6zm.5 4.7c0 .5-.6.4-1 .5 0-.5.6-.4 1-.5zm-3.1-22.9l-.1-.3c.3.2.5.3.8.3h.1c.1 0 .2 0 .2-.1-.2 1.4-1.4 1.8-2.6 2.1-.4-1.6 1.7-.6 1.6-2zm-1.1 29.6c0-.5.6-.4 1-.5.1.5-.6.4-1 .5zm.6 18.2c.1-.7 1-.5 1 0-.5.4-.9.7-1 0zm.5 15.7h.4v.2c.1.3.1.5.2.8-.1 0-.2 0-.3.1 0-.1 0-.1-.1-.1-.1-.3-.2-.6-.4-1h.2zm-.5-149c0 .6-.5.8-.5-.1.1 0 .3 0 .5.1zm-.3 149.5c.1.2.2.4.2.6 0 .1.1.2.1.2s-.1.1-.1.2-.1.1-.1.2c-.2.1-.5.2-.8.3h-1.1c-.2-1.2.9-1.3 1.8-1.5zM191.2 8.8l.6-.3-.1.3c0 .3-.1.6-.5.5h-.2c.1-.2.1-.3.2-.5zm-.6-.6c0-.3.3-.5.5-.2-.1 0-.2.1-.3.1-.2 0-.3.2-.3.4 0 .1 0 .2-.1.4-.7.5-1.2.4-1.9-.1.2-1.3 1.4-1.2 2.1-.6zm-1.5 28.1c.6-2 .6 2.1 0 0zm-1.6 106.1v.1l-.1.2c-.3.1-.6.2-1 .5l.1-.3c.1-.3.4-.5 1-.5zm-1.6-117c0-.1 0-.1 0 0zm-1.5 99.4c-.1.4 0 .9-.3 1h-.3c.2-.3.4-.7.6-1zm-3.1-101.5c.6-2 .6 2.1 0 0zm.8 105.1l.4.4-.2.1c-.5 2.7-2.1.1-.2-.5zm-.3 11.5c0 .5-.6.4-1 .5 0-.5.6-.4 1-.5zm-.5 23.9c1.7-1.3-1.3 1.7 0 0zm0-26.6l-.4-.1c.1-.3.2-.5.3-.8.1-.2.2-.4.2-.6.5.3.4 1.4-.1 1.5zm-.6-13.5c-.5.3-.9.6-1 0 .1-.6 1-.5 1 0zm0 8.3c1.2.1.3 2.3 0 2.6l.4.1c-.3.4-.5.8-.7 1.3 0 .1 0 .1-.1.2-1.5-.4-.6-4.2.4-4.2zm-2.6-31.2c.6-2 .6 2.1 0 0zm-1-58.2c0-.1.1-.2.1-.3-.1-.3-.2-.5-.3-.8l.3.1c1.6-.5.7 1-.1 1zm-1-27.6c.4.1.5.5 1 .5-.1.4-.5.5-.5 1-.4-.1-.5-.5-1-.5 0-.4.5-.5.5-1zm1.5 109.2c-.3.7-1.1 1-2.1 1-.5-1.5 1.2-.8 2.1-1zm-.9 54.4c.2-.3.7-.3.9 0-.4.1-.7.1-.9 0zm4.1-.9h-.6c0-1.5 1.4-1.7 2.6-2-.1 1.2-1.5 1.2-2 2zm2.2-49.8l-.5-.5.2-.1h.5v-.1c.2 0 .4.1.5.1.1.4-.2.6-.7.6zm2.4-81.2c.6-2 .6 2.1 0 0zm3.1 111.9c.7-2.1.7 2 0 0zm-1.5-15c.2-.1.5-.2.6-.3h.2l.2-.4v-.1-.2c.3-.6 1.9.1 2.5-.2 0 1.1-3 3.4-3.5 1.2zm4.7 12.9c.6-2.1.6 2.1 0 0zm-1.6-112.4c.3-1.3 2-1.2 3.1-1.6-.6 1.1-1.8 2.9-3.1 1.6zm4.2 133.6c-.2-1.6 1.7-.8.6 0h-.6zm2-21.1c.1 0 .3-.1.4-.1 0 .2.1.4.1.7-.1.3-.5.1-.5-.6zm1.6.4c0-.4-.1-.7-.2-1 .4-.1.6-.2.8-.2.1.1.3.1.4.2v1h-1zm1.7-2.6c-.1 0-.2-.1-.3-.1 0-.6-.1-1.2-.2-1.6 0-.1 0-.2-.1-.3 1.3-1.1 3-1.8 4.1-3.1.3 1.1-1.6 4.3-3.5 5.1zm4.6-6.8v.5c-.9.1-.4-1.4 0-.5zm2 12l.2-.1c-.1.2-.3.4-.4.6-1.3 0-.4-2 .2-.5zm1.1 12c.6-2.1.6 2 0 0zm.5-9.9l-.3-.1.4-.4h.6c.1 0 .2 0 .2-.1.2 1-.3 1.2-.9.6zm3.6-3.6l-.1-.3c.3-.1.7-.3 1.1-.7.2 2.2-1 1-1 1zm3.2-13c-1.5 2-2.6 1.6-4.7 2.6.1-.1.1-.1.1-.2 0-.5-.1-.9-.4-1.4l.3.1c.9-.1 1.2-.9 1-2.1.7 0 1.1.2 1.6.5-.5-2.2 1.6-.1 0 0 .5 1.4 1.4-.8 2.1.5.4-1.2 3.2-3.3 3.1-.5-2-.6-1.9 1.8-3.1.5zm1 8.8c.7.1 1.1.8 1-.5h.8c.1 0 .1.1.2.1-.6 1.3 2.3 1.3 2.1.4l.1-.1.1-.1h.4c.2 0 .4 0 .6-.1.5-.1 1-.5 1.3-.9.9-.1 1.3-.7 2.1-1 .1.4.1.8 0 1-2.9 1.1-5.9 4-8.7 3.6v-2.4zm3.3 13.3c-.1-.3-.3-.6-.5-1l.3.1c.5.1.6.8.2.9 0 .1 0 .1 0 0zm-2.3.2v.6c-.6 1.5-1.5-.6 0-.6zm1.1.5v-.7c0-.2.1-.4.3-.4l.3.6c.1.2.2.4.2.6l-.3-.1h-.5zm1.5 3.2c0-.5.6-.4 1-.5.1.4-.6.3-1 .5zm10.4-11.5h-.5c-.6-.4.3-1.4-.5-2.6 1.7-.5.8 1.6 1 2.6zm-.5 1.1h.5c.7.8 1 3.1.5 3.6-1.4-.1-.9-2.2-1-3.6zm1.1 7.8c.6-2.1.6 2 0 0zm-1.1-17.2c-.1 1.3.4 4-1 2.7v-.3c0-.2-.1-.3-.3-.3-.2 0-.3.1-.3.3v.2c-.6-.2-1-.7-1-1.5-.8 0-.4 1.3-1.6 1h-.2c.3-.6.2-1.4-.1-2.2l.3.1v-1.6h1.6c-.2-.7-.6-.9 0-1.6.4.1.6.4.5 1 .7-.3 1-1.1 1-2.1h.2c.2 0 .4 0 .5-.1.1 0 .2.1.2.1.1.6.2 1 .9.9 0 .1 0 .2.1.3 0 .2.1.4.3.5l.3 1.2v.5c-.5.4-.5 1-1.4.9zm2.9 23.8c-.1.1-.1.1-.3.1-.8-.1-.5-1.3-.5-2.1.6.1.8.6 1 1 .1.5 0 .9-.2 1z"/><path class="st135" d="M208.3.4c-.8.3-2.7-.6-2.6.5.8-.2 2.7.7 2.6-.5zM204.2 2c-2.5-1.5-1.3 1.7 0 0zM206.7 2.5c0-.1 0 0 0 0zM192.2 2.5c-.4.1-1 0-1 .5.4-.1 1 0 1-.5zM54.3 24.4c.4-.1 1 0 1-.5-.3.1-1-.1-1 .5zM8.6 32.2h-1c0 .6.9.5 1 0zM3.3 36.8h.5c0-.5-.5-.2-.5 0zM3.3 44.6c-.2-.2.4.4 0 0zM133.9 161.7h-.5c.1.6.5.3.5 0zM97.5 163.8v-1c-.6.1-.5 1 0 1zM97.5 163.8c.3.7.6-.1 0 0zM10.6 175.2c.5-2.1-1.5-.1 0 0zM114.2 174.7c-.1-1.6-2.2.5 0 0zM114.2 174.7c.3.8.6 0 0 0zM114.2 176.3c.5 1.3.5 3 2.1 3.1-.3-1.6-1-2.6-2.1-3.1zM119.4 176.8c-.4-.8-.7 0 0 0zM119.4 176.8c0 .5.6.4 1 .5 0-.5-.6-.4-1-.5zM143.3 177.3c.4.1.5-.2.5-.5-.4-.1-.5.2-.5.5zM101.7 177.8h1c-.1-.6-1-.5-1 0zM143.3 177.3c-2.2-.5-.1 1.6 0 0zM90.2 178.9h-.5c.1.6.5.3.5 0zM113.1 179.4c.4.3-.2-.2 0 0zM15.8 183.5c-.1.4.2.5.5.5.1-.4-.1-.4-.5-.5zM142.5 178.7c-.4 0-.9-.1-1.2-.2-.3-.1-.5-.1-.7-.1-.2 0-.4.2-.4.4s.2.4.4.4c.1 0 .3 0 .4.1.4.1.8.2 1.4.2.2 0 .4-.2.4-.4.1-.2-.1-.4-.3-.4z"/><g><path class="st445" d="M3.3 139.5h42v.8h-42z"/></g><g><path class="st445" d="M191.3 139.5h42v.8h-42z"/></g><g><path class="st445" d="M81.9 53.2v.1-.1zm.2 2c.1 0 .1 0 .1-.1l-.1.1zm42.8-7.3c-.1 0-.1-.1 0-.5 0-.1-.3-.4-.7-.5-.9-.3-1.7-.4-2.5-.4-.7-.1-1 0-1.4.4-.7.1-.9.4-.9.5v.4l.4.1h.1l.1-.1v.3l-.9.1c-.3.1-.4.4-.4.5 0 .3.1.5.5.7 0 .9 0 1.6.1 2.1h.3v2.2c-.4.4-.7.7-.7.8-.4.3-.5.5-.5.7l-1.8.7-.4-.3.1-.1 1.4-.9v-.5h-.4l-.3-.3c-.7-.3-1-.4-1.4-.4-.3 0-.5 0-.7.1l-.3.3v-.5c.4-.1.5-.3.7-.4-.1-.1-.4-.1-.7 0V52h.5c-.1-.1-.1-.4-.1-.7l-1.3-.7v-.4l.3-.3h.5c.1-.1.3-.5.3-.9.4-.4.5-.9.5-1.8.1 0 .3-.1.4-.3v-3.1c-.1 0-.1 0-.3.1l-.1-.1c0-.1.1-.1.3-.1-.1-.1-.1-.1-.1-.3l.3-.1V43c-.4 0-.7 0-.8.1V43l.5-.4h.3v-2.3c0-.1.1-.3.3-.3 0-1.2 0-2 .1-2.1h.3c0-.4 0-1 .1-2v-.8c0-.1.1-.1.4-.3 0-.4.1-.7.3-.8v-.5l.5-.4v-.9c-.1-.1-.3-.4-.3-.5 0-.3.1-.4.3-.5v-.4c-.1 0-.1-.1-.1-.5-.3-.1-.4-.1-.4-.3-.4-.1-.7-.4-.7-.5.1 0 0 0-.7.1l-.4-.3c-.3 0-.4 0-.4.1l-.5.3h-.5c-.1.1-.4.1-.7.3v.3l.3.1v.1c-.4.7-.7 1-.5 1.4-.4.3-.5.5-.5.7 0 .9-.7 2.1-.7 2.6h-.4c0 .5-.3 1.8-.3 2.3-.4.4-.5.7-.5.9-.1.1-.1.3 0 .4l.1.7.1.1c-.1 0-.3.5-.3 1.6-.1.1-.1.4 0 .9 0 .3 0 .5-.1.8.1.1.3.4.3.5.4.3.5.5.5.7-.1.1-.4.1-.5.1 0 1.7-.1 2.6-.3 2.6 0 .1 0 .1.1.3l-.4.5c-.4 1-.5 1.7-.7 1.8l-.8.9-.1 1.7c-.1 0-.3 0-.4.1v.4c-.3.1-.4.3-.4.5h-.3c-.5.9-.3 2-.9 2.9l-.1.7h-.3c-.1.4-.4.5-.7.5v.1l.4.4c-.1.1-.3.1-.4.1l-.1.7c-.1.1-.3.1-.4.1l-.4-.4h-1c-.1-.1-.1-.5-.1-1.2-.1-.1-.3-.1-.4-.1v-2.9c.1-.1.1-.4.1-.7h.3V53c-.1-.1-.1-.1-.3-.1 0-.1.1-.1.3-.1v-.9l-.5-.5c-.1-.4-.1-.5 0-.5v-1.3h-.1c-.1.1-.3.4-.3.5 0 .1.1.1.3.3v.3c-.4.1-.5.5-.5.9-.1-.1-.3-.1-.4-.1 0-.1 0-.3.1-.4h-.3v-.4h.1l.3-.4c0-.3-.1-.4-.3-.5l.1-.1-.3-1 .4-.8V47h.1v-.7c.1-.4.1-.8.1-1.2.1.1.4.1.5 0v-1.3c-.1-.1-.1-.1-.3-.1l-.4.3c-.4-.3-.8-.4-1.2-.4v-.3c.1 0 .3 0 .4.1.1-.1.5-.1 1.2-.1.3-.4.4-.8.4-1 .4-.1.7-.1.8-.1.1.1.3.1.7.1v.4h-.4v-.1h-.4c-.1.1-.1.3 0 .4.1 0 .3.3.5.7-.1 0-.3 0-.4.1l-.3.3c-.1.3-.1.5-.1.7h-.1c-.1.3.1.4.5.5h-.1v.4h.4c0-.1.1-.1.3-.3v-.5c.1 0 .1-.1.1-.3h-.3v-.4c.4-.1.5-.5.5-1-.1-.1 0-.4.3-.5 0-.1-.1-.4-.3-.5.1-.5.3-.9.3-1.2l.1.1v.4h.3c0-.7 0-1.2.1-1.3.1 0 .3 0 .4.1.1-.3.1-.5.1-.7 0-.4-.1-.5-.5-.7v-.3c.1 0 .1 0 .3.1V38h-.3c0-.1.1-.1.5-.3l.1-1 .4-.4c.1-1.8.4-3.1.5-4-.1-.1-.1-.1-.3-.1l.4-.4v-.5c-.3-.4-.4-.5-.4-.4.1-.1.3-.1.4-.1 0-.5-.4-.5-.4-.9h.4v-.1h-.4V29l.3-.1c-.5-.1-.9-.4-1-.7-.4-.1-.8-.3-1.2-.3h-.5l-.8.4-.8.1c-.1.1-.3.1-.4.1-.5.1-.9.3-1 .4-.1-.1-.4-.1-.7 0-.3-.1-.5-.1-.7-.3-.8.3-1.3.5-1.4.7v2.1l.4.3v3.4c.1 0 .3 0 .5.1v.3c-.3 0-.4 0-.5.1 0 .1 0 .1.1.1v.3c-.3.1-.4.1-.4.3 0 .1.1.1.4.1v1.1c.3.1 1 2.2 1 1.8l-.9-.4H99v.5h.1l.1.1h-.1c-.1.1 0 .3.3.7-.1 0-.1 0-.1.1H99c-.1.1-.1.3-.1.5l.1.7c-.1.1-.3.3-.3.4l.1.1v.5c-.1-.1-.3-.1-.4-.1v.3h.4v.1h-.4c-.1.3-.1.5-.3.7-.3 2-.5 2-.5 2.6v.8c-.1 0-.1 0-.3.1-.1-.1-.1-.1-.3-.1v.5h.4c-.1.1-.1.3-.1.5H97c-.3 1.4-.4 2.3-.3 2.7-.1.1-.3.3-.3.7h.1c0 .3-.1.5-.3.7-.3 1.3-.4 1.8-.4 1.4-.4.4-.5.8-.5.9v.7h-.4v.4c-.1.1-.3.5-.4.9-.1.1-.3.1-.3.3-1.2 1.7-.9 2.1-1.3 3.1-.4 0-.4.3-.3.8-.3.1-.4.4-.4.5l-.2.6c0 .4-.1.7-.5.8l-1.2.8H90v-.8c.1-.7.1-1 .1-1.4-.1-.3-.3-.5-.1-.9l.5-.4.1.3h.8l.3-.4c.1-.1.3-.3.3-.4l.4-.1v-.3c-.1 0-.3 0-.4-.1v-1c-.4-.1-.7-.5-.7-.9-.5-.3-.8-.5-.7-.8-.4-.3-.5-.5-.4-.7V55c.1-.1.3-.1.4-.1V54c-.3-.7-.3-1-.1-1.3.1-.3.1-.8 0-1.7h-.3c0-.1 0-.1.1-.3v-.1c-.3-.1-.5-.1-.7-.1v-.1l.1-.1c.1-.3.1-.3-.1-.3-.1.3 0 .7.1 1 .3 0 .4.3.5.7l-.2.4c0 .1 0 .1-.1.3h-.5v-.1H89v-.1l.4-.1v-.9l-.7-.4c0-.1.1-.1.3-.1-.1-.5-.3-.9-.3-1.2v-1.2c0-.3 0-.5-.1-.7.1-.1.3-.1.7-.1v-.1c-.3-.1-.4-.3-.4-.4 0-.1 0-.3.1-.4l.3.1v-.5H89c-.1-.3-.1-.4.3-.4v-.7c0-.1 0-.1.1-.3.1-.7.1-1.2.1-1.4-.1-.7-.1-.9.3-1 .1.4.3-.4.3-2.3.1-.1.3-.4.3-.8l.3-.4h.1c-.1-.1-.1-.1-.1-.3h-.3v-.7c0-.1.1-.1.4-.3l-.4-.4c.4-.4.7-.9.7-1.3h.1v-.5c.4-2.5.8-3.9 1-4.3h.3c0 .4 0 .9.1 1.3-.4.3-.5.5-.5.8V35l-.4.4c-.1.9-.1 1.6-.3 1.7 0 .9 0 1.6.1 2-.4.7-.7 1-.7 1.4 0 .1.1.3.3.4-.1 0-.1 0-.3.1.1.3.5.5.9.7-.3.1-.4.3-.4.4h-.1v-.4h-.4v1.8c0 .3 0 .4.1.5-.1 0-.1 0-.3.1v-.3h-.1l-.3.5.7.1v-.1h.1l-.1.4c.1 0 .1.1-.1.3 0 .3 0 .4.1.5.3-.1.5-.1.7-.1l-.1-.1h-.1c0-.1 0-.1.1-.1-.1-.5-.1-.9 0-1h.1c0 .1 0 .1.1.3v-.9c.1 0 .1-.1.1-.3h-.1c0-.9.3-1.4.7-1.4v-.3h-.3c-.1-.1-.1-.3 0-.4l.3.3c0-.7 0-1-.1-1.2l.3-.5c.1-.4.4-.5.7-.7-.3-.2-.3-.2-.3-.3h-.3c-.1-.3 0-.5.4-.7-.1 0-.4-.1-.5-.3 0-.3.1-.5.3-.7l.5-.5c-.1-.1-.3-.4-.3-.5 0-.1.1-.3.5-.3 0-1.3.3-2.1.8-2.3 0-.7.1-1 .4-1.2V32h-.1l.4-.7c0-.7.1-.9.4-1 0-.1 0-.3-.1-.4l.4-.8v-1l-.5-.5-.5-.4-2.1 1-.7-.5c-.4-.1-.7-.1-.7 0h-.7c-.4.4-.5.5-.5.4-.4 0-.8.1-.9.3H89c-.3-.4-.7-.5-1.2-.7-.1 0-.1 0-.1.1-.3-.1-.5-.3-.7-.3l-1 .9-.3.6.4.5h-.3c-.1.1-.1.4-.1 1l.4.1v.4H86c.1 0 .1.1.1.4-.1 0-.3 0-.3.1s.1.1.3.1v.5l-.4.4.3.5c0 .3 0 .5.1.7v.3c-.3.3-.4.5-.4.7v2.5c-.1.1-.1.4-.1.9-.3.3-.4.5-.4.9h.1c0-.1 0-.1.1-.1 0 .1 0 .3.1.4-.4.4.3.3-.7 1.2-.1.1 0 .3.1.7-.4.1-.1 1.2-.5 1.3-.3.7-.4 1-.5 1.2v.1c-.4.1-.5.4-.5.5s.1.4.4.7h-.1c0 .3 0 .5.1.7v.4c-.4.4-.5.8-.5 1.2l-.3.4c0 1.6-.1 2.3-.3 2.5v.5c.1.1.1.4 0 .8.4.8.5 1.3.4 1.4v.7l-.5.3v.9l.3-.1.1 1.7v-.2c-.1-.3-.1-.4-.3-.4v.7c.1.3.1.5.1.7h.2c0 .1 0 .3-.1.4v.7c.1.1.3.7.3 1.3.1.1.4.1.7 0 0-.1 0-.1.1-.3l.3.3H84v.3l-.4.3c-.1-.1-.1-.1-.3-.1h-.1c.1.1.1.4.1.5h.3c0 .3 0 .4-.1.5v.5h.1v.4c.1.9.3 1.7.3 2.2 0 .1 0 .3-.1.4 0 .1.1.4.5.8-.1.1-.3.3-.3.4.4 0 .8 0 1.2.1.1 0 .5-.1 1.2-.4 0-.1 0-.3.1-.4h.3c.4.8.7 1.2 1 1.2h1.7c.3-.3.7-.4 1.2-.4.1-.1.4-.1.7 0 0-.1 0-.1.1-.3.8-.3 1.4-.8 2-1.6h.3c.1-.4.4-.5.8-.5 0-.3 0-.5.1-.7.1-.5.5-.9.9-1.2.4-1.3.7-2.1.8-2.2l.3-.5.9-.5.1.1v1.8l.4.7-.4.4c0-.1 0 .3.1.9v.8c-.1.1-.1.4-.1.8h.3v.4c.4.1.5.5.5 1 .3.1.4.3.4.5 0 .1-.1.4-.3.7v.4l.3.1v.3h.8l.3.3c.5-.1.9-.3 1.2-.3l.3-.3c.3 0 .5 0 .8.1h.9c0 .1.1.1.3.1h.1v-.3c0-.1.1-.1.3-.1 0 .1 0 .3.1.4h.7c.1-.1.3-.3.7-.4 0-.1.3-.3.7-.7 0-.3.1-.4.3-.5-.1-.1-.1-.1-.1-.3 0-.1.7-1.3.7-2-.1-.4-.1-.7 0-.9 1-.3 1.7-.7 1.8-1.2.3-.9.4-1.3.5-1.4 0-.7 0-1.2.1-1.3h.4c0-.4.5-.8 1.7-1.2h.1l.1.3c-.1 0-.3 0-.4.1v.3c.4.3.5.5.5.7h.1c.4.4.7.5.9.7h.1l.1.3c.4-.1.8-.3 1-.3l.1.1c-.1.1-.4.3-.5.3v.7c.7 0 1 .1 1.2.3.4-.1.8-.3 1.4-.3 0-.1 0-.1.1-.1h.8c0-.1.1-.3.3-.4-.4.1-.1.1.5.1.5-.7 1.3-1.3 2.5-2.1 0-.1.4-.7 1.2-1.6l.7-.5c.1-.4.3-.7.7-.7.1-.1.1-.4.1-.7.4-.3.5-.7.7-1.2l.1-.1c.1-.7.3-.9.3-.8l-.1-.1v-.1l.4-.3v-.1l.1-.1v-.4c.5-.3.7-.7.4-1.3-.1-.4-.1-1-.1-2.1zM83 54.7c-.1-.1-.1-.1-.3-.1v.3c0-.2.2-.2.3-.2zm-.1.5h-.1v.3h.1v-.3zm.2-1.3c-.1.2-.1.2-.1.3v-.3h.1zm.3-.2l.1-.1-.1.1zm0 2.6v-.1h.3v.1h-.3zm.4 1c-.1 0-.1 0-.1.1l-.1-.1h-.1v-.8h.1c-.1.3 0 .6.2.8zm-.2.4c.1.4.1.7-.3.7v-.5l.3-.2zm-.1 8.1h-.1v.1h.1v-.1zm.1-17.6v-.1h.1l-.1.1zm.6 12.1c-.2.2-.2.2-.2.3v-.3h.2zm0 1.5c-.2.1-.2.1-.2.2v-.3h.2zm.7-25v.2l.1-.1h-.1zm.7 1.6c-.1.1-.1.1-.3.1v-.1h.3zm.6-1.7h.1v.3l-.1-.3zm1.6 2.8c-.1.1-.3.9-.3 2.2-.1 0-.3 0-.4.1.3.1.4.4.4.5h-.3c-.5-.3-.8-.5-.9-.7l.5-.8v-.7c-.1-.1-.1-.1-.1-.3v-.1h.3c0-.1 0-.1.1-.1-.1-.1-.1-.4 0-.5 0-.4 0-.8.1-.9-.1-.1-.1-.4-.1-.5 0-.4.1-.5.4-.4v.9c.1.4.1.7.3.8-.1 0-.1 0-.1.1 0 .2 0 .2.1.4zm-1-5.4c-.1 0-.1 0-.1.1-.1 0-.1 0-.1-.1h.2zm-.3 8.7v-.3h.1v.3h-.1zm.7.6c-.1.1-.1.1-.3.1v-.1c0-.1 0-.1.1-.1l.2.1zm.7 16.9c-.1 0-.4 0-.5.1l-.1-.1c0-.1.1-.3.3-.4 0 .1 0 .1.1.1l.3-.1v.4zm.8-26.2c-.1 0-.3 0-.4.1l-.3-.5c0-.1.1-.3.5-.3.1.3.1.6.2.7zm1.2 18.3c-.1-.1-.1-.3-.1-.4-.1-.1-.3 0-.3.4h.4zm-.1-3.9h-.1v.3l.3-.1-.2-.2zm0 .3c-.1.3-.1.5-.1.7.3-.1.4-.1.4-.3-.1-.1-.2-.2-.3-.4zm.6 4.5v-.4H90v-.3h-.4v.7l.5-.4.3.4zm-.4.6c0 .1 0 .3-.1.3h-.3v-.3h.4zm1.3-4.4c-.3 0-.4-.3-.3-.7l-.1-.1c.1 0 .3 0 .4.1-.1-.4-.1-.8-.1-1 .1-.3.1-.7.1-1h-.5c-.3.4-.4.8-.4 1-.4-.3-.5-.4-.5-.4h-.1l.1.3v.3c.1.1.4.1.5.1v.1c-.1 0-.3 0-.4.1 0 .1 0 .3.1.3H90v.3c.1-.1.3-.1.4-.1h.3l-.1.1c-.1.4 0 .7.3.8-.3.1-.4.4-.3.7l.8-.5v-.4zm-.4-3.8c-.1-.1-.1-.4-.1-.5h-.5c-.1.1-.1.3-.1.5h.3c-.1.3-.3.5-.1.7h.3v-.3h.1c0 .1 0 .3.1.4 0-.1 0-.1.1-.1v-.7zm-.5 1.1c-.1-.1-.1-.1-.3-.1 0 .3 0 .5.1.7.2-.3.2-.4.2-.6zm.3-2h-.4c0 .1 0 .1.1.3h.3v-.3zm.5 5.7c-.1 0-.3 0-.3.1l.1.1.1-.1v-.1zm.1-7.1c-.1 0-.1 0 0-.1h.1l-.1.1zm.6 2.7c-.2-.1-.3-.1-.4-.1 0 .1 0 .3.1.4-.1 0-.1.1-.1.4.2-.2.4-.3.4-.7zm.2-8c0 .1 0 .4-.1.5h-.3c0-.4.1-.7.3-.8.1.1.3.1.4.1v.1h-.3zm0-9.2c0-.1 0-.3.1-.4v.3l-.1.1zm0 8.3l.3-.3c.1 0 .1.1.3.3h-.6zm.4-2.8V34h.1c0 .1 0 .3.1.4h-.2zm.3 2.1l.1-.1-.1.1zm.6-2.1v-.3h.1v.3h-.1zm.3-1.3v-.3h.1v.3h-.1zm0 4.7v.1l.1-.1h-.1zm.4-5.5c0-.1 0-.1.1-.1v.1h-.1zm3.2 13.4h-.1v.3h.1v-.3zm0 .9h-.1c0 .1 0 .1.1.1v-.1zm.2 2.8l.1-.1v.1h-.1zm.6-4.6c-.1-.1-.1-.1-.3-.1v.3h.2l.1-.2zm.5-4.8c-.1.1-.1.1 0 .3.1 0 .1-.1.1-.3h-.1zm.4-3.7v.5c.1-.1.1-.3.1-.5H99zm.3 5.4l-.1-.3h.4v.3h-.3zm.1-6.6l-.1.1v.1h.1v-.2zm.2 5.7v-.1c0 .1.1.1.3.1h-.3zm.5-6.3c0 .1 0 .3-.1.3s-.1-.1-.1-.3h.2zm-.2 0v-.3l.1.1-.1.2zm0 3.8v-.1l.1.1h-.1zm.2-2.9v-.1h.1v.1h-.1zm1.5 2.2l.4-.1-.1-.1c-.3 0-.4 0-.5.1.1.3.3.5.3.7-.1 0-.3 0-.4-.1v.1l.3.4h.1c0 .1 0 .1.1.3-.1 0-.3.4-.4 1.3-.1 0-.4.1-.5.3v1.4c-.1.3-.1.5-.3.7v.3c-.1-.1-.3-.1-.4-.1-.1-.5-.1-.9 0-1 0-1.7 0-2.5.1-2.2l.1-1.2c.1-.1.3-.5.4-1.2v-.5c0-1.2.3-1.7.7-1.7l.4.5c-.1.1-.3.4-.3.7 0 .1.1.3.3.4 0 .5 0 .9.1 1v.3h-.4zm-.5-2.8l-.1-.1h.3l-.2.1zm1.1 14.4c-.1.3-.1.4-.1.5-.3-.3-.4-.5-.3-.7.1.1.2.1.4.2zm.5-1.9c.1.1.1.3.1.5.4-.1.4-.3.3-.5h-.4zm.1 5.9V53h.3v.1h-.3zm.8-4.2c-.1-.4-.1-.7-.1-.8-.3 0-.3.1-.1.4-.1.1-.1.3-.1.7 0 .1 0 .1.1.1-.1-.3.1-.4.2-.4zm.4-.9c-.3-.1-.5-.1-.7 0v.1c.1 0 .3 0 .4.1l.3-.2zm-.5-8.3l.1-.1v.1h-.1zm.5 6.6h-.4c-.1.4-.1.7-.1.9h.1l.1.5c.1 0 .3 0 .4-.1l-.1-1.3zm-.4-.7v.1h.1l-.1-.1zm2.5-6.6c0 .5-.3.7-.8.5 0-.1 0-.4-.1-.7-.1 0-.3 0-.3.1s.1.5.5.9c-.1.1-.1.3 0 .7l-.4-.3-.5.3.1.1c0 .1 0 .5-.1.9-.1 0-.3 0-.4.1v.1h-.1c-.1-.1-.1-.4-.1-.8 0-.3 0-.5.1-.8l-.1-.5c.1-.3.3-.5.3-.8h-.2c0-.4.1-.8.5-.9 0-.1.1-.5.3-.9v-.7c.4-.3.5-.5.4-.9 0-.1.1-.1.3-.1V37c-.1 0-.3.3-.3.8-.1.1-.1.3-.1.4.1.1.4.3.5.3-.1.3-.3.5-.1.7.1-.3.3-.3.6-.1zm-1.6 6.4h-.1c-.1.1-.1.1-.1.3-.1-.1-.3-.1-.4-.1 0 .4.1.7.5.7h.1v-.9zm0-1.1c-.1 0-.3.1-.3.3-.1-.1-.1-.3-.1-.4.2 0 .3 0 .4.1zm0 2c-.1.1-.3.1-.3.3 0 .1 0 .1.1.1h.1v-.4zm0-7.5c-.1 0-.3 0-.1.1h.1v-.1zm.5 1.3c-.1 0-.1 0-.1-.1v.3l.1-.2zm.6-5.3c0 .3-.1.4-.3.5l-.1-.1c.1-.4.1-.7.1-.8.1 0 .3.1.3.4zm.3 29.2v-.3c0 .1 0 .1.1.3h-.1zm.4-29.7c0-.1 0-.3.1-.3h.3v.3h-.4zm.3-4.7c0-.1 0-.1.1-.3v.3h-.1zm0 5.6v-.1h.1v.1h-.1zm.5 21.9v-.1h.1v.1h-.1zm1.2-22.3c-.1 0-.1 0-.1-.1 0 .1 0 .1.1.1zm.5 25.6v.3c0-.1 0-.1.1-.3h-.1zm2.1-11.4v-.4h.1v.4h-.1zm.7-4.2c-.1.1-.1.1-.3.1v-.3h.1l.2.2zm-.3 2.5l.1-.1-.1.1zm2.7-15.8v-.1h.1v.1h-.1zm2 27.7c-.1.1-.1.3-.1.4-.3-.1-.7-.1-1 0-.1 0-.3 0-.3-.1l.1-.5c.4.1.8.1 1.2.1l.1-.4c.4 0 .5.1.5.4l-.5.1zm-1.3-15.9v-.1c.1 0 .3 0 .4.1h-.4zm.5 4.5c-.1.1-.1.1-.3.1-.1-.1-.3-.3-.3-.4h.5v.3zm0-1.1c-.1 0-.3 0-.3.1v.4c-.1-.1-.1-.3-.1-.7.2 0 .3 0 .4.2zm-.1-2.4v-.1l.3.1h-.3zm.1 8h-.1v.1h.1v-.1zm.7-10.2c-.1-.1-.1-.1-.3-.1v.1h.3zm-.3 14V56h.1l-.1.2zm3 2.3c-.1.1-.1.1-.1.3v-.3h.1zm2.7-3v-.3h.1v.3h-.1zm1.5-4c-.1-.1-.1-.3-.1-.4l.1.1v.3z"/><path class="st445" d="M149.7 48.6l-.1 1.4-.1.1c-.1.1-.3.9-.3 2.1-.1.1-.1.7-.3 1.4-.1.1-.1.3-.1.4h.1c0 .1 0 .1.1.3l-.4.1.3.5-.4 1.2v.7c-.1.3-.3.5-.7.8v.9c-.4.4-.8 1.2-1.4 2.3 0 .1-.1.1-.3.3 0 .4-.3 1-.8 2v.5l-.4.3v.3l-.9.8v.3c-.3.1-.4.4-.5.8-.9.4-.9.3-2.5 1.3-.3.1-.8.3-1.4.3l-.3.3h-.9c-.3-.1-.7-.1-1.3.1-.1 0-.4 0-.8.1-.1-.1-.7-.1-1.4-.3-.1-.1-.7-.3-1.3-.4-.3 0-.7-.1-1-.3h-.6c-.1-.1-.4-.3-.9-.4-.1 0-.3 0-.4-.1l-.7-.3c-.4-.1-1.3-.5-3.4-1.6h-.1c-1.6-.5-2-2.2-2.6-2.2v-.8c-.1-.1-.3-.4-.7-.7v-.5h-.4c-.1-.3-.1-.5-.1-.8 0-.1 0-.4.1-.7 0-.1-.1-.3-.3-.5 0-.7 0-2-.1-3.9 0-.1-.1-.1-.3-.3v-.3h.1c0-.5-.7-2.1-.7-3s0-1.4.1-1.8c0-.4 0-.4 0 0-.1 0-.1-.1-.1-.3l.1-.1c0-.8.1-1.2.3-1.3v-.1c-.1-.1-.1-.4-.1-.7 0-.3.1-.5.3-.9-.1-.3-.1-.8 0-1.6.1-.1.3-.7.4-1.6v-2.3h.1l.4-.5c.1-.3.3-.7.1-1.2.1-.1.3-.5.3-1.2.4-.1.5-.5.4-.9-.1 0-.1-.1-.1-.3.1-.3.1-.8.1-1.6.4-.1.5-.5.5-1.2.1-.1.1-.4.3-.8l.8-.7h.5l.4-.7c.7-.4 1-.9 1.4-1.3l.4-.1c.4-.1.9-.7 1.3-1.3 1.2-.4 1.3-.5 1.8-1 .1 0 .4 0 .8-.1 0-.1 0-.1.1-.3.7-.1.9-.3.8-.3h.1c.1-.4.5-.7 1-.7 0 .1.1.1.4.1.4-.1.8-.5 1.2-.9h.7l.7.5c.7-.1.5.4 1 .4l.1-.1h2c.3.3.7.4 1 .4l.4.4c.7 0 1 .4 1.3 1 .5.3.9.7 1.2 1.3l.4.3.5.3c.1.1.3.4.3.9.4.4.7.8.7 1l.5.7v.7c.1.3.4.7.8 1 0 .4.1.7.4.8 0 .1 0 .3.1.4v1.2c-.1 0-.1.1-.1.3h.1V38l-.4.7c.1.1.1.3.1.4-.3.1-.4.5-.4.9-.5.1-.8.5-.8 1l-2 2c-.4.4-.7.7-1 .8v.7c-.4.1-.7.4-.8.7h-.3c0 .3-.1.4-.3.5-.1.4-.3.7-.4.5l-.1.3-1 .8v.3c-.7.3-.9.7-.9 1-.7.4-1.4.9-2.3 1.8-.1 0-.4 0-.8.1 0 .4-.1.5-.5.4h-.5c0 .1 0 .1-.1.1l-.8.3c-.5.1-.8.3-.9.3-.4-.1-.7-.3-.8-.3s-.3 0-.3.1 0 .1.1.1v3.3c.1.1.3.3.3.7.1 0 .1.1 0 .5.1.1.3.5.3.9-.1.1-.3.4-.3.5 0 .3.1.5.3.7.1.5.1.9.1 1.3l.4.3c.4.1.7.3.7.4-.1 0-.3 0-.4.1 0 .4.3.7.7.8 0 .1 0 .1.1.3.9.1 1.3.1 1 .3v-.3c.3 0 .4.1.5.3l.3-.4c.7 0 1-.1 1.2-.3h.4l.5-.3c.1-.1.3-.1.3-.3.4-.1.9-.7 1.3-1.3l.8-.8c.1-.1.3-.1.5-.1 0 .3.3 0 .8-.8l.5-.7c.1-.1.7-.5.8-.9-.1 0 0-.4.7-1.2l.5-1 .5-.5v-.7c.3-.1.4-.1.4-.3 0-.7.3-1.4.8-2.3l-.1-.3h-.3v-.5h.4c0-.1.1-.4.3-.8.1-.1.3-.1.4-.1v-.3c.4-.1.5-.1.7-.1v-.3h.5c0-.1-.1-.3-.3-.4v-.5c.9-.1 1.6.1 2 .7 0 .1.1.1.3.3l-.7 1.2zm-25.5-11v.4c0 .1 0 .1-.1.1v.1c.1 0 .1 0 .1.1 0-.1 0-.4.1-.8h-.1zm.5 19.1c0 .1 0 .1-.1.1.1.1.1.3.1.4.1-.1.1-.3.1-.4l-.1-.1zm0-4.1v.1h.3c.1.3.1.5.1.7.1-.1.1-.1.3-.1-.1-.1-.1-.1-.1-.3.3-.1.4-.3.4-.4h-1zm.8-19.3v-.1h-.1v.1h.1zm.1 23.1c.1-.3.1-.5 0-.9h-.3c0 .1 0 .3.1.4-.1.1-.1.3-.1.5h.3zm0-17.1c-.1.4-.3.5-.1.7.1 0 .3 0 .4-.1.1-.4 0-.6-.3-.6zm1.4 4.5v-.3h-.5c0-.1 0-.1-.1-.3-.4-.1-.5-.3-.7-.4-.1.9 0 1.4.4 1.7.3-.3.4-.5.4-.8h.5zm-1.4 12.9c0 .3 0 .4.1.3l-.1-.3zm1 3.9c0-.1 0-.3-.1-.4h-.3v.1c0 .1 0 .1.1.3h.3zm0-25.8c.1.1.1.1.1.3 0-.1 0-.1.1-.3h-.2zm1.8 28.3v-.3h-.1v.3h.1zM131 40h-.3c0 .1.1.4.3.5l-.5.4-.1.3c.1.1.1.1.3.1v.4c-.1 0-.3 0-.3.1-.1.7-.1 1-.1 1.4h-.1c0 .1.1.4.3.7h.3c-.1-.1-.1-.3-.1-.4.1-.4.1-.8.3-.9h.1c0-1.2.1-2 .4-2.2l-.5-.4zm-.9 4.3v.8c.3-.1.3-.4.1-.8h-.1zm2.1-16.3c-.1 0-.3 0-.4.1v.4h.1c.1-.1.1-.1.3-.1V28zm0 23.5l-.1-.1.1.1zm0 3.3v-.7h-.2v.7h.2zm.4 2v-.1c-.1.1-.1.1-.3.1h.3zm.5-27.4c-.1 0-.3.1-.4.3v.3c.3 0 .4 0 .5-.1-.1-.2-.1-.4-.1-.5zm-.4 11.7v.1c.1 0 .1 0 .3-.1h-.3zm8.9-3.1v-1.8c-.1-.1-.3-.1-.4-.1l.4-.3c0 .1-.3-.8-.8-2.9l-.8-1.8h-.1c-.1-.4-.1-.5-.1-.7-.7-.3-1.2-.5-1.4-.8-.8.1-1.2.4-1.2.8-.3.1-.5.1-.7.1 0 .4-.1.5-.4.5-.1.3-.1.5-.1.7l-.4 1.7c-.4.8-.7 1.4-.8 2.1-.1.4 0 .5.1.7l-.1.1c-.1.4-.1.7-.3.7-.1.7-.4 1-.5 1 0 .4.3.7.3.8-.1.1-.1.1-.3.1v1l-.3.7c-.1 1-.3 2.2-.5 3.5v1.3c-.1.1-.1.4-.3.8-.1.4 0 .7.1.8 0 .1 0 .3-.1.5v.3c.4-.1.8-.3 1-.7.1-.1.4-.1.7-.1v-.1h.4c.1-.4.5-.7.9-.8.1-.4.5-.7 1.2-.7v-.3l.8-.4c1.6-.4 2.1-.5 1.6-.5.3-.5.5-.8.7-.9V43h-.3c.1-.5.4-.8.5-.8 0 .4 0 .3-.1-.4l.4-.3c.1-.7.1-.9.3-1-.1-.1-.1-.3-.1-.5h.1c0-.7 0-1 .1-1 .1-.1.1-.3 0-.4.1-.1.1-.1.3-.1V38h.2zm-7.2-9.2c-.4.1-.5.3-.7.5l-.4.1c-.1.5 0 .9.3 1 .1-.1.3-.1.4-.1v-.7c.1-.1.3-.1.4-.1.1-.5.3-.9.3-1-.2 0-.2.1-.3.3zm-.9 10.7h-.1c.1 0 .1 0 .1.1v-.1zm.9 20.8h-.1v-.1h.1v.1zm1.2-33.6v-.1h-.1v.3l.1-.2zm1.7 19.4c-.1.1-.1.1-.1.3h-.4c0 .4-.3.7-.7.8-.1.1-.1.3-.1.5.4-.1.5-.4.5-.5.4-.1.8-.3 1-.7-.1-.1-.2-.3-.2-.4zm.1-19.3h-.1c.1 0 .1 0 .1.1v-.1zm0 24.1l-.1-.1h.1v.1zm1.4-.6l-.1.1-.1-.1h.2zm0 16.9l-.1-.1v.1h.1zm.5-22.1c-.1-.1-.3-.1-.4-.1-.1.1-.1.3-.1.5.1-.1.3-.1.5-.1v-.3zm6.8 12.4V57h-.3l-1.6 1.6c.3.3 0 .7-.7 1 .1.1.1.3.1.4l-.4.3c0 .1 0 .3.1.4-.4.7-.9.9-1.4.9l-.3.4-.9.3c-.4.3-.9.7-1.6 1.3h-.1c-.1.1 0 .3.1.4.1 0 .4-.1.9-.3l.5-.1c.1-.4.3-.5.4-.7l.4-.4c.8-.1 1.3 0 1.4.4l.3-.4.3-.3c.4-.4.5-.8.5-1.2h.1c.4-1.4.9-2.5 1.8-3.1 0-.1 0-.3.1-.4h.3zm-5.5 8.8c0-.4-.1-.9-.3-1.4h-.3v.1c.1.7.1 1 .1 1.3h.5zm.4-30.9h-.4v-.1h.4v.1zm-.2 3.8l-.1.1V39h.1v.2zm1.7 26.7c-.3-.1-.4-.1-.5 0v.3h.4l.1-.3zm.8-.2l-.1-.1-.1.1h.2zm1.5-23.9c0-.1 0-.1-.1-.1l-.1.1h.2zm.2 13.6c-.1-.1-.1-.1-.3-.1v.1h.3zm0-14.4h-.1c0 .1 0 .1.1.3V41zm.7-9.2h-.1c-.1.3-.3.4-.3.5l-.1.1c.1 0 .4 0 .5-.1v-.5zm0 8.8v-.1l-.1.1h.1zm0 13.2v-.3h-.1v.3h.1zm.6 2c-.1.1-.3.4-.3.8.3 0 .5-.3.7-.7-.2-.1-.3-.1-.4-.1zm0-22.5v.1c.1 0 .1 0 .1-.1h-.1zm.5 18.8c.1-.3.1-.4 0-.5v.5zm.5-18l-.1.3v-.3h.1zm0 1.2h-.1v.1l.1-.1zm0 15h-.1v.3l.1-.3zm.7-3.2l-.1.1v-.1h.1zm.6 5.7v-.3h-.3c0 .1 0 .1.1.3h.2zm0-5c0 .1 0 .1.1.1l-.1-.1zm.4 2.6h-.1c0 .1 0 .4.1.7v-.7zm.5-2.7l.1.1c0-.1 0-.1.1-.1h-.2z"/></g><g><path class="st445" d="M64.5 92.9l-.1.9c-.3.1-.4.4-.5.9h-.1l-.2.4c-.1.1-.1.5-.2 1.2-.1.1-.3.4-.4.7v.5c-.4.3-.6.7-.6 1.2-.3.3-.5.5-.5.8h-.3l-.1-.1c-.1.1-.1.1-.2.1 0 .9-1 1.4-.7 1.9-.1.1-.1.3-.1.4h-.2c0-.1 0-.2-.1-.2 0 .1 0 .2-.1.3.1.1.1.3 0 .6s-.3.5-.4.6-.2.4-.3.7c-.3 0-.4.1-.5.4-.4.1-.8.4-1.3.9-.5.3-1.2.7-1.5.8l-.7.2c0 .2-.1.3-.2.4-.3 0-.5.1-.6.3l-.7.2-1.1-.2h-.1c-.1 0-.2 0-.3.1-.1 0-.1 0-.1-.1-.3 0-.7 0-1-.1v-.1H51c-.1-.2-.2-.4-.5-.6l-.1-.7c-.3-.2-.5-.4-.6-.7-.5 0-.5-1.1-.6-1.2v-.2h-.3c0 .2-.2.5-.6.9H48c-.1.1-.2.4-.5.7v.2c-.1.1-.1.2-.1.4-.3.1-.5.4-.5.8.4 0 0 .2-1.2.6l-.9.4h-.4c-.2.1-.6.2-1.3.2l-.1-.1c-.2.1-.6.1-1.3.1-.1-.1-.6-.3-.9-.6-.3.1-.5 0-.8-.2-.3 0-.4-.2-.5-.5.1 0-.3-.3-1.4-.9v-.5l-.5-.6h-.3v-.4c-.3 0-.6-.2-1-.5v-.3l.2-.1c0-.4-.1-.9-.4-1.5 0-.2 0-.3.1-.4l-.1-.3c-.1 0-.2 0-.3-.1v-.4c.1-.1 0-.3-.1-.6 0-.1 0-.3.1-.5.1 0 .1-.1.1-.2s0-.3-.1-.5v-.7c0-.2 0-.6-.1-1.2 0-.3.1-.8.4-1.3.1-.4.1-1 .2-1.7l.1-.1c-.1-.1-.1-.3 0-.6h-.1l.4-1.4c0-.1 0-.5.1-1.1 0-.2.2-.6.5-1.2 0-.2.2-.5.5-.9v-.7l.5-.5c.2-.2.4-.6.6-1.1.1-.1.2-.4.3-1.1.3-.1.5-.4.5-.8h.3v-.2c0-.2.2-.4.5-.7 0-.1.2-.3.5-.4 0-.1.1-.3.3-.5-.1-.1-.1-.2-.1-.3.1-.1.2-.1.3-.1h.1c.3-.1.4-.3.5-.7.1 0 .1 0 .2.1.1-.3.3-.6.8-1l1.1-1c.1-.2.3-.4.7-.6l1.5-.5c.1 0 .3.1.5.3.5-.1.8 0 .9.1l.2-.4c.2 0 .4.1.5.3l.4-.1.3.3c.5 0 .8.3 1.1.8.1 0 .3 0 .4.1l.2-.2c0-.1 0-.1-.1-.1.1-.1.3-.2.5-.1.1-.3.1-.6.1-.9l.1-.1c-.1-.1-.1-.2-.1-.3l2.3-.7.9-.2c.3-.1.6-.2 1-.2 0-.2.5-.4 1.5-.5.1-.1.2-.1.5 0 .1-.1.4-.1.9-.2v-.1h.9v.2c.1 0 .2 0 .4.1v1.2h-.2c0 .3-.4.8-.4.9-.3.5-.6 1.3-1 2.6-.2.2-.3.4-.3.5s0 .2.1.3c-.1.1-.2.2-.3.2 0 .3 0 .8-.1 1.3-.1.1-.1.4-.1.8-.5.1-.2.7-.5 1v.6h.4c.1.1.2.4.3.7l-.3.8c-.2 0-.3.2-.3.6 0 .2 0 .4.1.5l-.4.7.1.2c-.1.1-.2.4-.3.9v.6c.1.2-.1.6-.4 1.2v.8l-.3.6c.1.1.1.1.1.2l-.1.1c.1 0 .1.1.2.2v.4c-.1.1-.2.6-.4 1.7-.2.7-.3 1.3-.3 1.8-.1.3-.1.5-.1.6 0 .3.1.4.3.5 0 .2.2.3.5.4v.1c-.3.1-.5.8-.5 2.3l.1.1.5-.5c0-.1.1-.2.3-.3v-.3l.4-.3.2-.3.5-.6c.1-.2.1-.4.1-.5h.2c.1-.2.3-.3.6-.4 0 .3.2-.1.6-1.1v-.1c.1.1.1.1.2.1l.3-.7c.1-.1.1-.1.2-.1 0-.3.1-.7.2-1.2 0-.8 0-1.4.1-1.8l.1-.1c-.2-.2-.3-.6-.3-1.1.1 0 .4-.1.7-.4l.4-.4h.4c.1-.1.5-.2 1.4-.2.3-.1-.1-1.3.6-1.3.1.3.2.5.2.8-.1.1-.1.2-.1.4.1.1.3.1.6.2h.2c.1.1.3.2.5.2v.3h-.1v.2h.1c0 .1 0 .3.1.5l-.4.4zm-26.8 6.8c0-.1 0-.1-.1-.2v.2h.1zm0 3.9c-.1 0-.1 0-.1-.1v.2l.1-.1zm1.7-16.5v-.2h-.2v.2h.2zm1.2-3.4h-.1v.1l.1-.1zm1 13.5v.1c.1 0 .2 0 .2-.1h-.2zm9.7-12.9c0-.3-.2-.5-.5-.5-.2-.1-.3-.1-.3 0h-.2v-.2c-.5-.3-.7-.5-.7-.6-.2-.3-.4-.4-.6-.4v-.3h.1l-.4-.6c-.3 0-.7-.2-.8-.2v-.3h-.6c-.2.1-.3.3-.4.4 0 .4 0 .6-.1.7h-.2c-.2.1-.3.3-.3.7H46l-.3.6c-.1 0-.2 0-.3.1v.2c.1 0 .3 0 .5.1 0 .3-.1.6-.2.7-.6.1-.9.3-.9.8 0 .1 0 .1.1.1l-.5.9c-.1.5-.2.8-.3.9l-.1.7c-.1.1-.1.4-.1.8l-.3.2.1.1c-.1.1-.1.1-.2.1.1.1.1.2.1.3-.1.1-.1.1-.2.1-.1.5-.2.7-.3.7v.1h.1v.3l-.4.9v.4h-.2c0 .3-.1.4-.2.4.3.5.5.7.5.8-.1.1-.1.1-.1.2-.3.2-.4.6-.3 1.2 0 .3 0 .5.1.7v.1l-.1.1v.8c-.1.3-.2.5-.2.6H42v.2h.3v.3H42c-.1.1-.1.3 0 .5h.1v.2H42c-.1.2 0 .4.1.5-.1.3-.2.7-.1 1.2h.1v-.1c.1 0 .2.2.3.7-.1.1-.1.1-.1.2.1 0 .4.7.5.7 0 .1 0 .2-.1.3h.1l.2.3c0 .1 0 .1.1.2l.2.2c.3.5.8.8 1.6.8v.3c.4-.1.7-.2.9-.2.6-.1.9-.3 1-.6.1 0 .2-.1.3-.2l-.1-.1c.1-.3.3-.6.6-.7-.1-.1-.1-.1-.1-.2s.1-.3.3-.4v-.4c.3-.3.5-.7.8-1.2-.1-.1-.2-.2-.2-.3.1-.1.2-.2.4-.2.1-.3.3-.7.6-1h.2c-.1-.3-.1-.6.1-.7v-1c-.1-.1-.1-.3 0-.5-.1.1-.3.1-.5.1v-.1h-.4c0-.1 0-.1-.1-.2 0-.6.2-1.4.5-2.4-.1-.3-.1-.4-.1-.5 0-.3 0-.9.1-1.6.1-.1.1-.3 0-.6.2-.3.3-.5.3-.6-.1-.7 0-1.1.2-1.2v-.9l.3-.2c-.1-.1-.1-.2 0-.3 0-.3.2-1.1.2-1.4-.2 0 .1-.3.8-.8v-.3.2h-.1c-.1-.3-.1-.5-.1-.6h.5zm-8.5 10c0 .1 0 .1-.1.2v-.2h.1zm.3-9.8c-.2.2-.2.4-.1.5h.1c.1-.1.1-.3.2-.5h-.2zm.9 2.2v-.2h-.1v.2h.1zm.9 18.7v-.3c-.3 0-.6 0-.9.1.1.2.1.3.1.4l.8-.2zm.3 1.1v-.1l-.1.1v.1l.1-.1zm1-4.1l-.1.1v-.1h.1zm.3-24c-.1 0-.1 0-.1.1v.2c0-.1 0-.1.1-.1v-.2zm1.2 5.6c-.1 0-.1 0-.1.1V84l.1-.1v.1zm0 15.7l-.1.1v-.1h.1zm.5-18.6V81c-.1 0-.1 0-.2.1h.2zm-.1 21.1v-.1c-.1 0-.1 0-.1.1h.1zm.5-20.7v-.2h-.1v.2h.1zm0 21.4h-.1v.1l.1-.1zm.8-23.9v-.2h-.1v.2h.1zm.7 3.8H50v.1l.1-.1zm.1 5.1c0-.1 0-.1-.1-.2H50v.2h.2zm.4 18v-.1l-.2.1h.2zm1.1-25.5c0-.2-.1-.3-.2-.4h-.4l.5.4h.1zm-.3 12.3c-.1.3-.1.5 0 .7.3-.1.3-.3.2-.6-.1-.1-.1-.1-.2-.1zm.2-11.5v-.3c-.1.1-.1.2-.1.3h.1zm.8 5.1v-.1h-.1v.2l.1-.1zm.3-.2v-.2c-.1.1-.1.1-.2.1v.1h.2zm.7 15.9c-.1-.3-.1-.5-.2-.6l-.3-.2c-.1.1-.1.1-.2.1.1.9.1 1.5.2 1.6v.1c.2 0 .3-.3.4-.9.1-.1.2-.1.3-.1h-.2zm-.2 1.5c-.1-.1-.2-.3-.4-.4h-.1c0 .5 0 .8.1.9.1 0 .3 0 .4-.1v-.4zm.3-17.2l-.4-.2-.1.3h.1v.6c.1 0 .3 0 .4-.1v-.6zm0 1.3c-.3.1-.4.3-.4.5l.4-.5zm-.1 13.6v-.3h-.1v.3h.1zm.6-20.6c-.1-.1-.3-.1-.4-.1-.1.2-.1.3 0 .4l.4-.3zm0 8.6c-.1.1-.1.2-.1.3.1 0 .2 0 .2-.1s0-.1-.1-.2zm.5 5.5c0-.1 0-.1-.1-.2h-.2c-.1 0 0 .1.2.2h.1zm.2-3.2l-.4.2v.2c.2-.1.3-.1.4-.1v-.3zm0 .7v-.3c-.1 0-.2.1-.4.3v.3l.4-.3zm-.1-1.6v.2c.1-.1.1-.1.2-.1-.1-.1-.1-.1-.2-.1zm.6-3.6c-.2-.1-.3 0-.4.2.1.1.1.1.2.1l-.2.4v1l.2.2c.1-.1.1-.1.2-.1 0-.3 0-.5-.1-.6.1-.3.2-.6.2-.7 0-.1 0-.3-.1-.5zm-.3 2.2c-.1.1-.1.3 0 .5h.1c.1-.1.1-.2.1-.5h-.2zm.3-2.6v-.1h-.1l.1.1zm.6 19l-.1-.1v.2l.1-.1zm.5-16.7c-.1 0-.1 0-.1.1v.1c.1-.1.1-.1.2-.1l-.1-.1zm-.1.2v.1c.1 0 .1 0 .1-.1h-.1zm.3 15.8l-.1-.1v.2l.1-.1zm1.1-.2v-.1c-.1 0-.2 0-.3.1h.3zm0-27.5h-.1v.1l.1-.1zm.7.6c-.3.1-.5.2-.5.3.2-.1.4-.1.5-.1v-.2zm.2 3.3c0 .1 0 .2-.1.2v-.2h.1zm.4-1h-.2V80h.2v.1zM62 91.5h-.1c0 .1 0 .1.1.1v-.1z"/><path class="st445" d="M85.4 83.9c-.1 0-.4.1-.7.2.2.3.1.7-.3 1.3h-.2c0 .1 0 .4-.1.7l-.2.2-1.3 2.1c0 .2-.2.4-.5.5v.3l-.9.7c-.1 0-.2 0-.3.1v.1h-.7V90c-.2 0-.3 0-.4.1-.1-.1-.4-.1-.9-.2-.1 0-.3 0-.5-.1 0-.5-.1-.8-.2-.9v.1H78v-.5c-.1-.3-.2-.6-.5-1l-.1-.3c-.1-.3-.1-.9-.1-1.6-.1 0-.2 0-.3-.1v-.3c.1-.1.1-.1.2-.1l.3-2 .3-.3.2-.7c.1-.1.2-.1.3-.1-.1-.1 0-.3.2-.5V81c.2-.1.3-.2.4-.4l.5-.5v-.4h.1l.1.1v-.4c-.1-.1-.1-.1-.2-.1v-.1c.1.1.1.1.2.1l.6-.7c-.1-.1-.3-.1-.5-.1l-.1.1h-.2v.1c-.5 0-.9.2-1 .7h.3c-.1.1-.1.3-.2.5-.2 0-.3 0-.4-.1-.1.1-.1.1-.2.1-.1-.1-.3-.1-.4 0-.1.3-.4.6-.9 1-.1.2-.3.3-.6.4 0 .2-.1.4-.2.7 0 .1 0 .1.1.2-.3.1-.4.3-.5.6-.3.1-.4.3-.5.6-.1 0-.3.2-.5.6v.3H74c0 .5-.2.7-.5.7 0 .1.1.3.4.6v.5l-.2.4h-.2c-.1.3-.2.5-.5.6v.4l-.3.3c0 .7 0 .9-.1.7h-.2v1.1h-.3c-.1.1-.1.3 0 .4-.3.7-.5 1.3-.5 1.9.1 0 .1 0 .2.1v.2c-.1.1-.2.4-.4.9 0 .1 0 .3.1.6-.1 0-.1 0-.1.1v.4h-.3l-.3 2.2h-.2c.1.1.1.2 0 .3.1.1.1.3.1.4-.1.1-.2.4-.1.8.1-.1.2-.1.3-.1v.2c-.1.1-.2.1-.3.1 0 .6-.1 1.2-.2 1.9v.6h-.3c-.1.1 0 .2.1.3v1l-.5 1.1v1.3c.1.1.1.3.2.6l-.3.3c0 .4 0 .6-.1.7 0 .3 0 .4-.1.4h-.2l-.3.6-.1.1c-.4 0-.6.3-2.1.7-.1.3-.3.3-.7.2-.1 0-.1 0-.2.1h-1c-.2 0-.4 0-.6-.1-.7 0-1.2-.3-1.3-.9h-.2c0-.1.1-.3.2-.6.3-.1.4-.3.5-.8l.4-.5c0-.7 0-1.1.1-1.4 0-.1.1-.1.3-.1 0-.6 0-.9.1-.9 0-.3.2-.5.5-.6.1-.2.1-.3.1-.4h.1c.1-.5.1-.8.1-1l.1-.1c-.1-.1-.1-.2 0-.3l.1-2.9h.1v.1h.1c.1-.1.1-.2 0-.3h-.2c-.1-.1-.1-.3 0-.4l.2-.4V96c-.1-.1-.2-.3-.2-.4h.2c.3-.3.4-.7.3-1.3-.1-.8-.1-1.3 0-1.5-.1-.1 0-.2.1-.3v-.4c0-.4.2-.9.5-1.4-.1-.1-.2-.1-.2-.2l.3-.3v-.3h-.2c.1-.1.1-.1.2-.1v-.2l-.2-.3.3-.1c0-1 .1-1.5.2-1.6v-.5c.1-.1.2-.3.2-.6v-.7c.1-.1.1-.3.2-.6-.1-.2-.1-.3.2-.4 0-.1 0-.1.1-.2l-.3-.2c-.3.1-.4.2-.5.2l-.1.4h-.3l-.6.5-.2.2h-.2c-.3.3-.5.4-.6.4l-.4.9c-.1 0-.3.1-.5.4h-.1c0 .2 0 .3-.1.4h-.3v.3h-.1c0 .1-.1.3-.4.6 0 .4-.2 1.1-.2 1.5-.2.1-.3.5-.3 1.4-.1.5-.3.7-.6.6l-.1-.1h-.3c0 .1-.1.1-.3.1-.2-.2-.4-.3-.7-.4 0-.1 0-.2.1-.4h-.1V91h.1v-.4c.1 0 .2 0 .3-.1.1-.3.1-.5.2-.5 0-.5 0-.8.1-.9-.1-.1-.1-.3 0-.5h.2c.1-.4.1-.6.2-.6.1-.6.1-.8.2-.6.1-.3.2-.6.5-1 0-.3.2-.9.2-1l.7-1.6c.1-.2 0-.4-.2-.5l1-1.7c0-.1 0-.4.1-.7.3-.4.6-.9.9-1.5.3-.1.4-.3.5-.6.1.1.2.1.3.1.7-.7 1-.9 1-.8l.4-.3c.2-.4.4-.6.6-.6V77h.6v.1h.2c.1-.1.1-.1.1-.2.3 0 .5 0 .6-.1l.5.3c0-.1 0-.1.1-.2.3 0 .6.2.9.6l.4.1.4.4c0 .7.1 1.1.4 1.3.1.1.1.3.1.6-.1.3-.1.4 0 .5 0 .6 0 .9-.1 1 .1.1.1.6 0 1.3 0-.1-.1-.1-.2-.1v.4s.5-.7 1.4-2.1c.1 0 .2 0 .4-.1 0-.3 0-.5.1-.6h.2c0-.1 0-.3.1-.4.3 0 .6-.3.7-.8.2-.1.4-.2.7-.5.3-.5.7-.9 1.4-1 .6-.4.9-.7.9-1 0-.1.1-.2.3-.4h.4c.1-.2.2-.3.4-.3v.1c-.2 0 0-.1.6-.2 0-.1.1-.3.4-.4.1-.1.3 0 .6.1.6.1.8.1.7.1.1-.1.2-.2.5-.1.2.1.4.3.7.6.1.1.1.2.1.3h.2l.2.4h.1v.1c.1 0 .1 0 .2.1l.2.2h.1l.4.7h.4c.1.1.1.4.2.9l.4.4c0 .6 0 1 .1 1.1-.1.1-.2.2-.2.4.3-.1.5-.1.6 0l.3.3-.2.2c.2.1.3.9.3 2.4l-.1.4zM62 85.5c-.1 0-.1 0-.2.1v-.2h.1l.1.1zm.3 4.4v-.2H62c0 .1 0 .1.1.2h.2zm.4-4.6v.2c.1-.1.1-.1.1-.2h-.1zm.7-1.7v.3c.1-.1.1-.2.1-.3h-.1zm.8.7l-.3-.1c.1.2 0 .4-.2.5 0 .1 0 .1.1.2h.4c.1-.1.1-.2.2-.2-.1-.2-.2-.3-.2-.4zm.3-.3l-.3-.4c0 .1 0 .3.1.4h.2zm0-3.2v-.2l-.1.1.1.1zm.4.1h-.2c0 .1 0 .1.1.1l.1-.1zm.6 26.8h-.1c0 .1 0 .1.1.1v-.1zm.2-28.2v-.2h-.1v.2h.1zm.2 20.1v-.2h-.1v.2h.1zm.1-6.4v.2c0-.1 0-.1.1-.1-.1 0-.1 0-.1-.1zm.7-.4l-.1-.1v-.1c-.1 0-.1 0-.2.1.1.3 0 .4-.3.5v.1c.2-.1.4-.1.5-.1v-.4h.1zm-.5 1.9h-.1c0 .1 0 .2.1.3v-.3zm.3-2.5c-.1-.1-.1-.1-.2-.1v.1h.2zm1.1 11.7c0-.2-.2-.3-.5-.2-.5 0-.4.7-.8.8 0 .3.1.5.3.7-.1.2 0 .6.1 1.1.1-.1.3-.1.4-.1v-.3c0-.5.1-.7.3-.8.1-.4 0-.7-.1-.8v-.2l.3-.2zm-1.1 3.7v-.1c-.1 0-.1 0-.2.1v.1h.1v-.1h.1zm.7-20v.2h.2c0-.1.1-.3.2-.4-.1 0-.2.1-.4.2zm.5 12v.3c.1 0 .1 0 .1-.1s0-.2-.1-.2zm.5.7v-.2H68l.2.2zm.1-.6c0 .1 0 .1.1.2-.1-.1-.1-.1-.1-.2zm1.5 1.8v-.1c-.1 0-.1 0-.1.1h.1zm.8-4.2l.1-.1v.1h-.1zm1-16.3v.1c.1 0 .1 0 .2-.1h-.2zm.2 8.5v-.2h-.1v.1h-.1v.1h.2zm9.2-2.3c-.1 0-.3 0-.5.1v.5c-.2.2-.2.3-.1.4v.3h.3c.1-.3.3-.5.5-.6 0-.3.1-.4.3-.4-.1-.2-.3-.3-.5-.3zm.1-11.3l-.1-.1v.1h.1zm.1 13.5c0-.1 0-.1-.1-.2v.2h.1z"/><path class="st445" d="M105.1 93.2l-.1 1.1-.1.1c-.1.1-.2.7-.2 1.6-.1.1-.1.5-.2 1.1-.1.1-.1.2-.1.3h.1c0 .1 0 .1.1.2l-.3.1.2.4-.3.9v.5c-.1.2-.2.4-.5.6v.7c-.3.3-.6.9-1.1 1.8 0 .1-.1.1-.2.2 0 .3-.2.8-.6 1.5v.4l-.3.2v.2l-.7.6v.2c-.2.1-.3.3-.4.6-.7.3-.7.2-1.9 1-.2.1-.6.2-1.1.2l-.2.2h-.7c-.2-.1-.5-.1-1 .1-.1 0-.3 0-.6.1-.1-.1-.5-.1-1.1-.2-.1-.1-.5-.2-1-.3-.2 0-.5-.1-.8-.2h-.4c-.1-.1-.3-.2-.7-.3-.1 0-.2 0-.3-.1l-.5-.2c-.3-.1-1-.4-2.6-1.2h-.1c-1.2-.4-1.5-1.7-2-1.7v-.6c-.1-.1-.2-.3-.5-.5v-.4h-.3c-.1-.2-.1-.4-.1-.6 0-.1 0-.3.1-.5 0-.1-.1-.2-.2-.4 0-.5 0-1.5-.1-3 0-.1-.1-.1-.2-.2v-.2H84c0-.4-.5-1.6-.5-2.3s0-1.1.1-1.4c0-.3 0-.3 0 0-.1 0-.1-.1-.1-.2l.1-.1c0-.6.1-.9.2-1v-.1c-.1-.1-.1-.3-.1-.5s.1-.4.2-.7c-.1-.2-.1-.6 0-1.2.1-.1.2-.5.3-1.2V87h.1l.3-.4c.1-.2.2-.5.1-.9.1-.1.2-.4.2-.9.3-.1.4-.4.3-.7-.1 0-.1-.1-.1-.2.1-.2.1-.6.1-1.2.3-.1.4-.4.4-.9.1-.1.1-.3.2-.6l.6-.5h.4l.3-.5c.5-.3.8-.7 1.1-1l.3-.1c.3-.1.7-.5 1-1 .9-.3 1-.4 1.4-.8.1 0 .3 0 .6-.1 0-.1 0-.1.1-.2.5-.1.7-.2.6-.2h.1c.1-.3.4-.5.8-.5 0 .1.1.1.3.1.3-.1.6-.4.9-.7h.5l.5.4c.5-.1.4.3.8.3l.1-.1h1.5c.2.2.5.3.8.3l.3.3c.5 0 .8.3 1 .8.4.2.7.5.9 1l.3.2.4.2c.1.1.2.3.2.7.3.3.5.6.5.8l.4.5v.5c.1.2.3.5.6.8 0 .3.1.5.3.6 0 .1 0 .2.1.3v.9c-.1 0-.1.1-.1.2h.1v.6l-.3.5c.1.1.1.2.1.3-.2.1-.3.4-.3.7-.4.1-.6.4-.6.8l-1.5 1.5c-.3.3-.5.5-.8.6v.5c-.3.1-.5.3-.6.5h-.2c0 .2-.1.3-.2.4-.1.3-.2.5-.3.4l-.1.2-.7.6v.2c-.5.2-.7.5-.7.8-.5.3-1.1.7-1.8 1.4-.1 0-.3 0-.6.1 0 .3-.1.4-.4.3h-.4c0 .1 0 .1-.1.1l-.6.2c-.4.1-.6.2-.7.2-.3-.1-.5-.2-.6-.2s-.2 0-.2.1 0 .1.1.1v2.5c.1.1.2.2.2.5.1 0 .1.1 0 .4.1.1.2.4.2.7-.1.1-.2.3-.2.4 0 .2.1.4.2.5.1.4.1.7.1 1l.3.2c.3.1.5.2.5.3-.1 0-.2 0-.3.1 0 .3.2.5.5.6 0 .1 0 .1.1.2.7.1 1 .1.8.2v-.2c.2 0 .3.1.4.2l.2-.3c.5 0 .8-.1.9-.2h.3l.4-.2c.1-.1.2-.1.2-.2.3-.1.7-.5 1-1l.6-.6c.1-.1.2-.1.4-.1 0 .2.2 0 .6-.6l.4-.5c.1-.1.5-.4.6-.7-.1 0 0-.3.5-.9l.4-.8.4-.4V96c.2-.1.3-.1.3-.2 0-.5.2-1.1.6-1.8l-.1-.2h-.2v-.4h.3c0-.1.1-.3.2-.6.1-.1.2-.1.3-.1v-.2c.3-.1.4-.1.5-.1v-.2h.4c0-.1-.1-.2-.2-.3v-.4c.7-.1 1.2.1 1.5.5 0 .1.1.1.2.2l-.4 1zm-19.7-8.5v.3c0 .1 0 .1-.1.1v.1c.1 0 .1 0 .1.1 0-.1 0-.3.1-.6h-.1zm.4 14.7c0 .1 0 .1-.1.1.1.1.1.2.1.3.1-.1.1-.2.1-.3l-.1-.1zm0-3.1v.1h.2c.1.2.1.4.1.5.1-.1.1-.1.2-.1-.1-.1-.1-.1-.1-.2.2-.1.3-.2.3-.3h-.7zm.6-14.9v-.1h-.1v.1h.1zm.1 17.8c.1-.2.1-.4 0-.7h-.2c0 .1 0 .2.1.3-.1.1-.1.2-.1.4h.2zm0-13.2c-.1.3-.2.4-.1.5.1 0 .2 0 .3-.1.1-.3 0-.4-.2-.4zm1 3.4v-.2h-.4c0-.1 0-.1-.1-.2-.3-.1-.4-.2-.5-.3-.1.7 0 1.1.3 1.3.2-.2.3-.4.3-.6h.4zm-1 10c0 .2 0 .3.1.2l-.1-.2zm.7 3c0-.1 0-.2-.1-.3h-.2v.1c0 .1 0 .1.1.2h.2zm0-19.9c.1.1.1.1.1.2 0-.1 0-.1.1-.2h-.2zm1.4 21.8v-.2h-.1v.2h.1zm2.1-17.8h-.2c0 .1.1.3.2.4l-.4.3-.1.2c.1.1.1.1.2.1v.3c-.1 0-.2 0-.2.1-.1.5-.1.8-.1 1.1H90c0 .1.1.3.2.5h.2c-.1-.1-.1-.2-.1-.3.1-.3.1-.6.2-.7h.1c0-.9.1-1.5.3-1.7l-.2-.3zm-.7 3.3v.6c.2-.1.2-.3.1-.6H90zm1.6-12.6c-.1 0-.2 0-.3.1v.3h.1c.1-.1.1-.1.2-.1v-.3zm0 18.2l-.1-.1.1.1zm0 2.6v-.5h-.1v.5h.1zm.3 1.5v-.1c-.1.1-.1.1-.2.1h.2zm.4-21.1c-.1 0-.2.1-.3.2v.2c.2 0 .3 0 .4-.1-.1-.1-.1-.2-.1-.3zm-.3 9v.1c.1 0 .1 0 .2-.1H92zm6.8-2.4v-1.4c-.1-.1-.2-.1-.3-.1l.3-.2c0 .1-.2-.6-.6-2.2l-.6-1.4h-.1c-.1-.3-.1-.4-.1-.5-.5-.2-.9-.4-1.1-.6-.6.1-.9.3-.9.6-.2.1-.4.1-.5.1 0 .3-.1.4-.3.4-.1.2-.1.4-.1.5l-.3 1.3c-.3.6-.5 1.1-.6 1.6-.1.3 0 .4.1.5l-.1.1c-.1.3-.1.5-.2.5-.1.5-.3.8-.4.8 0 .3.2.5.2.6-.1.1-.1.1-.2.1v.8l-.2.5c-.1.8-.2 1.7-.4 2.7v1c-.1.1-.1.3-.2.6s0 .5.1.6c0 .1 0 .2-.1.4v.2c.3-.1.6-.2.8-.5.1-.1.3-.1.5-.1v-.1h.3c.1-.3.4-.5.7-.6.1-.3.4-.5.9-.5v-.2l.6-.3c1.2-.3 1.6-.4 1.2-.4.2-.4.4-.6.5-.7v-.2h-.2c.1-.4.3-.6.4-.6 0 .3 0 .2-.1-.3l.3-.2c.1-.5.1-.7.2-.8-.1-.1-.1-.2-.1-.4h.1c0-.5 0-.8.1-.8.1-.1.1-.2 0-.3.1-.1.1-.1.2-.1V85h.2zm-5.5-7.2c-.3.1-.4.2-.5.4l-.3.1c-.1.4 0 .7.2.8.1-.1.2-.1.3-.1v-.5c.1-.1.2-.1.3-.1.1-.4.2-.7.2-.8-.1 0-.1.1-.2.2zm-.7 8.3h-.1c.1 0 .1 0 .1.1v-.1zm.7 16.1h-.1v-.1h.1v.1zm.9-26v-.1h-.1v.2l.1-.1zm1.3 15c-.1.1-.1.1-.1.2h-.3c0 .3-.2.5-.5.6-.1.1-.1.2-.1.4.3-.1.4-.3.4-.4.3-.1.6-.2.8-.5-.1-.1-.2-.2-.2-.3zm.1-14.9h-.1c.1 0 .1 0 .1.1v-.1zm0 18.7l-.1-.1h.1v.1zm1.1-.5l-.1.1-.1-.1h.2zm0 13.1l-.1-.1v.1h.1zm.4-17.2c-.1-.1-.2-.1-.3-.1-.1.1-.1.2-.1.4.1-.1.2-.1.4-.1v-.2zm5.2 9.6v-.4h-.2l-1.2 1.2c.2.2 0 .5-.5.8.1.1.1.2.1.3l-.3.2c0 .1 0 .2.1.3-.3.5-.7.7-1.1.7l-.2.3-.7.2c-.3.2-.7.5-1.2 1h-.3c-.1.1 0 .2.1.3.1 0 .3-.1.7-.2l.4-.1c.1-.3.2-.4.3-.5l.3-.3c.6-.1 1 0 1.1.3l.2-.3.2-.2c.3-.3.4-.6.4-.9h.1c.3-1.1.7-1.9 1.4-2.4 0-.1 0-.2.1-.3h.2zm-4.2 6.9c0-.3-.1-.7-.2-1.1h-.2l-.1.1c.1.5.1.8.1 1h.4zm.3-23.9h-.3v-.1h.3v.1zm-.2 2.9l-.1.1v-.2h.1v.1zm1.3 20.6c-.2-.1-.3-.1-.4 0v.2h.3l.1-.2zm.6-.2l-.1-.1-.1.1h.2zm1.2-18.4c0-.1 0-.1-.1-.1l-.1.1h.2zm.1 10.5c-.1-.1-.1-.1-.2-.1v.1h.2zm0-11.1h-.1c0 .1 0 .1.1.2v-.2zm.6-7.1h-.1c-.1.2-.2.3-.2.4l-.1.1c.1 0 .3 0 .4-.1v-.4zm0 6.8v-.1l-.1.1h.1zm0 10.2V97h-.1v.2h.1zm.4 1.5c-.1.1-.2.3-.2.6.2 0 .4-.2.5-.5-.1-.1-.2-.1-.3-.1zm0-17.3v.1c.1 0 .1 0 .1-.1h-.1zm.4 14.5c.1-.2.1-.3 0-.4v.4zm.4-13.9l-.1.2V82h.1zm0 .9h-.1v.1l.1-.1zm0 11.6h-.1v.2l.1-.2zm.5-2.5l-.1.1V92h.1zm.6 4.4v-.2h-.3c0 .1 0 .1.1.2h.2zm0-3.8c0 .1 0 .1.1.1l-.1-.1zm.3 2h-.1c0 .1 0 .3.1.5v-.5zm.4-2.2l.1.1c0-.1 0-.1.1-.1h-.2zM145.4 93.4h-.1l.1.6c-.2.1-.3.3-.3.8-.2.2-.3.5-.2 1-.2.1-.3.4-.3.9h-.3c0 .1-.1.2-.2.4v.4l-.6.7h-.2c-.1.1-.1.3-.1.6-.3 0-.9 1.2-1 1.3v.6c-.3.1-.5.5-.6 1.1-.1.1-.3.6-.5 1.3-.5.3-.8.4-.8.4v.7c-.1 0-.1.1-.2.3h-.3c0 .2-.1.4-.3.7 0 .1-.2.3-.5.8l-.3.3h-.1c-.3.1-.8.5-1.4 1.2-.2 0-.6.1-1.1.4-.8 0-1.7.5-2 .5l-1.7-.6c-.2 0-.3 0-.4-.1-.1.1-.2.1-.4.1l-1-.5c-.4-.2-.6-.4-.6-.6h-.3v-.6c-.1 0-.1 0-.2-.1v-.6l.2-.4c-.1-.1-.2-.4-.2-1.1.2-.2.3-.3.4-.3-.1-.1-.1-.2 0-.3-.1-.1-.2-.3-.2-.4l.3-.2c0-.1-.1-.2-.3-.3 0-.2.1-.4.3-.5v-.3c-.1 0-.2 0-.3-.1v-.3c.1-.1.2-.1.4-.1.3-.3.4-.8.5-1.3.1-.2.2-.4.5-.7h.3c0-.1 0-.1.1-.2-.1 0-.1-.1-.2-.3-.2 0-.3-.1-.2-.2l.3-.1-.1-.4h.2c0-.1 0-.1.1-.2-.2-.1-.3-.1-.3-.2l-.2-.3v-.4l-.2-.2c.1-.5.1-.8.2-1h.3c0 .1 0 .1.1.2l.3-.2c.1.1.1.3.1.5-.1.1-.3.1-.4.1-.1.3-.1.7.2 1h.3c-.1-.5 0-.9.4-1.4 0-.1 0-.2.1-.3-.1-.2-.1-.5-.1-.9h-.4c-.1-.1-.2-.2-.5-.2v.1c.1.1.2.1.3.1v.1l-.1.1v.7c-.2 0-.3-.2-.4-.6-.1.1-.2.1-.3.1v-.4c.2 0 .3-.2.2-.7-.1 0-.1 0-.1-.1l.2-.2v-.5c-.1 0-.2 0-.3-.1v-.1c.1 0 .1-.1.2-.2h.1c0-.1-.1-.4-.2-.9.1 0 .1 0 .2-.1V91c.1 0 .1 0 .2-.1v-1.2h.2c.1 0 .2 0 .3-.1l-.3-.2c-.1.1-.1.1-.2.1 0-.7.1-1.1.3-1.2 0-.5 0-.9.1-1.1h.5V87h-.4c-.1-.3 0-.6.1-.7 0-.5.1-.8.2-.9v-.5l-.3-.2v-.6l.3-.2V82c-.3 0-.6.1-.7.4l-.6.1v.1c-.5.5-.9.7-1.4.7v.3c-.1 0-.6.2-1.5.7-.1.1-.1.3-.2.6-.3.1-.4.3-.5.7-.3.3-.4.5-.5.7l.1.1-.4.4c0 .1 0 .3.1.5l-.2.3v.4c-.1.1-.2.1-.3.1v.8c.1 0 .1 0 .1.1-.2 0-.3.3-.3.9-.1.1-.2.1-.3.1.1 0 .2 0 .3.1v.7h-.3c-.1.1-.1.3 0 .5l-.3.3c.1.1.2.1.3.1l-.2.7-.3.2v.1h.1c0 .1 0 .1-.1.2 0 1.2-.1 1.8-.4 1.8-.2 0-.3-.1-.4-.3-.1 0-.1.1-.1.2h-.1v.2c.1-.2.3-.1.5.3.1 0 .2 0 .4.1 0 .2-.1.3-.3.4 0-.1 0-.2-.1-.3-.3 0-.5 0-.6.1h-.2v.1c.3 0 .9.2 1 .2v.1c-.1.1-.2.4-.1.8-.1 0-.1.1-.2.2v1.8l-.1.1c.1.1.1.3.1.6v.8c-.1 0-.1.1-.1.3h-.2c0 .1 0 .1.1.2l-.2.2c.3.2.5 1 .4 2.3-.1.7.1 1.2.5 1.3v1c-.1.1-.3.3-.6.8l-.9.9v.4l-.8.7c0 .1-.2.3-.5.4l-.4.3c-.1-.1-.3-.1-.6-.1-.1 0-.1 0-.1.1h-.7l-.8-.4c-.1-.1-.2-.1-.3-.1-.6-.6-1.1-.9-1.4-1 0-.1-.1-.4-.3-.9l-.2-.2c-.1-.4-.3-.7-.6-.8v-.3c.2 0 .3-.2.4-.5 0-.1.1-.4.2-.7h.2c.1-.1.1-.2.1-.3h.1c0-.3.1-.5.4-.6 0-.1-.1-.1-.3-.2v-.5c.1-.5.4-1.2.7-1.9 0-.2.1-.5.2-.9l.2-.2-.2-.3c-.2 0-.1-.2.2-.6.8-.9.3-1.3 1-2.2.1-.1.1-.3.1-.6h.1c0-.7.1-1.2.2-1.3-.1 0-.1-.1-.1-.2h.3c0-.3.2-.7.5-1.2v-.5c.1 0 .2 0 .3-.1-.2-.1-.3-.2-.3-.3.3-.3.5-.8.5-1.3.1-.1.1-.1.2-.1v-.3c-.1-.1-.1-.4-.1-.8 0 .1.1.1.2.1.2-.1.4-.2.6-.1h.1v-.1l-.3-.2-.4-.4c.1-.1.1-.1.1-.2.1 0 .2 0 .2.1h.2l.2-.4-.4-.2c-.1-1.1 0-1.7.3-1.8v-.3c.1-.1.1-.1.2-.1.1.3.2.5.1.6l-.4.6c-.1.2-.1.5 0 .8 0 .1.1.1.2.1-.1-.3 0-.7.3-1.1 0-.5.1-.9.2-1v-.4h.2c-.2-.1-.2-.3-.1-.4h.1v.1h.2c0-.3.1-.9.2-1.6l.3-.5c-.1-.1-.1-.2-.1-.3.1-.1.1-.3.1-.5.1-.2 0-.4-.4-.5v-.2h-.3l.3-.6-.2-.4-.2.3h-.1c-.1 0-.1 0-.2-.1-.1.1-.1.1-.2.1v-.3c.3-.3.5-.4.7-.4l.1.1h.2v-.1c-.1-.1-.3-.2-.5-.2-.1 0-.2 0-.3.1h-.2v-.1l.2-.2c.2-1.1.3-1.8.3-2.1.1 0 .1 0 .2-.1 0-.7.1-1.2.2-1.3l.1-.5h.2v.1c.3-.1.4-.3.5-.6.1-.1.1-.6.2-.6h-.2v.4h-.1v.1c-.1 0-.3 0-.6.1v-.5h.2c0-.5.1-1.3.4-2.2 0-.1.1-.3.2-.4.3-2.1.5-3.4.5-4 0-.1.1-.3.4-.4v-1.4l.2-.2V63c.1-.2.1-.3 0-.4 0-.1 0-.3-.1-.6-.1-.1-.1-.2-.1-.4.1-.1.3-.1.5-.2v-.5c-.1-.1-.2-.2-.3-.5l.5-.5c.9.1 1.6 0 2.1-.3.6-.1 1-.2 1.1-.1l.2.1c.5-.1.8-.2.9-.5.3 0 .7-.2 1-.5h.5c0 .1 0 .2.1.3v.1c-.1.1-.3.1-.6.2v.6c.5.1.8.5.8 1.3-.1 0-.3.1-.4.3h.1v1.2c-.1.2-.1.4-.1.5s0 .2.1.3c-.1.1-.3 1-.7 2.9l-.2.3c.1.1.2.2.2.3h-.2c.1.1-.1.3-.6.7v.4c.1 0 .2 0 .3.1v.2c-.3.1-.4.6-.4 1.3-.1.1-.2.1-.3.1.1.1.1.2.1.4h-.1c0 .3-.1.7-.3 1.1 0 .1-.1.1-.2.2 0 .5-.1.8-.3 1-.1-.1-.2-.1-.3 0 .2 0 .3 0 .4.1.2.3.4.4.5.5.1.7 0 1.1-.1 1.2l-.1.2c-.1.1-.1.3-.1.6-.1 0-.1 0-.2.1 0 .2 0 .3.1.4 0 .1 0 .2-.1.4h-.3l-.2 1h-.3c0 .5 0 .8-.1.9 0 .1 0 .2.1.2-.1.1-.2.3-.2.6h-.1c0 .3-.2.8-.5 1.3l.2.3-.2.1c0 .4 0 .7.1.9l-.4.1v.5h.1c.2 0 .4-.2.6-.6-.1-.1 0-.1.3-.2.1-.1.1-.4.1-.8h.2c.1-.1.1-.3.2-.5h.4l.7-1.2c.1 0 .3-.1.4-.4.1-.1.2-.2.3-.5.5-.5 1.2-1 2-1.7.3-.1.6-.4 1-.7.1-.2.1-.3.1-.4h.4c0-.1.1-.2.2-.3.1.1.4.1.7 0 .1-.2.3-.4.6-.5.2.1.4.1.5.1v.2c.1 0 .2 0 .3.1v.5c.3 0 .2 0-.5-.1l.1.2c.1.2.1.3.1.4h.5c.1.1.2.2.5.3v.2c.1 0 .3.4.8.4.2.5.5 1.1.9 1.6 0 .1.1.2.2.4v1.1c-.1.4-.2 1-.5 1.7 0 .2 0 .5.1.8-.1.1-.2.6-.2 1.5h-.3l-.1-.1v.2c.1.1.2.1.4.1v.4h-.2l-.2 1.3v1.3c-.1 0-.3 0-.6.1.3.3.5.7.5 1h-.1c0 .1 0 .2.1.2v.2c-.1-.1-.1-.1-.2-.1-.1.1-.1.5-.1 1.1-.1 0-.1 0-.1.1-.1.7-.1 1.2-.1 1.3-.1 0-.1 0-.1-.1-.1 0-.2 0-.3.1v.1h.3l.4.9c.2.1.3.1.3.2s0 .2-.1.3h-.4c0 .1-.1.2-.2.4 0-.1 0-.1-.1-.1-.1.3-.2.5-.2.7.1.1.1.4.1.9l-.5.4c-.1-.4 0-.7.3-.8l-.4-.3c0 .3-.4.6-.4 1 .3.2.4.4.4.6l-.2.3c.1.2.1.8.1 1.7-.3.3-.4.4-.3.4.1 0 .2.1.4.2v.2l-.4.3V99c-.1 0-.3 0-.4.1 0 .7-.1 1.1-.2 1v.1c0 .1-.2.1-.2.4.1 0 .1 0 .2.1v.2c-.1 0-.1.1-.2.3h-.1c0 .7.2 1.5.5 2.3.3 0 .5 0 .7-.1 0-.1.2-.1.2-.5.3-.1.5-.2.5-.4.3-.1.5-.2.6-.5.2-.1.3-.4.4-.9l.6-.6c.1-.2.2-.4.5-.7l.1-.2c0 .3-.1.1-.3-.4.3-.1.5-.4.5-.9.3 0 .5-.2.5-.7.1-.1.4-.1.7-.1l-.4-.1.1-.5c0-.1.1-.3.2-.6l.2.1.3-.9c.1-.1.2-.3.3-.7.1 0 .1-.1.2-.2l.3-.4v-1.4l.1-.1c0-.1 0-.3-.1-.4v-.5l.5-.6c.7-.1 1.1-.1 1.2 0l.2.1v.2c-.2 0 .1.1.8.2 0 .3 0 .4.1.4l.2-.2c.1-.4.3-.7.7-.8.1.1-.4 1.8-.4 2.3zm-26.9 9.1h-.1c0 .1 0 .1.1.2v-.2zm.6 5.1h-.1v.1l.1-.1zm.1-7.1l.1.1c0-.1 0-.1.1-.1h-.2zm.9-1.7c-.1-.1-.1-.2 0-.3-.1 0-.1 0-.2-.1v.6l.2-.2zm.4-1.9v-.1h-.2l.1.1h.1zm1.2 6.8l-.8.7c.3.2.5.4.6.7 0-.1 0-.1.1-.1.1-.4.2-.6.1-.7v-.6zm-.3-10.4l.1.1h.2c-.1.1-.1.2-.1.4h.1v-.2c.2-.1.2-.3.1-.6l-.4.3zm.4 15.3v-.2h-.1c-.3.1-.3.3-.2.4l.3-.2zm.2-19.7l-.1.2-.1.1c-.1-.1-.1-.2-.1-.3h.3zm-.1.7h-.1c-.1-.1-.1-.1-.1-.2h.2v.2zm.5-5.3c0 .2-.1.4-.4.5-.1-.1-.1-.1-.2-.1 0-.1.1-.3.2-.5h.4v-.1c.1.1.1.1.1.2h-.1zm.3 1.5c0-.5-.1-.7-.2-.8l-.6 1.4h-.1c0-.2.1-.3.2-.4-.1-.2-.1-.3-.1-.4.1-.1.1-.2.1-.3 0-.1 0-.2-.1-.3.3-.1.6-.2.7-.2.2 0 .3.1.4.2l-.1.3c.1.2.2.4.2.5h-.4zm-.9 5.7h.1c0-.1 0-.1.1-.1-.1 0-.2 0-.2.1zm.9-8.5h-.1c-.1.3-.2.6-.5 1.1h-.1l-.1-.1c.1-.1.1-.4 0-.7l.4-.1c0-.3.1-.5.4-.4v.2zm-.5-.4c0 .1-.1.2-.2.2v-.2h.2zm0 10v-.1h-.2l.1.1h.1zm.8-10.9h-.1c0 .2-.1.5-.3.8-.1-.1-.1-.4-.1-.8-.1-.2 0-.4.1-.5.1 0 .3.1.5.2 0 .1 0 .2-.1.3zm.1 2.7c0-.1 0-.2-.1-.3h-.2c0-.1 0-.3.1-.4-.2-.1-.3-.2-.3-.3.3 0 .4.1.4.4.3.2.4.4.3.6h-.2zm-.3-.1h-.1v-.1h.1v.1zm.5-6.2c0 .1 0 .1-.1.2v-.1l.1-.1zm-.1.7l.2-.3c.1 0 .2.1.2.2-.2.1-.3.1-.4.1zm0 27.9v.1c.1 0 .1 0 .1-.1h-.1zm1.4-29.5l-.9.8h-.3c.1.1.1.1.2.1v.2l.2-.2.1-.3c.1 0 .3.1.4.4.2 0 .3 0 .4.1h.2c-.1-.2-.2-.4-.2-.5 0-.1.1-.2.3-.3 0-.2-.1-.3-.4-.3zm-.4 4.5v-.1c-.1 0-.1 0-.1-.1-.1-.3-.1-.4.1-.5v-.5l-.3.2h-.3v.3c.1 0 .1 0 .2-.1.1.3.1.5.1.4-.1 0-.2.1-.4.2.3.1.5.1.6.2h.1zm-.5.7c-.1.1-.1.1-.2.1v-.2h.2v.1zm-.2 23.6l.1.2c0-.1 0-.1.1-.2h-.2zm.4-29.1v-.2h-.1v.5h-.2l.2.3c.1-.2.1-.4.2-.5l-.1-.1zm-.2 6h-.1v-.1h.1v.1zm.3-4.3c0-.1-.1-.1-.2-.2v.2h.2zm0 23v-.3c-.1.1-.1.2-.1.3h.1zm-.1.5v.4c.1-.2.1-.3.1-.4h-.1zm0 1.6c.1-.1.1-.2 0-.3v.3zm.4-23.7h-.3c-.1.1 0 .2.1.3l.2-.3zm.6-4h-.1v.1h-.3v-.2h-.2v.1l-.2.1v.2l.1.1.3-.2.1.1h.1l.2-.3zm-.6 6.6v-.2c-.1 0-.1 0-.2.1v.1h.2zm-.1 22.7c0-.1 0-.1-.1-.1v.3l.1-.2zm.3-25.8h-.3c0 .1 0 .1.1.2.1 0 .1 0 .2-.1v-.1zm.2-2.6h-.3c.1.1.1.1.2.1l.1-.1zm-.2 2.2V79c-.1 0-.1 0-.1.1h.1zm4.8-10v-.3h-.7l-.2.2h-.2c0 .3.1-.1.2-1.1h.2c.1-.3.2-.6.2-.8v-1.5c0-.1 0-.1-.1-.1-.1.2-.1.4 0 .5-.1 0-.1 0-.2.1h-.2c-.1.2 0 .4.2.5-.1.1-.1.1-.1.2-.1.3-.1.5-.2.5-.3 1.1-.4 1.6-.5 1.5s-.2-.1-.3 0h.2v.4h-.2c0 .1 0 .2.1.2-.1.1-.1.2-.1.3h-.1c-.1-.1-.1-.2-.2-.2-.1.1-.1.2-.2.2h-.1c-.1-.1-.1-.1-.1-.2-.1.1-.1.2 0 .4.2.1.3.1.3.2h.2c.1.1 0 .3-.2.5l-.1-.1h-.1c0 .1 0 .2.1.3v.7l-.2 1c-.1 0-.1.1-.2.2l-.1.3c-.1.4-.2.5-.5.4-.1.1-.1.1-.1.2-.3-.1-.5-.1-.6-.1v-.3h-.3c-.2.1-.3.1-.4.1-.1.1 0 .3.3.6.1 0 .3 0 .5.1.1-.1.3-.1.5 0v.1h.1c0-.3.1-.4.3-.4v.5l-.5 1-.4-.4.3.7c.1-.1.1-.2.1-.3h.5c0-.1 0-.1.1-.2h.3c0 .1.1.1.2.1v-.2h-.3c-.1-.2-.1-.4 0-.5.1.1.2.1.3.1 0-.1-.1-.2-.2-.3v-.1h.3v-.4h-.1c0-.2 0-.3.1-.4l.1.1.2-.2-.2-.1c0-.1 0-.2.1-.4l.1-.7v-.1h.2c-.1-.1-.1-.4-.1-.7h.1c.1-.3.2-.7.4-1l-.1-.2.4-.3c0-.1-.1-.2-.2-.2l.4-.4c.1 0 .2.1.3.2.1-.1.1-.1.2-.1v-.1h.5zm-4.6 4.9h-.2c0 .1 0 .1.1.1l.1-.1zm.2 15.7l-.4-.1c0 .1 0 .2.1.3.1-.1.2-.1.3-.1v-.1zm-.1 2.6v-.1c-.1 0-.1 0-.2.1h.2zm.1-20.3h-.2v.2c.1-.1.1-.1.2-.1V72zm.1 17v-.3h-.1l-.2.1c.1.1.1.1.1.2h.2zm.1-18.2v-.2h-.1v.2h.1zm0 .3h-.1v.1l.1-.1zm.2-1.6c0-.1 0-.1-.1-.2h-.1v.2h.2zm-.2.4c.1 0 .1 0 .2.1.1-.1.1-.1.1-.2-.1 0-.2 0-.3.1zm.1 5.4c0-.1 0-.2-.1-.2v.2h.1zm.1-4.6v.1c0-.1 0-.1.1-.1h-.1zm.1 1.9v-.1h-.1v.2l.1-.1zm.6-1.8c-.1-.1-.1-.3-.1-.5h-.2c-.1.3-.2.5-.3.5.1.2.1.3.1.4h.3l.2-.4zm-.3.7v-.2c-.1 0-.1 0-.2-.1v.3h.2zm.2 2.7h-.2c0 .1 0 .1.1.2l.1-.2zm1.5-11.5v-.1c-.1.1-.1.3-.2.5 0 .1 0 .2.1.2 0 .2 0 .3-.1.4 0 .5-.1.8-.2.8-.1.3-.1.4-.2.4v.5c-.1.1-.2.4-.2.9-.3.8-.4 1.5-.4 2h-.2l-.1.9c.1.1.1.1.1.2-.1.1-.2.3-.2.6.1 0 .2-.1.4-.3 0-.4 0-.7.1-.8h.1c.1-.2.1-.6 0-1.1l.4-.7v-.7l.2-.3.2.1v-.1h-.1c-.1-.1 0-.4.2-.7 0-.5.1-.7.2-.8.1-.3.1-.6.2-.7 0-.1 0-.1-.1-.1 0-.1.2-.8.2-1.1h-.4zm-1.5 3.9v-.2h-.1v.2h.1zm-.1 6.3c0 .1.1.2.2.4.1-.1.1-.2.1-.3-.1-.1-.2-.1-.3-.1zm.2-5.6v.1c.1 0 .1 0 .1-.1h-.1zm.6 4.3c0-.1 0-.1-.1-.1-.1.1-.1.1-.2.1 0 .1 0 .1.1.2v.4c.1-.1.1-.1.2-.1v-.5zm.1-1.5c-.1.1-.1.1-.2.1v.3c.1-.1.1-.1.2-.1v-.3zm0 12.9v-.1c-.1 0-.1 0-.1.1h.1zm.4-8.4v-.2c-.1 0-.1.1-.1.2h.1zm.2 6.7c-.1-.1-.2-.2-.3-.2v.1h.2v.1h.1zm.1-9v-.2h-.1v.2h.1zm.2-9.6h-.1v.2h.1v-.2zm.5 8.5c0-.1 0-.2-.1-.2h-.3c-.1.1-.1.2-.2.2 0 .1 0 .2.1.3l.3-.3h.2zm.7-5.9h-.1v.1l.1-.1zm0 6.3v-.3h-.1v.3h.1zm0 12.7h-.1v-.2h.1v.2zm.2-11.2v-.2h-.1v.2h.1zm.8-8.3c-.3-.1-.4-.1-.5-.1v.2l.5-.1zm-.4 18.1v.1c.1 0 .1 0 .1-.1h-.1zm.1 17.7h-.1v-.1h.1v.1zm.1-28.2v.1c0-.1 0-.1.1-.1h-.1zm.2-2.8v-.2h-.1v.1l.1.1zm0-2.1v.1c.1-.1.2-.1.2-.2-.1.1-.1.1-.2.1zm.4.8v-.1l-.1.1h.1zm.1-.1v-.1h-.1v.1h.1zm.2-8.4c-.1 0-.1 0-.2.1v.1h.5c.1 0 .2-.1.2-.2-.3.1-.4.1-.5 0zm.1.9l-.1-.1-.1.1h.2zm.1 3.7c-.1.1-.1.2-.1.3h.1c.1.3.1.5.1.6.1-.1.2-.3.2-.4-.1-.1-.2-.2-.3-.5zm.2 31h-.1v-.2h.1v.2zm.3-1.5h-.2l.1-.1.1.1zm0-32.2h-.1v.1l.1-.1zm0 18.6c.3 0 .4-.1.5-.2.1-.5.1-.7.1-.6-.3.3-.5.6-.6.8zm.2-2.7l-.1-.1v.1h.1zm0 6.4c0 .1 0 .1-.1.1V84h.1zm1.8 4.9v-.2l-.3.1v-.1c0-.1 0-.1.1-.1v-.7h-.1c.1 0 .1 0 .2-.1 0-.5 0-.7.1-.7v-.2c-.1-.1-.2-.1-.3-.1-.1.3-.2.8-.2 1.6l-.4.3v.2l-.2-.4-.4.4h.3c.2.1.3.1.4.1v.3l-.1.5v.4c.2.2.1.7-.3 1.4-.1.1-.2.2-.3.2.2.5.3.7.3.6h-.2c0-.1 0-.1-.1-.1-.2.1-.3.2-.3.4.1-.1.2-.1.3-.1.1.1.1.3.1.7-.1.1-.1.1-.2.1 0 .2.1.3.2.4 0 .3 0 .4.1.5h.2v-.1h.2c.1-.4 0-.6-.1-.6 0-.2.1-.3.2-.3l-.2-.3.2-.2h.2l.1-.4c-.1 0-.2.1-.2.4h-.1c0-.5 0-.7.1-.8.1 0 .1 0 .2.1v.2h.2v-.2h.1v-.2h-.3c0-.1 0-.4-.1-.8h.1v-1.3c.1-.1.3-.2.4-.2-.1 0-.3 0-.4-.1v-.6h.5zM131.4 99c.1 0 .1.2.2.5.1-.1.3-.1.4-.1 0-.2-.2-.3-.6-.4zm.2-7.2v-.6c-.2.1-.2.3-.1.6h.1zm.2-1.4l-.3-.1v.2c.1 0 .2.1.3.3v-.4zm-.1.7v-.3h-.1v.3h.1zm.5-4.6h-.2v.1l.2-.1zm.6 15c-.2-.5-.4-.6-.7-.4l.4.6.3-.2zm-.6-14.3v.2c.1-.1.1-.1.1-.2h-.1zm.2-1.3h-.1v.3c.1-.1.1-.1.2-.1-.1 0-.1-.1-.1-.2zm.2-1.7v-.1h-.2v.1h.2zm.7 2.4c-.1-.4-.2-.8-.2-1.1-.1.1-.1.1-.2.1v.2c-.1.2-.2.4-.2.5s.1.2.3.3h.3zm-.5 18.4v-.1h-.1v.1h.1zm0 .2v-.1h-.1v.1h.1zm.2-14.5v.3c.1 0 .1-.1.1-.3h-.1zm.3 9.7l-.1.1c.1.1.1.2.1.3 0-.1 0-.2.1-.4h-.1zm.4 5.2v-.3c-.1-.1-.2-.4-.3-.8h-.2c.1.2.1.7.1 1.5.1.1.1.1.2.1.3-.1.5-.2.5-.4-.1 0-.2 0-.3-.1zm-.2-29.6v.1c0-.1 0-.1.1-.1h-.1zm.2 22.8c-.1-.1-.1-.2-.1-.3 0 .1 0 .2-.1.3h.2zm.3-1.6h-.3c-.1.2-.1.3-.1.4 0 .3 0 .6.1.7.1 0 .2 0 .3-.1l-.1-.5c.1-.1.1-.1.2-.1 0-.1 0-.3-.1-.4zm.2-9.5v-.4l-.2.1-.1.1c-.1.1-.1.1-.2.1v.2c.1.1.1.1.2.1h.1l.2-.2zm-.4.4v.2c.1 0 .1-.1.1-.2h-.1zm.2 8.6v-.3h-.2v.3h.2zm.2-9.7v-1.3h-.1c-.1.1-.1.5-.1 1v.3h.2zm.5-4.9c.1-.3.1-.4.1-.5h-.2c0 .1-.1.5-.4 1l.4.2c0 .1-.1.4-.3.7.1.1.1.1.1.2h.2c0 .1.3-1 .3-1.6h-.2zm-.4 1.8c-.1.3-.1.6.1.9h.1c.1-.4.1-.7.1-.8-.1-.1-.2-.1-.3-.1zm.3-3c-.1.2-.2.3-.1.4.1 0 .2 0 .3-.1-.1-.2-.1-.3-.2-.3zm.6 11.1h-.1v.1l.1-.1zm.7-16.1v-.2h-.2l.1.2h.1zm.1 20.2v.2c.1-.1.1-.1.1-.2h-.1zm.6 1.8c0 .1 0 .1-.1.2v-.2h.1zm.1-10.7v.2c.1-.1.1-.1.1-.2h-.1zm.1 9.4c0-.1 0-.2.1-.3.1.1.1.2.1.3h-.2zm.6-9.6c-.1 0-.2-.1-.3-.2h-.1c-.1.1-.1.1-.1.2l.3.2c.1 0 .1 0 .2-.1V87zm-.1 1.8c0-.2 0-.3-.1-.4h-.1c-.1.1-.2.3-.2.4h.4zm-.2.4c.1-.1.1-.2 0-.3v.3zm.2-12.6v-.2h-.1v.2h.1zm0 9.4v-.3h-.1l.1.3zm.2 1.9v-.2h-.3c0 .1 0 .1.1.2h.2zm-.2 2c0-.1 0-.1-.1-.2v.2h.1zm-.1 1.2v.2c0-.1 0-.1.1-.1-.1 0-.1 0-.1-.1zm.4-5.4l-.1.1c0 .1 0 .1.1.1v-.2zm.1 1.6v-.1h-.2c0 .1 0 .2.1.2.1-.1.2-.1.3-.1h-.2zm.1-4.2c-.1-.1-.1-.1-.2-.1v.1h.2zm0-6.1c0-.1 0-.1-.1-.1v.1h.1zm0 5.4v-.3h-.1v.3h.1zm.3.1h-.1c.1.1.1.2.1.3v-.3zm0 .6h-.1c.1 0 .1 0 .1.1v-.1zm0 22.9v-.3c0 .1 0 .2-.1.3h.1zm.1-26.4c0 .1 0 .1.1.2-.1-.1-.1-.1-.1-.2zm.9 24.6v.1c.1 0 .1 0 .1-.1h-.1zm1.2-1.4h-.2v.2c.1 0 .1 0 .2-.1v-.1zm1.4-2.8c-.1-.1-.1-.1-.2-.1v.4l.2-.3zm.4-.6l-.1-.1v.1h.1zm.2-4.5v-.2h-.1v.2h.1zm1.3 1.6c-.1.1-.1.1-.1.2h.1c0-.1.1-.1.2-.2h-.2zm.7-4.3V92c-.1-.1-.2-.1-.3-.1 0 .1.1.2.2.3h.1z"/><path class="st445" d="M164.2 93.2l-.1 1.1-.1.1c-.1.1-.2.7-.2 1.6-.1.1-.1.5-.2 1.1-.1.1-.1.2-.1.3h.1c0 .1 0 .1.1.2l-.3.1.2.4-.3.9v.5c-.1.2-.2.4-.5.6v.7c-.3.3-.6.9-1.1 1.8 0 .1-.1.1-.2.2 0 .3-.2.8-.6 1.5v.4l-.3.2v.2l-.7.6v.2c-.2.1-.3.3-.4.6-.7.3-.7.2-1.9 1-.2.1-.6.2-1.1.2l-.2.2h-.7c-.2-.1-.5-.1-1 .1-.1 0-.3 0-.6.1-.1-.1-.5-.1-1.1-.2-.1-.1-.5-.2-1-.3-.2 0-.5-.1-.8-.2h-.4c-.1-.1-.3-.2-.7-.3-.1 0-.2 0-.3-.1l-.5-.2c-.3-.1-1-.4-2.6-1.2h-.1c-1.2-.4-1.5-1.7-2-1.7v-.6c-.1-.1-.2-.3-.5-.5v-.4h-.3c-.1-.2-.1-.4-.1-.6 0-.1 0-.3.1-.5 0-.1-.1-.2-.2-.4 0-.5 0-1.5-.1-3 0-.1-.1-.1-.2-.2v-.2h.1c0-.4-.5-1.6-.5-2.3s0-1.1.1-1.4c0-.3 0-.3 0 0-.1 0-.1-.1-.1-.2l.1-.1c0-.6.1-.9.2-1v-.1c-.1-.1-.1-.3-.1-.5s.1-.4.2-.7c-.1-.2-.1-.6 0-1.2.1-.1.2-.5.3-1.2V87h.1l.3-.4c.1-.2.2-.5.1-.9.1-.1.2-.4.2-.9.3-.1.4-.4.3-.7-.1 0-.1-.1-.1-.2.1-.2.1-.6.1-1.2.3-.1.4-.4.4-.9.1-.1.1-.3.2-.6l.6-.5h.4l.3-.5c.5-.3.8-.7 1.1-1l.3-.1c.3-.1.7-.5 1-1 .9-.3 1-.4 1.4-.8.1 0 .3 0 .6-.1 0-.1 0-.1.1-.2.5-.1.7-.2.6-.2h.1c.1-.3.4-.5.8-.5 0 .1.1.1.3.1.3-.1.6-.4.9-.7h.5l.5.4c.5-.1.4.3.8.3l.1-.1h1.5c.2.2.5.3.8.3l.3.3c.5 0 .8.3 1 .8.4.2.7.5.9 1l.3.2.4.2c.1.1.2.3.2.7.3.3.5.6.5.8l.4.5v.5c.1.2.3.5.6.8 0 .3.1.5.3.6 0 .1 0 .2.1.3v.9c-.1 0-.1.1-.1.2h.1v.6l-.3.5c.1.1.1.2.1.3-.2.1-.3.4-.3.7-.4.1-.6.4-.6.8l-1.5 1.5c-.3.3-.5.5-.8.6v.5c-.3.1-.5.3-.6.5h-.2c0 .2-.1.3-.2.4-.1.3-.2.5-.3.4l-.1.2-.8.6v.2c-.5.2-.7.5-.7.8-.5.3-1.1.7-1.8 1.4-.1 0-.3 0-.6.1 0 .3-.1.4-.4.3h-.4c0 .1 0 .1-.1.1l-.6.2c-.4.1-.6.2-.7.2-.3-.1-.5-.2-.6-.2-.1 0-.2 0-.2.1s0 .1.1.1v2.5c.1.1.2.2.2.5.1 0 .1.1 0 .4.1.1.2.4.2.7-.1.1-.2.3-.2.4 0 .2.1.4.2.5.1.4.1.7.1 1l.3.2c.3.1.5.2.5.3-.1 0-.2 0-.3.1 0 .3.2.5.5.6 0 .1 0 .1.1.2.7.1 1 .1.8.2v-.2c.2 0 .3.1.4.2l.2-.3c.5 0 .8-.1.9-.2h.3l.4-.2c.1-.1.2-.1.2-.2.3-.1.7-.5 1-1l.6-.6c.1-.1.2-.1.4-.1 0 .2.2 0 .6-.6l.4-.5c.1-.1.5-.4.6-.7-.1 0 0-.3.5-.9l.4-.8.4-.4V96c.2-.1.3-.1.3-.2 0-.5.2-1.1.6-1.8l-.1-.2h-.2v-.4h.3c0-.1.1-.3.2-.6.1-.1.2-.1.3-.1v-.2c.3-.1.4-.1.5-.1v-.2h.4c0-.1-.1-.2-.2-.3v-.4c.7-.1 1.2.1 1.5.5 0 .1.1.1.2.2l-.5 1zm-19.7-8.5v.3c0 .1 0 .1-.1.1v.1c.1 0 .1 0 .1.1 0-.1 0-.3.1-.6h-.1zm.4 14.7c0 .1 0 .1-.1.1.1.1.1.2.1.3.1-.1.1-.2.1-.3l-.1-.1zm0-3.1v.1h.2c.1.2.1.4.1.5.1-.1.1-.1.2-.1-.1-.1-.1-.1-.1-.2.2-.1.3-.2.3-.3h-.7zm.6-14.9v-.1h-.1v.1h.1zm.1 17.8c.1-.2.1-.4 0-.7h-.2c0 .1 0 .2.1.3-.1.1-.1.2-.1.4h.2zm0-13.2c-.1.3-.2.4-.1.5.1 0 .2 0 .3-.1.1-.3 0-.4-.2-.4zm1 3.4v-.2h-.4c0-.1 0-.1-.1-.2-.3-.1-.4-.2-.5-.3-.1.7 0 1.1.3 1.3.2-.2.3-.4.3-.6h.4zm-1 10c0 .2 0 .3.1.2l-.1-.2zm.7 3c0-.1 0-.2-.1-.3h-.2v.1c0 .1 0 .1.1.2h.2zm0-19.9c.1.1.1.1.1.2 0-.1 0-.1.1-.2h-.2zm1.5 21.8v-.2h-.1v.2h.1zm2-17.8h-.2c0 .1.1.3.2.4l-.4.3-.1.2c.1.1.1.1.2.1v.3c-.1 0-.2 0-.2.1-.1.5-.1.8-.1 1.1h-.1c0 .1.1.3.2.5h.2c-.1-.1-.1-.2-.1-.3.1-.3.1-.6.2-.7h.1c0-.9.1-1.5.3-1.7l-.2-.3zm-.7 3.3v.6c.2-.1.2-.3.1-.6h-.1zm1.6-12.6c-.1 0-.2 0-.3.1v.3h.1c.1-.1.1-.1.2-.1v-.3zm0 18.2l-.1-.1.1.1zm0 2.6v-.5h-.1v.5h.1zm.3 1.5v-.1c-.1.1-.1.1-.2.1h.2zm.4-21.1c-.1 0-.2.1-.3.2v.2c.2 0 .3 0 .4-.1-.1-.1-.1-.2-.1-.3zm-.3 9v.1c.1 0 .1 0 .2-.1h-.2zm6.8-2.4v-1.4c-.1-.1-.2-.1-.3-.1l.3-.2c0 .1-.2-.6-.6-2.2l-.6-1.4h-.1c-.1-.3-.1-.4-.1-.5-.5-.2-.9-.4-1.1-.6-.6.1-.9.3-.9.6-.2.1-.4.1-.5.1 0 .3-.1.4-.3.4-.1.2-.1.4-.1.5l-.3 1.3c-.3.6-.5 1.1-.6 1.6-.1.3 0 .4.1.5l-.1.1c-.1.3-.1.5-.2.5-.1.5-.3.8-.4.8 0 .3.2.5.2.6-.1.1-.1.1-.2.1v.8l-.2.5c-.1.8-.2 1.7-.4 2.7v1c-.1.1-.1.3-.2.6s0 .5.1.6c0 .1 0 .2-.1.4v.2c.3-.1.6-.2.8-.5.1-.1.3-.1.5-.1v-.1h.3c.1-.3.4-.5.7-.6.1-.3.4-.5.9-.5v-.2l.6-.3c1.2-.3 1.6-.4 1.2-.4.2-.4.4-.6.5-.7v-.2h-.2c.1-.4.3-.6.4-.6 0 .3 0 .2-.1-.3l.3-.2c.1-.5.1-.7.2-.8-.1-.1-.1-.2-.1-.4h.1c0-.5 0-.8.1-.8.1-.1.1-.2 0-.3.1-.1.1-.1.2-.1V85h.2zm-5.5-7.2c-.3.1-.4.2-.5.4l-.3.1c-.1.4 0 .7.2.8.1-.1.2-.1.3-.1v-.5c.1-.1.2-.1.3-.1.1-.4.2-.7.2-.8-.1 0-.1.1-.2.2zm-.7 8.3h-.1c.1 0 .1 0 .1.1v-.1zm.7 16.1h-.1v-.1h.1v.1zm.9-26v-.1h-.1v.2l.1-.1zm1.3 15c-.1.1-.1.1-.1.2h-.3c0 .3-.2.5-.5.6-.1.1-.1.2-.1.4.3-.1.4-.3.4-.4.3-.1.6-.2.8-.5-.1-.1-.2-.2-.2-.3zm.1-14.9h-.1c.1 0 .1 0 .1.1v-.1zm0 18.7l-.1-.1h.1v.1zm1.1-.5l-.1.1-.1-.1h.2zm0 13.1l-.1-.1v.1h.1zm.4-17.2c-.1-.1-.2-.1-.3-.1-.1.1-.1.2-.1.4.1-.1.2-.1.4-.1v-.2zm5.2 9.6v-.4h-.2l-1.2 1.2c.2.2 0 .5-.5.8.1.1.1.2.1.3l-.3.2c0 .1 0 .2.1.3-.3.5-.7.7-1.1.7l-.2.3-.7.2c-.3.2-.7.5-1.2 1h-.3c-.1.1 0 .2.1.3.1 0 .3-.1.7-.2l.4-.1c.1-.3.2-.4.3-.5l.3-.3c.6-.1 1 0 1.1.3l.2-.3.2-.2c.3-.3.4-.6.4-.9h.1c.3-1.1.7-1.9 1.4-2.4 0-.1 0-.2.1-.3h.2zm-4.2 6.9c0-.3-.1-.7-.2-1.1h-.2l-.1.1c.1.5.1.8.1 1h.4zm.3-23.9h-.3v-.1h.3v.1zm-.2 2.9l-.1.1v-.2h.1v.1zm1.3 20.6c-.2-.1-.3-.1-.4 0v.2h.3l.1-.2zm.6-.2l-.1-.1-.1.1h.2zm1.2-18.4c0-.1 0-.1-.1-.1l-.1.1h.2zm.1 10.5c-.1-.1-.1-.1-.2-.1v.1h.2zm0-11.1h-.1c0 .1 0 .1.1.2v-.2zm.6-7.1h-.1c-.1.2-.2.3-.2.4l-.1.1c.1 0 .3 0 .4-.1v-.4zm0 6.8v-.1l-.1.1h.1zm0 10.2V97h-.1v.2h.1zm.4 1.5c-.1.1-.2.3-.2.6.2 0 .4-.2.5-.5-.1-.1-.2-.1-.3-.1zm0-17.3v.1c.1 0 .1 0 .1-.1h-.1zm.5 14.5c.1-.2.1-.3 0-.4v.4zm.4-13.9l-.1.2V82h.1zm0 .9h-.1v.1l.1-.1zm0 11.6h-.1v.2l.1-.2zm.5-2.5l-.1.1V92h.1zm.5 4.4v-.2h-.2c0 .1 0 .1.1.2h.1zm0-3.8c0 .1 0 .1.1.1l-.1-.1zm.3 2h-.1c0 .1 0 .3.1.5v-.5zm.4-2.2l.1.1c0-.1 0-.1.1-.1h-.2z"/><path class="st445" d="M186.6 83.9c-.1 0-.4.1-.7.2.2.3.1.7-.3 1.3h-.2c0 .1 0 .4-.1.7l-.2.2-1.3 2.1c0 .2-.2.4-.5.5v.3l-.9.7c-.1 0-.2 0-.3.1v.1h-.7V90c-.2 0-.3 0-.4.1-.1-.1-.4-.1-.9-.2-.1 0-.3 0-.5-.1 0-.5-.1-.8-.2-.9v.1h-.2v-.5c-.1-.3-.2-.6-.5-1l-.1-.3c-.1-.3-.1-.9-.1-1.6-.1 0-.2 0-.3-.1v-.3c.1-.1.1-.1.2-.1l.3-2 .3-.3.2-.7c.1-.1.2-.1.3-.1-.1-.1 0-.3.2-.5V81c.2-.1.3-.2.4-.4l.5-.5v-.4h.1l.1.1v-.4c-.1-.1-.1-.1-.2-.1v-.1c.1.1.1.1.2.1l.6-.7c-.1-.1-.3-.1-.5-.1l-.1.1h-.2v.1c-.5 0-.9.2-1 .7h.3c-.1.1-.1.3-.2.5-.2 0-.3 0-.4-.1-.1.1-.1.1-.2.1-.1-.1-.3-.1-.4 0-.1.3-.4.6-.9 1-.1.2-.3.3-.6.4 0 .2-.1.4-.2.7 0 .1 0 .1.1.2-.3.1-.4.3-.5.6-.3.1-.4.3-.5.6-.1 0-.3.2-.5.6v.3h-.3c0 .5-.2.7-.5.7 0 .1.1.3.4.6v.5l-.2.4h-.2c-.1.3-.2.5-.5.6v.4l-.3.3c0 .7 0 .9-.1.7h-.2v1.1h-.3c-.1.1-.1.3 0 .4-.3.7-.5 1.3-.5 1.9.1 0 .1 0 .2.1v.2c-.1.1-.2.4-.4.9 0 .1 0 .3.1.6-.1 0-.1 0-.1.1v.4h-.3l-.3 2.2h-.2c.1.1.1.2 0 .3.1.1.1.3.1.4-.1.1-.2.4-.1.8.1-.1.2-.1.3-.1v.2c-.1.1-.2.1-.3.1 0 .6-.1 1.2-.2 1.9v.6h-.3c-.1.1 0 .2.1.3v1l-.5 1.1v1.3c.1.1.1.3.2.6l-.3.3c0 .4 0 .6-.1.7 0 .3 0 .4-.1.4h-.2l-.3.6-.1.1c-.4 0-.6.3-2.1.7-.1.3-.3.3-.7.2-.1 0-.1 0-.2.1h-1c-.2 0-.4 0-.6-.1-.7 0-1.2-.3-1.3-.9h-.2c0-.1.1-.3.2-.6.3-.1.4-.3.5-.8l.4-.5c0-.7 0-1.1.1-1.4 0-.1.1-.1.3-.1 0-.6 0-.9.1-.9 0-.3.2-.5.5-.6.1-.2.1-.3.1-.4h.1c.1-.5.1-.8.1-1l.1-.1c-.1-.1-.1-.2 0-.3l.1-2.9h.1v.1h.1c.1-.1.1-.2 0-.3h-.2c-.1-.1-.1-.3 0-.4l.2-.4V96c-.1-.1-.2-.3-.2-.4h.2c.3-.3.4-.7.3-1.3-.1-.8-.1-1.3 0-1.5-.1-.1 0-.2.1-.3v-.4c0-.4.2-.9.5-1.4-.1-.1-.2-.1-.2-.2l.3-.3v-.3h-.2c.1-.1.1-.1.2-.1v-.2l-.2-.3.3-.1c0-1 .1-1.5.2-1.6v-.5c.1-.1.2-.3.2-.6v-.7c.1-.1.1-.3.2-.6-.1-.2-.1-.3.2-.4 0-.1 0-.1.1-.2l-.3-.2c-.3.1-.4.2-.5.2l-.1.4h-.3l-.6.5-.2.2h-.2c-.3.3-.5.4-.6.4l-.4.9c-.1 0-.3.1-.5.4h-.1c0 .2 0 .3-.1.4h-.3v.3h-.1c0 .1-.1.3-.4.6 0 .4-.2 1.1-.2 1.5-.2.1-.3.5-.3 1.4-.1.5-.3.7-.6.6l-.1-.1h-.3c0 .1-.1.1-.3.1-.2-.2-.4-.3-.7-.4 0-.1 0-.2.1-.4h-.1V91h.1v-.4c.1 0 .2 0 .3-.1.1-.3.1-.5.2-.5 0-.5 0-.8.1-.9-.1-.1-.1-.3 0-.5h.2c.1-.4.1-.6.2-.6.1-.6.1-.8.2-.6.1-.3.2-.6.5-1 0-.3.2-.9.2-1l.7-1.6c.1-.2 0-.4-.2-.5l1-1.7c0-.1 0-.4.1-.7.3-.4.6-.9.9-1.5.3-.1.4-.3.5-.6.1.1.2.1.3.1.7-.7 1-.9 1-.8l.4-.3c.2-.4.4-.6.6-.6V77h.6v.1h.2c.1-.1.1-.1.1-.2.3 0 .5 0 .6-.1l.5.3c0-.1 0-.1.1-.2.3 0 .6.2.9.6l.4.1.4.4c0 .7.1 1.1.4 1.3.1.1.1.3.1.6-.1.3-.1.4 0 .5 0 .6 0 .9-.1 1 .1.1.1.6 0 1.3 0-.1-.1-.1-.2-.1v.4s.5-.7 1.4-2.1c.1 0 .2 0 .4-.1 0-.3 0-.5.1-.6h.2c0-.1 0-.3.1-.4.3 0 .6-.3.7-.8.2-.1.4-.2.7-.5.3-.5.7-.9 1.4-1 .6-.4.9-.7.9-1 0-.1.1-.2.3-.4h.4c.1-.2.2-.3.4-.3v.1c-.2 0 0-.1.6-.2 0-.1.1-.3.4-.4.1-.1.3 0 .6.1.6.1.8.1.7.1.1-.1.2-.2.5-.1.2.1.4.3.7.6.1.1.1.2.1.3h.2l.2.4h.1v.1c.1 0 .1 0 .2.1l.2.2h.1l.4.7h.3c.1.1.1.4.2.9l.4.4c0 .6 0 1 .1 1.1-.1.1-.2.2-.2.4.3-.1.5-.1.6 0l.3.3-.2.2c.2.1.3.9.3 2.4l-.1.4zm-23.4 1.6c-.1 0-.1 0-.2.1v-.2h.1l.1.1zm.3 4.4v-.2h-.3c0 .1 0 .1.1.2h.2zm.4-4.6v.2c.1-.1.1-.1.1-.2h-.1zm.7-1.7v.3c.1-.1.1-.2.1-.3h-.1zm.8.7l-.3-.1c.1.2 0 .4-.2.5 0 .1 0 .1.1.2h.4c.1-.1.1-.2.2-.2-.1-.2-.2-.3-.2-.4zm.3-.3l-.3-.4c0 .1 0 .3.1.4h.2zm0-3.2v-.2l-.1.1.1.1zm.4.1h-.2c0 .1 0 .1.1.1l.1-.1zm.6 26.8h-.1c0 .1 0 .1.1.1v-.1zm.2-28.2v-.2h-.1v.2h.1zm.2 20.1v-.2h-.1v.2h.1zm.1-6.4v.2c0-.1 0-.1.1-.1-.1 0-.1 0-.1-.1zm.7-.4l-.1-.1v-.1c-.1 0-.1 0-.2.1.1.3 0 .4-.3.5v.1c.2-.1.4-.1.5-.1v-.4h.1zm-.5 1.9h-.1c0 .1 0 .2.1.3v-.3zm.3-2.5c-.1-.1-.1-.1-.2-.1v.1h.2zm1.1 11.7c0-.2-.2-.3-.5-.2-.5 0-.4.7-.8.8 0 .3.1.5.3.7-.1.2 0 .6.1 1.1.1-.1.3-.1.4-.1v-.3c0-.5.1-.7.3-.8.1-.4 0-.7-.1-.8v-.2l.3-.2zm-1.1 3.7v-.1c-.1 0-.1 0-.2.1v.1h.1v-.1h.1zm.7-20v.2h.2c0-.1.1-.3.2-.4-.1 0-.2.1-.4.2zm.5 12v.3c.1 0 .1 0 .1-.1s0-.2-.1-.2zm.5.7v-.2h-.2l.2.2zm.1-.6c0 .1 0 .1.1.2-.1-.1-.1-.1-.1-.2zm1.5 1.8v-.1c-.1 0-.1 0-.1.1h.1zm.8-4.2l.1-.1v.1h-.1zm1-16.3v.1c.1 0 .1 0 .2-.1h-.2zm.2 8.5v-.2h-.1v.1h-.1v.1h.2zm9.2-2.3c-.1 0-.3 0-.5.1v.5c-.2.2-.2.3-.1.4v.3h.3c.1-.3.3-.5.5-.6 0-.3.1-.4.3-.4-.1-.2-.3-.3-.5-.3zm.1-11.3l-.1-.1v.1h.1zm.1 13.5c0-.1 0-.1-.1-.2v.2h.1z"/><path class="st445" d="M206.3 93.2l-.1 1.1-.1.1c-.1.1-.2.7-.2 1.6-.1.1-.1.5-.2 1.1-.1.1-.1.2-.1.3h.1c0 .1 0 .1.1.2l-.3.1.2.4-.3.9v.5c-.1.2-.2.4-.5.6v.7c-.3.3-.6.9-1.1 1.8 0 .1-.1.1-.2.2 0 .3-.2.8-.6 1.5v.4l-.3.2v.2l-.7.6v.2c-.2.1-.3.3-.4.6-.7.3-.7.2-1.9 1-.2.1-.6.2-1.1.2l-.2.2h-.7c-.2-.1-.5-.1-1 .1-.1 0-.3 0-.6.1-.1-.1-.5-.1-1.1-.2-.1-.1-.5-.2-1-.3-.2 0-.5-.1-.8-.2h-.4c-.1-.1-.3-.2-.7-.3-.1 0-.2 0-.3-.1l-.5-.2c-.3-.1-1-.4-2.6-1.2h-.1c-1.2-.4-1.5-1.7-2-1.7v-.6c-.1-.1-.2-.3-.5-.5v-.4h-.3c-.1-.2-.1-.4-.1-.6 0-.1 0-.3.1-.5 0-.1-.1-.2-.2-.4 0-.5 0-1.5-.1-3 0-.1-.1-.1-.2-.2v-.2h.1c0-.4-.5-1.6-.5-2.3s0-1.1.1-1.4c0-.3 0-.3 0 0-.1 0-.1-.1-.1-.2l.1-.1c0-.6.1-.9.2-1v-.1c-.1-.1-.1-.3-.1-.5s.1-.4.2-.7c-.1-.2-.1-.6 0-1.2.1-.1.2-.5.3-1.2V87h.1l.3-.4c.1-.2.2-.5.1-.9.1-.1.2-.4.2-.9.3-.1.4-.4.3-.7-.1 0-.1-.1-.1-.2.1-.2.1-.6.1-1.2.3-.1.4-.4.4-.9.1-.1.1-.3.2-.6l.6-.5h.4l.3-.5c.5-.3.8-.7 1.1-1l.3-.1c.3-.1.7-.5 1-1 .9-.3 1-.4 1.4-.8.1 0 .3 0 .6-.1 0-.1 0-.1.1-.2.5-.1.7-.2.6-.2h.1c.1-.3.4-.5.8-.5 0 .1.1.1.3.1.3-.1.6-.4.9-.7h.5l.5.4c.5-.1.4.3.8.3l.1-.1h1.5c.2.2.5.3.8.3l.3.3c.5 0 .8.3 1 .8.4.2.7.5.9 1l.3.2.4.2c.1.1.2.3.2.7.3.3.5.6.5.8l.4.5v.5c.1.2.3.5.6.8 0 .3.1.5.3.6 0 .1 0 .2.1.3v.9c-.1 0-.1.1-.1.2h.1v.6l-.3.5c.1.1.1.2.1.3-.2.1-.3.4-.3.7-.4.1-.6.4-.6.8l-1.5 1.5c-.3.3-.5.5-.8.6v.5c-.3.1-.5.3-.6.5h-.2c0 .2-.1.3-.2.4-.1.3-.2.5-.3.4l-.1.2-.8.6v.2c-.5.2-.7.5-.7.8-.5.3-1.1.7-1.8 1.4-.1 0-.3 0-.6.1 0 .3-.1.4-.4.3h-.4c0 .1 0 .1-.1.1l-.6.2c-.4.1-.6.2-.7.2-.3-.1-.5-.2-.6-.2s-.2 0-.2.1 0 .1.1.1v2.5c.1.1.2.2.2.5.1 0 .1.1 0 .4.1.1.2.4.2.7-.1.1-.2.3-.2.4 0 .2.1.4.2.5.1.4.1.7.1 1l.3.2c.3.1.5.2.5.3-.1 0-.2 0-.3.1 0 .3.2.5.5.6 0 .1 0 .1.1.2.7.1 1 .1.8.2v-.2c.2 0 .3.1.4.2l.2-.3c.5 0 .8-.1.9-.2h.3l.4-.2c.1-.1.2-.1.2-.2.3-.1.7-.5 1-1l.6-.6c.1-.1.2-.1.4-.1 0 .2.2 0 .6-.6l.4-.5c.1-.1.5-.4.6-.7-.1 0 0-.3.5-.9l.4-.8.4-.4V96c.2-.1.3-.1.3-.2 0-.5.2-1.1.6-1.8l-.1-.2h-.2v-.4h.3c0-.1.1-.3.2-.6.1-.1.2-.1.3-.1v-.2c.3-.1.4-.1.5-.1v-.2h.4c0-.1-.1-.2-.2-.3v-.4c.7-.1 1.2.1 1.5.5 0 .1.1.1.2.2l-.5 1zm-19.7-8.5v.3c0 .1 0 .1-.1.1v.1c.1 0 .1 0 .1.1 0-.1 0-.3.1-.6h-.1zm.4 14.7c0 .1 0 .1-.1.1.1.1.1.2.1.3.1-.1.1-.2.1-.3l-.1-.1zm0-3.1v.1h.2c.1.2.1.4.1.5.1-.1.1-.1.2-.1-.1-.1-.1-.1-.1-.2.2-.1.3-.2.3-.3h-.7zm.6-14.9v-.1h-.1v.1h.1zm.1 17.8c.1-.2.1-.4 0-.7h-.2c0 .1 0 .2.1.3-.1.1-.1.2-.1.4h.2zm0-13.2c-.1.3-.2.4-.1.5.1 0 .2 0 .3-.1.1-.3 0-.4-.2-.4zm1 3.4v-.2h-.4c0-.1 0-.1-.1-.2-.3-.1-.4-.2-.5-.3-.1.7 0 1.1.3 1.3.2-.2.3-.4.3-.6h.4zm-1 10c0 .2 0 .3.1.2l-.1-.2zm.7 3c0-.1 0-.2-.1-.3h-.2v.1c0 .1 0 .1.1.2h.2zm0-19.9c.1.1.1.1.1.2 0-.1 0-.1.1-.2h-.2zm1.4 21.8v-.2h-.1v.2h.1zm2.1-17.8h-.2c0 .1.1.3.2.4l-.4.3-.1.2c.1.1.1.1.2.1v.3c-.1 0-.2 0-.2.1-.1.5-.1.8-.1 1.1h-.1c0 .1.1.3.2.5h.2c-.1-.1-.1-.2-.1-.3.1-.3.1-.6.2-.7h.1c0-.9.1-1.5.3-1.7l-.2-.3zm-.7 3.3v.6c.2-.1.2-.3.1-.6h-.1zm1.6-12.6c-.1 0-.2 0-.3.1v.3h.1c.1-.1.1-.1.2-.1v-.3zm0 18.2l-.1-.1.1.1zm0 2.6v-.5h-.1v.5h.1zm.3 1.5v-.1c-.1.1-.1.1-.2.1h.2zm.4-21.1c-.1 0-.2.1-.3.2v.2c.2 0 .3 0 .4-.1-.1-.1-.1-.2-.1-.3zm-.3 9v.1c.1 0 .1 0 .2-.1h-.2zM200 85v-1.4c-.1-.1-.2-.1-.3-.1l.3-.2c0 .1-.2-.6-.6-2.2l-.6-1.4h-.1c-.1-.3-.1-.4-.1-.5-.5-.2-.9-.4-1.1-.6-.6.1-.9.3-.9.6-.2.1-.4.1-.5.1 0 .3-.1.4-.3.4-.1.2-.1.4-.1.5l-.3 1.3c-.3.6-.5 1.1-.6 1.6-.1.3 0 .4.1.5l-.1.1c-.1.3-.1.5-.2.5-.1.5-.3.8-.4.8 0 .3.2.5.2.6-.1.1-.1.1-.2.1v.8l-.2.5c-.1.8-.2 1.7-.4 2.7v1c-.1.1-.1.3-.2.6s0 .5.1.6c0 .1 0 .2-.1.4v.2c.3-.1.6-.2.8-.5.1-.1.3-.1.5-.1v-.1h.3c.1-.3.4-.5.7-.6.1-.3.4-.5.9-.5v-.2l.6-.3c1.2-.3 1.6-.4 1.2-.4.2-.4.4-.6.5-.7v-.2h-.2c.1-.4.3-.6.4-.6 0 .3 0 .2-.1-.3l.3-.2c.1-.5.1-.7.2-.8-.1-.1-.1-.2-.1-.4h.1c0-.5 0-.8.1-.8.1-.1.1-.2 0-.3.1-.1.1-.1.2-.1V85h.2zm-5.5-7.2c-.3.1-.4.2-.5.4l-.3.1c-.1.4 0 .7.2.8.1-.1.2-.1.3-.1v-.5c.1-.1.2-.1.3-.1.1-.4.2-.7.2-.8-.1 0-.1.1-.2.2zm-.7 8.3h-.1c.1 0 .1 0 .1.1v-.1zm.7 16.1h-.1v-.1h.1v.1zm.9-26v-.1h-.1v.2l.1-.1zm1.3 15c-.1.1-.1.1-.1.2h-.3c0 .3-.2.5-.5.6-.1.1-.1.2-.1.4.3-.1.4-.3.4-.4.3-.1.6-.2.8-.5-.1-.1-.2-.2-.2-.3zm.1-14.9h-.1c.1 0 .1 0 .1.1v-.1zm0 18.7l-.1-.1h.1v.1zm1.1-.5l-.1.1-.1-.1h.2zm0 13.1l-.1-.1v.1h.1zm.4-17.2c-.1-.1-.2-.1-.3-.1-.1.1-.1.2-.1.4.1-.1.2-.1.4-.1v-.2zm5.2 9.6v-.4h-.2l-1.2 1.2c.2.2 0 .5-.5.8.1.1.1.2.1.3l-.3.2c0 .1 0 .2.1.3-.3.5-.7.7-1.1.7l-.2.3-.7.2c-.3.2-.7.5-1.2 1h-.3c-.1.1 0 .2.1.3.1 0 .3-.1.7-.2l.4-.1c.1-.3.2-.4.3-.5l.3-.3c.6-.1 1 0 1.1.3l.2-.3.2-.2c.3-.3.4-.6.4-.9h.1c.3-1.1.7-1.9 1.4-2.4 0-.1 0-.2.1-.3h.2zm-4.2 6.9c0-.3-.1-.7-.2-1.1h-.2l-.1.1c.1.5.1.8.1 1h.4zm.3-23.9h-.3v-.1h.3v.1zm-.2 2.9l-.1.1v-.2h.1v.1zm1.3 20.6c-.2-.1-.3-.1-.4 0v.2h.3l.1-.2zm.6-.2l-.1-.1-.1.1h.2zm1.2-18.4c0-.1 0-.1-.1-.1l-.1.1h.2zm.1 10.5c-.1-.1-.1-.1-.2-.1v.1h.2zm0-11.1h-.1c0 .1 0 .1.1.2v-.2zm.6-7.1h-.1c-.1.2-.2.3-.2.4l-.1.1c.1 0 .3 0 .4-.1v-.4zm0 6.8v-.1l-.1.1h.1zm0 10.2V97h-.1v.2h.1zm.4 1.5c-.1.1-.2.3-.2.6.2 0 .4-.2.5-.5-.1-.1-.2-.1-.3-.1zm0-17.3v.1c.1 0 .1 0 .1-.1h-.1zm.4 14.5c.1-.2.1-.3 0-.4v.4zm.4-13.9l-.1.2V82h.1zm0 .9h-.1v.1l.1-.1zm0 11.6h-.1v.2l.1-.2zm.6-2.5l-.1.1V92h.1zm.5 4.4v-.2h-.2c0 .1 0 .1.1.2h.1zm0-3.8c0 .1 0 .1.1.1l-.1-.1zm.3 2h-.1c0 .1 0 .3.1.5v-.5zm.4-2.2l.1.1c0-.1 0-.1.1-.1h-.2z"/></g><g><path class="st26" d="M47.5 129.9v-1h14.6v1h-6.7V148h-1.2v-18.1h-6.7zM69 128.9l7.5 19.1h-1.3l-2.4-6.1h-9.1l-2.4 6.1H60l7.7-19.1H69zm3.5 11.9L68.4 130h-.1l-4.2 10.8h8.4zM77.9 128.9h1.2V147h10.8v1h-12v-19.1zM91.3 128.9h1.2v11l12-11h1.5l-8.7 7.9 9.2 11.1H105l-8.6-10.3-4 3.6v6.7h-1.2v-19zM113 129.9v-1h14.6v1h-6.7V148h-1.2v-18.1H113zM137.1 148.4c-5.7 0-9.1-4.4-9.1-10s3.4-10 9.1-10c5.7 0 9.1 4.4 9.1 10s-3.4 10-9.1 10zm0-1c5 0 7.9-4.1 7.9-9s-2.9-9-7.9-9-7.9 4.1-7.9 9 2.9 9 7.9 9zM157.3 128.9v11.4c0 2.3.5 7.1 6 7.1 4.7 0 6.2-2.8 6.2-7.1v-11.4h1.2v11.4c0 4.5-1.7 8.1-7.4 8.1-6.8 0-7.2-5.6-7.2-8.1v-11.4h1.2zM186.5 134.3c-.1-3.3-2.6-4.9-6.1-4.9-2.2 0-5.2.9-5.2 4.1 0 3.1 3.3 3.6 6.5 4.2 3.3.7 6.5 1.5 6.5 5.3 0 4-3.8 5.4-6.7 5.4-4.5 0-8.1-1.8-8-6.8h1.2c-.2 4.2 3.1 5.7 6.9 5.7 2.3 0 5.5-1 5.5-4.4 0-3.2-3.3-3.8-6.5-4.5-3.2-.7-6.5-1.4-6.5-5.1 0-3.7 3.4-5.1 6.4-5.1 4 0 7.1 1.7 7.3 5.9h-1.3z"/></g></svg>