<svg version="1.1" id="Layer_1" xmlns="http://www.w3.org/2000/svg" x="0" y="0" viewBox="0 0 170.5 121.4" xml:space="preserve"><style>.st460{fill:#d81b5c}</style><path class="st460" d="M170.2 116.5L150.5 76c1.6-5 2.5-10.1 2.5-15.4 0-8.3-2.1-16.3-6.1-23.9-3.9-7.2-9.5-13.7-16.6-19.3-7-5.5-15.2-9.8-24.3-12.8C96.6 1.6 86.7 0 76.5 0S56.3 1.6 47 4.7c-9.1 3-17.2 7.3-24.3 12.8-7.1 5.6-12.6 12-16.6 19.3C2.1 44.3 0 52.4 0 60.7 0 69 2.1 77 6.1 84.6c3.9 7.2 9.5 13.7 16.6 19.3 7 5.5 15.2 9.8 24.3 12.8 9.4 3.1 19.3 4.7 29.5 4.7 13.3 0 26.3-2.7 37.8-7.9l52.4 7.9h.5c1.1 0 2.1-.5 2.7-1.4.7-1 .8-2.3.3-3.5zm-55.9-9.8c-.7-.1-1.3 0-1.9.3-10.8 5-23.2 7.7-35.9 7.7-38.5 0-69.8-24.2-69.8-54s31.3-54 69.8-54 69.8 24.2 69.8 54c0 4.9-.9 9.8-2.5 14.4-.3.9-.3 1.8.1 2.6l17.5 36-47.1-7z"/><path class="st460" d="M79.2 59.4h13c-.2 5.5-1.2 7.2-3 10.3-1.8 3.2-4.5 5.5-8.1 7l4.4 7.1C91.6 81.1 96 77 98.9 71.6c2.1-3.9 3.1-8.2 3.1-17.1V37.9H79.2v21.5zM48.8 59.4h13c-.2 5.5-1.2 7.2-3 10.3-1.8 3.2-4.5 5.5-8.1 7l4.4 7.1c6.1-2.7 10.5-6.8 13.4-12.2 2.1-3.9 3.1-8.2 3.1-17.1V37.9H48.8v21.5z"/></svg>