<svg version="1.1" id="Layer_1" xmlns="http://www.w3.org/2000/svg" x="0" y="0" viewBox="0 0 170.5 136.9" xml:space="preserve"><style></style><path d="M138.4 61.9c.6-.7 3.7-1.9 2.6.4 1 0 .8-1.4 1.7-1.6.6 1.5 7.5 2.3 12.2 1.1.7-.2 1.4-1.1 2-1.3 1.8-.3 4.1.3 6.3-.1 1.3-.3 2.6-1.1 3.3-.9 1.4.5 0 1.1.9 2.3 1.4 1.8 2.8-.3 2.9 2.1.1 1.2-3.6 3.1-4.8 4.1-2.5 2.1-3.1 3.3-4.5 4.5-3.8 3.4-9.9 7.4-14 11.1-4.3 3.9-7.5 7.7-11 11.2-2.4 2.4-5.6 3.8-8.2 6-2.6 2.2-5.1 4.6-7.5 6.7-5.2 4.3-9.5 9.2-14.4 13.7-1.3 1.2-3.2 1.9-4.4 3.2-2.2 2.2-6.3 7.5-9.3 9.9-1 .8-3.8 2.4-4.4 2.5-2.3.2-2.9-1.5-4.9-2.8-.6-.4-2.2-.7-3.3-1.4-1-.7-1.7-2.3-2.2-2.4-.8-.2-1.3 1-2 .6-1.7-.9-4.1-4.1-6.1-5.8-5.6-5-10-9-16.7-13.5-9.9-6.6-19.2-15-28.6-22.5-3-2.4-6.2-5.1-9.3-7.3-3.5-2.4-6.4-5.2-9.3-7-.1-.1-8.1-3.2-4.8-5.5 1.4-.8 2.5 1.1 4.1 1.8.2.1 1.2-.4 1.7-.3.7.2 1.2 1.3 1.6 1.4.6.1 2.8-.1 4-.2 5.1-.3 11.9-3.3 17.3-3.7 3.5-.2 9.1 1 10.3-1 .3-.5-.4-9.3-.6-10-.3-1.2-1.9-1.7-1.9-2.7 0-1.2 1.1-.3 1.7-1.6.4-.7.1-4.8-.4-6.3-.4-1-1.2-1.2-1.2-2s1.2-1.5 1.4-2.6c.3-1.7-.5-8-1.2-11.6-.5-2.5-2.1-6.7-1.9-11 .1-1.9.9-3.7 1.2-5.6.6-4-.6-6.9 1.7-9.9C41.1.4 49.6 3 55.3 2.5 68.7 1.3 84.8 1.2 97.4.4c7.6-.5 15-.9 21.5.1 2 .3 10.4 1.7 11.1 3 1.1 2-.4 8.6.2 12.6.6 4.1-.4 11.2.1 16.2.3 3-.4 7.2-.4 10.9 0 3.6-.8 7.6 0 9.3.3.7 2.6 1.3 2.5 2.7 0 1.5-1.2.4-2 1.3-.3.3-.8 3.2-.5 4 1.6 3.5 8.3.1 8.5 1.4zM79.5 7.8c2.1-.4 5.4.3 8-.7-2.6 0-7-1.4-8 .7zm30.3 3.1c4.2-.1 6.8.7 11.2 1.1 1.2-4.6-9.1-.7-11.2-1.1zm-63.9 0c3.4-.3 7.6.2 11.6-.9-3.9 1.3-9.7-2.7-11.6.9zm43.3 1.9c5.4.2 8.7 1.5 13.9.5-3.9-1.3-9.5-.8-13.9-.5zm14.2.5c2.5 1.9 8.6 1.1 10.6.4-3.2 0-6.6-.3-10.6-.4zm-40.3-.1c4.9-.1 9.8 1.6 14.2-.2-4.7-.3-10.8-1.1-14.2.2zm42.8 4.2c-7.2-1-17.5.7-25.2.4 6.9.8 18.4 0 26.8.6 0-1.2-1-1-1.6-1zm-36.7-.3c-5.6.1-11.4.2-16.6.4 2.4 1.8 4.9.4 6.9.3 7.1-.5 15.6.8 20.8.4-2.3-1.6-6.8-1.2-11.1-1.1zm37.6 3.6c-13.4-.6-28.4-1.2-42.7-.2 3.2-1.1 5.9.8 8.2 1 2.9.2 5.7-1 8.3-.7 13.8 1.5 27.5.8 40.3 1.1-4.3-1.7-9.2-1-14.1-1.2zm-5.8 6.4c0-.1 2.1-.6 2.3-.6 3.2-.1 15.9 3.1 17.2.9.3-.4 0-2.4.1-2.3-.7-.7-10-.7-11.2-.7-14.6-.8-38.3-2.2-53 .4 6.9 1.7 12.8 1.2 19.5 1 4.3-.1 9.3.3 13.2.1 1.3-.1 3.2-.3 4-.2.8.1 7.5.7 7.2 1.9-.5 2.1-5.1-.5-5-.5 1.6.1-2.7 1.2-5 .8-2.5-.4-4.8.1-8.3 0-7.5-.1-17.6-.3-23.8-.9-2.8-.3-2.7.3-5 .5-1.2.1-2.5-.6-3-.4-1.4.4-.4 1.5-1.7 1.3-1.2-.2-4.7-4.6-4.3.5 21 .8 39.6.6 61.2-.5-.7-.6-5.1.4-4.4-1.3zm16.9 7.6c.6.1.8-.3 0-.3-.6 0-1.1 0-1.7-.1-4-.8-8.6-.1-12.6-.1-15 0-33.1-1.9-48.7.6 21.5 1.1 42.3-.1 63-.1zm-73.1-2.3c1.9.3 4.6 1.2 6.3-.4-3.1.3-4.7-.6-6.3.4zm25.3 6.2c.5 0 1.1.9 2 1.1.5.1 2-.5 3-.6 1.6-.1 3.3.5 4 .5.7 0 1.4-.8 2.3-.9 4.1-.3 11.6 1.3 17.5 1 1.6-.1 3-.9 4.3-.8 3.7.2 5.3.6 8.3.6 1 0 9.7 1.2 10.3-.6.9-3-6.6-1.5-7.2-1.6-17-1.5-36 0-51.4 1.8 2.4 1.1 4.9-.5 6.9-.5zm-25.2.4c4.1-.6 8.4-1.1 12.3-1.9-2 .7-14.4-3.8-12.3 1.9zm.2 3c.8 2.4 4.7 1 7.2.9 3-.1 5.5-.6 7-.7.6 0 1.1.7 1.6.7 1.8 0 3.7-.7 5.7-.8 9.6-.2 20.2-.4 27.5-1.7-14.3-.3-35.5.8-49 1.6zm44.7 2.3c.6.1 1.4 1 1.9 1.1 1.4 0 4.2-1.3 6.7-1.1 1.1.1 3 1.1 3.6 1.1.9 0 2-.9 3.3-.9.8 0 1.7.7 2.6.8 2.7.2 6-.5 8.3-.4.8 0 5.4 1.4 6.3.2 2.1-3-5.4-2.5-7.8-2.6-8.9-.4-19.4.8-26.5 1-2.4.1-5.3-.9-7 .7 2.9.3 6-.5 8.6.1zm-14.6-.2c1.5.9 4.5 1.2 5.3-.5-1.7.6-4-.9-5.3.5zm-11.7 2.2c-2 .1-4.8-.1-8.6 0-2.6.1-8.6-.9-9.3 0-.1.2-.7 2.8-.1 3.6 1.2 2 7.6-.6 8.3-.7 3.1-.5 7.1.2 10.6 0 14-.7 29.2-1.7 43.1-2.8-10.6-1-29.3-.7-44-.1zm59.5 2.5c-1.2-1.2-4.9.6-6.3.8-11.4 1.4-31.4.5-42.5 2.8 7.4 1.2 15.8-2.1 20.5 1.7 1-.4-1.2-.3-.6-1.3 3 .2 6.4-1 10-.6.9.1 1.7 1.1 2.6 1.1 1 0 2.3-.8 3.3-.9 2-.1 8-.6 8.9-.3 1.8.5 2.3 3.3 4.6 2.1-1-.7.8-4.2-.5-5.4zM113.7 59c1.4 0 9.5.1 10-1.3.7-2-2.2-1.1-2-1.1-4.1.1-16.5.2-20.3 1.9 3-.1 7.6.6 12.3.5zm-20.2-.7c1.9 1.4 4.6.2 7.6-.4-3.2.1-5.4-.3-7.6.4zM48.1 62c18-.9 33.7.7 48.4-1.6-15.3-.4-34.8-.8-48.4 1.6zm68.4 1.1c1.2 0 6.4.1 6.6-.1 1.1-.9-1-1.8-.6-1.7-.8-.3-5.1 1.2-8 1-2.1-.1-4.3-.6-6 .1 2.7.2 4.9.7 8 .7zm-73.2 4c.3.4 8 .1 10.3 0 6.1-.3 13-.7 19.9-.9 6.7-.2 13.2-1.3 18.9-1.6 2.9-.2 7.5.9 9.6-.6-14.4.4-36.5-.8-51 .5-1.9.2-4.7 1-5.6.1-1.3-1.1.7-3.3-.5-4 .9.7-3.1 4.1-1.6 6.5zm47.9 1.4c9.8.2 18.5.6 27.5 0-7.8-.7-18.2-1.3-27.5 0zm-8.6 0c2.8-.3 5.5 1.1 8.3-.4-2.8 0-6-.8-8.3.4zm55.1 5.3c6-.3 16.9 2 18.3-3-6.6.5-13.4.7-18.3 3zm-55.2-2.3c13.9 0 24.2 1.4 37.1-.3-13 .3-26.9-1.2-37.1.3zM70 79c-2.9 0-9.9-.5-10.9-.1-3.1 1.4 3.9 1.2 4.6 1.2 4.2-.1 6.9.9 10.2 1 3.6.1 8.3-.2 13.2.1 4.2.3 9.2 1 12.5.8 3.9-.3 7.9.5 12.2.8 3.6.2 9 1 12.2.1.4-.1 1.3-1.2 2-1.6 1.6-.8 3.9-.7 4.4-2.2-18.3.1-39.3-.3-60.4-.1zm59.9 7.1c-1.5.1-3.8-.2-4 1.5 4.7-.8 10.9 1.5 13.3-1.2-3.6.3-5.9-.5-9.3-.3zm-48 1.9c-1.3.6-.4-.6-1.3-.7-7.1-.6-12.7.3-18.6 2 4.2.6 8.9-.3 12.6-.5 5.1-.4 10.6.4 15.6-.1 1.4-.1 2.6-.8 4-.9 5.9-.1 12 1.3 17.9-.7-9.8 1.5-22.6-2.6-30.2.9zm29.6 5c1 0 3.2 1.5 4.3.5.7-.6-.3-3.4-.2-3.3-.5-.4-2.9.1-4.6.2-11.1.2-22 1.3-32.5 1.8-5.7.3-12.6-.7-17.2 1 15.4 1.8 36.5-.8 50.2-.2zm10-1.6c2.6.2 6.7-.7 9.3.3.6.3 1.3 1.8 1.9 1.7.8-.1 1.5-1.6 1.7-2.3-2.6.2-9.6-1.6-12.9.3zm-44.2 4.4c-6.5-.8-14.8.5-21.5.6 8 3 17.1 1.8 25.8 1.6-.6-1.5-3-2-4.3-2.2zm42.6 3.5c1.2.2 3.9.9 5-.5-1.2-.3-4.8-1.2-5 .5zm-74.1-2c2.4 4.5 5-1.6 0 0zm30.7 3.4c-3.2.1-7-.8-9.6 1 7.8 1.4 13.9-1.3 20.5-.3 2.8.4 4.6-.3 7.3-.4 2.3-.1 5.2 1.7 7-.4-8.6-.7-17 0-25.2.1zm36.1 6.3c2.6.2 4.5-.7 5.7-2.8-3.3-.7-4.2 1.3-5.7 2.8zM73 104.2c.2 2.1-1.8 2-2.8 2.9 7.5 0 14.9-.4 22.9-.5 1.1 0 2.3-.9 3-.9.7 0 .9.8 1.6.7.7 0 1.3-.9 2-.9 2.4-.2 6 1.5 8-.7-13.1-1.5-23.5.2-34.7-.6zm13.1 4.8c5.6-.5 13.8 1.2 16.9-1.7-3.8.5-11.9.4-16.9 1.7zm16.3 6.9c-.7.5-.4 1.6-1.1 2-1.6 1-3.2-.8-5.3.8 2.5-1.3 5.3 1.3 5.9 1.2 2.3-.4 2.9-4.1 5.2-5.8-1.5.9-3.5 1-4.7 1.8zm-31.6 4.5c4.9-.1 12 2.1 17.2.3-5.5.1-11.7-1.5-17.2-.3zm6.5 3.9c.6.9 3.5 1.5 5.2 1.5 2.1 0 4.8-.7 5.7-1.5-3.8.4-7-.5-10.9 0zm11.1 3.7c3.1 1.3 5.6 1.3 6.4-2.1-3-.2-5 .6-6.4 2.1z" fill="#f8b01e" opacity=".75"/></svg>