<svg version="1.1" id="Layer_1" xmlns="http://www.w3.org/2000/svg" x="0" y="0" viewBox="0 0 141 221.5" xml:space="preserve"><style></style><path d="M86.8 48.3c.3-.8 2.3.1 2.6 0 2.6-.5 4.9-4.6 7.2-6.8.4-.4.9.1 1.4-.3 1.8-1.1 2.3-3.6 3.8-5.4 2-2.5 5.2-3.7 7.8-5.6 5.2-4 8.5-9.4 13.3-12.4.8-.5 1.6-.3 2.9-.8 1.9-.8 13.2-9.8 14.9-8.4 1.6 1.3-2.7 8.4-3.8 11.1-.6 1.5-1.4 3.2-2.1 4.8-1.2 3.1-1.4 6.6-2.4 9.1-.4 1-1.4 2.1-2 3.4-1.1 2.3-1.8 5.1-3.2 7.7-.6 1.2-2 2.2-2.3 3.1-.3.7.2 1.6 0 2.6-.5 2.6-2.9 6.1-3.8 8.8-.6 1.6-.7 3.3-1.2 4.8-1.3 3.7-4 6.7-4.7 9.7-.2 1 .1 1.9-.3 2.6-.4.7-1.5.5-2 1.1-.7.9-.4 4.2-1.8 6.5-.3.5-1.5.9-1.7 1.4-.2.5.3 1.6.3 2-.2 1.2-1.4 4.7-1.8 5.1-.3.4-1 .7-1.7.6-.9 3.3-1.4 6.6-2.4 10.5-1.9 7.3-5.7 14.1-7.9 20.8-.3.9 0 2-.3 2.9-.7 2.2-2.3 4.3-2.6 6.3-.1.5.4 1.2.3 1.7-.3.7-3.3 4.1-1.8 5.1.5.4 4.3-3 5.2-3.7 2.1-1.5 4-2.4 5.2-3.4.5-.4.8-1.5 1.2-1.7.7-.4 2.4-.1 3.7-.5 1.4-.4 2.5-1.4 3.4-1.7.4-.1 1.1.1 1.4 0 2-.7 5-3.7 6.6-3.6.8 0 3.9 2.2 4 2.6.7 3-3.2 2.2-4.6 3.1-2.3 1.4-4.7 9-6.4 11.6-1.8 2.7-3.9 5.8-5.8 8.8-2 3.1-4.9 5.5-6.4 7.9-3.3 5.5-6 11.7-9.6 17-1.9 2.7-3.6 5.4-5.2 8.2-1.7 2.9-4.2 5.5-5.2 7.9-.4 1 0 1.5-.3 2-.3.6-.9.9-1.4 1.7-.7 1-1 3-1.8 4.8-.9 2.1-2.5 3.7-2.6 4.5-.1 1.1.9 1.1.5 2-.8 1.8-1.4.3-2 1.1.1-.1-1.7 3.6-2.1 5.1-.1.6.2 1.5 0 2-.3.8-1.3 1.1-1.4 1.4-.6 1.6.9 3-1.2 3.7-2 .7-3.3-3-3.1-2.6-.7-1.6-.6-3.2-1.1-4.3-1-2.5-3.2-6.7-3.9-7.8-.7-.9-2.2-1.8-3.1-2.9.2.3-.3-1.4-.3-1.4-.1-.1-1.9-.3-2.6-1.2-.2-.3.2-1.3 0-2s-3-4-3.9-5.5c-5.6-8.1-12.8-15.8-19.4-23.9-2.6-3.2-5-6.7-7.6-9.8-4.8-5.5-8-9.3-12.4-15-1.2-1.5-2.3-3.3-3.1-4-1.1-1.1-4.3-2.7-4.5-3.5-.8-2.9 1-3.2 4.3-2.8-1.3-5.6 5.6.2 10.8.1 3.6-.1 7.4-.8 11.1.1 2.5.6 4.7 2.2 6.5 2.6 3.2.8 7.4-.2 9.4.4-1-4.5-1.4-9.4-3.3-13.7-.2-.5-.9-1.1-1.1-1.7-.6-1.8-.4-3.6-.8-5.4-.9-3.6-1.9-7.9-3.3-11.5-.9-2.3-2.4-6.3-3.3-9.2-2.4-7.1-3.7-14.9-6.3-21.8-.5-1.4-1.5-2.5-2-3.7-.6-1.5-.6-2.9-1.1-4.6-3.1-11-7.9-20.4-10.8-31.5-2.1-8.1-5.5-16.6-8-24.4-.4-1.3-.9-2.8-1.4-4C1.7 5.5-2.1.4 1.6 0c1-.1 1.4 1.8 2.8 3.2 2.7 2.7 8.1 6.6 10.5 9 .9.9 1 1.9 1.4 2.3.8.7 2.1 1.1 2.8 1.7 1.1 1 1.8 2.4 2.8 3.2.7.5 1.9.7 2.6 1.2 3.5 2.7 6 6.4 9 9.2 1.5 1.4 3.4 2.6 5.1 4.1 1.5 1.3 3 3.1 4.5 4.3.3.2 1.1-.2 1.4 0 1.3.7 2.1 2.7 3.4 3.7 1.2 1 2.8 1.3 4 2.3 1 .9 1.5 2.2 2.5 3.2 1 .9 2.6 1.3 3.7 2.3 1 .9 1.6 2.3 2.8 3.2 1.2.8 2.8 1.4 4 2.3 3.5 2.6 5.6 4.5 10.5 2.7.7-.3 1.3-.7 2-1.1 1.2-.8 2.3-1 3.7-2 2.3-1.3 5.9-3.6 5.7-6.5zM5.8 9.8c2.5-.6-.1-2.7-1.1-3.2.5 1 .4 2.4 1.1 3.2zm9 9.5c0-1.9-2.4-1.6-3.1-2.9-.2-.4.3-1.3 0-1.7-.8-1.1-2.7-2.1-4-2.3 2.3 2.4 2.6 6.7 7.1 6.9zm115 8.1c-.7 1.3-1.2 4.5.5 4 .5-.1 4.6-9.3 1.2-7.4 1 2.6-1.3 2.6-1.7 3.4zm-85.3 17C37.8 37.7 28.9 33 20.7 27.6c7 6.6 15.9 11.2 23.8 16.8zm83-11.3c-.2 5.9 3.9-.5 0 0zM25.4 40.8c1.4.8 1.7.9 3.1 1.5.4.2.7 1.1.8 1.2.9.4 2.3.1 3.1.6.4.3.2 1.1.6 1.4.8.7 3 1.4 4.3 2.3.6.4.8 1.5 1.1 1.7.6.3 1.6 0 2.3.3 3.2 1.4 6.3 4.7 8.8 6.4.8.6 1.8.9 2.6 1.5 2.8 1.9 7.6 5.1 9.4 5.5-2.6-2.9-6.6-4.1-9.6-6.4-.7-.5-1-1.5-1.7-2-1.9-1.3-4.1-2.2-6-3.5-1.9-1.3-3.3-3-5.1-4.3-.9-.7-2.2-.8-3.1-1.5-2.6-1.8-4.6-4.4-6.8-6.1-2.5-2-5.5-3-8.2-4.7.4 3.4 2.1 4.7 4.4 6.1zm81.4 6.9c-1.4-1.2-1.9-3.3-4.2-3.5 1 1.3 2.3 3.9 4.2 3.5zm-61.7-3c4.2 2.5 7.4 7.5 12.5 8.1-4.6-1.8-7-9-12.5-8.1zm76.5 7.7c.2-2.2 3-4.5 1.8-6.3-.8 2.1-2.2 3.7-1.8 6.3zm-8-3.8c3.1-.1 2.4 3.5 4.8 4 1.5-3.1-3.1-3.7-4.8-5.5v1.5zm-5.8 4.8c.4.6.3 1.4.8 2 .4.5 1.4.4 2 .9.8.7 1 2.8 2.6 2 .5-1.9-1.5-2.8-2.5-3.7-2.3-2.1-3.9-4.3-6.5-5.8-.2.1-.6 0-.6.3.8 2.2 3.2 2.7 4.2 4.3zm-72.2 2.7c1.1.1 1.8-2.1 3.1-.8-3.1-2.5-7.5-5.8-10.8-6.4 1.8 2.2 4.4 6.9 7.7 7.2zm4-3.4c4.2 2.8 7.6 6.6 12.8 8.4-4-3.9-9.3-6.5-14.5-9.9 0 1.3 1.1 1.1 1.7 1.5zm54.3 0c-1.3 1.2 4.2 4 5.1 4.6.6.4.7 1.4.8 1.4 1.1.5 2.9-.1 4 .6.5.3.6 2.3 1.7 2.9.3.1.9-.2 1.1 0 .1.1-.1.8 0 .9.3.2 1.1.1 1.4.3 1 .8 1.2 2.8 2.6 2 .3-1.7-1.4-2.1-2.3-2.9-2.7-2.6-5-5.7-8.8-7.2.1.8.3 1.3 0 1.7-2.2.7-3.6-6.3-5.6-4.3zm-31.8 6.8c.9.8 1.1 1.8 1.7 2.3 1 .8 2.5 1 3.4 1.7.7.6 1 1.8 1.7 2.3.5.3 1.5.1 2 .3 2.8 1.3 5.1 4.5 7.7 4.4-1.9-1.8-4.4-2.6-6.5-4.1-2-1.3-3.5-3.2-5.4-4.6-1.4-1-2.7-1-3.1-2.6-.6-2.2-4.4-4-5.1-5.2-.8 4.1 1.1 3.3 3.6 5.5zm-38.5-2.4c2.9-2.5 4.1 1.3 6.6 1.8-1.5-2.2-4.6-4.3-7.4-4.4.5.6.5 1.7.8 2.6zm21.6 4.8c-.4 0-1-.1-1.1.3.9 1.5 3.3 2.2 4.2 3.8 1.1 1.8 2.9 1.7 4.8 2.9.6.4.8 1.3 1.4 1.7 1.6 1.2 3.7 1.9 5.1 2.9.7.5 1 1.5 1.7 2 2.4 1.5 4.5 3.1 6.5 4.4.4.2 1.1.1 1.4.3.2.2.1 1 .3 1.1.7.7 2 .8 2.8.9-3.2-3-7.3-5.6-11-9-.6-.6-1-1.7-1.7-2.3-1.8-1.4-5.3-2.5-7.4-4.1-1-.7-2.4-1.5-3.1-2.3.3.4 0-3.3-1.7-2.3-.2.7 1.2 1.2.3 1.7-.6-1-1.4-.2-2-1.2 0-.8 1.2-.5 1.2-1.4-2.8-.8-4.8-4-8-3.5 2.4 1.1 4.9 2.1 6.3 4.1zm48.3-3.2c.4 1.5 1.8 2 3.1 2.6-.2-1.5-2-2.9-3.1-2.6zm-12.9.4s-3.1 2-3.2 1.7c2 1.3 4 2.5 6.3 2.4-2.2-.7-1.4-3.6-3.1-4.1zm12.6 5.6c-1.9-.9-2.5-4.7-5.7-3.5 1.9.9 3.5 3.7 5.7 3.5zm3.6 2c.7.6 1.7.5 2.3 1.2.2.2.3 1.2.6 1.4.3.2 1.1-.1 1.4 0 2.4 1.1 4.3 8.8 6.8 4.9.8-1.2-.3-.8-1.7-2-3.9-3.3-9.7-8.7-13.9-11.3 1.3 1.9 2.7 4.3 4.5 5.8zm12.9 3c-1.8-3.7-6.6-6-9.3-7.8 3.1 2.6 5.6 5.8 9.3 7.8zM73.2 65c.3.3.8-.5 1.1-.3.4.2.8 1.3 1.4 1.7 1.9 1.5 5 2.6 6.8 3.8 1.2.8 2 2.4 3.1 3.2.8.5 2 .4 2.6.9.9.7 1.1 2 2 2.6.8.5 2.1.2 2.8.6 1.2.7 1.2 2.9 3.4 2.3.2-1.7-2-1.4-2.8-2.3-.4-.4-.1-1.4-.5-1.7-.3-.3-1.2 0-1.7-.3-.8-.5-.9-2.3-1.7-2.9-1.1-.9-3.6-.9-4.6-1.8-2.6-2.4-4.9-4.1-7.9-6.1-2.1-1.4-3.3-3.7-6.5-2.6 1.6-.1 1.5 2.1 2.5 2.9zm-26.9 5.7c-2.2-1.6-5.3-3.1-7.7-4.7-1.1-.7-2.1-3.3-3.7-1.8 3.7 2.1 7.3 5.8 11.4 6.5zm47.9-.6c.6.7.6 1.7 1.4 2.3.4.3 1.4.3 1.7.6.8.8.9 2.1 1.7 2.9.2.2 1.2.2 1.7.6.9.6 3.3 4.9 4.8 4.3.5-.2.9-2.7.9-2.6-.2-1-3.8-3.6-4.8-4.3-3.9-3-8.6-7.2-12.8-8.4 1.4 1.6 3.7 2.8 5.4 4.6zm-55.4 3.1c.5.4.7 1.4 1.1 1.7.6.4 1.7.3 2.3.6.8.5 1 1.5 1.7 2 1.8 1.3 4.3 1.9 6.2 3.2 1.6 1.1 2.9 2.7 4.5 3.8.6.4 1.4.3 2 .6 1.2.6 2.5 2.6 3.4 2.9 3.7 1.1 4.1 3 7.1 4.1-3.8-4.8-10.3-6.9-13.3-12.4 0 .8 1.1 1.2.3 2-7.5-5.2-14.8-10.6-23-15.1 1.5 2.9 5.3 4.3 7.7 6.6zm36.8 3c-3.7-2.5-7.3-6.6-11.3-7.8 3.6 2.6 7.4 6.4 11.3 7.8zm-42.2-5.3c-1.3-.9-2.6-1.8-3.7-2.9.1 1.8 2.2 4.2 3.7 2.9zm66.2 9c-2.2-1.9-4.1-4.1-6.8-5.5 1.6 2.2 4.4 4.9 6.8 5.5zm-14.9.4c.5.5.5 1.5 1.1 2 .7.5 1.9.4 2.6.9.6.4.5 1.2 1.1 1.7 1.3 1.3 3.7 1.7 4.8 2.6.6.5.5 1.4 1.1 1.7.5.3 1.2 0 1.7.3 1 .7 2 3 3.7 2.3.2-.1 2.1-3.4 1.8-4.3-.1-.2-1.5-.9-2.3-.9-.5 0-.5 1-.9 1.1-3.1 1.3-5.5-2.6-7.4-3.8-4.3-2.9-10.3-6.7-13.9-9.3 1 2.6 4.5 3.4 6.6 5.7zm-35.5 5.9c.7.5 1.9.6 2.6 1.2.6.6.8 1.7 1.4 2.3.7.6 2.1.7 3.1 1.5 2 1.4 3.8 3.3 5.7 4.1.5.2 1.5 0 2 .3 1.5.8 2.5 2.5 4 3.2.6.2 1.5 0 2 .3.4.2.4 1.2.8 1.4.3.2 1.1-.2 1.4 0 1.4.8 2.3 2.9 4 2.6-.8-1.6-3-1.3-4-2.6-.2-.3 0-.9-.3-1.2-.2-.2-1 .2-1.1 0-.1-.1.1-.8 0-.9-1.1-.8-2.7-.7-3.7-1.5-2.2-1.6-2.1-4.2-4.5-5.2-.2 1.2 1.5 1.5.8 2.3-3.1-.4-2.9-3.5-4.5-4.6.1.7.6 1.2-.3 1.4-6.7-4.5-13.1-9.4-20.4-13.4 4 2.8 7.4 6.2 11 8.8zM40.1 83c-.6-1.5-1.8-2.4-3.4-2.9 1 1 1.9 3.2 3.4 2.9zm33.7-1.7c1.6 4.8 4-.5 0 0zm9.7 5.6c.8.7 2.2.6 2.8 1.2.3.2 0 .9.3 1.1.2.2.9-.1 1.1 0 1.2.6 1 2.1 1.7 2.9.8.9 2.6.5 2.3 2-.1.6-1.3.7-1.4 1.1 2.7 1.3 4.6 3.4 7.4 4.6.3-1.6 2.3-3.9-.2-4.9.3.1-1.8.9-1.2.8-2.5.2-4.3-4.2-6.2-5.8-1.9-1.6-4.1-2.2-4.8-4.1.2-.5 1.4 0 1.4-.6-.9-1.3-2.4 0-2.6 0-.5-.2-2.1-1.7-2.5-2.3-.9-1.5-1.9-1.4-3.4-1.7 1.7 1.6 3.5 4.2 5.3 5.7zm-12.3-1.6c1 .7 2.1 2.8 3.4 3.7.8.5 1.8.5 2.3.9.4.3.2 1 .6 1.4.2.2.9-.1 1.4.3.8.6 1.2 2.1 2 2.6.5.3 1.3.2 1.7.6 1.4 1.2 2.2 3.1 3.4 3.7.3.2.9-.2 1.1 0 1.1.8 1.9 2.6 3.1 3.2.3.1.9-.2 1.1 0 1.2.9 3.1 3.7 4 3.5.3-.1 1.2-1.9 1.2-2.3-.1-1.3-10-8.4-11.3-9.3-1.9-1.2-2.7-2-4-2.9-3.9-2.9-8.3-5.1-11.6-7.3-.6-.4-.6-1.7-1.7-1.2.7 2.5 1.5 1.8 3.3 3.1zm-6 3.4c.6.4 1.7.1 2.3.6.9.7 1.3 2.3 2.3 3.2 1.3 1.2 3.7 2.6 5.1 3.5 1.7 1.1 1.6 1.4 2.8 2.6.6.5 1.6.3 2 .6.4.3.7 1.6 1.4 2 .5.3 1 0 1.4.3.2.2 0 1 .3 1.1 1.3 1 3.4 1.8 4.8 2.9 2.3 1.8 5 5.7 1.4 5.2.1 1.5 1.9 3.8 3.4 3.2 0 0 1.9-4.4 1.8-4.8-.2-.6-3.1-2-3.4-2.3-3.8-3.8-7.6-7.6-12.4-11-1.7-1.2-3.7-1.7-5.4-2.9-3.4-2.4-6.9-5.9-10.5-7.3.7.3 2 2.6 2.7 3.1zm-10.1 6.4c2.5 1.6 5.9 2.3 8 3.8 1.2.9 1.4 3 3.4 2.6-.9-1.8-3.2-2.7-4.8-3.8-5.3-3.5-11.4-6.8-16.5-9.6 3.5 2.6 6.6 4.9 9.9 7zm32-3.1c-1.4-.9-2.8-3.2-4.2-3.2 1.5 1.2 2 4.4 4.2 3.2zm-48 2.9c.6-.9-1.4-3.1-2.5-3.5-.4 2.1 1.5 5.2 2.5 3.5zm15.7 4.2c.6.4 1.9-.1 2.6.3.1.1-.1.8 0 .9.7.6 2 1.8 2.8 2.3-.2-.1.8-.4 1.1-.3.2.1.7.9 1.1 1.2 1.6 1.1 3.4 1.7 4.8 2.6 2.8 1.8 5 4.4 7.4 5.8.8.5 2 .3 2.8.9.4.2.5 1.2.8 1.4 1 .9 2.6 1 3.7 1.8 2.5 1.6 4.2 4.7 6.5 4.6-10.8-9.5-22.8-17.8-36-24.9.6.6 1.8 3 2.4 3.4zm7.9 6.9c-2.6-1.6-5.9-4-8.5-4.7 2.7 1.5 5.2 4.8 8.5 4.7zm5.1 4.1c.8.4 2 2 3.1 2.6 1.6.9 2 1.5 3.1 2.3 3 2.4 6.8 3.8 9.1 6.1.4.4.7 1.4 1.1 1.7.8.6 4 1.3 4.3 2.3.2.8.2 2.6-1.7 2.6-1 0-1.8-2.3-3.4-3.5-.6-.5-1.9-.6-2.3-.9-.5-.3-.6-1.3-1.1-1.7-.3-.3-1.1-.1-1.4-.3-1.7-1-3.7-2.6-5.7-4.1-7.4-5.3-15.1-10.9-23.3-15.1 1.9 3.5 8.3 4.1 9.3 7.5-4.5-2.1-8.2-4.9-12.5-7.3 1.1 3.6 2.1 4.9 5.1 6.9 2.4 1.6 4.4 3 6.2 4.4 2.7 2 5.7 2.9 8.2 4.4 2.6 1.5 5 3.6 7.4 4.9.9.5 2.3.4 3.1.9.7.4 1 1.6 1.7 2 1.4 1 3.2.9 4.3 2-2.6-4.2-8.8-5.8-12.2-9.3-.2-.2-.1-1-.3-1.1-.7-.5-1.6-.2-2.3-.9-.1-.1-.1-1.3-.3-1.4-.3-.3-.8.4-1.1.3-.7-.2-1.9-2.2-2.3-2.3-.5-.2-1 .5-1.4.3-.1-.1-.1-1.2-.6-1.4-1.4-.8-2.5-.4-2.3-2 6.4 3.1 10.7 7.2 16.2 11.6.5-1.7 2 1.1 2.6 1.5.5.4 1.4.3 2.3.9 2.9 1.9 6.1 6.8 7.6 6.1.3-.1 1.4-3.8 1.2-4.8-.2-.9-2.9-3.2-3.7-3.8-6.7-4.9-16.8-11.2-23-14.8 1.4 1.3 3.3 2.5 5 3.4zm3.8-5.4c-.3-1.4-2.2-2.5-3.4-2 .9.9 1.6 2 3.4 2zm19 13.9c.8-3.5-3.5-4.7-5.6-6.3-2.7-2-5.1-4.9-7.9-5.5 4.4 4 8.7 8.1 13.5 11.8zm-38.3-3c5.7 3.3 11 7.5 16.2 10.7 1 .6 2.2.9 3.1 1.5 1.3.8 2 2.5 3.1 3.2.6.3 1.8.2 2.6.6 1.8.9 3.1 3.8 4.5 2.9-3.4-3.3-8.5-4.9-11-9-1.3 1.4-1.6-.6-2.6-1.2-.8-.5-1.9-.4-2.3-.6-.3-.2 0-.9-.3-1.1-.6-.5-1.9-.5-2.6-.9-.5-.3-.7-1.1-1.1-1.4-1.4-1-3.6-1.6-4.8-2.6-1.6-1.3-3.1-3.1-4.8-4.3-2.5-1.9-5.3-3.5-7.4-4.4.1 2 .1 2.6.5 4.3 2.8-1.1 4.1.7 6.9 2.3zm15.1 6.5c1 .6 2.1 3 3.1 3.2.2 0 .7-.8 1.1-.6 1.1.7.8 1.7 1.7 2.6 1.1 1.2 2.8.9 4.3 1.8 1.1.6 1.6 2.2 2.5 2.9.9.7 2.6.6 3.1 1.5.4.6-.2 1 .3 1.4.8.7 2.1.7 2.8 1.5 2.1-3.8-2.2-4.5-4.8-6-5.8-3.5-12.5-8.5-18.2-10.2.7 1.3 2.5.9 4.1 1.9zm-7.5 9.6c1.5 1 2.4 1.9 4 2.9 3.4 2 7.9 5.6 11.1 6.7-8-6.7-17.2-12.3-26.9-17.4 2.9 3.5 8 5.1 11.8 7.8zm-2.4 5.4c1.5 1 2.6 2.7 3.7 3.5 4.9 3.4 10.4 5.9 15 8.4.3-2.1-2.4-2-3.4-2.9-.5-.4-.6-1.4-1.1-1.7-.4-.3-1.3-.1-1.7-.3-.8-.4-.9-1.4-1.7-2-.4-.3-1.3-.1-1.7-.3-.4-.2-.2-.9-.6-1.1-.3-.2-.9.1-1.1 0-1.4-.7-2.2-2.4-3.4-3.5-1.3-1.1-3-1.4-4.5-2.3-2.5-1.5-4.7-3.9-7.7-4.4.6 3.4 5.6 4.8 8.2 6.6zm24 3.7c-2.5-1.7-5.4-4.5-7.9-5.2 2.7 1.4 4.8 5 7.9 5.2zM47.2 139c1.7.6 2.5 3 4.5 2.3-.8-1.5-.2-3.5-.8-4.3.2.2-2-.1-1.7-.6-.2 1.3-1.3 1.7-2 2.6zm57.4 6.9c.9-2.2 2.6-3.7 3.5-6-1-.2-2.1-.4-3.4-.3 1.5 2.9-3.2 4.8-.1 6.3zm-32.9-3.5c-1-.9-2.1-1.8-3.7-2 .2 1.6 2.8 2.9 3.7 2zM44 145.5c-2.2-2.3-5.7-3.4-9.1-4.7 2.4 2.3 5.5 3.7 9.1 4.7zm12.6 21c-1-.3-1.1-1.6-1.7-2.3-.9-.4-.2.9-1.1.6.2-1.1-.4-1.8-1.1-2.3-1-.7-2.9-.7-3.7-1.2-.2-.1-.4-1-.6-1.1-.9-.8-2.2-.8-3.4-1.5-4.1-2.3-8.3-5.6-13.1-7.6-2.1-.9-2.9-1.1-4.5-2-1.2-.7-2.5-.9-3.7-1.5-4.3-2-7.7-5.6-11.6-6.4.5 2.2 2.1 3.2 3.7 4 .5.3.9 1.3 1.7 1.7 1 .6 2.6.8 4 1.5 1.7.9 3.1 2.6 4 2.9.4.1 1.1-.2 1.4 0 1.1.6 1.5 1.7 2.5 2 2.7.8 2.9 1.8 4.8 2.9 2.2 1.2 4.8 1.7 6.8 2.9 1.8 1 2.7 2.3 4.8 2.9.7.2.7 1.2 1.1 1.4.6.3 1.4 0 2 .3.8.4 1.1 1.5 2 2 .9.6 2.1.6 3.1 1.2 4.8 2.7 9.3 6.7 13.9 8.1-.5-1.1-2.4-1.1-3.1-2.6-.3-.7 0-1.8-.3-2.3-1.3-2-1.7 1-3.1 0-.1-.9 1.1-1 .3-1.7-3.9 2.2-5-5.8-5.1-1.9zm-4.9-20.3c-2.2-.5-3.3-3.6-5.4-3.2 1 1.7 3.6 3.2 5.4 3.2zm22.6-.3c.1.1 1.1-.6 1.1-.6.5.1.9 1.3 2 2 1.2.8 3 1.3 3.7 1.8.2.1.3 1 .6 1.1.5.2 1.6-.2 2.3 0 .9.2 1.5 1.2 2.3 1.5 2.5.8 5.7.9 8.3 1.5-2.9-1.5-4.4-4.7-7.7-4.7-1.6 0-2.3 1.5-3.7.8-3.1-1.4-7.7-5.1-10.8-6.4.4.9.9 2.4 1.9 3zm-14.9 1.2c.4.3.7-.4 1.1-.3 1.3.5 2.6 2.6 4 3.5 1.3.8 3.1.8 4.3 1.8.6.5.8 1.6 1.4 2 .2.1 1.4-.2 2 0 1.3.5 3.4 3.2 5.7 4.3 2.1 1.1 5.4 1.3 5.1 3.5-.4 2.9-4.4-.3-4.8-.6.2 3.2 8.3 3.4 9.4 5.2.2.4-.3 1.5 0 1.7 1.9 1.4 4.3-.8 4-2.5-.2-1.3-4.5-3.9-6.2-4.9-9.5-5.9-20.1-12.7-28.9-17.5 0-.2-.2-.3-.3 0 1.4.5 1.7 2.7 3.2 3.8zm-7.4-1.5c.1.1 1-.1 1.1 0 1.7 1.1 3.4 4.2 5.1 5.2 1 .6 2.6.4 3.7.9.7.3 1.9 1.2 2.8 1.7 2 1.2 3.3 2.7 4.8 3.8.4.3 1.3.1 1.7.3 2 1 3.4 3 5.7 3.2-8.6-6.1-17.1-12.2-26.7-17.4.9.5.8 1.5 1.8 2.3zm-16.9 1.6c2.8 1.1 7.1 4.5 10.5 6.1.6.3 1.5 0 2 .3 1.3.7 2 2.1 3.1 2.6.3.2 1.1-.4 1.4-.3 2 .6 3.3 3.3 5.7 3.2.1-1.6-1.6-1.3-2.3-1.5-.8-.2-1.8-1.9-2.3-2-.4-.2-1.3.2-1.7 0-.2-.1-.1-1-.3-1.1-.8-.5-2.8.1-2.3-1.7 1 0 1.2.9 2.3 1.5.3.2 1.6.1 2 .3.5.3.6 1.4 1.1 1.7 1.1.7 3 .5 4 1.2s1.4 2.1 2.3 2.6c-.1-.1.4-.6.6-.6 1 .2 2.5 2.2 4 2.9.5.2 1.1-.2 1.4 0 .3.2.5 1.2 1.1 1.7.8.6 2.3.6 2.8 1.2.2.2.1 1 .3 1.1.6.4 1.6.1 2.3.6 1.4 1 2.4 2.9 4.5 3.2 0-2.6-2.5-2.5-4-3.5-2.2-1.5-3.7-3.5-5.9-4.9-1.4-.9-3-1.2-4.5-2-6-3.5-11.7-8.2-18.7-10.5-.6.6 2.1 1.6 1.1 2.6-1.2-.8-3.2-1.1-2.2-3.2-3.1 1.5-6.3-2.4-10.5-3-.3 1.7 1.3 1.1 2.2 1.5zm19.1 4.2c-.7-.1.5-.6.9-.6 1.2.9-.6 1.2-.6 1.4.1.4 1.4 1.5 2.3 1.2 1.9-.8-1.6-4-4.2-4 .3.7-1 1.5.3 1.4.9.1-.7-.8.3-.8.9.2.3 1.9 1 1.4zm27.4.5c-1.1-.9-2.1-1.9-4-2 .7 1.2 2.6 2.6 4 2zm14.3 4.5c-2.9.5-6.3-4.4-9.7-3.2.8 2.4 12.1 8 4.8 8.3 1.6 6.1 4.9-2.8 7.2-5.9.7-.9 2.5-2.2 1.7-3.1-1.9.9-2.1 3.5-4 3.9zm-32.9.8c-.2-.1.6-.4.9-.3.5.2.9 1.4.8 1.4.4.2 1-.6 1.4-.6-.5-.1 1.3.9 1.7 1.2 1.5 1.2 2.4 2.7 4 2-4.6-2.3-8.6-6.8-13.3-8.1.6.7 1.6 1 1.4 2.6 1.9-1 1.8.8 3.1 1.8zm-3.2 6.8c1.4.9 4.3 1.4 5.4 2.3.3.3.1 1.4.6 1.7.3.2 1.3-.1 1.7 0 .7.3.8 1.6 1.4 2 .6.4 1.6 0 2.3.3 1.4.7 1.8 2.7 3.4 2.6.8-2.4-1.9-2.4-3.1-3.2-.2-.1-.1-.8-.3-.9-3.7-2.5-9.2-4.7-13.1-7 .5.8 1 1.7 1.7 2.2zm22.8 5.7c.1.2-.2 1.1 0 1.4.5 1 1.7 1.8 2.8 1.2-1.2-3.8-5.1-6.5-8.5-7.2 1.5 2.1 4.3 2.7 5.7 4.6zm-30.4 7.6c.6.4.9 1.4 1.4 1.7.9.5 2.2.4 3.1.9.3.2.6 1 .8 1.2 1.2.8 2.7 1.6 4 2 .7.3 1 1.5 1.4 1.7.4.2.7-.4 1.1-.3.8.3 1.2 1.5 2 2 .6.4 1.7.2 2.3.6.9.6 1.2 1.7 1.7 2 .6.4 2 0 2.8.6.6.4.7 1.4 1.1 1.7 2.5 1.7 3.2-2.1 4.3-4 1.2-2 3.8-4.7 3.2-6.8-.5-1.7-1.8-.9-3.1-1.2-1.8-.4-2.9-2.6-4.8-2.3 3.2.7 2.4 4.8-1.5 3.4.5 2.3 4.3 2.4 1.9 5.2 1.9.2 2.7 3.1.5 3.4-1.2.2-5.3-3.6-6.8-4.6-7.1-4.9-15.9-9.4-22.1-12.8 1.2 3.4 3.5 3.4 6.7 5.6zm31.2-.2c1.3-.9-1.9-3-2.5-3.7-2.4 1.3.6 4.9 2.5 3.7zm-35.2 5.3c1.2-2.5-5.8-4.9-6.8-5.5 1.3.8 5.3 8.5 6.8 5.5zm6.2 8.1c1.1.8 3 1 4 1.8.4.3.4 1.2.8 1.4.3.2 1.2-.3 1.4-.3.5.2 1.9 1.2 2.8 1.7 1.1.6 2.2 1.2 3.1 1.7 1.7 1 3.8 3.8 5.7 2.3-3.1-2.2-6.7-3.5-9.9-5.2-1.3-.7-2.7-2.4-4-2.6-1.5-.3-.5.2-1.4-.9-1.6-1.9-4.7-2.7-6.5-4.1 1.4 1.1 2.3 2.9 4 4.2zm19 5.9c1.3-.6.3-3.4-1.7-2.6-2.1.9 1 2.9 1.7 2.6zm-8.9 5.6c.4.2 1.3 0 1.7.3.1.1 2.4 2.9 3.7 2 2.1-1.4-2.4-2.9-4-3.8-2.7-1.6-5.2-3.8-7.7-4.1 1.7 1.9 3.7 4.2 6.3 5.6zm-.6 6c1 1.8 5.2.9 3.4-1.1.1 2-2.8.5-3.4 1.1z" fill="#eb6661"/></svg>