<svg width="389" height="299" viewBox="0 0 389 299" fill="none" xmlns="http://www.w3.org/2000/svg">
<path d="M82.5099 187.496C82.5099 187.496 122.399 174.928 134.967 142.689C147.534 110.45 172.67 94.0577 146.988 60.7259C121.306 27.3941 107.645 1.71218 84.1492 0.0729156C60.653 -1.56635 7.64992 24.662 6.01066 55.8081C4.37139 86.9542 -14.7534 119.193 25.1355 157.443C65.0244 195.692 82.5099 187.496 82.5099 187.496Z" fill="#24A35B"/>
<path d="M117.299 143.418C107.099 128.482 123.856 97.8826 108.556 84.7685C93.2562 71.6543 93.9847 50.526 68.8493 62.5473C43.7138 74.5686 13.4784 94.2398 22.9497 121.197C28.9202 138.189 33.7344 157.93 42.8636 172.668C70.2535 193.233 82.5098 187.496 82.5098 187.496C82.5098 187.496 99.4417 182.159 114.718 169.524C119.18 160.846 122.211 150.611 117.299 143.418Z" fill="#FDC20F"/>
<path d="M106.211 149.315C106.211 149.315 106.336 149.03 106.177 148.939C106.062 148.873 105.936 148.929 105.823 149.048C105.386 149.672 104.974 150.309 104.473 150.887C103.386 152.211 102.362 153.566 101.161 154.776C98.8944 157.299 96.3224 159.509 93.6712 161.534C91.0166 163.563 88.1483 165.272 85.2105 166.739C83.7424 167.476 82.2341 168.113 80.7258 168.701C79.9636 168.966 79.2081 169.256 78.4481 169.477C78.0683 169.601 77.6918 169.711 77.3194 169.807C77.1329 169.858 76.9438 169.912 76.7695 169.949C76.5954 169.989 76.3943 170.04 76.2939 170.051L78.1618 176.527C78.4729 176.416 78.6767 176.325 78.9094 176.228C79.1435 176.134 79.355 176.034 79.5707 175.935C80.0059 175.741 80.4284 175.538 80.8386 175.326C81.6769 174.92 82.4669 174.46 83.2695 174.021C84.8397 173.092 86.369 172.123 87.8259 171.064C90.7418 168.954 93.4744 166.637 95.9081 164.054C98.3379 161.475 100.6 158.764 102.486 155.816C103.497 154.393 104.314 152.845 105.179 151.346C105.576 150.7 105.884 149.999 106.212 149.314L106.211 149.315Z" fill="#98522F"/>
<path d="M46.6517 138.386C46.6517 138.386 46.5265 138.102 46.6859 138.011C46.8007 137.945 46.927 138 47.0399 138.12C47.4767 138.744 47.8889 139.381 48.3898 139.958C49.4764 141.283 50.5012 142.638 51.7022 143.847C53.9684 146.371 56.5404 148.581 59.1916 150.605C61.8462 152.634 64.7145 154.344 67.6523 155.81C69.1204 156.548 70.6287 157.185 72.1371 157.773C72.8992 158.037 73.6548 158.327 74.4147 158.549C74.7946 158.673 75.171 158.782 75.5434 158.878C75.7299 158.929 75.919 158.983 76.0933 159.021C76.2674 159.061 76.4685 159.112 76.5689 159.123L74.701 165.598C74.3899 165.488 74.1861 165.396 73.9534 165.3C73.7193 165.205 73.5078 165.105 73.2921 165.007C72.8569 164.812 72.4344 164.609 72.0242 164.397C71.1859 163.992 70.3959 163.532 69.5933 163.093C68.0231 162.164 66.4938 161.194 65.0369 160.135C62.121 158.026 59.3884 155.709 56.9547 153.125C54.5249 150.546 52.2626 147.836 50.3767 144.887C49.3656 143.465 48.5486 141.916 47.6838 140.418C47.2863 139.771 46.9787 139.071 46.6506 138.386L46.6517 138.386Z" fill="#98522F"/>
<path d="M92.2376 125.166C92.2376 125.166 92.3013 125.022 92.2203 124.975C92.1618 124.942 92.0976 124.97 92.0402 125.031C91.8181 125.348 91.6084 125.672 91.3537 125.966C90.8011 126.639 90.2799 127.329 89.6691 127.944C88.5165 129.227 87.2085 130.351 85.8601 131.381C84.5101 132.412 83.0513 133.282 81.5572 134.028C80.8106 134.403 80.0435 134.727 79.2764 135.026C78.8888 135.16 78.5045 135.308 78.118 135.421C77.9248 135.483 77.7334 135.539 77.544 135.588C77.4491 135.614 77.353 135.641 77.2643 135.66C77.1758 135.681 77.0735 135.707 77.0225 135.712L77.9724 139.006C78.1306 138.949 78.2343 138.903 78.3526 138.854C78.4717 138.806 78.5792 138.755 78.6889 138.705C78.9103 138.606 79.1252 138.503 79.3338 138.395C79.7601 138.189 80.1619 137.955 80.5701 137.731C81.3686 137.259 82.1464 136.766 82.8873 136.227C84.3703 135.154 85.76 133.976 86.9978 132.662C88.2335 131.351 89.3841 129.972 90.3432 128.472C90.8574 127.749 91.2729 126.962 91.7128 126.199C91.9149 125.871 92.0713 125.514 92.2382 125.166L92.2376 125.166Z" fill="#98522F"/>
<path d="M59.0425 108.492C59.0425 108.492 58.9719 108.332 59.0617 108.28C59.1264 108.243 59.1974 108.275 59.261 108.342C59.507 108.693 59.7391 109.052 60.0212 109.377C60.6331 110.123 61.2103 110.886 61.8866 111.567C63.1628 112.988 64.6112 114.233 66.1042 115.373C67.5991 116.516 69.2144 117.478 70.8688 118.304C71.6955 118.72 72.5449 119.078 73.3943 119.409C73.8235 119.558 74.249 119.722 74.677 119.847C74.8909 119.916 75.1029 119.978 75.3126 120.032C75.4176 120.061 75.5241 120.091 75.6223 120.112C75.7203 120.135 75.8336 120.163 75.8901 120.17L74.8382 123.816C74.663 123.754 74.5482 123.703 74.4172 123.648C74.2854 123.595 74.1663 123.539 74.0448 123.483C73.7997 123.374 73.5618 123.259 73.3308 123.14C72.8587 122.912 72.4138 122.653 71.9618 122.405C71.0776 121.882 70.2164 121.336 69.3959 120.74C67.7539 119.552 66.215 118.247 64.8445 116.792C63.4762 115.34 62.2021 113.813 61.1402 112.153C60.5707 111.352 60.1106 110.48 59.6236 109.636C59.3998 109.272 59.2266 108.877 59.0418 108.492L59.0425 108.492Z" fill="#98522F"/>
<path d="M0.546387 278.708C0.546387 286.581 37.707 279.387 103.278 282.545C128.373 283.754 260.943 298.42 290.551 298.42C397.522 298.42 387.92 289.594 387.92 278.708C387.92 267.821 301.204 258.995 194.233 258.995C87.263 258.995 0.546387 267.821 0.546387 278.708Z" fill="#E8EDFF"/>
<path d="M274.702 267.689C270.798 260.947 266.658 249.71 284.106 251.825C284.106 251.825 268.059 237.138 282.496 237.138C301.884 237.138 300.535 249.584 300.535 249.584C300.535 249.584 316.964 235.396 319.951 249.584C319.951 249.584 353.556 227.181 352.063 256.305C352.063 256.305 364.104 252.137 365.209 260.942C365.9 266.439 361.499 271.266 355.96 271.347L283.016 272.411C279.593 272.46 276.418 270.651 274.702 267.689Z" fill="#1D864B"/>
<path d="M72.1158 269.46H79.7896C81.2734 269.46 82.4588 268.02 82.3977 266.292L76.6023 102.434C76.568 101.465 75.3373 101.465 75.3031 102.434L69.5076 266.292C69.4465 268.02 70.6319 269.46 72.1158 269.46Z" fill="#AE5F37"/>
<path d="M141.416 257.836C139.496 265.501 132.329 270.917 124.065 270.917H19.9596C19.9596 270.917 -2.57955 270.917 2.25026 251.245C5.68299 237.264 38.7995 246.469 57.6711 252.964C64.4672 255.304 71.9602 251.96 74.4131 245.479C78.9804 233.413 88.1883 216.318 104.481 212.632C130.24 206.803 119.776 220.646 116.556 230.846C113.336 241.046 131.85 226.474 139.9 237.403C143.844 242.758 143.15 250.912 141.416 257.836Z" fill="#24A35B"/>
<path d="M153.554 219.977C153.554 219.977 157.594 235.769 157.371 248.002C157.149 260.235 155.467 267.352 155.467 267.352H150.365C150.365 267.352 152.515 240.996 145.991 232.877C139.467 224.759 153.295 222.646 153.554 219.977Z" fill="#0062B8"/>
<path d="M153.554 219.977C153.554 219.977 154.925 226.427 148.03 230.431L140.214 271.356H135.441L138.429 222.424L153.554 219.977Z" fill="#007AE6"/>
<path d="M163.525 202.061L159.798 210.523C159.721 210.699 159.546 210.813 159.353 210.813H157.096C156.188 210.813 155.572 209.891 155.919 209.052L158.906 201.839C159.123 201.316 159.659 200.999 160.222 201.061L163.133 201.381C163.46 201.417 163.658 201.76 163.525 202.061Z" fill="#606080"/>
<path d="M138.429 187.687C138.429 187.687 130.57 196.703 133.239 205.513C135.908 214.323 138.429 222.504 138.429 222.504C138.429 222.504 145.622 226.699 153.554 220.197C153.554 220.197 150.601 193.163 146.895 189.99C143.19 186.817 138.429 187.687 138.429 187.687Z" fill="#DC50C5"/>
<path d="M141.128 180.152L138.429 188.58C138.429 188.58 139.992 193.764 144.029 191.985L145.991 186.254L141.128 180.152Z" fill="#997658"/>
<path d="M151.842 184.333L153.051 181.291C154.144 178.54 152.846 175.484 150.169 174.506L148.969 174.067C146.37 173.117 143.434 174.483 142.351 177.145L141.128 180.152C140.497 181.704 140.257 186.68 144.259 188.225C148.261 189.77 151.239 185.851 151.842 184.333Z" fill="#B38B66"/>
<path d="M142.891 178.018C142.891 178.018 148.931 173.544 153.411 179.759C153.411 179.759 155.019 173.52 147.457 172.115C139.895 170.709 140.239 178.706 140.239 178.706L142.891 178.018Z" fill="#212A55"/>
<path d="M148.353 175.846C148.353 175.846 145.629 175.917 144.987 178.019L144.256 179.912L142.249 179.643L143.093 176.835C143.093 176.835 143.441 175.84 143.631 175.776C143.821 175.712 148.353 175.846 148.353 175.846Z" fill="#212A55"/>
<path d="M142.122 180.92C143.175 180.92 144.029 180.066 144.029 179.012C144.029 177.959 143.175 177.105 142.122 177.105C141.068 177.105 140.214 177.959 140.214 179.012C140.214 180.066 141.068 180.92 142.122 180.92Z" fill="#B38B66"/>
<path d="M143.443 202.848L138.429 206.432C138.429 206.432 147.124 218.579 153.497 212.805C159.869 207.03 159.073 210.578 161.263 208.605C163.454 206.631 165.644 205.237 161.263 204.242C156.882 203.246 154.401 208.388 150.364 208.605C146.328 208.822 143.443 202.848 143.443 202.848Z" fill="#B38B66"/>
<path d="M140.214 271.356C140.214 271.356 151.803 275.656 146.895 276.398C141.987 277.139 135.441 273.877 135.441 273.877V271.356L140.214 271.356Z" fill="#AE5F37"/>
<path d="M155.467 267.352C155.467 267.352 170.161 270.615 160.819 271.356C151.478 272.097 149.698 269.354 149.698 269.354L150.408 266.768L155.467 267.352Z" fill="#98522F"/>
<path d="M219.671 174.273L257.538 178.491C281.403 181.149 302.354 163.301 302.354 140.312V104.636C302.354 80.2059 278.845 61.9747 253.865 67.0331L215.998 74.7009C197.429 78.4611 184.145 94.1434 184.145 112.304V136.095C184.145 155.603 199.419 172.018 219.671 174.273Z" fill="#0F8FFF"/>
<path d="M171.332 201.452C180.87 199.12 199.998 189.975 198.352 154.164L221.302 160.721C221.302 160.721 212.73 212.149 171.372 203.611C170.214 203.372 170.184 201.733 171.332 201.452Z" fill="#0F8FFF"/>
<path d="M242.555 133.968C247.107 133.968 250.797 130.289 250.797 125.751C250.797 121.214 247.107 117.535 242.555 117.535C238.003 117.535 234.312 121.214 234.312 125.751C234.312 130.289 238.003 133.968 242.555 133.968Z" fill="white"/>
<path d="M215.484 133.968C220.036 133.968 223.726 130.289 223.726 125.751C223.726 121.214 220.036 117.535 215.484 117.535C210.932 117.535 207.241 121.214 207.241 125.751C207.241 130.289 210.932 133.968 215.484 133.968Z" fill="white"/>
<path d="M269.626 133.968C274.178 133.968 277.869 130.289 277.869 125.751C277.869 121.214 274.178 117.535 269.626 117.535C265.074 117.535 261.384 121.214 261.384 125.751C261.384 130.289 265.074 133.968 269.626 133.968Z" fill="white"/>
<path d="M235.033 250.492H230.18V272.738H235.033V250.492Z" fill="#AE5F37"/>
<path d="M213.462 211.663H208.608V272.738H213.462V211.663Z" fill="#98522F"/>
<path d="M299.21 272.738L304.063 272.738L304.063 250.492L299.21 250.492L299.21 272.738Z" fill="#AE5F37"/>
<path d="M274.133 272.738L278.986 272.738L278.986 211.663L274.133 211.663L274.133 272.738Z" fill="#98522F"/>
<path d="M282.627 216.314H202.541V223.595H282.627V216.314Z" fill="#FDC20F"/>
<path d="M282.627 225.819H202.541V233.1H282.627V225.819Z" fill="#FDC20F"/>
<path d="M282.627 235.392H202.541V242.672H282.627V235.392Z" fill="#FDC20F"/>
<path d="M306.153 248.874H208.473V253.104H306.153V248.874Z" fill="#FDC20F"/>
<path d="M230.146 248.874H208.473V253.104H230.146V248.874Z" fill="#EB6600"/>
<path d="M329.357 74.616C329.357 74.616 320.809 76.5704 318.507 71.9858C316.206 67.4011 312.506 66.0677 312.506 66.0677C312.506 66.0677 326.542 60.8072 329.357 74.616Z" fill="#FDC20F"/>
<path d="M348.253 147.061C348.253 147.061 350.838 137.466 364.622 135.312C364.622 135.312 362.34 137.897 361.328 142.635C360.315 147.373 352.992 149.763 348.253 147.061Z" fill="#FDC20F"/>
<path d="M305.269 200.975C305.269 200.975 307.853 191.38 321.637 189.226C321.637 189.226 319.356 191.81 318.343 196.549C317.33 201.287 310.007 203.677 305.269 200.975Z" fill="#24A35B"/>
<path d="M16.7093 203.725C16.7093 203.725 14.5868 195.235 29.4442 192.051C29.4442 192.051 28.9136 209.562 16.7093 203.725Z" fill="#24A35B"/>
</svg>
