<svg width="550" height="461" fill="none" xmlns="http://www.w3.org/2000/svg"><g clip-path="url(#clip0)"><path d="M417.963 80.483c.366-2.263-2.584-6.822-5.811-6.743-1.279.026-2.541.37-3.82.3-3.41-.168-5.185-2.862-6.499-5.089-1.313-2.227-3.932-4.762-7.264-4.199-4.794.81-7.204 7.21-12.65 2.403-3.567-3.142-3.828-7.535-7.865-10.58-2.766-2.096-7.273-3.328-10.988-2.175-4.846 1.505-6.647 6.373-11.806 7.218-5.716.933-9.822-3.46-11.649-6.637-2.21-3.847-3.036-8.01-4.933-11.928-1.757-3.626-5.29-8.486-11.614-8.38-5.351.088-7.709 3.512-10.327 6.232-3.411 3.54-10.51 16.242-18.47 14.71-3.106-.599-4.655-3.09-7.456-4.208-4.498-1.796-10.24.67-12.946 3.777-2.714 3.107-3.784 6.848-6.847 9.788-.792.757-1.757 1.48-3.001 1.822-4.281 1.189-8.265-2.464-12.85-2.728-3.167-.185-6.099 1.32-7.917 3.15-1.819 1.832-2.81 4.006-4.202 6.013-.392.564-.827 1.127-1.532 1.505-2.009 1.092-4.837.168-7.299-.255-6.081-1.056-12.998 1.77-14.712 6.013h202.458v-.01zm33.008-67.06c.087-.51-.592-1.55-1.322-1.532-.296.009-.575.08-.87.07-.775-.035-1.184-.651-1.479-1.153-.296-.502-.896-1.082-1.653-.96-1.088.186-1.636 1.638-2.88.546-.809-.712-.87-1.716-1.792-2.411-.627-.476-1.653-.757-2.497-.493-1.105.343-1.514 1.452-2.688 1.646-1.297.211-2.236-.792-2.654-1.514-.505-.88-.687-1.823-1.122-2.712-.4-.827-1.201-1.927-2.645-1.91-1.218.018-1.758.801-2.349 1.417-.774.802-2.393 3.698-4.202 3.346-.705-.133-1.062-.705-1.697-.96-1.026-.405-2.331.15-2.949.863-.618.704-.861 1.558-1.557 2.227a1.619 1.619 0 01-.679.413c-.974.273-1.879-.563-2.923-.624-.722-.045-1.383.299-1.801.713-.418.413-.635.906-.957 1.364a1.086 1.086 0 01-.348.343c-.461.247-1.105.035-1.662-.061-1.383-.238-2.958.405-3.349 1.364h46.075v.018zM249.505 41.178c.226-1.382-1.575-4.155-3.549-4.11-.783.017-1.549.22-2.332.184-2.079-.105-3.158-1.743-3.967-3.098-.801-1.356-2.401-2.905-4.429-2.562-2.923.493-4.393 4.393-7.716 1.47-2.175-1.919-2.341-4.595-4.803-6.452-1.688-1.277-4.437-2.034-6.699-1.33-2.958.925-4.054 3.883-7.203 4.402-3.489.572-5.995-2.113-7.108-4.05-1.349-2.35-1.853-4.885-3.011-7.28-1.07-2.209-3.227-5.175-7.081-5.114-3.263.053-4.698 2.148-6.299 3.803-2.079 2.157-6.412 9.903-11.267 8.97-1.896-.36-2.836-1.884-4.541-2.57-2.749-1.092-6.247.413-7.9 2.306-1.653 1.893-2.305 4.181-4.176 5.968-.487.467-1.07.898-1.827 1.11-2.61.721-5.037-1.497-7.838-1.664-1.932-.115-3.724.8-4.829 1.919-1.105 1.118-1.714 2.438-2.566 3.67-.235.344-.505.687-.931.916-1.227.669-2.95.106-4.455-.158-3.715-.643-7.925 1.073-8.978 3.67h123.505z" fill="#EDEDED"/><path d="M452.702 222.679c-.313-2.064-2.253-3.503-4.38-3.191-2.065.313-3.504 2.253-3.191 4.38.563 3.566 1.251 14.704-2.628 19.208-.814 1.002-1.815 1.565-3.129 1.815l.376-21.211c.062-3.065-2.441-5.631-5.507-5.631-3.128 0-5.568 2.566-5.506 5.631l1.001 40.294c-1.314-.188-2.377-.813-3.253-1.814-3.817-4.505-3.129-15.642-2.628-19.209.312-2.064-1.127-4.067-3.192-4.379-2.064-.313-4.067 1.126-4.379 3.191-.251 1.751-2.503 17.393 4.317 25.34 2.378 2.752 5.506 4.317 9.26 4.567l.438 17.519h8.322l.626-36.665c3.629-.313 6.758-1.814 9.01-4.505 6.883-8.008 4.693-23.588 4.443-25.34zM96.61 256.842c-.188-1.314-1.44-2.253-2.753-2.003-1.314.188-2.253 1.439-2.003 2.753.376 2.253.814 9.386-1.689 12.264-.5.625-1.189 1.001-2.002 1.126l.25-13.515c.063-1.939-1.564-3.566-3.504-3.566a3.489 3.489 0 00-3.504 3.629l.626 25.715a3.4 3.4 0 01-2.065-1.126c-2.44-2.878-2.002-9.948-1.69-12.263.188-1.314-.688-2.566-2.002-2.753-1.314-.188-2.565.688-2.753 2.002-.188 1.126-1.564 11.074 2.753 16.142 1.502 1.752 3.504 2.753 5.882 2.879l.25 11.199h5.319l.375-23.338c2.315-.187 4.318-1.188 5.757-2.878 4.317-5.193 2.94-15.204 2.753-16.267z" fill="#BDBDBD"/><path d="M275.73 461h-1.46 1.46z" fill="url(#paint0_linear)"/><path d="M549.998 364H.002a35.369 35.369 0 01-.002-.356c0-53.768 123.122-97.355 275-97.355s275 43.587 275 97.355l-.002.356z" fill="url(#paint1_linear)"/><path d="M318.925 245.642s-.188 9.385 0 10.323c.125.939-3.692 6.445-5.256 6.194-1.564-.25-4.693-.75-5.131-1.313-.438-.501-.25-1.752-.062-2.879.187-1.126 1.314-11.324 1.314-11.825 0-.5 7.383-1.94 9.135-.5z" fill="#FFD3BC"/><path d="M312.856 255.402c-1.94 1.064-3.066 4.255-3.317 4.317-.25.063-.813-.062-.813-.375s.062-1.377-.25-1.377c-.376 0-.751 1.752-.814 4.318-.062 2.565-1.001 8.634 0 9.385.626.5 6.257 3.441 6.445 3.879.188.375-.125 3.191.375 3.629.501.438 1.565 1.502 2.441 1.564.876.063 5.944.563 8.322 0 2.377-.563 5.381-1.689 5.506-2.002.062-.313-.626-7.07-1.377-7.884-.751-.813-6.194-8.321-6.632-9.009-.438-.689-.751-2.315-.751-3.254 0-.938-.876-3.066-2.44-3.566-1.815-.626-5.256-.438-6.695.375z" fill="#545454"/><path d="M261.798 251.022s0 5.444-.188 6.382c-.125.939 3.692 6.445 5.256 6.195 1.564-.251 4.693-.751 5.131-1.314.438-.501.25-1.752.062-2.878-.188-1.127-1.189-7.383-1.189-7.947.063-.438-7.32-1.814-9.072-.438z" fill="#FFD3BC"/><path d="M266.803 130.642c-2.19 8.071-6.382 35.601-6.382 49.053 0 13.39-1.314 47.552-1.314 52.745 0 5.193-.563 18.082.813 18.77 1.314.688 4.443 2.691 8.698 2.002 4.255-.688 5.381-3.378 5.506-5.818.125-2.441 1.126-20.147 2.127-26.967 1.002-6.82 4.568-19.959 6.946-28.469 2.378-8.446 7.821-25.465 9.26-25.402 1.439.062 10.512 37.353 11.263 39.48.751 2.127 2.19 32.16 2.315 34.663.063 2.503 0 4.943 1.565 5.944 1.564 1.001 6.444 3.566 8.947 3.754 2.503.188 4.192-3.817 4.693-5.068.438-1.189 1.314-41.358 1.001-52.37-.313-11.011.563-31.534.063-38.228-.501-6.695-2.128-21.023-3.191-24.089-1.127-3.003-52.31 0-52.31 0z" fill="#D9DBE4"/><path d="M251.223 37.103c2.127-2.378 11.951-13.452 13.953-13.828 1.94-.375 6.695-1.251 7.759-2.377 1.064-1.127 5.569-15.204 3.754-17.77-1.752-2.565-8.634-1.814-10.699 2.503-2.065 4.38-2.002 6.632-5.381 9.636-3.442 3.003-18.396 15.204-19.773 16.455-1.376 1.251 1.377 7.258 3.567 8.259 2.127 1.126 6.82-2.878 6.82-2.878z" fill="#FFD2C7"/><path d="M278.441 40.482c-5.068 1.063-13.39 1.94-16.143 2.815-2.753.876-13.64 4.693-13.578 3.066.063-1.627 5.068-8.76 4.13-9.51-.876-.751-6.257-1.627-7.133-2.753-.876-1.127-2.128-3.817-3.317-3.504-1.188.313-15.329 13.515-14.391 18.52 2.253 11.888 35.666 20.522 36.416 25.715.751 5.194-2.565 54.872-.75 56.687 1.814 1.814 21.211 8.822 30.91 9.448 9.761.625 26.843-2.816 27.781-5.381.939-2.566-4.755-51.932-4.067-51.932.688 0 .876 15.517 8.26 19.584 4.88 2.628 11.638-.062 12.952-1.564 1.314-1.439-4.63-22.149-7.258-29.094-2.691-6.945-5.194-21.336-11.263-26.466-6.007-5.13-14.579-4.255-17.52-5.444-2.941-1.188-12.765-.313-15.268-.625-2.44-.125-9.761.438-9.761.438z" fill="#03A84E"/><path d="M341.388 92.413s-8.697 2.628-9.386 3.504c-.688.876-1.877 4.504 0 6.006 1.877 1.502 3.942 2.628 6.195.876 2.252-1.752 4.255-4.067 5.569-4.38 1.314-.313 5.131.25 6.757-.375 1.627-.626 4.693-12.89 3.442-13.64-1.252-.688-12.577 8.009-12.577 8.009z" fill="#EAC0B5"/><path d="M278.504 38.792c-2.816-.563-8.197-5.881-8.697-11.262-.501-5.256-4.318-19.96 9.072-25.465 12.577-5.193 25.529.125 27.407 6.57 1.752 5.944-13.015 6.256-18.459 10.135-5.444 3.88-5.756 6.445-7.133 5.882-1.377-.688-2.19 14.14-2.19 14.14z" fill="#2C2628"/><path d="M278.254 28.343c-.188 2.378-.751 14.015.25 15.705.939 1.564 2.565 6.131 9.01 5.944 6.445-.188 10.575-6.633 10.95-7.383.376-.751-.375-10.074-.375-11.575 0-1.565-8.635-5.256-12.139-5.131-3.504.063-7.509.188-7.696 2.44z" fill="#EAC0B5"/><path d="M278.879 28.343c.751 0-.125 4.38 1.189 5.82 1.314 1.438 7.008 9.009 13.078 8.258 5.256-.626 4.505-5.13 5.256-8.885.688-3.378 2.878-3.691 3.629-12.45.313-3.38 1.877-8.76-1.064-9.698-2.941-1.002-14.078-3.63-16.832 0-2.753 3.628-3.003 12.263-4.442 11.2-1.439-1.127-4.443-6.57-6.257-3.63-1.815 2.94 1.564 9.51 5.443 9.385z" fill="#FFD2C7"/><path d="M325.557 73.392l-17.582 22.274c-.939 1.19-.063 2.878 1.377 2.816l32.537-.563a1.66 1.66 0 001.376-.688l16.644-22.212c.813-1.064 0-2.565-1.314-2.565l-31.724.25c-.5 0-1.001.25-1.314.688z" fill="#F28EB8"/><path d="M353.402 82.34c-1.69.187-4.193 1.126-4.193 2.002 0 .876 2.003 1.126 2.566 1.251.563.063 1.251.25 1.063.5-.187.25-.625 1.627-1.752 1.44-1.126-.25-5.944-.313-6.882-.313-.939 0-2.003.626-2.128 1.314-.062.688-.25.813-.813.876-.563.062-1.564.563-1.564 1.439 0 .876 2.19 1.69 2.19 2.002 0 .313 4.317 2.94 5.193 3.441.876.5 2.44 1.752 3.316 1.752.876 0 2.378-.876 2.503-2.065.125-1.251 1.877-2.127 1.877-2.753 0-.625-.563-1.063-.5-1.439.062-.375 1.626-.938 1.626-1.877 0-.938-.625-2.252-.688-2.69-.062-.376-.438-1.251-.062-1.377.375-.125 1.626-1.251 1.376-2.377-.125-.939-2.315-1.189-3.128-1.126z" fill="#FFD2C7"/><path d="M267.679 256.904c1.94 1.063 3.066 4.254 3.316 4.317.251.062.814-.063.814-.376 0-.312-.063-1.376.25-1.376.376 0 .751 1.752.814 4.317.062 2.565 1.001 8.634 0 9.385-.626.501-6.258 3.441-6.445 3.879-.188.376.125 3.191-.376 3.629-.5.438-1.564 1.502-2.44 1.565-.876.062-5.944.563-8.322 0-2.378-.564-5.381-1.69-5.506-2.003-.063-.312.626-7.07 1.376-7.883.751-.814 6.195-8.322 6.633-9.01.438-.688.751-2.315.751-3.253 0-.939.876-3.066 2.44-3.567 1.815-.625 5.256-.438 6.695.376z" fill="#545454"/></g><defs><linearGradient id="paint0_linear" x1="275.003" y1="222.151" x2="275.003" y2="375.021" gradientUnits="userSpaceOnUse"><stop stop-color="#E5E5E5"/><stop offset=".476" stop-color="#F4F4F4"/><stop offset="1" stop-color="#F7F7F9"/></linearGradient><linearGradient id="paint1_linear" x1="275.003" y1="222.151" x2="275.003" y2="375.021" gradientUnits="userSpaceOnUse"><stop stop-color="#E5E5E5"/><stop offset=".476" stop-color="#F4F4F4"/><stop offset="1" stop-color="#F7F7F9"/></linearGradient><clipPath id="clip0"><path fill="#fff" d="M0 0h550v461H0z"/></clipPath></defs></svg>